<svg version="1.1" xmlns="http://www.w3.org/2000/svg" width="32" height="32" viewBox="0 0 32 32">
<path fill="var(--fill, transparent)" d="M22.25 9.5c0 0.137-0.113 0.25-0.25 0.25h-1.75c-0.137 0-0.25-0.113-0.25-0.25v-1.5h-8v1.5c0 0.137-0.113 0.25-0.25 0.25h-1.75c-0.137 0-0.25-0.113-0.25-0.25v-1.5h-4v18.25h20.5v-18.25h-4v1.5zM20.2 13.306l-2.791 5.128h1.534c0.137 0 0.25 0.113 0.25 0.25v0.666c0 0.137-0.113 0.25-0.25 0.25h-2.044v1.053h2.044c0.137 0 0.25 0.113 0.25 0.25v0.666c0 0.137-0.113 0.25-0.25 0.25h-2.044v1.681c0 0.137-0.113 0.25-0.25 0.25h-1.291c-0.137 0-0.25-0.113-0.25-0.25v-1.681h-2.034c-0.137 0-0.25-0.113-0.25-0.25v-0.666c0-0.137 0.113-0.25 0.25-0.25h2.034v-1.053h-2.034c-0.137 0-0.25-0.113-0.25-0.25v-0.666c0-0.137 0.113-0.25 0.25-0.25h1.519l-2.791-5.125c-0.066-0.122-0.022-0.275 0.1-0.341 0.034-0.022 0.078-0.031 0.119-0.031h1.438c0.097 0.001 0.18 0.056 0.221 0.136l0.001 0.001 2.294 4.544h0.087l2.294-4.544c0.041-0.084 0.128-0.137 0.222-0.137h1.406c0.141 0 0.25 0.113 0.247 0.25 0 0.041-0.012 0.081-0.031 0.119z"/>
<path fill="currentColor" d="M19.984 12.938h-1.406c-0.094 0-0.181 0.053-0.222 0.137l-2.294 4.544h-0.088l-2.294-4.544c-0.042-0.082-0.125-0.137-0.222-0.137h-1.438c-0.041 0-0.084 0.009-0.119 0.031-0.122 0.066-0.166 0.219-0.1 0.341l2.791 5.125h-1.519c-0.137 0-0.25 0.113-0.25 0.25v0.666c0 0.137 0.113 0.25 0.25 0.25h2.034v1.053h-2.034c-0.137 0-0.25 0.113-0.25 0.25v0.666c0 0.137 0.113 0.25 0.25 0.25h2.034v1.681c0 0.137 0.113 0.25 0.25 0.25h1.291c0.137 0 0.25-0.113 0.25-0.25v-1.681h2.044c0.137 0 0.25-0.113 0.25-0.25v-0.666c0-0.137-0.113-0.25-0.25-0.25h-2.044v-1.053h2.044c0.137 0 0.25-0.113 0.25-0.25v-0.666c0-0.137-0.113-0.25-0.25-0.25h-1.534l2.791-5.128c0.019-0.037 0.031-0.078 0.031-0.119 0.003-0.137-0.106-0.25-0.247-0.25z"/>
<path fill="currentColor" d="M27.5 5.75h-5.25v-2c0-0.138-0.113-0.25-0.25-0.25h-1.75c-0.137 0-0.25 0.112-0.25 0.25v2h-8v-2c0-0.138-0.113-0.25-0.25-0.25h-1.75c-0.137 0-0.25 0.112-0.25 0.25v2h-5.25c-0.553 0-1 0.447-1 1v20.75c0 0.553 0.447 1 1 1h23c0.553 0 1-0.447 1-1v-20.75c0-0.553-0.447-1-1-1zM26.25 26.25h-20.5v-18.25h4v1.5c0 0.137 0.113 0.25 0.25 0.25h1.75c0.137 0 0.25-0.113 0.25-0.25v-1.5h8v1.5c0 0.137 0.113 0.25 0.25 0.25h1.75c0.137 0 0.25-0.113 0.25-0.25v-1.5h4v18.25z"/>
</svg>
