<svg version="1.1" xmlns="http://www.w3.org/2000/svg" width="32" height="32" viewBox="0 0 32 32">
<path fill="var(--fill, transparent)" d="M10.625 18.281c0-0.172 0.141-0.313 0.313-0.313h1.375c0.172 0 0.313 0.141 0.313 0.313v5.344h11.094v-6.031c0-4.262-3.456-7.719-7.719-7.719s-7.719 3.456-7.719 7.719v6.031h2.344v-5.344z"/>
<path fill="currentColor" d="M6.778 9.703l1.237-1.238c0.097-0.097 0.097-0.256 0-0.353l-2.122-2.122c-0.045-0.045-0.108-0.073-0.177-0.073s-0.131 0.028-0.177 0.073l-1.237 1.237c-0.045 0.045-0.073 0.108-0.073 0.177s0.028 0.131 0.073 0.177l2.122 2.122c0.097 0.097 0.253 0.097 0.353 0zM27.703 7.228l-1.238-1.237c-0.045-0.045-0.108-0.073-0.177-0.073s-0.131 0.028-0.177 0.073l-2.122 2.122c-0.045 0.045-0.073 0.108-0.073 0.177s0.028 0.131 0.073 0.177l1.237 1.237c0.097 0.097 0.256 0.097 0.353 0l2.122-2.122c0.097-0.1 0.097-0.256 0-0.353zM15.125 5.625h1.75c0.137 0 0.25-0.112 0.25-0.25v-3c0-0.138-0.113-0.25-0.25-0.25h-1.75c-0.137 0-0.25 0.112-0.25 0.25v3c0 0.138 0.113 0.25 0.25 0.25zM26 27.875h-20c-0.553 0-1 0.447-1 1v0.75c0 0.137 0.112 0.25 0.25 0.25h21.5c0.137 0 0.25-0.113 0.25-0.25v-0.75c0-0.553-0.447-1-1-1zM6.031 24.875c0 0.553 0.447 1 1 1h17.938c0.553 0 1-0.447 1-1v-7.281c0-5.506-4.462-9.969-9.969-9.969s-9.969 4.463-9.969 9.969v7.281zM8.281 17.594c0-4.262 3.456-7.719 7.719-7.719s7.719 3.456 7.719 7.719v6.031h-11.094v-5.344c0-0.172-0.141-0.313-0.313-0.313h-1.375c-0.172 0-0.313 0.141-0.313 0.313v5.344h-2.344v-6.031z"/>
</svg>
