<svg version="1.1" xmlns="http://www.w3.org/2000/svg" width="32" height="32" viewBox="0 0 32 32">
<path fill="var(--fill, transparent)" d="M7.966 18.197c-0.781 0.781-1.209 1.816-1.209 2.919s0.431 2.141 1.209 2.919c0.781 0.781 1.816 1.209 2.919 1.209s2.141-0.431 2.919-1.209l1.856-1.856-5.838-5.838-1.856 1.856zM21.116 6.756c-1.103 0-2.141 0.431-2.919 1.209l-1.856 1.856 5.837 5.838 1.856-1.856c0.778-0.781 1.209-1.816 1.209-2.919s-0.431-2.141-1.209-2.919c-0.781-0.781-1.816-1.209-2.919-1.209z"/>
<path fill="currentColor" d="M18.091 17.084c-0.045-0.045-0.108-0.073-0.177-0.073s-0.131 0.028-0.177 0.073l-2.081 2.081-2.822-2.822 2.084-2.084c0.097-0.097 0.097-0.256 0-0.353l-1.137-1.137c-0.045-0.045-0.108-0.073-0.177-0.073s-0.131 0.028-0.177 0.073l-2.084 2.084-1.344-1.344c-0.044-0.044-0.106-0.072-0.174-0.072-0.002 0-0.003 0-0.005 0h0c-0.063 0-0.128 0.025-0.178 0.072l-3.181 3.184c-1.125 1.123-1.824 2.673-1.831 4.386v0.001c-0.006 1.234 0.35 2.472 1.072 3.534l-2.378 2.378c-0.045 0.045-0.073 0.108-0.073 0.177s0.028 0.131 0.073 0.177l1.325 1.325c0.050 0.050 0.112 0.072 0.178 0.072s0.128-0.025 0.178-0.072l2.378-2.378c1.053 0.716 2.278 1.072 3.503 1.072 1.6 0 3.2-0.609 4.422-1.831l3.184-3.184c0.097-0.097 0.097-0.256 0-0.353l-1.344-1.344 2.084-2.084c0.097-0.097 0.097-0.256 0-0.353l-1.144-1.131zM13.803 24.034c-0.743 0.747-1.772 1.209-2.909 1.209-0.003 0-0.007 0-0.010 0h0.001c-1.103 0-2.138-0.428-2.919-1.209-0.778-0.778-1.209-1.816-1.209-2.919s0.428-2.137 1.209-2.919l1.856-1.856 5.838 5.837-1.856 1.856zM28.678 4.65l-1.325-1.325c-0.050-0.050-0.113-0.072-0.178-0.072s-0.128 0.025-0.178 0.072l-2.378 2.378c-0.979-0.671-2.189-1.072-3.493-1.072-0.004 0-0.007 0-0.011 0h0.001c-1.6 0-3.2 0.609-4.422 1.831l-3.184 3.184c-0.045 0.045-0.073 0.108-0.073 0.177s0.028 0.131 0.073 0.177l8.491 8.491c0.050 0.050 0.113 0.072 0.178 0.072 0.063 0 0.128-0.025 0.178-0.072l3.184-3.184c2.153-2.156 2.406-5.491 0.759-7.922l2.378-2.378c0.097-0.1 0.097-0.259 0-0.356zM24.034 13.803l-1.856 1.856-5.837-5.838 1.856-1.856c0.778-0.778 1.816-1.209 2.919-1.209s2.137 0.428 2.919 1.209c0.778 0.778 1.209 1.816 1.209 2.919s-0.431 2.137-1.209 2.919z"/>
</svg>
