<svg version="1.1" xmlns="http://www.w3.org/2000/svg" width="32" height="32" viewBox="0 0 32 32">
<path fill="var(--fill, transparent)" d="M16 17.25c1.697 0 3.063-1.35 3.063-3v-7c0-1.65-1.366-3-3.063-3s-3.063 1.35-3.063 3v7c0 1.65 1.366 3 3.063 3z"/>
<path fill="currentColor" d="M26.313 14.188c0-0.137-0.113-0.25-0.25-0.25h-1.875c-0.137 0-0.25 0.113-0.25 0.25 0 4.384-3.553 7.938-7.938 7.938s-7.938-3.553-7.938-7.938c0-0.137-0.112-0.25-0.25-0.25h-1.875c-0.138 0-0.25 0.113-0.25 0.25 0 5.272 3.956 9.622 9.063 10.238v3.2h-4.541c-0.428 0-0.772 0.447-0.772 1v1.125c0 0.137 0.088 0.25 0.194 0.25h12.737c0.106 0 0.194-0.113 0.194-0.25v-1.125c0-0.553-0.344-1-0.772-1h-4.666v-3.184c5.166-0.563 9.188-4.938 9.188-10.253z"/>
<path fill="currentColor" d="M16 19.5c2.934 0 5.313-2.35 5.313-5.25v-7c0-2.9-2.378-5.25-5.313-5.25s-5.313 2.35-5.313 5.25v7c0 2.9 2.378 5.25 5.313 5.25zM12.938 7.25c0-1.65 1.366-3 3.063-3s3.063 1.35 3.063 3v7c0 1.65-1.366 3-3.063 3s-3.063-1.35-3.063-3v-7z"/>
</svg>
