<svg version="1.1" xmlns="http://www.w3.org/2000/svg" width="32" height="32" viewBox="0 0 32 32">
<path fill="var(--fill, transparent)" d="M16 6.875c-1.738 0-3.369 0.675-4.597 1.903s-1.903 2.859-1.903 4.597v10.625h13v-10.625c0-1.738-0.675-3.369-1.903-4.597s-2.859-1.903-4.597-1.903zM24.75 13.375c0-4.409-3.259-8.056-7.5-8.662v0.003c4.241 0.606 7.5 4.25 7.5 8.659zM14.75 4.716v-0.003c-4.241 0.606-7.5 4.253-7.5 8.662 0-4.409 3.259-8.053 7.5-8.659z"/>
<path fill="currentColor" d="M25.5 24h-0.75v-10.625c0-4.409-3.259-8.053-7.5-8.659v-1.216c0-0.691-0.559-1.25-1.25-1.25s-1.25 0.559-1.25 1.25v1.216c-4.241 0.606-7.5 4.25-7.5 8.659v10.625h-0.75c-0.553 0-1 0.447-1 1v1c0 0.137 0.112 0.25 0.25 0.25h6.75c0 1.931 1.569 3.5 3.5 3.5s3.5-1.569 3.5-3.5h6.75c0.137 0 0.25-0.113 0.25-0.25v-1c0-0.553-0.447-1-1-1zM16 27.75c-0.828 0-1.5-0.672-1.5-1.5h3c0 0.828-0.672 1.5-1.5 1.5zM22.5 24h-13v-10.625c0-1.738 0.675-3.369 1.903-4.597s2.859-1.903 4.597-1.903c1.738 0 3.369 0.675 4.597 1.903s1.903 2.859 1.903 4.597v10.625z"/>
</svg>
