<svg version="1.1" xmlns="http://www.w3.org/2000/svg" width="32" height="32" viewBox="0 0 32 32">
<path fill="currentColor" d="M26 2h-20c-0.553 0-1 0.447-1 1v26c0 0.553 0.447 1 1 1h20c0.553 0 1-0.447 1-1v-26c0-0.553-0.447-1-1-1zM17.875 4.25h3v6.559l-1.453-1.059-1.547 1.106v-6.606zM7.25 27.75v-23.5h8.75v9.278c0 0.103 0.031 0.206 0.094 0.291 0.091 0.128 0.239 0.21 0.406 0.21 0.109 0 0.211-0.035 0.293-0.095l-0.001 0.001 2.619-1.872 2.544 1.856c0.084 0.063 0.188 0.097 0.294 0.097 0.275 0 0.5-0.225 0.5-0.5v-9.266h2v23.5h-17.497z"/>
<path fill="var(--fill, transparent)" d="M20.875 10.809v-6.559h-3v6.606l1.547-1.106z"/>
<path fill="var(--fill, transparent)" d="M22.747 4.25v9.266c0 0.275-0.225 0.5-0.5 0.5-0.106 0-0.209-0.034-0.294-0.097l-2.544-1.856-2.619 1.872c-0.081 0.059-0.182 0.094-0.291 0.094-0.167 0-0.314-0.082-0.405-0.208l-0.001-0.002c-0.063-0.084-0.094-0.188-0.094-0.291v-9.278h-8.75v23.5h17.497v-23.5h-2z"/>
</svg>
