<svg version="1.1" xmlns="http://www.w3.org/2000/svg" width="32" height="32" viewBox="0 0 32 32">
<path fill="currentColor" d="M9.625 12.875v8.375c0 1.149 0.302 2.249 0.869 3.216 0.565 0.952 1.338 1.725 2.261 2.274l0.030 0.016c0.967 0.566 2.066 0.869 3.216 0.869s2.249-0.302 3.216-0.869c0.952-0.565 1.725-1.338 2.274-2.261l0.016-0.030c0.566-0.967 0.869-2.066 0.869-3.216v-8.375h-12.75zM24.75 18.25v3c0 0.203-0.007 0.405-0.021 0.605 2.143 0.915 3.646 3.042 3.646 5.52 0 0.138-0.112 0.25-0.25 0.25v0h-1.75c-0.138 0-0.25-0.112-0.25-0.25v0c0-1.383-0.748-2.59-1.862-3.241-0.208 0.59-0.447 1.096-0.73 1.572l0.022-0.040c-0.774 1.305-1.834 2.365-3.099 3.117l-0.040 0.022c-1.296 0.759-2.805 1.195-4.416 1.195s-3.12-0.435-4.416-1.195c-1.305-0.774-2.365-1.834-3.117-3.099l-0.022-0.040c-0.261-0.436-0.5-0.942-0.689-1.471l-0.019-0.061c-1.113 0.65-1.862 1.858-1.862 3.241 0 0.138-0.112 0.25-0.25 0.25v0h-1.75c-0.138 0-0.25-0.112-0.25-0.25v0c0-2.478 1.502-4.605 3.646-5.52-0.013-0.181-0.021-0.391-0.021-0.604 0-0 0-0 0-0.001v0-3h-4.625c-0.138 0-0.25-0.112-0.25-0.25v0-1.75c0-0.138 0.112-0.25 0.25-0.25v0h4.625v-3.125c-2.399 0-4.344-1.945-4.344-4.344 0-0.138 0.112-0.25 0.25-0.25v0h1.875c0.138 0 0.25 0.112 0.25 0.25v0c0 1.087 0.881 1.969 1.969 1.969h17.5c1.087 0 1.969-0.881 1.969-1.969 0-0.138 0.112-0.25 0.25-0.25v0h1.875c0.138 0 0.25 0.112 0.25 0.25v0c0 2.399-1.945 4.344-4.344 4.344v3.125h4.625c0.138 0 0.25 0.112 0.25 0.25v0 1.75c0 0.138-0.112 0.25-0.25 0.25v0h-4.625zM11.5 8.5c0 0.138-0.112 0.25-0.25 0.25v0h-1.75c-0.138 0-0.25-0.112-0.25-0.25v0c0-1.251 0.274-2.398 0.809-3.377 0.539-0.985 1.328-1.775 2.313-2.313 0.979-0.535 2.126-0.809 3.377-0.809h0.5c1.251 0 2.398 0.274 3.377 0.809 0.985 0.539 1.775 1.328 2.313 2.314 0.535 0.979 0.809 2.126 0.809 3.377 0 0.138-0.112 0.25-0.25 0.25v0h-1.75c-0.138 0-0.25-0.112-0.25-0.25v0c0-0.885-0.186-1.661-0.534-2.298-0.332-0.607-0.811-1.086-1.419-1.418-0.637-0.348-1.413-0.534-2.298-0.534h-0.5c-0.885 0-1.661 0.186-2.298 0.534-0.607 0.332-1.086 0.811-1.418 1.418-0.348 0.637-0.534 1.413-0.534 2.298z"/>
<path fill="var(--fill, transparent)" d="M9.625 12.875v8.375c0 1.149 0.302 2.249 0.869 3.216 0.565 0.952 1.338 1.725 2.261 2.274l0.030 0.016c0.967 0.566 2.066 0.869 3.216 0.869s2.249-0.302 3.216-0.869c0.952-0.565 1.725-1.338 2.274-2.261l0.016-0.030c0.566-0.967 0.869-2.066 0.869-3.216v-8.375h-12.75z"/>
</svg>
