<svg version="1.1" xmlns="http://www.w3.org/2000/svg" width="32" height="32" viewBox="0 0 32 32">
<path fill="var(--fill, transparent)" d="M22.25 9.5c0 0.137-0.113 0.25-0.25 0.25h-1.75c-0.137 0-0.25-0.113-0.25-0.25v-1.5h-8v1.5c0 0.137-0.113 0.25-0.25 0.25h-1.75c-0.137 0-0.25-0.113-0.25-0.25v-1.5h-4v4.25h20.5v-4.25h-4v1.5z"/>
<path fill="currentColor" d="M27.5 5.75h-5.25v-2c0-0.138-0.113-0.25-0.25-0.25h-1.75c-0.137 0-0.25 0.112-0.25 0.25v2h-8v-2c0-0.138-0.113-0.25-0.25-0.25h-1.75c-0.137 0-0.25 0.112-0.25 0.25v2h-5.25c-0.553 0-1 0.447-1 1v20.75c0 0.553 0.447 1 1 1h23c0.553 0 1-0.447 1-1v-20.75c0-0.553-0.447-1-1-1zM26.25 26.25h-20.5v-11.875h20.5v11.875zM26.25 12.25h-20.5v-4.25h4v1.5c0 0.137 0.113 0.25 0.25 0.25h1.75c0.137 0 0.25-0.113 0.25-0.25v-1.5h8v1.5c0 0.137 0.113 0.25 0.25 0.25h1.75c0.137 0 0.25-0.113 0.25-0.25v-1.5h4v4.25z"/>
</svg>
