<svg version="1.1" xmlns="http://www.w3.org/2000/svg" width="32" height="32" viewBox="0 0 32 32">
<path fill="var(--fill, transparent)" d="M27 10h-5.837l-0.534-1.494-0.716-2.006h-7.828l-0.716 2.006-0.534 1.494h-5.834c-0.138 0-0.25 0.113-0.25 0.25v14.25c0 0.137 0.112 0.25 0.25 0.25h22c0.137 0 0.25-0.113 0.25-0.25v-14.25c0-0.137-0.113-0.25-0.25-0.25zM16 22c-2.762 0-5-2.238-5-5s2.238-5 5-5 5 2.238 5 5-2.238 5-5 5z"/>
<path fill="currentColor" d="M16 12c-2.762 0-5 2.238-5 5s2.238 5 5 5 5-2.238 5-5-2.238-5-5-5zM16 20c-1.656 0-3-1.344-3-3s1.344-3 3-3 3 1.344 3 3-1.344 3-3 3z"/>
<path fill="currentColor" d="M27 7.75h-4.25l-1.012-2.838c-0.143-0.39-0.511-0.662-0.943-0.662-0 0-0.001 0-0.001 0h-9.587c-0.422 0-0.8 0.266-0.941 0.662l-1.016 2.838h-4.25c-1.381 0-2.5 1.119-2.5 2.5v14.25c0 1.381 1.119 2.5 2.5 2.5h22c1.381 0 2.5-1.119 2.5-2.5v-14.25c0-1.381-1.119-2.5-2.5-2.5zM27.25 24.5c0 0.137-0.113 0.25-0.25 0.25h-22c-0.138 0-0.25-0.113-0.25-0.25v-14.25c0-0.137 0.112-0.25 0.25-0.25h5.834l0.534-1.494 0.716-2.006h7.828l0.716 2.006 0.534 1.494h5.837c0.137 0 0.25 0.113 0.25 0.25v14.25z"/>
</svg>
