<svg version="1.1" xmlns="http://www.w3.org/2000/svg" width="32" height="32" viewBox="0 0 32 32">
<path fill="currentColor" d="M16 2c-7.731 0-14 6.269-14 14s6.269 14 14 14 14-6.269 14-14-6.269-14-14-14zM16 27.625c-6.419 0-11.625-5.206-11.625-11.625s5.206-11.625 11.625-11.625 11.625 5.206 11.625 11.625-5.206 11.625-11.625 11.625z"/>
<path fill="var(--fill, transparent)" d="M16 4.375c-6.419 0-11.625 5.206-11.625 11.625s5.206 11.625 11.625 11.625 11.625-5.206 11.625-11.625-5.206-11.625-11.625-11.625zM14.016 20.712c1.541 0 2.587-0.919 2.719-2.262 0.012-0.128 0.119-0.228 0.25-0.228h1.647c0.075 0 0.137 0.063 0.137 0.137 0 2.419-2.009 4.141-4.759 4.141-3.216 0-5.072-2.144-5.072-5.706v-1.531c0-3.591 1.856-5.762 5.072-5.762 2.759 0 4.759 1.778 4.759 4.316 0 0.075-0.063 0.137-0.137 0.137h-1.644c-0.131 0-0.238-0.1-0.25-0.231-0.122-1.441-1.172-2.425-2.719-2.425-1.909 0-2.988 1.419-2.991 3.963v1.541c0 2.509 1.078 3.913 2.987 3.913zM23.063 22.003c0 0.137-0.113 0.25-0.25 0.25h-1.575c-0.137 0-0.25-0.113-0.25-0.25v-12.006c0-0.137 0.113-0.25 0.25-0.25h1.575c0.137 0 0.25 0.113 0.25 0.25v12.006z"/>
<path fill="currentColor" d="M22.813 9.747h-1.575c-0.137 0-0.25 0.113-0.25 0.25v12.006c0 0.137 0.113 0.25 0.25 0.25h1.575c0.137 0 0.25-0.113 0.25-0.25v-12.006c0-0.137-0.113-0.25-0.25-0.25zM14.019 11.297c1.547 0 2.597 0.984 2.719 2.425 0.012 0.131 0.119 0.231 0.25 0.231h1.644c0.075 0 0.137-0.063 0.137-0.137 0-2.537-2-4.316-4.759-4.316-3.216 0-5.072 2.172-5.072 5.762v1.531c0 3.563 1.856 5.706 5.072 5.706 2.75 0 4.759-1.722 4.759-4.141 0-0.075-0.063-0.137-0.137-0.137h-1.647c-0.131 0-0.238 0.1-0.25 0.228-0.131 1.344-1.178 2.262-2.719 2.262-1.909 0-2.988-1.403-2.988-3.913v-1.541c0.003-2.544 1.081-3.963 2.991-3.963z"/>
</svg>
