<svg version="1.1" xmlns="http://www.w3.org/2000/svg" width="32" height="32" viewBox="0 0 32 32">
<path fill="currentColor" d="M16 2c-7.731 0-14 6.269-14 14s6.269 14 14 14 14-6.269 14-14-6.269-14-14-14zM16 27.625c-6.419 0-11.625-5.206-11.625-11.625s5.206-11.625 11.625-11.625 11.625 5.206 11.625 11.625-5.206 11.625-11.625 11.625z"/>
<path fill="var(--fill, transparent)" d="M16 4.375c-6.419 0-11.625 5.206-11.625 11.625s5.206 11.625 11.625 11.625 11.625-5.206 11.625-11.625-5.206-11.625-11.625-11.625zM21.516 20.303l-0.894 1.219c-0.046 0.062-0.119 0.102-0.201 0.102-0.056 0-0.108-0.018-0.149-0.049l0.001 0-5.169-3.769c-0.063-0.045-0.103-0.119-0.103-0.201 0-0.001 0-0.001 0-0.002v0-8.603c0-0.137 0.113-0.25 0.25-0.25h1.503c0.137 0 0.25 0.113 0.25 0.25v7.734l4.456 3.222c0.113 0.078 0.137 0.234 0.056 0.347z"/>
<path fill="currentColor" d="M21.459 19.956l-4.456-3.222v-7.734c0-0.137-0.113-0.25-0.25-0.25h-1.503c-0.137 0-0.25 0.113-0.25 0.25v8.603c0 0.081 0.037 0.156 0.103 0.203l5.169 3.769c0.113 0.081 0.269 0.059 0.35-0.053l0.894-1.219c0.081-0.113 0.056-0.269-0.056-0.347z"/>
</svg>
