<svg version="1.1" xmlns="http://www.w3.org/2000/svg" width="32" height="32" viewBox="0 0 32 32">
<path fill="currentColor" d="M16 2c-7.731 0-14 6.269-14 14s6.269 14 14 14 14-6.269 14-14-6.269-14-14-14zM16 27.625c-6.419 0-11.625-5.206-11.625-11.625s5.206-11.625 11.625-11.625 11.625 5.206 11.625 11.625-5.206 11.625-11.625 11.625z"/>
<path fill="var(--fill, transparent)" d="M16 4.375c-6.419 0-11.625 5.206-11.625 11.625s5.206 11.625 11.625 11.625 11.625-5.206 11.625-11.625-5.206-11.625-11.625-11.625zM21.369 20.847c0.038 0.047 0.059 0.103 0.059 0.163 0 0.141-0.113 0.25-0.25 0.25l-2.063-0.009-3.103-3.7-3.103 3.703-2.066 0.009c-0.137 0-0.25-0.113-0.25-0.25 0-0.059 0.022-0.116 0.059-0.163l4.066-4.841-4.066-4.844c-0.036-0.044-0.059-0.101-0.059-0.162v-0c0-0.141 0.113-0.25 0.25-0.25l2.066 0.009 3.103 3.7 3.106-3.703 2.063-0.009c0.137 0 0.25 0.113 0.25 0.25 0 0.059-0.019 0.119-0.056 0.162l-4.066 4.844 4.059 4.841z"/>
<path fill="currentColor" d="M21.431 11c0-0.137-0.113-0.25-0.25-0.25l-2.063 0.009-3.106 3.703-3.103-3.7-2.066-0.009c-0.137 0-0.25 0.109-0.25 0.25 0 0.059 0.022 0.116 0.059 0.162l4.066 4.844-4.066 4.841c-0.036 0.044-0.059 0.101-0.059 0.162v0c0 0.137 0.113 0.25 0.25 0.25l2.066-0.009 3.103-3.703 3.103 3.7 2.063 0.009c0.137 0 0.25-0.109 0.25-0.25 0-0.059-0.022-0.116-0.059-0.163l-4.059-4.841 4.066-4.844c0.038-0.044 0.056-0.103 0.056-0.162z"/>
</svg>
