<svg version="1.1" xmlns="http://www.w3.org/2000/svg" width="32" height="32" viewBox="0 0 32 32">
<path fill="currentColor" d="M27.5 3.5h-23c-0.553 0-1 0.447-1 1v23c0 0.553 0.447 1 1 1h23c0.553 0 1-0.447 1-1v-23c0-0.553-0.447-1-1-1zM26.25 26.25h-20.5v-20.5h20.5v20.5z"/>
<path fill="var(--fill, transparent)" d="M5.75 26.25h20.5v-20.5h-20.5v20.5zM10.872 11.441c-0.037-0.043-0.059-0.099-0.059-0.161 0-0.137 0.111-0.248 0.248-0.248 0 0 0.001 0 0.001 0h1.841c0.147 0 0.287 0.066 0.384 0.178l2.713 3.234 2.713-3.234c0.094-0.113 0.234-0.178 0.384-0.178h1.841c0.212 0 0.328 0.247 0.191 0.409l-3.822 4.559 3.822 4.559c0.137 0.163 0.022 0.409-0.191 0.409h-1.841c-0.147 0-0.288-0.066-0.384-0.178l-2.713-3.234-2.713 3.234c-0.094 0.113-0.234 0.178-0.384 0.178h-1.841c-0.213 0-0.328-0.247-0.191-0.409l3.822-4.559-3.822-4.559z"/>
<path fill="currentColor" d="M11.063 20.969h1.841c0.15 0 0.291-0.066 0.384-0.178l2.713-3.234 2.712 3.234c0.097 0.113 0.238 0.178 0.384 0.178h1.841c0.212 0 0.328-0.247 0.191-0.409l-3.822-4.559 3.822-4.559c0.137-0.162 0.022-0.409-0.191-0.409h-1.841c-0.15 0-0.291 0.066-0.384 0.178l-2.713 3.234-2.713-3.234c-0.097-0.113-0.238-0.178-0.384-0.178h-1.841c-0.213 0-0.328 0.247-0.191 0.409l3.822 4.559-3.822 4.559c-0.037 0.043-0.059 0.099-0.059 0.161 0 0.137 0.111 0.248 0.248 0.248 0 0 0.001 0 0.001 0h-0z"/>
</svg>
