<svg version="1.1" xmlns="http://www.w3.org/2000/svg" width="32" height="32" viewBox="0 0 32 32">
<path fill="var(--fill, transparent)" d="M24.747 15.375l-1.181-0.313-0.431-1.141c-0.269-0.709-0.644-1.378-1.116-1.981-0.47-0.599-1.009-1.114-1.614-1.543l-0.024-0.016c-1.284-0.903-2.797-1.381-4.375-1.381s-3.091 0.478-4.375 1.381c-0.628 0.445-1.168 0.96-1.625 1.543l-0.013 0.017c-0.449 0.569-0.826 1.224-1.098 1.93l-0.017 0.051-0.434 1.144-1.184 0.309c-0.842 0.232-1.549 0.713-2.059 1.357l-0.006 0.008c-0.51 0.647-0.819 1.474-0.819 2.373 0 0.004 0 0.008 0 0.012v-0.001c0 1.034 0.403 2.009 1.134 2.741s1.703 1.134 2.738 1.134h15.506c1.034 0 2.006-0.403 2.738-1.134 0.701-0.698 1.134-1.663 1.134-2.73 0-0.004 0-0.007 0-0.011v0.001c0-1.756-1.181-3.297-2.878-3.75z"/>
<path fill="currentColor" d="M25.356 13.084c-1.431-3.775-5.078-6.459-9.35-6.459s-7.919 2.681-9.35 6.456c-2.678 0.703-4.656 3.141-4.656 6.044 0 3.453 2.797 6.25 6.247 6.25h15.506c3.45 0 6.247-2.797 6.247-6.25 0-2.897-1.972-5.334-4.644-6.041zM26.491 21.866c-0.697 0.701-1.661 1.134-2.727 1.134-0.004 0-0.007 0-0.011 0h-15.506c-1.034 0-2.006-0.403-2.737-1.134-0.701-0.698-1.134-1.663-1.134-2.73 0-0.004 0-0.007 0-0.011v0.001c0-0.875 0.284-1.697 0.819-2.384 0.516-0.653 1.224-1.134 2.038-1.359l0.028-0.007 1.184-0.309 0.434-1.144c0.269-0.713 0.644-1.378 1.116-1.981 0.47-0.599 1.009-1.114 1.614-1.543l0.024-0.016c1.284-0.903 2.797-1.381 4.375-1.381s3.091 0.478 4.375 1.381c0.622 0.438 1.172 0.963 1.637 1.559 0.472 0.603 0.847 1.272 1.116 1.981l0.431 1.141 1.181 0.313c1.697 0.453 2.878 1.994 2.878 3.75 0 1.034-0.403 2.009-1.134 2.741z"/>
</svg>
