<svg version="1.1" xmlns="http://www.w3.org/2000/svg" width="32" height="32" viewBox="0 0 32 32">
<path fill="var(--fill, transparent)" d="M16 4.375c-6.419 0-11.625 5.206-11.625 11.625s5.206 11.625 11.625 11.625 11.625-5.206 11.625-11.625-5.206-11.625-11.625-11.625zM10.238 21.928c-0.063 0.028-0.137 0-0.166-0.066-0.012-0.031-0.012-0.069 0-0.1l3.084-7.047 4.128 4.128-7.047 3.084zM21.959 10.206l-3.084 7.047-4.128-4.128 7.047-3.084c0.063-0.028 0.137 0 0.166 0.066 0.012 0.031 0.012 0.066 0 0.1z"/>
<path fill="currentColor" d="M10.072 21.762c-0.012 0.031-0.012 0.069 0 0.1 0.028 0.066 0.103 0.094 0.166 0.066l7.047-3.084-4.128-4.128-3.084 7.047zM21.794 10.041l-7.047 3.084 4.128 4.128 3.084-7.047c0.012-0.034 0.012-0.069 0-0.1-0.028-0.066-0.103-0.094-0.166-0.066z"/>
<path fill="currentColor" d="M16 2c-7.731 0-14 6.269-14 14s6.269 14 14 14 14-6.269 14-14-6.269-14-14-14zM16 27.625c-6.419 0-11.625-5.206-11.625-11.625s5.206-11.625 11.625-11.625 11.625 5.206 11.625 11.625-5.206 11.625-11.625 11.625z"/>
</svg>
