<svg version="1.1" xmlns="http://www.w3.org/2000/svg" width="32" height="32" viewBox="0 0 32 32">
<path fill="var(--fill, transparent)" d="M14.384 16.438c0 0.897 0.723 1.625 1.616 1.625s1.616-0.728 1.616-1.625v0c0-0.897-0.723-1.625-1.616-1.625s-1.616 0.728-1.616 1.625v0z"/>
<path fill="var(--fill, transparent)" d="M24 11c0 0.137-0.113 0.25-0.25 0.25h-1.75c-0.137 0-0.25-0.113-0.25-0.25v-1.75h-4.625v1.75c0 0.137-0.113 0.25-0.25 0.25h-1.75c-0.137 0-0.25-0.113-0.25-0.25v-1.75h-4.625v1.75c0 0.137-0.113 0.25-0.25 0.25h-1.75c-0.137 0-0.25-0.113-0.25-0.25v-1.75h-3.75v15.5h23.5v-15.5h-3.75v1.75zM20.656 23h-1.369c-0.131 0-0.238-0.103-0.247-0.234-0.119-1.578-1.438-2.828-3.038-2.828s-2.919 1.247-3.037 2.828c-0.009 0.131-0.116 0.234-0.247 0.234h-1.372c-0 0-0 0-0 0-0.138 0-0.25-0.112-0.25-0.25 0-0.004 0-0.009 0-0.013l-0 0.001c0.088-1.666 0.997-3.113 2.331-3.941-0.566-0.625-0.909-1.45-0.909-2.359 0-1.934 1.559-3.5 3.481-3.5s3.481 1.566 3.481 3.5c0 0.909-0.344 1.738-0.909 2.359 1.334 0.825 2.247 2.275 2.334 3.941 0 0.004 0 0.008 0 0.012 0 0.138-0.112 0.25-0.25 0.25-0 0-0 0-0 0h0z"/>
<path fill="currentColor" d="M18.572 18.797c0.564-0.618 0.909-1.444 0.909-2.351 0-0.003 0-0.006 0-0.009v0c0-1.934-1.559-3.5-3.481-3.5s-3.481 1.566-3.481 3.5c0 0.909 0.344 1.734 0.909 2.359-1.341 0.841-2.241 2.277-2.331 3.928l-0.001 0.013c-0 0.004-0 0.008-0 0.012 0 0.138 0.112 0.25 0.25 0.25 0 0 0 0 0 0h1.372c0.131 0 0.238-0.103 0.247-0.234 0.119-1.581 1.438-2.828 3.038-2.828s2.919 1.25 3.038 2.828c0.009 0.131 0.116 0.234 0.247 0.234h1.369c0 0 0 0 0 0 0.138 0 0.25-0.112 0.25-0.25 0-0.004-0-0.009-0-0.013l0 0.001c-0.087-1.666-1-3.116-2.334-3.941zM16 18.063c-0.891 0-1.616-0.728-1.616-1.625s0.725-1.625 1.616-1.625 1.616 0.728 1.616 1.625-0.725 1.625-1.616 1.625z"/>
<path fill="currentColor" d="M29 7h-5v-1.75c0-0.138-0.113-0.25-0.25-0.25h-1.75c-0.137 0-0.25 0.112-0.25 0.25v1.75h-4.625v-1.75c0-0.138-0.113-0.25-0.25-0.25h-1.75c-0.137 0-0.25 0.112-0.25 0.25v1.75h-4.625v-1.75c0-0.138-0.113-0.25-0.25-0.25h-1.75c-0.137 0-0.25 0.112-0.25 0.25v1.75h-5c-0.553 0-1 0.447-1 1v18c0 0.553 0.447 1 1 1h26c0.553 0 1-0.447 1-1v-18c0-0.553-0.447-1-1-1zM27.75 24.75h-23.5v-15.5h3.75v1.75c0 0.137 0.113 0.25 0.25 0.25h1.75c0.137 0 0.25-0.113 0.25-0.25v-1.75h4.625v1.75c0 0.137 0.113 0.25 0.25 0.25h1.75c0.137 0 0.25-0.113 0.25-0.25v-1.75h4.625v1.75c0 0.137 0.113 0.25 0.25 0.25h1.75c0.137 0 0.25-0.113 0.25-0.25v-1.75h3.75v15.5z"/>
</svg>
