<svg version="1.1" xmlns="http://www.w3.org/2000/svg" width="32" height="32" viewBox="0 0 32 32">
<path fill="var(--fill, transparent)" d="M19.844 24.116c-1.078 0.894-2.444 1.384-3.844 1.384s-2.766-0.494-3.844-1.384c-0.828-0.69-1.464-1.584-1.834-2.605l-0.013-0.042h-3.059v6.281h17.5v-6.281h-3.059c-0.363 1.025-1 1.947-1.847 2.647z"/>
<path fill="currentColor" d="M10 15.656h12c0.137 0 0.25-0.113 0.25-0.25v-1.5c0-0.137-0.113-0.25-0.25-0.25h-12c-0.137 0-0.25 0.113-0.25 0.25v1.5c0 0.137 0.113 0.25 0.25 0.25z"/>
<path fill="currentColor" d="M26 2h-20c-0.553 0-1 0.447-1 1v26c0 0.553 0.447 1 1 1h20c0.553 0 1-0.447 1-1v-26c0-0.553-0.447-1-1-1zM24.75 27.75h-17.5v-6.281h3.059c0.363 1.025 1 1.947 1.847 2.647 1.078 0.891 2.444 1.384 3.844 1.384s2.766-0.491 3.844-1.384c0.847-0.7 1.484-1.622 1.847-2.647h3.059v6.281zM24.75 19.5h-4.637l-0.163 0.772c-0.375 1.869-2.038 3.228-3.95 3.228s-3.575-1.359-3.953-3.228l-0.162-0.772h-4.634v-15.25h17.5v15.25z"/>
<path fill="currentColor" d="M10 10.656h12c0.137 0 0.25-0.113 0.25-0.25v-1.5c0-0.137-0.113-0.25-0.25-0.25h-12c-0.137 0-0.25 0.113-0.25 0.25v1.5c0 0.137 0.113 0.25 0.25 0.25z"/>
</svg>
