<svg version="1.1" xmlns="http://www.w3.org/2000/svg" width="32" height="32" viewBox="0 0 32 32">
<path fill="var(--fill, transparent)" d="M28.497 8.872v0.016l-2.387 18.144c-0.031 0.25-0.247 0.438-0.497 0.438h-19.222c-0.253 0-0.466-0.191-0.5-0.438l-2.388-18.144v-0.019 0.050l2.388 18.144c0.034 0.247 0.247 0.438 0.5 0.438h19.222c0.25 0 0.466-0.188 0.497-0.438l2.387-18.144c0.003-0.016 0.003-0.031 0-0.047z"/>
<path fill="var(--fill, transparent)" d="M24.175 25.331l1.684-12.794-4.369 2.691-5.491-7.325-5.491 7.325-4.369-2.691 1.681 12.794h16.353zM12.481 19.425c0-1.941 1.578-3.519 3.519-3.519s3.519 1.578 3.519 3.519v0.031c0 1.941-1.578 3.519-3.519 3.519s-3.519-1.578-3.519-3.519v-0.031z"/>
<path fill="currentColor" d="M16 22.944c1.934 0 3.509-1.569 3.519-3.503v-0.016c0-1.941-1.578-3.519-3.519-3.519s-3.519 1.578-3.519 3.519v0.016c0.009 1.934 1.584 3.503 3.519 3.503zM16 17.916c0.831 0 1.506 0.675 1.506 1.509 0 0.831-0.675 1.509-1.506 1.509s-1.506-0.675-1.506-1.509c0-0.831 0.675-1.509 1.506-1.509z"/>
<path fill="currentColor" d="M5.891 27.031c0.034 0.247 0.247 0.438 0.5 0.438h19.222c0.25 0 0.466-0.188 0.497-0.438l2.387-18.144v-0.016c0.009-0.2-0.209-0.338-0.384-0.231l-6.081 3.747-5.831-7.778c-0.046-0.061-0.119-0.101-0.202-0.101s-0.155 0.039-0.201 0.1l-0 0.001-5.828 7.778-6.084-3.747c-0.172-0.106-0.394 0.028-0.381 0.228v0.019l2.387 18.144zM10.509 15.228l5.491-7.325 5.491 7.325 4.369-2.691-1.684 12.794h-16.353l-1.681-12.794 4.369 2.691z"/>
</svg>
