<svg version="1.1" xmlns="http://www.w3.org/2000/svg" width="32" height="32" viewBox="0 0 32 32">
<path fill="var(--fill, transparent)" d="M21.75 19.75h4v6h-4zM6.25 19.75h4v6h-4z"/>
<path fill="currentColor" d="M16 4c-6.628 0-12 5.372-12 12v11.25c0 0.416 0.334 0.75 0.75 0.75h5.75c1.103 0 2-0.897 2-2v-6.5c0-1.103-0.897-2-2-2h-4.25v-1.5c0-5.384 4.366-9.75 9.75-9.75s9.75 4.366 9.75 9.75v1.5h-4.25c-1.103 0-2 0.897-2 2v6.5c0 1.103 0.897 2 2 2h5.75c0.416 0 0.75-0.334 0.75-0.75v-11.25c0-6.628-5.372-12-12-12zM10.25 19.75v6h-4v-6h4zM25.75 25.75h-4v-6h4v6z"/>
</svg>
