<svg version="1.1" xmlns="http://www.w3.org/2000/svg" width="32" height="32" viewBox="0 0 32 32">
<path fill="var(--fill, transparent)" d="M7.25 19.25h17.5v-6.5h-17.5v6.5zM10.75 14.75c0.691 0 1.25 0.559 1.25 1.25s-0.559 1.25-1.25 1.25-1.25-0.559-1.25-1.25 0.559-1.25 1.25-1.25zM7.25 27.75h17.5v-6.5h-17.5v6.5zM10.75 23.25c0.691 0 1.25 0.559 1.25 1.25s-0.559 1.25-1.25 1.25-1.25-0.559-1.25-1.25 0.559-1.25 1.25-1.25zM7.25 10.75h17.5v-6.5h-17.5v6.5zM10.75 6.25c0.691 0 1.25 0.559 1.25 1.25s-0.559 1.25-1.25 1.25-1.25-0.559-1.25-1.25 0.559-1.25 1.25-1.25z"/>
<path fill="currentColor" d="M9.5 16c0 0.69 0.56 1.25 1.25 1.25s1.25-0.56 1.25-1.25v0c0-0.69-0.56-1.25-1.25-1.25s-1.25 0.56-1.25 1.25v0zM9.5 24.5c0 0.69 0.56 1.25 1.25 1.25s1.25-0.56 1.25-1.25v0c0-0.69-0.56-1.25-1.25-1.25s-1.25 0.56-1.25 1.25v0zM9.5 7.5c0 0.69 0.56 1.25 1.25 1.25s1.25-0.56 1.25-1.25v0c0-0.69-0.56-1.25-1.25-1.25s-1.25 0.56-1.25 1.25v0z"/>
<path fill="currentColor" d="M26 2h-20c-0.553 0-1 0.447-1 1v26c0 0.553 0.447 1 1 1h20c0.553 0 1-0.447 1-1v-26c0-0.553-0.447-1-1-1zM24.75 27.75h-17.5v-6.5h17.5v6.5zM24.75 19.25h-17.5v-6.5h17.5v6.5zM24.75 10.75h-17.5v-6.5h17.5v6.5z"/>
</svg>
