<svg version="1.1" xmlns="http://www.w3.org/2000/svg" width="32" height="32" viewBox="0 0 32 32">
<path fill="var(--fill, transparent)" d="M9.147 26.25h13.706l0.756-16h-15.219z"/>
<path fill="currentColor" d="M27 8h-4v-2.5c0-1.103-0.897-2-2-2h-10c-1.103 0-2 0.897-2 2v2.5h-4c-0.553 0-1 0.447-1 1v1c0 0.137 0.112 0.25 0.25 0.25h1.888l0.772 16.344c0.050 1.066 0.931 1.906 1.997 1.906h14.188c1.069 0 1.947-0.837 1.997-1.906l0.772-16.344h1.887c0.137 0 0.25-0.113 0.25-0.25v-1c0-0.553-0.447-1-1-1zM11.25 5.75h9.5v2.25h-9.5v-2.25zM22.853 26.25h-13.706l-0.756-16h15.219l-0.756 16z"/>
</svg>
