<svg version="1.1" xmlns="http://www.w3.org/2000/svg" width="32" height="32" viewBox="0 0 32 32">
<path fill="var(--fill, transparent)" d="M8.531 3.128v13.375h0.009l-0.009-13.375zM25.637 16.406l-0.684-0.594 0.438-0.797c0.136-0.243 0.216-0.534 0.216-0.843 0-0.004 0-0.007-0-0.010v0.001c0-0.516-0.222-1.006-0.613-1.344l-0.684-0.594 0.434-0.794c0.136-0.243 0.216-0.534 0.216-0.843 0-0.004 0-0.007-0-0.010v0.001c0-0.516-0.222-1.006-0.613-1.344l-0.684-0.594 0.434-0.794c0.136-0.243 0.216-0.534 0.216-0.843 0-0.003 0-0.007-0-0.010v0.001c0-0.7-0.413-1.331-1.050-1.619h-12.481v10.787c0.581 2.1 1.45 5.25 2.609 9.453 0.168 0.583 0.693 1.003 1.318 1.009h0.001c0.234 0.003 0.469-0.069 0.659-0.209 0.309-0.231 0.475-0.581 0.456-0.953l-0.3-6.2h9.825c0.556-0.341 0.9-0.916 0.9-1.512 0-0.516-0.222-1.006-0.613-1.344z"/>
<path fill="currentColor" d="M3.5 4.125v11.375c0 0.553 0.447 1 1 1h2.031v-13.375h-2.031c-0.553 0-1 0.447-1 1zM27.684 15.322c0.113-0.375 0.169-0.762 0.169-1.156 0-0.884-0.291-1.734-0.816-2.428 0.113-0.375 0.169-0.762 0.169-1.156 0-0.884-0.291-1.734-0.816-2.428 0.113-0.375 0.169-0.763 0.169-1.156 0-1.612-0.959-3.066-2.447-3.7-0.241-0.107-0.522-0.169-0.818-0.169-0.004 0-0.007 0-0.011 0h-14.753l0.009 13.375 2.681 9.713c0.431 1.566 1.869 2.659 3.494 2.659 0.928 0 1.794-0.369 2.434-1.044 0.641-0.672 0.969-1.553 0.922-2.481l-0.188-3.841h7.497c0.378 0 0.747-0.1 1.072-0.291 1.262-0.734 2.047-2.066 2.047-3.469 0-0.884-0.291-1.734-0.816-2.428zM25.35 19.262h-9.825l0.3 6.2c0.019 0.372-0.147 0.722-0.456 0.953-0.191 0.141-0.425 0.212-0.659 0.209-0.625-0.006-1.151-0.427-1.316-1l-0.002-0.010c-1.159-4.2-2.028-7.35-2.609-9.453v-10.787h12.481c0.623 0.284 1.049 0.902 1.050 1.619v0c0 0.303-0.072 0.591-0.216 0.853l-0.434 0.794 0.684 0.594c0.376 0.327 0.613 0.806 0.613 1.341 0 0.001 0 0.002 0 0.003v-0c0 0.303-0.072 0.591-0.216 0.853l-0.434 0.794 0.684 0.594c0.376 0.327 0.613 0.806 0.613 1.341 0 0.001 0 0.002 0 0.003v-0c0 0.303-0.072 0.591-0.216 0.853l-0.438 0.797 0.684 0.594c0.376 0.327 0.613 0.806 0.613 1.341 0 0.001 0 0.002 0 0.003v-0c0 0.597-0.344 1.172-0.9 1.512z"/>
</svg>
