<svg version="1.1" xmlns="http://www.w3.org/2000/svg" width="32" height="32" viewBox="0 0 32 32">
<path fill="var(--fill, transparent)" d="M16 4.375c-6.419 0-11.625 5.206-11.625 11.625s5.206 11.625 11.625 11.625 11.625-5.206 11.625-11.625-5.206-11.625-11.625-11.625zM21.762 13.053l-5.563 7.688c-0.046 0.063-0.119 0.103-0.202 0.103s-0.156-0.040-0.201-0.102l-0.001-0.001-5.563-7.688c-0.119-0.166 0-0.397 0.203-0.397h1.466c0.322 0 0.622 0.153 0.809 0.412l3.287 4.544 3.288-4.544c0.188-0.259 0.491-0.412 0.809-0.412h1.466c0.203 0 0.322 0.231 0.2 0.397z"/>
<path fill="currentColor" d="M16 2c-7.731 0-14 6.269-14 14s6.269 14 14 14 14-6.269 14-14-6.269-14-14-14zM16 27.625c-6.419 0-11.625-5.206-11.625-11.625s5.206-11.625 11.625-11.625 11.625 5.206 11.625 11.625-5.206 11.625-11.625 11.625z"/>
<path fill="currentColor" d="M21.563 12.656h-1.466c-0.319 0-0.622 0.153-0.809 0.412l-3.288 4.544-3.287-4.544c-0.188-0.259-0.488-0.412-0.809-0.412h-1.466c-0.203 0-0.322 0.231-0.203 0.397l5.563 7.688c0.1 0.137 0.303 0.137 0.403 0l5.563-7.688c0.122-0.166 0.003-0.397-0.2-0.397z"/>
</svg>
