<svg version="1.1" xmlns="http://www.w3.org/2000/svg" width="32" height="32" viewBox="0 0 32 32">
<path fill="currentColor" d="M16 2c-7.731 0-14 6.269-14 14s6.269 14 14 14 14-6.269 14-14-6.269-14-14-14zM16 27.625c-6.419 0-11.625-5.206-11.625-11.625s5.206-11.625 11.625-11.625 11.625 5.206 11.625 11.625-5.206 11.625-11.625 11.625z"/>
<path fill="var(--fill, transparent)" d="M16 4.375c-6.419 0-11.625 5.206-11.625 11.625s5.206 11.625 11.625 11.625 11.625-5.206 11.625-11.625-5.206-11.625-11.625-11.625zM19.659 22.534c0 0.119-0.084 0.219-0.2 0.244-0.497 0.106-1.075 0.159-1.728 0.159-3.431 0-5.719-1.837-6.256-4.938h-0.944c-0.137 0-0.25-0.113-0.25-0.25v-0.85c0-0.137 0.113-0.25 0.25-0.25h0.816v-1.153c0-0.137 0-0.272 0.009-0.4h-0.825c-0.137 0-0.25-0.113-0.25-0.25v-0.85c0-0.137 0.113-0.25 0.25-0.25h0.994c0.616-2.944 2.872-4.684 6.206-4.684 0.653 0 1.231 0.059 1.728 0.169 0.116 0.025 0.197 0.125 0.197 0.244v1.338c-0.001 0.138-0.112 0.249-0.25 0.249-0.018 0-0.035-0.002-0.052-0.005l0.002 0c-0.456-0.091-0.994-0.137-1.616-0.137-2.041 0-3.45 1.047-3.988 2.825h4.009c0.137 0 0.25 0.113 0.25 0.25v0.85c0 0.137-0.113 0.25-0.25 0.25h-4.247c-0.009 0.137-0.009 0.284-0.009 0.431v1.125h4.263c0.137 0 0.25 0.113 0.25 0.25v0.85c0 0.137-0.113 0.25-0.25 0.25h-4.081c0.478 1.938 1.916 3.081 4.056 3.081 0.622 0 1.159-0.041 1.619-0.128 0.153-0.031 0.297 0.087 0.297 0.244v1.337z"/>
<path fill="currentColor" d="M19.363 20.953c-0.459 0.087-0.997 0.128-1.619 0.128-2.141 0-3.578-1.144-4.056-3.081h4.081c0.137 0 0.25-0.113 0.25-0.25v-0.85c0-0.137-0.113-0.25-0.25-0.25h-4.262v-1.125c0-0.147 0-0.294 0.009-0.431h4.247c0.137 0 0.25-0.113 0.25-0.25v-0.85c0-0.137-0.113-0.25-0.25-0.25h-4.009c0.537-1.778 1.947-2.825 3.987-2.825 0.622 0 1.159 0.047 1.616 0.137 0.015 0.003 0.032 0.005 0.050 0.005 0.138 0 0.249-0.111 0.25-0.249v-1.338c0-0.119-0.081-0.219-0.197-0.244-0.497-0.109-1.075-0.169-1.728-0.169-3.334 0-5.591 1.741-6.206 4.684h-0.994c-0.137 0-0.25 0.113-0.25 0.25v0.85c0 0.137 0.113 0.25 0.25 0.25h0.825c-0.009 0.128-0.009 0.262-0.009 0.4v1.153h-0.816c-0.137 0-0.25 0.113-0.25 0.25v0.85c0 0.137 0.113 0.25 0.25 0.25h0.944c0.537 3.1 2.825 4.938 6.256 4.938 0.653 0 1.231-0.053 1.728-0.159 0.116-0.025 0.2-0.125 0.2-0.244v-1.337c0-0.156-0.144-0.275-0.297-0.244z"/>
</svg>
