<svg version="1.1" xmlns="http://www.w3.org/2000/svg" width="32" height="32" viewBox="0 0 32 32">
<path fill="var(--fill, transparent)" d="M17.247 16.031c0.613 0 1.122-0.444 1.228-1.025-0.123 0.572-0.624 0.994-1.224 0.994-0 0-0.001 0-0.001 0h0c-0 0-0 0-0 0-0.684 0-1.239-0.549-1.25-1.23v-0.001 0.016c0 0.688 0.559 1.247 1.247 1.247zM23.5 21.494l-0.009-0.009c-0.906-0.547-1.947-0.837-3.031-0.837-1.403 0-2.725 0.491-3.781 1.369-1.381 1.164-3.181 1.872-5.146 1.872-0.003 0-0.005 0-0.008 0h0c-1.287 0-2.531-0.306-3.647-0.875l-1.3 3.363h18.844l-1.872-4.85-0.050-0.031z"/>
<path fill="currentColor" d="M27.469 25.778l-5.709-14.778v-5.438h2.241v-2.125h-16v2.125h2.241v5.438l-5.709 14.778c-0.088 0.231-0.134 0.475-0.134 0.722 0 1.103 0.897 2 2 2h19.206c0.247 0 0.491-0.047 0.722-0.134 1.031-0.397 1.544-1.556 1.144-2.587zM12.366 11.397v-5.772h7.269v5.772l2.841 7.353c-0.647-0.166-1.316-0.25-1.997-0.25-1.913 0-3.725 0.672-5.166 1.875-1.016 0.853-2.339 1.372-3.782 1.372-0.003 0-0.006 0-0.009 0h0c-1.022 0-2.003-0.259-2.869-0.741l3.713-9.609zM6.578 26.375l1.3-3.363 0.003-0.006c1.116 0.566 2.356 0.869 3.644 0.869 1.912 0 3.725-0.672 5.166-1.875 1.059-0.881 2.384-1.372 3.791-1.372 1.094 0 2.137 0.297 3.050 0.847l0.019 0.050 1.872 4.85h-18.844z"/>
<path fill="currentColor" d="M17.25 16c0.603 0 1.106-0.425 1.225-0.994 0.019-0.084 0.025-0.169 0.025-0.256 0-0.691-0.559-1.25-1.25-1.25s-1.25 0.559-1.25 1.25v0.019c0.011 0.682 0.566 1.231 1.25 1.231 0 0 0 0 0 0v0z"/>
</svg>
