<svg version="1.1" xmlns="http://www.w3.org/2000/svg" width="32" height="32" viewBox="0 0 32 32">
<path fill="var(--fill, transparent)" d="M15.912 15.338c-0.022-0.041-0.044-0.059-0.069-0.063-0.091 0.103-0.069 0.984 0.084 1.606 0.125-0.425 0.147-1.266-0.016-1.544zM15.863 19.103c-0.241 0.625-0.588 1.478-1.003 2.231 0.125-0.050 0.253-0.103 0.384-0.156 0.55-0.225 1.166-0.478 1.841-0.631-0.466-0.369-0.887-0.866-1.222-1.444z"/>
<path fill="var(--fill, transparent)" d="M16.688 11v-6.75h-9.438v23.5h17.5v-15.438h-6.75c-0.725 0-1.313-0.588-1.313-1.313v0zM18.406 19.988c0.503-0.059 0.956-0.087 1.384-0.072 0.4 0.012 0.738 0.063 1 0.159 0.006 0.003 0.009 0.003 0.016 0.006 0.012 0.006 0.025 0.009 0.038 0.016 0.016 0.006 0.034 0.012 0.050 0.022 0.003 0.003 0.009 0.003 0.012 0.006 0.128 0.056 0.234 0.125 0.316 0.206 0.284 0.284 0.369 0.816 0.194 1.238-0.1 0.241-0.366 0.641-1.041 0.641-0.681 0-1.684-0.303-2.566-0.775-0.797 0.134-1.678 0.434-2.528 0.722-0.181 0.063-0.369 0.125-0.55 0.184-1.188 2.038-2.078 2.481-2.628 2.481-0.131 0-0.244-0.028-0.338-0.063-0.216-0.081-0.4-0.25-0.516-0.469-0.028-0.053-0.050-0.106-0.069-0.163-0.050-0.15-0.066-0.3-0.041-0.425l0.019-0.084c0.003-0.006 0.003-0.012 0.006-0.019 0.006-0.022 0.012-0.044 0.022-0.066 0-0.003 0.003-0.006 0.003-0.009 0.128-0.372 0.425-0.731 0.866-1.081 0.384-0.306 0.847-0.584 1.434-0.887 0.497-0.875 1.175-2.347 1.6-3.356-0.338-1.306-0.522-2.331-0.316-3.081 0.028-0.103 0.078-0.2 0.144-0.284 0.006-0.006 0.009-0.012 0.016-0.019 0.003-0.003 0.003-0.006 0.006-0.006 0.197-0.234 0.528-0.372 0.878-0.359 0.519 0.022 0.928 0.359 1.031 0.941 0.053 0.25 0.069 0.516 0.059 0.803v0.022c0 0.016 0 0.031-0.003 0.047-0.022 0.416-0.094 0.831-0.228 1.397-0.012 0.050-0.025 0.1-0.038 0.163l-0.031 0.128-0.003 0.009c0.003 0.006 0.003 0.009 0.006 0.016l0.056 0.141c0.003 0.009 0.009 0.022 0.012 0.031 0.022 0.050 0.044 0.103 0.066 0.15v0.003c0.272 0.587 0.616 1.044 1.059 1.409 0.134 0.109 0.278 0.209 0.434 0.306 0.056-0.016 0.109-0.022 0.166-0.028z"/>
<path fill="var(--fill, transparent)" d="M12.234 23.781c0.178-0.137 0.506-0.453 0.941-1.084-0.322 0.294-0.731 0.7-0.941 1.084zM20.7 21.188l0.006-0.009h0.006c0.019-0.012 0.016-0.022 0.012-0.028-0.003-0.003-0.141-0.291-1.409-0.231 1.103 0.434 1.359 0.284 1.384 0.269z"/>
<path fill="currentColor" d="M26.706 9.019l-6.725-6.725c-0.188-0.188-0.441-0.294-0.706-0.294h-13.275c-0.553 0-1 0.447-1 1v26c0 0.553 0.447 1 1 1h20c0.553 0 1-0.447 1-1v-19.272c0-0.266-0.106-0.522-0.294-0.709zM18.813 4.306l5.881 5.881h-5.881v-5.881zM24.75 27.75h-17.5v-23.5h9.438v6.75c0 0.725 0.588 1.313 1.313 1.313v0h6.75v15.438z"/>
<path fill="currentColor" d="M16.747 18.291c-0.025-0.053-0.047-0.103-0.069-0.153-0.003-0.009-0.009-0.022-0.012-0.031l-0.056-0.141c-0.003-0.006-0.003-0.009-0.006-0.016l0.003-0.009 0.006-0.034c0.125-0.509 0.269-1.103 0.294-1.7v-0.022c0.009-0.269-0.006-0.537-0.063-0.8-0.119-0.666-0.609-0.925-1.028-0.944-0.353-0.016-0.681 0.125-0.878 0.356-0.003 0.003-0.003 0.006-0.006 0.006-0.006 0.006-0.012 0.012-0.016 0.019-0.066 0.084-0.116 0.181-0.144 0.284-0.206 0.75-0.022 1.775 0.316 3.081-0.425 1.012-1.103 2.481-1.6 3.356v0.003c-0.866 0.447-2.003 1.119-2.3 1.966 0 0.003-0.003 0.006-0.003 0.009-0.006 0.022-0.016 0.044-0.022 0.066-0.003 0.006-0.003 0.012-0.006 0.019-0.006 0.028-0.016 0.056-0.019 0.084-0.028 0.125-0.012 0.275 0.041 0.425 0.019 0.056 0.041 0.109 0.069 0.163 0.116 0.219 0.3 0.387 0.516 0.469 0.094 0.034 0.206 0.063 0.338 0.063 0.55 0 1.441-0.444 2.628-2.481 0.181-0.059 0.369-0.122 0.55-0.184 0.85-0.288 1.731-0.587 2.528-0.722 0.881 0.472 1.884 0.775 2.566 0.775 0.675 0 0.941-0.4 1.041-0.641 0.175-0.422 0.091-0.953-0.194-1.238-0.081-0.081-0.188-0.15-0.316-0.206-0.003-0.003-0.009-0.003-0.012-0.006-0.016-0.006-0.034-0.012-0.050-0.022-0.012-0.006-0.025-0.009-0.038-0.016-0.006-0.003-0.009-0.003-0.016-0.006-0.506-0.181-1.303-0.209-2.384-0.087l-0.166 0.019c-0.156-0.094-0.3-0.197-0.434-0.306-0.444-0.353-0.784-0.806-1.056-1.397zM12.234 23.781c0.209-0.384 0.619-0.791 0.941-1.084-0.434 0.631-0.762 0.947-0.941 1.084zM15.844 15.275c0.025 0.003 0.047 0.022 0.069 0.063 0.162 0.278 0.141 1.119 0.016 1.544-0.153-0.622-0.175-1.503-0.084-1.606zM15.244 21.178c-0.131 0.053-0.259 0.106-0.384 0.156 0.416-0.753 0.762-1.606 1.003-2.231 0.334 0.578 0.756 1.075 1.222 1.444-0.675 0.153-1.291 0.406-1.841 0.631zM20.725 21.15c0.003 0.006 0.006 0.016-0.012 0.028h-0.006l-0.006 0.009c-0.025 0.016-0.281 0.166-1.384-0.269 1.269-0.059 1.406 0.228 1.409 0.231z"/>
</svg>
