<svg version="1.1" xmlns="http://www.w3.org/2000/svg" width="32" height="32" viewBox="0 0 32 32">
<path fill="var(--fill, transparent)" d="M16.688 11v-6.75h-9.438v23.5h17.5v-15.438h-6.75c-0.725 0-1.313-0.588-1.313-1.313v0zM12.5 12.563c0.691 0 1.25 0.559 1.25 1.25s-0.559 1.25-1.25 1.25-1.25-0.559-1.25-1.25 0.559-1.25 1.25-1.25zM21.75 21.75h-11.497c-0.209 0-0.325-0.241-0.197-0.403l3.119-3.975c0.046-0.059 0.117-0.096 0.197-0.096s0.151 0.037 0.196 0.095l0 0.001 1.284 1.637 2.431-3.1c0.047-0.059 0.118-0.096 0.198-0.096s0.152 0.037 0.198 0.095l0 0.001 4.266 5.438c0.128 0.163 0.012 0.403-0.197 0.403z"/>
<path fill="currentColor" d="M26.706 9.019l-6.725-6.725c-0.188-0.188-0.441-0.294-0.706-0.294h-13.275c-0.553 0-1 0.447-1 1v26c0 0.553 0.447 1 1 1h20c0.553 0 1-0.447 1-1v-19.272c0-0.266-0.106-0.522-0.294-0.709zM18.813 4.306l5.881 5.881h-5.881v-5.881zM24.75 27.75h-17.5v-23.5h9.438v6.75c0 0.725 0.588 1.313 1.313 1.313v0h6.75v15.438z"/>
<path fill="currentColor" d="M17.284 15.909l-2.431 3.1-1.284-1.637c-0.046-0.059-0.117-0.096-0.197-0.096s-0.151 0.037-0.196 0.095l-0 0.001-3.119 3.975c-0.033 0.042-0.053 0.096-0.053 0.154 0 0.138 0.112 0.249 0.249 0.249 0 0 0 0 0.001 0h11.497c0.209 0 0.325-0.241 0.197-0.403l-4.266-5.438c-0.047-0.059-0.118-0.096-0.198-0.096s-0.152 0.037-0.198 0.095l-0 0.001zM11.25 13.813c0 0.69 0.56 1.25 1.25 1.25s1.25-0.56 1.25-1.25v0c0-0.69-0.56-1.25-1.25-1.25s-1.25 0.56-1.25 1.25v0z"/>
</svg>
