<svg version="1.1" xmlns="http://www.w3.org/2000/svg" width="32" height="32" viewBox="0 0 32 32">
<path fill="var(--fill, transparent)" d="M14.516 16.131v3.387h1.216c1.397 0 2.225-0.341 2.225-1.697 0-1.075-0.628-1.691-1.684-1.691h-1.756z"/>
<path fill="var(--fill, transparent)" d="M16.688 11v-6.75h-9.438v23.5h17.5v-15.438h-6.75c-0.725 0-1.313-0.588-1.313-1.313v0zM19.5 17.825c0 1.725-1.15 2.941-3.006 2.941h-1.978v2.984c0 0.137-0.113 0.25-0.25 0.25h-1.016c-0.137 0-0.25-0.113-0.25-0.25v-8.625c0-0.137 0.113-0.25 0.25-0.25v0.003h3.25c1.866 0 3 1.244 3 2.947z"/>
<path fill="currentColor" d="M26.706 9.019l-6.725-6.725c-0.188-0.188-0.441-0.294-0.706-0.294h-13.275c-0.553 0-1 0.447-1 1v26c0 0.553 0.447 1 1 1h20c0.553 0 1-0.447 1-1v-19.272c0-0.266-0.106-0.522-0.294-0.709zM18.813 4.306l5.881 5.881h-5.881v-5.881zM24.75 27.75h-17.5v-23.5h9.438v6.75c0 0.725 0.588 1.313 1.313 1.313v0h6.75v15.438z"/>
<path fill="currentColor" d="M13.25 14.878c-0.137-0.003-0.25 0.109-0.25 0.247v8.625c0 0.137 0.113 0.25 0.25 0.25h1.016c0.137 0 0.25-0.113 0.25-0.25v-2.984h1.978c1.856 0 3.006-1.216 3.006-2.941 0-1.703-1.134-2.947-3-2.947h-3.25zM17.956 17.822c0 1.356-0.828 1.697-2.225 1.697h-1.216v-3.387h1.756c1.056 0 1.684 0.616 1.684 1.691z"/>
</svg>
