<svg version="1.1" xmlns="http://www.w3.org/2000/svg" width="32" height="32" viewBox="0 0 32 32">
<path fill="var(--fill, transparent)" d="M16.688 11v-6.75h-9.438v23.5h17.5v-15.438h-6.75c-0.725 0-1.313-0.588-1.313-1.313v0zM15 14c0-0.137 0.113-0.25 0.25-0.25h1.5c0.137 0 0.25 0.113 0.25 0.25v5.75c0 0.137-0.113 0.25-0.25 0.25h-1.5c-0.137 0-0.25-0.113-0.25-0.25v-5.75zM16 24.5c-0.691 0-1.25-0.559-1.25-1.25s0.559-1.25 1.25-1.25 1.25 0.559 1.25 1.25-0.559 1.25-1.25 1.25z"/>
<path fill="currentColor" d="M26.706 9.019l-6.725-6.725c-0.188-0.188-0.441-0.294-0.706-0.294h-13.275c-0.553 0-1 0.447-1 1v26c0 0.553 0.447 1 1 1h20c0.553 0 1-0.447 1-1v-19.272c0-0.266-0.106-0.522-0.294-0.709zM18.813 4.306l5.881 5.881h-5.881v-5.881zM24.75 27.75h-17.5v-23.5h9.438v6.75c0 0.725 0.588 1.313 1.313 1.313v0h6.75v15.438z"/>
<path fill="currentColor" d="M15.25 20h1.5c0.137 0 0.25-0.113 0.25-0.25v-5.75c0-0.137-0.113-0.25-0.25-0.25h-1.5c-0.137 0-0.25 0.113-0.25 0.25v5.75c0 0.137 0.113 0.25 0.25 0.25zM14.75 23.25c0 0.69 0.56 1.25 1.25 1.25s1.25-0.56 1.25-1.25v0c0-0.69-0.56-1.25-1.25-1.25s-1.25 0.56-1.25 1.25v0z"/>
</svg>
