<svg version="1.1" xmlns="http://www.w3.org/2000/svg" width="32" height="32" viewBox="0 0 32 32">
<path fill="var(--fill, transparent)" d="M16.688 11v-6.75h-9.438v23.5h17.5v-15.438h-6.75c-0.725 0-1.313-0.588-1.313-1.313v0zM18.3 14.75h1.116c0.207 0.001 0.374 0.169 0.374 0.376 0 0.075-0.022 0.145-0.060 0.203l0.001-0.002-2.666 4.141 2.625 4.075c0.113 0.175 0.063 0.406-0.113 0.519-0.063 0.038-0.131 0.059-0.203 0.059h-1.172c-0.128 0-0.25-0.066-0.319-0.178l-1.947-3.169-1.959 3.172c-0.069 0.109-0.188 0.178-0.319 0.178h-1.078c-0.207-0-0.376-0.169-0.376-0.376 0-0.074 0.021-0.142 0.058-0.2l-0.001 0.002 2.606-4.15-2.572-4.075c-0.113-0.178-0.059-0.409 0.116-0.519 0.059-0.041 0.128-0.059 0.2-0.059h1.2c0.131 0 0.253 0.069 0.322 0.181l1.931 3.2 1.913-3.197c0.069-0.113 0.191-0.181 0.322-0.181z"/>
<path fill="currentColor" d="M26.706 9.019l-6.725-6.725c-0.188-0.188-0.441-0.294-0.706-0.294h-13.275c-0.553 0-1 0.447-1 1v26c0 0.553 0.447 1 1 1h20c0.553 0 1-0.447 1-1v-19.272c0-0.266-0.106-0.522-0.294-0.709zM18.813 4.306l5.881 5.881h-5.881v-5.881zM24.75 27.75h-17.5v-23.5h9.438v6.75c0 0.725 0.588 1.313 1.313 1.313v0h6.75v15.438z"/>
<path fill="currentColor" d="M16.066 18.128l-1.931-3.2c-0.069-0.113-0.191-0.181-0.322-0.181h-1.2c-0.072 0-0.141 0.019-0.2 0.059-0.175 0.109-0.228 0.341-0.116 0.519l2.572 4.075-2.606 4.15c-0.036 0.056-0.057 0.125-0.057 0.199 0 0.208 0.168 0.376 0.376 0.376h1.078c0.131 0 0.25-0.069 0.319-0.178l1.959-3.172 1.947 3.169c0.069 0.113 0.191 0.178 0.319 0.178h1.172c0.072 0 0.141-0.022 0.203-0.059 0.175-0.113 0.225-0.344 0.113-0.519l-2.625-4.075 2.666-4.141c0.037-0.057 0.059-0.127 0.059-0.202 0-0.207-0.167-0.375-0.374-0.376h-1.116c-0.131 0-0.253 0.069-0.322 0.181l-1.913 3.197z"/>
</svg>
