<svg version="1.1" xmlns="http://www.w3.org/2000/svg" width="32" height="32" viewBox="0 0 32 32">
<path fill="var(--fill, transparent)" d="M16.688 11v-6.75h-9.438v23.5h17.5v-15.438h-6.75c-0.725 0-1.313-0.588-1.313-1.313v0zM16 24.25c-0.553 0-1-0.447-1-1s0.447-1 1-1 1 0.447 1 1-0.447 1-1 1zM19.438 17.113c0.022 1.403-0.928 2.641-2.322 3.091-0.178 0.056-0.303 0.228-0.303 0.416v0.381c0 0.172-0.141 0.313-0.313 0.313h-1c-0.172 0-0.313-0.141-0.313-0.313v-1c0.006-0.619 0.481-1.166 1.084-1.253 0.884-0.116 1.541-0.8 1.541-1.591 0-0.878-0.806-1.609-1.813-1.609s-1.813 0.731-1.813 1.613c0 0.163-0.137 0.294-0.306 0.294h-1.012c-0.169 0-0.306-0.128-0.306-0.297 0-1.794 1.566-3.241 3.484-3.219 1.853 0.025 3.366 1.441 3.391 3.175z"/>
<path fill="currentColor" d="M26.706 9.022l-6.725-6.728c-0.188-0.188-0.444-0.294-0.709-0.294h-13.272c-0.553 0-1 0.447-1 1v26c0 0.553 0.447 1 1 1h20c0.553 0 1-0.447 1-1v-19.272c0-0.266-0.106-0.519-0.294-0.706zM18.813 4.306l5.881 5.881h-5.881v-5.881zM24.75 27.75h-17.5v-23.5h9.438v6.75c0 0.725 0.588 1.313 1.313 1.313v0h6.75v15.438z"/>
<path fill="currentColor" d="M15 23.25c0 0.552 0.448 1 1 1s1-0.448 1-1v0c0-0.552-0.448-1-1-1s-1 0.448-1 1v0zM12.563 17.156c0 0.169 0.137 0.297 0.306 0.297h1.012c0.169 0 0.306-0.131 0.306-0.294 0-0.881 0.806-1.613 1.813-1.613s1.813 0.731 1.813 1.609c0 0.791-0.656 1.475-1.541 1.591-0.603 0.087-1.078 0.634-1.084 1.253v1c0 0.172 0.141 0.313 0.313 0.313h1c0.172 0 0.313-0.141 0.313-0.313v-0.381c0-0.188 0.125-0.359 0.303-0.416 1.394-0.45 2.344-1.688 2.322-3.091-0.025-1.734-1.538-3.15-3.391-3.175-1.919-0.022-3.484 1.425-3.484 3.219z"/>
</svg>
