<svg version="1.1" xmlns="http://www.w3.org/2000/svg" width="32" height="32" viewBox="0 0 32 32">
<path fill="var(--fill, transparent)" d="M13.144 24.938h5.716v-4.625h-5.716zM9.303 11.688h13.394l2.656-4.625h-18.706zM12.841 17.856l0.262 0.456h5.791l0.262-0.456 2.394-4.169h-11.1z"/>
<path fill="currentColor" d="M27.503 4.813h-23.006c-0.766 0-1.244 0.834-0.859 1.5l7.269 12.669v7.206c0 0.553 0.444 1 0.994 1h8.2c0.55 0 0.994-0.447 0.994-1v-7.206l7.272-12.669c0.381-0.666-0.097-1.5-0.863-1.5zM18.859 24.938h-5.716v-4.625h5.716v4.625zM19.156 17.856l-0.262 0.456h-5.791l-0.262-0.456-2.391-4.169h11.1l-2.394 4.169zM22.697 11.688h-13.394l-2.656-4.625h18.706l-2.656 4.625z"/>
</svg>
