<svg version="1.1" xmlns="http://www.w3.org/2000/svg" width="32" height="32" viewBox="0 0 32 32">
<path fill="currentColor" d="M13.616 17.459c-0.019-0.122-0.125-0.209-0.247-0.209h-8.175c-0.122 0-0.228 0.087-0.247 0.209l-1.256 7.75c-0.003 0.012-0.003 0.028-0.003 0.041 0 0.137 0.112 0.25 0.25 0.25h10.688c0.012 0 0.028 0 0.041-0.003 0.137-0.022 0.228-0.15 0.206-0.288l-1.256-7.75zM6.141 23.375l0.647-4h4.984l0.647 4h-6.278zM28.309 25.209l-1.256-7.75c-0.019-0.122-0.125-0.209-0.247-0.209h-8.175c-0.122 0-0.228 0.087-0.247 0.209l-1.256 7.75c-0.003 0.012-0.003 0.028-0.003 0.041 0 0.137 0.113 0.25 0.25 0.25h10.688c0.012 0 0.028 0 0.041-0.003 0.134-0.022 0.228-0.15 0.206-0.288zM19.578 23.375l0.647-4h4.984l0.647 4h-6.278zM10.688 14.75h10.688c0.012 0 0.028 0 0.041-0.003 0.137-0.022 0.228-0.15 0.206-0.287l-1.256-7.75c-0.019-0.122-0.125-0.209-0.247-0.209h-8.175c-0.122 0-0.228 0.088-0.247 0.209l-1.256 7.75c-0.003 0.012-0.003 0.028-0.003 0.041 0 0.137 0.113 0.25 0.25 0.25zM13.537 8.625h4.984l0.647 4h-6.281l0.65-4z"/>
<path fill="var(--fill, transparent)" d="M18.522 8.625h-4.984l-0.65 4h6.281zM6.787 19.375l-0.647 4h6.278l-0.647-4zM20.225 19.375l-0.647 4h6.278l-0.647-4z"/>
</svg>
