<svg version="1.1" xmlns="http://www.w3.org/2000/svg" width="32" height="32" viewBox="0 0 32 32">
<path fill="var(--fill, transparent)" d="M16.003 5.394l-11.563 11.553h3v10.178h4.809v-7.125c0-0.691 0.559-1.25 1.25-1.25h5c0.691 0 1.25 0.559 1.25 1.25v7.125h4.809v-10.178h3.003l-11.559-11.553zM29.581 18.609c-0.188 0.188-0.409 0.337-0.65 0.434 0.241-0.1 0.462-0.247 0.65-0.434zM1.863 17.525c0.156 0.947 0.981 1.672 1.972 1.672h0.028c-0.997 0-1.841-0.719-2-1.672zM1.834 17.197v0zM1.837 17.116c0.003-0.097 0.016-0.191 0.031-0.284-0.019 0.091-0.028 0.188-0.031 0.284z"/>
<path fill="currentColor" d="M29.719 15.938c0-0.003-0.003-0.003-0.003-0.006l-0.056-0.066c-0.003-0.003-0.006-0.009-0.012-0.012-0.022-0.025-0.047-0.050-0.069-0.075l-12.884-12.875c-0.178-0.177-0.423-0.286-0.694-0.286s-0.516 0.109-0.694 0.286l-12.884 12.878c-0.226 0.225-0.399 0.505-0.496 0.817l-0.004 0.014-0.019 0.066-0.009 0.034-0.009 0.038c-0.006 0.022-0.009 0.044-0.012 0.066 0 0.003 0 0.009-0.003 0.012-0.019 0.094-0.028 0.188-0.031 0.284v0.103c0 0.016 0 0.031 0.003 0.047 0 0.016 0 0.028 0.003 0.044 0 0.016 0.003 0.031 0.003 0.047 0 0.019 0.003 0.038 0.006 0.056 0 0.009 0.003 0.019 0.003 0.028l0.009 0.078v0.003c0.159 0.953 1.006 1.672 2 1.672h1.328v10.184h21.616v-10.178h1.356c0.269 0 0.528-0.053 0.766-0.153s0.459-0.247 0.65-0.434c0.361-0.36 0.584-0.858 0.584-1.408 0-0.003 0-0.006-0-0.008v0c0-0.459-0.156-0.9-0.447-1.256zM17.75 27.125h-3.5v-6.375h3.5v6.375zM24.559 16.947v10.178h-4.809v-7.125c0-0.691-0.559-1.25-1.25-1.25h-5c-0.691 0-1.25 0.559-1.25 1.25v7.125h-4.809v-10.178h-3l11.563-11.553 11.559 11.553h-3.003z"/>
</svg>
