<svg version="1.1" xmlns="http://www.w3.org/2000/svg" width="32" height="32" viewBox="0 0 32 32">
<path fill="currentColor" d="M4.531 3l2.063 23.331 9.4 2.669 9.363-2.669 2.103-23.331h-22.928zM23.622 24.894l-7.628 2.175-7.662-2.175-1.772-20.038h18.869l-1.806 20.038z"/>
<path fill="var(--fill, transparent)" d="M6.559 4.856l1.772 20.038 7.662 2.175 7.628-2.175 1.806-20.038h-18.869zM23.134 8.541l-0.15 1.475-0.053 0.609h-11.003l0.256 2.944h3.784v-0.006h6.709l-0.1 0.759-0.663 7.569-0.053 0.509-5.866 1.616v0.012h-0.053l-5.894-1.625-0.353-4.522h2.844l0.203 2.288 3.2 0.866h0.025v-0.006l3.2-0.866 0.356-3.703-9.981 0.003-0.709-7.922-0.053-0.759h14.406l-0.053 0.759z"/>
<path fill="currentColor" d="M8.781 7.781l0.053 0.759 0.709 7.922 9.981-0.003-0.356 3.703-3.2 0.866v0.006h-0.025l-3.2-0.866-0.203-2.288h-2.844l0.353 4.522 5.894 1.625h0.053v-0.012l5.866-1.616 0.053-0.509 0.663-7.569 0.1-0.759-10.494 0.006-0.256-2.944h11.003l0.053-0.609 0.15-1.475 0.053-0.759h-7.219z"/>
</svg>
