<svg version="1.1" xmlns="http://www.w3.org/2000/svg" width="32" height="32" viewBox="0 0 32 32">
<path fill="currentColor" d="M29 5h-26c-0.553 0-1 0.447-1 1v20c0 0.553 0.447 1 1 1h26c0.553 0 1-0.447 1-1v-20c0-0.553-0.447-1-1-1zM27.75 24.75h-23.5v-17.5h23.5v17.5z"/>
<path fill="var(--fill, transparent)" d="M4.25 24.75h23.5v-17.5h-23.5v17.5zM19 13.125c0-0.137 0.031-0.25 0.072-0.25h3.856c0.041 0 0.072 0.113 0.072 0.25v1.5c0 0.137-0.031 0.25-0.072 0.25h-3.856c-0.041 0-0.072-0.113-0.072-0.25v-1.5zM19 17.625c0-0.137 0.1-0.25 0.222-0.25h5.803c0.122 0 0.222 0.113 0.222 0.25v1.5c0 0.137-0.1 0.25-0.222 0.25h-5.803c-0.122 0-0.222-0.113-0.222-0.25v-1.5zM6.756 20.769c0.088-1.666 0.997-3.113 2.331-3.941-0.566-0.625-0.909-1.45-0.909-2.359 0-1.934 1.559-3.5 3.481-3.5s3.481 1.566 3.481 3.5c0 0.909-0.344 1.738-0.909 2.359 1.331 0.825 2.244 2.275 2.331 3.941 0 0.004 0 0.008 0 0.012 0 0.138-0.112 0.25-0.25 0.25-0 0-0 0-0 0h-1.372c-0.131 0-0.238-0.103-0.247-0.234-0.119-1.578-1.438-2.828-3.037-2.828s-2.919 1.25-3.037 2.828c-0.009 0.131-0.116 0.234-0.247 0.234h-1.372c-0.144 0-0.256-0.119-0.244-0.262z"/>
<path fill="var(--fill, transparent)" d="M10.041 14.469c0 0.897 0.723 1.625 1.616 1.625s1.616-0.728 1.616-1.625v0c0-0.897-0.723-1.625-1.616-1.625s-1.616 0.728-1.616 1.625v0z"/>
<path fill="currentColor" d="M19.072 14.875h3.856c0.041 0 0.072-0.113 0.072-0.25v-1.5c0-0.137-0.031-0.25-0.072-0.25h-3.856c-0.041 0-0.072 0.113-0.072 0.25v1.5c0 0.137 0.031 0.25 0.072 0.25zM19.222 19.375h5.803c0.122 0 0.222-0.113 0.222-0.25v-1.5c0-0.137-0.1-0.25-0.222-0.25h-5.803c-0.122 0-0.222 0.113-0.222 0.25v1.5c0 0.137 0.1 0.25 0.222 0.25zM7 21.031h1.372c0.131 0 0.238-0.103 0.247-0.234 0.119-1.578 1.438-2.828 3.037-2.828s2.919 1.25 3.037 2.828c0.009 0.131 0.116 0.234 0.247 0.234h1.372c0 0 0 0 0 0 0.138 0 0.25-0.112 0.25-0.25 0-0.004-0-0.009-0-0.013l0 0.001c-0.087-1.666-1-3.116-2.331-3.941 0.564-0.618 0.909-1.444 0.909-2.351 0-0.003 0-0.006 0-0.009v0c0-1.934-1.559-3.5-3.481-3.5s-3.481 1.566-3.481 3.5c0 0.909 0.344 1.734 0.909 2.359-1.341 0.841-2.241 2.277-2.331 3.928l-0.001 0.013c-0.013 0.144 0.1 0.262 0.244 0.262zM11.656 12.844c0.891 0 1.616 0.728 1.616 1.625s-0.725 1.625-1.616 1.625-1.616-0.728-1.616-1.625 0.725-1.625 1.616-1.625z"/>
</svg>
