<svg version="1.1" xmlns="http://www.w3.org/2000/svg" width="32" height="32" viewBox="0 0 32 32">
<path fill="currentColor" d="M27.091 5.309l-10.619-3.619c-0.128-0.044-0.3-0.066-0.472-0.066s-0.344 0.022-0.472 0.066l-10.619 3.619c-0.259 0.088-0.472 0.388-0.472 0.662v15.075c0 0.275 0.178 0.637 0.394 0.809l10.772 8.394c0.109 0.084 0.25 0.128 0.394 0.128s0.288-0.044 0.394-0.128l10.772-8.394c0.216-0.169 0.394-0.531 0.394-0.809v-15.075c0.006-0.275-0.206-0.572-0.466-0.662zM25.313 20.447l-9.313 7.256-9.313-7.256v-13.363l9.313-3.175 9.313 3.175v13.363z"/>
<path fill="var(--fill, transparent)" d="M16.309 11.213h3.059v1.3h-3.059z"/>
<path fill="var(--fill, transparent)" d="M6.688 7.084v13.362l9.313 7.256 9.313-7.256v-13.363l-9.313-3.175-9.313 3.175zM12.916 20.5h-0.006c0 0.137-0.113 0.25-0.25 0.25h-1.166c-0.137 0-0.25-0.113-0.25-0.25v-5.769c-0.241 0.287-0.481 0.559-0.722 0.813-0.035 0.037-0.084 0.060-0.138 0.060-0.085 0-0.157-0.056-0.181-0.133l-0-0.001-0.412-1.359c-0.019-0.063-0.006-0.128 0.037-0.175 1.156-1.356 2.022-2.972 2.569-4.8 0.034-0.109 0.156-0.166 0.262-0.116l1.206 0.572c0.084 0.041 0.128 0.137 0.1 0.225-0.299 0.949-0.655 1.766-1.085 2.537l0.035-0.068v8.216zM20.975 9.875v3.975c0 0.137-0.113 0.25-0.25 0.25h-2.084v0.581h3.087c0.137 0 0.25 0.113 0.25 0.25v1.112c0 0.137-0.113 0.25-0.25 0.25h-1.844c0.566 0.909 1.306 1.697 2.259 2.403 0.081 0.066 0.1 0.184 0.038 0.266l-0.822 1.103c-0.034 0.046-0.088 0.075-0.149 0.075-0.050 0-0.096-0.020-0.13-0.053l0 0c-0.956-0.916-1.775-2.038-2.441-3.341v3.753c0 0.137-0.113 0.25-0.25 0.25h-1.131c-0.137 0-0.25-0.113-0.25-0.25v-3.75c-0.688 1.397-1.531 2.525-2.519 3.363-0.034 0.028-0.078 0.045-0.126 0.045-0.008 0-0.017-0-0.025-0.002l0.001 0c-0.053-0.009-0.1-0.041-0.128-0.087l-0.713-1.141c-0.018-0.028-0.029-0.063-0.029-0.1 0-0.063 0.031-0.119 0.078-0.153l0.001-0c0.894-0.634 1.622-1.413 2.219-2.375h-1.722c-0.137 0-0.25-0.113-0.25-0.25v-1.113c0-0.137 0.113-0.25 0.25-0.25h2.966v-0.581h-2.059c-0.137 0-0.25-0.113-0.25-0.25v-3.981c0-0.137 0.113-0.25 0.25-0.25h5.772c0.137 0 0.25 0.113 0.25 0.25z"/>
<path fill="currentColor" d="M13.866 9.591l-1.206-0.572c-0.106-0.050-0.228 0.006-0.262 0.116-0.547 1.828-1.412 3.444-2.569 4.8-0.029 0.031-0.046 0.074-0.046 0.12 0 0.020 0.003 0.039 0.009 0.056l-0-0.001 0.412 1.359c0.044 0.141 0.219 0.181 0.319 0.075 0.241-0.253 0.481-0.525 0.722-0.813v5.769c0 0.137 0.113 0.25 0.25 0.25h1.166c0.137 0 0.25-0.113 0.25-0.25h0.006v-8.216c0.395-0.702 0.751-1.519 1.024-2.374l0.026-0.095c0.028-0.088-0.016-0.184-0.1-0.225zM14.703 9.875v3.981c0 0.137 0.113 0.25 0.25 0.25h2.059v0.581h-2.966c-0.137 0-0.25 0.113-0.25 0.25v1.113c0 0.137 0.113 0.25 0.25 0.25h1.722c-0.597 0.962-1.325 1.741-2.219 2.375-0.048 0.034-0.079 0.090-0.079 0.153 0 0.037 0.011 0.072 0.029 0.101l-0-0.001 0.713 1.141c0.028 0.047 0.075 0.078 0.128 0.087s0.109-0.006 0.15-0.044c0.988-0.837 1.831-1.966 2.519-3.363v3.75c0 0.137 0.113 0.25 0.25 0.25h1.131c0.137 0 0.25-0.113 0.25-0.25v-3.753c0.666 1.303 1.484 2.425 2.441 3.341 0.081 0.078 0.209 0.069 0.278-0.022l0.822-1.103c0.063-0.081 0.044-0.2-0.038-0.266-0.953-0.706-1.694-1.494-2.259-2.403h1.844c0.137 0 0.25-0.113 0.25-0.25v-1.113c0-0.137-0.113-0.25-0.25-0.25h-3.087v-0.581h2.084c0.137 0 0.25-0.113 0.25-0.25v-3.975c0-0.137-0.113-0.25-0.25-0.25h-5.772c-0.137 0-0.25 0.113-0.25 0.25zM16.309 11.213h3.059v1.3h-3.059v-1.3z"/>
</svg>
