<svg version="1.1" xmlns="http://www.w3.org/2000/svg" width="32" height="32" viewBox="0 0 32 32">
<path fill="var(--fill, transparent)" d="M12 5.781h14.25v4.25h-14.25zM5.75 5.781h4.25v20.5h-4.25zM27.5 3.5h-23c-0.553 0-1 0.447-1 1v0.031c0-0.553 0.447-1 1-1h23c0.553 0 1 0.447 1 1v-0.031c0-0.553-0.447-1-1-1zM12 12.031h14.25v14.25h-14.25z"/>
<path fill="currentColor" d="M27.5 3.531h-23c-0.553 0-1 0.447-1 1v23c0 0.553 0.447 1 1 1h23c0.553 0 1-0.447 1-1v-23c0-0.553-0.447-1-1-1zM10 26.281h-4.25v-20.5h4.25v20.5zM26.25 26.281h-14.25v-14.25h14.25v14.25zM26.25 10.031h-14.25v-4.25h14.25v4.25z"/>
</svg>
