<svg version="1.1" xmlns="http://www.w3.org/2000/svg" width="32" height="32" viewBox="0 0 32 32">
<path fill="var(--fill, transparent)" d="M8.531 15.497v13.375l0.009-13.375zM25.35 12.738h-9.825l0.3-6.2c0.019-0.372-0.147-0.722-0.456-0.953-0.191-0.141-0.425-0.213-0.659-0.209-0.613 0.003-1.153 0.419-1.319 1.009-1.159 4.2-2.028 7.35-2.609 9.453v10.787h12.481c0.623-0.284 1.049-0.902 1.050-1.619v-0c0-0.303-0.072-0.591-0.216-0.853l-0.434-0.794 0.684-0.594c0.376-0.327 0.613-0.806 0.613-1.341 0-0.001 0-0.002 0-0.003v0c0-0.303-0.072-0.591-0.216-0.853l-0.434-0.794 0.684-0.594c0.376-0.327 0.613-0.806 0.613-1.341 0-0.001 0-0.002 0-0.003v0c0-0.303-0.072-0.591-0.216-0.853l-0.438-0.797 0.684-0.594c0.376-0.327 0.613-0.806 0.613-1.341 0-0.001 0-0.002 0-0.003v0c0-0.597-0.344-1.172-0.9-1.512z"/>
<path fill="currentColor" d="M3.5 16.5v11.375c0 0.553 0.447 1 1 1h2.031v-13.375h-2.031c-0.553 0-1 0.447-1 1zM27.684 16.678c0.525-0.694 0.816-1.544 0.816-2.428 0-1.403-0.784-2.734-2.047-3.469-0.306-0.183-0.675-0.291-1.070-0.291-0.001 0-0.001 0-0.002 0h-7.497l0.188-3.841c0.047-0.928-0.281-1.809-0.922-2.481-0.608-0.643-1.467-1.044-2.419-1.044-0.005 0-0.011 0-0.016 0h0.001c-1.625 0-3.063 1.094-3.494 2.659l-2.681 9.713-0.009 13.375h14.753c0.291 0 0.569-0.056 0.828-0.169 1.488-0.634 2.447-2.087 2.447-3.7 0-0.394-0.056-0.781-0.169-1.156 0.525-0.694 0.816-1.544 0.816-2.428 0-0.394-0.056-0.781-0.169-1.156 0.525-0.694 0.816-1.544 0.816-2.428 0-0.394-0.056-0.781-0.169-1.156zM25.637 15.594l-0.684 0.594 0.438 0.797c0.136 0.243 0.216 0.534 0.216 0.843 0 0.003 0 0.007-0 0.010v-0.001c0 0.516-0.222 1.006-0.613 1.344l-0.684 0.594 0.434 0.794c0.136 0.243 0.216 0.534 0.216 0.843 0 0.003 0 0.007-0 0.010v-0.001c0 0.516-0.222 1.006-0.613 1.344l-0.684 0.594 0.434 0.794c0.136 0.243 0.216 0.534 0.216 0.843 0 0.003 0 0.007-0 0.010v-0.001c0 0.7-0.413 1.331-1.050 1.619h-12.481v-10.787c0.581-2.1 1.45-5.25 2.609-9.453 0.168-0.583 0.693-1.003 1.318-1.009h0.001c0.234-0.003 0.469 0.069 0.659 0.209 0.309 0.231 0.475 0.581 0.456 0.953l-0.3 6.2h9.825c0.556 0.341 0.9 0.916 0.9 1.512 0 0.516-0.222 1.006-0.613 1.344z"/>
</svg>
