<svg version="1.1" xmlns="http://www.w3.org/2000/svg" width="32" height="32" viewBox="0 0 32 32">
<path fill="var(--fill, transparent)" d="M14.922 16.759l-10.672-8.297v16.288h23.5v-16.288l-10.681 8.297c-0.293 0.229-0.667 0.368-1.073 0.368s-0.78-0.139-1.077-0.371l0.004 0.003z"/>
<path fill="var(--fill, transparent)" d="M27.384 6.213l1.228 1.578-0.863 0.672 0.866-0.672-1.228-1.578z"/>
<path fill="currentColor" d="M29 5h-26c-0.553 0-1 0.447-1 1v20c0 0.553 0.447 1 1 1h26c0.553 0 1-0.447 1-1v-20c0-0.553-0.447-1-1-1zM26.047 7.253l-10.047 7.809-10.047-7.809h20.094zM27.75 8.463v16.288h-23.5v-16.288l-0.862-0.672 11.534 8.969c0.293 0.229 0.667 0.368 1.073 0.368s0.78-0.139 1.077-0.371l-0.004 0.003 11.544-8.969-1.228-1.578h0.003l1.228 1.578-0.866 0.672z"/>
</svg>
