<svg version="1.1" xmlns="http://www.w3.org/2000/svg" width="32" height="32" viewBox="0 0 32 32">
<path fill="currentColor" d="M23.25 2h-14.5c-1.103 0-2 0.897-2 2v24c0 1.103 0.897 2 2 2h14.5c1.103 0 2-0.897 2-2v-24c0-1.103-0.897-2-2-2zM23 27.75h-14v-23.5h14v23.5z"/>
<path fill="var(--fill, transparent)" d="M9 27.75h14v-23.5h-14v23.5zM16 23.313c0.691 0 1.25 0.559 1.25 1.25s-0.559 1.25-1.25 1.25-1.25-0.559-1.25-1.25 0.559-1.25 1.25-1.25z"/>
<path fill="currentColor" d="M14.75 24.563c0 0.69 0.56 1.25 1.25 1.25s1.25-0.56 1.25-1.25v0c0-0.69-0.56-1.25-1.25-1.25s-1.25 0.56-1.25 1.25v0z"/>
</svg>
