<svg version="1.1" xmlns="http://www.w3.org/2000/svg" width="32" height="32" viewBox="0 0 32 32">
<path fill="var(--fill, transparent)" d="M7.175 21.191c-0.116 0.363-0.175 0.747-0.175 1.137 0-0.391 0.063-0.775 0.178-1.137h-0.003zM9.559 13.059h-3.809v5.881h3.809l0.403 0.163 16.288 6.544v-19.294l-16.288 6.544z"/>
<path fill="currentColor" d="M27.5 3.5c-0.119 0-0.241 0.022-0.363 0.072l-18.012 7.237h-5.125c-0.275 0-0.5 0.231-0.5 0.519v9.344c0 0.288 0.225 0.519 0.5 0.519h3.178c-0.116 0.363-0.178 0.747-0.178 1.137 0 2.059 1.681 3.734 3.75 3.734 1.731 0 3.191-1.175 3.622-2.762l12.769 5.131c0.122 0.047 0.244 0.072 0.363 0.072 0.528 0 1-0.444 1-1.038v-22.928c-0.003-0.594-0.472-1.038-1.003-1.038zM10.75 23.822c-0.828 0-1.5-0.669-1.5-1.494 0-0.35 0.122-0.684 0.344-0.95l2.653 1.066c-0.063 0.769-0.709 1.378-1.497 1.378zM26.25 25.647l-16.691-6.706h-3.809v-5.881h3.809l0.403-0.162 16.288-6.544v19.294z"/>
</svg>
