<svg version="1.1" xmlns="http://www.w3.org/2000/svg" width="32" height="32" viewBox="0 0 32 32">
<path fill="var(--fill, transparent)" d="M22.553 5.778l-3.462 3.466 3.775 3.772-0.25 0.675c-1.556 4.154-4.775 7.374-8.824 8.897l-0.104 0.034-0.675 0.25-0.028-0.028-3.744-3.75-3.463 3.466 3.266 3.266c0.338 0.334 0.813 0.491 1.275 0.413 3.684-0.609 7.356-2.591 10.341-5.575s4.966-6.659 5.575-10.344c0.078-0.463-0.078-0.938-0.416-1.275l-3.266-3.266z"/>
<path fill="currentColor" d="M27.409 7.459l-3.328-3.325c-0.406-0.406-0.95-0.634-1.525-0.634s-1.119 0.225-1.525 0.634l-3.584 3.578c-0.406 0.406-0.634 0.953-0.634 1.528 0 0.578 0.225 1.119 0.634 1.528l2.8 2.803c-0.673 1.546-1.583 2.865-2.7 3.978l-0 0c-1.147 1.153-2.488 2.063-3.975 2.706l-2.8-2.803c-0.406-0.406-0.95-0.634-1.525-0.634-0.002 0-0.005 0-0.008 0-0.594 0-1.13 0.243-1.517 0.634l-0 0-3.587 3.578c-0.406 0.406-0.634 0.953-0.634 1.528 0 0.578 0.225 1.119 0.634 1.528l3.325 3.325c0.694 0.694 1.65 1.091 2.631 1.091 0.203 0 0.4-0.016 0.6-0.050 4.138-0.681 8.244-2.884 11.559-6.197 3.313-3.319 5.512-7.425 6.2-11.566 0.197-1.175-0.197-2.384-1.041-3.231zM26.234 10.319c-0.609 3.684-2.591 7.359-5.575 10.344s-6.656 4.966-10.341 5.575c-0.463 0.078-0.938-0.078-1.275-0.413l-3.266-3.266 3.463-3.466 3.772 3.778 0.675-0.25c4.153-1.557 7.372-4.777 8.894-8.828l0.034-0.104 0.25-0.675-3.775-3.772 3.462-3.466 3.266 3.266c0.337 0.338 0.494 0.813 0.416 1.275z"/>
</svg>
