<svg version="1.1" xmlns="http://www.w3.org/2000/svg" width="32" height="32" viewBox="0 0 32 32">
<path fill="currentColor" d="M29 5h-26c-0.553 0-1 0.447-1 1v20c0 0.553 0.447 1 1 1h26c0.553 0 1-0.447 1-1v-20c0-0.553-0.447-1-1-1zM27.75 24.75h-23.5v-1.247l4.328-5.134 4.691 5.563 7.297-8.65 7.184 8.519v0.95zM27.75 20.694l-6.994-8.294c-0.1-0.119-0.281-0.119-0.381 0l-7.106 8.425-4.5-5.334c-0.1-0.119-0.281-0.119-0.381 0l-4.138 4.906v-13.147h23.5v13.444z"/>
<path fill="var(--fill, transparent)" d="M13.269 23.931l-4.691-5.563-4.328 5.134v1.247h23.5v-0.95l-7.184-8.519z"/>
<path fill="var(--fill, transparent)" d="M4.25 20.397l4.137-4.906c0.1-0.119 0.281-0.119 0.381 0l4.5 5.334 7.106-8.425c0.1-0.119 0.281-0.119 0.381 0l6.994 8.294v-13.444h-23.5v13.147zM9.5 8.75c1.519 0 2.75 1.231 2.75 2.75s-1.231 2.75-2.75 2.75v0c-1.519 0-2.75-1.231-2.75-2.75s1.231-2.75 2.75-2.75v0z"/>
<path fill="var(--fill, transparent)" d="M8.625 11.5c0 0.483 0.392 0.875 0.875 0.875s0.875-0.392 0.875-0.875v0c0-0.483-0.392-0.875-0.875-0.875s-0.875 0.392-0.875 0.875v0z"/>
<path fill="currentColor" d="M9.5 14.25c1.519 0 2.75-1.231 2.75-2.75s-1.231-2.75-2.75-2.75v0c-1.519 0-2.75 1.231-2.75 2.75s1.231 2.75 2.75 2.75v0zM9.5 10.625c0.484 0 0.875 0.391 0.875 0.875s-0.391 0.875-0.875 0.875-0.875-0.391-0.875-0.875 0.391-0.875 0.875-0.875z"/>
</svg>
