<svg version="1.1" xmlns="http://www.w3.org/2000/svg" width="32" height="32" viewBox="0 0 32 32">
<path fill="var(--fill, transparent)" d="M9.881 28.766c-1.488-0.628-2.825-1.531-3.972-2.678-1.113-1.109-2.016-2.428-2.647-3.891l-0.031-0.081c-0.62-1.427-0.981-3.090-0.981-4.837 0-0.008 0-0.016 0-0.024v0.008c0 0.004 0 0.008 0 0.013 0 3.444 1.397 6.561 3.656 8.815l0 0c1.147 1.147 2.481 2.047 3.969 2.675 1.428 0.622 3.092 0.984 4.841 0.984 0.008 0 0.015 0 0.023-0h-0.001c0.844 0 1.675-0.084 2.491-0.247-0.809 0.163-1.637 0.244-2.478 0.244-1.688 0.003-3.325-0.328-4.869-0.981zM17.5 14.75c-0.137 0-0.25-0.113-0.25-0.25v-12.003c0-0.041 0.009-0.078 0.028-0.112-0.028 0.041-0.047 0.091-0.047 0.144v11.991c0 0.137 0.113 0.25 0.25 0.25l11.988-0.031c0.050 0 0.097-0.016 0.137-0.041-0.031 0.016-0.069 0.022-0.106 0.022l-12 0.031z"/>
<path fill="var(--fill, transparent)" d="M19.369 4.612v8.019l8.012-0.022c-0.406-1.953-1.384-3.766-2.813-5.191-1.383-1.378-3.152-2.368-5.132-2.794l-0.068-0.012z"/>
<path fill="var(--fill, transparent)" d="M13.688 6.928c-2.372 0.237-4.569 1.278-6.275 2.984-1.959 1.959-3.037 4.566-3.037 7.338s1.078 5.378 3.037 7.337c1.947 1.947 4.534 3.025 7.287 3.038 2.756 0.012 5.397-1.066 7.353-3.006 1.728-1.712 2.778-3.922 3.019-6.306h-11.384v-11.384z"/>
<path fill="currentColor" d="M27 16.188h-11.188v-11.188c0-0.138-0.113-0.25-0.25-0.25h-0.813c-0.006 0-0.013-0-0.020-0-3.445 0-6.563 1.399-8.817 3.659l-0 0c-1.113 1.109-2.016 2.428-2.647 3.891l-0.031 0.081c-0.622 1.43-0.984 3.096-0.984 4.847 0 0.008 0 0.015 0 0.023v-0.001 0.006c0 1.684 0.331 3.319 0.981 4.859 0.628 1.488 1.531 2.825 2.678 3.972s2.484 2.050 3.972 2.678c1.43 0.622 3.096 0.984 4.847 0.984 0.008 0 0.015 0 0.023-0h-0.001c0.841 0 1.669-0.081 2.478-0.244 0.816-0.166 1.616-0.409 2.387-0.738 1.488-0.628 2.825-1.531 3.972-2.678s2.050-2.484 2.678-3.972c0.622-1.43 0.984-3.096 0.984-4.847 0-0.008 0-0.015-0-0.023v0.001-0.813c0-0.137-0.113-0.25-0.25-0.25zM22.053 24.619c-1.872 1.858-4.451 3.006-7.298 3.006-0.019 0-0.038-0-0.058-0h0.003c-2.753-0.012-5.341-1.091-7.287-3.038-1.959-1.959-3.037-4.566-3.037-7.337s1.078-5.378 3.037-7.338c1.706-1.706 3.903-2.747 6.275-2.984v11.384h11.384c-0.241 2.384-1.291 4.594-3.019 6.306z"/>
<path fill="currentColor" d="M29.75 14.45l-0.081-0.881c-0.266-2.878-1.544-5.594-3.6-7.644-1.991-1.987-4.651-3.306-7.612-3.59l-0.050-0.004-0.884-0.081c-0.106-0.009-0.2 0.047-0.244 0.134-0.017 0.033-0.027 0.071-0.028 0.112v12.004c0 0.137 0.113 0.25 0.25 0.25l12-0.031c0.038 0 0.072-0.009 0.106-0.022 0.086-0.042 0.144-0.128 0.144-0.229 0-0.006-0-0.013-0.001-0.019l0 0.001zM19.369 12.631v-8.019c2.048 0.438 3.817 1.429 5.2 2.807l-0-0c1.428 1.425 2.406 3.238 2.813 5.191l-8.012 0.022z"/>
</svg>
