<svg version="1.1" xmlns="http://www.w3.org/2000/svg" width="32" height="32" viewBox="0 0 32 32">
<path fill="currentColor" d="M16 2c-7.731 0-14 6.269-14 14s6.269 14 14 14 14-6.269 14-14-6.269-14-14-14zM16 27.625c-6.419 0-11.625-5.206-11.625-11.625s5.206-11.625 11.625-11.625 11.625 5.206 11.625 11.625-5.206 11.625-11.625 11.625z"/>
<path fill="var(--fill, transparent)" d="M16 4.375c-6.419 0-11.625 5.206-11.625 11.625s5.206 11.625 11.625 11.625 11.625-5.206 11.625-11.625-5.206-11.625-11.625-11.625zM21.128 16.194l-6.825 4.966c-0.041 0.029-0.091 0.047-0.146 0.047-0.138 0-0.25-0.112-0.251-0.25v-9.925c0-0 0-0.001 0-0.001 0-0.138 0.112-0.25 0.25-0.25 0.055 0 0.106 0.018 0.148 0.048l6.824 4.962c0.063 0.045 0.104 0.119 0.104 0.202s-0.041 0.156-0.104 0.201l-0.001 0z"/>
<path fill="currentColor" d="M21.128 15.791l-6.825-4.963c-0.041-0.030-0.092-0.048-0.147-0.048-0.138 0-0.25 0.112-0.25 0.25 0 0 0 0.001 0 0.001v-0 9.925c0 0.138 0.112 0.25 0.251 0.25 0.055 0 0.106-0.018 0.147-0.048l-0.001 0 6.825-4.966c0.063-0.045 0.104-0.119 0.104-0.202s-0.041-0.156-0.104-0.201l-0.001-0.001z"/>
</svg>
