<svg version="1.1" xmlns="http://www.w3.org/2000/svg" width="32" height="32" viewBox="0 0 32 32">
<path fill="currentColor" d="M27.5 3.5h-23c-0.553 0-1 0.447-1 1v23c0 0.553 0.447 1 1 1h23c0.553 0 1-0.447 1-1v-23c0-0.553-0.447-1-1-1zM26.25 26.25h-20.5v-20.5h20.5v20.5z"/>
<path fill="var(--fill, transparent)" d="M5.75 26.25h20.5v-20.5h-20.5v20.5zM15.125 10.75c0-0.137 0.113-0.25 0.25-0.25h5.75c0.137 0 0.25 0.113 0.25 0.25v1.5c0 0.137-0.113 0.25-0.25 0.25h-5.75c-0.137 0-0.25-0.113-0.25-0.25v-1.5zM15.125 15.25c0-0.137 0.113-0.25 0.25-0.25h5.75c0.137 0 0.25 0.113 0.25 0.25v1.5c0 0.137-0.113 0.25-0.25 0.25h-5.75c-0.137 0-0.25-0.113-0.25-0.25v-1.5zM15.125 19.75c0-0.137 0.113-0.25 0.25-0.25h5.75c0.137 0 0.25 0.113 0.25 0.25v1.5c0 0.137-0.113 0.25-0.25 0.25h-5.75c-0.137 0-0.25-0.113-0.25-0.25v-1.5zM11.875 10.25c0.691 0 1.25 0.559 1.25 1.25s-0.559 1.25-1.25 1.25-1.25-0.559-1.25-1.25 0.559-1.25 1.25-1.25zM11.875 14.75c0.691 0 1.25 0.559 1.25 1.25s-0.559 1.25-1.25 1.25-1.25-0.559-1.25-1.25 0.559-1.25 1.25-1.25zM11.875 19.25c0.691 0 1.25 0.559 1.25 1.25s-0.559 1.25-1.25 1.25-1.25-0.559-1.25-1.25 0.559-1.25 1.25-1.25z"/>
<path fill="currentColor" d="M10.625 20.5c0 0.69 0.56 1.25 1.25 1.25s1.25-0.56 1.25-1.25v0c0-0.69-0.56-1.25-1.25-1.25s-1.25 0.56-1.25 1.25v0zM10.625 16c0 0.69 0.56 1.25 1.25 1.25s1.25-0.56 1.25-1.25v0c0-0.69-0.56-1.25-1.25-1.25s-1.25 0.56-1.25 1.25v0zM10.625 11.5c0 0.69 0.56 1.25 1.25 1.25s1.25-0.56 1.25-1.25v0c0-0.69-0.56-1.25-1.25-1.25s-1.25 0.56-1.25 1.25v0zM15.375 21.5h5.75c0.137 0 0.25-0.113 0.25-0.25v-1.5c0-0.137-0.113-0.25-0.25-0.25h-5.75c-0.137 0-0.25 0.113-0.25 0.25v1.5c0 0.137 0.113 0.25 0.25 0.25zM15.375 17h5.75c0.137 0 0.25-0.113 0.25-0.25v-1.5c0-0.137-0.113-0.25-0.25-0.25h-5.75c-0.137 0-0.25 0.113-0.25 0.25v1.5c0 0.137 0.113 0.25 0.25 0.25zM15.375 12.5h5.75c0.137 0 0.25-0.113 0.25-0.25v-1.5c0-0.137-0.113-0.25-0.25-0.25h-5.75c-0.137 0-0.25 0.113-0.25 0.25v1.5c0 0.137 0.113 0.25 0.25 0.25z"/>
</svg>
