<svg version="1.1" xmlns="http://www.w3.org/2000/svg" width="32" height="32" viewBox="0 0 32 32">
<path fill="currentColor" d="M27.5 3.5h-23c-0.553 0-1 0.447-1 1v23c0 0.553 0.447 1 1 1h23c0.553 0 1-0.447 1-1v-23c0-0.553-0.447-1-1-1zM26.25 26.25h-20.5v-20.5h20.5v20.5z"/>
<path fill="var(--fill, transparent)" d="M5.75 26.25h20.5v-20.5h-20.5v20.5zM20.5 8.75c0-0.137 0.113-0.25 0.25-0.25h2.5c0.137 0 0.25 0.113 0.25 0.25v8c0 0.137-0.113 0.25-0.25 0.25h-2.5c-0.137 0-0.25-0.113-0.25-0.25v-8zM14.5 8.75c0-0.137 0.113-0.25 0.25-0.25h2.5c0.137 0 0.25 0.113 0.25 0.25v5.75c0 0.137-0.113 0.25-0.25 0.25h-2.5c-0.137 0-0.25-0.113-0.25-0.25v-5.75zM8.5 8.75c0-0.137 0.113-0.25 0.25-0.25h2.5c0.137 0 0.25 0.113 0.25 0.25v14.5c0 0.137-0.113 0.25-0.25 0.25h-2.5c-0.137 0-0.25-0.113-0.25-0.25v-14.5z"/>
<path fill="currentColor" d="M8.75 23.5h2.5c0.137 0 0.25-0.113 0.25-0.25v-14.5c0-0.137-0.113-0.25-0.25-0.25h-2.5c-0.137 0-0.25 0.113-0.25 0.25v14.5c0 0.137 0.113 0.25 0.25 0.25zM14.75 14.75h2.5c0.137 0 0.25-0.113 0.25-0.25v-5.75c0-0.137-0.113-0.25-0.25-0.25h-2.5c-0.137 0-0.25 0.113-0.25 0.25v5.75c0 0.137 0.113 0.25 0.25 0.25zM20.75 17h2.5c0.137 0 0.25-0.113 0.25-0.25v-8c0-0.137-0.113-0.25-0.25-0.25h-2.5c-0.137 0-0.25 0.113-0.25 0.25v8c0 0.137 0.113 0.25 0.25 0.25z"/>
</svg>
