<svg version="1.1" xmlns="http://www.w3.org/2000/svg" width="32" height="32" viewBox="0 0 32 32">
<path fill="var(--fill, transparent)" d="M23.125 10.75h-10.5v-3.25h-3.125v5h5.5c0.553 0 1 0.447 1 1v11.25h10.25v-17.25h-3.125v3.25zM18.25 14c0-0.137 0.113-0.25 0.25-0.25h1.5c0.137 0 0.25 0.113 0.25 0.25v1.75c0 0.137-0.113 0.25-0.25 0.25h-1.5c-0.137 0-0.25-0.113-0.25-0.25v-1.75zM21.125 23.406c-1.587 0-2.875-1.288-2.875-2.875s1.288-2.875 2.875-2.875 2.875 1.288 2.875 2.875-1.288 2.875-2.875 2.875zM24 12.75v3c0 0.137-0.113 0.25-0.25 0.25h-1.5c-0.137 0-0.25-0.113-0.25-0.25v-3c0-0.137 0.113-0.25 0.25-0.25h1.5c0.137 0 0.25 0.113 0.25 0.25z"/>
<path fill="var(--fill, transparent)" d="M20.063 20.531c0 0.587 0.476 1.063 1.063 1.063s1.063-0.476 1.063-1.063v0c0-0.587-0.476-1.063-1.063-1.063s-1.063 0.476-1.063 1.063v0z"/>
<path fill="currentColor" d="M18.5 16h1.5c0.137 0 0.25-0.113 0.25-0.25v-1.75c0-0.137-0.113-0.25-0.25-0.25h-1.5c-0.137 0-0.25 0.113-0.25 0.25v1.75c0 0.137 0.113 0.25 0.25 0.25zM22 12.75v3c0 0.137 0.113 0.25 0.25 0.25h1.5c0.137 0 0.25-0.113 0.25-0.25v-3c0-0.137-0.113-0.25-0.25-0.25h-1.5c-0.137 0-0.25 0.113-0.25 0.25z"/>
<path fill="currentColor" d="M27.5 5.25h-6.625c0-0.966-0.784-1.75-1.75-1.75h-2.5c-0.966 0-1.75 0.784-1.75 1.75h-6.625c-0.553 0-1 0.447-1 1v6.25h-2.75c-0.553 0-1 0.447-1 1v14c0 0.553 0.447 1 1 1h10.5c0.553 0 1-0.447 1-1v-0.5h11.5c0.553 0 1-0.447 1-1v-19.75c0-0.553-0.447-1-1-1zM14.625 7.25h2.25v-1.75h2v1.75h2.25v1.5h-6.5v-1.5zM14 26.5h-8.5v-7.25h8.5v7.25zM14 17.25h-8.5v-2.75h8.5v2.75zM26.25 24.75h-10.25v-11.25c0-0.553-0.447-1-1-1h-5.5v-5h3.125v3.25h10.5v-3.25h3.125v17.25z"/>
<path fill="currentColor" d="M21.125 17.656c-1.587 0-2.875 1.288-2.875 2.875s1.288 2.875 2.875 2.875 2.875-1.288 2.875-2.875-1.288-2.875-2.875-2.875zM21.125 21.594c-0.587 0-1.063-0.475-1.063-1.063s0.475-1.063 1.063-1.063 1.063 0.475 1.063 1.063-0.475 1.063-1.063 1.063z"/>
</svg>
