<svg version="1.1" xmlns="http://www.w3.org/2000/svg" width="32" height="32" viewBox="0 0 32 32">
<path fill="currentColor" d="M27.091 5.309l-10.619-3.619c-0.128-0.044-0.3-0.066-0.472-0.066s-0.344 0.022-0.472 0.066l-10.619 3.619c-0.259 0.088-0.472 0.388-0.472 0.662v15.075c0 0.275 0.178 0.637 0.394 0.809l10.772 8.394c0.109 0.084 0.25 0.128 0.394 0.128s0.288-0.044 0.394-0.128l10.772-8.394c0.216-0.169 0.394-0.531 0.394-0.809v-15.075c0.006-0.275-0.206-0.572-0.466-0.662zM25.313 20.447l-9.313 7.256-9.313-7.256v-13.363l9.313-3.175 9.313 3.175v13.363z"/>
<path fill="var(--fill, transparent)" d="M14.397 14.097c0 1.382 1.121 2.503 2.503 2.503s2.503-1.121 2.503-2.503v0c0-1.382-1.121-2.503-2.503-2.503s-2.503 1.121-2.503 2.503v0z"/>
<path fill="var(--fill, transparent)" d="M6.688 7.084v13.362l9.313 7.256 9.313-7.256v-13.363l-9.313-3.175-9.313 3.175zM20.084 10.912c1.759 1.759 1.759 4.609 0 6.369-1.516 1.516-3.844 1.725-5.581 0.628l-2.422 2.422c-0.045 0.045-0.108 0.073-0.177 0.073s-0.131-0.028-0.177-0.073l-1.062-1.062c-0.045-0.045-0.073-0.108-0.073-0.177s0.028-0.131 0.073-0.177l2.422-2.422c-1.097-1.741-0.887-4.066 0.628-5.581 1.759-1.759 4.609-1.759 6.369 0z"/>
<path fill="currentColor" d="M13.088 16.494l-2.422 2.422c-0.045 0.045-0.073 0.108-0.073 0.177s0.028 0.131 0.073 0.177l1.062 1.062c0.097 0.097 0.256 0.097 0.353 0l2.422-2.422c1.738 1.097 4.066 0.887 5.581-0.628 1.759-1.759 1.759-4.609 0-6.369s-4.609-1.759-6.369 0c-1.516 1.516-1.725 3.841-0.628 5.581zM15.131 12.328c0.453-0.453 1.079-0.733 1.77-0.733s1.317 0.28 1.77 0.733v0c0.453 0.453 0.733 1.079 0.733 1.77s-0.28 1.317-0.733 1.77v0c-0.978 0.978-2.563 0.978-3.541 0s-0.978-2.563 0-3.541z"/>
</svg>
