<svg version="1.1" xmlns="http://www.w3.org/2000/svg" width="32" height="32" viewBox="0 0 32 32">
<path fill="var(--fill, transparent)" d="M26.853 17.803l0.006 0.003c0.097-0.591 0.144-1.194 0.144-1.791 0-0.534-0.041-1.072-0.116-1.597 0.075 0.522 0.113 1.050 0.113 1.578 0 0.606-0.050 1.212-0.147 1.806zM3.094 12.441c-0.016-0.012-0.028-0.025-0.044-0.041 0.022 0.022 0.044 0.044 0.069 0.066l2.047 1.747v-0.003l-2.072-1.769zM19.863 5.691h0.003l-0.484-2.619c-0.006-0.031-0.012-0.059-0.022-0.087 0.003 0.016 0.009 0.034 0.012 0.050l0.491 2.656zM21.55 22.769l0.981-0.806 2.9 1.028c0.531-0.716 0.978-1.484 1.331-2.3l-2.334-1.997 0.206-1.253c0.078-0.472 0.119-0.956 0.119-1.441s-0.041-0.969-0.119-1.441l-0.203-1.247 2.334-1.997c-0.356-0.813-0.8-1.584-1.331-2.3l-2.9 1.028-0.981-0.806c-0.747-0.613-1.581-1.094-2.478-1.431l-1.191-0.447-0.559-3.031c-0.399-0.048-0.86-0.075-1.328-0.075s-0.93 0.027-1.383 0.080l0.055-0.005-0.559 3.037-1.184 0.447c-0.891 0.338-1.719 0.819-2.459 1.428l-0.981 0.809-2.919-1.037c-0.531 0.716-0.978 1.484-1.331 2.3l2.359 2.016-0.203 1.25c-0.078 0.466-0.116 0.944-0.116 1.422 0 0.475 0.041 0.956 0.116 1.422l0.203 1.25-2.359 2.016c0.356 0.813 0.8 1.584 1.331 2.3l2.919-1.038 0.981 0.809c0.741 0.609 1.569 1.091 2.459 1.428l1.181 0.453 0.559 3.038c0.881 0.1 1.778 0.1 2.656 0l0.559-3.031 1.191-0.447c0.9-0.337 1.731-0.819 2.478-1.431zM16.016 21.197c-0.953 0-1.85-0.244-2.634-0.672-1.716-0.931-2.881-2.747-2.881-4.838 0-3.037 2.463-5.5 5.5-5.5 2.091 0 3.906 1.166 4.837 2.881 0.428 0.781 0.672 1.678 0.672 2.634 0 3.034-2.459 5.494-5.494 5.494zM6.475 25.4c-0.172 0.059-0.35 0.072-0.519 0.038 0.178 0.038 0.366 0.031 0.547-0.031l2.544-0.906c-0.003-0.003-0.009-0.006-0.012-0.009l-2.559 0.909zM28.9 12.441l-2.047 1.75c0 0.006 0.003 0.016 0.003 0.022l2.044-1.747c0.222-0.191 0.347-0.466 0.35-0.75-0.009 0.275-0.134 0.541-0.35 0.725z"/>
<path fill="var(--fill, transparent)" d="M29.244 20.206c0.016 0.147 0 0.297-0.053 0.441l-0.028 0.081c-0.604 1.657-1.448 3.087-2.507 4.329l0.016-0.020-0.056 0.066c-0.185 0.217-0.458 0.354-0.763 0.354-0.12 0-0.234-0.021-0.34-0.059l0.007 0.002-2.541-0.903c-0.89 0.737-1.921 1.345-3.041 1.775l-0.075 0.025-0.491 2.656c-0.078 0.409-0.396 0.727-0.8 0.802l-0.006 0.001-0.084 0.016c-0.744 0.141-1.6 0.222-2.475 0.222-0 0-0 0-0 0h0.009c0.834 0 1.669-0.075 2.481-0.222l0.084-0.016c0.41-0.076 0.728-0.394 0.805-0.797l0.001-0.006 0.491-2.653c1.131-0.425 2.175-1.028 3.113-1.797l2.538 0.903c0.099 0.036 0.214 0.057 0.333 0.057 0.305 0 0.579-0.137 0.762-0.353l0.001-0.001 0.056-0.066c1.087-1.284 1.922-2.731 2.488-4.303l0.028-0.081c0.050-0.147 0.066-0.303 0.047-0.453z"/>
<path fill="currentColor" d="M21.5 15.688c0-0.947-0.241-1.841-0.663-2.619-0.931-1.716-2.747-2.881-4.838-2.881-3.037 0-5.5 2.463-5.5 5.5 0 2.091 1.166 3.906 2.881 4.837 0.778 0.422 1.669 0.663 2.619 0.663 3.037 0 5.5-2.462 5.5-5.5zM12.5 15.688c0-0.934 0.366-1.813 1.025-2.475 0.662-0.662 1.541-1.025 2.475-1.025s1.813 0.363 2.475 1.025c0.633 0.631 1.025 1.505 1.025 2.47 0 0.002 0 0.004 0 0.006v-0c0 0.934-0.366 1.813-1.025 2.475-0.631 0.633-1.505 1.025-2.47 1.025-0.002 0-0.004 0-0.006 0h0c-0.934 0-1.813-0.366-2.475-1.025-0.633-0.631-1.025-1.505-1.025-2.47 0-0.002 0-0.004 0-0.006v0z"/>
<path fill="currentColor" d="M18.566 29.756c0.41-0.076 0.728-0.394 0.805-0.797l0.001-0.006 0.491-2.656c1.195-0.455 2.226-1.063 3.134-1.815l-0.018 0.015 2.541 0.903c0.099 0.036 0.214 0.057 0.333 0.057 0.305 0 0.579-0.137 0.762-0.353l0.001-0.001 0.056-0.066c1.087-1.284 1.925-2.734 2.491-4.309l0.028-0.081c0.053-0.144 0.069-0.294 0.053-0.441-0.028-0.247-0.147-0.481-0.344-0.653l-2.041-1.747-0.006-0.003c0.097-0.594 0.147-1.2 0.147-1.806 0-0.528-0.038-1.059-0.113-1.578-0.009-0.069-0.022-0.137-0.031-0.206 0-0.006-0.003-0.016-0.003-0.022l2.047-1.75c0.216-0.184 0.341-0.45 0.35-0.725 0.003-0.125-0.016-0.253-0.059-0.375l-0.028-0.081c-0.603-1.658-1.447-3.088-2.507-4.329l0.016 0.019-0.056-0.066c-0.185-0.217-0.459-0.353-0.765-0.353-0.119 0-0.233 0.021-0.339 0.059l0.007-0.002-2.541 0.903c-0.938-0.769-1.981-1.375-3.113-1.8h-0.003l-0.491-2.656c-0.003-0.016-0.006-0.034-0.012-0.050-0.094-0.385-0.402-0.679-0.788-0.752l-0.006-0.001-0.084-0.016c-1.628-0.294-3.341-0.294-4.969 0l-0.084 0.016c-0.41 0.076-0.728 0.394-0.805 0.797l-0.001 0.006-0.494 2.669c-1.186 0.456-2.21 1.062-3.112 1.809l0.018-0.015-2.559-0.909c-0.099-0.036-0.214-0.057-0.333-0.057-0.305 0-0.579 0.137-0.762 0.353l-0.001 0.001-0.056 0.066c-1.042 1.222-1.886 2.652-2.46 4.213l-0.031 0.097-0.028 0.081c-0.037 0.101-0.059 0.217-0.059 0.338 0 0.283 0.117 0.538 0.305 0.721l0 0c0.016 0.012 0.028 0.028 0.044 0.041l2.072 1.769v0.003c-0.097 0.588-0.144 1.184-0.144 1.781 0 0.6 0.047 1.2 0.144 1.784l-2.072 1.769c-0.215 0.185-0.35 0.457-0.35 0.76 0 0.122 0.022 0.239 0.062 0.347l-0.002-0.007 0.028 0.081c0.566 1.575 1.403 3.028 2.491 4.309l0.056 0.066c0.153 0.178 0.356 0.294 0.578 0.334 0.169 0.031 0.347 0.022 0.519-0.038l2.559-0.909c0.003 0.003 0.009 0.006 0.012 0.009 0.928 0.759 1.963 1.363 3.081 1.784l0.494 2.669c0.078 0.409 0.396 0.727 0.8 0.802l0.006 0.001 0.084 0.016c0.816 0.147 1.65 0.222 2.484 0.222h0.009c0.831 0 1.666-0.075 2.475-0.222l0.084-0.016zM17.322 27.678c-0.399 0.048-0.86 0.075-1.328 0.075s-0.93-0.027-1.383-0.080l0.055 0.005-0.559-3.038-1.181-0.453c-0.891-0.337-1.719-0.819-2.459-1.428l-0.981-0.809-2.919 1.038c-0.531-0.716-0.975-1.488-1.331-2.3l2.359-2.016-0.203-1.25c-0.075-0.466-0.116-0.947-0.116-1.422 0-0.478 0.037-0.956 0.116-1.422l0.203-1.25-2.359-2.016c0.353-0.816 0.8-1.584 1.331-2.3l2.919 1.037 0.981-0.809c0.741-0.609 1.569-1.091 2.459-1.428l1.184-0.447 0.559-3.037c0.878-0.1 1.775-0.1 2.656 0l0.559 3.031 1.191 0.447c0.897 0.338 1.731 0.819 2.478 1.431l0.981 0.806 2.9-1.028c0.531 0.716 0.975 1.488 1.331 2.3l-2.334 1.997 0.203 1.247c0.078 0.472 0.119 0.956 0.119 1.441s-0.041 0.969-0.119 1.441l-0.206 1.253 2.334 1.997c-0.385 0.878-0.831 1.634-1.353 2.33l0.021-0.030-2.9-1.028-0.981 0.806c-0.747 0.613-1.578 1.094-2.478 1.431l-1.191 0.447-0.559 3.031z"/>
</svg>
