<svg version="1.1" xmlns="http://www.w3.org/2000/svg" width="32" height="32" viewBox="0 0 32 32">
<path fill="var(--fill, transparent)" d="M5.625 9.125h2.5v13.75h-2.5zM17.156 14.75h-2.313c-0.052 0-0.094 0.042-0.094 0.094v0 2.313c0 0.052 0.042 0.094 0.094 0.094v0h2.313c0.052 0 0.094-0.042 0.094-0.094v0-2.313c0-0.052-0.042-0.094-0.094-0.094v0zM23.875 11.375h2.5v9.25h-2.5z"/>
<path fill="currentColor" d="M28.25 9.25h-2.063v-3c0-0.138-0.113-0.25-0.25-0.25h-1.625c-0.137 0-0.25 0.112-0.25 0.25v3h-2.063c-0.137 0-0.25 0.113-0.25 0.25v13c0 0.137 0.113 0.25 0.25 0.25h2.063v3c0 0.137 0.113 0.25 0.25 0.25h1.625c0.137 0 0.25-0.113 0.25-0.25v-3h2.063c0.137 0 0.25-0.113 0.25-0.25v-13c0-0.137-0.113-0.25-0.25-0.25zM26.375 20.625h-2.5v-9.25h2.5v9.25zM19.125 12.625h-2.063v-5.375c0-0.138-0.113-0.25-0.25-0.25h-1.625c-0.137 0-0.25 0.112-0.25 0.25v5.375h-2.063c-0.137 0-0.25 0.113-0.25 0.25v6.25c0 0.137 0.113 0.25 0.25 0.25h2.063v5.375c0 0.137 0.113 0.25 0.25 0.25h1.625c0.137 0 0.25-0.113 0.25-0.25v-5.375h2.063c0.137 0 0.25-0.113 0.25-0.25v-6.25c0-0.137-0.113-0.25-0.25-0.25zM17.25 17.156c0 0.052-0.042 0.094-0.094 0.094v0h-2.313c-0.052 0-0.094-0.042-0.094-0.094v0-2.313c0-0.052 0.042-0.094 0.094-0.094v0h2.313c0.052 0 0.094 0.042 0.094 0.094v0 2.313zM10 7h-2.063v-1.75c0-0.138-0.112-0.25-0.25-0.25h-1.625c-0.138 0-0.25 0.112-0.25 0.25v1.75h-2.063c-0.138 0-0.25 0.112-0.25 0.25v17.5c0 0.137 0.112 0.25 0.25 0.25h2.063v1.75c0 0.137 0.112 0.25 0.25 0.25h1.625c0.138 0 0.25-0.113 0.25-0.25v-1.75h2.063c0.137 0 0.25-0.113 0.25-0.25v-17.5c0-0.138-0.113-0.25-0.25-0.25zM8.125 22.875h-2.5v-13.75h2.5v13.75z"/>
</svg>
