<svg version="1.1" xmlns="http://www.w3.org/2000/svg" width="32" height="32" viewBox="0 0 32 32">
<path fill="var(--fill, transparent)" d="M14.063 15.938v-5.438h-6.813v17.25h13.5v-10.563h-5.438c-0.691 0-1.25-0.559-1.25-1.25z"/>
<path fill="currentColor" d="M26 3.5h-3.375v-1.25c0-0.138-0.113-0.25-0.25-0.25h-1.75c-0.137 0-0.25 0.112-0.25 0.25v1.25h-4.75v-1.25c0-0.138-0.113-0.25-0.25-0.25h-1.75c-0.137 0-0.25 0.112-0.25 0.25v1.25h-3.375c-0.553 0-1 0.447-1 1v3.75h-3c-0.553 0-1 0.447-1 1v19.75c0 0.553 0.447 1 1 1h16c0.553 0 1-0.447 1-1v-3h3c0.553 0 1-0.447 1-1v-20.5c0-0.553-0.447-1-1-1zM20.75 27.75h-13.5v-17.25h6.813v5.438c0 0.691 0.559 1.25 1.25 1.25h5.438v10.563zM20.75 15.188h-4.688v-4.688h0.006l4.681 4.681v0.006zM24.75 23.75h-1.75v-9.5l-6-6h-5.75v-2.5h2.125v1c0 0.138 0.113 0.25 0.25 0.25h1.75c0.137 0 0.25-0.112 0.25-0.25v-1h4.75v1c0 0.138 0.113 0.25 0.25 0.25h1.75c0.137 0 0.25-0.112 0.25-0.25v-1h2.125v18z"/>
</svg>
