<svg version="1.1" xmlns="http://www.w3.org/2000/svg" width="32" height="32" viewBox="0 0 32 32">
<path fill="currentColor" d="M16 2c-7.731 0-14 6.269-14 14s6.269 14 14 14 14-6.269 14-14-6.269-14-14-14zM25.016 23.337l-16.337-16.337c-0.616 0.5-1.178 1.063-1.678 1.678l16.337 16.337c-2 1.631-4.556 2.609-7.338 2.609-6.419 0-11.625-5.206-11.625-11.625s5.206-11.625 11.625-11.625 11.625 5.206 11.625 11.625c0 2.781-0.978 5.337-2.609 7.337z"/>
<path fill="var(--fill, transparent)" d="M16 4.375c-6.419 0-11.625 5.206-11.625 11.625s5.206 11.625 11.625 11.625c2.781 0 5.337-0.978 7.337-2.609l-16.337-16.337c0.5-0.616 1.063-1.178 1.678-1.678l16.337 16.337c1.631-2 2.609-4.556 2.609-7.338 0-6.419-5.206-11.625-11.625-11.625z"/>
</svg>
