<svg version="1.1" xmlns="http://www.w3.org/2000/svg" width="32" height="32" viewBox="0 0 32 32">
<path fill="var(--fill, transparent)" d="M5.75 26.25h16.5v-16.5h-16.5v16.5zM9.375 17.188h9.25v2h-9.25v-2z"/>
<path fill="currentColor" d="M27.5 3.5h-19.25c-0.137 0-0.25 0.112-0.25 0.25v1.75c0 0.138 0.113 0.25 0.25 0.25h18v18c0 0.137 0.113 0.25 0.25 0.25h1.75c0.137 0 0.25-0.113 0.25-0.25v-19.25c0-0.553-0.447-1-1-1z"/>
<path fill="currentColor" d="M23.5 7.5h-19c-0.553 0-1 0.447-1 1v19c0 0.553 0.447 1 1 1h19c0.553 0 1-0.447 1-1v-19c0-0.553-0.447-1-1-1zM22.25 26.25h-16.5v-16.5h16.5v16.5z"/>
<path fill="currentColor" d="M9.375 17.188h9.25v2h-9.25z"/>
</svg>
