<svg version="1.1" xmlns="http://www.w3.org/2000/svg" width="32" height="32" viewBox="0 0 32 32">
<path fill="var(--fill, transparent)" d="M18.406 5.144l-12.491 12.491 8.45 8.45 12.491-12.491-0.731-7.719-7.719-0.731zM21.25 13.5c-1.516 0-2.75-1.234-2.75-2.75s1.234-2.75 2.75-2.75 2.75 1.234 2.75 2.75-1.234 2.75-2.75 2.75z"/>
<path fill="currentColor" d="M21.25 8c-1.516 0-2.75 1.234-2.75 2.75s1.234 2.75 2.75 2.75 2.75-1.234 2.75-2.75-1.234-2.75-2.75-2.75zM21.25 11.75c-0.553 0-1-0.447-1-1s0.447-1 1-1 1 0.447 1 1-0.447 1-1 1z"/>
<path fill="currentColor" d="M29.313 14.338l-0.925-9.769c-0.047-0.506-0.45-0.906-0.956-0.956l-9.781-0.925c-0.1 0-0.178 0.031-0.238 0.091l-14.634 14.634c-0.056 0.056-0.091 0.134-0.091 0.22s0.035 0.164 0.091 0.22v0l11.369 11.369c0.056 0.056 0.133 0.091 0.219 0.091 0.001 0 0.002 0 0.003-0h-0c0.084 0 0.162-0.031 0.222-0.091l14.634-14.634c0.063-0.066 0.094-0.156 0.087-0.25zM14.366 26.084l-8.45-8.45 12.491-12.491 7.719 0.731 0.731 7.719-12.491 12.491z"/>
</svg>
