<svg version="1.1" xmlns="http://www.w3.org/2000/svg" width="32" height="32" viewBox="0 0 32 32">
<path fill="var(--fill, transparent)" d="M14.922 21.688l9.747-9.744-0.594-7.019-7.019-0.594-9.747 9.747 7.613 7.609zM18.547 8.703c0.141-0.518 0.541-0.918 1.049-1.057l0.010-0.002c0.519-0.138 1.069 0.009 1.45 0.388 0.271 0.271 0.439 0.646 0.439 1.060 0 0.139-0.019 0.273-0.054 0.401l0.003-0.011c-0.141 0.518-0.541 0.918-1.049 1.057l-0.010 0.002c-0.519 0.137-1.069-0.009-1.45-0.387-0.271-0.273-0.438-0.648-0.438-1.063 0-0.138 0.018-0.271 0.053-0.397l-0.002 0.011z"/>
<path fill="var(--fill, transparent)" d="M14.894 24.769c-0.053-0.006-0.106-0.031-0.147-0.072l-10.444-10.444c-0.045-0.045-0.073-0.108-0.073-0.177s0.028-0.131 0.073-0.177l11.819-11.819c0.038-0.041 0.091-0.066 0.147-0.072h-0.012c-0.072-0.006-0.147 0.019-0.197 0.072l-11.819 11.819c-0.045 0.045-0.073 0.108-0.073 0.177s0.028 0.131 0.073 0.177l10.444 10.444c0.056 0.059 0.134 0.081 0.209 0.072z"/>
<path fill="currentColor" d="M27.803 16.869l-1.238-1.234c-0.045-0.045-0.108-0.073-0.177-0.073s-0.131 0.028-0.177 0.073l0-0-11.313 11.291-7.425-7.406c-0.045-0.045-0.108-0.073-0.177-0.073s-0.131 0.028-0.177 0.073l0-0-1.237 1.234c-0.045 0.045-0.073 0.108-0.073 0.177s0.028 0.131 0.073 0.177l-0-0 8.837 8.822c0.097 0.097 0.256 0.097 0.353 0l12.728-12.706c0.097-0.097 0.097-0.256 0-0.353zM20.384 10.541c0.518-0.141 0.918-0.541 1.057-1.049l0.002-0.010c0.137-0.519-0.009-1.069-0.387-1.45-0.271-0.271-0.646-0.439-1.060-0.439-0.139 0-0.273 0.019-0.401 0.054l0.011-0.003c-0.518 0.141-0.918 0.541-1.057 1.049l-0.002 0.010c-0.137 0.519 0.009 1.069 0.387 1.45 0.273 0.271 0.648 0.438 1.063 0.438 0.138 0 0.271-0.018 0.397-0.053l-0.011 0.002z"/>
<path fill="currentColor" d="M4.303 13.9c-0.045 0.045-0.073 0.108-0.073 0.177s0.028 0.131 0.073 0.177l10.444 10.444c0.041 0.041 0.091 0.066 0.147 0.072 0.075 0.009 0.15-0.016 0.206-0.072l11.819-11.822c0.053-0.053 0.078-0.125 0.072-0.197l-0.797-9.419c-0.022-0.244-0.212-0.434-0.456-0.456l-9.469-0.794c-0.056 0.006-0.106 0.031-0.147 0.072l-11.819 11.819zM17.056 4.331l7.019 0.594 0.594 7.019-9.747 9.744-7.612-7.609 9.747-9.747z"/>
</svg>
