<svg version="1.1" xmlns="http://www.w3.org/2000/svg" width="32" height="32" viewBox="0 0 32 32">
<path fill="var(--fill, transparent)" d="M21.731 5.128h-7.019l-5.925 10.231h4.919l-1.884 7.531 9.994-9.534h-6.594z"/>
<path fill="currentColor" d="M26.503 11.228h-6.884l6.191-7.822c0.128-0.166 0.012-0.406-0.197-0.406h-11.984c-0.088 0-0.172 0.047-0.216 0.125l-8.097 13.984c-0.097 0.166 0.022 0.375 0.216 0.375h5.45l-2.794 11.175c-0.059 0.244 0.234 0.416 0.416 0.241l18.072-17.244c0.163-0.153 0.053-0.428-0.172-0.428zM11.822 22.891l1.884-7.531h-4.919l5.925-10.231h7.019l-6.509 8.228h6.594l-9.994 9.534z"/>
</svg>
