<svg version="1.1" xmlns="http://www.w3.org/2000/svg" width="32" height="32" viewBox="0 0 32 32">
<path fill="var(--fill, transparent)" d="M22.087 15.272c-0.181 0.181-0.431 0.293-0.708 0.293s-0.527-0.112-0.708-0.293v0l-3.891-3.891c-0.181-0.181-0.293-0.431-0.293-0.708s0.112-0.527 0.293-0.708v0l4.153-4.15c-0.128-0.010-0.277-0.016-0.428-0.016-1.59 0-3.030 0.645-4.072 1.688l-0 0c-1.816 1.816-2.166 4.541-1.050 6.706l-1.65 1.65c-0.003 0-0.003-0.003-0.003-0.003l-7.191 7.191 2.475 2.475 8.841-8.837c2.166 1.116 4.891 0.766 6.706-1.050 1.225-1.222 1.791-2.878 1.675-4.497l-4.15 4.15z"/>
<path fill="currentColor" d="M27.394 7.484c-0.016-0.028-0.038-0.056-0.063-0.078-0.156-0.156-0.409-0.156-0.566 0l-5.384 5.384-2.122-2.122 5.387-5.388c0.025-0.025 0.044-0.050 0.063-0.078 0.113-0.191 0.050-0.434-0.141-0.547-3.069-1.813-7.087-1.397-9.728 1.241-2.094 2.094-2.787 5.063-2.078 7.731l-9.156 9.156c-0.094 0.094-0.087 0.247 0.009 0.344l5.303 5.303c0.097 0.097 0.253 0.103 0.344 0.009l9.153-9.153c2.672 0.712 5.641 0.022 7.738-2.075 2.637-2.641 3.053-6.659 1.241-9.728zM24.563 15.619c-1.816 1.816-4.541 2.166-6.706 1.050l-0.275 0.275-0.003-0.003-8.563 8.566-2.475-2.475 7.191-7.191s0 0.003 0.003 0.003l1.65-1.65c-1.116-2.166-0.766-4.891 1.050-6.706 1.042-1.043 2.482-1.688 4.072-1.688 0.151 0 0.3 0.006 0.447 0.017l-0.020-0.001-4.153 4.15c-0.181 0.181-0.293 0.431-0.293 0.708s0.112 0.527 0.293 0.708v0l3.891 3.891c0.181 0.181 0.431 0.293 0.708 0.293s0.527-0.112 0.708-0.293v0l4.15-4.15c0.116 1.619-0.45 3.275-1.675 4.497z"/>
</svg>
