<svg version="1.1" xmlns="http://www.w3.org/2000/svg" width="32" height="32" viewBox="0 0 32 32">
<path fill="currentColor" d="M16 2c-7.731 0-14 6.269-14 14s6.269 14 14 14 14-6.269 14-14-6.269-14-14-14zM16 27.625c-6.419 0-11.625-5.206-11.625-11.625s5.206-11.625 11.625-11.625 11.625 5.206 11.625 11.625-5.206 11.625-11.625 11.625z"/>
<path fill="var(--fill, transparent)" d="M16 4.375c-6.419 0-11.625 5.206-11.625 11.625s5.206 11.625 11.625 11.625 11.625-5.206 11.625-11.625-5.206-11.625-11.625-11.625zM21.334 22.631c-0.034 0.016-0.072 0.025-0.109 0.025h-1.938c-0.097 0-0.184-0.056-0.225-0.144l-2.331-4.975h-2.772v4.869c0 0.137-0.113 0.25-0.25 0.25h-1.709c-0.137 0-0.25-0.113-0.25-0.25v-12.813c0-0.137 0.113-0.25 0.25-0.25h4.863c3.087 0 4.506 1.872 4.506 4.097 0 2.194-1.363 3.325-2.45 3.725l2.525 5.131c0.066 0.122 0.012 0.272-0.109 0.334z"/>
<path fill="var(--fill, transparent)" d="M16.559 11.156h-2.606v4.625h2.547c1.656 0 2.587-0.8 2.587-2.262 0-1.572-1.028-2.363-2.528-2.363z"/>
<path fill="currentColor" d="M18.919 17.166c1.087-0.4 2.45-1.531 2.45-3.725 0-2.225-1.419-4.097-4.506-4.097h-4.863c-0.137 0-0.25 0.113-0.25 0.25v12.813c0 0.137 0.113 0.25 0.25 0.25h1.709c0.137 0 0.25-0.113 0.25-0.25v-4.869h2.772l2.331 4.975c0.041 0.087 0.128 0.144 0.225 0.144h1.938c0.038 0 0.075-0.009 0.109-0.025 0.122-0.063 0.175-0.212 0.109-0.334l-2.525-5.131zM16.5 15.781h-2.547v-4.625h2.606c1.5 0 2.528 0.791 2.528 2.363 0 1.463-0.931 2.262-2.587 2.262z"/>
</svg>
