<svg version="1.1" xmlns="http://www.w3.org/2000/svg" width="32" height="32" viewBox="0 0 32 32">
<path fill="var(--fill, transparent)" d="M7.25 26.25h17.5v-9.5h-17.5v9.5zM16 19.188c0.828 0 1.5 0.672 1.5 1.5 0 0.5-0.245 0.943-0.621 1.215l-0.004 0.003v1.656c0 0.137-0.113 0.25-0.25 0.25h-1.25c-0.137 0-0.25-0.113-0.25-0.25v-1.656c-0.38-0.276-0.625-0.718-0.625-1.218 0-0.828 0.671-1.5 1.5-1.5h0z"/>
<path fill="currentColor" d="M15.125 21.906v1.656c0 0.137 0.113 0.25 0.25 0.25h1.25c0.137 0 0.25-0.113 0.25-0.25v-1.656c0.381-0.276 0.625-0.719 0.625-1.219 0-0.829-0.672-1.5-1.5-1.5s-1.5 0.672-1.5 1.5c0 0.5 0.245 0.943 0.621 1.216l0.004 0.003z"/>
<path fill="currentColor" d="M26 14.5h-15.625v-7c0-0.966 0.784-1.75 1.75-1.75h7.75c0.966 0 1.75 0.784 1.75 1.75v2.125c0 0.137 0.113 0.25 0.25 0.25h1.75c0.137 0 0.25-0.113 0.25-0.25v-2.125c0-2.209-1.791-4-4-4h-7.75c-2.209 0-4 1.791-4 4v7h-2.125c-0.553 0-1 0.447-1 1v12c0 0.553 0.447 1 1 1h20c0.553 0 1-0.447 1-1v-12c0-0.553-0.447-1-1-1zM24.75 26.25h-17.5v-9.5h17.5v9.5z"/>
</svg>
