<svg version="1.1" xmlns="http://www.w3.org/2000/svg" width="32" height="32" viewBox="0 0 32 32">
<path fill="currentColor" d="M27.5 3.5h-23c-0.553 0-1 0.447-1 1v23c0 0.553 0.447 1 1 1h23c0.553 0 1-0.447 1-1v-23c0-0.553-0.447-1-1-1zM26.25 26.25h-20.5v-20.5h20.5v20.5z"/>
<path fill="var(--fill, transparent)" d="M5.75 26.25h20.5v-20.5h-20.5v20.5zM10.234 19.103l5.563-7.688c0.1-0.137 0.303-0.137 0.403 0l5.563 7.688c0.122 0.166 0.003 0.397-0.2 0.397h-1.466c-0.319 0-0.622-0.153-0.809-0.413l-3.288-4.544-3.287 4.544c-0.188 0.259-0.488 0.413-0.809 0.413h-1.466c-0.203 0-0.322-0.231-0.203-0.397z"/>
<path fill="currentColor" d="M10.438 19.5h1.466c0.322 0 0.622-0.153 0.809-0.413l3.287-4.544 3.287 4.544c0.188 0.259 0.491 0.413 0.809 0.413h1.466c0.203 0 0.322-0.231 0.2-0.397l-5.563-7.688c-0.046-0.063-0.119-0.103-0.202-0.103s-0.156 0.040-0.201 0.102l-0.001 0.001-5.563 7.688c-0.119 0.166 0 0.397 0.203 0.397z"/>
</svg>
