<svg version="1.1" xmlns="http://www.w3.org/2000/svg" width="32" height="32" viewBox="0 0 32 32">
<path fill="var(--fill, transparent)" d="M23.747 15.75h-15.494c-0.828 0-1.503 0.616-1.503 1.375v9.125h18.5v-9.125c0-0.759-0.675-1.375-1.503-1.375z"/>
<path fill="currentColor" d="M14.25 7.75h-1.5c-0.137 0-0.25 0.112-0.25 0.25v1.5c0 0.137 0.113 0.25 0.25 0.25h1.5c0.137 0 0.25-0.113 0.25-0.25v-1.5c0-0.138-0.113-0.25-0.25-0.25zM19.25 7.75h-1.5c-0.137 0-0.25 0.112-0.25 0.25v1.5c0 0.137 0.113 0.25 0.25 0.25h1.5c0.137 0 0.25-0.113 0.25-0.25v-1.5c0-0.138-0.113-0.25-0.25-0.25z"/>
<path fill="currentColor" d="M23.75 13.5v-9c0-0.553-0.447-1-1-1h-13.5c-0.553 0-1 0.447-1 1v9c-2.069 0-3.75 1.628-3.75 3.625v11.125c0 0.137 0.112 0.25 0.25 0.25h22.5c0.137 0 0.25-0.113 0.25-0.25v-11.125c0-1.997-1.681-3.625-3.75-3.625zM10.5 5.75h11v7.75h-11v-7.75zM25.25 26.25h-18.5v-9.125c0-0.759 0.675-1.375 1.503-1.375h15.494c0.828 0 1.503 0.616 1.503 1.375v9.125z"/>
</svg>
