<svg version="1.1" xmlns="http://www.w3.org/2000/svg" width="32" height="32" viewBox="0 0 32 32">
    <path fill="currentColor" d="M28.393 10.58c-0.353-0.12-0.747-0.080-1.047 0.113s-0.487 0.513-0.527 0.907c-0.12 1.16-0.34 4.053-0.42 5.147-0.293-0.053-0.647-0.007-1.080 0.227l-0.573 0.3c-1.060 0.553-2.827 1.487-4.207 2.36-1.473 0.933-1.36 2.427-1.18 4.9 0.080 1.067 0.18 2.4 0.18 4v0.227l0.213 0.087c0.827 0.327 1.58 0.493 2.307 0.493 0.833 0 1.627-0.22 2.427-0.66l0.173-0.093v-0.9c-0.013-1.667-0.027-2.867 0.66-3.607 0.387-0.413 0.767-0.693 1.213-1.013 0.493-0.353 1.047-0.753 1.747-1.433 0.72-0.707 1.133-2 1.133-3.547v-6.033c0-0.647-0.42-1.26-1-1.467zM28.727 18.073c0 1.353-0.347 2.5-0.933 3.073-0.66 0.647-1.193 1.033-1.667 1.367-0.453 0.327-0.88 0.633-1.313 1.1-0.86 0.933-0.853 2.313-0.84 4.060v0.5c-1.193 0.607-2.347 0.647-3.773 0.12-0.007-1.52-0.1-2.793-0.18-3.82-0.187-2.533-0.22-3.593 0.873-4.287 1.36-0.86 3.113-1.787 4.16-2.333l0.573-0.307c0.58-0.307 0.847-0.153 1.060 0.18 0.313 0.48 0.080 0.94-0.267 1.173l-0.413 0.273c-3.693 2.447-4.073 2.707-3.447 3.96l0.593-0.3c-0.36-0.713-0.367-0.727 3.22-3.107l0.413-0.273c0.633-0.42 0.993-1.273 0.46-2.093-0.060-0.093-0.127-0.18-0.213-0.267 0.047-0.667 0.313-4.147 0.447-5.44 0.020-0.193 0.093-0.333 0.22-0.413s0.307-0.1 0.467-0.040c0.32 0.113 0.56 0.473 0.56 0.833v6.033z"/>
    <path fill="currentColor" d="M11.46 19.633c-1.38-0.88-3.153-1.807-4.207-2.36l-0.573-0.3c-0.433-0.233-0.793-0.28-1.080-0.227-0.080-1.093-0.307-3.987-0.42-5.147-0.040-0.393-0.227-0.713-0.527-0.907s-0.693-0.233-1.047-0.113c-0.587 0.207-1.007 0.82-1.007 1.467v6.027c0 1.553 0.42 2.847 1.14 3.547 0.7 0.68 1.253 1.080 1.747 1.433 0.447 0.32 0.827 0.593 1.213 1.013 0.68 0.74 0.673 1.94 0.66 3.607v0.9s0.167 0.093 0.167 0.093c0.8 0.44 1.587 0.66 2.427 0.66 0.72 0 1.48-0.167 2.307-0.493l0.213-0.087v-0.227c0-1.6 0.1-2.927 0.18-4 0.187-2.473 0.293-3.96-1.18-4.9zM11.973 24.48c-0.073 1.027-0.173 2.3-0.18 3.82-1.427 0.527-2.58 0.487-3.78-0.12v-0.5c0.013-1.747 0.027-3.133-0.833-4.060-0.433-0.467-0.86-0.773-1.313-1.1-0.473-0.34-1.007-0.72-1.667-1.367-0.587-0.573-0.933-1.72-0.933-3.073v-6.027c0-0.367 0.233-0.72 0.553-0.833 0.16-0.053 0.34-0.040 0.467 0.040s0.2 0.22 0.22 0.413c0.133 1.3 0.393 4.78 0.447 5.44-0.080 0.087-0.153 0.173-0.213 0.267-0.533 0.82-0.173 1.673 0.46 2.093l0.413 0.273c3.587 2.38 3.58 2.393 3.22 3.107l0.593 0.3c0.627-1.253 0.24-1.513-3.447-3.96l-0.413-0.273c-0.347-0.233-0.58-0.693-0.267-1.173 0.22-0.333 0.48-0.493 1.060-0.18l0.573 0.307c1.047 0.553 2.8 1.473 4.16 2.333 1.093 0.693 1.060 1.753 0.873 4.287z"/>
    <path fill="currentColor" d="M25.747 8.193c0-2.347-1.32-4.26-3.52-5.113-2.207-0.853-4.633-0.353-6.26 1.28-1.613-1.6-4.087-2.12-6.26-1.28-2.2 0.853-3.513 2.727-3.513 4.993-0.053 0.653-0.253 6.533 8.687 11.033l1.087 0.54 1.093-0.547c9.173-4.62 8.707-10.693 8.687-10.913zM16.76 18.513v0s-0.787 0.393-0.787 0.393l-0.787-0.393c-8.547-4.3-8.367-9.78-8.32-10.413 0-2.007 1.153-3.647 3.087-4.4 0.62-0.24 1.26-0.353 1.9-0.353 1.433 0 2.833 0.58 3.813 1.653l0.307 0.34 0.307-0.34c1.44-1.58 3.68-2.087 5.713-1.3 1.933 0.747 3.087 2.427 3.093 4.52 0 0.060 0.447 5.873-8.32 10.287z"/>
    <path fill="currentColor" d="M17.98 6.633h-4.027v2.007s-2.013 0-2.013 0v4.033h2.007s0.007 2.013 0.007 2.013h4.027v-2.013h2.013s0-4.027 0-4.027h-2.013v-2.013zM19.327 9.313v2.7h-2.013s0 2.013 0 2.013h-2.693v-2.013s-2.013 0-2.013 0v-2.7h2.007s0.007-2.013 0.007-2.013h2.693v2.007h2.013z"/>
</svg>
