<svg version="1.1" xmlns="http://www.w3.org/2000/svg" width="32" height="32" viewBox="0 0 32 32">
    <path fill="currentColor" d="M28.2 15.4l-1.344-1.008c-1.051-0.722-2.382-1.059-4.189-1.059h-2.195l-4.236-4.236c-0.751-0.752-1.606-1.117-2.569-1.098h-0.671c-0.402 0.005-0.589 0.177-0.676 0.321-0.092 0.152-0.158 0.42 0.049 0.828l2.092 4.184h-6.010l-3.333-2.667h-2.663l0.249 0.486c0.649 1.264 1.034 2.303 1.2 3.181h-0.237c-0.536 0-1.006 0.467-1.006 1s0.47 1 1.006 1h0.575c2.716 1.725 5.741 2.649 8.758 2.667h0.737l-2.354 3.826c-0.128 0.209-0.133 0.451-0.014 0.664 0.165 0.296 0.571 0.51 0.965 0.51h0.667c0.635 0 1.675-0.299 2.208-0.74l4.909-3.927h7.225c0.468 0 0.905-0.189 1.265-0.546 0.455-0.452 0.727-1.121 0.727-1.787 0-0.724-0.579-1.219-1.133-1.6zM27.445 15.667h-3.445v-1.587c1.006 0.125 1.811 0.404 2.467 0.854l0.978 0.733zM12.964 8.849c-0.050-0.099-0.064-0.162-0.081-0.167 0.017-0.006 0.053-0.015 0.118-0.016h0.671c0.786-0.028 1.468 0.277 2.093 0.902l3.764 3.764h-4.323l-2.243-4.484zM3.327 15.333c0-0.165 0.171-0.333 0.339-0.333h3c0.165 0 0.333 0.168 0.333 0.333s-0.168 0.333-0.333 0.333h-3c-0.168 0-0.339-0.168-0.339-0.333zM28.137 18.314c-0.162 0.161-0.431 0.352-0.797 0.352h-7.457l-5.095 4.076c-0.367 0.303-1.236 0.59-1.788 0.59h-0.667c-0.184 0-0.365-0.116-0.383-0.159l2.979-4.841h-1.928c-2.586-0.015-5.090-0.688-7.461-2h1.125c0.533 0 1-0.467 1-1s-0.467-1-1-1h-2.084c-0.145-0.853-0.481-1.836-1.044-3h1.344l3.333 2.667h14.451c0.232 0 0.452 0.007 0.667 0.019v2.314h4.973c0.209 0.201 0.36 0.423 0.36 0.667 0 0.486-0.203 0.989-0.53 1.314zM17.333 15c-0.551 0-1 0.449-1 1s0.449 1 1 1 1-0.449 1-1-0.449-1-1-1zM17.333 16.333c-0.184 0-0.333-0.149-0.333-0.333s0.15-0.333 0.333-0.333 0.333 0.149 0.333 0.333-0.15 0.333-0.333 0.333zM14 15c-0.551 0-1 0.449-1 1s0.449 1 1 1 1-0.449 1-1-0.449-1-1-1zM14 16.333c-0.184 0-0.333-0.149-0.333-0.333s0.15-0.333 0.333-0.333 0.333 0.149 0.333 0.333-0.15 0.333-0.333 0.333zM10.667 15c-0.551 0-1 0.449-1 1s0.449 1 1 1 1-0.449 1-1-0.449-1-1-1zM10.667 16.333c-0.184 0-0.333-0.149-0.333-0.333s0.15-0.333 0.333-0.333 0.333 0.149 0.333 0.333-0.15 0.333-0.333 0.333z"/>
</svg>
