<svg version="1.1" xmlns="http://www.w3.org/2000/svg" width="32" height="32" viewBox="0 0 32 32">
    <path fill="currentColor" d="M25 4h-18c-1.656 0.002-2.998 1.344-3 3v18c0.002 1.656 1.344 2.998 3 3h18c1.656-0.002 2.998-1.344 3-3v-18c-0.002-1.656-1.344-2.998-3-3h-0zM27.333 25c-0.002 1.288-1.045 2.332-2.333 2.333h-18c-1.288-0.002-2.332-1.045-2.333-2.333v-18c0.002-1.288 1.045-2.332 2.333-2.333h18c1.288 0.002 2.332 1.045 2.333 2.333v0zM17.667 6.667h-3.333c-0.552 0.001-0.999 0.448-1 1v3.333c0.001 0.552 0.448 0.999 1 1h3.333c0.552-0.001 0.999-0.448 1-1v-3.333c-0.001-0.552-0.448-0.999-1-1h-0zM18 11c-0 0.184-0.149 0.333-0.333 0.333h-3.333c-0.184-0-0.333-0.149-0.333-0.333v-3.333c0-0.184 0.149-0.333 0.333-0.333h3.333c0.184 0 0.333 0.149 0.333 0.333v0zM11 6.667h-3.333c-0.552 0.001-0.999 0.448-1 1v3.333c0.001 0.552 0.448 0.999 1 1h3.333c0.552-0.001 0.999-0.448 1-1v-3.333c-0.001-0.552-0.448-0.999-1-1h-0zM11.333 11c-0 0.184-0.149 0.333-0.333 0.333h-3.333c-0.184-0-0.333-0.149-0.333-0.333v-3.333c0-0.184 0.149-0.333 0.333-0.333h3.333c0.184 0 0.333 0.149 0.333 0.333v0zM24.333 6.667h-3.333c-0.552 0.001-0.999 0.448-1 1v3.333c0.001 0.552 0.448 0.999 1 1h3.333c0.552-0.001 0.999-0.448 1-1v-3.333c-0.001-0.552-0.448-0.999-1-1h-0zM24.667 11c-0 0.184-0.149 0.333-0.333 0.333h-3.333c-0.184-0-0.333-0.149-0.333-0.333v-3.333c0-0.184 0.149-0.333 0.333-0.333h3.333c0.184 0 0.333 0.149 0.333 0.333v0zM17.667 13.333h-3.333c-0.552 0.001-0.999 0.448-1 1v3.333c0.001 0.552 0.448 0.999 1 1h3.333c0.552-0.001 0.999-0.448 1-1v-3.333c-0.001-0.552-0.448-0.999-1-1h-0zM18 17.667c-0 0.184-0.149 0.333-0.333 0.333h-3.333c-0.184-0-0.333-0.149-0.333-0.333v-3.333c0-0.184 0.149-0.333 0.333-0.333h3.333c0.184 0 0.333 0.149 0.333 0.333v0zM11 13.333h-3.333c-0.552 0.001-0.999 0.448-1 1v3.333c0.001 0.552 0.448 0.999 1 1h3.333c0.552-0.001 0.999-0.448 1-1v-3.333c-0.001-0.552-0.448-0.999-1-1h-0zM11.333 17.667c-0 0.184-0.149 0.333-0.333 0.333h-3.333c-0.184-0-0.333-0.149-0.333-0.333v-3.333c0-0.184 0.149-0.333 0.333-0.333h3.333c0.184 0 0.333 0.149 0.333 0.333v0zM24.333 13.333h-3.333c-0.552 0.001-0.999 0.448-1 1v3.333c0.001 0.552 0.448 0.999 1 1h3.333c0.552-0.001 0.999-0.448 1-1v-3.333c-0.001-0.552-0.448-0.999-1-1h-0zM24.667 17.667c-0 0.184-0.149 0.333-0.333 0.333h-3.333c-0.184-0-0.333-0.149-0.333-0.333v-3.333c0-0.184 0.149-0.333 0.333-0.333h3.333c0.184 0 0.333 0.149 0.333 0.333v0zM11 20h-3.333c-0.552 0.001-0.999 0.448-1 1v3.333c0.001 0.552 0.448 0.999 1 1h3.333c0.552-0.001 0.999-0.448 1-1v-3.333c-0.001-0.552-0.448-0.999-1-1h-0zM11.333 24.333c-0 0.184-0.149 0.333-0.333 0.333h-3.333c-0.184-0-0.333-0.149-0.333-0.333v-3.333c0-0.184 0.149-0.333 0.333-0.333h3.333c0.184 0 0.333 0.149 0.333 0.333v0z"/>
</svg>
