<svg version="1.1" xmlns="http://www.w3.org/2000/svg" width="32" height="32" viewBox="0 0 32 32">
    <path fill="currentColor" d="M17.24 10.098c3.397-0.159 6.473-1.42 8.905-3.431l-0.025 0.020 0.307-0.256-0.307-0.256c-2.407-1.99-5.483-3.252-8.846-3.409l-0.034-0.001c-6.443 0-11.667 5.223-11.667 11.667s5.223 11.667 11.667 11.667v0c0.038 0 3.897 0.035 6.431 2.569l0.569 0.569v-6.942l-0.569 0.569c-2.534 2.534-6.393 2.569-6.431 2.569-4.234 0-7.667-3.432-7.667-7.667s3.432-7.667 7.667-7.667v0zM23.573 23.85v3.828c-1.103-0.888-2.425-1.553-3.871-1.9l-0.068-0.014c1.513-0.361 2.836-1.026 3.958-1.929l-0.019 0.015zM17.485 9.421c-0.323-0.903-0.509-1.945-0.509-3.031 0-1.056 0.176-2.070 0.501-3.016l-0.020 0.065c3.011 0.22 5.732 1.31 7.953 3.018l-0.035-0.026c-2.179 1.676-4.89 2.765-7.842 2.987l-0.049 0.003zM8.906 17.764c0 0.001 0 0.002 0 0.003 0 2.39 1.008 4.544 2.623 6.060l0.004 0.004c-3.195-1.96-5.294-5.434-5.294-9.398 0-5.897 4.645-10.709 10.476-10.977l0.024-0.001c-0.275 0.869-0.433 1.869-0.433 2.906 0 1.105 0.18 2.168 0.512 3.161l-0.020-0.070c-4.404 0.242-7.885 3.869-7.892 8.31v0.001z"/>
</svg>
