<svg version="1.1" xmlns="http://www.w3.org/2000/svg" width="32" height="32" viewBox="0 0 32 32">
    <path fill="currentColor" d="M28.566 14.238l-13.667 13.333c-1.326 1.326-3.029 1.989-4.732 1.989s-3.409-0.663-4.737-1.992c-1.276-1.276-1.979-2.958-1.979-4.736s0.703-3.46 1.979-4.736l13.664-13.997c0.878-0.877 2.036-1.303 3.264-1.212 1.166 0.090 2.306 0.638 3.21 1.542 0.89 0.889 1.452 2.121 1.542 3.378 0.096 1.334-0.333 2.551-1.209 3.426l-13.67 13.336c-0.479 0.48-1.173 0.757-1.899 0.757s-1.42-0.277-1.902-0.759c-1.006-1.006-1.006-2.465 0-3.471l13.67-13.336 0.465 0.477-13.667 13.333c-0.753 0.754-0.753 1.77 0.003 2.526 0.717 0.717 2.145 0.717 2.862 0l13.67-13.336c0.734-0.734 1.094-1.766 1.012-2.904-0.079-1.1-0.571-2.177-1.349-2.955-0.792-0.792-1.783-1.271-2.79-1.349-1.048-0.083-1.993 0.27-2.739 1.016l-13.664 13.997c-1.153 1.153-1.787 2.667-1.787 4.267s0.633 3.114 1.784 4.264c2.391 2.391 6.137 2.391 8.529 0l13.67-13.336 0.465 0.477z"/>
</svg>
