<svg version="1.1" xmlns="http://www.w3.org/2000/svg" width="32" height="32" viewBox="0 0 32 32">
    <path fill="currentColor" d="M29.105 25.674l-11.946-20.979c-0.24-0.422-0.673-0.674-1.159-0.674s-0.918 0.252-1.159 0.674l-11.947 20.979c-0.238 0.418-0.235 0.915 0.006 1.33s0.672 0.663 1.153 0.663h23.893c0.48 0 0.911-0.248 1.152-0.663s0.244-0.912 0.006-1.33zM28.523 26.669c-0.121 0.207-0.336 0.331-0.576 0.331h-23.893c-0.24 0-0.456-0.124-0.576-0.332s-0.122-0.456-0.003-0.665l11.947-20.979c0.12-0.211 0.337-0.337 0.579-0.337s0.459 0.126 0.579 0.337l11.946 20.979c0.119 0.209 0.118 0.457-0.003 0.665zM16.989 23.292c0 0.548-0.444 0.992-0.992 0.992s-0.992-0.444-0.992-0.992 0.444-0.992 0.992-0.992 0.992 0.444 0.992 0.992zM17.492 11.743v0c0 2.991-0.714 6.663-1.492 9.405-0.778-2.742-1.492-6.414-1.492-9.405v-0c0-0.824 0.668-1.492 1.492-1.492s1.492 0.668 1.492 1.492z"/>
</svg>
