<svg version="1.1" xmlns="http://www.w3.org/2000/svg" width="32" height="32" viewBox="0 0 32 32">
    <path fill="currentColor" d="M24.333 14c-0.785 0-1.525 0.187-2.187 0.511l-1.442-2.218 1.11-2.959h-3.148v0.667h2.186l-0.765 2.045c-0.84 0.17-4.982 0.847-9.262-1.184l0.671-1.947-0.55 0.089c-0.541 0.088-2.077 0.159-2.694-0.555l-0.505 0.436c0.699 0.81 2.026 0.869 2.768 0.83l-1.54 4.465c-0.418-0.114-0.856-0.18-1.31-0.18-2.757 0-5 2.243-5 5s2.243 5 5 5 5-2.243 5-5c0-2.069-1.263-3.848-3.059-4.608l0.559-1.622 4.917 6.47c-0.257 0.293-0.418 0.673-0.418 1.092 0 0.641 0.368 1.192 0.9 1.471l-0.151 0.529h-0.748v0.667h2v-0.667h-0.558l0.099-0.346c0.042 0.003 0.083 0.013 0.126 0.013 0.894 0 1.621-0.71 1.659-1.595l1.484-0.237c0.528 2.195 2.502 3.832 4.857 3.832 2.757 0 5-2.243 5-5s-2.243-5-5-5zM12 19c0 2.389-1.944 4.333-4.333 4.333s-4.333-1.944-4.333-4.333 1.944-4.333 4.333-4.333c0.378 0 0.742 0.054 1.092 0.145l-1.407 4.080 0.63 0.217 1.408-4.083c1.534 0.668 2.61 2.197 2.61 3.974zM10.607 11.495c2.492 1.169 4.91 1.476 6.722 1.476 1.036 0 1.864-0.097 2.405-0.183l-2.971 5.942c-0.138-0.037-0.28-0.063-0.429-0.063-0.259 0-0.5 0.064-0.719 0.17l-5.186-6.823 0.179-0.518zM16.396 21.327l0.258-0.902-0.641-0.183-0.258 0.904c-0.254-0.182-0.421-0.477-0.421-0.812 0-0.551 0.449-1 1-1s1 0.449 1 1c0 0.53-0.415 0.961-0.937 0.994zM17.888 19.747c-0.108-0.286-0.293-0.532-0.53-0.718l3.012-6.027 1.195 1.838c-1.344 0.897-2.231 2.427-2.231 4.16 0 0.173 0.009 0.343 0.026 0.512l-1.471 0.235zM20 19c0-1.5 0.767-2.824 1.928-3.602l2.18 3.354-4.087 0.654c-0.012-0.134-0.021-0.269-0.021-0.406zM24.333 23.333c-2.022 0-3.721-1.395-4.196-3.271l5.088-0.814-2.714-4.175c0.555-0.258 1.17-0.407 1.821-0.407 2.389 0 4.333 1.944 4.333 4.333s-1.944 4.333-4.333 4.333z"/>
</svg>
