<svg version="1.1" xmlns="http://www.w3.org/2000/svg" width="32" height="32" viewBox="0 0 32 32">
    <path fill="currentColor" d="M12.339 20.743c-0.114 0.205-0.244 0.382-0.392 0.541l0.002-0.002c-1.368-1.055-2.308-2.608-2.549-4.383l-0.004-0.034c0.183-0.045 0.393-0.070 0.609-0.070h0c0.016 0 0.037 0.002 0.054 0.002 0.223 1.614 1.061 3 2.266 3.936l0.014 0.010zM13.73 10.449c0.671-0.284 1.451-0.449 2.27-0.449s1.599 0.165 2.309 0.464l-0.039-0.015c0.108-0.174 0.203-0.375 0.274-0.586l0.006-0.020c-0.753-0.322-1.63-0.509-2.55-0.509s-1.796 0.187-2.593 0.525l0.043-0.016c0.077 0.232 0.171 0.432 0.286 0.619l-0.007-0.012zM22.603 16.87c-0.185-0.045-0.398-0.071-0.617-0.071v0c-0.014 0-0.032 0.002-0.046 0.002-0.224 1.616-1.065 3.002-2.272 3.937l-0.014 0.010c0.114 0.205 0.244 0.382 0.391 0.541l-0.002-0.002c1.371-1.055 2.313-2.608 2.555-4.383l0.004-0.035zM23.84 22.999l-0.344-0.568c-0.441 0.235-0.965 0.374-1.521 0.374-0.952 0-1.81-0.405-2.409-1.053l-0.002-0.002c-0.553-0.575-0.893-1.357-0.893-2.218 0-0.631 0.182-1.219 0.497-1.714l-0.008 0.013c0.548-1.020 1.608-1.702 2.827-1.702 0.273 0 0.538 0.034 0.791 0.099l-0.022-0.005c1.431 0.331 2.492 1.565 2.556 3.058l0 0.007 0.664 0.013c0.032-0.215 0.050-0.464 0.050-0.717 0-2.852-2.312-5.164-5.164-5.164-0.202 0-0.4 0.012-0.596 0.034l0.024-0.002c0.642-0.852 1.028-1.928 1.028-3.095 0-0.258-0.019-0.511-0.055-0.759l0.003 0.028c-0.305-1.789-1.495-3.244-3.096-3.915l-0.034-0.013-0.32 0.582c0.922 0.591 1.524 1.61 1.524 2.77 0 0.348-0.054 0.684-0.155 0.999l0.006-0.023c-0.398 1.346-1.623 2.311-3.074 2.311-0.039 0-0.077-0.001-0.116-0.002l0.006 0h-0.015c-0.033 0.001-0.071 0.002-0.11 0.002-1.451 0-2.676-0.965-3.068-2.289l-0.006-0.023c-0.094-0.292-0.149-0.628-0.149-0.976 0-1.16 0.602-2.179 1.511-2.762l0.013-0.008-0.32-0.582c-1.635 0.684-2.825 2.139-3.125 3.898l-0.004 0.031c-0.033 0.22-0.052 0.473-0.052 0.731 0 1.167 0.386 2.243 1.037 3.108l-0.010-0.013c-0.173-0.021-0.374-0.032-0.577-0.032-2.852 0-5.165 2.312-5.165 5.165 0 0.251 0.018 0.498 0.053 0.74l-0.003-0.028 0.664-0.014c0.064-1.499 1.125-2.733 2.534-3.060l0.022-0.004c0.23-0.059 0.495-0.093 0.767-0.093 1.22 0 2.28 0.682 2.82 1.686l0.008 0.017c0.307 0.482 0.489 1.070 0.489 1.7 0 0.862-0.34 1.644-0.894 2.219l0.001-0.001c-0.601 0.65-1.459 1.055-2.411 1.055-0.556 0-1.079-0.138-1.538-0.382l0.018 0.009-0.344 0.568c0.884 0.689 2.010 1.105 3.233 1.105 0.666 0 1.303-0.123 1.89-0.348l-0.036 0.012c1.243-0.495 2.22-1.438 2.747-2.624l0.013-0.032c0.54 1.22 1.516 2.164 2.727 2.648l0.034 0.012c0.536 0.217 1.157 0.343 1.808 0.343 0.001 0 0.001 0 0.002 0h-0c1.234-0.017 2.369-0.432 3.284-1.122l-0.014 0.010zM12.997 23.143c-0.466 0.188-1.005 0.297-1.571 0.297-0.223 0-0.442-0.017-0.656-0.050l0.024 0.003c0.845-0.175 1.571-0.599 2.119-1.19l0.002-0.003c0.642-0.711 1.035-1.657 1.035-2.695 0-2.224-1.803-4.027-4.027-4.027-0.297 0-0.586 0.032-0.865 0.093l0.027-0.005c-0.82 0.19-1.521 0.613-2.052 1.194l-0.003 0.003c0.296-0.681 0.736-1.25 1.285-1.69l0.009-0.007c0.765-0.611 1.747-0.981 2.815-0.981 0.508 0 0.997 0.084 1.453 0.238l-0.032-0.009 0.327-0.566c-0.945-0.833-1.537-2.046-1.537-3.397 0-0.222 0.016-0.44 0.047-0.654l-0.003 0.024c0.109-0.728 0.391-1.376 0.802-1.92l-0.008 0.011c-0.124 0.367-0.195 0.79-0.195 1.229 0 0.419 0.065 0.823 0.185 1.202l-0.008-0.028c0.493 1.623 1.976 2.785 3.731 2.785 0.032 0 0.063-0 0.095-0.001l-0.005 0h0.016c0.027 0.001 0.059 0.001 0.091 0.001 1.755 0 3.239-1.161 3.725-2.757l0.007-0.028c0.113-0.351 0.178-0.755 0.178-1.174 0-0.439-0.071-0.862-0.203-1.257l0.008 0.028c0.404 0.533 0.685 1.181 0.791 1.886l0.003 0.023c0.028 0.189 0.044 0.408 0.044 0.63 0 1.351-0.593 2.564-1.532 3.393l-0.005 0.004 0.327 0.566c0.424-0.145 0.912-0.229 1.419-0.229 1.066 0 2.045 0.369 2.817 0.986l-0.009-0.007c0.56 0.448 1.002 1.020 1.287 1.677l0.011 0.028c-0.534-0.585-1.236-1.009-2.030-1.194l-0.027-0.005c-0.252-0.056-0.541-0.088-0.838-0.088-2.224 0-4.027 1.803-4.027 4.027 0 1.038 0.393 1.984 1.038 2.698l-0.003-0.003c0.55 0.593 1.275 1.017 2.093 1.188l0.026 0.005c-0.188 0.029-0.406 0.046-0.627 0.046-0.564 0-1.102-0.109-1.595-0.307l0.029 0.010c-1.371-0.548-2.382-1.736-2.673-3.184l-0.005-0.028h-0.653c-0.296 1.475-1.306 2.661-2.647 3.198l-0.029 0.010zM17.35 15.995c-0-0.746-0.605-1.35-1.35-1.35s-1.35 0.605-1.35 1.35 0.605 1.35 1.35 1.35c0 0 0 0 0 0v0c0.746-0.001 1.35-0.605 1.35-1.351v-0zM16.683 15.995c-0 0.377-0.306 0.683-0.684 0.683s-0.684-0.306-0.684-0.684 0.306-0.684 0.684-0.684c0 0 0 0 0 0v0c0.377 0 0.683 0.306 0.684 0.684v0zM16 29.327c-7.364 0-13.333-5.97-13.333-13.333s5.97-13.333 13.333-13.333c7.364 0 13.333 5.97 13.333 13.333v0c-0.008 7.36-5.973 13.325-13.333 13.333h-0.001zM16 3.327c-6.996 0-12.667 5.671-12.667 12.667s5.671 12.667 12.667 12.667c6.996 0 12.667-5.671 12.667-12.667v0c-0.008-6.992-5.674-12.658-12.666-12.667h-0.001z"/>
</svg>
