<svg version="1.1" xmlns="http://www.w3.org/2000/svg" width="32" height="32" viewBox="0 0 32 32">
    <path fill="currentColor" d="M20.333 6.667h-8.667c-0.919 0-1.667 0.748-1.667 1.667v8c0 0.919 0.748 1.667 1.667 1.667h8.667c0.919 0 1.667-0.748 1.667-1.667v-8c0-0.919-0.748-1.667-1.667-1.667zM21.333 16.333c0 0.551-0.449 1-1 1h-8.667c-0.551 0-1-0.449-1-1v-8c0-0.551 0.449-1 1-1h8.667c0.551 0 1 0.449 1 1v8zM16.471 26.195c0.26 0.26 0.26 0.682 0 0.943s-0.682 0.26-0.943 0c-0.26-0.26-0.26-0.682 0-0.943s0.682-0.26 0.943 0zM16 8.704l-1.964 3.144c-0.341 0.667-0.322 1.536 0.050 2.27 0.333 0.658 0.892 1.094 1.526 1.196 0.127 0.023 0.253 0.032 0.388 0.032 0.133 0 0.258-0.008 0.384-0.032 0.64-0.104 1.197-0.541 1.53-1.197 0.372-0.734 0.391-1.604 0.036-2.295l-1.949-3.119zM17.319 13.817c-0.236 0.465-0.617 0.771-1.045 0.84l-0.008 0.001c-0.174 0.033-0.35 0.034-0.54-0.001-0.428-0.069-0.809-0.375-1.045-0.84-0.277-0.547-0.297-1.185-0.065-1.64l1.384-2.215 1.37 2.19c0.246 0.48 0.226 1.118-0.051 1.665zM22.667 2.667h-13.333c-2.022 0-3.667 1.645-3.667 3.667v14.667c0 2.022 1.645 3.667 3.667 3.667h3.67v4.262l0.255 0.062c0.074 0.018 1.257 0.297 2.833 0.297 0.813 0 1.73-0.074 2.653-0.297l0.255-0.062v-4.262h3.667c2.022 0 3.667-1.645 3.667-3.667v-14.667c0-2.022-1.645-3.667-3.667-3.667zM13.67 28.395v-7.904c0.774 0.051 1.521 0.074 2.209 0.074 0.942 0 1.779-0.037 2.455-0.083v7.918c-2.001 0.421-3.976 0.125-4.664-0.005zM25.667 21c0 1.654-1.346 3-3 3h-3.667v-3.569c0.668-0.059 1.065-0.115 1.077-0.117l-0.096-0.66c-0.038 0.006-3.874 0.549-8.069-0.001l-0.087 0.661c0.397 0.052 0.789 0.093 1.177 0.127v3.558h-3.67c-1.654 0-3-1.346-3-3v-14.667c0-1.654 1.346-3 3-3h13.333c1.654 0 3 1.346 3 3v14.667z"/>
</svg>
