<svg version="1.1" xmlns="http://www.w3.org/2000/svg" width="32" height="32" viewBox="0 0 32 32">
    <path fill="currentColor" d="M29.147 12.7c-1.249-0.595-2.258-1.522-2.936-2.669l-0.017-0.031h1.14v-0.667h-0.779c0.072-0.187 0.113-0.403 0.113-0.629 0-0.013-0-0.026-0-0.039l0 0.002h-0.667c0 0.613-0.286 0.663-0.333 0.667h-2.152c-0.579-0.781-1.483-1.292-2.508-1.333l-0.006-0h-0.26l-0.063 0.253c-0.082 0.255-0.13 0.548-0.13 0.852 0 0.689 0.243 1.321 0.648 1.815l-0.004-0.005c-3.073 1.972-7.725 1.505-11.158 1.172-0.66-0.118-1.42-0.185-2.196-0.185-0.525 0-1.044 0.031-1.553 0.091l0.062-0.006-0.007 0.002c-0.287-0.136-0.624-0.215-0.979-0.215-0.451 0-0.873 0.128-1.23 0.35l0.010-0.006c-1.457 0.987-1.474 3.765-1.474 3.882h0.667c0-0.025 0.017-2.543 1.182-3.331 0.213-0.139 0.473-0.222 0.753-0.222 0.054 0 0.107 0.003 0.16 0.009l-0.006-0.001c-1.796 1.4-2.089 5.009-2.089 7.211 0 3.34 1.293 7.9 1.347 8.093l0.067 0.24h5.253v-0.333c0.001-0.017 0.001-0.037 0.001-0.058 0-0.84-0.645-1.529-1.466-1.6l-0.006-0c-0.442-0.819-0.702-1.794-0.702-2.828 0-0.444 0.048-0.877 0.139-1.294l-0.007 0.040c0.65-0.086 1.233-0.315 1.736-0.655l-0.014 0.009c0.765-0.159 1.644-0.251 2.545-0.251 0.864 0 1.708 0.084 2.525 0.244l-0.083-0.014c-0 0.010-0 0.022-0 0.034 0 2.359 0.503 4.6 1.408 6.623l-0.041-0.103 0.093 0.187h5.207v-0.333c0.001-0.017 0.001-0.037 0.001-0.057 0-0.831-0.632-1.514-1.441-1.596l-0.007-0.001c-0.45-0.991-0.712-2.15-0.712-3.37 0-0.496 0.043-0.982 0.126-1.454l-0.007 0.050c2.167-0.28 3.48-1.167 3.98-2.7 0.587-2.273 1.34-2.8 1.48-2.88 0.649 0.283 1.405 0.448 2.2 0.448 0.040 0 0.080-0 0.119-0.001l-0.006 0c0.015 0 0.032 0 0.050 0 0.453 0 0.897-0.041 1.328-0.12l-0.045 0.007 0.1-0.020 0.067-0.073c0.080-0.073 0.767-0.82 0.767-2.9v-0.207zM8.056 26.518l0.099 0.148h0.178c0.025-0.002 0.053-0.004 0.082-0.004 0.415 0 0.763 0.282 0.865 0.664l0.001 0.006h-1.309c-0.117-0.698-0.679-1.235-1.38-1.313l-0.007-0.001c-0.387-1.527 0.367-3.433 0.627-4.020h0.033l0.010-0.001c-0.070 0.359-0.11 0.773-0.11 1.196 0 1.226 0.338 2.373 0.926 3.353l-0.016-0.030zM19.367 26.48l0.093 0.187h0.207c0.024-0.002 0.052-0.004 0.080-0.004 0.414 0 0.763 0.282 0.865 0.664l0.001 0.006h-1.307c-0.117-0.698-0.679-1.235-1.38-1.313l-0.007-0.001c-0.433-1.58-0.107-3.907 0.027-4.687 0.22-0.007 0.433-0.013 0.64-0.027-0.057 0.385-0.090 0.829-0.090 1.281 0 1.414 0.321 2.753 0.894 3.947l-0.024-0.055zM28.153 15.36c-0.573 0.087-3.060 0.373-4.153-1.133v-0.227h-0.667v0.433l0.053 0.087c0.204 0.308 0.454 0.567 0.744 0.774l0.009 0.006c-0.407 0.36-1.027 1.193-1.507 3.053-0.513 1.553-2.133 2.313-4.967 2.313h-0.273l-0.053 0.267c-0.027 0.14-0.673 3.447 0.013 5.507l0.073 0.227h0.24c0.010-0 0.022-0.001 0.034-0.001 0.429 0 0.793 0.276 0.924 0.66l0.002 0.007h-2.080c-0.768-1.839-1.214-3.976-1.214-6.218 0-0.041 0-0.081 0-0.122l-0 0.006v-0.24l-0.227-0.073c-0.832-0.217-1.786-0.341-2.77-0.341-0.646 0-1.28 0.054-1.897 0.157l0.067-0.009c0.541-0.811 0.863-1.807 0.863-2.879 0-0.216-0.013-0.43-0.039-0.639l0.002 0.025v-0.333h-0.667v0.38c0.022 0.169 0.035 0.364 0.035 0.562 0 0.993-0.321 1.912-0.864 2.658l0.009-0.013c-0.159 0.19-0.344 0.351-0.55 0.481l-0.010 0.006c-0.602 0.375-1.332 0.597-2.114 0.597-0.061 0-0.121-0.001-0.181-0.004l0.009 0h-0.207l-0.093 0.187c-0.053 0.113-1.387 2.813-0.68 4.92l0.073 0.227h0.24c0.010-0 0.022-0.001 0.034-0.001 0.429 0 0.793 0.276 0.924 0.66l0.002 0.007h-2.040c-0.659-2.258-1.107-4.878-1.25-7.579l-0.004-0.087c0-3.94 0.887-6.5 2.44-7.020 0.58-0.187 1.947-0.053 3.527 0.1 3.586 0.353 8.465 0.84 11.725-1.359 0.347 0.268 0.757 0.475 1.203 0.597l0.024 0.006 0.414 0.010v-0.667h-0.288c-1.043-0.251-1.807-1.176-1.807-2.279 0-0.128 0.010-0.254 0.030-0.376l-0.002 0.013c0.969 0.13 1.755 0.793 2.062 1.68l0.005 0.018v0.278h0.667v-0.333l-0.017-0.105c-0.028-0.083-0.068-0.15-0.1-0.228h1.557c0.708 1.398 1.822 2.503 3.186 3.181l0.041 0.019c0.002 0.052 0.004 0.112 0.004 0.173 0 0.73-0.192 1.415-0.528 2.007l0.011-0.020z"/>
</svg>
