<svg version="1.1" xmlns="http://www.w3.org/2000/svg" width="32" height="32" viewBox="0 0 32 32">
    <path fill="currentColor" d="M27.981 10.889c-0.323-0.916-1.275-1.556-2.314-1.556h-21.667c-0.423 0-0.789 0.144-1.031 0.406-0.228 0.247-0.332 0.577-0.302 0.954 0.191 2.358 0.349 6.95 0.001 9.935-0.044 0.375 0.050 0.705 0.271 0.953 0.241 0.27 0.617 0.419 1.060 0.419h2v-0.333c0-2.004 1.469-2.917 2.833-2.917s2.833 0.913 2.833 2.917v0.333h6.333v-0.333c0-2.004 1.555-2.917 3-2.917 0.793 0 1.529 0.26 2.073 0.731 0.606 0.525 0.927 1.281 0.927 2.186v0.333h5.289l0.041-0.287c0.573-4.048-0.633-8.852-1.349-10.824zM6 15.333c-0.187 0-0.333-0.146-0.333-0.333v-2.667c0-0.187 0.146-0.333 0.333-0.333h4.667v3.333h-4.667zM11.333 12h5.333v3.333h-5.333v-3.333zM17.333 12h5.333v3.576c-0.614-0.157-1.278-0.243-2-0.243h-3.333v-3.333zM23.333 12h4.313c0.448 1.473 0.955 3.692 1.115 6.010-1.137-0.033-2.429-0.224-2.894-0.61l-1.345-1.008c-0.359-0.246-0.764-0.434-1.188-0.594v-3.797zM28.707 21.333h-4.053c-0.166-2.135-1.92-3.25-3.654-3.25s-3.488 1.115-3.654 3.25h-5.025c-0.158-2.135-1.833-3.25-3.488-3.25s-3.33 1.115-3.488 3.25h-1.345c-0.25 0-0.45-0.069-0.562-0.195-0.092-0.104-0.128-0.249-0.107-0.433 0.354-3.032 0.194-7.681 0.001-10.066-0.015-0.189 0.027-0.34 0.127-0.448 0.114-0.124 0.306-0.192 0.541-0.192h21.667c0.75 0 1.459 0.467 1.687 1.114 0.024 0.067 0.051 0.145 0.076 0.219h-21.43c-0.551 0-1 0.449-1 1v2.667c0 0.551 0.449 1 1 1h14.667c1.395 0 2.565 0.317 3.467 0.933l1.32 0.99c0.741 0.616 2.539 0.734 3.343 0.755 0.034 0.892 0.014 1.79-0.089 2.655zM21 19.667h-0c-0.969 0-1.967 0.684-2 2.008 0.033 1.308 1.031 1.992 2 1.992h0c0.969 0 1.967-0.684 2-1.992v-0.017c-0.033-1.308-1.031-1.992-2-1.992zM21 23c-0.647 0-1.31-0.415-1.333-1.325 0.023-0.927 0.687-1.342 1.333-1.342 0.645 0 1.306 0.412 1.333 1.333-0.027 0.921-0.688 1.333-1.333 1.333zM8.667 19.667h-0c-0.969 0-1.967 0.684-2 2.008 0.033 1.308 1.031 1.992 2 1.992h0c0.969 0 1.967-0.684 2-1.992v-0.017c-0.033-1.308-1.031-1.992-2-1.992zM8.667 23c-0.647 0-1.31-0.415-1.333-1.325 0.023-0.927 0.687-1.342 1.333-1.342 0.645 0 1.306 0.412 1.333 1.333-0.027 0.921-0.688 1.333-1.333 1.333z"/>
</svg>
