<svg version="1.1" xmlns="http://www.w3.org/2000/svg" width="32" height="32" viewBox="0 0 32 32">
    <path fill="currentColor" d="M29.333 9.662l-0.003-0.222-0.207-0.083c-0.909-0.364-3.381-1.419-3.888-1.926-0.413-0.413-0.568-1.711-0.569-2.431l-0.001-0.933-0.59 0.722c-2.394 2.925-6.293 7.447-7.26 7.933-1.901 1.268-9.808 1.944-11.148 1.944-0.255 0-1.076-0.882-1.723-1.852l-0.446-0.669-0.158 0.789c-0.007 0.034-0.623 3.322 1.869 4.848-0.23 1.424-0.865 2.671-1.781 3.652l0.004-0.004-0.063 0.087c-0.694 1.388-0.702 5.955-0.702 6.149v0.333h5.539l-0.241-0.482c-0.497-1.040-0.787-2.261-0.787-3.55 0-0.546 0.052-1.080 0.152-1.597l-0.008 0.053c0.995-0.995 1.255-1.47 1.32-1.972 1.388 0.284 2.983 0.446 4.616 0.446 1.682 0 3.324-0.172 4.909-0.5l-0.156 0.027c0.505 2.81 1.203 5.281 2.108 7.65l-0.097-0.288 0.082 0.213 2.011 0.004s1.603-0.027 2.206-0.004l0.447 0.017-0.111-0.433c-0.042-0.16-0.128-0.478-0.242-0.9-0.487-1.794-1.627-5.995-1.73-7.126-0.104-1.143 0.643-3.748 1.902-6.677 0.873 0.206 1.916 0.367 2.981 0.448l0.071 0.004 0.107 0.009 0.092-0.055c1.516-0.913 1.496-3.514 1.495-3.624zM7.158 27.333h-1.277c-0.197-0.451-0.311-0.977-0.311-1.529 0-0.978 0.359-1.872 0.952-2.557l-0.004 0.005c-0.014 0.191-0.022 0.413-0.022 0.637 0 1.241 0.244 2.424 0.685 3.506l-0.022-0.062zM18.665 20.294q0.447-0.097 0.907-0.213c0.571 2.764 1.351 5.19 2.354 7.496l-0.094-0.243h-1.267c-0.763-1.988-1.422-4.352-1.863-6.792l-0.037-0.247zM27.581 12.658c-2.141-0.189-4.112-0.653-4.248-0.992v-1h-0.667v1c0 0.445 0.527 0.778 1.271 1.027-0.637 1.494-2.081 5.118-1.917 6.923 0.108 1.189 1.217 5.277 1.751 7.241 0.047 0.175 0.090 0.332 0.127 0.467-0.469-0.003-1.036 0.002-1.345 0.006-0.999-2.212-1.824-4.795-2.348-7.485l-0.037-0.226-0.055-0.369-0.361 0.096c-7.302 1.947-12.584 0.028-12.636 0.009l-0.234 0.624c0.284 0.106 0.653 0.218 1.030 0.31l0.075 0.015c-0.042 0.425-0.265 0.821-1.485 1.989-0.984 0.852-1.602 2.104-1.602 3.5 0 0.552 0.097 1.082 0.274 1.572l-0.010-0.032h-1.828c0.017-1.451 0.147-4.467 0.607-5.472 1.235-1.377 2.006-3.191 2.057-5.184l0-0.010h-0.667c0 0.006-0.003 0.153-0.024 0.388-0.853-0.698-1.394-1.751-1.394-2.93 0-0.070 0.002-0.139 0.006-0.208l-0 0.010c0.515 0.665 1.21 1.407 1.746 1.407 1.156 0 9.362-0.618 11.482-2.035 1.163-0.581 5.338-5.543 6.902-7.431 0.030 0.769 0.293 1.472 0.72 2.045l-0.007-0.010c0.617 0.616 3.1 1.661 3.896 1.987-0.027 0.577-0.185 2.142-1.079 2.769z"/>
</svg>
