<svg version="1.1" xmlns="http://www.w3.org/2000/svg" width="32" height="32" viewBox="0 0 32 32">
    <path fill="currentColor" d="M29.333 17.318c-0.059-1.296-0.899-2.283-2.273-2.646l-3.641-0.661c-0.185-0.049-0.413-0.235-0.614-0.399-0.096-0.078-0.189-0.153-0.277-0.217-7.264-5.199-13.92-1.408-16.108-0.161l-0.249 0.141c-0.674 0.379-1.526 0.624-2.17 0.624h-0.333c-0.316 0-0.637 0.032-0.84 0.265-0.2 0.228-0.189 0.536-0.157 0.779 0.12 0.906 0.192 2.475 0 3.912-0.029 0.216-0.091 0.958 0.311 1.41 0.175 0.197 0.408 0.3 0.67 0.3h2.016v-0.333c0-1.823 1.047-3 2.667-3s2.667 1.177 2.667 3v0.333h7.333v-0.333c0-1.823 1.047-3 2.667-3s2.667 1.177 2.667 3v0.333h4.667c0.884 0 0.964-0.914 0.999-1.304 0.027-0.308 0.027-1.473 0.001-2.044zM21.741 13.667h-8.072v-2.254c2.388-0.191 5.156 0.294 8.072 2.254zM7.008 13.667c1.246-0.704 3.359-1.828 5.994-2.182v2.182h-5.994zM28.668 19.304c-0.061 0.696-0.194 0.696-0.335 0.696h-4.010c-0.13-2.008-1.432-3.333-3.323-3.333s-3.193 1.326-3.323 3.333h-6.021c-0.13-2.008-1.432-3.333-3.323-3.333s-3.193 1.326-3.323 3.333h-1.349c-0.083-0.002-0.134-0.022-0.183-0.077-0.136-0.152-0.197-0.514-0.148-0.879 0.2-1.501 0.131-3.096 0-4.088-0.025-0.192-0.003-0.249-0.007-0.249 0.012-0.008 0.076-0.041 0.342-0.041h0.333c0.503 0 1.088-0.127 1.653-0.333h16.992c0.188 0.139 0.393 0.266 0.628 0.328l3.641 0.661c1.068 0.283 1.706 1.022 1.753 2.026 0.026 0.567 0.023 1.701 0.001 1.955zM21 18c-1.103 0-2 0.897-2 2s0.897 2 2 2 2-0.897 2-2-0.897-2-2-2zM21 21.333c-0.735 0-1.333-0.598-1.333-1.333s0.598-1.333 1.333-1.333 1.333 0.598 1.333 1.333-0.598 1.333-1.333 1.333zM8.333 18c-1.103 0-2 0.897-2 2s0.897 2 2 2 2-0.897 2-2-0.897-2-2-2zM8.333 21.333c-0.735 0-1.333-0.598-1.333-1.333s0.598-1.333 1.333-1.333 1.333 0.598 1.333 1.333-0.598 1.333-1.333 1.333z"/>
</svg>
