<svg version="1.1" xmlns="http://www.w3.org/2000/svg" width="32" height="32" viewBox="0 0 32 32">
    <path fill="currentColor" d="M2.667 5.565v-2.91h0.667v2.91c0 4.917 3.807 8.768 8.667 8.768h2.667c1.542 0 3 1.458 3 3 0 1.396 0.938 2.333 2.333 2.333h2.333c1.603 0 2.333 1.555 2.333 3h-0.667c0-1.161-0.515-2.333-1.667-2.333h-2.333c-1.766 0-3-1.234-3-3 0-1.178-1.156-2.333-2.333-2.333h-2.667c-5.234 0-9.333-4.144-9.333-9.435zM19.667 11h1c1.286 0 2.333 1.047 2.333 2.333 0 1.654 1.346 3 3 3 1.572 0 2.667 1.581 2.667 3v3.333h0.667v-3.333c0-1.953-1.558-3.667-3.333-3.667-1.286 0-2.333-1.047-2.333-2.333 0-1.654-1.346-3-3-3h-1c-3.178 0-5.667-2.343-5.667-5.333v-2.333h-0.667v2.333c0 3.365 2.782 6 6.333 6zM25.586 24.758c0.007 0.022 0.633 2.268 0 4.484l0.641 0.183c0.685-2.397 0.028-4.751 0-4.85l-0.641 0.183zM27.059 24.758c0.007 0.022 0.633 2.268 0 4.484l0.641 0.183c0.685-2.397 0.028-4.751 0-4.85l-0.641 0.183zM29.174 24.575l-0.641 0.183c0.007 0.022 0.633 2.268 0 4.484l0.641 0.183c0.685-2.397 0.028-4.751 0-4.85zM24.658 24.59c0.024 0.102 0.576 2.511-0.001 4.824l-0.063 0.253h-22.036l0.121-0.425c0.633-2.216 0.007-4.461 0-4.484l-0.121-0.425h22.040l0.060 0.257zM3.428 29h5.312c0.42-1.711 0.133-3.39-0.002-4h-5.317c0.001 0.004 0.002 0.009 0.002 0.013 0.017 0.083 0.035 0.176 0.052 0.279 0.004 0.023 0.008 0.048 0.012 0.073 0.014 0.085 0.028 0.176 0.041 0.273 0.005 0.035 0.009 0.068 0.014 0.104 0.016 0.127 0.032 0.26 0.045 0.402 0.001 0.008 0.001 0.017 0.002 0.026 0.012 0.133 0.021 0.273 0.028 0.417 0.002 0.044 0.004 0.087 0.005 0.132 0.005 0.129 0.007 0.262 0.006 0.398-0 0.034 0.001 0.067 0 0.101-0.002 0.167-0.009 0.339-0.021 0.515-0.003 0.040-0.007 0.080-0.010 0.12-0.012 0.143-0.027 0.289-0.047 0.436-0.006 0.048-0.012 0.095-0.019 0.144-0.028 0.186-0.060 0.373-0.102 0.561-0.001 0.003-0.001 0.005-0.001 0.008zM24.060 25h-14.639c0.152 0.735 0.382 2.322 0.007 4h14.64c0.35-1.658 0.107-3.366-0.008-4z"/>
</svg>
