<svg version="1.1" xmlns="http://www.w3.org/2000/svg" width="32" height="32" viewBox="0 0 32 32">
    <path fill="currentColor" d="M27 20h-0.667c0 1.309-1.025 2.333-2.333 2.333v0.667c1.308 0 2.333 1.025 2.333 2.333h0.667c0-1.309 1.025-2.333 2.333-2.333v-0.667c-1.308 0-2.333-1.025-2.333-2.333zM26.667 23.937c-0.281-0.546-0.725-0.989-1.271-1.27 0.546-0.281 0.99-0.725 1.271-1.27 0.281 0.546 0.725 0.989 1.271 1.27-0.546 0.281-0.99 0.725-1.271 1.27zM18.667 19.918l0.242 0.069c0.804 0.23 1.615 0.345 2.425 0.345s1.62-0.115 2.425-0.345l0.242-0.069v-6.921c-0.028-2.849-2.464-4.997-5.667-4.997h-3v-1.667h-2.667v-0.667c0-0.57 0.43-1 1-1h1.333c0.607 0 1-0.393 1-1s-0.393-1-1-1h-6.667c-0.607 0-1 0.393-1 1s0.393 1 1 1h1.333c0.57 0 1 0.43 1 1v0.667h-2.667v1.667h-5.333v5.333h5.333v1.667h7.333v-1.667h1.333c1.009 0 2 1.179 2 2.381v4.204zM8 12.667h-4.667v-4h4.667v4zM19.333 19.411v-2.119c0.665 0.156 1.332 0.238 2 0.238s1.335-0.082 2-0.238v2.119c-1.328 0.339-2.672 0.339-4 0zM9.667 4h-1.333c-0.243 0-0.333-0.090-0.333-0.333s0.090-0.333 0.333-0.333h6.667c0.243 0 0.333 0.090 0.333 0.333s-0.090 0.333-0.333 0.333h-1.333c-0.935 0-1.667 0.732-1.667 1.667v0.667h-0.667v-0.667c0-0.935-0.732-1.667-1.667-1.667zM14.667 14.333h-6v-7.333h6v7.333zM16.667 12.667h-1.333v-4h3c2.826 0 4.976 1.864 5 4.333v3.606c-1.329 0.338-2.671 0.338-4 0v-0.892c0-1.595-1.271-3.048-2.667-3.048zM21.333 21.533l-0.234 0.23c-2.595 2.553-2.44 4.836-2.433 4.904 0 1.595 1.379 2.667 2.667 2.667 1.285 0 2.66-1.066 2.667-2.655 0.014-0.225 0.080-2.443-2.433-4.916l-0.234-0.23zM23.334 26.641l-0.001 0.025c0 1.178-1.054 2-2 2s-2-0.822-2.001-2.027c-0.002-0.020-0.131-1.928 2.001-4.164 2.114 2.22 2.002 4.146 2.001 4.166z"/>
</svg>
