<svg version="1.1" xmlns="http://www.w3.org/2000/svg" width="32" height="32" viewBox="0 0 32 32">
    <path fill="currentColor" d="M6.979 15.885l-0.626 0.23c-1.589-4.317-0.099-9.22 3.622-11.922 1.026-0.745 1.929-1.211 2.927-1.512l0.193 0.638c-0.937 0.283-1.753 0.705-2.728 1.414-3.481 2.528-4.875 7.114-3.389 11.152zM22.034 4.193c-1.026-0.745-1.929-1.211-2.927-1.512l-0.193 0.638c0.937 0.283 1.753 0.705 2.728 1.414 3.481 2.528 4.875 7.114 3.389 11.152l0.626 0.23c1.589-4.317 0.099-9.22-3.622-11.922zM17.047 15.027l0.485 6.928c0.34-0.055 0.682-0.126 1.073-0.237 0.639-0.18 1.262-0.428 1.855-0.739 1.187-0.622 2.026-1.217 2.641-1.874l0.486 0.456c-0.668 0.713-1.563 1.351-2.818 2.008-0.633 0.332-1.3 0.598-1.983 0.79-0.439 0.124-0.823 0.202-1.208 0.262l0.436 6.236-0.19 0.102c-0.661 0.355-1.286 0.475-1.827 0.475-1.061 0-1.798-0.458-1.843-0.487l-0.167-0.107 0.435-6.221c-0.382-0.060-0.762-0.137-1.198-0.26-0.682-0.192-1.35-0.458-1.983-0.791-1.255-0.657-2.15-1.295-2.818-2.008l0.486-0.456c0.615 0.657 1.454 1.252 2.641 1.873 0.593 0.311 1.216 0.56 1.855 0.74 0.387 0.11 0.726 0.18 1.063 0.235l0.485-6.926-3.923 2.746c-0.529 0.371-1.024 0.551-1.55 0.551-0.307 0-0.624-0.061-0.964-0.182l-1.504-0.81 6.834-4.785c0.036-0.64 0.348-1.202 0.821-1.576v-8.345l1.482 0.741c0.843 0.596 1.184 1.275 1.184 2.298v5.305c0.474 0.374 0.786 0.936 0.821 1.576l6.834 4.785-1.457 0.789c-0.367 0.132-0.702 0.198-1.022 0.198-0.529 0-1.018-0.18-1.539-0.546l-3.923-2.746zM17.299 14.39l4.053 2.838c0.658 0.46 1.194 0.54 1.909 0.287l0.464-0.254-5.662-3.964c-0.135 0.441-0.403 0.821-0.763 1.093zM15.333 10.616c0.211-0.069 0.433-0.116 0.667-0.116s0.455 0.047 0.667 0.116v-4.949c0-0.803-0.241-1.288-0.86-1.729l-0.473-0.234v6.912zM14.5 12.667c0 0.827 0.673 1.5 1.5 1.5s1.5-0.673 1.5-1.5-0.673-1.5-1.5-1.5-1.5 0.673-1.5 1.5zM14.701 14.39c-0.36-0.272-0.628-0.652-0.763-1.093l-5.66 3.963 0.509 0.276c0.669 0.233 1.204 0.152 1.862-0.308l4.053-2.838zM17.319 28.468l-0.957-13.671c-0.118 0.020-0.238 0.037-0.362 0.037s-0.244-0.016-0.362-0.037l-0.957 13.679c0.394 0.189 1.425 0.555 2.638-0.007z"/>
</svg>
