<svg version="1.1" xmlns="http://www.w3.org/2000/svg" width="32" height="32" viewBox="0 0 32 32">
    <path fill="currentColor" d="M25.54 18.54c-0.060 0.62-0.12 1.227-0.187 1.82h0.667c0.080-0.713 0.153-1.44 0.22-2.193-0.227 0.127-0.46 0.247-0.7 0.367z"/>
    <path fill="currentColor" d="M25.56 9.020c0.273 0.153 0.44 0.44 0.44 0.74-0.027 2.107-0.12 4.267-0.267 6.367 0.253-0.16 0.487-0.333 0.7-0.507 0.127-1.933 0.207-3.92 0.227-5.853 0.007-0.553-0.293-1.060-0.78-1.333-0.767-0.433-1.633-0.8-2.573-1.113v0.707c0.827 0.287 1.58 0.62 2.253 0.993z"/>
    <path fill="currentColor" d="M18.013 7.607c0-0.167 0.060-0.313 0.18-0.427 0.127-0.113 0.293-0.173 0.46-0.153 1.413 0.147 2.76 0.42 3.993 0.793v-0.707c-1.207-0.353-2.527-0.607-3.92-0.753-0.36-0.033-0.713 0.080-0.98 0.327-0.26 0.24-0.407 0.587-0.4 0.94 0.073 3.46 0.38 6.827 0.933 10.287h0.673c-0.56-3.467-0.867-6.833-0.94-10.3z"/>
    <path fill="currentColor" d="M16 15.48c0.080 0.807 0.18 1.62 0.28 2.427h0.673c-0.26-2.087-0.46-4.14-0.613-6.267h-0.667c-0.153 2.12-0.36 4.173-0.613 6.267h0.673c0.1-0.813 0.193-1.62 0.28-2.427z"/>
    <path fill="currentColor" d="M3.733 16.693c-0.233-0.227-0.44-0.46-0.627-0.693-0.1 1.993-0.24 3.987-0.427 5.94h0.667c0.167-1.727 0.287-3.48 0.387-5.24z"/>
    <path fill="currentColor" d="M6.647 20.36c-0.067-0.593-0.133-1.2-0.187-1.82-0.24-0.12-0.48-0.24-0.7-0.367 0.067 0.747 0.14 1.48 0.22 2.193h0.667z"/>
    <path fill="currentColor" d="M6 9.76c0-0.3 0.167-0.587 0.44-0.74 0.667-0.373 1.427-0.707 2.253-0.993v-0.707c-0.94 0.313-1.807 0.68-2.573 1.113-0.493 0.273-0.787 0.787-0.78 1.333 0.027 1.933 0.107 3.913 0.227 5.853 0.213 0.173 0.447 0.34 0.7 0.507-0.147-2.1-0.24-4.26-0.267-6.367z"/>
    <path fill="currentColor" d="M13.347 7.027c0.167-0.020 0.333 0.040 0.46 0.153 0.12 0.113 0.187 0.267 0.18 0.427-0.073 3.467-0.387 6.833-0.94 10.3h0.673c0.553-3.46 0.86-6.827 0.933-10.287 0.007-0.353-0.14-0.693-0.4-0.94-0.267-0.247-0.62-0.367-0.98-0.327-1.393 0.147-2.713 0.4-3.92 0.753v0.707c1.227-0.373 2.58-0.647 3.993-0.793z"/>
    <path fill="currentColor" d="M16 6.080c0.933 0 1.687-0.767 1.687-1.707s-0.76-1.707-1.687-1.707-1.687 0.767-1.687 1.707 0.76 1.707 1.687 1.707zM16 3.34c0.567 0 1.027 0.467 1.027 1.033s-0.46 1.033-1.027 1.033-1.027-0.467-1.027-1.033 0.46-1.033 1.027-1.033z"/>
    <path fill="currentColor" d="M4.373 9.013c0.933 0 1.687-0.767 1.687-1.707s-0.76-1.707-1.687-1.707-1.687 0.767-1.687 1.707 0.76 1.707 1.687 1.707zM4.373 6.273c0.567 0 1.027 0.467 1.027 1.033s-0.46 1.033-1.027 1.033-1.027-0.467-1.027-1.033 0.46-1.033 1.027-1.033z"/>
    <path fill="currentColor" d="M10.507 15.073c-0.933 0-1.687 0.767-1.687 1.707s0.76 1.707 1.687 1.707 1.687-0.767 1.687-1.707-0.76-1.707-1.687-1.707zM10.507 17.813c-0.567 0-1.027-0.467-1.027-1.033s0.46-1.033 1.027-1.033 1.027 0.467 1.027 1.033-0.46 1.033-1.027 1.033z"/>
    <path fill="currentColor" d="M8.687 18.82c0.007-0.467-0.28-0.9-0.72-1.073-1.053-0.42-1.947-0.92-2.66-1.46v0.82c0.687 0.467 1.493 0.893 2.413 1.267 0.18 0.073 0.3 0.247 0.3 0.433-0.073 3.46-0.42 7-1.013 10.533h0.673c0.587-3.527 0.933-7.060 1.007-10.513z"/>
    <path fill="currentColor" d="M4.64 16.607v-0.893c-0.853-0.833-1.313-1.747-1.313-2.693 0-0.547 0.153-1.093 0.46-1.62l-0.573-0.34s0 0 0 0c-0.367 0.633-0.547 1.287-0.547 1.96 0 1.293 0.7 2.527 1.973 3.587z"/>
    <path fill="currentColor" d="M9.647 24.66c-0.16 1.593-0.373 3.16-0.627 4.673h0.673c0.1-0.6 0.193-1.193 0.28-1.807 0.080 0.6 0.187 1.2 0.287 1.807h0.673c-0.267-1.56-0.473-3.1-0.627-4.667h-0.66z"/>
    <path fill="currentColor" d="M12.307 18.887c-0.247-0.040-0.487 0.040-0.667 0.2s-0.287 0.393-0.28 0.64c0.060 3.22 0.367 6.367 0.927 9.613h0.673c-0.567-3.253-0.873-6.407-0.933-9.627 0-0.067 0.033-0.107 0.053-0.12 0.020-0.020 0.067-0.047 0.133-0.040 1.12 0.167 2.28 0.247 3.46 0.267v-0.673c-1.14-0.013-2.273-0.093-3.36-0.253z"/>
    <path fill="currentColor" d="M28.653 21.933h0.667c-0.187-1.953-0.327-3.947-0.427-5.94-0.187 0.24-0.393 0.467-0.627 0.693 0.1 1.76 0.22 3.513 0.387 5.24z"/>
    <path fill="currentColor" d="M27.627 9.013c0.933 0 1.687-0.767 1.687-1.707s-0.76-1.707-1.687-1.707-1.687 0.767-1.687 1.707 0.76 1.707 1.687 1.707zM27.627 6.273c0.567 0 1.027 0.467 1.027 1.033s-0.46 1.033-1.027 1.033-1.027-0.467-1.027-1.033 0.46-1.033 1.027-1.033z"/>
    <path fill="currentColor" d="M21.493 15.073c-0.933 0-1.687 0.767-1.687 1.707s0.76 1.707 1.687 1.707 1.687-0.767 1.687-1.707-0.76-1.707-1.687-1.707zM21.493 17.813c-0.567 0-1.027-0.467-1.027-1.033s0.46-1.033 1.027-1.033 1.027 0.467 1.027 1.033-0.46 1.033-1.027 1.033z"/>
    <path fill="currentColor" d="M24.28 18.367c0.92-0.373 1.727-0.793 2.413-1.267v-0.82c-0.713 0.54-1.607 1.033-2.66 1.46-0.44 0.173-0.727 0.607-0.72 1.073 0.073 3.453 0.42 6.993 1.007 10.513h0.673c-0.6-3.527-0.94-7.073-1.013-10.527 0-0.187 0.113-0.36 0.3-0.433z"/>
    <path fill="currentColor" d="M28.667 13.020c0 0.947-0.46 1.867-1.313 2.693v0.893c1.28-1.060 1.973-2.293 1.973-3.587 0-0.667-0.187-1.327-0.547-1.96 0 0 0 0 0 0l-0.573 0.34c0.307 0.527 0.46 1.073 0.46 1.62z"/>
    <path fill="currentColor" d="M21.693 24.667c-0.153 1.573-0.36 3.107-0.627 4.667h0.673c0.1-0.607 0.2-1.207 0.287-1.807 0.087 0.613 0.18 1.213 0.28 1.807h0.673c-0.247-1.513-0.46-3.080-0.627-4.673h-0.66z"/>
    <path fill="currentColor" d="M20.64 19.72c0-0.247-0.1-0.48-0.28-0.64s-0.427-0.233-0.667-0.2c-1.087 0.16-2.22 0.24-3.36 0.253v0.673c1.173-0.013 2.34-0.093 3.46-0.267 0.060-0.007 0.113 0.020 0.133 0.040s0.053 0.060 0.053 0.12c-0.060 3.22-0.367 6.373-0.933 9.627h0.673c0.56-3.247 0.867-6.393 0.927-9.613z"/>
</svg>
