<svg version="1.1" xmlns="http://www.w3.org/2000/svg" width="32" height="32" viewBox="0 0 32 32">
    <path fill="currentColor" d="M28.333 6h-24.667c-0.552 0.001-0.999 0.448-1 1v14.667c0.001 0.552 0.448 0.999 1 1h8.297c-0.132 1.089-0.347 2.071-0.646 3.016l0.032-0.116-0.137 0.433h9.561l-0.141-0.436c-0.277-0.834-0.494-1.815-0.611-2.827l-0.007-0.070h8.319c0.552-0.001 0.999-0.448 1-1v-14.667c-0.001-0.552-0.448-0.999-1-1h-0zM3.667 6.667h24.667c0.184 0 0.333 0.149 0.333 0.333v0.333h-25.333v-0.333c0-0.184 0.149-0.333 0.333-0.333h0zM28.667 8v10.667h-25.333v-10.667zM19.867 25.333h-7.755c0.234-0.766 0.417-1.671 0.515-2.602l0.005-0.064h6.714c0.096 0.99 0.28 1.896 0.546 2.765l-0.026-0.098zM28.333 22h-24.667c-0.184-0-0.333-0.149-0.333-0.333v-2.333h25.333v2.333c-0 0.184-0.149 0.333-0.333 0.333h-0zM16.667 20.667c0 0.368-0.298 0.667-0.667 0.667s-0.667-0.298-0.667-0.667c0-0.368 0.298-0.667 0.667-0.667v0c0.368 0 0.667 0.298 0.667 0.667v0zM6.098 14.098l3.333-3.333 0.471 0.471-3.333 3.333zM9.431 12.764l2-2 0.471 0.471-2 2z"/>
</svg>
