<svg version="1.1" xmlns="http://www.w3.org/2000/svg" width="32" height="32" viewBox="0 0 32 32">
    <path fill="currentColor" d="M8.333 15.667h9v0.667h-9v-0.667zM8.333 19.333h9v-0.667h-9v0.667zM8.333 22.333h9v-0.667h-9v0.667zM8.333 25.333h9v-0.667h-9v0.667zM27 23.333h-3.333v3h-3v3h-15.667v-20.667h3.333v-3h3v-3h15.667v20.667zM20 15.667c0-1.234-1.405-2-3.667-2h-1v-1c0-2.056-0.766-3.333-2-3.333h-7.667v19.333h14.333v-13zM16 12.667v0.333h0.333c1.776 0 2.914 0.426 3.577 1.025-0.427-2.458-2.433-4.377-4.931-4.655 0.597 0.613 1.021 1.662 1.021 3.296zM23 6.333h-14v2.333h5.354c3.481 0 6.313 2.841 6.313 6.333v10.667h2.333v-19.333zM26.333 3.333h-14.333v2.333h11.667v17h2.667v-19.333z"/>
</svg>
