<svg version="1.1" xmlns="http://www.w3.org/2000/svg" width="32" height="32" viewBox="0 0 32 32">
    <path fill="currentColor" d="M26.34 7.333c-0.701-0.003-1.638 0.013-2.152 0.023 0.137-1.374 0.294-2.81 0.481-4.315l0.022-0.367-0.369-0.008c-0.474-0.011-1.699-0.038-3.59-0.039h-9.459c-1.891 0.001-3.115 0.028-3.613 0.039l-0.369 0.008 0.046 0.366c0.187 1.505 0.344 2.941 0.481 4.315-0.516-0.010-1.458-0.026-2.152-0.023l-0.403 0.002 0.078 0.395c1.003 5.113 1.324 15.838 1.327 15.946l0.010 0.324h1.357c0.155 0.76 0.828 1.333 1.633 1.333s1.478-0.573 1.633-1.333h3.221c0.366 0.406 0.891 0.667 1.48 0.667s1.113-0.26 1.48-0.667h3.221c0.155 0.76 0.828 1.333 1.633 1.333s1.478-0.573 1.633-1.333h1.362l0.010-0.324c0.003-0.108 0.324-10.832 1.327-15.946l0.078-0.395-0.403-0.002zM8.034 23.333h-0.711c-0.061-1.792-0.395-10.565-1.255-15.334 0.661 0.002 1.411 0.016 1.815 0.025 0.636 6.656 0.727 11.607 0.77 13.98l0.007 0.342c-0.314 0.24-0.545 0.585-0.627 0.986zM9.667 24.667c-0.551 0-1-0.449-1-1s0.449-1 1-1 1 0.449 1 1-0.449 1-1 1zM16 24c-0.735 0-1.333-0.598-1.333-1.333s0.598-1.333 1.333-1.333 1.333 0.598 1.333 1.333-0.598 1.333-1.333 1.333zM20.7 23.333h-2.823c0.075-0.21 0.123-0.432 0.123-0.667 0-1.103-0.897-2-2-2s-2 0.897-2 2c0 0.235 0.048 0.457 0.123 0.667h-2.823c-0.155-0.76-0.828-1.333-1.633-1.333-0.119 0-0.234 0.013-0.345 0.037l-0.001-0.045c-0.053-2.904-0.176-9.653-1.278-18.667 0.609-0.012 1.701-0.030 3.23-0.031h9.459c1.519 0.001 2.606 0.019 3.23 0.031-1.102 9.014-1.225 15.762-1.278 18.667l-0.001 0.046c-0.113-0.024-0.23-0.038-0.35-0.038-0.805 0-1.478 0.573-1.633 1.333zM22.333 24.667c-0.551 0-1-0.449-1-1s0.449-1 1-1 1 0.449 1 1-0.449 1-1 1zM24.682 23.333h-0.715c-0.081-0.4-0.31-0.743-0.622-0.983l0.007-0.346c0.043-2.373 0.134-7.324 0.77-13.98 0.404-0.008 1.154-0.022 1.815-0.025-0.859 4.769-1.193 13.542-1.255 15.334zM11.333 9.333h0.667v1.667h-0.667v-1.667zM11.333 6.333h0.667v1.667h-0.667v-1.667zM11.333 15.333h0.667v1.667h-0.667v-1.667zM11.333 18.333h0.667v1.667h-0.667v-1.667zM11.333 12.333h0.667v1.667h-0.667v-1.667zM15.669 9.333h0.667v1.667h-0.667v-1.667zM15.669 6.333h0.667v1.667h-0.667v-1.667zM15.669 15.333h0.667v1.667h-0.667v-1.667zM15.669 18.333h0.667v1.667h-0.667v-1.667zM15.669 12.333h0.667v1.667h-0.667v-1.667zM20.005 9.333h0.667v1.667h-0.667v-1.667zM20.005 6.333h0.667v1.667h-0.667v-1.667zM20.005 15.333h0.667v1.667h-0.667v-1.667zM20.005 18.333h0.667v1.667h-0.667v-1.667zM20.005 12.333h0.667v1.667h-0.667v-1.667zM22.333 26c-1.186 0-2.17 0.62-2.661 1.571-0.622-1.301-2.053-2.238-3.672-2.238s-3.050 0.936-3.672 2.238c-0.492-0.951-1.475-1.571-2.661-1.571-1.71 0-3 1.29-3 3v0.333h18.667v-0.333c0-1.71-1.29-3-3-3zM7.354 28.667c0.147-1.177 1.074-2 2.313-2s2.165 0.823 2.313 2h-4.625zM12.688 28.667c0.191-1.476 1.63-2.667 3.312-2.667s3.121 1.191 3.312 2.667h-6.624zM20.021 28.667c0.147-1.177 1.074-2 2.313-2s2.165 0.823 2.313 2h-4.625z"/>
</svg>
