<svg version="1.1" xmlns="http://www.w3.org/2000/svg" width="32" height="32" viewBox="0 0 32 32">
    <path fill="currentColor" d="M9.409 12.122l0.516 0.422c-1.188 1.453-2.548 2.83-4.043 4.092l-0.43-0.51c1.464-1.235 2.795-2.582 3.957-4.004zM11.918 12.553l-0.502-0.439c-0.653 0.746-1.314 1.408-1.966 1.966l0.434 0.507c0.676-0.579 1.36-1.263 2.034-2.034zM3.333 19.333h17.333v0.667h-17.333v1.333c0 0.442 0.224 0.667 0.667 0.667h16.667v0.667h-2.601c0.209 1.206 0.499 2.146 0.891 2.835l0.284 0.498h-9.813l0.284-0.498c0.392-0.689 0.682-1.629 0.891-2.835h-6.601c-0.81 0-1.333-0.523-1.333-1.333v-12.667c0-0.81 0.523-1.333 1.333-1.333h21c0.81 0 1.333 0.523 1.333 1.333v2h-0.667v-1.002l-22.333-0.102v9.77zM17.387 22.667h-6.107c-0.179 1.073-0.42 1.96-0.738 2.667h7.583c-0.318-0.707-0.559-1.593-0.738-2.667zM3.333 8.667v0.23l22.333 0.102v-0.332c0-0.442-0.224-0.667-0.667-0.667h-21c-0.442 0-0.667 0.224-0.667 0.667zM13.833 21c0 0.276 0.224 0.5 0.5 0.5s0.5-0.224 0.5-0.5-0.224-0.5-0.5-0.5-0.5 0.224-0.5 0.5zM29.333 13.333v11.667c0 0.551-0.449 1-1 1h-5.333c-0.551 0-1-0.449-1-1v-11.667c0-0.551 0.449-1 1-1h5.333c0.551 0 1 0.449 1 1zM22.667 13.333v1.333h6v-1.333c0-0.184-0.149-0.333-0.333-0.333h-5.333c-0.184 0-0.333 0.149-0.333 0.333zM22.667 15.333v7.333h6v-7.333h-6zM28.667 25v-1.667h-6v1.667c0 0.184 0.149 0.333 0.333 0.333h5.333c0.184 0 0.333-0.149 0.333-0.333zM25.1 14h1c0.184 0 0.333-0.149 0.333-0.333s-0.149-0.333-0.333-0.333h-1c-0.184 0-0.333 0.149-0.333 0.333s0.149 0.333 0.333 0.333zM25.667 23.833c-0.276 0-0.5 0.224-0.5 0.5s0.224 0.5 0.5 0.5 0.5-0.224 0.5-0.5-0.224-0.5-0.5-0.5z"/>
</svg>
