<svg version="1.1" xmlns="http://www.w3.org/2000/svg" width="32" height="32" viewBox="0 0 32 32">
    <path fill="currentColor" d="M27.74 18.073c-2.913-0.64-3.647-2.8-3.74-3.12v-7.62h-0.333c-0.353 0-1.013 0-1.667 0.287v-2.173c0-0.793-0.647-1.447-1.447-1.447h-9.113c-0.8 0-1.447 0.647-1.447 1.447v4.553h-2.333c-0.92 0-1.667 0.747-1.667 1.667 0 0.373 0.133 0.72 0.34 1h-0.007c-0.92 0-1.667 0.747-1.667 1.667 0 0.72 0.46 1.327 1.093 1.56-0.267 0.293-0.427 0.68-0.427 1.107 0 0.92 0.747 1.667 1.667 1.667h0.007c-0.213 0.28-0.34 0.627-0.34 1 0 0.92 0.747 1.667 1.667 1.667h1.667v5.22c0 0.793 0.647 1.447 1.447 1.447h9.113c0.8 0 1.447-0.647 1.447-1.447v-2.553h3.113l0.087-0.067c2.767-2.073 2.8-5.393 2.8-5.533v-0.267l-0.26-0.060zM6.667 11.667c0-0.553 0.447-1 1-1h2.667c0.553 0 1 0.447 1 1s-0.447 1-1 1h-2.667c-0.553 0-1-0.447-1-1zM5.333 14.333c0-0.553 0.447-1 1-1h4.667c0.553 0 1 0.447 1 1s-0.447 1-1 1h-4.667c-0.553 0-1-0.447-1-1zM6 17c0-0.553 0.447-1 1-1h4c0.553 0 1 0.447 1 1s-0.447 1-1 1h-4c-0.553 0-1-0.447-1-1zM7.333 19.667c0-0.553 0.447-1 1-1h2c0.553 0 1 0.447 1 1s-0.447 1-1 1h-2c-0.553 0-1-0.447-1-1zM21.333 26.553c0 0.427-0.347 0.78-0.78 0.78h-9.113c-0.427 0-0.78-0.347-0.78-0.78v-1.887h10.667v1.887zM21.333 24h-10.667v-2.7c0.76-0.153 1.333-0.827 1.333-1.633 0-0.427-0.167-0.813-0.427-1.107 0.64-0.233 1.093-0.84 1.093-1.56 0-0.547-0.267-1.027-0.68-1.333 0.407-0.307 0.68-0.787 0.68-1.333 0-0.72-0.46-1.327-1.093-1.56 0.267-0.293 0.427-0.68 0.427-1.107 0-0.807-0.573-1.48-1.333-1.633v-2.7h10.667v16.667zM21.333 6.667h-10.667v-1.22c0-0.427 0.347-0.78 0.78-0.78h9.113c0.427 0 0.78 0.347 0.78 0.78v1.22zM24.887 23.333h-2.887v-14.96c0.42-0.253 0.88-0.347 1.333-0.367v6.993s0.62 2.78 3.987 3.66c-0.067 0.773-0.433 3.12-2.433 4.673z"/>
    <path fill="currentColor" d="M14.667 5.333h2.667v0.667h-2.667v-0.667z"/>
    <path fill="currentColor" d="M16.667 26c0 0.368-0.298 0.667-0.667 0.667s-0.667-0.298-0.667-0.667c0-0.368 0.298-0.667 0.667-0.667s0.667 0.298 0.667 0.667z"/>
    <path fill="currentColor" d="M16 14c0.733 0 1.333-0.6 1.333-1.333s-0.6-1.333-1.333-1.333-1.333 0.6-1.333 1.333 0.6 1.333 1.333 1.333zM16 12c0.367 0 0.667 0.3 0.667 0.667s-0.3 0.667-0.667 0.667-0.667-0.3-0.667-0.667 0.3-0.667 0.667-0.667z"/>
    <path fill="currentColor" d="M16 15.333c1.1 0 2 0.9 2 2h-1.333v1.327h-1.333v2.673h1.333v1.333h2.667v-1.333h1.333v-2.673h-1.333v-1.327h-0.667c0-1.473-1.193-2.667-2.667-2.667s-2.667 1.193-2.667 2.667h0.667c0-1.1 0.9-2 2-2zM20 19.327v1.34h-1.333v1.333h-1.333v-1.333h-1.333v-1.34h1.333v-1.327h1.333v1.327h1.333z"/>
</svg>
