<svg version="1.1" xmlns="http://www.w3.org/2000/svg" width="32" height="32" viewBox="0 0 32 32">
    <path fill="currentColor" d="M29.333 24.72c0-1.727-0.78-3.273-2-4.313v-2.433h-0.667v1.947c-0.873-0.547-1.893-0.867-2.993-0.867-2.5 0-4.7 1.66-5.42 4.013-0.707-0.253-1.46-0.4-2.253-0.4-0.987 0-1.92 0.22-2.767 0.607-0.227-0.813-0.633-1.54-1.173-2.14v-5.020c0-2.213-1.8-4.020-4.020-4.020-0.113 0-0.233 0.007-0.347 0.020 0.92-0.96 2.313-1.607 3.587-1.607 2.6 0 4.72 2.113 4.72 4.72v0.12c-1.827 0.007-3.313 1.493-3.313 3.327s1.493 3.327 3.327 3.327 3.327-1.493 3.327-3.327c0-1.613-1.153-2.96-2.673-3.26v-0.18c0-0.34-0.033-0.667-0.093-0.987 0.853-1.413 2.387-2.287 4.040-2.287 0.92 0 1.8 0.267 2.56 0.753-1.42 0.24-2.513 1.467-2.513 2.953 0 1.66 1.347 3.007 3.007 3.007s3.007-1.347 3.007-3.007c0-1.453-1.033-2.667-2.407-2.947-1-0.92-2.293-1.433-3.653-1.433-1.68 0-3.26 0.793-4.273 2.107-0.247-0.673-0.627-1.287-1.1-1.807h0.027c0-0.287 0.067-0.413 0.153-0.587 0.1-0.2 0.227-0.44 0.227-0.893s-0.127-0.693-0.227-0.893c-0.087-0.173-0.153-0.3-0.153-0.587s0.067-0.413 0.153-0.587c0.1-0.2 0.227-0.44 0.227-0.893s-0.233-0.793-0.433-1.107c-0.1-0.153-0.193-0.3-0.253-0.44-0.060-0.147-0.093-0.327-0.133-0.513-0.073-0.367-0.16-0.773-0.447-1.073-0.293-0.3-0.693-0.387-1.053-0.467-0.187-0.040-0.36-0.080-0.5-0.14-0.133-0.060-0.28-0.153-0.427-0.253-0.307-0.207-0.66-0.447-1.087-0.447s-0.78 0.24-1.087 0.447c-0.153 0.1-0.293 0.2-0.427 0.253-0.14 0.060-0.313 0.1-0.5 0.14-0.36 0.080-0.76 0.167-1.053 0.46-0.287 0.293-0.373 0.707-0.447 1.073-0.040 0.187-0.073 0.367-0.133 0.52-0.053 0.14-0.153 0.287-0.253 0.44-0.2 0.313-0.433 0.667-0.433 1.107s0.127 0.7 0.227 0.893c0.087 0.173 0.153 0.3 0.153 0.587s-0.067 0.413-0.153 0.587c-0.1 0.2-0.227 0.44-0.227 0.893s0.127 0.693 0.227 0.893c0.080 0.16 0.14 0.287 0.153 0.533-0.267 0.253-0.5 0.533-0.693 0.827-1.527 0.567-2.627 2.040-2.627 3.76v5.033c-0.847 0.953-1.367 2.2-1.367 3.573h0.667c0-2.6 2.113-4.72 4.72-4.72 2.187 0 4.067 1.493 4.58 3.593-1.96 1.16-3.287 3.293-3.287 5.733h0.667c0-3.307 2.687-5.993 5.993-5.993s5.993 2.687 5.993 5.993h0.667c0-2.64-1.553-4.92-3.787-6 0.613-2.113 2.567-3.607 4.8-3.607 1.127 0 2.16 0.38 2.993 1.007v3.96h0.667v-3.36c0.827 0.893 1.333 2.080 1.333 3.387h0.667zM26.007 15.667c0 1.293-1.047 2.34-2.34 2.34s-2.34-1.047-2.34-2.34 1.047-2.34 2.34-2.34 2.34 1.047 2.34 2.34zM16.020 21.333c-1.467 0-2.66-1.193-2.66-2.66 0-0.073 0.013-0.133 0.020-0.207 0.473-0.053 1.107-0.24 1.827-0.753 1.28 0.947 2.253 1.1 3.453 1.113-0.080 1.393-1.233 2.507-2.647 2.507zM18.627 18.16c-1.233-0.027-2.033-0.2-3.213-1.127l-0.207-0.16-0.207 0.16c-0.487 0.387-1 0.633-1.48 0.74 0.373-1.020 1.347-1.76 2.493-1.76 1.293 0 2.367 0.927 2.607 2.147zM7.793 7.727c-0.087-0.173-0.153-0.3-0.153-0.587 0-0.24 0.16-0.487 0.327-0.74 0.113-0.173 0.227-0.353 0.307-0.553 0.080-0.207 0.127-0.42 0.173-0.633 0.060-0.3 0.12-0.587 0.273-0.74s0.427-0.213 0.72-0.28c0.207-0.047 0.42-0.093 0.62-0.173 0.193-0.080 0.373-0.2 0.54-0.32 0.253-0.173 0.487-0.333 0.713-0.333s0.467 0.16 0.713 0.333c0.173 0.113 0.347 0.233 0.54 0.32 0.2 0.087 0.413 0.133 0.62 0.173 0.293 0.060 0.567 0.12 0.72 0.28s0.213 0.44 0.273 0.74c0.040 0.213 0.087 0.427 0.173 0.633 0.080 0.193 0.193 0.373 0.307 0.553 0.167 0.26 0.327 0.507 0.327 0.74 0 0.287-0.067 0.413-0.153 0.587-0.1 0.2-0.227 0.44-0.227 0.893s0.127 0.693 0.227 0.893c0.087 0.173 0.153 0.3 0.153 0.587s-0.067 0.413-0.153 0.587c-0.053 0.1-0.107 0.213-0.153 0.36-0.927-0.753-2.107-1.207-3.387-1.207-1.147 0-2.373 0.46-3.353 1.187-0.047-0.133-0.1-0.24-0.147-0.34-0.087-0.173-0.153-0.3-0.153-0.587s0.067-0.413 0.153-0.587c0.1-0.2 0.227-0.44 0.227-0.893s-0.127-0.7-0.227-0.893zM8.047 19.34c-1.267 0-2.433 0.44-3.353 1.18v-4.4c0-1.847 1.5-3.353 3.353-3.353s3.353 1.5 3.353 3.353v4.393c-0.927-0.733-2.093-1.173-3.353-1.173z"/>
    <path fill="currentColor" d="M23.213 14.667h-1.087c-0.14 0-0.267 0.060-0.353 0.167-0.080 0.1-0.113 0.227-0.087 0.353l0.053 0.253c0.067 0.32 0.38 0.56 0.74 0.56h0.38c0.36 0 0.673-0.233 0.74-0.56l0.053-0.253c0.027-0.127 0-0.253-0.087-0.353-0.087-0.107-0.213-0.167-0.353-0.167z"/>
    <path fill="currentColor" d="M24.473 16h0.38c0.36 0 0.673-0.233 0.74-0.56l0.053-0.253c0.027-0.127 0-0.253-0.087-0.353-0.087-0.107-0.213-0.167-0.353-0.167h-1.087c-0.14 0-0.267 0.060-0.353 0.167-0.080 0.1-0.113 0.227-0.087 0.353l0.053 0.253c0.067 0.327 0.38 0.56 0.74 0.56z"/>
    <path fill="currentColor" d="M18.373 9.493c0.487 0.727 1.313 1.207 2.247 1.207s1.727-0.46 2.213-1.16c1.207-0.607 1.853-1.74 1.827-3.207 0.020-1.067-0.313-1.973-0.96-2.62-0.713-0.72-1.787-1.080-3.053-1.067-1.273-0.027-2.347 0.347-3.067 1.067-0.647 0.647-0.98 1.553-0.96 2.613-0.027 1.44 0.593 2.56 1.747 3.18zM20.62 10.033c-1.127 0-2.040-0.913-2.040-2.040 0-0.46 0.153-0.9 0.433-1.26 0.987 0.6 2.213 0.6 3.2 0 0.28 0.36 0.433 0.793 0.433 1.26 0 1.127-0.913 2.040-2.040 2.040zM18.060 4.18c0.587-0.587 1.467-0.893 2.593-0.867 1.127-0.020 2 0.287 2.58 0.873 0.52 0.52 0.78 1.26 0.767 2.153 0.013 0.853-0.233 1.547-0.713 2.060 0.020-0.133 0.040-0.26 0.040-0.393 0-0.733-0.287-1.42-0.813-1.933l-0.2-0.2-0.227 0.167c-0.873 0.647-2.040 0.647-2.913 0l-0.227-0.167-0.2 0.2c-0.527 0.513-0.813 1.2-0.813 1.933 0 0.113 0.020 0.22 0.033 0.333-0.44-0.507-0.667-1.18-0.653-2.013-0.020-0.88 0.247-1.62 0.767-2.14z"/>
    <path fill="currentColor" d="M11.293 9.373c1.473 0 2.667-1.2 2.667-2.667 0-0.6-0.2-1.173-0.587-1.653l-0.267-0.333-0.26 0.34c-0.58 0.753-1.94 1.64-3.86 1.647h-0.38s0.053 0.38 0.053 0.38c0.187 1.307 1.32 2.287 2.633 2.287zM13.073 5.807c0.147 0.28 0.22 0.587 0.22 0.9 0 1.107-0.9 2-2 2-0.86 0-1.613-0.56-1.887-1.353 1.68-0.113 2.933-0.807 3.667-1.547z"/>
    <path fill="currentColor" d="M10.393 14.873l-0.087-0.193h-4.613l-0.087 0.193c-0.167 0.36-0.253 0.74-0.253 1.12 0 1.46 1.187 2.653 2.653 2.653s2.653-1.187 2.653-2.653c0-0.38-0.087-0.76-0.253-1.12zM8 17.98c-1.093 0-1.987-0.893-1.987-1.987 0-0.22 0.040-0.433 0.113-0.647h3.74c0.073 0.213 0.113 0.427 0.113 0.647 0 1.093-0.893 1.987-1.987 1.987z"/>
</svg>
