<svg version="1.1" xmlns="http://www.w3.org/2000/svg" width="32" height="32" viewBox="0 0 32 32">
    <path fill="currentColor" d="M16 17.333c-6.624 0.008-11.992 5.376-12 11.999v0.001h0.667c0.004-4.304 2.405-8.047 5.94-9.965l0.060-0.030v5.362c-0.766 0.16-1.333 0.831-1.333 1.633 0 0.92 0.746 1.667 1.667 1.667s1.667-0.746 1.667-1.667c0-0.802-0.567-1.473-1.322-1.631l-0.011-0.002v-5.683c0.27-0.128 0.618-0.269 0.975-0.393l0.079-0.024c0.195 0.768 1.038 3.485 3.464 4.697l0.149 0.074 0.149-0.074c2.426-1.213 3.269-3.929 3.464-4.697 0.436 0.147 0.784 0.288 1.123 0.445l-0.069-0.029v4.35c-1.135 0.167-1.997 1.132-2 2.3v1.728c-0.392 0.141-0.667 0.51-0.667 0.943 0 0.552 0.448 1 1 1s1-0.448 1-1c0-0.433-0.275-0.801-0.66-0.941l-0.007-0.002v-1.728c0-0.92 0.746-1.667 1.667-1.667s1.667 0.746 1.667 1.667v0 1.728c-0.392 0.141-0.667 0.51-0.667 0.943 0 0.552 0.448 1 1 1s1-0.448 1-1c0-0.433-0.275-0.801-0.66-0.941l-0.007-0.002v-1.728c-0.003-1.168-0.865-2.133-1.987-2.298l-0.013-0.002v-4.028c3.595 1.948 5.996 5.69 6 9.994v0.001h0.667c-0.008-6.624-5.376-11.992-11.999-12h-0.001zM12 26.333c0 0.552-0.448 1-1 1s-1-0.448-1-1c0-0.552 0.448-1 1-1v0c0.552 0.001 0.999 0.448 1 1v0zM19 28.667c-0.184 0-0.333-0.149-0.333-0.333s0.149-0.333 0.333-0.333c0.184 0 0.333 0.149 0.333 0.333v0c-0 0.184-0.149 0.333-0.333 0.333h-0zM23 28.667c-0.184 0-0.333-0.149-0.333-0.333s0.149-0.333 0.333-0.333c0.184 0 0.333 0.149 0.333 0.333v0c-0 0.184-0.149 0.333-0.333 0.333h-0zM16 22.624c-2.070-1.131-2.816-3.599-2.973-4.215 0.891-0.26 1.915-0.409 2.973-0.409s2.082 0.149 3.051 0.428l-0.078-0.019c-0.157 0.615-0.903 3.084-2.973 4.215zM16 16c2.070-0.001 3.895-1.050 4.972-2.645l0.014-0.021h1.754l-0.746-3.761-0.015 0.003c-0.225-3.125-2.816-5.575-5.978-5.575-3.173 0-5.77 2.466-5.979 5.586l-0.001 0.018-0.013-0.003-0.747 3.732h1.754c1.091 1.617 2.916 2.666 4.985 2.667h0zM21.367 12.667c0.136-0.261 0.263-0.57 0.364-0.891l0.011-0.042 0.185 0.933zM16 15.333c-0.006 0-0.014 0-0.021 0-2.934 0-5.312-2.378-5.312-5.312 0-0.471 0.061-0.928 0.176-1.363l-0.008 0.037c0.384 0.052 0.829 0.082 1.28 0.082 0.010 0 0.020 0 0.030-0h-0.002c0.061 0.002 0.133 0.002 0.206 0.002 1.735 0 3.35-0.515 4.701-1.4l-0.033 0.020c0.784 0.474 1.731 0.754 2.744 0.754 0.421 0 0.831-0.049 1.224-0.14l-0.036 0.007c0.244 0.588 0.385 1.272 0.385 1.988 0 2.941-2.384 5.325-5.325 5.325-0.003 0-0.006 0-0.009 0h0zM16 4.667c1.995 0.002 3.733 1.098 4.647 2.721l0.014 0.027c-0.251 0.045-0.539 0.071-0.834 0.071-0.98 0-1.893-0.284-2.663-0.774l0.020 0.012-0.197-0.13-0.188 0.141c-2.079 1.559-4.84 1.415-5.758 1.314 0.802-1.994 2.718-3.377 4.958-3.381h0zM10.073 12.667l0.186-0.928c0.112 0.361 0.239 0.669 0.39 0.962l-0.016-0.033z"/>
</svg>
