<svg version="1.1" xmlns="http://www.w3.org/2000/svg" width="32" height="32" viewBox="0 0 32 32">
    <path fill="currentColor" d="M28.939 15.808c-0.363-0.516-1.082-0.95-2.439-0.096l-5.739 3.324c-0.165-0.686-0.702-1.238-1.619-1.671l-4.99-2.33c-1.488-0.755-3.17-0.523-5.024 0.704l-6.454 5.095-0.007 0.153c-0.005 0.13-0.089 3.21 3.52 4.98l0.163 0.080 3.503-2.125c0.987-0.663 2.073-0.876 3.042-0.605l3.016 1.005c1.966 0.552 4.115 0.281 5.617-0.716l6.99-4.993c0.405-0.269 0.679-0.693 0.773-1.193 0.104-0.558-0.024-1.145-0.352-1.61zM28.635 17.295c-0.061 0.322-0.233 0.592-0.496 0.767l-6.99 4.993c-1.314 0.873-3.298 1.118-5.044 0.628l-3.016-1.005c-1.173-0.328-2.457-0.085-3.596 0.68l-3.175 1.926c-2.666-1.385-2.955-3.54-2.983-4.126l6.182-4.882c1.641-1.084 3.057-1.296 4.342-0.644l4.999 2.334c1.454 0.686 1.417 1.492 1.16 2.259-0.275 0.822-1.279 0.556-1.579 0.456l-4.992-1.663c-0.589-0.216-1.854-0.318-2.414 0.834l0.6 0.292c0.437-0.897 1.54-0.516 1.595-0.496l5 1.667c1.162 0.387 2.113 0.043 2.422-0.877 0.076-0.229 0.126-0.447 0.15-0.656l6.045-3.502c1.117-0.704 1.419-0.273 1.55-0.090 0.221 0.314 0.311 0.727 0.241 1.103zM19.273 15.021l0.703 0.352 0.704-0.353c5.333-2.684 5.046-6.274 5.033-6.393 0-1.375-0.811-2.544-2.117-3.049-1.264-0.488-2.646-0.235-3.62 0.641-0.973-0.876-2.357-1.129-3.62-0.641-1.305 0.506-2.117 1.674-2.115 3.017-0.014 0.152-0.301 3.742 5.032 6.426zM14.906 8.627c0-1.11 0.632-2.018 1.691-2.428 0.348-0.135 0.707-0.201 1.060-0.201 0.779 0 1.531 0.318 2.073 0.913l0.246 0.27 0.246-0.27c0.787-0.865 2.018-1.146 3.133-0.713 1.059 0.41 1.691 1.318 1.692 2.458 0.012 0.134 0.231 3.301-4.667 5.768l-0.404 0.202-0.404-0.202c-4.898-2.466-4.678-5.633-4.665-5.798z"/>
</svg>
