<svg version="1.1" xmlns="http://www.w3.org/2000/svg" width="32" height="32" viewBox="0 0 32 32">
    <path fill="currentColor" d="M10.095 15.706l0.477-0.467c0.030 0.031 2.83 2.876 5.095 4.468v-17.040h0.667v17.040c2.265-1.592 5.065-4.437 5.095-4.468l0.477 0.467c-0.135 0.138-3.331 3.387-5.726 4.909l-0.179 0.114-0.179-0.114c-2.395-1.521-5.59-4.771-5.726-4.909zM26.333 12h-4.333v0.667h4.333c1.286 0 2.333 1.047 2.333 2.333v11.333c0 1.286-1.047 2.333-2.333 2.333h-20.667c-1.286 0-2.333-1.047-2.333-2.333v-11.333c0-1.286 1.047-2.333 2.333-2.333h4.333v-0.667h-4.333c-1.654 0-3 1.346-3 3v11.333c0 1.654 1.346 3 3 3h20.667c1.654 0 3-1.346 3-3v-11.333c0-1.654-1.346-3-3-3z"/>
</svg>
