<svg version="1.1" xmlns="http://www.w3.org/2000/svg" width="32" height="32" viewBox="0 0 32 32">
    <path fill="currentColor" d="M10.014 27.986h11.971v-11.971h-11.971zM10.652 16.652h10.695v10.695h-10.695zM29.333 4.207c-0.702-0.138-1.508-0.218-2.333-0.218s-1.632 0.079-2.413 0.23l0.079-0.013v0.696c0.59-0.114 1.278-0.189 1.981-0.208l0.017-0v2.305c0.001 0.009 0.001 0.019 0.001 0.030 0 0.168-0.136 0.303-0.303 0.303-0.010 0-0.021-0.001-0.031-0.002l0.001 0h-2.591c-2.035-0.848-4.398-1.341-6.877-1.341-0.187 0-0.373 0.003-0.559 0.008l0.027-0.001h-0.667c-0.158-0.005-0.345-0.008-0.532-0.008-2.479 0-4.843 0.493-6.999 1.386l0.121-0.045h-2.587c-0.010 0.001-0.021 0.002-0.032 0.002-0.168 0-0.304-0.136-0.304-0.304 0-0.010 0-0.020 0.001-0.030l-0 0.001v-2.305c0.72 0.019 1.408 0.094 2.078 0.221l-0.080-0.013v-0.696c-0.699-0.134-1.506-0.213-2.33-0.218h-0.004c-0.828 0.004-1.634 0.083-2.416 0.231l0.083-0.013v0.696c0.59-0.114 1.278-0.189 1.981-0.208l0.017-0v2.305c-0 0.008-0 0.018-0 0.028 0 0.538 0.436 0.974 0.974 0.974 0.010 0 0.020-0 0.030-0l-0.001 0h2.193c-1.188 3.512-1.139 9.886 0.156 13.771l0.077 0.229h1.242v-0.671h-0.756c-0.578-2.052-0.911-4.408-0.911-6.842 0-1.865 0.195-3.685 0.566-5.44l-0.030 0.171c0.276 1.235 0.676 2.324 1.2 3.34l-0.036-0.077 0.062 0.124 0.131 0.044c1.614 0.442 3.467 0.696 5.379 0.696 0.256 0 0.511-0.005 0.764-0.014l-0.037 0.001h0.667c0.217 0.008 0.472 0.013 0.727 0.013 1.912 0 3.765-0.254 5.527-0.73l-0.148 0.034 0.131-0.044 0.062-0.124c0.459-0.886 0.846-1.916 1.107-2.994l0.019-0.095c0.319 1.517 0.501 3.261 0.501 5.047 0 2.453-0.344 4.825-0.986 7.072l0.044-0.181h-0.756v0.671h1.242l0.076-0.229c1.361-4.082 1.413-10.332 0.168-13.771h2.285c0.009 0 0.018 0 0.028 0 0.538 0 0.974-0.436 0.974-0.974 0-0.010-0-0.020-0-0.030l0 0.001v-2.305c0.72 0.019 1.408 0.094 2.078 0.221l-0.080-0.013zM22.098 12.053c-1.568 0.393-3.368 0.618-5.221 0.618-0.191 0-0.381-0.002-0.571-0.007l0.028 0.001h-0.667c-0.162 0.004-0.352 0.007-0.543 0.007-1.853 0-3.653-0.225-5.375-0.65l0.154 0.032c-0.628-1.212-1.062-2.626-1.218-4.123l-0.004-0.051c1.956-0.769 4.22-1.215 6.589-1.215 0.14 0 0.28 0.002 0.419 0.005l-0.021-0h0.667c0.115-0.003 0.251-0.004 0.387-0.004 2.356 0 4.61 0.439 6.684 1.24l-0.127-0.043c0.012 0.029 0.023 0.063 0.035 0.093-0.17 1.522-0.6 2.909-1.247 4.166l0.031-0.067z"/>
</svg>
