<svg version="1.1" xmlns="http://www.w3.org/2000/svg" width="32" height="32" viewBox="0 0 32 32">
    <path fill="currentColor" d="M16.833 12c0 0.46-0.373 0.833-0.833 0.833s-0.833-0.373-0.833-0.833 0.373-0.833 0.833-0.833 0.833 0.373 0.833 0.833zM25 5.679v3.855c1.036 0.162 1.833 1.052 1.833 2.133 0 1.195-0.972 2.167-2.167 2.167-1.081 0-1.971-0.797-2.133-1.833h-2.882c0.008 0.11 0.015 0.221 0.015 0.333 0 0.465-0.068 0.916-0.191 1.333h1.994l0.1 0.123c0.113 0.139 2.765 3.446 2.742 7.879l-0.002 0.332h-1.998v-0.667h1.329c-0.098-3.572-2.040-6.389-2.494-7h-1.928c-0.174 0.351-0.395 0.66-0.655 0.908l-0.096 0.092h-4.934l-0.096-0.092c-0.26-0.248-0.481-0.557-0.655-0.908h-1.95c-0.454 0.611-2.396 3.428-2.494 7h1.329v0.667h-1.998l-0.002-0.332c-0.023-4.433 2.629-7.74 2.742-7.879l0.1-0.123h2.016c-0.123-0.418-0.191-0.869-0.191-1.333 0-0.112 0.007-0.223 0.015-0.333h-2.882c-0.162 1.036-1.052 1.833-2.133 1.833-1.195 0-2.167-0.972-2.167-2.167 0-1.081 0.797-1.971 1.833-2.133v-3.855c-1.473 0.028-3.016 0.234-4.333 0.583v-0.685c1.334-0.337 2.867-0.537 4.333-0.565v-1.012h0.667v1.012c1.467 0.027 3 0.227 4.333 0.564v0.685c-1.317-0.348-2.859-0.554-4.333-0.582v3.855c0.926 0.145 1.655 0.873 1.8 1.8h2.976c0.164-0.766 0.508-1.445 0.995-1.908l0.096-0.092h4.934l0.096 0.092c0.487 0.463 0.831 1.142 0.995 1.908h2.976c0.145-0.926 0.873-1.655 1.8-1.8v-3.855c-1.474 0.028-3.017 0.234-4.333 0.582v-0.685c1.334-0.337 2.866-0.536 4.333-0.564v-1.012h0.667v1.012c1.466 0.028 2.999 0.228 4.333 0.565v0.685c-1.317-0.349-2.86-0.555-4.333-0.583zM8.833 11.667c0-0.827-0.673-1.5-1.5-1.5s-1.5 0.673-1.5 1.5 0.673 1.5 1.5 1.5 1.5-0.673 1.5-1.5zM19 12.333c0-1.079-0.401-1.894-0.806-2.333h-4.388c-0.405 0.44-0.806 1.254-0.806 2.333s0.401 1.894 0.806 2.333h4.388c0.405-0.44 0.806-1.254 0.806-2.333zM24.667 10.167c-0.827 0-1.5 0.673-1.5 1.5s0.673 1.5 1.5 1.5 1.5-0.673 1.5-1.5-0.673-1.5-1.5-1.5zM10.667 17.333h10.667v11.333h-10.667v-11.333zM11.333 28h9.333v-10h-9.333v10z"/>
</svg>
