<svg version="1.1" xmlns="http://www.w3.org/2000/svg" width="32" height="32" viewBox="0 0 32 32">
    <path fill="currentColor" d="M17.091 27.321l-0.182-0.642c2.82-0.798 5.243-3.492 5.763-6.404l0.656 0.117c-0.571 3.202-3.136 6.051-6.237 6.929zM25 20.013c-0.008 4.872-4.294 9.313-8.999 9.32-4.711-0.007-9.001-4.456-9.001-9.333-0.025-0.292-0.545-7.906 8.766-17.071l0.234-0.23 0.234 0.23c9.2 9.055 8.803 16.598 8.766 17.084zM16 3.636c-8.826 8.825-8.34 16.262-8.334 16.337 0.001 4.98 4.401 8.688 8.335 8.694 3.933-0.006 8.333-3.714 8.333-8.667l0.001-0.027c0.006-0.075 0.492-7.512-8.334-16.337z"/>
</svg>
