<svg version="1.1" xmlns="http://www.w3.org/2000/svg" width="32" height="32" viewBox="0 0 32 32">
    <path fill="currentColor" d="M25.333 12c0 2.784-0.922 6.249-3.51 7.628-0.915 0.577-1.358 1.571-1.162 2.646 0.252 1.887-0.234 3.63-1.367 4.924-1.189 1.357-2.997 2.136-4.962 2.136-1.408 0-3.064-0.549-4.221-1.398l0.395-0.538c1.049 0.771 2.551 1.269 3.826 1.269 1.773 0 3.398-0.695 4.46-1.908 1.019-1.164 1.437-2.678 1.21-4.381-0.243-1.338 0.311-2.587 1.486-3.326 2.348-1.252 3.178-4.461 3.178-7.051 0-2.685-1.201-5.164-3.293-6.8-2.12-1.658-4.896-2.22-7.627-1.543-4.286 1.064-7.045 5.060-6.417 9.294 0.227 1.53 0.867 2.812 1.902 3.809l-0.462 0.48c-1.144-1.102-1.85-2.512-2.098-4.191-0.679-4.576 2.294-8.891 6.916-10.039 2.926-0.727 5.915-0.12 8.198 1.665 2.255 1.764 3.549 4.434 3.549 7.326zM10.015 10.902c-0.788 2.557 0.729 3.659 0.79 3.701 0.774 0.561 2.124 0.373 2.792-0.398l2.322-2.986c0.201-0.232 0.495-0.366 0.828-0.378 0.365-0.006 0.757 0.134 1.018 0.395 0.407 0.408 0.676 1.071 0.305 1.561l-3.333 4.333c-0.391 0.507-1.305 1.696-0.327 2.747 0.011 0.014 1.11 1.389 0.345 2.232-0.844 0.932-2.083 0.059-2.221-0.044l-0.063-0.037c-0.061-0.027-1.49-0.699-0.822-2.584l-0.629-0.223c-0.809 2.282 0.855 3.251 1.14 3.396 0.48 0.35 1.069 0.582 1.646 0.582 0.519 0 1.028-0.187 1.441-0.643 1.15-1.268-0.261-3.027-0.336-3.117-0.437-0.471-0.338-1.005 0.354-1.904l3.335-4.335c0.526-0.695 0.376-1.697-0.363-2.437-0.396-0.396-0.95-0.615-1.513-0.59-0.52 0.019-0.984 0.234-1.319 0.621l-2.322 2.987c-0.426 0.492-1.396 0.636-1.887 0.28-0.049-0.035-1.181-0.889-0.542-2.964l-0.637-0.196zM19.876 17.26c1.33-1.071 2.124-2.913 2.124-4.926 0-1.821-0.783-3.489-2.149-4.575-1.422-1.131-3.34-1.525-5.259-1.083-1.333 0.308-2.318 0.963-3.191 2.125l0.533 0.4c0.773-1.027 1.639-1.606 2.809-1.875 1.723-0.397 3.433-0.049 4.694 0.955 1.206 0.959 1.898 2.437 1.898 4.053 0 1.813-0.701 3.461-1.876 4.407-0.86 0.693-1.48 1.454-1.792 2.202-0.293 0.7-0.395 1.343-0.331 2.083 0.005 0.076 0.001 0.462-0.001 0.84-0.002 0.387-0.004 0.764 0.001 0.826 0.087 1.14-0.408 1.889-0.839 2.318-0.698 0.694-1.77 1.071-2.802 0.992-1.094-0.088-1.354-0.198-1.81-0.588l-0.434 0.507c0.633 0.542 1.081 0.656 2.19 0.745 0.115 0.010 0.23 0.014 0.346 0.014 1.12 0 2.214-0.435 2.98-1.197 0.76-0.756 1.117-1.738 1.034-2.839-0.004-0.069-0.001-0.417 0.001-0.773 0.003-0.412 0.005-0.835-0.001-0.898-0.053-0.63 0.033-1.176 0.283-1.772 0.27-0.646 0.821-1.316 1.594-1.939z"/>
</svg>
