<svg version="1.1" xmlns="http://www.w3.org/2000/svg" width="32" height="32" viewBox="0 0 32 32">
    <path fill="currentColor" d="M17.12 5.4c-0.053-0.482-0.15-1.379-1.042-1.398l-0.712-0.024c-0.275-0.001-0.549 0.098-0.745 0.293s-0.306 0.466-0.299 0.743l0.033 1.327c0.010 0.387 0.234 0.728 0.584 0.891 0.135 0.063 0.278 0.094 0.421 0.094 0.229 0 0.459-0.080 0.658-0.24 0.069-0.066 0.167-0.137 0.274-0.214 0.391-0.286 0.982-0.719 0.848-1.306l-0.020-0.167zM15.898 6.335c-0.133 0.097-0.255 0.187-0.318 0.251-0.105 0.082-0.239 0.098-0.36 0.043-0.121-0.057-0.195-0.171-0.199-0.304l-0.033-1.327c-0.003-0.096 0.034-0.186 0.102-0.253 0.065-0.065 0.151-0.1 0.242-0.1 0.005 0 0.008 0.001 0.012 0.001l0.715 0.024c0.247 0.005 0.329 0.171 0.398 0.803l0.027 0.211c0.043 0.191-0.335 0.468-0.586 0.652zM15.955 2.634c-6.15 0.226-10.039 3.395-11.924 7.331l-0.009-0.005c-0.029 0.053-0.054 0.115-0.076 0.181-0.855 1.855-1.271 3.871-1.271 5.826-0.001 6.186 4.155 12.997 13.292 13.334 7.375 0 13.375-5.981 13.375-13.333s-6-13.333-13.387-13.333zM28.675 15.967c0 3.273-1.263 6.251-3.314 8.502-0.3-1.074-0.889-3.189-0.906-3.247-0.053-0.146 0.015-0.661 0.045-0.881 0.012-0.089 0.022-0.169 0.028-0.225 0.057-0.504-0.137-1.003-0.52-1.335s-0.906-0.453-1.396-0.323c-0.164 0.044-0.335 0.038-0.495-0.016l-1.729-0.573c-0.667-0.163-0.915-0.993-1.133-1.726-0.039-0.132-0.077-0.258-0.115-0.374-0.139-0.438-0.077-0.911 0.191-1.331 0.809-1.656 2.921-2.6 4.908-2.201 0.423 0.085 0.858-0.012 1.203-0.263s0.572-0.639 0.624-1.104c-0.001-0.081 0.020-0.192 0.040-0.316 0.072-0.436 0.179-1.088-0.264-1.389-0.293-0.28-0.703-0.419-1.083-0.359-0.353 0.053-0.639 0.262-0.805 0.586-0.094 0.182-0.298 0.281-0.492 0.24-0.708-0.174-1.78-0.437-2.594 0.12-0.114 0.066-0.224 0.135-0.331 0.202-0.225 0.143-0.564 0.354-0.666 0.315-0.006-0.003-0.13-0.060-0.243-0.583-0.026-0.087 0.012-0.181 0.090-0.227l2.161-1.257c0.473-0.266 0.52-0.794 0.322-1.178-0.227-0.439-0.702-0.611-1.126-0.413l-0.82 0.371c-0.089 0.046-0.283-0.085-0.475-0.212-0.12-0.077-0.146-0.161 0.117-0.641l0.035-0.068c0.138-0.339 0.649-0.811 1.061-1.191 0.138-0.127 0.261-0.244 0.373-0.355 4.311 2.029 7.308 6.391 7.308 11.449zM12.806 3.733l-0.109 0.651c-0.104 0.665-0.736 1.136-1.452 1.064-0.535-0.040-1.042 0.295-1.17 0.777-0.085 0.32 0.010 0.746 0.56 0.996l1.298 0.448c0.234 0.073 0.318 0.291 0.317 0.471s-0.084 0.396-0.357 0.482c-0.047 0.019-0.208 0.072-0.411 0.139-1.158 0.382-1.393 0.472-1.475 0.607-0.136 0.129-0.312 0.267-0.5 0.417-0.707 0.56-1.586 1.257-1.507 2.14v1.216c0.004 0.139-0.119 0.171-0.172 0.178s-0.182 0.009-0.218-0.132l-0.31-1.115c-0.115-0.41-0.506-0.675-0.894-0.63-0.263 0.001-0.511 0.117-0.68 0.315-0.161 0.191-0.232 0.442-0.193 0.687l0.419 2.727c0.102 0.659 0.492 1.227 1.071 1.558l3.552 2.028c0.281 0.182 1.783 1.383 2.518 1.97 0.373 0.298 0.652 0.521 0.706 0.561 0.261 0.207 0.418 0.505 0.443 0.837s-0.089 0.65-0.317 0.894l-0.044 0.054c-0.082 0.093-0.335 0.355-0.652 0.686-1.873 1.954-2.092 2.212-2.079 2.408l-0.251 0.888c-0.047 0.168-0.265 0.363-0.356 0.372-0.515-0.23-1.003-0.485-1.46-0.769l-0.173-1.965-0.016-0.076c-0.027-0.079-0.064-0.154-0.111-0.221l-2.415-3.501c-0.589-0.796-0.239-1.816 0.033-2.379 0.085-0.219 0.077-0.468-0.021-0.679-0.109-0.238-0.229-0.489-0.353-0.749-0.593-1.242-1.265-2.651-1.396-3.86-0.131-0.901-0.224-2.278-0.070-2.811 1.426-3.078 4.133-5.682 8.245-6.684zM3.342 15.967c0-1.207 0.177-2.437 0.517-3.636 0.038 0.454 0.089 0.83 0.111 0.98 0.143 1.311 0.84 2.773 1.456 4.064 0.123 0.257 0.242 0.506 0.35 0.743 0.023 0.049 0.025 0.105 0.016 0.132-0.566 1.163-0.551 2.243 0.035 3.034l2.424 3.53 0.12 1.362c-3.415-2.482-5.030-6.462-5.030-10.208zM11.261 27.718c0.13-0.144 0.233-0.313 0.28-0.481l0.273-0.967v-0.001c0.208-0.286 1.34-1.467 1.896-2.048 0.501-0.522 0.658-0.686 0.717-0.762 0.342-0.374 0.516-0.876 0.479-1.382-0.038-0.513-0.29-0.991-0.702-1.317-0.061-0.045-0.332-0.262-0.695-0.553-2.101-1.68-2.521-1.993-2.673-2.066l-3.482-1.99c-0.402-0.229-0.673-0.623-0.743-1.080l-0.419-2.729c-0.012-0.072 0.017-0.123 0.043-0.153 0.043-0.051 0.107-0.079 0.21-0.082 0.104-0.007 0.187 0.050 0.214 0.144l0.308 1.107c0.109 0.428 0.503 0.682 0.953 0.622 0.451-0.063 0.758-0.414 0.747-0.847l-0.001-1.237c-0.049-0.555 0.674-1.128 1.255-1.589 0.219-0.174 0.427-0.339 0.587-0.496 0.171-0.083 0.848-0.307 1.182-0.417 0.25-0.083 0.443-0.149 0.436-0.149h-0.001c0.479-0.146 0.789-0.579 0.79-1.104 0.001-0.526-0.307-0.962-0.776-1.107l-1.258-0.433c-0.194-0.089-0.171-0.175-0.163-0.208 0.035-0.132 0.223-0.306 0.464-0.283 1.057 0.105 2.014-0.611 2.171-1.622l0.15-0.897c0.778-0.15 1.59-0.26 2.462-0.292 1.677 0 3.276 0.333 4.744 0.925-0.056 0.052-0.11 0.103-0.17 0.158-0.484 0.447-1.032 0.953-1.228 1.429-0.191 0.35-0.589 1.079 0.148 1.548 0.249 0.167 0.665 0.445 1.088 0.225l0.808-0.365c0.137-0.064 0.218 0.043 0.253 0.113 0.018 0.034 0.096 0.206-0.059 0.293l-2.166 1.26c-0.344 0.201-0.507 0.607-0.402 0.965 0.078 0.363 0.229 0.865 0.63 1.035 0.419 0.177 0.838-0.087 1.281-0.365 0.1-0.063 0.203-0.128 0.331-0.204 0.544-0.371 1.294-0.229 2.090-0.034 0.495 0.105 0.999-0.135 1.233-0.584 0.068-0.133 0.173-0.212 0.313-0.233 0.181-0.029 0.391 0.050 0.536 0.197l0.069 0.053c0.063 0.038 0.058 0.283-0.016 0.73-0.028 0.169-0.050 0.321-0.048 0.389-0.028 0.243-0.153 0.456-0.352 0.601s-0.439 0.197-0.68 0.148c-2.313-0.467-4.686 0.61-5.619 2.527-0.357 0.554-0.447 1.232-0.246 1.863 0.036 0.112 0.073 0.233 0.11 0.359 0.242 0.814 0.574 1.929 1.588 2.175l1.702 0.566c0.283 0.094 0.586 0.104 0.876 0.027 0.281-0.076 0.569-0.008 0.79 0.183 0.22 0.19 0.327 0.465 0.294 0.759-0.006 0.055-0.016 0.127-0.026 0.208-0.066 0.492-0.112 0.921-0.009 1.199l0.003-0.001c0.059 0.23 0.269 0.98 0.994 3.581-2.29 2.225-5.41 3.602-8.847 3.602-1.771-0.065-3.334-0.397-4.718-0.917z"/>
</svg>
