<svg version="1.1" xmlns="http://www.w3.org/2000/svg" width="32" height="32" viewBox="0 0 32 32">
    <path fill="currentColor" d="M2.667 8v16h26.667v-16zM16 16.643c-5.547-2.148-10.496-6.436-12.164-7.977h24.328c-1.669 1.541-6.617 5.829-12.164 7.977zM12.983 15.999c-3.672 1.994-6.84 4.283-9.679 6.919l0.030-0.027v-13.781c2.811 2.607 5.978 4.894 9.405 6.767l0.245 0.123zM13.721 16.367c0.707 0.343 1.427 0.665 2.16 0.944l0.119 0.046 0.119-0.046c0.732-0.279 1.451-0.601 2.157-0.943 3.77 1.986 7.019 4.302 9.917 6.992l-0.029-0.026h-24.328c2.868-2.665 6.115-4.981 9.639-6.848l0.246-0.119zM19.017 15.999c3.672-1.995 6.839-4.283 9.68-6.917l-0.030 0.028v13.781c-2.81-2.609-5.978-4.897-9.405-6.769l-0.245-0.122z"/>
</svg>
