<svg version="1.1" xmlns="http://www.w3.org/2000/svg" width="32" height="32" viewBox="0 0 32 32">
    <path fill="currentColor" d="M26 12.667v3.333h-2v-3.333h-2.667v-3.333h-4v-3.129c1.523 0.309 2.868 0.913 4.030 1.753l-0.030-0.021v-0.811c-1.69-1.123-3.767-1.793-6-1.793s-4.31 0.669-6.040 1.818l0.040-0.025v0.811c1.132-0.82 2.477-1.424 3.934-1.721l0.066-0.011v3.129h-4v1.333h-4v6h-1.983c0.041-1.695 0.411-3.293 1.047-4.748l-0.032 0.081h-0.718c-0.621 1.479-0.982 3.197-0.982 5s0.361 3.521 1.014 5.087l-0.032-0.087h0.718c-0.605-1.374-0.975-2.972-1.015-4.651l-0-0.015h1.983v6h4.195l2.667 2.667h11.805v-2.667h2v2.667h3.333v-13.333zM15.333 6c0.473 0.003 0.935 0.037 1.388 0.101l-0.054-0.006v3.239h-2.667v-3.239c0.398-0.058 0.861-0.092 1.33-0.094h0.003zM28.667 25.333h-2v-2.667h-3.333v2.667h-10.862l-2.667-2.667h-3.805v-11.333h4v-1.333h10.667v3.333h2.667v3.333h3.333v-3.333h2z"/>
</svg>
