<svg version="1.1" xmlns="http://www.w3.org/2000/svg" width="32" height="32" viewBox="0 0 32 32">
    <path fill="currentColor" d="M20.847 26.823c0.183-0.666 0.515-2.452-0.502-4.315-1.151-2.109-3.615-3.576-7.324-4.361-6.489-1.374-9.55-4.641-9.58-4.674l-0.463-0.504-0.112 0.675c-0.764 4.618 0.806 9.319 4.1 12.272 2.679 2.363 6.067 3.324 8.761 3.324 0.589 0 1.145-0.046 1.653-0.133 1.406-0.242 2.492-0.803 3.128-1.629 0.144 0.004 0.288 0.012 0.433 0.012 1.226 0 2.5-0.153 3.811-0.501l-0.171-0.645c-1.285 0.342-2.533 0.487-3.734 0.479zM20.164 26.797c-8.056-0.442-13.835-7.586-13.903-7.671l-0.522 0.414c0.068 0.086 5.804 7.184 13.915 7.889-0.546 0.49-1.363 0.845-2.386 1.021-2.588 0.445-6.778-0.315-9.858-3.032-2.973-2.665-4.465-6.842-3.975-11.028 1.113 0.99 4.154 3.288 9.449 4.409 3.503 0.742 5.814 2.093 6.871 4.019 1.054 1.92 0.466 3.8 0.409 3.979zM14.939 7.233c0.135 0.063 0.278 0.094 0.422 0.094 0.229 0 0.458-0.080 0.658-0.24 0.069-0.066 0.168-0.137 0.275-0.216 0.39-0.286 0.98-0.719 0.846-1.305l-0.020-0.168c-0.052-0.481-0.151-1.378-1.042-1.396l-0.712-0.024c-0.278-0.022-0.549 0.097-0.746 0.292s-0.306 0.466-0.299 0.743l0.033 1.327c0.010 0.386 0.233 0.728 0.583 0.891zM15.091 4.745c0.065-0.064 0.15-0.1 0.242-0.1h0.012l0.716 0.024c0.246 0.005 0.328 0.17 0.397 0.802l0.026 0.212c0.043 0.19-0.335 0.467-0.585 0.65-0.134 0.098-0.256 0.189-0.319 0.252-0.104 0.083-0.239 0.099-0.36 0.043s-0.195-0.17-0.199-0.304l-0.033-1.327c-0.003-0.096 0.034-0.186 0.102-0.253zM15.955 2.634c-6.146 0.226-10.858 3.595-12.605 9.013l-0.064 0.199 0.152 0.145c0.559 0.533 1.584 0.882 2.807 0.249 0.097-0.063 0.221-0.132 0.201-0.132 0.090-0.015 0.187 0.049 0.213 0.144l0.308 1.106c0.108 0.429 0.501 0.682 0.953 0.622 0.451-0.062 0.759-0.414 0.748-0.847l-0.001-1.237c-0.049-0.555 0.674-1.128 1.255-1.588 0.22-0.174 0.427-0.339 0.588-0.496 0.17-0.082 0.846-0.306 1.179-0.416 0.252-0.083 0.446-0.15 0.439-0.15 0 0-0 0-0 0 0.479-0.146 0.789-0.579 0.79-1.104 0.001-0.526-0.307-0.962-0.786-1.11l-0.007 0.021c-0.209-0.096-0.583-0.224-1.241-0.451-0.194-0.089-0.171-0.175-0.163-0.208 0.035-0.132 0.233-0.302 0.464-0.284 1.062 0.102 2.014-0.611 2.172-1.621l0.151-0.909c0.788-0.155 1.61-0.249 2.46-0.28 1.679 0 3.284 0.326 4.752 0.919-0.057 0.053-0.117 0.108-0.177 0.165-0.484 0.447-1.032 0.953-1.226 1.426-0.192 0.35-0.592 1.080 0.145 1.549 0.249 0.167 0.666 0.446 1.089 0.225l0.807-0.365c0.137-0.066 0.218 0.043 0.254 0.113 0.018 0.034 0.096 0.206-0.055 0.291l0.016 0.027c-0.274 0.122-0.843 0.454-2.186 1.234-0.343 0.2-0.507 0.606-0.402 0.966 0.078 0.363 0.229 0.865 0.631 1.034 0.419 0.175 0.838-0.087 1.281-0.366 0.1-0.063 0.203-0.128 0.329-0.203 0.544-0.373 1.294-0.229 2.090-0.034 0.493 0.104 0.999-0.136 1.233-0.585 0.068-0.133 0.174-0.211 0.313-0.233 0.183-0.026 0.392 0.049 0.536 0.197l0.069 0.054c0.063 0.037 0.058 0.283-0.015 0.73-0.028 0.169-0.050 0.321-0.047 0.389-0.029 0.244-0.154 0.457-0.352 0.601s-0.44 0.198-0.679 0.149c-2.313-0.467-4.685 0.609-5.62 2.527-0.357 0.554-0.447 1.232-0.246 1.864 0.037 0.113 0.073 0.234 0.111 0.361 0.242 0.813 0.574 1.928 1.587 2.174l1.702 0.565c0.284 0.094 0.587 0.104 0.876 0.027 0.282-0.074 0.569-0.007 0.789 0.183s0.327 0.466 0.294 0.759c-0.006 0.055-0.015 0.127-0.026 0.208-0.066 0.492-0.112 0.921-0.018 1.174l1.213 4.376 0.404-0.403c2.517-2.512 3.904-5.862 3.904-9.433 0-7.352-6-13.333-13.387-13.333zM12.697 4.383c-0.104 0.665-0.739 1.133-1.452 1.064-0.532-0.051-1.043 0.296-1.17 0.778-0.085 0.32 0.010 0.746 0.56 0.996l1.298 0.448c0.234 0.073 0.318 0.291 0.317 0.472s-0.084 0.396-0.357 0.482c-0.047 0.020-0.209 0.072-0.414 0.14-1.155 0.382-1.39 0.471-1.472 0.607-0.136 0.129-0.312 0.267-0.5 0.416-0.707 0.56-1.587 1.257-1.506 2.14v1.216c0.004 0.139-0.119 0.171-0.173 0.178s-0.181 0.010-0.218-0.133l-0.31-1.114c-0.104-0.372-0.434-0.624-0.855-0.624-0.044 0-0.089 0.003-0.134 0.008-0.156 0.048-0.37 0.184-0.402 0.207-0.907 0.466-1.545 0.19-1.854-0.028 1.383-4.051 4.548-6.86 8.75-7.901l-0.108 0.647zM25.368 24.51l-0.912-3.288c-0.054-0.146 0.015-0.661 0.045-0.881 0.012-0.090 0.022-0.169 0.028-0.225 0.058-0.504-0.137-1.003-0.52-1.335-0.282-0.244-0.639-0.374-1.004-0.374-0.131 0-0.263 0.017-0.392 0.051-0.164 0.043-0.336 0.038-0.496-0.016l-1.729-0.573c-0.667-0.163-0.914-0.992-1.132-1.724-0.040-0.132-0.078-0.26-0.116-0.375-0.139-0.438-0.076-0.911 0.191-1.332 0.81-1.656 2.919-2.602 4.909-2.2 0.419 0.083 0.857-0.012 1.202-0.263s0.573-0.638 0.625-1.104c-0.001-0.080 0.020-0.192 0.041-0.317 0.072-0.436 0.178-1.088-0.265-1.388-0.293-0.28-0.704-0.419-1.084-0.36-0.353 0.054-0.638 0.263-0.804 0.586-0.095 0.183-0.305 0.279-0.492 0.241-0.708-0.174-1.779-0.438-2.594 0.12-0.113 0.066-0.223 0.135-0.329 0.202-0.226 0.142-0.569 0.354-0.667 0.315-0.006-0.002-0.13-0.060-0.243-0.582-0.025-0.088 0.012-0.181 0.091-0.227 0 0 2.118-1.231 2.161-1.257 0.473-0.265 0.52-0.793 0.322-1.178-0.227-0.44-0.702-0.613-1.126-0.412l-0.819 0.371c-0.090 0.046-0.285-0.084-0.476-0.212-0.121-0.077-0.146-0.161 0.118-0.643l0.034-0.066c0.137-0.339 0.649-0.811 1.060-1.19 0.14-0.13 0.273-0.253 0.387-0.365 4.307 2.030 7.294 6.404 7.294 11.459 0 3.198-1.17 6.21-3.308 8.543z"/>
</svg>
