<svg version="1.1" xmlns="http://www.w3.org/2000/svg" width="32" height="32" viewBox="0 0 32 32">
    <path fill="currentColor" d="M28.939 18.475c-0.363-0.515-1.081-0.95-2.439-0.096l-1.916 1.109c-0.669-1.167-2.537-2.053-4.572-2.144 0.016-1.622 0.301-3.195 0.813-4.643 0.054 0.002 0.112 0.011 0.165 0.011 1.002 0 1.854-0.314 2.54-0.937 1.919-1.746 1.809-5.303 1.803-5.453l-0.015-0.398-0.389 0.085c-0.148 0.033-3.658 0.82-4.872 3.147-0.52 0.995-0.53 2.107-0.031 3.307l0.074 0.177 0.043 0.006c-0.194 0.572-0.36 1.158-0.484 1.761-0.234-1.127-0.586-2.233-1.043-3.291 0.596-1.44 0.593-2.772-0.014-3.96-1.39-2.721-5.406-3.709-5.859-3.813l-0.388-0.089-0.019 0.397c-0.023 0.46-0.156 4.551 2.070 6.617 0.827 0.768 1.872 1.155 3.113 1.155 0.152 0 0.314-0.018 0.472-0.030 0.82 1.9 1.294 3.953 1.336 5.958-1.518 0.078-2.984 0.648-3.707 1.245l-1.822-0.569c-0.822-0.344-3.609-1.352-5.017 0.059l-6.106 5.427-0.006 0.141c-0.005 0.13-0.089 3.21 3.52 4.979l0.163 0.080 3.503-2.125c0.987-0.663 2.073-0.877 3.042-0.605l3.016 1.005c1.966 0.552 4.115 0.281 5.617-0.716l6.99-4.993c0.405-0.269 0.679-0.692 0.773-1.193 0.104-0.558-0.024-1.145-0.352-1.61zM20.648 9.463c0.846-1.62 3.090-2.425 4.016-2.696-0.031 0.956-0.249 3.3-1.582 4.514-0.537 0.488-1.215 0.728-2.008 0.748 0.666-1.605 1.619-3.025 2.818-4.116l-0.449-0.493c-1.256 1.143-2.254 2.625-2.957 4.296-0.234-0.818-0.191-1.576 0.163-2.253zM14.857 9.779c-1.681-1.561-1.859-4.576-1.865-5.682 1.071 0.306 3.962 1.302 5.014 3.361 0.43 0.84 0.497 1.777 0.207 2.791-0.919-1.842-2.162-3.508-3.659-4.832l-0.441 0.499c1.465 1.296 2.686 2.976 3.58 4.832-1.148 0.035-2.1-0.287-2.835-0.97zM19.667 18c1.922 0 3.766 0.801 4.331 1.826l-3.19 1.847c-0.068-0.83-0.63-1.485-1.708-1.991l-2.678-0.836c0.774-0.452 2.049-0.846 3.245-0.846zM28.635 19.962c-0.061 0.322-0.233 0.592-0.496 0.767l-6.99 4.993c-1.314 0.872-3.298 1.118-5.044 0.628l-3.016-1.005c-1.174-0.329-2.456-0.085-3.596 0.681l-3.175 1.926c-2.684-1.395-2.958-3.569-2.984-4.137l5.901-5.246c0.898-0.897 2.812-0.551 4.331 0.082l5.291 1.65c1.454 0.686 1.417 1.491 1.16 2.259-0.223 0.663-0.915 1.010-1.579 0.79l-4.969-1.657c-0.169-0.094-0.906-0.466-1.587-0.264-0.368 0.11-0.662 0.371-0.85 0.757l0.6 0.292c0.106-0.219 0.249-0.353 0.438-0.41 0.393-0.118 0.921 0.116 1.091 0.217l5.065 1.697c1.020 0.34 2.081-0.193 2.422-1.211 0.032-0.097 0.060-0.192 0.083-0.285l6.112-3.538c1.117-0.703 1.419-0.274 1.55-0.090 0.221 0.314 0.311 0.727 0.241 1.103z"/>
</svg>
