<svg version="1.1" xmlns="http://www.w3.org/2000/svg" width="32" height="32" viewBox="0 0 32 32">
    <path fill="currentColor" d="M26 6.862v-1.658l-0.439 0.146c-0.946 0.328-2.044 0.559-3.182 0.647l-0.046 0.003h-0.079l-0.070 0.035c-1.762 1.016-3.036 2.71-3.474 4.716l-0.009 0.048c-2.132 1.35-4.728 2.15-7.511 2.15-0.951 0-1.881-0.094-2.779-0.272l0.090 0.015c-0.37-0.387-1.973-1.951-3.609-1.836-2.998 0.44-2.557 3.947-2.321 5.831 0.044 0.278 0.078 0.616 0.094 0.958l0.001 0.022v0.462l0.439-0.146c1.855-0.618 2.632-3.67 2.835-4.638 0.538 0.048 0.713 0.232 0.727 0.322v0.12c-0.617 0.631-0.998 1.495-0.998 2.449 0 0.526 0.116 1.024 0.323 1.472l-0.009-0.022c-0.135 0.488-0.775 2.635-1.885 3.745l-0.146 0.146 0.065 0.195c0.013 0.040 1.316 3.972 1.316 5.895v0.333h2.872l-0.241-0.482c-0.671-1.284-1.131-2.784-1.293-4.372l-0.004-0.052 1.075-1.72c0.046 0.631 0.141 1.214 0.282 1.779l-0.015-0.071 0.038 0.090c0.543 0.905 1.952 3.478 1.952 4.495v0.333h2.956l-0.346-0.518c-0.734-1.111-1.388-2.386-1.899-3.732l-0.045-0.135c0.049-1.549 0.464-2.991 1.16-4.257l-0.025 0.049c2.794 0.993 6.281 0.319 7.506 0.028-0.095 2.966 1.307 8.092 1.37 8.32l0.068 0.245h2.746l-0.183-0.457c-0.761-2.151-1.23-4.633-1.292-7.215l-0.001-0.029 0.878 0.351c0.018 0.006 1.772 0.62 1.772 1.684-0.070 0.434-0.275 0.812-0.569 1.098l-0 0-0.192 0.193 1.863 2.793 0.882-2.647c0.811-2.433-0.253-3.847-0.747-4.341-0.48-0.377-1.020-0.721-1.594-1.009l-0.055-0.025c-0.443-0.249-1.021-0.575-1.584-0.923 0.032-3.856 0.998-5.804 1.225-6.207 0.131 0.040 0.281 0.064 0.436 0.066l0.001 0h0.592c0.98 0.422 2.12 0.667 3.318 0.667 0.031 0 0.063-0 0.094-0.001l-0.005 0h0.138l0.098-0.098c0.429-0.397 0.713-0.945 0.764-1.56l0.001-0.009v-0.138zM5.667 12.667h-0.282l-0.047 0.278c-0.16 0.957-0.818 3.385-2.040 4.204-0.018-0.167-0.040-0.35-0.065-0.545-0.301-2.4-0.414-4.77 1.73-5.085 1.096-0.072 2.27 0.885 2.813 1.395-0.215 0.126-0.398 0.25-0.572 0.385l0.012-0.009c-0.166-0.284-0.568-0.624-1.549-0.624zM22.518 27.333h-1.262c-0.279-1.065-1.356-5.342-1.284-7.852l1.367 0.547c0.046 2.623 0.474 5.13 1.23 7.49l-0.051-0.184zM28.192 11.332c-1.101-0.004-2.146-0.236-3.093-0.65l0.050 0.020-0.070-0.035h-0.745c-0.552-0.001-0.999-0.448-1-1v-0h-0.667c0.002 0.525 0.248 0.993 0.63 1.295l0.003 0.003c-0.291 0.519-1.195 2.422-1.29 6.084-0.75-0.51-1.344-1.022-1.344-1.382v-0.333h-0.667v0.333c0 1.022 1.702 2.061 3.927 3.311 0.577 0.296 1.070 0.603 1.534 0.946l-0.030-0.021c0.407 0.408 1.279 1.579 0.586 3.659l-0.451 1.353-0.812-1.219c0.325-0.365 0.537-0.835 0.579-1.354l0.001-0.008c0-1.556-2.137-2.286-2.21-2.309l-3.439-1.376-0.11 0.031c-0.044 0.013-4.598 1.287-7.785 0.011l-0.251-0.101-0.15 0.225c-0.843 1.386-1.355 3.056-1.389 4.842l-0 0.009 0.017 0.105c0.494 1.366 1.071 2.541 1.758 3.64l-0.046-0.079h-1.091c-0.226-1.443-1.713-3.992-1.993-4.462-0.167-0.811-0.262-1.744-0.262-2.699 0-0.979 0.1-1.935 0.292-2.858l-0.016 0.091-0.651-0.145c-0.184 0.873-0.294 1.879-0.304 2.91l-0 0.008-1.704 2.726v0.096c0.118 1.595 0.526 3.069 1.172 4.406l-0.032-0.072h-1.151c-0.266-2.090-0.713-3.977-1.338-5.781l0.060 0.2c0.88-1.13 1.551-2.47 1.928-3.929l0.017-0.076 0.026-0.104-0.040-0.1c-0.171-0.375-0.271-0.813-0.271-1.275 0-1.321 0.818-2.452 1.975-2.912l0.021-0.007c0.862 0.181 1.853 0.285 2.868 0.285 2.96 0 5.713-0.881 8.013-2.396l-0.055 0.034 0.107-0.076 0.026-0.129c0.387-1.877 1.518-3.436 3.064-4.383l0.029-0.017c1.066-0.073 2.058-0.268 3.002-0.571l-0.089 0.025v1.019l3.318 3.318c-0.075 0.342-0.237 0.639-0.461 0.877l0.001-0.001z"/>
</svg>
