<svg version="1.1" xmlns="http://www.w3.org/2000/svg" width="32" height="32" viewBox="0 0 32 32">
    <path fill="currentColor" d="M22.133 24.393l0.36 0.56c3.507-2.24 5.6-6.047 5.6-10.187h-0.667c0 3.913-1.98 7.513-5.287 9.627z"/>
    <path fill="currentColor" d="M23.013 12c0.927 0 1.673-0.753 1.673-1.673s-0.753-1.673-1.673-1.673-1.673 0.753-1.673 1.673 0.753 1.673 1.673 1.673zM23.013 9.32c0.553 0 1.007 0.453 1.007 1.007s-0.453 1.007-1.007 1.007-1.007-0.453-1.007-1.007 0.453-1.007 1.007-1.007z"/>
    <path fill="currentColor" d="M25.347 15.333h0.667c0-1.653-1.347-3-3-3s-3 1.347-3 3h0.667c0-1.287 1.047-2.333 2.333-2.333s2.333 1.047 2.333 2.333z"/>
    <path fill="currentColor" d="M26.353 10c0.92 0 1.673-0.753 1.673-1.673s-0.753-1.673-1.673-1.673-1.673 0.753-1.673 1.673 0.753 1.673 1.673 1.673zM26.353 7.32c0.553 0 1.007 0.453 1.007 1.007s-0.453 1.007-1.007 1.007-1.007-0.453-1.007-1.007 0.453-1.007 1.007-1.007z"/>
    <path fill="currentColor" d="M21.34 8.327c0-0.92-0.753-1.673-1.673-1.673s-1.673 0.753-1.673 1.673 0.753 1.673 1.673 1.673 1.673-0.753 1.673-1.673zM19.667 9.333c-0.553 0-1.007-0.453-1.007-1.007s0.453-1.007 1.007-1.007 1.007 0.453 1.007 1.007-0.453 1.007-1.007 1.007z"/>
    <path fill="currentColor" d="M26.353 10.333c-0.36 0-0.7 0.073-1.020 0.187v0.72c0.307-0.153 0.653-0.247 1.020-0.247 1.287 0 2.333 1.047 2.333 2.333h0.667c0-1.653-1.347-3-3-3z"/>
    <path fill="currentColor" d="M16.667 13.333h0.667c0-1.287 1.047-2.333 2.333-2.333 0.36 0 0.693 0.087 1 0.233v-0.713c-0.313-0.113-0.647-0.187-1-0.187-1.653 0-3 1.347-3 3z"/>
    <path fill="currentColor" d="M12.733 14.013c1.1-0.893 1.807-2.613 1.8-4.38v-0.373s-0.373 0.047-0.373 0.047c-1.78 0.207-3.42 1.133-4.173 2.347-0.487 0.787-0.593 1.673-0.333 2.573-0.033 0.067-0.080 0.127-0.107 0.193-0.080-0.18-0.18-0.353-0.273-0.533 0.413-1.273 0.28-2.52-0.4-3.627-1.047-1.687-3.327-2.96-5.82-3.253l-0.373-0.047v0.373c-0.013 2.413 0.967 4.78 2.493 6.020 0.807 0.653 1.747 0.987 2.76 0.987 0.26 0 0.527-0.027 0.793-0.073 0.2 0.38 0.367 0.773 0.493 1.167h0.633c0.087-0.273 0.187-0.52 0.307-0.753 0.193 0.033 0.38 0.053 0.567 0.053 0.733 0 1.42-0.24 2-0.713zM5.6 12.833c-1.28-1.040-2.153-3.060-2.24-5.12 1.813 0.3 3.947 1.28 4.947 2.893 0.473 0.767 0.633 1.587 0.487 2.453-1.187-1.833-2.887-3.393-3.98-4.293l-0.42 0.513c1.107 0.907 2.86 2.507 3.993 4.353-1.040 0.113-1.973-0.153-2.787-0.813zM12.073 11.28l-0.227 0.22c-0.553 0.54-1.147 1.133-1.653 1.847-0.013-0.473 0.1-0.927 0.367-1.347 0.587-0.947 1.88-1.713 3.3-1.98-0.087 1.413-0.687 2.773-1.54 3.473-0.52 0.42-1.127 0.593-1.793 0.547 0.507-0.8 1.153-1.44 1.793-2.067l0.227-0.22-0.467-0.473z"/>
    <path fill="currentColor" d="M4.58 14.767h-0.667c0 4.307 2.333 8.327 6.080 10.48v-0.013s0.007-0.767 0.007-0.767c-3.353-2.080-5.42-5.753-5.42-9.7z"/>
    <path fill="currentColor" d="M16 3.347c3.053 0 5.927 1.2 8.093 3.38l0.473-0.473c-2.287-2.307-5.333-3.573-8.56-3.573s-6.393 1.34-8.667 3.687v0.973c2.18-2.54 5.327-4 8.667-4z"/>
    <path fill="currentColor" d="M10.88 18.407c0.013 0.053 1.153 5.433 1.153 10.567v0.333h7.933v-0.333c0-5.133 1.147-10.513 1.153-10.567l0.087-0.4h-10.42l0.087 0.4zM17.667 28.64h-0.667v-1.307h0.667v1.307zM16.333 28.64h-0.667v-1.307h0.667v1.307zM15 28.64h-0.667v-1.307h0.667v1.307zM20.387 18.667c-0.26 1.32-1.047 5.687-1.087 9.973h-0.967v-1.973h-4.667v1.973h-0.967c-0.040-4.287-0.827-8.647-1.087-9.973h8.78z"/>
    <path fill="currentColor" d="M14.873 24.267h2.253v-0.953h0.953s0-2.253 0-2.253h-0.953v-0.953h-2.253v0.947s-0.953 0-0.953 0v2.253h0.947s0 0.947 0 0.947zM14.587 21.727h0.947s0-0.947 0-0.947h0.92v0.947h0.953v0.927h-0.953s0 0.953 0 0.953h-0.92v-0.953s-0.953 0-0.953 0v-0.92z"/>
</svg>
