<svg version="1.1" xmlns="http://www.w3.org/2000/svg" width="32" height="32" viewBox="0 0 32 32">
    <path fill="currentColor" d="M12.667 13.333h2v0.667h-2v-0.667z"/>
    <path fill="currentColor" d="M17.32 13.333h2v0.667h-2v-0.667z"/>
    <path fill="currentColor" d="M22 13.333h2v0.667h-2v-0.667z"/>
    <path fill="currentColor" d="M8 15.993h2v0.667h-2v-0.667z"/>
    <path fill="currentColor" d="M12.667 15.993h2v0.667h-2v-0.667z"/>
    <path fill="currentColor" d="M17.347 15.993h2v0.667h-2v-0.667z"/>
    <path fill="currentColor" d="M22 15.993h2v0.667h-2v-0.667z"/>
    <path fill="currentColor" d="M8 18.653h2v0.667h-2v-0.667z"/>
    <path fill="currentColor" d="M12.667 18.653h2v0.667h-2v-0.667z"/>
    <path fill="currentColor" d="M17.347 18.653h2v0.667h-2v-0.667z"/>
    <path fill="currentColor" d="M8 21.313h2v0.667h-2v-0.667z"/>
    <path fill="currentColor" d="M12.667 21.313h2v0.667h-2v-0.667z"/>
    <path fill="currentColor" d="M17.32 21.313h2v0.667h-2v-0.667z"/>
    <path fill="currentColor" d="M29.34 18.34l-0.573-0.333c-0.233 0.393-0.487 0.773-0.753 1.14-0.347-0.52-0.807-0.96-1.353-1.273v-11.207h-4.007v-1.333h-0.667v1.333h-11.973v-1.333h-0.667v1.333h-4.007v20.013h21.32v-1.88c1.2-0.693 2.007-1.987 2.007-3.46 0-0.547-0.113-1.067-0.307-1.54 0.36-0.46 0.687-0.947 0.98-1.453zM9.347 7.333v1.333h0.667v-1.333h11.973v1.333h0.667v-1.333h3.34v2.667h-19.987v-2.667h3.34zM25.993 26.013h-19.987v-15.347h19.987v6.9c-0.413-0.147-0.86-0.233-1.327-0.233-2.207 0-4 1.793-4 4s1.793 4 4 4c0.467 0 0.913-0.087 1.327-0.233v0.907zM28 21.333c0 1.84-1.493 3.333-3.333 3.333s-3.333-1.493-3.333-3.333 1.493-3.333 3.333-3.333c1.247 0 2.327 0.7 2.893 1.713-0.9 1.087-1.96 2.007-3.107 2.673-0.747-0.473-1.413-1.167-1.94-2.007l-0.567 0.353c0.627 0.993 1.433 1.8 2.333 2.327l0.167 0.093 0.167-0.093c1.187-0.66 2.293-1.573 3.24-2.66 0.087 0.293 0.147 0.6 0.147 0.927z"/>
</svg>
