<svg version="1.1" xmlns="http://www.w3.org/2000/svg" width="32" height="32" viewBox="0 0 32 32">
    <path fill="currentColor" d="M29.281 15.834c-0.010-0.018-0.023-0.034-0.033-0.052l0.002-0.002c-0.003-0.004-0.007-0.007-0.011-0.011-2.737-4.583-7.802-7.428-13.24-7.428s-10.502 2.845-13.24 7.428c-0.003 0.004-0.007 0.007-0.011 0.011l0.002 0.002c-0.011 0.018-0.023 0.034-0.033 0.052l-0.098 0.166 0.098 0.166c2.728 4.622 7.817 7.494 13.281 7.494s10.553-2.871 13.281-7.494l0.098-0.166-0.098-0.166zM16 8.993c4.189 0 8.147 1.761 10.899 4.733-2.825-1.928-6.65-3.037-10.786-3.057-0.038-0.001-0.075-0.006-0.113-0.006s-0.075 0.005-0.113 0.006c-4.136 0.020-7.961 1.128-10.786 3.057 2.752-2.971 6.71-4.733 10.899-4.733zM20.663 16c0 2.572-2.092 4.663-4.663 4.663s-4.663-2.092-4.663-4.663 2.092-4.663 4.663-4.663 4.663 2.092 4.663 4.663zM16 23.007c-5.148 0-9.947-2.661-12.587-6.958 2.166-2.352 5.706-3.981 9.683-4.52-1.462 0.953-2.433 2.6-2.433 4.471 0 2.943 2.394 5.337 5.337 5.337s5.337-2.394 5.337-5.337c0-1.872-0.97-3.518-2.433-4.471 3.978 0.539 7.517 2.168 9.683 4.52-2.641 4.298-7.439 6.958-12.587 6.958zM13 16c0-1.657 1.343-3 3-3s3 1.343 3 3-1.343 3-3 3-3-1.343-3-3z"/>
</svg>
