<svg version="1.1" xmlns="http://www.w3.org/2000/svg" width="32" height="32" viewBox="0 0 32 32">
    <path fill="currentColor" d="M29.187 6.667h-0.67c-0.243 1.599-0.398 3.47-0.431 5.372l-0 0.038c-1.694 0.72-3.659 1.174-5.72 1.256l-0.032 0.001c-0.995-0.027-1.896-0.405-2.591-1.013l0.005 0.004c-1.015-0.825-2.323-1.325-3.747-1.325s-2.733 0.5-3.758 1.333l0.011-0.009c-0.69 0.604-1.591 0.981-2.58 1.008l-0.006 0c-2.093-0.083-4.059-0.538-5.863-1.299l0.11 0.041c-0.033-1.939-0.189-3.811-0.46-5.644l0.029 0.235h-0.67c1.053 7.305-0.124 12.202-0.136 12.253l-0.046 0.183 0.133 0.133c0.054 0.054 5.503 5.425 13.193 6.428l0.043 0.005 0.043-0.005c7.69-1.003 13.139-6.374 13.193-6.428l0.133-0.133-0.046-0.183c-0.012-0.051-1.189-4.948-0.136-12.253zM16 24.997c-6.788-0.902-11.776-5.307-12.633-6.109 0.352-1.761 0.554-3.785 0.554-5.856 0-0.083-0-0.165-0.001-0.248l0 0.013c1.696 0.698 3.661 1.133 5.719 1.202l0.028 0.001c1.138-0.027 2.173-0.45 2.977-1.136l-0.007 0.005c0.907-0.749 2.082-1.203 3.363-1.203s2.456 0.454 3.372 1.21l-0.009-0.007c0.797 0.68 1.832 1.103 2.964 1.13l0.006 0c2.086-0.069 4.051-0.505 5.86-1.244l-0.113 0.041c-0.001 0.069-0.001 0.152-0.001 0.234 0 2.072 0.202 4.096 0.587 6.055l-0.032-0.198c-0.858 0.801-5.845 5.207-12.634 6.109zM11.333 16.8c1.407 0.283 3.025 0.444 4.68 0.444 1.646 0 3.254-0.16 4.81-0.465l-0.157 0.026v0.676c-1.341 0.286-2.882 0.449-4.461 0.449-0.010 0-0.019 0-0.029-0h0.002c-1.714-0.001-3.389-0.164-5.011-0.474l0.166 0.026zM20.667 20.148c-1.341 0.286-2.882 0.449-4.461 0.449-0.010 0-0.019 0-0.029-0h0.002c-1.714-0.001-3.389-0.164-5.011-0.474l0.166 0.026v-0.683c1.407 0.283 3.025 0.444 4.68 0.444 1.646 0 3.254-0.16 4.81-0.465l-0.157 0.026z"/>
</svg>
