<svg version="1.1" xmlns="http://www.w3.org/2000/svg" width="32" height="32" viewBox="0 0 32 32">
    <path fill="currentColor" d="M16 17.333c-0.008-0-0.017-0-0.026-0-3.398 0-6.464 1.421-8.636 3.7l-0.005 0.005v-5.038h-0.667v5.333c-0.002 0.54-0.261 1.020-0.662 1.322l-0.004 0.003v-6.658h-0.667v6.966c-0.1 0.021-0.215 0.034-0.333 0.034s-0.233-0.012-0.344-0.036l0.011 0.002v-6.966h-0.667v6.658c-0.405-0.305-0.665-0.784-0.667-1.325v-5.334h-0.667v5.333c0.004 1.072 0.73 1.973 1.717 2.241l0.016 0.004c-0.040 0.065-0.064 0.142-0.066 0.226v0.391c0.002 0.209 0.14 0.384 0.33 0.442l0.003 0.001v4.695h0.666v-4.695c0.193-0.059 0.331-0.235 0.333-0.443v-0.391c-0.002-0.084-0.027-0.162-0.068-0.228l0.001 0.002c0.684-0.187 1.232-0.659 1.518-1.276l0.006-0.014c0.471-0.583 0.976-1.1 1.526-1.566l0.017-0.014v8.626h0.667v-9.149c0.383-0.284 0.819-0.562 1.274-0.81l0.059-0.029v5.322h10.667v-5.328c0.513 0.281 0.949 0.562 1.363 0.871l-0.030-0.021v9.145h0.667v-8.625c2.453 2.087 3.999 5.175 4 8.625v0h0.667c-0.008-6.624-5.376-11.992-11.999-12h-0.001zM20.667 24h-9.333v-4.988c1.369-0.639 2.971-1.012 4.661-1.012 1.694 0 3.3 0.375 4.741 1.046l-0.069-0.029zM10.038 10.656c0.341 3.019 2.88 5.344 5.962 5.344s5.621-2.325 5.96-5.316l0.003-0.027c2.225-0.136 4.251-0.886 5.94-2.080l-0.036 0.024 0.432-0.324-0.482-0.241c-1.626-0.734-3.513-1.287-5.487-1.566l-0.112-0.013c-1.187-2.268-3.525-3.79-6.217-3.79s-5.030 1.521-6.199 3.751l-0.018 0.038c-2.086 0.292-3.973 0.845-5.731 1.632l0.134-0.053-0.482 0.241 0.431 0.324c1.653 1.171 3.679 1.92 5.872 2.055l0.032 0.002zM16 15.333c-2.944-0.004-5.33-2.389-5.333-5.333v-0c0-0 0-0.001 0-0.001 0-1.174 0.384-2.259 1.032-3.135l-0.010 0.014c1.182-0.135 2.552-0.211 3.939-0.211 0.013 0 0.027 0 0.040 0h0.665c0.011 0 0.025-0 0.038-0 1.386 0 2.755 0.077 4.101 0.226l-0.166-0.015c0.641 0.862 1.026 1.947 1.026 3.122v0c-0.003 2.944-2.389 5.33-5.333 5.333h-0zM21.999 9.982c-0.001-1.105-0.303-2.139-0.83-3.025l0.015 0.027c2.153 0.268 4.106 0.763 5.955 1.469l-0.174-0.058c-1.417 0.885-3.113 1.459-4.933 1.585l-0.034 0.002zM16 3.333c0.002 0 0.005 0 0.008 0 2.256 0 4.235 1.188 5.345 2.972l0.015 0.027c-1.489-0.211-3.209-0.332-4.957-0.332-0.028 0-0.056 0-0.083 0h-0.662c-0.024-0-0.052-0-0.080-0-1.748 0-3.467 0.121-5.151 0.354l0.195-0.022c1.126-1.811 3.106-2.998 5.362-2.998 0.002 0 0.005 0 0.007 0h-0zM10.816 6.984c-0.512 0.858-0.815 1.893-0.816 2.997v0c-1.853-0.128-3.549-0.701-5.013-1.613l0.046 0.027c1.676-0.648 3.63-1.143 5.658-1.398l0.125-0.013z"/>
</svg>
