<svg version="1.1" xmlns="http://www.w3.org/2000/svg" width="32" height="32" viewBox="0 0 32 32">
    <path fill="currentColor" d="M23.667 19.333c-0.007-0-0.015-0-0.022-0-0.54 0-0.978 0.438-0.978 0.978 0 0.008 0 0.016 0 0.024l-0-0.001c0 3.991-2.723 7-6.333 7-2.334-0.085-4.345-1.394-5.417-3.301l-0.017-0.032h7.768v-0.333c-0.030-0.936-0.554-1.743-1.318-2.172l-0.013-0.007c0.041-1.975 0.769-3.007 1.855-4.546 0.239-0.339 0.492-0.697 0.754-1.091 1.329-1.993-0.298-5.057-0.611-5.608v-0.275c0.212 0.024 0.457 0.038 0.706 0.038 0.11 0 0.22-0.003 0.329-0.008l-0.015 0.001c0.636-0.018 1.199-0.319 1.568-0.781l0.003-0.004c0.228-0.225 0.369-0.536 0.369-0.881 0-0.355-0.15-0.675-0.389-0.901l-0.001-0.001c-0.075-0.072-0.159-0.135-0.25-0.188l-0.006-0.003c-0.175-0.108-0.313-0.194-0.313-0.906 0-0.598-0.389-0.838-0.765-1.070-0.251-0.145-0.468-0.309-0.663-0.496l0.001 0.001c-0.020-0.021-0.482-0.539 0.058-1.619l0.447-0.895-0.895 0.447c-0.883 0.425-1.617 0.843-2.322 1.303l0.079-0.048c-0.721 0.445-1.305 1.047-1.715 1.763l-0.013 0.024c-0.364 0.766-0.633 1.655-0.762 2.589l-0.005 0.048c-0.035 0.187-0.069 0.372-0.105 0.554-0.119 0.596-0.187 1.061-0.241 1.436-0.195 1.343-0.195 1.343-2.455 2.446-0.328 0.16-0.701 0.342-1.126 0.552-1.424 0.718-2.518 1.918-3.082 3.381l-0.015 0.043c-0.351 0.957-0.554 2.061-0.554 3.213 0 0.399 0.024 0.793 0.072 1.179l-0.005-0.046c0.258 2.237 1.31 4.19 2.862 5.602l0.007 0.006c1.609 1.552 3.784 2.527 6.185 2.586l0.012 0c4.673 0 8.333-3.953 8.333-9 0-0.007 0-0.015 0-0.022 0-0.54-0.438-0.978-0.978-0.978-0.008 0-0.016 0-0.024 0l0.001-0zM16.333 28.667c-2.237-0.059-4.252-0.966-5.744-2.409l0.002 0.002c-1.444-1.311-2.419-3.116-2.657-5.147l-0.004-0.039c-0.041-0.32-0.064-0.691-0.064-1.068 0-1.067 0.187-2.091 0.53-3.040l-0.020 0.062c0.518-1.348 1.496-2.421 2.738-3.049l0.032-0.015c0.423-0.21 0.794-0.391 1.121-0.55 2.432-1.186 2.577-1.257 2.823-2.949 0.053-0.365 0.118-0.819 0.235-1.4 0.037-0.186 0.072-0.374 0.107-0.563 0.125-0.912 0.371-1.738 0.726-2.504l-0.022 0.054c0.371-0.638 0.88-1.158 1.489-1.531l0.019-0.011c0.395-0.265 0.865-0.543 1.349-0.797l0.086-0.041c-0.036 0.132-0.056 0.284-0.056 0.44 0 0.428 0.154 0.821 0.409 1.125l-0.002-0.003c0.23 0.223 0.488 0.42 0.768 0.584l0.019 0.010c0.369 0.228 0.449 0.296 0.449 0.503 0 1.003 0.285 1.261 0.63 1.473 0.051 0.029 0.095 0.060 0.136 0.096l-0.001-0.001c0.12 0.106 0.195 0.26 0.195 0.431s-0.075 0.325-0.194 0.43l-0.001 0.001-0.043 0.053c-0.255 0.314-0.641 0.514-1.074 0.517h-0c-0.111 0.011-0.239 0.017-0.369 0.017-0.714 0-1.384-0.185-1.965-0.511l0.020 0.010v-0.851h-0.667v1.138l0.098 0.098c0.336 0.304 0.755 0.522 1.219 0.617l0.017 0.003v0.57l0.048 0.079c0.019 0.032 1.875 3.177 0.675 4.977-0.258 0.388-0.508 0.742-0.744 1.076-1.105 1.567-1.979 2.805-1.979 5.109l0.012 0.087c0.033 0.105 0.106 0.188 0.201 0.234l0.002 0.001c0.528 0.279 0.919 0.756 1.080 1.329l0.004 0.015h-1.993c-0.14-0.736-0.561-1.355-1.145-1.751l-0.009-0.006c0.324-0.524 0.517-1.16 0.517-1.841 0-0.024-0-0.048-0.001-0.072l0 0.004c0-2.257-2.244-2.999-3.331-3.006l-0.004 0.667c0.871 0.005 2.669 0.583 2.669 2.339 0.002 0.041 0.004 0.088 0.004 0.136 0 0.619-0.216 1.187-0.576 1.633l0.004-0.005-0.324 0.326 0.41 0.208c0.531 0.293 0.928 0.775 1.104 1.353l0.004 0.016h-5.501l0.245 0.484c1.136 2.418 3.511 4.083 6.285 4.182l0.013 0c3.991 0 7-3.296 7-7.667 0-0.184 0.149-0.333 0.333-0.333s0.333 0.149 0.333 0.333v0c0 4.673-3.368 8.333-7.667 8.333z"/>
</svg>
