<svg version="1.1" xmlns="http://www.w3.org/2000/svg" width="32" height="32" viewBox="0 0 32 32">
    <path fill="currentColor" d="M22.462 17.462c3.379-3.379 3.379-8.878 0-12.257-1.637-1.637-3.813-2.538-6.128-2.538s-4.492 0.902-6.128 2.538c-3.379 3.379-3.379 8.878 0 12.257 1.557 1.557 3.606 2.439 5.795 2.522v4.508c-2.165 0.046-3.666 0.493-3.764 0.523l0.195 0.638c0.023-0.007 1.474-0.44 3.569-0.488v4.169h0.667v-4.17c1.089 0.020 2.312 0.151 3.58 0.492l0.173-0.643c-1.337-0.36-2.617-0.5-3.753-0.521v-4.507c2.189-0.083 4.237-0.965 5.795-2.522zM10.676 5.676c1.511-1.511 3.52-2.343 5.657-2.343s4.146 0.832 5.657 2.343c3.119 3.119 3.119 8.195 0 11.314-1.511 1.511-3.52 2.343-5.657 2.343s-4.146-0.832-5.657-2.343c-3.119-3.119-3.119-8.195 0-11.314z"/>
</svg>
