<svg version="1.1" xmlns="http://www.w3.org/2000/svg" width="32" height="32" viewBox="0 0 32 32">
    <path fill="currentColor" d="M16 2.599c-7.352 0-13.333 5.981-13.333 13.333s5.981 13.333 13.333 13.333 13.333-5.981 13.333-13.333-5.981-13.333-13.333-13.333zM16 28.599c-6.984 0-12.667-5.682-12.667-12.667s5.682-12.667 12.667-12.667 12.667 5.682 12.667 12.667-5.682 12.667-12.667 12.667zM11.903 11.902l1.761-1.761c0.013 0.441-0.016 0.866-0.016 0.873l0.665 0.046c0.003-0.044 0.074-1.102-0.064-1.722l-0.046-0.206-0.206-0.046c-0.622-0.139-1.678-0.067-1.722-0.064l0.046 0.665c0.006-0.001 0.432-0.029 0.873-0.016l-1.76 1.76c-0.593-0.486-1.321-0.764-2.098-0.764-0.891 0-1.727 0.347-2.357 0.977s-0.977 1.466-0.977 2.357 0.347 1.727 0.977 2.357 1.466 0.977 2.357 0.977 1.727-0.347 2.357-0.977 0.977-1.466 0.977-2.357c0-0.777-0.278-1.505-0.764-2.098zM11.219 15.885c-1.008 1.008-2.763 1.008-3.771 0-0.504-0.504-0.781-1.173-0.781-1.885s0.277-1.382 0.781-1.885 1.173-0.781 1.885-0.781 1.382 0.277 1.885 0.781 0.781 1.173 0.781 1.885-0.277 1.382-0.781 1.885zM21.333 8c-1.838 0-3.333 1.495-3.333 3.333 0 1.724 1.32 3.13 3 3.3v1.222c-0.361 0.021-0.722 0.066-1.081 0.155l0.161 0.647c0.305-0.076 0.612-0.115 0.919-0.135v1.479h0.667v-1.479c0.307 0.020 0.614 0.059 0.919 0.135l0.161-0.647c-0.359-0.090-0.72-0.134-1.081-0.155v-1.222c1.68-0.17 3-1.576 3-3.3 0-1.838-1.495-3.333-3.333-3.333zM21.333 14c-1.471 0-2.667-1.196-2.667-2.667s1.196-2.667 2.667-2.667 2.667 1.196 2.667 2.667-1.196 2.667-2.667 2.667zM16.333 19.034v-0.913c0.257 0.239 0.402 0.415 0.405 0.419l0.523-0.413c-0.019-0.024-0.258-0.322-0.689-0.689 0.494-0.31 0.868-0.456 0.875-0.458l-0.229-0.626c-0.029 0.010-0.393 0.148-0.886 0.445v-1.132h-0.667v1.128c-0.265-0.158-0.553-0.31-0.878-0.438l-0.245 0.62c0.336 0.133 0.637 0.294 0.903 0.461-0.234 0.197-0.47 0.417-0.698 0.677l0.501 0.439c0.135-0.155 0.275-0.294 0.416-0.424v0.905c-1.68 0.17-3 1.576-3 3.3 0 1.838 1.495 3.333 3.333 3.333s3.333-1.495 3.333-3.333c0-1.724-1.32-3.13-3-3.3zM16 25c-1.471 0-2.667-1.196-2.667-2.667s1.196-2.667 2.667-2.667 2.667 1.196 2.667 2.667-1.196 2.667-2.667 2.667z"/>
</svg>
