<svg version="1.1" xmlns="http://www.w3.org/2000/svg" width="32" height="32" viewBox="0 0 32 32">
    <path fill="currentColor" d="M22.128 14.538c-1.557-1.557-3.606-2.439-5.795-2.522v-4.589c1.673 1.296 2.596 2.524 2.61 2.543l0.536-0.396c-0.063-0.085-1.057-1.408-2.862-2.776 1.563-0.928 2.783-1.308 2.804-1.314l-0.192-0.638c-0.089 0.026-1.316 0.406-2.896 1.336v-3.515h-0.667v3.459c-0.802-0.523-1.722-1.023-2.756-1.431l-0.245 0.62c1.034 0.408 1.952 0.919 2.748 1.451-0.979 0.665-2.026 1.524-2.99 2.626l0.502 0.439c0.875-1.001 1.835-1.8 2.741-2.425v4.61c-2.189 0.083-4.237 0.965-5.795 2.522-3.379 3.379-3.379 8.878 0 12.257 1.637 1.637 3.813 2.538 6.128 2.538s4.492-0.902 6.128-2.538c3.379-3.379 3.379-8.878 0-12.257zM21.657 26.324c-1.511 1.511-3.52 2.343-5.657 2.343s-4.146-0.832-5.657-2.343c-3.119-3.119-3.119-8.195 0-11.314 1.511-1.511 3.52-2.343 5.657-2.343s4.146 0.832 5.657 2.343c3.119 3.119 3.119 8.195 0 11.314z"/>
</svg>
