<svg version="1.1" xmlns="http://www.w3.org/2000/svg" width="32" height="32" viewBox="0 0 32 32">
    <path fill="currentColor" d="M27.333 20.458v-14.125c0-1.177-0.822-2-2-2s-2 0.823-2 2v2.261c-2.214-2.682-5.522-4.261-9.048-4.26-5.38 0.198-8.777 2.972-10.426 6.416l-0.012-0.007c-0.015 0.028-0.023 0.069-0.036 0.101-0.767 1.64-1.144 3.425-1.144 5.156 0 4.111 2.104 8.532 6.617 10.552h0c1.428 0.639 3.092 1.044 5.014 1.115 2.592 0 5.108-0.871 7.15-2.445 0.52 1.651 2.065 2.852 3.886 2.852 2.246 0 4.074-1.827 4.074-4.074 0-1.469-0.807-2.836-2.074-3.542zM23.333 9.688v10.771c-0.521 0.29-0.958 0.696-1.299 1.171l-0.297-1.062c-0.043-0.12 0.018-0.579 0.041-0.751l0.025-0.194c0.052-0.453-0.123-0.902-0.468-1.201s-0.815-0.407-1.257-0.291c-0.134 0.035-0.275 0.031-0.408-0.012 0 0-0.841-0.279-1.256-0.417l-0.255-0.083c-0.557-0.136-0.769-0.846-0.956-1.473-0.035-0.116-0.068-0.228-0.101-0.329-0.118-0.37-0.064-0.769 0.165-1.129 0.697-1.427 2.517-2.242 4.232-1.895 0.378 0.076 0.771-0.010 1.083-0.237s0.515-0.574 0.562-0.997c-0.001-0.068 0.018-0.163 0.035-0.269 0.064-0.39 0.16-0.974-0.246-1.251-0.264-0.251-0.634-0.372-0.978-0.322-0.322 0.049-0.582 0.239-0.732 0.534-0.074 0.142-0.236 0.22-0.382 0.188-0.624-0.154-1.569-0.386-2.292 0.109-0.1 0.058-0.196 0.118-0.288 0.177-0.172 0.108-0.455 0.287-0.542 0.272-0.001-0.001-0.097-0.061-0.187-0.48-0.017-0.058 0.008-0.119 0.059-0.149l1.883-1.095c0.379-0.212 0.507-0.678 0.298-1.083s-0.646-0.563-1.037-0.379l-0.533 0.241-0.011-0.007-0.173 0.090c-0.057 0.030-0.24-0.094-0.371-0.183-0.066-0.042-0.118-0.075 0.117-0.504l0.031-0.062c0.117-0.286 0.559-0.695 0.914-1.023 0.114-0.106 0.217-0.203 0.312-0.296 1.704 0.805 3.197 2.041 4.312 3.624zM11.488 5.394l-0.084 0.501c-0.087 0.557-0.623 0.951-1.219 0.891-0.488-0.044-0.949 0.27-1.065 0.71-0.078 0.296 0.008 0.689 0.516 0.92l1.132 0.391c0.182 0.057 0.247 0.229 0.247 0.37-0.001 0.141-0.066 0.311-0.286 0.381-0.042 0.018-0.184 0.063-0.361 0.122-0.981 0.324-1.213 0.408-1.298 0.54-0.117 0.11-0.268 0.229-0.43 0.357-0.625 0.495-1.402 1.11-1.33 1.9v1.061c0.002 0.079-0.061 0.104-0.113 0.112-0.053 0.008-0.122 0-0.143-0.085l-0.27-0.971c-0.105-0.379-0.466-0.621-0.821-0.58-0.242 0.001-0.469 0.107-0.624 0.29-0.15 0.176-0.214 0.408-0.178 0.633l0.366 2.377c0.090 0.588 0.438 1.094 0.954 1.389l3.101 1.771c0.259 0.171 1.549 1.202 2.182 1.708 0.327 0.262 0.573 0.458 0.618 0.491 0.219 0.173 0.35 0.422 0.37 0.7s-0.074 0.543-0.266 0.746l-0.044 0.053c-0.076 0.085-0.294 0.313-0.566 0.596-1.63 1.701-1.832 1.935-1.822 2.122l-0.215 0.766c-0.035 0.124-0.19 0.269-0.266 0.29-0.435-0.195-0.847-0.411-1.235-0.65l-0.15-1.692-0.015-0.073c-0.023-0.072-0.057-0.142-0.102-0.207l-2.106-3.053c-0.501-0.676-0.2-1.548 0.035-2.033 0.079-0.202 0.072-0.43-0.020-0.626-0.095-0.207-0.199-0.426-0.308-0.652-0.516-1.081-1.1-2.306-1.214-3.355-0.113-0.778-0.195-1.964-0.067-2.422 1.231-2.658 3.562-4.907 7.097-5.79zM3.333 16c0-0.979 0.129-1.976 0.387-2.952 0.029 0.295 0.061 0.536 0.076 0.641 0.125 1.15 0.735 2.429 1.273 3.558 0.107 0.223 0.21 0.439 0.305 0.645 0.015 0.033 0.016 0.070 0.014 0.078-0.501 1.029-0.486 1.987 0.034 2.688l2.106 3.063 0.096 1.091c-2.915-2.159-4.292-5.587-4.292-8.813zM14.31 27c-1.515-0.056-2.857-0.335-4.046-0.775 0.099-0.12 0.178-0.254 0.216-0.389l0.236-0.836c0.189-0.256 1.161-1.271 1.641-1.771 0.434-0.452 0.576-0.6 0.632-0.672 0.305-0.334 0.46-0.782 0.428-1.233-0.033-0.46-0.26-0.888-0.63-1.18-0.053-0.039-0.29-0.229-0.607-0.483-1.823-1.458-2.196-1.738-2.337-1.805l-3.031-1.732c-0.339-0.194-0.567-0.526-0.626-0.912l-0.366-2.379c-0.006-0.037 0.003-0.070 0.028-0.099 0.029-0.034 0.073-0.054 0.154-0.056 0.073-0.010 0.123 0.033 0.141 0.095l0.268 0.963c0.098 0.39 0.471 0.634 0.878 0.574 0.416-0.057 0.699-0.381 0.689-0.78l-0.001-1.083c-0.041-0.461 0.579-0.953 1.079-1.348 0.195-0.154 0.374-0.298 0.51-0.43 0.154-0.073 0.729-0.263 1.013-0.356 0.22-0.073 0.392-0.132 0.386-0.132h-0.001c0.436-0.132 0.718-0.526 0.719-1.002 0.001-0.478-0.28-0.874-0.706-1.006l-1.092-0.375c-0.137-0.063-0.124-0.113-0.118-0.131 0.026-0.099 0.18-0.228 0.359-0.216 0.944 0.093 1.799-0.547 1.939-1.449l0.126-0.753c0.667-0.127 1.362-0.221 2.109-0.248 1.41 0 2.785 0.272 4.060 0.776-0.034 0.032-0.066 0.062-0.101 0.095-0.425 0.392-0.906 0.837-1.077 1.254-0.16 0.292-0.535 0.977 0.141 1.408 0.225 0.151 0.602 0.402 1.007 0.191l-0.004-0.008c0.135-0.050 0.344-0.145 0.691-0.302 0.068-0.032 0.122-0.005 0.165 0.079 0.017 0.033 0.064 0.143-0.035 0.199l-1.887 1.098c-0.317 0.184-0.467 0.559-0.371 0.888 0.070 0.326 0.206 0.776 0.575 0.932 0.385 0.163 0.779-0.084 1.156-0.322 0.087-0.054 0.176-0.111 0.289-0.178 0.461-0.315 1.104-0.192 1.788-0.023 0.449 0.092 0.91-0.124 1.122-0.532 0.053-0.103 0.133-0.164 0.241-0.18 0.139-0.021 0.314 0.040 0.43 0.159l0.061 0.047c0.059 0.083-0.001 0.446-0.027 0.601-0.025 0.15-0.044 0.285-0.042 0.34-0.023 0.2-0.126 0.375-0.289 0.494s-0.364 0.162-0.559 0.122c-2.032-0.412-4.123 0.537-4.943 2.222-0.318 0.494-0.398 1.098-0.219 1.661 0.032 0.098 0.064 0.204 0.096 0.314 0.214 0.719 0.508 1.704 1.437 1.93l0.005-0.021c0.227 0.1 0.654 0.242 1.454 0.507 0.255 0.084 0.527 0.092 0.787 0.024 0.23-0.061 0.468-0.007 0.65 0.15s0.269 0.383 0.242 0.625l-0.023 0.177c-0.058 0.436-0.099 0.817-0.014 1.044l0.468 1.679c-0.201 0.485-0.312 1.010-0.312 1.55 0 0.17 0.014 0.336 0.034 0.5-1.968 1.61-4.444 2.5-6.984 2.5zM25.333 27.407c-1.878 0-3.407-1.529-3.407-3.407 0-1.286 0.74-2.48 1.887-3.040l0.187-0.091v-14.535c0-0.81 0.523-1.333 1.333-1.333s1.333 0.523 1.333 1.333v0.667h-1.333v0.667h1.333v1.333h-0.667v0.667h0.667v1.333h-1.333v0.667h1.333v9.202l0.187 0.091c1.146 0.561 1.887 1.754 1.887 3.040 0 1.878-1.529 3.407-3.407 3.407zM27.076 24c0 0.962-0.78 1.743-1.743 1.743s-1.743-0.78-1.743-1.743c0-0.848 0.607-1.553 1.409-1.709v-8.958h0.667v8.958c0.803 0.156 1.409 0.861 1.409 1.709zM15.346 6.782c-0.048-0.433-0.136-1.238-0.95-1.255l-0.62-0.021c-0.249-0.003-0.501 0.089-0.682 0.267s-0.28 0.426-0.273 0.679l0.029 1.157c0.009 0.353 0.214 0.665 0.534 0.814 0.123 0.058 0.254 0.086 0.385 0.086 0.21 0 0.421-0.073 0.604-0.221 0.059-0.057 0.144-0.117 0.235-0.184 0.35-0.256 0.878-0.643 0.756-1.178l-0.017-0.145zM14.213 7.568c-0.118 0.087-0.226 0.167-0.279 0.22-0.113 0.090-0.226 0.052-0.269 0.032s-0.146-0.083-0.149-0.227l-0.029-1.157c-0.002-0.071 0.025-0.139 0.076-0.189 0.049-0.048 0.113-0.075 0.181-0.075h0.009l0.625 0.021c0.171 0.004 0.243 0.104 0.305 0.661l0.024 0.19c0.031 0.139-0.311 0.389-0.494 0.523z"/>
</svg>
