<svg version="1.1" xmlns="http://www.w3.org/2000/svg" width="32" height="32" viewBox="0 0 32 32">
    <path fill="currentColor" d="M15.4 8.613c0.107 0.047 0.213 0.073 0.327 0.073 0.187 0 0.38-0.067 0.553-0.207 0.027-0.027 0.080-0.067 0.14-0.107 0.267-0.193 0.7-0.513 0.607-0.98l-0.013-0.107c-0.033-0.307-0.113-1.020-0.82-1.033l-0.467-0.013c-0.22 0-0.433 0.087-0.58 0.233-0.16 0.153-0.247 0.373-0.24 0.593l0.020 0.847c0.007 0.307 0.187 0.58 0.467 0.713zM15.62 6.94s0.067-0.040 0.1-0.040l0.46 0.013c0.060 0 0.127 0 0.173 0.447l0.020 0.147c-0.007 0.040-0.073 0.127-0.347 0.32-0.093 0.067-0.173 0.127-0.193 0.147-0.033 0.027-0.093 0.060-0.16 0.027-0.047-0.020-0.080-0.067-0.080-0.12l-0.020-0.847c0-0.040 0.013-0.073 0.040-0.1z"/>
    <path fill="currentColor" d="M24.047 22.067c4.36-4.36 4.427-11.407 0.213-15.86l1.38-1.38-0.473-0.473-3.3 3.3c-1.547-1.427-3.6-2.307-5.867-2.307-4.78 0-8.667 3.887-8.667 8.667 0 2.267 0.88 4.32 2.307 5.867l-2.987 2.987 0.473 0.473 1.060-1.060c2.040 1.933 4.673 3.027 7.48 3.107v3.3h-3.627v0.667h7.92v-0.667h-3.627v-3.3c2.913-0.087 5.647-1.247 7.713-3.32zM19.373 7.020l0.173-0.167c2.633 1.313 4.453 4.027 4.453 7.16 0 1.96-0.713 3.753-1.887 5.147-0.193-0.687-0.32-1.14-0.4-1.413-0.060-0.207-0.093-0.32-0.107-0.373l-0.020-0.060c-0.013-0.12 0.020-0.367 0.040-0.54l0.013-0.107c0.040-0.353-0.087-0.693-0.36-0.92-0.267-0.233-0.62-0.313-0.96-0.22-0.087 0.027-0.187 0.020-0.273-0.007l-1.12-0.373c-0.333-0.080-0.487-0.5-0.647-1.033l-0.073-0.24c-0.080-0.26-0.047-0.533 0.127-0.813 0.5-1.027 1.767-1.587 3.020-1.333 0.293 0.060 0.587 0 0.833-0.18 0.267-0.193 0.36-0.46 0.42-0.72 0-0.007 0.193-0.987-0.14-1.167-0.213-0.213-0.507-0.313-0.773-0.267-0.247 0.040-0.453 0.187-0.573 0.413-0.040 0.080-0.14 0.127-0.22 0.113-0.593-0.147-1.213-0.26-1.7 0.073-0.087 0.053-0.16 0.093-0.227 0.14-0.080 0.053-0.293 0.187-0.34 0.193-0.007-0.007-0.060-0.060-0.1-0.38l1.373-0.8c0.3-0.173 0.407-0.54 0.24-0.853-0.167-0.32-0.507-0.447-0.813-0.3l-0.52 0.24s-0.073-0.020-0.247-0.14c0-0.013 0-0.080 0.14-0.347 0.080-0.2 0.42-0.513 0.66-0.733zM14.62 6.747l0.107-0.62c0.413-0.067 0.84-0.113 1.273-0.113 1.020 0 1.987 0.2 2.887 0.547-0.313 0.287-0.653 0.607-0.773 0.9-0.127 0.227-0.453 0.84 0.133 1.213 0.173 0.12 0.5 0.34 0.847 0.167l-0.88 0.533c-0.28 0.16-0.42 0.5-0.333 0.78 0.040 0.187 0.14 0.633 0.5 0.787 0.347 0.147 0.673-0.060 0.967-0.24 0.067-0.040 0.127-0.080 0.227-0.14 0.28-0.193 0.72-0.107 1.193 0.013 0.387 0.087 0.78-0.107 0.96-0.453 0.027-0.053 0.053-0.060 0.087-0.067 0.040-0.007 0.113 0.013 0.173 0.067 0.013 0.147-0.007 0.473-0.020 0.567-0.047 0.213-0.093 0.28-0.167 0.333-0.093 0.067-0.193 0.087-0.307 0.067-1.54-0.313-3.12 0.4-3.733 1.66-0.26 0.407-0.327 0.893-0.18 1.34l0.067 0.227c0.167 0.553 0.393 1.313 1.1 1.487l1.093 0.36c0.213 0.073 0.433 0.080 0.653 0.020 0.127-0.033 0.253 0 0.353 0.080 0.1 0.087 0.147 0.207 0.133 0.34l-0.013 0.1c-0.040 0.28-0.067 0.52-0.033 0.753l0.027 0.1c0.013 0.053 0.047 0.173 0.107 0.387 0.093 0.327 0.253 0.893 0.507 1.807-1.44 1.407-3.413 2.28-5.587 2.28-0.953 0-1.86-0.173-2.707-0.48 0.080-0.1 0.14-0.207 0.167-0.307l0.18-0.607c0.187-0.227 0.853-0.92 1.147-1.233l0.067-0.067c0.26-0.273 0.38-0.4 0.4-0.427 0.253-0.28 0.38-0.647 0.353-1.007-0.027-0.373-0.213-0.72-0.513-0.96-0.033-0.020-0.173-0.14-0.413-0.333-1.44-1.153-1.64-1.293-1.727-1.333l-2.227-1.273c-0.213-0.12-0.353-0.327-0.393-0.567l-0.287-1.727 0.193 0.7c0.093 0.353 0.413 0.567 0.787 0.52 0.367-0.053 0.627-0.347 0.613-0.693v-0.82c-0.027-0.253 0.433-0.613 0.747-0.86 0.14-0.113 0.273-0.22 0.333-0.287 0.067-0.033 0.313-0.12 0.733-0.26l0.273-0.093c0.367-0.113 0.613-0.46 0.62-0.86 0-0.407-0.24-0.747-0.6-0.86l-0.74-0.267s0.040-0.013 0.060-0.007c0.767 0.080 1.447-0.433 1.56-1.167zM14.027 6.273l-0.067 0.367c-0.060 0.387-0.42 0.647-0.833 0.607-0.42-0.047-0.753 0.247-0.833 0.553-0.060 0.227 0.013 0.547 0.427 0.733l0.813 0.28c0.087 0.027 0.14 0.113 0.14 0.22 0 0.113-0.053 0.193-0.16 0.227l-0.273 0.093c-0.587 0.193-0.74 0.253-0.86 0.32l-0.087 0.067c-0.087 0.087-0.2 0.173-0.333 0.28-0.467 0.367-1.040 0.827-0.987 1.407v0.813s-0.093-0.020-0.093-0.020l-0.193-0.707c-0.080-0.28-0.34-0.453-0.633-0.46-0.26 0.007-0.42 0.127-0.5 0.227-0.12 0.14-0.173 0.327-0.147 0.507l0.267 1.733c0.067 0.447 0.333 0.827 0.72 1.047l2.24 1.28c0.113 0.067 0.847 0.647 1.667 1.307 0.207 0.167 0.36 0.287 0.387 0.307 0.147 0.12 0.247 0.293 0.26 0.48s-0.053 0.367-0.193 0.527c-0.033 0.040-0.14 0.153-0.373 0.393l-0.067 0.067c-0.673 0.7-1.113 1.167-1.24 1.34l-0.253 0.773s-0.027 0.060-0.067 0.107l-0.107 0.12c-0.287-0.133-0.56-0.28-0.82-0.44l-0.12-1.36-1.627-2.367c-0.327-0.447-0.167-1.020 0.047-1.46 0.053-0.147 0.040-0.32-0.027-0.46-0.073-0.153-0.147-0.313-0.227-0.487-0.373-0.78-0.793-1.673-0.88-2.433-0.013-0.093-0.047-0.32-0.067-0.593l-0.107-1.153c1.020-2.080 2.913-3.653 5.207-4.233zM9.513 15.38s0 0 0 0.007v-0.013s0 0 0 0zM8 14.020c0-0.72 0.107-1.413 0.28-2.073 0.020 0.187 0.040 0.333 0.047 0.393 0.093 0.867 0.54 1.807 0.94 2.64 0.080 0.16 0.147 0.313 0.213 0.46-0.367 0.787-0.347 1.513 0.053 2.047l1.52 2.213 0.053 0.64c-1.887-1.467-3.113-3.747-3.113-6.32zM16 24.733c-2.753 0-5.347-1.040-7.34-2.927l1.453-1.453c1.547 1.44 3.613 2.327 5.893 2.327 4.78 0 8.667-3.887 8.667-8.667 0-2.273-0.887-4.34-2.327-5.893l1.453-1.453c3.953 4.193 3.887 10.813-0.213 14.92-2.027 2.027-4.713 3.14-7.58 3.14z"/>
</svg>
