<svg version="1.1" xmlns="http://www.w3.org/2000/svg" width="32" height="32" viewBox="0 0 32 32">
    <path fill="currentColor" d="M24.667 17.333v-4.667c-0.001-0.802-0.567-1.472-1.322-1.631l-0.011-0.002v-3.367c-0.001-0.92-0.747-1.666-1.667-1.667h-0c-0.378 0.001-0.726 0.13-1.004 0.345l0.004-0.003v-0.675c0-0.001 0-0.003 0-0.004 0-0.918-0.744-1.663-1.663-1.663-0.595 0-1.117 0.312-1.411 0.782l-0.004 0.007c-0.18-0.077-0.389-0.122-0.609-0.122-0.372 0-0.714 0.129-0.983 0.344l0.003-0.002v-0.675c0-0.92-0.746-1.667-1.667-1.667s-1.667 0.746-1.667 1.667v0 0.675c-0.274-0.212-0.622-0.34-1-0.342h-0c-0.92 0.001-1.666 0.747-1.667 1.667v0.008c-0.274-0.212-0.622-0.34-1-0.342h-0c-0.92 0.001-1.666 0.747-1.667 1.667v9c0 0.125 0.023 3.092 2 7.406v1.988c-0.392 0.141-0.667 0.509-0.667 0.941 0 0.551 0.447 0.998 0.998 0.998 0.001 0 0.002 0 0.003 0h3.728c-0.038 0.099-0.060 0.213-0.061 0.333v0.001c0.001 0.552 0.448 0.999 1 1h8.667c0.001 0 0.002 0 0.003 0 0.551 0 0.998-0.447 0.998-0.998 0-0.432-0.275-0.8-0.66-0.939l-0.007-0.002v-2.998c0.798-2.094 1.282-4.515 1.333-7.042l0-0.022zM18 5.667c0-0.552 0.448-1 1-1s1 0.448 1 1v0 11.667h0.667v-9.667c0-0.552 0.448-1 1-1s1 0.448 1 1v0 11.667h0.667v-7.605c0.391 0.141 0.665 0.507 0.667 0.938v4.667c-0.059 2.484-0.534 4.839-1.358 7.023l0.049-0.147-0.020 3.124h-8.004v-2l-0.031-0.14c-1.065-2.093-1.771-4.54-1.966-7.129l-0.004-0.064v-9c0-0.552 0.448-1 1-1s1 0.448 1 1v0 8.333h0.667v-9.667c0-0.552 0.448-1 1-1s1 0.448 1 1v0 9.667h0.667v-11.667zM17 5.333c0.13 0.003 0.253 0.031 0.366 0.079l-0.006-0.002c-0.014 0.076-0.024 0.165-0.026 0.255l-0 0.002v0.675c-0.267-0.213-0.61-0.342-0.982-0.342-0.106 0-0.209 0.010-0.309 0.030l0.010-0.002c0.132-0.405 0.506-0.693 0.947-0.695h0zM13.333 4.333c0-0.552 0.448-1 1-1s1 0.448 1 1v0 2.008c-0.405 0.305-0.665 0.784-0.667 1.325v0.009c-0.274-0.212-0.622-0.34-1-0.342h-0c-0 0-0.001 0-0.001 0-0.117 0-0.232 0.012-0.343 0.035l0.011-0.002v-3.033zM8 16.667v-9c0-0.552 0.448-1 1-1s1 0.448 1 1v0 8.333h0.667v-9.667c0-0.552 0.448-1 1-1s1 0.448 1 1v0 1.342c-0.405 0.305-0.665 0.784-0.667 1.325v9c0 0.125 0.023 3.092 2 7.406v0.594h-4v-2l-0.031-0.14c-1.065-2.093-1.771-4.54-1.966-7.129l-0.004-0.064zM9.333 27c0-0.184 0.149-0.333 0.333-0.333h4.333v0.667h-4.333c-0.184-0-0.333-0.149-0.333-0.333v-0zM23 28.667h-8.667c-0.184 0-0.333-0.149-0.333-0.333s0.149-0.333 0.333-0.333v0h8.667c0.184 0 0.333 0.149 0.333 0.333s-0.149 0.333-0.333 0.333v0zM10.26 22h-0.707c-0.136-0.353-0.273-0.798-0.384-1.254l-0.016-0.079h0.687c0.135 0.537 0.279 0.982 0.448 1.414l-0.028-0.080zM9.687 20h-0.687c-0.115-0.554-0.214-1.24-0.275-1.937l-0.005-0.070c-0.027-0.273-0.033-0.493-0.047-0.66h0.673c0 0.153 0.013 0.36 0.033 0.607 0.068 0.779 0.176 1.483 0.327 2.17l-0.020-0.11zM14.927 23.333h-0.707c-0.136-0.353-0.273-0.798-0.384-1.254l-0.016-0.079h0.687c0.135 0.537 0.279 0.982 0.448 1.414l-0.028-0.080zM14.353 21.333h-0.687c-0.115-0.554-0.214-1.24-0.275-1.937l-0.005-0.070c-0.027-0.273-0.033-0.493-0.047-0.66h0.673c0 0.153 0.013 0.36 0.033 0.607 0.068 0.779 0.176 1.483 0.327 2.17l-0.020-0.11z"/>
</svg>
