<svg version="1.1" xmlns="http://www.w3.org/2000/svg" width="32" height="32" viewBox="0 0 32 32">
    <path fill="currentColor" d="M6.569 17.236l-0.471-0.471 3.333-3.333 0.471 0.471zM11.902 13.902l-0.471-0.471-2 2 0.471 0.471zM29.333 12.38c-0.013 0.080-0.12 0.813-0.327 1.887 0.201 0.18 0.327 0.441 0.327 0.731 0 0.001 0 0.002 0 0.002v-0 2c0 0 0 0.001 0 0.001 0 0.552-0.447 0.999-0.999 0.999-0 0-0.001 0-0.001 0h-0.207c-0.275 1.004-0.555 1.822-0.877 2.619l0.057-0.159-0.047 0.127-0.127 0.053c-1.41 0.569-3.043 0.905-4.754 0.92l-0.006 0c-0.038 0.001-0.083 0.001-0.128 0.001-1.476 0-2.872-0.342-4.114-0.952l0.055 0.024-0.187-0.093v-0.207c0-0.827-0.24-1.667-2-1.667s-2 0.84-2 1.667v0.207l-0.187 0.093c-4.087 2.047-8.747 0.093-8.947 0.007l-0.127-0.053-0.047-0.127c-0.265-0.638-0.545-1.456-0.78-2.294l-0.040-0.166h-0.207c-0 0-0.001 0-0.001 0-0.552 0-0.999-0.447-0.999-0.999 0-0 0-0.001 0-0.001v0-2c0-0.001 0-0.001 0-0.002 0-0.29 0.126-0.551 0.326-0.73l0.001-0.001c-0.207-1.073-0.313-1.807-0.327-1.887l-0.033-0.273 0.26-0.087c3.807-1.214 8.191-1.947 12.736-2.020l0.037-0h0.667c4.582 0.073 8.966 0.806 13.098 2.108l-0.325-0.088 0.26 0.087zM4.333 17.333c0.002 0 0.005 0 0.008 0 0.014 0 0.027-0.003 0.040-0.007l-0.001 0c0.162-0.018 0.287-0.154 0.287-0.319 0-0.003-0-0.006-0-0.008v0-2c0-0.001 0-0.002 0-0.003 0-0.182-0.148-0.33-0.33-0.33-0.001 0-0.002 0-0.003 0h-0.666c-0.001 0-0.002-0-0.003-0-0.182 0-0.33 0.148-0.33 0.33 0 0.001 0 0.002 0 0.003v-0 2c0 0.001-0 0.002-0 0.003 0 0.182 0.148 0.33 0.33 0.33 0.001 0 0.002 0 0.003-0h-0zM27.44 17.973c-0.446-0.104-0.773-0.499-0.773-0.969 0-0.001 0-0.003 0-0.004v0-2c0-0 0-0.001 0-0.001 0-0.552 0.447-0.999 0.999-0.999 0 0 0.001 0 0.001 0h0.667c0.002-0 0.005-0 0.008-0 0.014 0 0.027 0.003 0.040 0.007l-0.001-0c0.12-0.64 0.2-1.147 0.247-1.44-3.665-1.14-7.885-1.83-12.256-1.9l-0.037-0h-0.667c-4.408 0.070-8.628 0.76-12.614 1.985l0.321-0.085c0.047 0.293 0.127 0.8 0.247 1.44 0.012-0.004 0.025-0.007 0.039-0.007 0.003 0 0.005 0 0.008 0l-0-0h0.667c0 0 0.001 0 0.001 0 0.552 0 0.999 0.447 0.999 0.999 0 0 0 0.001 0 0.001v-0 2c0 0.001 0 0.003 0 0.004 0 0.471-0.327 0.865-0.767 0.968l-0.007 0.001c0.207 0.72 0.44 1.44 0.7 2.107 0.747 0.28 4.667 1.633 8.080 0.040 0.080-1.407 0.973-2.12 2.66-2.12s2.58 0.713 2.66 2.12c3.413 1.593 7.333 0.24 8.080-0.040 0.26-0.667 0.493-1.387 0.7-2.107zM28.667 15c0-0.001 0-0.002 0-0.003 0-0.182-0.148-0.33-0.33-0.33-0.001 0-0.002 0-0.003 0h-0.666c-0.001 0-0.002-0-0.003-0-0.182 0-0.33 0.148-0.33 0.33 0 0.001 0 0.002 0 0.003v-0 2c-0 0.002-0 0.005-0 0.008 0 0.165 0.125 0.301 0.285 0.319l0.001 0c0.012 0.004 0.025 0.007 0.039 0.007 0.003 0 0.005-0 0.008-0l-0 0h0.667c0.001 0 0.002 0 0.003 0 0.182 0 0.33-0.148 0.33-0.33 0-0.001 0-0.002-0-0.003v0z"/>
</svg>
