<svg version="1.1" xmlns="http://www.w3.org/2000/svg" width="32" height="32" viewBox="0 0 32 32">
    <path fill="currentColor" d="M27.333 26v-1.659l-0.833-0.002v-7.939h0.833v-4.219l-0.114-0.1c-0.167-0.146-4.118-3.553-10.886-5.336v-1.080h4.333v-3h-5v4.080c-6.768 1.783-10.72 5.19-10.886 5.336l-0.114 0.1v4.219h0.833v7.933l-0.833-0.002v1.667h-2v3.333h26.667v-3.333h-2zM20 5h-3.667v-1.667h3.667v1.667zM26.667 25.007v0.993h-3.333v-0.999l0.167 0v0.006l3.167-0.001zM13.833 24.338l-1.667-0.003v-7.934h1.667v7.937zM11.5 24.334l-0.833-0.002v1.667h-1.333v-1.659l-0.833-0.002v-7.939h3v7.933zM11.333 25.001l0.167 0v0.006l3.167-0.001v0.993h-3.333v-0.999zM14.5 24.34v-7.939h3v7.933l-0.833-0.002v1.667h-1.333v-1.659l-0.833-0.002zM19.833 24.339l-1.667-0.003v-7.934h1.667v7.937zM17.333 25.001l0.167 0v0.006l3.167-0.001v0.993h-3.333v-0.999zM20.5 24.34v-7.939h3v7.933l-0.833-0.002v1.667h-1.333v-1.659l-0.833-0.002zM25.833 24.339l-1.667-0.003v-7.934h1.667v7.937zM5.333 12.489c0.698-0.572 4.571-3.574 10.667-5.145 6.087 1.568 9.967 4.573 10.667 5.145v1.177h-21.333v-1.178zM5.333 15.734v-1.401h21.333v1.401h-21.333zM6.167 16.401h1.667v7.937l-1.667-0.003v-7.934zM5.333 25.001l0.167 0v0.006l3.167-0.001v0.993h-3.333v-0.999zM28.667 28.667h-25.333v-2h25.333v2z"/>
</svg>
