<svg version="1.1" xmlns="http://www.w3.org/2000/svg" width="32" height="32" viewBox="0 0 32 32">
    <path fill="currentColor" d="M10 10c0 0 0 0 0 0 0 3.314 2.686 6 6 6s6-2.686 6-6c0-1.613-0.636-3.077-1.671-4.155l0.002 0.002 3.003-0.572v1.452c-0.392 0.141-0.667 0.51-0.667 0.943 0 0.552 0.448 1 1 1s1-0.448 1-1c0-0.433-0.275-0.801-0.66-0.941l-0.007-0.002v-1.579l0.781-0.149-8.781-1.673-8.781 1.673 4.452 0.848c-1.034 1.073-1.67 2.535-1.67 4.145 0 0.002 0 0.005 0 0.007v-0zM23.667 8c-0.184 0-0.333-0.149-0.333-0.333s0.149-0.333 0.333-0.333c0.184 0 0.333 0.149 0.333 0.333v0c-0 0.184-0.149 0.333-0.333 0.333h-0zM16 15.333c-0.004 0-0.008 0-0.012 0-2.939 0-5.321-2.382-5.321-5.321 0-0.687 0.13-1.344 0.367-1.947l-0.012 0.036c1.39 0.344 2.989 0.549 4.634 0.565l0.011 0h0.667c1.655-0.016 3.255-0.222 4.788-0.595l-0.144 0.030c0.225 0.567 0.355 1.224 0.355 1.912 0 2.938-2.382 5.32-5.32 5.32-0.005 0-0.009 0-0.014-0h0.001zM20.694 7.482c-1.305 0.315-2.807 0.503-4.351 0.518l-0.010 0h-0.667c-1.554-0.015-3.056-0.203-4.498-0.546l0.137 0.027c0.313-0.576 0.705-1.065 1.169-1.475l0.006-0.005 3.52 0.671 3.521-0.671c0.469 0.415 0.861 0.904 1.159 1.452l0.014 0.028zM16 4.006l5.219 0.994-5.219 0.994-5.219-0.994zM16 17.333c-6.624 0.008-11.992 5.376-12 11.999v0.001h0.667c0-0 0-0 0-0 0-3.491 1.581-6.612 4.066-8.687l0.018-0.015c0.357 2.601 0.568 5.62 0.582 8.685l0 0.017h0.667c-0.015-3.247-0.247-6.424-0.682-9.537l0.043 0.372c0.78-0.573 1.675-1.062 2.631-1.425l0.078-0.026c0.718 2.989 1.986 5.608 3.701 7.869l-0.038-0.052 0.267 0.355 0.267-0.355c1.677-2.209 2.945-4.828 3.634-7.673l0.029-0.143c1.034 0.389 1.929 0.878 2.741 1.473l-0.032-0.022c-0.392 2.741-0.624 5.919-0.639 9.148l-0 0.017h0.667c0.015-3.082 0.226-6.101 0.622-9.061l-0.039 0.359c2.503 2.090 4.084 5.211 4.084 8.702 0 0 0 0 0 0v-0h0.667c-0.008-6.624-5.376-11.992-11.999-12h-0.001zM17.183 18.063l-0.423 1.271h-1.52l-0.423-1.271c0.355-0.040 0.766-0.063 1.183-0.063s0.828 0.023 1.233 0.067l-0.050-0.004zM14.148 18.165l0.51 1.529-0.492 2.95c-0.591-1.188-1.093-2.572-1.435-4.018l-0.027-0.133c0.394-0.123 0.88-0.237 1.378-0.318l0.065-0.009zM16 25.769c-0.437-0.603-0.875-1.297-1.272-2.017l-0.053-0.105 0.608-3.647h1.435l0.608 3.647c-0.45 0.825-0.889 1.519-1.367 2.182l0.041-0.061zM17.834 22.645l-0.492-2.951 0.51-1.529c0.563 0.090 1.050 0.204 1.523 0.348l-0.080-0.021c-0.367 1.579-0.869 2.964-1.512 4.267l0.051-0.114z"/>
</svg>
