<svg version="1.1" xmlns="http://www.w3.org/2000/svg" width="32" height="32" viewBox="0 0 32 32">
    <path fill="currentColor" d="M29.333 13.667c0.001-0.055 0.002-0.119 0.002-0.184 0-2.429-1.082-4.606-2.791-6.074l-0.011-0.009-0.2-0.15-0.2 0.15c-0.826 0.65-1.88 1.042-3.027 1.042-0.708 0-1.381-0.15-1.989-0.419l0.031 0.012c-0.546-0.279-1.191-0.443-1.874-0.443-0.577 0-1.127 0.117-1.628 0.328l0.027-0.010c-2.216-1.799-6.32 0.366-6.491 0.458-2.444 1.223-5.285-0.943-5.313-0.965l-0.201-0.156-0.203 0.152c-1.72 1.477-2.802 3.653-2.802 6.083 0 0.065 0.001 0.129 0.002 0.193l-0-0.010v0.138l2.509 2.509-0.612 0.612c-0.316 0.316-0.511 0.753-0.511 1.236s0.195 0.919 0.511 1.236l-0-0c0.271 0.268 0.63 0.448 1.030 0.49l0.008 0.001-0.209 0.209c-0.317 0.316-0.513 0.753-0.513 1.236 0 0.964 0.782 1.746 1.746 1.746 0.001 0 0.001 0 0.002 0h-0c0.1-0.002 0.197-0.012 0.291-0.029l-0.011 0.002c-0.015 0.085-0.023 0.183-0.023 0.282 0 0.964 0.781 1.745 1.745 1.745 0.482 0 0.917-0.195 1.233-0.51v0l0.37-0.37c0.101 0.875 0.838 1.547 1.731 1.547 0.481 0 0.917-0.195 1.232-0.51l2-2c0.033-0.033 0.058-0.072 0.088-0.108l1.441 1.441c0.315 0.319 0.752 0.516 1.236 0.516 0.915 0 1.665-0.708 1.733-1.606l0-0.006c0.265 0.173 0.589 0.276 0.938 0.276 0.893 0 1.628-0.675 1.723-1.542l0.001-0.008 0.37 0.37c0.315 0.319 0.752 0.516 1.236 0.516 0.895 0 1.631-0.676 1.727-1.545l0.001-0.008 0.37 0.37c0.316 0.317 0.753 0.512 1.236 0.512 0.965 0 1.748-0.782 1.748-1.748 0-0.482-0.195-0.919-0.511-1.235v0l-2.403-2.421 3.206-3.206zM5.035 18.926c-0.195-0.196-0.316-0.466-0.316-0.764s0.121-0.569 0.316-0.764l2.161-2.161c0.195-0.195 0.465-0.315 0.763-0.315 0.597 0 1.081 0.484 1.081 1.081 0 0.298-0.12 0.567-0.315 0.763l-2.163 2.163c-0.199 0.188-0.467 0.303-0.763 0.303s-0.566-0.116-0.765-0.305l0 0zM5.863 22.098c-0.195-0.196-0.316-0.466-0.316-0.764s0.121-0.569 0.316-0.764l4-4c0.199-0.189 0.468-0.305 0.764-0.305s0.566 0.116 0.765 0.305l-0.001-0c0.195 0.196 0.316 0.466 0.316 0.764s-0.121 0.569-0.316 0.764l-4 4c-0.199 0.189-0.468 0.305-0.764 0.305s-0.566-0.116-0.765-0.305l0 0zM9.391 24.098c-0.199 0.189-0.468 0.305-0.764 0.305s-0.566-0.116-0.765-0.305l0 0c-0.195-0.196-0.316-0.466-0.316-0.764s0.121-0.569 0.316-0.764l4-4c0.199-0.189 0.468-0.305 0.764-0.305s0.566 0.116 0.765 0.305l-0.001-0c0.195 0.196 0.316 0.466 0.316 0.764s-0.121 0.569-0.316 0.764l-2.667 2.667zM14.725 22.764l-2 2c-0.199 0.189-0.468 0.305-0.764 0.305s-0.566-0.116-0.765-0.305l0.001 0c-0.195-0.196-0.316-0.466-0.316-0.764s0.121-0.569 0.316-0.764l2-2c0.199-0.189 0.468-0.305 0.764-0.305s0.566 0.116 0.765 0.305l-0.001-0c0.195 0.196 0.315 0.466 0.315 0.764s-0.12 0.568-0.315 0.764l0-0zM28.058 19.902c0.195 0.196 0.316 0.466 0.316 0.764s-0.121 0.569-0.316 0.764l0-0c-0.199 0.189-0.468 0.305-0.764 0.305s-0.566-0.116-0.765-0.305l0 0-6.333-6.333-0.471 0.471 5 5c0.195 0.196 0.316 0.466 0.316 0.764s-0.121 0.569-0.316 0.764l0-0c-0.199 0.189-0.468 0.305-0.764 0.305s-0.566-0.116-0.765-0.305l0 0-4.333-4.333-0.471 0.471 3 3c0.195 0.196 0.316 0.466 0.316 0.764s-0.121 0.569-0.316 0.764l0-0c-0.199 0.189-0.468 0.305-0.764 0.305s-0.566-0.116-0.765-0.305l0 0-3-3-0.471 0.471 2.333 2.333c0.195 0.196 0.316 0.466 0.316 0.764s-0.121 0.569-0.316 0.764l0-0c-0.199 0.189-0.468 0.305-0.764 0.305s-0.566-0.116-0.765-0.305l0 0-1.576-1.576c0.052-0.158 0.082-0.34 0.082-0.529 0-0.479-0.193-0.913-0.506-1.228l0 0c-0.287-0.278-0.672-0.457-1.099-0.481l-0.004-0c0.176-0.268 0.281-0.597 0.281-0.95 0-0.482-0.195-0.919-0.511-1.235l0 0c-0.318-0.304-0.749-0.492-1.225-0.492-0.103 0-0.205 0.009-0.303 0.026l0.011-0.002c0.017-0.091 0.026-0.195 0.026-0.301 0-0.481-0.194-0.916-0.509-1.231l0 0c-0.322-0.305-0.758-0.492-1.238-0.492-0.344 0-0.665 0.096-0.939 0.263l0.008-0.005c-0.031-0.431-0.215-0.815-0.498-1.1l0 0c-0.321-0.305-0.756-0.493-1.236-0.493s-0.915 0.188-1.236 0.494l0.001-0.001-1.078 1.078-2.312-2.312c0.012-2.14 0.91-4.068 2.347-5.437l0.003-0.003c0.77 0.529 3.376 2.085 5.807 0.87 0.038-0.020 3.533-1.869 5.488-0.729-0.454 0.246-0.846 0.528-1.199 0.852l0.004-0.004-4.561 3.859 0.165 0.247c0.51 0.765 1.943 2.053 3.716 1.465 1.394-0.56 2.548-1.472 3.385-2.628l0.015-0.022h1.689zM25.658 16.538l-5.186-5.204h-2.316l-0.099 0.148c-0.789 1.119-1.862 1.99-3.114 2.517l-0.047 0.018c-0.203 0.057-0.437 0.090-0.678 0.090-0.855 0-1.613-0.414-2.086-1.051l-0.005-0.007 4.11-3.479c0.089-0.089 2.201-2.145 4.616-0.938 0.663 0.301 1.438 0.476 2.254 0.476 1.203 0 2.317-0.381 3.228-1.029l-0.017 0.012c1.44 1.372 2.338 3.3 2.35 5.438v0.002z"/>
</svg>
