<svg version="1.1" xmlns="http://www.w3.org/2000/svg" width="32" height="32" viewBox="0 0 32 32">
    <path fill="currentColor" d="M29.325 11.593l-0.059-0.261-0.282 0.001c-1.292 0-2.947-0.379-3.741-1.228-1.085-1.159-2.322-1.772-3.577-1.772h-9.667v1.343c0.011 0.37 0.158 0.701 0.424 0.991h-5.757c-1.234 0-2 0.702-2 1.833 0 0.472 0.14 0.864 0.386 1.167h-0.728c-0.3 0.008-0.578 0.11-0.824 0.278-0.022 0.012-0.040 0.029-0.061 0.042-0.036 0.027-0.075 0.050-0.11 0.080-0.42 0.317-0.663 0.806-0.663 1.433 0 0.024 0.005 0.045 0.006 0.069-0.001 0.036-0.007 0.071-0.006 0.107 0.017 0.623 0.265 1.105 0.671 1.385-0.425 0.317-0.671 0.808-0.671 1.439 0 1.131 0.766 1.833 2 1.833h0.386c-0.245 0.303-0.386 0.695-0.386 1.167 0 1.131 0.766 1.833 2 1.833h15.015c1.327 0 2.62-0.52 3.553-1.43 0.783-0.764 2.564-1.237 3.765-1.237h0.281l0.048-0.276c0.035-0.203 0.85-5.008-0.003-8.797zM6.667 14.333h8v2.333h-10c-0.595 0-1.298-0.199-1.328-1.11 0.012-0.3 0.107-0.596 0.278-0.823 0.051-0.068 0.122-0.138 0.203-0.203 0.25-0.148 0.561-0.197 0.847-0.197h2zM3.333 18.5c0-0.928 0.671-1.148 1.263-1.163l10.050 0.121 0.001-0.124h0.019v2.333h-10c-0.608 0-1.333-0.202-1.333-1.167zM28.714 20.007c-1.32 0.064-3.061 0.557-3.949 1.423-0.805 0.787-1.928 1.237-3.084 1.237h-15.014c-0.608 0-1.333-0.202-1.333-1.167s0.725-1.167 1.333-1.167h8v0.667h0.667v-8h-0.667v0.667h-8c-0.608 0-1.333-0.202-1.333-1.167s0.725-1.167 1.333-1.167h6.772c1.518 0.634 3.831 0.677 4.631 0.671 1.023 4.049 5.203 4.326 5.246 4.328l0.037-0.665c-0.159-0.009-3.898-0.27-4.693-4.069l-0.057-0.274-0.28 0.009c-1.139 0.036-4.318-0.079-5.347-1.047-0.201-0.189-0.302-0.395-0.309-0.62v-0.667h9c1.346 0 2.424 0.849 3.090 1.561 0.933 0.996 2.662 1.389 3.973 1.434 0.63 3.119 0.139 6.971-0.016 8.012z"/>
</svg>
