<svg version="1.1" xmlns="http://www.w3.org/2000/svg" width="32" height="32" viewBox="0 0 32 32">
    <path fill="currentColor" d="M28 21.367v-1.367c-0.013-3.624-1.625-6.869-4.166-9.068l-0.015-0.013c0.16-0.368 0.318-0.673 0.494-0.966l-0.021 0.037c-0.173-0.143-0.357-0.271-0.537-0.405-0.155 0.246-0.314 0.539-0.455 0.842l-0.021 0.051c-1.237-0.96-2.705-1.691-4.302-2.098l-0.082-0.018c0.050-0.151 0.081-0.238 0.084-0.245l0.128-0.347-0.358-0.092c-0.824-0.218-1.77-0.344-2.745-0.344-0.979 0-1.928 0.126-2.832 0.364l0.077-0.017-0.358 0.092 0.129 0.347c0.002 0.007 0.034 0.093 0.083 0.242-1.679 0.424-3.147 1.155-4.411 2.135l0.027-0.020c-0.162-0.354-0.321-0.647-0.497-0.928l0.020 0.035c-0.18 0.134-0.364 0.262-0.537 0.405 0.156 0.256 0.314 0.561 0.453 0.877l0.021 0.052c-2.556 2.212-4.168 5.457-4.181 9.079v1.369c-0.767 0.16-1.335 0.83-1.335 1.633 0 0.92 0.746 1.667 1.667 1.667 0.001 0 0.001 0 0.002 0h23.333c0 0 0 0 0 0 0.92 0 1.667-0.746 1.667-1.667 0-0.802-0.567-1.473-1.323-1.631l-0.011-0.002zM18.232 8.241c-0.408 1.238-1.615 5.431-0.664 9.092h-3.124c0.95-3.661-0.264-7.852-0.674-9.090 0.672-0.154 1.444-0.242 2.236-0.242 0.789 0 1.558 0.087 2.297 0.253l-0.070-0.013zM4.667 20c0.011-3.341 1.461-6.342 3.763-8.415l0.010-0.009c0.568 1.619 0.897 3.485 0.897 5.428 0 0.116-0.001 0.232-0.004 0.347l0-0.017h0.667c0.003-0.115 0.004-0.25 0.004-0.386 0-2.091-0.371-4.096-1.051-5.952l0.039 0.12c1.21-0.97 2.655-1.702 4.233-2.1l0.077-0.017c0.488 1.676 1.354 5.448 0.381 8.568l-0.135 0.432h4.914l-0.135-0.432c-0.972-3.119-0.114-6.889 0.372-8.568 1.655 0.414 3.1 1.146 4.331 2.133l-0.022-0.017c-0.642 1.736-1.013 3.74-1.013 5.832 0 0.136 0.002 0.271 0.005 0.406l-0-0.020h0.667c-0.002-0.098-0.003-0.214-0.003-0.33 0-1.943 0.328-3.809 0.932-5.546l-0.036 0.118c2.312 2.083 3.762 5.083 3.773 8.422v1.335h-22.667zM27.667 24h-23.333c-0.552 0-1-0.448-1-1s0.448-1 1-1v0h23.333c0.552 0 1 0.448 1 1s-0.448 1-1 1v0z"/>
</svg>
