<svg version="1.1" xmlns="http://www.w3.org/2000/svg" width="32" height="32" viewBox="0 0 32 32">
    <path fill="currentColor" d="M28.064 16.298c-0.554-0.745-1.414-1.234-2.391-1.281l-0.007-0v-2.683c0-5.339-4.328-9.667-9.667-9.667s-9.667 4.328-9.667 9.667v0 2.682c-0.988 0.042-1.852 0.534-2.4 1.274l-0.006 0.009c-0.591 0.933-0.942 2.068-0.942 3.286 0 0.146 0.005 0.291 0.015 0.435l-0.001-0.019c-0.009 0.124-0.014 0.27-0.014 0.416 0 1.218 0.351 2.353 0.957 3.311l-0.015-0.025c0.592 0.793 1.528 1.302 2.582 1.302 0.053 0 0.105-0.001 0.157-0.004l-0.007 0c0.044 0.002 0.095 0.003 0.147 0.003 1.057 0 1.996-0.508 2.585-1.293l0.006-0.008c0.595-0.932 0.949-2.069 0.949-3.288 0-0.146-0.005-0.291-0.015-0.434l0.001 0.019c0.009-0.124 0.014-0.269 0.014-0.415 0-1.219-0.354-2.356-0.964-3.313l0.015 0.025c-0.554-0.745-1.414-1.234-2.391-1.281l-0.007-0v-2.683c0-4.971 4.029-9 9-9s9 4.029 9 9v0 2.682c-0.988 0.042-1.852 0.534-2.4 1.274l-0.006 0.009c-0.591 0.933-0.942 2.068-0.942 3.286 0 0.146 0.005 0.291 0.015 0.435l-0.001-0.019c-0.009 0.124-0.014 0.27-0.014 0.416 0 1.218 0.351 2.353 0.957 3.311l-0.015-0.025c0.173 0.232 0.368 0.433 0.586 0.606l0.007 0.005c-1.097 0.951-2.402 1.697-3.835 2.157l-0.078 0.022c-0.232-1.078-1.177-1.875-2.308-1.875-1.302 0-2.358 1.056-2.358 2.358s1.056 2.358 2.358 2.358c1.229 0 2.239-0.941 2.348-2.142l0.001-0.009c1.734-0.525 3.23-1.383 4.483-2.507l-0.011 0.010c0.435 0.199 0.943 0.316 1.479 0.316 0.021 0 0.043-0 0.064-0.001l-0.003 0c0.044 0.002 0.095 0.003 0.147 0.003 1.057 0 1.996-0.508 2.585-1.293l0.006-0.008c0.595-0.932 0.949-2.069 0.949-3.288 0-0.146-0.005-0.291-0.015-0.434l0.001 0.019c0.009-0.124 0.014-0.269 0.014-0.415 0-1.219-0.354-2.356-0.964-3.313l0.015 0.025zM8.864 16.696c0.513 0.825 0.818 1.827 0.818 2.9 0 0.142-0.005 0.283-0.016 0.423l0.001-0.019c0.009 0.121 0.015 0.262 0.015 0.404 0 1.073-0.304 2.075-0.831 2.924l0.014-0.024c-0.473 0.63-1.218 1.033-2.058 1.033-0.051 0-0.103-0.002-0.153-0.005l0.007 0c-0.044 0.003-0.096 0.004-0.149 0.004-0.836 0-1.579-0.403-2.043-1.026l-0.005-0.007c-0.51-0.826-0.812-1.828-0.812-2.9 0-0.143 0.005-0.284 0.016-0.424l-0.001 0.019c-0.009-0.121-0.015-0.263-0.015-0.405 0-1.072 0.302-2.073 0.825-2.924l-0.014 0.024c0.469-0.63 1.211-1.033 2.048-1.033 0.052 0 0.104 0.002 0.156 0.005l-0.007-0c0.044-0.003 0.095-0.004 0.147-0.004 0.839 0 1.585 0.403 2.052 1.027l0.005 0.007zM17 28.667c-0.92 0-1.667-0.746-1.667-1.667s0.746-1.667 1.667-1.667c0.92 0 1.667 0.746 1.667 1.667v0c-0.001 0.92-0.747 1.666-1.667 1.667h-0zM27.531 23.304c-0.473 0.63-1.218 1.033-2.058 1.033-0.052 0-0.103-0.002-0.153-0.005l0.007 0c-0.044 0.003-0.096 0.004-0.149 0.004-0.836 0-1.579-0.403-2.043-1.026l-0.005-0.007c-0.51-0.826-0.812-1.828-0.812-2.9 0-0.143 0.005-0.284 0.016-0.424l-0.001 0.019c-0.009-0.121-0.015-0.263-0.015-0.405 0-1.072 0.302-2.073 0.825-2.924l-0.014 0.024c0.469-0.63 1.211-1.033 2.048-1.033 0.052 0 0.104 0.002 0.156 0.005l-0.007-0c0.044-0.003 0.095-0.004 0.147-0.004 0.839 0 1.585 0.403 2.052 1.027l0.005 0.007c0.513 0.825 0.818 1.827 0.818 2.9 0 0.142-0.005 0.283-0.016 0.423l0.001-0.019c0.009 0.121 0.015 0.262 0.015 0.404 0 1.073-0.304 2.075-0.831 2.924l0.014-0.024z"/>
</svg>
