<svg version="1.1" xmlns="http://www.w3.org/2000/svg" width="32" height="32" viewBox="0 0 32 32">
    <path fill="currentColor" d="M26.047 5.333c0.207-1.367 0.373-2.267 0.38-2.293l0.073-0.393h-10.333l0.073 0.393s0.173 0.92 0.38 2.293h-2.733l0.133 0.433c0.013 0.040 1.14 3.733 1.32 7.913l0.013 0.32h11.973l0.013-0.32c0.18-4.187 1.307-7.88 1.32-7.913l0.133-0.433h-2.733zM14.773 6h1.94c0.28 2.013 0.587 4.767 0.613 7.333h-1.347c-0.18-3.307-0.913-6.26-1.207-7.333zM22.667 13.333h-0.333v-1.333h0.333v1.333zM21.667 13.333h-0.667v-1.333h0.667v1.333zM20.333 13.333h-0.333v-1.333h0.333v1.333zM24.667 13.333h-1.333v-2h-4v2h-1.333c-0.040-4.093-0.793-8.667-1.033-10.020h8.733c-0.24 1.353-0.993 5.927-1.033 10.020zM26.68 13.333h-1.347c0.027-2.567 0.333-5.32 0.613-7.333h1.94c-0.293 1.073-1.027 4.027-1.207 7.333z"/>
    <path fill="currentColor" d="M22.5 4.333h-2.333v0.833s-0.833 0-0.833 0v2.333h0.833s0 0.833 0 0.833h2.333v-0.833h0.833s0-2.333 0-2.333h-0.833v-0.833zM22.667 5.833v1h-0.833s0 0.833 0 0.833h-1v-0.833s-0.833 0-0.833 0v-1h0.833s0-0.833 0-0.833h1v0.833h0.833z"/>
    <path fill="currentColor" d="M7.333 18.653h1.333v2h4.667v-5.3l-0.1-0.1c-3.033-2.893-5.007-3.847-5.093-3.887l-0.14-0.067-0.14 0.067c-0.080 0.040-2.047 0.993-5.080 3.887l-0.1 0.1v5.3h4.667v-2zM6.667 19.987h-3.333v-4.347c2.44-2.307 4.167-3.327 4.66-3.593 0.493 0.267 2.233 1.287 4.673 3.593v4.347h-3.333v-2h-2.667v2z"/>
    <path fill="currentColor" d="M9.693 13.987h-0.66v-0.667h-2v0.667h-0.66v2h0.66v0.667h2v-0.667h0.66v-2zM9.027 15.32h-0.66v0.667h-0.667v-0.667h-0.66v-0.667h0.66v-0.667h0.667v0.667h0.66v0.667z"/>
    <path fill="currentColor" d="M20.667 26h0.667v-0.667h0.667v-0.667h-0.667v-0.667h-0.667v0.667h-0.667v0.667h0.667v0.667z"/>
    <path fill="currentColor" d="M14.807 23.087s0.807 2.647 1.167 5.947l0.033 0.3h3.993v-2h2v2h4.027l0.033-0.3c0.36-3.3 1.16-5.92 1.167-5.947l0.133-0.433h-12.68l0.133 0.433zM26.46 23.32c-0.233 0.853-0.747 2.893-1.033 5.347h-2.76v-2h-3.333v2h-2.733c-0.287-2.447-0.8-4.487-1.033-5.347h10.893z"/>
    <path fill="currentColor" d="M13.333 6.2v-0.673c-3.34 0.64-6.127 2.833-7.58 5.807h0.74c1.38-2.6 3.867-4.527 6.84-5.133z"/>
    <path fill="currentColor" d="M24.147 22c1.167-1.713 1.853-3.773 1.853-6 0-0.453-0.040-0.893-0.093-1.333h-0.673c0.060 0.44 0.1 0.88 0.1 1.333 0 2.253-0.76 4.327-2.020 6h0.833z"/>
    <path fill="currentColor" d="M6.887 21.333h-0.78c1.74 3 4.9 5.073 8.56 5.3v-0.667c-3.273-0.22-6.113-2.013-7.78-4.633z"/>
</svg>
