<svg version="1.1" xmlns="http://www.w3.org/2000/svg" width="32" height="32" viewBox="0 0 32 32">
    <path fill="currentColor" d="M27.333 21.333c0-1.1-0.9-2-2-2s-2 0.9-2 2 0.9 2 2 2 2-0.9 2-2zM24 21.333c0-0.733 0.6-1.333 1.333-1.333s1.333 0.6 1.333 1.333-0.6 1.333-1.333 1.333-1.333-0.6-1.333-1.333z"/>
    <path fill="currentColor" d="M25.333 24c-2.207 0-4 1.793-4 4h0.667c0-1.84 1.493-3.333 3.333-3.333s3.333 1.493 3.333 3.333h0.667c0-2.207-1.793-4-4-4z"/>
    <path fill="currentColor" d="M18.667 21.333c0-1.1-0.9-2-2-2s-2 0.9-2 2 0.9 2 2 2 2-0.9 2-2zM15.333 21.333c0-0.733 0.6-1.333 1.333-1.333s1.333 0.6 1.333 1.333-0.6 1.333-1.333 1.333-1.333-0.6-1.333-1.333z"/>
    <path fill="currentColor" d="M16.667 24c-2.207 0-4 1.793-4 4h0.667c0-1.84 1.493-3.333 3.333-3.333s3.333 1.493 3.333 3.333h0.667c0-2.207-1.793-4-4-4z"/>
    <path fill="currentColor" d="M6 2.667v12.787c-0.773 0.273-1.333 1.007-1.333 1.88 0 1.1 0.9 2 2 2 0.867 0 1.6-0.56 1.88-1.333h4.153l-3.187 3.187c-0.727-0.733-1.733-1.187-2.84-1.187-2.207 0-4 1.793-4 4h0.667c0-1.84 1.493-3.333 3.333-3.333s3.333 1.493 3.333 3.333h0.667c0-0.853-0.273-1.647-0.733-2.3l3.7-3.7h15.693v-15.333h-23.333zM6.667 18.667c-0.733 0-1.333-0.6-1.333-1.333s0.6-1.333 1.333-1.333 1.333 0.6 1.333 1.333-0.6 1.333-1.333 1.333zM28.667 17.333h-14.36l0.847-0.847-0.473-0.473-1.32 1.32h-4.693c0-1.1-0.9-2-2-2v-10h22v12zM6.667 4.667v-1.333h22v1.333h-22z"/>
    <path fill="currentColor" d="M15.327 15.333h4.673v-2h2v-4.667h-2v-2h-4.673v2h-1.993v4.667h1.993v2zM14 12.667v-3.333h1.993v-2h3.34v2h2v3.333h-2v2h-3.34v-2h-1.993z"/>
</svg>
