<svg version="1.1" xmlns="http://www.w3.org/2000/svg" width="32" height="32" viewBox="0 0 32 32">
    <path fill="currentColor" d="M22 11.74c0-3.307-2.693-6-6-6s-6 2.693-6 6 2.693 6 6 6 6-2.693 6-6zM10.667 11.74c0-2.94 2.393-5.333 5.333-5.333s5.333 2.393 5.333 5.333-2.393 5.333-5.333 5.333-5.333-2.393-5.333-5.333z"/>
    <path fill="currentColor" d="M17.667 14.667v-1.333h1.333v-3.34h-1.333v-1.327h-3.333v1.327h-1.333v3.34h1.333v1.333h3.333zM13.667 12.667v-2.007h1.333v-1.327h2v1.327h1.333v2.007h-1.333v1.333h-2v-1.333h-1.333z"/>
    <path fill="currentColor" d="M26.267 26.54c-1.167-2.513-3.3-5.573-5.020-7.753 0.413-0.16 0.8-0.367 1.12-0.68 0.573-0.573 0.793-1.367 1.007-2.133 0.1-0.373 0.2-0.72 0.333-1.040 0.127-0.307 0.3-0.607 0.487-0.933 0.4-0.693 0.813-1.413 0.813-2.26s-0.413-1.567-0.813-2.26c-0.187-0.32-0.36-0.627-0.487-0.933-0.133-0.32-0.233-0.673-0.333-1.040-0.213-0.767-0.433-1.56-1.007-2.133s-1.367-0.793-2.133-1.007c-0.373-0.1-0.72-0.2-1.040-0.333-0.307-0.127-0.607-0.3-0.933-0.487-0.693-0.4-1.413-0.813-2.26-0.813s-1.567 0.413-2.26 0.813c-0.32 0.187-0.627 0.36-0.933 0.487-0.32 0.133-0.673 0.233-1.040 0.333-0.767 0.213-1.56 0.433-2.133 1.007s-0.793 1.367-1.007 2.133c-0.1 0.373-0.2 0.72-0.333 1.040-0.127 0.307-0.3 0.607-0.487 0.933-0.4 0.693-0.813 1.413-0.813 2.26s0.413 1.567 0.813 2.26c0.187 0.32 0.36 0.627 0.487 0.933 0.133 0.32 0.233 0.673 0.333 1.040 0.213 0.767 0.433 1.56 1.007 2.133 0.313 0.313 0.7 0.52 1.107 0.68-1.713 2.18-3.847 5.253-5.007 7.773l-0.42 0.907 0.88-0.473c1.307-0.707 2.713-1.36 3.34-1.64l1.28 3.82 0.353-0.767c1.107-2.407 3.167-5.387 4.82-7.5 1.66 2.113 3.733 5.1 4.847 7.5l0.353 0.76 1.267-3.82c0.627 0.28 2.040 0.927 3.347 1.633l0.88 0.473-0.42-0.907zM9.273 15.793c-0.107-0.373-0.213-0.76-0.36-1.12-0.14-0.347-0.333-0.68-0.527-1.007-0.373-0.647-0.72-1.26-0.72-1.927s0.353-1.28 0.727-1.927c0.187-0.327 0.38-0.667 0.527-1.007 0.147-0.36 0.253-0.747 0.36-1.12 0.2-0.713 0.387-1.387 0.833-1.84 0.447-0.447 1.127-0.633 1.84-0.833 0.373-0.1 0.76-0.213 1.12-0.36 0.347-0.14 0.68-0.333 1.007-0.527 0.647-0.373 1.26-0.727 1.927-0.727s1.28 0.353 1.927 0.72c0.327 0.187 0.667 0.38 1.007 0.527 0.36 0.147 0.747 0.253 1.12 0.36 0.713 0.2 1.387 0.387 1.84 0.833s0.633 1.12 0.833 1.84c0.107 0.373 0.213 0.76 0.36 1.12 0.14 0.347 0.333 0.68 0.527 1.007 0.373 0.647 0.727 1.26 0.727 1.927s-0.353 1.28-0.72 1.927c-0.187 0.327-0.38 0.667-0.527 1.007-0.147 0.36-0.253 0.747-0.36 1.12-0.2 0.713-0.387 1.387-0.833 1.84s-1.127 0.633-1.84 0.833c-0.373 0.107-0.76 0.213-1.12 0.36-0.347 0.14-0.68 0.34-1.007 0.527-0.647 0.373-1.26 0.727-1.927 0.727s-1.28-0.353-1.927-0.727c-0.327-0.187-0.667-0.38-1.007-0.527-0.36-0.147-0.747-0.253-1.12-0.36-0.713-0.2-1.387-0.387-1.84-0.833-0.447-0.447-0.633-1.12-0.833-1.84zM10.927 27.38l-0.987-2.94-0.333 0.147s-1.353 0.593-2.813 1.34c1.227-2.347 3.107-5.013 4.62-6.92 0.12 0.033 0.24 0.067 0.353 0.1 0.373 0.1 0.72 0.2 1.040 0.333 0.307 0.127 0.607 0.3 0.933 0.487 0.507 0.287 1.020 0.587 1.593 0.727-1.487 1.92-3.26 4.487-4.407 6.727zM22.393 24.58l-0.333-0.147-0.98 2.947c-1.153-2.24-2.94-4.807-4.427-6.72 0.58-0.14 1.1-0.44 1.613-0.733 0.32-0.187 0.627-0.36 0.933-0.487 0.32-0.133 0.673-0.233 1.040-0.333 0.113-0.033 0.227-0.067 0.34-0.1 1.52 1.9 3.407 4.56 4.64 6.9-1.467-0.74-2.807-1.327-2.82-1.333z"/>
</svg>
