<svg version="1.1" xmlns="http://www.w3.org/2000/svg" width="32" height="32" viewBox="0 0 32 32">
    <path fill="currentColor" d="M17 7.667h-2v1h-1v2h1v1h2v-1h1v-2h-1v-1zM17.333 9.333v0.667h-1v1h-0.667v-1h-1v-0.667h1v-1h0.667v1h1zM29.116 18.819l-3.449-6.898v-2.308c0.424-0.111 0.788-0.419 0.934-0.866 0.111-0.339 0.083-0.7-0.078-1.018s-0.437-0.554-0.775-0.664c-0.699-0.229-1.452 0.154-1.682 0.853-0.048 0.147-0.065 0.298-0.061 0.448-1.074 0.286-2.209 0.509-3.386 0.666-0.311-2.274-2.261-4.033-4.619-4.033-2.372 0-4.332 1.78-4.625 4.073-1.208-0.146-2.322-0.353-3.383-0.629 0.021-0.244-0.023-0.49-0.136-0.714-0.161-0.318-0.437-0.554-0.775-0.664-0.699-0.229-1.452 0.154-1.682 0.853-0.111 0.339-0.083 0.7 0.078 1.018s0.437 0.554 0.775 0.664c0.027 0.009 0.054 0.006 0.081 0.013v2.308l-3.449 6.898c-0.135 0.145-0.218 0.313-0.218 0.513 0 1.204 2.798 1.334 4 1.334s4-0.13 4-1.334c0-0.2-0.083-0.368-0.218-0.513l-3.449-6.898v-2.308c0.31-0.081 0.582-0.268 0.765-0.539 1.121 0.294 2.296 0.514 3.572 0.666 0.038 2.427 1.937 4.406 4.33 4.576v11.017h-4v2h8.667v-2h-4v-11.017c2.406-0.171 4.314-2.171 4.332-4.616 1.224-0.162 2.406-0.394 3.524-0.693 0.165 0.28 0.418 0.491 0.73 0.593 0.027 0.009 0.054 0.006 0.081 0.013v2.308l-3.449 6.898c-0.135 0.145-0.218 0.313-0.218 0.513 0 1.204 2.798 1.334 4 1.334s4-0.13 4-1.334c0-0.2-0.083-0.368-0.218-0.513zM19.667 26.667h-7.333v-0.667h7.333v0.667zM28.108 18.295c-0.906-0.253-2.095-0.295-2.775-0.295s-1.869 0.042-2.775 0.295l2.775-5.549 2.775 5.549zM6.667 12.746l2.775 5.549c-0.906-0.253-2.095-0.295-2.775-0.295s-1.869 0.042-2.775 0.295l2.775-5.549zM6.667 20c-2.211 0-3.207-0.423-3.312-0.63l0.082-0.163c0.289-0.222 1.273-0.54 3.231-0.54s2.942 0.318 3.231 0.54l0.082 0.163c-0.106 0.208-1.101 0.63-3.312 0.63zM7.3 8.54c-0.114 0.35-0.491 0.54-0.84 0.427-0.169-0.055-0.307-0.174-0.388-0.332s-0.094-0.34-0.038-0.508c0.092-0.281 0.354-0.46 0.634-0.46 0.068 0 0.138 0.011 0.206 0.033 0.169 0.055 0.307 0.174 0.388 0.332s0.094 0.34 0.038 0.508zM16 13.667c-2.206 0-4-1.794-4-4s1.794-4 4-4 4 1.794 4 4-1.794 4-4 4zM24.738 8.635c-0.080-0.159-0.094-0.34-0.038-0.508 0.092-0.281 0.354-0.46 0.634-0.46 0.068 0 0.138 0.011 0.206 0.033 0.169 0.055 0.307 0.174 0.388 0.332s0.094 0.34 0.038 0.508c-0.114 0.35-0.49 0.54-0.84 0.427-0.169-0.055-0.307-0.174-0.388-0.332zM25.333 20c-2.211 0-3.207-0.423-3.312-0.63l0.082-0.163c0.289-0.222 1.273-0.54 3.231-0.54s2.942 0.318 3.231 0.54l0.082 0.163c-0.106 0.208-1.101 0.63-3.312 0.63z"/>
</svg>
