<svg version="1.1" xmlns="http://www.w3.org/2000/svg" width="32" height="32" viewBox="0 0 32 32">
    <path fill="currentColor" d="M14.333 10h3.333v-2h2v-3.333h-2v-2h-3.333v2h-2v3.333h2v2zM13 7.333v-2h2v-2h2v2h2v2h-2v2h-2v-2h-2z"/>
    <path fill="currentColor" d="M9.287 12.667c-0.92 0-1.667 0.747-1.667 1.667s0.747 1.667 1.667 1.667 1.667-0.747 1.667-1.667-0.747-1.667-1.667-1.667zM9.287 15.333c-0.553 0-1-0.447-1-1s0.447-1 1-1 1 0.447 1 1-0.447 1-1 1z"/>
    <path fill="currentColor" d="M22.713 16c0.92 0 1.667-0.747 1.667-1.667s-0.747-1.667-1.667-1.667-1.667 0.747-1.667 1.667 0.747 1.667 1.667 1.667zM22.713 13.333c0.553 0 1 0.447 1 1s-0.447 1-1 1-1-0.447-1-1 0.447-1 1-1z"/>
    <path fill="currentColor" d="M18.667 28.667h8v-2.667h-8v2.667zM19.333 26.667h6.667v1.333h-6.667v-1.333z"/>
    <path fill="currentColor" d="M8.98 21.987c0 0.033-0.127 3.333-0.72 6.68h0.673c0.153-0.887 0.287-1.773 0.38-2.593 0.093 0.82 0.227 1.707 0.38 2.593h0.673c-0.593-3.347-0.72-6.647-0.72-6.68h-0.667z"/>
    <path fill="currentColor" d="M20.387 15.887c0.18 0.12 0.28 0.313 0.28 0.533-0.013 1.24-0.087 5.013-0.587 8.92h0.673c0.5-3.907 0.573-7.673 0.587-8.913 0-0.433-0.213-0.84-0.573-1.087-0.76-0.513-2.527-1.933-2.527-4h-0.667c0 2.387 1.967 3.98 2.813 4.553z"/>
    <path fill="currentColor" d="M21.827 25.333h0.673c0.060-0.427 0.12-0.853 0.167-1.253 0.047 0.4 0.107 0.827 0.167 1.253h0.673c-0.407-2.833-0.507-5.307-0.507-5.333h-0.667s-0.093 2.507-0.507 5.333z"/>
    <path fill="currentColor" d="M25.34 16.2c-0.333-0.067-0.673 0.020-0.933 0.233s-0.407 0.533-0.4 0.873c0.027 1.407 0.127 4.587 0.573 8.027h0.673c-0.453-3.44-0.553-6.633-0.58-8.040 0-0.14 0.053-0.267 0.16-0.353s0.24-0.12 0.373-0.093c0.84 0.173 2.107 0.46 3.353 0.887l0.107 0.040v-0.7c-1.247-0.42-2.493-0.707-3.327-0.873z"/>
    <path fill="currentColor" d="M6.66 16.2c-1.040 0.213-2.567 0.573-3.993 1.113v0.713l0.12-0.047c1.42-0.547 2.96-0.913 4-1.127 0.133-0.027 0.273 0.007 0.373 0.093 0.107 0.087 0.167 0.213 0.16 0.353-0.033 1.88-0.52 6.987-1.32 11.307l-0.013 0.060h0.68c0.8-4.347 1.287-9.467 1.32-11.353 0-0.34-0.14-0.66-0.4-0.88s-0.6-0.3-0.933-0.233z"/>
    <path fill="currentColor" d="M11.3 15.313c-0.4 0.253-0.633 0.7-0.607 1.167 0.087 1.667 0.427 7.447 1.3 12.187h0.68l-0.013-0.060c-0.873-4.707-1.213-10.493-1.3-12.16-0.013-0.233 0.1-0.447 0.3-0.567 0.907-0.573 3.007-2.167 3.007-4.547h-0.667c0 2.047-1.887 3.467-2.7 3.98z"/>
</svg>
