<svg version="1.1" xmlns="http://www.w3.org/2000/svg" width="32" height="32" viewBox="0 0 32 32">
    <path fill="currentColor" d="M16 27.706l-1.482-0.741c-12.547-6.317-11.884-14.646-11.849-14.997-0.002-3.078 1.836-5.723 4.793-6.868 3.008-1.165 6.319-0.475 8.539 1.751 2.218-2.227 5.531-2.916 8.539-1.751 2.957 1.146 4.795 3.79 4.795 6.901 0.033 0.319 0.696 8.647-11.85 14.965l-1.483 0.742zM10.422 5.207c-0.907 0-1.828 0.168-2.72 0.514-2.695 1.044-4.369 3.45-4.369 6.279-0.009 0.114-0.628 8.271 11.483 14.369l1.184 0.592 1.184-0.592c6.339-3.191 9.124-6.923 10.343-9.491 1.317-2.774 1.143-4.826 1.141-4.846-0.002-2.861-1.676-5.268-4.37-6.311-2.863-1.109-6.023-0.388-8.051 1.837l-0.246 0.27-0.246-0.27c-1.396-1.532-3.329-2.351-5.331-2.351z"/>
</svg>
