<svg version="1.1" xmlns="http://www.w3.org/2000/svg" width="32" height="32" viewBox="0 0 32 32">
    <path fill="currentColor" d="M28.121 19.333h-3.845c0.35-5.616 0.962-10.746 1.84-15.785l-0.122 0.845 0.074-0.394h-20.135l0.073 0.394c0.756 4.193 1.368 9.323 1.698 14.53l0.021 0.41h-3.845l0.137 0.433c0.014 0.047 1.451 4.651 1.318 7.887l-0.013 0.347h21.361l-0.014-0.347c-0.133-3.236 1.303-7.84 1.318-7.886zM4.781 20h2.984c0.137 2.32 0.226 4.791 0.233 7.333h-1.99c-0.101-2.651-0.543-5.16-1.282-7.539l0.055 0.205zM19.333 27.333h-1.333v-3.333h1.333zM17.333 27.333h-2.667v-3.333h2.667zM14 27.333h-1.333v-3.333h1.333zM23.334 27.333h-3.334v-4h-8v4h-3.334c-0.061-8.050-0.763-15.89-2.056-23.529l0.121 0.862h18.539c-1.173 6.776-1.874 14.616-1.935 22.608l-0 0.059zM25.992 27.333h-1.99c0.007-2.542 0.096-5.013 0.233-7.333h2.984c-0.685 2.173-1.126 4.682-1.226 7.279l-0.002 0.054zM18 8h-4v2h-2v4h2v2h4v-2h2v-4h-2zM19.333 10.667v2.667h-2v2h-2.667v-2h-2v-2.667h2v-2h2.667v2z"/>
</svg>
