<svg version="1.1" xmlns="http://www.w3.org/2000/svg" width="32" height="32" viewBox="0 0 32 32">
    <path fill="currentColor" d="M29.44 13.78l-0.107-0.1c-4.34-4.147-7.313-5.793-7.993-6.147v-0.207h1.993v-1.94h-2.66v2.187c-0.507 0.267-1.86 1.047-3.873 2.613-0.92-1.133-2.32-1.86-3.887-1.86-2.5 0-4.493 1.867-4.94 4.253-0.167 0.887-0.793 3.507-0.793 3.507h1.573c0.84 1.26 2.233 2.113 3.833 2.22v1.38c-5.247 0.173-9.48 4.393-9.667 9.64h0.667c0.127-3.3 1.973-6.16 4.66-7.72v4.013c-0.62 0.153-1.087 0.707-1.087 1.373 0 0.78 0.64 1.42 1.42 1.42s1.42-0.64 1.42-1.42c0-0.667-0.467-1.227-1.087-1.373v-4.367c0.327-0.153 0.66-0.293 1.007-0.413 0.553 1.44 1.533 2.687 2.807 3.533l0.187 0.12 0.187-0.12c1.273-0.847 2.26-2.1 2.813-3.54 0.113 0.040 0.227 0.080 0.34 0.12v3.74c-0.76 0.153-1.333 0.827-1.333 1.633v1.407c-0.293 0.127-0.5 0.42-0.5 0.76 0 0.46 0.373 0.833 0.833 0.833s0.833-0.373 0.833-0.833c0-0.34-0.207-0.633-0.5-0.76v-1.407c0-0.553 0.447-1 1-1s1 0.447 1 1v1.407c-0.293 0.127-0.5 0.42-0.5 0.76 0 0.46 0.373 0.833 0.833 0.833s0.833-0.373 0.833-0.833c0-0.34-0.207-0.633-0.5-0.76v-1.407c0-0.807-0.573-1.48-1.333-1.633v-3.453c3.060 1.44 5.2 4.48 5.34 8.087h0.667s0-0.007 0-0.013c-0.107-2.953-1.473-5.547-3.56-7.3h10.080v-8.24zM21.347 6.060h1.327v0.607h-1.327v-0.607zM9.34 27c0 0.413-0.34 0.753-0.753 0.753s-0.753-0.34-0.753-0.753 0.34-0.753 0.753-0.753 0.753 0.34 0.753 0.753zM15.087 28.5c0-0.093 0.073-0.167 0.167-0.167s0.167 0.073 0.167 0.167c0 0.187-0.333 0.187-0.333 0zM17.92 28.333c0.093 0 0.167 0.073 0.167 0.167 0 0.187-0.333 0.187-0.333 0 0-0.093 0.073-0.167 0.167-0.167zM12.92 9.007c1.44 0 2.713 0.707 3.5 1.787-0.827 0.1-1.62-0.080-2.32-0.487l-0.167-0.1-0.167 0.093c-1.273 0.733-2.72 1.12-4.18 1.12-0.167 0-0.347-0.007-0.533-0.020 0.713-1.42 2.18-2.4 3.867-2.4zM8.020 15.433l0.133-0.593c0.067 0.207 0.147 0.4 0.233 0.593h-0.367zM8.587 13.34c0-0.447 0.067-0.88 0.193-1.287 0.28 0.027 0.547 0.040 0.8 0.040 1.513 0 3.013-0.387 4.347-1.113 0.867 0.46 1.86 0.62 2.86 0.433 0.287 0.58 0.46 1.233 0.46 1.927 0 2.387-1.94 4.333-4.333 4.333s-4.333-1.94-4.333-4.333zM12.92 23.7c-1.053-0.753-1.873-1.82-2.353-3.040 0.753-0.193 1.54-0.313 2.353-0.313s1.6 0.113 2.353 0.307c-0.473 1.227-1.3 2.293-2.353 3.047zM18.48 21.353c-0.167-0.113-0.347-0.213-0.52-0.313 1.633-1.24 2.533-2.967 2.96-4.040 0.46 1.167 1.487 3.113 3.407 4.353h-5.847zM21.247 15.88l-0.047-0.173c1.327 1.040 2.773 1.367 3.413 1.467-0.027 0.727 0 2.54 0.727 4-3.113-1.527-4.087-5.253-4.1-5.293zM28.78 21.353h-2.56c-1.147-1.66-0.927-4.42-0.927-4.453l0.027-0.34-0.34-0.027s-2.4-0.18-4.073-2l-0.32 1.333s-0.813 3.107-3.287 4.813c-1.233-0.6-2.6-0.947-4.053-1v-1.38c1.593-0.107 2.98-0.96 3.82-2.213h1.573s-0.627-2.627-0.793-3.507c-0.127-0.667-0.333-1.293-0.673-1.853 2.047-1.593 3.44-2.38 3.867-2.607 0.66 0.347 3.573 1.993 7.72 5.933v7.287zM17.453 15.433c0.087-0.193 0.173-0.387 0.233-0.593l0.133 0.593h-0.367z"/>
    <path fill="currentColor" d="M20 10v0.667h-0.66v2h0.66v0.667h2v-0.667h0.667v-2h-0.667v-0.667h-2zM22 12h-0.667v0.667h-0.667v-0.667h-0.66v-0.667h0.66v-0.667h0.667v0.667h0.667v0.667z"/>
</svg>
