<svg version="1.1" xmlns="http://www.w3.org/2000/svg" width="32" height="32" viewBox="0 0 32 32">
    <path fill="currentColor" d="M15.999 2.663c-7.352 0-13.333 5.981-13.333 13.333s5.981 13.333 13.333 13.333 13.333-5.981 13.333-13.333-5.981-13.333-13.333-13.333zM15.999 28.663c-6.984 0-12.667-5.682-12.667-12.667s5.682-12.667 12.667-12.667 12.667 5.682 12.667 12.667-5.682 12.667-12.667 12.667zM15 13h2v10.667h-2v-10.667zM17.333 9.333c0 0.888-0.517 1.333-1.333 1.333s-1.333-0.445-1.333-1.333c0-0.889 0.517-1.333 1.333-1.333s1.333 0.444 1.333 1.333z"/>
</svg>
