<svg version="1.1" xmlns="http://www.w3.org/2000/svg" width="32" height="32" viewBox="0 0 32 32">
    <path fill="currentColor" d="M21 18.333h-4.333c-0.703 0-1.362-0.456-1.677-1.162l-3.759-8.475-0.715-0.101-1.544-3.398c-0.439-0.982-1.781-1.553-2.787-1.162l-2.638 1.32c-0.451 0.174-0.777 0.471-0.941 0.857-0.19 0.448-0.16 0.995 0.096 1.604l0.518 1.035-0.65 0.325 5.457 12.619c0.973 2.316 3.374 3.871 5.974 3.871h7v-0.667h2.667v-6h-2.667v-0.667zM13.829 16.199l-3.675 1.696-2.711-5.422 3.821-2.057 2.565 5.783zM3.307 7.538c-0.176-0.419-0.206-0.786-0.088-1.065 0.093-0.219 0.284-0.385 0.596-0.508l2.638-1.32c0.65-0.253 1.614 0.164 1.91 0.827l1.37 3.013-0.972-0.137-0.155-0.046c-1.179-0.35-2.517-0.747-3.755-0.266l-1.035 0.518-0.508-1.015zM18.641 25c-0.059-0.729-0.295-1.5-0.687-2.169l-0.575 0.337c0.334 0.568 0.537 1.218 0.595 1.831h-1.333c-0.059-0.729-0.295-1.5-0.687-2.169l-0.575 0.337c0.334 0.568 0.537 1.218 0.595 1.831h-1.333c-0.059-0.729-0.295-1.5-0.687-2.169l-0.575 0.337c0.333 0.568 0.537 1.216 0.595 1.829-2.325-0.010-4.466-1.397-5.335-3.464l-5.209-12.044 1.689-0.846c0.997-0.386 2.166-0.039 3.297 0.296l2.354 0.364 0.222 0.501-4.435 2.389 3.289 6.578 4.253-1.963 0.281 0.634c0.423 0.946 1.32 1.557 2.286 1.557h3.667v6h-1.692zM23 19.667v4.667h-2v-4.667h2zM29 21.667v0.667h-1.333v-0.667h1.333zM25.292 21.667h1.367v0.667h-1.367v-0.667zM27.238 25.415l1 1.018-0.476 0.467-1-1.018 0.476-0.467zM25.569 23.764l1 1-0.471 0.471-1-1 0.471-0.471zM27.238 18.585l-0.476-0.467 1-1.018 0.476 0.467-1 1.018zM25.569 20.236l-0.471-0.471 1-1 0.471 0.471-1 1z"/>
</svg>
