<svg version="1.1" xmlns="http://www.w3.org/2000/svg" width="32" height="32" viewBox="0 0 32 32">
    <path fill="currentColor" d="M29.333 27v2.333h-0.667v-2.333c0-0.92-0.746-1.667-1.667-1.667s-1.667 0.746-1.667 1.667v0 2.333h-0.667v-2.333c0-0.92-0.746-1.667-1.667-1.667s-1.667 0.746-1.667 1.667v0 2.333h-0.667v-2.333c0-0.92-0.746-1.667-1.667-1.667s-1.667 0.746-1.667 1.667v0 2.333h-0.667v-14.333c0-0.92-0.746-1.667-1.667-1.667s-1.667 0.746-1.667 1.667v0 14.333h-0.667v-3.966c-0.766 0.161-1.332 0.831-1.333 1.633v2.333h-0.667v-2.333c0.003-1.168 0.865-2.133 1.987-2.298l0.013-0.002v-9.7c0-1.289 1.045-2.333 2.333-2.333s2.333 1.045 2.333 2.333v0 10.372c0.422-0.435 1.012-0.706 1.665-0.706 0.85 0 1.593 0.458 1.996 1.14l0.006 0.011c0.408-0.693 1.151-1.151 2-1.151s1.592 0.458 1.994 1.14l0.006 0.011c0.411-0.693 1.156-1.151 2.007-1.151 1.285 0 2.326 1.041 2.326 2.326 0 0.003 0 0.005 0 0.008v-0zM26.333 14.667c0 0.002 0 0.005 0 0.007 0 3.127-1.27 5.957-3.323 8.003l-0 0 0.471 0.471c2.174-2.169 3.519-5.168 3.519-8.481s-1.345-6.312-3.518-8.481l-0-0-0.471 0.471c2.053 2.046 3.323 4.876 3.323 8.003 0 0.003 0 0.005 0 0.008v-0zM15 3.333v-0.667c-6.624 0.008-11.992 5.376-12 11.999v0.001h0.667c0.007-6.256 5.077-11.326 11.333-11.333h0.001zM6.333 14.667c0-0.002 0-0.004 0-0.005 0-2.391 0.971-4.555 2.541-6.12l0-0-0.471-0.471c-1.691 1.687-2.737 4.020-2.737 6.597s1.046 4.91 2.737 6.596l0 0 0.471-0.471c-1.57-1.564-2.541-3.729-2.541-6.12 0-0.002 0-0.004 0-0.006v0zM21.125 8.541c1.57 1.565 2.541 3.729 2.541 6.12 0 0.002 0 0.004 0 0.006v-0h0.667c0-0.002 0-0.004 0-0.006 0-2.575-1.046-4.906-2.736-6.59l-0-0zM15 8c-0.001 0-0.002 0-0.003 0-1.844 0-3.513 0.751-4.717 1.965l-0 0 0.47 0.472c1.085-1.087 2.586-1.76 4.243-1.76 3.311 0 5.996 2.684 5.996 5.996 0 1.667-0.68 3.175-1.779 4.262l-0.001 0 0.47 0.472c1.228-1.209 1.988-2.889 1.988-4.747 0-3.679-2.982-6.662-6.662-6.662-0.002 0-0.004 0-0.006 0h0z"/>
</svg>
