<svg version="1.1" xmlns="http://www.w3.org/2000/svg" width="32" height="32" viewBox="0 0 32 32">
    <path fill="currentColor" d="M13.013 10.927c0.833 0.687 1.88 1.073 2.967 1.073 2.573 0 4.667-2.093 4.667-4.667s-2.093-4.667-4.667-4.667-4.667 2.093-4.667 4.667c0 0.753-0.3 1.473-0.833 2.013l-0.287 0.287 0.34 0.227c0.827 0.553 1.667 0.9 2.48 1.067zM15.98 11.333c-0.527 0-1.040-0.113-1.52-0.313 0.413-0.040 0.807-0.14 1.173-0.3 1.287-0.553 2.193-1.787 2.58-3.487 0.673 0.287 1.3 0.387 1.747 0.42-0.167 2.053-1.887 3.68-3.98 3.68zM11.98 7.333c0-2.207 1.793-4 4-4 2.087 0 3.807 1.607 3.98 3.647-0.467-0.040-1.133-0.16-1.833-0.527l-0.407-0.213-0.080 0.453c-0.287 1.693-1.1 2.907-2.273 3.413s-2.667 0.287-4.147-0.6c0.493-0.62 0.76-1.38 0.76-2.173z"/>
    <path fill="currentColor" d="M21.627 22.14l-0.4 0.533c0.080 0.060 0.127 0.14 0.14 0.233s-0.013 0.187-0.067 0.267c-0.060 0.073-0.14 0.127-0.233 0.14s-0.187-0.013-0.267-0.067c-0.073-0.060-0.127-0.14-0.14-0.24l-0.66 0.093c0.040 0.273 0.18 0.513 0.4 0.68 0.18 0.133 0.393 0.207 0.613 0.207 0.047 0 0.1 0 0.147-0.013 0.273-0.040 0.513-0.18 0.673-0.4 0.167-0.22 0.233-0.487 0.2-0.76-0.040-0.273-0.18-0.513-0.4-0.673z"/>
    <path fill="currentColor" d="M16 12.667c-4.78 0-8.667 3.887-8.667 8.667v0s0 0 0 0 0 0 0 0v0c0 3.68 2.993 6.68 6.68 6.68h2.1s1.913 0 1.913 0v0c3.66 0 6.64-2.993 6.64-6.68 0-4.78-3.887-8.667-8.667-8.667zM15.327 27.347h-1.313c-3.313 0-6.013-2.7-6.013-6.013 0-2.767 1.413-5.213 3.56-6.647l3.46 3.46c0.247 0.247 0.44 0.533 0.573 0.86 0.127 0.313 0.193 0.64 0.193 0.98h0.007c0 0.367 0.060 0.727 0.187 1.080-0.92-0.447-1.987-0.493-3.207-0.167-0.047-0.187-0.080-0.38-0.1-0.58v-0.313h-2v0.667c0.173 3.227 1.827 5.167 4.587 5.333h0.747l-0.68 1.347zM18.047 27.347v0s-1.967-0.007-1.967-0.007l1.007-2.007h1.36c0.2 0.133 0.407 0.247 0.633 0.313 0.313 0.093 0.613 0.133 0.9 0.133 0.873 0 1.647-0.367 2.32-0.753 0.313-0.18 0.673-0.473 0.987-0.86-1.007 1.887-2.98 3.173-5.247 3.18zM21.973 24.447c-0.813 0.467-1.7 0.86-2.7 0.56-0.567-0.173-1.053-0.633-1.3-1.247l-0.62 0.253c0.1 0.24 0.227 0.453 0.373 0.653h-1.060l-0.333 0.667h-1.067c-2.38-0.147-3.76-1.807-3.92-4.667h0.7c0.3 1.947 1.9 3.333 3.947 3.333v-0.667c-1.373 0-2.487-0.707-3.013-1.813 1.747-0.46 3.020-0.053 4.087 1.32l0.14-0.107 0.46-0.26c-0.493-0.873-0.507-1.68-0.033-2.153 0.347-0.353 0.873-0.427 1.293-0.187l0.233 0.133 0.18-0.207c0.467-0.533 1.1-0.807 1.687-0.753 0.693 0.067 1.34 0.587 1.873 1.507 1.060 1.833-0.087 3.153-0.933 3.64zM23.48 20.473c-0.427-0.74-0.887-1.187-1.327-1.46-0.153-0.507-0.433-0.973-0.807-1.347l-0.473 0.473c0.16 0.16 0.293 0.34 0.407 0.527-0.067-0.013-0.127-0.020-0.187-0.027-0.727-0.073-1.487 0.227-2.080 0.8-0.633-0.233-1.367-0.087-1.853 0.407-0.3 0.3-0.473 0.68-0.52 1.107-0.387-0.947-0.187-2.060 0.567-2.813l-0.473-0.473c-0.267 0.267-0.473 0.567-0.627 0.887-0.16-0.327-0.36-0.627-0.613-0.887l-3.347-3.347c1.147-0.633 2.46-0.993 3.853-0.993 4.413 0 8 3.587 8 8 0 0.187-0.013 0.38-0.027 0.56-0.053-0.44-0.2-0.913-0.493-1.42z"/>
</svg>
