<svg version="1.1" xmlns="http://www.w3.org/2000/svg" width="32" height="32" viewBox="0 0 32 32">
    <path fill="currentColor" d="M18.587 25.010l0.16 0.647c-0.917 0.228-1.842 0.343-2.747 0.343s-1.829-0.116-2.747-0.343l0.16-0.647c1.73 0.43 3.443 0.43 5.173 0zM14.065 26.485l-0.122 0.656c0.686 0.128 1.378 0.193 2.057 0.193 0.681 0 1.375-0.065 2.063-0.194l-0.122-0.655c-1.293 0.242-2.583 0.243-3.875 0.001zM14.708 27.919l-0.083 0.661c0.458 0.058 0.921 0.087 1.375 0.087s0.917-0.029 1.375-0.087l-0.083-0.661c-0.859 0.108-1.724 0.108-2.583 0zM16.333 2.635h-0.667v4.032h0.667v-4.032zM11.050 8.579l-2.851-2.851-0.471 0.471 2.851 2.851 0.471-0.471zM8.667 13.667h-4.031v0.667h4.031v-0.667zM7.729 21.799l0.471 0.471 2.851-2.851-0.471-0.471-2.851 2.851zM24.27 6.2l-0.471-0.471-2.851 2.851 0.471 0.471 2.851-2.851zM23.331 13.667v0.667h4.031v-0.667h-4.031zM20.947 19.42l2.851 2.851 0.471-0.471-2.851-2.851-0.471 0.471zM22.333 14.001c0.021 1.59-0.465 3.048-1.408 4.209l-0.003 0.004c-1.372 1.647-2.038 3.642-1.923 5.769l0.015 0.275-0.268 0.066c-0.917 0.228-1.842 0.343-2.747 0.343s-1.829-0.116-2.747-0.343l-0.268-0.066 0.015-0.275c0.115-2.127-0.551-4.122-1.923-5.769-0.945-1.165-1.432-2.623-1.411-4.218-0.003-1.681 0.709-3.344 1.954-4.56 1.213-1.183 2.761-1.809 4.388-1.769 1.576-0.041 3.156 0.585 4.37 1.769 1.245 1.215 1.958 2.879 1.954 4.565zM16 21.894l0.767-5.561h-1.535l0.768 5.561zM21.667 14.005c0.003-1.512-0.636-3.002-1.753-4.091-1.083-1.057-2.496-1.619-3.904-1.58-1.465-0.039-2.839 0.523-3.923 1.58-1.117 1.090-1.757 2.579-1.753 4.086-0.019 1.442 0.416 2.752 1.259 3.791 1.419 1.703 2.138 3.756 2.085 5.949 0.649 0.145 1.293 0.215 1.937 0.239l-1.055-7.644h-1.227c-0.919 0-1.667-0.748-1.667-1.667s0.747-1.667 1.667-1.667c0.693 0 1.545 0.284 1.665 1.637l0.142 1.030h1.718l0.145-1.046c0.118-1.337 0.97-1.621 1.663-1.621 0.919 0 1.667 0.748 1.667 1.667s-0.747 1.667-1.667 1.667h-1.227l-1.054 7.644c0.644-0.024 1.289-0.094 1.937-0.239-0.053-2.192 0.665-4.244 2.087-5.951 0.841-1.039 1.276-2.347 1.257-3.784zM18.667 15.667c0.551 0 1-0.449 1-1s-0.449-1-1-1c-0.638 0-0.937 0.308-1.001 1.030l-0.134 0.97h1.135zM14.337 14.712c-0.066-0.738-0.365-1.046-1.003-1.046-0.551 0-1 0.449-1 1s0.449 1 1 1h1.135l-0.132-0.954z"/>
</svg>
