<svg version="1.1" xmlns="http://www.w3.org/2000/svg" width="32" height="32" viewBox="0 0 32 32">
    <path fill="currentColor" d="M17.902 14.098c1.465 1.465 2.074 3.407 1.761 5.616-0.295 2.076-1.513 4.274-3.428 6.189-2.064 2.064-3.925 3.154-5.855 3.428-0.168 0.023-0.338 0.036-0.51 0.036-1.533 0-3.247-0.939-5.106-2.797-1.498-1.497-2.387-2.556-2.094-4.616 0.295-2.076 1.513-4.274 3.428-6.189 1.672-1.673 3.524-2.596 4.784-3.076l0.238 0.622c-1.199 0.457-2.961 1.335-4.55 2.924-1.813 1.814-2.964 3.878-3.239 5.811-0.242 1.701 0.395 2.541 1.906 4.051 1.911 1.911 3.613 2.776 5.051 2.572 1.78-0.253 3.521-1.282 5.478-3.239 1.813-1.814 2.964-3.878 3.239-5.811 0.287-2.021-0.242-3.721-1.572-5.051-0.985-0.985-2.155-1.35-3.171-1.577l0.146-0.651c1.108 0.248 2.391 0.651 3.496 1.757zM27.236 5.431c-2.067-2.066-3.955-2.992-5.616-2.761-1.931 0.274-3.791 1.363-5.855 3.428-1.915 1.915-3.132 4.113-3.428 6.189-0.313 2.209 0.296 4.151 1.761 5.616 1.105 1.105 2.388 1.508 3.496 1.757l0.146-0.651c-1.015-0.227-2.186-0.592-3.171-1.577-1.33-1.33-1.859-3.029-1.572-5.051 0.275-1.934 1.425-3.997 3.239-5.811 1.957-1.957 3.698-2.986 5.478-3.239 1.438-0.203 3.139 0.661 5.051 2.572 1.51 1.51 2.147 2.35 1.906 4.051-0.275 1.934-1.425 3.997-3.239 5.811-1.589 1.589-3.351 2.467-4.55 2.924l0.238 0.622c1.259-0.48 3.111-1.403 4.784-3.076 1.915-1.915 3.132-4.113 3.428-6.189 0.292-2.060-0.596-3.118-2.094-4.616z"/>
</svg>
