<svg version="1.1" xmlns="http://www.w3.org/2000/svg" width="32" height="32" viewBox="0 0 32 32">
    <path fill="currentColor" d="M24.749 11.979c0-4.887-4.087-9.178-8.754-9.184-4.658 0.006-8.745 4.297-8.743 9.15-0.033 0.326-0.691 8.077 8.465 17.115l0.048 0.106 0.234 0.044 0.236-0.048 0.046-0.102c9.155-9.037 8.497-16.788 8.467-17.081zM16 28.401c-8.716-8.719-8.092-16.313-8.083-16.422 0-4.532 3.775-8.512 8.086-8.517 4.304 0.005 8.079 3.985 8.081 8.55 0.007 0.076 0.651 7.65-8.085 16.389zM16.039 8.719c-1.695 0-3.074 1.379-3.074 3.074s1.379 3.075 3.074 3.075 3.074-1.38 3.074-3.075-1.379-3.074-3.074-3.074zM16.039 14.202c-1.327 0-2.408-1.080-2.408-2.408s1.080-2.408 2.408-2.408 2.408 1.080 2.408 2.408-1.080 2.408-2.408 2.408z"/>
</svg>
