<svg version="1.1" xmlns="http://www.w3.org/2000/svg" width="32" height="32" viewBox="0 0 32 32">
    <path fill="currentColor" d="M16 15c3.492 0 6.333-2.841 6.333-6.333s-2.841-6.333-6.333-6.333-6.333 2.841-6.333 6.333 2.841 6.333 6.333 6.333zM16 3c2.598 0 4.788 1.76 5.454 4.15-0.446-0.198-0.942-0.495-1.244-0.741-0.536-0.437-1.288-0.597-1.964-0.413l-0.256 0.070c-0.549 0.154-1.063 0.306-1.981 0.273-1.153-0.035-1.76-0.176-2.246-0.324-0.673-0.206-1.411-0.059-1.973 0.393-0.335 0.27-0.824 0.568-1.249 0.756 0.661-2.396 2.855-4.163 5.458-4.163zM10.386 7.937c0.644-0.188 1.417-0.684 1.823-1.011 0.388-0.313 0.897-0.416 1.361-0.274 0.529 0.161 1.189 0.316 2.421 0.353 1.017 0.023 1.608-0.137 2.181-0.298l0.249-0.069c0.467-0.126 1.003-0.012 1.369 0.287 0.374 0.305 1.164 0.793 1.824 1.002 0.032 0.243 0.054 0.488 0.054 0.739 0 3.124-2.542 5.667-5.667 5.667s-5.667-2.542-5.667-5.667c0-0.248 0.021-0.49 0.052-0.73zM28 29.333h-0.667c0-6.355-4.979-11.333-11.333-11.333s-11.333 4.979-11.333 11.333h-0.667c0-6.729 5.271-12 12-12s12 5.271 12 12z"/>
</svg>
