<svg version="1.1" xmlns="http://www.w3.org/2000/svg" width="32" height="32" viewBox="0 0 32 32">
    <path fill="currentColor" d="M29.013 25.327c-3.207-0.14-5.593-2.307-5.68-5.14-0.093-3.093-2.587-5.52-5.667-5.52-2.473 0-4.647 1.6-5.393 3.933-0.067-0.020-0.133-0.053-0.207-0.073-0.247-2.18-2.107-3.853-4.353-3.853-0.393 0-0.793 0.053-1.173 0.153-2.253 0.6-3.62 2.913-3.107 5.26l1.507 6.893h0.68l-1.533-7.040c-0.433-2 0.72-3.96 2.627-4.473 0.327-0.087 0.66-0.133 1-0.133 1.973 0 3.6 1.527 3.707 3.48l0.013 0.26 0.253 0.053c1.733 0.34 2.993 1.853 2.993 3.6 0 0.9-0.34 1.753-0.947 2.427-2.587-0.613-4.407-2.653-4.407-5.14v-2h-0.667v2c0 3.16 2.573 5.68 6.033 5.973v0.693c-4.82-0.020-8.733-3.9-8.733-8.66h-0.667c0 5.14 4.233 9.327 9.44 9.327h0.627v-1.993l-0.32-0.013c-0.187-0.007-0.367-0.027-0.547-0.047 0.553-0.74 0.853-1.627 0.853-2.56 0-1.673-0.987-3.16-2.447-3.88 0.427-1.367 1.4-2.447 2.647-3.027l1.74 1.74-0.62 0.587v9.193h0.667v-8.907l2.687-2.513c1.533 0.82 2.593 2.413 2.647 4.293 0.093 3.1 2.6 5.48 6 5.767v0.693c-2.727-0.013-5.313-1.3-6.96-3.44l0.293-3.227h-0.667l-0.667 7.333h0.667l0.287-3.18c1.78 2 4.367 3.18 7.080 3.18h0.627v-1.993l-0.32-0.013zM17.773 17.1l-1.547-1.547c0.46-0.14 0.94-0.22 1.433-0.22 0.593 0 1.16 0.107 1.687 0.293l-1.573 1.473z"/>
    <path fill="currentColor" d="M17.68 14c2.020 0 3.667-1.647 3.667-3.667 0-0.967-0.393-1.9-1.073-2.587 0.020-0.647 0.16-1.787 0.38-2.667l0.107-0.413h-6.193l0.107 0.413c0.227 0.893 0.367 2.060 0.38 2.7-0.66 0.68-1.040 1.593-1.040 2.547 0 2.020 1.647 3.667 3.667 3.667zM17.68 13.333c-1.653 0-3-1.347-3-3 0-0.013 0-0.033 0-0.047 0.533-0.060 1.253-0.267 2.067-0.86 1.447 1.073 2.533 1.24 3.887 1.26-0.18 1.487-1.433 2.647-2.967 2.647zM15.613 8.167c0.833-0.247 1.38-0.307 2.047-0.307s1.233 0.053 2.1 0.32c0.507 0.493 0.813 1.147 0.887 1.84-1.42-0.027-2.333-0.213-3.687-1.273l-0.207-0.16-0.207 0.16c-0.587 0.46-1.193 0.747-1.767 0.847 0.14-0.54 0.42-1.033 0.833-1.427zM19.913 5.333c-0.153 0.72-0.253 1.52-0.293 2.113-0.76-0.207-1.313-0.247-1.953-0.247s-1.193 0.047-1.96 0.247c-0.040-0.593-0.14-1.387-0.293-2.113h4.5z"/>
    <path fill="currentColor" d="M5.38 13.173c0.653 0.533 1.467 0.827 2.307 0.827 2.013 0 3.653-1.64 3.653-3.653s-1.64-3.653-3.653-3.653-3.653 1.64-3.653 3.653c0 0.56-0.22 1.087-0.62 1.487l-0.287 0.287 0.34 0.227c0.633 0.427 1.287 0.693 1.913 0.827zM7.687 13.333c-0.287 0-0.567-0.053-0.84-0.133 0.207-0.040 0.413-0.107 0.607-0.187 0.987-0.427 1.687-1.353 2.007-2.64 0.453 0.18 0.867 0.253 1.187 0.28-0.16 1.5-1.42 2.673-2.96 2.673zM7.687 7.353c1.527 0 2.773 1.153 2.953 2.633-0.34-0.040-0.793-0.133-1.267-0.387l-0.407-0.213-0.080 0.453c-0.22 1.273-0.82 2.187-1.7 2.56-0.86 0.367-1.947 0.22-3.033-0.413 0.353-0.473 0.547-1.047 0.547-1.647 0-1.647 1.34-2.987 2.987-2.987z"/>
</svg>
