<svg version="1.1" xmlns="http://www.w3.org/2000/svg" width="32" height="32" viewBox="0 0 32 32">
    <path fill="currentColor" d="M28.827 4.662c-7.709 4.692-19.035 4.341-19.148 4.339l-0.345-0.012v0.012h-2.333c-2.47 0-4.333 1.863-4.333 4.333s1.863 4.333 4.333 4.333h2.333v0.012l0.047-0.002 1.289 8.703c0.079 0.57 0.614 0.954 1.33 0.954h3.667c0.539 0 1.016-0.212 1.243-0.552 0.176-0.263 0.199-0.586 0.064-0.911l-2.579-6.097c0.131 0.014 0.275 0.024 0.426 0.024 0.459 0 0.981-0.089 1.384-0.405 0.367-0.288 0.569-0.715 0.62-1.259 3.735 0.522 8.288 1.611 12.002 3.871l0.507 0.308v-17.96l-0.507 0.308zM10 9.673c1.709 0.023 9.367-0.078 16-2.842v13.005c-6.323-2.633-13.58-2.843-15.721-2.843-0.105 0-0.199 0-0.279 0.001v-7.322zM7 17c-2.090 0-3.667-1.576-3.667-3.667s1.576-3.667 3.667-3.667h2.333v7.333h-2.333zM16.355 26.411c-0.102 0.153-0.379 0.256-0.689 0.256h-3.667c-0.063 0-0.618-0.011-0.67-0.382l-1.278-8.624c0.497-0.004 1.469 0.003 2.758 0.077l3.549 8.39c0.064 0.153 0.029 0.235-0.003 0.283zM15.795 18.867c-0.459 0.361-1.284 0.276-1.706 0.183l-0.535-1.264c0.79 0.057 1.669 0.141 2.612 0.259-0.030 0.37-0.151 0.648-0.371 0.821zM28.667 21.137c-0.648-0.369-1.317-0.706-2-1.012v-13.582c0.683-0.307 1.352-0.643 2-1.012v15.607z"/>
</svg>
