<svg version="1.1" xmlns="http://www.w3.org/2000/svg" width="32" height="32" viewBox="0 0 32 32">
    <path fill="currentColor" d="M16.333 23.317v1.509c1.704 1.133 3.811 3.33 4.886 4.507h-0.911c-1.12-1.196-2.884-2.976-4.309-3.935-1.425 0.959-3.19 2.739-4.309 3.935h-0.911c1.075-1.178 3.182-3.374 4.886-4.507v-1.509c-3.465-0.172-6.333-2.99-6.333-6.317v-2.667h0.667v2.667c0 3.072 2.747 5.667 6 5.667s6-2.595 6-5.667v-2.667h0.667v2.667c0 3.326-2.868 6.144-6.333 6.317zM12 17v-10.667c0-1.988 1.832-3.667 4-3.667s4 1.679 4 3.667v10.667c0 1.988-1.832 3.667-4 3.667s-4-1.679-4-3.667zM12.667 17c0 1.626 1.527 3 3.333 3s3.333-1.374 3.333-3v-10.667c0-1.626-1.527-3-3.333-3s-3.333 1.374-3.333 3v10.667z"/>
</svg>
