<svg version="1.1" xmlns="http://www.w3.org/2000/svg" width="32" height="32" viewBox="0 0 32 32">
    <path fill="currentColor" d="M21 2.667h-10c-0.92 0.001-1.666 0.747-1.667 1.667v23.333c0.001 0.92 0.747 1.666 1.667 1.667h10c0.92-0.001 1.666-0.747 1.667-1.667v-23.333c-0.001-0.92-0.747-1.666-1.667-1.667h-0zM21 28.667h-10c-0.552-0.001-0.999-0.448-1-1v-1.667h12v1.667c-0.001 0.552-0.448 0.999-1 1h-0zM22 25.333h-12v-19.333h12zM10 5.333v-1c0.001-0.552 0.448-0.999 1-1h10c0.552 0.001 0.999 0.448 1 1v1zM16.667 27.333c0 0.368-0.298 0.667-0.667 0.667s-0.667-0.298-0.667-0.667c0-0.368 0.298-0.667 0.667-0.667v0c0.368 0.001 0.666 0.299 0.667 0.667v0zM14.667 4h2.667v0.667h-2.667zM11.902 12.569l-0.471-0.471 3.333-3.333 0.471 0.471zM14.764 10.764l2-2 0.471 0.471-2 2z"/>
</svg>
