<svg version="1.1" xmlns="http://www.w3.org/2000/svg" width="32" height="32" viewBox="0 0 32 32">
    <path fill="currentColor" d="M29.079 13.010c-0.043-0.011-4.379-1.093-8.598-3.542-0.301-0.169-0.677-0.379-1.083-0.462-0.811-0.163-1.923-0.145-2.608 0.4-0.398 0.32-1.182 0.322-1.583-0.001-0.684-0.544-1.795-0.561-2.608-0.399-0.404 0.083-0.78 0.293-1.1 0.472-4.2 2.438-8.536 3.52-8.579 3.531l-0.303 0.074 0.055 0.308c0.018 0.099 0.454 2.454 2.318 4.831 1.711 2.182 4.994 4.777 10.924 4.777h0.17c11.397 0 13.227-9.512 13.244-9.608l0.055-0.308-0.303-0.074zM11.844 10.049c0.261-0.146 0.587-0.327 0.889-0.389 0.684-0.139 1.587-0.109 2.059 0.266 0.633 0.509 1.786 0.508 2.417 0.001 0.473-0.376 1.376-0.406 2.059-0.268 0.303 0.062 0.629 0.243 0.9 0.395 3.153 1.831 6.38 2.911 7.884 3.358-3.276 1.446-5.741 1.148-7.272 0.606-1.303-0.464-2.204-0.643-3.523-0.344-0.086 0.021-0.203 0.059-0.338 0.103-0.278 0.090-0.658 0.214-0.907 0.221-0.268-0.008-0.648-0.132-0.926-0.221-0.135-0.044-0.252-0.081-0.342-0.104-1.315-0.298-2.216-0.118-3.519 0.344-1.53 0.543-3.996 0.841-7.272-0.605 1.504-0.448 4.733-1.529 7.894-3.364zM25.845 14.859c-2.164 1.036-5.465 2.141-9.705 2.141h-0.142c-0.046 0-0.092 0.001-0.139 0.001-4.241 0-7.542-1.105-9.706-2.141 2.275 0.52 4.061 0.226 5.291-0.212 1.208-0.429 1.988-0.587 3.143-0.323 0.074 0.018 0.174 0.051 0.29 0.089 0.316 0.102 0.749 0.243 1.132 0.254 0.364-0.011 0.797-0.152 1.113-0.254 0.116-0.038 0.216-0.071 0.285-0.088 1.163-0.265 1.941-0.106 3.148 0.323 1.23 0.437 3.016 0.732 5.29 0.212zM15.999 22.333h-0.084c-8.906 0-11.632-5.88-12.356-8.172 1.649 1.125 5.888 3.506 12.295 3.506 0.048 0 0.098-0.001 0.146-0.001h0.14c6.392 0 10.628-2.367 12.287-3.496-0.283 0.87-0.855 2.255-1.942 3.641-2.367 3.020-5.866 4.554-10.486 4.521z"/>
</svg>
