<svg version="1.1" xmlns="http://www.w3.org/2000/svg" width="32" height="32" viewBox="0 0 32 32">
    <path fill="currentColor" d="M25 20.667c-2.237 0.003-4.077 1.698-4.309 3.874l-0.002 0.019c-4.073-1.149-7.604-3.070-10.592-5.611l0.039 0.033c0.741-0.773 1.197-1.824 1.197-2.981s-0.456-2.208-1.198-2.983l0.001 0.002c2.948-2.509 6.48-4.43 10.356-5.531l0.196-0.048c0.214 2.231 2.080 3.962 4.349 3.962 2.412 0 4.368-1.956 4.368-4.368s-1.956-4.368-4.368-4.368c-2.311 0-4.203 1.795-4.358 4.067l-0.001 0.013c-4.27 1.156-7.973 3.167-11.078 5.852l0.035-0.030c-0.724-0.563-1.646-0.903-2.647-0.903-2.393 0-4.333 1.94-4.333 4.333s1.94 4.333 4.333 4.333c1.001 0 1.923-0.34 2.657-0.91l-0.010 0.007c3.069 2.655 6.772 4.666 10.847 5.776l0.196 0.045c0.139 2.279 2.021 4.076 4.323 4.076 2.392 0 4.331-1.939 4.331-4.331s-1.939-4.331-4.331-4.331c-0.001 0-0.002 0-0.003 0h0zM25 3.333c2.025 0 3.667 1.642 3.667 3.667s-1.642 3.667-3.667 3.667c-2.025 0-3.667-1.642-3.667-3.667v0c0.003-2.024 1.643-3.664 3.666-3.667h0zM3.333 16c0-2.025 1.642-3.667 3.667-3.667s3.667 1.642 3.667 3.667c0 2.025-1.642 3.667-3.667 3.667v0c-2.024-0.003-3.664-1.643-3.667-3.666v-0zM25 28.667c-2.025 0-3.667-1.642-3.667-3.667s1.642-3.667 3.667-3.667c2.025 0 3.667 1.642 3.667 3.667v0c-0.003 2.024-1.643 3.664-3.666 3.667h-0z"/>
</svg>
