<svg version="1.1" xmlns="http://www.w3.org/2000/svg" width="32" height="32" viewBox="0 0 32 32">
    <path fill="currentColor" d="M24.78 13.333c0.555-5.333 1.203-8.878 1.214-8.939l0.073-0.394h-20.135l0.073 0.394c0.011 0.061 0.66 3.605 1.215 8.939h-3.286l0.072 0.393c0.753 4.133 1.232 8.945 1.326 13.85l0.001 0.090v0.333h21.333v-0.333c0.096-4.995 0.575-9.807 1.41-14.495l-0.082 0.555 0.072-0.393zM4.729 14h2.559c0.379 3.802 0.696 8.435 0.71 13.333h-1.999c-0.11-4.795-0.568-9.396-1.349-13.885l0.080 0.552zM23.334 27.333h-14.667c-0.062-8.051-0.764-15.891-2.057-23.529l0.121 0.862h18.539c-1.172 6.776-1.874 14.616-1.936 22.608l-0 0.059zM26.001 27.333h-1.999c0.014-4.898 0.331-9.531 0.71-13.333h2.559c-0.702 3.938-1.16 8.539-1.268 13.226l-0.002 0.107zM14 7.333h0.667v2h-0.667zM17.333 7.333h0.667v2h-0.667zM20.667 7.333h0.667v2h-0.667zM10.667 7.333h0.667v2h-0.667zM14 12h0.667v2h-0.667zM17.333 12h0.667v2h-0.667zM20.667 12h0.667v2h-0.667zM10.667 12h0.667v2h-0.667zM14 16.667h0.667v2h-0.667zM17.333 16.667h0.667v2h-0.667zM20.667 16.667h0.667v2h-0.667zM10.667 16.667h0.667v2h-0.667zM14 21.333h0.667v2h-0.667zM17.333 21.333h0.667v2h-0.667zM10.667 21.333h0.667v2h-0.667zM20.667 21.333h0.667v2h-0.667z"/>
</svg>
