<svg version="1.1" xmlns="http://www.w3.org/2000/svg" width="32" height="32" viewBox="0 0 32 32">
    <path fill="currentColor" d="M7.333 17.667h0.667v11.667h-0.667v-11.667zM7.302 12.525c-0.226-0.484-0.189-1.042 0.098-1.492 0.283-0.445 0.745-0.7 1.267-0.7h4.667v-0.667h-4.667c-0.743 0-1.428 0.377-1.829 1.008-0.41 0.644-0.462 1.441-0.139 2.133 0.59 1.263 1.551 2.948 3.756 4.782l0.426-0.513c-2.103-1.749-3.016-3.351-3.577-4.551zM13.345 14c0-1.471 1.196-2.667 2.667-2.667s2.667 1.196 2.667 2.667-1.196 2.667-2.667 2.667-2.667-1.196-2.667-2.667zM14.012 14c0 1.103 0.897 2 2 2s2-0.897 2-2-0.897-2-2-2-2 0.897-2 2zM7.333 5.333c0-1.471 1.196-2.667 2.667-2.667s2.667 1.196 2.667 2.667-1.196 2.667-2.667 2.667-2.667-1.196-2.667-2.667zM8 5.333c0 1.103 0.897 2 2 2s2-0.897 2-2-0.897-2-2-2-2 0.897-2 2zM24 29.333h0.667v-11.667h-0.667v11.667zM25.163 10.675c-0.402-0.632-1.086-1.008-1.829-1.008h-4.667v0.667h4.667c0.522 0 0.984 0.255 1.267 0.7 0.287 0.451 0.324 1.008 0.098 1.492-0.561 1.201-1.475 2.803-3.577 4.551l0.426 0.513c2.205-1.834 3.165-3.519 3.756-4.782 0.323-0.691 0.271-1.489-0.139-2.133zM19.333 5.333c0-1.471 1.196-2.667 2.667-2.667s2.667 1.196 2.667 2.667-1.196 2.667-2.667 2.667-2.667-1.196-2.667-2.667zM20 5.333c0 1.103 0.897 2 2 2s2-0.897 2-2-0.897-2-2-2-2 0.897-2 2zM13.333 29.333h0.667v-4h-0.667v4zM18 29.333h0.667v-4h-0.667v4zM17.667 18h-3.333c-1.23 0-2.277 0.889-2.333 1.983-0.069 1.352 0.158 2.601 0.694 3.818l0.611-0.268c-0.657-1.492-0.68-2.721-0.639-3.516 0.043-0.834 0.898-1.35 1.667-1.35h3.333c0.769 0 1.624 0.516 1.667 1.35 0.040 0.795 0.018 2.023-0.639 3.516l0.611 0.268c0.536-1.217 0.763-2.465 0.694-3.818-0.055-1.094-1.102-1.983-2.333-1.983z"/>
</svg>
