<svg version="1.1" xmlns="http://www.w3.org/2000/svg" width="32" height="32" viewBox="0 0 32 32">
    <path fill="currentColor" d="M14 12c2.573 0 4.667-2.093 4.667-4.667s-2.093-4.667-4.667-4.667-4.667 2.093-4.667 4.667c0 0.753-0.3 1.473-0.833 2.013l-0.287 0.287 0.34 0.227c0.827 0.547 1.667 0.9 2.48 1.067 0.833 0.687 1.88 1.073 2.967 1.073zM14 11.333c-0.527 0-1.040-0.113-1.52-0.313 0.413-0.040 0.807-0.14 1.173-0.3 1.287-0.553 2.193-1.78 2.58-3.487 0.673 0.287 1.3 0.387 1.747 0.42-0.167 2.053-1.887 3.68-3.98 3.68zM10 7.333c0-2.207 1.793-4 4-4 2.087 0 3.807 1.607 3.98 3.647-0.467-0.040-1.133-0.16-1.833-0.527l-0.407-0.213-0.080 0.453c-0.287 1.693-1.1 2.907-2.273 3.413s-2.667 0.287-4.147-0.6c0.493-0.62 0.76-1.38 0.76-2.173z"/>
    <path fill="currentColor" d="M26.22 23.627l-0.9-2.14c0.007-0.26 0.013-0.533 0.013-0.82 0-2.333-0.247-3.707-0.827-4.6-0.5-1.247-1.68-2.067-3.173-2.067-1.167 0-2.133 0.507-2.747 1.32-0.947-1.627-2.687-2.653-4.587-2.653-0.48 0-0.96 0.067-1.427 0.193-2.74 0.74-4.4 3.587-3.773 6.48l1.86 8.66h0.68l-1.893-8.8c-0.547-2.547 0.9-5.053 3.3-5.7 0.413-0.113 0.833-0.167 1.253-0.167 1.793 0 3.42 1.040 4.193 2.66-0.013 0.027-0.027 0.053-0.040 0.080-0.46 0.713-0.707 1.7-0.793 3.22-0.52-0.593-0.967-1.273-1.287-2.047l-0.747-1.787-0.613 0.26 0.747 1.787c1.587 3.773 5.653 5.727 9.373 4.547l0.513 1.22c-2.347 0.987-4.973 0.993-7.393 0.027-2.64-1.060-4.72-3.12-5.847-5.813l-0.24-0.567-0.613 0.26 0.24 0.567c1.18 2.82 3.353 4.987 6.113 6.127 0.207 0.887 0.553 1.533 1.067 1.987v2.147h0.667v-1.7c0.533 0.247 1.193 0.367 2 0.367 2.073 0 3.18-0.773 3.667-2.56 0.2-0.073 0.407-0.133 0.607-0.22l0.613-0.26zM21.333 14.673c0.38 0 0.687 0.307 0.687 0.687 0 0.253-0.207 0.46-0.46 0.46-0.16 0-0.287-0.127-0.287-0.287h-0.667c0 0.527 0.427 0.953 0.953 0.953 0.62 0 1.127-0.507 1.127-1.127 0-0.14-0.027-0.267-0.067-0.393 0.9 0.433 1.473 1.327 1.473 2.473 0 0.86-0.327 1.573-0.86 2.060 0.053-0.16 0.1-0.327 0.113-0.52 0.053-0.76-0.48-1.42-1.207-1.5-0.2-0.020-0.4 0-0.593 0.060-0.133 0.047-0.28 0.047-0.413 0-0.193-0.067-0.393-0.087-0.593-0.060-0.727 0.080-1.26 0.74-1.207 1.5 0.013 0.193 0.053 0.36 0.113 0.52-0.54-0.487-0.86-1.207-0.86-2.060 0-1.627 1.14-2.76 2.76-2.76zM21.333 20c-0.187 0-0.333-0.147-0.333-0.333s0.147-0.333 0.333-0.333 0.333 0.147 0.333 0.333-0.147 0.333-0.333 0.333zM22.333 19.647c-0.013-0.54-0.453-0.98-1-0.98s-0.987 0.44-1 0.98c-0.14-0.087-0.313-0.253-0.347-0.713-0.027-0.353 0.2-0.747 0.62-0.793 0.107-0.013 0.213 0 0.307 0.033 0.267 0.093 0.567 0.093 0.833 0 0.1-0.033 0.207-0.047 0.313-0.033 0.413 0.047 0.64 0.44 0.62 0.793-0.033 0.46-0.207 0.627-0.347 0.713zM18.013 19.947c0.013-0.513 0.040-0.96 0.087-1.367 0.44 1.367 1.66 2.28 3.24 2.28s2.8-0.92 3.24-2.287c0.067 0.587 0.093 1.273 0.093 2.1 0 0.26 0 0.493-0.013 0.733-2.347 0.753-4.847 0.14-6.647-1.46zM21.34 26c-1.667 0-2.527-0.533-2.96-1.847 1.073 0.353 2.173 0.533 3.267 0.533 0.873 0 1.74-0.127 2.593-0.347-0.447 1.187-1.307 1.66-2.9 1.66z"/>
</svg>
