<svg version="1.1" xmlns="http://www.w3.org/2000/svg" width="32" height="32" viewBox="0 0 32 32">
    <path fill="currentColor" d="M28.902 5.097l-2.013-1.999c-0.333-0.333-0.833-0.48-1.371-0.404-0.513 0.073-1.018 0.335-1.42 0.738l-19.667 19.667-0.072 0.108c-0.788 1.9-1.647 5.563-1.683 5.719l-0.126 0.538 0.535-0.14c0.182-0.048 4.469-1.173 5.715-1.68l0.062-0.025 18.12-18.12c0.461 0.69 0.388 1.663-0.224 2.275l-5.333 5.667 0.486 0.457 5.326-5.66c0.862-0.862 0.928-2.259 0.217-3.211l1.116-1.116c0.403-0.402 0.665-0.911 0.738-1.431 0.076-0.544-0.071-1.048-0.405-1.381zM4.711 24.158c0.468 0.81 1.442 2.149 3.13 3.118-1.267 0.414-3.392 0.993-4.385 1.258 0.233-0.944 0.744-2.928 1.255-4.376zM8.607 26.928c-2.201-1.085-3.25-2.929-3.541-3.523l17.836-17.836c0.415 0.788 1.482 2.439 3.541 3.522l-17.836 17.837zM28.646 6.386c-0.052 0.372-0.252 0.755-0.549 1.051l-1.157 1.157c-2.201-1.085-3.25-2.929-3.541-3.523l1.169-1.169c0.301-0.301 0.672-0.496 1.042-0.549 0.333-0.046 0.62 0.030 0.807 0.216l2.013 1.999c0.186 0.186 0.263 0.477 0.215 0.817z"/>
</svg>
