<svg version="1.1" xmlns="http://www.w3.org/2000/svg" width="32" height="32" viewBox="0 0 32 32">
    <path fill="currentColor" d="M24.207 21.335h-0.873v-11.005c-0.001-0.918-0.745-1.662-1.664-1.663h-0c-0.186-0-0.336-0.151-0.336-0.337v0-0.33h0.997c0.554-0.001 1.003-0.449 1.003-1.003v-1.451c0-0.001 0-0.003 0-0.004 0-0.486-0.347-0.891-0.808-0.98l-0.006-0.001c-2.073-0.36-4.461-0.565-6.896-0.565-0.219 0-0.438 0.002-0.656 0.005l0.033-0h-0.667c-0.188-0.003-0.409-0.005-0.63-0.005-2.434 0-4.819 0.206-7.141 0.601l0.249-0.035c-0.465 0.090-0.812 0.495-0.812 0.98 0 0.001 0 0.002 0 0.003v-0 1.455c0.001 0.552 0.448 1 1.001 1.001h0.999v0.336c-0 0.183-0.148 0.331-0.331 0.331v0c-0.921 0.001-1.668 0.748-1.669 1.669v15.999c0.001 0.919 0.746 1.664 1.665 1.665l16.541 0.001c1.752-0.114 3.129-1.563 3.129-3.333s-1.377-3.219-3.119-3.333l-0.010-0.001zM6.667 6.999v-1.455c-0-0.002-0-0.005-0-0.007 0-0.159 0.114-0.292 0.265-0.321l0.002-0c0.116-0.021 0.255-0.045 0.4-0.069v1.52h0.667v-1.621c0.378-0.052 0.831-0.105 1.333-0.154v1.775h0.667v-1.833c0.41-0.033 0.854-0.063 1.333-0.088v1.922h0.667v-1.953c0.42-0.017 0.866-0.029 1.333-0.036v1.989h0.667v-1.996c0.114-0.001 0.217-0.004 0.333-0.004h0.667c0.116 0 0.219 0.003 0.333 0.004v1.996h0.667v-1.989c0.468 0.008 0.913 0.019 1.333 0.036v1.953h0.667v-1.922q0.719 0.038 1.333 0.088v1.834h0.667v-1.775c0.503 0.049 0.955 0.102 1.333 0.154v1.621h0.667v-1.52c0.144 0.024 0.283 0.047 0.398 0.069 0.154 0.030 0.268 0.163 0.268 0.323 0 0.002-0 0.005-0 0.007v-0 1.451c-0 0.186-0.151 0.336-0.337 0.337h-15.329c-0.184-0-0.334-0.15-0.334-0.334v0zM7.665 27.333c-0.551-0.001-0.998-0.447-0.999-0.999v-15.999c0.001-0.553 0.449-1.002 1.002-1.003h0c0.551-0.001 0.997-0.447 0.998-0.997v-0.336h12v0.33c0 0.554 0.449 1.003 1.003 1.003h0c0.55 0.001 0.996 0.446 0.997 0.997v11.005h-1.333v-9.667c-0.001-0.553-0.449-1.001-1.001-1.001h-11.332c-0.552 0.001-0.999 0.448-1 1v13.333c0.001 0.552 0.448 0.999 1 1h3.264c0.225 0.536 0.567 0.985 0.998 1.328l0.007 0.005zM15.115 27.333c-1.377-0.121-2.448-1.268-2.448-2.666 0-1.402 1.078-2.552 2.451-2.666l0.010-0.001h4.206v5.332zM15.127 21.335c-1.74 0.061-3.128 1.487-3.128 3.237 0 0.034 0.001 0.068 0.002 0.101l-0-0.005c0 0.235 0.023 0.465 0.067 0.688l-0.004-0.022h-3.063c-0.184-0-0.333-0.149-0.334-0.333v-13.333c0-0.184 0.149-0.333 0.333-0.333h11.332c0.185 0 0.334 0.15 0.335 0.335v9.667zM24.206 27.335h-0.54v-0.001h-3.667v-5.332h4.207c1.382 0.115 2.46 1.265 2.46 2.667s-1.078 2.552-2.45 2.666l-0.010 0.001z"/>
</svg>
