<svg version="1.1" xmlns="http://www.w3.org/2000/svg" width="32" height="32" viewBox="0 0 32 32">
    <path fill="currentColor" d="M17.837 12.047c-1.771-1.053-3.932-2.049-5.839-2.928l-0.665-0.307v14.375l0.665-0.307c1.907-0.879 4.068-1.875 5.839-2.928 1.889-1.122 3.453-2.243 5.364-3.687l0.352-0.266-0.352-0.266c-1.911-1.445-3.475-2.565-5.364-3.687zM17.496 19.38c-1.655 0.984-3.675 1.926-5.496 2.766v-12.292c1.821 0.84 3.841 1.782 5.496 2.766 1.745 1.037 3.214 2.076 4.95 3.38-1.736 1.304-3.204 2.343-4.95 3.38zM15.999 2.663c-7.352 0-13.333 5.981-13.333 13.333s5.981 13.333 13.333 13.333 13.333-5.981 13.333-13.333-5.981-13.333-13.333-13.333zM15.999 28.663c-6.984 0-12.667-5.682-12.667-12.667s5.682-12.667 12.667-12.667 12.667 5.682 12.667 12.667-5.682 12.667-12.667 12.667z"/>
</svg>
