<svg version="1.1" xmlns="http://www.w3.org/2000/svg" width="32" height="32" viewBox="0 0 32 32">
    <path fill="currentColor" d="M16.307 11.333c2.387 0 4.333-1.947 4.333-4.333s-1.947-4.333-4.333-4.333-4.333 1.947-4.333 4.333 1.947 4.333 4.333 4.333zM16.307 3.333c1.28 0 2.4 0.66 3.060 1.653-0.073 0-0.14 0.013-0.227 0.013-0.54 0-1.033-0.293-1.513-0.573l-0.167-0.1-0.167 0.093c-1.013 0.587-2.313 0.907-3.647 0.907-0.18 0-0.38-0.013-0.587-0.033 0.613-1.167 1.84-1.967 3.247-1.967zM12.793 5.947c0.307 0.033 0.587 0.053 0.847 0.053 1.373 0 2.72-0.32 3.807-0.9 0.473 0.273 1.047 0.567 1.687 0.567 0.187 0 0.373-0.020 0.56-0.053 0.173 0.427 0.273 0.893 0.273 1.387 0 2.020-1.647 3.667-3.667 3.667s-3.667-1.647-3.667-3.667c0-0.367 0.053-0.72 0.153-1.053z"/>
    <path fill="currentColor" d="M17.333 21.333h-10.667v-5.98l0.973-0.707s0 0 0 0c0.513 0 1.027-0.193 1.413-0.587 0.78-0.78 0.78-2.047 0-2.827s-2.073-0.753-2.827 0c-0.413 0.413-0.6 0.96-0.573 1.5l-2.733 3.673 0.967 0.967 2.113-1.54v5.493h-3.327l0.073 0.393s0.587 3.1 1.227 7.607h0.687c-0.507-3.587-1.007-6.36-1.187-7.333h25.053c-0.18 0.973-0.673 3.747-1.187 7.333h0.687c0.64-4.5 1.22-7.573 1.227-7.607l0.073-0.393h-11.993zM6.7 11.707c0.253-0.253 0.587-0.393 0.94-0.393s0.693 0.14 0.94 0.393c0.52 0.52 0.52 1.367 0 1.887s-1.367 0.52-1.887 0c-0.52-0.52-0.52-1.367 0-1.887zM3.8 16.347l2.073-2.793c0.093 0.18 0.207 0.353 0.353 0.507 0.167 0.167 0.353 0.287 0.553 0.38l-2.827 2.060-0.16-0.16z"/>
    <path fill="currentColor" d="M20.667 9.333v4.553c-1.307-0.807-2.8-1.233-4.36-1.233-4.487 0-8.147 3.567-8.32 8.013h0.667c0.127-3.1 2.107-5.733 4.86-6.813l2.907 3.020 2.847-2.953c0.487 0.207 0.953 0.467 1.4 0.773v5.98h8.667v-11.34h-8.667zM16.42 15.907l-2.207-2.293c0.667-0.187 1.367-0.293 2.093-0.293 0.78 0 1.547 0.12 2.273 0.347l-2.16 2.24zM28.667 20h-7.333v-10h7.333v10z"/>
    <path fill="currentColor" d="M24 14.667h2v-0.667h0.667v-2h-0.667v-0.667h-2v0.667h-0.667v2h0.667v0.667zM24 12.667h0.667v-0.667h0.667v0.667h0.667v0.667h-0.667v0.667h-0.667v-0.667h-0.667v-0.667z"/>
    <path fill="currentColor" d="M22.667 16h4.667v0.667h-4.667v-0.667z"/>
    <path fill="currentColor" d="M22.667 18h4.667v0.667h-4.667v-0.667z"/>
</svg>
