<svg version="1.1" xmlns="http://www.w3.org/2000/svg" width="32" height="32" viewBox="0 0 32 32">
    <path fill="currentColor" d="M29.279 20.194l-0.037-0.074-0.069-0.046c-1.751-1.167-2.44-3.467-2.527-3.781 0.053-0.913 0.281-1.76 0.651-2.527l-0.017 0.040 0.225-0.452h-0.505c-1.452 0.062-2.778 0.556-3.865 1.354l0.020-0.014c-2.053-2.333-5.044-3.797-8.378-3.797-1.141 0-2.242 0.171-3.278 0.49l0.079-0.021c-3.137 0.843-5.504 3.407-6.049 6.592l-0.007 0.049c-0.294-0.014-0.571-0.063-0.834-0.142l0.024 0.006c0.372-0.376 0.602-0.893 0.602-1.464 0-0.027-0-0.053-0.002-0.079l0 0.004c-0.011-0.717-0.594-1.294-1.313-1.294s-1.302 0.577-1.313 1.293v0.001c-0 0.004-0 0.008-0 0.012 0 0.627 0.289 1.186 0.74 1.552l0.004 0.003c-0.228 0.070-0.49 0.114-0.762 0.121l-0.004 0 0.001 0.625c0.52-0.005 1.009-0.128 1.445-0.343l-0.019 0.009c0.39 0.175 0.842 0.29 1.318 0.319l0.011 0.001c-0.053 0.356-0.083 0.767-0.083 1.185 0 0.182 0.006 0.362 0.017 0.541l-0.001-0.024c0 0.14 0.031 3.474 2.719 7.507l0.092 0.139 4.005-0.001-0.225-0.451c-0.34-0.706-0.564-1.528-0.626-2.396l-0.001-0.022c0.711 0.077 1.536 0.121 2.371 0.121 1.311 0 2.598-0.108 3.85-0.316l-0.136 0.019c0.141 1.153 0.639 2.169 1.378 2.957l-0.003-0.003 0.091 0.092h4.754l-0.374-0.5c-0.647-0.906-1.034-2.037-1.034-3.258 0-0.706 0.13-1.383 0.367-2.006l-0.013 0.039c1.201 0.716 2.648 1.14 4.195 1.14 0.092 0 0.184-0.002 0.275-0.004l-0.013 0c0.018 0 0.039 0 0.060 0 0.455 0 0.904-0.029 1.343-0.086l-0.052 0.006 0.103-0.015 0.073-0.073c0.57-0.488 0.928-1.208 0.928-2.012 0-0.366-0.075-0.715-0.209-1.033l0.007 0.017zM4.073 17.594c-0.453-0.247-0.757-0.718-0.761-1.26v-0.001c-0.001-0.011-0.001-0.024-0.001-0.037 0-0.36 0.292-0.652 0.652-0.652 0.013 0 0.026 0 0.038 0.001l-0.002-0c0.011-0.001 0.024-0.001 0.037-0.001 0.36 0 0.652 0.292 0.652 0.652 0 0.013-0 0.026-0.001 0.039l0-0.002c0.001 0.020 0.002 0.043 0.002 0.067 0 0.49-0.241 0.925-0.611 1.19l-0.004 0.003zM11.19 27.354h-0.654c-0.338-0.738-0.598-1.596-0.738-2.493l-0.007-0.056c0.29 0.082 0.591 0.148 0.897 0.205 0.028 0.852 0.21 1.653 0.518 2.389l-0.017-0.044zM18.024 24.836c0.287-0.048 0.528-0.093 0.704-0.128 0.334 1.031 0.869 1.916 1.564 2.649l-0.003-0.003h-1.157c-0.59-0.683-0.989-1.545-1.106-2.495l-0.002-0.023zM28.186 22.703c-0.683 0.075-4.561 0.387-6.27-1.891l-0.5 0.375c0.201 0.262 0.421 0.492 0.664 0.697l0.007 0.005-0.039-0.017c-0.292 0.7-0.462 1.513-0.462 2.365 0 1.146 0.307 2.221 0.843 3.146l-0.016-0.030h-1.281c-0.581-0.604-1.819-2.086-1.819-3.021v-0.389l-0.38 0.085c-0.058 0.013-5.651 1.228-9.213 0.097-0.013-0.113-0.021-0.245-0.021-0.378 0-0.459 0.091-0.898 0.257-1.297l-0.008 0.023-0.559-0.279c-0.658 1.315-0.157 3.681 0.461 5.16h-1.348c-1.393-1.98-2.306-4.391-2.521-6.999l-0.003-0.052c-0.025-0.262-0.555-6.437 5.771-8.335 6.497-1.77 10.241 2.296 10.9 3.092-0.442 0.339-0.834 0.684-1.202 1.053l-0.221 0.221 0.887 0.887 0.441-0.441-0.443-0.443c1.146-1.191 2.657-2.023 4.352-2.317l0.047-0.007c-0.286 0.685-0.464 1.479-0.489 2.311l-0 0.010 0.010 0.076c0.46 1.682 1.417 3.097 2.702 4.118l0.016 0.012c0.065 0.192 0.103 0.414 0.103 0.644 0 0.6-0.256 1.14-0.664 1.518l-0.001 0.001z"/>
</svg>
