<svg version="1.1" xmlns="http://www.w3.org/2000/svg" width="32" height="32" viewBox="0 0 32 32">
    <path fill="currentColor" d="M27.775 10.368l-2.649-1.413c-0.077-0.578-0.276-1.097-0.571-1.548l0.009 0.014c0.28-0.262 0.455-0.634 0.455-1.047 0-0.074-0.006-0.147-0.016-0.217l0.001 0.008c-0.107-0.64-0.656-1.121-1.318-1.121-0.14 0-0.276 0.022-0.403 0.062l0.009-0.003c-0.297 0.077-0.389-0.012-0.654-0.331-0.158-0.206-0.34-0.383-0.544-0.53l-0.008-0.005c-0.198-0.146-0.446-0.233-0.715-0.233-0.087 0-0.172 0.009-0.253 0.027l0.008-0.001c-0.385 0.112-0.7 0.361-0.894 0.69l-0.004 0.007c-0.221 0.448-0.578 0.799-1.018 1.007l-0.013 0.006c-0.431 0.139-0.757 0.491-0.855 0.93l-0.002 0.008c-0 0.005-0 0.011-0 0.017 0 0.587 0.266 1.112 0.683 1.461l0.003 0.002c-0.194 0.288-0.384 0.622-0.549 0.969l-0.021 0.048s-1.631 2.958-1.805 3.283c-0.35 0.287-3.565 1.013-6.41 1.543h-0.725c-1.080-0.743-2.393-1.226-3.81-1.332l-0.026-0.002-0.55-0.021 4.372 9.288c0.076 0.425 0.652 2.734 4.153 2.734h0.012l1.702 2.663h-1.375v0.669h4.667v-0.669h-2.498l-0.67-1.049 1.673-1.644c0.018-0.004 0.039-0.008 0.062-0.013 4.96-1.012 7.805-4.636 7.805-9.936l0.072-3.19zM25.124 10.766l0.024-1.041 1.077 0.574zM19.001 6.778c0.026-0.162 0.181-0.305 0.438-0.417 0.606-0.268 1.086-0.73 1.37-1.305l0.007-0.016c0.106-0.169 0.265-0.295 0.453-0.358l0.006-0.002c0.028-0.005 0.059-0.008 0.092-0.008 0.131 0 0.252 0.045 0.347 0.121l-0.001-0.001c0.157 0.116 0.292 0.25 0.405 0.401l0.004 0.005c0.208 0.357 0.589 0.594 1.025 0.594 0.111 0 0.219-0.015 0.322-0.044l-0.008 0.002c0.462-0.121 0.761 0.077 0.895 0.585 0 0.007 0 0.015 0 0.022 0 0.212-0.088 0.404-0.229 0.541l-0 0c-0.549-0.507-1.286-0.817-2.095-0.817-0.045 0-0.089 0.001-0.133 0.003l0.006-0c-1.043 0.115-1.933 0.687-2.477 1.509l-0.008 0.013c-0.181-0.187-0.465-0.548-0.421-0.828zM24.365 14.682c0 6.791-4.555 8.734-7.27 9.288-0.097 0.020-0.163 0.035-0.195 0.044l-0.077 0.024-1.698 1.669-1.844-2.887-0.564 0.361 0.511 0.8c-2.806-0.18-3.063-2.097-3.072-2.181l-3.932-8.397c1.132 0.181 2.141 0.604 3.007 1.217l-0.022-0.015 0.089 0.065 1.003-0.006c4.342-0.801 6.663-1.417 6.896-1.831 0.21-0.372 1.844-3.336 1.856-3.36 0.012-0.027 1.245-2.719 2.852-2.719 2.501 0 2.579 2.482 2.581 2.573zM19.999 16.333h0.669v1.091l-0.047 0.079c-1.686 2.856-5.892 3.165-7.621 3.165h-0.335v-4.347h0.669v3.673c1.749-0.040 5.22-0.427 6.664-2.755z"/>
</svg>
