<svg version="1.1" xmlns="http://www.w3.org/2000/svg" width="32" height="32" viewBox="0 0 32 32">
    <path fill="currentColor" d="M14 12c2.573 0 4.667-2.093 4.667-4.667s-2.093-4.667-4.667-4.667-4.667 2.093-4.667 4.667c0 0.753-0.3 1.473-0.833 2.013l-0.287 0.287 0.34 0.227c0.827 0.553 1.667 0.9 2.48 1.067 0.833 0.687 1.88 1.073 2.967 1.073zM14 11.333c-0.527 0-1.040-0.113-1.52-0.313 0.413-0.040 0.807-0.14 1.173-0.3 1.287-0.553 2.193-1.787 2.58-3.487 0.673 0.287 1.3 0.387 1.747 0.42-0.167 2.053-1.887 3.68-3.98 3.68zM10 7.333c0-2.207 1.793-4 4-4 2.087 0 3.8 1.607 3.98 3.647-0.467-0.040-1.133-0.16-1.833-0.527l-0.407-0.213-0.080 0.453c-0.293 1.693-1.1 2.907-2.273 3.413s-2.667 0.287-4.147-0.6c0.493-0.62 0.76-1.38 0.76-2.173z"/>
    <path fill="currentColor" d="M22.253 25.907c0.707-0.927 1.1-2.060 1.1-3.24 0-2.453-1.687-4.6-4.047-5.187-0.273-2.72-2.553-4.813-5.3-4.813-0.48 0-0.96 0.067-1.427 0.193-2.74 0.74-4.4 3.587-3.773 6.48l1.86 8.66h0.68l-1.893-8.8c-0.547-2.547 0.9-5.053 3.3-5.7 0.413-0.113 0.833-0.167 1.253-0.167 2.48 0 4.52 1.947 4.653 4.433l0.013 0.26 0.253 0.053c2.18 0.433 3.76 2.367 3.76 4.587 0 1.147-0.42 2.233-1.173 3.087-3.16-0.82-5.513-3.7-5.513-7.113v-1.98h-0.667v1.98c0 4.187 3.233 7.633 7.333 7.987v1.367h-0.020c-5.867 0-10.647-4.8-10.647-10.707v-0.627h-0.667v0.627c0 6.267 5.073 11.373 11.313 11.373h0.687v-2.667c-0.367 0-0.727-0.040-1.080-0.093z"/>
</svg>
