<svg version="1.1" xmlns="http://www.w3.org/2000/svg" width="32" height="32" viewBox="0 0 32 32">
    <path fill="currentColor" d="M23.333 12.667h-3v1.667h-3v5.016h9.667v-9.366h-3.667v2.683zM20.333 18.683h-2.333v-3.683h2.333v3.683zM23.333 18.683h-2.333v-5.35h2.333v5.35zM24 10.65h2.333v8.033h-2.333v-8.033zM9.249 10.333c-2.389 0-4.333 1.944-4.333 4.333s1.944 4.333 4.333 4.333 4.333-1.944 4.333-4.333-1.944-4.333-4.333-4.333zM5.582 14.667c0-1.484 0.888-2.763 2.16-3.339l1.128 3.265-2.27 2.602c-0.629-0.659-1.018-1.548-1.018-2.529zM9.249 18.333c-0.801 0-1.541-0.262-2.145-0.7l2.266-2.598 3.365 0.764c-0.479 1.468-1.859 2.533-3.485 2.533zM12.88 15.15l-3.376-0.767-1.131-3.273c0.281-0.069 0.574-0.11 0.876-0.11 2.021 0 3.667 1.645 3.667 3.667 0 0.164-0.015 0.325-0.036 0.483zM28.333 5.333h-24.667c-0.551 0-1 0.449-1 1v16c0 0.551 0.449 1 1 1h11.286c-1.26 0.964-2.59 2.278-3.592 3.335h0.929c1.111-1.141 2.501-2.458 3.711-3.266 1.209 0.808 2.6 2.125 3.711 3.266h0.929c-1.003-1.057-2.333-2.372-3.592-3.335h11.286c0.551 0 1-0.449 1-1v-16c0-0.551-0.449-1-1-1zM28.667 22.333c0 0.184-0.15 0.333-0.333 0.333h-24.667c-0.184 0-0.333-0.15-0.333-0.333v-14.333h25.333v14.333zM28.667 7.333h-25.333v-1c0-0.184 0.15-0.333 0.333-0.333h24.667c0.184 0 0.333 0.15 0.333 0.333v1z"/>
</svg>
