<svg version="1.1" xmlns="http://www.w3.org/2000/svg" width="32" height="32" viewBox="0 0 32 32">
    <path fill="currentColor" d="M29.331 5.625l-0.040-0.317-0.319 0.027c-7.78 0.651-12.738-2.579-12.788-2.612l-0.184-0.123-0.184 0.122c-0.049 0.032-5.007 3.261-12.788 2.612l-0.317-0.027-0.041 0.316c-0.021 0.156-1.856 15.654 13.173 23.671l0.15 0.080 0.153-0.075c15.040-7.353 13.204-23.511 13.184-23.674zM16.007 28.625c-13.285-7.185-12.873-20.396-12.705-22.601 7.079 0.504 11.723-2.039 12.699-2.63 0.975 0.591 5.619 3.137 12.698 2.63 0.168 2.259 0.605 15.995-12.691 22.601zM18.667 9.333h-5.333v2.667h-2.667v5.333h2.667v2.667h5.333v-2.667h2.667v-5.333h-2.667zM20.667 12.667v4h-2.667v2.667h-4v-2.667h-2.667v-4h2.667v-2.667h4v2.667z"/>
</svg>
