<svg version="1.1" xmlns="http://www.w3.org/2000/svg" width="32" height="32" viewBox="0 0 32 32">
    <path fill="currentColor" d="M29.007 15.333h-9.427l-3.253 3.2-3.253-3.2h-9.413l3.673 3.613v10.387h18v-10.387l3.673-3.613zM19.853 16h7.52l-2.713 2.667h-7.52l2.713-2.667zM12.8 16l2.713 2.667h-7.52l-2.713-2.667h7.52zM15.993 28.667h-8v-9.333h8v9.333zM24.66 28.667h-8v-9.333h8v9.333z"/>
    <path fill="currentColor" d="M19.333 26.667h2.667v-1.333h1.333v-2.667h-1.333v-1.333h-2.667v1.333h-1.333v2.667h1.333v1.333zM18.667 24.667v-1.333h1.333v-1.333h1.333v1.333h1.333v1.333h-1.333v1.333h-1.333v-1.333h-1.333z"/>
    <path fill="currentColor" d="M15.22 13.893l0.78 0.387 0.78-0.387c6.213-3.127 5.9-7.267 5.88-7.413 0-1.62-0.907-2.94-2.427-3.527-1.467-0.573-3.080-0.267-4.233 0.807-1.113-1.047-2.773-1.373-4.233-0.807-1.52 0.587-2.427 1.887-2.427 3.44-0.033 0.447-0.173 4.453 5.88 7.507zM10.007 6.413c0-1.293 0.747-2.36 2-2.847 0.4-0.153 0.813-0.227 1.227-0.227 0.933 0 1.853 0.387 2.52 1.113l0.287 0.227 0.247-0.273c0.933-1.027 2.387-1.353 3.707-0.847 1.253 0.487 2 1.573 2 2.94 0 0.040 0.287 3.867-5.52 6.787v0l-0.48 0.24-0.48-0.24c-5.667-2.853-5.547-6.453-5.513-6.88z"/>
</svg>
