<svg version="1.1" xmlns="http://www.w3.org/2000/svg" width="32" height="32" viewBox="0 0 32 32">
    <path fill="currentColor" d="M27.128 14.025c-0.758-0.314-1.69-0.571-2.794-0.775v-2.583c0-4.486-3.66-8-8.333-8s-8.333 3.514-8.333 8v2.583c-1.104 0.204-2.036 0.461-2.794 0.775l-0.206 0.085v13.779l0.206 0.085c2.209 0.914 5.849 1.359 11.128 1.359s8.919-0.445 11.128-1.359l0.206-0.085v-13.779l-0.206-0.085zM8.333 10.667c0-4.112 3.368-7.333 7.667-7.333s7.667 3.221 7.667 7.333v2.47c-0.617-0.096-1.283-0.177-2-0.244v-2.226c0-3.040-2.436-5.333-5.667-5.333s-5.667 2.293-5.667 5.333v2.226c-0.717 0.066-1.383 0.148-2 0.244v-2.47zM21 12.836c-1.468-0.113-3.129-0.17-5-0.17s-3.532 0.057-5 0.17v-2.17c0-2.66 2.149-4.667 5-4.667s5 2.006 5 4.667v2.17zM26.667 27.441c-2.147 0.825-5.641 1.226-10.667 1.226s-8.52-0.401-10.667-1.226v-12.882c2.147-0.825 5.641-1.226 10.667-1.226s8.52 0.401 10.667 1.226v12.882zM13.667 15.333v3h-3v4.667h3v3h4.667v-3h3v-4.667h-3v-3h-4.667zM20.667 19v3.333h-3v3h-3.333v-3h-3v-3.333h3v-3h3.333v3h3z"/>
</svg>
