<svg version="1.1" xmlns="http://www.w3.org/2000/svg" width="32" height="32" viewBox="0 0 32 32">
    <path fill="currentColor" d="M22.667 15.333h-4.667v4.667h-4v-1.333h-5.333v3.333h-4.667v6h24v-16h-5.333zM8.667 27.333h-4v-4.667h4zM13.333 27.333h-4v-8h4v8zM18 27.333h-4v-6.667h4zM22.667 27.333h-4v-11.333h4zM23.333 12.667h4v14.667h-4v-14.667zM11.667 12.138l-7.764 7.764-0.471-0.471 8.236-8.236 4.333 4.333 10.988-10.988c-0.556-0.107-1.195-0.169-1.848-0.169-0.845 0-1.666 0.103-2.451 0.296l0.070-0.015-0.183-0.641c0.779-0.19 1.673-0.3 2.593-0.3 0.915 0 1.804 0.108 2.657 0.312l-0.077-0.016 0.194 0.049 0.049 0.194c0.189 0.775 0.297 1.665 0.297 2.581 0 0.919-0.109 1.813-0.316 2.669l0.016-0.077-0.641-0.184c0.179-0.715 0.282-1.537 0.282-2.382 0-0.653-0.061-1.292-0.179-1.911l0.010 0.064-11.459 11.459z"/>
</svg>
