<svg version="1.1" xmlns="http://www.w3.org/2000/svg" width="32" height="32" viewBox="0 0 32 32">
    <path fill="currentColor" d="M20.501 23.029l-0.117-4.749h0.919l-0.108 4.749h-0.694zM20.843 24.047c-0.18 0-0.314 0.045-0.4 0.135s-0.131 0.243-0.131 0.459c0 0.21 0.044 0.36 0.131 0.451s0.221 0.135 0.4 0.135c0.186 0 0.322-0.045 0.406-0.135s0.126-0.24 0.126-0.451c0-0.216-0.042-0.369-0.126-0.459s-0.219-0.135-0.406-0.135zM11.108 10.991c-0.178 0-0.31 0.045-0.396 0.134s-0.129 0.24-0.129 0.453c0 0.208 0.043 0.356 0.129 0.445s0.218 0.134 0.396 0.134c0.184 0 0.317-0.044 0.4-0.134s0.124-0.237 0.124-0.445c0-0.214-0.041-0.364-0.124-0.453s-0.216-0.134-0.4-0.134zM11.268 5.166c-0.528 0-0.957 0.15-1.289 0.449s-0.537 0.728-0.614 1.285l0.72 0.124c0.048-0.314 0.157-0.585 0.329-0.813s0.439-0.343 0.8-0.343c0.326 0 0.579 0.101 0.76 0.303s0.271 0.48 0.271 0.836c0 0.273-0.056 0.504-0.169 0.694s-0.285 0.412-0.516 0.667c-0.184 0.202-0.339 0.384-0.467 0.547s-0.221 0.327-0.28 0.494-0.086 0.359-0.080 0.578h0.72c0.007-0.279 0.086-0.519 0.24-0.72s0.341-0.415 0.56-0.64c0.143-0.142 0.279-0.293 0.41-0.453s0.237-0.341 0.32-0.543c0.083-0.201 0.124-0.439 0.124-0.711 0-0.521-0.166-0.944-0.498-1.267s-0.779-0.484-1.343-0.484zM13.667 14.667h-2.571l-3.096 1.935v-1.946c-2.913-0.19-5.322-2.855-5.333-5.988-0.006-1.738 0.605-3.309 1.719-4.423 1.019-1.018 2.411-1.578 3.923-1.578h4.718c1.613 0 3.118 0.616 4.238 1.735 1.124 1.124 1.741 2.639 1.735 4.266-0.012 3.364-2.354 5.999-5.333 5.999zM13.667 14c3.019 0 4.658-2.748 4.667-5.335 0.005-1.448-0.542-2.795-1.54-3.792-0.994-0.993-2.332-1.54-3.768-1.54h-4.716c-1.354 0-2.546 0.478-3.452 1.383-0.988 0.987-1.529 2.39-1.524 3.949 0.010 2.892 2.299 5.335 5 5.335h0.333v1.398l2.238-1.398h2.762zM29.333 21.668c-0.011 3.133-2.42 5.798-5.333 5.988v1.946l-3.096-1.935h-2.571c-2.979 0-5.322-2.635-5.333-5.999-0.006-1.628 0.611-3.143 1.735-4.266 1.127-1.126 2.62-1.731 4.266-1.735h4.691c1.51 0 2.902 0.56 3.921 1.578 1.115 1.114 1.725 2.685 1.719 4.423zM28.667 21.665c0.005-1.559-0.536-2.961-1.524-3.949-0.906-0.905-2.098-1.383-3.451-1.383h-4.716c-1.437 0-2.775 0.546-3.77 1.54-0.998 0.997-1.545 2.344-1.54 3.792 0.009 2.586 1.648 5.335 4.667 5.335h2.762l2.238 1.398v-1.398h0.333c2.701 0 4.99-2.443 5-5.335z"/>
</svg>
