<svg version="1.1" xmlns="http://www.w3.org/2000/svg" width="32" height="32" viewBox="0 0 32 32">
    <path fill="currentColor" d="M16.474 18.789c0.146 0.156 0.218 0.42 0.218 0.794 0 0.364-0.072 0.623-0.218 0.778s-0.379 0.234-0.701 0.234c-0.312 0-0.542-0.078-0.693-0.234-0.149-0.156-0.226-0.415-0.226-0.778 0-0.374 0.076-0.638 0.226-0.794 0.151-0.156 0.381-0.234 0.693-0.234 0.322 0 0.555 0.078 0.701 0.234zM16.054 8.359c-0.924 0-1.676 0.262-2.256 0.786-0.582 0.524-0.94 1.274-1.074 2.249l1.26 0.218c0.084-0.55 0.275-1.025 0.576-1.424 0.3-0.4 0.768-0.6 1.401-0.6 0.57 0 1.013 0.177 1.33 0.53s0.475 0.841 0.475 1.463c0 0.478-0.099 0.882-0.295 1.214-0.198 0.333-0.499 0.721-0.903 1.167-0.322 0.353-0.594 0.672-0.817 0.958s-0.386 0.573-0.49 0.864c-0.104 0.291-0.151 0.628-0.141 1.012h1.26c0.011-0.488 0.151-0.908 0.421-1.261 0.27-0.352 0.597-0.726 0.981-1.12 0.25-0.249 0.488-0.514 0.717-0.794 0.228-0.281 0.414-0.597 0.56-0.95 0.146-0.352 0.218-0.768 0.218-1.245 0-0.913-0.29-1.653-0.872-2.218s-1.364-0.848-2.351-0.848zM29.333 15.001c-0.013 5.034-4.020 9.15-9 9.326v2.962l-4.434-2.956h-3.899c-5.126 0-9.313-4.186-9.333-9.332-0.011-2.873 1.022-5.494 2.908-7.38 1.7-1.7 3.987-2.609 6.426-2.621h8.035c2.431 0 4.699 0.929 6.389 2.62 1.886 1.886 2.919 4.507 2.908 7.382zM28.667 14.999v-0c0.010-2.695-0.953-5.148-2.712-6.908-1.572-1.572-3.703-2.452-5.953-2.424h-8.035c-2.254 0-4.354 0.861-5.919 2.426-1.76 1.76-2.724 4.213-2.714 6.906 0.020 4.78 3.907 8.668 8.667 8.668h4.101l3.566 2.377v-2.377h0.333c4.766 0 8.654-3.888 8.667-8.668z"/>
</svg>
