<svg version="1.1" xmlns="http://www.w3.org/2000/svg" width="32" height="32" viewBox="0 0 32 32">
    <path fill="currentColor" d="M16.667 17.333c-0.001 0-0.003 0-0.004 0-3.408 0-6.482 1.428-8.658 3.717l-0.005 0.005v-1.723h-0.667v3.272l0.266 0.055c1.271 0.3 2.226 1.358 2.37 2.659l0.001 0.014h-5.941c0.145-1.316 1.1-2.373 2.35-2.669l0.021-0.004 0.266-0.055v-3.272h-0.667v2.74c-1.55 0.491-2.656 1.912-2.667 3.593v0.001c0 2.025 1.642 3.667 3.667 3.667s3.667-1.642 3.667-3.667v0c-0.011-1.682-1.116-3.103-2.64-3.586l-0.027-0.007v-0.029c1.18-1.395 2.67-2.491 4.367-3.185l0.075-0.027-1.154 2.886 1.971 2.628-1.33 1.996 2.138 2.993h0.819l-2.148-3.007 1.337-2.005-2.029-2.706 0.87-2.173c0.757 2.673 1.929 5.005 3.458 7.053l-0.040-0.056v2.893h0.667v-2.893c1.49-1.992 2.661-4.324 3.381-6.846l0.037-0.151 0.87 2.173-2.029 2.706 1.337 2.005-2.148 3.007h0.819l2.138-2.993-1.33-1.995 1.971-2.628-1.157-2.893c4.199 1.722 7.104 5.775 7.111 10.508v0.001h0.667c-0.008-6.624-5.376-11.992-11.999-12h-0.001zM7 28.667c-1.534-0.005-2.796-1.163-2.965-2.653l-0.001-0.014h5.933c-0.17 1.504-1.432 2.662-2.966 2.667h-0zM16.667 25.769c-1.493-2.066-2.631-4.498-3.264-7.126l-0.029-0.14c0.99-0.318 2.129-0.502 3.31-0.502 1.17 0 2.298 0.18 3.357 0.514l-0.079-0.021c-0.66 2.773-1.799 5.208-3.337 7.337l0.041-0.060zM16.667 16c2.070-0.001 3.895-1.050 4.972-2.645l0.014-0.021h1.754l-0.746-3.761-0.015 0.003c-0.225-3.125-2.816-5.575-5.978-5.575-3.173 0-5.77 2.466-5.979 5.586l-0.001 0.018-0.013-0.003-0.747 3.732h1.754c1.091 1.617 2.916 2.666 4.985 2.667h0zM22.409 11.733l0.185 0.933h-0.561c0.136-0.261 0.263-0.57 0.364-0.891l0.011-0.042zM16.667 4.667c1.995 0.002 3.733 1.098 4.647 2.721l0.014 0.027c-0.251 0.045-0.539 0.071-0.834 0.071-0.98 0-1.893-0.284-2.663-0.774l0.020 0.012-0.197-0.13-0.188 0.141c-2.079 1.559-4.84 1.415-5.758 1.314 0.802-1.994 2.718-3.377 4.957-3.38h0zM10.74 12.667l0.186-0.928c0.112 0.361 0.239 0.669 0.39 0.962l-0.016-0.033zM11.501 8.696c0.384 0.052 0.829 0.082 1.28 0.082 0.010 0 0.020 0 0.030-0h-0.002c0.061 0.002 0.133 0.002 0.205 0.002 1.735 0 3.35-0.515 4.701-1.4l-0.033 0.020c0.784 0.474 1.731 0.754 2.744 0.754 0.421 0 0.831-0.049 1.224-0.14l-0.036 0.007c0.247 0.593 0.391 1.282 0.391 2.004 0 2.947-2.389 5.336-5.336 5.336s-5.336-2.389-5.336-5.336c0-0.472 0.061-0.93 0.177-1.366l-0.008 0.037zM6.667 17.667c0 0.552 0.448 1 1 1s1-0.448 1-1c0-0.552-0.448-1-1-1v0c-0.552 0.001-0.999 0.448-1 1v0zM8 17.667c0 0.184-0.149 0.333-0.333 0.333s-0.333-0.149-0.333-0.333c0-0.184 0.149-0.333 0.333-0.333v0c0.184 0 0.333 0.149 0.333 0.333v0zM7.667 13.993c0.917-0 1.66-0.743 1.66-1.66s-0.743-1.66-1.66-1.66-1.66 0.743-1.66 1.66v0c0.001 0.916 0.744 1.659 1.66 1.66h0zM7.667 11.327c0 0 0 0 0 0 0.556 0 1.007 0.451 1.007 1.007s-0.451 1.007-1.007 1.007c-0.556 0-1.007-0.451-1.007-1.007 0 0 0 0 0 0v0c0.001-0.556 0.451-1.006 1.006-1.007h0zM5.333 16.658c0.732-0 1.325-0.593 1.325-1.325s-0.593-1.325-1.325-1.325-1.325 0.593-1.325 1.325c0 0 0 0 0 0v0c0.001 0.731 0.594 1.324 1.325 1.325h0zM5.333 14.658c0 0 0 0 0 0 0.373 0 0.675 0.302 0.675 0.675s-0.302 0.675-0.675 0.675c-0.373 0-0.675-0.302-0.675-0.675v0c0-0.373 0.302-0.675 0.675-0.675h0zM24.667 25.333h1.333v0.667h-4v-0.667h0.667v-1.333h0.667v1.333h0.667v-0.667h0.667z"/>
</svg>
