<svg version="1.1" xmlns="http://www.w3.org/2000/svg" width="32" height="32" viewBox="0 0 32 32">
    <path fill="currentColor" d="M28.667 15.333h0.667v11c0 1.33-1.003 2.333-2.333 2.333h-22c-1.33 0-2.333-1.003-2.333-2.333v-18.667c0-1.33 1.003-2.333 2.333-2.333h16v0.667h-16c-0.95 0-1.667 0.717-1.667 1.667v18.667c0 0.95 0.716 1.667 1.667 1.667h22c0.95 0 1.667-0.717 1.667-1.667v-11zM28.366 9h-3.699c-8.626 0-13 3.701-13 11.001l0.001 0.667 0.667-0.001-0.001-0.666c0-6.857 4.149-10.333 12.333-10.333h3.699c-1.665 2.296-4.881 5.050-4.916 5.079l0.432 0.508c0.156-0.133 3.835-3.281 5.398-5.742l0.114-0.179-0.114-0.179c-1.563-2.46-5.243-5.609-5.398-5.742l-0.432 0.508c0.035 0.029 3.25 2.783 4.916 5.079z"/>
</svg>
