<svg version="1.1" xmlns="http://www.w3.org/2000/svg" width="32" height="32" viewBox="0 0 32 32">
    <path fill="currentColor" d="M26.853 20.665c0.912-1.708 2.241-4.64 2.479-7.638l0.029-0.36h-3.023c-1.558-0.012-3.084 0.37-4.337 1.070v-3.737h-11.333v5.333h-0.785l-1.666-3.667h-1.186l0.333-4h-3.335l-0.333 4h-0.027v3.667h-1.017l0.018 0.35c0.007 0.146 0.191 3.439 1.524 5.538-0.022 0.018-0.045 0.035-0.067 0.053-0.398 0.319-0.743 0.594-1.46 0.594v0.667c0.951 0 1.442-0.393 1.876-0.74 0.398-0.319 0.743-0.594 1.46-0.594s1.062 0.275 1.46 0.594c0.434 0.347 0.926 0.74 1.876 0.74s1.442-0.393 1.876-0.74c0.398-0.319 0.742-0.594 1.459-0.594s1.060 0.275 1.458 0.593c0.434 0.347 0.924 0.74 1.874 0.74s1.441-0.393 1.875-0.74c0.398-0.319 0.742-0.594 1.458-0.594s1.060 0.275 1.458 0.593c0.434 0.347 0.924 0.74 1.875 0.74s1.441-0.393 1.874-0.74c0.398-0.318 0.742-0.593 1.458-0.593s1.061 0.275 1.458 0.594c0.434 0.347 0.924 0.74 1.874 0.74v-0.667c-0.716 0-1.060-0.275-1.458-0.593-0.28-0.224-0.587-0.466-1.024-0.611zM17.333 15.333h-0.667v-2l4.667 0v0.815c-1.216 0.784-2.56 1.185-4 1.185zM21.333 12.667l-4.667-0v-2h4.667v2zM16 10.667v2l-4.667-0v-1.999h4.667zM11.333 13.333l4.667 0v2h-4.667v-2.001zM4.64 8.333h1.998l-0.278 3.333h-1.998l0.278-3.333zM4.333 12.333h3.452l1.364 3h-4.816v-3zM17.333 16c1.633 0 3.154-0.468 4.52-1.39 1.228-0.83 2.852-1.294 4.48-1.276h2.3c-0.182 1.659-0.698 3.283-1.265 4.667h-23.696c-0.185-0.837-0.273-1.583-0.312-2h13.973zM24.128 21.275c-0.398 0.318-0.742 0.593-1.458 0.593s-1.061-0.275-1.458-0.594c-0.434-0.347-0.924-0.74-1.874-0.74s-1.441 0.393-1.875 0.74c-0.398 0.319-0.742 0.594-1.458 0.594s-1.060-0.275-1.458-0.593c-0.434-0.347-0.924-0.74-1.874-0.74s-1.442 0.393-1.876 0.74c-0.398 0.319-0.742 0.594-1.459 0.594s-1.061-0.275-1.46-0.594c-0.434-0.347-0.926-0.74-1.877-0.74-0.549 0-0.943 0.133-1.263 0.31-0.404-0.643-0.693-1.421-0.901-2.179h23.25c-0.326 0.734-0.648 1.367-0.926 1.877-0.053-0.003-0.103-0.008-0.159-0.008-0.95 0-1.441 0.393-1.874 0.74zM27.878 23.22c0.398 0.318 0.742 0.593 1.458 0.593v0.667c-0.95 0-1.441-0.393-1.874-0.74-0.398-0.319-0.742-0.594-1.458-0.594s-1.060 0.275-1.458 0.593c-0.434 0.347-0.924 0.74-1.874 0.74s-1.441-0.393-1.875-0.74c-0.398-0.318-0.742-0.593-1.458-0.593s-1.061 0.275-1.458 0.594c-0.434 0.347-0.924 0.74-1.875 0.74s-1.441-0.393-1.874-0.74c-0.398-0.318-0.742-0.593-1.458-0.593s-1.061 0.275-1.459 0.594c-0.434 0.347-0.925 0.74-1.876 0.74s-1.442-0.393-1.876-0.74c-0.398-0.319-0.743-0.594-1.46-0.594s-1.062 0.275-1.46 0.594c-0.434 0.347-0.926 0.74-1.876 0.74v-0.667c0.717 0 1.061-0.275 1.46-0.594 0.434-0.347 0.926-0.74 1.877-0.74s1.443 0.393 1.877 0.74c0.398 0.319 0.743 0.594 1.46 0.594s1.061-0.275 1.459-0.594c0.434-0.347 0.925-0.74 1.876-0.74s1.441 0.393 1.874 0.74c0.398 0.318 0.742 0.593 1.458 0.593s1.061-0.275 1.458-0.594c0.434-0.347 0.924-0.74 1.875-0.74s1.441 0.393 1.874 0.74c0.398 0.319 0.742 0.594 1.458 0.594s1.060-0.275 1.458-0.593c0.434-0.347 0.924-0.74 1.874-0.74s1.441 0.393 1.875 0.74z"/>
</svg>
