<svg version="1.1" xmlns="http://www.w3.org/2000/svg" width="32" height="32" viewBox="0 0 32 32">
    <path fill="currentColor" d="M29.115 21.818l-3.449-6.897v-2.307c0.424-0.111 0.788-0.419 0.934-0.866 0.228-0.699-0.154-1.453-0.853-1.682s-1.453 0.154-1.682 0.853c-0.006 0.019-0.007 0.039-0.013 0.059-2.445-0.072-4.548-0.357-6.562-0.889 0.002-0.030 0.009-0.059 0.009-0.089 0-0.827-0.673-1.5-1.5-1.5-0.536 0-1.003 0.285-1.269 0.708-2.504-0.907-4.733-1.963-6.488-3.072 0.006-0.017 0.019-0.029 0.024-0.047 0.228-0.699-0.154-1.453-0.853-1.682s-1.453 0.154-1.682 0.853c-0.228 0.699 0.154 1.453 0.853 1.682 0.027 0.009 0.054 0.006 0.081 0.013v2.308l-3.449 6.897c-0.135 0.145-0.218 0.313-0.218 0.514 0 1.204 2.797 1.335 4 1.335s4-0.13 4-1.335c0-0.2-0.083-0.369-0.218-0.514l-3.449-6.897v-2.307c0.194-0.051 0.369-0.145 0.522-0.275 1.803 1.143 4.093 2.229 6.66 3.159-0.006 0.054-0.016 0.106-0.016 0.161 0 0.712 0.5 1.307 1.167 1.46v13.874h-4v2h8.667v-2h-4v-13.874c0.418-0.096 0.765-0.367 0.969-0.731 2.072 0.548 4.231 0.842 6.739 0.915 0.105 0.434 0.422 0.807 0.877 0.956 0.027 0.009 0.054 0.006 0.081 0.013v2.308l-3.449 6.897c-0.135 0.145-0.218 0.313-0.218 0.514 0 1.204 2.797 1.335 4 1.335s4-0.13 4-1.335c0-0.2-0.083-0.368-0.218-0.514zM7 10.088l2.775 5.55c-0.906-0.253-2.095-0.295-2.775-0.295s-1.869 0.042-2.775 0.295l2.775-5.55zM7 17.342c-2.21 0-3.205-0.423-3.312-0.63l0.082-0.164c0.29-0.222 1.273-0.539 3.23-0.539s2.941 0.318 3.23 0.539l0.082 0.164c-0.107 0.208-1.102 0.63-3.312 0.63zM6.793 6.309c-0.349-0.115-0.541-0.492-0.427-0.841 0.092-0.281 0.354-0.459 0.634-0.459 0.068 0 0.138 0.010 0.206 0.033 0.349 0.115 0.541 0.492 0.427 0.841s-0.491 0.542-0.841 0.426zM19.667 26.667h-7.333v-0.667h7.333v0.667zM16 10.833c-0.46 0-0.833-0.374-0.833-0.833s0.374-0.833 0.833-0.833 0.833 0.374 0.833 0.833-0.374 0.833-0.833 0.833zM28.108 21.295c-0.906-0.253-2.095-0.295-2.775-0.295s-1.869 0.042-2.775 0.295l2.775-5.55 2.775 5.55zM24.7 11.126c0.092-0.281 0.354-0.459 0.634-0.459 0.068 0 0.138 0.010 0.206 0.033 0.349 0.115 0.541 0.492 0.427 0.841s-0.491 0.542-0.841 0.426c-0.349-0.115-0.541-0.492-0.427-0.841zM25.333 23c-2.21 0-3.205-0.423-3.312-0.63l0.082-0.164c0.289-0.222 1.273-0.539 3.23-0.539s2.941 0.317 3.23 0.539l0.082 0.164c-0.107 0.208-1.102 0.63-3.312 0.63z"/>
</svg>
