<svg version="1.1" xmlns="http://www.w3.org/2000/svg" width="32" height="32" viewBox="0 0 32 32">
    <path fill="currentColor" d="M26.426 7.62c-1.69-1.69-3.958-2.62-6.389-2.62h-8.072c-2.43 0-4.699 0.93-6.39 2.621-1.886 1.886-2.919 4.507-2.908 7.38 0.021 5.146 4.208 9.332 9.333 9.332h3.899l4.434 2.956v-2.962c4.98-0.176 8.987-4.292 9-9.326 0.011-2.874-1.021-5.496-2.908-7.382zM20 23.667h-0.333v2.377l-3.566-2.377h-4.101c-4.76 0-8.647-3.889-8.667-8.668-0.010-2.694 0.953-5.146 2.714-6.906 1.565-1.565 3.665-2.426 5.919-2.426h8.069c2.254 0 4.355 0.86 5.919 2.424 1.759 1.759 2.723 4.212 2.712 6.908v0c-0.012 4.78-3.9 8.668-8.667 8.668zM19.909 10.21c-1.365-0.529-2.862-0.249-3.909 0.705-1.047-0.954-2.544-1.234-3.909-0.705-1.403 0.544-2.275 1.799-2.273 3.244-0.016 0.163-0.324 4.032 5.433 6.931l0.749 0.374 0.75-0.375c5.757-2.898 5.448-6.767 5.434-6.897 0-1.477-0.872-2.733-2.275-3.276zM16.451 19.788l-0.451 0.225-0.451-0.225c-5.322-2.68-5.081-6.126-5.066-6.302 0-1.196 0.708-2.213 1.849-2.655 0.38-0.147 0.771-0.218 1.157-0.218 0.852 0 1.672 0.348 2.265 0.998l0.246 0.27 0.246-0.27c0.861-0.945 2.204-1.251 3.422-0.779 1.141 0.442 1.849 1.459 1.85 2.686 0.013 0.146 0.255 3.592-5.068 6.271z"/>
</svg>
