<svg version="1.1" xmlns="http://www.w3.org/2000/svg" width="32" height="32" viewBox="0 0 32 32">
    <path fill="currentColor" d="M26.426 7.62c-1.69-1.69-3.959-2.62-6.389-2.62h-8.035c-2.414-0.001-4.726 0.922-6.426 2.621-1.886 1.886-2.92 4.507-2.909 7.381 0.021 5.146 4.208 9.332 9.333 9.332h3.899l4.434 2.956v-2.962c4.979-0.176 8.987-4.292 9-9.326 0.011-2.875-1.021-5.496-2.907-7.382zM20 23.667h-0.333v2.377l-3.566-2.377h-4.101c-4.759 0-8.647-3.888-8.667-8.668-0.010-2.694 0.954-5.147 2.714-6.906 1.565-1.565 3.666-2.426 5.919-2.426h8.069c2.254 0 4.355 0.86 5.92 2.424 1.759 1.759 2.722 4.212 2.712 6.908v0c-0.013 4.779-3.901 8.668-8.667 8.668z"/>
</svg>
