<svg version="1.1" xmlns="http://www.w3.org/2000/svg" width="32" height="32" viewBox="0 0 32 32">
    <path fill="currentColor" d="M19 8.668c0.006-1.628-0.611-3.143-1.735-4.266-1.12-1.119-2.625-1.735-4.238-1.735h-4.718c-1.511 0-2.904 0.56-3.923 1.578-1.115 1.114-1.725 2.685-1.719 4.423 0.011 3.133 2.42 5.798 5.333 5.988v1.946l3.096-1.935h2.571c2.979 0 5.322-2.635 5.333-5.999zM10.904 14l-2.238 1.398v-1.398h-0.333c-2.701 0-4.99-2.443-5-5.335-0.005-1.559 0.536-2.961 1.524-3.949 0.906-0.905 2.098-1.383 3.452-1.383h4.716c1.436 0 2.774 0.546 3.768 1.54 0.998 0.997 1.545 2.344 1.54 3.792-0.009 2.586-1.648 5.335-4.667 5.335h-2.762zM27.614 17.245c-1.025-1.024-2.408-1.569-3.947-1.578h-4.665c-1.621 0.004-3.139 0.609-4.266 1.735-1.124 1.124-1.741 2.639-1.735 4.266 0.012 3.364 2.354 5.999 5.333 5.999h2.571l3.096 1.935v-1.946c2.913-0.19 5.322-2.855 5.333-5.988 0.006-1.738-0.605-3.309-1.719-4.423zM23.667 27h-0.333v1.398l-2.238-1.398h-2.762c-3.019 0-4.658-2.748-4.667-5.335-0.005-1.448 0.542-2.795 1.54-3.792 0.995-0.993 2.332-1.54 3.77-1.54h4.716c1.352 0 2.545 0.478 3.451 1.383 0.988 0.987 1.529 2.39 1.524 3.949-0.010 2.892-2.299 5.335-5 5.335z"/>
</svg>
