<svg version="1.1" xmlns="http://www.w3.org/2000/svg" width="32" height="32" viewBox="0 0 32 32">
    <path fill="currentColor" d="M25.875 9.264c0.298 0.24 0.612 0.472 0.946 0.684l0.226 0.144 1.482-1.483-0.35-0.223c-2.107-1.34-3.551-3.545-3.566-3.567l-0.225-0.345-1.482 1.482 0.146 0.226c0.024 0.037 0.27 0.41 0.691 0.933l-0.381 0.379c-1.798-1.37-3.887-2.17-6.029-2.405v-0.755c0-0.935-0.726-1.667-1.652-1.667-0.943 0-1.681 0.732-1.681 1.667v0.85c-2.455 0.406-4.808 1.552-6.681 3.459-4.701 4.786-4.63 12.505 0.156 17.205 2.365 2.322 5.445 3.479 8.523 3.479 3.153 0 6.304-1.215 8.682-3.637 4.343-4.422 4.604-11.343 0.845-16.078l0.349-0.349zM24.287 5.518c0.47 0.651 1.618 2.105 3.189 3.201l-0.52 0.521c-1.601-1.087-2.785-2.632-3.191-3.2l0.521-0.521zM24.175 7.625c0.333 0.379 0.733 0.795 1.19 1.205l-0.272 0.272c-0.185-0.208-0.366-0.419-0.568-0.617-0.206-0.203-0.425-0.384-0.642-0.569l0.292-0.291zM14.667 4.333c0-0.561 0.445-1 1.014-1 0.562 0 0.986 0.43 0.986 1v0.703c-0.667-0.036-1.336-0.028-2 0.045v-0.748zM24.206 25.224c-4.443 4.524-11.738 4.591-16.263 0.148s-4.591-11.738-0.148-16.263c2.249-2.289 5.226-3.437 8.207-3.437 2.909 0 5.821 1.094 8.056 3.289 4.523 4.443 4.59 11.738 0.148 16.263zM20.235 13.569l-0.471-0.471 1.422-1.422 0.471 0.471-1.422 1.422zM20.235 21.097l1.422 1.422-0.471 0.471-1.422-1.422 0.471-0.471zM11.765 21.097l0.471 0.471-1.422 1.422-0.471-0.471 1.422-1.422zM10.677 17.667h-2.677v-0.667h2.677v0.667zM15.667 22.656h0.667v2.677h-0.667v-2.677zM21.323 17h2.677v0.667h-2.677v-0.667zM8.984 10.444c-3.799 3.868-3.742 10.107 0.126 13.906 1.911 1.876 4.401 2.812 6.889 2.812 2.548 0 5.095-0.981 7.017-2.939 3.799-3.868 3.742-10.107-0.126-13.906-3.868-3.798-10.107-3.742-13.906 0.127zM22.541 23.756c-3.543 3.606-9.358 3.658-12.964 0.118-3.607-3.541-3.66-9.356-0.118-12.963 3.543-3.606 9.359-3.658 12.964-0.118 3.607 3.541 3.66 9.356 0.118 12.963zM17.333 17.333c0 0.736-0.597 1.333-1.333 1.333s-1.333-0.597-1.333-1.333c0-0.347 0.136-0.66 0.353-0.897l-0.194 0.194-4.718-4.718 0.471-0.471 4.718 4.718-0.194 0.194c0.237-0.217 0.55-0.353 0.897-0.353 0.736 0 1.333 0.597 1.333 1.333zM16.333 12.010h-0.667v-2.677h0.667v2.677z"/>
</svg>
