<svg version="1.1" xmlns="http://www.w3.org/2000/svg" width="32" height="32" viewBox="0 0 32 32">
    <path fill="currentColor" d="M29.38 28.852c-0.779-1.576-1.681-3.111-2.692-4.597 1.059-5.137 0.216-9.505-2.515-12.982-6.343-8.077-20.561-8.589-21.163-8.607l-0.397-0.012 0.058 0.393c0.53 3.611 2.865 15.766 10.673 20.609 2.157 1.338 4.559 2.007 7.181 2.007 1.79 0 3.686-0.321 5.674-0.945 0.969 1.433 1.834 2.911 2.584 4.429l0.598-0.296zM13.694 23.090c-7.3-4.528-9.68-15.781-10.303-19.74 2.413 0.131 14.608 1.141 20.257 8.334 2.494 3.176 3.332 7.149 2.504 11.815-4.281-5.992-10.378-11.134-17.669-14.798l-0.299 0.595c7.301 3.67 13.386 8.835 17.612 14.852-4.625 1.405-8.694 1.054-12.102-1.059z"/>
</svg>
