<svg version="1.1" xmlns="http://www.w3.org/2000/svg" width="32" height="32" viewBox="0 0 32 32">
    <path fill="currentColor" d="M23.49 8.925l6.078-6.022-0.469-0.473-6.080 6.024-1.261-1.259-2.176 2.176-0.627-0.626-0.106 0.106-0-0-13.232 13.251 1.881 1.878-2.81 2.817c-0.697-0.789-1.24-1.71-1.587-2.729l-0.631 0.215c0.719 2.115 2.207 3.855 4.188 4.902 0.288 0.152 0.588 0.289 0.89 0.408l0.243-0.621c-0.279-0.109-0.555-0.236-0.822-0.376-0.674-0.356-1.284-0.8-1.822-1.315l2.822-2.829 1.867 1.865 13.223-13.241s0.115-0.115 0.115-0.115l-0.629-0.628 2.176-2.177-1.233-1.231zM9.836 25.374l-3.277-3.272 1.99-1.992 1.694 1.609 0.459-0.484-1.682-1.597 2.033-2.036 1.694 1.609 0.459-0.484-1.682-1.597 2.036-2.039 1.694 1.609 0.459-0.483-1.682-1.597 2.036-2.039 1.694 1.609 0.459-0.484-1.682-1.597 2.416-2.419 3.276 3.272-12.396 12.413zM20.053 9.843l1.705-1.705 2.021 2.019-1.705 1.705-2.021-2.019z"/>
</svg>
