<svg version="1.1" xmlns="http://www.w3.org/2000/svg" width="32" height="32" viewBox="0 0 32 32">
    <path fill="currentColor" d="M25.807 22.147c-0.347-0.2-0.733-0.347-1.147-0.473 0 0 0 0 0 0v-11.347c0-0.92-0.747-1.66-1.66-1.66-0.187 0-0.34-0.153-0.34-0.333v-0.333h1c0.553 0 1-0.447 1-1v-1.453c0-0.487-0.34-0.9-0.813-0.987-1.133-0.213-3.62-0.56-7.52-0.56h-0.667c-3.913 0-6.393 0.353-7.52 0.56-0.467 0.087-0.813 0.5-0.813 0.98v1.453c0 0.553 0.447 1 1 1h1v0.333c0 0.18-0.147 0.333-0.333 0.333-0.92 0-1.667 0.747-1.667 1.667v16c0 0.92 0.747 1.667 1.667 1.667h9.173c0.2 0.18 0.433 0.347 0.7 0.5 0.953 0.553 2.213 0.827 3.467 0.827s2.513-0.273 3.467-0.827c0.993-0.567 1.533-1.347 1.533-2.193v-1.973c0-0.84-0.547-1.62-1.533-2.193zM26.673 24.34c0 0.56-0.387 1.107-1.087 1.54l-5.887-3.387c0.78-0.333 1.707-0.513 2.633-0.513 1.133 0 2.273 0.247 3.133 0.747 0.773 0.447 1.2 1.020 1.2 1.613zM18 24.34c0-0.54 0.353-1.060 1-1.487l5.873 3.38c-1.727 0.693-4.127 0.607-5.667-0.287-0.767-0.44-1.187-1.007-1.2-1.593v-0.020zM10.333 25.34c-0.187 0-0.333-0.153-0.333-0.333v-13.333c0-0.187 0.153-0.333 0.333-0.333h11.333c0.187 0 0.333 0.153 0.333 0.333v9.673s0 0 0 0c-1.14 0.047-2.267 0.307-3.133 0.807-0.987 0.573-1.533 1.347-1.533 2.193 0 0.007 0 0.013 0 0.027v0.973h-4.667s-2.333 0-2.333 0zM8.333 7.34c-0.187 0-0.333-0.153-0.333-0.333v-1.453c0-0.167 0.113-0.3 0.267-0.327 0.113-0.020 0.253-0.047 0.4-0.067v1.52h0.667v-1.62c0.38-0.053 0.833-0.107 1.333-0.153v1.773h0.667v-1.833c0.413-0.033 0.853-0.067 1.333-0.087v1.92h0.667v-1.953c0.42-0.013 0.867-0.027 1.333-0.033v1.987h0.667v-1.993c0.113 0 0.22 0 0.333 0h0.667c0.12 0 0.22 0 0.333 0v1.993h0.667v-1.987c0.467 0.007 0.913 0.020 1.333 0.033v1.953h0.667v-1.92c0.48 0.027 0.927 0.053 1.333 0.087v1.833h0.667v-1.773c0.5 0.047 0.953 0.1 1.333 0.153v1.62h0.667v-1.52c0.147 0.020 0.28 0.047 0.4 0.067 0.16 0.027 0.267 0.167 0.267 0.327v1.453c0 0.187-0.153 0.34-0.333 0.34h-15.333zM9 27.34c-0.553 0-1-0.447-1-1v-16.007c0-0.553 0.447-1 1-1s1-0.447 1-1v-0.333h12v0.333c0 0.553 0.447 1 1 1s0.993 0.447 0.993 0.993v11.167s0 0 0 0c-0.433-0.087-0.887-0.14-1.34-0.16 0 0 0 0 0 0v-1.34s0-8.333 0-8.333c0-0.553-0.447-1-1-1h-11.32c-0.553 0-1 0.447-1 1v13.333c0 0.553 0.447 1 1 1h7v0.3c0 0.36 0.1 0.707 0.287 1.033 0 0 0 0 0 0h-8.627zM25.473 27.933c-1.733 0.993-4.54 0.993-6.273 0-0.78-0.447-1.2-1.027-1.2-1.627v-0.44c0.233 0.247 0.52 0.467 0.867 0.667 0.953 0.553 2.213 0.827 3.467 0.827s2.513-0.273 3.467-0.827v0c0.347-0.2 0.633-0.427 0.867-0.673v0.453c0 0.593-0.427 1.167-1.2 1.613z"/>
</svg>
