<svg version="1.1" xmlns="http://www.w3.org/2000/svg" width="32" height="32" viewBox="0 0 32 32">
    <path fill="currentColor" d="M28.649 16c-0.002 1.432-0.243 2.807-0.685 4.088l0.027-0.088h-0.673c0.443-1.199 0.699-2.584 0.699-4.028 0-5.192-3.309-9.611-7.934-11.264l-0.084-0.026v-0.673c5.063 1.729 8.64 6.441 8.649 11.99v0.001zM3.983 16c0.009-5.197 3.313-9.619 7.934-11.292l0.084-0.026v-0.673c-5.067 1.712-8.649 6.423-8.649 11.97 0 1.439 0.241 2.822 0.685 4.11l-0.027-0.089h0.673c-0.44-1.19-0.696-2.565-0.699-3.999v-0.001zM24.942 24c-2.201 2.469-5.391 4.017-8.942 4.017s-6.741-1.548-8.932-4.005l-0.010-0.012h-0.847c2.334 2.847 5.851 4.65 9.789 4.65s7.455-1.802 9.771-4.627l0.018-0.022zM10.667 17c0-1.289-1.045-2.333-2.333-2.333s-2.333 1.045-2.333 2.333c0 1.289 1.045 2.333 2.333 2.333v0c1.288-0.002 2.332-1.045 2.333-2.333v-0zM10 17c0 0.92-0.746 1.667-1.667 1.667s-1.667-0.746-1.667-1.667c0-0.92 0.746-1.667 1.667-1.667v0c0.92 0.001 1.666 0.747 1.667 1.667v0zM26 17c0-1.289-1.045-2.333-2.333-2.333s-2.333 1.045-2.333 2.333c0 1.289 1.045 2.333 2.333 2.333v0c1.288-0.002 2.332-1.045 2.333-2.333v-0zM25.333 17c0 0.92-0.746 1.667-1.667 1.667s-1.667-0.746-1.667-1.667c0-0.92 0.746-1.667 1.667-1.667v0c0.92 0.001 1.666 0.747 1.667 1.667v0zM18.333 5c0-1.289-1.045-2.333-2.333-2.333s-2.333 1.045-2.333 2.333c0 1.289 1.045 2.333 2.333 2.333v0c1.288-0.002 2.332-1.045 2.333-2.333v-0zM17.667 5c0 0.92-0.746 1.667-1.667 1.667s-1.667-0.746-1.667-1.667c0-0.92 0.746-1.667 1.667-1.667v0c0.92 0.001 1.666 0.747 1.667 1.667v0zM16 8c-2.76 0.003-4.997 2.24-5 5v0h0.667c0-2.393 1.94-4.333 4.333-4.333s4.333 1.94 4.333 4.333v0h0.667c-0.003-2.76-2.24-4.997-5-5h-0zM8.333 20c-2.76 0.003-4.997 2.24-5 5v0h0.667c0-2.393 1.94-4.333 4.333-4.333s4.333 1.94 4.333 4.333v0h0.667c-0.003-2.76-2.24-4.997-5-5h-0zM13.333 25h-0.667v0.333h0.667zM4 25h-0.667v0.333h0.667zM23.667 20c-2.76 0.003-4.997 2.24-5 5v0h0.667c0-2.393 1.94-4.333 4.333-4.333s4.333 1.94 4.333 4.333v0h0.667c-0.003-2.76-2.24-4.997-5-5h-0zM28.667 25h-0.667v0.333h0.667zM19.333 25h-0.667v0.333h0.667z"/>
</svg>
