<svg version="1.1" xmlns="http://www.w3.org/2000/svg" width="32" height="32" viewBox="0 0 32 32">
    <path fill="currentColor" d="M9.615 15.821l0.114 0.179-0.114 0.179c-1.707 2.686-6.217 6.265-6.408 6.416l-0.413-0.523c0.045-0.035 4.407-3.496 6.142-6.072-1.735-2.576-6.097-6.036-6.142-6.072l0.413-0.523c0.191 0.151 4.701 3.73 6.408 6.416zM13.040 9.405l-0.413 0.523c0.045 0.035 4.407 3.496 6.142 6.072-1.735 2.576-6.097 6.036-6.142 6.072l0.413 0.523c0.191-0.151 4.701-3.73 6.408-6.416l0.114-0.179-0.114-0.179c-1.707-2.686-6.217-6.265-6.408-6.416zM29.281 15.821c-1.707-2.686-6.217-6.265-6.408-6.416l-0.413 0.523c0.045 0.035 4.407 3.496 6.142 6.072-1.735 2.576-6.097 6.036-6.142 6.072l0.413 0.523c0.191-0.151 4.701-3.73 6.408-6.416l0.114-0.179-0.114-0.179z"/>
</svg>
