<svg version="1.1" xmlns="http://www.w3.org/2000/svg" width="32" height="32" viewBox="0 0 32 32">
    <path fill="currentColor" d="M24.232 8.761l-0.058-0.262h-2.268c-0.989 0-1.83-0.313-2.434-0.905-0.947-0.925-1.885-1.082-3.233-1.095h-6c-0.954 0-1.667 1.056-1.667 2 0 0.431 0.148 0.814 0.398 1.104-0.635 0.231-1.064 0.827-1.064 1.563 0 0.532 0.225 0.991 0.59 1.292-0.525 0.295-0.923 0.789-0.923 1.375 0 0.467 0.266 0.857 0.637 1.142-0.583 0.254-0.97 0.826-0.97 1.525 0 0.95 0.717 1.667 1.667 1.667h5.885l-0.87 2.898c-0.235 0.733-0.349 1.312-0.349 1.768v1c0 1.028 0.971 1.999 2.022 1.999h0.001c0.298-0.021 0.59-0.163 0.87-0.421l0.105-0.097 0.002-0.143c0.009-0.645 0.136-2.468 0.607-3.147 0.225-0.322 1.691-1.74 2.637-2.631 0.662-0.712 1.735-1.56 3.089-1.56h1.268l0.058-0.261c0.964-4.336 0.040-8.63 0-8.811zM23.637 17.166h-0.73c-1.594 0-2.826 0.964-3.562 1.757-0.242 0.228-2.375 2.237-2.712 2.719-0.599 0.864-0.704 2.777-0.722 3.367-0.126 0.097-0.243 0.15-0.337 0.157-0.66 0-1.333-0.673-1.333-1.333v-1c0-0.386 0.104-0.898 0.319-1.571l0.929-3.096h1.754v-0.017h0.034v-0.667h-1.993v0.017h-6.376c-0.579 0-1-0.421-1-1s0.421-1 1-1h0.793v-0.667c-0.643 0-1.46-0.471-1.46-1 0-0.554 0.729-1 1.333-1v-0.667c-0.579 0-1-0.421-1-1s0.421-1 1-1h0.667v-0.667c-0.579 0-1-0.421-1-1 0-0.604 0.446-1.333 1-1.333h6.002c1.186-0.002 1.978 0.136 2.764 0.905 0.73 0.716 1.733 1.095 2.9 1.095h1.725c0.178 0.971 0.722 4.491 0.005 8z"/>
</svg>
