<svg version="1.1" xmlns="http://www.w3.org/2000/svg" width="32" height="32" viewBox="0 0 32 32">
    <path fill="currentColor" d="M24.333 18c0-0.467-0.266-0.857-0.637-1.142 0.583-0.254 0.971-0.826 0.971-1.525 0-0.95-0.717-1.667-1.667-1.667h-5.885l0.87-2.898c0.235-0.733 0.349-1.312 0.349-1.768v-1c0-1.028-0.971-1.999-2.022-1.999h-0.001c-0.299 0.021-0.592 0.163-0.87 0.422l-0.104 0.097-0.002 0.143c-0.009 0.645-0.136 2.468-0.606 3.147-0.225 0.322-1.691 1.74-2.638 2.631-0.662 0.712-1.735 1.56-3.089 1.56h-1.268l-0.058 0.261c-0.965 4.336-0.040 8.63 0 8.811l0.058 0.261h2.268c0.988 0 1.83 0.313 2.434 0.905 0.929 0.908 1.867 1.095 3.159 1.095 0.025 0 0.049-0 0.074-0h6c0.954 0 1.667-1.056 1.667-2 0-0.431-0.148-0.814-0.398-1.104 0.635-0.231 1.064-0.827 1.064-1.563 0-0.532-0.225-0.991-0.59-1.292 0.525-0.295 0.923-0.789 0.923-1.375zM22.333 19v0.667c0.579 0 1 0.421 1 1s-0.421 1-1 1h-0.667v0.667c0.579 0 1 0.421 1 1 0 0.604-0.446 1.333-1 1.333h-6.002c-1.159 0.007-1.978-0.136-2.764-0.905-0.731-0.716-1.734-1.095-2.9-1.095h-1.726c-0.178-0.971-0.722-4.491-0.005-8h0.73c1.594 0 2.826-0.964 3.562-1.757 0.242-0.228 2.374-2.237 2.712-2.719 0.599-0.864 0.704-2.778 0.722-3.367 0.126-0.097 0.243-0.15 0.337-0.157 0.66 0 1.333 0.673 1.333 1.333v1c0 0.386-0.104 0.898-0.319 1.571l-0.929 3.096h-1.755v0.667h8.336c0.579 0 1 0.421 1 1s-0.421 1-1 1h-0.794v0.667c0.644 0 1.46 0.471 1.46 1 0 0.554-0.729 1-1.333 1z"/>
</svg>
