<svg version="1.1" xmlns="http://www.w3.org/2000/svg" width="32" height="32" viewBox="0 0 32 32">
    <path fill="currentColor" d="M28.171 15.714l-1.652-0.991c-0.647-0.435-0.892-1.049-1.221-1.872l-0.661-1.321c-0.447-0.997-1.128-1.526-1.971-1.53h-4.029c-0.113-0.694-0.564-1.333-1.305-1.333h-13.667c-0.273 0-0.508 0.099-0.681 0.286-0.263 0.286-0.37 0.759-0.318 1.408 0.171 2.11 0.364 6.507 0.001 9.601-0.042 0.352-0.055 0.793 0.212 1.088 0.176 0.195 0.441 0.298 0.786 0.285h2.323v-0.333c0-1.72 0.951-2.667 2.677-2.667 1.663 0 2.656 0.997 2.656 2.667v0.333l9.344 0.005v-0.334c0-1.722 0.947-2.671 2.667-2.671 0.848 0 1.533 0.238 1.982 0.689 0.452 0.454 0.681 1.121 0.678 1.981l-0.001 0.335 2.354-0.005c0.633 0 1.307-0.346 1.32-1v-1.66c0.027-1.261-0.486-2.281-1.495-2.96zM18 20.67l-6.022-0.003c-0.131-1.86-1.374-3-3.311-3-1.98 0-3.205 1.114-3.333 3h-1.673c-0.135 0.011-0.245-0.021-0.286-0.065-0.036-0.040-0.090-0.167-0.044-0.563 0.369-3.145 0.174-7.598 0.001-9.732-0.035-0.43 0.020-0.767 0.144-0.902 0.031-0.033 0.080-0.071 0.191-0.071h13.667c0.428 0 0.663 0.517 0.667 1v10.337zM24.699 13.144c0.166 0.416 0.328 0.819 0.557 1.19h-4.922v-2h3.96l0.405 0.81zM29 20.326c-0.004 0.196-0.346 0.34-0.658 0.34h-0.009l-1.682 0.004c-0.055-0.887-0.344-1.599-0.863-2.119-0.577-0.579-1.426-0.885-2.454-0.885-1.974 0-3.195 1.116-3.322 3.004l-1.344-0.001v-10.004h3.999c0.526 0.002 0.954 0.345 1.287 1h-4.286v3.333h6.138c0.109 0.1 0.224 0.196 0.358 0.286l1.652 0.991c0.798 0.536 1.208 1.361 1.186 2.39v1.66zM8.656 19.004c-1.103 0-2 0.897-2 2s0.897 2 2 2 2-0.897 2-2-0.897-2-2-2zM8.656 22.338c-0.735 0-1.333-0.598-1.333-1.333s0.598-1.333 1.333-1.333 1.333 0.598 1.333 1.333-0.598 1.333-1.333 1.333zM23.327 19.004c-1.103 0-2 0.897-2 2s0.897 2 2 2 2-0.897 2-2-0.897-2-2-2zM23.327 22.338c-0.735 0-1.333-0.598-1.333-1.333s0.598-1.333 1.333-1.333 1.333 0.598 1.333 1.333-0.598 1.333-1.333 1.333z"/>
</svg>
