<svg version="1.1" xmlns="http://www.w3.org/2000/svg" width="32" height="32" viewBox="0 0 32 32">
    <path fill="currentColor" d="M28.831 13.273c-0.319-0.271-0.743-0.391-1.16-0.32-0.678 0.11-1.189 0.74-1.189 1.465v0.094h-1.845c-0.268 0-0.497-0.177-0.557-0.43-0.204-0.863-0.544-1.684-1.010-2.439-0.137-0.223-0.101-0.51 0.088-0.7l1.305-1.305 0.066 0.066c0.512 0.512 1.318 0.596 1.877 0.195 0.344-0.247 0.561-0.63 0.594-1.047s-0.117-0.827-0.413-1.124l-2.276-2.276c-0.514-0.514-1.321-0.596-1.876-0.195-0.344 0.247-0.561 0.629-0.594 1.047s0.117 0.827 0.413 1.124l0.107 0.107-1.305 1.305c-0.189 0.189-0.477 0.227-0.7 0.088-0.754-0.465-1.575-0.805-2.44-1.010-0.253-0.060-0.43-0.289-0.43-0.557v-1.846h0.094c0.725 0 1.354-0.511 1.465-1.189 0.068-0.418-0.049-0.841-0.32-1.16s-0.667-0.503-1.086-0.503h-3.219c-0.725 0-1.354 0.511-1.465 1.189-0.068 0.418 0.049 0.841 0.32 1.16s0.667 0.503 1.086 0.503h0.152v1.846c0 0.268-0.177 0.497-0.43 0.557-0.865 0.204-1.685 0.544-2.439 1.010-0.223 0.139-0.51 0.102-0.7-0.088l-1.305-1.305 0.066-0.066c0.512-0.512 0.596-1.319 0.195-1.876-0.248-0.344-0.63-0.561-1.047-0.594-0.417-0.029-0.827 0.117-1.123 0.413l-2.276 2.275c-0.513 0.512-0.597 1.319-0.196 1.877 0.248 0.344 0.629 0.561 1.047 0.594 0.42 0.027 0.827-0.117 1.124-0.413l0.107-0.107 1.305 1.305c0.189 0.189 0.226 0.477 0.088 0.7-0.466 0.755-0.806 1.576-1.010 2.439-0.060 0.253-0.288 0.43-0.557 0.43h-1.845v-0.094c0-0.725-0.511-1.355-1.189-1.465-0.417-0.070-0.841 0.048-1.16 0.32s-0.502 0.668-0.502 1.087v3.219c0 0.725 0.511 1.355 1.189 1.465 0.417 0.070 0.841-0.048 1.16-0.32s0.502-0.668 0.502-1.087v-0.152h1.845c0.268 0 0.497 0.177 0.557 0.43 0.204 0.863 0.544 1.684 1.010 2.439 0.137 0.223 0.101 0.51-0.088 0.7l-1.305 1.305-0.066-0.066c-0.513-0.513-1.32-0.597-1.876-0.195-0.344 0.248-0.56 0.629-0.594 1.047s0.117 0.827 0.413 1.124l2.276 2.276c0.513 0.513 1.319 0.596 1.877 0.195 0.344-0.248 0.56-0.629 0.594-1.046s-0.117-0.828-0.413-1.124l-0.108-0.107 1.305-1.305c0.19-0.189 0.478-0.226 0.7-0.088 0.756 0.467 1.577 0.807 2.44 1.010 0.249 0.059 0.43 0.293 0.43 0.557v1.845h-0.094c-0.725 0-1.354 0.511-1.465 1.189-0.068 0.419 0.049 0.841 0.32 1.16s0.667 0.503 1.086 0.503h3.219c0.725 0 1.355-0.511 1.465-1.189 0.068-0.418-0.049-0.841-0.32-1.16s-0.667-0.503-1.086-0.503h-0.152v-1.845c0-0.264 0.181-0.498 0.43-0.557 0.863-0.203 1.684-0.543 2.44-1.010 0.223-0.138 0.51-0.102 0.7 0.088l1.305 1.305-0.066 0.066c-0.513 0.512-0.597 1.319-0.196 1.876 0.248 0.344 0.629 0.561 1.047 0.594 0.42 0.027 0.827-0.117 1.124-0.413l2.276-2.276c0.512-0.512 0.596-1.319 0.195-1.876-0.248-0.344-0.63-0.561-1.047-0.594-0.417-0.029-0.827 0.117-1.123 0.413l-0.108 0.107-1.305-1.305c-0.189-0.189-0.226-0.477-0.088-0.7 0.466-0.755 0.806-1.576 1.010-2.439 0.060-0.253 0.288-0.43 0.557-0.43h1.845v0.094c0 0.725 0.511 1.355 1.189 1.465 0.417 0.069 0.84-0.048 1.16-0.32s0.503-0.668 0.503-1.087v-3.277c0-0.419-0.183-0.815-0.503-1.087zM28.667 17.637c0 0.223-0.098 0.434-0.268 0.579-0.173 0.147-0.394 0.206-0.621 0.17-0.359-0.059-0.629-0.406-0.629-0.807v-0.76h-2.512c-0.579 0-1.075 0.388-1.206 0.943-0.187 0.794-0.5 1.548-0.928 2.243-0.301 0.487-0.225 1.113 0.184 1.521l1.776 1.776 0.579-0.579c0.158-0.158 0.379-0.232 0.598-0.22 0.226 0.018 0.424 0.132 0.56 0.319 0.212 0.295 0.158 0.732-0.126 1.016l-2.276 2.276c-0.158 0.158-0.376 0.236-0.599 0.22-0.226-0.018-0.424-0.132-0.56-0.319-0.213-0.295-0.158-0.732 0.126-1.016l0.537-0.538-1.776-1.777c-0.409-0.409-1.035-0.484-1.521-0.184-0.695 0.43-1.45 0.742-2.243 0.929-0.555 0.131-0.943 0.627-0.943 1.206v2.512h0.819c0.223 0 0.434 0.098 0.578 0.268 0.147 0.173 0.207 0.393 0.17 0.622-0.058 0.359-0.405 0.629-0.807 0.629h-3.219c-0.223 0-0.434-0.098-0.578-0.268-0.147-0.173-0.207-0.393-0.17-0.622 0.058-0.359 0.405-0.629 0.807-0.629h0.76v-2.512c0-0.579-0.388-1.075-0.943-1.206-0.793-0.187-1.548-0.499-2.243-0.929-0.487-0.299-1.112-0.225-1.521 0.184l-1.776 1.777 0.579 0.579c0.158 0.158 0.238 0.376 0.22 0.599-0.018 0.225-0.132 0.424-0.319 0.559-0.295 0.213-0.731 0.158-1.016-0.126l-2.276-2.276c-0.158-0.158-0.238-0.376-0.22-0.599 0.018-0.225 0.132-0.424 0.319-0.559 0.294-0.213 0.731-0.158 1.015 0.126l0.538 0.538 1.777-1.776c0.409-0.41 0.484-1.035 0.184-1.521-0.429-0.694-0.741-1.449-0.928-2.243-0.131-0.555-0.627-0.943-1.206-0.943h-2.512v0.819c0 0.223-0.098 0.434-0.268 0.579-0.172 0.147-0.392 0.208-0.622 0.17-0.358-0.059-0.629-0.406-0.629-0.807v-3.219c0-0.223 0.098-0.434 0.268-0.579 0.173-0.146 0.394-0.206 0.622-0.17 0.358 0.059 0.629 0.406 0.629 0.807v0.76h2.512c0.579 0 1.075-0.388 1.206-0.943 0.187-0.794 0.5-1.548 0.928-2.242 0.3-0.487 0.225-1.112-0.184-1.521l-1.777-1.777-0.579 0.579c-0.158 0.158-0.377 0.235-0.599 0.22-0.226-0.018-0.424-0.132-0.559-0.319-0.213-0.296-0.158-0.732 0.126-1.016l2.276-2.275c0.158-0.158 0.378-0.232 0.598-0.22 0.226 0.018 0.424 0.132 0.56 0.319 0.212 0.295 0.158 0.732-0.126 1.016l-0.538 0.538 1.776 1.777c0.409 0.409 1.035 0.483 1.521 0.184 0.693-0.428 1.448-0.741 2.243-0.929 0.555-0.131 0.943-0.626 0.943-1.205v-2.512h-0.819c-0.223 0-0.434-0.098-0.578-0.268-0.147-0.173-0.207-0.393-0.17-0.622 0.058-0.359 0.405-0.629 0.807-0.629h3.219c0.223 0 0.434 0.098 0.578 0.268 0.147 0.173 0.207 0.393 0.17 0.622-0.058 0.359-0.405 0.629-0.807 0.629h-0.761v2.512c0 0.579 0.388 1.074 0.943 1.205 0.795 0.188 1.549 0.501 2.243 0.929 0.487 0.298 1.112 0.224 1.521-0.184l1.776-1.777-0.579-0.579c-0.158-0.158-0.238-0.376-0.22-0.599 0.018-0.225 0.132-0.424 0.32-0.559 0.295-0.213 0.731-0.158 1.015 0.126l2.276 2.276c0.158 0.158 0.238 0.376 0.22 0.598-0.018 0.226-0.132 0.425-0.319 0.56-0.294 0.213-0.731 0.158-1.016-0.126l-0.537-0.538-1.777 1.777c-0.409 0.41-0.484 1.035-0.184 1.521 0.429 0.694 0.741 1.449 0.928 2.242 0.131 0.555 0.627 0.943 1.206 0.943h2.512v-0.76c0-0.402 0.271-0.749 0.629-0.807 0.227-0.037 0.449 0.023 0.621 0.17 0.17 0.145 0.268 0.355 0.268 0.579v3.277zM17 14c0-1.838-1.495-3.333-3.333-3.333s-3.333 1.495-3.333 3.333 1.495 3.333 3.333 3.333 3.333-1.495 3.333-3.333zM13.667 16.667c-1.47 0-2.667-1.196-2.667-2.667s1.196-2.667 2.667-2.667 2.667 1.196 2.667 2.667-1.196 2.667-2.667 2.667zM15.667 18c-0.919 0-1.667 0.747-1.667 1.667s0.748 1.667 1.667 1.667 1.667-0.747 1.667-1.667-0.748-1.667-1.667-1.667zM15.667 20.667c-0.551 0-1-0.449-1-1s0.449-1 1-1 1 0.449 1 1-0.449 1-1 1zM19.667 14.667c-1.286 0-2.333 1.047-2.333 2.333s1.047 2.333 2.333 2.333 2.333-1.047 2.333-2.333-1.047-2.333-2.333-2.333zM19.667 18.667c-0.919 0-1.667-0.747-1.667-1.667s0.748-1.667 1.667-1.667 1.667 0.747 1.667 1.667-0.748 1.667-1.667 1.667z"/>
</svg>
