<svg version="1.1" xmlns="http://www.w3.org/2000/svg" width="32" height="32" viewBox="0 0 32 32">
    <path fill="currentColor" d="M22.653 11.366v-3.733c-0.001-0.894-0.725-1.618-1.619-1.619h-0.38c-0.022-1.146-0.267-2.228-0.691-3.215l0.021 0.056-0.091-0.187h-10.453l-0.091 0.187c-0.403 0.931-0.648 2.014-0.67 3.151l-0 0.008h-0.379c-0.894 0.001-1.618 0.725-1.619 1.619v16.735c0.001 0.894 0.725 1.618 1.619 1.619h0.38c0.022 1.146 0.267 2.228 0.691 3.215l-0.021-0.056 0.091 0.187h10.453l0.091-0.187c0.403-0.931 0.648-2.014 0.67-3.151l0-0.009h0.379c0.894-0.001 1.618-0.726 1.619-1.619v-3.733c1.51-0.164 2.675-1.429 2.68-2.967v-3.334c-0.005-1.539-1.17-2.804-2.667-2.966l-0.013-0.001zM9.869 3.333h9.596c0.306 0.793 0.497 1.71 0.525 2.668l0 0.012h-10.647c0.030-0.97 0.221-1.887 0.545-2.738l-0.019 0.058zM19.464 28.667h-9.596c-0.306-0.793-0.496-1.71-0.525-2.668l-0-0.012h10.647c-0.030 0.97-0.221 1.887-0.545 2.738l0.019-0.058zM22.014 24.367c-0 0.541-0.439 0.98-0.98 0.98h-12.734c-0.541-0-0.98-0.439-0.98-0.98v-16.734c0-0.541 0.439-0.98 0.98-0.98h12.734c0.541 0 0.98 0.439 0.98 0.98v0zM24.667 17.667c-0.004 1.172-0.872 2.14-2.001 2.3l-0.012 0.001v-7.935c1.141 0.161 2.010 1.129 2.013 2.301v0zM13.236 10.569l-4 4-0.471-0.471 4-4zM15.431 9.431l0.471 0.471-2.667 2.667-0.471-0.471z"/>
</svg>
