<svg version="1.1" xmlns="http://www.w3.org/2000/svg" width="32" height="32" viewBox="0 0 32 32">
    <path fill="currentColor" d="M16 11.328c3.556 0 6.902 1.389 9.424 3.911l-0.471 0.47c-2.396-2.396-5.575-3.716-8.953-3.716s-6.56 1.321-8.955 3.718l-0.471-0.47c2.521-2.524 5.869-3.914 9.426-3.914zM16 5.994c-4.979 0-9.665 1.945-13.195 5.478l0.471 0.47c3.404-3.406 7.923-5.282 12.724-5.282s9.319 1.875 12.723 5.28l0.47-0.47c-3.529-3.531-8.215-5.475-13.193-5.475zM11.286 19.953l0.471 0.47c1.135-1.137 2.642-1.763 4.243-1.763s3.106 0.625 4.241 1.761l0.471-0.47c-1.26-1.261-2.934-1.956-4.712-1.956-1.779 0-3.453 0.696-4.714 1.959zM16 23.333c-0.736 0-1.333 0.597-1.333 1.333s0.597 1.333 1.333 1.333 1.333-0.597 1.333-1.333-0.597-1.333-1.333-1.333z"/>
</svg>
