<svg version="1.1" xmlns="http://www.w3.org/2000/svg" width="32" height="32" viewBox="0 0 32 32">
    <path fill="currentColor" d="M28 29.333h-0.667c0-6.355-4.979-11.333-11.333-11.333s-11.333 4.979-11.333 11.333h-0.667c0-6.729 5.271-12 12-12s12 5.271 12 12zM7.215 13.645l-0.68-0.258 0.639-0.347c2.064-1.12 2.526-5.038 2.531-5.077l0.003 0c0.351-3.162 3.038-5.63 6.292-5.63s5.94 2.468 6.292 5.63l0.003-0c0.005 0.040 0.467 3.958 2.531 5.077l0.639 0.347-0.68 0.258c-0.065 0.024-1.032 0.382-2.311 0.382-0.74 0-1.583-0.132-2.417-0.504-1.1 0.921-2.515 1.477-4.058 1.477s-2.958-0.556-4.058-1.477c-0.833 0.373-1.677 0.504-2.417 0.504-1.279 0-2.245-0.358-2.311-0.382zM16 14.333c3.124 0 5.667-2.542 5.667-5.667 0-0.351-0.037-0.694-0.098-1.028-1.476-0.151-2.878-0.608-3.864-0.974-2.036 1.27-4.13 1.889-6.398 1.889-0.308 0-0.639-0.017-0.965-0.041-0.001 0.052-0.008 0.102-0.008 0.154 0 3.124 2.542 5.667 5.667 5.667zM22.129 10.233c-0.272 1.064-0.811 2.019-1.546 2.792 1.27 0.478 2.561 0.338 3.312 0.176-0.88-0.759-1.428-1.931-1.767-2.967zM10.399 7.849c0.307 0.022 0.618 0.038 0.907 0.038 2.189 0 4.211-0.613 6.18-1.873l0.141-0.090 0.157 0.059c0.904 0.341 2.222 0.793 3.615 0.967-0.729-2.287-2.873-3.95-5.399-3.95-2.846 0-5.202 2.112-5.601 4.849zM8.104 13.2c0.751 0.162 2.042 0.302 3.312-0.176-0.734-0.772-1.273-1.728-1.545-2.792-0.338 1.037-0.887 2.208-1.767 2.967z"/>
</svg>
