<svg version="1.1" xmlns="http://www.w3.org/2000/svg" width="32" height="32" viewBox="0 0 32 32">
<path fill="currentColor" d="M27.5 5.75h-5.25v-2c0-0.138-0.113-0.25-0.25-0.25h-1.75c-0.137 0-0.25 0.112-0.25 0.25v2h-8v-2c0-0.138-0.113-0.25-0.25-0.25h-1.75c-0.137 0-0.25 0.112-0.25 0.25v2h-5.25c-0.553 0-1 0.447-1 1v20.75c0 0.553 0.447 1 1 1h23c0.553 0 1-0.447 1-1v-20.75c0-0.553-0.447-1-1-1zM20.259 13.338l-2.741 5.034h1.428c0.172 0 0.313 0.141 0.313 0.313v0.666c0 0.172-0.141 0.313-0.313 0.313h-1.981v0.928h1.981c0.172 0 0.313 0.141 0.313 0.313v0.666c0 0.172-0.141 0.313-0.313 0.313h-1.981v1.619c0 0.172-0.141 0.313-0.313 0.313h-1.291c-0.172 0-0.313-0.141-0.313-0.313v-1.619h-1.972c-0.172 0-0.313-0.141-0.313-0.313v-0.666c0-0.172 0.141-0.313 0.313-0.313h1.972v-0.928h-1.972c-0.172 0-0.313-0.141-0.313-0.313v-0.666c0-0.172 0.141-0.313 0.313-0.313h1.412l-2.75-5.034c-0.081-0.15-0.028-0.341 0.125-0.425 0.047-0.025 0.097-0.037 0.15-0.037h1.438c0.119 0 0.225 0.066 0.278 0.172l2.278 4.509 2.288-4.509c0.052-0.102 0.157-0.171 0.278-0.172h1.406c0.172 0 0.313 0.141 0.313 0.313 0.003 0.053-0.009 0.103-0.034 0.15z"/>
</svg>
