<svg version="1.1" xmlns="http://www.w3.org/2000/svg" width="32" height="32" viewBox="0 0 32 32">
<path fill="currentColor" d="M16 7.625c5.506 0 9.969 4.463 9.969 9.969v7.281c0 0.552-0.448 1-1 1v0h-17.938c-0.552 0-1-0.448-1-1v0-7.281c0-5.506 4.463-9.969 9.969-9.969zM15.125 2.125h1.75c0.138 0 0.25 0.112 0.25 0.25v0 3c0 0.138-0.112 0.25-0.25 0.25v0h-1.75c-0.138 0-0.25-0.112-0.25-0.25v0-3c0-0.138 0.112-0.25 0.25-0.25v0zM5.539 5.989c0.045-0.045 0.108-0.073 0.177-0.073s0.132 0.028 0.177 0.073v0l2.121 2.121c0.045 0.045 0.073 0.108 0.073 0.177s-0.028 0.131-0.073 0.177l-1.237 1.238c-0.045 0.045-0.108 0.073-0.177 0.073s-0.131-0.028-0.177-0.073l-2.121-2.121c-0.045-0.045-0.073-0.108-0.073-0.177s0.028-0.131 0.073-0.177l1.237-1.237zM26.464 5.989l1.238 1.237c0.045 0.045 0.073 0.108 0.073 0.177s-0.028 0.131-0.073 0.177v0l-2.121 2.122c-0.045 0.045-0.108 0.073-0.177 0.073s-0.132-0.028-0.177-0.073v0l-1.238-1.238c-0.045-0.045-0.073-0.108-0.073-0.177s0.028-0.132 0.073-0.177v0l2.122-2.121c0.045-0.045 0.108-0.073 0.177-0.073s0.131 0.028 0.177 0.073v0zM6 27.875h20c0.552 0 1 0.448 1 1v0 0.75c0 0.138-0.112 0.25-0.25 0.25v0h-21.5c-0.138 0-0.25-0.112-0.25-0.25v0-0.75c0-0.552 0.448-1 1-1v0zM10.625 17.969v7.906h2v-7.906h-2z"/>
</svg>
