<svg version="1.1" xmlns="http://www.w3.org/2000/svg" width="32" height="32" viewBox="0 0 32 32">
<path fill="currentColor" d="M27.956 3.642c0.173 0.093 0.309 0.228 0.402 0.402s0.142 0.345 0.142 0.819v22.276c0 0.474-0.049 0.645-0.142 0.819s-0.229 0.309-0.402 0.402-0.345 0.142-0.819 0.142h-22.276c-0.474 0-0.645-0.049-0.819-0.142s-0.309-0.229-0.402-0.402c-0.091-0.171-0.141-0.34-0.142-0.799l-0-22.295c0-0.474 0.049-0.645 0.142-0.819s0.228-0.309 0.402-0.402c0.171-0.091 0.34-0.141 0.799-0.142l22.295-0c0.474 0 0.645 0.049 0.819 0.142zM16.907 8.188c-1.944 0-2.401 0.47-2.419 1.090l-0.001 0.040v1.301h-4.64c-0.277 0-0.398 0.643-0.398 1.097 0 0.075 0.058 0.137 0.133 0.137h4.906v1.627h-3.251c-0.278 0-0.399 0.663-0.398 1.101 0 0.073 0.060 0.133 0.133 0.133l6.514 0c-0.126 1.146-0.431 2.165-0.857 3.050l-0.034 0.070-0.009-0.008c-1.681-0.794-3.36-1.467-5.424-1.467l-0.073 0c-2.371 0.031-4.038 1.577-4.071 3.545l-0 0.034 0.001 0.059c0.035 1.964 1.774 3.528 4.144 3.528 1.709-0 3.247-0.47 4.561-1.256 0.155-0.077 0.284-0.15 0.407-0.231l-0.015 0.009c0.505-0.338 0.974-0.724 1.404-1.148l0.264 0.177 0.348 0.232c1.605 1.067 3.174 2.026 4.739 2.212 0.152 0.021 0.328 0.032 0.506 0.032 0.002 0 0.003 0 0.005 0h-0c1.2 0 1.534-1.47 1.601-2.665l0.004-0.079c0.011-0.236-0.173-0.435-0.409-0.443-2.106-0.066-3.807-0.615-5.357-1.287l-0.175-0.076c0.981-1.585 1.581-3.399 1.595-5.208l0.002-0.030c0.011-0.154-0.112-0.285-0.266-0.285h-3.333v-1.627h4.624c0.277 0 0.398-0.617 0.398-1.097-0-0.075-0.058-0.137-0.133-0.137h-4.889v-2.298c0-0.074-0.061-0.133-0.135-0.133zM10.866 18.005c1.524 0 2.988 0.625 4.411 1.456l0.161 0.095c-2.89 3.344-6.897 2.676-7.303 0.736-0.016-0.080-0.028-0.174-0.032-0.27l-0-0.004-0.002-0.065 0-0.025c0.027-1.119 1.265-1.922 2.764-1.922z"/>
</svg>
