<svg version="1.1" xmlns="http://www.w3.org/2000/svg" width="32" height="32" viewBox="0 0 32 32">
<path fill="currentColor" d="M27.131 11.794c-0.591-1.409-1.447-2.675-2.538-3.769-1.052-1.054-2.302-1.911-3.689-2.508l-0.077-0.029c-1.352-0.589-2.927-0.931-4.582-0.931-0.010 0-0.019 0-0.029 0h0.002c-1.309 0-2.591 0.209-3.809 0.625-2.847-1.328-6.134-1.431-7.078-1.431-0.069 0-0.231 0-0.294 0.006-0.372 0.013-0.713 0.203-0.912 0.513-0.203 0.309-0.241 0.7-0.106 1.047l2.009 5.050c-1.037 1.723-1.65 3.803-1.65 6.027 0 0.004 0 0.008 0 0.012v-0.001c0 1.606 0.313 3.156 0.931 4.613 0.591 1.406 1.444 2.675 2.537 3.766 1.084 1.087 2.356 1.941 3.766 2.538 1.459 0.619 3.009 0.931 4.606 0.931 1.603 0 3.153-0.313 4.616-0.931 1.403-0.591 2.672-1.447 3.762-2.538 1.084-1.087 1.941-2.356 2.538-3.769 0.589-1.354 0.931-2.931 0.931-4.588 0-0.009 0-0.017-0-0.026v0.001c-0.006-1.6-0.316-3.15-0.934-4.606zM16.969 14.262c0 0.637-0.519 1.159-1.159 1.159-0.637 0-1.159-0.522-1.159-1.159v-1.722c0-0.637 0.519-1.159 1.159-1.159 0.637 0 1.159 0.519 1.159 1.159v1.722zM22.444 14.262c0 0.637-0.519 1.159-1.159 1.159s-1.159-0.522-1.159-1.159v-1.722c0-0.637 0.522-1.159 1.159-1.159s1.159 0.519 1.159 1.159v1.722z"/>
</svg>
