<svg version="1.1" xmlns="http://www.w3.org/2000/svg" width="32" height="32" viewBox="0 0 32 32">
<path fill="currentColor" d="M27.5 3.5h-23c-0.553 0-1 0.447-1 1v23c0 0.553 0.447 1 1 1h23c0.553 0 1-0.447 1-1v-23c0-0.553-0.447-1-1-1zM17.119 10.209c-0.225-0.341-0.628-0.512-1.209-0.512-0.041 0-0.094 0.003-0.166 0.009-0.069 0.006-0.206 0.047-0.403 0.116-0.214 0.077-0.398 0.173-0.568 0.29l0.008-0.005c-0.172 0.119-0.359 0.313-0.563 0.575-0.2 0.266-0.359 0.575-0.478 0.931l-2.938-0.262c0-0.387 0.075-0.772 0.219-1.153s0.369-0.747 0.669-1.094c0.3-0.35 0.659-0.656 1.078-0.919 0.419-0.266 0.925-0.475 1.512-0.634 0.591-0.159 1.222-0.237 1.903-0.237 0.666 0 1.269 0.081 1.806 0.241 0.538 0.162 0.972 0.359 1.294 0.597 0.313 0.227 0.58 0.493 0.802 0.793l0.007 0.010c0.216 0.3 0.366 0.578 0.45 0.834s0.125 0.491 0.125 0.713v5.703c0 0.2 0.044 0.406 0.134 0.619s0.197 0.4 0.319 0.563c0.122 0.163 0.247 0.309 0.375 0.447 0.128 0.134 0.238 0.241 0.331 0.309l0.128 0.106-2.266 2.169c-0.266-0.241-0.528-0.481-0.788-0.731s-0.453-0.438-0.578-0.566l-0.191-0.194c-0.075-0.072-0.156-0.178-0.25-0.319-0.253 0.381-0.578 0.712-0.972 0.994-0.397 0.281-0.822 0.488-1.272 0.616-0.453 0.128-0.919 0.203-1.397 0.222s-0.938-0.047-1.372-0.203c-0.434-0.156-0.828-0.366-1.175-0.634s-0.622-0.631-0.828-1.094c-0.206-0.462-0.309-0.984-0.309-1.575 0-0.544 0.094-1.041 0.278-1.491 0.188-0.453 0.425-0.828 0.719-1.128s0.647-0.569 1.063-0.803 0.825-0.419 1.225-0.553c0.4-0.131 0.831-0.244 1.297-0.334s0.862-0.15 1.194-0.178c0.331-0.028 0.663-0.050 0.994-0.063v-1.231c0-0.422-0.072-0.734-0.209-0.941zM22.759 22.072c-0.087 0.103-0.234 0.244-0.441 0.422s-0.525 0.397-0.953 0.659c-0.428 0.262-0.9 0.5-1.406 0.716-0.509 0.216-1.134 0.403-1.878 0.563-0.741 0.159-1.506 0.238-2.291 0.238-0.794 0-1.584-0.1-2.378-0.3s-1.488-0.447-2.088-0.741c-0.597-0.294-1.175-0.631-1.722-1.006-0.55-0.378-0.991-0.716-1.325-1.016-0.331-0.3-0.612-0.584-0.838-0.847-0.053-0.059-0.088-0.113-0.1-0.159s-0.009-0.087 0.009-0.116c0.019-0.028 0.047-0.050 0.081-0.069 0.028-0.013 0.060-0.020 0.094-0.020 0.052 0 0.099 0.017 0.138 0.045l-0.001-0c1.278 0.756 2.278 1.291 2.997 1.606 2.591 1.137 5.25 1.428 7.978 0.872 1.266-0.259 2.566-0.694 3.903-1.306 0.1-0.038 0.188-0.047 0.259-0.028s0.109 0.075 0.109 0.169c0 0.087-0.050 0.197-0.15 0.319zM24.631 21.166c-0.056 0.347-0.153 0.675-0.284 0.994-0.225 0.534-0.509 0.938-0.847 1.2-0.113 0.091-0.2 0.119-0.259 0.087s-0.059-0.109 0-0.231c0.141-0.291 0.288-0.681 0.444-1.178 0.156-0.494 0.178-0.813 0.066-0.953-0.034-0.047-0.084-0.081-0.156-0.113-0.069-0.028-0.159-0.047-0.269-0.059s-0.209-0.019-0.294-0.025c-0.087-0.006-0.203-0.006-0.35 0s-0.25 0.012-0.316 0.019c-0.069 0.009-0.253 0.026-0.438 0.041l-0.096 0.006c-0.041 0.006-0.084 0.012-0.128 0.016-0.047 0.003-0.084 0.006-0.109 0.009l-0.084 0.009c-0.031 0.003-0.053 0.006-0.069 0.006h-0.1l-0.031-0.006-0.019-0.016-0.016-0.028c-0.041-0.103 0.116-0.231 0.469-0.387s0.697-0.253 1.028-0.291c0.306-0.047 0.666-0.047 1.078-0.009s0.666 0.116 0.759 0.231c0.072 0.109 0.078 0.334 0.022 0.678zM15.156 14.609c-0.363 0.153-0.653 0.381-0.869 0.688s-0.325 0.675-0.325 1.109c0 0.556 0.234 0.984 0.7 1.288 0.441 0.284 0.903 0.356 1.388 0.212 0.559-0.163 0.938-0.559 1.137-1.191 0.094-0.291 0.141-0.616 0.141-0.978v-1.569c-0.394 0.012-0.762 0.050-1.109 0.116s-0.7 0.175-1.063 0.325z"/>
</svg>
