<svg version="1.1" xmlns="http://www.w3.org/2000/svg" width="32" height="32" viewBox="0 0 32 32">
<path fill="currentColor" d="M8.441 23.178c0 0.731 0.597 1.328 1.331 1.328h1.522v3.762c0 0.953 0.766 1.731 1.706 1.731 0.944 0 1.706-0.775 1.706-1.731v-3.766h2.656v3.762c0 0.953 0.766 1.731 1.706 1.731 0.944 0 1.706-0.775 1.706-1.731v-3.762h1.522c0.734 0 1.331-0.597 1.331-1.328v-12.35h-15.188v12.353zM19.6 4.425l1.403-2.031c0.081-0.119 0.063-0.278-0.047-0.356-0.109-0.075-0.266-0.038-0.347 0.081l-1.456 2.112c-0.959-0.378-2.028-0.587-3.15-0.587s-2.191 0.209-3.15 0.587l-1.456-2.109c-0.081-0.119-0.238-0.159-0.347-0.081-0.109 0.075-0.128 0.231-0.047 0.356l1.403 2.031c-2.231 1.037-3.794 3.003-3.994 5.3h15.188c-0.206-2.3-1.772-4.266-4-5.303zM12.797 7.628c-0.464 0-0.841-0.376-0.841-0.841s0.376-0.841 0.841-0.841c0.464 0 0.841 0.376 0.841 0.841v0c-0.001 0.464-0.377 0.839-0.841 0.841h-0zM19.309 7.628c-0.464 0-0.841-0.376-0.841-0.841s0.376-0.841 0.841-0.841c0.464 0 0.841 0.376 0.841 0.841v0c-0.001 0.464-0.377 0.839-0.84 0.841h-0zM26.291 10.775c-0.944 0-1.706 0.775-1.706 1.731v6.763c0 0.953 0.766 1.731 1.706 1.731 0.944 0 1.706-0.775 1.706-1.731v-6.766c0.003-0.956-0.759-1.728-1.706-1.728zM5.709 10.775c-0.944 0-1.706 0.775-1.706 1.731v6.763c0 0.953 0.766 1.731 1.706 1.731 0.944 0 1.706-0.775 1.706-1.731v-6.766c0-0.956-0.766-1.728-1.706-1.728z"/>
</svg>
