<svg version="1.1" xmlns="http://www.w3.org/2000/svg" width="32" height="32" viewBox="0 0 32 32">
<path fill="currentColor" d="M23.356 16.741c-0.012-2.131 0.953-3.738 2.903-4.922-1.091-1.563-2.741-2.422-4.916-2.588-2.059-0.162-4.313 1.2-5.137 1.2-0.872 0-2.866-1.144-4.434-1.144-3.238 0.050-6.678 2.581-6.678 7.731 0 1.522 0.278 3.094 0.834 4.713 0.744 2.131 3.425 7.353 6.222 7.269 1.463-0.034 2.497-1.038 4.4-1.038 1.847 0 2.803 1.038 4.434 1.038 2.822-0.041 5.247-4.787 5.953-6.925-3.784-1.784-3.581-5.225-3.581-5.334zM20.072 7.209c1.584-1.881 1.441-3.594 1.394-4.209-1.4 0.081-3.019 0.953-3.941 2.025-1.016 1.15-1.613 2.572-1.484 4.175 1.512 0.116 2.894-0.662 4.031-1.991z"/>
</svg>
