<svg version="1.1" xmlns="http://www.w3.org/2000/svg" width="32" height="32" viewBox="0 0 32 32">
<path fill="currentColor" d="M27.938 14.438c0.966 0 1.369-1.241 0.584-1.813l-11.934-8.681c-0.162-0.12-0.366-0.192-0.587-0.192s-0.425 0.072-0.59 0.194l0.003-0.002-11.934 8.681c-0.784 0.569-0.381 1.813 0.588 1.813h1.934v11.688h-2.25c-0.138 0-0.25 0.113-0.25 0.25v1.625c0 0.137 0.112 0.25 0.25 0.25h24.5c0.137 0 0.25-0.113 0.25-0.25v-1.625c0-0.137-0.113-0.25-0.25-0.25h-2.25v-11.688h1.938zM11.906 26.125h-3.656v-11.688h3.656v11.688zM17.813 26.125h-3.656v-11.688h3.656v11.688zM23.75 26.125h-3.688v-11.688h3.688v11.688z"/>
</svg>
