<svg version="1.1" xmlns="http://www.w3.org/2000/svg" width="32" height="32" viewBox="0 0 32 32">
<path fill="currentColor" d="M27.5 3.5h-23c-0.553 0-1 0.447-1 1v23c0 0.553 0.447 1 1 1h23c0.553 0 1-0.447 1-1v-23c0-0.553-0.447-1-1-1zM18.703 10.966h4.325v1.053h-4.325v-1.053zM16 19.65c-0.208 0.39-0.493 0.715-0.836 0.963l-0.008 0.006c-0.369 0.256-0.778 0.444-1.213 0.553-0.406 0.113-0.872 0.178-1.354 0.178-0.014 0-0.028-0-0.042-0h-5.173v-10.659h5.031c0.509 0 0.972 0.047 1.394 0.134 0.419 0.088 0.775 0.238 1.075 0.441 0.297 0.203 0.531 0.475 0.697 0.813 0.162 0.334 0.247 0.753 0.247 1.25 0 0.537-0.122 0.981-0.366 1.341-0.247 0.359-0.603 0.65-1.088 0.878 0.659 0.188 1.144 0.522 1.463 0.991 0.325 0.475 0.484 1.044 0.484 1.712 0 0.544-0.103 1.009-0.313 1.4zM24.712 18h-5.575c0 0.606 0.209 1.188 0.525 1.5 0.319 0.309 0.775 0.466 1.372 0.466 0.431 0 0.797-0.109 1.109-0.325 0.309-0.216 0.497-0.444 0.566-0.681h1.869c-0.3 0.928-0.756 1.591-1.375 1.991-0.613 0.4-1.363 0.6-2.234 0.6-0.609 0-1.156-0.1-1.647-0.291-0.472-0.184-0.897-0.466-1.247-0.828-0.334-0.36-0.601-0.788-0.776-1.261l-0.009-0.026c-0.191-0.528-0.284-1.084-0.278-1.644 0-0.578 0.097-1.116 0.284-1.616 0.359-0.972 1.106-1.75 2.059-2.153 0.509-0.213 1.056-0.319 1.609-0.313 0.656 0 1.225 0.125 1.719 0.381 0.484 0.253 0.888 0.598 1.2 1.016l0.007 0.009c0.316 0.428 0.538 0.916 0.678 1.466 0.134 0.541 0.181 1.109 0.144 1.709zM20.9 15.012c-0.337 0-0.622 0.059-0.841 0.175s-0.4 0.259-0.538 0.425c-0.126 0.153-0.224 0.335-0.282 0.533l-0.003 0.011c-0.050 0.166-0.084 0.334-0.097 0.506h3.453c-0.050-0.541-0.238-0.941-0.488-1.222-0.262-0.278-0.684-0.428-1.206-0.428zM13.134 14.697c0.272-0.197 0.403-0.522 0.403-0.969 0.009-0.213-0.034-0.422-0.128-0.613-0.084-0.153-0.209-0.281-0.363-0.372-0.149-0.092-0.324-0.158-0.511-0.187l-0.008-0.001c-0.2-0.037-0.403-0.056-0.603-0.053h-2.197v2.491h2.378c0.409 0.003 0.756-0.097 1.028-0.297zM13.503 16.947c-0.306-0.234-0.716-0.35-1.225-0.35h-2.556v2.938h2.506c0.234 0 0.45-0.022 0.659-0.066s0.397-0.119 0.556-0.225c0.159-0.103 0.287-0.244 0.384-0.425 0.094-0.181 0.141-0.413 0.141-0.691 0-0.553-0.156-0.944-0.466-1.181z"/>
</svg>
