<svg version="1.1" xmlns="http://www.w3.org/2000/svg" width="32" height="32" viewBox="0 0 32 32">
<path fill="currentColor" d="M9.692 18.639c-0.25-0.139-0.516-0.263-0.781-0.372-0.216-0.076-0.498-0.156-0.786-0.221l-0.057-0.011c-0.078-0.031-0.078 0.031-0.078 0.046 0 0.248 0.016 0.589 0.047 0.868 0.031 0.232 0.063 0.48 0.125 0.713 0 0.015 0 0.031 0.016 0.046 0.031 0.031 0.062 0.047 0.094 0.015 0.25-0.139 0.5-0.263 0.719-0.418 0.234-0.17 0.484-0.372 0.687-0.573 0.047-0.046 0-0.077 0.016-0.093zM19.815 18.267c-0.216-0.076-0.498-0.156-0.786-0.221l-0.057-0.011c-0.078-0.031-0.078 0.031-0.078 0.046 0 0.248 0.016 0.589 0.047 0.868 0.031 0.232 0.063 0.48 0.125 0.713 0 0.015 0 0.031 0.016 0.046 0.031 0.031 0.063 0.047 0.094 0.015 0.25-0.139 0.5-0.263 0.719-0.418 0.234-0.17 0.484-0.372 0.687-0.573 0.063-0.046 0.016-0.077 0.016-0.093-0.234-0.139-0.516-0.263-0.781-0.372z"/>
<path fill="currentColor" d="M23.172 3.5h-14.328c-2.953 0-5.344 2.391-5.344 5.359v14.313c0.016 2.938 2.406 5.328 5.344 5.328h14.312c2.953 0 5.344-2.391 5.344-5.328v-14.313c0.016-2.969-2.375-5.359-5.328-5.359zM26.14 14.234h0.484v1.5h-0.484zM23.156 14.188l0.063 1.344-0.422 0.047-0.156-1.391zM22.422 14.188l0.125 1.422-0.453 0.047-0.203-1.484h0.531zM15.219 14.234h0.469v1.5h-0.469zM12.219 14.188l0.063 1.344-0.422 0.047-0.156-1.391zM11.484 14.188l0.125 1.422-0.453 0.063-0.188-1.484zM11.375 18.844c-0.641 2.047-4.625 1.859-4.984 1.797-0.281-5.047-0.719-6.141-1.078-8.609l1.703-0.703c0.031 2.234 0.281 5.781 0.281 5.781s3.391-0.484 4.125 1.469c0.016 0.094 0 0.188-0.047 0.266zM12.016 19.953l-0.734-3.875h1.109l0.406 3.844zM13.406 19.703l-0.844-7.344 1.047-0.047 0.656 7.375h-0.859zM14.469 14.234h0.547v1.5h-0.422zM15.75 20.172h-0.828l-0.297-3.938h1.125zM22.312 18.828c-0.641 2.047-4.625 1.859-4.984 1.797-0.281-5.031-0.719-6.125-1.078-8.594l1.703-0.703c0.031 2.234 0.281 5.781 0.281 5.781s3.391-0.484 4.125 1.453c0.016 0.094 0 0.188-0.047 0.266zM22.922 19.953l-0.719-3.875h1.109l0.406 3.844zM24.344 19.703l-0.859-7.344 1.047-0.047 0.656 7.375h-0.844zM25.391 14.234h0.547v1.5h-0.406zM26.672 20.172h-0.828l-0.297-3.938h1.125z"/>
</svg>
