<svg version="1.1" xmlns="http://www.w3.org/2000/svg" width="32" height="32" viewBox="0 0 32 32">
<path fill="currentColor" d="M9.5 8.75h13c0.137 0 0.25-0.113 0.25-0.25 0-1.25-0.275-2.397-0.809-3.378-0.538-0.984-1.328-1.775-2.313-2.313-0.981-0.534-2.128-0.809-3.378-0.809h-0.5c-1.25 0-2.397 0.275-3.378 0.809-0.984 0.538-1.775 1.328-2.313 2.313-0.534 0.981-0.809 2.128-0.809 3.378 0 0.137 0.113 0.25 0.25 0.25z"/>
<path fill="currentColor" d="M29.375 16h-4.625v-3.125c2.4 0 4.344-1.944 4.344-4.344 0-0.137-0.113-0.25-0.25-0.25h-1.875c-0.137 0-0.25 0.113-0.25 0.25 0 1.088-0.881 1.969-1.969 1.969h-17.5c-1.088 0-1.969-0.881-1.969-1.969 0-0.137-0.112-0.25-0.25-0.25h-1.875c-0.138 0-0.25 0.113-0.25 0.25 0 2.4 1.944 4.344 4.344 4.344v3.125h-4.625c-0.138 0-0.25 0.113-0.25 0.25v1.75c0 0.137 0.112 0.25 0.25 0.25h4.625v3c0 0.203 0.006 0.406 0.022 0.603-2.144 0.916-3.647 3.044-3.647 5.522 0 0.137 0.112 0.25 0.25 0.25h1.75c0.138 0 0.25-0.113 0.25-0.25 0-1.381 0.747-2.591 1.862-3.241 0.188 0.538 0.425 1.050 0.709 1.531 0.759 1.297 1.844 2.381 3.141 3.141 0.903 0.528 1.906 0.9 2.978 1.078 0.137 0 0.25-0.113 0.25-0.25v-14.509c0-0.137 0.113-0.25 0.25-0.25h1.875c0.137 0 0.25 0.113 0.25 0.25v14.506c0 0.137 0.113 0.25 0.25 0.25 1.072-0.178 2.075-0.55 2.978-1.078 1.297-0.759 2.381-1.844 3.141-3.141 0.284-0.484 0.522-0.997 0.709-1.531 1.109 0.653 1.856 1.863 1.856 3.244 0 0.137 0.113 0.25 0.25 0.25h1.75c0.137 0 0.25-0.113 0.25-0.25 0-2.478-1.503-4.606-3.647-5.522 0.012-0.2 0.022-0.4 0.022-0.603v-3h4.625c0.137 0 0.25-0.113 0.25-0.25v-1.75c0-0.137-0.113-0.25-0.25-0.25z"/>
</svg>
