<svg version="1.1" xmlns="http://www.w3.org/2000/svg" width="32" height="32" viewBox="0 0 32 32">
<path fill="currentColor" d="M27.5 3.5h-23c-0.553 0-1 0.447-1 1v23c0 0.553 0.447 1 1 1h23c0.553 0 1-0.447 1-1v-23c0-0.553-0.447-1-1-1zM13.756 23.906h-1.588c-0.069 0-0.141-0.034-0.184-0.091l-1.109-1.359-1.109 1.359c-0.043 0.055-0.109 0.091-0.183 0.091-0 0-0.001 0-0.001 0h-1.587c-0.206 0-0.319-0.247-0.181-0.409l1.959-2.4-1.912-2.341c-0.134-0.163-0.022-0.409 0.184-0.409h1.591c0.069 0 0.141 0.034 0.184 0.091l1.063 1.3 1.063-1.3c0.047-0.059 0.113-0.091 0.184-0.091h1.588c0.206 0 0.319 0.247 0.184 0.409l-1.916 2.337 1.959 2.4c0.131 0.166 0.019 0.413-0.188 0.413zM14 11.969c0 0.069-0.044 0.125-0.1 0.125h-2.15v2.147c0 0.059-0.056 0.103-0.125 0.103h-1.5c-0.069 0-0.125-0.044-0.125-0.1v-2.15h-2.15c-0.056 0-0.1-0.056-0.1-0.125v-1.5c0-0.069 0.044-0.125 0.1-0.125h2.15v-2.15c0-0.056 0.056-0.1 0.125-0.1h1.5c0.069 0 0.125 0.044 0.125 0.1v2.15h2.147c0.059 0 0.103 0.056 0.103 0.125v1.5zM24.25 23.5c0 0.069-0.044 0.125-0.1 0.125h-6.050c-0.056 0-0.1-0.056-0.1-0.125v-1.5c0-0.069 0.044-0.125 0.1-0.125h6.047c0.059 0 0.103 0.056 0.103 0.125v1.5zM24.25 20.25c0 0.069-0.044 0.125-0.1 0.125h-6.050c-0.056 0-0.1-0.056-0.1-0.125v-1.5c0-0.069 0.044-0.125 0.1-0.125h6.047c0.059 0 0.103 0.056 0.103 0.125v1.5zM24.25 11.969c0 0.069-0.044 0.125-0.1 0.125h-6.050c-0.056 0-0.1-0.056-0.1-0.125v-1.5c0-0.069 0.044-0.125 0.1-0.125h6.047c0.059 0 0.103 0.056 0.103 0.125v1.5z"/>
</svg>
