<svg version="1.1" xmlns="http://www.w3.org/2000/svg" width="32" height="32" viewBox="0 0 32 32">
<path fill="currentColor" d="M27 8.125h-4.25l-1.012-2.838c-0.143-0.39-0.511-0.662-0.943-0.662-0 0-0.001 0-0.001 0h-9.587c-0.422 0-0.8 0.266-0.941 0.662l-1.016 2.838h-4.25c-1.381 0-2.5 1.119-2.5 2.5v14.25c0 1.381 1.119 2.5 2.5 2.5h22c1.381 0 2.5-1.119 2.5-2.5v-14.25c0-1.381-1.119-2.5-2.5-2.5zM16 22.375c-2.762 0-5-2.238-5-5s2.238-5 5-5 5 2.238 5 5-2.238 5-5 5zM13 17.375c0 1.657 1.343 3 3 3s3-1.343 3-3v0c0-1.657-1.343-3-3-3s-3 1.343-3 3v0z"/>
</svg>
