<svg version="1.1" xmlns="http://www.w3.org/2000/svg" width="32" height="32" viewBox="0 0 32 32">
<path fill="currentColor" d="M27.5 5.75h-5.25v-2c0-0.138-0.113-0.25-0.25-0.25h-1.75c-0.137 0-0.25 0.112-0.25 0.25v2h-8v-2c0-0.138-0.113-0.25-0.25-0.25h-1.75c-0.137 0-0.25 0.112-0.25 0.25v2h-5.25c-0.553 0-1 0.447-1 1v20.75c0 0.553 0.447 1 1 1h23c0.553 0 1-0.447 1-1v-20.75c0-0.553-0.447-1-1-1zM21.703 13.522l-6.644 9.147c-0.093 0.126-0.24 0.206-0.406 0.206s-0.314-0.081-0.405-0.205l-0.001-0.001-3.95-5.438c-0.119-0.166 0-0.397 0.203-0.397h1.725c0.159 0 0.313 0.078 0.406 0.206l2.022 2.781 4.716-6.494c0.094-0.128 0.244-0.206 0.406-0.206h1.725c0.203 0.003 0.322 0.234 0.203 0.4z"/>
</svg>
