<svg version="1.1" xmlns="http://www.w3.org/2000/svg" width="32" height="32" viewBox="0 0 32 32">
<path fill="currentColor" d="M27.5 3.5h-23c-0.553 0-1 0.447-1 1v23c0 0.553 0.447 1 1 1h23c0.553 0 1-0.447 1-1v-23c0-0.553-0.447-1-1-1zM21.734 11.428l-6.581 9.125c-0.183 0.253-0.476 0.415-0.808 0.415s-0.625-0.162-0.806-0.412l-0.002-0.003-3.897-5.4c-0.119-0.166 0-0.397 0.203-0.397h1.466c0.319 0 0.622 0.153 0.809 0.416l2.225 3.088 4.912-6.813c0.188-0.259 0.488-0.416 0.809-0.416h1.466c0.203 0 0.322 0.231 0.203 0.397z"/>
</svg>
