<svg version="1.1" xmlns="http://www.w3.org/2000/svg" width="32" height="32" viewBox="0 0 32 32">
<path fill="currentColor" d="M11.619 16c0 2.422 1.959 4.381 4.381 4.381s4.381-1.959 4.381-4.381-1.959-4.381-4.381-4.381-4.381 1.956-4.381 4.381zM28.125 11.325l-7.322 0.378c1.988 2.322 2.019 5.672 0.347 8.241l-5.875 9.038c2.438 0.131 4.95-0.403 7.225-1.725 5.625-3.25 7.906-10.066 5.625-15.931zM10.009 18.497l-4.891-9.619c-1.328 2.003-2.119 4.463-2.119 7.107 0 0.005 0 0.010 0 0.015v-0.001c0 6.5 4.759 11.884 10.981 12.838l3.341-6.544c-3.019 0.569-5.934-1.087-7.313-3.797zM16.837 9.575l10.762 0.566c-1.1-2.181-2.831-4.078-5.106-5.4-2.059-1.191-4.322-1.756-6.541-1.741-3.828 0.016-7.569 1.725-10.066 4.828l4.006 6.153c1-2.872 3.9-4.584 6.944-4.406z"/>
</svg>
