<svg version="1.1" xmlns="http://www.w3.org/2000/svg" width="32" height="32" viewBox="0 0 32 32">
<path fill="currentColor" d="M16 2c-7.731 0-14 6.269-14 14s6.269 14 14 14 14-6.269 14-14-6.269-14-14-14zM14.012 22.5c-3.219 0-5.075-2.144-5.075-5.706v-1.531c0-3.591 1.856-5.762 5.072-5.762 2.759 0 4.759 1.778 4.759 4.316 0 0.075-0.063 0.137-0.137 0.137h-1.644c-0.131 0-0.238-0.1-0.25-0.231-0.125-1.441-1.175-2.425-2.719-2.425-1.909 0-2.988 1.419-2.988 3.966v1.541c0 2.509 1.078 3.909 2.988 3.909 1.541 0 2.587-0.922 2.719-2.262 0.012-0.128 0.119-0.228 0.25-0.228h1.647c0.075 0 0.137 0.063 0.137 0.137 0 2.419-2.009 4.141-4.759 4.141zM23.063 22.003c0 0.137-0.113 0.25-0.25 0.25h-1.575c-0.137 0-0.25-0.113-0.25-0.25v-12.006c0-0.137 0.113-0.25 0.25-0.25h1.575c0.137 0 0.25 0.113 0.25 0.25v12.006z"/>
</svg>
