<svg version="1.1" xmlns="http://www.w3.org/2000/svg" width="32" height="32" viewBox="0 0 32 32">
<path fill="currentColor" d="M9.622 16.772l2.738 1.559v2.95l3.022 1.747v-6.628l-5.759-3.325zM27.5 3.5h-23c-0.553 0-1 0.447-1 1v23c0 0.553 0.447 1 1 1h23c0.553 0 1-0.447 1-1v-23c0-0.553-0.447-1-1-1zM23.616 20.413l-7.616 4.4-7.616-4.4v-8.794l3.438-1.988-0.012-0.006h0.006l4.184-2.406 4.181 2.406-0.009 0.006 3.441 1.988v8.794zM16.619 23.028l3.041-1.756v-2.941l2.719-1.547v-3.706l-5.759 3.328zM15.994 12.028l-2.931-1.684-2.847 1.644 5.787 3.344 5.788-3.341-2.856-1.65z"/>
</svg>
