<svg version="1.1" xmlns="http://www.w3.org/2000/svg" width="32" height="32" viewBox="0 0 32 32">
<path fill="currentColor" d="M27.5 3.5h-23c-0.553 0-1 0.447-1 1v23c0 0.553 0.447 1 1 1h23c0.553 0 1-0.447 1-1v-23c0-0.553-0.447-1-1-1zM16.034 16.191l-6 5.031c-0.162 0.137-0.409 0.022-0.409-0.191v-1.959c0-0.072 0.034-0.144 0.091-0.191l3.431-2.881-3.431-2.881c-0.055-0.044-0.091-0.111-0.091-0.187 0-0.001 0-0.002 0-0.004v0-1.959c0-0.213 0.247-0.328 0.409-0.191l6 5.028c0.122 0.1 0.122 0.284 0 0.384zM22.375 21.031c0 0.137-0.106 0.25-0.234 0.25h-5.781c-0.128 0-0.234-0.113-0.234-0.25v-1.5c0-0.137 0.106-0.25 0.234-0.25h5.781c0.128 0 0.234 0.113 0.234 0.25v1.5z"/>
</svg>
