<svg version="1.1" xmlns="http://www.w3.org/2000/svg" width="32" height="32" viewBox="0 0 32 32">
<path fill="currentColor" d="M16 2c-7.731 0-14 6.269-14 14s6.269 14 14 14 14-6.269 14-14-6.269-14-14-14zM23.616 20.413l-7.616 4.4-7.616-4.4v-8.794l3.438-1.988-0.012-0.006h0.006l4.184-2.406 4.181 2.406-0.009 0.006 3.441 1.988v8.794zM9.622 16.772l2.738 1.559v2.95l3.022 1.747v-6.628l-5.759-3.325zM15.994 12.028l-2.931-1.684-2.847 1.644 5.787 3.344 5.788-3.341-2.856-1.65zM16.619 23.028l3.041-1.756v-2.941l2.719-1.547v-3.706l-5.759 3.328z"/>
</svg>
