<svg version="1.1" xmlns="http://www.w3.org/2000/svg" width="32" height="32" viewBox="0 0 32 32">
<path fill="currentColor" d="M27.5 3.5h-23c-0.553 0-1 0.447-1 1v23c0 0.553 0.447 1 1 1h23c0.553 0 1-0.447 1-1v-23c0-0.553-0.447-1-1-1zM12.625 21.344v2.406c0 0.137-0.113 0.25-0.25 0.25h-1.5c-0.137 0-0.25-0.113-0.25-0.25v-2.406c-1.303-0.425-2.25-1.65-2.25-3.094s0.947-2.672 2.25-3.094v-6.906c0-0.137 0.113-0.25 0.25-0.25h1.5c0.137 0 0.25 0.113 0.25 0.25v6.906c1.303 0.425 2.25 1.65 2.25 3.094s-0.947 2.672-2.25 3.094zM21.363 16.847c0.006 0 0.009-0.003 0.012-0.003v6.906c0 0.137-0.113 0.25-0.25 0.25h-1.5c-0.137 0-0.25-0.113-0.25-0.25v-6.906c0.006 0 0.009 0.003 0.012 0.003-1.313-0.419-2.262-1.647-2.262-3.097s0.95-2.678 2.262-3.097c-0.006 0-0.009 0.003-0.012 0.003v-2.406c0-0.137 0.113-0.25 0.25-0.25h1.5c0.137 0 0.25 0.113 0.25 0.25v2.406c-0.006 0-0.009-0.003-0.012-0.003 1.313 0.419 2.262 1.647 2.262 3.097s-0.95 2.678-2.262 3.097zM19.25 13.75c0 0.621 0.504 1.125 1.125 1.125s1.125-0.504 1.125-1.125v0c0-0.621-0.504-1.125-1.125-1.125s-1.125 0.504-1.125 1.125v0zM12.606 17.703l-0.047-0.075c0-0.003-0.003-0.003-0.003-0.006l-0.028-0.038c-0.003-0.003-0.006-0.006-0.006-0.009-0.031-0.041-0.063-0.078-0.1-0.113l-0.006-0.006c-0.012-0.012-0.025-0.025-0.037-0.034-0.025-0.025-0.053-0.047-0.081-0.066h-0.003l-0.037-0.028c-0.003-0.003-0.009-0.006-0.012-0.009-0.037-0.025-0.078-0.050-0.122-0.069-0.006-0.003-0.016-0.006-0.022-0.012-0.012-0.006-0.022-0.009-0.034-0.016-0.009-0.003-0.022-0.009-0.031-0.012-0.016-0.006-0.031-0.012-0.047-0.016-0.012-0.003-0.028-0.009-0.041-0.012l-0.028-0.009-0.044-0.009c-0.006-0.003-0.016-0.003-0.022-0.006-0.022-0.003-0.044-0.009-0.066-0.012-0.006 0-0.012 0-0.019-0.003-0.019-0.003-0.034-0.003-0.053-0.006-0.006 0-0.012 0-0.022-0.003-0.025 0-0.047-0.003-0.072-0.003s-0.047 0-0.072 0.003c-0.006 0-0.012 0-0.022 0.003-0.019 0-0.037 0.003-0.053 0.006-0.006 0-0.012 0-0.019 0.003-0.022 0.003-0.044 0.006-0.066 0.012-0.006 0.003-0.016 0.003-0.022 0.006l-0.044 0.009-0.028 0.009c-0.012 0.003-0.028 0.009-0.041 0.012-0.016 0.006-0.031 0.012-0.047 0.016-0.009 0.003-0.022 0.009-0.031 0.012-0.012 0.006-0.022 0.009-0.034 0.016-0.006 0.003-0.016 0.006-0.022 0.012-0.041 0.022-0.081 0.044-0.122 0.069-0.003 0.003-0.009 0.006-0.012 0.009l-0.037 0.028h-0.003c-0.028 0.022-0.056 0.044-0.081 0.066-0.012 0.012-0.025 0.022-0.037 0.034l-0.006 0.006c-0.034 0.035-0.066 0.071-0.098 0.109l-0.002 0.003c-0.003 0.003-0.006 0.006-0.006 0.009l-0.028 0.038c0 0.003-0.003 0.003-0.003 0.006l-0.047 0.075c-0.003 0.006-0.006 0.009-0.009 0.016-0.084 0.159-0.134 0.341-0.134 0.531s0.050 0.375 0.134 0.531c0.003 0.006 0.006 0.009 0.009 0.016l0.047 0.075c0 0.003 0.003 0.003 0.003 0.006l0.028 0.038c0.003 0.003 0.006 0.006 0.006 0.009 0.031 0.041 0.063 0.078 0.1 0.113l0.006 0.006c0.012 0.012 0.025 0.025 0.037 0.034 0.025 0.025 0.053 0.047 0.081 0.066h0.003l0.037 0.028c0.003 0.003 0.009 0.006 0.012 0.009 0.037 0.025 0.078 0.050 0.122 0.069 0.006 0.003 0.016 0.006 0.022 0.012 0.012 0.006 0.022 0.009 0.034 0.016 0.009 0.003 0.022 0.009 0.031 0.012 0.016 0.006 0.031 0.012 0.047 0.016 0.012 0.003 0.028 0.009 0.041 0.012l0.028 0.009 0.044 0.009c0.006 0.003 0.016 0.003 0.022 0.006 0.022 0.003 0.044 0.009 0.066 0.012 0.006 0 0.012 0 0.019 0.003 0.019 0.003 0.034 0.003 0.053 0.006 0.006 0 0.012 0 0.022 0.003 0.025 0 0.047 0.003 0.072 0.003s0.047 0 0.072-0.003c0.006 0 0.012 0 0.022-0.003 0.019 0 0.037-0.003 0.053-0.006 0.006 0 0.012 0 0.019-0.003 0.022-0.003 0.044-0.006 0.066-0.012 0.006-0.003 0.016-0.003 0.022-0.006l0.044-0.009 0.028-0.009c0.012-0.003 0.028-0.009 0.041-0.012 0.016-0.006 0.031-0.012 0.047-0.016 0.009-0.003 0.022-0.009 0.031-0.012 0.012-0.006 0.022-0.009 0.034-0.016 0.006-0.003 0.016-0.006 0.022-0.012 0.041-0.022 0.081-0.044 0.122-0.069 0.003-0.003 0.009-0.006 0.012-0.009l0.037-0.028h0.003c0.028-0.022 0.056-0.044 0.081-0.066 0.012-0.012 0.025-0.022 0.037-0.034l0.006-0.006c0.034-0.034 0.069-0.075 0.1-0.113 0.003-0.003 0.006-0.006 0.006-0.009l0.028-0.038c0-0.003 0.003-0.003 0.003-0.006l0.047-0.075c0.003-0.006 0.006-0.009 0.009-0.016 0.084-0.159 0.134-0.341 0.134-0.531s-0.050-0.375-0.134-0.531c-0.003-0.006-0.006-0.012-0.009-0.016z"/>
</svg>
