<svg version="1.1" xmlns="http://www.w3.org/2000/svg" width="32" height="32" viewBox="0 0 32 32">
<path fill="currentColor" d="M26 2h-20c-0.553 0-1 0.447-1 1v16.531c0-0.019 0.013-0.031 0.031-0.031h6.853l0.162 0.772c0.378 1.869 2.041 3.228 3.953 3.228s3.575-1.359 3.95-3.228l0.163-0.772h6.856c0.019 0 0.031 0.012 0.031 0.031v-16.531c0-0.553-0.447-1-1-1zM22.25 15.406c0 0.137-0.113 0.25-0.25 0.25h-12c-0.137 0-0.25-0.113-0.25-0.25v-1.5c0-0.137 0.113-0.25 0.25-0.25h12c0.137 0 0.25 0.113 0.25 0.25v1.5zM22.25 10.406c0 0.137-0.113 0.25-0.25 0.25h-12c-0.137 0-0.25-0.113-0.25-0.25v-1.5c0-0.137 0.113-0.25 0.25-0.25h12c0.137 0 0.25 0.113 0.25 0.25v1.5zM26.969 21.469h-5.278c-0.363 1.025-1 1.947-1.847 2.647-1.078 0.894-2.444 1.384-3.844 1.384s-2.766-0.494-3.844-1.384c-0.828-0.69-1.464-1.584-1.834-2.605l-0.013-0.042h-5.278c-0.019 0-0.031-0.012-0.031-0.031v7.563c0 0.553 0.447 1 1 1h20c0.553 0 1-0.447 1-1v-7.563c0 0.019-0.012 0.031-0.031 0.031z"/>
</svg>
