<svg version="1.1" xmlns="http://www.w3.org/2000/svg" width="32" height="32" viewBox="0 0 32 32">
<path fill="currentColor" d="M16 2c-7.731 0-14 6.269-14 14s6.269 14 14 14 14-6.269 14-14-6.269-14-14-14zM16.169 22.938c-3.438 0-5.419-2.288-5.419-6.091v-1.634c0-3.831 1.981-6.15 5.416-6.15 2.947 0 5.084 1.897 5.084 4.606 0 0.081-0.066 0.147-0.147 0.147h-1.772c-0.131 0-0.238-0.1-0.25-0.231-0.125-1.547-1.25-2.606-2.906-2.606-2.041 0-3.191 1.516-3.191 4.234v1.644c0 2.678 1.153 4.175 3.191 4.175 1.65 0 2.772-0.991 2.906-2.431 0.012-0.128 0.119-0.228 0.25-0.228h1.775c0.081 0 0.147 0.066 0.147 0.147 0 2.581-2.147 4.419-5.084 4.419z"/>
</svg>
