<svg version="1.1" xmlns="http://www.w3.org/2000/svg" width="32" height="32" viewBox="0 0 32 32">
<path fill="currentColor" d="M26 2h-16.75c-0.137 0-0.25 0.112-0.25 0.25v1.75c0 0.138 0.113 0.25 0.25 0.25h15.5v21.5c0 0.137 0.113 0.25 0.25 0.25h1.75c0.137 0 0.25-0.113 0.25-0.25v-22.75c0-0.553-0.447-1-1-1zM22 6h-16c-0.553 0-1 0.447-1 1v16.584c0 0.266 0.106 0.519 0.294 0.706l5.416 5.416c0.069 0.069 0.147 0.125 0.231 0.172v0.059h0.131c0.109 0.041 0.225 0.063 0.344 0.063h10.584c0.553 0 1-0.447 1-1v-22c0-0.553-0.447-1-1-1zM11.938 28h-0.006l-4.681-4.681v-0.006h4.688v4.688z"/>
</svg>
