<svg version="1.1" xmlns="http://www.w3.org/2000/svg" width="32" height="32" viewBox="0 0 32 32">
<path fill="currentColor" d="M28.113 8.641l-6.081 3.747-5.831-7.778c-0.046-0.061-0.119-0.101-0.202-0.101s-0.155 0.039-0.201 0.1l-0 0.001-5.828 7.778-6.084-3.747c-0.178-0.109-0.409 0.037-0.381 0.247l2.387 18.144c0.034 0.247 0.247 0.438 0.5 0.438h19.222c0.25 0 0.466-0.188 0.497-0.438l2.387-18.144c0.025-0.209-0.203-0.356-0.384-0.247zM16 22.944c-1.941 0-3.519-1.578-3.519-3.519s1.578-3.519 3.519-3.519 3.519 1.578 3.519 3.519-1.578 3.519-3.519 3.519zM16 17.916c-0.831 0-1.506 0.675-1.506 1.509 0 0.831 0.675 1.509 1.506 1.509s1.506-0.675 1.506-1.509c0-0.831-0.675-1.509-1.506-1.509z"/>
</svg>
