<svg version="1.1" xmlns="http://www.w3.org/2000/svg" width="32" height="32" viewBox="0 0 32 32">
<path fill="currentColor" d="M28.9 12.050c-0.742-1.73-1.754-3.207-3-4.45l-0-0c-1.243-1.246-2.72-2.258-4.359-2.965l-0.091-0.035c-1.728-0.731-3.559-1.1-5.45-1.1s-3.722 0.369-5.45 1.1c-1.73 0.742-3.207 1.754-4.45 3l-0 0c-1.246 1.243-2.258 2.72-2.965 4.359l-0.035 0.091c-0.731 1.728-1.1 3.559-1.1 5.45 0 4.147 1.822 8.053 4.997 10.722l0.053 0.044c0.181 0.15 0.409 0.234 0.644 0.234h16.616c0.234 0 0.462-0.084 0.644-0.234l0.053-0.044c3.172-2.669 4.994-6.575 4.994-10.722 0-1.891-0.372-3.722-1.1-5.45zM15.063 7.25c0-0.138 0.113-0.25 0.25-0.25h1.375c0.137 0 0.25 0.112 0.25 0.25v2.5c0 0.137-0.113 0.25-0.25 0.25h-1.375c-0.137 0-0.25-0.113-0.25-0.25v-2.5zM8.438 18.188c0 0.137-0.113 0.25-0.25 0.25h-2.5c-0.138 0-0.25-0.113-0.25-0.25v-1.375c0-0.137 0.112-0.25 0.25-0.25h2.5c0.137 0 0.25 0.113 0.25 0.25v1.375zM11.272 11.797l-0.972 0.972c-0.045 0.045-0.108 0.073-0.177 0.073s-0.131-0.028-0.177-0.073l-1.769-1.769c-0.045-0.045-0.073-0.108-0.073-0.177s0.028-0.131 0.073-0.177l0.972-0.972c0.097-0.097 0.256-0.097 0.353 0l1.769 1.769c0.097 0.097 0.097 0.256 0 0.353zM20.369 14.409l-2.641 2.641c0.156 0.584 0.006 1.231-0.453 1.691-0.317 0.317-0.754 0.513-1.238 0.513s-0.921-0.196-1.237-0.513l-0-0c-0.317-0.317-0.513-0.754-0.513-1.238s0.196-0.921 0.513-1.237l0-0c0.316-0.317 0.753-0.513 1.236-0.513 0.162 0 0.318 0.022 0.466 0.063l-0.012-0.003 2.641-2.641c0.097-0.097 0.256-0.097 0.353 0l0.884 0.884c0.097 0.097 0.097 0.253 0 0.353zM21.712 12.772l-0.972-0.972c-0.045-0.045-0.073-0.108-0.073-0.177s0.028-0.131 0.073-0.177l1.769-1.769c0.097-0.097 0.256-0.097 0.353 0l0.972 0.972c0.097 0.097 0.097 0.256 0 0.353l-1.769 1.769c-0.045 0.045-0.108 0.073-0.177 0.073s-0.131-0.028-0.177-0.073l0 0zM26.438 18.188c0 0.137-0.113 0.25-0.25 0.25h-2.5c-0.137 0-0.25-0.113-0.25-0.25v-1.375c0-0.137 0.113-0.25 0.25-0.25h2.5c0.137 0 0.25 0.113 0.25 0.25v1.375z"/>
</svg>
