<svg version="1.1" xmlns="http://www.w3.org/2000/svg" width="32" height="32" viewBox="0 0 32 32">
<path fill="currentColor" d="M26 2h-20c-0.553 0-1 0.447-1 1v7h22v-7c0-0.553-0.447-1-1-1zM9 7.25c-0.691 0-1.25-0.559-1.25-1.25s0.559-1.25 1.25-1.25 1.25 0.559 1.25 1.25-0.559 1.25-1.25 1.25zM5 29c0 0.553 0.447 1 1 1h20c0.553 0 1-0.447 1-1v-7h-22v7zM9 24.75c0.691 0 1.25 0.559 1.25 1.25s-0.559 1.25-1.25 1.25-1.25-0.559-1.25-1.25 0.559-1.25 1.25-1.25zM5 20h22v-8h-22v8zM9 14.75c0.691 0 1.25 0.559 1.25 1.25s-0.559 1.25-1.25 1.25-1.25-0.559-1.25-1.25 0.559-1.25 1.25-1.25z"/>
</svg>
