<svg version="1.1" xmlns="http://www.w3.org/2000/svg" width="32" height="32" viewBox="0 0 32 32">
<path fill="currentColor" d="M27.5 3.5h-23c-0.553 0-1 0.447-1 1v23c0 0.553 0.447 1 1 1h23c0.553 0 1-0.447 1-1v-23c0-0.553-0.447-1-1-1zM23.094 14.041c-0.031 0.131-0.109 0.325-0.219 0.556h0.003l-0.012 0.022c-0.634 1.347-2.284 3.991-2.284 3.991s-0.003-0.006-0.009-0.016l-0.484 0.837h2.328l-4.444 5.881 1.009-4h-1.831l0.637-2.647c-0.516 0.122-1.122 0.294-1.844 0.525 0 0-0.975 0.569-2.809-1.094 0 0-1.238-1.084-0.519-1.356 0.306-0.116 1.481-0.262 2.406-0.384 1.25-0.169 2.019-0.256 2.019-0.256s-3.853 0.056-4.769-0.084c-0.916-0.144-2.075-1.659-2.322-2.994 0 0-0.381-0.731 0.822-0.384s6.184 1.35 6.184 1.35-6.481-1.978-6.912-2.459c-0.431-0.481-1.269-2.631-1.159-3.953 0 0 0.047-0.328 0.387-0.241 0 0 4.791 2.178 8.066 3.372 3.275 1.184 6.122 1.791 5.756 3.334z"/>
</svg>
