<svg version="1.1" xmlns="http://www.w3.org/2000/svg" width="32" height="32" viewBox="0 0 32 32">
<path fill="currentColor" d="M25.349 2.719c1.599 0 2.888 1.292 2.964 2.813v24.468l-3.044-2.584-1.671-1.521-1.824-1.589 0.762 2.506h-15.96c-1.594 0-2.888-1.211-2.888-2.815v-18.46c0-1.521 1.296-2.816 2.894-2.816h18.76zM18.38 9.191h-0.034l-0.23 0.227c2.356 0.681 3.495 1.746 3.495 1.746-1.518-0.759-2.886-1.138-4.255-1.291-0.989-0.153-1.977-0.073-2.813 0h-0.227c-0.534 0-1.67 0.227-3.193 0.835-0.531 0.231-0.835 0.382-0.835 0.382s1.139-1.138 3.648-1.746l-0.153-0.153s-1.9-0.073-3.951 1.442c0 0-2.051 3.571-2.051 7.973 0 0 1.136 1.976 4.253 2.051 0 0 0.455-0.605 0.915-1.138-1.75-0.532-2.432-1.595-2.432-1.595s0.152 0.075 0.381 0.227h0.068c0.034 0 0.050 0.017 0.068 0.034v0.007c0.018 0.018 0.034 0.034 0.068 0.034 0.375 0.154 0.75 0.307 1.057 0.454 0.588 0.26 1.274 0.471 1.989 0.6l0.057 0.009c1.057 0.153 2.268 0.227 3.648 0 0.682-0.153 1.364-0.303 2.045-0.608 0.443-0.227 0.989-0.454 1.587-0.837 0 0-0.682 1.063-2.506 1.595 0.375 0.529 0.903 1.136 0.903 1.136 3.118-0.068 4.33-2.044 4.398-1.96 0-4.395-2.063-7.973-2.063-7.973-1.858-1.379-3.597-1.431-3.903-1.431l0.064-0.023zM18.594 14.188c0.796 0 1.438 0.68 1.438 1.513 0 0.839-0.645 1.518-1.438 1.518s-1.438-0.68-1.438-1.512c0.002-0.839 0.649-1.516 1.438-1.516zM13.411 14.188c0.792 0 1.433 0.68 1.433 1.513 0 0.839-0.645 1.518-1.438 1.518s-1.438-0.68-1.438-1.512c0-0.839 0.645-1.516 1.438-1.516z"/>
</svg>
