<svg version="1.1" xmlns="http://www.w3.org/2000/svg" width="32" height="32" viewBox="0 0 32 32">
<path fill="currentColor" d="M27.684 15.322c0.113-0.375 0.169-0.762 0.169-1.156 0-0.884-0.291-1.734-0.816-2.428 0.113-0.375 0.169-0.762 0.169-1.156 0-0.884-0.291-1.734-0.816-2.428 0.113-0.375 0.169-0.763 0.169-1.156 0-1.612-0.959-3.066-2.447-3.7-0.241-0.107-0.522-0.169-0.818-0.169-0.004 0-0.007 0-0.011 0h-14.753v13.375h0.009l2.681 9.713c0.431 1.566 1.869 2.659 3.494 2.659 0.928 0 1.794-0.369 2.434-1.044 0.641-0.672 0.969-1.553 0.922-2.481l-0.188-3.841h7.497c0.378 0 0.747-0.1 1.072-0.291 1.262-0.734 2.047-2.066 2.047-3.469 0-0.884-0.291-1.734-0.816-2.428zM3.5 4.125v11.375c0 0.553 0.447 1 1 1h2.031v-13.375h-2.031c-0.553 0-1 0.447-1 1z"/>
</svg>
