<svg version="1.1" xmlns="http://www.w3.org/2000/svg" width="32" height="32" viewBox="0 0 32 32">
<path fill="currentColor" d="M16 2c-7.731 0-14 6.269-14 14s6.269 14 14 14 14-6.269 14-14-6.269-14-14-14zM16.697 22.788l0.006 0.991c0 0.137-0.113 0.253-0.25 0.253h-0.887c-0.137 0-0.25-0.113-0.25-0.25v-0.981c-2.775-0.206-4.081-1.788-4.222-3.506-0.012-0.147 0.103-0.272 0.25-0.272h1.444c0.122 0 0.228 0.087 0.247 0.206 0.159 0.991 0.931 1.731 2.316 1.916v-4.459l-0.772-0.197c-1.634-0.391-3.191-1.409-3.191-3.522 0-2.278 1.731-3.503 3.944-3.719v-1.031c0-0.137 0.113-0.25 0.25-0.25h0.878c0.137 0 0.25 0.113 0.25 0.25v1.022c2.141 0.216 3.747 1.466 3.934 3.412 0.016 0.147-0.1 0.275-0.25 0.275h-1.403c-0.125 0-0.231-0.094-0.247-0.216-0.125-0.912-0.856-1.656-2.047-1.819v4.197l0.794 0.184c2.025 0.5 3.403 1.469 3.403 3.637 0 2.353-1.75 3.666-4.197 3.878zM13.331 12.822c0 0.794 0.491 1.409 1.547 1.791 0.147 0.059 0.294 0.106 0.469 0.156v-3.875c-1.153 0.147-2.016 0.794-2.016 1.928zM16.972 17.047c-0.087-0.019-0.175-0.041-0.275-0.069v4.178c1.331-0.119 2.25-0.85 2.25-2.075 0-0.959-0.497-1.584-1.975-2.034z"/>
</svg>
