<svg version="1.1" xmlns="http://www.w3.org/2000/svg" width="32" height="32" viewBox="0 0 32 32">
<path fill="currentColor" d="M15.581 13.5c-1.275-2.266-2.647-4.169-2.85-4.447-2.15 1.016-3.759 2.997-4.256 5.381 0.344 0.006 3.512 0.022 7.106-0.934zM17.659 14.181c0.178 0.366 0.35 0.738 0.509 1.113 0.056 0.131 0.113 0.262 0.166 0.397 2.556-0.322 5.1 0.194 5.353 0.247-0.016-1.816-0.666-3.481-1.734-4.791-0.166 0.222-1.453 1.875-4.294 3.034zM27.5 3.5h-23c-0.553 0-1 0.447-1 1v23c0 0.553 0.447 1 1 1h23c0.553 0 1-0.447 1-1v-23c0-0.553-0.447-1-1-1zM16 25c-4.963 0-9-4.038-9-9s4.037-9 9-9 9 4.037 9 9-4.038 9-9 9zM18.803 16.903c1.006 2.762 1.416 5.012 1.494 5.481 1.725-1.166 2.953-3.012 3.294-5.153-0.262-0.081-2.378-0.712-4.787-0.328zM16.538 16.078c0.1-0.031 0.2-0.063 0.303-0.091-0.194-0.438-0.403-0.875-0.622-1.303-3.838 1.15-7.566 1.1-7.9 1.094-0.003 0.078-0.003 0.156-0.003 0.234 0 1.975 0.747 3.778 1.975 5.141 0.172-0.3 2.281-3.794 6.247-5.075zM21.097 10.259c-1.347-1.203-3.134-1.938-5.093-1.938-0.641 0-1.264 0.079-1.859 0.227l0.053-0.011c0.213 0.284 1.609 2.184 2.869 4.5 2.734-1.025 3.891-2.581 4.031-2.778zM17.313 17.275c-4.334 1.509-5.894 4.519-6.031 4.8 1.303 1.016 2.941 1.622 4.719 1.622 1.066 0 2.081-0.216 3.003-0.609-0.116-0.675-0.559-3.025-1.641-5.831l-0.050 0.019z"/>
</svg>
