<svg version="1.1" xmlns="http://www.w3.org/2000/svg" width="32" height="32" viewBox="0 0 32 32">
<path fill="currentColor" d="M27.5 3.5h-23c-0.553 0-1 0.447-1 1v23c0 0.553 0.447 1 1 1h23c0.553 0 1-0.447 1-1v-23c0-0.553-0.447-1-1-1zM20.725 20.609l-4.706 2.828-4.719-2.828v-1.034l1.419 0.919 3.3-2.741 3.3 2.741 1.409-0.919v1.034zM19.3 19.909l-3.291-2.741-3.291 2.741-4.719-3.1 3.266-2.575-3.266-2.634 4.719-3.037 3.291 2.741 3.291-2.741 4.7 3.066-3.256 2.609 3.256 2.606-4.7 3.066zM16.009 11.303l-4.744 2.931 4.744 2.934 4.734-2.934z"/>
</svg>
