<svg version="1.1" xmlns="http://www.w3.org/2000/svg" width="32" height="32" viewBox="0 0 32 32">
<path fill="currentColor" d="M27.5 26.125h-23c-0.553 0-1 0.447-1 1v1.125c0 0.137 0.112 0.25 0.25 0.25h24.5c0.137 0 0.25-0.113 0.25-0.25v-1.125c0-0.553-0.447-1-1-1zM8.053 23.5c0.063 0 0.125-0.006 0.188-0.016l5.256-0.922c0.063-0.012 0.122-0.041 0.166-0.087l13.247-13.247c0.056-0.056 0.091-0.134 0.091-0.22s-0.035-0.164-0.091-0.22v0l-5.194-5.197c-0.059-0.059-0.137-0.091-0.222-0.091s-0.163 0.031-0.222 0.091l-13.247 13.247c-0.047 0.047-0.075 0.103-0.088 0.166l-0.922 5.256c-0.011 0.056-0.017 0.121-0.017 0.187 0 0.291 0.119 0.554 0.311 0.744l0 0c0.206 0.2 0.466 0.309 0.744 0.309z"/>
</svg>
