<svg version="1.1" xmlns="http://www.w3.org/2000/svg" width="32" height="32" viewBox="0 0 32 32">
<path fill="currentColor" d="M16 2c-7.731 0-14 6.269-14 14s6.269 14 14 14 14-6.269 14-14-6.269-14-14-14zM17.984 13.744c0.137 0 0.25 0.113 0.25 0.25v0.85c0 0.137-0.113 0.25-0.25 0.25h-4.25c-0.009 0.137-0.009 0.284-0.009 0.431v1.125h4.256c0.137 0 0.25 0.113 0.25 0.25v0.85c0 0.137-0.113 0.25-0.25 0.25h-4.078c0.478 1.938 1.916 3.081 4.056 3.081 0.622 0 1.159-0.038 1.619-0.128 0.153-0.031 0.297 0.087 0.297 0.244v1.337c0 0.119-0.084 0.219-0.2 0.244-0.497 0.106-1.072 0.159-1.728 0.159-3.431 0-5.719-1.837-6.256-4.938h-0.941c-0.137 0-0.25-0.113-0.25-0.25v-0.85c0-0.137 0.113-0.25 0.25-0.25h0.816v-1.153c0-0.137 0-0.275 0.009-0.4h-0.825c-0.137 0-0.25-0.113-0.25-0.25v-0.85c0-0.137 0.113-0.25 0.25-0.25h0.991c0.616-2.944 2.875-4.684 6.206-4.684 0.653 0 1.231 0.059 1.728 0.169 0.116 0.025 0.197 0.125 0.197 0.244v1.338h0.003c0 0.159-0.144 0.275-0.3 0.244-0.459-0.091-0.994-0.137-1.616-0.137-2.044 0-3.45 1.047-3.988 2.825h4.012z"/>
</svg>
