<svg version="1.1" xmlns="http://www.w3.org/2000/svg" width="32" height="32" viewBox="0 0 32 32">
<path fill="currentColor" d="M6.841 19.884l1.331 0.831c0.003 0.003 0.009 0.006 0.012 0.009l0.397 0.25 0.009 0.009c0.838 0.493 1.847 0.784 2.924 0.784 0.006 0 0.012 0 0.018-0h-0.001c1.403 0 2.725-0.491 3.781-1.369 1.381-1.164 3.181-1.872 5.146-1.872 0.003 0 0.005 0 0.008 0h-0c1.634 0 3.194 0.491 4.519 1.391l0.247 0.156-3.488-9.031v-5.425h1.984c0.137 0 0.25-0.112 0.25-0.25v-1.619c0-0.138-0.113-0.25-0.25-0.25h-15.456c-0.137 0-0.25 0.112-0.25 0.25v1.622c0 0.138 0.113 0.25 0.25 0.25h1.984v5.425l-3.416 8.837zM17.247 13.537c0.688 0 1.247 0.559 1.247 1.247s-0.559 1.247-1.247 1.247-1.247-0.559-1.247-1.247 0.559-1.247 1.247-1.247zM27.438 25.784l-0.934-2.419-2.678-1.672-0.003 0.003c-0.022-0.016-0.047-0.031-0.069-0.047l-0.253-0.156-0.009-0.009c-0.906-0.547-1.947-0.837-3.031-0.837-1.403 0-2.725 0.491-3.781 1.369-1.381 1.164-3.181 1.872-5.146 1.872-0.003 0-0.005 0-0.008 0h0c-1.656 0-3.234-0.503-4.569-1.425l-0.903-0.566-1.491 3.887c-0.088 0.231-0.134 0.475-0.134 0.719 0 1.1 0.894 1.994 1.994 1.994h19.153c0.247 0 0.491-0.047 0.719-0.134 0.754-0.294 1.279-1.014 1.279-1.857 0-0.259-0.050-0.507-0.14-0.735l0.005 0.013z"/>
</svg>
