<svg version="1.1" xmlns="http://www.w3.org/2000/svg" width="32" height="32" viewBox="0 0 32 32">
<path fill="currentColor" d="M15.875 19.5c1.933 0 3.5-1.567 3.5-3.5v0c0-0.102-0.005-0.204-0.013-0.304l-3.791 3.791c0.1 0.009 0.202 0.013 0.304 0.013zM27.46 5.174l-1.335-1.334c-0.045-0.045-0.108-0.073-0.177-0.073s-0.131 0.028-0.177 0.073v0l-3.416 3.417q-2.827-1.445-6.355-1.445-9.009 0-13.444 9.384c-0.114 0.236-0.18 0.512-0.18 0.805s0.067 0.569 0.185 0.816l-0.005-0.011q1.772 3.732 4.267 5.983l-3.306 3.305c-0.045 0.045-0.073 0.108-0.073 0.177s0.028 0.131 0.073 0.177l1.334 1.334c0.045 0.045 0.108 0.073 0.177 0.073s0.131-0.028 0.177-0.073l22.255-22.254c0.045-0.045 0.073-0.108 0.073-0.177s-0.028-0.132-0.073-0.177v0zM10.375 16c0-0 0-0 0-0.001 0-3.038 2.462-5.5 5.5-5.5 0.948 0 1.84 0.24 2.619 0.662l-0.029-0.014-1.519 1.519c-0.319-0.106-0.686-0.167-1.068-0.167-1.934 0-3.502 1.568-3.502 3.502 0 0.382 0.061 0.749 0.174 1.093l-0.007-0.025-1.519 1.519c-0.408-0.747-0.647-1.637-0.647-2.582 0-0.003 0-0.006 0-0.008v0z"/>
<path fill="currentColor" d="M29.444 15.194q-1.65-3.475-3.928-5.667l-4.504 4.505c0.23 0.583 0.363 1.259 0.363 1.966 0 3.039-2.464 5.503-5.503 5.503-0.707 0-1.383-0.133-2.003-0.376l0.037 0.013-3.821 3.821q2.659 1.23 5.914 1.23 9.009 0 13.444-9.384c0.114-0.236 0.18-0.512 0.18-0.805s-0.067-0.569-0.185-0.816l0.005 0.011z"/>
</svg>
