<svg version="1.1" xmlns="http://www.w3.org/2000/svg" width="32" height="32" viewBox="0 0 32 32">
<path fill="currentColor" d="M12.375 16c0 1.933 1.567 3.5 3.5 3.5s3.5-1.567 3.5-3.5v0c0-1.933-1.567-3.5-3.5-3.5s-3.5 1.567-3.5 3.5v0zM29.444 15.194c-2.962-6.241-7.441-9.381-13.444-9.381-6.006 0-10.481 3.141-13.444 9.384-0.114 0.236-0.18 0.512-0.18 0.805s0.067 0.569 0.185 0.816l-0.005-0.011c2.962 6.241 7.441 9.381 13.444 9.381 6.006 0 10.481-3.141 13.444-9.384 0.241-0.506 0.241-1.094 0-1.609zM15.875 21.5c-3.037 0-5.5-2.462-5.5-5.5s2.463-5.5 5.5-5.5 5.5 2.463 5.5 5.5-2.462 5.5-5.5 5.5z"/>
</svg>
