<svg version="1.1" xmlns="http://www.w3.org/2000/svg" width="32" height="32" viewBox="0 0 32 32">
<path fill="currentColor" d="M26.706 9.022c0.188 0.188 0.294 0.441 0.294 0.706v19.272c0 0.553-0.447 1-1 1h-20c-0.553 0-1-0.447-1-1v-26c0-0.553 0.447-1 1-1h13.272c0.266 0 0.522 0.106 0.709 0.294l6.725 6.728zM24.694 10.188l-5.881-5.881v5.881h5.881zM16 17.691l1.65 6.156c0.044 0.161 0.19 0.278 0.362 0.278 0 0 0 0 0 0h0.993c0 0 0 0 0 0 0.172 0 0.318-0.116 0.361-0.275l0.001-0.003 2.324-8.625c0.008-0.029 0.012-0.062 0.012-0.096 0-0.001 0-0.001 0-0.002v0c0-0.207-0.168-0.375-0.375-0.375v0h-1.112c-0 0-0 0-0 0-0.177 0-0.326 0.123-0.365 0.288l-0 0.003-1.431 6.222-1.555-6.229c-0.042-0.164-0.189-0.284-0.364-0.284h-1.006c-0.175 0-0.322 0.12-0.363 0.282l-0.001 0.003-1.552 6.216-1.441-6.21c-0.040-0.167-0.188-0.29-0.365-0.29h-1.106c0 0 0 0 0 0-0.035 0-0.068 0.005-0.1 0.013l0.003-0.001c-0.161 0.044-0.278 0.19-0.278 0.362 0 0.035 0.005 0.068 0.013 0.1l-0.001-0.003 2.318 8.625c0.044 0.161 0.19 0.277 0.362 0.277h1c0.173-0 0.318-0.117 0.362-0.276l0.001-0.003 1.65-6.156z"/>
</svg>
