<svg version="1.1" xmlns="http://www.w3.org/2000/svg" width="32" height="32" viewBox="0 0 32 32">
<path fill="currentColor" d="M26.706 9.022l-6.725-6.728c-0.188-0.188-0.444-0.294-0.709-0.294h-13.272c-0.553 0-1 0.447-1 1v26c0 0.553 0.447 1 1 1h20c0.553 0 1-0.447 1-1v-19.272c0-0.266-0.106-0.519-0.294-0.706zM12.5 12.563c0.691 0 1.25 0.559 1.25 1.25s-0.559 1.25-1.25 1.25-1.25-0.559-1.25-1.25 0.559-1.25 1.25-1.25zM21.75 21.75h-11.5c-0.209 0-0.325-0.241-0.197-0.403l3.119-3.975c0.046-0.059 0.117-0.096 0.197-0.096s0.151 0.037 0.196 0.095l0 0.001 1.284 1.637 2.431-3.1c0.046-0.059 0.117-0.096 0.197-0.096s0.151 0.037 0.196 0.095l0 0.001 4.266 5.438c0.134 0.163 0.016 0.403-0.191 0.403zM18.813 10.188v-5.881l5.881 5.881h-5.881z"/>
</svg>
