<svg version="1.1" xmlns="http://www.w3.org/2000/svg" width="32" height="32" viewBox="0 0 32 32">
<path fill="currentColor" d="M26.706 9.022c0.188 0.188 0.294 0.441 0.294 0.706v19.272c0 0.553-0.447 1-1 1h-20c-0.553 0-1-0.447-1-1v-26c0-0.553 0.447-1 1-1h13.272c0.266 0 0.522 0.106 0.709 0.294l6.725 6.728zM24.694 10.188l-5.881-5.881v5.881h5.881zM16 24.5c0.69 0 1.25-0.56 1.25-1.25s-0.56-1.25-1.25-1.25v0c-0.69 0-1.25 0.56-1.25 1.25s0.56 1.25 1.25 1.25v0zM17 19.75v-5.75c0-0.138-0.112-0.25-0.25-0.25v0h-1.5c-0.138 0-0.25 0.112-0.25 0.25v0 5.75c0 0.138 0.112 0.25 0.25 0.25v0h1.5c0.138 0 0.25-0.112 0.25-0.25v0z"/>
</svg>
