<svg version="1.1" xmlns="http://www.w3.org/2000/svg" width="32" height="32" viewBox="0 0 32 32">
<path fill="currentColor" d="M26.706 9.022c0.188 0.188 0.294 0.441 0.294 0.706v19.272c0 0.553-0.447 1-1 1h-20c-0.553 0-1-0.447-1-1v-26c0-0.553 0.447-1 1-1h13.272c0.266 0 0.522 0.106 0.709 0.294l6.725 6.728zM24.694 10.188l-5.881-5.881v5.881h5.881zM9.25 4.25v2h2v-2h-2zM11.25 6.25v2h2v-2h-2zM9.25 8.25v2h2v-2h-2zM11.25 10.25v2h2v-2h-2zM9.25 12.25v2h2v-2h-2zM11.25 14.25v2h2v-2h-2zM9.25 16.25v2h2v-2h-2zM9.25 18.25v5h4v-5h-4zM10.75 19.75h1v2h-1v-2z"/>
</svg>
