<svg version="1.1" xmlns="http://www.w3.org/2000/svg" width="32" height="32" viewBox="0 0 32 32">
<path fill="currentColor" d="M26.706 9.022c0.188 0.188 0.294 0.441 0.294 0.706v19.272c0 0.553-0.447 1-1 1h-20c-0.553 0-1-0.447-1-1v-26c0-0.553 0.447-1 1-1h13.272c0.266 0 0.522 0.106 0.709 0.294l6.725 6.728zM24.694 10.188l-5.881-5.881v5.881h5.881zM19.788 19.914c-0.474-0.016-0.979 0.021-1.552 0.093-0.759-0.468-1.271-1.112-1.634-2.057l0.033-0.137 0.039-0.162c0.134-0.567 0.207-0.98 0.228-1.397 0.016-0.315-0.001-0.605-0.057-0.874-0.103-0.581-0.514-0.921-1.032-0.942-0.483-0.020-0.927 0.25-1.040 0.668-0.185 0.676-0.077 1.565 0.315 3.081-0.499 1.189-1.158 2.583-1.6 3.361-0.59 0.304-1.050 0.581-1.436 0.888-0.509 0.405-0.828 0.822-0.915 1.259-0.043 0.203 0.022 0.468 0.168 0.685 0.166 0.246 0.415 0.406 0.714 0.429 0.755 0.058 1.682-0.72 2.706-2.477 0.103-0.034 0.212-0.071 0.344-0.116l0.372-0.126c0.235-0.079 0.406-0.136 0.575-0.191 0.731-0.238 1.284-0.388 1.788-0.474 0.874 0.468 1.885 0.775 2.566 0.775 0.562 0 0.942-0.291 1.079-0.75 0.12-0.402 0.025-0.869-0.234-1.128-0.267-0.263-0.759-0.388-1.427-0.41zM12.038 23.927v-0.011l0.004-0.011c0.050-0.129 0.109-0.239 0.179-0.342l-0.004 0.006c0.134-0.206 0.318-0.422 0.546-0.652 0.123-0.123 0.25-0.244 0.4-0.379 0.033-0.030 0.247-0.22 0.287-0.258l0.349-0.325-0.254 0.404c-0.385 0.614-0.733 1.056-1.031 1.344-0.11 0.106-0.206 0.184-0.284 0.235-0.023 0.016-0.050 0.031-0.078 0.043l-0.003 0.001c-0.013 0.005-0.024 0.008-0.035 0.009-0.003 0-0.006 0.001-0.009 0.001-0.009 0-0.019-0.002-0.027-0.005l0 0c-0.024-0.010-0.040-0.033-0.040-0.060 0 0 0-0 0-0v0zM15.974 17.106l-0.071 0.125-0.044-0.137c-0.097-0.307-0.168-0.77-0.188-1.188-0.023-0.475 0.015-0.76 0.165-0.76 0.211 0 0.307 0.338 0.315 0.845 0.007 0.446-0.063 0.911-0.178 1.114zM15.793 18.933l0.048-0.127 0.065 0.119c0.365 0.664 0.839 1.218 1.361 1.603l0.113 0.083-0.137 0.028c-0.51 0.106-0.986 0.264-1.636 0.527 0.068-0.027-0.676 0.277-0.864 0.349l-0.164 0.063 0.088-0.152c0.386-0.672 0.742-1.479 1.127-2.493zM20.718 21.316c-0.246 0.097-0.774 0.010-1.705-0.387l-0.236-0.101 0.256-0.019c0.728-0.054 1.244-0.014 1.544 0.096 0.128 0.047 0.213 0.106 0.251 0.173 0.014 0.022 0.022 0.048 0.022 0.077 0 0.050-0.025 0.094-0.064 0.12l-0 0c-0.019 0.017-0.042 0.030-0.066 0.040l-0.001 0z"/>
</svg>
