<svg version="1.1" xmlns="http://www.w3.org/2000/svg" width="32" height="32" viewBox="0 0 32 32">
<path fill="currentColor" d="M26.706 9.022c0.188 0.188 0.294 0.441 0.294 0.706v19.272c0 0.553-0.447 1-1 1h-20c-0.553 0-1-0.447-1-1v-26c0-0.553 0.447-1 1-1h13.272c0.266 0 0.522 0.106 0.709 0.294l6.725 6.728zM24.694 10.188l-5.881-5.881v5.881h5.881zM13.317 18.779l1.847 4.155c0.080 0.176 0.254 0.297 0.457 0.297h0.752c0 0 0 0 0 0 0.203 0 0.377-0.121 0.456-0.294l0.001-0.003 1.847-4.167v4.921c0 0.276 0.224 0.5 0.5 0.5 0 0 0 0 0 0h0.854c0.276 0 0.5-0.224 0.5-0.5v0-8.5c0-0.276-0.224-0.5-0.5-0.5v0h-1.086c-0.204 0-0.379 0.122-0.457 0.297l-0.001 0.003-2.484 5.706-2.484-5.706c-0.079-0.178-0.254-0.3-0.458-0.3 0 0-0 0-0 0h-1.092c-0.276 0-0.5 0.224-0.5 0.5v0 8.5c0 0.276 0.224 0.5 0.5 0.5v0h0.848c0.276 0 0.5-0.224 0.5-0.5v0-4.908z"/>
</svg>
