<svg version="1.1" xmlns="http://www.w3.org/2000/svg" width="32" height="32" viewBox="0 0 32 32">
<path fill="currentColor" d="M15 18.125h-3.375c-0.138 0-0.25 0.112-0.25 0.25v0 1.5c0 0.138 0.112 0.25 0.25 0.25v0h3.375v3.375c0 0.138 0.112 0.25 0.25 0.25v0h1.5c0.138 0 0.25-0.112 0.25-0.25v0-3.375h3.375c0.138 0 0.25-0.112 0.25-0.25v0-1.5c0-0.138-0.112-0.25-0.25-0.25v0h-3.375v-3.375c0-0.138-0.112-0.25-0.25-0.25v0h-1.5c-0.138 0-0.25 0.112-0.25 0.25v0 3.375zM26.706 9.022c0.188 0.188 0.294 0.441 0.294 0.706v19.272c0 0.553-0.447 1-1 1h-20c-0.553 0-1-0.447-1-1v-26c0-0.553 0.447-1 1-1h13.272c0.266 0 0.522 0.106 0.709 0.294l6.725 6.728zM24.694 10.188l-5.881-5.881v5.881h5.881z"/>
</svg>
