<svg version="1.1" xmlns="http://www.w3.org/2000/svg" width="32" height="32" viewBox="0 0 32 32">
<path fill="currentColor" d="M26.706 9.022c0.188 0.188 0.294 0.441 0.294 0.706v19.272c0 0.553-0.447 1-1 1h-20c-0.553 0-1-0.447-1-1v-26c0-0.553 0.447-1 1-1h13.272c0.266 0 0.522 0.106 0.709 0.294l6.725 6.728zM24.694 10.188l-5.881-5.881v5.881h5.881zM17.979 14.932l-1.913 3.197-1.932-3.198c-0.067-0.109-0.185-0.181-0.321-0.181-0 0-0 0-0 0h-1.201c-0.074 0-0.143 0.022-0.201 0.059l0.002-0.001c-0.106 0.068-0.175 0.184-0.175 0.317 0 0.074 0.022 0.143 0.059 0.202l-0.001-0.002 2.573 4.076-2.608 4.149c-0.036 0.057-0.057 0.126-0.057 0.2 0 0 0 0 0 0v0c0 0.207 0.168 0.375 0.375 0.375v0h1.077c0.134-0 0.252-0.071 0.318-0.177l0.001-0.002 1.959-3.171 1.947 3.17c0.067 0.108 0.185 0.179 0.32 0.179 0 0 0 0 0 0h1.171c0 0 0 0 0 0 0.075 0 0.145-0.022 0.204-0.060l-0.001 0.001c0.104-0.068 0.172-0.184 0.172-0.316 0-0.075-0.022-0.145-0.060-0.204l0.001 0.001-2.62-4.080 2.666-4.14c0.037-0.057 0.059-0.127 0.059-0.203 0-0 0-0 0-0.001v0c0-0.207-0.168-0.375-0.375-0.375v0h-1.116c-0.136 0-0.255 0.072-0.321 0.181l-0.001 0.002z"/>
</svg>
