<svg version="1.1" xmlns="http://www.w3.org/2000/svg" width="32" height="32" viewBox="0 0 32 32">
<path fill="currentColor" d="M26.706 9.022c0.188 0.188 0.294 0.441 0.294 0.706v19.272c0 0.553-0.447 1-1 1h-20c-0.553 0-1-0.447-1-1v-26c0-0.553 0.447-1 1-1h13.272c0.266 0 0.522 0.106 0.709 0.294l6.725 6.728zM24.694 10.188l-5.881-5.881v5.881h5.881zM12.563 17.156c0 0.169 0.137 0.297 0.306 0.297h1.012c0.169 0 0.306-0.131 0.306-0.294 0-0.881 0.806-1.613 1.813-1.613s1.813 0.731 1.813 1.609c0 0.791-0.656 1.475-1.541 1.591-0.603 0.087-1.078 0.634-1.084 1.253v1c0 0.172 0.141 0.313 0.313 0.313h1c0.172 0 0.313-0.141 0.313-0.313v-0.381c0-0.188 0.125-0.359 0.303-0.416 1.394-0.45 2.344-1.688 2.322-3.091-0.025-1.734-1.538-3.15-3.391-3.175-1.919-0.022-3.484 1.425-3.484 3.219zM16 24.25c0.552 0 1-0.448 1-1s-0.448-1-1-1v0c-0.552 0-1 0.448-1 1s0.448 1 1 1v0z"/>
</svg>
