<svg version="1.1" xmlns="http://www.w3.org/2000/svg" width="32" height="32" viewBox="0 0 32 32">
<path fill="currentColor" d="M26.706 9.022c0.188 0.188 0.294 0.441 0.294 0.706v19.272c0 0.553-0.447 1-1 1h-20c-0.553 0-1-0.447-1-1v-26c0-0.553 0.447-1 1-1h13.272c0.266 0 0.522 0.106 0.709 0.294l6.725 6.728zM24.694 10.188l-5.881-5.881v5.881h5.881zM14.642 23.75v-2.861h1.852c1.893 0 3.131-1.239 3.131-3.066 0-1.819-1.237-3.073-3.124-3.073h-3.251c-0.207 0-0.375 0.168-0.375 0.375v0 8.625c0 0.207 0.168 0.375 0.375 0.375v0h1.017c0.207 0 0.375-0.168 0.375-0.375v0zM14.642 19.396h1.091c1.494 0 2.1-0.404 2.1-1.573 0-1.002-0.566-1.566-1.558-1.566h-1.632v3.139z"/>
</svg>
