<svg version="1.1" xmlns="http://www.w3.org/2000/svg" width="32" height="32" viewBox="0 0 32 32">
<path fill="currentColor" d="M26.066 14.662c-0.636-1.411-1.51-2.608-2.583-3.593l-0.008-0.007-0.909-0.834c-0.044-0.040-0.104-0.064-0.168-0.064-0.109 0-0.202 0.069-0.237 0.166l-0.001 0.002-0.406 1.166c-0.253 0.731-0.719 1.478-1.378 2.213-0.044 0.047-0.094 0.059-0.128 0.063s-0.087-0.003-0.134-0.047c-0.044-0.037-0.066-0.094-0.063-0.15 0.116-1.881-0.447-4.003-1.678-6.313-1.019-1.919-2.434-3.416-4.203-4.459l-1.291-0.759c-0.169-0.1-0.384 0.031-0.375 0.228l0.069 1.5c0.047 1.025-0.072 1.931-0.353 2.684-0.344 0.922-0.838 1.778-1.469 2.547-0.443 0.537-0.93 1.009-1.464 1.425l-0.021 0.015c-1.306 1.011-2.363 2.279-3.105 3.734l-0.029 0.062c-0.713 1.406-1.13 3.065-1.131 4.822v0c0 1.475 0.291 2.903 0.866 4.25 0.586 1.348 1.381 2.498 2.358 3.465l0.001 0.001c1.012 1 2.188 1.788 3.497 2.334 1.356 0.569 2.794 0.856 4.278 0.856s2.922-0.288 4.278-0.853c1.359-0.574 2.52-1.362 3.497-2.335l-0 0c1.012-1 1.806-2.169 2.359-3.466 0.547-1.247 0.866-2.7 0.866-4.228 0-0.008 0-0.016-0-0.024v0.001c0-1.525-0.313-3.006-0.934-4.403z"/>
</svg>
