<svg version="1.1" xmlns="http://www.w3.org/2000/svg" width="32" height="32" viewBox="0 0 32 32">
<path fill="currentColor" d="M26.25 6h-1.75v-2.25c0-0.416-0.334-0.75-0.75-0.75h-18.5c-0.416 0-0.75 0.334-0.75 0.75v8.5c0 0.416 0.334 0.75 0.75 0.75h18.5c0.416 0 0.75-0.334 0.75-0.75v-4.25h1v6.25h-10.969c-0.691 0-1.25 0.559-1.25 1.25v4.25h-1.375c-0.137 0-0.25 0.113-0.25 0.25v7.125c0 0.034 0.006 0.069 0.019 0.097-0.012 0.050-0.019 0.1-0.019 0.153 0 1.45 1.175 2.625 2.625 2.625s2.625-1.175 2.625-2.625c0-0.053-0.006-0.103-0.019-0.153 0.012-0.031 0.019-0.063 0.019-0.097v-7.125c0-0.137-0.113-0.25-0.25-0.25h-1.375v-3.5h10.969c0.691 0 1.25-0.559 1.25-1.25v-7.75c0-0.691-0.559-1.25-1.25-1.25z"/>
</svg>
