<svg version="1.1" xmlns="http://www.w3.org/2000/svg" width="32" height="32" viewBox="0 0 32 32">
<path fill="currentColor" d="M16 2c-7.731 0-14 6.269-14 14s6.269 14 14 14 14-6.269 14-14-6.269-14-14-14zM9 13.156c0.017-0.815 0.682-1.47 1.5-1.47s1.483 0.654 1.5 1.468l0 0.002c-0.017 0.815-0.682 1.47-1.5 1.47s-1.483-0.654-1.5-1.468l-0-0.002zM20.75 21.656h-1.503c-0.131 0-0.244-0.1-0.253-0.231-0.119-1.547-1.416-2.769-2.994-2.769s-2.878 1.222-2.994 2.769c-0.009 0.131-0.122 0.231-0.253 0.231h-1.503c-0 0-0 0-0 0-0.138 0-0.25-0.112-0.25-0.25 0-0.004 0-0.009 0-0.013l-0 0.001c0.137-2.634 2.328-4.738 5-4.738s4.862 2.103 5 4.738c0 0.004 0 0.008 0 0.012 0 0.138-0.112 0.25-0.25 0.25-0 0-0 0-0 0h0zM21.5 14.656c-0.815-0.017-1.47-0.682-1.47-1.5s0.654-1.483 1.468-1.5l0.002-0c0.815 0.017 1.47 0.682 1.47 1.5s-0.654 1.483-1.468 1.5l-0.002 0z"/>
</svg>
