<svg version="1.1" xmlns="http://www.w3.org/2000/svg" width="32" height="32" viewBox="0 0 32 32">
<path fill="currentColor" d="M28.938 5.125h-26c-0.553 0-1 0.447-1 1v20c0 0.553 0.447 1 1 1h26c0.553 0 1-0.447 1-1v-20c0-0.553-0.447-1-1-1zM26.053 11.2l-9.281 9.287c-0.045 0.045-0.108 0.073-0.177 0.073s-0.131-0.028-0.177-0.073l-3.578-3.578-5.391 5.394c-0.045 0.045-0.108 0.073-0.177 0.073s-0.131-0.028-0.177-0.073l-1.15-1.15c-0.045-0.045-0.073-0.108-0.073-0.177s0.028-0.131 0.073-0.177l6.716-6.719c0.097-0.097 0.256-0.097 0.353 0l3.578 3.575 7.953-7.956c0.097-0.097 0.256-0.097 0.353 0l1.15 1.15c0.1 0.094 0.1 0.253 0.003 0.35z"/>
</svg>
