<svg version="1.1" xmlns="http://www.w3.org/2000/svg" width="32" height="32" viewBox="0 0 32 32">
<path fill="currentColor" d="M5 27.938c0 0.553 0.447 1 1 1h8.938v-11.75h-9.938v10.75zM17.063 28.938h8.938c0.553 0 1-0.447 1-1v-10.75h-9.938v11.75zM27.5 9.688h-4.613c0.425-0.669 0.675-1.463 0.675-2.313 0-2.378-1.934-4.313-4.313-4.313-1.294 0-2.459 0.575-3.25 1.481-0.791-0.906-1.956-1.481-3.25-1.481-2.378 0-4.313 1.934-4.313 4.313 0 0.85 0.247 1.644 0.675 2.313h-4.612c-0.553 0-1 0.447-1 1v4.375h11.438v-5.375h2.125v5.375h11.438v-4.375c0-0.553-0.447-1-1-1zM14.938 9.563h-2.188c-1.206 0-2.188-0.981-2.188-2.188s0.981-2.188 2.188-2.188 2.188 0.981 2.188 2.188v2.188zM19.25 9.563h-2.188v-2.188c0-1.206 0.981-2.188 2.188-2.188s2.188 0.981 2.188 2.188-0.981 2.188-2.188 2.188z"/>
</svg>
