<svg version="1.1" xmlns="http://www.w3.org/2000/svg" width="32" height="32" viewBox="0 0 32 32">
<path fill="currentColor" d="M28.309 25.209l-1.256-7.75c-0.019-0.122-0.125-0.209-0.247-0.209h-8.175c-0.122 0-0.228 0.087-0.247 0.209l-1.256 7.75c-0.003 0.012-0.003 0.028-0.003 0.041 0 0.137 0.113 0.25 0.25 0.25h10.688c0.012 0 0.028 0 0.041-0.003 0.134-0.022 0.228-0.15 0.206-0.288zM13.616 17.459c-0.019-0.122-0.125-0.209-0.247-0.209h-8.175c-0.122 0-0.228 0.087-0.247 0.209l-1.256 7.75c-0.003 0.012-0.003 0.028-0.003 0.041 0 0.137 0.112 0.25 0.25 0.25h10.688c0.012 0 0.028 0 0.041-0.003 0.137-0.022 0.228-0.15 0.206-0.288l-1.256-7.75zM10.688 14.75h10.688c0.012 0 0.028 0 0.041-0.003 0.137-0.022 0.228-0.15 0.206-0.287l-1.256-7.75c-0.019-0.122-0.125-0.209-0.247-0.209h-8.175c-0.122 0-0.228 0.088-0.247 0.209l-1.256 7.75c-0.003 0.012-0.003 0.028-0.003 0.041 0 0.137 0.113 0.25 0.25 0.25z"/>
</svg>
