<svg version="1.1" xmlns="http://www.w3.org/2000/svg" width="32" height="32" viewBox="0 0 32 32">
<path fill="currentColor" d="M16 2c-7.731 0-14 6.269-14 14s6.269 14 14 14 14-6.269 14-14-6.269-14-14-14zM21.219 21.8c-1.269 1.169-3 1.856-5.066 1.856-2.991 0-5.578-1.716-6.838-4.216-0.519-1.034-0.816-2.203-0.816-3.441s0.297-2.406 0.816-3.441c1.259-2.503 3.847-4.219 6.838-4.219 2.063 0 3.794 0.759 5.122 1.994l-2.194 2.197c-0.794-0.759-1.803-1.144-2.925-1.144-1.994 0-3.681 1.347-4.284 3.156-0.153 0.459-0.241 0.95-0.241 1.456s0.088 0.997 0.241 1.456c0.603 1.809 2.291 3.156 4.281 3.156 1.031 0 1.906-0.272 2.591-0.731 0.813-0.544 1.35-1.353 1.528-2.313h-4.119v-2.963h7.209c0.091 0.503 0.137 1.025 0.137 1.566 0 2.334-0.834 4.294-2.281 5.628z"/>
</svg>
