<svg version="1.1" xmlns="http://www.w3.org/2000/svg" width="32" height="32" viewBox="0 0 32 32">
<path fill="currentColor" d="M27.5 3.5h-23c-0.553 0-1 0.447-1 1v23c0 0.553 0.447 1 1 1h23c0.553 0 1-0.447 1-1v-23c0-0.553-0.447-1-1-1zM17.141 19.462c-1.372 1.931-4.128 2.494-6.278 1.666-2.156-0.822-3.688-3.1-3.503-5.422 0.047-2.841 2.663-5.331 5.503-5.234 1.363-0.063 2.644 0.528 3.688 1.363-0.447 0.506-0.906 0.994-1.4 1.447-1.253-0.866-3.037-1.113-4.291-0.113-1.794 1.241-1.875 4.169-0.15 5.503 1.678 1.522 4.85 0.766 5.316-1.566-1.050-0.016-2.106 0-3.156-0.034-0.003-0.628-0.006-1.253-0.003-1.881 1.756-0.006 3.516-0.009 5.275 0.006 0.103 1.478-0.094 3.047-1 4.266zM24.719 16.766c-0.525 0.006-1.050 0.009-1.575 0.012-0.006 0.525-0.009 1.050-0.009 1.575h-1.572c-0.006-0.525-0.006-1.047-0.009-1.572-0.525-0.006-1.050-0.009-1.575-0.016v-1.566c0.525-0.006 1.050-0.009 1.575-0.009 0.003-0.525 0.009-1.050 0.012-1.575h1.569l0.009 1.575c0.525 0.006 1.050 0.006 1.575 0.009v1.566z"/>
</svg>
