<svg version="1.1" xmlns="http://www.w3.org/2000/svg" width="32" height="32" viewBox="0 0 32 32">
<path fill="currentColor" d="M29.925 15.856l-11.075-10.912c-0.045-0.045-0.107-0.073-0.175-0.073s-0.13 0.028-0.175 0.073v0l-7.459 7.35c-0.046 0.045-0.074 0.108-0.074 0.178 0 0.068 0.027 0.13 0.071 0.175l0.003 0.003 1.25 1.231-3.662 3.603c-0.046 0.045-0.074 0.108-0.074 0.178 0 0.068 0.027 0.13 0.071 0.175l0.003 0.003 1.234 1.216-5.909 5.844h-1.7c-0.138 0-0.253 0.113-0.253 0.25v1.725c0 0.137 0.112 0.25 0.25 0.25h10.778c0.066 0 0.128-0.025 0.175-0.072l2.378-2.363 1.262 1.244c0.045 0.045 0.107 0.073 0.175 0.073s0.13-0.028 0.175-0.073v0l3.659-3.613 1.253 1.234c0.045 0.045 0.107 0.073 0.175 0.073s0.13-0.028 0.175-0.073v0l7.459-7.35c0.106-0.094 0.106-0.25 0.009-0.35z"/>
</svg>
