<svg version="1.1" xmlns="http://www.w3.org/2000/svg" width="32" height="32" viewBox="0 0 32 32">
<path fill="currentColor" d="M11.656 12.844c-0.891 0-1.616 0.728-1.616 1.625s0.725 1.625 1.616 1.625 1.616-0.728 1.616-1.625-0.725-1.625-1.616-1.625zM29 5h-26c-0.553 0-1 0.447-1 1v20c0 0.553 0.447 1 1 1h26c0.553 0 1-0.447 1-1v-20c0-0.553-0.447-1-1-1zM19 13.125c0-0.137 0.031-0.25 0.072-0.25h3.856c0.041 0 0.072 0.113 0.072 0.25v1.5c0 0.137-0.031 0.25-0.072 0.25h-3.856c-0.041 0-0.072-0.113-0.072-0.25v-1.5zM16.313 21.031h-1.372c-0.131 0-0.238-0.103-0.247-0.234-0.119-1.578-1.438-2.828-3.037-2.828s-2.919 1.25-3.037 2.828c-0.009 0.131-0.116 0.234-0.247 0.234h-1.372c-0 0-0 0-0 0-0.138 0-0.25-0.112-0.25-0.25 0-0.004 0-0.009 0-0.013l-0 0.001c0.088-1.666 1-3.116 2.331-3.941-0.564-0.618-0.909-1.444-0.909-2.351 0-0.003 0-0.006 0-0.009v0c0-1.934 1.559-3.5 3.481-3.5s3.481 1.566 3.481 3.5c0 0.909-0.344 1.734-0.909 2.359 1.334 0.828 2.244 2.275 2.331 3.941 0.012 0.144-0.1 0.262-0.244 0.262zM25.028 19.375h-5.806c-0.122 0-0.222-0.113-0.222-0.25v-1.5c0-0.137 0.1-0.25 0.222-0.25h5.803c0.122 0 0.222 0.113 0.222 0.25v1.5h0.003c0 0.137-0.1 0.25-0.222 0.25z"/>
</svg>
