<svg version="1.1" xmlns="http://www.w3.org/2000/svg" width="32" height="32" viewBox="0 0 32 32">
<path fill="currentColor" d="M27.5 3.5h-23c-0.553 0-1 0.447-1 1v23c0 0.553 0.447 1 1 1h23c0.553 0 1-0.447 1-1v-23c0-0.553-0.447-1-1-1zM23.934 17.403h-10.275c0 3.137 4.509 4.25 6.15 1.481h3.775c-1.019 2.866-3.741 4.563-6.775 4.563-1.097 0-2.197-0.003-3.178-0.488-2.731 1.391-5.634 1.769-5.634-1.313 0-1.431 0.725-3.347 1.375-4.531 1.097-1.991 2.544-3.903 4.241-5.412-1.366 0.591-2.847 2.072-3.813 3.162 0.809-3.525 4.047-6.050 7.409-5.828 4.063-1.869 6.553-1.066 6.553 1.206 0 0.856-0.331 1.978-0.669 2.747 0.788 1.422 1.041 3.050 0.841 4.412zM21.675 8.887c-0.75 0-1.597 0.366-2.269 0.688 1.447 0.563 2.688 1.791 3.509 3.113 0.222-0.591 0.456-1.497 0.456-2.122 0-1-0.712-1.678-1.697-1.678zM16.891 12.472c-1.678 0-3.188 1.241-3.25 2.966h6.5c-0.063-1.722-1.581-2.966-3.25-2.966zM10.019 18.841c-2.281 4.762 0.359 5.381 3.134 3.853-1.456-0.859-2.581-2.256-3.134-3.853z"/>
</svg>
