<svg version="1.1" xmlns="http://www.w3.org/2000/svg" width="32" height="32" viewBox="0 0 32 32">
<path fill="currentColor" d="M27.5 3.5h-23c-0.553 0-1 0.447-1 1v23c0 0.553 0.447 1 1 1h23c0.553 0 1-0.447 1-1v-23c0-0.553-0.447-1-1-1zM22.688 18.303c0 1.728-1.397 3.128-3.116 3.128h-6.428v1.669c0 0.178-0.203 0.275-0.341 0.166l-3.409-2.678c-0.109-0.084-0.109-0.25 0-0.334l3.409-2.678c0.137-0.109 0.341-0.009 0.341 0.166v1.669h6.428c0.613 0 1.109-0.5 1.109-1.113v-2.466c0-0.116 0.094-0.213 0.212-0.213h1.584c0.116 0 0.212 0.094 0.212 0.213v2.472zM22.606 11.744l-3.409 2.678c-0.137 0.109-0.341 0.009-0.341-0.166v-1.669h-6.428c-0.613 0-1.109 0.5-1.109 1.113v2.466c0 0.116-0.094 0.212-0.213 0.212h-1.584c-0.116 0-0.213-0.094-0.213-0.212v-2.466c0-1.728 1.397-3.128 3.116-3.128h6.428v-1.669c0-0.178 0.203-0.275 0.341-0.166l3.409 2.678c0.113 0.078 0.113 0.244 0.003 0.328z"/>
</svg>
