<svg version="1.1" xmlns="http://www.w3.org/2000/svg" width="32" height="32" viewBox="0 0 32 32">
<path fill="currentColor" d="M27.684 16.678c0.525-0.694 0.816-1.544 0.816-2.428 0-1.403-0.784-2.731-2.047-3.472-0.306-0.183-0.675-0.291-1.070-0.291-0.001 0-0.001 0-0.002 0h-7.494l0.188-3.841c0.044-0.928-0.284-1.809-0.922-2.481-0.609-0.643-1.469-1.044-2.422-1.044-0.004 0-0.009 0-0.013 0h0.001c-1.625 0-3.063 1.094-3.494 2.659l-2.684 9.719h-0.009v13.375h14.759c0.288 0 0.569-0.056 0.828-0.169 1.488-0.634 2.447-2.087 2.447-3.7 0-0.394-0.056-0.781-0.169-1.156 0.525-0.694 0.816-1.544 0.816-2.428 0-0.394-0.056-0.781-0.169-1.156 0.525-0.694 0.816-1.544 0.816-2.428-0.006-0.394-0.063-0.784-0.175-1.159zM3.5 16.5v11.375c0 0.553 0.447 1 1 1h2.031v-13.375h-2.031c-0.553 0-1 0.447-1 1z"/>
</svg>
