<svg version="1.1" xmlns="http://www.w3.org/2000/svg" width="32" height="32" viewBox="0 0 32 32">
<path fill="currentColor" d="M27.5 3.5h-23c-0.553 0-1 0.447-1 1v23c0 0.553 0.447 1 1 1h23c0.553 0 1-0.447 1-1v-23c0-0.553-0.447-1-1-1zM10.916 24.803h-3.709v-11.931h3.709v11.931zM9.063 11.241c-1.187 0-2.15-0.963-2.15-2.15s0.963-2.15 2.15-2.15c1.187 0 2.15 0.963 2.15 2.15v0c-0.003 1.188-0.966 2.15-2.15 2.15zM24.803 24.803h-3.706v-5.803c0-1.384-0.025-3.162-1.928-3.162-1.928 0-2.225 1.506-2.225 3.062v5.903h-3.703v-11.931h3.556v1.631h0.050c0.494-0.938 1.703-1.928 3.509-1.928 3.756 0 4.447 2.472 4.447 5.684v6.544z"/>
</svg>
