<svg version="1.1" xmlns="http://www.w3.org/2000/svg" width="32" height="32" viewBox="0 0 32 32">
<path fill="currentColor" d="M19.5 21c0 0.828 0.672 1.5 1.5 1.5s1.5-0.672 1.5-1.5-0.672-1.5-1.5-1.5h-1.5v1.5zM22.5 11c0-0.828-0.672-1.5-1.5-1.5s-1.5 0.672-1.5 1.5v1.5h1.5c0.828 0 1.5-0.672 1.5-1.5z"/>
<path fill="currentColor" d="M29 2h-26c-0.553 0-1 0.447-1 1v26c0 0.553 0.447 1 1 1h26c0.553 0 1-0.447 1-1v-26c0-0.553-0.447-1-1-1zM21 17.5c1.934 0 3.5 1.566 3.5 3.5s-1.566 3.5-3.5 3.5-3.5-1.566-3.5-3.5v-1.5h-3v1.5c0 1.934-1.566 3.5-3.5 3.5s-3.5-1.566-3.5-3.5 1.566-3.5 3.5-3.5h1.5v-3h-1.5c-1.934 0-3.5-1.566-3.5-3.5s1.566-3.5 3.5-3.5 3.5 1.566 3.5 3.5v1.5h3v-1.5c0-1.934 1.566-3.5 3.5-3.5s3.5 1.566 3.5 3.5-1.566 3.5-3.5 3.5h-1.5v3h1.5z"/>
<path fill="currentColor" d="M14.5 14.5h3v3h-3zM11 9.5c-0.828 0-1.5 0.672-1.5 1.5s0.672 1.5 1.5 1.5h1.5v-1.5c0-0.828-0.672-1.5-1.5-1.5zM9.5 21c0 0.828 0.672 1.5 1.5 1.5s1.5-0.672 1.5-1.5v-1.5h-1.5c-0.828 0-1.5 0.672-1.5 1.5z"/>
</svg>
