<svg version="1.1" xmlns="http://www.w3.org/2000/svg" width="32" height="32" viewBox="0 0 32 32">
<path fill="currentColor" d="M26.225 8.691c-0.134-0.404-0.509-0.69-0.95-0.691h-2.275v-3.5c0-0.553-0.447-1-1-1h-12c-0.553 0-1 0.447-1 1v3.5h-2.275c-0 0-0.001 0-0.001 0-0.441 0-0.815 0.287-0.947 0.684l-0.002 0.007-2.275 6.997v11.813c0 0.553 0.447 1 1 1h23c0.553 0 1-0.447 1-1v-11.813l-2.275-6.997zM20.625 19.625c0 0.137-0.113 0.25-0.25 0.25h-3.375v3.375c0 0.137-0.113 0.25-0.25 0.25h-1.5c-0.137 0-0.25-0.113-0.25-0.25v-3.375h-3.375c-0.137 0-0.25-0.113-0.25-0.25v-1.5c0-0.137 0.113-0.25 0.25-0.25h3.375v-3.375c0-0.137 0.113-0.25 0.25-0.25h1.5c0.137 0 0.25 0.113 0.25 0.25v3.375h3.375c0.137 0 0.25 0.113 0.25 0.25v1.5zM20.75 8h-9.5v-2.25h9.5v2.25z"/>
</svg>
