<svg version="1.1" xmlns="http://www.w3.org/2000/svg" width="32" height="32" viewBox="0 0 32 32">
<path fill="currentColor" d="M27.5 3.5h-23c-0.553 0-1 0.447-1 1v23c0 0.553 0.447 1 1 1h23c0.553 0 1-0.447 1-1v-23c0-0.553-0.447-1-1-1zM24 9.928l-1.275 1.222c-0.113 0.084-0.166 0.222-0.144 0.356v8.991c-0.022 0.137 0.031 0.275 0.144 0.356l1.25 1.222v0.272h-6.275v-0.259l1.291-1.253c0.128-0.128 0.128-0.166 0.128-0.356v-7.275l-3.594 9.113h-0.484l-4.181-9.113v6.109c-0.037 0.256 0.053 0.516 0.234 0.7l1.681 2.034v0.272h-4.775v-0.272l1.681-2.034c0.142-0.147 0.23-0.347 0.23-0.567 0-0.047-0.004-0.093-0.012-0.137l0.001 0.005v-7.063c0.022-0.197-0.053-0.387-0.203-0.522l-1.494-1.8v-0.272h4.641l3.581 7.859 3.153-7.853h4.422v0.266z"/>
</svg>
