<svg version="1.1" xmlns="http://www.w3.org/2000/svg" width="32" height="32" viewBox="0 0 32 32">
<path fill="currentColor" d="M8.875 28.875c1.933 0 3.5-1.567 3.5-3.5 0-1.539-0.994-2.847-2.375-3.315l-0-8.884 12.078 3.955 0 2.997c-1.422 0.445-2.453 1.772-2.453 3.341 0 1.933 1.567 3.5 3.5 3.5s3.5-1.567 3.5-3.5c0-1.51-0.956-2.797-2.297-3.288l-0.001-3.532c-0-0.685-0.441-1.293-1.092-1.506l-13.236-4.334 0-0.868c1.364-0.463 2.35-1.743 2.374-3.257l0-0.058c0-1.933-1.567-3.5-3.5-3.5s-3.5 1.567-3.5 3.5c0 1.539 0.994 2.847 2.375 3.315v12.12c-1.381 0.468-2.375 1.776-2.375 3.315 0 1.933 1.567 3.5 3.5 3.5z"/>
</svg>
