<svg version="1.1" xmlns="http://www.w3.org/2000/svg" width="32" height="32" viewBox="0 0 32 32">
<path fill="currentColor" d="M28.884 10.575c-0.74-1.741-1.754-3.227-3.003-4.478l0 0c-1.246-1.254-2.73-2.27-4.378-2.975l-0.090-0.034c-1.589-0.688-3.44-1.088-5.384-1.088-0.010 0-0.020 0-0.030 0h-0.061c-1.891 0.009-3.719 0.384-5.441 1.122-1.723 0.747-3.193 1.764-4.427 3.014l-0.001 0.002c-1.236 1.247-2.239 2.728-2.934 4.371l-0.034 0.091c-0.676 1.589-1.069 3.437-1.069 5.377 0 0.031 0 0.062 0 0.093l-0-0.005c0.009 2.169 0.528 4.322 1.497 6.247v4.75c0 0.794 0.644 1.438 1.434 1.438h4.744c1.815 0.935 3.959 1.488 6.231 1.5h0.069c1.869 0 3.678-0.363 5.384-1.072 1.731-0.731 3.21-1.736 4.454-2.975l-0 0c1.288-1.278 2.3-2.772 3.009-4.438 0.734-1.725 1.109-3.559 1.119-5.453 0.006-1.903-0.363-3.75-1.087-5.488zM9.762 17.5c-0.825 0-1.497-0.672-1.497-1.5s0.672-1.5 1.497-1.5 1.497 0.672 1.497 1.5-0.669 1.5-1.497 1.5zM16 17.5c-0.825 0-1.497-0.672-1.497-1.5s0.672-1.5 1.497-1.5 1.497 0.672 1.497 1.5-0.672 1.5-1.497 1.5zM22.238 17.5c-0.825 0-1.497-0.672-1.497-1.5s0.672-1.5 1.497-1.5 1.497 0.672 1.497 1.5-0.672 1.5-1.497 1.5z"/>
</svg>
