<svg version="1.1" xmlns="http://www.w3.org/2000/svg" width="32" height="32" viewBox="0 0 32 32">
<path fill="currentColor" d="M28.484 21.866c-0.036-0.097-0.128-0.165-0.235-0.165-0.031 0-0.061 0.006-0.088 0.016l0.002-0.001-1.913 0.697v-16.819c0-1.175-0.95-2.125-2.125-2.125h-16.25c-1.175 0-2.125 0.95-2.125 2.125v16.819l-1.916-0.697c-0.028-0.009-0.056-0.016-0.084-0.016-0.138 0-0.25 0.113-0.25 0.25v1.863c0 0.103 0.066 0.197 0.166 0.234l11.991 4.363c0.222 0.081 0.462 0.081 0.684 0l11.994-4.359c0.1-0.038 0.166-0.131 0.166-0.234v-1.863c0-0.031-0.006-0.059-0.016-0.087zM20.866 10.084l-3.241 5.987h1.8c0.137 0 0.25 0.113 0.25 0.25v0.847c0 0.137-0.113 0.25-0.25 0.25h-2.384v1.219h2.384c0.137 0 0.25 0.113 0.25 0.25v0.847c0 0.137-0.113 0.25-0.25 0.25h-2.384v1.984c0 0.137-0.113 0.25-0.25 0.25h-1.559c-0.137 0-0.25-0.113-0.25-0.25v-1.981h-2.375c-0.137 0-0.25-0.113-0.25-0.25v-0.847c0-0.137 0.113-0.25 0.25-0.25h2.375v-1.219h-2.375c-0.137 0-0.25-0.113-0.25-0.25v-0.847c0-0.137 0.113-0.25 0.25-0.25h1.781l-3.247-5.988c-0.066-0.119-0.022-0.272 0.1-0.338 0.037-0.022 0.078-0.031 0.119-0.031h1.741c0.097 0.001 0.18 0.056 0.221 0.136l0.001 0.001 2.647 5.275h0.103l2.647-5.275c0.041-0.084 0.128-0.137 0.222-0.137h1.703c0.137 0 0.25 0.113 0.253 0.247 0 0.041-0.012 0.081-0.031 0.119z"/>
</svg>
