<svg version="1.1" xmlns="http://www.w3.org/2000/svg" width="32" height="32" viewBox="0 0 32 32">
<path fill="currentColor" d="M14.863 3.5c-2.314 0-4.366 1.324-5.404 3.268v7.415l2.883 1.765 0.106-7.366 5.906-3.983c-1.006-0.703-2.211-1.1-3.491-1.1zM21.203 5.445c-0.412 0-0.814 0.055-1.212 0.136l-5.828 3.93-0.043 3.005 5.831-3.914 7.226 4.29c0.096-0.434 0.152-0.877 0.152-1.323 0-3.376-2.748-6.124-6.125-6.124zM7.729 8.312c-2.5 0.772-4.323 3.101-4.323 5.85 0 0.873 0.185 1.713 0.525 2.48l7.671 4.368 2.83-1.754-6.703-4.105zM20.007 10.646l-2.272 1.527 6.375 4.002 0.806 7.357c2.192-0.934 3.71-3.094 3.71-5.622 0-0.861-0.183-1.692-0.518-2.454zM16.163 13.227l-2.074 1.393-0.033 2.379 2.022 1.239 2.173-1.345-0.057-2.39zM19.95 15.606l0.183 7.761-6.29 3.724c1.085 0.898 2.457 1.409 3.901 1.409 2.476 0 4.619-1.454 5.582-3.593l-0.846-7.712zM18.299 18.896l-6.66 4.125-6.34-3.61c-0.105 0.452-0.163 0.914-0.163 1.38 0 3.217 2.495 5.857 5.651 6.099l7.595-4.496z"/>
</svg>
