<svg version="1.1" xmlns="http://www.w3.org/2000/svg" width="32" height="32" viewBox="0 0 32 32">
<path fill="currentColor" d="M16 2c-7.731 0-14 6.269-14 14s6.269 14 14 14 14-6.269 14-14-6.269-14-14-14zM21.206 9.713l-3.472 6.4h1.938c0.137 0 0.25 0.113 0.25 0.25v0.934c0 0.137-0.113 0.25-0.25 0.25h-2.563v1.297h2.563c0.137 0 0.25 0.113 0.25 0.25v0.934c0 0.137-0.113 0.25-0.25 0.25h-2.563v2.128c0 0.137-0.113 0.25-0.25 0.25h-1.697c-0.137 0-0.25-0.113-0.25-0.25v-2.128h-2.553c-0.137 0-0.25-0.113-0.25-0.25v-0.934c0-0.137 0.113-0.25 0.25-0.25h2.553v-1.297h-2.553c-0.137 0-0.25-0.113-0.25-0.25v-0.934c0-0.137 0.113-0.25 0.25-0.25h1.919l-3.484-6.4c-0.019-0.035-0.030-0.076-0.030-0.12 0-0.138 0.111-0.25 0.249-0.252h1.897c0.094 0 0.181 0.053 0.222 0.137l2.831 5.625h0.106l2.831-5.625c0.042-0.082 0.125-0.137 0.222-0.137h1.859c0.137 0 0.25 0.113 0.25 0.25 0.006 0.044-0.006 0.084-0.025 0.122z"/>
</svg>
