<svg version="1.1" xmlns="http://www.w3.org/2000/svg" width="32" height="32" viewBox="0 0 32 32">
<path fill="currentColor" d="M27.675 7.194l-3.328-3.325c-0.457-0.459-1.091-0.744-1.79-0.744-0 0-0 0-0.001 0h0c-0.678 0-1.316 0.266-1.794 0.744l-3.581 3.581c-0.459 0.457-0.744 1.091-0.744 1.79 0 0 0 0 0 0.001v-0c0 0.678 0.266 1.316 0.744 1.794l2.619 2.619c-0.646 1.405-1.491 2.606-2.515 3.628l-0 0c-1.022 1.027-2.223 1.875-3.552 2.493l-0.076 0.032-2.619-2.619c-0.457-0.459-1.091-0.744-1.79-0.744-0 0-0 0-0.001 0h0c-0.678 0-1.316 0.266-1.794 0.744l-3.584 3.578c-0.459 0.458-0.744 1.091-0.744 1.791 0 0.001 0 0.002 0 0.003v-0c0 0.678 0.266 1.316 0.744 1.794l3.322 3.322c0.763 0.766 1.816 1.2 2.897 1.2 0.228 0 0.447-0.019 0.662-0.056 4.213-0.694 8.391-2.934 11.762-6.303 3.369-3.366 5.606-7.541 6.309-11.766 0.212-1.291-0.216-2.619-1.147-3.556z"/>
</svg>
