<svg version="1.1" xmlns="http://www.w3.org/2000/svg" width="32" height="32" viewBox="0 0 32 32">
<path fill="currentColor" d="M29 5h-26c-0.553 0-1 0.447-1 1v20c0 0.553 0.447 1 1 1h26c0.553 0 1-0.447 1-1v-20c0-0.553-0.447-1-1-1zM10.563 9.5c1.103 0 2 0.897 2 2s-0.897 2-2 2-2-0.897-2-2 0.897-2 2-2zM26.622 23.159c-0.044 0.037-0.1 0.059-0.162 0.059h-20.922c-0.138 0-0.25-0.113-0.25-0.25 0-0.059 0.022-0.116 0.059-0.163l5.322-6.313c0.088-0.106 0.247-0.119 0.353-0.031 0.009 0.009 0.022 0.019 0.031 0.031l3.106 3.688 4.941-5.859c0.087-0.106 0.247-0.119 0.353-0.031 0.009 0.009 0.022 0.019 0.031 0.031l7.175 8.488c0.081 0.103 0.069 0.262-0.038 0.35z"/>
</svg>
