<svg version="1.1" xmlns="http://www.w3.org/2000/svg" width="32" height="32" viewBox="0 0 32 32">
<path fill="currentColor" d="M26.972 16.203h-11.175v-11.175c0-0.138-0.113-0.25-0.25-0.25h-0.813c-0.004 0-0.008 0-0.013 0-3.444 0-6.561 1.397-8.815 3.656l-0 0c-1.112 1.108-2.014 2.426-2.644 3.888l-0.031 0.081c-0.65 1.541-0.981 3.175-0.981 4.863s0.331 3.319 0.981 4.859c0.628 1.484 1.528 2.822 2.675 3.969s2.481 2.047 3.969 2.675c1.428 0.622 3.092 0.984 4.841 0.984 0.008 0 0.015 0 0.023-0h-0.001c0.004 0 0.008 0 0.013 0 3.443 0 6.561-1.397 8.815-3.656l0-0c1.147-1.147 2.047-2.481 2.675-3.969 0.622-1.428 0.984-3.092 0.984-4.841 0-0.008 0-0.015-0-0.023v0.001-0.813c-0.003-0.137-0.116-0.25-0.253-0.25zM29.719 14.469l-0.081-0.881c-0.266-2.875-1.541-5.588-3.597-7.634-1.988-1.986-4.644-3.304-7.603-3.587l-0.050-0.004-0.884-0.081c-0.147-0.013-0.272 0.1-0.272 0.247v11.991c0 0.137 0.113 0.25 0.25 0.25l11.988-0.031c0.147-0.003 0.262-0.125 0.25-0.269z"/>
</svg>
