<svg version="1.1" xmlns="http://www.w3.org/2000/svg" width="32" height="32" viewBox="0 0 32 32">
<path fill="currentColor" d="M16 2c-7.72 0-14 6.28-14 14 0 6.016 3.815 11.158 9.153 13.134-0.154-1.371-0.13-3.615 0.124-4.702 0.238-1.021 1.535-6.505 1.535-6.505s-0.392-0.784-0.392-1.942c0-1.82 1.055-3.178 2.368-3.178 1.117 0 1.656 0.839 1.656 1.843 0 1.123-0.714 2.802-1.084 4.357-0.309 1.303 0.653 2.366 1.938 2.366 2.326 0 4.114-2.453 4.114-5.993 0-3.133-2.251-5.324-5.466-5.324-3.723 0-5.909 2.793-5.909 5.68 0 1.124 0.433 2.33 0.974 2.987 0.107 0.13 0.122 0.243 0.091 0.375-0.099 0.413-0.32 1.302-0.363 1.484-0.057 0.24-0.19 0.29-0.437 0.175-1.635-0.761-2.657-3.15-2.657-5.070 0-4.128 2.999-7.92 8.647-7.92 4.54 0 8.068 3.235 8.068 7.559 0 4.51-2.844 8.14-6.791 8.14-1.326 0-2.573-0.689-2.999-1.503 0 0-0.656 2.499-0.816 3.111-0.275 1.059-1.454 3.254-2.046 4.251 1.281 0.429 2.757 0.676 4.29 0.676 0.001 0 0.003 0 0.004 0h-0c7.72 0 14-6.28 14-14s-6.28-14-14-14z"/>
</svg>
