<svg version="1.1" xmlns="http://www.w3.org/2000/svg" width="32" height="32" viewBox="0 0 32 32">
<path fill="currentColor" d="M16 2c-7.731 0-14 6.269-14 14s6.269 14 14 14 14-6.269 14-14-6.269-14-14-14zM20.563 22.563c0 0.137-0.113 0.25-0.25 0.25h-8.556c-0.137 0-0.25-0.113-0.25-0.25v-1.203c0-0.116 0.078-0.216 0.191-0.244 1.375-0.341 2.275-1.531 2.275-2.944 0-0.459-0.078-0.919-0.184-1.381h-2.1c-0.137 0-0.25-0.113-0.25-0.25v-0.938c0-0.137 0.113-0.25 0.25-0.25h1.678c-0.244-0.784-0.456-1.584-0.456-2.409 0-2.369 1.831-3.759 4.734-3.759 0.828 0 1.606 0.172 2.197 0.397 0.097 0.037 0.163 0.131 0.163 0.234v1.234c0 0 0 0.001 0 0.001 0 0.138-0.112 0.25-0.25 0.25-0.029 0-0.057-0.005-0.083-0.014l0.002 0.001c-0.559-0.2-1.219-0.328-1.887-0.328-1.666 0-2.728 0.831-2.728 2.194 0 0.772 0.194 1.497 0.419 2.203h3.5c0.137 0 0.25 0.113 0.25 0.25v0.938c0 0.137-0.113 0.25-0.25 0.25h-3.081c0.097 0.413 0.166 0.841 0.166 1.281 0 1.272-0.516 2.309-1.372 2.847v0.147h5.625c0.137 0 0.25 0.113 0.25 0.25v1.244z"/>
</svg>
