<svg version="1.1" xmlns="http://www.w3.org/2000/svg" width="32" height="32" viewBox="0 0 32 32">
<path fill="currentColor" d="M22.875 3.75c0-0.138-0.113-0.25-0.25-0.25h-13.25c-0.137 0-0.25 0.112-0.25 0.25v4.625h13.75v-4.625zM26.625 10.375h-21.25c-1.381 0-2.5 1.119-2.5 2.5v10.25c0 0.553 0.447 1 1 1h5.25v4.125c0 0.137 0.113 0.25 0.25 0.25h13.25c0.137 0 0.25-0.113 0.25-0.25v-4.125h5.25c0.553 0 1-0.447 1-1v-10.25c0-1.381-1.119-2.5-2.5-2.5zM20.75 26.375h-9.5v-8.625h9.5v8.625zM25.875 15.125c0 0.137-0.113 0.25-0.25 0.25h-1.25c-0.137 0-0.25-0.113-0.25-0.25v-1.25c0-0.137 0.113-0.25 0.25-0.25h1.25c0.137 0 0.25 0.113 0.25 0.25v1.25z"/>
</svg>
