<svg version="1.1" xmlns="http://www.w3.org/2000/svg" width="32" height="32" viewBox="0 0 32 32">
<path fill="currentColor" d="M5 4.5h9.5c0.276 0 0.5 0.224 0.5 0.5v9.5c0 0.276-0.224 0.5-0.5 0.5h-9.5c-0.276 0-0.5-0.224-0.5-0.5v-9.5c0-0.276 0.224-0.5 0.5-0.5zM22.635 3.708l5.657 5.657c0.195 0.195 0.195 0.512 0 0.707l-5.657 5.657c-0.195 0.195-0.512 0.195-0.707 0l-5.657-5.657c-0.195-0.195-0.195-0.512 0-0.707l5.657-5.657c0.195-0.195 0.512-0.195 0.707 0zM5 17h9.5c0.276 0 0.5 0.224 0.5 0.5v9.5c0 0.276-0.224 0.5-0.5 0.5h-9.5c-0.276 0-0.5-0.224-0.5-0.5v-9.5c0-0.276 0.224-0.5 0.5-0.5zM17.5 17h9.5c0.276 0 0.5 0.224 0.5 0.5v9.5c0 0.276-0.224 0.5-0.5 0.5h-9.5c-0.276 0-0.5-0.224-0.5-0.5v-9.5c0-0.276 0.224-0.5 0.5-0.5z"/>
</svg>
