<svg version="1.1" xmlns="http://www.w3.org/2000/svg" width="32" height="32" viewBox="0 0 32 32">
<path fill="currentColor" d="M27.5 3.5h-23c-0.553 0-1 0.447-1 1v23c0 0.553 0.447 1 1 1h23c0.553 0 1-0.447 1-1v-23c0-0.553-0.447-1-1-1zM11.875 21.75c-0.691 0-1.25-0.559-1.25-1.25s0.559-1.25 1.25-1.25 1.25 0.559 1.25 1.25-0.559 1.25-1.25 1.25zM11.875 17.25c-0.691 0-1.25-0.559-1.25-1.25s0.559-1.25 1.25-1.25 1.25 0.559 1.25 1.25-0.559 1.25-1.25 1.25zM11.875 12.75c-0.691 0-1.25-0.559-1.25-1.25s0.559-1.25 1.25-1.25 1.25 0.559 1.25 1.25-0.559 1.25-1.25 1.25zM21.375 21.25c0 0.137-0.113 0.25-0.25 0.25h-5.75c-0.137 0-0.25-0.113-0.25-0.25v-1.5c0-0.137 0.113-0.25 0.25-0.25h5.75c0.137 0 0.25 0.113 0.25 0.25v1.5zM21.375 16.75c0 0.137-0.113 0.25-0.25 0.25h-5.75c-0.137 0-0.25-0.113-0.25-0.25v-1.5c0-0.137 0.113-0.25 0.25-0.25h5.75c0.137 0 0.25 0.113 0.25 0.25v1.5zM21.375 12.25c0 0.137-0.113 0.25-0.25 0.25h-5.75c-0.137 0-0.25-0.113-0.25-0.25v-1.5c0-0.137 0.113-0.25 0.25-0.25h5.75c0.137 0 0.25 0.113 0.25 0.25v1.5z"/>
</svg>
