<svg version="1.1" xmlns="http://www.w3.org/2000/svg" width="32" height="32" viewBox="0 0 32 32">
<path fill="currentColor" d="M27.5 3.5h-23c-0.553 0-1 0.447-1 1v23c0 0.553 0.447 1 1 1h23c0.553 0 1-0.447 1-1v-23c0-0.553-0.447-1-1-1zM11.5 23.25c0 0.137-0.113 0.25-0.25 0.25h-2.5c-0.137 0-0.25-0.113-0.25-0.25v-14.5c0-0.137 0.113-0.25 0.25-0.25h2.5c0.137 0 0.25 0.113 0.25 0.25v14.5zM17.5 14.5c0 0.137-0.113 0.25-0.25 0.25h-2.5c-0.137 0-0.25-0.113-0.25-0.25v-5.75c0-0.137 0.113-0.25 0.25-0.25h2.5c0.137 0 0.25 0.113 0.25 0.25v5.75zM23.5 16.75c0 0.137-0.113 0.25-0.25 0.25h-2.5c-0.137 0-0.25-0.113-0.25-0.25v-8c0-0.137 0.113-0.25 0.25-0.25h2.5c0.137 0 0.25 0.113 0.25 0.25v8z"/>
</svg>
