<svg version="1.1" xmlns="http://www.w3.org/2000/svg" width="32" height="32" viewBox="0 0 32 32">
<path fill="currentColor" d="M27.091 5.309l-10.619-3.619c-0.128-0.044-0.3-0.066-0.472-0.066s-0.344 0.022-0.472 0.066l-10.619 3.619c-0.259 0.088-0.472 0.388-0.472 0.662v15.075c0 0.275 0.178 0.637 0.394 0.809l10.772 8.394c0.109 0.084 0.25 0.128 0.394 0.128s0.288-0.044 0.394-0.128l10.772-8.394c0.216-0.169 0.394-0.531 0.394-0.809v-15.075c0.006-0.275-0.206-0.572-0.466-0.662zM20.259 10.4l-2.741 5.034h1.428c0.172 0 0.313 0.141 0.313 0.313v0.666c0 0.172-0.141 0.313-0.313 0.313h-1.981v0.928h1.981c0.172 0 0.313 0.141 0.313 0.313v0.666c0 0.172-0.141 0.313-0.313 0.313h-1.981v1.619c0 0.172-0.141 0.313-0.313 0.313h-1.291c-0.172 0-0.313-0.141-0.313-0.313v-1.619h-1.972c-0.172 0-0.313-0.141-0.313-0.313v-0.666c0-0.172 0.141-0.313 0.313-0.313h1.972v-0.928h-1.972c-0.172 0-0.313-0.141-0.313-0.313v-0.666c0-0.172 0.141-0.313 0.313-0.313h1.412l-2.75-5.034c-0.081-0.15-0.028-0.341 0.125-0.425 0.047-0.025 0.097-0.037 0.15-0.037h1.438c0.119 0 0.225 0.066 0.278 0.172l2.278 4.509 2.288-4.509c0.052-0.102 0.157-0.171 0.278-0.172h1.406c0.172 0 0.313 0.141 0.313 0.313 0.003 0.053-0.009 0.103-0.034 0.15z"/>
</svg>
