<svg version="1.1" xmlns="http://www.w3.org/2000/svg" width="32" height="32" viewBox="0 0 32 32">
<path fill="currentColor" d="M27.447 12.253l-7.7-7.7c-0.203-0.203-0.469-0.303-0.734-0.303s-0.531 0.1-0.734 0.303l-5.034 5.037c-0.381-0.044-0.766-0.063-1.15-0.063-2.287 0-4.575 0.753-6.453 2.259-0.481 0.384-0.519 1.106-0.084 1.544l5.678 5.678-6.731 6.725c-0.080 0.079-0.133 0.186-0.144 0.304l-0 0.002-0.106 1.163c-0.028 0.294 0.206 0.544 0.497 0.544 0.016 0 0.031 0 0.047-0.003l1.162-0.106c0.116-0.009 0.225-0.063 0.306-0.144l6.731-6.731 5.678 5.678c0.203 0.203 0.469 0.303 0.734 0.303 0.303 0 0.603-0.131 0.809-0.387 1.759-2.197 2.491-4.947 2.194-7.606l5.034-5.034c0.403-0.4 0.403-1.056 0-1.463z"/>
</svg>
