<svg version="1.1" xmlns="http://www.w3.org/2000/svg" width="32" height="32" viewBox="0 0 32 32">
<path fill="currentColor" d="M27.5 3.5h-23c-0.553 0-1 0.447-1 1v23c0 0.553 0.447 1 1 1h23c0.553 0 1-0.447 1-1v-23c0-0.553-0.447-1-1-1zM22.578 21.137c-0.359 0.044-1.403-1.647-1.403-1.647 0 0.978-0.506 2.256-1.597 3.181 0.528 0.163 1.716 0.6 1.434 1.075-0.228 0.384-3.925 0.247-4.994 0.125-1.069 0.119-4.766 0.259-4.994-0.125-0.284-0.475 0.903-0.913 1.431-1.075-1.094-0.922-1.597-2.2-1.597-3.181 0 0-1.044 1.691-1.403 1.647-0.169-0.022-0.387-0.925 0.294-3.116 0.322-1.031 0.688-1.891 1.256-3.306-0.097-3.653 1.416-6.719 5.013-6.719 3.559 0 5.103 3.003 5.012 6.719 0.566 1.412 0.934 2.275 1.256 3.306 0.678 2.191 0.456 3.097 0.291 3.116z"/>
</svg>
