<svg version="1.1" xmlns="http://www.w3.org/2000/svg" width="32" height="32" viewBox="0 0 32 32">
<path fill="currentColor" d="M16 2c-7.731 0-14 6.269-14 14s6.269 14 14 14 14-6.269 14-14-6.269-14-14-14zM16 24.125c-0.691 0-1.25-0.559-1.25-1.25s0.559-1.25 1.25-1.25 1.25 0.559 1.25 1.25-0.559 1.25-1.25 1.25zM17.966 17.266c-0.567 0.223-0.962 0.765-0.966 1.4v0.71c0 0.137-0.113 0.25-0.25 0.25h-1.5c-0.137 0-0.25-0.113-0.25-0.25v-0.672c0-0.722 0.209-1.434 0.622-2.028 0.403-0.581 0.966-1.025 1.628-1.278 1.063-0.409 1.75-1.3 1.75-2.272 0-1.378-1.347-2.5-3-2.5s-3 1.122-3 2.5v0.238c0 0.137-0.113 0.25-0.25 0.25h-1.5c-0.137 0-0.25-0.113-0.25-0.25v-0.238c0-1.228 0.537-2.375 1.512-3.228 0.938-0.822 2.175-1.272 3.488-1.272s2.55 0.453 3.488 1.272c0.975 0.853 1.512 2 1.512 3.228 0 1.806-1.191 3.431-3.034 4.141z"/>
</svg>
