<svg version="1.1" xmlns="http://www.w3.org/2000/svg" width="32" height="32" viewBox="0 0 32 32">
<path fill="currentColor" d="M26 2h-20c-0.553 0-1 0.447-1 1v26c0 0.553 0.447 1 1 1h20c0.553 0 1-0.447 1-1v-26c0-0.553-0.447-1-1-1zM20.219 14.7l-2.725 5.031h1.434c0.144 0 0.262 0.119 0.262 0.262v0.784c0 0.144-0.119 0.262-0.262 0.262h-1.978v0.894h1.978c0.144 0 0.262 0.119 0.262 0.262v0.781c0.006 0.144-0.113 0.266-0.256 0.266h-1.978v1.559c0 0.144-0.119 0.262-0.262 0.262h-1.366c-0.144 0-0.262-0.119-0.262-0.262v-1.559h-1.969c-0.144 0-0.262-0.119-0.262-0.262v-0.784c0-0.144 0.119-0.262 0.262-0.262h1.969v-0.894h-1.969c-0.144 0-0.262-0.119-0.262-0.262v-0.784c0-0.144 0.119-0.262 0.262-0.262h1.419l-2.734-5.031c-0.069-0.128-0.022-0.284 0.106-0.356 0.041-0.019 0.081-0.031 0.122-0.031h1.525c0.1 0 0.191 0.056 0.234 0.144l2.247 4.431 2.247-4.434c0.045-0.086 0.133-0.143 0.234-0.144h1.494c0.144 0 0.262 0.119 0.262 0.262-0.003 0.047-0.016 0.091-0.034 0.128zM16.019 10.094l-6.988-5.469h13.938l-6.95 5.469z"/>
</svg>
