<svg version="1.1" xmlns="http://www.w3.org/2000/svg" width="32" height="32" viewBox="0 0 32 32">
<path fill="currentColor" d="M18.25 17.125c0 0.621 0.504 1.125 1.125 1.125s1.125-0.504 1.125-1.125v0c0-0.621-0.504-1.125-1.125-1.125s-1.125 0.504-1.125 1.125v0zM22.75 13.75c-0 0-0 0-0.001 0-0.446 0-0.831 0.26-1.012 0.637l-0.003 0.007c0.587 0.447 1.075 0.959 1.434 1.525 0.418-0.17 0.708-0.573 0.708-1.044 0-0.621-0.503-1.124-1.124-1.124-0.001 0-0.002 0-0.002 0h0zM16 2c-7.731 0-14 6.269-14 14s6.269 14 14 14 14-6.269 14-14-6.269-14-14-14zM23.656 16.934c0.144 0.422 0.219 0.863 0.219 1.316 0 3.106-3.525 5.625-7.875 5.625s-7.875-2.519-7.875-5.625c0-0.453 0.075-0.894 0.219-1.316-0.797-0.358-1.342-1.145-1.342-2.059 0-1.242 1.007-2.249 2.249-2.25h0c0.847 0 1.581 0.466 1.966 1.156 1.131-0.619 2.506-1.025 4.003-1.128l1.825-4.097c0.134-0.306 0.475-0.463 0.797-0.369l2.863 0.828c0.291-0.533 0.847-0.888 1.487-0.888 0.932 0 1.688 0.756 1.688 1.688v0c0 0.931-0.756 1.688-1.688 1.688-0.734 0-1.359-0.472-1.591-1.128l-2.569-0.741-1.344 3.016c1.534 0.094 2.944 0.503 4.1 1.134 0.384-0.691 1.119-1.156 1.966-1.156 1.244 0 2.25 1.006 2.25 2.25-0.003 0.916-0.556 1.706-1.347 2.056zM18.303 19.528c-0.466 0.366-1.384 0.759-2.303 0.759s-1.841-0.394-2.303-0.759c-0.291-0.228-0.709-0.178-0.938 0.113s-0.178 0.709 0.113 0.938c0.803 0.637 2.031 1.047 3.128 1.047s2.325-0.409 3.131-1.047c0.291-0.228 0.341-0.65 0.113-0.938-0.124-0.156-0.314-0.256-0.527-0.256-0.157 0-0.301 0.054-0.415 0.144l0.001-0.001zM9.25 13.75c-0.001 0-0.001 0-0.002 0-0.621 0-1.124 0.503-1.124 1.124 0 0.471 0.29 0.874 0.7 1.042l0.008 0.003c0.359-0.566 0.847-1.078 1.434-1.525-0.184-0.384-0.569-0.644-1.015-0.644-0 0-0.001 0-0.001 0h0zM11.5 17.125c0 0.621 0.504 1.125 1.125 1.125s1.125-0.504 1.125-1.125v0c0-0.621-0.504-1.125-1.125-1.125s-1.125 0.504-1.125 1.125v0z"/>
</svg>
