<svg version="1.1" xmlns="http://www.w3.org/2000/svg" width="32" height="32" viewBox="0 0 32 32">
<path fill="currentColor" d="M26 8h-0.878l-1.116-3.778c-0.125-0.428-0.516-0.722-0.959-0.722h-14.094c-0.447 0-0.838 0.294-0.959 0.722l-1.116 3.778h-0.878c-0.553 0-1 0.447-1 1v0.875c0 0.137 0.112 0.25 0.25 0.25h1.431l1.491 17.459c0.045 0.515 0.474 0.916 0.996 0.916 0 0 0 0 0 0h13.412c0 0 0 0 0 0 0.523 0 0.952-0.401 0.996-0.912l0-0.004 1.491-17.459h1.681c0.137 0 0.25-0.113 0.25-0.25v-0.875c0-0.553-0.447-1-1-1zM15.875 22c-2.484 0-4.5-2.016-4.5-4.5s2.016-4.5 4.5-4.5 4.5 2.016 4.5 4.5-2.016 4.5-4.5 4.5zM9.094 8l0.7-2.375h12.412l0.7 2.375h-13.813zM13.375 17.5c0 1.381 1.119 2.5 2.5 2.5s2.5-1.119 2.5-2.5v0c0-1.381-1.119-2.5-2.5-2.5s-2.5 1.119-2.5 2.5v0z"/>
</svg>
