<svg version="1.1" xmlns="http://www.w3.org/2000/svg" width="32" height="32" viewBox="0 0 32 32">
<path fill="currentColor" d="M26.625 2h-21.25c-0.553 0-1 0.447-1 1v20.625c0 0.553 0.447 1 1 1h21.25c0.553 0 1-0.447 1-1v-20.625c0-0.553-0.447-1-1-1zM9.375 10.25c0-1.034 0.841-1.875 1.875-1.875s1.875 0.841 1.875 1.875-0.841 1.875-1.875 1.875-1.875-0.841-1.875-1.875zM21 18c0 0.137-0.113 0.25-0.25 0.25h-9.5c-0.137 0-0.25-0.113-0.25-0.25v-1.875c0-0.137 0.113-0.25 0.25-0.25h9.5c0.137 0 0.25 0.113 0.25 0.25v1.875zM20.75 12.125c-1.034 0-1.875-0.841-1.875-1.875s0.841-1.875 1.875-1.875 1.875 0.841 1.875 1.875-0.841 1.875-1.875 1.875zM24.969 27h-17.938c-0.431 0-0.781 0.447-0.781 1v1.75c0 0.137 0.088 0.25 0.194 0.25h19.109c0.106 0 0.194-0.113 0.194-0.25v-1.75c0.003-0.553-0.347-1-0.778-1z"/>
</svg>
