<svg version="1.1" xmlns="http://www.w3.org/2000/svg" width="32" height="32" viewBox="0 0 32 32">
<path fill="currentColor" d="M27.091 5.309l-10.619-3.619c-0.128-0.044-0.3-0.066-0.472-0.066s-0.344 0.022-0.472 0.066l-10.619 3.619c-0.259 0.088-0.472 0.388-0.472 0.662v15.075c0 0.275 0.178 0.637 0.394 0.809l10.772 8.394c0.109 0.084 0.25 0.128 0.394 0.128s0.288-0.044 0.394-0.128l10.772-8.394c0.216-0.169 0.394-0.531 0.394-0.809v-15.075c0.006-0.275-0.206-0.572-0.466-0.662zM21.703 10.647l-6.644 9.147c-0.093 0.126-0.24 0.206-0.406 0.206s-0.314-0.081-0.405-0.205l-0.001-0.001-3.95-5.438c-0.119-0.166 0-0.397 0.203-0.397h1.725c0.159 0 0.313 0.078 0.406 0.206l2.022 2.781 4.716-6.494c0.094-0.128 0.244-0.206 0.406-0.206h1.725c0.203 0.003 0.322 0.234 0.203 0.4z"/>
</svg>
