<svg version="1.1" xmlns="http://www.w3.org/2000/svg" width="32" height="32" viewBox="0 0 32 32">
<path fill="currentColor" d="M29 7h-5v-1.75c0-0.138-0.113-0.25-0.25-0.25h-1.75c-0.137 0-0.25 0.112-0.25 0.25v1.75h-4.625v-1.75c0-0.138-0.113-0.25-0.25-0.25h-1.75c-0.137 0-0.25 0.112-0.25 0.25v1.75h-4.625v-1.75c0-0.138-0.113-0.25-0.25-0.25h-1.75c-0.137 0-0.25 0.112-0.25 0.25v1.75h-5c-0.553 0-1 0.447-1 1v18c0 0.553 0.447 1 1 1h26c0.553 0 1-0.447 1-1v-18c0-0.553-0.447-1-1-1zM13.25 21.5c0 0.137-0.113 0.25-0.25 0.25h-5.75c-0.138 0-0.25-0.113-0.25-0.25v-1.5c0-0.137 0.112-0.25 0.25-0.25h5.75c0.137 0 0.25 0.113 0.25 0.25v1.5zM13.25 17.25c0 0.137-0.113 0.25-0.25 0.25h-5.75c-0.138 0-0.25-0.113-0.25-0.25v-1.5c0-0.137 0.112-0.25 0.25-0.25h5.75c0.137 0 0.25 0.113 0.25 0.25v1.5zM24.953 14.397l-5.156 7.147c-0.091 0.126-0.238 0.206-0.403 0.206s-0.312-0.081-0.402-0.205l-0.001-0.001-3.569-4.944c-0.119-0.166 0-0.397 0.203-0.397h1.716c0.159 0 0.309 0.078 0.403 0.206l1.65 2.284 3.241-4.491c0.094-0.131 0.244-0.206 0.403-0.206h1.712c0.203 0.003 0.322 0.234 0.203 0.4z"/>
</svg>
