<svg version="1.1" xmlns="http://www.w3.org/2000/svg" width="32" height="32" viewBox="0 0 32 32">
<path fill="currentColor" d="M27.091 5.309l-10.619-3.619c-0.128-0.044-0.3-0.066-0.472-0.066s-0.344 0.022-0.472 0.066l-10.619 3.619c-0.259 0.088-0.472 0.388-0.472 0.662v15.075c0 0.275 0.178 0.637 0.394 0.809l10.772 8.394c0.109 0.084 0.25 0.128 0.394 0.128s0.288-0.044 0.394-0.128l10.772-8.394c0.216-0.169 0.394-0.531 0.394-0.809v-15.075c0.006-0.275-0.206-0.572-0.466-0.662zM19.587 17.313c-1.516 1.516-3.844 1.725-5.581 0.628l-2.422 2.422c-0.045 0.045-0.108 0.073-0.177 0.073s-0.131-0.028-0.177-0.073l-1.062-1.062c-0.045-0.045-0.073-0.108-0.073-0.177s0.028-0.131 0.073-0.177l2.422-2.422c-1.097-1.741-0.887-4.066 0.628-5.581 1.759-1.759 4.609-1.759 6.369 0s1.759 4.609 0 6.369zM14.633 15.898c0.454 0.461 1.086 0.747 1.784 0.747 1.382 0 2.503-1.121 2.503-2.503 0-0.698-0.286-1.33-0.747-1.784l-0-0c-0.454-0.461-1.086-0.747-1.784-0.747-1.382 0-2.503 1.121-2.503 2.503 0 0.698 0.286 1.33 0.747 1.784l0 0z"/>
</svg>
