<svg version="1.1" xmlns="http://www.w3.org/2000/svg" width="32" height="32" viewBox="0 0 32 32">
<path fill="currentColor" d="M16.016 12.206c-0.934 0-1.809 0.363-2.472 1.025-0.659 0.662-1.025 1.537-1.025 2.472s0.366 1.809 1.025 2.472c0.662 0.659 1.537 1.025 2.472 1.025s1.809-0.366 2.472-1.025c0.659-0.663 1.025-1.538 1.025-2.472s-0.366-1.809-1.025-2.472c-0.628-0.633-1.499-1.025-2.461-1.025-0.004 0-0.007 0-0.011 0h0.001zM28.9 19.566l-2.044-1.747c0.097-0.594 0.147-1.2 0.147-1.803s-0.050-1.213-0.147-1.803l2.044-1.747c0.215-0.185 0.35-0.457 0.35-0.76 0-0.122-0.022-0.239-0.062-0.347l0.002 0.007-0.028-0.081c-0.601-1.655-1.445-3.083-2.503-4.322l0.016 0.019-0.056-0.066c-0.185-0.217-0.459-0.353-0.765-0.353-0.119 0-0.233 0.021-0.339 0.059l0.007-0.002-2.538 0.903c-0.938-0.769-1.981-1.375-3.113-1.797l-0.491-2.653c-0.078-0.409-0.396-0.727-0.8-0.802l-0.006-0.001-0.084-0.016c-1.625-0.294-3.338-0.294-4.963 0l-0.084 0.016c-0.41 0.076-0.728 0.394-0.805 0.797l-0.001 0.006-0.494 2.666c-1.185 0.456-2.207 1.061-3.109 1.806l0.019-0.015-2.556-0.909c-0.099-0.036-0.214-0.057-0.333-0.057-0.305 0-0.579 0.137-0.762 0.353l-0.001 0.001-0.056 0.066c-1.040 1.221-1.884 2.648-2.456 4.206l-0.031 0.097-0.028 0.081c-0.141 0.391-0.025 0.828 0.291 1.1l2.069 1.766c-0.097 0.588-0.144 1.188-0.144 1.781 0 0.6 0.047 1.2 0.144 1.781l-2.063 1.766c-0.215 0.185-0.35 0.457-0.35 0.76 0 0.122 0.022 0.239 0.062 0.347l-0.002-0.007 0.028 0.081c0.566 1.572 1.4 3.025 2.487 4.303l0.056 0.066c0.185 0.217 0.459 0.353 0.765 0.353 0.119 0 0.233-0.021 0.339-0.059l-0.007 0.002 2.556-0.909c0.931 0.766 1.969 1.372 3.091 1.791l0.494 2.666c0.078 0.409 0.396 0.727 0.8 0.802l0.006 0.001 0.084 0.016c0.746 0.141 1.604 0.221 2.481 0.221s1.735-0.081 2.568-0.235l-0.086 0.013 0.084-0.016c0.41-0.076 0.728-0.394 0.805-0.797l0.001-0.006 0.491-2.653c1.131-0.425 2.175-1.028 3.113-1.797l2.538 0.903c0.099 0.036 0.214 0.057 0.333 0.057 0.305 0 0.579-0.137 0.762-0.353l0.001-0.001 0.056-0.066c1.087-1.284 1.922-2.731 2.488-4.303l0.028-0.081c0.134-0.387 0.019-0.822-0.297-1.094zM16.016 21.197c-3.034 0-5.494-2.459-5.494-5.494s2.459-5.494 5.494-5.494 5.494 2.459 5.494 5.494-2.459 5.494-5.494 5.494z"/>
</svg>
