<svg version="1.1" xmlns="http://www.w3.org/2000/svg" width="32" height="32" viewBox="0 0 32 32">
<path fill="currentColor" d="M19.006 13.228l-3.006-3.037-3.006 3.037zM18.197 19.55l4.622-5.197h-1.981zM21.009 13.228h1.953l-2.878-3.597zM27.5 3.5h-23c-0.553 0-1 0.447-1 1v23c0 0.553 0.447 1 1 1h23c0.553 0 1-0.447 1-1v-23c0-0.553-0.447-1-1-1zM24.959 13.881l-8.841 9.941c-0.031 0.034-0.075 0.053-0.119 0.053s-0.088-0.019-0.119-0.053l-8.841-9.941c-0.025-0.028-0.041-0.066-0.041-0.107 0-0.038 0.013-0.072 0.035-0.1l-0 0 4.391-5.488c0.031-0.037 0.075-0.059 0.125-0.059h8.894c0.050 0 0.094 0.022 0.125 0.059l4.391 5.488c0.025 0.027 0.040 0.063 0.040 0.103s-0.015 0.076-0.040 0.103l0-0zM12.425 14.353l3.575 7.037 3.575-7.037zM11.916 9.631l-2.878 3.597h1.953zM9.181 14.353l4.622 5.197-2.641-5.197zM13.134 9.409l-0.722 2.806 2.775-2.806zM18.866 9.409h-2.053l2.775 2.806z"/>
</svg>
