<svg version="1.1" xmlns="http://www.w3.org/2000/svg" width="32" height="32" viewBox="0 0 32 32">
<path fill="currentColor" d="M27.616 18.081c0.128-0.703 0.197-1.422 0.197-2.141 0-1.594-0.313-3.141-0.928-4.594-0.594-1.406-1.447-2.669-2.531-3.753-1.048-1.051-2.294-1.904-3.677-2.499l-0.076-0.029c-1.456-0.616-3-0.928-4.594-0.928-0.75 0-1.503 0.072-2.234 0.213-0.951-0.514-2.082-0.817-3.284-0.819h-0.001c-1.866 0-3.622 0.728-4.941 2.047-1.264 1.258-2.047 3-2.047 4.924 0 0.006 0 0.012 0 0.018v-0.001c0 1.188 0.306 2.356 0.878 3.387-0.116 0.669-0.178 1.353-0.178 2.034 0 1.594 0.313 3.141 0.928 4.594 0.594 1.406 1.444 2.669 2.528 3.753s2.347 1.934 3.753 2.528c1.456 0.616 3 0.928 4.594 0.928 0.694 0 1.387-0.063 2.069-0.184 1.047 0.591 2.228 0.906 3.438 0.906 1.866 0 3.622-0.725 4.941-2.047 1.322-1.319 2.047-3.075 2.047-4.941 0.003-1.188-0.303-2.359-0.881-3.397zM16.053 23.172c-4.194 0-6.069-2.063-6.069-3.606 0-0.794 0.584-1.347 1.391-1.347 1.794 0 1.331 2.578 4.678 2.578 1.716 0 2.663-0.931 2.663-1.884 0-0.572-0.281-1.209-1.413-1.488l-3.731-0.931c-3.003-0.753-3.55-2.378-3.55-3.903 0-3.169 2.984-4.359 5.787-4.359 2.581 0 5.625 1.428 5.625 3.328 0 0.816-0.706 1.287-1.512 1.287-1.531 0-1.25-2.119-4.334-2.119-1.531 0-2.378 0.694-2.378 1.684s1.209 1.306 2.259 1.547l2.763 0.613c3.025 0.675 3.791 2.441 3.791 4.103 0 2.572-1.978 4.497-5.969 4.497z"/>
</svg>
