<svg version="1.1" xmlns="http://www.w3.org/2000/svg" width="32" height="32" viewBox="0 0 32 32">
<path fill="currentColor" d="M16 2c-7.731 0-14 6.269-14 14s6.269 14 14 14 14-6.269 14-14-6.269-14-14-14zM11.297 18.131c0 0.869-0.703 1.575-1.572 1.575-0.416 0-0.816-0.166-1.113-0.462-0.294-0.297-0.459-0.697-0.459-1.113 0-0.869 0.703-1.575 1.572-1.575h1.572v1.575zM15.484 22.331c0 0.869-0.703 1.575-1.572 1.575s-1.572-0.706-1.572-1.575v-4.2c0-0.869 0.703-1.575 1.572-1.575 0.416 0 0.816 0.166 1.113 0.462s0.459 0.697 0.459 1.113v4.2zM13.916 15.506h-4.188c-0.869 0-1.572-0.706-1.572-1.575s0.703-1.575 1.572-1.575h4.188c0.869 0 1.572 0.706 1.572 1.575-0.003 0.872-0.706 1.575-1.572 1.575zM13.916 11.306c-0.416 0-0.816-0.166-1.113-0.463s-0.459-0.694-0.459-1.113c0-0.869 0.703-1.575 1.572-1.575s1.572 0.706 1.572 1.575v1.575h-1.572zM16.531 9.731c0-0.869 0.703-1.575 1.572-1.575s1.572 0.706 1.572 1.575v4.2c0 0.869-0.703 1.575-1.572 1.575s-1.572-0.706-1.572-1.575v-4.2zM18.103 23.906c-0.869 0-1.572-0.706-1.572-1.575v-1.575h1.572c0.869 0 1.572 0.706 1.572 1.575s-0.703 1.575-1.572 1.575zM22.291 19.706h-4.188c-0.416 0-0.816-0.166-1.113-0.462s-0.459-0.694-0.459-1.113c0-0.869 0.703-1.575 1.572-1.575h4.188c0.869 0 1.572 0.706 1.572 1.575s-0.703 1.575-1.572 1.575zM22.291 15.506h-1.572v-1.575c0-0.869 0.703-1.575 1.572-1.575s1.572 0.706 1.572 1.575c0 0.869-0.703 1.575-1.572 1.575z"/>
</svg>
