<svg version="1.1" xmlns="http://www.w3.org/2000/svg" width="32" height="32" viewBox="0 0 32 32">
<path fill="currentColor" d="M28.25 9.25h-2.063v-3c0-0.138-0.113-0.25-0.25-0.25h-1.625c-0.137 0-0.25 0.112-0.25 0.25v3h-2.063c-0.137 0-0.25 0.113-0.25 0.25v13c0 0.137 0.113 0.25 0.25 0.25h2.063v3c0 0.137 0.113 0.25 0.25 0.25h1.625c0.137 0 0.25-0.113 0.25-0.25v-3h2.063c0.137 0 0.25-0.113 0.25-0.25v-13c0-0.137-0.113-0.25-0.25-0.25zM10 7h-2.063v-1.75c0-0.138-0.112-0.25-0.25-0.25h-1.625c-0.138 0-0.25 0.112-0.25 0.25v1.75h-2.063c-0.138 0-0.25 0.112-0.25 0.25v17.5c0 0.137 0.112 0.25 0.25 0.25h2.063v1.75c0 0.137 0.112 0.25 0.25 0.25h1.625c0.138 0 0.25-0.113 0.25-0.25v-1.75h2.063c0.137 0 0.25-0.113 0.25-0.25v-17.5c0-0.138-0.113-0.25-0.25-0.25zM19.125 12.625h-2.063v-5.375c0-0.138-0.113-0.25-0.25-0.25h-1.625c-0.137 0-0.25 0.112-0.25 0.25v5.375h-2.063c-0.137 0-0.25 0.113-0.25 0.25v6.25c0 0.137 0.113 0.25 0.25 0.25h2.063v5.375c0 0.137 0.113 0.25 0.25 0.25h1.625c0.137 0 0.25-0.113 0.25-0.25v-5.375h2.063c0.137 0 0.25-0.113 0.25-0.25v-6.25c0-0.137-0.113-0.25-0.25-0.25z"/>
</svg>
