<svg version="1.1" xmlns="http://www.w3.org/2000/svg" width="32" height="32" viewBox="0 0 32 32">
<path fill="currentColor" d="M27.878 23.056l-3.447-1.991c-0.071-0.041-0.156-0.066-0.247-0.066-0.184 0-0.344 0.1-0.43 0.248l-0.001 0.002-0.622 1.078c-0.137 0.238-0.056 0.544 0.181 0.681l3.447 1.991c0.071 0.041 0.156 0.066 0.247 0.066 0.184 0 0.344-0.1 0.43-0.248l0.001-0.002 0.622-1.078c0.137-0.238 0.053-0.544-0.181-0.681zM23.75 10.75c0.087 0.15 0.248 0.25 0.431 0.25 0.091 0 0.176-0.024 0.249-0.067l-0.002 0.001 3.447-1.991c0.238-0.137 0.319-0.444 0.181-0.681l-0.619-1.075c-0.087-0.15-0.248-0.25-0.431-0.25-0.091 0-0.176 0.024-0.249 0.067l0.002-0.001-3.447 1.991c-0.149 0.088-0.248 0.248-0.248 0.432 0 0.092 0.025 0.178 0.068 0.252l-0.001-0.002 0.619 1.075zM29.188 14.875h-4c-0.275 0-0.5 0.225-0.5 0.5v1.25c0 0.275 0.225 0.5 0.5 0.5h4c0.275 0 0.5-0.225 0.5-0.5v-1.25c0-0.275-0.225-0.5-0.5-0.5zM19.559 3.594c-0.184 0-0.372 0.050-0.544 0.166l-11.078 7.241h-5.125c-0.275 0-0.5 0.225-0.5 0.5v9c0 0.275 0.225 0.5 0.5 0.5h5.125l11.078 7.241c0.172 0.113 0.363 0.166 0.544 0.166 0.522 0 1.003-0.416 1.003-1.003v-22.806c0-0.588-0.481-1.003-1.003-1.003z"/>
</svg>
