<svg version="1.1" xmlns="http://www.w3.org/2000/svg" width="32" height="32" viewBox="0 0 32 32">
<path fill="currentColor" d="M22.544 21.724c0-0.389-0.182-0.699-0.547-0.93-2.346-1.398-5.062-2.096-8.148-2.096-1.616 0-3.36 0.207-5.232 0.62-0.51 0.109-0.766 0.425-0.766 0.948 0 0.243 0.082 0.453 0.246 0.629s0.38 0.264 0.647 0.264c0.061 0 0.286-0.049 0.675-0.146 1.604-0.328 3.081-0.492 4.43-0.492 2.747 0 5.159 0.626 7.237 1.878 0.231 0.134 0.431 0.201 0.602 0.201 0.231 0 0.431-0.082 0.602-0.246s0.255-0.374 0.255-0.629zM24.294 17.805c0-0.486-0.213-0.857-0.638-1.112-2.88-1.714-6.21-2.57-9.99-2.57-1.859 0-3.7 0.255-5.523 0.766-0.583 0.158-0.875 0.547-0.875 1.167 0 0.304 0.106 0.562 0.319 0.775s0.471 0.319 0.775 0.319c0.085 0 0.31-0.049 0.675-0.146 1.483-0.401 3.008-0.602 4.575-0.602 3.391 0 6.356 0.753 8.896 2.26 0.292 0.158 0.523 0.237 0.693 0.237 0.304 0 0.562-0.106 0.775-0.319s0.319-0.471 0.319-0.775zM26.263 13.284c0-0.571-0.243-0.997-0.729-1.276-1.531-0.887-3.312-1.559-5.341-2.014s-4.114-0.684-6.253-0.684c-2.479 0-4.691 0.286-6.635 0.857-0.279 0.085-0.513 0.24-0.702 0.465s-0.283 0.52-0.283 0.884c0 0.377 0.125 0.693 0.374 0.948s0.562 0.383 0.939 0.383c0.134 0 0.377-0.049 0.729-0.146 1.616-0.45 3.482-0.675 5.596-0.675 1.932 0 3.813 0.207 5.642 0.62s3.369 0.99 4.621 1.732c0.255 0.146 0.498 0.219 0.729 0.219 0.352 0 0.659-0.125 0.921-0.374s0.392-0.562 0.392-0.939zM30 16c0 2.54-0.626 4.882-1.878 7.027s-2.95 3.843-5.095 5.095c-2.145 1.252-4.487 1.878-7.027 1.878s-4.882-0.626-7.027-1.878c-2.145-1.252-3.843-2.95-5.095-5.095s-1.878-4.487-1.878-7.027 0.626-4.882 1.878-7.027c1.252-2.145 2.95-3.843 5.095-5.095s4.487-1.878 7.027-1.878 4.882 0.626 7.027 1.878c2.145 1.252 3.843 2.95 5.095 5.095s1.878 4.487 1.878 7.027z"/>
</svg>
