<svg version="1.1" xmlns="http://www.w3.org/2000/svg" width="32" height="32" viewBox="0 0 32 32">
<path fill="currentColor" d="M28.378 11.034l-7.934-1.153-3.547-7.191c-0.097-0.197-0.256-0.356-0.453-0.453-0.494-0.244-1.094-0.041-1.341 0.453l-3.547 7.191-7.934 1.153c-0.219 0.031-0.419 0.134-0.572 0.291-0.175 0.18-0.284 0.427-0.284 0.698 0 0.281 0.116 0.535 0.302 0.717l0 0 5.741 5.597-1.356 7.903c-0.009 0.051-0.015 0.11-0.015 0.17 0 0.551 0.447 0.998 0.998 0.998 0.171 0 0.331-0.043 0.472-0.118l-0.005 0.003 7.097-3.731 7.097 3.731c0.194 0.103 0.419 0.137 0.634 0.1 0.544-0.094 0.909-0.609 0.816-1.153l-1.356-7.903 5.741-5.597c0.156-0.153 0.259-0.353 0.291-0.572 0.084-0.547-0.297-1.053-0.844-1.134z"/>
</svg>
