<svg version="1.1" xmlns="http://www.w3.org/2000/svg" width="32" height="32" viewBox="0 0 32 32">
<path fill="currentColor" d="M23.5 7.5h-19c-0.553 0-1 0.447-1 1v19c0 0.553 0.447 1 1 1h19c0.553 0 1-0.447 1-1v-19c0-0.553-0.447-1-1-1zM18.625 18.938c0 0.137-0.113 0.25-0.25 0.25h-8.75c-0.137 0-0.25-0.113-0.25-0.25v-1.5c0-0.137 0.113-0.25 0.25-0.25h8.75c0.137 0 0.25 0.113 0.25 0.25v1.5zM27.5 3.5h-19.25c-0.137 0-0.25 0.112-0.25 0.25v1.75c0 0.138 0.113 0.25 0.25 0.25h18v18c0 0.137 0.113 0.25 0.25 0.25h1.75c0.137 0 0.25-0.113 0.25-0.25v-19.25c0-0.553-0.447-1-1-1z"/>
</svg>
