<svg version="1.1" xmlns="http://www.w3.org/2000/svg" width="32" height="32" viewBox="0 0 32 32">
<path fill="currentColor" d="M29.313 14.338l-0.925-9.769c-0.047-0.506-0.45-0.906-0.956-0.956l-9.781-0.925c-0.1 0-0.178 0.031-0.238 0.091l-14.634 14.634c-0.056 0.056-0.091 0.134-0.091 0.22s0.035 0.164 0.091 0.22v0l11.369 11.369c0.059 0.059 0.137 0.091 0.222 0.091s0.162-0.031 0.222-0.091l14.634-14.634c0.063-0.066 0.094-0.156 0.087-0.25zM21.844 12.094c-1.103 0-2-0.897-2-2s0.897-2 2-2 2 0.897 2 2-0.897 2-2 2z"/>
</svg>
