<svg version="1.1" xmlns="http://www.w3.org/2000/svg" width="32" height="32" viewBox="0 0 32 32">
<path fill="currentColor" d="M28.5 7.030c0-1.95-1.58-3.53-3.53-3.53h-17.94c-1.95 0-3.53 1.58-3.53 3.53v17.94c0 1.95 1.58 3.53 3.53 3.53h17.94c1.95 0 3.53-1.58 3.53-3.53zM24.211 14.404c-1.613 0.018-3.116-0.47-4.436-1.373v6.34c0 2.818-1.929 5.238-4.656 5.87-3.721 0.849-6.871-1.842-7.268-5.057-0.415-3.215 1.635-6.033 4.778-6.665 0.614-0.126 1.538-0.126 2.014-0.018v3.396c-0.147-0.036-0.284-0.072-0.428-0.090-1.228-0.217-2.418 0.397-2.906 1.517s-0.161 2.42 0.832 3.179c0.831 0.65 1.753 0.74 2.692 0.307 0.939-0.415 1.444-1.174 1.552-2.204 0.018-0.144 0.017-0.307 0.017-0.47v-12.192c0-0.343 0.003-0.328 0.346-0.328h2.691c0.199 0 0.271 0.029 0.289 0.264 0.144 2.095 1.735 3.88 3.776 4.151 0.217 0.036 0.449 0.050 0.706 0.068z"/>
</svg>
