<svg version="1.1" xmlns="http://www.w3.org/2000/svg" width="32" height="32" viewBox="0 0 32 32">
<path fill="currentColor" d="M27.041 7.647c-0.009-0.009-1.909 1.869-5.691 5.644l-2.653-2.653 5.653-5.653c-2.975-1.791-6.797-1.331-9.275 1.147-1.383 1.382-2.239 3.293-2.239 5.402 0 0.699 0.094 1.376 0.27 2.020l-0.012-0.054 0.056 0.209-8.859 8.856c-0.194 0.194-0.194 0.512 0 0.706l4.419 4.419c0.194 0.194 0.512 0.194 0.706 0l8.853-8.853 0.209 0.056c2.616 0.697 5.425-0.028 7.375-1.978 2.481-2.478 2.941-6.3 1.188-9.269z"/>
</svg>
