<svg version="1.1" xmlns="http://www.w3.org/2000/svg" width="32" height="32" viewBox="0 0 32 32">
<path fill="currentColor" d="M16 2c-7.731 0-14 6.269-14 14s6.269 14 14 14 14-6.269 14-14-6.269-14-14-14zM21.147 22.631c-0.034 0.016-0.072 0.025-0.109 0.025h-1.938c-0.097 0-0.184-0.056-0.225-0.144l-2.331-4.975h-2.772v4.869c0 0.137-0.113 0.25-0.25 0.25h-1.709c-0.137 0-0.25-0.113-0.25-0.25v-12.813c0-0.137 0.113-0.25 0.25-0.25h4.863c3.087 0 4.506 1.872 4.506 4.097 0 2.194-1.363 3.325-2.45 3.725l2.525 5.131c0.066 0.122 0.012 0.272-0.109 0.334zM16.372 11.156h-2.606v4.625h2.547c1.656 0 2.587-0.8 2.587-2.262 0-1.572-1.028-2.363-2.528-2.363z"/>
</svg>
