<svg version="1.1" xmlns="http://www.w3.org/2000/svg" width="32" height="32" viewBox="0 0 32 32">
<path fill="currentColor" d="M19 6c0.552 0 1 0.448 1 1v5h5.463c0.347 0 0.652 0.176 0.831 0.444l0.002 0.004 3.537 5.339c0.104 0.155 0.166 0.347 0.166 0.552v0 2.661c0 0.552-0.448 1-1 1h-3c0 2.209-1.791 4-4 4s-4-1.791-4-4h-6c0 2.209-1.791 4-4 4s-4-1.791-4-4h-1c-0.552 0-1-0.448-1-1v-14c0-0.552 0.448-1 1-1zM8 20c-1.105 0-2 0.895-2 2s0.895 2 2 2l0.033-0c1.089-0.018 1.967-0.906 1.967-2 0-1.105-0.895-2-2-2zM22 20c-1.105 0-2 0.895-2 2s0.895 2 2 2l0.033-0c1.089-0.018 1.967-0.906 1.967-2 0-1.105-0.895-2-2-2zM24.926 14h-4.926v4.535c0.588-0.34 1.271-0.535 2-0.535 1.481 0 2.773 0.804 3.465 2h2.535v-1.36zM15.625 14h-5.25c-0.207 0-0.375 0.168-0.375 0.375v1.25c0 0.207 0.168 0.375 0.375 0.375h5.25c0.207 0 0.375-0.168 0.375-0.375v-1.25c0-0.207-0.168-0.375-0.375-0.375zM9.625 10h-3.25c-0.207 0-0.375 0.168-0.375 0.375v1.25c0 0.207 0.168 0.375 0.375 0.375h3.25c0.207 0 0.375-0.168 0.375-0.375v-1.25c0-0.207-0.168-0.375-0.375-0.375z"/>
</svg>
