<svg version="1.1" xmlns="http://www.w3.org/2000/svg" width="32" height="32" viewBox="0 0 32 32">
<path fill="currentColor" d="M27.5 3.5h-23c-0.553 0-1 0.447-1 1v23c0 0.553 0.447 1 1 1h23c0.553 0 1-0.447 1-1v-23c0-0.553-0.447-1-1-1zM22.728 12.553c0.009 0.147 0.009 0.3 0.009 0.45 0 4.588-3.494 9.872-9.878 9.872-1.969 0-3.794-0.572-5.331-1.556 0.281 0.031 0.55 0.044 0.837 0.044 1.625 0 3.119-0.55 4.309-1.481-1.525-0.031-2.806-1.031-3.244-2.406 0.534 0.078 1.016 0.078 1.566-0.063-1.596-0.333-2.778-1.728-2.778-3.399 0-0.002 0-0.005 0-0.007v0-0.044c0.459 0.259 1 0.419 1.566 0.441-0.937-0.631-1.546-1.688-1.547-2.887v-0c0-0.647 0.169-1.238 0.472-1.75 1.719 2.105 4.264 3.479 7.132 3.627l0.024 0.001c-0.491-2.359 1.272-4.269 3.391-4.269 1 0 1.9 0.419 2.534 1.094 0.784-0.147 1.534-0.441 2.203-0.834-0.259 0.803-0.803 1.481-1.525 1.909 0.7-0.075 1.375-0.269 2-0.541-0.472 0.694-1.063 1.309-1.741 1.8z"/>
</svg>
