<svg version="1.1" xmlns="http://www.w3.org/2000/svg" width="32" height="32" viewBox="0 0 32 32">
<path fill="currentColor" d="M28.5 9.447l-4 2.303v-4.75c0-1.103-0.897-2-2-2h-18.5c-1.103 0-2 0.897-2 2v18c0 1.103 0.897 2 2 2h18.5c1.103 0 2-0.897 2-2v-4.75l4 2.303c0.666 0.384 1.5-0.097 1.5-0.863v-11.378c0-0.769-0.834-1.25-1.5-0.866zM10.25 11c0 0.137-0.113 0.25-0.25 0.25h-3.5c-0.138 0-0.25-0.113-0.25-0.25v-1.5c0-0.137 0.112-0.25 0.25-0.25h3.5c0.137 0 0.25 0.113 0.25 0.25v1.5zM27.75 19.531l-3.25-1.869v-3.322l3.25-1.872v7.062z"/>
</svg>
