<svg version="1.1" xmlns="http://www.w3.org/2000/svg" width="32" height="32" viewBox="0 0 32 32">
<path fill="currentColor" d="M29.866 26.75l-13-22.5c-0.194-0.334-0.528-0.5-0.866-0.5s-0.675 0.166-0.866 0.5l-13 22.5c-0.384 0.669 0.097 1.5 0.866 1.5h26c0.769 0 1.25-0.831 0.866-1.5zM15 13c0-0.137 0.113-0.25 0.25-0.25h1.5c0.137 0 0.25 0.113 0.25 0.25v5.75c0 0.137-0.113 0.25-0.25 0.25h-1.5c-0.137 0-0.25-0.113-0.25-0.25v-5.75zM16 24c-0.815-0.017-1.47-0.682-1.47-1.5s0.654-1.483 1.468-1.5l0.002-0c0.815 0.017 1.47 0.682 1.47 1.5s-0.654 1.483-1.468 1.5l-0.002 0z"/>
</svg>
