<svg version="1.1" xmlns="http://www.w3.org/2000/svg" width="32" height="32" viewBox="0 0 32 32">
<path fill="currentColor" d="M21.566 11.794c0.184 0 0.369 0.006 0.55 0.016-0.762-4.022-4.947-7.097-9.997-7.097-5.588 0-10.119 3.769-10.119 8.419 0 2.534 1.362 4.819 3.497 6.363 0.173 0.123 0.284 0.323 0.284 0.549 0 0 0 0.001 0 0.001v-0c0 0.075-0.016 0.144-0.034 0.216-0.172 0.634-0.444 1.65-0.456 1.697-0.022 0.081-0.053 0.163-0.053 0.247 0 0.184 0.15 0.337 0.338 0.337 0.072 0 0.131-0.028 0.194-0.063l2.216-1.278c0.166-0.097 0.344-0.156 0.538-0.156 0.1 0 0.2 0.016 0.297 0.044 1.034 0.297 2.15 0.462 3.303 0.462 0.188 0 0.372-0.003 0.556-0.012-0.222-0.656-0.341-1.347-0.341-2.063 0-4.244 4.131-7.681 9.228-7.681zM15.494 9.091c0.744 0 1.35 0.603 1.35 1.347s-0.603 1.347-1.35 1.347c-0.744 0-1.35-0.603-1.35-1.347s0.606-1.347 1.35-1.347zM8.747 11.784c-0.744 0-1.35-0.603-1.35-1.347s0.603-1.347 1.35-1.347 1.35 0.603 1.35 1.347-0.606 1.347-1.35 1.347zM27.084 24.772c1.778-1.288 2.913-3.188 2.913-5.303 0-3.875-3.775-7.016-8.434-7.016-4.656 0-8.434 3.141-8.434 7.016s3.775 7.016 8.434 7.016c0.962 0 1.894-0.137 2.753-0.384 0.081-0.025 0.163-0.038 0.247-0.038 0.163 0 0.309 0.050 0.447 0.128l1.847 1.063c0.053 0.031 0.103 0.053 0.163 0.053 0.001 0 0.001 0 0.002 0 0.077 0 0.147-0.031 0.198-0.081l-0 0c0.050-0.051 0.081-0.121 0.081-0.198 0-0.001 0-0.002 0-0.002v0c0-0.069-0.028-0.137-0.044-0.206-0.009-0.038-0.238-0.884-0.381-1.416-0.016-0.059-0.028-0.119-0.028-0.178 0.003-0.184 0.097-0.35 0.238-0.453zM18.756 18.35c-0.622 0-1.125-0.503-1.125-1.122s0.503-1.122 1.125-1.122 1.125 0.503 1.125 1.122c0 0.619-0.506 1.122-1.125 1.122zM24.378 18.35c-0.622 0-1.125-0.503-1.125-1.122s0.503-1.122 1.125-1.122 1.125 0.503 1.125 1.122c-0.003 0.619-0.505 1.12-1.125 1.122h-0z"/>
</svg>
