<svg version="1.1" xmlns="http://www.w3.org/2000/svg" width="32" height="32" viewBox="0 0 32 32">
<path fill="currentColor" d="M25.167 3.5h-18.333c-1.841 0-3.333 1.492-3.333 3.333v18.333c0 1.841 1.492 3.333 3.333 3.333h18.333c1.841 0 3.333-1.492 3.333-3.333v-18.333c0-1.841-1.492-3.333-3.333-3.333zM22.099 16.558c0.131 0.646 0.442 1.205 0.878 1.639l0 0 0.067 0.064c0.013 0.009 0.025 0.018 0.036 0.028l0.017 0.020 0.006 0.001c0.033 0.042 0.052 0.095 0.052 0.153 0 0.073-0.032 0.14-0.082 0.185l-0 0c-0.044 0.040-0.102 0.064-0.167 0.064-0.067 0-0.128-0.026-0.173-0.070l0 0c-0.034-0.033-0.067-0.067-0.101-0.101-0.444-0.445-1.019-0.76-1.662-0.883l-0.020-0.003-0.063-0.009c-0.021-0.004-0.042-0.012-0.062-0.012-0.509-0.118-0.851-0.596-0.799-1.115s0.481-0.921 1.003-0.937c0.523-0.016 0.975 0.359 1.058 0.875 0.005 0.034 0.011 0.067 0.011 0.1zM15.439 21.365c-0.296 0.036-0.639 0.056-0.987 0.056-0.332 0-0.659-0.019-0.981-0.055l0.039 0.004c-0.523-0.056-0.997-0.151-1.455-0.284l0.059 0.015-2.139 1.075c-0.010 0.008-0.024 0.013-0.036 0.022h-0.009c-0.083 0.049-0.182 0.078-0.288 0.078-0.316 0-0.572-0.256-0.572-0.572 0-0.001 0-0.002 0-0.004v0c0.001-0.018 0.003-0.037 0.006-0.054 0.004-0.062 0.019-0.122 0.043-0.178l0.086-0.349 0.299-1.236c-0.584-0.498-1.091-1.060-1.52-1.68l-0.019-0.029c-0.62-0.907-0.991-2.027-0.995-3.234v-0.001c0.001-0.923 0.221-1.794 0.611-2.565l-0.015 0.033c0.315-0.628 0.703-1.168 1.163-1.636l-0.001 0.001c1.216-1.248 2.914-2.047 4.784-2.251 0.283-0.033 0.611-0.051 0.943-0.051 0 0 0 0 0.001 0h-0c0.328 0.001 0.656 0.020 0.982 0.058 1.862 0.212 3.552 1.015 4.758 2.261 0.457 0.469 0.844 1.009 1.14 1.603l0.017 0.037c0.369 0.734 0.585 1.599 0.585 2.515 0 0.156-0.006 0.311-0.019 0.464l0.001-0.020c-0.016-0.018-0.032-0.038-0.049-0.055-0.34-0.339-0.867-0.401-1.276-0.15 0.007-0.070 0.007-0.142 0.007-0.212-0-0.721-0.171-1.403-0.473-2.007l0.012 0.026c-0.251-0.506-0.561-0.94-0.929-1.318l0.001 0.001c-0.993-1.024-2.39-1.686-3.934-1.861-0.248-0.030-0.536-0.047-0.828-0.047-0.277 0-0.551 0.015-0.82 0.045l0.033-0.003c-1.55 0.169-2.956 0.827-3.955 1.852-0.368 0.375-0.679 0.807-0.918 1.282l-0.013 0.029c-0.297 0.582-0.472 1.269-0.473 1.997v0c0.007 0.952 0.301 1.833 0.8 2.563l-0.010-0.016c0.233 0.346 0.49 0.646 0.776 0.916l0.003 0.003c0.167 0.16 0.346 0.311 0.534 0.45l0.015 0.010c0.137 0.101 0.225 0.262 0.225 0.444 0 0.061-0.010 0.119-0.028 0.173l0.001-0.004-0.203 0.771-0.058 0.223-0.051 0.202c0 0 0 0.001 0 0.001 0 0.048 0.039 0.088 0.087 0.089h0c0.023-0.002 0.043-0.010 0.061-0.022l-0 0 1.371-0.81 0.045-0.024c0.101-0.057 0.223-0.091 0.352-0.091 0.078 0 0.153 0.012 0.223 0.035l-0.005-0.001c0.347 0.101 0.7 0.175 1.058 0.223l0.163 0.021c0.237 0.028 0.511 0.044 0.788 0.044 0.291 0 0.578-0.018 0.86-0.052l-0.034 0.003c0.499-0.057 0.952-0.157 1.386-0.297l-0.050 0.014c-0.047 0.484 0.248 0.935 0.71 1.086-0.547 0.204-1.185 0.359-1.847 0.438l-0.040 0.004zM18.223 20.588c-0.035 0.004-0.075 0.006-0.115 0.006-0.412 0-0.768-0.239-0.937-0.586l-0.003-0.006c-0.064-0.131-0.101-0.285-0.101-0.448 0-0.29 0.118-0.551 0.309-0.74l0-0c0.15-0.15 0.346-0.254 0.564-0.29l0.006-0.001c0.033-0.004 0.068-0.011 0.101-0.011 0.646-0.131 1.205-0.442 1.64-0.877l0-0 0.069-0.073c0.015-0.020 0.031-0.037 0.049-0.052l0-0v-0.001c0.045-0.047 0.109-0.077 0.18-0.077 0.138 0 0.249 0.111 0.249 0.249 0 0.080-0.037 0.151-0.096 0.196l-0.001 0-0.101 0.101c-0.447 0.443-0.764 1.017-0.889 1.659l-0.003 0.020c-0.003 0.020-0.009 0.042-0.009 0.063l-0.012 0.063c-0.1 0.43-0.456 0.753-0.895 0.804l-0.005 0zM21.174 23.521c-0.513 0.063-0.994-0.259-1.131-0.758-0.019-0.062-0.031-0.134-0.034-0.209l-0-0.002c-0.133-0.645-0.444-1.204-0.879-1.637l-0-0-0.072-0.070c-0.013-0.009-0.024-0.018-0.034-0.028v0l-0.017-0.019h-0.001v0.002c-0.033-0.042-0.052-0.095-0.052-0.153 0-0.073 0.032-0.139 0.082-0.185l0-0c0.044-0.040 0.102-0.064 0.167-0.064 0.067 0 0.128 0.027 0.173 0.070l-0-0 0.101 0.101c0.444 0.445 1.018 0.76 1.661 0.883l0.020 0.003 0.063 0.009c0.038-0.005 0.082-0.008 0.127-0.008 0.574 0 1.040 0.465 1.040 1.040s-0.465 1.040-1.040 1.040c-0.060 0-0.12-0.005-0.177-0.015l0.006 0.001zM24.726 20.292c-0.15 0.151-0.346 0.255-0.565 0.29l-0.006 0.001c-0.029 0.005-0.064 0.009-0.099 0.011l-0.002 0c-0.646 0.132-1.205 0.443-1.639 0.878l-0 0c-0.034 0.033-0.066 0.068-0.096 0.104l-0.002 0.002-0.021 0.017h0.001l0.003 0.002c-0.044 0.042-0.104 0.068-0.17 0.068-0.137 0-0.248-0.111-0.248-0.248 0-0.075 0.034-0.143 0.087-0.188l0-0 0.101-0.101c0.445-0.443 0.76-1.017 0.883-1.658l0.003-0.020c-0.077-0.142-0.123-0.311-0.123-0.49 0-0.574 0.465-1.039 1.039-1.039s1.039 0.465 1.039 1.039c0 0.039-0.002 0.078-0.006 0.117l0-0.005c0.077 0.142 0.122 0.31 0.122 0.489 0 0.285-0.115 0.544-0.302 0.732l0-0z"/>
</svg>
