<svg version="1.1" xmlns="http://www.w3.org/2000/svg" width="32" height="32" viewBox="0 0 32 32">
<path fill="currentColor" d="M13.55 18.597c-0.444-0.184-1.012 0.006-1.287 0.434-0.275 0.431-0.147 0.944 0.291 1.144 0.447 0.203 1.037 0.009 1.313-0.431 0.275-0.447 0.131-0.956-0.316-1.147zM27.5 3.5h-23c-0.553 0-1 0.447-1 1v23c0 0.553 0.447 1 1 1h23c0.553 0 1-0.447 1-1v-23c0-0.553-0.447-1-1-1zM14.613 23c-3.578 0-7.237-1.738-7.237-4.597 0-1.494 0.944-3.222 2.572-4.853 2.172-2.175 4.706-3.169 5.659-2.213 0.422 0.422 0.462 1.15 0.191 2.019-0.141 0.438 0.409 0.197 0.409 0.197 1.756-0.738 3.288-0.781 3.847 0.022 0.3 0.428 0.269 1.025-0.006 1.722-0.128 0.319 0.041 0.369 0.281 0.441 0.991 0.306 2.091 1.050 2.091 2.359 0.006 2.172-3.116 4.903-7.806 4.903zM21.091 13.912c0.034-0.101 0.054-0.217 0.054-0.338 0-0.28-0.106-0.536-0.279-0.729l0.001 0.001c-0.199-0.221-0.486-0.359-0.806-0.359-0.081 0-0.16 0.009-0.236 0.026l0.007-0.001c-0.036 0.008-0.077 0.012-0.119 0.012-0.315 0-0.57-0.255-0.57-0.57 0-0.273 0.192-0.501 0.448-0.557l0.004-0.001c0.753-0.159 1.566 0.072 2.116 0.684 0.553 0.613 0.7 1.447 0.466 2.181-0.075 0.23-0.288 0.394-0.54 0.394-0.063 0-0.123-0.010-0.18-0.029l0.004 0.001c-0.232-0.075-0.396-0.289-0.396-0.541 0-0.062 0.010-0.122 0.029-0.178l-0.001 0.004zM24.403 14.984s0 0.003 0 0c-0.087 0.269-0.336 0.46-0.629 0.46-0.072 0-0.142-0.012-0.207-0.033l0.005 0.001c-0.268-0.089-0.457-0.337-0.457-0.63 0-0.073 0.012-0.144 0.034-0.209l-0.001 0.005c0.344-1.069 0.125-2.287-0.678-3.181-0.597-0.661-1.458-1.074-2.415-1.074-0.239 0-0.473 0.026-0.697 0.075l0.021-0.004c-0.041 0.009-0.089 0.015-0.138 0.015-0.316 0-0.581-0.223-0.646-0.52l-0.001-0.004c-0.010-0.042-0.015-0.091-0.015-0.14 0-0.315 0.221-0.579 0.517-0.643l0.004-0.001c1.544-0.328 3.212 0.15 4.347 1.409 1.134 1.256 1.441 2.972 0.956 4.475zM13.95 15.175c-2.856 0.281-5.022 2.034-4.834 3.913 0.184 1.878 2.65 3.172 5.506 2.891 2.856-0.284 5.022-2.034 4.834-3.916-0.184-1.878-2.65-3.172-5.506-2.887zM16.456 19.603c-0.584 1.322-2.259 2.025-3.681 1.566-1.372-0.444-1.953-1.803-1.353-3.025 0.591-1.2 2.125-1.878 3.484-1.525 1.406 0.366 2.125 1.694 1.55 2.984zM14.641 18.144c-0.169-0.069-0.381 0.016-0.481 0.181-0.097 0.169-0.044 0.359 0.128 0.431s0.394-0.009 0.494-0.181c0.094-0.175 0.031-0.369-0.141-0.431z"/>
</svg>
