<svg version="1.1" xmlns="http://www.w3.org/2000/svg" width="32" height="32" viewBox="0 0 32 32">
<path fill="currentColor" d="M29.291 7.219h-3.519c-0.484 0-0.866 0.394-0.847 0.878l0.409 11.438h2.637l2.044-11.45c0.084-0.475-0.244-0.866-0.725-0.866zM26.872 21.294h-0.441c-0.847 0-1.538 0.694-1.538 1.541v0.441c0 0.847 0.694 1.541 1.538 1.541h0.441c0.847 0 1.538-0.694 1.538-1.541v-0.441c0-0.847-0.694-1.541-1.538-1.541zM12.581 7.219c-5.825 0-10.55 3.938-10.55 8.797s4.725 8.797 10.55 8.797 10.55-3.938 10.55-8.797-4.722-8.797-10.55-8.797zM19.619 14.256h-2.041l-3.238 3.237v2.041h2.637v1.759h-7.034v-1.759h2.637v-2.041l-4.991-4.997h-1.156v-1.759h5.266v1.759h-1.156l2.919 2.922 0.878-0.878v-2.041h5.275v1.756z"/>
</svg>
