<svg version="1.1" xmlns="http://www.w3.org/2000/svg" width="32" height="32" viewBox="0 0 32 32">
<path fill="currentColor" d="M29.416 9.253c-0.333-1.21-1.266-2.144-2.45-2.472l-0.025-0.006c-2.184-0.588-10.941-0.588-10.941-0.588s-8.756 0-10.941 0.584c-1.21 0.333-2.144 1.267-2.469 2.454l-0.006 0.025c-0.584 2.188-0.584 6.75-0.584 6.75s0 4.563 0.584 6.747c0.322 1.206 1.272 2.156 2.475 2.478 2.184 0.587 10.941 0.587 10.941 0.587s8.756 0 10.941-0.587c1.206-0.322 2.153-1.272 2.475-2.478 0.584-2.184 0.584-6.747 0.584-6.747s0-4.563-0.584-6.747zM13.219 20.188v-8.375l7.25 4.156-7.25 4.219z"/>
</svg>
