<svg version="1.1" xmlns="http://www.w3.org/2000/svg" width="32" height="32" viewBox="0 0 32 32">
<path fill="currentColor" d="M26.706 11.581c-0.309-1.231 0.309-3.194 2.294-3.888l-2.122-0.112s-0.803-2.813-4.488-3.063c-3.684-0.253-6.094-0.094-6.094-0.094s2.731 1.737 1.637 4.834c-0.8 1.641-2.056 2.987-3.4 4.522-0.041 0.041-0.078 0.081-0.109 0.116-4.444 5.009-11.425 12.978-11.425 12.978 7.684 2.012 12.834-0.197 15.881-2.847 0.641-0.006 1.122-0.009 1.447-0.009 4.244 0 7.831-3.675 7.684-7.762-0.1-2.809-0.997-3.444-1.306-4.675z"/>
</svg>
