<svg version="1.1" xmlns="http://www.w3.org/2000/svg" width="32" height="32" viewBox="0 0 32 32">
<path fill="currentColor" d="M16 2c-7.731 0-14 6.269-14 14s6.269 14 14 14 14-6.269 14-14-6.269-14-14-14zM13.166 16.931l-0.003 0.047c-0.047 0.637-0.197 1.372-0.403 2.113l0.75-0.566 2.219 2.522c0.287 1.031-0.103 1.972-0.103 1.972l-2.991-3.497v-0.003c-0.278 0.906-0.628 1.791-1.041 2.647-0.706 1.428-1.725 1.709-2.797 1.803-1.075 0.094-0.728-0.166-0.728-0.166 2.125-1.734 2.438-2.744 3.025-3.847 0.372-0.697 0.637-2.009 0.791-3.025h-3.631s0.15-0.975 0.6-1.303h3.175c0.019-0.478-0.041-3.213-0.063-4.106h-1.544c-0.287 1.406-1.281 1.772-1.503 1.878-0.219 0.106-0.738 0.222-0.659 0 0.081-0.222 0.844-1.444 1.35-3.459 0.509-2.019 1.997-1.938 1.997-1.938-0.4 0.703-0.7 2.3-0.7 2.3h4.991c0.316 0 0.331 1.219 0.331 1.219h-2.838c-0.022 0.709-0.088 2.619-0.156 4.106h2.984s0.381 0.481 0.381 1.303h-3.434zM23.994 22.15h-2.738l-2.172 1.456-0.512-1.456h-1.253v-12.103h6.675v12.103zM12.756 19.094s0-0.003 0 0zM19.506 22.041l1.775-1.191h1.422v-9.453h-4.056v9.453h0.441z"/>
</svg>
