<svg version="1.1" xmlns="http://www.w3.org/2000/svg" width="32" height="32" viewBox="0 0 32 32">
<path fill="currentColor" d="M16 0c-8.744 0-15.875 7.044-16 15.756-0.125 8.844 7.056 16.169 15.906 16.219 2.731 0.019 5.369-0.65 7.706-1.919 0.225-0.125 0.262-0.438 0.069-0.606l-1.5-1.325c-0.306-0.269-0.738-0.344-1.113-0.188-1.631 0.694-3.406 1.050-5.231 1.025-7.15-0.094-12.931-6.037-12.819-13.188 0.112-7.056 5.894-12.762 12.981-12.762h12.981v23.063l-7.363-6.544c-0.238-0.212-0.606-0.169-0.794 0.081-1.181 1.563-3.106 2.538-5.244 2.387-2.969-0.206-5.369-2.594-5.594-5.556-0.262-3.537 2.537-6.494 6.019-6.494 3.15 0 5.744 2.425 6.012 5.5 0.025 0.275 0.15 0.531 0.356 0.713l1.919 1.7c0.219 0.194 0.563 0.075 0.619-0.212 0.137-0.738 0.188-1.512 0.131-2.3-0.306-4.5-3.956-8.125-8.462-8.4-5.169-0.319-9.488 3.719-9.625 8.787-0.131 4.931 3.912 9.188 8.85 9.294 2.063 0.044 3.975-0.6 5.519-1.725l9.613 8.531c0.413 0.362 1.063 0.075 1.063-0.481v-30.75c0-0.338-0.275-0.606-0.606-0.606h-15.394z"/>
</svg>
