<svg version="1.1" xmlns="http://www.w3.org/2000/svg" width="40" height="32" viewBox="0 0 40 32">
<path fill="currentColor" d="M0.875 20.331c0.144-0.262 0.325-0.306 0.606-0.156 0.65 0.35 1.287 0.712 1.95 1.044 2.279 1.167 4.932 2.159 7.707 2.841l0.255 0.053c1.048 0.27 2.387 0.528 3.749 0.715l0.201 0.023c1.509 0.214 3.252 0.336 5.023 0.336 0.321 0 0.642-0.004 0.962-0.012l-0.047 0.001c1.087-0.025 2.175-0.113 3.256-0.238 3.785-0.451 7.234-1.392 10.452-2.769l-0.246 0.094c0.181-0.075 0.369-0.125 0.569-0.075 0.419 0.113 0.563 0.563 0.256 0.869-0.179 0.165-0.375 0.317-0.583 0.452l-0.017 0.010c-1.919 1.319-4.012 2.275-6.225 2.994-1.319 0.445-2.902 0.828-4.528 1.079l-0.165 0.021c-0.972 0.158-2.12 0.265-3.286 0.299l-0.039 0.001c-0.058 0.004-0.112 0.010-0.164 0.020l0.008-0.001h-1.319c-0.044-0.009-0.098-0.015-0.152-0.019l-0.004-0c-0.225-0.012-0.45-0.019-0.669-0.025-1.161-0.054-2.245-0.172-3.308-0.354l0.158 0.022c-1.909-0.316-3.599-0.77-5.219-1.369l0.194 0.063c-3.516-1.289-6.541-3.135-9.125-5.46l0.025 0.022c-0.113-0.1-0.188-0.238-0.275-0.356zM10.75 4.069l-0.269 0.037c-0.903 0.114-1.711 0.451-2.389 0.953l0.014-0.010c-0.15 0.106-0.287 0.219-0.444 0.338-0.013-0.025-0.021-0.055-0.025-0.086l-0-0.001c-0.025-0.169-0.050-0.344-0.081-0.513-0.044-0.287-0.188-0.412-0.475-0.412h-0.719c-0.431 0-0.513 0.081-0.513 0.513v13.081c0 0.063 0 0.125 0.006 0.188 0.013 0.188 0.125 0.306 0.306 0.313 0.438 0.006 0.881 0.006 1.319 0 0.181 0 0.294-0.125 0.313-0.313 0.006-0.063 0.006-0.125 0.006-0.188v-4.525c0.069 0.056 0.106 0.088 0.138 0.119 1.119 0.931 2.406 1.238 3.812 0.963 1.275-0.25 2.162-1.031 2.738-2.181 0.438-0.869 0.619-1.794 0.644-2.756 0.031-1.069-0.075-2.119-0.506-3.112-0.531-1.225-1.412-2.031-2.744-2.306-0.2-0.044-0.406-0.063-0.613-0.094-0.175-0.006-0.344-0.006-0.519-0.006zM7.787 6.688c-0.001-0.006-0.001-0.012-0.001-0.019 0-0.079 0.043-0.149 0.106-0.187l0.001-0.001c0.856-0.594 1.8-0.906 2.85-0.825 0.931 0.069 1.694 0.525 2.094 1.619 0.244 0.669 0.306 1.363 0.306 2.063 0 0.65-0.050 1.287-0.25 1.912-0.425 1.331-1.4 1.838-2.662 1.781-0.875-0.037-1.637-0.375-2.338-0.869-0.064-0.040-0.107-0.11-0.107-0.19 0-0.006 0-0.011 0.001-0.017l-0 0.001c0.006-0.881 0-1.756 0-2.638s0.006-1.75 0-2.631zM20.644 4.069c-0.063 0.006-0.125 0.019-0.181 0.025-0.655 0.028-1.274 0.12-1.87 0.27l0.064-0.014c-0.381 0.1-0.75 0.237-1.119 0.362-0.225 0.075-0.337 0.237-0.331 0.481 0.006 0.206-0.006 0.412 0 0.619 0.006 0.3 0.131 0.381 0.425 0.306 0.488-0.125 0.975-0.263 1.469-0.356 0.769-0.144 1.544-0.206 2.325-0.088 0.406 0.063 0.788 0.181 1.050 0.525 0.231 0.3 0.319 0.656 0.331 1.025 0.019 0.519 0.012 1.037 0.019 1.556-0.002 0.032-0.006 0.062-0.013 0.091l0.001-0.003c-0.031-0.006-0.056 0-0.081-0.006-0.582-0.15-1.266-0.26-1.967-0.305l-0.033-0.002c-0.706-0.037-1.406 0.006-2.081 0.244-0.806 0.281-1.456 0.769-1.837 1.556-0.294 0.613-0.337 1.262-0.244 1.919 0.125 0.875 0.563 1.55 1.337 1.981 0.744 0.412 1.55 0.463 2.369 0.338 0.944-0.144 1.781-0.544 2.519-1.15 0.029-0.026 0.062-0.049 0.097-0.068l0.003-0.001c0.038 0.238 0.069 0.463 0.113 0.688 0.038 0.194 0.156 0.319 0.337 0.325 0.337 0.006 0.681 0.006 1.019 0 0.163-0.001 0.295-0.131 0.3-0.293v-0c0.004-0.044 0.006-0.095 0.006-0.146 0-0.010-0-0.020-0-0.031l0 0.002v-6.625c0-0.017 0-0.037 0-0.056 0-0.265-0.021-0.525-0.060-0.778l0.004 0.028c-0.119-0.806-0.462-1.469-1.188-1.9-0.419-0.25-0.881-0.375-1.363-0.444-0.225-0.031-0.45-0.050-0.675-0.081-0.244 0.006-0.494 0.006-0.744 0.006zM22.831 12.050c0 0.004 0 0.009 0 0.013 0 0.073-0.037 0.136-0.093 0.174l-0.001 0c-0.7 0.506-1.469 0.844-2.337 0.931-0.356 0.037-0.712 0.025-1.050-0.113-0.375-0.14-0.661-0.444-0.773-0.822l-0.002-0.009c-0.060-0.184-0.095-0.396-0.095-0.616 0-0.213 0.032-0.418 0.092-0.611l-0.004 0.015c0.156-0.519 0.525-0.813 1.025-0.975 0.331-0.104 0.712-0.163 1.107-0.163 0.156 0 0.31 0.009 0.462 0.027l-0.018-0.002c0.525 0.044 1.038 0.144 1.563 0.213 0.1 0.012 0.131 0.063 0.131 0.162-0.006 0.3 0 0.594 0 0.894s-0.012 0.588-0.006 0.881zM39.075 20.137c-0.063-0.313-0.3-0.431-0.569-0.519-0.386-0.126-0.833-0.213-1.296-0.243l-0.016-0.001c-0.235-0.021-0.508-0.033-0.783-0.033-0.589 0-1.166 0.055-1.724 0.161l0.057-0.009c-0.894 0.169-1.744 0.456-2.5 0.975-0.091 0.059-0.168 0.132-0.23 0.216l-0.002 0.002c-0.028 0.046-0.044 0.102-0.044 0.161 0 0.032 0.005 0.062 0.013 0.091l-0.001-0.002c0.025 0.094 0.131 0.119 0.225 0.113 0.007 0 0.015 0 0.023 0 0.040 0 0.080-0.002 0.119-0.007l-0.005 0c0.487-0.050 0.969-0.106 1.456-0.156 0.712-0.069 1.431-0.113 2.144-0.056 0.332 0.028 0.638 0.088 0.932 0.177l-0.032-0.008c0.319 0.087 0.462 0.325 0.475 0.65 0.025 0.5-0.087 0.981-0.219 1.456-0.256 0.962-0.625 1.894-0.987 2.819-0.024 0.053-0.045 0.115-0.061 0.18l-0.002 0.008c-0.031 0.181 0.075 0.3 0.256 0.256 0.117-0.027 0.218-0.081 0.3-0.157l-0.001 0c0.281-0.262 0.54-0.535 0.782-0.823l0.012-0.014c0.8-1.025 1.269-2.206 1.544-3.475 0.050-0.225 0.087-0.456 0.131-0.681v-1.081zM30.819 12.438q-1.209-3.347-2.419-6.7c-0.125-0.356-0.262-0.706-0.394-1.056-0.069-0.181-0.2-0.3-0.4-0.3-0.475-0.006-0.95-0.013-1.431-0.006-0.156 0-0.231 0.125-0.2 0.281 0.035 0.149 0.076 0.277 0.125 0.399l-0.006-0.018q1.837 4.547 3.694 9.094c0.106 0.256 0.131 0.475 0.012 0.738-0.206 0.456-0.369 0.938-0.581 1.394-0.188 0.406-0.5 0.712-0.95 0.831-0.2 0.054-0.429 0.086-0.666 0.086-0.105 0-0.208-0.006-0.309-0.018l0.012 0.001c-0.156-0.012-0.313-0.050-0.469-0.063-0.212-0.012-0.319 0.081-0.325 0.3q-0.009 0.313 0 0.619c0.006 0.344 0.125 0.5 0.462 0.556 0.309 0.065 0.672 0.11 1.043 0.125l0.013 0c1.069 0.025 1.919-0.406 2.469-1.337 0.199-0.324 0.392-0.702 0.555-1.095l0.020-0.055q2.222-5.606 4.413-11.225c0.042-0.098 0.077-0.214 0.098-0.334l0.002-0.010c0.025-0.175-0.056-0.275-0.231-0.275-0.413-0.006-0.831 0-1.244 0-0.010-0.001-0.021-0.001-0.033-0.001-0.208 0-0.385 0.135-0.447 0.323l-0.001 0.003c-0.031 0.088-0.069 0.169-0.1 0.256l-2.175 6.25c-0.156 0.45-0.319 0.906-0.481 1.387-0.025-0.069-0.038-0.106-0.056-0.15z"/>
</svg>
