<svg version="1.1" xmlns="http://www.w3.org/2000/svg" width="28" height="32" viewBox="0 0 28 32">
<path fill="currentColor" d="M15.006 2c-3.869 0-8.219 1.056-11.512 3.463-0.319 0.194-0.569 0.575-0.45 1.213 0.069 0.319 0.319 1.713 0.638 2.475 0.256 0.637 0.888 0.637 1.269 0.381 2.031-1.394 6.031-2.981 9.519-2.981 3.619 0 3.681 1.775 3.681 4.569v2.406c-5.463 0.706-13.262 2.162-15.231 2.988-2.219 1.019-1.9 5.844-1.9 6.988s0.95 6.5 7.806 6.5c2.988 0 7.106-1.294 9.581-2.631v1.587c0 0.188 0.131 0.512 0.381 0.569 0.194 0.063 3.169 0.125 3.744 0.125s3.906 0.019 4.156-0.044c0.256-0.063 0.319-0.381 0.319-0.569v-18.538c-0.006-5.019-3.619-8.5-12-8.5zM18.144 23.75c-1.337 0.825-3.044 1.525-4.944 1.525-3.3 0-3.681-2.094-3.688-2.794 0-0.762-0.188-2.669 1.144-3.306 1.519-0.825 4.694-1.837 7.487-2.094z"/>
</svg>
