<svg version="1.1" xmlns="http://www.w3.org/2000/svg" width="40" height="32" viewBox="0 0 40 32">
<path fill="currentColor" d="M40 14.887l-0.2 1.762-2.156 0.144-0.125 1.131 2.156-0.144-0.2 1.762-2.15 0.137-0.144 1.256 2.15-0.137-0.188 1.631-4.044 0.256 0.794-7.075-2.956 7.212-1.994 0.125-1.488-7.363 1.894-0.125 0.85 4.963 1.981-5.15 5.819-0.387zM26.675 23.219l1.769-0.113 0.806-7.506-1.775 0.119-0.8 7.5zM10.125 24.256l-1.213-2.25-0.219 2.337-1.763 0.106 0.169-1.819c-0.688 1.125-2 2.144-3.556 2.238-2.050 0.125-3.731-1.306-3.525-3.637 0.163-1.831 1.669-3.925 4.219-4.088 2.356-0.15 2.975 1.45 3.206 1.8l0.175-1.925 2.431-0.156c1.256-0.081 2.419 0.231 2.656 1.481l0.162-1.663 4.050-0.262-0.169 1.744-2.275 0.15-0.106 1.119 2.275-0.144-0.169 1.744-2.275 0.144-0.119 1.244 2.269-0.144-0.131 1.3 3.438-7.325 1.488-0.1 2.006 6.912 0.556-5.35-1.394 0.087 0.181-1.744 4.688-0.306-0.188 1.75-1.519 0.1-0.606 5.744-3.625 0.231-0.269-0.975-2.462 0.156-0.5 1.019-7.887 0.481zM7.356 19.869l-1.65 0.106c-0.419-0.775-0.9-1.038-1.644-0.988-1.188 0.075-2.081 1.094-2.163 2.081-0.087 1 0.456 2.031 1.794 1.95 0.8-0.050 1.331-0.538 1.806-1.181l1.688-0.106 0.169-1.863zM10.863 19.387c0.075-0.806-0.475-0.85-1.631-0.775l-0.169 1.781c0.887-0.056 1.719-0.131 1.8-1.006zM12.181 23.813l0.363-3.75c-0.313 0.844-0.919 1.319-1.744 1.663l1.381 2.087zM20.644 21l-0.494-2.363-0.988 2.456 1.481-0.094zM10.012 16.337l-0.269-1.094-2.475 0.162-0.506 1.138-1.994 0.131 3.563-7.619 1.494-0.1 1.919 6.375 0.619-6.544 1.688-0.113 2.362 3.975 0.406-4.162 1.781-0.119-0.25 2.575c0.462-0.844 1.431-2.794 3.975-2.969 2.531-0.175 3.275 1.831 3.337 1.894l0.206-2 2.456-0.169c0.794-0.056 1.738 0.019 2.269 0.606l-0.275-0.744 2.013-0.138 0.806 2.7 1.438-2.856 1.938-0.138-2.725 4.9-0.3 2.769-1.775 0.119 0.3-2.769-0.988-2.688c0.063 1.394-0.575 2.506-2 3.1l1.575 2.425-2.275 0.15-1.2-2.3-0.25 2.394-1.775 0.119 0.206-1.969c-0.419 0.581-1.231 2.213-3.725 2.375-1.637 0.106-2.85-0.644-3.462-2.45l-0.25 2.519-1.563 0.1-2.35-3.956-0.394 4.137-3.55 0.231zM27.3 11.206c0.637-0.044 1.094-0.131 1.35-0.269 0.281-0.15 0.438-0.4 0.475-0.756 0.038-0.331-0.038-0.55-0.212-0.65-0.225-0.131-0.663-0.175-1.431-0.125l-0.181 1.8zM20.481 13.375c0.35 0.369 0.794 0.531 1.331 0.494 0.294-0.019 0.569-0.113 0.831-0.256 0.344-0.188 0.663-0.5 0.944-0.894l-2.137 0.144 0.15-1.494 3.944-0.269 0.075-0.75-1.95 0.131c-0.256-0.231-0.488-0.412-0.694-0.506-0.25-0.106-0.506-0.175-0.762-0.156-0.5 0.031-0.956 0.225-1.375 0.575-0.481 0.4-0.75 0.906-0.806 1.525-0.069 0.6 0.087 1.081 0.45 1.456zM7.9 13.887l1.488-0.1-0.519-2.35-0.969 2.45z"/>
</svg>
