<svg version="1.1" xmlns="http://www.w3.org/2000/svg" width="40" height="32" viewBox="0 0 40 32">
<path fill="currentColor" d="M2.631 14.944c1.387 0 1.812 0.175 2.094 0.912h0.050v-1.431c0-0.706-0.3-0.963-1.119-0.963-0.706 0-0.9 0.156-0.944 0.8h-2.413c0.019-0.869 0.094-1.194 0.363-1.525 0.456-0.55 1.181-0.738 2.881-0.738 2.063 0 2.944 0.313 3.369 1.181 0.125 0.269 0.25 0.975 0.25 1.481v4.769h-2.394l0.081-1.194h-0.063c-0.331 0.975-0.85 1.275-2.219 1.275-1.894 0-2.569-0.631-2.569-2.331 0-1.575 0.769-2.238 2.631-2.238zM3.7 17.95c0.819 0 1.056-0.188 1.056-0.837 0-0.569-0.269-0.725-1.225-0.725-0.819 0-1.119 0.188-1.119 0.756-0.006 0.65 0.231 0.806 1.288 0.806zM8.563 12.019h2.394l-0.094 1.287h0.050c0.569-1.069 0.994-1.306 2.344-1.306 0.9 0 1.544 0.188 1.969 0.569 0.613 0.537 0.8 1.275 0.8 3.006 0 1.875-0.188 2.694-0.756 3.306-0.425 0.456-1.025 0.631-2.075 0.631-1.275 0-1.825-0.344-2.113-1.325h-0.050v4.394h-2.469v-10.563zM13.619 15.813c0-1.719-0.206-2.031-1.294-2.031-1.056 0-1.294 0.313-1.294 1.794 0 1.75 0.219 2.094 1.325 2.094 1.025 0 1.262-0.35 1.262-1.856zM17.238 12.019h2.394l-0.094 1.287h0.050c0.569-1.069 0.994-1.306 2.344-1.306 0.9 0 1.544 0.188 1.969 0.569 0.613 0.537 0.8 1.275 0.8 3.006 0 1.875-0.188 2.694-0.756 3.306-0.425 0.456-1.025 0.631-2.081 0.631-1.275 0-1.825-0.344-2.113-1.325h-0.050v4.394h-2.469v-10.563zM22.294 15.813c0-1.719-0.206-2.031-1.294-2.031-1.056 0-1.294 0.313-1.294 1.794 0 1.75 0.219 2.094 1.325 2.094 1.025 0 1.262-0.35 1.262-1.856zM25.656 15.575c0-1.588 0.206-2.363 0.769-2.863 0.55-0.506 1.387-0.706 2.819-0.706 2.675 0 3.481 0.8 3.481 3.481v0.694h-4.706c-0.019 0.125-0.019 0.25-0.019 0.3 0 1.056 0.281 1.369 1.256 1.369 0.869 0 1.119-0.188 1.119-0.869h2.344v0.144c0 0.613-0.156 1.181-0.425 1.544-0.456 0.613-1.225 0.85-2.769 0.85-1.719 0-2.6-0.206-3.163-0.769-0.531-0.531-0.706-1.331-0.706-3.175zM30.431 14.85c-0.019-0.113-0.019-0.206-0.019-0.238 0-0.769-0.206-0.912-1.225-0.912-0.9 0-1.069 0.188-1.131 0.944l-0.019 0.206h2.394zM33.906 12.019h2.394l-0.112 1.244h0.044c0.425-0.931 0.9-1.262 1.856-1.262 0.675 0 1.194 0.206 1.462 0.581 0.331 0.456 0.425 0.9 0.425 2.125 0 0.094 0 0.313 0.013 0.581h-2.188c0.019-0.113 0.019-0.206 0.019-0.25 0-0.963-0.125-1.213-0.644-1.213-0.394 0-0.675 0.206-0.819 0.581-0.063 0.188-0.063 0.269-0.063 0.769v4.25h-2.394v-7.406z"/>
</svg>
