<svg version="1.1" xmlns="http://www.w3.org/2000/svg" width="40" height="32" viewBox="0 0 40 32">
<path fill="currentColor" d="M6.7 17.719l-1.188-2.613h-3.256l-1.188 2.613h-1.069l3.888-8.213 3.888 8.213h-1.075zM3.888 11.588l-1.225 2.656h2.45l-1.225-2.656zM10.931 17.988l-3.888-8.213h1.069l2.819 6 2.819-6h1.063l-3.881 8.213zM15.969 17.719v-7.944h0.969v7.944h-0.969zM29.038 10.494v7.225h-1.081v-7.225h-2.575v-0.719h6.225v0.719h-2.569zM40 13.675c0 0.575-0.106 1.113-0.319 1.613s-0.513 0.944-0.888 1.319c-0.375 0.375-0.819 0.675-1.319 0.887s-1.038 0.319-1.612 0.319-1.112-0.106-1.612-0.319c-0.5-0.212-0.944-0.512-1.319-0.887s-0.675-0.813-0.888-1.319c-0.212-0.5-0.319-1.037-0.319-1.613s0.106-1.113 0.319-1.613c0.212-0.5 0.513-0.944 0.888-1.319s0.813-0.525 1.319-0.744c0.5-0.213 1.038-0.319 1.612-0.319s1.112 0.106 1.612 0.319c0.5 0.213 0.944 0.363 1.319 0.744 0.375 0.375 0.669 0.819 0.888 1.319 0.212 0.5 0.319 1.037 0.319 1.613zM39.031 13.675c0-0.456-0.081-0.875-0.244-1.269s-0.388-0.731-0.675-1.019c-0.288-0.287-0.625-0.512-1.013-0.681s-0.8-0.25-1.237-0.25-0.85 0.081-1.237 0.25c-0.388 0.169-0.725 0.394-1.013 0.681s-0.513 0.625-0.675 1.019c-0.163 0.394-0.244 0.819-0.244 1.269 0 0.456 0.081 0.875 0.244 1.269s0.388 0.731 0.675 1.019c0.288 0.288 0.625 0.512 1.013 0.681s0.8 0.25 1.237 0.25 0.85-0.081 1.237-0.25c0.388-0.169 0.725-0.394 1.013-0.681s0.513-0.625 0.675-1.019c0.163-0.394 0.244-0.819 0.244-1.269zM33.106 19.719v-0.394l5.556-0.625-15.181 0.837c0.038-0.137 0.069-0.288 0.087-0.45 0.019-0.125 0.031-0.262 0.038-0.406l4.050-0.506-4.056 0.119c0-0.025-0.006-0.044-0.006-0.069-0.175-1.075-1.594-1.481-1.594-1.481l-0.069-1.644h1.488l1.188 2.613h1.069l-3.887-8.213-3.887 8.213h1.069l1.188-2.613h1.475l-0.069 1.65s-1.419 0.406-1.594 1.481c-0.006 0.019-0.006 0.044-0.006 0.069l-4.056-0.119 4.050 0.506c0.006 0.144 0.019 0.275 0.038 0.406 0.019 0.163 0.050 0.313 0.087 0.45l-15.181-0.844 5.556 0.625v0.394c-0.369 0.056-0.656 0.375-0.656 0.762 0 0.425 0.35 0.775 0.775 0.775s0.775-0.35 0.775-0.775c0-0.387-0.287-0.706-0.656-0.762v-0.363l5.019 0.563v0.337c-0.356 0.069-0.619 0.387-0.619 0.756 0 0.425 0.35 0.637 0.775 0.637s0.775-0.212 0.775-0.637c0-0.375-0.269-0.688-0.619-0.756v-0.306l1.775 0.2v1.481h-0.369v0.869h0.369v-0.413h0.313v0.413h0.369v-0.863h-0.369v-1.45l2.394 0.269c0.506 0.712 1.188 0.85 1.188 0.85l-0.006 0.419-0.319 0.012-0.006 0.756h0.256l0.006-0.313h0.325l0.006 0.313h0.256l-0.006-0.756-0.319-0.012-0.006-0.419s0.681-0.131 1.188-0.85l2.394-0.269v1.45h-0.369v0.863h0.369v-0.413h0.313v0.413h0.369v-0.863h-0.369v-1.481l1.775-0.2v0.306c-0.356 0.069-0.619 0.387-0.619 0.756 0 0.425 0.35 0.637 0.775 0.637s0.775-0.212 0.775-0.637c0-0.375-0.269-0.688-0.619-0.756v-0.337l5.019-0.563v0.363c-0.369 0.056-0.656 0.375-0.656 0.762 0 0.425 0.35 0.775 0.775 0.775s0.775-0.35 0.775-0.775c-0.013-0.394-0.294-0.712-0.669-0.769zM20.556 14.244l1.225-2.656 1.225 2.656h-1.119l-0.106-2.519-0.106 2.519h-1.119z"/>
</svg>
