<svg version="1.1" xmlns="http://www.w3.org/2000/svg" width="32" height="32" viewBox="0 0 32 32">
<path fill="currentColor" d="M30.538 6.506c1.044 1.131 1.525 2.481 1.456 4.106v12.65c-0.025 1.65-0.575 3.006-1.656 4.069-1.075 1.063-2.444 1.619-4.094 1.669h-20.492c-1.653-0.050-3.013-0.613-4.080-1.7s-1.623-2.519-1.671-4.288v-12.4c0.048-1.625 0.605-2.975 1.671-4.106 1.067-1.022 2.427-1.583 4.080-1.631h1.836l-1.584-1.613c-0.359-0.358-0.539-0.813-0.539-1.362s0.18-1.004 0.539-1.362c0.359-0.358 0.816-0.538 1.366-0.538s1.006 0.179 1.369 0.538l4.581 4.337h5.5l4.656-4.337c0.381-0.358 0.85-0.538 1.4-0.538s1.006 0.179 1.369 0.538c0.356 0.359 0.538 0.812 0.538 1.362s-0.181 1.004-0.538 1.362l-1.581 1.613h1.831c1.65 0.048 3 0.609 4.044 1.631v0zM28.113 10.863c-0.025-0.6-0.231-1.088-0.669-1.469-0.325-0.381-0.875-0.588-1.419-0.613h-20.022c-0.599 0.025-1.091 0.231-1.474 0.613s-0.587 0.869-0.611 1.469v12.15c0 0.575 0.204 1.063 0.611 1.469s0.899 0.613 1.474 0.613h20.022c0.575 0 1.063-0.206 1.456-0.613s0.606-0.894 0.631-1.469v-12.15zM11.594 13.531c0.394 0.394 0.606 0.881 0.631 1.45v2.081c-0.025 0.575-0.231 1.056-0.613 1.45-0.387 0.394-0.875 0.594-1.475 0.594s-1.094-0.2-1.475-0.594c-0.381-0.394-0.588-0.875-0.613-1.45v-2.081c0.025-0.569 0.238-1.056 0.631-1.45s0.825-0.6 1.456-0.625c0.575 0.025 1.063 0.231 1.456 0.625v0zM23.563 13.531c0.394 0.394 0.606 0.881 0.631 1.45v2.081c-0.025 0.575-0.231 1.056-0.613 1.45s-0.875 0.594-1.475 0.594c-0.6 0-1.087-0.2-1.475-0.594-0.438-0.394-0.587-0.875-0.606-1.45v-2.081c0.019-0.569 0.231-1.056 0.625-1.45s0.881-0.6 1.456-0.625c0.575 0.025 1.063 0.231 1.456 0.625v0z"/>
</svg>
