<svg version="1.1" xmlns="http://www.w3.org/2000/svg" width="28" height="32" viewBox="0 0 28 32">
<path fill="currentColor" d="M10.15 12.25c0.3-0.306 0.387-0.319 2.275-0.319 1.7 0 1.756 0.006 2.006 0.131 0.363 0.181 0.519 0.438 0.519 0.85 0 0.369-0.15 0.625-0.475 0.838-0.175 0.113-0.281 0.119-1.944 0.131-1.025 0.006-1.844-0.012-1.969-0.050-0.644-0.181-0.881-1.106-0.412-1.581zM13.988 18.156c-3.369 0-3.488 0.012-3.762 0.256-0.219 0.194-0.356 0.587-0.319 0.869 0.044 0.294 0.3 0.631 0.575 0.75 0.137 0.063 0.881 0.106 3.519 0.075l2.994-0.038 0.575-0.094c0.563-0.319 0.656-1.087 0.194-1.525-0.331-0.294-0.313-0.294-3.775-0.294zM27.95 26.288c-0.219 1.775-1.438 3.15-3.194 3.594-0.45 0.113-0.606 0.119-10.806 0.113-9.863 0-10.369-0.006-10.75-0.113-0.525-0.137-0.975-0.344-1.394-0.625-0.35-0.238-0.869-0.738-1.063-1.025-0.238-0.35-0.512-0.956-0.625-1.375s-0.119-0.587-0.119-10.837c0-10.194 0-10.412 0.113-10.856 0.394-1.544 1.619-2.725 3.2-3.075 0.456-0.1 20.756-0.119 21.25-0.019 1.325 0.269 2.369 1.069 2.975 2.275 0.481 0.956 0.438-0.094 0.456 11.287 0.012 7.238 0 10.281-0.044 10.656zM22.613 14.713c-0.069-0.313-0.262-0.6-0.481-0.719-0.069-0.037-0.5-0.081-0.969-0.106-0.775-0.037-0.863-0.050-1.113-0.194-0.387-0.225-0.494-0.475-0.5-1.144 0-1.275-0.531-2.463-1.581-3.531-0.75-0.762-1.581-1.281-2.537-1.569-0.225-0.069-0.738-0.094-2.45-0.112-2.681-0.031-3.281 0.025-4.194 0.388-1.688 0.669-2.894 2.088-3.338 3.9-0.081 0.338-0.1 0.887-0.119 4.019-0.025 3.925 0 4.506 0.25 5.281 0.606 1.919 2.319 3.337 4.037 3.65 0.575 0.106 7.637 0.131 8.356 0.031 1.256-0.169 2.244-0.675 3.169-1.619 0.669-0.681 1.087-1.425 1.363-2.406 0.2-0.681 0.181-5.525 0.106-5.869z"/>
</svg>
