<svg version="1.1" xmlns="http://www.w3.org/2000/svg" width="40" height="32" viewBox="0 0 40 32">
<path fill="currentColor" d="M5.396 12.365c-0.012-0-0.026-0-0.040-0-1.037 0-1.96 0.488-2.552 1.247l-0.005 0.007v-3.867c0-0.283-0.229-0.512-0.512-0.512v0h-1.775c-0.283 0-0.512 0.229-0.512 0.512v0 11.096c0 0.283 0.229 0.512 0.512 0.512 0 0 0 0 0 0h1.775c0 0 0 0 0 0 0.283 0 0.512-0.229 0.512-0.512v-0.506c0.727 0.836 1.617 1.236 2.598 1.236 2.163 0 3.87-1.635 3.87-4.615-0-2.871-1.69-4.597-3.87-4.597zM4.47 19.106c-0.6 0-1.326-0.309-1.672-0.781v-2.689c0.345-0.472 1.072-0.799 1.672-0.799 1.108 0 1.944 0.818 1.944 2.126 0 1.326-0.836 2.144-1.944 2.144zM14.243 15.416c-0.601 0-1.088 0.487-1.088 1.087s0.487 1.087 1.088 1.087c0.601 0 1.088-0.487 1.088-1.087v0c0-0.601-0.487-1.088-1.088-1.088v0zM17.122 9.794v-2.791c0.303-0.129 0.512-0.424 0.512-0.768 0-0.459-0.372-0.832-0.832-0.832s-0.832 0.372-0.832 0.832c0 0.344 0.209 0.639 0.506 0.766l0.005 0.002v2.791c-3.57 0.175-6.398 3.113-6.398 6.71 0 3.71 3.008 6.718 6.718 6.718s6.718-3.008 6.718-6.718c0-3.598-2.828-6.535-6.383-6.71l-0.016-0.001zM22.497 16.504c0 1.908-2.549 3.455-5.695 3.455s-5.694-1.547-5.694-3.455 2.55-3.455 5.694-3.455 5.694 1.547 5.694 3.455zM19.362 17.592c0.601 0 1.087-0.487 1.087-1.087s-0.487-1.088-1.087-1.088c-0.601 0-1.087 0.487-1.087 1.088v0 0c0 0.601 0.487 1.087 1.087 1.087v0zM36.294 15.653c-0.927-0.164-1.399-0.236-1.399-0.618 0-0.345 0.454-0.618 1.108-0.618 0.8 0.006 1.544 0.24 2.172 0.641l-0.017-0.010c0.078 0.051 0.173 0.081 0.276 0.081 0.18 0 0.338-0.093 0.429-0.233l0.001-0.002c0.004-0.007 0.009-0.014 0.013-0.021l0.538-0.93c0.043-0.074 0.069-0.162 0.069-0.256 0-0.185-0.098-0.348-0.246-0.438l-0.002-0.001c-0.914-0.555-2.020-0.884-3.202-0.884-0.017 0-0.035 0-0.052 0l0.003-0c-2.435 0-3.761 1.345-3.761 2.889 0 2.271 2.108 2.617 3.598 2.853 0.836 0.145 1.508 0.273 1.508 0.691 0 0.4-0.345 0.672-1.181 0.672-0.847 0-1.937-0.389-2.664-0.849-0.078-0.051-0.174-0.081-0.276-0.081-0.181 0-0.339 0.093-0.431 0.235l-0.001 0.002c-0.002 0.003-0.004 0.007-0.006 0.010l-0.638 1.056c-0.046 0.075-0.073 0.167-0.073 0.264 0 0.178 0.090 0.334 0.227 0.426l0.002 0.001c0.952 0.644 2.354 1.043 3.715 1.043 2.526 0 3.997-1.236 3.997-2.907 0-2.381-2.216-2.744-3.706-3.017zM30.298 19.453c-0.060-0.221-0.259-0.381-0.496-0.381-0.035 0-0.069 0.004-0.103 0.010l0.003-0.001c-0.078 0.015-0.168 0.024-0.259 0.024h-0c-0.491 0-0.781-0.382-0.781-0.89v-3.198h1.272c0.281-0 0.509-0.228 0.509-0.509v0-1.417c0-0.281-0.228-0.509-0.509-0.509h-1.272v-1.889c0-0.281-0.228-0.509-0.509-0.509v0h-1.762c-0.281 0-0.509 0.228-0.509 0.509v0 0 1.889h-0.945c-0.281 0-0.509 0.228-0.509 0.509v0 0 1.417c0 0.281 0.228 0.509 0.509 0.509v0h0.945v3.979c0 1.69 0.963 2.58 2.744 2.58 0.761 0 1.336-0.137 1.725-0.34 0.165-0.087 0.275-0.257 0.275-0.453 0-0.045-0.006-0.089-0.017-0.131l0.001 0.004z"/>
</svg>
