<svg version="1.1" xmlns="http://www.w3.org/2000/svg" width="36" height="32" viewBox="0 0 36 32">
<path fill="currentColor" d="M18 2c-9.671 0-17.513 6.27-17.513 14s7.843 14 17.513 14 17.513-6.27 17.513-14-7.843-14-17.513-14zM12.663 24.324l-8.657 0.085 4.828-18.171h8.34c3.947 0 5.308 1.791 4.875 4.553-0.027 0.169-0.060 0.314-0.1 0.455l0.007-0.027c-0.323-0.077-0.693-0.121-1.073-0.121-0.001 0-0.002 0-0.002 0h0c-2.647 0-4.793 2.117-4.793 4.728 0 2.321 1.696 4.25 3.933 4.653-1.14 2.323-3.51 3.808-7.357 3.845zM22.375 12.944h2l-1.385 5.644h-2.213l-0.699-2.227-0.489 2.227h-2.364l1.664-5.644h1.959l0.938 2.297zM31.491 24.324h-12.317l0.99-3.824c0.214 0.033 0.461 0.052 0.713 0.052 0.001 0 0.003 0 0.004 0h-0c2.646 0 4.793-2.117 4.793-4.728 0-2.041-1.313-3.779-3.149-4.441l1.333-5.147h5.781l-3.316 12.835h6.492zM13.231 16.837h-1.544l-0.863 3.529h1.544c1.009 0 2.007-0.199 2.371-1.666 0.348-1.394-0.499-1.864-1.509-1.864zM14.563 10.625h-1.334l-0.729 2.982h1.336c1.125 0 2.211-0.915 2.451-1.884 0.291-1.179-0.594-1.098-1.724-1.098z"/>
</svg>
