<svg version="1.1" xmlns="http://www.w3.org/2000/svg" width="32" height="32" viewBox="0 0 32 32">
<path fill="currentColor" d="M23.988 21.981c0.156-0.156 6.575-5.775 6.575-5.775l-1.094-0.469c-0.625-0.306-0.462-0.719-0.313-1.088 0.15-0.475 1.256-4.206 1.256-4.206s-2.981 0.625-3.606 0.781c-0.469 0.15-0.625-0.156-0.781-0.469s-0.938-2.025-0.938-2.025-3.288 3.744-3.444 3.894c-0.625 0.469-1.256 0-1.1-0.625 0-0.625 1.725-8.1 1.725-8.1s-1.881 1.088-2.506 1.4c-0.469 0.313-0.788 0.313-1.1-0.313-0.319-0.469-2.669-4.987-2.669-4.987s-2.344 4.519-2.656 4.987c-0.313 0.625-0.625 0.625-1.1 0.313-0.625-0.313-2.506-1.4-2.506-1.4s1.725 7.475 1.725 8.1c0.156 0.625-0.469 1.094-1.1 0.625-0.156-0.156-3.444-3.894-3.444-3.894s-0.781 1.706-0.938 2.019-0.313 0.619-0.781 0.469c-0.631-0.156-3.606-0.781-3.606-0.781s1.1 3.731 1.256 4.206c0.15 0.375 0.313 0.781-0.313 1.088l-1.094 0.475s6.412 5.619 6.575 5.775c0.319 0.313 0.625 0.469 0.319 1.406-0.319 0.938-0.631 2.194-0.631 2.194s5.95-1.256 6.581-1.413c0.544-0.056 1.144 0.156 1.144 0.781s-0.363 7.050-0.363 7.050h1.875s-0.363-6.419-0.363-7.050 0.594-0.837 1.15-0.781c0.625 0.156 6.575 1.413 6.575 1.413s-0.313-1.256-0.625-2.194 0-1.094 0.313-1.406z"/>
</svg>
