<svg version="1.1" xmlns="http://www.w3.org/2000/svg" width="36" height="32" viewBox="0 0 36 32">
<path fill="currentColor" d="M7.794 12.613c0.006-0.738 0-1.469 0-2.206v-2.206c0-0.081 0.025-0.125 0.088-0.169 0.719-0.5 1.506-0.756 2.388-0.694 0.781 0.056 1.419 0.438 1.756 1.356 0.206 0.556 0.256 1.137 0.256 1.731 0 0.544-0.044 1.081-0.213 1.6-0.356 1.113-1.169 1.544-2.231 1.494-0.731-0.031-1.369-0.313-1.963-0.731-0.056-0.050-0.088-0.1-0.081-0.175zM17.475 13.525c0.288 0.113 0.581 0.125 0.881 0.094 0.725-0.075 1.369-0.356 1.956-0.781 0.056-0.037 0.081-0.081 0.081-0.156-0.006-0.244 0-0.494 0-0.738 0-0.25-0.006-0.5 0-0.75 0-0.088-0.025-0.125-0.113-0.137-0.438-0.056-0.869-0.137-1.306-0.181-0.438-0.037-0.875-0.019-1.3 0.119-0.419 0.137-0.731 0.387-0.856 0.819-0.1 0.338-0.1 0.675 0.006 1.012 0.1 0.344 0.325 0.575 0.65 0.7zM36 5v22c0 1.656-1.344 3-3 3h-30c-1.656 0-3-1.344-3-3v-22c0-1.656 1.344-3 3-3h30c1.656 0 3 1.344 3 3zM23.031 6.494c0.025 0.106 0.056 0.213 0.1 0.319 1.031 2.537 2.056 5.081 3.094 7.619 0.087 0.219 0.106 0.4 0.012 0.619-0.175 0.387-0.306 0.787-0.488 1.169-0.163 0.344-0.419 0.594-0.794 0.7-0.262 0.069-0.531 0.081-0.806 0.056-0.131-0.012-0.262-0.044-0.394-0.050-0.175-0.012-0.262 0.069-0.269 0.25-0.006 0.175-0.006 0.35 0 0.519 0.006 0.288 0.1 0.419 0.387 0.469 0.294 0.050 0.587 0.1 0.887 0.106 0.894 0.019 1.606-0.337 2.069-1.119 0.181-0.306 0.35-0.631 0.481-0.962 1.238-3.131 2.469-6.269 3.7-9.406 0.038-0.094 0.069-0.188 0.081-0.287 0.025-0.15-0.044-0.225-0.194-0.231-0.35-0.006-0.694 0-1.044 0-0.194 0-0.331 0.088-0.4 0.269-0.025 0.069-0.056 0.144-0.081 0.213l-1.819 5.231c-0.131 0.381-0.262 0.756-0.406 1.162-0.025-0.056-0.038-0.088-0.050-0.119-0.675-1.869-1.35-3.744-2.025-5.612-0.106-0.294-0.219-0.594-0.331-0.888-0.056-0.156-0.169-0.25-0.337-0.25-0.4-0.006-0.8-0.013-1.2-0.006-0.137 0-0.206 0.1-0.175 0.231zM15.15 12.875c0.106 0.731 0.475 1.3 1.125 1.662 0.619 0.344 1.294 0.387 1.981 0.287 0.794-0.119 1.494-0.456 2.113-0.969 0.025-0.019 0.050-0.037 0.087-0.063 0.031 0.2 0.056 0.387 0.094 0.575 0.031 0.162 0.131 0.269 0.281 0.275 0.288 0.006 0.569 0.006 0.856 0 0.144-0.006 0.238-0.1 0.25-0.244 0.006-0.050 0.006-0.1 0.006-0.144v-5.55c0-0.225-0.012-0.45-0.044-0.675-0.1-0.675-0.387-1.231-0.994-1.588-0.35-0.206-0.738-0.313-1.137-0.369-0.188-0.025-0.375-0.044-0.569-0.069h-0.625c-0.050 0.006-0.1 0.019-0.156 0.019-0.512 0.025-1.019 0.088-1.512 0.219-0.319 0.081-0.625 0.2-0.938 0.306-0.188 0.063-0.281 0.2-0.275 0.406 0.006 0.175-0.006 0.35 0 0.519 0.006 0.256 0.113 0.325 0.356 0.256 0.406-0.106 0.819-0.219 1.231-0.3 0.644-0.119 1.294-0.169 1.944-0.075 0.337 0.050 0.656 0.15 0.881 0.438 0.194 0.25 0.262 0.55 0.275 0.856 0.019 0.431 0.012 0.869 0.019 1.3 0 0.025-0.006 0.044-0.012 0.075-0.025 0-0.050 0-0.069-0.006-0.55-0.131-1.106-0.225-1.675-0.256-0.594-0.031-1.181 0.006-1.744 0.2-0.675 0.238-1.219 0.644-1.537 1.3-0.256 0.519-0.287 1.063-0.213 1.613zM6.169 6.681v10.956c0 0.050 0 0.106 0.006 0.156 0.013 0.156 0.106 0.256 0.256 0.262 0.369 0.006 0.737 0.006 1.106 0 0.156 0 0.25-0.106 0.256-0.256 0.006-0.050 0.006-0.106 0.006-0.156v-3.794c0.056 0.044 0.088 0.075 0.119 0.1 0.938 0.781 2.012 1.037 3.194 0.806 1.069-0.213 1.806-0.869 2.294-1.825 0.363-0.725 0.519-1.506 0.544-2.313 0.031-0.894-0.063-1.775-0.425-2.606-0.444-1.025-1.181-1.706-2.294-1.931-0.169-0.037-0.344-0.050-0.512-0.075h-0.438c-0.075 0.013-0.15 0.019-0.225 0.031-0.731 0.088-1.394 0.362-1.988 0.794-0.125 0.088-0.244 0.188-0.369 0.281-0.006-0.031-0.019-0.050-0.025-0.075-0.025-0.144-0.044-0.287-0.069-0.431-0.037-0.244-0.156-0.344-0.4-0.35h-0.606c-0.369-0.006-0.431 0.063-0.431 0.425zM30.85 21.188c-0.169-0.044-0.319 0-0.475 0.063-2.744 1.15-5.594 1.887-8.55 2.238-0.906 0.106-1.819 0.175-2.731 0.2-1.663 0.044-3.325-0.050-4.975-0.269-1.113-0.15-2.219-0.356-3.313-0.619-2.313-0.556-4.544-1.356-6.669-2.425-0.55-0.275-1.087-0.581-1.631-0.875-0.237-0.131-0.388-0.094-0.512 0.131v0.106c0.075 0.1 0.137 0.212 0.231 0.3 2.25 2.012 4.787 3.531 7.625 4.556 1.369 0.494 2.775 0.856 4.206 1.094 0.875 0.144 1.75 0.238 2.637 0.281 0.188 0.006 0.375 0.012 0.563 0.025 0.044 0 0.087 0.012 0.131 0.019h1.106c0.044-0.006 0.087-0.019 0.131-0.019 0.931-0.025 1.863-0.113 2.788-0.25 1.337-0.2 2.65-0.506 3.931-0.919 1.85-0.6 3.606-1.4 5.212-2.506 0.175-0.119 0.356-0.238 0.5-0.387 0.269-0.275 0.144-0.65-0.206-0.744zM34 19.456c-0.050-0.262-0.25-0.363-0.475-0.438-0.356-0.119-0.725-0.175-1.1-0.206-0.688-0.056-1.375-0.025-2.050 0.1-0.75 0.137-1.462 0.381-2.094 0.819-0.075 0.050-0.15 0.113-0.194 0.188-0.038 0.056-0.044 0.144-0.031 0.212 0.019 0.081 0.106 0.1 0.188 0.094 0.038 0 0.075 0 0.113-0.006l1.219-0.131c0.6-0.056 1.2-0.094 1.8-0.050 0.256 0.019 0.506 0.075 0.75 0.137 0.269 0.069 0.388 0.275 0.4 0.544 0.019 0.419-0.075 0.819-0.181 1.219-0.219 0.806-0.519 1.587-0.831 2.363-0.019 0.050-0.044 0.106-0.050 0.156-0.025 0.156 0.063 0.25 0.212 0.219 0.087-0.019 0.188-0.069 0.25-0.131 0.231-0.225 0.469-0.45 0.663-0.7 0.669-0.863 1.063-1.85 1.294-2.913 0.044-0.188 0.075-0.381 0.106-0.569 0.013-0.294 0.013-0.6 0.013-0.906z"/>
</svg>
