<svg version="1.1" xmlns="http://www.w3.org/2000/svg" width="36" height="32" viewBox="0 0 36 32">
<path fill="currentColor" d="M18.887 13.65c0 1.075-0.656 1.694-1.813 1.694h-1.519v-3.387h1.525c1.15 0 1.806 0.613 1.806 1.694zM21.856 17.563c0 0.519 0.45 0.856 1.156 0.856 0.9 0 1.575-0.569 1.575-1.369v-0.481l-1.469 0.094c-0.831 0.056-1.262 0.363-1.262 0.9zM36 4.938v22c0 1.656-1.344 3-3 3h-30c-1.656 0-3-1.344-3-3v-22c0-1.656 1.344-3 3-3h30c1.656 0 3 1.344 3 3zM7.987 12.325c0.525 0.044 1.050-0.262 1.381-0.65 0.325-0.4 0.537-0.938 0.481-1.481-0.463 0.019-1.037 0.306-1.369 0.706-0.3 0.344-0.556 0.9-0.494 1.425zM11.775 16.981c-0.012-0.012-1.225-0.475-1.238-1.875-0.012-1.169 0.956-1.731 1-1.762-0.55-0.813-1.4-0.9-1.694-0.919-0.762-0.044-1.412 0.431-1.775 0.431-0.369 0-0.919-0.412-1.519-0.4-0.781 0.012-1.513 0.456-1.906 1.162-0.819 1.412-0.213 3.5 0.581 4.65 0.388 0.569 0.856 1.194 1.469 1.169 0.581-0.025 0.813-0.375 1.512-0.375 0.706 0 0.906 0.375 1.519 0.369 0.637-0.012 1.031-0.569 1.425-1.137 0.431-0.65 0.613-1.275 0.625-1.313zM20.238 13.644c0-1.662-1.156-2.8-2.806-2.8h-3.2v8.525h1.325v-2.913h1.831c1.675 0 2.85-1.15 2.85-2.813zM25.863 15.125c0-1.231-0.988-2.025-2.5-2.025-1.406 0-2.444 0.806-2.481 1.906h1.194c0.1-0.525 0.587-0.869 1.25-0.869 0.813 0 1.262 0.375 1.262 1.075v0.469l-1.65 0.1c-1.538 0.094-2.369 0.725-2.369 1.819 0 1.106 0.856 1.837 2.087 1.837 0.831 0 1.6-0.419 1.95-1.087h0.025v1.025h1.225v-4.25zM32.25 13.181h-1.344l-1.556 5.037h-0.025l-1.556-5.037h-1.394l2.244 6.206-0.119 0.375c-0.2 0.637-0.531 0.887-1.119 0.887-0.106 0-0.306-0.012-0.387-0.019v1.025c0.075 0.025 0.406 0.031 0.506 0.031 1.294 0 1.9-0.494 2.431-1.988l2.319-6.519z"/>
</svg>
