<svg version="1.1" xmlns="http://www.w3.org/2000/svg" width="36" height="32" viewBox="0 0 36 32">
<path fill="currentColor" d="M3 30c-1.657 0-3-1.344-3-3v-22c0-1.657 1.343-3 3-3h30c1.656 0 3 1.343 3 3v0.152h-4.719l-1.063 2.973-1.056-2.973h-6.075v3.948l-1.756-3.948h-4.912l-5.106 11.542h4.113v10.238h12.731l1.994-2.194 1.994 2.194h3.856v0.069c0 1.656-1.344 3-3 3h-30zM30.163 22.75l-2.637 2.894h-3.119l4.219-4.481-4.219-4.531h3.212l2.594 2.919 2.625-2.919h3.163l-4.25 4.506 4.25 4.506h-3.212l-2.625-2.894zM36 18.556v5.206l-2.456-2.619 2.456-2.587zM19.225 23.569h5.188v2.075h-7.625v-8.95h7.625v2.069h-5.188v1.4h5.056v2.019h-5.056v1.387zM33.581 9.106l-2.306 6.287h-2.15l-2.3-6.269v6.269h-2.419v-8.956h3.825l1.994 5.581 2.012-5.581h3.763v8.956h-2.419v-6.287zM20.906 13.6h-4.119l-0.744 1.794h-2.688l3.9-8.956h3.2l3.956 8.956h-2.756l-0.75-1.794zM18.844 8.656l-1.219 2.931h2.431l-1.212-2.931z"/>
</svg>
