<svg version="1.1" xmlns="http://www.w3.org/2000/svg" width="36" height="32" viewBox="0 0 36 32">
<path fill="currentColor" d="M32.525 12.256c0-0.494-0.344-0.756-0.975-0.756h-0.306v1.556h0.294c0.644 0 0.988-0.275 0.988-0.8zM33 2h-30c-1.656 0-3 1.344-3 3v22c0 1.656 1.344 3 3 3h30c1.656 0 3-1.344 3-3v-22c0-1.656-1.344-3-3-3zM30.244 10.681c1.413 0 3.306-0.256 3.306 1.525 0 0.787-0.413 1.294-1.169 1.45l1.612 2.15h-1.225l-1.387-2.050h-0.137v2.050h-1zM26.75 10.688h2.831v0.875h-1.831v1.137h1.769v0.863h-1.769v1.387h1.831v0.863h-2.831zM22.456 10.688l1.369 3.45 1.387-3.45h1.094l-2.219 5.262h-0.538l-2.188-5.262zM18.962 10.5c1.544 0 2.788 1.25 2.788 2.787 0 1.544-1.25 2.787-2.788 2.787-1.544 0-2.788-1.25-2.788-2.787 0-1.544 1.25-2.787 2.788-2.787zM15.881 10.881v1.188c-1.256-1.256-2.925-0.294-2.925 1.188 0 1.563 1.719 2.406 2.925 1.2v1.188c-1.856 0.894-3.956-0.356-3.956-2.388 0-1.95 2.069-3.313 3.956-2.375zM9.806 15.025c0.713 0 1.4-0.956-0.206-1.525-0.938-0.344-1.262-0.713-1.262-1.419 0-1.45 1.912-1.963 3.106-0.894l-0.525 0.675c-0.65-0.725-1.556-0.387-1.556 0.156 0 0.275 0.169 0.431 0.769 0.644 1.137 0.412 1.475 0.781 1.475 1.6 0 1.844-2.425 2.338-3.537 0.706l0.644-0.619c0.231 0.444 0.619 0.675 1.094 0.675zM3.462 15.813h-1.462v-5.125h1.462c1.631 0 2.756 1.063 2.756 2.569 0 1.156-0.825 2.556-2.756 2.556zM7.681 15.813h-1v-5.125h1zM34 27.063c0 0.512-0.425 0.938-0.938 0.938h-25.063c11.85-2.225 23.919-8.7 26-10zM4.631 11.975c-0.325-0.306-0.725-0.412-1.369-0.412h-0.263v3.387h0.263c0.644 0 1.062-0.125 1.369-0.4 0.356-0.325 0.556-0.8 0.556-1.294s-0.2-0.969-0.556-1.281z"/>
</svg>
