<svg version="1.1" xmlns="http://www.w3.org/2000/svg" width="36" height="32" viewBox="0 0 36 32">
<path fill="currentColor" d="M14.981 4.994c-6.056 0-10.988 4.912-10.988 10.988 0 6.056 4.931 10.987 10.988 10.987 6.075 0 10.988-4.931 10.988-10.988 0-6.075-4.913-10.988-10.988-10.988zM12.488 22.469c-2.606-0.994-4.463-3.525-4.463-6.488s1.856-5.494 4.463-6.506v12.994zM17.475 22.488v-13.012c2.606 1.012 4.462 3.544 4.462 6.506s-1.856 5.494-4.462 6.506zM33 2h-30c-1.656 0-3 1.344-3 3v22c0 1.656 1.344 3 3 3h30c1.656 0 3-1.344 3-3v-22c0-1.656-1.344-3-3-3zM20.606 28h-5.644c-6.637 0-12.113-5.344-12.113-11.887 0-7.162 5.475-12.113 12.113-12.113h5.644c6.563 0 12.544 4.95 12.544 12.113 0 6.544-5.981 11.887-12.544 11.887z"/>
</svg>
