<svg version="1.1" xmlns="http://www.w3.org/2000/svg" width="36" height="32" viewBox="0 0 36 32">
<path fill="currentColor" d="M26.969 15.269v-2.019c2.575 0 2.406 0.012 2.406 0.012 0.456 0.081 0.831 0.456 0.831 1 0 0.55-0.375 0.906-0.831 0.988-0.075 0.025-0.206 0.019-2.406 0.019zM29.644 16.531c-0.175-0.044-0.206-0.031-2.675-0.031v2.188c2.475 0 2.5 0.012 2.675-0.031 0.469-0.094 0.844-0.5 0.844-1.063 0-0.544-0.375-0.969-0.844-1.063zM36 5v22c0 1.656-1.344 3-3 3h-30c-1.656 0-3-1.344-3-3v-22c0-1.656 1.344-3 3-3h30c1.656 0 3 1.344 3 3zM11.375 12.019h-3.563c0 4.194 0.669 6.856-2.237 6.856-1.219 0-2.425-0.356-3.575-0.925v1.75c1.875 0.519 4.25 0.519 4.25 0.519 6.119 0 5.125-2.981 5.125-8.2zM22.531 12.3c-3.962-1-10.313-0.931-10.313 3.706 0 4.819 6.762 4.6 10.313 3.7v-1.769c-2.975 1.544-6.719 1.375-6.719-1.938s3.738-3.475 6.719-1.95v-1.75zM34 17.906c0-1.156-1.031-1.906-2.375-2v-0.050c1.219-0.169 1.894-0.969 1.894-1.887 0-1.188-0.981-1.875-2.313-1.938 0 0 0.394-0.019-7.519-0.019v7.969h7.669c1.519 0.006 2.644-0.806 2.644-2.075z"/>
</svg>
