<svg version="1.1" xmlns="http://www.w3.org/2000/svg" width="36" height="32" viewBox="0 0 36 32">
<path fill="currentColor" d="M11.644 16.137c0 0.762-0.606 1.344-1.375 1.344-0.575 0-1-0.325-1-0.938 0-0.762 0.594-1.375 1.356-1.375 0.581 0 1.019 0.356 1.019 0.969zM5.031 13.106h-0.294c-0.094 0-0.188 0.063-0.2 0.169l-0.269 1.669 0.513-0.019c0.688 0 1.219-0.094 1.344-0.887 0.144-0.838-0.388-0.931-1.094-0.931zM22.781 13.106h-0.281c-0.113 0-0.188 0.063-0.2 0.169l-0.262 1.669 0.5-0.019c0.813 0 1.375-0.188 1.375-1.125-0.006-0.662-0.6-0.694-1.131-0.694zM36 5v22c0 1.656-1.344 3-3 3h-30c-1.656 0-3-1.344-3-3v-22c0-1.656 1.344-3 3-3h30c1.656 0 3 1.344 3 3zM8.019 13.463c0-1.313-1.013-1.75-2.169-1.75h-2.5c-0.156 0-0.313 0.125-0.325 0.294l-1.025 6.381c-0.019 0.125 0.075 0.25 0.2 0.25h1.188c0.169 0 0.325-0.181 0.344-0.356l0.281-1.663c0.063-0.45 0.825-0.294 1.125-0.294 1.787 0 2.881-1.063 2.881-2.863zM13.281 14.012h-1.188c-0.238 0-0.25 0.344-0.262 0.512-0.363-0.531-0.887-0.625-1.481-0.625-1.531 0-2.7 1.344-2.7 2.825 0 1.219 0.763 2.012 1.981 2.012 0.563 0 1.262-0.306 1.656-0.744-0.031 0.094-0.063 0.294-0.063 0.387 0 0.144 0.063 0.25 0.2 0.25h1.075c0.169 0 0.313-0.181 0.344-0.356l0.637-4.019c0.019-0.119-0.075-0.244-0.2-0.244zM15.813 20.131l3.981-5.787c0.031-0.031 0.031-0.063 0.031-0.106 0-0.106-0.094-0.219-0.2-0.219h-1.2c-0.106 0-0.219 0.063-0.281 0.156l-1.656 2.438-0.688-2.344c-0.050-0.137-0.188-0.25-0.344-0.25h-1.169c-0.106 0-0.2 0.113-0.2 0.219 0 0.075 1.219 3.55 1.325 3.881-0.169 0.238-1.281 1.788-1.281 1.975 0 0.113 0.094 0.2 0.2 0.2h1.2c0.113-0.006 0.219-0.069 0.281-0.163zM25.769 13.463c0-1.313-1.012-1.75-2.169-1.75h-2.481c-0.169 0-0.325 0.125-0.344 0.294l-1.012 6.375c-0.012 0.125 0.081 0.25 0.2 0.25h1.281c0.125 0 0.219-0.094 0.25-0.2l0.281-1.813c0.063-0.45 0.825-0.294 1.125-0.294 1.775 0 2.869-1.063 2.869-2.863zM31.031 14.012h-1.188c-0.238 0-0.25 0.344-0.269 0.512-0.344-0.531-0.875-0.625-1.481-0.625-1.531 0-2.7 1.344-2.7 2.825 0 1.219 0.762 2.012 1.981 2.012 0.581 0 1.281-0.306 1.656-0.744-0.019 0.094-0.063 0.294-0.063 0.387 0 0.144 0.063 0.25 0.2 0.25h1.081c0.169 0 0.313-0.181 0.344-0.356l0.637-4.019c0.019-0.119-0.075-0.244-0.2-0.244zM34 11.931c0-0.125-0.094-0.219-0.2-0.219h-1.156c-0.094 0-0.188 0.075-0.2 0.169l-1.012 6.5-0.019 0.031c0 0.113 0.094 0.219 0.219 0.219h1.031c0.156 0 0.313-0.181 0.325-0.356l1.013-6.325v-0.019zM28.375 15.169c-0.762 0-1.356 0.606-1.356 1.375 0 0.606 0.438 0.938 1.012 0.938 0.75 0 1.356-0.575 1.356-1.344 0.006-0.613-0.431-0.969-1.012-0.969z"/>
</svg>
