<svg version="1.1" xmlns="http://www.w3.org/2000/svg" width="36" height="32" viewBox="0 0 36 32">
<path fill="currentColor" d="M30.775 13.8c-0.556 0-1.169 0.419-1.169 1.419h2.294c0-1-0.581-1.419-1.125-1.419zM23.438 13.963c-0.512 0-0.831 0.181-1.063 0.438l0.012 3.3c0.219 0.231 0.531 0.419 1.050 0.419 0.819 0 1.369-0.894 1.369-2.087 0-1.162-0.563-2.075-1.369-2.069zM33 2h-30c-1.656 0-3 1.344-3 3v22c0 1.656 1.344 3 3 3h30c1.656 0 3-1.344 3-3v-22c0-1.656-1.344-3-3-3zM7.638 17.569c0 1.6-1.269 2.506-3.119 2.519-0.763 0-1.6-0.15-2.425-0.506v-2.119c0.75 0.4 1.694 0.706 2.431 0.706 0.494 0 0.85-0.131 0.85-0.544 0-1.063-3.375-0.663-3.375-3.119 0-1.575 1.2-2.513 3-2.513 0.737 0 1.469 0.113 2.206 0.406v2.088c-0.675-0.363-1.531-0.569-2.206-0.569-0.469 0-0.756 0.137-0.756 0.481 0 1 3.394 0.525 3.394 3.169zM11.938 14.031h-1.688v3.156c0 1.306 1.406 0.9 1.688 0.788v1.806c-0.294 0.163-0.831 0.294-1.556 0.294-1.319 0-2.306-0.969-2.306-2.281l0.012-7.119 2.169-0.463v1.925h1.681zM16.563 14.181c-0.281-0.094-1.169-0.225-1.694 0.463v5.275h-2.219v-7.781h1.919l0.137 0.656c0.519-0.956 1.556-0.762 1.85-0.656h0.006zM19.319 19.919h-2.231v-7.781h2.231zM19.319 10.988l-2.231 0.475v-1.806l2.231-0.475zM23.95 20.081c-0.775 0-1.25-0.331-1.569-0.563l-0.006 2.512-2.219 0.469v-10.363h1.956l0.113 0.55c0.306-0.281 0.869-0.694 1.738-0.694 1.556 0 3.025 1.406 3.025 3.987 0 2.819-1.45 4.094-3.038 4.1zM33.975 16.863h-4.344c0.1 1.038 0.863 1.344 1.725 1.344 0.881 0 1.575-0.188 2.181-0.494v1.788c-0.606 0.331-1.4 0.575-2.462 0.575-2.163 0-3.675-1.356-3.675-4.031 0-2.262 1.281-4.056 3.394-4.056 2.106 0 3.206 1.794 3.206 4.069 0 0.219-0.019 0.681-0.025 0.806z"/>
</svg>
