<svg version="1.1" xmlns="http://www.w3.org/2000/svg" width="40" height="32" viewBox="0 0 40 32">
<path fill="currentColor" d="M25.494 19.995l-14.425-0.183c-0.094-0.002-0.176-0.049-0.226-0.12l-0.001-0.001c-0.030-0.045-0.048-0.101-0.048-0.16 0-0.035 0.006-0.069 0.018-0.101l-0.001 0.002c0.051-0.142 0.18-0.244 0.334-0.255l0.001-0 14.559-0.183c1.727-0.079 3.597-1.473 4.251-3.174l0.83-2.159c0.021-0.053 0.033-0.114 0.033-0.177 0-0.002 0-0.004-0-0.006v0c0-0.001 0-0.002 0-0.003 0-0.035-0.004-0.069-0.011-0.102l0.001 0.003c-0.999-4.255-4.763-7.375-9.255-7.375-4.135 0-7.653 2.644-8.955 6.333l-0.020 0.066c-0.705-0.537-1.597-0.86-2.566-0.86-2.351 0-4.258 1.906-4.258 4.258 0 0.374 0.048 0.736 0.139 1.081l-0.007-0.030c-3.267 0.095-5.888 2.759-5.888 6.033 0 0.308 0.024 0.61 0.068 0.906l-0.004-0.033c0.020 0.137 0.137 0.241 0.278 0.242l26.631 0.003c0.003 0 0.005-0.001 0.008-0.001 0.155-0.003 0.285-0.106 0.329-0.248l0.001-0.002 0.205-0.704c0.244-0.837 0.153-1.613-0.256-2.181-0.376-0.524-1.003-0.833-1.765-0.869zM32.116 13.819c-0.134 0-0.267 0.004-0.399 0.010-0.098 0.008-0.179 0.074-0.207 0.164l-0 0.002-0.567 1.95c-0.244 0.838-0.153 1.612 0.256 2.181 0.376 0.525 1.003 0.833 1.765 0.869l3.075 0.184c0.091 0.003 0.17 0.049 0.219 0.118l0.001 0.001c0.031 0.045 0.049 0.102 0.049 0.162 0 0.035-0.006 0.069-0.018 0.101l0.001-0.002c-0.051 0.142-0.18 0.243-0.333 0.255l-0.001 0-3.195 0.184c-1.735 0.079-3.604 1.473-4.259 3.174l-0.231 0.6c-0.007 0.018-0.011 0.039-0.011 0.060 0 0.091 0.072 0.166 0.162 0.17h0c0.003 0 0.006 0.001 0.009 0.001h10.994c0.001 0 0.002 0 0.002 0 0.133 0 0.244-0.088 0.281-0.209l0.001-0.002c0.186-0.634 0.293-1.363 0.293-2.117 0-0.003 0-0.006 0-0.009v0c-0-4.333-3.53-7.846-7.884-7.846z"/>
</svg>
