<svg version="1.1" xmlns="http://www.w3.org/2000/svg" width="40" height="32" viewBox="0 0 40 32">
<path fill="currentColor" d="M14.132 24.26c0 0 0-0 0-0 0-0.097-0.058-0.181-0.142-0.218l-0.002-0.001c-0.030-0.015-0.065-0.023-0.102-0.024l-9.35 0.001c-0.662-0.003-1.197-0.54-1.197-1.203 0-0.152 0.028-0.298 0.080-0.432l-0.003 0.008 1.682-6.411c0.261-0.907 1.058-1.569 2.017-1.625l0.006-0h9.285c0.191-0.012 0.349-0.144 0.399-0.322l0.001-0.003 0.673-2.571c0.010-0.025 0.015-0.054 0.015-0.084 0-0.102-0.064-0.189-0.153-0.224l-0.002-0.001c-0.025-0.010-0.055-0.016-0.086-0.016-0 0-0 0-0 0v0c-0.004 0-0.008 0-0.012 0h-9.281c-2.883 0.157-5.267 2.121-6.050 4.772l-0.012 0.047-1.682 6.472c-0.138 0.366-0.218 0.79-0.218 1.232 0 1.98 1.603 3.586 3.582 3.592h0.001q0.089 0 0.179-0.005h9.286c0.191-0.013 0.348-0.145 0.399-0.321l0.001-0.003 0.669-2.571c0.011-0.027 0.018-0.057 0.018-0.090v0zM19.166 5.075c0.010-0.025 0.016-0.055 0.016-0.085v0c0-0 0-0.001 0-0.001 0-0.132-0.107-0.238-0.238-0.238-0 0-0.001 0-0.001 0h0c-0.004 0-0.008 0-0.012 0h-2.563c-0.192 0.011-0.349 0.144-0.398 0.322l-0.001 0.003-1.334 5.057h3.196zM11.273 23.016h3.196l1.997-7.66h-3.196zM31.991 4.983c-0.005-0.127-0.109-0.229-0.237-0.229h-0c-0.004 0-0.009 0-0.014 0h-2.563c-0.195 0.007-0.358 0.139-0.411 0.317l-0.001 0.003-5.708 21.84c-0.010 0.025-0.016 0.053-0.016 0.083v0c0 0.133 0.108 0.241 0.241 0.241h0c0.003 0 0.007 0 0.011 0h2.563c0.191-0.012 0.349-0.144 0.399-0.321l0.001-0.003 5.716-21.84c0.013-0.027 0.020-0.059 0.020-0.092v-0zM20.291 24.029h-2.563c-0.191 0.014-0.347 0.146-0.399 0.321l-0.001 0.003-0.671 2.571c-0.011 0.025-0.017 0.055-0.017 0.086v0c0 0.001 0 0.002 0 0.003 0 0.13 0.105 0.236 0.236 0.236h0c0.004 0 0.010 0 0.019-0.001h2.557c0.192-0.011 0.35-0.144 0.399-0.321l0.001-0.003 0.673-2.571c0.012-0.027 0.018-0.058 0.018-0.091 0-0.129-0.105-0.234-0.234-0.234h-0c-0.007 0-0.014 0-0.020 0.001zM39.748 4.754h-2.563c-0.191 0.011-0.348 0.142-0.399 0.317l-0.001 0.003-5.716 21.84c-0.009 0.025-0.014 0.054-0.014 0.084 0 0 0 0 0 0v0c0.001 0.133 0.108 0.24 0.241 0.241h0c0.003 0 0.007 0 0.011 0h2.561c0.191-0.013 0.349-0.144 0.399-0.321l0.001-0.003 5.712-21.84c0.013-0.027 0.020-0.059 0.020-0.092v-0c-0.009-0.125-0.113-0.222-0.239-0.223h-0c-0.004 0-0.009 0-0.013 0zM23.223 14.077l0.675-2.569c0.009-0.026 0.014-0.056 0.014-0.087v0c-0.001-0.133-0.109-0.24-0.241-0.24h-0c-0.004 0-0.007 0-0.011 0h-2.569c-0.19 0.016-0.346 0.148-0.399 0.323l-0.001 0.003-0.677 2.569c-0.010 0.028-0.016 0.060-0.016 0.093v0c0 0.004 0 0.009 0 0.013 0.009 0.123 0.111 0.219 0.235 0.219h0c0.005 0 0.011 0 0.019-0.001h2.571c0.192-0.011 0.35-0.143 0.399-0.321l0.001-0.003z"/>
</svg>
