<svg version="1.1" xmlns="http://www.w3.org/2000/svg" width="31" height="32" viewBox="0 0 31 32">
<path fill="currentColor" d="M15.475 0.5c-8.931 0-15.475 7.194-15.475 15.5 0 8.656 7.1 15.5 15.475 15.5 8.119 0 15.525-6.306 15.525-15.5 0-8.619-6.663-15.5-15.525-15.5zM15.525 28.675c-7.031 0-12.731-5.813-12.731-12.675 0-6.588 5.344-12.706 12.731-12.706 7.037 0 12.681 5.594 12.675 12.706 0 7.606-6.225 12.675-12.675 12.675zM19.794 11.625h-3.325v8.575h3.325c1.337 0 4.375-0.319 4.375-4.287 0-3.963-3.038-4.287-4.375-4.287zM19.844 18.406h-1.244v-4.981l1.212-0.006c0.238 0 2.188-0.131 2.188 2.494 0 1.538-0.656 2.494-2.156 2.494zM12.731 11.625h-4.262v8.581h2.162v-2.769h1.688c3.381 0 3.569-2.344 3.569-2.906 0-1.938-1.050-2.906-3.156-2.906zM12.425 15.831h-1.825v-2.6h1.769c1.931 0 1.8 2.6 0.056 2.6z"/>
</svg>
