<svg version="1.1" xmlns="http://www.w3.org/2000/svg" width="31" height="32" viewBox="0 0 31 32">
<path fill="currentColor" d="M15.475 0.5c8.862 0 15.525 6.881 15.525 15.5 0 9.194-7.406 15.5-15.525 15.5-8.375 0-15.475-6.844-15.475-15.5 0-8.306 6.544-15.5 15.475-15.5zM15.525 3.294c-7.388 0-12.731 6.119-12.731 12.706 0 6.863 5.7 12.675 12.731 12.675 6.45 0 12.675-5.069 12.675-12.675 0.006-7.113-5.637-12.706-12.675-12.706zM21.837 11.569c0.488 0 0.856 0.381 0.856 0.856v11.406c0 0.481-0.381 0.856-0.856 0.856h-8.444c-0.481 0-0.856-0.375-0.856-0.856v-3.375h-3.375c-0.488 0-0.856-0.375-0.856-0.856v-11.406c0-0.513 0.412-0.794 0.775-0.856h8.525c0.481 0 0.856 0.375 0.856 0.856v3.375h3.375zM9.994 18.769h2.544v-6.338c0-0.463 0.363-0.787 0.75-0.856h3.488v-2.519h-6.781v9.713zM21.006 13.262h-6.781v9.713h6.781v-9.713z"/>
</svg>
