<svg version="1.1" xmlns="http://www.w3.org/2000/svg" width="31" height="32" viewBox="0 0 31 32">
<path fill="currentColor" d="M15.475 0.5c8.862 0 15.525 6.881 15.525 15.5 0 9.194-7.406 15.5-15.525 15.5-8.375 0-15.475-6.844-15.475-15.5 0-8.306 6.544-15.5 15.475-15.5zM15.525 3.294c-7.388 0-12.731 6.119-12.731 12.706 0 6.863 5.7 12.675 12.731 12.675 6.45 0 12.675-5.069 12.675-12.675 0.006-7.113-5.637-12.706-12.675-12.706zM8.606 13.813c0.813-5.244 5.031-5.981 6.806-5.981 6.237 0 7.969 5.156 7.969 8.387 0 3.975-2.563 8.306-8.056 8.306-2.431 0-6.194-1.25-6.838-6.063h3.906c0.094 1.881 1.225 2.825 3.406 2.825 1.456 0 3.625-1.137 3.625-5.175 0-5.156-3.069-5.037-3.544-5.037-2.069 0-3.231 0.912-3.488 2.737h1.137l-3.075 3.075-3.063-3.075h1.213z"/>
</svg>
