<svg version="1.1" xmlns="http://www.w3.org/2000/svg" width="28" height="32" viewBox="0 0 28 32">
<path fill="currentColor" d="M14.114 0c0.016 0.009 13.536 7.782 13.57 7.795 0.188 0.074 0.231 0.216 0.231 0.41q-0.007 7.823 0 15.647c0.001 0.008 0.001 0.018 0.001 0.028 0 0.147-0.086 0.273-0.21 0.332l-0.002 0.001c-1.336 0.75-12.991 7.393-13.683 7.786h-0.188c-4.958-2.854-13.641-7.84-13.65-7.845-0.070-0.034-0.118-0.104-0.118-0.186 0-0.006 0-0.012 0.001-0.017l-0 0.001c0-0.054 0-14.121-0.003-15.819-0.001-0.007-0.001-0.015-0.001-0.023 0-0.126 0.075-0.235 0.182-0.284l0.002-0.001c1.454-0.819 13.079-7.451 13.759-7.826zM13.463 1.276l-0.014-0.010q-6.070 3.456-12.136 6.913c0 0.008 0.005 0.014 0.008 0.022l1.929 0.728c-0.482 0.375-0.52 0.375-0.666 0.321-0.006 0-1.511-0.58-1.675-0.625v14.402c0.055-0.088 4.004-6.932 4.008-6.938 0.101-0.176 0.188-0.12 0.57-0.095 0.088 0.006 0.093 0.014 0.049 0.089-2.574 4.458-2.275 3.938-4.218 7.309-0.051 0.087-0.038 0.071 0.078 0.071h11.656c0.090 0 0.106-0.014 0.106-0.102v-0.555c0-0.084 0.148-0.051-1.148-0.063-0.466-0.004-0.884-0.201-1.336-0.794-0.461-0.604-0.914-1.214-1.366-1.826-0.143-0.192-0.216-0.149-1.047-0.149-0.109 0-0.111 0-0.11 0.114 0.018 1.638 0.009 1.579 0.063 2.041 0.033 0.273 0.135 0.262 0.606 0.301 0.196 0.016 0.242 0.255 0.033 0.308-0.098 0.024-1.975 0.032-2.104-0.006-0.065-0.018-0.111-0.077-0.111-0.146 0-0.076 0.056-0.139 0.129-0.15l0.001-0c0.206-0.047 0.385 0.051 0.416-0.277 0.081-0.854 0.073-0.563 0.069-4.964 0-0.676-0.022-0.786-0.335-0.847-0.076-0.015-0.221-0.010-0.293-0.034-0.18-0.063-0.125-0.302 0.111-0.303 2.104 0 2.88-0.067 3.504 0.304 0.484 0.288 0.75 0.718 0.782 1.275 0.055 0.912-0.407 1.397-0.938 2.037-0.020 0.017-0.032 0.042-0.032 0.069s0.012 0.053 0.032 0.069l0 0c0.162 0.203 0.313 0.414 0.482 0.614 1.723 2.077 1.507 1.909 2.58 2.066 0.056 0.008 0.063-0.026 0.063-0.072v-0.688c0-0.063 0.020-0.089 0.088-0.079 0.204 0.033 0.44 0.051 0.68 0.051 0.28 0 0.555-0.026 0.821-0.074l-0.028 0.004c0.068-0.009 0.094 0.012 0.092 0.083 0 0.007 0.055 1.668 0.054 1.675-0.003 0.095 0.042 0.101 0.118 0.101h11.669q-2.546-4.409-5.078-8.801c0.141-0.041-0.025 0 0.418-0.087 0.125-0.024 0.128-0.026 0.194 0.090 0.457 0.79 4.832 8.375 4.836 8.379v-14.402c-0.108 0.031-6.456 2.42-6.61 2.48-0.067 0.026-0.097 0.012-0.119-0.055-0.039-0.119-0.084-0.235-0.131-0.351-0.020-0.049-0.006-0.071 0.041-0.087 0.006 0 5.971-2.241 6.438-2.423-4.089-2.348-8.16-4.688-12.25-7.037l5.426 9.399-0.017 0.021c-0.598-0.056-0.654-0.1-0.738-0.246-0.063-0.106-4.594-7.982-5.125-8.885-0.569 0.917-5.223 9.138-5.336 9.145-0.183 0.011-0.367 0.005-0.578 0.005q2.703-4.671 5.386-9.313zM16.708 9.396c0.129-0.010 0.247-0.029 0.362-0.056l-0.016 0.003c0.106-0.019 0.158 0.012 0.163 0.12 0 0.007 0.004 1.191-0.054 1.278s-0.117 0.076-0.163-0.012c-0.313-0.606 0.389-0.604-2.445-0.75-0.044 0-0.063 0.014-0.063 0.058 0 0.008 0.232 7.625 0.233 7.632 0 0.056 0.033 0.075 0.076 0.094 0.219 0.087 0.398 0.172 0.571 0.267l-0.027-0.014c0.457 0.271 0.711 0.677 0.776 1.207 0.090 0.738-0.173 2.236-2.013 2.321-0.172 0.008-1.766 0.067-2.134-1.453-0.291-1.204 0.516-2.044 1.243-2.275 0.072-0.013 0.126-0.076 0.126-0.151 0-0.006-0-0.011-0.001-0.016l0 0.001c0.006-0.352 0.188-6.694 0.232-7.584 0.003-0.068-0.039-0.072-0.084-0.072-2.022 0.033-2.297-0.021-2.514 0.533-0.151 0.386-0.259 0.082-0.247 0.014q0.099-0.563 0.207-1.125c0.025-0.132 0.089-0.163 0.214-0.116 0.349 0.132 0.42 0.106 2.328 0.12 0.108 0 0.111-0.005 0.114-0.116 0.043-1.718 0.036-1.412 0.063-1.847 0.001-0.006 0.001-0.013 0.001-0.020 0-0.069-0.042-0.129-0.102-0.155l-0.001-0c-0.35-0.182-0.547-0.472-0.556-0.867-0.022-0.926 1.107-1.354 1.711-0.719 0.428 0.449 0.363 1.182-0.153 1.509-0.085 0.047-0.141 0.136-0.141 0.238 0 0.012 0.001 0.023 0.002 0.034l-0-0.001c0 0.037-0.007-0.269 0.063 1.878 0 0.056 0.027 0.070 0.078 0.069 0.006 0 1.438-0.006 2.154-0.023zM4.267 8.856c1.24-0.282 2.042-0.035 3.281 0.106 0.173 0.019 0.234 0.076 0.226 0.25-0.013 0.313-0.072 1.396-0.077 1.447-0.003 0.066-0.043 0.121-0.101 0.146l-0.001 0c-0.254 0.106-0.226-0.278-0.25-0.456-0.196-1.402-4.617-2.044-4.664 1.588-0.019 1.495 1.063 3.352 3.38 3.18 1.702-0.125 1.188-1.262 1.553-1.279 0.007-0.001 0.015-0.002 0.023-0.002 0.094 0 0.17 0.076 0.17 0.17 0 0.015-0.002 0.029-0.005 0.043l0-0.001c-0.114 0.678-0.214 1.184-0.216 1.197-0.096 0.573-5.419 1.381-5.834-2.629-0.169-1.616 0.652-3.336 2.517-3.759zM9.267 14.336h-1.218c-0.004 0-0.008 0.001-0.013 0.001-0.072 0-0.132-0.047-0.153-0.111l-0-0.001c0.149-0.234 0.368 0.057 0.366-0.384-0.005-1.609 0.013-2.375 0.014-2.506 0-0.214-0.033-0.291-0.207-0.309-0.438-0.045-0.194-0.211-0.069-0.211 0.74-0.006 1.414-0.011 1.878 0.045 0.548 0.067 1.044 0.789 0.496 1.414-0.125 0.141-0.25 0.276-0.384 0.421 0.059 0.072 0.431 0.551 1.080 1.23 0.166 0.174 0.384 0.219 0.617 0.196 0 0 0.001 0 0.001 0 0.074 0 0.135-0.059 0.138-0.132v-0c0.019-0.214 0.016 0.296 0.028-2.536 0-0.353-0.021-0.411-0.202-0.427-0.247-0.022-0.25-0.141-0.043-0.211l1.193-0.006c0.020 0 0.281 0.033 0.063 0.211 0 0.003-0.010 0-0.015 0-0.226 0.016-0.246 0.063-0.25 0.289-0.017 2.746 0.004 2.514 0.026 2.676 0.007 0.053 0.017 0.139 0.319 0.134 0.156 0 0.241 0.211 0 0.213-0.648 0.005-1.296 0-1.944 0.004-0.667 0-0.842-0.387-1.513-1.301-0.1-0.136-0.519-0.148-0.512-0.023 0.055 1.029 0 1.111 0.25 1.104 0.297-0.006 0.296 0.223 0.052 0.222zM26.454 13.701c-0.076 0.446 0.011 0.649-0.331 0.646-3.847-0.026-2.989-0.014-3.17-0.019-0.084-0.008-0.161-0.024-0.235-0.048l0.008 0.002c-0.158-0.037 0.093-0.077-0.024-0.35-0.089-0.211-0.174-0.424-0.257-0.637-0.014-0.052-0.061-0.090-0.117-0.090-0.003 0-0.005 0-0.008 0l0-0c-0.124-0.006-0.269-0.010-0.414-0.010-0.175 0-0.348 0.005-0.521 0.015l0.024-0.001c-0.043 0.006-0.080 0.031-0.101 0.066l-0 0.001c-0.099 0.226-0.192 0.456-0.282 0.688-0.079 0.202 0.491 0.082 0.762 0.135 0.188 0.036 0.283 0.232 0.041 0.233h-1.648c-0.183 0-0.193-0.197-0.046-0.201 0.005 0 0.012 0 0.018 0 0.153 0 0.286-0.087 0.351-0.215l0.001-0.002c0.094-0.188 0.175-0.375 0.257-0.568 1.136-2.634 1.066-2.511 1.151-2.601 0.021-0.030 0.055-0.049 0.094-0.049s0.073 0.019 0.093 0.049l0 0c0.183 0.209 1.15 2.794 1.476 3.245 0.125 0.169 0.359 0.125 0.398 0.125 0.226 0.008 0.25-0.069 0.258-0.268 0.006-0.117 0.005 0.073 0.004-2.578 0-0.279-0.148-0.234-0.347-0.267-0.016 0-0.16-0.039-0.005-0.191 0.013-0.012-0.056-0.015 1.356-0.009 0.145 0 0.332 0.172-0.076 0.216-0.002-0-0.005-0-0.007-0-0.088 0-0.16 0.072-0.16 0.16 0 0.006 0 0.012 0.001 0.018l-0-0.001c-0.004 0.102-0.012 2.431 0.018 2.576 0.019 0.088 0.095 0.152 0.187 0.152 0.005 0 0.010-0 0.015-0.001l-0.001 0c0.828 0.027 0.933 0.027 1-0.213 0.104-0.361 0.258-0.158 0.233-0.012zM19.909 17.724c-0.265 0-0.276-0.212-0.038-0.213 2.244-0.010 1.757 0.024 2.324-0.041 0.105-0.012 0.149 0.015 0.141 0.118-0.016 0.212-0.040 0.424-0.063 0.635-0.016 0.135-0.2 0.163-0.212-0.009-0.024-0.332-0.134-0.278-0.977-0.317-0.099-0.004-0.102 0-0.102 0.095v1.008c0 0.103 0 0.1 0.101 0.092 0.195-0.016 0.644 0.021 0.981-0.095 0.029-0.010 0.206-0.112 0.192 0.11 0 0.013-0.047 0.647-0.074 0.712-0.033 0.081-0.117 0.094-0.161 0.020-0.073-0.125 0-0.317-0.232-0.331-0.964-0.056-0.807-0.159-0.807 0.375 0 0.766-0.047 1.007 0.243 1.015 1.040 0.030 0.9 0 1.027-0.357 0.052-0.148 0.219-0.111 0.199 0.036-0.027 0.201-0.053 0.402-0.077 0.602 0 0.023-0.010 0.15-0.291 0.149-2.323-0.005-2.159-0.012-2.201-0.019-0.17-0.032-0.137-0.188 0.014-0.216 0.069-0.012 0.25 0.034 0.26-0.16 0.152-3.514-0.004-3.209-0.244-3.208zM19.884 10.879c0.154 0.038 0.196 0.11 0.184 0.291-0.021 0.331-0.021 0.563-0.034 0.606-0.041 0.139-0.197 0.133-0.209-0.017-0.024-0.301-0.191-0.489-0.473-0.572-1.642-0.483-2.051 0.966-1.698 1.889 0.367 0.963 1.375 0.995 1.804 0.861 0.37-0.116 0.367-0.406 0.432-0.474 0.077-0.081 0.141-0.115 0.195 0.069 0 0.006 0.036 0.743-0.375 0.797-0.1 0.013-1.211 0.231-2.043-0.212-1.313-0.699-1.046-2.217-0.43-2.833 0.875-0.879 2.494-0.441 2.645-0.404zM18.113 17.509c0.205 0 0.229 0.188 0.010 0.214-0.163 0.020-0.313-0.026-0.313 0.341 0 0.125-0.012 1.816 0.025 2.591 0.007 0.143 0.072 0.22 0.215 0.228 1.375 0.076 0.934-0.103 1.174-0.396 0.114-0.14 0.172 0.052 0.172 0.067 0.022 0.851-0.25 0.774-0.324 0.775l-2.385-0.012c-0.121-0.014-0.129-0.188-0.026-0.211 0.125-0.030 0.309 0.025 0.321-0.175 0.063-0.992 0.036-2.791 0.021-2.988-0.017-0.236-0.175-0.204-0.355-0.232-0.154-0.024-0.125-0.201 0.021-0.201 0.091-0.001 1.123-0.002 1.443-0.001zM16.136 13.897c0.004 0.255 0.179 0.216 0.375 0.224 0.163 0.006 0.158 0.213-0.004 0.214-0.405 0-0.856 0-1.351-0.004-0.24 0-0.211-0.209 0-0.211 0.281 0 0.203 0.101 0.213-2.846 0-0.318-0.204-0.221-0.295-0.264-0.161-0.077-0.085-0.193 0.026-0.197 0.081 0 1.262-0.026 1.323 0.013s0.117 0.103-0.026 0.179c-0.063 0.033-0.241-0.018-0.259 0.154 0 0.013-0.051 0.102-0.004 2.737zM13.829 31.039c0.029 0.019 0.064 0.031 0.102 0.031s0.073-0.012 0.103-0.031l-0.001 0c1.063-0.612 11.375-6.473 12.339-7.032-0.009-0.027 0.704-0.011-11.345-0.017-0.076 0-0.098 0.023-0.096 0.098 0 0.006 0.078 2.782 0.076 3.149-0.006 0.174-0.037 0.339-0.089 0.494l0.004-0.012c-0.034 0.114 0.024-0.031-0.844 2.014-0.046 0.108-0.063 0.138-0.125-0.005-0.262-0.646-0.518-1.295-0.786-1.938-0.080-0.176-0.127-0.382-0.127-0.599 0-0.027 0.001-0.053 0.002-0.079l-0 0.004c0.010-0.154 0.050-1.008 0.094-3 0-0.122 0-0.125-0.125-0.125h-11.438c0.161 0.102 11.145 6.411 12.25 7.047zM8.148 19.242c0 0.15 0.023 0.174 0.172 0.188 0.721 0.073 1.313 0.234 1.602-0.457 0.375-0.904 0.166-2.151-0.78-2.427-0.125-0.037-1-0.172-0.996 0.094 0.003 0.503 0.001 0.726 0.001 2.603zM14.757 18.301c0 0.133 0.067 2.418 0.068 2.446 0.021 0.621-1.599 0.361-1.577-0.162 0.005-0.125 0.086-2.339 0.069-2.464-0.881 0.465-0.901 2.513 0.402 3.050 0.131 0.058 0.284 0.092 0.445 0.092 0.402 0 0.754-0.212 0.951-0.53l0.003-0.005c0.307-0.485 0.428-1.842-0.339-2.438-0.006 0.003-0.014 0.005-0.021 0.007l-0.001 0zM13.989 5.926c-0.614 0-0.608 0.922-0.004 0.929s0.631-0.93 0.004-0.932zM8.98 12.416c0 0.113 0.026 0.15 0.136 0.161 0.851 0.087 0.782-0.688 0.76-0.835-0.106-0.701-0.899-0.637-0.897-0.488 0.003 0.281-0.002 0.855 0.001 1.162zM22.25 12.816l-0.381-0.99c-0.135 0.342-0.26 0.661-0.389 0.99z"/>
</svg>
