<svg version="1.1" xmlns="http://www.w3.org/2000/svg" width="28" height="32" viewBox="0 0 28 32">
<path fill="currentColor" d="M15.512 0.056c-0.25 0.013-0.506 0.025-0.713 0.1l-0.213-0.031c0.338-0.044 0.681-0.069 1.025-0.094 0.15-0.013 0.3-0.025 0.45-0.037-0.169 0.037-0.356 0.050-0.55 0.056zM23.762 15.35c0.188-0.475 0.344-0.875 0.325-1.525l-0.269 0.563c0.275-0.825 0.25-1.694 0.225-2.525-0.012-0.375-0.019-0.738 0-1.088l-0.113-0.031c-0.094-2.825-2.538-5.819-4.706-6.838-1.875-0.862-4.756-1.013-6.081-0.362 0.081-0.069 0.262-0.125 0.425-0.169 0.213-0.063 0.394-0.112 0.269-0.188-1.2 0.119-1.556 0.344-1.944 0.587-0.287 0.181-0.594 0.375-1.269 0.544-0.219 0.213 0.106 0.125 0.363 0.056s0.45-0.119-0.006 0.15c-0.225 0.063-0.419 0.081-0.606 0.1-0.519 0.050-0.988 0.1-1.919 1.063 0.050 0.081 0.219-0.019 0.338-0.088 0.144-0.088 0.213-0.125-0.106 0.275-1.194-0.15-3.769 2.731-4.319 3.688l0.287 0.050c-0.2 0.5-0.425 0.925-0.625 1.3-0.269 0.506-0.494 0.931-0.544 1.331-0.025 0.369-0.075 0.806-0.125 1.269-0.188 1.713-0.425 3.831 0.237 4.6l-0.081 0.813c0.038 0.075 0.069 0.144 0.1 0.219 0.075 0.156 0.144 0.313 0.244 0.462l-0.188 0.012c0.438 1.387 0.675 1.406 0.944 1.431 0.275 0.025 0.581 0.056 1.169 1.512-0.169-0.056-0.344-0.119-0.588-0.45-0.031 0.256 0.362 1.019 0.819 1.613l-0.194 0.225c0.2 0.363 0.381 0.506 0.537 0.625v0c0.050 0.038 0.094 0.069 0.131 0.106-0.744-0.406 0.2 0.856 0.744 1.575 0.156 0.212 0.281 0.375 0.319 0.438l0.15-0.262c-0.019 0.381 0.269 0.869 0.819 1.544l0.456-0.019c0.188 0.375 0.875 1.044 1.294 1.075l-0.275 0.363c0.506 0.163 0.644 0.269 0.794 0.387 0.162 0.131 0.338 0.269 1.006 0.506l-0.262-0.462c0.219 0.188 0.387 0.369 0.55 0.544 0.325 0.35 0.619 0.669 1.238 0.962 0.7 0.244 1.069 0.3 1.475 0.369 0.338 0.050 0.7 0.113 1.3 0.281-0.137-0.006-0.275-0.006-0.419-0.012v0 0c-1.019-0.025-2.125-0.050-2.9-0.325-6.044-1.613-11.563-8.694-11.156-15.981-0.038-0.619-0.019-1.306 0-1.919 0.025-0.844 0.044-1.55-0.1-1.769l0.063-0.194c0.331-1.088 0.731-2.388 1.488-3.925l-0.006-0.013v-0.006c0.025 0.025 0.212 0.213 0.55-0.362 0.081-0.181 0.156-0.362 0.237-0.55v0c0.156-0.381 0.319-0.769 0.525-1.119l0.162-0.037c0.106-0.631 1.063-1.487 1.862-2.2v0c0.381-0.344 0.725-0.65 0.919-0.881l0.044 0.275c1.069-1 2.813-1.731 4.131-2.288 0.3-0.125 0.581-0.244 0.831-0.356-0.213 0.237 0.137 0.169 0.625 0.063 0.3-0.063 0.65-0.131 0.956-0.15-0.081 0.044-0.162 0.087-0.244 0.131v0 0c-0.169 0.088-0.338 0.175-0.5 0.287 0.519-0.125 0.744-0.088 1-0.050 0.219 0.037 0.456 0.075 0.912 0.012-0.35 0.050-0.769 0.188-0.7 0.237 0.494 0.056 0.8-0.006 1.075-0.063 0.35-0.069 0.65-0.131 1.219 0.056l-0.063-0.3c0.469 0.169 0.819 0.275 1.125 0.369 0.625 0.187 1.1 0.331 2.137 0.881 0.2 0.012 0.331-0.031 0.462-0.075 0.225-0.069 0.438-0.137 0.956 0.075 0.031 0.050 0.044 0.094 0.063 0.131 0.063 0.163 0.106 0.288 0.913 0.762 0.113-0.044-0.194-0.319-0.438-0.544l-0.012-0.006c2.019 1.081 4.219 3.381 4.887 5.85-0.375-0.694-0.325-0.344-0.269 0.031 0.038 0.25 0.075 0.506-0.012 0.469 0.281 0.756 0.506 1.531 0.65 2.338l-0.050-0.181c-0.206-0.738-0.6-2.156-1.25-3.1-0.025 0.275-0.181 0.244-0.331 0.219-0.206-0.037-0.394-0.075-0.119 0.787 0.163 0.238 0.194 0.15 0.219 0.069 0.031-0.094 0.056-0.175 0.294 0.325 0.006 0.269 0.069 0.531 0.137 0.831v0 0 0 0 0 0c0.044 0.188 0.094 0.387 0.131 0.613-0.069-0.012-0.144-0.137-0.212-0.262v0 0c-0.087-0.15-0.175-0.294-0.231-0.2 0.15 0.719 0.406 1.088 0.5 1.144-0.019 0.037-0.038 0.044-0.069 0.044-0.050 0-0.113 0.006-0.119 0.331 0.044 0.856 0.206 0.781 0.331 0.725 0.038-0.019 0.075-0.037 0.106-0.025-0.038 0.156-0.1 0.319-0.169 0.494v0c-0.175 0.444-0.375 0.963-0.212 1.631-0.050-0.194-0.131-0.394-0.206-0.581v0 0c-0.031-0.081-0.069-0.162-0.094-0.238-0.038 0.3-0.019 0.512-0.006 0.706 0.025 0.331 0.044 0.625-0.188 1.244 0.269-0.887 0.238-1.681-0.012-1.3 0.063 0.688-0.238 1.281-0.506 1.819-0.225 0.444-0.425 0.844-0.369 1.206l-0.325-0.444c-0.475 0.688-0.438 0.831-0.406 0.975 0.031 0.119 0.063 0.238-0.212 0.675 0.106-0.181 0.081-0.225 0.063-0.262-0.025-0.050-0.044-0.094 0.106-0.319-0.1 0.006-0.344 0.244-0.631 0.531v0c-0.244 0.244-0.531 0.525-0.8 0.738-2.344 1.881-5.144 2.125-7.85 1.113v0c0.012-0.063-0.012-0.131-0.194-0.256-2.3-1.762-3.656-3.256-3.181-6.719 0.137-0.106 0.231-0.387 0.35-0.725 0.181-0.525 0.406-1.181 0.894-1.494 0.488-1.081 1.956-2.081 3.525-2.106 1.6-0.088 2.95 0.856 3.631 1.744-1.238-1.15-3.256-1.5-4.981-0.65-1.762 0.794-2.813 2.738-2.656 4.669 0.019-0.031 0.044-0.044 0.063-0.056 0.037-0.031 0.075-0.056 0.094-0.213-0.056 3.762 4.050 6.519 7.006 5.125l0.038 0.081c0.794-0.219 0.994-0.406 1.269-0.669 0.137-0.131 0.294-0.281 0.563-0.462-0.019 0.044-0.081 0.106-0.15 0.169-0.137 0.131-0.288 0.281-0.1 0.288 0.331-0.087 1.256-0.925 1.887-1.488v0 0c0.1-0.087 0.188-0.169 0.269-0.244 0.125-0.269 0.1-0.356 0.081-0.444-0.025-0.1-0.050-0.206 0.15-0.6l0.456-0.231c0.063-0.175 0.125-0.338 0.181-0.488v0zM14.569 20.119c0.002-0.006 0.003-0.012 0.003-0.018 0-0.031-0.025-0.056-0.056-0.056s-0.056 0.025-0.056 0.056c0 0.007 0.001 0.013 0.003 0.019l-0-0c-0.002 0.006-0.003 0.012-0.003 0.018 0 0.031 0.025 0.056 0.056 0.056s0.056-0.025 0.056-0.056c0-0.007-0.001-0.013-0.003-0.019l0 0zM14.556 20.15l-0.012 0.025c-0.019 0.044-0.037 0.087-0.019 0.15-0.762-0.356-1.463-0.894-2.037-1.556 0.306 0.444 0.631 0.881 1.063 1.219-0.431-0.144-0.95-0.744-1.356-1.212v0 0c-0.269-0.313-0.494-0.569-0.606-0.594 1.238 2.219 5.031 3.894 7.019 3.063-0.919 0.031-2.087 0.019-3.119-0.363-0.394-0.2-0.912-0.6-0.931-0.738zM14.844 0.438c0.238 0.037 0.456 0.075 0.419 0.131 0.313-0.069 0.381-0.131-0.563-0.156 0.050 0.006 0.1 0.019 0.15 0.025zM20.606 13.463c-0.063 0.244-0.113 0.088-0.169-0.075-0.031-0.094-0.069-0.194-0.106-0.213 0.087-0.363 0.337-0.669 0.275 0.287zM20.181 14.787c-0.081 0.494-0.313 0.969-0.631 1.406 0.012-0.125-0.075-0.15-0.163-0.175-0.181-0.050-0.369-0.1 0.35-1.006-0.031 0.125-0.144 0.306-0.25 0.481v0c-0.225 0.369-0.419 0.687 0.25 0.269l0.063-0.113c0.163-0.281 0.313-0.55 0.375-0.863zM17.5 17.288c-0.694-0.106-1.325-0.375-0.794-0.381 0.444 0.038 0.881 0.038 1.313-0.069-0.156 0.15-0.325 0.3-0.519 0.45zM15.262 0.569l-0.012 0.025-0.188 0.019 0.2-0.044zM10.919 17.631c0.231 0.45 0.406 0.731 0.569 0.994 0.144 0.231 0.275 0.444 0.425 0.731-0.325-0.269-0.556-0.613-0.8-0.969-0.088-0.131-0.175-0.262-0.275-0.387l0.075-0.369zM11.375 17.006c0.106 0.212 0.206 0.419 0.369 0.594l0.162 0.481-0.081-0.131c-0.2-0.331-0.394-0.663-0.5-1.044l0.050 0.1zM26.319 14.431c-0.144 1.088-0.481 2.162-1 3.144 0.475-0.931 0.781-1.931 0.925-2.95l0.075-0.194zM2.212 6.85c0 0.019 0 0.031 0.006 0.044 0-0.013 0-0.031-0.006-0.044zM2.219 6.894c0.019 0.075 0.087 0.056 0.15 0.037 0.119-0.031 0.225-0.056-0.006 0.475-0.15 0.106-0.237 0.175-0.288 0.213-0.038 0.025-0.050 0.037-0.050 0.037s0.006-0.013 0.019-0.031c0.050-0.088 0.212-0.344 0.181-0.731zM1.581 9.519c-0.044 0.231-0.094 0.494-0.212 0.869 0.012-0.119 0-0.219-0.012-0.306-0.025-0.213-0.050-0.394 0.269-0.806-0.019 0.075-0.031 0.156-0.044 0.238z"/>
</svg>
