<svg version="1.1" xmlns="http://www.w3.org/2000/svg" width="40" height="32" viewBox="0 0 40 32">
<path fill="currentColor" d="M14.875 18.825h3.669l1.394-1.887h-3.669l-1.394 1.887zM0 17.681v0.4h5.112l0.294-0.4h-5.406zM10.806 16.938c-0.544 0-0.375-0.225-0.287-0.344 0.175-0.238 0.475-0.65 0.65-0.881s0.175-0.369-0.175-0.369h-3.188l-2.569 3.488h6.256c2.069 0 3.219-1.406 3.575-1.894h-4.262zM30.65 16.506l2.456-3.338h-3.887l-2.456 3.338h3.887zM5.956 16.938h-5.956v0.4h5.662l0.294-0.4zM12.894 15.275c-0.175 0.238-0.469 0.65-0.644 0.888-0.088 0.125-0.256 0.344 0.287 0.344h2.85s0.456-0.625 0.844-1.15c0.525-0.713 0.044-2.188-1.825-2.188h-7.369l-1.275 1.738h6.963c0.35 0 0.344 0.137 0.169 0.369zM0 18.825h4.569l0.294-0.4h-4.862v0.4zM20.188 18.825h3.669l1.394-1.887h-3.669c-0.006 0-1.394 1.887-1.394 1.887zM34.063 18.831h5.938v-0.4h-5.644l-0.294 0.4zM35.456 16.938l-0.294 0.4h4.837v-0.4h-4.544zM34.612 18.081h5.388v-0.4h-5.094l-0.294 0.4zM24.35 13.169l-1.406 1.912h-1.637l1.406-1.912h-3.669l-2.456 3.337h8.975l2.456-3.338h-3.669zM26.444 16.938s-0.269 0.369-0.4 0.544c-0.462 0.625-0.056 1.35 1.45 1.35h5.894l1.394-1.894h-8.337z"/>
</svg>
