<svg version="1.1" xmlns="http://www.w3.org/2000/svg" width="40" height="32" viewBox="0 0 40 32">
<path fill="currentColor" d="M32.783 4.365c-0.010-0.020-0.027-0.035-0.047-0.044l-0.001-0c-2.16-1.019-4.67-1.825-7.297-2.292l-0.183-0.027c-0.006-0.001-0.013-0.002-0.021-0.002-0.043 0-0.080 0.023-0.099 0.058l-0 0.001c-0.286 0.503-0.598 1.131-0.878 1.776l-0.053 0.136c-1.263-0.202-2.718-0.317-4.201-0.317s-2.938 0.115-4.358 0.337l0.158-0.020c-0.331-0.771-0.647-1.399-0.996-2.007l0.050 0.094c-0.021-0.035-0.059-0.058-0.102-0.058-0.007 0-0.013 0.001-0.019 0.002l0.001-0c-2.81 0.493-5.32 1.299-7.666 2.397l0.185-0.078c-0.021 0.009-0.038 0.024-0.049 0.042l-0 0c-4.764 7.115-6.069 14.055-5.429 20.909 0.004 0.035 0.022 0.065 0.048 0.086l0 0c2.622 1.961 5.671 3.541 8.961 4.578l0.216 0.059c0.010 0.003 0.022 0.005 0.034 0.005 0.039 0 0.073-0.018 0.095-0.047l0-0c0.656-0.882 1.279-1.882 1.82-2.931l0.057-0.122c0.008-0.015 0.013-0.033 0.013-0.053 0-0.050-0.031-0.092-0.075-0.109l-0.001-0c-1.118-0.431-2.062-0.89-2.961-1.417l0.095 0.051c-0.035-0.021-0.058-0.058-0.058-0.102 0-0.038 0.018-0.072 0.046-0.094l0-0c0.193-0.144 0.385-0.294 0.569-0.446 0.019-0.016 0.045-0.026 0.072-0.026 0.017 0 0.033 0.004 0.047 0.010l-0.001-0c6.014 2.745 12.526 2.745 18.469 0 0.014-0.007 0.031-0.011 0.049-0.011 0.027 0 0.052 0.010 0.072 0.026l-0-0c0.184 0.152 0.377 0.303 0.571 0.448 0.029 0.022 0.047 0.056 0.047 0.094 0 0.043-0.023 0.080-0.057 0.101l-0.001 0c-0.81 0.483-1.755 0.942-2.739 1.321l-0.129 0.044c-0.045 0.017-0.076 0.060-0.076 0.11 0 0.020 0.005 0.038 0.013 0.054l-0-0.001c0.613 1.176 1.236 2.174 1.925 3.121l-0.049-0.070c0.021 0.030 0.056 0.049 0.095 0.049 0.012 0 0.024-0.002 0.035-0.005l-0.001 0c3.511-1.092 6.565-2.673 9.271-4.694l-0.080 0.057c0.027-0.020 0.045-0.050 0.048-0.084l0-0c0.767-7.924-1.283-14.807-5.433-20.909zM13.906 21.099c-1.811 0-3.303-1.662-3.303-3.702s1.463-3.703 3.303-3.703c1.854 0 3.332 1.676 3.303 3.702 0 2.041-1.463 3.703-3.303 3.703zM26.117 21.099c-1.811 0-3.303-1.662-3.303-3.702s1.463-3.703 3.303-3.703c1.854 0 3.332 1.676 3.303 3.702 0 2.041-1.449 3.703-3.303 3.703z"/>
</svg>
