<svg version="1.1" xmlns="http://www.w3.org/2000/svg" width="28" height="32" viewBox="0 0 28 32">
<path fill="currentColor" d="M18.998 6.758c-2.236-2.23-4.362-4.362-4.995-6.758-0.622 2.397-2.766 4.529-5.001 6.758-3.348 3.348-7.144 7.139-7.144 12.831-0.146 6.706 5.172 12.261 11.878 12.407s12.261-5.172 12.407-11.878q0.006-0.264 0-0.529c0-5.692-3.797-9.483-7.145-12.831zM8.103 20.696c-0.352 0.439-0.668 0.934-0.929 1.462l-0.021 0.048c-0.040 0.085-0.114 0.149-0.205 0.172l-0.002 0h-0.104c-0.271 0-0.576-0.53-0.576-0.53v0c-0.081-0.127-0.156-0.259-0.23-0.398l-0.052-0.11c-0.703-1.607-0.092-3.895-0.092-3.895v0c0.326-1.187 0.824-2.225 1.473-3.149l-0.021 0.032c0.439-0.652 0.871-1.216 1.334-1.752l-0.020 0.023 0.576 0.576 2.72 2.777c0.049 0.055 0.079 0.128 0.079 0.207s-0.030 0.153-0.079 0.208l0-0-2.841 3.152zM14.141 28.653c-2.309-0.014-4.176-1.889-4.176-4.2 0-1.075 0.404-2.056 1.068-2.799l-0.004 0.004c0.887-1.054 1.97-2.091 3.146-3.457 1.394 1.487 2.305 2.506 3.198 3.624 0.066 0.081 0.127 0.171 0.18 0.267l0.005 0.009c0.469 0.66 0.749 1.481 0.749 2.368 0 0.002 0 0.004 0 0.006v-0c0 0.003 0 0.008 0 0.012 0 2.297-1.858 4.159-4.154 4.166h-0.001zM22.023 21.975v0c-0.055 0.174-0.203 0.304-0.383 0.334l-0.003 0h-0.081c-0.168-0.056-0.305-0.168-0.39-0.314l-0.002-0.003c-0.768-1.144-1.58-2.144-2.472-3.065l0.006 0.006-4.805-4.984c-0.777-0.721-1.499-1.462-2.183-2.237l-0.029-0.034c-0.019-0.033-0.038-0.061-0.059-0.088l0.001 0.002c-0.119-0.166-0.219-0.356-0.289-0.561l-0.005-0.016v-0.11c-0.016-0.095-0.026-0.204-0.026-0.316 0-0.555 0.231-1.056 0.601-1.412l0.001-0.001c0.714-0.714 1.435-1.435 2.115-2.184 0.749 0.83 1.55 1.625 2.339 2.414v0c1.591 1.484 3.020 3.102 4.283 4.847l0.067 0.097c1.041 1.458 1.671 3.273 1.688 5.233l0 0.004c-0.010 0.855-0.146 1.674-0.391 2.444l0.016-0.059z"/>
</svg>
