<svg version="1.1" xmlns="http://www.w3.org/2000/svg" width="32" height="32" viewBox="0 0 32 32">
<path fill="currentColor" d="M7.506 2.34c2.563-1.576 5.475-2.388 8.431-2.34 10.5 0 16.063 7.737 16.063 13.719-0.006 2.044-0.813 3.994-2.244 5.45-1.431 1.45-3.375 2.281-5.419 2.313-4.7 0-5.719-1.444-5.719-2 0-0.238 0.075-0.387 0.3-0.587l0.063-0.075 0.025-0.1c0.656-0.719 0.994-1.637 0.994-2.6 0-4.919-5.137-8.919-11.5-8.919-2.346-0.019-4.659 0.556-6.72 1.681 1.688-3.595 5.17-6.1 5.707-6.489 0.050-0.034 0.019-0.053 0.019-0.053v0zM8.481 22.219c-0.088 1.875 0.287 3.75 1.025 5.45 0.85 1.65 2.044 3.188 3.531 4.331-3.719-0.719-6.968-2.744-9.338-5.581-2.38-2.9-3.7-6.519-3.7-10.3 0-3.2 3.9-5.9 8.5-5.9 2.287-0.037 4.525 0.681 6.363 2.044l-0.225 0.075c-3.219 1.1-6.156 5.669-6.156 9.881v0zM29.363 25l-0.044 0.006c-0.738 1.175-1.619 2.194-2.637 3.094-1.925 1.75-4.256 2.844-6.8 3.119-1.163 0.019-2.3-0.2-3.363-0.712-1.6-0.644-2.944-1.875-3.85-3.313-0.9-1.494-1.319-3.231-1.188-4.975-0.037-1.256 0.338-2.519 0.938-3.637 0.869 2.069 2.344 3.831 4.225 5.050s4.094 1.844 6.338 1.788c1.938 0.019 3.881-0.419 5.637-1.281l0.119-0.056c0.244-0.144 0.481-0.244 0.725 0 0.281 0.306 0.113 0.575-0.075 0.875-0.012 0.012-0.019 0.031-0.025 0.044v0z"/>
</svg>
