<svg version="1.1" xmlns="http://www.w3.org/2000/svg" width="32" height="32" viewBox="0 0 32 32">
<path fill="currentColor" d="M1.607 14.26l0.022-0.030c0 0.010 0 0.020-0.004 0.030zM30.393 15.229c0-2.75-0.485-5.279-1.801-7.65-2.561-4.587-7.098-7.079-12.412-7.079-8.743-0.018-13.642 6.576-14.552 13.73 2.651-3.832 7.317-7.586 13.773-7.813 0 0 6.854 0 6.214 6.563h-10.991c0.398-2.337 1.159-3.688 2.146-4.933-4.691 2.181-7.616 6.006-7.547 11.77 0.052 4.466 3.133 9.052 7.547 10.75 5.209 1.99 12.048 0.45 15.008-1.333v-6.527c-5.054 3.531-16.929 3.808-17.016-4.223h19.63v-3.254z"/>
</svg>
