<svg version="1.1" xmlns="http://www.w3.org/2000/svg" width="28" height="32" viewBox="0 0 28 32">
<path fill="currentColor" d="M0.003 15.988c0.005-7.725 6.266-13.988 13.997-13.988s14 6.269 14 14c0 7.731-6.262 13.994-13.994 14h-10.823c-1.756 0-3.178-1.419-3.181-3.175h-0.003v-10.838h0.003zM21.413 12.044c0-2.481-2.225-4.281-4.575-4.281-2.181 0-4.113 1.644-4.381 3.744-0.012 0.238-0.025 0.313-0.025 0.531-0.006 1.319 0 2.675-0.050 4.025 0.056 1.631 0.063 3.256 0 4.788 0 1.694-1.213 2.844-2.794 2.844s-2.862-1.262-2.862-2.844c0.031-1.731 1.413-2.831 3.031-2.881h0.012l1.644-0.012v-2.331l-1.644 0.012c-2.944-0.025-5.286 2.281-5.371 5.213 0 2.85 2.346 5.181 5.19 5.181 2.688 0 4.919-2.1 5.162-4.725l0.012-3.344 2.037-0.019c1.581 0.012 1.563-2.363-0.012-2.331l-2.025 0.019c0-0.4 0.006-0.8 0.006-1.2 0.006-0.794 0.006-1.588-0.006-2.387 0.006-1.031 0.988-1.95 2.075-1.95 1.094 0 2.244 0.544 2.244 1.95 0 0.2-0.006 0.319-0.019 0.394-0.119 0.656 0.325 1.275 0.981 1.369 0.663 0.094 1.262-0.381 1.325-1.037 0.038-0.262 0.044-0.494 0.044-0.725v0z"/>
</svg>
