<svg version="1.1" xmlns="http://www.w3.org/2000/svg" width="24" height="32" viewBox="0 0 24 32">
<path fill="currentColor" d="M0.875 5.987c0-3.307 2.68-5.987 5.987-5.987h10.273c3.307 0 5.987 2.68 5.987 5.987 0 2.094-1.075 3.936-2.703 5.007 1.628 1.070 2.703 2.913 2.703 5.007 0 3.307-2.68 5.987-5.987 5.987h-0.13c-1.55 0-2.963-0.589-4.026-1.556v5.516c0 3.351-2.751 6.052-6.085 6.052-3.298 0-6.019-2.672-6.019-5.987 0-2.094 1.075-3.936 2.702-5.006-1.628-1.070-2.702-2.913-2.702-5.006s1.075-3.936 2.703-5.007c-1.628-1.070-2.703-2.913-2.703-5.007zM11.018 11.974h-4.156c-2.223 0-4.026 1.803-4.026 4.026 0 2.215 1.789 4.012 4 4.026 0.009-0 0.017-0 0.026-0h4.156v-8.052zM12.979 16c0 2.223 1.802 4.026 4.026 4.026h0.13c2.224 0 4.026-1.802 4.026-4.026s-1.802-4.026-4.026-4.026h-0.13c-2.223 0-4.026 1.803-4.026 4.026zM6.862 21.987c-0.009 0-0.017-0-0.026-0-2.212 0.014-4 1.811-4 4.026s1.827 4.026 4.058 4.026c2.268 0 4.124-1.84 4.124-4.091v-3.961h-4.156zM6.862 1.961c-2.223 0-4.026 1.802-4.026 4.026s1.802 4.026 4.026 4.026h4.156v-8.052h-4.156zM12.979 10.013h4.156c2.224 0 4.026-1.802 4.026-4.026s-1.802-4.026-4.026-4.026h-4.156v8.052z"/>
</svg>
