<svg version="1.1" xmlns="http://www.w3.org/2000/svg" width="32" height="32" viewBox="0 0 32 32">
<path fill="currentColor" d="M8.139 7.972c0.010 0.001 0.005 0.001 0 0v0zM30.102 10.806c-0.663-1.594-2.005-3.313-3.059-3.858 0.858 1.681 1.354 3.367 1.544 4.625 0 0.009 0.001 0.017 0.003 0.026-1.724-4.297-4.647-6.029-7.034-9.802-0.937-1.481-0.683-1.577-0.817-1.541l-0.008 0.004c-2.919 1.622-4.708 4.898-5.161 7.671-1.039 0.055-2.056 0.312-2.996 0.759-0.085 0.038-0.153 0.104-0.195 0.187s-0.054 0.177-0.035 0.268c0.012 0.052 0.035 0.102 0.068 0.145s0.073 0.079 0.12 0.105 0.099 0.042 0.153 0.047c0.054 0.005 0.108-0.002 0.159-0.019l0.033-0.013c0.969-0.456 2.025-0.698 3.096-0.707 3.927-0.036 6.072 2.752 6.726 3.893-0.813-0.572-2.272-1.137-3.676-0.893 5.484 2.741 4.012 12.159-3.587 11.825-3.716-0.163-6.067-3.186-6.283-5.675 0 0 0.703-2.622 5.039-2.622 0.469 0 1.808-1.308 1.833-1.688-0.006-0.125-2.658-1.18-3.693-2.199-0.553-0.545-0.816-0.807-1.048-1.004-0.126-0.107-0.257-0.206-0.394-0.298-0.348-1.216-0.363-2.503-0.043-3.727-1.566 0.713-2.784 1.841-3.669 2.836h-0.008c-0.604-0.766-0.563-3.291-0.527-3.817-0.008-0.033-0.452 0.229-0.509 0.269-0.535 0.378-1.034 0.806-1.49 1.277-1.018 1.037-2.758 3.135-3.469 6.327-0.283 1.274-0.422 2.776-0.422 3.269 0 8.419 6.826 15.243 15.245 15.243 7.54 0 13.939-5.452 15.027-12.664 0.723-4.793-0.919-8.192-0.919-8.249z"/>
</svg>
