<svg version="1.1" xmlns="http://www.w3.org/2000/svg" width="28" height="32" viewBox="0 0 28 32">
<path fill="currentColor" d="M28 3v21c-3.938 1.438-5.125 2-7.438 2-3.938 0-5.438-2-9.375-2-1.25 0-2.25 0.25-3.188 0.5v-4c0.938-0.25 1.938-0.5 3.188-0.5 3.938 0 5.438 2 9.375 2 1.25 0 2.188-0.188 3.438-0.563v-13c-1.25 0.375-2.188 0.563-3.438 0.563-3.938 0-5.438-2-9.375-2-3.188 0-4.688 1.313-7.188 1.813v19.188c0 1.125-0.875 2-2 2s-2-0.875-2-2v-24c0-1.125 0.875-2 2-2s2 0.875 2 2v0.813c2.5-0.5 4-1.813 7.188-1.813 3.938 0 5.438 2 9.375 2 2.313 0 3.5-0.563 7.438-2z"/>
</svg>
