<svg version="1.1" xmlns="http://www.w3.org/2000/svg" width="23" height="32" viewBox="0 0 23 32">
<path fill="currentColor" d="M20.194 0.188h-17.075c-2.344 0-3.119 1.769-3.119 2.881v27.113c0 1.269 0.756 1.731 1.137 1.881 0.387 0.156 1.425 0.288 2.056-0.444 8.056-9.337 8.194-9.494 8.194-9.494 0.194-0.212 0.213-0.194 0.425-0.194h5.213c2.194 0 2.538-1.575 2.769-2.481l3.038-15.188c0.531-2.65-0.137-4.075-2.637-4.075zM19.175 4.8l-0.712 3.731c-0.075 0.406-0.594 0.825-1.056 0.825h-6.65c-0.75 0-1.287 0.519-1.287 1.269v0.813c0 0.75 0.537 1.287 1.287 1.287h5.65c0.519 0 1.038 0.575 0.925 1.137-0.113 0.556-0.656 3.362-0.712 3.675-0.056 0.306-0.425 0.844-1.056 0.844h-4.594c-0.844 0-1.075 0.113-1.656 0.788 0 0-0.556 0.712-5.594 6.769-0.056 0.056-0.112 0.038-0.112-0.019v-21.175c0-0.481 0.425-1.038 1.038-1.038h13.687c0.512 0 0.975 0.481 0.844 1.094z"/>
</svg>
