<svg version="1.1" xmlns="http://www.w3.org/2000/svg" width="28" height="32" viewBox="0 0 28 32">
<path fill="currentColor" d="M27.472 14.753l-12.222-12.225c-0.326-0.326-0.777-0.528-1.275-0.528s-0.949 0.202-1.275 0.528l-2.541 2.539 3.22 3.22c1.691-0.571 3.293 1.048 2.712 2.73l3.104 3.104c2.139-0.738 3.824 1.938 2.217 3.543-1.656 1.656-4.388-0.179-3.5-2.334l-2.897-2.893v7.616c1.581 0.784 1.391 2.616 0.568 3.438-0.388 0.388-0.925 0.628-1.517 0.628s-1.129-0.24-1.517-0.628v0c-1.098-1.1-0.692-2.932 0.703-3.5v-7.688c-1.3-0.532-1.537-1.921-1.165-2.813l-3.174-3.178-8.383 8.384c-0.326 0.326-0.528 0.777-0.528 1.275s0.202 0.949 0.528 1.275l12.226 12.225c0.326 0.326 0.777 0.528 1.275 0.528s0.949-0.202 1.275-0.528l12.168-12.168c0.326-0.326 0.528-0.777 0.528-1.275s-0.202-0.949-0.528-1.275v0z"/>
</svg>
