<svg version="1.1" xmlns="http://www.w3.org/2000/svg" width="32" height="32" viewBox="0 0 32 32">
<path fill="currentColor" d="M31.469 12.787l-0.044-0.113-4.356-11.361c-0.087-0.223-0.244-0.412-0.45-0.54-0.15-0.097-0.319-0.157-0.5-0.176s-0.356 0.005-0.525 0.069c-0.169 0.064-0.319 0.166-0.444 0.299-0.119 0.133-0.206 0.292-0.256 0.465l-2.938 9h-11.906l-2.944-9c-0.050-0.173-0.138-0.332-0.256-0.464-0.125-0.133-0.275-0.234-0.444-0.298-0.165-0.064-0.345-0.088-0.524-0.070s-0.351 0.078-0.502 0.175c-0.202 0.128-0.359 0.317-0.447 0.54l-4.353 11.361-0.045 0.113c-0.627 1.637-0.704 3.438-0.22 5.125 0.484 1.681 1.503 3.169 2.903 4.225l0.017 0.012 0.037 0.025 6.623 4.969 5.287 3.994c0.231 0.119 0.519 0.269 0.813 0.269s0.581-0.15 0.813-0.269l5.287-3.994 6.688-5.012c1.4-1.056 2.419-2.538 2.85-4.219 0.538-1.688 0.462-3.488-0.163-5.125z"/>
</svg>
