<svg version="1.1" xmlns="http://www.w3.org/2000/svg" width="40" height="32" viewBox="0 0 40 32">
<path fill="currentColor" d="M25.006 12.175c-0.681 0.175-1.244 0.269-1.819 0.475-0.456 0.119-0.919 0.244-1.45 0.381l-0.038 0.006c-0.262 0.075-0.288 0.081-0.531-0.2-0.294-0.331-0.506-0.544-0.913-0.744-1.231-0.6-2.419-0.425-3.525 0.294-1.325 0.856-2.006 2.125-1.988 3.7 0.019 1.563 1.088 2.844 2.575 3.056 1.375 0.175 2.488-0.288 3.363-1.281 0.131-0.163 0.25-0.331 0.381-0.519v0 0c0.050-0.063 0.094-0.131 0.144-0.206h-3.756c-0.406 0-0.506-0.25-0.369-0.581 0.25-0.606 0.719-1.619 0.994-2.125 0.056-0.113 0.194-0.363 0.431-0.363h6.319c0.281-0.838 0.738-1.681 1.35-2.481 1.419-1.869 3.081-2.844 5.45-3.25 1.988-0.35 3.856-0.156 5.556 0.994 1.538 1.050 2.487 2.475 2.744 4.344 0.331 2.631-0.431 4.769-2.294 6.6-1.231 1.306-2.806 2.125-4.619 2.494-0.35 0.063-0.694 0.094-1.031 0.125-0.181 0.012-0.356 0.031-0.531 0.050-1.769-0.038-3.387-0.544-4.75-1.712-0.956-0.831-1.619-1.85-1.944-3.031-0.231 0.456-0.5 0.9-0.875 1.319-1.35 1.85-3.181 3-5.494 3.306-1.913 0.256-3.681-0.113-5.244-1.281-1.438-1.094-2.256-2.531-2.469-4.325-0.256-2.125 0.369-4.088 1.65-5.706 1.387-1.813 3.219-2.963 5.456-3.369 1.831-0.388 3.581-0.119 5.162 0.956 1.031 0.681 1.769 1.613 2.256 2.744 0.119 0.175 0.038 0.275-0.194 0.331zM3.019 12.525c-0.078 0-0.098-0.037-0.059-0.1l0.409-0.525c0.039-0.056 0.136-0.094 0.214-0.094h6.954c0.075 0 0.094 0.056 0.056 0.113l-0.331 0.506c-0.037 0.063-0.137 0.119-0.194 0.119l-7.050-0.019zM0.078 14.319c-0.078 0-0.097-0.044-0.058-0.1l0.409-0.525c0.039-0.056 0.136-0.1 0.214-0.1h8.883c0.075 0 0.113 0.063 0.094 0.119l-0.156 0.469c-0.019 0.075-0.094 0.119-0.175 0.119l-9.21 0.019zM4.732 15.994c-0.039 0.056-0.019 0.112 0.058 0.112l4.247 0.019c0.056 0 0.137-0.056 0.137-0.131l0.037-0.469c0-0.081-0.037-0.137-0.119-0.137h-3.894c-0.078 0-0.156 0.056-0.195 0.119l-0.272 0.488zM36.075 14.869c-0.013-0.162-0.019-0.3-0.044-0.438-0.35-1.925-2.125-3.019-3.975-2.588-1.813 0.406-2.981 1.556-3.406 3.387-0.35 1.519 0.387 3.056 1.788 3.681 1.075 0.469 2.144 0.413 3.175-0.119 1.538-0.85 2.375-2.044 2.475-3.719-0.006-0.075-0.006-0.144-0.013-0.206z"/>
</svg>
