<svg version="1.1" xmlns="http://www.w3.org/2000/svg" width="24" height="32" viewBox="0 0 24 32">
<path fill="currentColor" d="M2.663 25.206h0.175c0.794 0 1.594 0 2.387 0.006 0.1 0 0.194-0.025 0.225 0.131 0.444 2.181 1.875 3.413 3.931 3.994 1.681 0.475 3.381 0.488 5.081 0.113 2.113-0.462 3.5-1.769 4.25-3.775 0.5-1.344 0.669-2.738 0.688-4.156 0.006-0.363 0.019-2.938-0.012-3.3l-0.056-0.019c-0.050 0.094-0.106 0.181-0.156 0.275-1.381 2.694-3.831 4.212-6.588 4.319-6.438 0.25-10.588-3.563-10.75-11.012-0.031-1.481 0.113-2.931 0.519-4.356 1.288-4.444 4.662-7.388 9.619-7.425 3.831-0.025 6.344 2.419 7.262 4.394 0.031 0.069 0.081 0.144 0.15 0.119v-3.85h2.769c0 17.519 0.006 20.762 0.006 20.762-0.006 4.906-1.669 8.981-6.438 10.137-4.344 1.056-9.938 0.3-12.25-3.575-0.5-0.844-0.737-1.769-0.813-2.781zM11.806 2.281c-3.281-0.031-6.781 2.544-7.188 8.363-0.256 3.688 0.925 7.637 4.469 9.287 1.725 0.806 4.644 0.938 6.769-0.544 2.975-2.075 3.919-6.063 3.425-9.625-0.606-4.444-2.988-7.5-7.475-7.481z"/>
</svg>
