<svg version="1.1" xmlns="http://www.w3.org/2000/svg" width="40" height="32" viewBox="0 0 40 32">
<path fill="currentColor" d="M6.607 13.438v2.578h3.569c-0.153 0.853-0.637 1.571-1.311 2.031l-0.011 0.007c-0.596 0.409-1.357 0.642-2.25 0.642-1.725 0-3.183-1.182-3.706-2.764-0.13-0.383-0.205-0.823-0.205-1.281s0.075-0.899 0.214-1.31l-0.008 0.029c0.523-1.591 1.981-2.773 3.706-2.773 0.020-0 0.043-0.001 0.066-0.001 0.96 0 1.831 0.384 2.467 1.006l-0.001-0.001 1.893-1.914c-1.132-1.077-2.668-1.74-4.358-1.74-0.022 0-0.045 0-0.067 0l0.003-0c-2.577 0.010-4.804 1.496-5.881 3.656l-0.017 0.038c-0.447 0.876-0.709 1.91-0.709 3.006s0.262 2.13 0.726 3.044l-0.018-0.038v0.009c1.095 2.197 3.323 3.681 5.898 3.688h0.001c1.779 0 3.284-0.596 4.375-1.619 1.25-1.163 1.963-2.884 1.963-4.932 0-0.004 0-0.009 0-0.013 0-0.476-0.040-0.943-0.116-1.397l0.007 0.049zM30.946 13.188c-0.633-0.586-1.496-0.884-2.587-0.884-1.404 0-2.459 0.521-3.156 1.554l1.303 0.829q0.716-1.063 1.954-1.063c0.548 0.001 1.047 0.21 1.424 0.551l-0.002-0.002c0.372 0.324 0.605 0.798 0.606 1.327v0.344c-0.569-0.317-1.284-0.484-2.165-0.484-1.027 0-1.853 0.242-2.468 0.736s-0.926 1.144-0.926 1.973c-0.001 0.019-0.001 0.042-0.001 0.065 0 0.755 0.337 1.431 0.869 1.887l0.003 0.003c0.578 0.521 1.313 0.782 2.174 0.782 1.018 0 1.826-0.456 2.438-1.368h0.063v1.107h1.413v-4.919c0.004-1.034-0.308-1.854-0.941-2.438zM29.744 18.769c-0.423 0.43-1.011 0.697-1.66 0.698h-0c-0.009 0-0.019 0-0.030 0-0.424 0-0.813-0.147-1.119-0.394l0.003 0.003c-0.296-0.224-0.486-0.575-0.486-0.971 0-0.002 0-0.004 0-0.006v0c0-0.438 0.201-0.801 0.596-1.089s0.908-0.438 1.504-0.438c0.823-0.010 1.466 0.177 1.925 0.549 0 0.633-0.247 1.182-0.734 1.648zM23.891 9.894c-0.63-0.63-1.5-1.019-2.462-1.019-0.025 0-0.049 0-0.074 0.001l0.004-0h-3.917v11.671h1.477v-4.727h2.438c1 0 1.844-0.335 2.532-0.996 0.055-0.056 0.11-0.112 0.166-0.168 0.554-0.603 0.894-1.412 0.894-2.299 0-0.969-0.405-1.844-1.056-2.464l-0.001-0.001zM22.854 13.783c-0.35 0.373-0.847 0.606-1.398 0.606-0.021 0-0.043-0-0.064-0.001l0.003 0h-2.477v-4.076h2.477c0.002 0 0.005 0 0.007 0 0.548 0 1.044 0.22 1.405 0.577l-0-0c0.377 0.376 0.61 0.895 0.61 1.469 0 0.551-0.215 1.052-0.565 1.423l0.001-0.001zM38.394 12.563l-2.284 5.731h-0.028l-2.339-5.731h-1.606l3.237 7.472-1.834 4.020h1.522l4.938-11.492z"/>
</svg>
