<svg version="1.1" xmlns="http://www.w3.org/2000/svg" width="40" height="32" viewBox="0 0 40 32">
<path fill="currentColor" d="M20 6v20c1.313 0 2.614-0.259 3.827-0.761s2.316-1.239 3.244-2.168c0.929-0.929 1.665-2.031 2.168-3.244s0.761-2.514 0.761-3.827-0.259-2.614-0.761-3.827c-0.503-1.213-1.239-2.316-2.168-3.244s-2.031-1.665-3.244-2.168c-1.213-0.502-2.514-0.761-3.827-0.761zM0 16l10 10 10-10-10-10-10 10zM30 16c0 1.313 0.259 2.614 0.761 3.827s1.239 2.316 2.168 3.244c0.929 0.929 2.031 1.665 3.244 2.168s2.514 0.761 3.827 0.761v-20c-2.652 0-5.196 1.054-7.071 2.929s-2.929 4.419-2.929 7.071z"/>
</svg>
