<svg version="1.1" xmlns="http://www.w3.org/2000/svg" width="28" height="32" viewBox="0 0 28 32">
<path fill="currentColor" d="M27.714 4h-27.428c0 6.454 1.387 11.254 2.714 13.897 4.004 7.986 11.001 10.103 11.079 10.103 3.571-1.335 6.547-3.565 8.751-6.422l0.034-0.046c1.619-2.12 3.319-5.449 4.12-9.11h-16.243c0.259 2.277 1.386 4.247 2.819 5.434h5.537c-1.063 1.763-3.012 3.4-5.029 4.343-1.952-0.829-4.318-2.909-6.034-6.148-1.67-3.365-1.693-6.618-1.693-6.618h21.009c0.233-1.604 0.366-3.456 0.366-5.339 0-0.034-0-0.067-0-0.1v0.005z"/>
</svg>
