<svg version="1.1" xmlns="http://www.w3.org/2000/svg" width="32" height="32" viewBox="0 0 32 32">
<path fill="currentColor" d="M16.272 15.93l-8.051-13.861c-0.024-0.042-0.069-0.069-0.12-0.069s-0.096 0.028-0.119 0.069l-0 0.001-7.963 13.861c-0.012 0.020-0.019 0.044-0.019 0.070s0.007 0.050 0.019 0.070l-0-0.001 8.051 13.861c0.024 0.042 0.069 0.069 0.12 0.069s0.096-0.028 0.12-0.069l0-0.001 7.963-13.861c0.012-0.020 0.019-0.044 0.019-0.070s-0.007-0.050-0.019-0.071l0 0.001zM18.714 14.323c0.024 0.042 0.068 0.069 0.119 0.069h4.157c0.076-0.001 0.137-0.063 0.137-0.139 0-0.026-0.007-0.050-0.019-0.070l0 0.001-6.914-12.114c-0.024-0.042-0.068-0.069-0.119-0.069v0h-4.157c-0.076 0.001-0.137 0.063-0.137 0.139 0 0.026 0.007 0.050 0.019 0.070l-0-0.001zM31.981 15.93l-7.925-13.861c-0.024-0.042-0.069-0.069-0.119-0.070h-4.162c-0.076 0.001-0.138 0.063-0.138 0.139 0 0.026 0.007 0.050 0.019 0.070l-0-0.001 7.886 13.791-7.886 13.791c-0.012 0.020-0.019 0.044-0.019 0.070 0 0.076 0.062 0.138 0.138 0.139h4.163c0.051-0 0.095-0.028 0.119-0.069l0-0.001 7.925-13.861c0.012-0.020 0.018-0.044 0.018-0.070s-0.007-0.050-0.019-0.070l0 0.001zM22.876 17.807h-4.157c-0.051 0-0.095 0.028-0.118 0.069l-0 0.001-6.8 11.914c-0.012 0.020-0.019 0.044-0.019 0.070 0 0.076 0.061 0.138 0.137 0.139h4.157c0.051-0 0.095-0.028 0.118-0.069l0-0.001 6.8-11.914c0.012-0.020 0.019-0.044 0.019-0.070 0-0.076-0.061-0.138-0.137-0.139h-0z"/>
</svg>
