<svg version="1.1" xmlns="http://www.w3.org/2000/svg" width="32" height="32" viewBox="0 0 32 32">
<path fill="currentColor" d="M22.594 0c0 8.225-5.044 11.050-8.762 13.088-0.037 0.019-0.069 0.037-0.1 0.056-3.362 1.887-5.544 3.113-5.6 7.625h-6.131c0-8.219 5.044-11.044 8.762-13.081 3.425-1.862 5.644-3.125 5.644-7.688h6.181zM18.813 18.913c3.425-1.863 5.644-3.125 5.644-7.688h6.125c0 8.225-5.044 11.044-8.762 13.087-3.425 1.863-5.644 3.125-5.644 7.688h-6.125c0-8.225 5.044-11.050 8.762-13.087z"/>
</svg>
