<svg version="1.1" xmlns="http://www.w3.org/2000/svg" width="28" height="32" viewBox="0 0 28 32">
<path fill="currentColor" d="M5.594 20.225h-2.223v-8.588h2.223v8.588zM9.756 15.656l0.569-4.019h2.894v8.588h-1.938v-5.794l-0.838 5.794h-1.331l-0.813-5.669-0.006 5.669h-1.95v-8.588h2.881c0.031 0.519 0.175 1.131 0.269 1.838l0.262 2.181zM13.981 20.225v-8.588h1.662c1.062 0 1.687 0.056 2.062 0.15 0.381 0.106 0.669 0.262 0.869 0.494 0.194 0.206 0.319 0.412 0.363 0.75 0.056 0.275 0.087 0.819 0.087 1.637v3.013c0 0.769-0.044 1.281-0.119 1.544-0.069 0.256-0.194 0.462-0.375 0.606-0.175 0.15-0.4 0.256-0.669 0.313-0.262 0.050-0.663 0.081-1.194 0.081h-2.688zM16.2 13.106v5.588c0.319 0 0.519-0.063 0.587-0.144 0.069-0.125 0.113-0.475 0.113-1.044v-3.331c0-0.387-0.006-0.637-0.044-0.75-0.019-0.113-0.075-0.188-0.163-0.294-0.087 0-0.256-0.025-0.494-0.025v0zM19.781 20.225v-8.588h2.131v2.744c0.181-0.15 0.381-0.306 0.594-0.412 0.225-0.094 0.55-0.15 0.8-0.15 0.3 0 0.556 0.050 0.769 0.137 0.212 0.094 0.375 0.219 0.5 0.387 0.106 0.162 0.169 0.331 0.194 0.488 0.025 0.162-0.012 0.5-0.012 1.012v2.413c0 0.512 0.012 0.894-0.050 1.15-0.069 0.25-0.238 0.475-0.488 0.6-0.256 0.244-0.556 0.331-0.913 0.331-0.25 0-0.575-0.056-0.794-0.156-0.219-0.113-0.419-0.281-0.6-0.5l-0.131 0.544h-2zM22.6 18.931c0.044-0.113 0.063-0.375 0.063-0.781v-2.213c0-0.35-0.019-0.594-0.069-0.7-0.044-0.119-0.231-0.169-0.363-0.169-0.125 0-0.212 0.050-0.256 0.144-0.038 0.094-0.063 0.338-0.063 0.725v2.275c0 0.381 0.025 0.625 0.075 0.725 0.038 0.106 0.131 0.156 0.256 0.156 0.137 0 0.262-0.050 0.356-0.163v0zM26.15 2.002c0.981 0.077 1.794 0.953 1.794 1.993v24.011c0 1.025-0.744 1.9-1.762 1.938-0.019 0-0.031 0.056-0.050 0.056h-24.264c-0.018 0-0.035-0.056-0.052-0.006-0.983-0.087-1.747-0.863-1.815-1.887l0.001-24.245c0.066-0.994 0.863-1.793 1.89-1.917h24.215c0.012 0 0.031 0.057 0.044 0.059v0zM1.892 2.579c-0.704 0.047-1.266 0.609-1.313 1.321v24.206c0.023 0.337 0.166 0.656 0.403 0.894 0.236 0.244 0.551 0.394 0.887 0.419h24.263c0.719-0.063 1.288-0.725 1.288-1.413v-24.012c0-0.359-0.131-0.704-0.375-0.966s-0.581-0.424-0.938-0.449h-24.214z"/>
</svg>
