<svg version="1.1" xmlns="http://www.w3.org/2000/svg" width="28" height="32" viewBox="0 0 28 32">
<path fill="currentColor" d="M13.975 5.019c-5.912 0-10.694 4.794-10.694 10.7s4.781 10.706 10.694 10.706 10.7-4.794 10.7-10.7c0-5.912-4.794-10.706-10.7-10.706zM18.938 20.019c-0.2 0.85-0.844 1.325-1.706 1.488-0.756 0.137-1.387 0.175-1.994-0.313-0.738-0.625-0.75-1.65-0.088-2.3 0.525-0.5 1.269-0.6 2.375-0.8 0.188-0.031 0.35-0.075 0.481-0.231 0.2-0.225 0.137-0.125 0.137-5.050 0-0.35-0.169-0.444-0.525-0.381-0.25 0.044-5.744 1.069-5.744 1.069-0.313 0.069-0.419 0.162-0.419 0.519 0 7.256 0.031 6.925-0.075 7.406-0.131 0.563-0.475 0.988-0.931 1.225-0.519 0.288-1.463 0.413-1.963 0.325-1.338-0.25-1.806-1.794-0.9-2.681 0.525-0.5 1.269-0.6 2.375-0.8 0.188-0.031 0.35-0.075 0.481-0.231 0.313-0.356 0.056-7.938 0.162-8.356 0.025-0.162 0.094-0.3 0.219-0.4 0.131-0.106 0.363-0.169 0.419-0.169 6.313-1.188 7.081-1.338 7.194-1.338 0.356-0.025 0.563 0.188 0.563 0.544-0.006 10.663 0.025 10.087-0.063 10.475zM21.575 2h-15.15c-3.556 0-6.425 2.869-6.425 6.425v15.15c0 3.556 2.869 6.425 6.425 6.425h15.15c3.563 0 6.425-2.869 6.425-6.425v-15.15c0-3.556-2.869-6.425-6.425-6.425zM13.975 27.75c-6.644 0-12.031-5.387-12.031-12.031s5.388-12.031 12.031-12.031 12.031 5.387 12.031 12.031-5.387 12.031-12.031 12.031z"/>
</svg>
