<svg version="1.1" xmlns="http://www.w3.org/2000/svg" width="24" height="32" viewBox="0 0 24 32">
<path fill="currentColor" d="M23.869 24.262c-0.4 1.712-1.7 2.675-3.444 3-1.531 0.281-2.806 0.35-4.031-0.637-1.494-1.256-1.512-3.337-0.169-4.65 1.063-1.012 2.556-1.219 4.8-1.613 0.375-0.069 0.7-0.156 0.975-0.462 0.4-0.45 0.275-0.256 0.275-10.2 0-0.7-0.344-0.894-1.063-0.769-0.512 0.088-11.606 2.162-11.606 2.162-0.637 0.137-0.838 0.325-0.838 1.044 0 14.669 0.069 13.994-0.156 14.969-0.262 1.137-0.963 1.994-1.888 2.469-1.050 0.581-2.95 0.837-3.962 0.65-2.7-0.506-3.65-3.625-1.819-5.413 1.063-1.012 2.556-1.219 4.8-1.613 0.375-0.069 0.7-0.156 0.975-0.462 0.631-0.719 0.112-16.038 0.325-16.887 0.050-0.325 0.188-0.6 0.444-0.806 0.263-0.219 0.737-0.344 0.837-0.344 12.75-2.388 14.306-2.694 14.525-2.694 0.719-0.050 1.131 0.375 1.131 1.1 0.012 21.531 0.069 20.375-0.113 21.156z"/>
</svg>
