<svg version="1.1" xmlns="http://www.w3.org/2000/svg" width="24" height="32" viewBox="0 0 24 32">
<path fill="currentColor" d="M17.359 19.556c0.613-0.419 1.462-0.781 1.462-0.781s-2.419 0.438-4.825 0.637c-2.944 0.244-6.106 0.294-7.694 0.081-3.756-0.5 2.063-1.881 2.063-1.881s-2.256-0.15-5.037 1.188c-3.281 1.587 8.125 2.313 14.031 0.756zM12.021 17.55c-1.188-2.669-5.194-5.012 0-9.113 6.479-5.112 3.156-8.438 3.156-8.438 1.344 5.281-4.725 6.881-6.919 10.162-1.494 2.244 0.731 4.65 3.762 7.388zM19.184 6.537c0.006 0-10.95 2.737-5.719 8.762 1.544 1.775-0.406 3.375-0.406 3.375s3.919-2.025 2.119-4.556c-1.681-2.362-2.969-3.537 4.006-7.581zM18.802 23.444c-0.036 0.062-0.077 0.115-0.125 0.162l-0 0c8.019-2.106 5.069-7.431 1.238-6.081-0.211 0.079-0.386 0.216-0.51 0.39l-0.002 0.003c0.192-0.072 0.422-0.137 0.66-0.183l0.028-0.004c1.938-0.406 4.719 2.594-1.288 5.713zM21.75 27.337s0.906 0.744-0.994 1.325c-3.619 1.094-15.050 1.425-18.225 0.044-1.144-0.494 1-1.188 1.675-1.331 0.7-0.15 1.106-0.125 1.106-0.125-1.269-0.894-8.206 1.756-3.525 2.512 12.765 2.075 23.275-0.931 19.962-2.425zM7.777 24.75c-4.919 1.375 2.994 4.212 9.256 1.531-0.684-0.268-1.264-0.558-1.814-0.892l0.052 0.029c-2.794 0.531-4.088 0.569-6.625 0.281-2.094-0.238-0.869-0.95-0.869-0.95zM19.015 30.825c-4.919 0.925-10.988 0.819-14.581 0.225 0-0.006 0.737 0.606 4.525 0.85 5.763 0.369 14.612-0.206 14.819-2.931 0 0-0.4 1.031-4.762 1.856zM16.29 22.063c-3.7 0.712-5.844 0.694-8.55 0.413-2.094-0.219-0.725-1.231-0.725-1.231-5.425 1.8 3.013 3.837 10.594 1.619-0.512-0.184-0.951-0.456-1.321-0.802l0.002 0.002z"/>
</svg>
