<svg version="1.1" xmlns="http://www.w3.org/2000/svg" width="32" height="32" viewBox="0 0 32 32">
<path fill="currentColor" d="M30.444 26.563c-0.087-0.7-1.188-1.444-1.762-1.994-0.319-0.313-1.813-1.444-1.9-1.869-0.087-0.413 0.606-1.344 0.831-1.806 0.319-0.669 0.55-1.481 0.706-2.038 1.175-4.131 1.294-9.806-0.387-13.2-0.637-1.287-2.413-3.063-3.525-3.906-2.625-1.981-7.475-2.206-10.631-1.038-0.881 0.325-1.738 0.613-2.506 1.069-2.069 1.212-4.269 2.031-4.881 4.475-1.513 0.675-1.969 2.612-1.894 4.862 0.013 0.438 0.256 0.988 0.169 1.4-0.044 0.206-0.325 0.475-0.381 0.613-0.725 1.731-0.144 4 0.694 5.231 0.506 0.744 1.344 1.4 2.45 1.575 0.044 0.663 0.206 1.231 0.513 1.9 0.194 0.425 0.919 1.188 0.65 1.731-0.137 0.275-1.313 0.863-1.706 1.1-1.319 0.781-2.275 1.269-3.494 2.144-0.788 0.563-2.019 0.637-1.825 1.944 0.131 0.881 0.631 1.975 0.919 2.863 0.044 0.125 0.087 0.256 0.131 0.375h26.375c0.306-0.956 0.606-1.931 0.913-2.95 0.212-0.712 0.637-1.738 0.544-2.481zM12.869 2.106c0.113-0.031 0.213 0.044 0.306 0.15-0.012 0.325-0.338 0.319-0.556 0.425-0.338 0.419-0.838 0.613-1.25 1.075-0.425 0.469-0.9 1.731-1.463 1.875-0.281 0.069-0.606-0.050-0.85-0.031-0.65 0.044-1.106 0.375-1.769 0.469 0.85-1.869 3.506-3.375 5.581-3.962zM6.319 7.956c0.844-0.931 2.006-1.506 3.425-1.619 0.731 1.856-0.525 4.063-0.056 6.1 0.144 0.619 0.637 1.588-0.15 1.606 0.019-1.769-2.175-2.894-3.831-1.85-0.112-1.344-0.306-3.231 0.612-4.237zM8.613 20.469c-0.063-0.256-0.169-0.806-0.144-0.944 0.1-0.544 1.069-0.781 0.688-1.544-0.706-0.006-0.863 0.637-1.506 0.706-1.669 0.163-2.85-2.212-2.775-3.65 0.063-1.219 1.1-2.388 2.506-2.237 1 0.113 1.338 1.2 1.531 2.169 0.575 0.031 1.406-0.025 1.681-0.475-0.037-1.094-0.55-1.975-0.512-2.981 0.063-1.894 1.094-3.6 0.3-5.463 0.85-1.931 3.344-3.456 5.194-4.375 2.287-1.144 5.931-0.231 8.081 0.987 1.231 0.694 2.15 2.044 3.019 3.169-1.219-0.362-2.256 0.263-2.069 1.269 1.019-0.931 2.762-0.013 3.281 1.025 0.494 0.988 0.488 2.456 0.563 3.925 0.181 3.563-0.65 7.244-2.444 9.819-0.481 0.688-0.881 1.438-1.556 1.913-1.625 1.137-4.088 2.169-6.2 1.462-2.794-0.938-4.063-2.8-5.594-4.925 0.044 1.169 0.863 2.131 1.675 3.025 0.706 0.781 1.563 1.663 2.481 2.025-0.769-0.181-1.944-0.238-2.262 0.45-1.787-0.119-3.444-0.3-4.294-1.512-0.662-0.962-1.338-2.587-1.644-3.837zM22.488 28.225c0.256-0.188 0.694-0.181 1.087-0.225-0.337-0.169-0.813-0.231-1.206-0.137-0.006-0.262-0.125-0.425-0.2-0.637 0.663-0.238 2.219-1.781 3.1-1.269 0.419 0.244 0.594 1.637 0.631 2.313 0.025 0.563-0.050 1.125-0.281 1.425-1.175-0.038-2.238-0.175-3.169-0.438 0.056-0.381-0.063-0.756 0.038-1.031zM21.413 26.975c-1.050 0.050-1.625-0.075-2.394-0.675 0.012-0.050 0.087-0.031 0.094-0.087 1.125 0.5 2.55-0.206 3.688-0.306-0.494 0.319-0.913 0.725-1.387 1.069zM20.656 29.050c-0.1-0.587-0.219-0.75-0.175-1.262 1.563-1.038 1.856 1.788 0.175 1.262zM14.125 27.413c-0.725-0.044-3.006-0.875-2.406-1.481 0.588 0.406 1.719 0.306 2.581 0.456 0.050 0.275-0.175 0.637-0.175 1.025zM3.606 31.069c-0.269-0.794-0.575-1.569-0.925-2.306 1.925-1.488 4.081-3.056 6.388-3.969 0.175-0.069 1.45 1.587 1.637 1.725 1.031 0.731 2.313 1.313 3.512 1.887 0.075 0.55 0.244 1.262 0.544 2.219 0.044 0.144 0.088 0.294 0.137 0.45h-11.294zM18.644 31.425h-0.050c0.019-0.012 0.031-0.025 0.050-0.031v0.031zM19.113 31.069c0.131-0.087 0.269-0.175 0.4-0.269 0.069 0.087 0.137 0.175 0.2 0.269h-0.6zM20.056 29.525c-0.675 0.456-1.288 1.144-2.081 1.575-0.375 0.206-1.688 0.731-2.088 0.637-0.225-0.050-0.244-0.331-0.338-0.594-0.194-0.563-0.631-1.462-0.675-2.313-0.050-1.075-0.156-2.875 1-2.65 0.931 0.181 2.019 0.606 2.744 1.006 0.444 0.244 0.694 0.538 1.369 0.594-0.006 0.087-0.006 0.175-0.012 0.269-0.369 0.244-0.956 0.238-1.363 0.444 0.594 0.025 1.063 0.169 1.469 0.369-0.006 0.212-0.019 0.438-0.025 0.663zM23.394 31.069h-0.875c-0.006-0.2-0.175-0.363-0.381-0.363s-0.369 0.163-0.381 0.363h-1.087c-0.175-0.275-0.356-0.538-0.556-0.781 0.131-0.137 0.25-0.294 0.375-0.431 0.563 0.231 0.925-0.306 1.356-0.262 0.494 0.050 0.887 0.731 1.587 0.688l-0.038 0.788zM23.938 31.069c0.012-0.25 0.025-0.488 0.038-0.719 0.975-0.456 1.813 0.081 2.231 0.719h-2.269zM29.15 28.756c-0.144 0.7-0.363 1.5-0.619 2.319-0.012-0.006-0.025-0.006-0.038-0.006h-1.744c0.038-0.069 0.075-0.137 0.119-0.206-0.163-0.381-0.563-0.544-0.681-0.969 0.756-1.419 0.406-5.838-1.512-4.906 0.269-0.394 0.975-0.719 1.3-1.206 0.813 0.65 1.3 1.269 2.075 1.962 0.425 0.375 1.25 0.831 1.337 1.444 0.050 0.344-0.163 1.181-0.238 1.569zM13.887 8.156c0.338-0.931 1.7-2.169 2.813-2 0.481 0.075 1.125 0.513 0.762 1.106-1.887-0.438-2.825 0.788-3.4 2.069-0.506-0.125-0.306-0.819-0.175-1.175zM25.394 12.1c0.512-0.225 1.4-0.044 1.85-0.331-0.262-0.719-0.644-1.338-0.581-2.356 0.031 0 0.063 0 0.087 0.006 0.425 0.887 0.794 1.825 1.337 2.606-0.356 0.844-2.725 1.588-2.694 0.075zM19.344 12.269c-0.425-0.681-1.188-2.031-0.906-2.831 0.406 0.744 0.538 1.525 1.113 2.081 0.256 0.25 0.762 0.563 0.512 1.262-0.056 0.169-0.488 0.537-0.731 0.606-0.9 0.269-2.994 0.056-2.288-1.069 0.744 0.044 1.744 0.488 2.3-0.050zM21.050 16.644c0.238 0.413 0.087 1.169 0.756 1.288 1.262 0.212 2.725-0.769 3.631-1.113 0.563-0.95-0.050-1.294-0.556-1.906-1.038-1.25-2.425-2.8-2.375-4.669 0.419-0.306 0.456 0.463 0.512 0.606 0.544 1.269 1.9 2.887 2.894 3.969 0.244 0.269 0.644 0.525 0.688 0.7 0.131 0.512-0.337 1.125-0.281 1.469-1.356 0.869-2.863 1.819-5.088 1.6-0.462-0.419-0.644-1.337-0.181-1.944zM8.469 16.069c-0.425-0.244-0.525-1.313-1.025-1.338-0.713-0.044-0.581 1.388-0.581 2.219-0.487-0.444-0.575-1.819-0.219-2.519-0.412-0.2-0.594 0.225-0.819 0.369 0.294-2.131 3.112-0.988 2.644 1.269zM27.194 17.869c-0.631 1.2-1.525 2.525-3.375 2.563-0.038-0.387-0.069-0.975 0-1.212 1.419-0.137 2.288-0.856 3.375-1.35zM18.325 18.644c1.181 0.619 3.35 0.688 4.956 0.637 0.087 0.35 0.081 0.788 0.087 1.212-2.063 0.113-4.5-0.4-5.044-1.85zM24.087 21.563c-0.106 0.269-0.331 0.581-0.613 0.694-0.756 0.306-2.85 0.544-3.9-0.019-0.669-0.356-1.094-1.156-1.462-1.625-0.175-0.225-1.056-0.806-0.012-0.806 0.819 2.044 3.625 1.813 5.988 1.756z"/>
</svg>
