<svg version="1.1" xmlns="http://www.w3.org/2000/svg" width="28" height="32" viewBox="0 0 28 32">
<path fill="currentColor" d="M0.037 5.756c0-2.081 1.675-3.756 3.737-3.756 1.875 0 3.406 1.369 3.7 3.137 2.037-0.475 4.194 0.037 6.031 1.875l-2.769 2.769c-1.281-1.281-2.662-1.019-3.463-0.219-0.894 0.894-0.894 2.369 0 3.262l6.219 6.219-2.75 2.769c-5.481-5.45-3.106-3.106-6.237-6.231-1.675-1.656-2.188-4.050-1.55-6.181-1.681-0.363-2.919-1.856-2.919-3.644zM8.131 13.031l2.769 2.769c0.625-0.625 5.606-5.606 6.231-6.238 0.894-0.894 2.35-0.894 3.244 0 0.8 0.8 1.063 2.188-0.219 3.463l2.75 2.769c1.95-1.95 2.406-4.225 1.806-6.325 1.825-0.256 3.244-1.825 3.244-3.719 0-2.075-1.675-3.756-3.738-3.756-1.894 0-3.462 1.406-3.719 3.225-2.113-0.619-4.481-0.094-6.144 1.569-1.144 1.194-4.444 4.469-6.225 6.244zM24.775 22.544c0.512-2.044-0.056-4.281-1.644-5.869-0.738-0.762 0.313 0.294-6.219-6.231l-2.769 2.769 6.231 6.231c0.894 0.894 0.894 2.35 0 3.244-0.8 0.8-2.188 1.063-3.462-0.219l-2.75 2.769c1.725 1.887 4.25 2.425 6.419 1.75 0.344 1.712 1.856 3.006 3.681 3.006 2.063 0 3.738-1.675 3.738-3.756 0-1.887-1.406-3.438-3.225-3.694zM19.506 19.225l-2.75-2.769c-5.438 5.4-3.15 3.15-6.231 6.238-0.894 0.894-2.35 0.894-3.244 0-0.819-0.837-1.056-2.206 0.2-3.462l-2.75-2.769c-1.888 1.887-2.375 4.075-1.844 6.144-1.669 0.375-2.888 1.869-2.888 3.637 0 2.081 1.675 3.756 3.737 3.756 1.788 0 3.281-1.238 3.663-2.919 2.044 0.512 4.281-0.038 5.887-1.625 2.006-2 0.762-0.775 6.219-6.231z"/>
</svg>
