<svg version="1.1" xmlns="http://www.w3.org/2000/svg" width="32" height="32" viewBox="0 0 32 32">
<path fill="currentColor" d="M31.525 7.239c-0.006-0.017-0.012-0.031-0.018-0.045l0.001 0.002c-0.010-0.031-0.021-0.056-0.035-0.081l0.001 0.003c-0.011-0.017-0.022-0.031-0.034-0.045l0 0c-0.015-0.022-0.030-0.041-0.046-0.059l0.001 0.001c-0.014-0.014-0.032-0.025-0.048-0.037-0.017-0.014-0.035-0.028-0.054-0.041l-0.002-0.001-6.016-3.464c-0.072-0.042-0.158-0.067-0.25-0.067s-0.178 0.025-0.252 0.068l0.002-0.001-6.017 3.466c-0.021 0.014-0.039 0.028-0.055 0.043l0-0c-0.018 0.012-0.034 0.025-0.049 0.038l0.001-0c-0.016 0.017-0.030 0.036-0.044 0.056l-0.001 0.002c-0.011 0.015-0.024 0.028-0.034 0.044-0.011 0.021-0.022 0.047-0.031 0.074l-0.001 0.004c-0.005 0.014-0.013 0.027-0.017 0.043-0.011 0.039-0.017 0.084-0.017 0.13v6.578l-5.014 2.887v-12.871c0-0 0-0.001 0-0.001 0-0.046-0.006-0.091-0.018-0.133l0.001 0.003c-0.004-0.015-0.012-0.028-0.018-0.042-0.010-0.030-0.021-0.056-0.034-0.080l0.001 0.003c-0.009-0.016-0.023-0.029-0.034-0.045-0.015-0.022-0.030-0.041-0.046-0.059l0.001 0.001c-0.014-0.012-0.030-0.025-0.047-0.036l-0.002-0.001c-0.016-0.014-0.034-0.028-0.053-0.041l-0.002-0.001-6.018-3.464c-0.072-0.042-0.158-0.067-0.25-0.067s-0.178 0.025-0.252 0.068l0.002-0.001-6.017 3.464c-0.021 0.014-0.039 0.028-0.055 0.043l0-0c-0.019 0.012-0.035 0.025-0.050 0.038l0.001-0.001c-0.015 0.017-0.030 0.036-0.043 0.056l-0.001 0.002c-0.011 0.016-0.025 0.029-0.034 0.045-0.011 0.022-0.022 0.047-0.031 0.074l-0.001 0.003c-0.006 0.011-0.012 0.025-0.017 0.039l-0.001 0.003c-0.011 0.039-0.017 0.085-0.018 0.131v20.606c0 0 0 0.001 0 0.001 0 0.184 0.099 0.345 0.248 0.432l0.002 0.001 12.031 6.928c0.023 0.012 0.051 0.023 0.079 0.033l0.004 0.001c0.013 0.005 0.026 0.012 0.039 0.016 0.038 0.011 0.083 0.017 0.128 0.017s0.090-0.006 0.132-0.018l-0.003 0.001c0.012-0.003 0.023-0.010 0.034-0.014 0.034-0.011 0.063-0.023 0.090-0.038l-0.003 0.001 12.035-6.927c0.151-0.088 0.25-0.249 0.25-0.433 0-0 0-0.001 0-0.001v0-6.579l5.765-3.319c0.151-0.088 0.25-0.249 0.25-0.433 0-0.002 0-0.003-0-0.005v0-6.866c0-0.001 0-0.003 0-0.004 0-0.045-0.005-0.088-0.016-0.13l0.001 0.004zM6.975 1.080v0l5.012 2.884-5.013 2.886-5.011-2.886zM12.491 4.83v12.583l-5.014 2.887v-12.581l2.908-1.674zM12.491 30.629l-11.030-6.348v-19.449l5.013 2.886v13.449c0.001 0.021 0.004 0.040 0.008 0.059l-0-0.003c0.002 0.027 0.005 0.052 0.011 0.077l-0.001-0.003c0.007 0.022 0.015 0.041 0.025 0.058l-0.001-0.002c0.008 0.024 0.017 0.045 0.027 0.065l-0.001-0.002c0.013 0.018 0.025 0.034 0.038 0.049l-0.001-0.001c0.013 0.020 0.027 0.037 0.042 0.053l-0-0c0.014 0.014 0.032 0.024 0.048 0.036 0.016 0.014 0.034 0.028 0.052 0.040l0.002 0.001 5.762 3.261zM12.991 23.993l-5.004-2.832 11.022-6.345 5.008 2.883-3.675 2.098zM24.523 24.279l-11.031 6.353v-5.769l11.031-6.297zM24.523 16.833l-2.106-1.208-2.908-1.674v-5.714l5.014 2.888zM25.023 10.253l-5.012-2.886 5.012-2.885 5.011 2.884zM25.523 16.833v-5.708l5.019-2.888v5.712z"/>
</svg>
