<svg version="1.1" xmlns="http://www.w3.org/2000/svg" width="32" height="32" viewBox="0 0 32 32">
<path fill="currentColor" d="M14.113 22.944l-1.175-3.188s-1.906 2.125-4.762 2.125c-2.531 0-4.325-2.2-4.325-5.719 0-4.506 2.275-6.119 4.506-6.119 4.156 0 4.675 3.331 6.306 8.431 1.175 3.556 3.375 6.413 9.713 6.413 4.544 0 7.625-1.394 7.625-5.056 0-4.556-3.919-5.037-7.188-5.756-1.613-0.369-2.087-1.025-2.087-2.125 0-1.244 0.988-1.981 2.6-1.981 1.762 0 2.712 0.662 2.856 2.237l3.663-0.438c-0.294-3.3-2.569-4.656-6.306-4.656-3.3 0-6.525 1.244-6.525 5.244 0 2.494 1.212 4.069 4.25 4.8 2.806 0.663 4.988 0.863 4.988 2.856 0 1.356-1.319 1.906-3.813 1.906-3.7 0-5.244-1.944-6.119-4.619-2-6.050-2.725-10.188-10.081-10.188-5.381 0-8.238 3.406-8.238 9.2 0 5.569 2.856 8.575 7.994 8.575 4.138 0 6.119-1.944 6.119-1.944z"/>
</svg>
