<svg version="1.1" xmlns="http://www.w3.org/2000/svg" width="32" height="32" viewBox="0 0 32 32">
<path fill="currentColor" d="M19.438 12.3v5.081c0 0.131-0.1 0.231-0.231 0.231h-0.813c-0.081 0-0.15-0.044-0.188-0.094l-2.331-3.144v3.012c0 0.131-0.1 0.231-0.231 0.231h-0.813c-0.131 0-0.231-0.1-0.231-0.231v-5.081c0-0.131 0.1-0.231 0.231-0.231h0.806c0.069 0 0.15 0.037 0.188 0.1l2.331 3.144v-3.012c0-0.131 0.1-0.231 0.231-0.231h0.813c0.131-0.006 0.238 0.1 0.238 0.219zM13.581 12.069h-0.813c-0.131 0-0.231 0.1-0.231 0.231v5.081c0 0.131 0.1 0.231 0.231 0.231h0.813c0.131 0 0.231-0.1 0.231-0.231v-5.081c0-0.119-0.1-0.231-0.231-0.231zM11.619 16.325h-2.225v-4.025c0-0.131-0.1-0.231-0.231-0.231h-0.813c-0.131 0-0.231 0.1-0.231 0.231v5.081c0 0.063 0.019 0.113 0.063 0.156 0.044 0.038 0.094 0.063 0.156 0.063h3.262c0.131 0 0.231-0.1 0.231-0.231v-0.813c0-0.119-0.1-0.231-0.219-0.231zM23.725 12.069h-3.269c-0.119 0-0.231 0.1-0.231 0.231v5.081c0 0.119 0.1 0.231 0.231 0.231h3.262c0.131 0 0.231-0.1 0.231-0.231v-0.819c0-0.131-0.1-0.231-0.231-0.231h-2.219v-0.85h2.219c0.131 0 0.231-0.1 0.231-0.231v-0.819c0-0.131-0.1-0.231-0.231-0.231h-2.219v-0.856h2.219c0.131 0 0.231-0.1 0.231-0.231v-0.813c-0.006-0.119-0.106-0.231-0.231-0.231zM32 5.838v20.375c-0.006 3.2-2.631 5.794-5.837 5.788h-20.375c-3.2-0.006-5.794-2.637-5.787-5.837v-20.375c0.006-3.2 2.638-5.794 5.838-5.787h20.375c3.2 0.006 5.794 2.631 5.787 5.838zM27.6 14.594c0-5.213-5.231-9.456-11.65-9.456s-11.65 4.244-11.65 9.456c0 4.669 4.144 8.587 9.744 9.331 1.363 0.294 1.206 0.794 0.9 2.631-0.050 0.294-0.238 1.15 1.006 0.631s6.706-3.95 9.156-6.762c1.688-1.856 2.494-3.738 2.494-5.819z"/>
</svg>
