<svg version="1.1" xmlns="http://www.w3.org/2000/svg" width="28" height="32" viewBox="0 0 28 32">
<path fill="currentColor" d="M22.877 11.679l-3.719 2.304-0.052 2.304-1.833-1.205-2.462 1.519c0.14 3.451 0.155 3.704 0.157 3.719l-6.075 4.085-0.943-6.547 6.756-3.876-2.514-1.624-4.714 2.409-1.309-8.956 8.066-3.090-5.709-2.723-7.856 2.462 1.728 8.432 2.619 2.043-1.99 0.943 1.309 6.337 1.833 1.728-1.309 0.786 1.048 4.923 4.137 4.347c-0.675-4.678-0.729-4.915-0.733-4.923l4.87-3.456c1.047-0.786 0.943-0.681 0.943-0.681l0.052 1.519 2.095 1.781-0.052-4.818 2.933-2.095 1.676-1.152-0.157 2.252 1.571 1.1 0.419-4.661 3.666-2.723z"/>
</svg>
