<svg version="1.1" xmlns="http://www.w3.org/2000/svg" width="28" height="32" viewBox="0 0 28 32">
<path fill="currentColor" d="M13.8 7.706c0.063 0.031 0.113 0.106 0.188 0.106 0.069 0 0.175-0.025 0.181-0.094 0.012-0.088-0.119-0.144-0.2-0.181-0.106-0.044-0.244-0.063-0.344-0.006-0.025 0.013-0.050 0.044-0.037 0.069 0.019 0.081 0.144 0.069 0.213 0.106zM12.431 7.813c0.075 0 0.125-0.075 0.188-0.106 0.069-0.037 0.194-0.025 0.219-0.1 0.012-0.025-0.012-0.056-0.037-0.069-0.1-0.056-0.238-0.037-0.344 0.006-0.081 0.037-0.213 0.094-0.2 0.181 0.006 0.063 0.113 0.094 0.175 0.088zM26.25 25.238c-0.225-0.25-0.331-0.725-0.45-1.231-0.113-0.506-0.244-1.050-0.656-1.4-0.081-0.069-0.163-0.131-0.25-0.181-0.081-0.050-0.169-0.094-0.256-0.125 0.575-1.706 0.35-3.406-0.231-4.944-0.712-1.881-1.956-3.525-2.906-4.65-1.069-1.344-2.106-2.619-2.087-4.5 0.031-2.869 0.319-8.2-4.738-8.206-6.4-0.013-4.8 6.463-4.869 8.45-0.106 1.463-0.4 2.612-1.406 4.044-1.181 1.406-2.844 3.675-3.631 6.044-0.375 1.119-0.55 2.256-0.388 3.331-0.406 0.363-0.712 0.919-1.038 1.262-0.263 0.269-0.644 0.369-1.063 0.519s-0.875 0.375-1.156 0.906c-0.131 0.244-0.175 0.506-0.175 0.775 0 0.244 0.037 0.494 0.075 0.738 0.075 0.506 0.156 0.981 0.050 1.3-0.325 0.9-0.369 1.525-0.137 1.981 0.238 0.456 0.712 0.656 1.256 0.769 1.081 0.225 2.55 0.169 3.706 0.781 1.237 0.65 2.494 0.881 3.494 0.65 0.725-0.163 1.319-0.6 1.619-1.262 0.781-0.006 1.644-0.337 3.019-0.413 0.931-0.075 2.1 0.331 3.444 0.256 0.038 0.144 0.087 0.288 0.156 0.419v0.006c0.519 1.044 1.488 1.519 2.519 1.438 1.038-0.081 2.131-0.688 3.019-1.744 0.85-1.025 2.25-1.45 3.181-2.012 0.462-0.281 0.837-0.631 0.869-1.144 0.025-0.512-0.275-1.081-0.969-1.856zM13.981 5.456c0.613-1.388 2.137-1.362 2.75-0.025 0.406 0.888 0.225 1.931-0.269 2.525-0.1-0.050-0.369-0.162-0.787-0.306 0.069-0.075 0.194-0.169 0.244-0.287 0.3-0.737-0.012-1.688-0.569-1.706-0.456-0.031-0.869 0.675-0.738 1.438-0.256-0.125-0.588-0.219-0.813-0.275-0.063-0.431-0.019-0.912 0.181-1.362zM11.438 4.737c0.631 0 1.3 0.888 1.194 2.094-0.219 0.063-0.444 0.156-0.637 0.287 0.075-0.556-0.206-1.256-0.6-1.225-0.525 0.044-0.613 1.325-0.113 1.756 0.063 0.050 0.119-0.013-0.369 0.344-0.975-0.912-0.656-3.256 0.525-3.256zM10.588 8.531c0.387-0.287 0.85-0.625 0.881-0.656 0.294-0.275 0.844-0.888 1.744-0.888 0.444 0 0.975 0.144 1.619 0.556 0.394 0.256 0.706 0.275 1.413 0.581 0.525 0.219 0.856 0.606 0.656 1.137-0.163 0.444-0.688 0.9-1.419 1.131-0.694 0.225-1.238 1-2.387 0.931-0.244-0.012-0.438-0.063-0.6-0.131-0.5-0.219-0.762-0.65-1.25-0.938-0.537-0.3-0.825-0.65-0.919-0.956-0.088-0.306 0-0.563 0.262-0.769zM10.794 29.406c-0.169 2.194-2.744 2.15-4.706 1.125-1.869-0.988-4.287-0.406-4.781-1.369-0.15-0.294-0.15-0.794 0.163-1.65v-0.012c0.15-0.475 0.038-1-0.038-1.494-0.075-0.488-0.113-0.938 0.056-1.25 0.219-0.419 0.531-0.569 0.925-0.706 0.644-0.231 0.737-0.212 1.225-0.619 0.344-0.356 0.594-0.806 0.894-1.125 0.319-0.344 0.625-0.506 1.106-0.431 0.506 0.075 0.944 0.425 1.369 1l1.225 2.225c0.594 1.244 2.694 3.025 2.563 4.306zM10.706 27.788c-0.256-0.413-0.6-0.85-0.9-1.225 0.444 0 0.887-0.137 1.044-0.556 0.144-0.387 0-0.931-0.463-1.556-0.844-1.137-2.394-2.031-2.394-2.031-0.844-0.525-1.319-1.169-1.538-1.869s-0.188-1.456-0.019-2.2c0.325-1.431 1.163-2.825 1.7-3.7 0.144-0.106 0.050 0.2-0.544 1.3-0.531 1.006-1.525 3.331-0.162 5.15 0.037-1.294 0.344-2.613 0.862-3.844 0.75-1.713 2.331-4.681 2.456-7.044 0.069 0.050 0.287 0.2 0.387 0.256 0.287 0.169 0.506 0.419 0.787 0.644 0.775 0.625 1.781 0.575 2.65 0.075 0.387-0.219 0.7-0.469 0.994-0.563 0.619-0.194 1.112-0.537 1.394-0.938 0.481 1.9 1.606 4.644 2.325 5.981 0.381 0.712 1.144 2.219 1.475 4.038 0.206-0.006 0.438 0.025 0.681 0.087 0.863-2.231-0.731-4.637-1.456-5.306-0.294-0.287-0.306-0.412-0.163-0.406 0.788 0.7 1.825 2.106 2.2 3.688 0.175 0.725 0.206 1.481 0.025 2.231 1.025 0.425 2.244 1.119 1.919 2.175-0.137-0.006-0.2 0-0.262 0 0.2-0.631-0.244-1.1-1.425-1.631-1.225-0.538-2.25-0.538-2.394 0.781-0.756 0.262-1.144 0.919-1.337 1.706-0.175 0.7-0.225 1.544-0.275 2.494-0.031 0.481-0.225 1.125-0.425 1.813-2.006 1.431-4.794 2.056-7.144 0.45zM26.794 27.069c-0.056 1.050-2.575 1.244-3.95 2.906-0.825 0.981-1.837 1.525-2.725 1.594s-1.656-0.3-2.106-1.206c-0.294-0.694-0.15-1.444 0.069-2.269 0.231-0.887 0.575-1.8 0.619-2.538 0.050-0.95 0.106-1.781 0.262-2.419 0.163-0.644 0.413-1.075 0.856-1.319 0.019-0.012 0.044-0.019 0.063-0.031 0.050 0.825 0.456 1.663 1.175 1.844 0.788 0.206 1.919-0.469 2.4-1.019 0.563-0.019 0.981-0.056 1.413 0.319 0.619 0.531 0.444 1.894 1.069 2.6 0.663 0.725 0.875 1.219 0.856 1.538zM10.831 9.294c0.125 0.119 0.294 0.281 0.5 0.444 0.412 0.325 0.988 0.662 1.706 0.662 0.725 0 1.406-0.369 1.988-0.675 0.306-0.162 0.681-0.438 0.925-0.65s0.369-0.394 0.194-0.412-0.162 0.162-0.375 0.319c-0.275 0.2-0.606 0.463-0.869 0.613-0.463 0.262-1.219 0.637-1.869 0.637s-1.169-0.3-1.556-0.606c-0.194-0.156-0.356-0.313-0.481-0.431-0.094-0.088-0.119-0.287-0.269-0.306-0.088-0.006-0.113 0.231 0.106 0.406z"/>
</svg>
