<svg version="1.1" xmlns="http://www.w3.org/2000/svg" width="40" height="32" viewBox="0 0 40 32">
<path fill="currentColor" d="M11.281 4.641c-6.23 0-11.281 5.086-11.281 11.359s5.051 11.359 11.281 11.359 11.281-5.085 11.281-11.359-5.051-11.359-11.281-11.359zM29.297 5.307c-3.115 0-5.64 4.789-5.64 10.693s2.525 10.694 5.641 10.694 5.641-4.789 5.641-10.694h-0c0-5.906-2.525-10.693-5.64-10.693zM38.016 6.421c-1.095 0-1.983 4.289-1.983 9.58s0.888 9.58 1.983 9.58 1.984-4.29 1.984-9.58c0-5.291-0.888-9.579-1.984-9.579z"/>
</svg>
