<svg version="1.1" xmlns="http://www.w3.org/2000/svg" width="40" height="32" viewBox="0 0 40 32">
<path fill="currentColor" d="M40 19.869c0 5.706-2.462 9.281-6.894 9.281-3.913 0-5.988-2.163-9.806-8.538l-1.962-3.288c-0.519-0.781-0.906-1.512-1.325-2.188-1.256 2.113-2.944 5.188-2.944 5.188-4.188 7.288-6.537 8.825-9.806 8.825-4.549 0-7.263-3.581-7.263-9.119 0-8.938 4.986-17.381 11.494-17.381 3.137 0 5.863 1.543 9.050 5.594 2.319-3.131 4.881-5.594 8.162-5.594 6.194 0 11.294 7.856 11.294 17.219v0zM17.962 12.012c-2.681-3.881-4.431-5.031-6.525-5.031-3.869 0-7.111 6.631-7.111 13.125 0 3.031 1.155 4.731 3.099 4.731 1.888 0 3.062-1.188 6.45-6.488 0 0 1.544-2.444 4.088-6.338v0zM33.2 24.837c2.013 0 2.931-1.719 2.931-4.681 0-7.762-3.394-14.089-7.7-14.089-2.075 0-3.819 1.62-5.931 4.876 0.587 0.863 1.194 1.813 1.831 2.838l2.344 3.9c3.669 5.881 4.594 7.156 6.525 7.156v0z"/>
</svg>
