<svg version="1.1" xmlns="http://www.w3.org/2000/svg" width="32" height="32" viewBox="0 0 32 32">
<path fill="currentColor" d="M13.238 30.538c0.1 0.156 0.131 0.35 0.088 0.531-0.037 0.181-0.15 0.344-0.306 0.444-0.162 0.1-0.35 0.131-0.537 0.094-3.838-0.869-7.225-3.119-9.511-6.325s-3.308-7.137-2.873-11.050c0.435-3.919 2.298-7.531 5.232-10.156 2.932-2.626 6.732-4.076 10.669-4.076 0.094 0 0.131 0.018 0.269 0.054 0.087 0.036 0.113 0.088 0.231 0.154 0.069 0.066 0.119 0.144 0.156 0.23 0.031 0.086 0.050 0.178 0.050 0.27v6.311l1.531-1.619c0.063-0.067 0.137-0.122 0.225-0.159 0.081-0.038 0.175-0.059 0.269-0.061s0.181 0.013 0.269 0.046 0.169 0.083 0.238 0.147c0.063 0.064 0.119 0.14 0.156 0.225s0.063 0.176 0.063 0.269c0 0.093-0.012 0.185-0.044 0.271-0.038 0.087-0.087 0.164-0.15 0.232l-2.75 2.912c-0.069 0.069-0.144 0.125-0.231 0.162-0.094 0.037-0.188 0.056-0.338 0.056-0.037 0-0.137-0.019-0.225-0.056s-0.169-0.094-0.231-0.162l-2.756-2.912c-0.125-0.135-0.194-0.317-0.188-0.504 0-0.188 0.081-0.421 0.219-0.494 0.137-0.129 0.319-0.198 0.506-0.192s0.363 0.084 0.494 0.221l1.531 1.626v-5.594c-3.525 0.172-6.862 1.615-9.404 4.061-2.541 2.446-4.109 5.733-4.414 9.246s0.673 7.019 2.754 9.869c2.026 2.844 5.126 4.844 8.564 5.619 0.181 0.044 0.344 0.156 0.444 0.313v0zM10.713 7.881c-0.050 0.081-0.119 0.15-0.194 0.2-1.281 0.869-2.325 2.037-3.050 3.406s-1.106 2.894-1.106 4.444c0 1.55 0.381 3.075 1.106 4.387 0.725 1.425 1.769 2.594 3.050 3.462 0.156 0.106 0.262 0.269 0.294 0.456 0.037 0.181-0.056 0.375-0.106 0.525-0.106 0.156-0.325 0.262-0.456 0.244-0.181 0.087-0.375 0.050-0.525-0.056-1.475-1-2.675-2.344-3.509-3.919-0.832-1.569-1.267-3.319-1.267-5.1 0-1.775 0.435-3.531 1.267-5.1 0.834-1.575 2.034-2.919 3.509-3.919 0.075-0.050 0.162-0.088 0.25-0.112 0.094-0.019 0.188-0.019 0.281 0 0.088 0.013 0.175 0.050 0.256 0.1s0.144 0.119 0.2 0.194c0.050 0.075 0.088 0.162 0.106 0.256s0.019 0.188 0 0.275c-0.019 0.094-0.050 0.181-0.106 0.256v0zM21.306 23.969c0.050-0.075 0.119-0.144 0.137-0.194v-0.006c1.331-0.875 2.375-2.044 3.1-3.413 0.719-1.363 1.094-2.887 1.094-4.431s-0.375-3.069-1.094-4.438c-0.725-1.419-1.769-2.531-3.1-3.406-0.019-0.050-0.087-0.119-0.137-0.194-0.050-0.081-0.087-0.169-0.1-0.256-0.075-0.094-0.019-0.188 0-0.275 0.019-0.094 0.056-0.181 0.106-0.256 0.056-0.075 0.069-0.144 0.2-0.194 0.075-0.050 0.163-0.081 0.256-0.1s0.181-0.019 0.275 0c0.094 0.019 0.175 0.056 0.256 0.112 1.462 1 2.669 2.344 3.494 3.913 0.831 1.569 1.212 3.319 1.212 5.094 0 1.781-0.381 3.531-1.212 5.1-0.825 1.569-2.031 2.913-3.494 3.913-0.081 0.056-0.163 0.094-0.256 0.113s-0.181 0.019-0.275 0c-0.094-0.019-0.181-0.106-0.256-0.1-0.131-0.050-0.144-0.119-0.2-0.194-0.050-0.075-0.087-0.163-0.106-0.256-0.019-0.087-0.075-0.181 0-0.275 0.012-0.087 0.050-0.175 0.1-0.256v0zM19.519 0.394c3.512 0.796 6.65 2.748 8.919 5.544 1.9 2.349 3.1 5.187 3.456 8.187 0.35 3-0.15 6.044-1.45 8.769-1.306 2.725-3.35 5.031-5.906 6.644-2.556 1.606-5.512 2.462-8.538 2.462-0.094 0-0.181-0.019-0.269-0.056-0.088-0.031-0.162-0.087-0.231-0.15-0.119-0.069-0.119-0.144-0.15-0.231-0.037-0.087-0.056-0.175-0.056-0.269v-6.2l-1.531 1.625c-0.131 0.137-0.306 0.163-0.494 0.225-0.188 0.006-0.369-0.069-0.506-0.25-0.137-0.075-0.219-0.25-0.219-0.438-0.006-0.188 0.063-0.369 0.188-0.506l2.756-2.913c0.081-0.137 0.319-0.212 0.456-0.212 0.25 0 0.431 0.075 0.569 0.212l2.75 2.913c0.131 0.137 0.2 0.319 0.194 0.506s-0.087 0.363-0.219 0.438c-0.137 0.181-0.319 0.256-0.506 0.25-0.188-0.063-0.369-0.087-0.494-0.225l-1.531-1.619v5.469c3.525-0.175 6.863-1.613 9.406-4.063 2.544-2.5 4.113-5.731 4.419-9.244 0.3-3.569-0.675-7.019-2.756-9.869-2.081-2.847-5.125-4.844-8.563-5.621-0.094-0.021-0.175-0.059-0.256-0.112-0.075-0.054-0.137-0.121-0.188-0.2s-0.137-0.166-0.1-0.257c-0.012-0.091-0.012-0.185 0.006-0.276 0.025-0.090 0.063-0.176 0.113-0.252 0.056-0.076 0.125-0.14 0.2-0.19 0.081-0.050 0.169-0.083 0.256-0.099 0.094-0.016 0.188-0.014 0.275 0.007v0zM22.069 16.006c0 1.962-1.094 3.819-3.081 5.219-0.131 0.094-0.3 0.144-0.462 0.125-0.169-0.012-0.325-0.081-0.438-0.2l-4.381-4.363c-0.137-0.131-0.262-0.313-0.213-0.5 0-0.188 0.075-0.369 0.206-0.5 0.137-0.131 0.313-0.206 0.5-0.206s0.369 0.075 0.5 0.206l3.944 3.925c1.3-1.069 2.012-2.369 2.012-3.706 0-1.494-0.881-2.938-2.481-4.069-0.156-0.106-0.256-0.269-0.288-0.456-0.031-0.181 0.006-0.375 0.119-0.525 0.106-0.156 0.269-0.256 0.456-0.287 0.181-0.031 0.375 0.006 0.525 0.119 1.988 1.4 3.081 3.256 3.081 5.219v0zM13.544 21.344c-0.188 0.031-0.375-0.012-0.531-0.119-1.981-1.4-3.131-3.256-3.131-5.219s1.15-3.819 3.131-5.219c0.137-0.1 0.306-0.144 0.469-0.131 0.169 0.019 0.319 0.088 0.438 0.206l4.381 4.362c0.131 0.131 0.206 0.313 0.206 0.5s-0.125 0.363-0.206 0.5c-0.131 0.131-0.313 0.206-0.494 0.206-0.188 0-0.425-0.075-0.5-0.206l-3.944-3.931c-1.306 1.081-2.013 2.375-2.013 3.713 0 1.438 0.881 2.938 2.481 4.063 0.15 0.113 0.256 0.275 0.287 0.462 0.031 0.181-0.012 0.369-0.119 0.525-0.106 0.15-0.275 0.256-0.456 0.288v0z"/>
</svg>
