<svg version="1.1" xmlns="http://www.w3.org/2000/svg" width="36" height="32" viewBox="0 0 36 32">
<path fill="currentColor" d="M24.556 2.027c0.481-0.083 0.981 0.029 1.325 0.311 5.256 3.671 8.119 8.518 8.119 13.606 0 5.194-2.863 10.050-8.119 13.719-0.3 0.25-0.731 0.369-1.163 0.331-0.438-0.038-0.844-0.225-1.15-0.531l-11.463-11.419c-0.35-0.344-0.544-0.813-0.6-1.306 0-0.488 0.25-0.956 0.594-1.306 0.35-0.344 0.819-0.544 1.306-0.544 0.494 0 0.963 0.194 1.306 0.537l10.319 10.275c3.413-2.794 5.269-6.2 5.269-9.756 0-3.85-2.306-7.638-6.494-10.584-0.4-0.282-0.675-0.713-0.756-1.196-0.087-0.483 0.025-0.98 0.313-1.381 0.281-0.401 0.712-0.672 1.194-0.756v0zM11.681 29.975c-0.481 0.081-0.975-0.031-1.381-0.313-5.196-3.669-8.060-8.525-8.060-13.719 0-5.088 2.864-9.935 8.060-13.606 0.356-0.251 0.787-0.367 1.225-0.331 0.431 0.037 0.838 0.225 1.144 0.532l11.463 11.417c0.35 0.344 0.544 0.813 0.544 1.306 0.006 0.431-0.188 0.956-0.538 1.306-0.344 0.344-0.813 0.544-1.306 0.544-0.488 0-1.012-0.194-1.306-0.538l-10.319-10.281c-3.412 2.825-5.267 6.2-5.267 9.65 0 3.963 2.304 7.75 6.442 10.694 0.456 0.288 0.725 0.712 0.813 1.2 0.081 0.481-0.031 0.981-0.313 1.381s-0.713 0.669-1.2 0.756v0z"/>
</svg>
