<svg version="1.1" xmlns="http://www.w3.org/2000/svg" width="40" height="32" viewBox="0 0 40 32">
<path fill="currentColor" d="M6.52 16.823h1.629v-1.636h-1.629zM9.799 15.187l-0.003-1.636v-0.059c-0.021-1.341-1.113-2.421-2.458-2.421-1.357 0-2.458 1.1-2.458 2.458 0 0.008 0 0.015 0 0.023v-0.001 0.010h1.65v-0.010c0.008-0.442 0.368-0.797 0.811-0.797s0.803 0.355 0.811 0.796v1.637zM13.072 16.802c0 3.145-2.549 5.694-5.694 5.694v0h-0.038c-3.145 0-5.694-2.549-5.694-5.694h-1.646v0.010c0.002 4.048 3.284 7.33 7.333 7.33 0.002 0 0.005 0 0.007 0h0.048c4.048-0.002 7.33-3.284 7.33-7.333 0-0.002 0-0.005 0-0.007v0-1.626h-1.646zM3.245 16.802c0.009 2.249 1.835 4.069 4.085 4.069s4.076-1.82 4.085-4.068v-0.001h-1.646c-0.023 1.329-1.106 2.398-2.439 2.398s-2.416-1.069-2.439-2.396l-0-0.002v-1.622h-1.643v-1.664c0.035-2.231 1.852-4.026 4.088-4.026 2.258 0 4.089 1.831 4.089 4.089 0 0.005 0 0.010-0 0.014v-0.001 1.581h1.646v-1.581c0-3.167-2.568-5.735-5.735-5.735s-5.735 2.568-5.735 5.735v0 1.588h1.643zM29.395 12.354c0.854 0 1.536 0.415 1.878 1.142l0.045 0.097 1.453-0.719-0.038-0.090c-0.502-1.204-1.781-1.954-3.338-1.954-1.446 0-2.726 0.713-3.186 1.778-0.008 1.68-0.010 1.494 0 1.553 0.294 0.688 0.91 1.211 1.792 1.515 0.358 0.114 0.778 0.202 1.211 0.247l0.027 0.002c0.342 0.045 0.664 0.086 0.989 0.194 0.398 0.131 0.654 0.329 0.802 0.616v0.616c-0.232 0.47-0.861 0.771-1.612 0.771-0.896 0-1.622-0.432-1.996-1.19l-0.045-0.093-1.439 0.719 0.035 0.090c0.495 1.214 1.851 2.003 3.456 2.003 1.477 0 2.788-0.712 3.269-1.778l0.010-1.619-0.010-0.041c-0.304-0.688-0.951-1.228-1.809-1.515-0.481-0.169-0.896-0.225-1.294-0.277-0.346-0.036-0.661-0.099-0.964-0.189l0.037 0.009c-0.394-0.121-0.65-0.318-0.789-0.602v-0.526c0.211-0.46 0.806-0.757 1.515-0.757zM17.973 19.459h1.629v-4.275h-1.629zM39.99 16.128c-0.183-0.391-0.519-0.751-0.965-1.045 0.35-0.241 0.627-0.565 0.807-0.944l0.006-0.014 0.010-1.584-0.010-0.041c-0.46-0.999-1.671-1.671-3.009-1.671s-2.549 0.671-3.009 1.671l-0.010 1.584 0.010 0.041c0.19 0.391 0.466 0.713 0.805 0.953l0.008 0.005c-0.45 0.294-0.782 0.654-0.965 1.045l-0.010 1.806 0.010 0.045c0.474 1 1.743 1.671 3.162 1.671s2.691-0.671 3.161-1.671l0.010-1.806zM35.413 12.952c0.225-0.394 0.785-0.657 1.411-0.657s1.19 0.263 1.415 0.657v0.858c-0.221 0.387-0.785 0.647-1.415 0.647s-1.193-0.259-1.411-0.647zM38.371 17.463c-0.235 0.415-0.834 0.681-1.543 0.681-0.695 0-1.311-0.273-1.543-0.681v-1.010c0.232-0.394 0.844-0.657 1.543-0.657 0.709 0 1.307 0.259 1.543 0.657zM23.525 16.623l-3.739-5.607h-1.813v2.539h1.657v0.024l3.909 5.88h1.605v-8.443h-1.619z"/>
</svg>
