<svg version="1.1" xmlns="http://www.w3.org/2000/svg" width="32" height="32" viewBox="0 0 32 32">
<path fill="currentColor" d="M28.475 21.825c-2.868-2.443-2.292-4.867-1.006-8.007 2.228-5.441-1.471-11.684-6.848-13.299-5.806-1.744-12.23 1.003-14.391 6.803-0.447 1.169-0.706 2.521-0.706 3.933 0 0.233 0.007 0.465 0.021 0.695l-0.002-0.032c0.108 1.846 0.92 3.311 1.506 5.019 1.075 3.135-1.756 5.796-4.166 7.349-2.925 1.887-2.27 2.491-0.527 2.616 1.461 0.105 2.78-0.284 4.079-0.94 0.575-0.29 2.543-1.183 2.821-1.787-0.761 1.662-2.31 4.544-1.341 6.381 1.194 2.264 4.194-1.986 4.794-2.863 0.537-0.786 2.685-5.080 3.977-2.933 1.179 1.96 0.538 4.774 2.234 6.539 2.053 2.138 3.197-1.145 3.213-2.764 0.010-1.026-0.381-5.991 1.869-3.747 1.339 1.336 3.307 4.449 5.535 4.189 2.421-0.282-1.383-4.248-1.766-4.918 0.337 0.267 3.354 2.133 3.364 0.595 0.007-1.174-1.88-2.167-2.658-2.829z"/>
</svg>
