<svg version="1.1" xmlns="http://www.w3.org/2000/svg" width="32" height="32" viewBox="0 0 32 32">
<path fill="currentColor" d="M25.419 28.938c-2.644 1.925-5.9 3.063-9.419 3.063-6.944 0-12.856-4.425-15.069-10.613 0.15 0.106 0.369 0.225 0.494 0.275 1.019 0.462 2.506-0.337 3.931-1.794 0.431-0.431 0.9-0.775 1.425-1.081 1.144-0.744 2.35-1.3 3.65-1.7 0 0 1.394 2.137 2.694 4.675s-1.394 3.375-1.7 3.375c-0.019 0-0.050 0-0.094-0.006-0.688-0.031-4.375-0.188-3.5 3.194 0.931 3.587 6.094 2.288 8.725 0.556s1.981-7.394 1.981-7.394c2.569-0.4 3.375 2.319 3.619 3.712 0.050 0.288 0.069 0.619 0.087 0.969 0.069 1.325 0.144 2.85 2.206 2.9 0.331 0 0.663-0.050 0.969-0.125zM19.462 27.456c-0.125-0.031-0.219-0.156-0.188-0.313 0.063-0.156 0.188-0.219 0.313-0.188s0.219 0.188 0.188 0.313-0.156 0.219-0.313 0.188zM6.525 21.481c0.094-0.031 0.219 0.063 0.25 0.188 0 0.125-0.063 0.25-0.188 0.25-0.094 0.031-0.219-0.063-0.25-0.188-0.031-0.094 0.063-0.219 0.188-0.25zM28.238 26.313c2.344-2.788 3.762-6.387 3.762-10.313 0-4.219-1.631-8.056-4.3-10.919-0.006 1.469-0.381 3.012-1.050 4.325-0.744 1.269-3.063 3.681-4.363 4.919-0.044 0.019-0.069 0.056-0.094 0.088-0.012 0.012-0.019 0.025-0.031 0.037-0.313 0.431-0.25 1.050 0.188 1.363 1.331 0.988 3.525 2.85 3.712 4.55 0.219 2.181 1.744 4.725 2.137 5.387v0c0.050 0.081 0.081 0.131 0.087 0.15 0 0.137-0.025 0.269-0.050 0.406zM24.419 15.688c-0.031 0.188 0.063 0.369 0.25 0.4s0.369-0.063 0.4-0.25-0.063-0.369-0.25-0.4c-0.188-0.063-0.369 0.063-0.4 0.25zM28.256 11.881l-0.712 0.338-0.188 0.806-0.337-0.713-0.806-0.188 0.712-0.338 0.188-0.806 0.337 0.713 0.806 0.188zM24.719 2.581c-1.012 0.513-1.381 2.050-1.813 3.837v0c-0.019 0.088-0.044 0.175-0.063 0.263-0.594 2.406-1.913 2.35-2.606 2.325-0.069 0-0.125-0.006-0.181-0.006-0.319 0-0.375-0.25-0.556-1.069-0.163-0.756-0.431-2-1.119-3.975-1.419-4.112-5.169-3.087-8.012-1.387-3.456 2.069-2.15 6.369-1.238 9.337 0.044 0.137 0.088 0.275 0.125 0.412-0.25 0.25-0.863 0.469-1.625 0.744-0.756 0.269-1.662 0.594-2.519 1.056-2.119 1.125-4.394 3.062-4.987 3.912-0.081-0.669-0.125-1.344-0.125-2.031 0-8.838 7.162-16 16-16 3.212 0 6.212 0.95 8.719 2.581zM3.681 11.85c-0.094-0.125-0.281-0.188-0.4-0.094s-0.188 0.281-0.094 0.4 0.281 0.188 0.4 0.094c0.156-0.094 0.188-0.281 0.094-0.4zM20.456 4.056c0.125-0.094 0.313-0.031 0.4 0.094 0.094 0.156 0.063 0.338-0.094 0.4-0.125 0.094-0.313 0.031-0.4-0.094s-0.031-0.313 0.094-0.4zM5.944 6.563c-0.031 0.094 0.031 0.188 0.125 0.188 0.094 0.031 0.188-0.031 0.188-0.125 0.031-0.094-0.031-0.188-0.125-0.188s-0.188 0.031-0.188 0.125zM11.238 6.531c-0.219-2.694 2.319-3.375 2.319-3.375 2.756-0.962 3.5 0.369 4.15 2.35s0.188 2.662-2.412 3.681-3.869-0.281-4.056-2.662zM16.837 7.463h0.063c0.156 0 0.313-0.125 0.313-0.313 0.125-0.431 0.063-0.9-0.125-1.3-0.094-0.125-0.25-0.219-0.4-0.156-0.188 0.063-0.281 0.25-0.219 0.431 0.125 0.281 0.188 0.619 0.094 0.931-0.031 0.188 0.094 0.369 0.281 0.4zM16.219 4.862c-0.125 0-0.25-0.063-0.313-0.188s-0.125-0.219-0.188-0.313c-0.125-0.125-0.125-0.338 0-0.462s0.337-0.125 0.462 0c0.125 0.156 0.219 0.313 0.313 0.462s0.031 0.369-0.156 0.463c-0.038 0-0.063 0.013-0.081 0.019-0.012 0.006-0.025 0.013-0.038 0.013z"/>
</svg>
