<svg version="1.1" xmlns="http://www.w3.org/2000/svg" width="31" height="32" viewBox="0 0 31 32">
<path fill="currentColor" d="M19.619 2.044c-10.637 0-15.787 13.988-9.219 22.194 2.281 2.837 5.537 4.725 9.219 4.725 2.269 0 4.394-0.694 6.212-1.9-2.738 2.45-6.369 3.938-10.331 3.938-0.244 0-0.5 0-0.744-0.019-8.219-0.381-14.756-7.162-14.756-15.481 0-8.563 6.938-15.5 15.5-15.5h0.050c3.944 0.019 7.544 1.506 10.275 3.944-1.813-1.212-3.944-1.9-6.206-1.9zM25.981 26.9c-2.556 1.544-5.669 1.475-8.25-0.363 3.512-1.281 6.106-5.725 6.106-11.037 0-5.294-2.575-9.738-6.087-11.037 2.613-1.825 5.7-1.894 8.306-0.313 6.619 6.169 6.594 16.606-0.075 22.75z"/>
</svg>
