<svg version="1.1" xmlns="http://www.w3.org/2000/svg" width="32" height="32" viewBox="0 0 32 32">
<path fill="currentColor" d="M0.5 16.652c0.144-8.488 6.088-14.527 13.363-15.506 8.675-1.163 15.975 4.737 17.375 12.569 1.331 7.425-2.75 14.375-9.475 17.125-0.581 0.238-0.9 0.106-1.125-0.481q-1.669-4.341-3.337-8.688c-0.194-0.506-0.063-0.825 0.438-1.050 1.512-0.688 2.456-1.837 2.706-3.488 0.034-0.206 0.053-0.445 0.053-0.687 0-2.332-1.788-4.247-4.067-4.449l-0.017-0.001c-2.438-0.213-4.488 1.481-4.844 3.731-0.325 2.063 0.694 3.981 2.619 4.856 0.6 0.275 0.719 0.538 0.488 1.15q-1.678 4.369-3.356 8.744c-0.162 0.431-0.519 0.581-0.969 0.406-3.287-1.269-6.338-3.813-8.175-7.438-1.556-3.075-1.575-5.481-1.675-6.794zM1.806 16.534c0.025 0.413 0.038 0.894 0.081 1.381 0.394 4.494 3.1 8.969 8.188 11.444 0.2 0.094 0.275 0.050 0.35-0.144q1.397-3.666 2.813-7.331c0.081-0.206 0.037-0.3-0.15-0.419-1.975-1.244-2.956-3.031-2.85-5.375 0.063-1.35 0.581-2.531 1.488-3.519 1.875-2.044 4.813-2.488 7.219-1.1 1.726 1.008 2.866 2.852 2.866 4.962 0 0.243-0.015 0.482-0.044 0.716l0.003-0.028c-0.225 1.913-1.206 3.369-2.856 4.363-0.169 0.1-0.219 0.181-0.144 0.375q1.425 3.675 2.825 7.356c0.075 0.194 0.15 0.238 0.35 0.144 2.219-1.038 4.075-2.519 5.506-4.5 2.175-3.012 3.069-6.369 2.644-10.063-0.856-7.344-7.463-13.425-15.969-12.375-6.631 0.813-12.206 6.406-12.319 14.113z"/>
</svg>
