<svg version="1.1" xmlns="http://www.w3.org/2000/svg" width="40" height="32" viewBox="0 0 40 32">
<path fill="currentColor" d="M18.619 0l0.006 0c0.475 0.007 0.9 0.295 1.094 0.736l8.25 19.282 0.019-0.006 0.012 0.025-0.175 0.625-2.681 9.875c-0.231 1.012-1.231 1.644-2.238 1.413l-4.275-0.975-4.281 0.975c-1.006 0.231-2.006-0.4-2.238-1.413l-2.681-9.875-0.169-0.625 0.006-0.025 8.256-19.276c0.188-0.436 0.619-0.725 1.094-0.736v-0zM10.006 20.131l8.188 2.444 0.431 7.656 0.494-7.594 8.175-2.462-8.188 1.569-0.538-20.011-0.325 20.011-8.238-1.613zM26.625 13.912l5.9-2.563h4.612l-9.813 15.475 1.975-6.813-2.675-6.1zM37.344 11.338l2.587 4.763c0.25 0.469-0.244 0.994-0.725 0.762l-2.975-1.419 1.112-4.106zM7.956 19.906l1.962 6.969-9.818-17.219c-0.369-0.65 0.345-1.375 0.996-1.012l9.491 5.262-2.631 6z"/>
</svg>
