<svg version="1.1" xmlns="http://www.w3.org/2000/svg" width="28" height="32" viewBox="0 0 28 32">
<path fill="currentColor" d="M19.082 17.786h-3.67v6.17h3.669q1.526 0 2.387-0.861t0.861-2.257q0-1.364-0.877-2.208t-2.37-0.844zM9.34 8.044h-3.669v6.17h3.669q1.526 0 2.387-0.861t0.861-2.257q0-1.364-0.877-2.209t-2.371-0.844zM22.915 2h-17.831c-2.807 0.003-5.081 2.278-5.085 5.084v17.831c0.003 2.807 2.278 5.081 5.084 5.085h17.831c2.807-0.003 5.081-2.278 5.085-5.084v-17.831c-0.003-2.807-2.278-5.081-5.084-5.085h-0zM26.893 24.915c-0.003 2.196-1.782 3.975-3.977 3.977h-17.831c-2.196-0.003-3.975-1.782-3.977-3.977v-17.831c0.003-2.196 1.782-3.975 3.977-3.977h17.831c2.195 0.003 3.975 1.782 3.977 3.977v0zM19.082 8.044h-3.67v6.17h3.669q1.526 0 2.387-0.861t0.861-2.257q0-1.364-0.877-2.209t-2.37-0.844z"/>
</svg>
