<svg version="1.1" xmlns="http://www.w3.org/2000/svg" width="32" height="32" viewBox="0 0 32 32">
<path fill="currentColor" d="M15.15 18.281c0.338-0.337 0.919-0.337 1.256 0l4.813 4.813c0.887 0.887 2.069 1.375 3.319 1.375h0.944l-6.069 6.069c-1.894 1.844-4.969 1.844-6.863 0l-6.094-6.087h0.581c1.25 0 2.431-0.488 3.319-1.375l4.794-4.794zM16.406 13.681c-0.4 0.344-0.912 0.35-1.256 0l-4.794-4.794c-0.887-0.944-2.069-1.375-3.319-1.375h-0.581l6.087-6.090c1.9-1.897 4.975-1.897 6.869 0l6.075 6.071h-0.95c-1.25 0-2.431 0.487-3.319 1.375l-4.813 4.813zM7.037 8.919c0.862 0 1.656 0.35 2.319 0.963l4.794 4.794c0.45 0.394 1.037 0.675 1.631 0.675 0.588 0 1.175-0.281 1.625-0.675l4.813-4.813c0.613-0.606 1.456-0.956 2.319-0.956h2.356l3.644 3.644c1.894 1.894 1.894 4.969 0 6.863l-3.644 3.644h-2.356c-0.863 0-1.706-0.35-2.319-0.962l-4.813-4.813c-0.869-0.869-2.387-0.869-3.256 0.006l-4.794 4.787c-0.662 0.613-1.456 0.962-2.319 0.962h-1.989l-3.626-3.625c-1.897-1.894-1.897-4.969 0-6.863l3.626-3.631h1.989z"/>
</svg>
