<svg version="1.1" xmlns="http://www.w3.org/2000/svg" width="25" height="32" viewBox="0 0 25 32">
<path fill="currentColor" d="M23.25 14.531l-0.231-0.406c0.006-2.9-1.337-4.081-2.906-4.981 0.475-0.125 0.962-0.225 1.1-0.825 0.819-0.206 0.988-0.588 1.069-0.987 0.212-0.144 0.925-0.544 0.85-1.231 0.4-0.275 0.625-0.631 0.506-1.131 0.431-0.469 0.544-0.856 0.363-1.212 0.519-0.644 0.288-0.975 0.069-1.306 0.387-0.7 0.044-1.45-1.038-1.325-0.431-0.631-1.369-0.488-1.512-0.488-0.163-0.2-0.375-0.375-1.031-0.294-0.425-0.381-0.9-0.313-1.394-0.131-0.581-0.456-0.969-0.087-1.413 0.050-0.706-0.225-0.869 0.081-1.212 0.213-0.769-0.162-1.006 0.188-1.375 0.556l-0.431-0.006c-1.162 0.675-1.738 2.050-1.944 2.756-0.206-0.706-0.781-2.081-1.944-2.756l-0.431 0.006c-0.369-0.369-0.606-0.719-1.375-0.556-0.35-0.125-0.506-0.438-1.213-0.213-0.287-0.087-0.556-0.275-0.869-0.269-0.162 0.006-0.344 0.063-0.544 0.219-0.494-0.188-0.969-0.25-1.394 0.131-0.656-0.081-0.875 0.088-1.031 0.294-0.144 0-1.081-0.144-1.513 0.488-1.081-0.125-1.419 0.625-1.031 1.325-0.219 0.337-0.45 0.669 0.069 1.306-0.181 0.356-0.069 0.744 0.363 1.212-0.113 0.5 0.113 0.856 0.506 1.131-0.075 0.688 0.638 1.088 0.85 1.231 0.081 0.4 0.25 0.775 1.069 0.987 0.138 0.594 0.625 0.7 1.1 0.825-1.569 0.9-2.913 2.081-2.906 4.981l-0.231 0.406c-1.8 1.075-3.419 4.544-0.887 7.356 0.163 0.881 0.444 1.512 0.688 2.212 0.369 2.825 2.781 4.144 3.413 4.3 0.931 0.7 1.925 1.363 3.263 1.825 1.269 1.288 2.644 1.775 4.019 1.775h0.063c1.381 0 2.75-0.488 4.012-1.775 1.344-0.462 2.331-1.125 3.262-1.825 0.637-0.156 3.044-1.475 3.413-4.3 0.244-0.7 0.525-1.331 0.688-2.212 2.538-2.819 0.919-6.281-0.875-7.356zM21.863 14.031c-0.094 1.169-6.181-4.069-5.131-4.244 2.856-0.469 5.225 1.2 5.131 4.244zM19.175 19.85c-1.531 0.988-3.738 0.35-4.925-1.425s-0.912-4.012 0.619-5c1.531-0.988 3.737-0.35 4.925 1.425s0.913 4.012-0.619 5zM14.931 1.831c0.050 0.262 0.113 0.425 0.181 0.475 0.338-0.363 0.613-0.731 1.050-1.081 0 0.206-0.106 0.425 0.156 0.588 0.231-0.313 0.55-0.594 0.969-0.831-0.2 0.35-0.038 0.456 0.075 0.6 0.319-0.275 0.625-0.55 1.212-0.769-0.163 0.194-0.387 0.387-0.15 0.613 0.331-0.206 0.663-0.413 1.444-0.556-0.175 0.194-0.544 0.394-0.319 0.588 0.413-0.156 0.875-0.275 1.381-0.337-0.244 0.2-0.444 0.394-0.244 0.55 0.444-0.137 1.056-0.319 1.65-0.163l-0.375 0.381c-0.044 0.050 0.881 0.038 1.494 0.050-0.225 0.313-0.45 0.606-0.581 1.137 0.063 0.063 0.363 0.025 0.65 0-0.294 0.619-0.8 0.769-0.919 1.038 0.181 0.138 0.425 0.1 0.7 0.006-0.212 0.431-0.65 0.731-1 1.081 0.087 0.063 0.244 0.1 0.606 0.056-0.325 0.344-0.712 0.656-1.175 0.938 0.081 0.094 0.363 0.094 0.625 0.1-0.419 0.406-0.956 0.619-1.462 0.888 0.25 0.169 0.431 0.131 0.625 0.131-0.356 0.294-0.962 0.444-1.525 0.625 0.106 0.169 0.212 0.212 0.444 0.256-0.594 0.331-1.45 0.181-1.688 0.35 0.056 0.169 0.225 0.275 0.419 0.363-0.962 0.056-3.581-0.037-4.088-2.019 0.981-1.081 2.775-2.344 5.856-3.913-2.4 0.8-4.563 1.875-6.375 3.344-2.144-0.994-0.675-3.494 0.363-4.487zM12.781 8.994c1.512-0.019 3.381 1.113 3.375 2.169-0.006 0.938-1.313 1.694-3.363 1.681-2.006-0.025-3.356-0.95-3.35-1.863 0-0.744 1.637-2.031 3.338-1.988zM5.094 8.194c0.231-0.044 0.338-0.094 0.444-0.256-0.563-0.175-1.169-0.331-1.525-0.625 0.194 0 0.375 0.044 0.625-0.131-0.506-0.269-1.044-0.481-1.462-0.888 0.263-0.006 0.544 0 0.625-0.1-0.462-0.281-0.85-0.594-1.175-0.938 0.362 0.044 0.519 0.006 0.606-0.056-0.35-0.35-0.794-0.65-1-1.081 0.269 0.094 0.519 0.125 0.7-0.006-0.119-0.263-0.625-0.419-0.919-1.038 0.288 0.025 0.587 0.063 0.65 0-0.131-0.531-0.362-0.831-0.581-1.137 0.612-0.006 1.538 0 1.494-0.050l-0.375-0.381c0.594-0.156 1.206 0.025 1.65 0.163 0.2-0.156-0.006-0.35-0.244-0.55 0.506 0.069 0.963 0.181 1.381 0.338 0.219-0.194-0.144-0.394-0.319-0.588 0.781 0.144 1.112 0.35 1.444 0.556 0.237-0.225 0.013-0.419-0.15-0.613 0.588 0.212 0.894 0.494 1.213 0.769 0.106-0.144 0.275-0.25 0.075-0.6 0.419 0.237 0.738 0.519 0.969 0.831 0.256-0.163 0.156-0.387 0.156-0.587 0.438 0.35 0.713 0.719 1.050 1.081 0.069-0.050 0.125-0.212 0.181-0.475 1.037 0.994 2.506 3.494 0.375 4.488-1.813-1.469-3.975-2.544-6.375-3.344 3.081 1.563 4.875 2.831 5.856 3.912-0.5 1.988-3.125 2.075-4.088 2.019 0.194-0.088 0.362-0.2 0.419-0.363-0.25-0.175-1.1-0.025-1.7-0.35zM8.85 9.7c1.050 0.175-5.037 5.406-5.131 4.244-0.094-3.044 2.281-4.719 5.131-4.244zM2.388 21.375c-1.481-1.175-1.956-4.606 0.788-6.144 1.656-0.438 0.563 6.738-0.788 6.144zM8.075 27.512c-0.831 0.494-2.862 0.294-4.3-1.744-0.969-1.712-0.844-3.45-0.163-3.962 1.019-0.613 2.594 0.212 3.806 1.6 1.056 1.25 1.537 3.456 0.656 4.106zM6.425 20.031c-1.531-0.988-1.806-3.225-0.619-5s3.394-2.412 4.925-1.425 1.806 3.225 0.619 5c-1.194 1.775-3.4 2.413-4.925 1.425zM12.813 31c-1.838 0.075-3.637-1.481-3.613-2.019-0.025-0.794 2.238-1.413 3.706-1.375 1.481-0.063 3.475 0.469 3.481 1.181 0.031 0.688-1.8 2.244-3.575 2.212zM16.494 23.194c0.012 1.856-1.637 3.363-3.675 3.375s-3.7-1.488-3.713-3.337v-0.038c-0.012-1.856 1.637-3.363 3.675-3.375s3.7 1.488 3.712 3.337v0.038zM21.631 25.863c-1.581 2.163-3.725 2.244-4.519 1.644-0.831-0.775-0.2-3.181 0.944-4.5 1.306-1.456 2.706-2.406 3.681-1.663 0.656 0.644 1.044 3.069-0.106 4.519zM23.063 21.288c-1.344 0.587-2.438-6.581-0.788-6.144 2.744 1.544 2.269 4.975 0.788 6.144z"/>
</svg>
