<svg version="1.1" xmlns="http://www.w3.org/2000/svg" width="32" height="32" viewBox="0 0 32 32">
<path fill="currentColor" d="M31.141 14.639c-0.076-0.646-0.106-1.302-0.234-1.938-0.182-0.91-0.389-1.677-0.641-2.424l0.040 0.137c-0.456-1.378-1.112-2.572-1.947-3.617l0.018 0.023c-0.386-0.498-0.771-0.94-1.179-1.359l0.003 0.003c-0.861-0.851-1.827-1.598-2.876-2.22l-0.069-0.038c-1.019-0.621-2.195-1.146-3.439-1.515l-0.107-0.027c-0.689-0.194-1.392-0.339-2.095-0.476-0.424-0.082-0.859-0.104-1.289-0.155-0.020-0.002-0.038-0.022-0.056-0.035q-1.009 0.001-2.018 0c-0.151 0.024-0.3 0.058-0.452 0.072-0.798 0.087-1.524 0.243-2.22 0.466l0.079-0.022c-0.957 0.292-1.781 0.639-2.559 1.058l0.074-0.036c-0.911 0.484-1.69 0.985-2.424 1.542l0.044-0.032c-0.385 0.288-0.767 0.585-1.123 0.907-0.636 0.575-1.273 1.152-1.87 1.767-0.78 0.808-1.475 1.708-2.065 2.679l-0.038 0.068c-0.499 0.801-0.934 1.723-1.255 2.696l-0.026 0.091c-0.205 0.619-0.374 1.353-0.474 2.109l-0.007 0.063c-0.070 0.498-0.11 1.072-0.11 1.657 0 0.198 0.005 0.395 0.014 0.591l-0.001-0.028c0.039 0.92 0.138 1.785 0.294 2.63l-0.018-0.115c0.233 1.255 0.596 2.372 1.082 3.419l-0.036-0.087c0.443 0.942 0.944 1.754 1.522 2.501l-0.022-0.030c0.508 0.655 1.048 1.236 1.635 1.765l0.012 0.011c0.77 0.698 1.624 1.33 2.539 1.872l0.073 0.040c0.999 0.599 2.154 1.134 3.367 1.543l0.127 0.037c0.708 0.242 1.563 0.455 2.442 0.601l0.098 0.013c0.379 0.063 0.767 0.078 1.151 0.117 0.028 0.008 0.053 0.020 0.075 0.036l-0.001-0.001h2.018c0.157-0.024 0.313-0.059 0.47-0.071 1.021-0.083 2.007-0.333 2.968-0.67 1.168-0.404 2.179-0.907 3.111-1.521l-0.052 0.032c0.609-0.403 1.212-0.817 1.796-1.256 0.362-0.272 0.687-0.594 1.019-0.904 0.248-0.231 0.485-0.474 0.719-0.719 0.728-0.766 1.377-1.618 1.928-2.537l0.037-0.066c0.596-1.003 1.085-2.057 1.394-3.183 0.179-0.651 0.309-1.315 0.439-1.978 0.064-0.33 0.078-0.67 0.117-1.005 0.002-0.020 0.022-0.038 0.035-0.056v-2.316c-0.014-0.032-0.026-0.069-0.034-0.107l-0.001-0.004zM21.071 14.567s-1.036-0.186-1.779-0.186c-1.7 0-2.098 0.931-2.098 2.315v5.854h-4.595v-11.921h4.595v1.996c0.558-1.676 1.673-2.262 3.878-2.262z"/>
</svg>
