<svg version="1.1" xmlns="http://www.w3.org/2000/svg" width="32" height="32" viewBox="0 0 32 32">
<path fill="currentColor" d="M13.375 10.569c0 6.9-3.813 12.838-9.225 15.463-2.275-2.706-3.65-6.175-3.65-9.994 0-7.669 5.569-14.025 12.875-15.256v9.787zM15.938 31.5c-2.681 0-5.206-0.688-7.406-1.9 3.575-2.256 6.463-5.669 7.406-9.663 0.969 3.994 3.856 7.406 7.425 9.669-2.194 1.206-4.719 1.894-7.425 1.894zM27.85 26.031c-5.413-2.625-9.225-8.556-9.225-15.463v-9.787c7.306 1.231 12.875 7.588 12.875 15.256 0 3.819-1.375 7.288-3.65 9.994z"/>
</svg>
