<svg version="1.1" xmlns="http://www.w3.org/2000/svg" width="36" height="32" viewBox="0 0 36 32">
<path fill="currentColor" d="M17.753 14.050c-1.172 0.007-2.119 0.959-2.119 2.132 0 1.178 0.955 2.132 2.132 2.132s2.132-0.955 2.132-2.132c0 0 0-0 0-0v0c-0.004-1.178-0.96-2.132-2.139-2.132-0.002 0-0.004 0-0.007 0h0zM10.85 14.050c-1.172 0.007-2.119 0.959-2.119 2.132 0 1.178 0.955 2.132 2.132 2.132s2.132-0.955 2.132-2.132c0 0 0-0 0-0v0c-0.004-1.178-0.96-2.132-2.139-2.132-0.002 0-0.004 0-0.006 0h0zM24.657 14.050c-1.172 0.007-2.119 0.959-2.119 2.132 0 1.178 0.955 2.132 2.132 2.132s2.132-0.955 2.132-2.132c0 0 0-0 0-0v0c-0.004-1.178-0.96-2.132-2.138-2.132-0.002 0-0.005 0-0.007 0h0zM34.27 10.593c-0.971-1.511-2.332-2.848-4.043-3.976-3.305-2.176-7.648-3.375-12.229-3.375-0.009 0-0.019-0-0.029-0-1.581 0-3.128 0.145-4.629 0.421l0.156-0.024c-0.901-0.867-1.917-1.626-3.020-2.248l-0.075-0.039c-4.172-2.083-7.849-1.308-9.706-0.638-0.35 0.126-0.595 0.456-0.595 0.842 0 0.24 0.095 0.458 0.249 0.618l-0-0c1.31 1.355 3.478 4.032 2.945 6.467-2.071 2.119-3.195 4.673-3.195 7.334 0 2.711 1.123 5.265 3.195 7.384 0.533 2.435-1.635 5.114-2.945 6.468-0.153 0.16-0.248 0.378-0.248 0.617 0 0.386 0.245 0.715 0.589 0.84l0.006 0.002c1.858 0.669 5.534 1.447 9.708-0.637 1.177-0.661 2.193-1.419 3.099-2.291l-0.005 0.005c1.345 0.253 2.893 0.398 4.474 0.398 0.010 0 0.019 0 0.029-0h-0.001c4.582 0 8.925-1.197 12.229-3.373 1.711-1.128 3.072-2.464 4.042-3.976 1.082-1.683 1.629-3.495 1.629-5.383-0.001-1.939-0.549-3.749-1.631-5.434zM17.812 25.619c-0.019 0-0.041 0-0.064 0-1.965 0-3.869-0.262-5.678-0.754l0.151 0.035-1.258 1.212c-0.677 0.651-1.439 1.222-2.265 1.694l-0.056 0.030c-0.954 0.489-2.069 0.82-3.247 0.927l-0.035 0.003c0.061-0.111 0.118-0.223 0.178-0.335q1.891-3.48 1.020-6.255c-2.062-1.623-3.299-3.7-3.299-5.962 0-5.194 6.516-9.404 14.553-9.404s14.554 4.211 14.554 9.404c0 5.194-6.516 9.405-14.554 9.405z"/>
</svg>
