<svg version="1.1" xmlns="http://www.w3.org/2000/svg" width="32" height="32" viewBox="0 0 32 32">
<path fill="currentColor" d="M31.782 15.609l-1.364-0.844c-0.011-0.125-0.021-0.246-0.034-0.367l1.17-1.094c0.090-0.084 0.146-0.203 0.146-0.335 0-0.196-0.122-0.363-0.295-0.429l-0.003-0.001-1.5-0.563c-0.034-0.117-0.067-0.236-0.104-0.352l0.938-1.302c0.054-0.074 0.086-0.167 0.086-0.268 0-0.228-0.166-0.417-0.383-0.453l-0.003-0-1.589-0.259c-0.056-0.108-0.112-0.216-0.171-0.322l0.668-1.464c0.026-0.056 0.041-0.121 0.041-0.19 0-0.254-0.206-0.459-0.459-0.459-0.006 0-0.011 0-0.017 0l0.001-0-1.614 0.057q-0.112-0.139-0.226-0.275l0.367-1.572c0.008-0.031 0.012-0.067 0.012-0.105 0-0.254-0.206-0.46-0.46-0.46-0.037 0-0.073 0.004-0.108 0.013l0.003-0.001-1.573 0.371q-0.136-0.114-0.275-0.226l0.057-1.614c0-0.006 0-0.013 0-0.019 0-0.254-0.206-0.459-0.459-0.459-0.069 0-0.134 0.015-0.193 0.042l0.003-0.001-1.464 0.671c-0.106-0.059-0.214-0.115-0.322-0.171l-0.259-1.589c-0.037-0.22-0.226-0.386-0.453-0.386-0.101 0-0.194 0.032-0.269 0.087l0.001-0.001-1.304 0.936c-0.116-0.037-0.234-0.071-0.352-0.104l-0.563-1.5c-0.067-0.176-0.234-0.298-0.43-0.298-0.132 0-0.251 0.056-0.335 0.145l-0 0-1.094 1.17c-0.122-0.013-0.244-0.024-0.367-0.034l-0.843-1.365c-0.082-0.132-0.226-0.218-0.391-0.218s-0.308 0.086-0.389 0.216l-0.001 0.002-0.844 1.364c-0.125 0.011-0.246 0.021-0.367 0.034l-1.094-1.17c-0.084-0.090-0.203-0.146-0.335-0.146-0.196 0-0.363 0.122-0.429 0.295l-0.001 0.003-0.563 1.5c-0.118 0.034-0.237 0.067-0.354 0.105l-1.301-0.938c-0.074-0.054-0.167-0.086-0.268-0.086-0.228 0-0.417 0.166-0.453 0.383l-0 0.003-0.259 1.588c-0.108 0.056-0.216 0.112-0.322 0.171l-1.463-0.664c-0.056-0.026-0.121-0.041-0.19-0.041-0.254 0-0.459 0.206-0.459 0.459 0 0.007 0 0.014 0 0.020l-0-0.001 0.058 1.613c-0.093 0.074-0.188 0.149-0.276 0.226l-1.572-0.373c-0.031-0.008-0.067-0.012-0.105-0.012-0.254 0-0.46 0.206-0.46 0.46 0 0.037 0.004 0.073 0.013 0.108l-0.001-0.003 0.371 1.572c-0.077 0.091-0.152 0.183-0.226 0.276l-1.613-0.057c-0.004-0-0.009-0-0.014-0-0.159 0-0.3 0.080-0.383 0.202l-0.001 0.002c-0.048 0.072-0.077 0.16-0.077 0.255 0 0.069 0.015 0.135 0.043 0.194l-0.001-0.003 0.666 1.463c-0.059 0.106-0.114 0.214-0.171 0.322l-1.588 0.259c-0.22 0.037-0.386 0.226-0.386 0.453 0 0.101 0.032 0.194 0.087 0.269l-0.001-0.001 0.938 1.301c-0.037 0.117-0.071 0.236-0.105 0.354l-1.5 0.563c-0.176 0.067-0.298 0.234-0.298 0.43 0 0.132 0.056 0.251 0.145 0.335l0 0 1.17 1.094c-0.013 0.122-0.024 0.244-0.034 0.367l-1.366 0.844c-0.132 0.082-0.218 0.226-0.218 0.391s0.086 0.308 0.216 0.39l0.002 0.001 1.364 0.844c0.011 0.125 0.021 0.245 0.034 0.367l-1.17 1.094c-0.090 0.084-0.146 0.203-0.146 0.335 0 0.196 0.122 0.363 0.295 0.429l0.003 0.001 1.5 0.563c0.034 0.118 0.067 0.236 0.105 0.353l-0.938 1.302c-0.054 0.074-0.086 0.167-0.086 0.268 0 0.228 0.166 0.417 0.383 0.453l0.003 0 1.589 0.259c0.056 0.108 0.112 0.216 0.171 0.321l-0.664 1.464c-0.026 0.056-0.042 0.122-0.042 0.191 0 0.095 0.029 0.183 0.078 0.256l-0.001-0.002c0.081 0.124 0.218 0.204 0.375 0.204 0.008 0 0.016-0 0.025-0.001l-0.001 0 1.614-0.057q0.111 0.139 0.225 0.275l-0.371 1.573c-0.008 0.031-0.012 0.067-0.012 0.105 0 0.254 0.206 0.46 0.46 0.46 0.037 0 0.073-0.004 0.108-0.013l-0.003 0.001 1.572-0.371q0.136 0.114 0.276 0.226l-0.058 1.614c-0 0.005-0 0.011-0 0.016 0 0.254 0.206 0.459 0.459 0.459 0.069 0 0.134-0.015 0.193-0.042l-0.003 0.001 1.464-0.668c0.106 0.059 0.214 0.114 0.321 0.171l0.259 1.589c0.037 0.22 0.225 0.385 0.453 0.385 0.101 0 0.194-0.032 0.27-0.088l-0.001 0.001 1.302-0.938c0.116 0.038 0.235 0.071 0.353 0.105l0.563 1.5c0.068 0.175 0.235 0.298 0.43 0.298 0.132 0 0.251-0.056 0.335-0.145l0-0 1.094-1.17c0.122 0.013 0.245 0.024 0.367 0.034l0.844 1.364c0.082 0.131 0.226 0.218 0.391 0.218s0.308-0.086 0.39-0.216l0.001-0.002 0.844-1.364c0.125-0.011 0.246-0.021 0.367-0.035l1.094 1.171c0.084 0.089 0.203 0.145 0.335 0.145 0.196 0 0.363-0.122 0.429-0.294l0.001-0.003 0.563-1.5c0.118-0.034 0.236-0.067 0.353-0.105l1.301 0.938c0.074 0.054 0.168 0.087 0.268 0.087 0.227 0 0.416-0.166 0.453-0.383l0-0.003 0.259-1.589c0.108-0.056 0.216-0.112 0.322-0.171l1.464 0.668c0.056 0.026 0.121 0.041 0.19 0.041 0.254 0 0.459-0.206 0.459-0.459 0-0.006-0-0.011-0-0.017l0 0.001-0.057-1.614q0.139-0.112 0.275-0.226l1.572 0.371c0.031 0.008 0.067 0.012 0.105 0.012 0.254 0 0.46-0.206 0.46-0.46 0-0.037-0.004-0.073-0.013-0.108l0.001 0.003-0.371-1.573q0.114-0.136 0.226-0.275l1.614 0.057c0.006 0 0.013 0 0.020 0 0.157 0 0.296-0.080 0.377-0.203l0.001-0.002c0.049-0.072 0.078-0.16 0.078-0.255 0-0.069-0.015-0.134-0.042-0.193l0.001 0.003-0.668-1.464c0.059-0.106 0.114-0.214 0.171-0.322l1.589-0.259c0.22-0.037 0.386-0.226 0.386-0.453 0-0.101-0.032-0.194-0.087-0.269l0.001 0.001-0.938-1.302c0.037-0.117 0.071-0.235 0.104-0.353l1.5-0.563c0.176-0.067 0.298-0.234 0.298-0.43 0-0.132-0.056-0.251-0.145-0.335l-0-0-1.17-1.094c0.013-0.122 0.024-0.244 0.034-0.367l1.364-0.844c0.131-0.082 0.218-0.226 0.218-0.391s-0.086-0.308-0.216-0.389l-0.002-0.001zM22.345 23.677c-0.055-0.012-0.118-0.019-0.183-0.019-0.416 0-0.763 0.291-0.849 0.681l-0.001 0.006-0.477 2.229c-1.42 0.66-3.083 1.044-4.836 1.044-1.792 0-3.489-0.402-5.008-1.121l0.071 0.030-0.477-2.229c-0.086-0.395-0.433-0.687-0.848-0.687-0.064 0-0.126 0.007-0.187 0.020l0.006-0.001-1.969 0.422c-0.354-0.365-0.687-0.757-0.994-1.169l-0.022-0.031h9.573c0.108 0 0.181-0.018 0.181-0.119v-3.387c0-0.098-0.073-0.119-0.181-0.119h-2.802l0.003-2.147h3.030c0.276 0 1.479 0.080 1.862 1.617 0.119 0.472 0.386 2.009 0.566 2.5 0.181 0.551 0.913 1.654 1.694 1.654h4.941c-0.347 0.463-0.703 0.873-1.084 1.256l0-0zM23.956 25.832c0 0.526-0.426 0.953-0.953 0.953s-0.953-0.426-0.953-0.953c0-0.525 0.425-0.951 0.949-0.953h0.028c0.514 0.015 0.925 0.435 0.925 0.951 0 0 0 0.001 0 0.001v-0zM9.854 25.79c-0 0.526-0.427 0.952-0.953 0.952s-0.952-0.426-0.952-0.953c0-0.526 0.426-0.952 0.952-0.953h0.028c0.513 0.017 0.922 0.437 0.922 0.953 0 0 0 0 0 0.001v-0zM4.348 14.634l2.052-0.912c0.307-0.138 0.516-0.441 0.516-0.793 0-0.128-0.028-0.249-0.077-0.358l0.002 0.005-0.423-0.951h1.66v7.483h-3.35c-0.284-0.962-0.448-2.067-0.448-3.211 0-0.445 0.025-0.884 0.073-1.316l-0.005 0.053zM3.644 12.381c0-0 0-0 0-0.001 0-0.526 0.426-0.952 0.952-0.953h0.029c0.514 0.015 0.926 0.436 0.926 0.952 0 0.526-0.426 0.953-0.952 0.953s-0.952-0.426-0.953-0.952v-0zM13.342 13.911l0.003-2.207h3.954c0.205 0 1.442 0.236 1.442 1.164 0 0.768-0.949 1.044-1.73 1.044zM24.938 19.169c-0.613 0.071-1.289-0.258-1.375-0.631-0.361-2.031-0.962-2.462-1.911-3.213 1.179-0.747 2.404-1.853 2.404-3.329 0-1.595-1.093-2.599-1.837-3.092-1.047-0.688-2.205-0.827-2.517-0.827h-12.431c1.678-1.869 3.932-3.192 6.482-3.687l0.074-0.012 1.467 1.538c0.158 0.166 0.38 0.269 0.626 0.269 0.233 0 0.444-0.092 0.599-0.242l-0 0 1.641-1.563c3.457 0.664 6.323 2.772 7.993 5.658l0.030 0.056-1.125 2.536c-0.046 0.103-0.072 0.222-0.072 0.348 0 0.353 0.209 0.657 0.51 0.795l0.005 0.002 2.162 0.958c0.037 0.348 0.058 0.752 0.058 1.16 0 0.307-0.012 0.612-0.035 0.914l0.002-0.040h-1.205c-0.119 0-0.168 0.079-0.168 0.196v0.551c-0.001 1.297-0.732 1.583-1.376 1.654zM15 3.763c0.001-0.525 0.426-0.95 0.951-0.951h0.028c0.515 0.015 0.926 0.435 0.926 0.952 0 0.526-0.426 0.953-0.953 0.953s-0.953-0.426-0.953-0.953c0-0.001 0-0.001 0-0.002v0zM27.302 13.375c-0.526 0-0.953-0.426-0.953-0.953s0.426-0.953 0.953-0.953h0.027c0.52 0.008 0.939 0.431 0.939 0.953 0 0.526-0.427 0.953-0.953 0.953-0.005 0-0.010-0-0.014-0h0.001z"/>
</svg>
