<svg version="1.1" xmlns="http://www.w3.org/2000/svg" width="40" height="32" viewBox="0 0 40 32">
<path fill="currentColor" d="M15.556 15.352h-1.647c0.043-0.322 0.207-0.883 0.853-0.883 0.422 0 0.748 0.239 0.794 0.883zM24.097 14.485c-0.029 0-0.882-0.111-0.882 1.25s0.852 1.25 0.882 1.25c0.813 0 0.882-0.846 0.882-1.25 0-1.36-0.854-1.25-0.882-1.25zM8.896 15.97c-0.126 0.1-0.207 0.253-0.207 0.424 0 0.011 0 0.022 0.001 0.033l-0-0.002c0 0.299 0.13 0.378 0.206 0.441 0.294 0.231 0.942 0.133 1.308 0.059v-1.059c-0.332-0.067-1.046-0.123-1.308 0.103zM40 14.5c0 5.474-5 9.649-10.335 8.527-1.148 2.063-4.421 4.422-8.262 2.602-2.573 6.003-11.118 5.761-13.363-0.323-7.482 1.493-11.176-8.648-4.704-12.455-2.172-4.964 1.415-10.851 7.144-10.851 2.502 0.002 4.728 1.187 6.147 3.026l0.013 0.018c1.294-1.337 3.087-2.176 5.072-2.176 2.646 0 4.938 1.47 6.175 3.661 5.801-2.542 12.114 1.764 12.114 7.971zM7.528 16.488c0-0.735-0.731-0.948-1.117-1.073-0.329-0.132-0.838-0.219-0.838-0.559 0-0.591 1.063-0.416 1.573-0.133 0 0 0.073 0.044 0.103-0.029 0.015-0.044 0.147-0.411 0.162-0.456 0.002-0.006 0.003-0.014 0.003-0.022 0-0.031-0.019-0.057-0.047-0.066l-0-0c-0.771-0.477-2.544-0.532-2.544 0.794 0 0.779 0.718 0.965 1.117 1.073 0.295 0.099 0.823 0.188 0.823 0.544 0 0.25-0.221 0.441-0.573 0.441-0.448-0.001-0.861-0.15-1.192-0.401l0.005 0.004c-0.029-0.014-0.089-0.044-0.103 0.044l-0.15 0.467c-0.029 0.059 0.014 0.074 0.014 0.088 0.109 0.087 0.644 0.412 1.426 0.412 0.823 0 1.338-0.441 1.338-1.132zM9.528 13.826c-0.633 0-1.166 0.198-1.338 0.324-0.016 0.011-0.027 0.030-0.027 0.051 0 0.014 0.004 0.027 0.012 0.037l-0-0 0.162 0.441c0.008 0.026 0.032 0.045 0.060 0.045 0.005 0 0.010-0.001 0.014-0.002l-0 0c0.041 0 0.425-0.25 1.058-0.25 0.25 0 0.441 0.044 0.574 0.148 0.225 0.175 0.191 0.518 0.191 0.661-0.299-0.019-1.194-0.215-1.838 0.235-0.279 0.193-0.459 0.512-0.459 0.872 0 0.013 0 0.026 0.001 0.038l-0-0.002c0 0.369 0.094 0.65 0.412 0.897 0.765 0.51 2.268 0.125 2.381 0.088 0.099-0.020 0.221-0.041 0.221-0.117v-2.117c0.002-0.288 0.020-1.352-1.424-1.352zM12.438 12.515c0-0.001 0-0.003 0-0.005 0-0.038-0.031-0.069-0.069-0.069-0.002 0-0.003 0-0.005 0h-0.614c-0.001-0-0.003-0-0.004-0-0.038 0-0.069 0.031-0.069 0.069 0 0.002 0 0.003 0 0.005v-0 4.938c-0 0.001-0 0.003-0 0.005 0 0.038 0.031 0.069 0.069 0.069 0.001 0 0.003-0 0.004-0h0.617c0.001 0 0.003 0 0.005 0 0.038 0 0.069-0.031 0.069-0.069 0-0.002-0-0.003-0-0.005v0zM15.922 14.323c-0.131-0.144-0.424-0.471-1.103-0.471-0.219 0-0.885 0.014-1.294 0.559-0.397 0.477-0.411 1.132-0.411 1.338 0 0.195 0.009 0.891 0.441 1.323 0.165 0.182 0.566 0.514 1.426 0.514 0.676 0 1.029-0.147 1.161-0.235 0.029-0.015 0.044-0.044 0.015-0.117l-0.147-0.427c-0.013-0.027-0.040-0.046-0.071-0.046-0.006 0-0.012 0.001-0.017 0.002l0.001-0c-0.162 0.059-0.397 0.176-0.956 0.176-1.089 0-1.053-0.921-1.059-1.044h2.323c0.035-0.001 0.065-0.025 0.073-0.058l0-0.001c-0.018 0 0.129-0.919-0.381-1.514zM18.215 17.616c0.823 0 1.338-0.441 1.338-1.132 0-0.735-0.731-0.948-1.117-1.073-0.259-0.104-0.838-0.211-0.838-0.559 0-0.235 0.206-0.397 0.529-0.397 0.382 0.008 0.741 0.105 1.057 0.271l-0.013-0.006s0.074 0.044 0.103-0.029c0.014-0.044 0.147-0.411 0.161-0.456 0.002-0.006 0.003-0.014 0.003-0.022 0-0.031-0.019-0.057-0.047-0.066l-0-0c-0.494-0.306-1.046-0.309-1.264-0.309-0.75 0-1.279 0.456-1.279 1.102 0 0.779 0.718 0.965 1.117 1.073 0.382 0.125 0.823 0.204 0.823 0.544 0 0.25-0.22 0.441-0.573 0.441-0.448-0.001-0.861-0.15-1.193-0.401l0.005 0.004c-0.011-0.009-0.025-0.015-0.041-0.015-0.033 0-0.061 0.026-0.062 0.059v0l-0.147 0.47c-0.029 0.059 0.014 0.074 0.014 0.088 0.108 0.087 0.646 0.412 1.424 0.412zM22.318 14c0-0.044-0.015-0.074-0.074-0.074h-0.735c0-0.009 0.059-0.559 0.279-0.779 0.26-0.259 0.735-0.102 0.75-0.102 0.073 0.029 0.088 0 0.102-0.029l0.177-0.486c0.044-0.059 0-0.073-0.015-0.088-0.318-0.125-1.084-0.179-1.529 0.265-0.343 0.342-0.438 0.87-0.5 1.22h-0.529c-0.039 0.003-0.070 0.034-0.073 0.073l-0 0-0.089 0.485c0 0.044 0.015 0.073 0.074 0.073h0.514c-0.532 2.994-0.547 3.138-0.647 3.47-0.067 0.226-0.206 0.431-0.367 0.485-0.006 0-0.242 0.105-0.602-0.015 0 0-0.059-0.029-0.088 0.044-0.015 0.044-0.162 0.426-0.177 0.471s0 0.088 0.029 0.088c0.319 0.125 0.813 0.111 1.117 0 0.392-0.142 0.608-0.493 0.721-0.809 0.172-0.482 0.176-0.612 0.735-3.734h0.764c0.039-0.003 0.070-0.034 0.074-0.073l0-0zM25.655 15c-0.035-0.105-0.319-1.132-1.573-1.132-0.953 0-1.438 0.625-1.573 1.132-0.063 0.188-0.199 0.875 0 1.47 0.006 0.019 0.276 1.133 1.573 1.133 0.934 0 1.431-0.601 1.573-1.133 0.201-0.601 0.063-1.283 0-1.47zM28.492 13.956c-0.313-0.103-1.039-0.119-1.382 0.338v-0.279c0-0.001 0-0.003 0-0.004 0-0.038-0.031-0.069-0.069-0.069-0.002 0-0.003 0-0.005 0h-0.587c-0.001-0-0.003-0-0.005-0-0.038 0-0.069 0.031-0.069 0.069 0 0.001 0 0.003 0 0.004v-0 3.455c-0 0.001-0 0.003-0 0.004 0 0.039 0.031 0.070 0.070 0.070 0.001 0 0.003-0 0.004-0h0.602c0.001 0 0.003 0 0.004 0 0.039 0 0.070-0.031 0.070-0.070 0-0.001-0-0.003-0-0.004v0-1.736c0-0.182 0.003-0.711 0.279-0.941 0.306-0.306 0.75-0.21 0.838-0.191 0.039-0.001 0.073-0.024 0.088-0.058l0-0.001c0.062-0.132 0.127-0.297 0.182-0.467l0.009-0.033c0.003-0.008 0.005-0.017 0.005-0.026 0-0.026-0.014-0.049-0.034-0.062l-0-0zM31.418 17.337l-0.133-0.456c-0.029-0.074-0.088-0.044-0.088-0.044-0.264 0.114-0.634 0.118-0.706 0.118-0.29 0-1.073-0.071-1.073-1.235 0-0.389 0.116-1.235 1.029-1.235 0.017-0 0.036-0.001 0.055-0.001 0.237 0 0.466 0.038 0.68 0.108l-0.015-0.004s0.059 0.029 0.074-0.044c0.059-0.162 0.102-0.279 0.162-0.471 0.014-0.059-0.029-0.073-0.044-0.073-0.724-0.242-1.396-0.158-1.735 0-0.099 0.046-1.014 0.406-1.014 1.72 0 0.181-0.036 1.882 1.809 1.882 0.349-0.001 0.682-0.066 0.989-0.183l-0.019 0.006c0.020-0.015 0.033-0.039 0.033-0.065 0-0.008-0.001-0.016-0.004-0.024l0 0.001zM34.785 14.867c-0.050-0.188-0.336-1.014-1.397-1.014-1 0-1.47 0.632-1.602 1.162-0.066 0.209-0.103 0.449-0.103 0.699 0 0.013 0 0.026 0 0.038l-0-0.002c0 1.617 1.178 1.837 1.867 1.837 0.676 0 1.029-0.147 1.161-0.235 0.029-0.015 0.044-0.044 0.015-0.117l-0.148-0.427c-0.013-0.027-0.040-0.046-0.071-0.046-0.006 0-0.012 0.001-0.017 0.002l0.001-0c-0.162 0.059-0.397 0.176-0.956 0.176-1.089 0-1.053-0.921-1.058-1.044h2.322c0.035-0.001 0.065-0.025 0.074-0.058l0-0.001c-0.015-0.001 0.059-0.442-0.088-0.971zM33.329 14.471c-0.646 0-0.813 0.563-0.852 0.883h1.648c-0.055-0.745-0.476-0.883-0.796-0.883z"/>
</svg>
