<svg version="1.1" xmlns="http://www.w3.org/2000/svg" width="40" height="32" viewBox="0 0 40 32">
<path fill="currentColor" d="M18.865 23.683c-0.019 0.038-0.038 0.067 0 0zM34.436 18.245c-0.001 0-0.002 0-0.003 0-1.319 0-2.566 0.312-3.67 0.865l0.047-0.021c-0.369-0.744-0.75-1.394-0.813-1.881-0.075-0.569-0.156-0.906-0.069-1.581s0.481-1.631 0.475-1.7-0.087-0.412-0.894-0.419-1.5 0.156-1.581 0.369c-0.127 0.333-0.242 0.733-0.323 1.145l-0.008 0.049c-0.144 0.731-1.612 3.344-2.443 4.706-0.275-0.531-0.506-1-0.556-1.375-0.075-0.569-0.156-0.906-0.069-1.581s0.481-1.631 0.475-1.7-0.087-0.412-0.893-0.419-1.5 0.156-1.581 0.369-0.169 0.713-0.331 1.194-2.118 4.831-2.63 5.962c-0.262 0.575-0.488 1.038-0.65 1.35-0.025 0.050-0.044 0.081-0.056 0.106 0.019-0.031 0.031-0.063 0.031-0.050-0.137 0.269-0.219 0.419-0.219 0.419v0.006c-0.106 0.2-0.225 0.381-0.281 0.381-0.038 0-0.119-0.525 0.019-1.244 0.294-1.512 0.988-3.863 0.981-3.944-0.006-0.044 0.131-0.45-0.456-0.669-0.569-0.206-0.775 0.137-0.825 0.137s-0.087 0.125-0.087 0.125 0.631-2.65-1.212-2.65c-1.15 0-2.75 1.262-3.536 2.406-0.494 0.269-1.563 0.85-2.688 1.469-0.431 0.238-0.875 0.481-1.294 0.712-0.031-0.031-0.056-0.063-0.088-0.094-2.237-2.387-6.367-4.075-6.192-7.281 0.063-1.169 0.469-4.238 7.942-7.963 6.125-3.050 11.022-2.212 11.865-0.35 1.212 2.656-2.618 7.6-8.979 8.313-2.424 0.269-3.699-0.669-4.018-1.019-0.331-0.369-0.381-0.387-0.506-0.319-0.206 0.113-0.075 0.438 0 0.631 0.188 0.494 0.969 1.369 2.299 1.806 1.169 0.381 4.011 0.594 7.448-0.738 3.861-1.488 6.867-5.631 5.986-9.1-0.898-3.525-6.742-4.681-12.269-2.719-3.293 1.169-6.854 3.006-9.416 5.4-3.043 2.85-3.53 5.331-3.33 6.369 0.712 3.681 5.786 6.081 7.816 7.856-0.1 0.056-0.194 0.106-0.281 0.156-1.018 0.506-4.886 2.531-5.854 4.669-1.094 2.425 0.181 4.162 1.018 4.4 2.612 0.725 5.286-0.581 6.723-2.725s1.262-4.944 0.6-6.219c-0.006-0.019-0.019-0.031-0.025-0.050 0.262-0.156 0.531-0.313 0.8-0.469 0.518-0.306 1.024-0.587 1.468-0.831-0.25 0.675-0.431 1.488-0.525 2.663-0.113 1.375 0.456 3.156 1.194 3.856 0.325 0.306 0.718 0.313 0.962 0.313 0.863 0 1.25-0.712 1.681-1.563 0.531-1.038 1-2.244 1-2.244s-0.587 3.262 1.019 3.262c0.587 0 1.174-0.756 1.438-1.144v0.006s0.012-0.025 0.044-0.075c0.063-0.094 0.094-0.15 0.094-0.15v-0.019c0.238-0.406 0.756-1.337 1.537-2.875 1.012-1.988 1.981-4.469 1.981-4.469 0.109 0.631 0.244 1.174 0.412 1.702l-0.025-0.089c0.175 0.594 0.544 1.244 0.837 1.875-0.238 0.325-0.381 0.512-0.381 0.512 0 0.005 0.003 0.009 0.006 0.012v0c-0.188 0.25-0.4 0.519-0.619 0.781-0.799 0.95-1.75 2.038-1.875 2.35-0.15 0.369-0.113 0.644 0.175 0.856 0.212 0.163 0.587 0.188 0.981 0.156 0.719-0.050 1.225-0.225 1.469-0.337 0.482-0.175 0.899-0.399 1.277-0.673l-0.015 0.010c0.781-0.575 1.256-1.4 1.212-2.488-0.025-0.6-0.219-1.2-0.456-1.762 0.069-0.1 0.144-0.206 0.212-0.313 1.237-1.806 2.193-3.789 2.193-3.789 0.109 0.631 0.244 1.174 0.412 1.702l-0.025-0.089c0.15 0.506 0.443 1.063 0.712 1.606-1.162 0.944-1.881 2.038-2.131 2.756-0.462 1.331-0.1 1.931 0.581 2.069 0.306 0.063 0.744-0.081 1.069-0.219 0.515-0.174 0.962-0.409 1.363-0.703l-0.014 0.010c0.781-0.575 1.537-1.381 1.487-2.475-0.019-0.494-0.156-0.988-0.337-1.462 0.981-0.413 2.256-0.637 3.881-0.45 3.48 0.406 4.161 2.581 4.030 3.488s-0.862 1.413-1.106 1.563-0.319 0.206-0.3 0.319c0.031 0.163 0.144 0.156 0.35 0.119 0.288-0.050 1.824-0.738 1.893-2.419 0.1-2.125-1.943-4.462-5.563-4.444zM7.612 27.289c-1.149 1.256-2.762 1.731-3.455 1.331-0.744-0.433-0.45-2.281 0.968-3.62 0.862-0.813 1.974-1.563 2.712-2.025 0.169-0.1 0.413-0.25 0.712-0.431 0.050-0.031 0.075-0.044 0.075-0.044 0.056-0.038 0.119-0.069 0.181-0.106 0.518 1.9 0.019 3.575-1.194 4.894zM16.009 21.576c-0.4 0.981-1.243 3.481-1.756 3.35-0.438-0.113-0.706-2.019-0.088-3.894 0.313-0.944 0.975-2.069 1.369-2.506 0.631-0.706 1.324-0.931 1.487-0.65 0.219 0.369-0.762 3.087-1.012 3.7zM22.947 24.889c-0.169 0.087-0.325 0.144-0.4 0.1-0.056-0.031 0.069-0.15 0.069-0.15s0.869-0.931 1.212-1.356c0.2-0.25 0.431-0.544 0.681-0.869 0 0.031 0.006 0.063 0.006 0.1-0.008 1.119-1.082 1.875-1.57 2.175zM28.296 23.67c-0.125-0.087-0.106-0.381 0.313-1.294 0.163-0.356 0.537-0.956 1.188-1.531 0.070 0.201 0.113 0.432 0.119 0.672l0 0.003c-0.006 1.406-1.012 1.931-1.618 2.15z"/>
</svg>
