<svg version="1.1" xmlns="http://www.w3.org/2000/svg" width="32" height="32" viewBox="0 0 32 32">
<path fill="currentColor" d="M14.594 1.406c0-0.776 0.631-1.406 1.406-1.406s1.406 0.629 1.406 1.406c0 0.776-0.631 1.406-1.406 1.406s-1.406-0.629-1.406-1.406zM19.587 16.188c0 1.981-1.606 3.587-3.588 3.587s-3.588-1.606-3.588-3.587c0-1.981 1.606-3.588 3.588-3.588s3.588 1.606 3.588 3.588zM21.075 21.875c1.394-1.244 2.281-2.956 2.494-4.813h7.469c-0.219 3.837-1.9 7.45-4.7 10.087-2.794 2.637-6.494 4.113-10.338 4.113s-7.544-1.475-10.34-4.113c-2.796-2.637-4.476-6.25-4.698-10.087h7.482c0.213 1.856 1.1 3.569 2.494 4.813s3.2 1.931 5.069 1.931c1.813 0 3.669-0.688 5.069-1.931zM4.571 8.769c0.025 0.775-0.583 1.425-1.359 1.45s-1.425-0.581-1.451-1.356c-0.025-0.781 0.584-1.431 1.36-1.456s1.425 0.588 1.45 1.362zM27.431 8.813c0-0.775 0.625-1.406 1.406-1.406 0.775 0 1.4 0.631 1.4 1.406 0 0.781-0.625 1.406-1.4 1.406-0.781 0-1.406-0.625-1.406-1.406zM19.869 5.954c-1.081 0.864-2.45 1.427-3.869 1.427s-2.787-0.563-3.869-1.427c-1.081-0.92-1.8-2.193-2.025-3.593 0.944-0.401 1.925-0.704 2.931-0.904 0 0.786 0.313 1.539 0.869 2.094s1.306 0.867 2.094 0.867 1.537-0.313 2.094-0.868c0.556-0.556 0.869-1.309 0.869-2.094 1.006 0.201 1.988 0.504 2.931 0.904-0.225 1.4-0.944 2.673-2.025 3.593v0zM5.174 14.438c-1.335 0.475-2.795 0.463-4.12-0.037 0.123-1.019 0.35-2.019 0.678-2.994 0.337 0.194 0.709 0.319 1.094 0.375 0.386 0.050 0.778 0.025 1.154-0.075 0.376-0.106 0.728-0.275 1.037-0.512s0.568-0.531 0.763-0.869c0.194-0.338 0.321-0.713 0.372-1.094 0.051-0.387 0.026-0.781-0.075-1.156s-0.274-0.725-0.511-1.037c-0.237-0.306-0.532-0.569-0.869-0.763 0.676-0.768 1.429-1.466 2.248-2.083 1.1 0.897 1.844 2.158 2.1 3.552s0.006 2.837-0.7 4.063c-0.713 1.225-1.838 2.156-3.17 2.631v0zM26.825 14.444c-1.331-0.475-2.456-1.412-3.169-2.638-0.706-1.225-0.95-2.669-0.694-4.063 0.256-1.388 1-2.647 2.094-3.544 0.819 0.616 1.575 1.314 2.25 2.082-0.669 0.4-1.15 1.044-1.344 1.8-0.2 0.75-0.144 1.55 0.3 2.225 0.387 0.675 1.025 1.169 1.775 1.375s1.556 0.106 2.231-0.269c0.331 0.969 0.556 1.975 0.681 2.988-1.381 0.506-2.788 0.519-4.125 0.044v0z"/>
</svg>
