<svg version="1.1" xmlns="http://www.w3.org/2000/svg" width="32" height="32" viewBox="0 0 32 32">
<path fill="currentColor" d="M31.058 22.913c-0.211-0.573-0.613-0.88-1.070-1.135-0.086-0.050-0.165-0.091-0.233-0.122-0.136-0.070-0.276-0.139-0.415-0.211-1.425-0.756-2.538-1.709-3.31-2.839-0.202-0.29-0.392-0.62-0.552-0.968l-0.016-0.040c-0.066-0.188-0.063-0.295-0.015-0.393 0.048-0.076 0.109-0.139 0.18-0.188l0.002-0.001c0.245-0.162 0.497-0.326 0.669-0.437 0.305-0.198 0.547-0.354 0.703-0.465 0.585-0.409 0.994-0.844 1.25-1.33 0.195-0.36 0.31-0.788 0.31-1.243 0-0.344-0.066-0.673-0.185-0.974l0.006 0.018c-0.387-1.020-1.351-1.653-2.518-1.653-0.001 0-0.002 0-0.003 0-0.258 0-0.51 0.028-0.752 0.082l0.023-0.004c-0.064 0.014-0.129 0.029-0.191 0.045 0.011-0.697-0.005-1.434-0.067-2.158-0.22-2.547-1.112-3.883-2.042-4.947-0.589-0.658-1.274-1.214-2.036-1.65l-0.040-0.021c-1.412-0.806-3.012-1.215-4.756-1.215s-3.338 0.409-4.75 1.215c-0.804 0.457-1.491 1.014-2.073 1.666l-0.007 0.008c-0.93 1.065-1.822 2.402-2.042 4.948-0.062 0.725-0.077 1.465-0.067 2.158-0.063-0.016-0.126-0.031-0.191-0.045-0.219-0.049-0.471-0.078-0.729-0.078-0.001 0-0.002 0-0.004 0h0c-1.168 0-2.133 0.633-2.519 1.653-0.114 0.285-0.18 0.615-0.18 0.961 0 0.454 0.114 0.881 0.315 1.255l-0.007-0.014c0.257 0.486 0.666 0.921 1.251 1.33 0.155 0.108 0.398 0.265 0.703 0.465 0.165 0.107 0.406 0.264 0.643 0.42 0.083 0.054 0.152 0.123 0.205 0.204l0.002 0.003c0.050 0.102 0.051 0.211-0.022 0.413-0.174 0.379-0.36 0.703-0.572 1.007l0.014-0.021c-0.755 1.104-1.835 2.041-3.215 2.79-0.731 0.387-1.491 0.646-1.811 1.518-0.242 0.658-0.084 1.407 0.531 2.038 0.221 0.231 0.477 0.426 0.759 0.579l0.016 0.008c0.544 0.306 1.175 0.565 1.838 0.745l0.059 0.014c0.146 0.038 0.273 0.097 0.387 0.174l-0.004-0.003c0.224 0.196 0.192 0.491 0.491 0.924 0.152 0.225 0.339 0.415 0.554 0.566l0.007 0.005c0.626 0.432 1.33 0.46 2.075 0.488 0.674 0.026 1.437 0.055 2.309 0.343 0.361 0.119 0.736 0.35 1.171 0.62 1.044 0.642 2.473 1.52 4.865 1.52s3.831-0.883 4.882-1.527c0.432-0.265 0.805-0.494 1.156-0.61 0.872-0.288 1.635-0.317 2.309-0.343 0.745-0.029 1.449-0.056 2.075-0.488 0.262-0.184 0.476-0.417 0.633-0.687l0.006-0.010c0.215-0.365 0.209-0.62 0.411-0.798 0.103-0.071 0.223-0.127 0.351-0.162l0.008-0.002c0.731-0.194 1.37-0.456 1.965-0.788l-0.043 0.022c0.315-0.171 0.584-0.384 0.811-0.634l0.002-0.003 0.008-0.009c0.577-0.617 0.722-1.344 0.485-1.985zM28.932 24.055c-1.297 0.716-2.158 0.639-2.829 1.071-0.57 0.367-0.233 1.157-0.646 1.442-0.508 0.351-2.011-0.025-3.952 0.616-1.601 0.529-2.623 2.051-5.502 2.051s-3.877-1.519-5.505-2.055c-1.938-0.641-3.443-0.265-3.952-0.616-0.413-0.285-0.077-1.076-0.646-1.442-0.671-0.432-1.533-0.355-2.829-1.067-0.825-0.456-0.357-0.738-0.082-0.871 4.696-2.274 5.446-5.785 5.479-6.045 0.040-0.315 0.085-0.563-0.262-0.884-0.336-0.31-1.824-1.231-2.237-1.52-0.684-0.477-0.984-0.954-0.763-1.54 0.155-0.405 0.533-0.558 0.93-0.558 0.132 0 0.261 0.016 0.384 0.044l-0.012-0.002c0.75 0.162 1.479 0.539 1.899 0.64 0.046 0.012 0.1 0.020 0.154 0.021h0.001c0.225 0 0.304-0.113 0.288-0.37-0.048-0.821-0.164-2.42-0.035-3.915 0.178-2.057 0.84-3.076 1.627-3.977 0.378-0.433 2.155-2.311 5.554-2.311s5.18 1.87 5.558 2.302c0.788 0.901 1.452 1.92 1.628 3.977 0.129 1.495 0.018 3.095-0.035 3.915-0.018 0.27 0.064 0.37 0.288 0.37 0.055-0.001 0.109-0.009 0.16-0.022l-0.005 0.001c0.422-0.101 1.15-0.477 1.9-0.64 0.112-0.026 0.24-0.041 0.372-0.042h0c0.399 0 0.775 0.155 0.93 0.558 0.222 0.586-0.078 1.063-0.762 1.54-0.413 0.288-1.902 1.209-2.238 1.52-0.348 0.321-0.302 0.569-0.262 0.884 0.033 0.264 0.782 3.775 5.479 6.045 0.278 0.139 0.746 0.421-0.079 0.88z"/>
</svg>
