<svg version="1.1" xmlns="http://www.w3.org/2000/svg" width="40" height="32" viewBox="0 0 40 32">
<path fill="currentColor" d="M6.963 16.019l0.362 4.063-0.362 4.269c-0.019 0.156-0.138 0.275-0.275 0.275s-0.263-0.119-0.263-0.275l-0.35-4.269 0.35-4.063c0-0.137 0.119-0.262 0.263-0.262 0.138 0 0.256 0.125 0.275 0.262zM8.3 13.169c-0.175 0-0.294 0.137-0.313 0.313l-0.313 6.6 0.313 4.269c0.019 0.175 0.137 0.313 0.313 0.313 0.156 0 0.294-0.137 0.294-0.313l0.363-4.269-0.363-6.6c0-0.175-0.137-0.313-0.294-0.313zM9.894 11.662c-0.194 0-0.331 0.137-0.35 0.331l-0.275 8.125 0.275 4.238c0.019 0.194 0.156 0.331 0.35 0.331 0.175 0 0.331-0.137 0.331-0.331l0.331-4.238-0.331-8.125c0-0.194-0.156-0.331-0.331-0.331zM0.45 17.7c-0.087 0-0.138 0.069-0.156 0.156l-0.294 2.225 0.294 2.188c0.019 0.087 0.069 0.156 0.156 0.156s0.138-0.069 0.156-0.156l0.35-2.188-0.35-2.225c-0.019-0.087-0.069-0.156-0.156-0.156zM1.925 16.331c-0.087 0-0.156 0.069-0.156 0.156l-0.4 3.594 0.4 3.506c0 0.106 0.069 0.175 0.156 0.175s0.156-0.069 0.175-0.156l0.45-3.525-0.45-3.594c-0.019-0.087-0.087-0.156-0.175-0.156zM3.506 15.619c-0.106 0-0.194 0.088-0.206 0.206l-0.362 4.256 0.362 4.113c0.019 0.106 0.106 0.194 0.206 0.194 0.106 0 0.194-0.087 0.194-0.194l0.431-4.113-0.431-4.256c0-0.119-0.087-0.206-0.194-0.206zM5.088 15.481c-0.119 0-0.225 0.088-0.225 0.225l-0.362 4.375 0.362 4.238c0 0.137 0.106 0.225 0.225 0.225s0.225-0.087 0.244-0.225l0.4-4.238-0.4-4.375c-0.019-0.137-0.125-0.225-0.244-0.225zM20.175 8.55c-0.069-0.050-0.175-0.088-0.262-0.088-0.137 0-0.262 0.050-0.35 0.119-0.119 0.106-0.194 0.262-0.206 0.419v0.050l-0.206 11.044 0.106 2.031 0.106 1.981c0.019 0.294 0.262 0.538 0.556 0.538s0.538-0.244 0.538-0.538l0.244-4.012-0.244-11.094c-0.025-0.188-0.125-0.363-0.281-0.45zM18.506 9.506c-0.087-0.050-0.175-0.088-0.275-0.088s-0.194 0.037-0.275 0.088c-0.137 0.088-0.225 0.244-0.225 0.419l-0.019 0.106-0.175 10.050s0 0.019 0.194 4.1v0.019c0 0.106 0.038 0.206 0.106 0.294 0.106 0.119 0.244 0.194 0.4 0.194 0.137 0 0.262-0.069 0.35-0.156 0.106-0.087 0.156-0.206 0.156-0.35l0.019-0.419 0.194-3.663-0.206-10.175c-0.019-0.175-0.106-0.331-0.244-0.419zM11.544 10.912c-0.194 0-0.363 0.175-0.363 0.381l-0.275 8.787 0.275 4.2c0.019 0.206 0.175 0.363 0.363 0.363 0.206 0 0.363-0.156 0.381-0.363l0.313-4.2-0.313-8.787c-0.012-0.206-0.169-0.381-0.381-0.381zM35.087 14.838c-0.675 0-1.319 0.137-1.913 0.381-0.4-4.425-4.113-7.9-8.644-7.9-1.113 0-2.188 0.206-3.144 0.588-0.381 0.137-0.488 0.275-0.488 0.575v15.606c0 0.313 0.244 0.538 0.538 0.575h13.644c2.706 0 4.913-2.188 4.913-4.894 0.006-2.725-2.2-4.931-4.906-4.931zM16.544 11.069c-0.262 0-0.469 0.206-0.488 0.488l-0.206 8.544 0.206 4.1c0.019 0.262 0.225 0.469 0.488 0.469s0.469-0.206 0.469-0.469l0.244-4.1-0.244-8.544c-0.019-0.281-0.206-0.488-0.469-0.488zM13.194 10.581c-0.206 0-0.4 0.194-0.4 0.419l-0.244 9.081 0.244 4.181c0.019 0.225 0.194 0.4 0.4 0.4 0.225 0 0.4-0.175 0.419-0.4l0.275-4.181-0.275-9.081c-0.019-0.225-0.194-0.419-0.419-0.419zM14.863 10.794c-0.244 0-0.431 0.194-0.431 0.431l-0.244 8.856 0.244 4.15c0.019 0.244 0.194 0.431 0.431 0.431s0.431-0.194 0.431-0.431l0.262-4.15-0.262-8.856c0-0.244-0.188-0.431-0.431-0.431z"/>
</svg>
