<svg version="1.1" xmlns="http://www.w3.org/2000/svg" width="31" height="32" viewBox="0 0 31 32">
<path fill="currentColor" d="M15.5 0.5c-8.556 0-15.5 6.944-15.5 15.5s6.944 15.5 15.5 15.5 15.5-6.944 15.5-15.5-6.944-15.5-15.5-15.5zM21.794 23.306c-0.262 0-0.425-0.081-0.669-0.225-3.9-2.35-8.438-2.45-12.919-1.531-0.244 0.063-0.563 0.163-0.744 0.163-0.606 0-0.987-0.481-0.987-0.988 0-0.644 0.381-0.95 0.85-1.050 5.119-1.131 10.35-1.031 14.813 1.637 0.381 0.244 0.606 0.462 0.606 1.031s-0.444 0.962-0.95 0.962zM23.475 19.206c-0.325 0-0.544-0.144-0.769-0.262-3.906-2.313-9.731-3.244-14.912-1.837-0.3 0.081-0.463 0.163-0.744 0.163-0.669 0-1.213-0.544-1.213-1.212s0.325-1.113 0.969-1.294c1.738-0.488 3.513-0.85 6.112-0.85 4.056 0 7.975 1.006 11.063 2.844 0.506 0.3 0.706 0.688 0.706 1.231-0.006 0.675-0.531 1.219-1.212 1.219zM25.413 14.444c-0.325 0-0.525-0.081-0.806-0.244-4.45-2.656-12.406-3.294-17.556-1.856-0.225 0.063-0.506 0.162-0.806 0.162-0.825 0-1.456-0.644-1.456-1.475 0-0.85 0.525-1.331 1.087-1.494 2.2-0.644 4.662-0.95 7.344-0.95 4.563 0 9.344 0.95 12.838 2.987 0.488 0.281 0.806 0.669 0.806 1.412 0 0.85-0.688 1.456-1.45 1.456z"/>
</svg>
