<svg version="1.1" xmlns="http://www.w3.org/2000/svg" width="28" height="32" viewBox="0 0 28 32">
<path fill="currentColor" d="M25 2h-22c-1.656 0-3 1.344-3 3v22c0 1.656 1.344 3 3 3h22c1.656 0 3-1.344 3-3v-22c0-1.656-1.344-3-3-3zM8.775 20.012h-2.912c-0.344 0-0.544-0.331-0.375-0.644l3.081-5.419c0.006 0 0.006-0.006 0-0.012l-1.963-3.375c-0.188-0.35 0.013-0.631 0.375-0.631h2.912c0.325 0 0.594 0.181 0.806 0.544l1.994 3.456c-0.081 0.144-1.125 1.981-3.131 5.512-0.219 0.387-0.481 0.569-0.787 0.569zM22.506 6.631l-6.425 11.294v0.012l4.094 7.438c0.175 0.319 0.006 0.631-0.375 0.631h-2.913c-0.344 0-0.606-0.181-0.806-0.544l-4.125-7.519c0.144-0.256 2.3-4.056 6.463-11.394 0.206-0.362 0.462-0.544 0.781-0.544h2.931c0.356-0.006 0.55 0.294 0.375 0.625z"/>
</svg>
