<svg version="1.1" xmlns="http://www.w3.org/2000/svg" width="28" height="32" viewBox="0 0 28 32">
<path fill="currentColor" d="M25 2h-22c-1.656 0-3 1.344-3 3v22c0 1.656 1.344 3 3 3h22c1.656 0 3-1.344 3-3v-22c0-1.656-1.344-3-3-3zM10.25 22.25c-3.456 0-6.25-2.794-6.25-6.25s2.794-6.25 6.25-6.25c1.688 0 3.094 0.613 4.188 1.637l-1.694 1.631c-0.463-0.444-1.269-0.963-2.487-0.963-2.131 0-3.869 1.762-3.869 3.95 0 2.181 1.738 3.95 3.869 3.95 2.475 0 3.4-1.781 3.55-2.694h-3.556v-2.15h5.9c0.063 0.313 0.1 0.631 0.1 1.037 0 3.569-2.394 6.1-6 6.1zM24 17.137h-1.813v1.813h-1.825v-1.813h-1.813v-1.825h1.813v-1.813h1.825v1.813h1.813v1.825z"/>
</svg>
