<svg version="1.1" xmlns="http://www.w3.org/2000/svg" width="28" height="32" viewBox="0 0 28 32">
<path fill="currentColor" d="M24.031 2.031h-20c-2.206 0-4 1.794-4 4v20c0 2.206 1.794 4 4 4h20c2.206 0 4-1.794 4-4v-20c0-2.206-1.794-4-4-4zM21.031 19.531c-1.975 0.7-2.575 1-3.738 1-1.963 0-2.7-1-4.662-1-0.637 0-1.137 0.1-1.6 0.25v-2c0.463-0.137 0.963-0.25 1.6-0.25 1.95 0 2.7 1 4.662 1 0.637 0 1.113-0.087 1.738-0.288v-6c-0.625 0.2-1.1 0.287-1.738 0.287-1.963 0-2.7-1-4.662-1-1.588 0-2.338 0.65-3.6 0.9v9.6c0 0.55-0.45 1-1 1s-1-0.45-1-1v-12c0-0.55 0.45-1 1-1s1 0.45 1 1v0.4c1.262-0.25 2.012-0.9 3.6-0.9 1.95 0 2.7 1 4.662 1 1.163 0 1.762-0.3 3.738-1v10z"/>
</svg>
