<svg version="1.1" xmlns="http://www.w3.org/2000/svg" width="28" height="32" viewBox="0 0 28 32">
<path fill="currentColor" d="M12.6 9.5c-1.588 0-2.338 0.65-3.6 0.9v-0.4c0-0.55-0.45-1-1-1s-1 0.45-1 1v12c0 0.050 0.006 0.1 0.013 0.15 0.006 0.025 0.006 0.050 0.013 0.075 0.1 0.444 0.5 0.775 0.975 0.775s0.875-0.331 0.975-0.775c0.006-0.025 0.012-0.050 0.012-0.075 0.006-0.050 0.012-0.1 0.012-0.15v-9.6c0.25-0.050 0.481-0.113 0.7-0.188 0.894-0.294 1.625-0.713 2.9-0.713 1.963 0 2.7 1 4.662 1 0.556 0 0.994-0.069 1.512-0.219 0.075-0.019 0.15-0.044 0.225-0.069v6c-0.625 0.2-1.1 0.288-1.738 0.288-1.963 0-2.713-1-4.662-1-0.637 0-1.137 0.113-1.6 0.25v2c0.463-0.15 0.963-0.25 1.6-0.25 1.963 0 2.7 1 4.662 1 1.163 0 1.762-0.3 3.738-1v-10c-1.975 0.7-2.575 1-3.738 1-1.963 0-2.713-1-4.662-1zM24 2h-20c-2.206 0-4 1.794-4 4v20c0 2.206 1.794 4 4 4h20c2.206 0 4-1.794 4-4v-20c0-2.206-1.794-4-4-4zM26 26c0 1.1-0.9 2-2 2h-20c-1.1 0-2-0.9-2-2v-20c0-1.1 0.9-2 2-2h20c1.1 0 2 0.9 2 2v20z"/>
</svg>
