<svg version="1.1" xmlns="http://www.w3.org/2000/svg" width="28" height="32" viewBox="0 0 28 32">
<path fill="currentColor" d="M24 2h-20c-2.209 0-4 1.791-4 4v0 20c0 2.209 1.791 4 4 4v0h20c2.209 0 4-1.791 4-4v0-20c0-2.209-1.791-4-4-4v0zM23.756 21.957l-0.005 0.006c-0.154 0.17-0.334 0.312-0.534 0.421l-0.011 0.005c-0.369 0.207-0.797 0.383-1.247 0.503l-0.039 0.009c-0.092 0.025-0.172 0.063-0.243 0.112l0.003-0.002c-0.135 0.119-0.131 0.29-0.275 0.534-0.109 0.188-0.252 0.344-0.423 0.464l-0.005 0.003c-0.419 0.29-0.89 0.308-1.389 0.327-0.451 0.017-0.962 0.036-1.546 0.229-0.235 0.078-0.485 0.231-0.774 0.408-0.704 0.431-1.668 1.022-3.269 1.022s-2.558-0.587-3.257-1.017c-0.291-0.18-0.542-0.335-0.784-0.415-0.584-0.192-1.095-0.212-1.546-0.229-0.499-0.019-0.97-0.038-1.389-0.327-0.149-0.104-0.274-0.231-0.372-0.377l-0.003-0.005c-0.2-0.29-0.178-0.488-0.328-0.618-0.073-0.050-0.159-0.089-0.25-0.113l-0.006-0.001c-0.483-0.13-0.905-0.303-1.298-0.523l0.029 0.015c-0.2-0.108-0.371-0.238-0.518-0.392l-0.001-0.001c-0.411-0.422-0.517-0.924-0.355-1.364 0.215-0.584 0.723-0.757 1.212-1.016 0.923-0.502 1.647-1.128 2.152-1.868 0.133-0.19 0.258-0.407 0.363-0.634l0.011-0.026c0.049-0.135 0.048-0.208 0.015-0.276-0.036-0.056-0.082-0.102-0.136-0.137l-0.002-0.001c-0.158-0.105-0.32-0.21-0.43-0.281-0.204-0.134-0.367-0.239-0.471-0.311-0.392-0.274-0.666-0.565-0.838-0.89-0.13-0.241-0.206-0.527-0.206-0.831 0-0.232 0.044-0.453 0.125-0.655l-0.004 0.012c0.258-0.683 0.904-1.107 1.686-1.107 0.001 0 0.002 0 0.002 0 0.173 0 0.341 0.019 0.503 0.055l-0.015-0.003c0.043 0.009 0.086 0.019 0.128 0.030-0.007-0.464 0.004-0.96 0.045-1.445 0.147-1.704 0.745-2.599 1.367-3.312 0.395-0.442 0.854-0.815 1.366-1.107l0.027-0.014c0.946-0.539 2.012-0.813 3.18-0.813s2.239 0.274 3.184 0.814c0.537 0.306 0.996 0.678 1.385 1.114l0.005 0.005c0.623 0.713 1.22 1.607 1.367 3.312 0.030 0.35 0.047 0.756 0.047 1.167 0 0.098-0.001 0.195-0.003 0.292l0-0.015c0.042-0.011 0.085-0.021 0.128-0.030 0.147-0.033 0.315-0.052 0.488-0.052 0.001 0 0.002 0 0.002 0h-0c0.781 0 1.426 0.424 1.686 1.107 0.076 0.19 0.12 0.41 0.12 0.641 0 0.304-0.077 0.591-0.212 0.841l0.005-0.009c-0.171 0.325-0.445 0.616-0.837 0.89-0.104 0.074-0.266 0.179-0.471 0.311-0.115 0.074-0.284 0.184-0.448 0.293-0.049 0.034-0.090 0.076-0.121 0.125l-0.001 0.002c-0.032 0.065-0.034 0.137 0.010 0.263 0.118 0.259 0.245 0.481 0.39 0.689l-0.009-0.014c0.517 0.756 1.262 1.395 2.216 1.9 0.093 0.048 0.186 0.094 0.278 0.141 0.045 0.021 0.098 0.048 0.156 0.081 0.306 0.17 0.575 0.376 0.716 0.76 0.158 0.43 0.061 0.916-0.325 1.329zM22.711 20.803c-3.145-1.52-3.646-3.87-3.668-4.047-0.027-0.211-0.058-0.377 0.175-0.592 0.225-0.208 1.221-0.824 1.498-1.017 0.458-0.32 0.658-0.639 0.51-1.031-0.104-0.27-0.355-0.373-0.623-0.373-0.089 0-0.175 0.010-0.257 0.030l0.008-0.002c-0.502 0.109-0.99 0.361-1.272 0.429-0.031 0.008-0.067 0.013-0.103 0.014h-0c-0.151 0-0.205-0.067-0.193-0.248 0.035-0.549 0.11-1.62 0.023-2.621-0.118-1.377-0.562-2.059-1.090-2.662-0.253-0.289-1.446-1.541-3.721-1.541s-3.465 1.257-3.718 1.547c-0.527 0.603-0.971 1.286-1.089 2.662-0.087 1.001-0.009 2.072 0.023 2.621 0.010 0.172-0.043 0.248-0.193 0.248-0.037-0.001-0.073-0.006-0.107-0.015l0.003 0.001c-0.282-0.068-0.769-0.32-1.272-0.428-0.075-0.018-0.161-0.028-0.249-0.028h-0c-0.266 0-0.519 0.102-0.623 0.374-0.148 0.392 0.053 0.711 0.51 1.031 0.277 0.193 1.273 0.81 1.498 1.017 0.232 0.215 0.202 0.381 0.175 0.592-0.022 0.174-0.524 2.525-3.668 4.047-0.184 0.089-0.497 0.278 0.055 0.583 0.867 0.477 1.444 0.425 1.894 0.714 0.381 0.245 0.156 0.775 0.433 0.966 0.341 0.235 1.349-0.017 2.646 0.413 1.090 0.359 1.757 1.376 3.685 1.376s2.612-1.019 3.684-1.373c1.3-0.429 2.306-0.177 2.646-0.413 0.277-0.191 0.051-0.72 0.433-0.965 0.449-0.289 1.026-0.238 1.894-0.717 0.552-0.308 0.239-0.497 0.053-0.589z"/>
</svg>
