<svg version="1.1" xmlns="http://www.w3.org/2000/svg" width="28" height="32" viewBox="0 0 28 32">
<path fill="currentColor" d="M4 2c-2.206 0-4 1.794-4 4v20c0 2.206 1.794 4 4 4h20c2.206 0 4-1.794 4-4v-20c0-2.206-1.794-4-4-4h-20zM18.387 15.269c1.219 0.581 2.106 1.469 2.575 2.556 0.65 1.519 0.712 3.994-1.262 5.963-1.512 1.506-3.344 2.188-5.944 2.206h-0.012c-2.925-0.019-5.175-1.006-6.681-2.925-1.344-1.706-2.037-4.087-2.063-7.069v-0.012c0.025-2.981 0.719-5.356 2.063-7.069 1.512-1.919 3.762-2.906 6.681-2.925h0.012c2.931 0.019 5.206 1 6.763 2.913 0.769 0.944 1.331 2.081 1.688 3.4l-1.681 0.45c-0.294-1.075-0.744-1.994-1.337-2.725-1.212-1.494-3.044-2.256-5.438-2.275-2.375 0.019-4.175 0.781-5.344 2.262-1.094 1.394-1.662 3.4-1.681 5.969 0.019 2.569 0.588 4.581 1.681 5.969 1.169 1.488 2.963 2.25 5.344 2.262 2.144-0.019 3.556-0.525 4.738-1.706 1.344-1.344 1.319-2.994 0.887-4-0.25-0.587-0.712-1.081-1.331-1.456-0.15 1.125-0.494 2.012-1.031 2.7-0.712 0.906-1.731 1.4-3.025 1.469-0.981 0.056-1.925-0.181-2.662-0.669-0.869-0.575-1.375-1.45-1.431-2.469-0.106-2.012 1.488-3.456 3.969-3.6 0.881-0.050 1.706-0.012 2.469 0.119-0.1-0.619-0.306-1.106-0.613-1.463-0.419-0.488-1.069-0.738-1.925-0.744h-0.025c-0.688 0-1.625 0.194-2.225 1.1l-1.438-0.988c0.8-1.213 2.1-1.881 3.656-1.881h0.037c2.612 0.019 4.162 1.644 4.319 4.488 0.087 0.037 0.175 0.075 0.262 0.119l0.006 0.031zM13.9 19.488c1.063-0.056 2.275-0.475 2.481-3.050-0.55-0.119-1.162-0.181-1.813-0.181-0.2 0-0.4 0.006-0.6 0.019-1.787 0.1-2.381 0.969-2.338 1.744 0.056 1.044 1.188 1.531 2.275 1.475l-0.006-0.006z"/>
</svg>
