<svg version="1.1" xmlns="http://www.w3.org/2000/svg" width="28" height="32" viewBox="0 0 28 32">
<path fill="currentColor" d="M11.656 18.313c0 1.206-0.875 1.587-1.95 1.587h-2.819v-3.306h2.875c1.162 0.006 1.894 0.488 1.894 1.719zM11.175 13.169c0-1.106-0.856-1.369-1.806-1.369h-2.475v2.8h2.669c0.944 0 1.613-0.412 1.613-1.431zM19.444 14.619c-1.144 0-1.906 0.713-1.981 1.856h3.887c-0.106-1.156-0.706-1.856-1.906-1.856zM28 5v22c0 1.656-1.344 3-3 3h-22c-1.656 0-3-1.344-3-3v-22c0-1.656 1.344-3 3-3h22c1.656 0 3 1.344 3 3zM16.981 11.563h4.863v-1.181h-4.863v1.181zM14.294 18.456c0-1.506-0.713-2.806-2.188-3.225 1.075-0.512 1.637-1.106 1.637-2.313 0-2.388-1.781-2.969-3.838-2.969h-5.656v12h5.819c2.181-0.012 4.225-1.056 4.225-3.494zM23.75 17.531c0-2.569-1.506-4.713-4.225-4.713-2.65 0-4.444 1.988-4.444 4.6 0 2.706 1.706 4.563 4.444 4.563 2.075 0 3.419-0.931 4.069-2.925h-2.106c-0.231 0.744-1.163 1.131-1.887 1.131-1.4 0-2.131-0.819-2.131-2.206h6.262c0.006-0.144 0.019-0.3 0.019-0.45z"/>
</svg>
