<svg version="1.1" xmlns="http://www.w3.org/2000/svg" width="28" height="32" viewBox="0 0 28 32">
<path fill="currentColor" d="M25 2h-22c-1.656 0-3 1.344-3 3v22c0 1.656 1.344 3 3 3h22c1.656 0 3-1.344 3-3v-22c0-1.656-1.344-3-3-3zM23.988 11.35c-0.087 1.944-1.45 4.612-4.081 7.994-2.719 3.531-5.019 5.3-6.9 5.3-1.169 0-2.15-1.075-2.956-3.225-1.575-5.769-2.244-9.15-3.544-9.15-0.15 0-0.675 0.313-1.569 0.944l-0.938-1.213c2.306-2.025 4.506-4.275 5.881-4.4 1.556-0.15 2.513 0.912 2.875 3.194 1.281 8.1 1.85 9.325 4.175 5.656 0.837-1.325 1.288-2.325 1.344-3.019 0.212-2.050-1.6-1.912-2.825-1.387 0.981-3.219 2.863-4.781 5.631-4.694 2.056 0.063 3.025 1.4 2.906 4z"/>
</svg>
