<svg version="1.1" xmlns="http://www.w3.org/2000/svg" width="28" height="32" viewBox="0 0 28 32">
<path fill="currentColor" d="M24.719 11.094c0 2.113-1.719 3.813-3.813 3.813-2.113 0-3.813-1.706-3.813-3.813s1.706-3.813 3.813-3.813c2.094 0 3.813 1.7 3.813 3.813zM28 11.106c0 3.938-3.188 7.113-7.106 7.113l-6.831 4.988c-0.25 2.688-2.531 4.8-5.281 4.8-2.531 0-4.669-1.8-5.188-4.188l-3.594-1.444v-6.706l6.075 2.456c0.944-0.575 2.013-0.831 3.25-0.719l4.438-6.356c0.031-3.894 3.219-7.050 7.125-7.050 3.925 0 7.113 3.188 7.113 7.106zM12.688 22.688c0-2.169-1.738-3.906-3.906-3.906-0.281 0-0.563 0.031-0.844 0.094l1.625 0.656c1.594 0.637 2.375 2.438 1.731 4.031-0.637 1.594-2.45 2.375-4.044 1.719-0.638-0.25-1.281-0.519-1.919-0.762 0.656 1.231 1.95 2.075 3.45 2.075 2.169 0 3.906-1.738 3.906-3.906zM25.656 11.106c0-2.625-2.144-4.763-4.762-4.763-2.644 0-4.781 2.138-4.781 4.763 0 2.637 2.144 4.762 4.781 4.762 2.619 0.006 4.762-2.119 4.762-4.762z"/>
</svg>
