<svg version="1.1" xmlns="http://www.w3.org/2000/svg" width="40" height="32" viewBox="0 0 40 32">
<path fill="currentColor" d="M10.313 9.044l-2.706 0.575-0.013 8.9c0 1.644 1.238 2.706 2.881 2.706 0.912 0 1.581-0.169 1.95-0.369v-2.113c-0.356 0.144-2.106 0.656-2.106-0.981v-3.95h2.106v-2.363h-2.106zM15.881 12.269l-0.169-0.819h-2.4v9.575h2.769v-6.444c0.656-0.863 1.762-0.694 2.119-0.581v-2.55c-0.375-0.131-1.669-0.375-2.319 0.819zM21.65 7.75l-2.788 0.594v2.262l2.788-0.594zM2.806 14.269c0-0.431 0.362-0.6 0.944-0.606 0.844 0 1.919 0.256 2.763 0.713v-2.612c-0.919-0.363-1.837-0.506-2.756-0.506-2.25 0-3.75 1.175-3.75 3.138 0 3.075 4.219 2.575 4.219 3.9 0 0.512-0.444 0.681-1.063 0.681-0.919 0-2.106-0.381-3.038-0.887v2.5c1.031 0.444 2.075 0.631 3.031 0.631 2.306 0 3.894-0.988 3.894-2.988 0-3.306-4.244-2.713-4.244-3.963zM40 16.35c0-2.844-1.375-5.088-4.013-5.088s-4.244 2.244-4.244 5.069c0 3.344 1.894 4.887 4.594 4.887 1.325 0 2.319-0.3 3.075-0.719v-2.087c-0.756 0.381-1.625 0.613-2.725 0.613-1.081 0-2.031-0.381-2.156-1.681h5.431c0.013-0.144 0.038-0.725 0.038-0.994zM34.506 15.3c0-1.25 0.769-1.775 1.462-1.775 0.681 0 1.406 0.525 1.406 1.775zM27.45 11.262c-1.087 0-1.788 0.512-2.175 0.869l-0.144-0.688h-2.444v12.8l2.775-0.587 0.006-3.137c0.4 0.294 0.994 0.7 1.962 0.7 1.988 0 3.8-1.45 3.8-4.975 0.006-3.225-1.831-4.981-3.781-4.981zM26.788 18.919c-0.65 0-1.038-0.238-1.306-0.525l-0.019-4.125c0.288-0.319 0.688-0.55 1.325-0.55 1.012 0 1.712 1.137 1.712 2.587 0.006 1.494-0.681 2.613-1.712 2.613zM18.869 21.025h2.788v-9.575h-2.788z"/>
</svg>
