<svg version="1.1" xmlns="http://www.w3.org/2000/svg" width="28" height="32" viewBox="0 0 28 32">
<path fill="currentColor" d="M8.531 18.387l3.675 1.431c0.569-2.3 1.588-3.819 3.438-3.819 3.087 0 4.463 3.975 8.9 3.975 0.975 0 2.244-0.175 3.456-0.831v3.856c0 3.863-3.15 7-7.019 7h-20.981l2.612-3.5-2.612-3.5 2.606-3.5-2.606-3.494 2.612-3.5-2.612-3.5 2.612-3.506-2.612-3.5h20.981c3.869 0 7.019 3.144 7.019 7.006v3.206c-0.575 2.269-1.619 3.787-3.438 3.787-3.1 0-4.475-3.969-8.9-3.969-2.244 0-5.95 0.912-7.131 6.35v0z"/>
</svg>
