<svg version="1.1" xmlns="http://www.w3.org/2000/svg" width="36" height="32" viewBox="0 0 36 32">
<path fill="currentColor" d="M9.55 2.325c-2.013 2.381-3.506 5.162-4.369 8.156 0 0.012-0.006 0.019-0.006 0.031-2.456 1.012-4.175 3.425-4.175 6.238 0 3.725 3.025 6.75 6.75 6.75s6.75-3.025 6.75-6.75c0-3.344-2.431-6.119-5.625-6.656 0.981-2.612 2.525-4.975 4.519-6.919 0.113-0.1 0.25-0.163 0.394-0.194 2.325-0.719 4.794-0.831 7.175-0.325 7.456 1.569 12.412 8.637 11.356 16.175-0.525 3.913-2.413 7.044-5.481 9.463-3.131 2.481-6.719 3.394-10.637 3.262l-1.5-0.063c0.775 0.175 1.563 0.306 2.35 0.394 2.544 0.263 5.087 0.131 7.506-0.781 5.875-2.219 9.331-6.394 10.181-12.656 0.3-3.287-0.362-6.588-1.925-9.5-4.4-8.244-14.637-11.35-22.875-6.95-0.15 0.087-0.281 0.194-0.394 0.325zM19.337 27.119c-0.131 0.719-0.262 1.369-0.913 1.956 3.325-0.063 7.7-1.825 10.113-6.069 2.481-4.369 2.35-8.744-0.394-12.988-2.281-3.456-5.613-5.15-9.788-5.412 0.094 0.144 0.2 0.275 0.325 0.394l0.325 0.394c1.569 1.956 2.35 4.244 2.675 6.719 0.131 0.981-0.063 1.894-0.85 2.613-0.262 0.194-0.325 0.394-0.262 0.65l0.456 1.106 1.831 3.394c0.325 0.719 0.262 1.238-0.394 1.762-0.2 0.156-0.419 0.288-0.65 0.394l-1.175 0.525 0.194 0.85c0.194 0.394 0.063 0.781-0.194 1.106-0.156 0.15-0.238 0.369-0.194 0.587 0.131 0.719-0.131 1.238-0.781 1.569-0.131 0.063-0.262 0.325-0.325 0.456zM10.988 26.925c1.044 0.719 2.156 1.306 3.325 1.631 1.5 0.325 2.613-0.394 2.806-1.894 0.063-0.525 0.325-0.913 0.781-1.106 0.456-0.262 0.525-0.456 0.131-0.85l-0.587-0.525 0.85-0.262c0.394-0.131 0.456-0.325 0.325-0.719-0.087-0.188-0.15-0.387-0.194-0.587-0.194-0.913-0.131-0.981 0.719-1.175 0.525-0.194 0.981-0.394 1.369-0.781 0.194-0.131 0.194-0.262 0.063-0.525l-1.044-1.894c-0.063-0.119-0.131-0.238-0.194-0.356-0.4-0.731-0.813-1.475-0.981-2.319-0.131-0.588-0.063-1.106 0.525-1.5 0.325-0.262 0.525-0.588 0.525-1.044-0.025-0.631-0.094-1.269-0.194-1.894-0.394-2.35-1.438-4.306-3.2-5.938-0.325-0.263-0.588-0.394-1.044-0.263l-2.225 0.794c0.125 0.075 0.25 0.15 0.375 0.225v0c0.394 0.231 0.762 0.456 1.063 0.756 1.894 1.631 2.612 3.85 2.869 6.263 0.063 0.525 0 1.044-0.456 1.369-0.525 0.325-0.65 0.781-0.456 1.306 0.306 0.825 0.65 1.625 1.044 2.413l1.044 1.825c-0.394 0.525-0.85 0.719-1.369 0.913-0.781 0.194-0.912 0.456-0.65 1.306 0.038 0.094 0.087 0.175 0.131 0.262 0.131 0.325 0.063 0.525-0.262 0.65l-0.781 0.194 0.325 0.262 0.262 0.262c0.262 0.325 0.262 0.525-0.131 0.65-0.456 0.262-0.719 0.587-0.719 1.106 0 0.781-0.456 1.238-1.175 1.5-0.238 0.063-0.475 0.094-0.719 0.063l-2.156-0.131z"/>
</svg>
