<svg version="1.1" xmlns="http://www.w3.org/2000/svg" width="28" height="32" viewBox="0 0 28 32">
<path fill="currentColor" d="M20.719 14.731c0.137 0.056 0.262 0.119 0.394 0.175 1.825 0.881 3.163 2.2 3.863 3.837 0.981 2.281 1.075 5.988-1.894 8.95-2.262 2.262-5.019 3.281-8.912 3.313h-0.019c-4.388-0.031-7.756-1.506-10.025-4.387-2.019-2.563-3.056-6.131-3.094-10.6v-0.031c0.031-4.469 1.069-8.037 3.088-10.6 2.269-2.881 5.644-4.356 10.031-4.388h0.019c4.394 0.031 7.806 1.5 10.144 4.369 1.15 1.419 2 3.125 2.538 5.106l-2.525 0.675c-0.444-1.613-1.113-2.988-2.012-4.088-1.825-2.237-4.563-3.388-8.156-3.413-3.563 0.031-6.256 1.175-8.012 3.4-1.638 2.081-2.487 5.094-2.519 8.95 0.031 3.856 0.881 6.869 2.519 8.956 1.75 2.225 4.45 3.369 8.012 3.4 3.212-0.025 5.338-0.788 7.106-2.556 2.019-2.012 1.981-4.488 1.337-5.994-0.381-0.887-1.069-1.625-1.994-2.181-0.231 1.681-0.738 3.019-1.544 4.050-1.069 1.363-2.587 2.1-4.544 2.206-1.475 0.081-2.894-0.275-3.994-1-1.3-0.863-2.063-2.175-2.144-3.706-0.156-3.019 2.231-5.188 5.95-5.4 1.319-0.075 2.556-0.019 3.7 0.175-0.15-0.925-0.456-1.662-0.913-2.2-0.625-0.731-1.6-1.106-2.887-1.113h-0.044c-1.037 0-2.438 0.287-3.331 1.644l-2.15-1.475c1.2-1.819 3.144-2.819 5.487-2.819h0.050c3.913 0.025 6.244 2.469 6.481 6.731l-0.012 0.012zM10.969 19.031c0.081 1.569 1.775 2.3 3.412 2.206 1.6-0.087 3.412-0.712 3.719-4.575-0.825-0.181-1.738-0.275-2.713-0.275-0.3 0-0.6 0.006-0.9 0.025-2.681 0.15-3.575 1.45-3.512 2.613l-0.006 0.006z"/>
</svg>
