<svg version="1.1" xmlns="http://www.w3.org/2000/svg" width="20" height="32" viewBox="0 0 20 32">
<path fill="currentColor" d="M19.363 30.019c-0.85 0.906-3.125 1.981-6.088 1.981-7.55 0-9.188-5.55-9.188-8.788v-9h-2.969c-0.344 0-0.625-0.281-0.625-0.625v-4.25c0-0.45 0.281-0.85 0.706-1 3.875-1.362 5.094-4.75 5.269-7.319 0.050-0.688 0.406-1.019 1.006-1.019h4.431c0.344 0 0.625 0.281 0.625 0.625v7.2h5.188c0.344 0 0.625 0.275 0.625 0.619v5.106c0 0.344-0.281 0.625-0.625 0.625h-5.213v8.325c0 2.137 1.481 3.35 4.25 2.238 0.3-0.119 0.563-0.2 0.794-0.137 0.219 0.056 0.363 0.212 0.462 0.494l1.375 4.019c0.113 0.313 0.206 0.663-0.025 0.906z"/>
</svg>
