<svg version="1.1" xmlns="http://www.w3.org/2000/svg" width="28" height="32" viewBox="0 0 28 32">
<path fill="currentColor" d="M11.169 4.9c0-1.544 0.338-2.025 0.869-2.462-4.344 0.531-9.331 2.125-11.019 4.15-0.338 0.481-0.581 1.3-0.581 2.319 0 6.469 6.675 21.094 11.506 21.094 2.269 0 6.081-3.719 9.169-8.688-0.438 0.144-0.725 0.144-1.156 0.144-3.575 0-8.787-12.406-8.787-16.556zM18.844 2c-1.881 0-2.606 0.337-2.606 2.269 0 4.15 3.363 12.406 6.356 12.406 1.644 0 4.925-6.231 4.925-11.394 0-2.556-4.188-3.281-8.675-3.281z"/>
</svg>
