<svg version="1.1" xmlns="http://www.w3.org/2000/svg" width="31" height="32" viewBox="0 0 31 32">
<path fill="currentColor" d="M15.5 0.5c-8.563 0-15.5 6.938-15.5 15.5s6.938 15.5 15.5 15.5 15.5-6.938 15.5-15.5-6.938-15.5-15.5-15.5zM18.794 6.313c0.55-0.95 1.769-1.281 2.719-0.731 0.956 0.55 1.281 1.769 0.731 2.725-0.55 0.95-1.769 1.281-2.719 0.731-0.956-0.556-1.281-1.775-0.731-2.725zM5.463 17.994c-1.1 0-1.994-0.894-1.994-1.994s0.894-1.994 1.994-1.994c1.1 0 1.994 0.894 1.994 1.994s-0.894 1.994-1.994 1.994zM7.219 18.188c1.394-1.119 1.4-3.244 0-4.369 0.537-2.050 1.819-3.794 3.531-4.944l1.481 2.475c-3.219 2.269-3.219 7.031 0 9.3l-1.481 2.475c-1.713-1.144-2.987-2.894-3.531-4.938zM21.512 26.419c-0.956 0.55-2.169 0.225-2.719-0.731s-0.225-2.175 0.731-2.725c0.95-0.55 2.169-0.225 2.719 0.731s0.225 2.175-0.731 2.725zM21.531 22.075c-1.669-0.644-3.506 0.413-3.781 2.188-0.325 0.087-3.056 0.894-6.044-0.587l1.406-2.519c3.563 1.656 7.713-0.731 8.056-4.65l2.881 0.044c-0.144 2.156-1.081 4.094-2.519 5.525zM21.163 15.494c-0.337-3.875-4.456-6.325-8.056-4.65l-1.406-2.519c2.994-1.481 5.719-0.675 6.044-0.588 0.275 1.769 2.113 2.831 3.781 2.188 1.444 1.431 2.375 3.369 2.512 5.531l-2.875 0.037z"/>
</svg>
