<svg version="1.1" xmlns="http://www.w3.org/2000/svg" width="28" height="32" viewBox="0 0 28 32">
<path fill="currentColor" d="M10.733 14.551c0 0 0 0 0 0 0.139 0 0.258-0.084 0.31-0.205l0.001-0.002c0.147-0.632 0.476-1.171 0.928-1.576l0.003-0.003c0.078-0.052 0.104-0.155 0.104-0.259-0.007-0.088-0.057-0.164-0.128-0.206l-0.001-0.001-7.297-4.27 4.658-2.717c0.181-0.106 0.303-0.297 0.31-0.517l0-0.001c0-0.003 0-0.007 0-0.010 0-0.22-0.125-0.411-0.307-0.506l-0.003-0.002-1.397-0.802c-0.086-0.049-0.188-0.078-0.298-0.078s-0.212 0.029-0.301 0.079l0.003-0.002-6.263 3.623c-0.181 0.106-0.303 0.297-0.311 0.516l-0 0.001v7.194c-0 0.003-0 0.007-0 0.010 0 0.22 0.125 0.411 0.307 0.506l0.003 0.002 1.397 0.802c0.081 0.049 0.179 0.078 0.283 0.078 0.010 0 0.019-0 0.029-0.001l-0.001 0c0.005 0 0.010 0 0.016 0 0.154 0 0.294-0.059 0.399-0.156l-0 0c0.108-0.115 0.176-0.269 0.181-0.439l0-0.001v-5.331l7.246 4.244c0.035 0.016 0.075 0.026 0.118 0.026 0.004 0 0.008-0 0.012-0l-0.001 0zM20.204 23.608c-0.114 0.004-0.22 0.033-0.315 0.080l0.005-0.002-4.658 2.691v-8.384c0-0.181-0.181-0.363-0.388-0.285-0.285 0.088-0.612 0.139-0.951 0.139-0.306 0-0.602-0.041-0.883-0.119l0.023 0.005c-0.025-0.008-0.054-0.012-0.084-0.012-0.165 0-0.3 0.132-0.304 0.296v8.333l-4.658-2.691c-0.081-0.049-0.179-0.078-0.283-0.078-0.010 0-0.019 0-0.029 0.001l0.001-0c-0.327 0.004-0.591 0.268-0.595 0.595v1.631c-0 0.003-0 0.007-0 0.010 0 0.22 0.125 0.411 0.308 0.506l0.003 0.002 6.263 3.597c0.081 0.049 0.179 0.078 0.283 0.078 0.010 0 0.019-0 0.028-0.001l-0.001 0c0.114-0.001 0.22-0.030 0.314-0.079l-0.004 0.002 6.262-3.597c0.181-0.106 0.303-0.297 0.31-0.517l0-0.001v-1.63c-0.051-0.285-0.336-0.569-0.647-0.569zM17.875 4.875c0.794 0 1.438-0.644 1.438-1.438s-0.644-1.438-1.438-1.438c-0.794 0-1.438 0.644-1.438 1.438v0c0 0.794 0.644 1.438 1.438 1.438v0zM21.852 4.245c-0.794 0-1.438 0.644-1.438 1.438s0.644 1.438 1.438 1.438c0.794 0 1.438-0.644 1.438-1.438v0c0-0.794-0.644-1.438-1.438-1.438v0zM25.801 9.475c0.794 0 1.438-0.644 1.438-1.438s-0.644-1.438-1.438-1.438c-0.794 0-1.438 0.644-1.438 1.438v0c0 0.794 0.644 1.438 1.438 1.438v0zM21.852 8.9c-0.794 0-1.438 0.644-1.438 1.438s0.644 1.438 1.438 1.438c0.794 0 1.438-0.644 1.438-1.438v0c0-0.794-0.644-1.438-1.438-1.438v0zM17.875 14.103c0.794 0 1.438-0.644 1.438-1.438s-0.644-1.438-1.438-1.438c-0.794 0-1.438 0.644-1.438 1.438v0c0 0 0 0 0 0 0 0.794 0.644 1.438 1.438 1.438v0zM13.996 16.375c0.794 0 1.438-0.644 1.438-1.438s-0.644-1.438-1.438-1.438c-0.794 0-1.438 0.644-1.438 1.438v0c0 0 0 0 0 0 0 0.794 0.644 1.437 1.438 1.437v0zM25.801 11.228c-0.794 0-1.438 0.644-1.438 1.438s0.644 1.438 1.438 1.438c0.794 0 1.438-0.644 1.438-1.438v0c-0-0.794-0.644-1.437-1.438-1.437v0zM25.801 15.745c-0.794 0-1.438 0.644-1.438 1.438s0.644 1.438 1.438 1.438c0.794 0 1.438-0.644 1.438-1.438v0c-0-0.794-0.644-1.437-1.438-1.437v0z"/>
</svg>
