<svg version="1.1" xmlns="http://www.w3.org/2000/svg" width="28" height="32" viewBox="0 0 28 32">
<path fill="currentColor" d="M15.224 5.725l5.007 2.924c0.18 0.103 0.187 0.387 0 0.49l-5.95 3.477c-0.18 0.106-0.393 0.099-0.56 0l-5.949-3.477c-0.183-0.099-0.186-0.391 0-0.49l5.004-2.924v-5.725l-12.776 7.464v14.927l4.899-2.861v-5.848c-0.003-0.209 0.239-0.358 0.419-0.245l5.95 3.477c0.18 0.106 0.281 0.295 0.281 0.49v6.95c0.003 0.209-0.239 0.358-0.419 0.245l-5.007-2.924-4.899 2.861 12.776 7.464 12.776-7.464-4.899-2.861-5.007 2.924c-0.177 0.109-0.425-0.033-0.419-0.245v-6.95c0-0.209 0.115-0.394 0.281-0.49l5.95-3.477c0.177-0.109 0.425 0.030 0.419 0.245v5.848l4.899 2.861v-14.927l-12.776-7.464v5.725z"/>
</svg>
