<svg version="1.1" xmlns="http://www.w3.org/2000/svg" width="30" height="32" viewBox="0 0 30 32">
<path fill="currentColor" d="M30.119 16.756c-0.002 8.314-6.742 15.053-15.056 15.053-8.315 0-15.056-6.741-15.056-15.056 0-0.001 0-0.002 0-0.003v0c0-8.317 6.742-15.059 15.059-15.059s15.059 6.742 15.059 15.059v0zM1.531 16.75c-0.002 0.087-0.003 0.189-0.003 0.291 0 7.473 6.058 13.531 13.531 13.531s13.531-6.058 13.531-13.531c0-0.102-0.001-0.204-0.003-0.306l0 0.015c0.002-0.087 0.003-0.189 0.003-0.291 0-7.473-6.058-13.531-13.531-13.531s-13.531 6.058-13.531 13.531c0 0.102 0.001 0.204 0.003 0.306l-0-0.015zM25.65 20.706c-0.794 0-1.35-0.119-1.669-0.369-0.344-0.269-0.512-0.769-0.512-1.488v-6.031c0-0.406-0.325-1.262-0.981-2.575 0.438 0 1.063-0.569 1.875-1.7v9.238c0 0.688 0.15 1.212 0.438 1.581 0.231 0.294 0.631 0.556 1.188 0.788 0.075 0.025 0.163 0.056 0.256 0.087 0.181 0.056 0.394 0.131 0.644 0.219-0.113 0.169-0.519 0.25-1.244 0.25zM11.963 20.706c-0.081 0.15-0.225 0.344-0.425 0.587l-1.156 1.406c-0.063-0.381-0.25-0.813-0.581-1.288s-0.606-0.712-0.838-0.712h-5.612c0.206-0.331 0.306-0.55 0.306-0.675s-0.050-0.331-0.15-0.606c-0.094-0.275-0.15-0.531-0.15-0.775 0-0.462 0.131-0.869 0.394-1.206l1.25-1.6-0.444-1.106 1.006-1.238 0.419 1.050 0.5-0.644c-0.112 0.4-0.162 0.769-0.162 1.106 0 0.262 0.175 0.831 0.519 1.706l1.013 2.544h1.106c0.175 0.025 0.481 0.313 0.912 0.869 0.113 0.15 0.269 0.363 0.481 0.637 0.088 0.119 0.181 0.244 0.287 0.381 0.081-0.144 0.125-0.288 0.125-0.444 0-0.125-0.081-0.413-0.25-0.837l-0.325-0.856c-0.25-0.663-0.381-1.106-0.381-1.331 0-0.394 0.119-0.769 0.363-1.119 0.031-0.038 0.063-0.081 0.094-0.119 0.275-0.35 0.55-0.694 0.831-1.031-0.069 0.287-0.106 0.544-0.106 0.75 0 0.231 0.106 0.619 0.319 1.175l0.494 1.275c0.119 0.294 0.188 0.512 0.231 0.644h1.619l-0.056-0.163c-0.088-0.244-0.25-0.438-0.481-0.581l0.975-1.256 0.769 2h0.838l-0.381-0.988c-0.094-0.244-0.25-0.438-0.481-0.581l0.981-1.256 1.081 2.825h0.837l-0.712-1.837c-0.094-0.244-0.25-0.438-0.481-0.581l0.975-1.25 1.4 3.669h1.637c0.094 0 0.188-0.069 0.281-0.194s0.137-0.256 0.137-0.394v-5.844c0-0.406-0.281-1.269-0.856-2.575 0.337 0 0.881-0.569 1.637-1.7v10.219c0 0.45 0.038 0.75 0.106 0.913 0.1 0.212 0.331 0.387 0.694 0.512-0.244 0.35-0.544 0.531-0.906 0.531h-9.675zM5.838 17.956c-0.169-0.419-0.25-0.731-0.25-0.938-0.037 0.075-0.15 0.231-0.338 0.475-0.088 0.119-0.138 0.231-0.138 0.331 0 0.163 0.050 0.356 0.138 0.581l0.35 0.869c0.313 0 0.563 0 0.744-0.006l-0.513-1.306zM6.681 13.431c-0.188-0.325-0.438-0.581-0.744-0.744-0.219-0.119-0.331-0.269-0.331-0.463 0-0.15 0.287-0.537 0.875-1.144 0.013 0.238 0.119 0.475 0.306 0.7 0.194 0.225 0.287 0.438 0.287 0.631 0 0.162-0.131 0.5-0.388 1.019zM4.956 13.431c-0.188-0.325-0.438-0.581-0.744-0.744-0.219-0.119-0.331-0.269-0.331-0.463 0-0.15 0.287-0.537 0.875-1.144 0.013 0.238 0.119 0.475 0.306 0.7 0.194 0.225 0.287 0.438 0.287 0.631 0 0.162-0.131 0.5-0.388 1.019zM10.394 15.15c-0.188-0.325-0.438-0.581-0.744-0.744-0.219-0.119-0.331-0.269-0.331-0.463 0-0.15 0.287-0.537 0.875-1.144 0.012 0.238 0.119 0.475 0.306 0.7 0.194 0.225 0.287 0.438 0.287 0.631 0 0.162-0.131 0.5-0.387 1.019z"/>
</svg>
