<svg version="1.1" xmlns="http://www.w3.org/2000/svg" width="32" height="32" viewBox="0 0 32 32">
<path fill="currentColor" d="M16 1c-8.284 0-15 6.716-15 15s6.716 15 15 15 15-6.716 15-15-6.716-15-15-15zM7.606 26.82c-3.227-2.509-5.309-6.425-5.309-10.82 0-0.002 0-0.004 0-0.007 0-1.428 0.219-2.804 0.625-4.098l-0.026 0.097 6.431-1.118-0.008 0.685-0.871 0.126s-0.009 0.781-0.009 1.222c-0 0.005-0 0.012-0 0.018 0 0.254 0.119 0.481 0.304 0.627l0.002 0.001 0.592 0.463zM14.211 9.116l0.53-0.476s0.433-0.336-0.009-0.584c-0.449-0.252-2.471-2.156-2.471-2.156-0.334-0.342-0.516-0.459-0.966 0 0 0-2.021 1.905-2.471 2.156-0.442 0.248-0.009 0.584-0.009 0.584l0.53 0.476-0.003 0.273-4.594-1.198c2.478-3.559 6.596-5.894 11.251-5.894 0 0 0.001 0 0.001 0 4.105 0 7.787 1.809 10.293 4.673l0.014 0.016-12.095 2.356zM16.34 29.695l-2.119-15.679 0.592-0.463c0.187-0.148 0.306-0.374 0.306-0.628 0-0.007-0-0.013-0-0.019l0 0.001c0-0.44-0.009-1.222-0.009-1.222l-0.871-0.126-0.007-0.655 15.107 1.962c0.232 0.941 0.365 2.021 0.366 3.133v0.001c0 7.442-5.964 13.513-13.363 13.695z"/>
</svg>
