<svg version="1.1" xmlns="http://www.w3.org/2000/svg" width="40" height="32" viewBox="0 0 40 32">
<path fill="currentColor" d="M11.151 21.232h-2.332l-1.808-7.264h-0.030l-1.779 7.264h-2.377l-2.825-10.672h2.347l1.689 7.264h0.030l1.853-7.264h2.197l1.824 7.354h0.030l1.749-7.354h2.302zM16.962 13.295c2.436 0 4.006 1.614 4.006 4.081 0 2.451-1.569 4.066-4.006 4.066-2.421 0-3.991-1.614-3.991-4.066 0-2.466 1.57-4.081 3.991-4.081zM16.962 19.842c1.45 0 1.883-1.241 1.883-2.466 0-1.241-0.433-2.481-1.883-2.481-1.731 0-1.868 1.241-1.868 2.481 0 1.226 0.434 2.466 1.868 2.466zM27.193 20.245h-0.030c-0.493 0.837-1.36 1.196-2.347 1.196-2.332 0-3.468-2.003-3.468-4.14 0-2.078 1.151-4.006 3.423-4.006 0.912 0 1.809 0.389 2.302 1.151h0.015v-3.886h2.122v10.672h-2.018zM25.339 14.894c-1.39 0-1.868 1.196-1.868 2.466 0 1.211 0.553 2.481 1.868 2.481 1.405 0 1.824-1.226 1.824-2.496 0-1.255-0.448-2.451-1.824-2.451zM37.060 21.232h-2.018v-1.076h-0.045c-0.538 0.867-1.465 1.285-2.362 1.285-2.257 0-2.825-1.27-2.825-3.184v-4.753h2.122v4.365c0 1.271 0.374 1.898 1.36 1.898 1.151 0 1.644-0.643 1.644-2.212v-4.051h2.123zM37.653 18.93h2.347v2.302h-2.347z"/>
</svg>
