<svg version="1.1" xmlns="http://www.w3.org/2000/svg" width="32" height="32" viewBox="0 0 32 32">
<path fill="currentColor" d="M16 0.5c-8.544 0-15.5 6.95-15.5 15.5 0 8.544 6.956 15.5 15.5 15.5s15.5-6.956 15.5-15.5c0-8.55-6.956-15.5-15.5-15.5zM2.063 16c0-2.019 0.431-3.938 1.206-5.669l6.65 18.212c-4.65-2.262-7.856-7.031-7.856-12.544zM16 29.938c-1.369 0-2.688-0.2-3.938-0.569l4.181-12.15 4.281 11.738c0.031 0.069 0.063 0.131 0.1 0.194-1.444 0.506-3 0.788-4.625 0.788zM17.919 9.469c0.837-0.044 1.594-0.131 1.594-0.131 0.75-0.088 0.663-1.194-0.087-1.15 0 0-2.256 0.175-3.713 0.175-1.369 0-3.669-0.175-3.669-0.175-0.75-0.044-0.838 1.106-0.088 1.15 0 0 0.713 0.088 1.463 0.131l2.169 5.95-3.050 9.144-5.075-15.094c0.837-0.044 1.594-0.131 1.594-0.131 0.75-0.088 0.662-1.194-0.088-1.15 0 0-2.256 0.175-3.713 0.175-0.263 0-0.569-0.006-0.9-0.019 2.494-3.781 6.775-6.281 11.644-6.281 3.625 0 6.931 1.388 9.412 3.656-0.063-0.006-0.119-0.013-0.181-0.013-1.369 0-2.337 1.194-2.337 2.475 0 1.15 0.663 2.119 1.369 3.269 0.531 0.925 1.15 2.119 1.15 3.844 0 1.194-0.456 2.575-1.063 4.506l-1.387 4.644-5.044-14.975zM23.006 28.044l4.256-12.306c0.794-1.988 1.063-3.575 1.063-4.994 0-0.512-0.031-0.988-0.094-1.431 1.087 1.988 1.706 4.263 1.706 6.688 0 5.144-2.788 9.631-6.931 12.044z"/>
</svg>
