<svg version="1.1" xmlns="http://www.w3.org/2000/svg" width="32" height="32" viewBox="0 0 32 32">
<path fill="currentColor" d="M31.292 9.968c-0.056-0.226-0.201-0.41-0.396-0.516l-0.004-0.002c-0.117-0.063-0.257-0.1-0.405-0.1-0.080 0-0.157 0.011-0.231 0.031l0.006-0.001-1.65 0.414-0.003-0.012-1.471 0.382-0.038-0.136c-1.031-3.804-2.895-7.087-5.392-9.774l0.013 0.014c-0.16-0.165-0.385-0.268-0.633-0.268-0.234 0-0.446 0.091-0.604 0.24l0-0-6.431 6.422h-12.494c-0.001 0-0.002 0-0.003 0-0.858 0-1.554 0.695-1.556 1.553v15.56c0.002 0.859 0.698 1.555 1.557 1.556h12.504l6.443 6.42c0.155 0.155 0.368 0.25 0.604 0.25s0.449-0.096 0.604-0.25v0c0.008-0.008 0.016-0.016 0.023-0.024 1.774-1.902 3.238-4.122 4.291-6.562l0.057-0.149c0.372-0.857 0.741-1.913 1.040-2.998l0.041-0.177v-0.002l1.275 0.334 0.002-0.005 1.767 0.458c0.045 0.012 0.101 0.023 0.157 0.031l0.006 0.001c0.035 0.005 0.074 0.008 0.115 0.008 0.051 0 0.101-0.005 0.149-0.013l-0.005 0.001c0.322-0.064 0.575-0.304 0.656-0.614l0.001-0.006c0.452-1.814 0.711-3.896 0.711-6.039 0-2.137-0.258-4.215-0.745-6.202l0.037 0.178zM21.070 1.541l0.001 0.001h-0.001zM14.183 11.863l-3.288 5.706c-0.059 0.101-0.093 0.222-0.093 0.351 0 0.001 0 0.002 0 0.003v-0 2.887c-0.001 0.76-0.618 1.375-1.377 1.375-0 0-0 0-0 0h-0.213c-0 0-0.001 0-0.001 0-0.76 0-1.376-0.614-1.379-1.374v-2.855c0-0 0-0.001 0-0.002 0-0.126-0.032-0.244-0.089-0.347l0.002 0.004-3.225-5.762c-0.11-0.193-0.175-0.425-0.175-0.671 0-0.759 0.615-1.374 1.374-1.374 0.002 0 0.003 0 0.005 0h0.204c0 0 0.001 0 0.001 0 0.53 0 0.99 0.299 1.221 0.737l0.004 0.008 2.272 4.393 2.345-4.407c0.237-0.438 0.693-0.73 1.217-0.73 0.507 0 0.95 0.273 1.189 0.68l0.004 0.006c0.117 0.197 0.187 0.433 0.187 0.686s-0.069 0.49-0.19 0.693l0.003-0.006zM21.072 1.542c2.17 2.442 3.809 5.408 4.702 8.681l0.035 0.153 0.035 0.122-7.133 1.85v-4.134c-0.004-0.859-0.7-1.554-1.559-1.556h-1.21zM24.853 24.499v-0.003l-0.001 0.001c-0.982 2.286-2.246 4.253-3.78 5.973l0.019-0.021-5.137-5.118h1.199c0.86-0.001 1.556-0.697 1.559-1.556v-4.138l7.162 1.866c-0.322 1.193-0.671 2.189-1.080 3.153l0.059-0.158zM30.103 21.221l0.001 0.001-11.393-2.965v-4.533l11.392-2.951c0.357 1.57 0.562 3.373 0.562 5.224s-0.205 3.654-0.593 5.388l0.031-0.164z"/>
</svg>
