<svg version="1.1" xmlns="http://www.w3.org/2000/svg" width="24" height="32" viewBox="0 0 24 32">
<path fill="currentColor" d="M2.681 15.020l6.226 3.038c1.2 0.587 1.012 2.344-0.281 2.669l-6.72 1.676c-0.104 0.027-0.224 0.043-0.347 0.043-0.732 0-1.334-0.552-1.415-1.261l-0.001-0.007c-0.051-0.422-0.080-0.91-0.080-1.405 0-1.406 0.235-2.756 0.669-4.015l-0.026 0.087c0.196-0.569 0.726-0.97 1.35-0.97 0.228 0 0.443 0.053 0.633 0.148l-0.008-0.004zM5.431 29.973c1.409 0.977 3.082 1.681 4.889 1.996l0.075 0.011c0.072 0.013 0.156 0.021 0.241 0.021 0.769 0 1.396-0.61 1.423-1.373l0-0.002 0.244-6.926c0.044-1.331-1.594-1.994-2.488-1.006l-4.638 5.15c-0.227 0.252-0.365 0.586-0.365 0.953 0 0.487 0.244 0.917 0.616 1.174l0.005 0.003zM14.515 23.103l3.676 5.875c0.258 0.406 0.705 0.671 1.214 0.671 0.347 0 0.666-0.124 0.914-0.329l-0.002 0.002c1.375-1.142 2.486-2.551 3.262-4.152l0.032-0.074c0.085-0.178 0.135-0.387 0.135-0.607 0-0.632-0.407-1.168-0.974-1.361l-0.010-0.003-6.589-2.141c-1.269-0.406-2.363 0.988-1.657 2.119zM23.786 14.839c-0.754-1.709-1.82-3.154-3.138-4.321l-0.013-0.011c-0.25-0.22-0.58-0.354-0.941-0.354-0.491 0-0.923 0.247-1.181 0.624l-0.003 0.005-3.875 5.745c-0.744 1.106 0.294 2.538 1.575 2.169l6.665-1.907c0.601-0.181 1.032-0.73 1.032-1.379 0-0.207-0.044-0.403-0.122-0.581l0.004 0.009zM3.882 1.886c-0.483 0.236-0.809 0.724-0.809 1.287 0 0.262 0.071 0.508 0.194 0.719l-0.004-0.007 6.508 11.277c0.731 1.262 2.663 0.744 2.663-0.713v-13.021c0-0.004 0-0.008 0-0.013 0-0.783-0.634-1.417-1.417-1.417-0.040 0-0.080 0.002-0.12 0.005l0.005-0c-2.588 0.211-4.973 0.883-7.14 1.933l0.119-0.052z"/>
</svg>
