<svg version="1.1" xmlns="http://www.w3.org/2000/svg" width="40" height="32" viewBox="0 0 40 32">
<path fill="currentColor" d="M10.659 9.258v13.596l1.464 0.001 0.482 1.648 2.626-1.648h3.096v-13.597h-7.668zM16.768 21.379h-1.746l-1.744 1.094-0.318-1.092-0.744-0.003v-10.644h4.551v10.644zM9.364 15.479h-3.271c0.109-1.694 0.138-3.224 0.138-4.591h3.197s0.123-1.41-0.536-1.394h-5.531c0.218-0.82 0.492-1.666 0.82-2.542 0 0-1.504 0-2.017 1.348-0.212 0.556-0.826 2.696-1.919 4.883 0.368-0.040 1.586-0.074 2.303-1.388 0.132-0.368 0.157-0.416 0.321-0.908h1.804c0 0.656-0.075 4.18-0.105 4.59h-3.267c-0.734 0-0.973 1.476-0.973 1.476h4.099c-0.275 3.116-1.751 5.742-4.428 7.819 1.281 0.366 2.557-0.058 3.188-0.619 0 0 1.436-1.306 2.224-4.328l3.372 4.059s0.494-1.681-0.078-2.499c-0.474-0.558-1.754-2.066-2.299-2.613l-0.914 0.726c0.272-0.874 0.437-1.722 0.492-2.542h3.853s-0.006-1.476-0.474-1.476v0.001zM35.116 15.379c1.302-1.602 2.811-3.661 2.811-3.661s-1.166-0.925-1.711-0.254c-0.375 0.509-2.302 3.012-2.302 3.012l1.202 0.902zM25.735 11.686c-0.563-0.516-1.619 0.133-1.619 0.133s2.47 3.44 2.57 3.591l1.216-0.858s-1.604-2.351-2.166-2.866h-0.001zM40 16.147c-1.236 0-8.182 0.058-8.191 0.058v-6.313c0.301 0 0.776-0.025 1.428-0.075 2.555-0.151 4.383-0.25 5.486-0.301 0 0 0.764-1.699-0.037-2.090-0.192-0.074-1.448 0.286-1.448 0.286s-10.326 1.031-14.523 1.128c0.1 0.551 0.476 1.067 0.986 1.222 0.832 0.217 1.418 0.106 3.072 0.056 1.552-0.1 2.73-0.152 3.532-0.152v6.238h-8.342s0.176 1.394 1.594 1.428h6.746v4.433c0 0.873-0.699 1.374-1.53 1.32-0.88 0.007-1.63-0.072-2.606-0.113 0.124 0.248 0.396 0.899 1.207 1.365 0.617 0.301 1.011 0.411 1.626 0.411 1.848 0 2.854-1.080 2.806-2.832v-4.582h7.647c0.605 0 0.544-1.486 0.544-1.486l0.002-0.001z"/>
</svg>
