<svg version="1.1" xmlns="http://www.w3.org/2000/svg" width="20" height="32" viewBox="0 0 20 32">
<path fill="currentColor" d="M8.931 6c-1.344 0-2.638 0.531-3.588 1.487l-1.931 1.925c-0.781 0.781-2.050 0.781-2.831 0s-0.781-2.050 0-2.831l1.931-1.925c1.706-1.7 4.013-2.656 6.419-2.656 5.006 0 9.069 4.063 9.069 9.069 0 2.406-0.956 4.713-2.656 6.412l-8.512 8.519h11.169c1.106 0 2 0.894 2 2s-0.894 2-2 2h-16c-0.806 0-1.538-0.488-1.85-1.238s-0.138-1.606 0.431-2.181l11.931-11.925c0.95-0.95 1.488-2.244 1.488-3.588 0-2.8-2.269-5.069-5.069-5.069z"/>
</svg>