<svg version="1.1" xmlns="http://www.w3.org/2000/svg" width="20" height="32" viewBox="0 0 20 32">
<path fill="currentColor" d="M0 4c0-1.106 0.894-2 2-2h15c0.825 0 1.563 0.506 1.863 1.275s0.094 1.644-0.512 2.2l-8.206 7.525h1.356c4.694 0 8.5 3.806 8.5 8.5s-3.806 8.5-8.5 8.5h-4.912c-2.65 0-5.075-1.5-6.256-3.869l-0.119-0.238c-0.494-0.988-0.094-2.188 0.894-2.681s2.188-0.094 2.681 0.894l0.119 0.238c0.506 1.019 1.55 1.656 2.681 1.656h4.912c2.488 0 4.5-2.012 4.5-4.5s-2.012-4.5-4.5-4.5h-6.5c-0.825 0-1.563-0.506-1.862-1.275s-0.094-1.644 0.513-2.2l8.206-7.525h-9.856c-1.106 0-2-0.894-2-2z"/>
</svg>