<svg version="1.1" xmlns="http://www.w3.org/2000/svg" width="20" height="32" viewBox="0 0 20 32">
<path fill="currentColor" d="M2.031 3.644c0.175-0.95 1-1.644 1.969-1.644h12c1.106 0 2 0.894 2 2s-0.894 2-2 2h-10.331l-1.275 7h7.106c4.694 0 8.5 3.806 8.5 8.5s-3.806 8.5-8.5 8.5h-5.219c-2.462 0-4.713-1.394-5.813-3.594l-0.256-0.512c-0.494-0.988-0.094-2.188 0.894-2.681s2.188-0.094 2.681 0.894l0.256 0.512c0.425 0.85 1.288 1.381 2.237 1.381h5.219c2.488 0 4.5-2.012 4.5-4.5s-2.012-4.5-4.5-4.5h-9.5c-0.594 0-1.156-0.262-1.538-0.719s-0.537-1.056-0.431-1.637l2-11z"/>
</svg>