<svg version="1.1" xmlns="http://www.w3.org/2000/svg" width="20" height="32" viewBox="0 0 20 32">
<path fill="currentColor" d="M19 10c0-4.419-3.581-8-8-8h-2c-4.419 0-8 3.581-8 8 0 2.162 0.856 4.125 2.25 5.563-1.969 1.456-3.25 3.8-3.25 6.438 0 4.419 3.581 8 8 8h4c4.419 0 8-3.581 8-8 0-2.637-1.281-4.981-3.25-6.438 1.394-1.438 2.25-3.4 2.25-5.563zM11.006 18h0.994c2.206 0 4 1.794 4 4s-1.794 4-4 4h-4c-2.206 0-4-1.794-4-4s1.794-4 4-4h0.994c0 0 0.006 0 0.006 0h2c0 0 0.006 0 0.006 0zM11.006 14c0 0 0 0 0 0h-2.006c0 0 0 0 0 0-2.206 0-4-1.794-4-4s1.794-4 4-4h2c2.206 0 4 1.794 4 4s-1.787 4-4 4z"/>
</svg>