<svg version="1.1" xmlns="http://www.w3.org/2000/svg" width="36" height="32" viewBox="0 0 36 32">
<path fill="currentColor" d="M4 2c-2.206 0-4 1.794-4 4v20c0 2.206 1.794 4 4 4h28c2.206 0 4-1.794 4-4v-20c0-2.206-1.794-4-4-4h-28zM9 18h4c2.762 0 5 2.238 5 5 0 0.55-0.45 1-1 1h-12c-0.55 0-1-0.45-1-1 0-2.762 2.237-5 5-5zM7 12c0-2.209 1.791-4 4-4s4 1.791 4 4v0c0 2.209-1.791 4-4 4s-4-1.791-4-4v0zM23 10h8c0.55 0 1 0.45 1 1s-0.45 1-1 1h-8c-0.55 0-1-0.45-1-1s0.45-1 1-1zM23 14h8c0.55 0 1 0.45 1 1s-0.45 1-1 1h-8c-0.55 0-1-0.45-1-1s0.45-1 1-1zM23 18h8c0.55 0 1 0.45 1 1s-0.45 1-1 1h-8c-0.55 0-1-0.45-1-1s0.45-1 1-1z"/>
</svg>