<svg version="1.1" xmlns="http://www.w3.org/2000/svg" width="40" height="32" viewBox="0 0 40 32">
<path fill="currentColor" d="M20 6c0 1.105-0.895 2-2 2s-2-0.895-2-2v0c0-1.105 0.895-2 2-2s2 0.895 2 2v0zM21.319 11c1.619-1.075 2.681-2.912 2.681-5 0-3.313-2.688-6-6-6s-6 2.688-6 6c0 2.088 1.063 3.925 2.681 5h-0.681c-1.106 0-2 0.894-2 2s0.894 2 2 2h2v13h-3c-3.313 0-6-2.688-6-6v-0.381l0.438 0.438c0.588 0.587 1.537 0.587 2.119 0s0.588-1.538 0-2.119l-3.494-3.5c-0.588-0.588-1.537-0.588-2.119 0l-3.506 3.5c-0.588 0.587-0.588 1.538 0 2.119s1.538 0.587 2.119 0l0.438-0.438v0.381c0 5.525 4.475 10 10 10h10c0.512 0 1.019-0.038 1.512-0.113-1.387-1.012-2.525-2.344-3.313-3.887h-1.194v-13h2c1.106 0 2-0.894 2-2s-0.894-2-2-2h-0.681zM31 32c4.971 0 9-4.029 9-9s-4.029-9-9-9v0c-4.971 0-9 4.029-9 9s4.029 9 9 9v0zM31 26c0.828 0 1.5 0.672 1.5 1.5s-0.672 1.5-1.5 1.5v0c-0.828 0-1.5-0.672-1.5-1.5s0.672-1.5 1.5-1.5v0zM31 17c0.55 0 1 0.45 1 1v5c0 0.55-0.45 1-1 1s-1-0.45-1-1v-5c0-0.55 0.45-1 1-1z"/>
</svg>