<svg version="1.1" xmlns="http://www.w3.org/2000/svg" width="40" height="32" viewBox="0 0 40 32">
<path fill="currentColor" d="M20 6c0 1.105-0.895 2-2 2s-2-0.895-2-2v0c0-1.105 0.895-2 2-2s2 0.895 2 2v0zM21.319 11c1.619-1.075 2.681-2.912 2.681-5 0-3.313-2.688-6-6-6s-6 2.688-6 6c0 2.088 1.063 3.925 2.681 5h-0.681c-1.106 0-2 0.894-2 2s0.894 2 2 2h2v13h-3c-3.313 0-6-2.688-6-6v-0.381l0.438 0.438c0.588 0.587 1.537 0.587 2.119 0s0.588-1.538 0-2.119l-3.494-3.5c-0.588-0.588-1.537-0.588-2.119 0l-3.506 3.5c-0.588 0.587-0.588 1.538 0 2.119s1.538 0.587 2.119 0l0.438-0.438v0.381c0 5.525 4.475 10 10 10h10c0.5 0 0.994-0.038 1.475-0.106-0.3-0.563-0.475-1.206-0.475-1.894v-2.081c-0.325 0.056-0.656 0.081-1 0.081h-2.994v-13h2c1.106 0 2-0.894 2-2s-0.894-2-2-2h-0.681zM33 15c1.106 0 2 0.894 2 2v3h-4v-3c0-1.106 0.894-2 2-2zM28 17v3c-1.106 0-2 0.894-2 2v8c0 1.106 0.894 2 2 2h10c1.106 0 2-0.894 2-2v-8c0-1.106-0.894-2-2-2v-3c0-2.762-2.237-5-5-5s-5 2.238-5 5z"/>
</svg>