<svg version="1.1" xmlns="http://www.w3.org/2000/svg" width="28" height="32" viewBox="0 0 28 32">
<path fill="currentColor" d="M15.412 29.413c-0.781 0.781-2.050 0.781-2.831 0l-10-10c-0.781-0.781-0.781-2.050 0-2.831s2.050-0.781 2.831 0l8.587 8.588 8.587-8.581c0.781-0.781 2.050-0.781 2.831 0s0.781 2.050 0 2.831l-10 10zM25.413 7.412l-10 10c-0.781 0.781-2.050 0.781-2.831 0l-10-10c-0.781-0.781-0.781-2.050 0-2.831s2.050-0.781 2.831 0l8.587 8.588 8.587-8.581c0.781-0.781 2.050-0.781 2.831 0s0.781 2.050 0 2.831z"/>
</svg>