<svg version="1.1" xmlns="http://www.w3.org/2000/svg" width="32" height="32" viewBox="0 0 32 32">
<path fill="currentColor" d="M29.413 17.413c0.781-0.781 0.781-2.050 0-2.831l-10-10c-0.781-0.781-2.050-0.781-2.831 0s-0.781 2.050 0 2.831l8.588 8.587-8.581 8.587c-0.781 0.781-0.781 2.050 0 2.831s2.050 0.781 2.831 0l10-10zM7.412 27.413l10-10c0.781-0.781 0.781-2.050 0-2.831l-10-10c-0.781-0.781-2.050-0.781-2.831 0s-0.781 2.050 0 2.831l8.588 8.587-8.581 8.587c-0.781 0.781-0.781 2.050 0 2.831s2.050 0.781 2.831 0z"/>
</svg>