<svg version="1.1" xmlns="http://www.w3.org/2000/svg" width="20" height="32" viewBox="0 0 20 32">
<path fill="currentColor" d="M6 8c0-2.206 1.794-4 4-4s4 1.794 4 4c0 2.6-1.294 4.787-2.912 6.506-0.369 0.387-0.738 0.738-1.088 1.044-0.35-0.306-0.719-0.656-1.088-1.044-1.619-1.719-2.912-3.906-2.912-6.506zM10 0c-4.419 0-8 3.581-8 8 0 3.275 1.344 5.969 2.925 8h-2.925c-1.106 0-2 0.894-2 2s0.894 2 2 2h6v10c0 1.106 0.894 2 2 2s2-0.894 2-2v-10h6c1.106 0 2-0.894 2-2s-0.894-2-2-2h-2.925c1.587-2.031 2.925-4.725 2.925-8 0-4.419-3.581-8-8-8z"/>
</svg>