<svg version="1.1" xmlns="http://www.w3.org/2000/svg" width="28" height="32" viewBox="0 0 28 32">
<path fill="currentColor" d="M14 7c-0.55 0-1-0.45-1-1v-1c0-2.763 2.238-5 5-5h1c0.55 0 1 0.45 1 1v1c0 2.763-2.238 5-5 5h-1zM0 18c0-4.769 2.231-10 7-10 1.706 0 3.731 0.644 5.169 1.206 1.175 0.456 2.494 0.456 3.669 0 1.431-0.556 3.462-1.206 5.169-1.206 4.769 0 7 5.231 7 10 0 8-5 14-10 14-1.031 0-2.381-0.413-3.219-0.706-0.506-0.175-1.056-0.175-1.563 0-0.838 0.294-2.188 0.706-3.219 0.706-5.006 0-10.006-6-10.006-14z"/>
</svg>