<svg version="1.1" xmlns="http://www.w3.org/2000/svg" width="36" height="32" viewBox="0 0 36 32">
<path fill="currentColor" d="M10 2c0.563 0 1.094 0.237 1.475 0.65l5.5 6c0.744 0.813 0.694 2.081-0.125 2.825s-2.081 0.694-2.825-0.125l-2.025-2.206v18.856c0 1.106-0.894 2-2 2s-2-0.894-2-2v-18.856l-2.025 2.206c-0.744 0.813-2.013 0.869-2.825 0.125s-0.869-2.012-0.125-2.825l5.5-6c0.381-0.413 0.912-0.65 1.475-0.65zM28.169 18.375c0.519 0.375 0.831 0.981 0.831 1.625v6h1c1.106 0 2 0.894 2 2s-0.894 2-2 2h-6c-1.106 0-2-0.894-2-2s0.894-2 2-2h1v-3.225l-0.369 0.125c-1.050 0.35-2.181-0.219-2.531-1.262s0.219-2.181 1.262-2.531l3-1c0.613-0.206 1.281-0.1 1.8 0.275zM27.856 9.306c0.683-0.329 1.145-1.015 1.145-1.809 0-1.106-0.896-2.002-2.002-2.002-0.311 0-0.606 0.071-0.868 0.198l0.012-0.005c-0.683 0.329-1.145 1.015-1.145 1.809 0 1.106 0.896 2.002 2.002 2.002 0.311 0 0.606-0.071 0.868-0.198l-0.012 0.005zM25.313 12.738c-2.212-0.713-3.813-2.787-3.813-5.237 0-3.038 2.462-5.5 5.5-5.5s5.5 2.462 5.5 5.5c0 1.469-0.469 2.894-1.344 4.075l-3.050 4.112c-0.656 0.887-1.913 1.075-2.8 0.419s-1.075-1.912-0.419-2.8l0.425-0.575z"/>
</svg>