<svg version="1.1" xmlns="http://www.w3.org/2000/svg" width="36" height="32" viewBox="0 0 36 32">
<path fill="currentColor" d="M2 6h32c1.106 0 2-0.894 2-2s-0.894-2-2-2h-32c-1.106 0-2 0.894-2 2s0.894 2 2 2zM0.588 14.588c-0.781 0.781-0.781 2.050 0 2.831s2.050 0.781 2.831 0l2.581-2.588v13.169c0 1.106 0.894 2 2 2s2-0.894 2-2v-13.169l2.588 2.587c0.781 0.781 2.050 0.781 2.831 0s0.781-2.050 0-2.831l-6-6c-0.781-0.781-2.050-0.781-2.831 0l-6 6zM20.587 17.419c0.781 0.781 2.050 0.781 2.831 0l2.581-2.588v13.169c0 1.106 0.894 2 2 2s2-0.894 2-2v-13.169l2.587 2.587c0.781 0.781 2.050 0.781 2.831 0s0.781-2.050 0-2.831l-6-6c-0.781-0.781-2.050-0.781-2.831 0l-6 6c-0.781 0.781-0.781 2.050 0 2.831z"/>
</svg>