<svg version="1.1" xmlns="http://www.w3.org/2000/svg" width="36" height="32" viewBox="0 0 36 32">
<path fill="currentColor" d="M18 22c1.106 0 2-0.894 2-2v-13.169l1.587 1.588c0.781 0.781 2.050 0.781 2.831 0s0.781-2.050 0-2.831l-5-5c-0.781-0.781-2.050-0.781-2.831 0l-5 5c-0.781 0.781-0.781 2.050 0 2.831s2.050 0.781 2.831 0l1.581-1.588v13.169c0 1.106 0.894 2 2 2zM16.844 26.369c-1.406 0.969-3.125 1.631-4.844 1.631-1.681 0-3.456-0.675-4.838-1.631v0c-0.744-0.531-1.756-0.488-2.45 0.106-0.9 0.744-2.031 1.313-3.163 1.575-1.075 0.25-1.744 1.325-1.494 2.4s1.325 1.744 2.4 1.494c1.531-0.356 2.806-1.031 3.638-1.563 1.813 0.975 3.844 1.619 5.906 1.619 1.994 0 3.787-0.619 5.025-1.181 0.363-0.169 0.694-0.331 0.975-0.481 0.281 0.15 0.606 0.319 0.975 0.481 1.238 0.563 3.031 1.181 5.025 1.181 2.063 0 4.094-0.644 5.906-1.613 0.837 0.525 2.106 1.206 3.638 1.563 1.075 0.25 2.15-0.419 2.4-1.494s-0.419-2.15-1.494-2.4c-1.131-0.262-2.263-0.831-3.163-1.575-0.694-0.587-1.706-0.631-2.45-0.106v0c-1.375 0.95-3.156 1.625-4.838 1.625-1.719 0-3.438-0.663-4.844-1.631-0.694-0.494-1.619-0.494-2.313 0zM12 12h-9c-1.656 0-3 1.344-3 3v11.563c0.331-0.194 0.7-0.337 1.094-0.431 0.819-0.194 1.669-0.613 2.331-1.163 1.388-1.169 3.394-1.256 4.881-0.212 1.125 0.775 2.506 1.269 3.694 1.269v-14.025zM36 15c0-1.656-1.344-3-3-3h-9v14.031c1.188 0 2.575-0.494 3.7-1.269 1.488-1.044 3.488-0.956 4.881 0.212 0.663 0.55 1.513 0.975 2.331 1.163 0.394 0.094 0.756 0.238 1.094 0.431v-11.569z"/>
</svg>