<svg version="1.1" xmlns="http://www.w3.org/2000/svg" width="40" height="32" viewBox="0 0 40 32">
<path fill="currentColor" d="M2 4c1.106 0 2 0.894 2 2v20c0 1.106-0.894 2-2 2s-2-0.894-2-2v-20c0-1.106 0.894-2 2-2zM15.412 8.588c0.781 0.781 0.781 2.050 0 2.831l-2.581 2.581h14.344l-2.587-2.588c-0.781-0.781-0.781-2.050 0-2.831s2.050-0.781 2.831 0l6 6c0.781 0.781 0.781 2.050 0 2.831l-6 6c-0.781 0.781-2.050 0.781-2.831 0s-0.781-2.050 0-2.831l2.581-2.581h-14.344l2.588 2.587c0.781 0.781 0.781 2.050 0 2.831s-2.050 0.781-2.831 0l-6-6c-0.781-0.781-0.781-2.050 0-2.831l6-6c0.781-0.781 2.050-0.781 2.831 0zM40 6v20c0 1.106-0.894 2-2 2s-2-0.894-2-2v-20c0-1.106 0.894-2 2-2s2 0.894 2 2z"/>
</svg>