<svg version="1.1" xmlns="http://www.w3.org/2000/svg" width="36" height="32" viewBox="0 0 36 32">
<path fill="currentColor" d="M8.588 31.413c0.781 0.781 2.050 0.781 2.831 0l6-6c0.781-0.781 0.781-2.050 0-2.831s-2.050-0.781-2.831 0l-2.588 2.587v-7.169h22c1.106 0 2-0.894 2-2s-0.894-2-2-2h-6v-7.169l2.587 2.587c0.781 0.781 2.050 0.781 2.831 0s0.781-2.050 0-2.831l-6-6c-0.781-0.781-2.050-0.781-2.831 0l-6 6c-0.781 0.781-0.781 2.050 0 2.831s2.050 0.781 2.831 0l2.581-2.588v7.169h-22c-1.106 0-2 0.894-2 2s0.894 2 2 2h6v7.169l-2.588-2.581c-0.781-0.781-2.050-0.781-2.831 0s-0.781 2.050 0 2.831l6 6zM8 12h4v-8c0-1.106-0.894-2-2-2s-2 0.894-2 2v8zM28 20h-4v8c0 1.106 0.894 2 2 2s2-0.894 2-2v-8z"/>
</svg>