<svg version="1.1" xmlns="http://www.w3.org/2000/svg" width="32" height="32" viewBox="0 0 32 32">
<path fill="currentColor" d="M17.413 0.588c-0.781-0.781-2.050-0.781-2.831 0l-4 4c-0.781 0.781-0.781 2.050 0 2.831s2.050 0.781 2.831 0l0.588-0.588v7.169h-7.169l0.588-0.588c0.781-0.781 0.781-2.050 0-2.831s-2.050-0.781-2.831 0l-4 4c-0.781 0.781-0.781 2.050 0 2.831l4 4c0.781 0.781 2.050 0.781 2.831 0s0.781-2.050 0-2.831l-0.588-0.587h7.169v7.175l-0.588-0.587c-0.781-0.781-2.050-0.781-2.831 0s-0.781 2.050 0 2.831l4 4c0.781 0.781 2.050 0.781 2.831 0l4-4c0.781-0.781 0.781-2.050 0-2.831s-2.050-0.781-2.831 0l-0.587 0.587v-7.169h7.175l-0.587 0.587c-0.781 0.781-0.781 2.050 0 2.831s2.050 0.781 2.831 0l4-4c0.781-0.781 0.781-2.050 0-2.831l-4-4c-0.781-0.781-2.050-0.781-2.831 0s-0.781 2.050 0 2.831l0.587 0.588h-7.169v-7.175l0.587 0.588c0.781 0.781 2.050 0.781 2.831 0s0.781-2.050 0-2.831l-4-4z"/>
</svg>