<svg version="1.1" xmlns="http://www.w3.org/2000/svg" width="32" height="32" viewBox="0 0 32 32">
<path fill="currentColor" d="M15.588 1.587c0.781-0.781 2.050-0.781 2.831 0s0.781 2.050 0 2.831l-1.587 1.581h9.169c3.313 0 6 2.688 6 6v2c0 1.106-0.894 2-2 2s-2-0.894-2-2v-2c0-1.106-0.894-2-2-2h-9.169l1.587 1.588c0.781 0.781 0.781 2.050 0 2.831s-2.050 0.781-2.831 0l-5-5c-0.781-0.781-0.781-2.050 0-2.831l5-5zM16.419 17.587l5 5c0.781 0.781 0.781 2.050 0 2.831l-5 5c-0.781 0.781-2.050 0.781-2.831 0s-0.781-2.050 0-2.831l1.581-1.587h-9.169c-1.106 0-2 0.894-2 2v2c0 1.106-0.894 2-2 2s-2-0.894-2-2v-2c0-3.313 2.688-6 6-6h9.169l-1.588-1.587c-0.781-0.781-0.781-2.050 0-2.831s2.050-0.781 2.831 0zM24 24c0-2.209 1.791-4 4-4s4 1.791 4 4v0c0 2.209-1.791 4-4 4s-4-1.791-4-4v0zM4 12c-2.209 0-4-1.791-4-4s1.791-4 4-4v0c2.209 0 4 1.791 4 4s-1.791 4-4 4v0z"/>
</svg>