<svg version="1.1" xmlns="http://www.w3.org/2000/svg" width="40" height="32" viewBox="0 0 40 32">
<path fill="currentColor" d="M18 3c0-1.656 1.344-3 3-3h6c1.656 0 3 1.344 3 3v9h2.5v-4.5c0-0.831 0.669-1.5 1.5-1.5s1.5 0.669 1.5 1.5v4.5h1.5c1.656 0 3 1.344 3 3v14c0 1.656-1.344 3-3 3h-16c-1.656 0-3-1.344-3-3v-26zM22 5v2c0 0.55 0.45 1 1 1h2c0.55 0 1-0.45 1-1v-2c0-0.55-0.45-1-1-1h-2c-0.55 0-1 0.45-1 1zM23 10c-0.55 0-1 0.45-1 1v2c0 0.55 0.45 1 1 1h2c0.55 0 1-0.45 1-1v-2c0-0.55-0.45-1-1-1h-2zM22 17v2c0 0.55 0.45 1 1 1h2c0.55 0 1-0.45 1-1v-2c0-0.55-0.45-1-1-1h-2c-0.55 0-1 0.45-1 1zM33 16c-0.55 0-1 0.45-1 1v2c0 0.55 0.45 1 1 1h2c0.55 0 1-0.45 1-1v-2c0-0.55-0.45-1-1-1h-2zM32 23v2c0 0.55 0.45 1 1 1h2c0.55 0 1-0.45 1-1v-2c0-0.55-0.45-1-1-1h-2c-0.55 0-1 0.45-1 1zM10.412 9.588l5 5c0.781 0.781 0.781 2.050 0 2.831l-5 5c-0.781 0.781-2.050 0.781-2.831 0s-0.781-2.050 0-2.831l1.587-1.587h-7.169c-1.106 0-2-0.894-2-2s0.894-2 2-2h7.169l-1.588-1.588c-0.781-0.781-0.781-2.050 0-2.831s2.050-0.781 2.831 0z"/>
</svg>