<svg version="1.1" xmlns="http://www.w3.org/2000/svg" width="28" height="32" viewBox="0 0 28 32">
<path fill="currentColor" d="M15.412 0.588c-0.781-0.781-2.050-0.781-2.831 0l-8 8c-0.781 0.781-0.781 2.050 0 2.831s2.050 0.781 2.831 0l4.587-4.588v13.169c0 1.106 0.894 2 2 2s2-0.894 2-2v-13.169l4.587 4.588c0.781 0.781 2.050 0.781 2.831 0s0.781-2.050 0-2.831l-8-8zM4 22c0-1.106-0.894-2-2-2s-2 0.894-2 2v4c0 3.313 2.688 6 6 6h16c3.313 0 6-2.688 6-6v-4c0-1.106-0.894-2-2-2s-2 0.894-2 2v4c0 1.106-0.894 2-2 2h-16c-1.106 0-2-0.894-2-2v-4z"/>
</svg>