<svg version="1.1" xmlns="http://www.w3.org/2000/svg" width="40" height="32" viewBox="0 0 40 32">
<path fill="currentColor" d="M0.588 0.588c0.781-0.781 2.044-0.781 2.825 0l6.588 6.581v-1.169c0-1.106 0.894-2 2-2s2 0.894 2 2v6c0 0.269-0.056 0.531-0.15 0.762-0.1 0.231-0.238 0.456-0.431 0.644l-0.006 0.006c-0.194 0.188-0.412 0.331-0.644 0.431-0.238 0.1-0.494 0.15-0.762 0.15h-6.006c-1.106 0-2-0.894-2-2s0.894-2 2-2h1.169l-6.581-6.581c-0.781-0.781-0.781-2.044 0-2.825zM16 16c0-2.209 1.791-4 4-4s4 1.791 4 4v0c0 2.209-1.791 4-4 4s-4-1.791-4-4v0zM7.169 22h-1.169c-1.106 0-2-0.894-2-2s0.894-2 2-2h6.006c0.55 0 1.044 0.225 1.406 0.581l0.006 0.006c0.188 0.194 0.331 0.413 0.431 0.644 0.1 0.238 0.15 0.494 0.15 0.762v6c0 1.106-0.894 2-2 2s-2-0.894-2-2v-1.163l-6.588 6.581c-0.781 0.781-2.050 0.781-2.831 0s-0.781-2.050 0-2.831l6.588-6.581zM26 6c0-1.106 0.894-2 2-2s2 0.894 2 2v1.169l6.587-6.581c0.781-0.781 2.050-0.781 2.831 0s0.781 2.050 0 2.831l-6.587 6.581h1.169c1.106 0 2 0.894 2 2s-0.894 2-2 2h-6c-0.55 0-1.050-0.225-1.413-0.581l-0.006-0.006c-0.188-0.194-0.331-0.412-0.431-0.644s-0.15-0.488-0.15-0.762v-6.006zM32.831 22l6.581 6.587c0.781 0.781 0.781 2.050 0 2.831s-2.050 0.781-2.831 0l-6.581-6.588v1.169c0 1.106-0.894 2-2 2s-2-0.894-2-2v-6c0 0 0-0.006 0-0.006 0-0.269 0.056-0.525 0.15-0.762 0.1-0.238 0.244-0.456 0.431-0.65 0.363-0.363 0.856-0.581 1.406-0.587 0 0 0.006 0 0.006 0v0h6c1.106 0 2 0.894 2 2s-0.894 2-2 2h-1.163z"/>
</svg>