<svg version="1.1" xmlns="http://www.w3.org/2000/svg" width="32" height="32" viewBox="0 0 32 32">
<path fill="currentColor" d="M25.413 23.413l6-6c0.781-0.781 0.781-2.050 0-2.831l-6-6c-0.781-0.781-2.050-0.781-2.831 0s-0.781 2.050 0 2.831l2.587 2.588h-18.344l2.588-2.588c0.781-0.781 0.781-2.050 0-2.831s-2.050-0.781-2.831 0l-6 6c-0.781 0.781-0.781 2.050 0 2.831l6 6c0.781 0.781 2.050 0.781 2.831 0s0.781-2.050 0-2.831l-2.581-2.581h18.344l-2.587 2.587c-0.781 0.781-0.781 2.050 0 2.831s2.050 0.781 2.831 0z"/>
</svg>