<svg version="1.1" xmlns="http://www.w3.org/2000/svg" width="40" height="32" viewBox="0 0 40 32">
<path fill="currentColor" d="M9.412 31.413l6-6c0.781-0.781 0.781-2.050 0-2.831s-2.050-0.781-2.831 0l-2.581 2.587v-7.169h16v-1c0-1.075 0.244-2.094 0.675-3h-4.675v-7.169l2.587 2.587c0.781 0.781 2.050 0.781 2.831 0s0.781-2.050 0-2.831l-6-6c-0.375-0.375-0.881-0.588-1.413-0.588s-1.038 0.212-1.413 0.588l-6 6c-0.781 0.781-0.781 2.050 0 2.831s2.050 0.781 2.831 0l2.575-2.588v7.169h-16c-1.106 0-2 0.894-2 2s0.894 2 2 2h4v7.169l-2.587-2.581c-0.781-0.781-2.050-0.781-2.831 0s-0.781 2.050 0 2.831l6 6c0.781 0.781 2.050 0.781 2.831 0zM10 12v-8c0-1.106-0.894-2-2-2s-2 0.894-2 2v8h4zM18 20v8c0 1.106 0.894 2 2 2s2-0.894 2-2v-8h-4zM33 15c1.106 0 2 0.894 2 2v3h-4v-3c0-1.106 0.894-2 2-2zM28 17v3c-1.106 0-2 0.894-2 2v8c0 1.106 0.894 2 2 2h10c1.106 0 2-0.894 2-2v-8c0-1.106-0.894-2-2-2v-3c0-2.762-2.237-5-5-5s-5 2.238-5 5z"/>
</svg>