<svg version="1.1" xmlns="http://www.w3.org/2000/svg" width="28" height="32" viewBox="0 0 28 32">
<path fill="currentColor" d="M27.413 9.412c0.781-0.781 0.781-2.050 0-2.831l-6-6c-0.781-0.781-2.050-0.781-2.831 0s-0.781 2.050 0 2.831l2.587 2.588h-19.169c-1.106 0-2 0.894-2 2s0.894 2 2 2h19.169l-2.587 2.588c-0.781 0.781-0.781 2.050 0 2.831s2.050 0.781 2.831 0l6-6zM6.581 31.413c0.781 0.781 2.050 0.781 2.831 0s0.781-2.050 0-2.831l-2.581-2.581h19.169c1.106 0 2-0.894 2-2s-0.894-2-2-2h-19.169l2.588-2.587c0.781-0.781 0.781-2.050 0-2.831s-2.050-0.781-2.831 0l-6 6c-0.781 0.781-0.781 2.050 0 2.831l6 6z"/>
</svg>