<svg version="1.1" xmlns="http://www.w3.org/2000/svg" width="36" height="32" viewBox="0 0 36 32">
<path fill="currentColor" d="M34 26h-32c-1.106 0-2 0.894-2 2s0.894 2 2 2h32c1.106 0 2-0.894 2-2s-0.894-2-2-2zM35.413 17.413c0.781-0.781 0.781-2.050 0-2.831s-2.050-0.781-2.831 0l-2.581 2.587v-13.169c0-1.106-0.894-2-2-2s-2 0.894-2 2v13.169l-2.587-2.588c-0.781-0.781-2.050-0.781-2.831 0s-0.781 2.050 0 2.831l6 6c0.781 0.781 2.050 0.781 2.831 0l6-6zM15.412 14.581c-0.781-0.781-2.050-0.781-2.831 0l-2.581 2.587v-13.169c0-1.106-0.894-2-2-2s-2 0.894-2 2v13.169l-2.587-2.581c-0.781-0.781-2.050-0.781-2.831 0s-0.781 2.050 0 2.831l6 6c0.781 0.781 2.050 0.781 2.831 0l6-6c0.781-0.781 0.781-2.050 0-2.831z"/>
</svg>