<svg version="1.1" xmlns="http://www.w3.org/2000/svg" width="40" height="32" viewBox="0 0 40 32">
<path fill="currentColor" d="M0.938 0.938c0.587-0.581 1.538-0.581 2.125 0l3.938 3.938v-2.375c0-0.831 0.669-1.5 1.5-1.5s1.5 0.669 1.5 1.5v6c0 0.831-0.669 1.5-1.5 1.5h-6c-0.831 0-1.5-0.669-1.5-1.5s0.669-1.5 1.5-1.5h2.381l-3.944-3.938c-0.581-0.587-0.581-1.538 0-2.125zM8.344 15.244c1.569-3.144 5.575-8.244 11.656-8.244s10.087 5.1 11.656 8.244c0.238 0.475 0.238 1.031 0 1.513-1.569 3.144-5.575 8.244-11.656 8.244s-10.088-5.1-11.656-8.244c-0.238-0.475-0.238-1.031 0-1.512zM20 20c2.209 0 4-1.791 4-4s-1.791-4-4-4v0c-2.209 0-4 1.791-4 4s1.791 4 4 4v0zM36.938 0.938c0.587-0.588 1.538-0.588 2.119 0s0.587 1.538 0 2.119l-3.938 3.938h2.381c0.831 0 1.5 0.669 1.5 1.5s-0.669 1.5-1.5 1.5h-6c-0.831 0-1.5-0.669-1.5-1.5v-5.994c0-0.831 0.669-1.5 1.5-1.5s1.5 0.669 1.5 1.5v2.381l3.938-3.938zM0.938 31.063c-0.588-0.587-0.588-1.538 0-2.119l3.938-3.938h-2.375c-0.831 0-1.5-0.669-1.5-1.5s0.669-1.5 1.5-1.5h6c0.831 0 1.5 0.669 1.5 1.5v6c0 0.831-0.669 1.5-1.5 1.5s-1.5-0.669-1.5-1.5v-2.387l-3.938 3.944c-0.587 0.587-1.538 0.587-2.119 0zM36.938 31.063l-3.938-3.938v2.375c0 0.831-0.669 1.5-1.5 1.5s-1.5-0.669-1.5-1.5v-6c0-0.831 0.669-1.5 1.5-1.5h6c0.831 0 1.5 0.669 1.5 1.5s-0.669 1.5-1.5 1.5h-2.381l3.938 3.938c0.587 0.587 0.587 1.538 0 2.119s-1.538 0.587-2.119 0z"/>
</svg>