<svg version="1.1" xmlns="http://www.w3.org/2000/svg" width="36" height="32" viewBox="0 0 36 32">
<path fill="currentColor" d="M11.475 2.65c-0.381-0.413-0.912-0.65-1.475-0.65s-1.094 0.237-1.475 0.65l-5.5 6c-0.744 0.813-0.694 2.081 0.125 2.825s2.081 0.694 2.825-0.125l2.025-2.206v18.856c0 1.106 0.894 2 2 2s2-0.894 2-2v-18.856l2.025 2.213c0.744 0.813 2.013 0.869 2.825 0.125s0.869-2.013 0.125-2.825l-5.5-6zM20 4c0 1.106 0.894 2 2 2h3.169l-4.588 4.588c-0.575 0.575-0.744 1.431-0.431 2.181s1.038 1.238 1.85 1.238h8c1.106 0 2-0.894 2-2s-0.894-2-2-2h-3.169l4.588-4.588c0.575-0.575 0.744-1.431 0.431-2.181s-1.038-1.238-1.85-1.238h-8c-1.106 0-2 0.894-2 2zM26 16c-0.756 0-1.45 0.425-1.788 1.106l-5 10c-0.494 0.988-0.094 2.188 0.894 2.681s2.188 0.094 2.681-0.894l0.45-0.894h5.525l0.45 0.894c0.494 0.988 1.694 1.387 2.681 0.894s1.387-1.694 0.894-2.681l-5-10c-0.337-0.681-1.031-1.106-1.788-1.106zM24.738 25l1.262-2.525 1.262 2.525h-2.525z"/>
</svg>