<svg version="1.1" xmlns="http://www.w3.org/2000/svg" width="36" height="32" viewBox="0 0 36 32">
<path fill="currentColor" d="M9.475 29.35c-0.381 0.413-0.912 0.65-1.475 0.65s-1.094-0.238-1.475-0.65l-5.5-6c-0.744-0.813-0.694-2.081 0.125-2.825s2.081-0.694 2.825 0.125l2.025 2.206v-18.856c0-1.106 0.894-2 2-2s2 0.894 2 2v18.856l2.025-2.212c0.744-0.813 2.013-0.869 2.825-0.125s0.869 2.012 0.125 2.825l-5.5 6zM20 30c-1.106 0-2-0.894-2-2s0.894-2 2-2h2c1.106 0 2 0.894 2 2s-0.894 2-2 2h-2zM20 22c-1.106 0-2-0.894-2-2s0.894-2 2-2h6c1.106 0 2 0.894 2 2s-0.894 2-2 2h-6zM20 14c-1.106 0-2-0.894-2-2s0.894-2 2-2h10c1.106 0 2 0.894 2 2s-0.894 2-2 2h-10zM20 6c-1.106 0-2-0.894-2-2s0.894-2 2-2h14c1.106 0 2 0.894 2 2s-0.894 2-2 2h-14z"/>
</svg>