<svg version="1.1" xmlns="http://www.w3.org/2000/svg" width="28" height="32" viewBox="0 0 28 32">
<path fill="currentColor" d="M18.587 0.588c0.781-0.781 2.050-0.781 2.831 0l6 6c0.781 0.781 0.781 2.050 0 2.831l-6 6c-0.781 0.781-2.050 0.781-2.831 0s-0.781-2.050 0-2.831l2.581-2.588h-13.169c-2.206 0-4 1.794-4 4v2c0 1.106-0.894 2-2 2s-2-0.894-2-2v-2c0-4.419 3.581-8 8-8h13.169l-2.581-2.587c-0.781-0.781-0.781-2.050 0-2.831zM12.588 16.587c0.781-0.781 2.050-0.781 2.831 0l6 6c0.781 0.781 0.781 2.050 0 2.831l-6 6c-0.781 0.781-2.050 0.781-2.831 0s-0.781-2.050 0-2.831l2.581-2.587h-9.169c-1.106 0-2 0.894-2 2v2c0 1.106-0.894 2-2 2s-2-0.894-2-2v-2c0-3.313 2.688-6 6-6h9.169l-2.588-2.587c-0.781-0.781-0.781-2.050 0-2.831z"/>
</svg>