<svg version="1.1" xmlns="http://www.w3.org/2000/svg" width="32" height="32" viewBox="0 0 32 32">
<path fill="currentColor" d="M16 6c2.4 0 4.606 0.844 6.331 2.256l-2.038 2.037c-0.288 0.287-0.369 0.719-0.219 1.088s0.519 0.619 0.925 0.619h7c0.55 0 1-0.45 1-1v-7c0-0.406-0.244-0.769-0.619-0.925s-0.806-0.069-1.087 0.219l-2.125 2.125c-2.456-2.131-5.663-3.419-9.169-3.419-0.681 0-1.344 0.050-2 0.144v4.056c0.644-0.131 1.313-0.2 2-0.2zM8.256 9.669l2.037 2.037c0.287 0.287 0.719 0.369 1.088 0.219s0.619-0.519 0.619-0.925v-7c0-0.55-0.45-1-1-1h-7c-0.406 0-0.769 0.244-0.925 0.619s-0.069 0.806 0.219 1.087l2.125 2.125c-2.131 2.456-3.419 5.663-3.419 9.169 0 0.681 0.050 1.344 0.144 2h4.056c-0.131-0.644-0.2-1.313-0.2-2 0-2.4 0.844-4.606 2.256-6.331zM29.856 14h-4.056c0.131 0.644 0.2 1.313 0.2 2 0 2.4-0.844 4.606-2.256 6.331l-2.038-2.038c-0.288-0.288-0.719-0.369-1.087-0.219s-0.619 0.519-0.619 0.925v7c0 0.55 0.45 1 1 1h7c0.406 0 0.769-0.244 0.925-0.619s0.069-0.806-0.219-1.087l-2.125-2.125c2.131-2.456 3.419-5.663 3.419-9.169 0-0.681-0.050-1.344-0.144-2zM16 26c-2.4 0-4.606-0.844-6.331-2.256l2.037-2.038c0.287-0.288 0.369-0.719 0.219-1.087s-0.519-0.619-0.925-0.619h-7c-0.55 0-1 0.45-1 1v7c0 0.406 0.244 0.769 0.619 0.925s0.806 0.069 1.087-0.219l2.125-2.125c2.456 2.131 5.663 3.419 9.169 3.419 0.681 0 1.344-0.050 2-0.144v-4.056c-0.644 0.131-1.313 0.2-2 0.2z"/>
</svg>