<svg version="1.1" xmlns="http://www.w3.org/2000/svg" width="32" height="32" viewBox="0 0 32 32">
<path fill="currentColor" d="M6.569 12.662c0.481-1.363 1.263-2.644 2.362-3.737 3.906-3.906 10.238-3.906 14.144 0l1.069 1.075h-3.144c-1.106 0-2 0.894-2 2s0.894 2 2 2h7.969c0 0 0 0 0 0h0.025c1.106 0 2-0.894 2-2v-8c0-1.106-0.894-2-2-2s-2 0.894-2 2v3.2l-1.094-1.1c-5.469-5.469-14.331-5.469-19.8 0-1.525 1.525-2.625 3.319-3.3 5.237-0.369 1.044 0.181 2.181 1.219 2.55s2.181-0.181 2.55-1.219zM2.438 18.081c-0.313 0.094-0.613 0.262-0.856 0.512-0.25 0.25-0.419 0.55-0.506 0.875-0.019 0.075-0.038 0.156-0.050 0.238-0.019 0.106-0.025 0.212-0.025 0.319v7.975c0 1.106 0.894 2 2 2s2-0.894 2-2v-3.194l1.1 1.094c5.469 5.462 14.331 5.462 19.794 0 1.525-1.525 2.631-3.319 3.306-5.231 0.369-1.044-0.181-2.181-1.219-2.55s-2.181 0.181-2.55 1.219c-0.481 1.363-1.262 2.644-2.363 3.738-3.906 3.906-10.238 3.906-14.144 0l-1.075-1.075h3.15c1.106 0 2-0.894 2-2s-0.894-2-2-2h-7.975c-0.1 0-0.2 0.006-0.3 0.019s-0.194 0.031-0.288 0.063z"/>
</svg>