<svg version="1.1" xmlns="http://www.w3.org/2000/svg" width="20" height="32" viewBox="0 0 20 32">
<path fill="currentColor" d="M11.412 0.588c-0.781-0.781-2.050-0.781-2.831 0l-6 6c-0.781 0.781-0.781 2.050 0 2.831s2.050 0.781 2.831 0l2.587-2.588v18.337l-2.588-2.581c-0.781-0.781-2.050-0.781-2.831 0s-0.781 2.050 0 2.831l6 6c0.781 0.781 2.050 0.781 2.831 0l6-6c0.781-0.781 0.781-2.050 0-2.831s-2.050-0.781-2.831 0l-2.581 2.581v-18.337l2.588 2.588c0.781 0.781 2.050 0.781 2.831 0s0.781-2.050 0-2.831l-6-6z"/>
</svg>