<svg version="1.1" xmlns="http://www.w3.org/2000/svg" width="40" height="32" viewBox="0 0 40 32">
<path fill="currentColor" d="M9 0c-0.831 0-1.5 0.669-1.5 1.5v7.381l-1.438-1.444c-0.588-0.588-1.537-0.588-2.119 0s-0.587 1.537 0 2.119l4 4c0.588 0.588 1.537 0.588 2.119 0l4-4c0.588-0.588 0.588-1.537 0-2.119s-1.537-0.588-2.119 0l-1.438 1.438v-7.375c0-0.831-0.669-1.5-1.5-1.5zM22.5 12.5c0-1.381-1.119-2.5-2.5-2.5s-2.5 1.119-2.5 2.5v0c0 1.381 1.119 2.5 2.5 2.5s2.5-1.119 2.5-2.5v0zM11.5 18.5c0-1.381-1.119-2.5-2.5-2.5s-2.5 1.119-2.5 2.5v0c0 1.381 1.119 2.5 2.5 2.5s2.5-1.119 2.5-2.5v0zM31 21c1.381 0 2.5-1.119 2.5-2.5s-1.119-2.5-2.5-2.5v0c-1.381 0-2.5 1.119-2.5 2.5s1.119 2.5 2.5 2.5v0zM12.5 27.594l1.681 3.119c0.394 0.731 1.3 1 2.031 0.613s1-1.3 0.613-2.031l-2.269-4.219c0.106-0.106 0.2-0.225 0.269-0.363l1.675-3.119v3.406c0 1.106 0.894 2 2 2h3c1.106 0 2-0.894 2-2v-3.406l1.681 3.119c0.075 0.137 0.163 0.256 0.269 0.363l-2.269 4.219c-0.394 0.731-0.119 1.637 0.613 2.031s1.637 0.119 2.031-0.613l1.675-3.119v2.406c0 1.106 0.894 2 2 2h3c1.106 0 2-0.894 2-2v-2.406l1.681 3.119c0.394 0.731 1.3 1 2.031 0.613s1-1.3 0.612-2.031l-2.369-4.394c-0.956-1.781-2.819-2.894-4.844-2.894h-1.225c-1.019 0-1.994 0.281-2.837 0.788l-2.1-3.894c-0.956-1.781-2.819-2.894-4.844-2.894h-1.219c-2.025 0-3.881 1.113-4.844 2.894l-2.1 3.894c-0.844-0.506-1.819-0.788-2.838-0.788h-1.219c-2.025 0-3.881 1.113-4.844 2.894l-2.362 4.387c-0.394 0.731-0.119 1.637 0.613 2.031s1.637 0.119 2.031-0.613l1.675-3.113v2.406c0 1.106 0.894 2 2 2h3c1.106 0 2-0.894 2-2v-2.406zM25.938 9.563l4 4c0.587 0.588 1.538 0.588 2.119 0l4-4c0.587-0.588 0.587-1.537 0-2.119s-1.538-0.588-2.119 0l-1.438 1.438v-7.381c0-0.831-0.669-1.5-1.5-1.5s-1.5 0.669-1.5 1.5v7.381l-1.438-1.438c-0.587-0.588-1.538-0.588-2.119 0s-0.587 1.537 0 2.119z"/>
</svg>