<svg version="1.1" xmlns="http://www.w3.org/2000/svg" width="32" height="32" viewBox="0 0 32 32">
<path fill="currentColor" d="M15.412 9.412c-0.781 0.781-2.050 0.781-2.831 0s-0.781-2.050 0-2.831l6-6c0.781-0.781 2.050-0.781 2.831 0l6 6c0.781 0.781 0.781 2.050 0 2.831s-2.050 0.781-2.831 0l-2.581-2.581v17.169c0 2.206 1.794 4 4 4h4c1.106 0 2 0.894 2 2s-0.894 2-2 2h-4c-4.419 0-8-3.581-8-8 0-2.206-1.794-4-4-4h-7.169l2.587 2.587c0.781 0.781 0.781 2.050 0 2.831s-2.050 0.781-2.831 0l-6-6c-0.781-0.781-0.781-2.050 0-2.831l6-6c0.781-0.781 2.050-0.781 2.831 0s0.781 2.050 0 2.831l-2.588 2.581h7.169c1.456 0 2.825 0.387 4 1.069v-10.238l-2.588 2.588z"/>
</svg>