<svg version="1.1" xmlns="http://www.w3.org/2000/svg" width="24" height="32" viewBox="0 0 24 32">
<path fill="currentColor" d="M12 2c1.106 0 2 0.894 2 2v8.469l6.969-4.181c0.95-0.569 2.175-0.262 2.744 0.688s0.262 2.175-0.688 2.744l-7.137 4.281 7.144 4.288c0.95 0.569 1.256 1.794 0.688 2.744s-1.794 1.256-2.744 0.688l-6.975-4.188v8.469c0 1.106-0.894 2-2 2s-2-0.894-2-2v-8.469l-6.969 4.181c-0.95 0.569-2.175 0.262-2.744-0.688s-0.263-2.175 0.688-2.744l7.138-4.281-7.144-4.287c-0.95-0.569-1.256-1.794-0.688-2.744s1.794-1.256 2.744-0.688l6.975 4.188v-8.469c0-1.106 0.894-2 2-2z"/>
</svg>