<svg version="1.1" xmlns="http://www.w3.org/2000/svg" width="32" height="32" viewBox="0 0 32 32">
<path fill="currentColor" d="M16 4c-6.625 0-12 5.375-12 12s5.375 12 12 12c1.106 0 2 0.894 2 2s-0.894 2-2 2c-8.838 0-16-7.163-16-16s7.162-16 16-16 16 7.162 16 16v2c0 3.313-2.688 6-6 6-1.831 0-3.475-0.825-4.575-2.119-1.425 1.313-3.331 2.119-5.425 2.119-4.419 0-8-3.581-8-8s3.581-8 8-8c1.744 0 3.356 0.556 4.669 1.506 0.356-0.313 0.819-0.506 1.331-0.506 1.106 0 2 0.894 2 2v7c0 1.106 0.894 2 2 2s2-0.894 2-2v-2c0-6.625-5.375-12-12-12zM20 16c0-2.209-1.791-4-4-4s-4 1.791-4 4v0c0 2.209 1.791 4 4 4s4-1.791 4-4v0z"/>
</svg>