<svg version="1.1" xmlns="http://www.w3.org/2000/svg" width="32" height="32" viewBox="0 0 32 32">
<path fill="currentColor" d="M16 24.925c-0.738 0.319-1.463 0.606-2.181 0.844 1.044 2.113 1.938 2.231 2.181 2.231s1.131-0.119 2.181-2.231c-0.712-0.244-1.444-0.525-2.181-0.844zM27.875 16c2.063 2.825 2.769 5.681 1.475 8-1.262 2.269-3.906 3.081-7.2 2.7-1.375 3.256-3.475 5.3-6.15 5.3s-4.775-2.044-6.15-5.3c-3.294 0.381-5.938-0.425-7.2-2.7-1.294-2.319-0.587-5.175 1.475-8-2.063-2.825-2.769-5.681-1.475-8 1.262-2.269 3.906-3.081 7.2-2.7 1.375-3.256 3.475-5.3 6.15-5.3s4.775 2.044 6.15 5.3c3.294-0.381 5.938 0.425 7.2 2.7 1.294 2.319 0.587 5.175-1.475 8zM23.762 20.212c-0.106 0.887-0.244 1.75-0.419 2.575 1.988 0.087 2.413-0.544 2.512-0.731 0.144-0.262 0.438-1.119-0.744-3.006-0.425 0.394-0.875 0.781-1.35 1.163zM23.344 9.219c0.175 0.819 0.313 1.681 0.419 2.575 0.475 0.381 0.925 0.769 1.35 1.162 1.181-1.887 0.887-2.75 0.744-3.006-0.1-0.181-0.525-0.813-2.512-0.731zM18.181 6.231c-1.050-2.112-1.938-2.231-2.181-2.231s-1.131 0.119-2.181 2.231c0.713 0.244 1.444 0.525 2.181 0.844 0.737-0.319 1.463-0.606 2.181-0.844zM8.244 11.787c0.106-0.894 0.244-1.75 0.419-2.575-1.987-0.088-2.412 0.544-2.513 0.731-0.144 0.262-0.438 1.119 0.744 3.006 0.425-0.394 0.875-0.781 1.35-1.162zM6.888 19.050c-1.175 1.887-0.888 2.744-0.744 3.006 0.1 0.181 0.525 0.813 2.513 0.731-0.175-0.819-0.313-1.681-0.419-2.575-0.475-0.381-0.925-0.769-1.35-1.163zM21 16c0-2.761-2.239-5-5-5s-5 2.239-5 5v0c0 2.761 2.239 5 5 5s5-2.239 5-5v0zM16 14c1.105 0 2 0.895 2 2s-0.895 2-2 2v0c-1.105 0-2-0.895-2-2s0.895-2 2-2v0z"/>
</svg>