<svg version="1.1" xmlns="http://www.w3.org/2000/svg" width="36" height="32" viewBox="0 0 36 32">
<path fill="currentColor" d="M4 2c-2.206 0-4 1.794-4 4v20c0 2.206 1.794 4 4 4h28c2.206 0 4-1.794 4-4v-20c0-2.206-1.794-4-4-4h-28zM13.344 10.831l4.5 9c0.369 0.744 0.069 1.644-0.669 2.012s-1.644 0.069-2.012-0.669l-0.588-1.181h-5.144l-0.588 1.181c-0.369 0.744-1.269 1.044-2.013 0.669s-1.044-1.269-0.669-2.012l4.5-9c0.256-0.506 0.775-0.831 1.344-0.831s1.088 0.319 1.344 0.831zM13.319 17.494l-1.319-2.637-1.319 2.637h2.638zM19 11.5c0-0.831 0.669-1.5 1.5-1.5h3.5c3.313 0 6 2.688 6 6s-2.688 6-6 6h-3.5c-0.831 0-1.5-0.669-1.5-1.5v-9zM22 13v6h2c1.656 0 3-1.344 3-3s-1.344-3-3-3h-2z"/>
</svg>