<svg version="1.1" xmlns="http://www.w3.org/2000/svg" width="28" height="32" viewBox="0 0 28 32">
<path fill="currentColor" d="M15.844 3.231c-0.306-0.744-1.037-1.231-1.844-1.231s-1.537 0.487-1.844 1.231l-4.487 10.769h-5.669c-1.106 0-2 0.894-2 2s0.894 2 2 2h4l-0.831 2h-3.169c-1.106 0-2 0.894-2 2s0.894 2 2 2h1.5l-1.344 3.231c-0.425 1.019 0.056 2.188 1.075 2.613s2.188-0.056 2.612-1.075l1.987-4.769h12.337l1.988 4.769c0.425 1.019 1.594 1.5 2.613 1.075s1.5-1.594 1.075-2.613l-1.344-3.231h1.5c1.106 0 2-0.894 2-2s-0.894-2-2-2h-3.169l-0.831-2h4c1.106 0 2-0.894 2-2s-0.894-2-2-2h-5.669l-4.488-10.769zM16 14h-4l2-4.8 2 4.8zM10.331 18h7.338l0.831 2h-9l0.831-2z"/>
</svg>