<svg version="1.1" xmlns="http://www.w3.org/2000/svg" width="24" height="32" viewBox="0 0 24 32">
<path fill="currentColor" d="M10.863 0.344c0.688-0.456 1.588-0.456 2.275 0l1.113 0.731c0.375 0.244 0.813 0.363 1.256 0.338l1.331-0.081c0.825-0.050 1.6 0.4 1.969 1.137l0.6 1.194c0.2 0.4 0.525 0.719 0.919 0.919l1.206 0.606c0.738 0.369 1.188 1.144 1.137 1.969l-0.081 1.331c-0.025 0.444 0.094 0.887 0.337 1.256l0.738 1.113c0.456 0.688 0.456 1.588 0 2.275l-0.738 1.119c-0.244 0.375-0.363 0.813-0.337 1.256l0.081 1.331c0.050 0.825-0.4 1.6-1.137 1.969l-1.194 0.6c-0.4 0.2-0.719 0.525-0.919 0.919l-0.606 1.206c-0.369 0.738-1.144 1.188-1.969 1.137l-1.331-0.081c-0.444-0.025-0.887 0.094-1.256 0.337l-1.113 0.738c-0.688 0.456-1.588 0.456-2.275 0l-1.119-0.738c-0.375-0.244-0.813-0.363-1.256-0.337l-1.331 0.081c-0.825 0.050-1.6-0.4-1.969-1.137l-0.6-1.194c-0.2-0.4-0.525-0.719-0.919-0.919l-1.206-0.606c-0.738-0.369-1.188-1.144-1.137-1.969l0.081-1.331c0.025-0.444-0.094-0.887-0.337-1.256l-0.731-1.119c-0.456-0.688-0.456-1.588 0-2.275l0.731-1.113c0.244-0.375 0.363-0.813 0.337-1.256l-0.081-1.331c-0.050-0.825 0.4-1.6 1.137-1.969l1.194-0.6c0.4-0.206 0.725-0.531 0.925-0.931l0.6-1.194c0.369-0.738 1.144-1.188 1.969-1.137l1.331 0.081c0.444 0.025 0.887-0.094 1.256-0.337l1.119-0.731zM17 12c0-2.761-2.239-5-5-5s-5 2.239-5 5v0c0 2.761 2.239 5 5 5s5-2.239 5-5v0zM0.081 27.613l2.694-6.406c0.013 0.006 0.019 0.012 0.025 0.025l0.6 1.194c0.731 1.45 2.25 2.331 3.875 2.238l1.331-0.081c0.012 0 0.031 0 0.044 0.012l1.113 0.738c0.319 0.206 0.656 0.369 1.006 0.481l-2.35 5.581c-0.144 0.344-0.463 0.575-0.831 0.606s-0.725-0.137-0.925-0.45l-2.013-3.081-3.506 0.519c-0.356 0.050-0.713-0.094-0.938-0.375s-0.269-0.669-0.131-1zM15.581 31.387l-2.35-5.575c0.35-0.113 0.688-0.269 1.006-0.481l1.113-0.738c0.012-0.006 0.025-0.012 0.044-0.012l1.331 0.081c1.625 0.094 3.144-0.788 3.875-2.238l0.6-1.194c0.006-0.012 0.012-0.019 0.025-0.025l2.7 6.406c0.137 0.331 0.087 0.712-0.131 1s-0.581 0.431-0.938 0.375l-3.506-0.519-2.012 3.075c-0.2 0.313-0.556 0.481-0.925 0.45s-0.688-0.269-0.831-0.606z"/>
</svg>