<svg version="1.1" xmlns="http://www.w3.org/2000/svg" width="32" height="32" viewBox="0 0 32 32">
<path fill="currentColor" d="M16 12h-15.994c0.163-4.631 2.575-8.694 6.181-11.119 0.831-0.556 1.925-0.269 2.494 0.55l7.319 10.569zM24 10c0-2.206 1.794-4 4-4h2c1.106 0 2 0.894 2 2s-0.894 2-2 2h-2v4c0 1.575-0.363 3.137-1.063 4.594s-1.738 2.781-3.038 3.894-2.844 2-4.544 2.6-3.519 0.913-5.356 0.913-3.656-0.313-5.356-0.913-3.244-1.488-4.544-2.6-2.331-2.438-3.038-3.894-1.063-3.019-1.063-4.594h24v-4zM5 26c1.657 0 3 1.343 3 3s-1.343 3-3 3v0c-1.657 0-3-1.343-3-3s1.343-3 3-3v0zM20 29c0-1.657 1.343-3 3-3s3 1.343 3 3v0c0 1.657-1.343 3-3 3s-3-1.343-3-3v0z"/>
</svg>