<svg version="1.1" xmlns="http://www.w3.org/2000/svg" width="28" height="32" viewBox="0 0 28 32">
<path fill="currentColor" d="M9.5 5.5c0-2.485 2.015-4.5 4.5-4.5s4.5 2.015 4.5 4.5v0c0 2.485-2.015 4.5-4.5 4.5s-4.5-2.015-4.5-4.5v0zM2.481 9.031c0.813-1.119 2.375-1.362 3.494-0.55l2.263 1.644c1.675 1.219 3.694 1.875 5.762 1.875s4.087-0.656 5.762-1.875l2.262-1.65c1.119-0.813 2.681-0.563 3.494 0.55s0.563 2.681-0.55 3.494l-2.262 1.65c-0.85 0.619-1.756 1.137-2.706 1.563v2.269h-12v-2.269c-0.95-0.419-1.856-0.944-2.706-1.563l-2.263-1.65c-1.119-0.813-1.363-2.375-0.55-3.494zM8.094 20.581l3.787 3.313-1.625 2.325 1.519 1.519c0.975 0.975 0.975 2.556 0 3.538s-2.556 0.975-3.537 0l-3-3c-0.862-0.863-0.981-2.212-0.287-3.206l3.138-4.488zM16.125 23.894l3.788-3.313 3.137 4.488c0.694 0.994 0.575 2.344-0.281 3.2l-3 3c-0.975 0.975-2.556 0.975-3.538 0s-0.975-2.556 0-3.538l1.519-1.519-1.625-2.325z"/>
</svg>