<svg version="1.1" xmlns="http://www.w3.org/2000/svg" width="32" height="32" viewBox="0 0 32 32">
<path fill="currentColor" d="M28.719 27.538c0.594 0.494 1.425 0.606 2.131 0.275s1.15-1.038 1.15-1.813v-20c0-0.775-0.45-1.481-1.15-1.813s-1.531-0.225-2.131 0.275l-10.719 8.931v5.213l10.719 8.931zM16 22v-16c0-0.775-0.45-1.481-1.15-1.813s-1.531-0.225-2.131 0.275l-12 10c-0.456 0.381-0.719 0.944-0.719 1.537s0.263 1.156 0.719 1.538l12 10c0.594 0.494 1.425 0.606 2.131 0.275s1.15-1.038 1.15-1.813v-4z"/>
</svg>