<svg version="1.1" xmlns="http://www.w3.org/2000/svg" width="36" height="32" viewBox="0 0 36 32">
<path fill="currentColor" d="M27.45 0.075c0.7-0.2 1.45-0.006 1.962 0.506l2.963 2.962-1.656 0.494c-3.625 1.037-6.131 2.475-8.1 4.213-1.95 1.719-3.325 3.694-4.694 5.681l-0.144 0.206c-2.681 3.906-5.594 8.15-13.231 11.969l-2.181 1.094-1.781-1.788c-0.456-0.456-0.662-1.1-0.563-1.738s0.506-1.181 1.081-1.469c7.4-3.694 10.2-7.769 12.85-11.625l0.144-0.213c1.363-1.988 2.806-4.056 4.856-5.869 2.087-1.844 4.738-3.35 8.494-4.425zM3.862 28.688l1.587-0.794c8.094-4.044 11.244-8.631 13.988-12.625l0.137-0.206c1.381-2.006 2.631-3.781 4.369-5.319 1.719-1.519 3.962-2.825 7.331-3.787v0l0.012-0.006 2.694-0.806 1.438 1.438c0.5 0.5 0.7 1.231 0.519 1.919s-0.706 1.225-1.388 1.419c-3.244 0.925-5.35 2.169-6.944 3.575-1.631 1.438-2.819 3.119-4.206 5.131l-0.137 0.2c-2.775 4.044-6.044 8.8-14.369 12.963-0.769 0.388-1.7 0.231-2.306-0.375l-2.725-2.725z"/>
</svg>