<svg version="1.1" xmlns="http://www.w3.org/2000/svg" width="32" height="32" viewBox="0 0 32 32">
<path fill="currentColor" d="M26.444 1.913c0.225-0.794-0.231-1.625-1.031-1.856s-1.625 0.231-1.856 1.031l-0.262 0.919c-0.613-0.025-1.244 0.031-1.869 0.175-0.756 0.175-1.481 0.369-2.181 0.587l-0.369-0.856c-0.325-0.762-1.206-1.113-1.969-0.787s-1.113 1.206-0.788 1.969l0.306 0.706c-1.375 0.588-2.625 1.256-3.762 1.987l-0.412-0.619c-0.463-0.688-1.394-0.875-2.081-0.419s-0.875 1.394-0.419 2.081l0.488 0.725c-1.125 0.938-2.106 1.925-2.956 2.944l-0.844-0.669c-0.65-0.519-1.594-0.412-2.106 0.231s-0.413 1.594 0.231 2.106l0.938 0.75c-0.131 0.2-0.256 0.406-0.375 0.606-0.588 0.981-1.063 1.938-1.45 2.831l-0.619-0.244c-0.769-0.306-1.644 0.069-1.95 0.837s0.069 1.644 0.838 1.95l0.725 0.288c-0.019 0.069-0.038 0.131-0.056 0.194-0.219 0.781-0.356 1.45-0.444 1.956-0.044 0.256-0.075 0.469-0.1 0.644-0.013 0.087-0.019 0.163-0.025 0.225l-0.006 0.087-0.006 0.038v0.025c0 0 0 0.006 2.45 0.231v0l-2.45-0.225c-0.031 0.313-0.038 0.625-0.025 0.931l-0.919 0.262c-0.794 0.231-1.256 1.056-1.031 1.856s1.056 1.256 1.856 1.031l0.863-0.244c0.663 1.294 1.725 2.363 3.031 3.031l-0.244 0.856c-0.225 0.794 0.231 1.625 1.031 1.856s1.625-0.231 1.856-1.031l0.262-0.919c1.488 0.063 2.894-0.344 4.069-1.1l0.656 0.669c0.588 0.587 1.537 0.587 2.119 0s0.588-1.538 0-2.119l-0.662-0.663c0.569-0.881 0.944-1.906 1.063-3.019l0.006-0.050c0.019-0.106 0.062-0.319 0.144-0.613l0.012-0.050 0.788 0.337c0.762 0.325 1.644-0.025 1.969-0.788s-0.025-1.644-0.788-1.969l-0.706-0.3c0.619-0.931 1.556-1.975 3.038-2.875l0.131 0.469c0.225 0.794 1.056 1.256 1.856 1.031s1.256-1.056 1.031-1.856l-0.25-0.9c0.431-0.137 0.894-0.269 1.387-0.381 0.806-0.188 1.544-0.5 2.2-0.925l0.663 0.669c0.587 0.588 1.538 0.588 2.119 0s0.587-1.537 0-2.119l-0.663-0.662c0.762-1.188 1.163-2.6 1.1-4.069l0.919-0.262c0.794-0.225 1.256-1.056 1.031-1.856s-1.056-1.256-1.856-1.031l-0.856 0.244c-0.675-1.325-1.75-2.375-3.031-3.031l0.244-0.863zM5.756 22.706v0 0zM7 20c0-1.657 1.343-3 3-3s3 1.343 3 3v0c0 1.657-1.343 3-3 3s-3-1.343-3-3v0zM15 11.5c0.828 0 1.5 0.672 1.5 1.5s-0.672 1.5-1.5 1.5v0c-0.828 0-1.5-0.672-1.5-1.5s0.672-1.5 1.5-1.5v0z"/>
</svg>