<svg version="1.1" xmlns="http://www.w3.org/2000/svg" width="40" height="32" viewBox="0 0 40 32">
<path fill="currentColor" d="M19.056 0.044c-0.6-0.169-1.219 0.175-1.394 0.775l-0.269 0.95c-0.519-0.038-1.050 0-1.575 0.119-0.456 0.106-0.894 0.219-1.319 0.344l-0.344-0.794c-0.244-0.569-0.906-0.838-1.475-0.594s-0.838 0.906-0.594 1.475l0.275 0.65c-1.037 0.419-1.981 0.9-2.838 1.425l-0.338-0.519c-0.344-0.519-1.044-0.656-1.563-0.313s-0.656 1.044-0.313 1.563l0.375 0.563c-0.856 0.688-1.594 1.425-2.237 2.181l-0.625-0.5c-0.487-0.388-1.194-0.313-1.581 0.175s-0.313 1.194 0.175 1.581l0.7 0.563c-0.112 0.175-0.219 0.356-0.319 0.531-0.413 0.713-0.738 1.412-1 2.063l-0.5-0.2c-0.575-0.231-1.231 0.050-1.462 0.625s0.050 1.231 0.625 1.463l0.65 0.262c-0.013 0.050-0.025 0.094-0.031 0.144-0.137 0.581-0.212 1.081-0.256 1.463-0.025 0.194-0.038 0.356-0.050 0.488-0.006 0.069-0.006 0.125-0.012 0.175l-0.006 0.069v0.050c0 0 0 0.006 1.819 0.063h-0.006l-1.819-0.050c-0.006 0.194 0 0.381 0.012 0.569l-0.95 0.269c-0.594 0.169-0.938 0.794-0.769 1.387s0.794 0.944 1.394 0.775l0.975-0.281c0.475 0.85 1.181 1.563 2.038 2.038l-0.281 0.975c-0.169 0.6 0.175 1.219 0.775 1.394s1.219-0.175 1.394-0.775l0.269-0.95c0.075 0.006 0.15 0.012 0.225 0.012 0.975 0.031 1.894-0.206 2.687-0.637l0.563 0.563c0.438 0.438 1.15 0.438 1.594 0s0.438-1.15 0-1.594l-0.45-0.45c0.581-0.788 0.95-1.738 1.019-2.781l0.444 0.188c0.569 0.244 1.231-0.019 1.475-0.594s-0.019-1.231-0.594-1.475l-0.537-0.231c0.4-0.619 1.081-1.4 2.306-2.081l0.081 0.275c0.169 0.6 0.794 0.944 1.394 0.775s0.944-0.794 0.775-1.394l-0.144-0.506c0.238-0.069 0.481-0.131 0.744-0.194 0.725-0.169 1.381-0.481 1.944-0.9l0.45 0.45c0.438 0.438 1.15 0.438 1.594 0s0.438-1.15 0-1.594l-0.563-0.563c0.475-0.869 0.706-1.881 0.631-2.912l0.95-0.269c0.6-0.169 0.944-0.794 0.775-1.394s-0.806-0.925-1.406-0.756l-0.975 0.281c-0.481-0.869-1.194-1.569-2.038-2.038l0.281-0.975c0.169-0.6-0.175-1.219-0.775-1.394zM7 17l-3-0.094c0.731 0.025 1.706 0.056 3 0.1zM8 12c1.105 0 2 0.895 2 2s-0.895 2-2 2v0c-1.105 0-2-0.895-2-2s0.895-2 2-2v0zM12 9c0-0.552 0.448-1 1-1s1 0.448 1 1v0c0 0.552-0.448 1-1 1s-1-0.448-1-1v0zM20.169 30.563c-0.169 0.6 0.175 1.219 0.775 1.394s1.219-0.175 1.387-0.775l0.269-0.95c0.519 0.038 1.050 0 1.575-0.119 0.456-0.106 0.894-0.219 1.319-0.344l0.344 0.794c0.244 0.569 0.906 0.837 1.475 0.594s0.837-0.906 0.594-1.475l-0.275-0.65c1.038-0.419 1.981-0.9 2.837-1.425l0.344 0.519c0.344 0.519 1.044 0.656 1.563 0.313s0.656-1.044 0.313-1.563l-0.375-0.563c0.856-0.688 1.594-1.425 2.237-2.181l0.625 0.5c0.487 0.387 1.194 0.313 1.581-0.175s0.313-1.194-0.175-1.581l-0.7-0.563c0.112-0.175 0.219-0.356 0.319-0.531 0.413-0.712 0.737-1.413 1-2.063l0.5 0.2c0.575 0.231 1.231-0.050 1.462-0.625s-0.050-1.231-0.625-1.462l-0.65-0.262c0.013-0.050 0.025-0.094 0.031-0.144 0.138-0.581 0.212-1.081 0.256-1.463 0.025-0.194 0.038-0.356 0.050-0.488 0.006-0.069 0.006-0.125 0.013-0.175l0.006-0.069v-0.050c0 0 0-0.006-1.819-0.063h0.006l1.819 0.056c0.006-0.194 0-0.381-0.013-0.569l0.95-0.269c0.6-0.169 0.944-0.794 0.775-1.394s-0.794-0.944-1.394-0.775l-0.975 0.281c-0.475-0.85-1.181-1.563-2.038-2.037l0.281-0.975c0.169-0.6-0.175-1.219-0.775-1.394s-1.219 0.175-1.394 0.775l-0.269 0.95c-0.075-0.006-0.15-0.012-0.225-0.012-0.975-0.031-1.894 0.206-2.688 0.637l-0.563-0.563c-0.438-0.438-1.15-0.438-1.594 0s-0.438 1.15 0 1.594l0.45 0.45c-0.581 0.787-0.95 1.738-1.019 2.781l-0.444-0.188c-0.569-0.244-1.231 0.019-1.475 0.594s0.019 1.231 0.594 1.475l0.538 0.231c-0.4 0.619-1.081 1.4-2.306 2.081l-0.081-0.275c-0.169-0.6-0.794-0.944-1.394-0.775s-0.944 0.794-0.775 1.394l0.144 0.506c-0.238 0.069-0.481 0.131-0.744 0.194-0.725 0.169-1.381 0.481-1.944 0.9l-0.45-0.45c-0.438-0.438-1.15-0.438-1.594 0s-0.438 1.15 0 1.594l0.563 0.563c-0.475 0.869-0.706 1.881-0.631 2.913l-0.95 0.269c-0.6 0.169-0.944 0.794-0.775 1.387s0.794 0.944 1.394 0.775l0.975-0.281c0.481 0.869 1.194 1.569 2.038 2.038l-0.275 0.962zM36 15.094v0c-0.731-0.025-1.706-0.056-3-0.1l3 0.094zM28 24c0 1.105-0.895 2-2 2s-2-0.895-2-2v0c0-1.105 0.895-2 2-2s2 0.895 2 2v0z"/>
</svg>