<svg version="1.1" xmlns="http://www.w3.org/2000/svg" width="28" height="32" viewBox="0 0 28 32">
<path fill="currentColor" d="M10 7c0-2.206 1.794-4 4-4s4 1.794 4 4v3h-8v-3zM7 10h-4c-1.656 0-3 1.344-3 3v13c0 3.313 2.688 6 6 6h16c3.313 0 6-2.688 6-6v-13c0-1.656-1.344-3-3-3h-4v-3c0-3.869-3.131-7-7-7s-7 3.131-7 7v3zM8.5 13c0.828 0 1.5 0.672 1.5 1.5s-0.672 1.5-1.5 1.5v0c-0.828 0-1.5-0.672-1.5-1.5s0.672-1.5 1.5-1.5v0zM18 14.5c0-0.828 0.672-1.5 1.5-1.5s1.5 0.672 1.5 1.5v0c0 0.828-0.672 1.5-1.5 1.5s-1.5-0.672-1.5-1.5v0z"/>
</svg>