<svg version="1.1" xmlns="http://www.w3.org/2000/svg" width="36" height="32" viewBox="0 0 36 32">
<path fill="currentColor" d="M18 0c0.906 0 1.7 0.606 1.931 1.488l1.494 5.6 4.744-3.331c0.744-0.519 1.738-0.475 2.438 0.106s0.913 1.556 0.525 2.381l-2.456 5.25 5.775 0.5c0.9 0.075 1.638 0.75 1.8 1.644s-0.306 1.781-1.125 2.162l-5.256 2.444 4.106 4.094c0.644 0.637 0.775 1.631 0.319 2.419s-1.375 1.169-2.25 0.931l-5.606-1.512 0.512 5.775c0.081 0.9-0.456 1.744-1.306 2.056s-1.806 0.006-2.325-0.731l-3.319-4.75-3.319 4.75c-0.519 0.744-1.475 1.044-2.325 0.731s-1.387-1.156-1.306-2.056l0.512-5.775-5.6 1.506c-0.875 0.238-1.8-0.144-2.25-0.931s-0.325-1.775 0.319-2.419l4.106-4.094-5.263-2.444c-0.819-0.381-1.281-1.269-1.125-2.162s0.894-1.569 1.8-1.644l5.775-0.5-2.456-5.25c-0.381-0.819-0.169-1.8 0.525-2.381s1.694-0.625 2.438-0.106l4.744 3.331 1.494-5.6c0.231-0.875 1.025-1.481 1.931-1.481zM18 9.762l-0.3 1.125c-0.169 0.631-0.637 1.137-1.25 1.363s-1.3 0.131-1.831-0.244l-0.95-0.669 0.494 1.050c0.275 0.594 0.25 1.281-0.081 1.85s-0.906 0.938-1.563 0.994l-1.156 0.1 1.050 0.488c0.594 0.275 1.012 0.825 1.125 1.469s-0.094 1.3-0.556 1.762l-0.825 0.819 1.119-0.3c0.631-0.169 1.306-0.019 1.806 0.4s0.762 1.056 0.706 1.706l-0.1 1.156 0.662-0.95c0.375-0.538 0.988-0.856 1.637-0.856s1.262 0.319 1.637 0.856l0.663 0.95-0.1-1.156c-0.056-0.65 0.206-1.288 0.706-1.706s1.175-0.569 1.806-0.4l1.119 0.3-0.825-0.819c-0.462-0.462-0.669-1.119-0.556-1.762s0.531-1.194 1.125-1.469l1.050-0.488-1.156-0.1c-0.65-0.056-1.231-0.425-1.563-0.994s-0.356-1.256-0.081-1.85l0.494-1.050-0.95 0.669c-0.538 0.375-1.219 0.469-1.831 0.244s-1.081-0.731-1.25-1.363l-0.3-1.125z"/>
</svg>