<svg version="1.1" xmlns="http://www.w3.org/2000/svg" width="20" height="32" viewBox="0 0 20 32">
<path fill="currentColor" d="M9 0c-1.106 0-2 0.894-2 2v2h-4.65c-1.3 0-2.35 1.050-2.35 2.35v19.044c0 1.438 1.169 2.606 2.606 2.606h4.394v2c0 1.106 0.894 2 2 2s2-0.894 2-2v-2h2c3.869 0 7-3.131 7-7 0-2.506-1.319-4.706-3.294-5.944 0.813-1.144 1.294-2.544 1.294-4.056 0-3.869-3.131-7-7-7v-2c0-1.106-0.894-2-2-2zM7 8v6h-3v-6h3zM11 14v-6c1.656 0 3 1.344 3 3s-1.344 3-3 3zM7 18v6h-3v-6h3zM11 24v-6h2c1.656 0 3 1.344 3 3s-1.344 3-3 3h-2z"/>
</svg>