<svg version="1.1" xmlns="http://www.w3.org/2000/svg" width="32" height="32" viewBox="0 0 32 32">
<path fill="currentColor" d="M6.219 9.050l16.731 16.731c-1.956 1.4-4.356 2.219-6.95 2.219-6.625 0-12-5.375-12-12 0-2.594 0.819-4.994 2.219-6.95zM20.831 18l-2-2h5.169v2h-3.169zM22.831 20h2.169c0.55 0 1-0.45 1-1v-4c0-0.55-0.45-1-1-1h-8.169l-7.781-7.781c1.956-1.4 4.356-2.219 6.95-2.219 6.625 0 12 5.375 12 12 0 2.594-0.819 4.994-2.219 6.95l-2.95-2.95zM16 32c8.837 0 16-7.163 16-16s-7.163-16-16-16v0c-8.837 0-16 7.163-16 16s7.163 16 16 16v0zM17 6c-0.55 0-1 0.45-1 1 0 1.656 1.344 3 3 3h2c0.55 0 1 0.45 1 1s0.45 1 1 1 1-0.45 1-1c0-1.656-1.344-3-3-3h-2c-0.55 0-1-0.45-1-1s-0.45-1-1-1zM14.344 20l-6-6h-1.344c-0.55 0-1 0.45-1 1v4c0 0.55 0.45 1 1 1h7.344z"/>
</svg>