<svg version="1.1" xmlns="http://www.w3.org/2000/svg" width="24" height="32" viewBox="0 0 24 32">
<path fill="currentColor" d="M2.25 2.013c-1.1-0.131-2.1 0.644-2.237 1.737s0.644 2.1 1.738 2.237l0.494 0.063c1 0.125 1.75 0.975 1.75 1.987v1.963h-1.994c-1.106 0-2 0.894-2 2s0.894 2 2 2h2v10c0 3.313 2.688 6 6 6h2c6.625 0 12-5.375 12-12v-2c0-3.313-2.688-6-6-6h-1c-1.106 0-2 0.894-2 2s0.894 2 2 2h1c1.106 0 2 0.894 2 2v2c0 4.419-3.581 8-8 8h-2c-1.106 0-2-0.894-2-2v-10h2c1.106 0 2-0.894 2-2s-0.894-2-2-2h-2v-1.969c0-3.025-2.256-5.581-5.256-5.956l-0.494-0.063z"/>
</svg>