<svg version="1.1" xmlns="http://www.w3.org/2000/svg" width="32" height="32" viewBox="0 0 32 32">
<path fill="currentColor" d="M1.5 2c-0.831 0-1.5 0.669-1.5 1.5v25c0 0.831 0.669 1.5 1.5 1.5h1c0.831 0 1.5-0.669 1.5-1.5v-25c0-0.831-0.669-1.5-1.5-1.5h-1zM7 2c-0.55 0-1 0.45-1 1v26c0 0.55 0.45 1 1 1s1-0.45 1-1v-26c0-0.55-0.45-1-1-1zM11.5 2c-0.831 0-1.5 0.669-1.5 1.5v25c0 0.831 0.669 1.5 1.5 1.5h1c0.831 0 1.5-0.669 1.5-1.5v-25c0-0.831-0.669-1.5-1.5-1.5h-1zM17.5 2c-0.831 0-1.5 0.669-1.5 1.5v25c0 0.831 0.669 1.5 1.5 1.5h1c0.831 0 1.5-0.669 1.5-1.5v-25c0-0.831-0.669-1.5-1.5-1.5h-1zM28 3.5v25c0 0.831 0.669 1.5 1.5 1.5h1c0.831 0 1.5-0.669 1.5-1.5v-25c0-0.831-0.669-1.5-1.5-1.5h-1c-0.831 0-1.5 0.669-1.5 1.5zM24 3v26c0 0.55 0.45 1 1 1s1-0.45 1-1v-26c0-0.55-0.45-1-1-1s-1 0.45-1 1z"/>
</svg>