<svg version="1.1" xmlns="http://www.w3.org/2000/svg" width="32" height="32" viewBox="0 0 32 32">
<path fill="currentColor" d="M26.5 0c-0.775 0-1.512 0.306-2.063 0.856l-9.844 9.844c-0.656 0.656-1.238 1.381-1.731 2.162l-4.569 7.237c-0.456 0.719-0.987 1.387-1.594 1.994l-2.331 2.325 3.206 3.206 2.331-2.331c0.6-0.6 1.269-1.137 1.994-1.594l7.237-4.569c0.781-0.494 1.506-1.075 2.163-1.731l9.844-9.838c0.544-0.544 0.856-1.287 0.856-2.063s-0.306-1.513-0.856-2.063l-2.581-2.581c-0.55-0.55-1.288-0.856-2.063-0.856zM32 27c0-2.761-2.239-5-5-5s-5 2.239-5 5v0c0 2.761 2.239 5 5 5s5-2.239 5-5v0zM0.938 24.938c-0.588 0.587-0.588 1.538 0 2.119l4 4c0.588 0.587 1.537 0.587 2.119 0s0.588-1.538 0-2.119l-3.994-4c-0.587-0.587-1.538-0.587-2.119 0z"/>
</svg>