<svg version="1.1" xmlns="http://www.w3.org/2000/svg" width="32" height="32" viewBox="0 0 32 32">
<path fill="currentColor" d="M3.919 13.963c-0.3 0.025-0.606 0.037-0.919 0.037-0.975 0-1.925-0.125-2.825-0.369 1.025-6.938 6.519-12.431 13.456-13.456 0.244 0.9 0.369 1.85 0.369 2.825 0 0.306-0.012 0.612-0.037 0.919-0.044 0.55 0.363 1.031 0.912 1.081s1.031-0.362 1.081-0.912c0.031-0.356 0.044-0.719 0.044-1.081 0-1.031-0.119-2.038-0.35-2.994 0.113 0 0.231-0.006 0.35-0.006 8.838-0.006 16 7.156 16 15.994 0 0.119 0 0.231-0.006 0.35-0.962-0.225-1.962-0.35-2.994-0.35-0.363 0-0.725 0.012-1.081 0.044-0.55 0.044-0.962 0.531-0.913 1.081s0.531 0.962 1.081 0.913c0.3-0.025 0.606-0.038 0.919-0.038 0.975 0 1.925 0.125 2.825 0.369-1.031 6.938-6.525 12.431-13.462 13.456-0.244-0.9-0.369-1.85-0.369-2.825 0-0.306 0.012-0.613 0.038-0.919 0.044-0.55-0.363-1.031-0.913-1.081s-1.031 0.363-1.081 0.913c-0.031 0.356-0.044 0.719-0.044 1.081 0 1.031 0.119 2.038 0.35 2.994-0.113 0-0.231 0.006-0.35 0.006-8.838 0.006-16-7.156-16-15.994 0-0.119 0-0.231 0.006-0.35 0.956 0.231 1.962 0.35 2.994 0.35 0.362 0 0.725-0.012 1.081-0.044 0.55-0.044 0.963-0.531 0.912-1.081s-0.531-0.963-1.081-0.912zM7.581 13c-0.5 0.231-0.725 0.825-0.494 1.325s0.825 0.725 1.325 0.494c2.825-1.3 5.106-3.575 6.406-6.406 0.231-0.5 0.012-1.094-0.494-1.325s-1.094-0.013-1.325 0.494c-1.1 2.394-3.031 4.325-5.419 5.419zM24.906 17.669c-0.231-0.5-0.825-0.725-1.325-0.494-2.825 1.3-5.106 3.575-6.406 6.406-0.231 0.5-0.012 1.094 0.494 1.325s1.094 0.012 1.325-0.494c1.1-2.394 3.031-4.325 5.419-5.419 0.5-0.231 0.725-0.825 0.494-1.325z"/>
</svg>