<svg version="1.1" xmlns="http://www.w3.org/2000/svg" width="32" height="32" viewBox="0 0 32 32">
<path fill="currentColor" d="M5.412 4l5.325 5.325c1.419-1.719 2.262-3.925 2.262-6.325 0-0.919-0.125-1.806-0.356-2.65-2.731 0.588-5.206 1.869-7.231 3.65zM4 5.412c-1.781 2.025-3.063 4.5-3.65 7.231 0.844 0.231 1.731 0.356 2.65 0.356 2.4 0 4.606-0.844 6.331-2.256l-5.331-5.331zM16 0c-0.456 0-0.912 0.019-1.363 0.056 0.238 0.944 0.363 1.931 0.363 2.944 0 2.956-1.069 5.656-2.838 7.75l3.838 3.838 10.587-10.588c-2.825-2.487-6.531-4-10.588-4zM3 15c-1.012 0-2-0.125-2.944-0.363-0.037 0.45-0.056 0.906-0.056 1.363 0 4.056 1.512 7.762 4 10.587l10.588-10.588-3.838-3.838c-2.094 1.769-4.794 2.838-7.75 2.838zM31.944 17.363c0.038-0.45 0.056-0.906 0.056-1.363 0-4.056-1.512-7.762-4-10.588l-10.587 10.588 3.837 3.837c2.087-1.769 4.794-2.837 7.75-2.837 1.012 0 2 0.125 2.944 0.363zM31.65 19.356c-0.844-0.231-1.731-0.356-2.65-0.356-2.4 0-4.606 0.844-6.331 2.256l5.331 5.331c1.781-2.019 3.069-4.494 3.65-7.231zM21.256 22.669c-1.413 1.725-2.256 3.931-2.256 6.331 0 0.919 0.125 1.806 0.356 2.65 2.731-0.587 5.206-1.869 7.231-3.65l-5.325-5.325zM19.837 21.25l-3.838-3.837-10.588 10.587c2.819 2.488 6.525 4 10.588 4 0.456 0 0.912-0.019 1.362-0.056-0.238-0.944-0.363-1.931-0.363-2.944 0-2.956 1.069-5.656 2.837-7.75z"/>
</svg>