<svg version="1.1" xmlns="http://www.w3.org/2000/svg" width="32" height="32" viewBox="0 0 32 32">
<path fill="currentColor" d="M6 4.831c0-0.456 0.369-0.831 0.831-0.831 0.219 0 0.431 0.088 0.588 0.244l0.931 0.931c-0.225 0.563-0.35 1.181-0.35 1.825 0 1.244 0.45 2.375 1.2 3.25-0.331 0.575-0.25 1.319 0.238 1.813 0.588 0.588 1.537 0.588 2.119 0l6.506-6.5c0.587-0.588 0.587-1.537 0-2.119-0.494-0.494-1.238-0.569-1.813-0.237-0.875-0.756-2.006-1.206-3.25-1.206-0.644 0-1.262 0.125-1.825 0.344l-0.931-0.931c-0.906-0.906-2.138-1.413-3.412-1.413-2.669 0-4.831 2.163-4.831 4.831v11.169c-1.106 0-2 0.894-2 2s0.894 2 2 2h28c1.106 0 2-0.894 2-2s-0.894-2-2-2h-24v-11.169zM2 22v1c0 1.775 0.775 3.375 2 4.475v2.525c0 1.106 0.894 2 2 2s2-0.894 2-2v-1h16v1c0 1.106 0.894 2 2 2s2-0.894 2-2v-2.525c1.225-1.1 2-2.694 2-4.475v-1h-28z"/>
</svg>