<svg version="1.1" xmlns="http://www.w3.org/2000/svg" width="40" height="32" viewBox="0 0 40 32">
<path fill="currentColor" d="M30.2 0.6l2.55 3.4h5.75c0.831 0 1.5 0.669 1.5 1.5s-0.669 1.5-1.5 1.5h-6.5c-0.475 0-0.919-0.225-1.2-0.6l-1.506-2.006-2.938 6.244c-0.231 0.488-0.706 0.819-1.244 0.856s-1.056-0.213-1.356-0.662l-2.556-3.831h-7.7c-0.831 0-1.5-0.669-1.5-1.5s0.669-1.5 1.5-1.5h8.5c0.5 0 0.969 0.25 1.25 0.669l1.525 2.287 2.869-6.094c0.225-0.475 0.681-0.8 1.206-0.856s1.038 0.169 1.35 0.594zM20 10h0.794l1.294 1.944c0.7 1.050 1.913 1.644 3.169 1.55s2.369-0.856 2.906-2l0.706-1.494h5.131c3.313 0 6 2.688 6 6v14c0 1.106-0.894 2-2 2s-2-0.894-2-2v-2h-32v2c0 1.106-0.894 2-2 2s-2-0.894-2-2v-24c0-1.106 0.894-2 2-2s2 0.894 2 2v16h14v-10c0-1.106 0.894-2 2-2zM11 10c2.761 0 5 2.239 5 5s-2.239 5-5 5v0c-2.761 0-5-2.239-5-5s2.239-5 5-5v0z"/>
</svg>