<svg version="1.1" xmlns="http://www.w3.org/2000/svg" width="32" height="32" viewBox="0 0 32 32">
<path fill="currentColor" d="M2 4c0-1.106 0.894-2 2-2h18c1.106 0 2 0.894 2 2v2h3.2c2.65 0 4.8 2.15 4.8 4.8v6.381c0 1.9-1.119 3.619-2.85 4.387l-5.15 2.288v2.144c0 2.206-1.794 4-4 4h-14c-2.206 0-4-1.794-4-4v-22zM24 19.475l3.525-1.569c0.288-0.131 0.475-0.413 0.475-0.731v-6.375c0-0.444-0.356-0.8-0.8-0.8h-3.2v9.475zM10 9c0-0.55-0.45-1-1-1s-1 0.45-1 1v14c0 0.55 0.45 1 1 1s1-0.45 1-1v-14zM14 9c0-0.55-0.45-1-1-1s-1 0.45-1 1v14c0 0.55 0.45 1 1 1s1-0.45 1-1v-14zM18 9c0-0.55-0.45-1-1-1s-1 0.45-1 1v14c0 0.55 0.45 1 1 1s1-0.45 1-1v-14z"/>
</svg>