<svg version="1.1" xmlns="http://www.w3.org/2000/svg" width="28" height="32" viewBox="0 0 28 32">
<path fill="currentColor" d="M14 0c-1.106 0-2 0.894-2 2v1.2c-4.563 0.925-8 4.963-8 9.8v1.175c0 2.938-1.081 5.775-3.031 7.975l-0.463 0.519c-0.525 0.587-0.65 1.431-0.331 2.15s1.038 1.181 1.825 1.181h24c0.788 0 1.5-0.462 1.825-1.181s0.194-1.563-0.331-2.15l-0.462-0.519c-1.95-2.2-3.031-5.031-3.031-7.975v-1.175c0-4.838-3.438-8.875-8-9.8v-1.2c0-1.106-0.894-2-2-2zM16.831 30.831c0.75-0.75 1.169-1.769 1.169-2.831h-8c0 1.063 0.419 2.081 1.169 2.831s1.769 1.169 2.831 1.169 2.081-0.419 2.831-1.169z"/>
</svg>