<svg version="1.1" xmlns="http://www.w3.org/2000/svg" width="40" height="32" viewBox="0 0 40 32">
<path fill="currentColor" d="M2.425 0.319c-0.65-0.512-1.594-0.394-2.106 0.256s-0.394 1.594 0.256 2.106l37 29c0.65 0.513 1.594 0.394 2.106-0.256s0.394-1.594-0.256-2.106l-5.469-4.287c0.031-0.106 0.044-0.219 0.044-0.337 0-1.725-0.688-3.381-1.906-4.606l-0.094-0.087c-1.281-1.281-2-3.019-2-4.831v-2.169c0-4.838-3.438-8.875-8-9.8v-1.2c0-1.106-0.894-2-2-2s-2 0.894-2 2v1.2c-2.662 0.538-4.938 2.138-6.375 4.331l-9.2-7.213zM10 15.169c0 1.813-0.719 3.55-2 4.831l-0.094 0.094c-1.219 1.219-1.906 2.875-1.906 4.606 0 0.719 0.581 1.3 1.3 1.3h18.087l-15.387-12.119v1.294zM24 28h-8c0 1.063 0.419 2.081 1.169 2.831s1.769 1.169 2.831 1.169 2.081-0.419 2.831-1.169 1.169-1.769 1.169-2.831z"/>
</svg>