<svg version="1.1" xmlns="http://www.w3.org/2000/svg" width="40" height="32" viewBox="0 0 40 32">
<path fill="currentColor" d="M18.5 8.5v-3h3v3h-3zM18 2c-1.656 0-3 1.344-3 3v0.25h-7.4c-0.65-1.331-2.019-2.25-3.6-2.25-2.206 0-4 1.794-4 4s1.794 4 4 4c1.581 0 2.95-0.919 3.6-2.25h4.181c-3.681 2.475-6.181 6.563-6.5 11.25h-0.281c-1.656 0-3 1.344-3 3v4c0 1.656 1.344 3 3 3h4c1.656 0 3-1.344 3-3v-4c0-1.656-1.344-3-3-3h-0.206c0.369-4.188 3.031-7.713 6.719-9.319 0.538 0.794 1.45 1.319 2.488 1.319h4c1.038 0 1.944-0.525 2.488-1.319 3.688 1.606 6.35 5.131 6.719 9.319h-0.206c-1.656 0-3 1.344-3 3v4c0 1.656 1.344 3 3 3h4c1.656 0 3-1.344 3-3v-4c0-1.656-1.344-3-3-3h-0.281c-0.313-4.688-2.819-8.775-6.5-11.25h4.181c0.65 1.331 2.019 2.25 3.6 2.25 2.206 0 4-1.794 4-4s-1.794-4-4-4c-1.581 0-2.95 0.919-3.6 2.25h-7.4v-0.25c0-1.656-1.344-3-3-3h-4zM5.5 23.5h3v3h-3v-3zM31.5 26.5v-3h3v3h-3z"/>
</svg>