<svg version="1.1" xmlns="http://www.w3.org/2000/svg" width="40" height="32" viewBox="0 0 40 32">
<path fill="currentColor" d="M19.5 2c-0.831 0-1.5 0.669-1.5 1.5s0.669 1.5 1.5 1.5h1.606l2.163 4h-9.338l-1.713-2.375c-0.281-0.394-0.738-0.625-1.219-0.625h-3.5c-0.831 0-1.5 0.669-1.5 1.5s0.669 1.5 1.5 1.5h2.731l1.381 1.919-1.662 3.319c-0.625-0.156-1.281-0.238-1.95-0.238-4.419 0-8 3.581-8 8s3.581 8 8 8c4.081 0 7.444-3.056 7.938-7h3.063c0.531 0 1.019-0.281 1.294-0.738l5.3-8.969 1.356 2.506c-1.8 1.469-2.95 3.7-2.95 6.2 0 4.419 3.581 8 8 8s8-3.581 8-8-3.581-8-8-8c-0.844 0-1.656 0.131-2.419 0.375l-6.119-11.325c-0.35-0.65-1.025-1.050-1.762-1.050h-2.2zM28.663 18.981l2.019 3.731c0.394 0.731 1.306 1 2.031 0.606s1-1.306 0.606-2.031l-2.019-3.731c0.225-0.038 0.462-0.056 0.7-0.056 2.487 0 4.5 2.012 4.5 4.5s-2.013 4.5-4.5 4.5-4.5-2.012-4.5-4.5c0-1.163 0.438-2.219 1.163-3.019zM8.325 23h4.063c-0.456 2.006-2.25 3.5-4.388 3.5-2.487 0-4.5-2.012-4.5-4.5s2.013-4.5 4.5-4.5c0.106 0 0.212 0.006 0.319 0.012l-1.513 3.031c-0.563 1.131 0.256 2.462 1.519 2.462zM10.431 20l3.169-6.331 4.556 6.325-0.006 0.006h-7.725zM16.094 12h6.775l-3.056 5.175-3.725-5.175z"/>
</svg>