<svg version="1.1" xmlns="http://www.w3.org/2000/svg" width="32" height="32" viewBox="0 0 32 32">
<path fill="currentColor" d="M8 2h2c1.106 0 2 0.894 2 2v2h-6v-2c0-1.106 0.894-2 2-2zM12 8v20c0 1.106-0.894 2-2 2h-8c-1.106 0-2-0.894-2-2v-3.694c0-2.163 0.588-4.288 1.7-6.144 0.856-1.425 1.406-3.012 1.613-4.662l0.469-3.75c0.125-1 0.975-1.75 1.987-1.75h6.231zM26.238 8c1.006 0 1.863 0.75 1.988 1.75l0.462 3.75c0.206 1.65 0.756 3.238 1.613 4.663 1.113 1.856 1.7 3.981 1.7 6.144v3.694c0 1.106-0.894 2-2 2h-8c-1.106 0-2-0.894-2-2v-20h6.238zM20 4c0-1.106 0.894-2 2-2h2c1.106 0 2 0.894 2 2v2h-6v-2zM18 8v10h-4v-10h4z"/>
</svg>