<svg version="1.1" xmlns="http://www.w3.org/2000/svg" width="36" height="32" viewBox="0 0 36 32">
<path fill="currentColor" d="M10.825 0c-0.113 0-0.219 0.044-0.3 0.125-1.869 1.894-3.025 4.5-3.025 7.375 0 1.637 0.375 3.181 1.037 4.563-1.375 0.15-2.737 0.569-4.013 1.281-2.156 1.206-3.694 3.056-4.5 5.156-0.044 0.106-0.031 0.231 0.031 0.325 0.138 0.231 0.463 0.269 0.662 0.081 3.294-3.012 9.156-3.588 12.094 1.344s-0.506 9.569-4.85 10.825c-0.263 0.075-0.394 0.369-0.256 0.6 0.063 0.1 0.162 0.169 0.281 0.188 2.281 0.369 4.7 0.006 6.856-1.2 1.275-0.712 2.337-1.656 3.156-2.738 0.819 1.081 1.881 2.025 3.156 2.738 2.156 1.206 4.581 1.575 6.856 1.2 0.119-0.019 0.219-0.087 0.281-0.188 0.137-0.231 0.006-0.525-0.256-0.6-4.344-1.256-7.787-5.887-4.85-10.825s8.794-4.363 12.094-1.337c0.2 0.181 0.525 0.144 0.663-0.081 0.063-0.1 0.069-0.219 0.031-0.325-0.806-2.1-2.344-3.95-4.506-5.156-1.275-0.713-2.637-1.131-4.012-1.281 0.669-1.387 1.044-2.931 1.044-4.569 0-2.875-1.156-5.481-3.025-7.375-0.081-0.081-0.188-0.125-0.3-0.125-0.313 0-0.525 0.325-0.419 0.619 1.6 4.412-0.656 10.381-6.756 10.381s-8.356-5.969-6.756-10.381c0.106-0.294-0.1-0.619-0.419-0.619zM15 17c0-1.657 1.343-3 3-3s3 1.343 3 3v0c0 1.657-1.343 3-3 3s-3-1.343-3-3v0zM11.356 26.1c0.394-0.738 0.613-1.569 0.537-2.488-1.219-1.125-2.125-2.587-2.575-4.238-0.781-0.506-1.638-0.738-2.5-0.775-0.563-0.025-1.131 0.038-1.694 0.169 0.487 3.569 2.419 6.675 5.181 8.713 0.425-0.419 0.787-0.881 1.050-1.381zM18 4c-1.8 0-3.519 0.369-5.075 1.031 0.125 0.519 0.313 1.013 0.563 1.469 0.425 0.775 1.044 1.444 1.881 1.894 0.831-0.256 1.719-0.394 2.638-0.394s1.8 0.137 2.637 0.394c0.837-0.45 1.456-1.119 1.881-1.894 0.25-0.456 0.438-0.95 0.563-1.469-1.569-0.662-3.288-1.031-5.088-1.031zM26.681 19.375c-0.45 1.65-1.356 3.106-2.575 4.238-0.075 0.919 0.137 1.756 0.538 2.488 0.269 0.5 0.625 0.962 1.050 1.381 2.769-2.038 4.7-5.144 5.181-8.712-0.563-0.137-1.131-0.194-1.694-0.169-0.863 0.038-1.719 0.275-2.5 0.775z"/>
</svg>