<svg version="1.1" xmlns="http://www.w3.org/2000/svg" width="20" height="32" viewBox="0 0 20 32">
<path fill="currentColor" d="M3 2c0-1.106 0.894-2 2-2s2 0.894 2 2v2h2v-2c0-1.106 0.894-2 2-2s2 0.894 2 2v2c0 0.094-0.006 0.194-0.019 0.281 2.9 0.856 5.019 3.537 5.019 6.719 0 1.512-0.481 2.912-1.294 4.056 1.981 1.237 3.294 3.437 3.294 5.944 0 3.869-3.131 7-7 7v2c0 1.106-0.894 2-2 2s-2-0.894-2-2v-2h-2v2c0 1.106-0.894 2-2 2s-2-0.894-2-2v-2h-0.394c-1.438 0-2.606-1.169-2.606-2.606v-19.044c0-1.3 1.050-2.35 2.35-2.35h0.65v-2zM4 14h7c1.656 0 3-1.344 3-3s-1.344-3-3-3h-7v6zM11 18h-7v6h9c1.656 0 3-1.344 3-3s-1.344-3-3-3h-2z"/>
</svg>