<svg version="1.1" xmlns="http://www.w3.org/2000/svg" width="32" height="32" viewBox="0 0 32 32">
<path fill="currentColor" d="M0 4c0-2.206 1.794-4 4-4h25.381c1.319 0 2.275 1.256 1.931 2.525l-0.406 1.475h-9.906c-0.55 0-1 0.45-1 1s0.45 1 1 1h9.363l-1.094 4h-8.269c-0.55 0-1 0.45-1 1s0.45 1 1 1h7.725l-1.094 4h-6.631c-0.55 0-1 0.45-1 1s0.45 1 1 1h6.094l-1.094 4h-16l-0.544-6h-5.456c-2.206 0-4-1.794-4-4v-8zM9.094 12l-0.731-8h-4.362v8h5.094zM9 24h18c1.656 0 3 1.344 3 3v2c0 1.656-1.344 3-3 3h-18c-1.656 0-3-1.344-3-3v-2c0-1.656 1.344-3 3-3zM18 30c1.105 0 2-0.895 2-2s-0.895-2-2-2v0c-1.105 0-2 0.895-2 2s0.895 2 2 2v0z"/>
</svg>