<svg version="1.1" xmlns="http://www.w3.org/2000/svg" width="36" height="32" viewBox="0 0 36 32">
<path fill="currentColor" d="M14 22l-1.7-18.731c-0.162-1.756 1.219-3.269 2.988-3.269h18.094c1.319 0 2.275 1.256 1.931 2.525l-0.406 1.475h-9.906c-0.55 0-1 0.45-1 1s0.45 1 1 1h9.362l-1.094 4h-8.269c-0.55 0-1 0.45-1 1s0.45 1 1 1h7.725l-1.094 4h-6.631c-0.55 0-1 0.45-1 1s0.45 1 1 1h6.094l-1.094 4h-16zM13 24h18c1.656 0 3 1.344 3 3v2c0 1.656-1.344 3-3 3h-18c-1.656 0-3-1.344-3-3v-2c0-1.656 1.344-3 3-3zM22 30c1.105 0 2-0.895 2-2s-0.895-2-2-2v0c-1.105 0-2 0.895-2 2s0.895 2 2 2v0zM9.219 1.919c0.675 0.419 0.956 1.313 0.662 2.087l-1.375 3.612c-0.262 0.681-0.906 1.1-1.581 1.025l-2.081-0.225c-0.85 2.637-0.85 5.525 0 8.169l2.081-0.225c0.681-0.075 1.325 0.344 1.581 1.025l1.375 3.613c0.294 0.775 0.012 1.669-0.662 2.087l-2.75 1.7c-0.606 0.375-1.369 0.262-1.862-0.269-6.144-6.644-6.144-17.394 0-24.031 0.494-0.531 1.256-0.644 1.862-0.269l2.75 1.7z"/>
</svg>