<svg version="1.1" xmlns="http://www.w3.org/2000/svg" width="32" height="32" viewBox="0 0 32 32">
<path fill="currentColor" d="M12 2c0 1.106 0.894 2 2 2 7.731 0 14 6.269 14 14 0 1.106 0.894 2 2 2s2-0.894 2-2c0-9.944-8.056-18-18-18-1.106 0-2 0.894-2 2zM12 8c0 1.106 0.894 2 2 2 4.419 0 8 3.581 8 8 0 1.106 0.894 2 2 2s2-0.894 2-2c0-6.625-5.375-12-12-12-1.106 0-2 0.894-2 2zM6 9c0-1.656-1.344-3-3-3s-3 1.344-3 3v14c0 4.969 4.031 9 9 9s9-4.031 9-9-4.031-9-9-9h-1v6h1c1.656 0 3 1.344 3 3s-1.344 3-3 3-3-1.344-3-3v-14z"/>
</svg>