<svg version="1.1" xmlns="http://www.w3.org/2000/svg" width="32" height="32" viewBox="0 0 32 32">
<path fill="currentColor" d="M28.694 3.275l-1.031-2.869c-0.119-0.244-0.381-0.406-0.656-0.406s-0.531 0.163-0.65 0.406l-1.031 2.869-2.875 1.050c-0.269 0.1-0.456 0.369-0.45 0.65 0 0.281 0.188 0.544 0.45 0.638l2.856 1.050 1.050 2.862c0.094 0.275 0.363 0.469 0.65 0.469s0.556-0.194 0.65-0.469l1.031-2.862 2.856-1.050c0.262-0.094 0.45-0.356 0.45-0.638 0-0.287-0.188-0.556-0.45-0.65l-2.85-1.050zM20.419 6.588c-0.781-0.781-2.050-0.781-2.831 0l-0.181 0.181c-1.375-0.5-2.863-0.769-4.406-0.769-7.181 0-13 5.819-13 13s5.819 13 13 13 13-5.819 13-13c0-1.544-0.269-3.031-0.762-4.406l0.181-0.181c0.781-0.781 0.781-2.050 0-2.831l-5-5zM12.5 12c-3.588 0-6.5 2.912-6.5 6.5v0.5c0 0.55-0.45 1-1 1s-1-0.45-1-1v-0.5c0-4.694 3.806-8.5 8.5-8.5h0.5c0.55 0 1 0.45 1 1s-0.45 1-1 1h-0.5z"/>
</svg>