<svg version="1.1" xmlns="http://www.w3.org/2000/svg" width="36" height="32" viewBox="0 0 36 32">
<path fill="currentColor" d="M9.606 9.050c0.431 1.019 1.287 1.95 2.394 1.95h12c1.106 0 1.962-0.931 2.394-1.95 0.756-1.794 2.538-3.050 4.606-3.050 2.763 0 5 2.237 5 5 0 1.9-1.063 3.556-2.625 4.4-0.225 0.119-0.375 0.344-0.375 0.6s0.15 0.481 0.375 0.6c1.563 0.844 2.625 2.5 2.625 4.4 0 2.762-2.237 5-5 5-2.069 0-3.85-1.256-4.606-3.050-0.431-1.019-1.288-1.95-2.394-1.95h-12c-1.106 0-1.963 0.931-2.394 1.95-0.756 1.794-2.537 3.050-4.606 3.050-2.763 0-5-2.238-5-5 0-1.9 1.063-3.556 2.625-4.4 0.225-0.119 0.375-0.344 0.375-0.6s-0.15-0.481-0.375-0.6c-1.563-0.844-2.625-2.5-2.625-4.4 0-2.762 2.237-5 5-5 2.069 0 3.85 1.256 4.606 3.050z"/>
</svg>