<svg version="1.1" xmlns="http://www.w3.org/2000/svg" width="28" height="32" viewBox="0 0 28 32">
<path fill="currentColor" d="M10 13.031c0 1.819-0.975 3.369-2.325 4.238-1.075 0.694-1.969 1.631-2.606 2.731h13.862c-0.637-1.1-1.531-2.038-2.606-2.731-1.35-0.869-2.325-2.419-2.325-4.238v-9.031h-4v9.031zM18 4v9.031c0 0.356 0.194 0.681 0.494 0.875 0.7 0.45 1.344 0.969 1.931 1.55l2.456-2.456-0.438-0.438c-0.587-0.588-0.587-1.537 0-2.119s1.538-0.588 2.119 0l3 3c0.587 0.588 0.587 1.537 0 2.119s-1.538 0.587-2.119 0l-0.438-0.438-2.706 2.706c1.075 1.8 1.7 3.913 1.7 6.169 0 2.462-0.744 4.756-2.012 6.656-0.6 0.9-1.656 1.344-2.738 1.344h-14.494c-1.081 0-2.138-0.444-2.737-1.344-1.275-1.9-2.019-4.194-2.019-6.656 0-4.238 2.194-7.956 5.506-10.094 0.3-0.194 0.494-0.519 0.494-0.875v-9.031c-1.106 0-2-0.894-2-2s0.894-2 2-2h12c1.106 0 2 0.894 2 2s-0.894 2-2 2z"/>
</svg>