<svg version="1.1" xmlns="http://www.w3.org/2000/svg" width="32" height="32" viewBox="0 0 32 32">
<path fill="currentColor" d="M10 6c0-3.314 2.686-6 6-6s6 2.686 6 6v0c0 3.314-2.686 6-6 6s-6-2.686-6-6v0zM15 15.5v16.5l-3.025-1.512c-1.306-0.65-2.719-1.063-4.175-1.206l-6-0.6c-1.019-0.106-1.8-0.962-1.8-1.994v-12.688c0-1.106 0.894-2 2-2h1.894c3.975 0 7.85 1.225 11.106 3.5zM17 32v-16.5c3.256-2.275 7.131-3.5 11.106-3.5h1.894c1.106 0 2 0.894 2 2v12.688c0 1.025-0.781 1.887-1.8 1.988l-6 0.6c-1.45 0.144-2.869 0.556-4.175 1.206l-3.025 1.519z"/>
</svg>