<svg version="1.1" xmlns="http://www.w3.org/2000/svg" width="28" height="32" viewBox="0 0 28 32">
<path fill="currentColor" d="M6 0c-3.313 0-6 2.688-6 6v20c0 3.313 2.688 6 6 6h20c1.106 0 2-0.894 2-2s-0.894-2-2-2v-4c1.106 0 2-0.894 2-2v-20c0-1.106-0.894-2-2-2h-20zM6 24h16v4h-16c-1.106 0-2-0.894-2-2s0.894-2 2-2zM13 5c0-0.55 0.45-1 1-1h2c0.55 0 1 0.45 1 1v3h3c0.55 0 1 0.45 1 1v2c0 0.55-0.45 1-1 1h-3v7c0 0.55-0.45 1-1 1h-2c-0.55 0-1-0.45-1-1v-7h-3c-0.55 0-1-0.45-1-1v-2c0-0.55 0.45-1 1-1h3v-3z"/>
</svg>