<svg version="1.1" xmlns="http://www.w3.org/2000/svg" width="28" height="32" viewBox="0 0 28 32">
<path fill="currentColor" d="M0 6c0-3.313 2.688-6 6-6h20c1.106 0 2 0.894 2 2v20c0 1.106-0.894 2-2 2v4c1.106 0 2 0.894 2 2s-0.894 2-2 2h-20c-3.313 0-6-2.688-6-6v-20zM4 26c0 1.106 0.894 2 2 2h16v-4h-16c-1.106 0-2 0.894-2 2zM13 7v3h-3c-0.55 0-1 0.45-1 1v2c0 0.55 0.45 1 1 1h3v3c0 0.55 0.45 1 1 1h2c0.55 0 1-0.45 1-1v-3h3c0.55 0 1-0.45 1-1v-2c0-0.55-0.45-1-1-1h-3v-3c0-0.55-0.45-1-1-1h-2c-0.55 0-1 0.45-1 1z"/>
</svg>