<svg version="1.1" xmlns="http://www.w3.org/2000/svg" width="28" height="32" viewBox="0 0 28 32">
<path fill="currentColor" d="M22 0c3.313 0 6 2.688 6 6v20c0 3.313-2.688 6-6 6h-20c-1.106 0-2-0.894-2-2s0.894-2 2-2v-4c-1.106 0-2-0.894-2-2v-20c0-1.106 0.894-2 2-2h20zM22 24h-16v4h16c1.106 0 2-0.894 2-2s-0.894-2-2-2zM8.669 13l0.869 1.5h-1.731l0.869-1.5zM7.8 11.5l-1.731 3c-0.388 0.669 0.094 1.5 0.869 1.5h3.463l1.731 3c0.387 0.669 1.35 0.669 1.731 0l1.731-3h3.469c0.769 0 1.25-0.831 0.869-1.5l-1.731-3 1.731-3c0.387-0.669-0.094-1.5-0.869-1.5h-3.463l-1.731-3c-0.387-0.669-1.35-0.669-1.731 0l-1.731 3h-3.469c-0.769 0-1.25 0.831-0.869 1.5l1.731 3zM9.531 11.5l1.731-3h3.463l1.731 3-1.731 3h-3.456l-1.731-3zM9.531 8.5l-0.869 1.5-0.869-1.5h1.731zM12.131 7l0.869-1.5 0.869 1.5h-1.738zM16.462 8.5h1.731l-0.869 1.5-0.869-1.5zM17.331 13l0.869 1.5h-1.738l0.869-1.5zM13.869 16l-0.869 1.5-0.869-1.5h1.731z"/>
</svg>