<svg version="1.1" xmlns="http://www.w3.org/2000/svg" width="28" height="32" viewBox="0 0 28 32">
<path fill="currentColor" d="M0 6c0-3.313 2.688-6 6-6h20c1.106 0 2 0.894 2 2v20c0 1.106-0.894 2-2 2v4c1.106 0 2 0.894 2 2s-0.894 2-2 2h-20c-3.313 0-6-2.688-6-6v-20zM4 26c0 1.106 0.894 2 2 2h16v-4h-16c-1.106 0-2 0.894-2 2zM20 7c0-2.206-2.238-4-5-4s-5 1.794-5 4c0 1.306 0.787 2.469 2 3.2v0.8c0 0.55 0.45 1 1 1h4c0.55 0 1-0.45 1-1v-0.8c1.212-0.731 2-1.894 2-3.2zM13 6c0.552 0 1 0.448 1 1s-0.448 1-1 1v0c-0.552 0-1-0.448-1-1s0.448-1 1-1v0zM16 7c0-0.552 0.448-1 1-1s1 0.448 1 1v0c0 0.552-0.448 1-1 1s-1-0.448-1-1v0zM8.394 13.081c-0.506-0.219-1.094 0.019-1.313 0.525s0.019 1.094 0.525 1.313l4.856 2.081-4.856 2.081c-0.506 0.219-0.744 0.806-0.525 1.313s0.806 0.744 1.312 0.525l6.606-2.831 6.606 2.831c0.506 0.219 1.094-0.019 1.313-0.525s-0.019-1.094-0.525-1.313l-4.856-2.081 4.856-2.081c0.506-0.219 0.744-0.806 0.525-1.313s-0.806-0.744-1.313-0.525l-6.606 2.831-6.606-2.831z"/>
</svg>