<svg version="1.1" xmlns="http://www.w3.org/2000/svg" width="36" height="32" viewBox="0 0 36 32">
<path fill="currentColor" d="M15.6 29.469c0.675 0.238 1.4-0.256 1.4-0.969v-23.587c0-0.263-0.1-0.525-0.313-0.688-1.225-0.975-4.037-2.225-7.688-2.225-3.156 0-6.106 0.831-7.869 1.506-0.706 0.275-1.131 0.975-1.131 1.731v23.144c0 0.744 0.8 1.262 1.506 1.031 1.969-0.656 5.088-1.413 7.494-1.413 2.119 0 4.938 0.875 6.6 1.469zM20.4 29.469c1.663-0.594 4.481-1.469 6.6-1.469 2.406 0 5.525 0.756 7.494 1.413 0.706 0.238 1.506-0.288 1.506-1.031v-23.144c0-0.756-0.425-1.456-1.131-1.725-1.763-0.681-4.712-1.512-7.869-1.512-3.65 0-6.462 1.25-7.688 2.225-0.206 0.162-0.313 0.425-0.313 0.688v23.587c0 0.712 0.731 1.206 1.4 0.969z"/>
</svg>