<svg version="1.1" xmlns="http://www.w3.org/2000/svg" width="28" height="32" viewBox="0 0 28 32">
<path fill="currentColor" d="M0 6c0-3.313 2.688-6 6-6h20c1.106 0 2 0.894 2 2v20c0 1.106-0.894 2-2 2v4c1.106 0 2 0.894 2 2s-0.894 2-2 2h-20c-3.313 0-6-2.688-6-6v-20zM4 26c0 1.106 0.894 2 2 2h16v-4h-16c-1.106 0-2 0.894-2 2zM15.463 17.738c-0.231 0.231-0.387 0.262-0.463 0.262s-0.231-0.031-0.463-0.262c-0.238-0.231-0.5-0.625-0.738-1.181-0.387-0.906-0.675-2.144-0.762-3.556h3.938c-0.094 1.412-0.375 2.65-0.762 3.556-0.238 0.556-0.5 0.95-0.738 1.181zM18.131 17.119c0.456-1.144 0.75-2.569 0.837-4.119h1.944c-0.294 1.744-1.337 3.231-2.781 4.119zM18.131 6.881c1.45 0.888 2.494 2.375 2.781 4.119h-1.944c-0.087-1.544-0.381-2.969-0.837-4.119zM23 12c0-4.418-3.582-8-8-8s-8 3.582-8 8v0c0 4.418 3.582 8 8 8s8-3.582 8-8v0zM9.081 13h1.944c0.088 1.544 0.381 2.969 0.838 4.119-1.45-0.887-2.494-2.375-2.781-4.119zM11.025 11h-1.944c0.294-1.744 1.338-3.231 2.781-4.119-0.456 1.144-0.75 2.569-0.838 4.119zM14.531 6.263c0.231-0.231 0.387-0.263 0.463-0.263s0.231 0.031 0.463 0.263c0.238 0.231 0.5 0.625 0.738 1.181 0.387 0.906 0.675 2.144 0.762 3.556h-3.938c0.094-1.412 0.375-2.65 0.762-3.556 0.238-0.556 0.5-0.95 0.738-1.181z"/>
</svg>