<svg version="1.1" xmlns="http://www.w3.org/2000/svg" width="28" height="32" viewBox="0 0 28 32">
<path fill="currentColor" d="M0 6c0-3.313 2.688-6 6-6h20c1.106 0 2 0.894 2 2v20c0 1.106-0.894 2-2 2v4c1.106 0 2 0.894 2 2s-0.894 2-2 2h-20c-3.313 0-6-2.688-6-6v-20zM4 26c0 1.106 0.894 2 2 2h16v-4h-16c-1.106 0-2 0.894-2 2zM9.65 11.35l-1.325-1.325c-0.188 0.631-0.319 1.287-0.319 1.975 0 0.012 0 0.031 0.006 0.050s0.006 0.031 0.006 0.050l2.306 2.025c0.156 0.131 0.213 0.363 0.144 0.556-0.081 0.188-0.256 0.319-0.469 0.319-0.119-0.006-0.238-0.050-0.325-0.125l-1.475-1.287c0.725 3.1 3.481 5.412 6.8 5.412s6.081-2.313 6.806-5.412l-1.475 1.287c-0.087 0.075-0.206 0.125-0.331 0.125-0.137-0.006-0.275-0.069-0.375-0.175-0.075-0.094-0.119-0.213-0.125-0.325 0.006-0.137 0.069-0.275 0.175-0.375l2.319-2.031c0-0.019 0-0.031 0.006-0.050s0.006-0.031 0.006-0.050c0-0.688-0.131-1.344-0.319-1.975l-1.325 1.325c-0.194 0.194-0.506 0.194-0.706 0s-0.194-0.506 0-0.7l1.65-1.656c-0.512-1.063-1.281-1.981-2.244-2.662-0.169-0.119-0.387 0.088-0.313 0.281 0.531 1.4 0.225 3-0.813 4.1-0.2 0.213-0.225 0.556-0.056 0.794 0.613 0.875 0.794 1.994 0.469 3.031-0.369 1.213-1.375 2.131-2.619 2.394l-0.088-2.144 0.788 0.537c0.038 0.025 0.094 0.037 0.144 0.037 0.094 0 0.169-0.050 0.219-0.125s0.038-0.175-0.006-0.25l-0.538-0.894 1.125-0.225c0.113-0.025 0.194-0.131 0.194-0.25s-0.087-0.219-0.194-0.244l-1.125-0.231 0.531-0.894c0.050-0.075 0.056-0.181 0.006-0.256s-0.125-0.125-0.219-0.125h-0.006c-0.044 0.006-0.094 0.019-0.131 0.044l-0.881 0.6-0.3-7.013c-0.006-0.138-0.119-0.244-0.25-0.244s-0.244 0.1-0.25 0.244l-0.287 6.925-0.75-0.506c-0.094-0.069-0.225-0.056-0.313 0.025s-0.1 0.213-0.050 0.313l0.537 0.894-1.125 0.231c-0.113 0.025-0.194 0.125-0.194 0.244s0.088 0.225 0.194 0.25l1.125 0.238-0.537 0.887c-0.012 0.037-0.031 0.088-0.031 0.125 0 0.069 0.031 0.131 0.075 0.188 0.050 0.037 0.113 0.063 0.175 0.063 0.044 0 0.1-0.012 0.137-0.037l0.65-0.444-0.088 2.050c-1.244-0.256-2.25-1.181-2.619-2.394-0.319-1.037-0.137-2.15 0.475-3.031 0.169-0.244 0.144-0.581-0.056-0.794-1.037-1.094-1.35-2.694-0.819-4.094 0.075-0.194-0.144-0.4-0.313-0.281-0.956 0.681-1.725 1.6-2.238 2.662l1.65 1.656c0.194 0.194 0.194 0.506 0 0.7s-0.506 0.194-0.7 0z"/>
</svg>