<svg version="1.1" xmlns="http://www.w3.org/2000/svg" width="28" height="32" viewBox="0 0 28 32">
<path fill="currentColor" d="M22 0c3.313 0 6 2.688 6 6v20c0 3.313-2.688 6-6 6h-20c-1.106 0-2-0.894-2-2s0.894-2 2-2v-4c-1.106 0-2-0.894-2-2v-20c0-1.106 0.894-2 2-2h20zM22 24h-16v4h16c1.106 0 2-0.894 2-2s-0.894-2-2-2zM17.131 9.387l-0.556 1.338-1.444 0.119c-0.356 0.031-0.5 0.469-0.231 0.7l1.1 0.944-0.338 1.412c-0.081 0.344 0.294 0.619 0.6 0.431l1.238-0.756 1.238 0.756c0.306 0.188 0.681-0.088 0.6-0.431l-0.337-1.412 1.1-0.944c0.269-0.231 0.125-0.675-0.231-0.7l-1.444-0.119-0.556-1.338c-0.137-0.331-0.6-0.331-0.738 0zM6 12c0 4.419 3.581 8 8 8 1.6 0 3.094-0.469 4.344-1.281 0.2-0.131 0.281-0.387 0.194-0.606s-0.325-0.35-0.563-0.3c-0.381 0.075-0.781 0.119-1.188 0.119-3.275 0-5.931-2.656-5.931-5.931s2.656-5.931 5.931-5.931c0.406 0 0.8 0.044 1.188 0.119 0.238 0.050 0.469-0.081 0.563-0.3s0.012-0.475-0.194-0.606c-1.25-0.813-2.744-1.281-4.344-1.281-4.419 0-8 3.581-8 8z"/>
</svg>