<svg version="1.1" xmlns="http://www.w3.org/2000/svg" width="20" height="32" viewBox="0 0 20 32">
<path fill="currentColor" d="M7.5 0h5c0.831 0 1.5 0.669 1.5 1.5v2.5h-8v-2.5c0-0.831 0.669-1.5 1.5-1.5zM2 9.481c0-0.975 0.563-1.862 1.45-2.281l1.525-0.713c0.688-0.319 1.438-0.487 2.194-0.487h5.662c0.756 0 1.506 0.169 2.194 0.487l1.525 0.713c0.881 0.412 1.45 1.3 1.45 2.281 0 0.9-0.469 1.688-1.181 2.131 0.719 0.55 1.181 1.412 1.181 2.388 0 1.044-0.531 1.963-1.344 2.5 0.806 0.538 1.344 1.456 1.344 2.5s-0.531 1.962-1.344 2.5c0.806 0.538 1.344 1.456 1.344 2.5s-0.531 1.962-1.344 2.5c0.806 0.538 1.344 1.456 1.344 2.5 0 1.656-1.344 3-3 3h-10c-1.656 0-3-1.344-3-3 0-1.044 0.531-1.962 1.344-2.5-0.813-0.538-1.344-1.456-1.344-2.5s0.531-1.962 1.344-2.5c-0.813-0.538-1.344-1.456-1.344-2.5s0.531-1.962 1.344-2.5c-0.813-0.537-1.344-1.456-1.344-2.5 0-0.975 0.462-1.838 1.181-2.387-0.712-0.444-1.181-1.231-1.181-2.131zM6 15c0 0.55 0.45 1 1 1h6c0.55 0 1-0.45 1-1s-0.45-1-1-1h-6c-0.55 0-1 0.45-1 1zM7 22c-0.55 0-1 0.45-1 1s0.45 1 1 1h6c0.55 0 1-0.45 1-1s-0.45-1-1-1h-6z"/>
</svg>