<svg version="1.1" xmlns="http://www.w3.org/2000/svg" width="20" height="32" viewBox="0 0 20 32">
<path fill="currentColor" d="M6 0c-0.831 0-1.5 0.669-1.5 1.5s0.669 1.5 1.5 1.5c0.275 0 0.5 0.225 0.5 0.5v4.056c0 0.762-0.45 1.444-1.075 1.881-2.069 1.444-3.425 3.844-3.425 6.563v12c0 2.206 1.794 4 4 4h8c2.206 0 4-1.794 4-4v-12c0-2.719-1.356-5.119-3.425-6.563-0.625-0.438-1.075-1.119-1.075-1.881v-4.056c0-0.275 0.225-0.5 0.5-0.5 0.831 0 1.5-0.669 1.5-1.5s-0.669-1.5-1.5-1.5h-8zM10 23.875c-1.656 0-3-1.256-3-2.813 0-1.050 1.381-3.006 2.269-4.15 0.375-0.488 1.094-0.488 1.469 0 0.881 1.144 2.262 3.1 2.262 4.15 0 1.556-1.344 2.813-3 2.813z"/>
</svg>