<svg version="1.1" xmlns="http://www.w3.org/2000/svg" width="32" height="32" viewBox="0 0 32 32">
<path fill="currentColor" d="M11 3.5c0-0.831 0.669-1.5 1.5-1.5h1c0.831 0 1.5 0.669 1.5 1.5s-0.669 1.5-1.5 1.5h-1c-0.831 0-1.5-0.669-1.5-1.5zM12.5 6.5h1c0.831 0 1.5 0.669 1.5 1.5s-0.669 1.5-1.5 1.5h-1c-0.831 0-1.5-0.669-1.5-1.5s0.669-1.5 1.5-1.5zM3.5 11h1c0.831 0 1.5 0.669 1.5 1.5s-0.669 1.5-1.5 1.5h-1c-0.831 0-1.5-0.669-1.5-1.5s0.669-1.5 1.5-1.5zM0 17.712c0-0.944 0.769-1.713 1.712-1.713h28.575c0.944 0 1.712 0.769 1.712 1.713 0 4.406-2.775 8.169-6.669 9.631l-0.113 0.906c-0.125 1-0.975 1.75-1.988 1.75h-14.469c-1.006 0-1.862-0.75-1.987-1.75l-0.112-0.9c-3.888-1.469-6.662-5.231-6.662-9.637zM14 12.5c0-0.831 0.669-1.5 1.5-1.5h1c0.831 0 1.5 0.669 1.5 1.5s-0.669 1.5-1.5 1.5h-1c-0.831 0-1.5-0.669-1.5-1.5zM8 12.5c0-0.831 0.669-1.5 1.5-1.5h1c0.831 0 1.5 0.669 1.5 1.5s-0.669 1.5-1.5 1.5h-1c-0.831 0-1.5-0.669-1.5-1.5zM6.5 6.5h1c0.831 0 1.5 0.669 1.5 1.5s-0.669 1.5-1.5 1.5h-1c-0.831 0-1.5-0.669-1.5-1.5s0.669-1.5 1.5-1.5zM20 12.5c0-0.831 0.669-1.5 1.5-1.5h1c0.831 0 1.5 0.669 1.5 1.5s-0.669 1.5-1.5 1.5h-1c-0.831 0-1.5-0.669-1.5-1.5zM18.5 6.5h1c0.831 0 1.5 0.669 1.5 1.5s-0.669 1.5-1.5 1.5h-1c-0.831 0-1.5-0.669-1.5-1.5s0.669-1.5 1.5-1.5zM26 12.5c0-0.831 0.669-1.5 1.5-1.5h1c0.831 0 1.5 0.669 1.5 1.5s-0.669 1.5-1.5 1.5h-1c-0.831 0-1.5-0.669-1.5-1.5zM24.5 6.5h1c0.831 0 1.5 0.669 1.5 1.5s-0.669 1.5-1.5 1.5h-1c-0.831 0-1.5-0.669-1.5-1.5s0.669-1.5 1.5-1.5zM18.5 2h1c0.831 0 1.5 0.669 1.5 1.5s-0.669 1.5-1.5 1.5h-1c-0.831 0-1.5-0.669-1.5-1.5s0.669-1.5 1.5-1.5z"/>
</svg>