<svg version="1.1" xmlns="http://www.w3.org/2000/svg" width="40" height="32" viewBox="0 0 40 32">
<path fill="currentColor" d="M3.681 2.631c0.188-0.381 0.6-0.6 1.019-0.544l15.3 1.912 15.3-1.913c0.419-0.050 0.831 0.169 1.019 0.544l2.606 5.213c0.563 1.119-0.038 2.475-1.237 2.819l-10.212 2.919c-0.869 0.25-1.8-0.119-2.262-0.894l-5.213-8.688-5.213 8.688c-0.463 0.775-1.394 1.144-2.263 0.894l-10.206-2.919c-1.206-0.344-1.8-1.7-1.238-2.819l2.6-5.213zM20.069 8l3.431 5.713c0.931 1.55 2.788 2.287 4.531 1.787l7.969-2.275v10.438c0 1.375-0.938 2.575-2.275 2.913l-12.756 3.188c-0.637 0.163-1.306 0.163-1.938 0l-12.756-3.188c-1.338-0.344-2.275-1.544-2.275-2.919v-10.438l7.975 2.281c1.738 0.5 3.6-0.238 4.531-1.787l3.425-5.713h0.137z"/>
</svg>