<svg version="1.1" xmlns="http://www.w3.org/2000/svg" width="32" height="32" viewBox="0 0 32 32">
<path fill="currentColor" d="M5.781 0h7.219c2.5 0 3.25 1.5 4 3s1.5 3 4 3h5.325c0.925 0 1.675 0.75 1.675 1.675 0 0.213-0.044 0.425-0.119 0.625l-3.881 9.7h-16l-1-4-2.944-11.787c-0.037-0.144-0.056-0.288-0.056-0.431 0-0.981 0.8-1.781 1.781-1.781zM4.938 14l1 4h-0.938c-0.55 0-1 0.45-1 1s0.45 1 1 1h22c0.55 0 1-0.45 1-1s-0.45-1-1-1h-0.844l1.6-4h1.244c1.656 0 3 1.344 3 3v7h-32v-7c0-1.656 1.344-3 3-3h1.938zM0 26h32v3c0 1.656-1.344 3-3 3h-26c-1.656 0-3-1.344-3-3v-3z"/>
</svg>