<svg version="1.1" xmlns="http://www.w3.org/2000/svg" width="36" height="32" viewBox="0 0 36 32">
<path fill="currentColor" d="M15.5 0h-2.5c-1.656 0-3 1.344-3 3v7c0 2.206 1.794 4 4 4h8c2.206 0 4-1.794 4-4v-7c0-1.656-1.344-3-3-3h-2.5v5c0 0.55-0.45 1-1 1h-3c-0.55 0-1-0.45-1-1v-5zM4 16c-2.206 0-4 1.794-4 4v8c0 2.206 1.794 4 4 4h10c2.206 0 4-1.794 4-4v-8c0-2.206-1.794-4-4-4h-2.5v5c0 0.55-0.45 1-1 1h-3c-0.55 0-1-0.45-1-1v-5h-2.5zM22 32h10c2.206 0 4-1.794 4-4v-8c0-2.206-1.794-4-4-4h-2.5v5c0 0.55-0.45 1-1 1h-3c-0.55 0-1-0.45-1-1v-5h-2.5c-0.938 0-1.8 0.319-2.481 0.863 0.306 0.65 0.481 1.375 0.481 2.137v10c0 0.762-0.175 1.488-0.481 2.137 0.681 0.544 1.544 0.863 2.481 0.863z"/>
</svg>