<svg version="1.1" xmlns="http://www.w3.org/2000/svg" width="40" height="32" viewBox="0 0 40 32">
<path fill="currentColor" d="M16 3c0-1.656 1.344-3 3-3h18c1.656 0 3 1.344 3 3v26c0 1.656-1.344 3-3 3h-13.169c0.113-0.313 0.169-0.65 0.169-1v-15.169c1.163-0.412 2-1.525 2-2.831v-2c0-1.656-1.344-3-3-3h-7v-5zM35.706 21.706c0.388-0.387 0.388-1.025 0-1.413l-4-4c-0.387-0.387-1.025-0.387-1.413 0l-4 4c-0.387 0.387-0.387 1.025 0 1.413s1.025 0.387 1.413 0l2.294-2.294v7.587c0 0.55 0.45 1 1 1s1-0.45 1-1v-7.587l2.294 2.294c0.388 0.387 1.025 0.387 1.413 0zM0 11c0-0.55 0.45-1 1-1h22c0.55 0 1 0.45 1 1v2c0 0.55-0.45 1-1 1h-22c-0.55 0-1-0.45-1-1v-2zM22 16v14c0 1.106-0.894 2-2 2h-16c-1.106 0-2-0.894-2-2v-14h20zM9 20c-0.55 0-1 0.45-1 1s0.45 1 1 1h6c0.55 0 1-0.45 1-1s-0.45-1-1-1h-6z"/>
</svg>