<svg version="1.1" xmlns="http://www.w3.org/2000/svg" width="40" height="32" viewBox="0 0 40 32">
<path fill="currentColor" d="M0 6c0-2.209 1.791-4 4-4s4 1.791 4 4v0c0 2.209-1.791 4-4 4s-4-1.791-4-4v0zM14 17c0.552 0 1-0.448 1-1s-0.448-1-1-1v0c-0.552 0-1 0.448-1 1s0.448 1 1 1v0zM14 12c2.209 0 4 1.791 4 4s-1.791 4-4 4v0c-2.209 0-4-1.791-4-4s1.791-4 4-4v0zM5 26c0-0.552-0.448-1-1-1s-1 0.448-1 1v0c0 0.552 0.448 1 1 1s1-0.448 1-1v0zM0 26c0-2.209 1.791-4 4-4s4 1.791 4 4v0c0 2.209-1.791 4-4 4s-4-1.791-4-4v0zM15 26c0-0.552-0.448-1-1-1s-1 0.448-1 1v0c0 0.552 0.448 1 1 1s1-0.448 1-1v0zM10 26c0-2.209 1.791-4 4-4s4 1.791 4 4v0c0 2.209-1.791 4-4 4s-4-1.791-4-4v0zM4 12c2.209 0 4 1.791 4 4s-1.791 4-4 4v0c-2.209 0-4-1.791-4-4s1.791-4 4-4v0zM14 2c2.209 0 4 1.791 4 4s-1.791 4-4 4v0c-2.209 0-4-1.791-4-4s1.791-4 4-4v0zM22 6c0-2.209 1.791-4 4-4s4 1.791 4 4v0c0 2.209-1.791 4-4 4s-4-1.791-4-4v0zM37 6c0-0.552-0.448-1-1-1s-1 0.448-1 1v0c0 0.552 0.448 1 1 1s1-0.448 1-1v0zM32 6c0-2.209 1.791-4 4-4s4 1.791 4 4v0c0 2.209-1.791 4-4 4s-4-1.791-4-4v0zM36 17c0.552 0 1-0.448 1-1s-0.448-1-1-1v0c-0.552 0-1 0.448-1 1s0.448 1 1 1v0zM36 12c2.209 0 4 1.791 4 4s-1.791 4-4 4v0c-2.209 0-4-1.791-4-4s1.791-4 4-4v0zM37 26c0-0.552-0.448-1-1-1s-1 0.448-1 1v0c0 0.552 0.448 1 1 1s1-0.448 1-1v0zM32 26c0-2.209 1.791-4 4-4s4 1.791 4 4v0c0 2.209-1.791 4-4 4s-4-1.791-4-4v0zM26 17c0.552 0 1-0.448 1-1s-0.448-1-1-1v0c-0.552 0-1 0.448-1 1s0.448 1 1 1v0zM26 12c2.209 0 4 1.791 4 4s-1.791 4-4 4v0c-2.209 0-4-1.791-4-4s1.791-4 4-4v0zM27 26c0-0.552-0.448-1-1-1s-1 0.448-1 1v0c0 0.552 0.448 1 1 1s1-0.448 1-1v0zM22 26c0-2.209 1.791-4 4-4s4 1.791 4 4v0c0 2.209-1.791 4-4 4s-4-1.791-4-4v0z"/>
</svg>