<svg version="1.1" xmlns="http://www.w3.org/2000/svg" width="32" height="32" viewBox="0 0 32 32">
<path fill="currentColor" d="M11.5 0c1.931 0 3.5 1.569 3.5 3.5v25c0 1.931-1.569 3.5-3.5 3.5-1.806 0-3.294-1.369-3.481-3.131-0.325 0.087-0.669 0.131-1.019 0.131-2.206 0-4-1.794-4-4 0-0.462 0.081-0.913 0.225-1.325-1.887-0.712-3.225-2.538-3.225-4.675 0-1.994 1.169-3.719 2.862-4.519-0.544-0.681-0.862-1.544-0.862-2.481 0-1.919 1.35-3.519 3.15-3.912-0.1-0.344-0.15-0.713-0.15-1.088 0-1.869 1.287-3.444 3.019-3.881 0.188-1.75 1.675-3.119 3.481-3.119zM20.5 0c1.806 0 3.288 1.369 3.481 3.119 1.738 0.438 3.019 2.006 3.019 3.881 0 0.375-0.050 0.744-0.15 1.088 1.8 0.387 3.15 1.994 3.15 3.912 0 0.938-0.319 1.8-0.863 2.481 1.694 0.8 2.863 2.525 2.863 4.519 0 2.137-1.337 3.962-3.225 4.675 0.144 0.413 0.225 0.863 0.225 1.325 0 2.206-1.794 4-4 4-0.35 0-0.694-0.044-1.019-0.131-0.188 1.762-1.675 3.131-3.481 3.131-1.931 0-3.5-1.569-3.5-3.5v-25c0-1.931 1.569-3.5 3.5-3.5z"/>
</svg>