<svg version="1.1" xmlns="http://www.w3.org/2000/svg" width="32" height="32" viewBox="0 0 32 32">
<path fill="currentColor" d="M25 0c1.106 0 2 0.894 2 2v1.138c0.781 0.144 1.544 0.4 2.262 0.756l0.631 0.319c0.988 0.494 1.387 1.694 0.894 2.681s-1.694 1.387-2.681 0.894l-0.637-0.319c-0.619-0.313-1.306-0.469-2-0.469h-0.106c-1.863 0-3.369 1.506-3.369 3.369 0 1.375 0.837 2.612 2.119 3.125l3.25 1.3c2.794 1.119 4.631 3.825 4.631 6.838v0.212c0 3.2-2.1 5.913-5 6.825v1.331c0 1.106-0.894 2-2 2s-2-0.894-2-2v-1.212c-0.938-0.219-1.837-0.606-2.644-1.144l-1.462-0.975c-0.919-0.613-1.169-1.856-0.556-2.775s1.856-1.169 2.775-0.556l1.469 0.975c0.675 0.45 1.462 0.688 2.269 0.688 1.744 0 3.156-1.413 3.156-3.156v-0.212c0-1.375-0.837-2.613-2.119-3.125l-3.25-1.3c-2.8-1.119-4.631-3.825-4.631-6.838 0-3.244 2.094-5.994 5-6.981v-1.388c0-1.106 0.894-2 2-2zM0 4c0-1.106 0.894-2 2-2h5c4.969 0 9 4.031 9 9 0 3.675-2.2 6.831-5.356 8.231l3.213 8.025c0.412 1.025-0.088 2.188-1.113 2.6s-2.188-0.087-2.6-1.113l-3.5-8.744h-2.644v8c0 1.106-0.894 2-2 2s-2-0.894-2-2v-24zM4 16h3c2.762 0 5-2.238 5-5s-2.238-5-5-5h-3v10z"/>
</svg>