<svg version="1.1" xmlns="http://www.w3.org/2000/svg" width="40" height="32" viewBox="0 0 40 32">
<path fill="currentColor" d="M4 2c-1.106 0-2 0.894-2 2s0.894 2 2 2h2.5v4h-4.5v8c3.313 0 6 2.688 6 6v4c0 1.106 0.894 2 2 2h2c1.106 0 2-0.894 2-2v-4c0-3.313 2.688-6 6-6 0.394 0 0.775 0.038 1.144 0.106 1.8-3.619 5.537-6.106 9.856-6.106 2.656 0 5.1 0.944 7 2.512v-4.512h-4.5v-4h2.5c1.106 0 2-0.894 2-2s-0.894-2-2-2h-32zM30.5 6v4h-5v-4h5zM22.5 6v4h-5v-4h5zM14.5 6v4h-5v-4h5zM40 23c0-4.971-4.029-9-9-9s-9 4.029-9 9v0c0 4.971 4.029 9 9 9s9-4.029 9-9v0zM35.206 20.294c0.388 0.387 0.388 1.025 0 1.413l-4.5 4.5c-0.387 0.387-1.025 0.387-1.413 0l-2.5-2.5c-0.387-0.387-0.387-1.025 0-1.413s1.025-0.387 1.413 0l1.794 1.794 3.794-3.794c0.388-0.387 1.025-0.387 1.413 0z"/>
</svg>