<svg version="1.1" xmlns="http://www.w3.org/2000/svg" width="40" height="32" viewBox="0 0 40 32">
<path fill="currentColor" d="M2 4c0-1.106 0.894-2 2-2h32c1.106 0 2 0.894 2 2s-0.894 2-2 2h-2.5v4h-0.5c-3.869 0-7 3.131-7 7v1.538c-0.619 0.363-1.137 0.881-1.488 1.506-1.1-1.25-2.712-2.044-4.512-2.044-3.313 0-6 2.688-6 6v4c0 1.106-0.894 2-2 2h-2c-1.106 0-2-0.894-2-2v-4c0-3.313-2.688-6-6-6v-8h4.5v-4h-2.5c-1.106 0-2-0.894-2-2zM25.5 6v4h5v-4h-5zM22.5 10v-4h-5v4h5zM9.5 6v4h5v-4h-5zM33 15c-1.106 0-2 0.894-2 2v3h4v-3c0-1.106-0.894-2-2-2zM28 17c0-2.762 2.238-5 5-5s5 2.238 5 5v3c1.106 0 2 0.894 2 2v8c0 1.106-0.894 2-2 2h-10c-1.106 0-2-0.894-2-2v-8c0-1.106 0.894-2 2-2v-3z"/>
</svg>