<svg version="1.1" xmlns="http://www.w3.org/2000/svg" width="32" height="32" viewBox="0 0 32 32">
<path fill="currentColor" d="M11.5 3h9c0.275 0 0.5 0.225 0.5 0.5v2.5h-10v-2.5c0-0.275 0.225-0.5 0.5-0.5zM8 3.5v2.5h-4c-2.206 0-4 1.794-4 4v16c0 2.206 1.794 4 4 4h24c2.206 0 4-1.794 4-4v-16c0-2.206-1.794-4-4-4h-4v-2.5c0-1.931-1.569-3.5-3.5-3.5h-9c-1.931 0-3.5 1.569-3.5 3.5zM14 13c0-0.55 0.45-1 1-1h2c0.55 0 1 0.45 1 1v3h3c0.55 0 1 0.45 1 1v2c0 0.55-0.45 1-1 1h-3v3c0 0.55-0.45 1-1 1h-2c-0.55 0-1-0.45-1-1v-3h-3c-0.55 0-1-0.45-1-1v-2c0-0.55 0.45-1 1-1h3v-3z"/>
</svg>