<svg version="1.1" xmlns="http://www.w3.org/2000/svg" width="36" height="32" viewBox="0 0 36 32">
<path fill="currentColor" d="M35.413 3.413c0.781-0.781 0.781-2.050 0-2.831s-2.050-0.781-2.831 0l-12 12-2.169-2.169c-0.262-0.262-0.625-0.412-1-0.412-0.781 0-1.413 0.631-1.413 1.412v1.819l6.769 6.769h1.819c0.781 0 1.413-0.631 1.413-1.413 0-0.375-0.15-0.738-0.413-1l-2.169-2.169 12-12zM21.319 22.087l-7.406-7.406c-2.669-0.231-5.325 0.731-7.237 2.644l-0.5 0.5c-1.394 1.394-2.175 3.281-2.175 5.25 0 0.425 0.444 0.7 0.825 0.512l3.194-1.594c0.313-0.156 0.594 0.256 0.338 0.494l-7.9 7.1c-0.287 0.262-0.456 0.637-0.456 1.031 0 0.762 0.619 1.381 1.381 1.381h10.831c2.425 0 4.744-0.962 6.463-2.675 1.913-1.913 2.869-4.569 2.644-7.238z"/>
</svg>