<svg version="1.1" xmlns="http://www.w3.org/2000/svg" width="36" height="32" viewBox="0 0 36 32">
<path fill="currentColor" d="M35.413 0.588c0.781 0.781 0.781 2.050 0 2.831l-12 12 2.169 2.169c0.262 0.262 0.413 0.625 0.413 1 0 0.781-0.631 1.413-1.413 1.413h-1.813l-6.769-6.769v-1.819c0-0.781 0.631-1.412 1.413-1.412 0.375 0 0.738 0.15 1 0.412l2.169 2.169 12-12c0.781-0.781 2.050-0.781 2.831 0zM13.912 14.681l7.406 7.406c0.231 2.669-0.731 5.325-2.644 7.238-1.712 1.712-4.037 2.675-6.456 2.675h-10.838c-0.762 0-1.381-0.619-1.381-1.381 0-0.394 0.169-0.769 0.456-1.031l7.9-7.106c0.262-0.231-0.025-0.65-0.338-0.494l-3.194 1.6c-0.381 0.188-0.825-0.087-0.825-0.512 0-1.969 0.781-3.856 2.175-5.25l0.5-0.5c1.912-1.912 4.569-2.869 7.237-2.644zM29 22c2.761 0 5 2.239 5 5s-2.239 5-5 5v0c-2.761 0-5-2.239-5-5s2.239-5 5-5v0z"/>
</svg>