<svg version="1.1" xmlns="http://www.w3.org/2000/svg" width="24" height="32" viewBox="0 0 24 32">
<path fill="currentColor" d="M10.15 0.375c-0.094-0.225-0.313-0.375-0.556-0.375h-1.188c-0.244 0-0.469 0.15-0.556 0.375l-1.294 3.231c-0.2 0.5-0.912 0.5-1.112 0l-1.294-3.231c-0.094-0.225-0.313-0.375-0.556-0.375h-0.594c-1.656 0-3 1.344-3 3v13h24v-13c0-1.656-1.344-3-3-3h-6.594c-0.244 0-0.469 0.15-0.556 0.375l-1.294 3.231c-0.2 0.5-0.912 0.5-1.113 0l-1.294-3.231zM0 18v2c0 2.206 1.794 4 4 4h4v4c0 2.206 1.794 4 4 4s4-1.794 4-4v-4h4c2.206 0 4-1.794 4-4v-2h-24zM12 27c0.552 0 1 0.448 1 1s-0.448 1-1 1v0c-0.552 0-1-0.448-1-1s0.448-1 1-1v0z"/>
</svg>