<svg version="1.1" xmlns="http://www.w3.org/2000/svg" width="40" height="32" viewBox="0 0 40 32">
<path fill="currentColor" d="M2.425 0.319c-0.65-0.512-1.594-0.394-2.106 0.256s-0.394 1.594 0.256 2.106l37 29c0.65 0.513 1.594 0.394 2.106-0.256s0.394-1.594-0.256-2.106l-9.587-7.512c0.106-0.587 0.163-1.188 0.163-1.806h4c1.106 0 2-0.894 2-2s-0.894-2-2-2h-4.019c-0.069-0.881-0.313-1.719-0.694-2.469 0.044-0.037 0.087-0.075 0.131-0.119l4-4c0.781-0.781 0.781-2.050 0-2.831s-2.050-0.781-2.831 0l-4 4c-0.044 0.044-0.081 0.088-0.119 0.131-0.894-0.456-1.9-0.713-2.969-0.713h-7c-0.519 0-1.019 0.063-1.5 0.175l-12.575-9.856zM20 0c-3.313 0-6 2.688-6 6v0.225c0 0.981 0.794 1.775 1.775 1.775h8.45c0.981 0 1.775-0.794 1.775-1.775v-0.225c0-3.313-2.688-6-6-6zM10.019 16h-4.019c-1.106 0-2 0.894-2 2s0.894 2 2 2h4c0 1.538 0.344 2.988 0.963 4.288-0.137 0.081-0.262 0.181-0.375 0.3l-4 4c-0.781 0.781-0.781 2.050 0 2.831s2.050 0.781 2.831 0l3.944-3.944c1.531 1.363 3.487 2.262 5.644 2.475v-8.981l-8.588-6.762c-0.213 0.563-0.35 1.169-0.4 1.794zM21 29.95c2.288-0.225 4.356-1.225 5.925-2.738l-5.925-4.669v7.406z"/>
</svg>