<svg version="1.1" xmlns="http://www.w3.org/2000/svg" width="32" height="32" viewBox="0 0 32 32">
<path fill="currentColor" d="M16 0c3.313 0 6 2.688 6 6v0.225c0 0.981-0.794 1.775-1.775 1.775h-8.45c-0.981 0-1.775-0.794-1.775-1.775v-0.225c0-3.313 2.688-6 6-6zM2.587 6.588c0.781-0.781 2.050-0.781 2.831 0l4 4c0.044 0.044 0.081 0.088 0.119 0.131 0.887-0.456 1.9-0.713 2.969-0.713h6.994c1.069 0 2.075 0.256 2.969 0.713 0.038-0.044 0.075-0.088 0.119-0.131l4-4c0.781-0.781 2.050-0.781 2.831 0s0.781 2.050 0 2.831l-4 4c-0.044 0.044-0.087 0.081-0.131 0.119 0.387 0.75 0.631 1.581 0.694 2.469h4.019c1.106 0 2 0.894 2 2s-0.894 2-2 2h-4c0 1.538-0.344 2.988-0.962 4.288 0.137 0.081 0.262 0.181 0.375 0.3l4 4c0.781 0.781 0.781 2.050 0 2.831s-2.050 0.781-2.831 0l-3.944-3.944c-1.531 1.363-3.488 2.262-5.644 2.475v-14.956c0-0.55-0.45-1-1-1s-1 0.45-1 1v14.95c-2.156-0.212-4.113-1.113-5.644-2.475l-3.938 3.938c-0.781 0.781-2.050 0.781-2.831 0s-0.781-2.050 0-2.831l4-4c0.119-0.119 0.244-0.212 0.375-0.3-0.612-1.294-0.956-2.744-0.956-4.281h-4c-1.106 0-2-0.894-2-2s0.894-2 2-2h4.019c0.069-0.881 0.313-1.719 0.694-2.469-0.044-0.037-0.088-0.075-0.131-0.119l-4-4c-0.781-0.781-0.781-2.050 0-2.831z"/>
</svg>