<svg version="1.1" xmlns="http://www.w3.org/2000/svg" width="36" height="32" viewBox="0 0 36 32">
<path fill="currentColor" d="M10.281 6.713l2.088-4.594c0.344-0.756 0.006-1.644-0.744-1.988s-1.644-0.006-1.988 0.744l-1.638 3.606-1.631-3.6c-0.344-0.756-1.237-1.087-1.987-0.75s-1.087 1.238-0.75 1.988l2.087 4.594c-0.638 0.444-1.138 1.063-1.431 1.787h-1.063l-0.256-1.294c-0.163-0.813-0.95-1.337-1.762-1.175s-1.337 0.95-1.175 1.763l0.5 2.5c0.137 0.7 0.756 1.206 1.469 1.206h2v1.456l-2.362 0.594c-0.594 0.15-1.038 0.637-1.119 1.244l-0.5 3.5c-0.119 0.819 0.45 1.581 1.275 1.7s1.581-0.45 1.7-1.275l0.356-2.5 1.15-0.287c0.669 1.231 1.987 2.069 3.5 2.069s2.831-0.837 3.506-2.075l1.15 0.288 0.356 2.5c0.119 0.819 0.875 1.387 1.7 1.275s1.388-0.875 1.275-1.7l-0.5-3.5c-0.088-0.606-0.531-1.094-1.119-1.244l-2.369-0.588v-1.456h2c0.713 0 1.331-0.506 1.469-1.206l0.5-2.5c0.163-0.813-0.363-1.6-1.175-1.763s-1.6 0.362-1.762 1.175l-0.262 1.294h-1.063c-0.294-0.725-0.794-1.344-1.431-1.787zM31 17.906l4.1-2.938c0.675-0.481 0.831-1.419 0.35-2.094s-1.419-0.831-2.094-0.35l-3.212 2.3 0.381-3.931c0.081-0.825-0.525-1.556-1.35-1.637s-1.556 0.525-1.637 1.35l-0.488 5.019c-0.769 0.063-1.512 0.35-2.131 0.831l-0.919-0.531 0.425-1.25c0.262-0.787-0.156-1.637-0.938-1.9s-1.637 0.156-1.9 0.938l-0.819 2.412c-0.231 0.675 0.050 1.425 0.669 1.781l1.731 1-0.731 1.262-2.344-0.669c-0.587-0.169-1.219 0.038-1.594 0.519l-2.181 2.781c-0.512 0.65-0.4 1.594 0.256 2.106s1.594 0.4 2.106-0.256l1.563-1.988 1.137 0.325c-0.031 1.413 0.688 2.794 2 3.55s2.869 0.688 4.075-0.044l0.85 0.825-0.944 2.344c-0.306 0.769 0.063 1.644 0.831 1.95s1.644-0.063 1.95-0.831l1.325-3.281c0.225-0.569 0.087-1.212-0.35-1.637l-1.75-1.694 0.725-1.256 1.731 1c0.619 0.356 1.406 0.231 1.875-0.306l1.688-1.919c0.544-0.625 0.487-1.569-0.138-2.119s-1.569-0.488-2.119 0.137l-0.869 0.994-0.919-0.531c0.106-0.775-0.012-1.563-0.344-2.262z"/>
</svg>