<svg version="1.1" xmlns="http://www.w3.org/2000/svg" width="40" height="32" viewBox="0 0 40 32">
<path fill="currentColor" d="M3 0c-1.656 0-3 1.344-3 3v26c0 1.656 1.344 3 3 3h6v-5c0-1.656 1.344-3 3-3s3 1.344 3 3v5h6c0.944 0 1.781-0.431 2.331-1.113-2.056-2-3.331-4.794-3.331-7.887 0-3.419 1.556-6.469 4-8.488v-11.512c0-1.656-1.344-3-3-3h-18zM4 15c0-0.55 0.45-1 1-1h2c0.55 0 1 0.45 1 1v2c0 0.55-0.45 1-1 1h-2c-0.55 0-1-0.45-1-1v-2zM11 14h2c0.55 0 1 0.45 1 1v2c0 0.55-0.45 1-1 1h-2c-0.55 0-1-0.45-1-1v-2c0-0.55 0.45-1 1-1zM16 15c0-0.55 0.45-1 1-1h2c0.55 0 1 0.45 1 1v2c0 0.55-0.45 1-1 1h-2c-0.55 0-1-0.45-1-1v-2zM5 6h2c0.55 0 1 0.45 1 1v2c0 0.55-0.45 1-1 1h-2c-0.55 0-1-0.45-1-1v-2c0-0.55 0.45-1 1-1zM10 7c0-0.55 0.45-1 1-1h2c0.55 0 1 0.45 1 1v2c0 0.55-0.45 1-1 1h-2c-0.55 0-1-0.45-1-1v-2zM17 6h2c0.55 0 1 0.45 1 1v2c0 0.55-0.45 1-1 1h-2c-0.55 0-1-0.45-1-1v-2c0-0.55 0.45-1 1-1zM40 23c0-4.971-4.029-9-9-9s-9 4.029-9 9v0c0 4.971 4.029 9 9 9s9-4.029 9-9v0zM35.206 20.294c0.388 0.387 0.388 1.025 0 1.413l-4.5 4.5c-0.387 0.387-1.025 0.387-1.413 0l-2.5-2.5c-0.387-0.387-0.387-1.025 0-1.413s1.025-0.387 1.413 0l1.794 1.794 3.794-3.794c0.388-0.387 1.025-0.387 1.413 0z"/>
</svg>