<svg version="1.1" xmlns="http://www.w3.org/2000/svg" width="40" height="32" viewBox="0 0 40 32">
<path fill="currentColor" d="M3 0c-1.656 0-3 1.344-3 3v26c0 1.656 1.344 3 3 3h6v-5c0-1.656 1.344-3 3-3s3 1.344 3 3v5h5.619c-0.394-0.637-0.619-1.387-0.619-2.194 0-2.931 1.613-5.488 4-6.825v-19.981c0-1.656-1.344-3-3-3h-18zM4 15c0-0.55 0.45-1 1-1h2c0.55 0 1 0.45 1 1v2c0 0.55-0.45 1-1 1h-2c-0.55 0-1-0.45-1-1v-2zM11 14h2c0.55 0 1 0.45 1 1v2c0 0.55-0.45 1-1 1h-2c-0.55 0-1-0.45-1-1v-2c0-0.55 0.45-1 1-1zM16 15c0-0.55 0.45-1 1-1h2c0.55 0 1 0.45 1 1v2c0 0.55-0.45 1-1 1h-2c-0.55 0-1-0.45-1-1v-2zM5 6h2c0.55 0 1 0.45 1 1v2c0 0.55-0.45 1-1 1h-2c-0.55 0-1-0.45-1-1v-2c0-0.55 0.45-1 1-1zM10 7c0-0.55 0.45-1 1-1h2c0.55 0 1 0.45 1 1v2c0 0.55-0.45 1-1 1h-2c-0.55 0-1-0.45-1-1v-2zM17 6h2c0.55 0 1 0.45 1 1v2c0 0.55-0.45 1-1 1h-2c-0.55 0-1-0.45-1-1v-2c0-0.55 0.45-1 1-1zM36 17c0-2.761-2.239-5-5-5s-5 2.239-5 5v0c0 2.761 2.239 5 5 5s5-2.239 5-5v0zM22 29.819c0 1.206 0.975 2.181 2.181 2.181h13.637c1.206 0 2.181-0.975 2.181-2.181 0-3.212-2.606-5.819-5.819-5.819h-6.363c-3.212 0-5.819 2.606-5.819 5.819z"/>
</svg>