<svg version="1.1" xmlns="http://www.w3.org/2000/svg" width="36" height="32" viewBox="0 0 36 32">
<path fill="currentColor" d="M0 3c0-1.656 1.344-3 3-3h18c1.656 0 3 1.344 3 3v9.938l-2.65 1.063h-4.35c-0.55 0-1 0.45-1 1v4c0 0.056 0.006 0.106 0.012 0.163 0.144 3.631 1.506 9.050 6.169 12.594-0.363 0.156-0.762 0.244-1.181 0.244h-6v-5c0-1.656-1.344-3-3-3s-3 1.344-3 3v5h-6c-1.656 0-3-1.344-3-3v-26zM5 14c-0.55 0-1 0.45-1 1v2c0 0.55 0.45 1 1 1h2c0.55 0 1-0.45 1-1v-2c0-0.55-0.45-1-1-1h-2zM10 15v2c0 0.55 0.45 1 1 1h2c0.55 0 1-0.45 1-1v-2c0-0.55-0.45-1-1-1h-2c-0.55 0-1 0.45-1 1zM4 7v2c0 0.55 0.45 1 1 1h2c0.55 0 1-0.45 1-1v-2c0-0.55-0.45-1-1-1h-2c-0.55 0-1 0.45-1 1zM11 6c-0.55 0-1 0.45-1 1v2c0 0.55 0.45 1 1 1h2c0.55 0 1-0.45 1-1v-2c0-0.55-0.45-1-1-1h-2zM16 7v2c0 0.55 0.45 1 1 1h2c0.55 0 1-0.45 1-1v-2c0-0.55-0.45-1-1-1h-2c-0.55 0-1 0.45-1 1zM26.444 14.106c0.356-0.144 0.756-0.144 1.113 0l7.5 3c0.569 0.231 0.944 0.781 0.944 1.394 0 3.956-1.619 10.55-8.425 13.387-0.369 0.156-0.788 0.156-1.156 0-6.8-2.837-8.419-9.431-8.419-13.387 0-0.613 0.375-1.163 0.944-1.394l7.5-3zM32.962 19.5l-5.962-2.387v11.744c4.262-2.063 5.719-6.188 5.962-9.356z"/>
</svg>