<svg version="1.1" xmlns="http://www.w3.org/2000/svg" width="24" height="32" viewBox="0 0 24 32">
<path fill="currentColor" d="M3 0c-1.656 0-3 1.344-3 3v26c0 1.656 1.344 3 3 3h6v-5c0-1.656 1.344-3 3-3s3 1.344 3 3v5h6c1.656 0 3-1.344 3-3v-26c0-1.656-1.344-3-3-3h-18zM4 15c0-0.55 0.45-1 1-1h2c0.55 0 1 0.45 1 1v2c0 0.55-0.45 1-1 1h-2c-0.55 0-1-0.45-1-1v-2zM11 14h2c0.55 0 1 0.45 1 1v2c0 0.55-0.45 1-1 1h-2c-0.55 0-1-0.45-1-1v-2c0-0.55 0.45-1 1-1zM16 15c0-0.55 0.45-1 1-1h2c0.55 0 1 0.45 1 1v2c0 0.55-0.45 1-1 1h-2c-0.55 0-1-0.45-1-1v-2zM14.831 4.444l2.169 3.25v-2.694c0-0.55 0.45-1 1-1s1 0.45 1 1v6c0 0.444-0.288 0.831-0.712 0.956s-0.875-0.037-1.119-0.4l-2.169-3.25v2.694c0 0.55-0.45 1-1 1s-1-0.45-1-1v-6c0-0.444 0.287-0.831 0.713-0.956s0.875 0.037 1.119 0.4zM7 5v4c0 0.55 0.45 1 1 1s1-0.45 1-1v-4c0-0.55 0.45-1 1-1s1 0.45 1 1v4c0 1.656-1.344 3-3 3s-3-1.344-3-3v-4c0-0.55 0.45-1 1-1s1 0.45 1 1z"/>
</svg>