<svg version="1.1" xmlns="http://www.w3.org/2000/svg" width="40" height="32" viewBox="0 0 40 32">
<path fill="currentColor" d="M3 0c-1.656 0-3 1.344-3 3v26c0 1.656 1.344 3 3 3h6v-5c0-1.656 1.344-3 3-3s3 1.344 3 3v5h6c1.656 0 3-1.344 3-3v-26c0-1.656-1.344-3-3-3h-18zM4 15c0-0.55 0.45-1 1-1h2c0.55 0 1 0.45 1 1v2c0 0.55-0.45 1-1 1h-2c-0.55 0-1-0.45-1-1v-2zM11 14h2c0.55 0 1 0.45 1 1v2c0 0.55-0.45 1-1 1h-2c-0.55 0-1-0.45-1-1v-2c0-0.55 0.45-1 1-1zM16 15c0-0.55 0.45-1 1-1h2c0.55 0 1 0.45 1 1v2c0 0.55-0.45 1-1 1h-2c-0.55 0-1-0.45-1-1v-2zM5 6h2c0.55 0 1 0.45 1 1v2c0 0.55-0.45 1-1 1h-2c-0.55 0-1-0.45-1-1v-2c0-0.55 0.45-1 1-1zM10 7c0-0.55 0.45-1 1-1h2c0.55 0 1 0.45 1 1v2c0 0.55-0.45 1-1 1h-2c-0.55 0-1-0.45-1-1v-2zM17 6h2c0.55 0 1 0.45 1 1v2c0 0.55-0.45 1-1 1h-2c-0.55 0-1-0.45-1-1v-2c0-0.55 0.45-1 1-1zM28 0c-1.106 0-2 0.894-2 2v30h4v-20h9c0.55 0 1-0.45 1-1v-8c0-0.55-0.45-1-1-1h-9c0-1.106-0.894-2-2-2z"/>
</svg>