<svg version="1.1" xmlns="http://www.w3.org/2000/svg" width="32" height="32" viewBox="0 0 32 32">
<path fill="currentColor" d="M15.213 0.163l-14 6c-0.875 0.375-1.363 1.313-1.169 2.237s1.006 1.6 1.956 1.6v0.5c0 0.831 0.669 1.5 1.5 1.5h25c0.831 0 1.5-0.669 1.5-1.5v-0.5c0.95 0 1.769-0.669 1.956-1.6s-0.3-1.869-1.169-2.237l-14-6c-0.5-0.212-1.075-0.212-1.575 0zM8 14h-4v12.269c-0.038 0.019-0.075 0.044-0.112 0.069l-3 2c-0.731 0.488-1.063 1.4-0.806 2.244s1.038 1.419 1.919 1.419h28c0.881 0 1.656-0.575 1.913-1.419s-0.069-1.756-0.806-2.244l-3-2c-0.038-0.025-0.075-0.044-0.113-0.069v-12.269h-3.994v12h-2.5v-12h-4v12h-3v-12h-4v12h-2.5v-12zM16 4c1.105 0 2 0.895 2 2s-0.895 2-2 2v0c-1.105 0-2-0.895-2-2s0.895-2 2-2v0z"/>
</svg>