<svg version="1.1" xmlns="http://www.w3.org/2000/svg" width="40" height="32" viewBox="0 0 40 32">
<path fill="currentColor" d="M0 3c0-1.656 1.344-3 3-3h18c1.656 0 3 1.344 3 3v11.512c-2.444 2.019-4 5.069-4 8.488 0 3.094 1.275 5.887 3.331 7.887-0.55 0.681-1.387 1.113-2.331 1.113h-6v-5c0-1.656-1.344-3-3-3s-3 1.344-3 3v5h-6c-1.656 0-3-1.344-3-3v-26zM5 14c-0.55 0-1 0.45-1 1v2c0 0.55 0.45 1 1 1h2c0.55 0 1-0.45 1-1v-2c0-0.55-0.45-1-1-1h-2zM10 15v2c0 0.55 0.45 1 1 1h2c0.55 0 1-0.45 1-1v-2c0-0.55-0.45-1-1-1h-2c-0.55 0-1 0.45-1 1zM17 14c-0.55 0-1 0.45-1 1v2c0 0.55 0.45 1 1 1h2c0.55 0 1-0.45 1-1v-2c0-0.55-0.45-1-1-1h-2zM4 7v2c0 0.55 0.45 1 1 1h2c0.55 0 1-0.45 1-1v-2c0-0.55-0.45-1-1-1h-2c-0.55 0-1 0.45-1 1zM11 6c-0.55 0-1 0.45-1 1v2c0 0.55 0.45 1 1 1h2c0.55 0 1-0.45 1-1v-2c0-0.55-0.45-1-1-1h-2zM16 7v2c0 0.55 0.45 1 1 1h2c0.55 0 1-0.45 1-1v-2c0-0.55-0.45-1-1-1h-2c-0.55 0-1 0.45-1 1zM22 23c0-4.971 4.029-9 9-9s9 4.029 9 9v0c0 4.971-4.029 9-9 9s-9-4.029-9-9v0zM30.794 18.794c-0.387 0.387-0.387 1.025 0 1.413l1.794 1.794h-5.587c-0.55 0-1 0.45-1 1s0.45 1 1 1h5.587l-1.794 1.794c-0.387 0.387-0.387 1.025 0 1.413s1.025 0.387 1.412 0l3.5-3.5c0.388-0.387 0.388-1.025 0-1.413l-3.5-3.5c-0.387-0.387-1.025-0.387-1.413 0z"/>
</svg>