<svg version="1.1" xmlns="http://www.w3.org/2000/svg" width="36" height="32" viewBox="0 0 36 32">
<path fill="currentColor" d="M3 0c-1.656 0-3 1.344-3 3v26c0 1.656 1.344 3 3 3h6v-5c0-1.656 1.344-3 3-3s3 1.344 3 3v5h5.538c-0.337-0.587-0.538-1.269-0.538-2v-8c0-1.481 0.806-2.775 2-3.462v-1.538c0-1.906 0.762-3.637 2-4.9v-9.1c0-1.656-1.344-3-3-3h-18zM4 15c0-0.55 0.45-1 1-1h2c0.55 0 1 0.45 1 1v2c0 0.55-0.45 1-1 1h-2c-0.55 0-1-0.45-1-1v-2zM11 14h2c0.55 0 1 0.45 1 1v2c0 0.55-0.45 1-1 1h-2c-0.55 0-1-0.45-1-1v-2c0-0.55 0.45-1 1-1zM16 15c0-0.55 0.45-1 1-1h2c0.55 0 1 0.45 1 1v2c0 0.55-0.45 1-1 1h-2c-0.55 0-1-0.45-1-1v-2zM5 6h2c0.55 0 1 0.45 1 1v2c0 0.55-0.45 1-1 1h-2c-0.55 0-1-0.45-1-1v-2c0-0.55 0.45-1 1-1zM10 7c0-0.55 0.45-1 1-1h2c0.55 0 1 0.45 1 1v2c0 0.55-0.45 1-1 1h-2c-0.55 0-1-0.45-1-1v-2zM17 6h2c0.55 0 1 0.45 1 1v2c0 0.55-0.45 1-1 1h-2c-0.55 0-1-0.45-1-1v-2c0-0.55 0.45-1 1-1zM29 15c1.106 0 2 0.894 2 2v3h-4v-3c0-1.106 0.894-2 2-2zM24 17v3c-1.106 0-2 0.894-2 2v8c0 1.106 0.894 2 2 2h10c1.106 0 2-0.894 2-2v-8c0-1.106-0.894-2-2-2v-3c0-2.762-2.238-5-5-5s-5 2.238-5 5z"/>
</svg>