<svg version="1.1" xmlns="http://www.w3.org/2000/svg" width="40" height="32" viewBox="0 0 40 32">
<path fill="currentColor" d="M0 3c0-1.656 1.344-3 3-3h18c1.656 0 3 1.344 3 3v26c0 1.656-1.344 3-3 3h-6v-5c0-1.656-1.344-3-3-3s-3 1.344-3 3v5h-6c-1.656 0-3-1.344-3-3v-26zM5 14c-0.55 0-1 0.45-1 1v2c0 0.55 0.45 1 1 1h2c0.55 0 1-0.45 1-1v-2c0-0.55-0.45-1-1-1h-2zM10 15v2c0 0.55 0.45 1 1 1h2c0.55 0 1-0.45 1-1v-2c0-0.55-0.45-1-1-1h-2c-0.55 0-1 0.45-1 1zM17 14c-0.55 0-1 0.45-1 1v2c0 0.55 0.45 1 1 1h2c0.55 0 1-0.45 1-1v-2c0-0.55-0.45-1-1-1h-2zM4 7v2c0 0.55 0.45 1 1 1h2c0.55 0 1-0.45 1-1v-2c0-0.55-0.45-1-1-1h-2c-0.55 0-1 0.45-1 1zM11 6c-0.55 0-1 0.45-1 1v2c0 0.55 0.45 1 1 1h2c0.55 0 1-0.45 1-1v-2c0-0.55-0.45-1-1-1h-2zM16 7v2c0 0.55 0.45 1 1 1h2c0.55 0 1-0.45 1-1v-2c0-0.55-0.45-1-1-1h-2c-0.55 0-1 0.45-1 1zM40 12v1c0 2.762-2.237 5-5 5h-1v-1c0-2.762 2.237-5 5-5h1zM40 20c0 2.762-2.237 5-5 5h-1v-1c0-2.762 2.237-5 5-5h1v1zM40 27c0 2.762-2.237 5-5 5h-1v-1c0-2.762 2.237-5 5-5h1v1zM32 31v1h-1c-2.762 0-5-2.238-5-5v-1h1c2.762 0 5 2.238 5 5zM32 25h-1c-2.762 0-5-2.238-5-5v-1h1c2.762 0 5 2.238 5 5v1zM32 17v1h-1c-2.762 0-5-2.238-5-5v-1h1c2.762 0 5 2.238 5 5zM33 2c0.831 0 1.5 0.669 1.5 1.5v6.5c0 0.831-0.669 1.5-1.5 1.5s-1.5-0.669-1.5-1.5v-6.5c0-0.831 0.669-1.5 1.5-1.5zM39 6v2c0 0.831-0.669 1.5-1.5 1.5s-1.5-0.669-1.5-1.5v-2c0-0.831 0.669-1.5 1.5-1.5s1.5 0.669 1.5 1.5zM28.5 4.5c0.831 0 1.5 0.669 1.5 1.5v2c0 0.831-0.669 1.5-1.5 1.5s-1.5-0.669-1.5-1.5v-2c0-0.831 0.669-1.5 1.5-1.5z"/>
</svg>