<svg version="1.1" xmlns="http://www.w3.org/2000/svg" width="32" height="32" viewBox="0 0 32 32">
<path fill="currentColor" d="M30 2c0-0.806-0.488-1.538-1.238-1.85s-1.606-0.138-2.181 0.431l-2.725 2.731c-3 3-7.069 4.688-11.313 4.688h-8.544c-2.206 0-4 1.794-4 4v6c0 2.206 1.794 4 4 4v8c0 1.106 0.894 2 2 2h4c1.106 0 2-0.894 2-2v-8h0.544c4.244 0 8.313 1.688 11.313 4.688l2.725 2.725c0.575 0.575 1.431 0.744 2.181 0.431s1.238-1.038 1.238-1.85v-9.219c1.163-0.55 2-2.031 2-3.775s-0.837-3.225-2-3.775v-9.225zM26 6.794v16.413c-3.675-3.344-8.469-5.206-13.456-5.206h-0.544v-6h0.544c4.988 0 9.781-1.863 13.456-5.206z"/>
</svg>