<svg version="1.1" xmlns="http://www.w3.org/2000/svg" width="32" height="32" viewBox="0 0 32 32">
<path fill="currentColor" d="M3.819 14c-1.006 0-1.819-0.813-1.819-1.819 0-0.119 0.013-0.231 0.038-0.35 0.331-1.313 2.888-9.831 13.963-9.831s13.631 8.519 13.962 9.831c0.031 0.119 0.038 0.231 0.038 0.35 0 1.006-0.813 1.819-1.819 1.819h-24.363zM9 8c0-0.552-0.448-1-1-1s-1 0.448-1 1v0c0 0.552 0.448 1 1 1s1-0.448 1-1v0zM24 9c0.552 0 1-0.448 1-1s-0.448-1-1-1v0c-0.552 0-1 0.448-1 1s0.448 1 1 1v0zM17 6c0-0.552-0.448-1-1-1s-1 0.448-1 1v0c0 0.552 0.448 1 1 1s1-0.448 1-1v0zM1 19c0-1.656 1.344-3 3-3h24c1.656 0 3 1.344 3 3s-1.344 3-3 3h-24c-1.656 0-3-1.344-3-3zM2 25c0-0.55 0.45-1 1-1h26c0.55 0 1 0.45 1 1v1c0 2.206-1.794 4-4 4h-20c-2.206 0-4-1.794-4-4v-1z"/>
</svg>