<svg version="1.1" xmlns="http://www.w3.org/2000/svg" width="32" height="32" viewBox="0 0 32 32">
<path fill="currentColor" d="M2.35 0.263c-0.6-0.406-1.4-0.331-1.913 0.175s-0.588 1.313-0.175 1.906l7 10.206-6.225 2.025c-0.619 0.2-1.038 0.775-1.038 1.425s0.419 1.225 1.038 1.425l6.444 2.087-3.306 6.287c-0.306 0.581-0.2 1.294 0.269 1.756s1.175 0.575 1.756 0.269l6.287-3.306 2.088 6.444c0.2 0.619 0.775 1.038 1.425 1.038s1.225-0.419 1.425-1.038l2.087-6.444 6.287 3.306c0.581 0.306 1.294 0.2 1.756-0.269s0.575-1.175 0.269-1.756l-3.306-6.287 6.444-2.087c0.619-0.2 1.038-0.775 1.038-1.425s-0.419-1.225-1.038-1.425l-6.656-2.156 1.606-4.4c0.2-0.55 0.063-1.162-0.35-1.575s-1.025-0.55-1.575-0.35l-4.4 1.606-2.163-6.662c-0.2-0.619-0.775-1.038-1.425-1.038s-1.225 0.419-1.425 1.038l-2.019 6.225-10.206-7z"/>
</svg>