<svg version="1.1" xmlns="http://www.w3.org/2000/svg" width="28" height="32" viewBox="0 0 28 32">
<path fill="currentColor" d="M14 0c7.8 0 14 2.2 14 5v21c0 1.106-0.894 2-2 2v2c0 1.106-0.894 2-2 2h-2c-1.106 0-2-0.894-2-2v-2h-12v2c0 1.106-0.894 2-2 2h-2c-1.106 0-2-0.894-2-2v-2c-1.106 0-2-0.894-2-2v-21c0-2.8 6.2-5 14-5zM4 8v8c0 1.106 0.894 2 2 2h16c1.106 0 2-0.894 2-2v-8c0-1.106-0.894-2-2-2h-16c-1.106 0-2 0.894-2 2zM5 25c1.105 0 2-0.895 2-2s-0.895-2-2-2v0c-1.105 0-2 0.895-2 2s0.895 2 2 2v0zM23 25c1.105 0 2-0.895 2-2s-0.895-2-2-2v0c-1.105 0-2 0.895-2 2s0.895 2 2 2v0z"/>
</svg>