<svg version="1.1" xmlns="http://www.w3.org/2000/svg" width="40" height="32" viewBox="0 0 40 32">
<path fill="currentColor" d="M11.5 3h9c0.275 0 0.5 0.225 0.5 0.5v2.5h-10v-2.5c0-0.275 0.225-0.5 0.5-0.5zM8 3.5v2.5h-4c-2.206 0-4 1.794-4 4v6h22.512c2.019-2.444 5.069-4 8.488-4 0.337 0 0.669 0.012 1 0.044v-2.044c0-2.206-1.794-4-4-4h-4v-2.5c0-1.931-1.569-3.5-3.5-3.5h-9c-1.931 0-3.5 1.569-3.5 3.5zM20 22h-6c-1.106 0-2-0.894-2-2v-2h-12v8c0 2.206 1.794 4 4 4h18.512c-1.569-1.9-2.512-4.344-2.512-7 0-0.337 0.012-0.669 0.044-1h-0.044zM40 23c0-4.971-4.029-9-9-9s-9 4.029-9 9v0c0 4.971 4.029 9 9 9s9-4.029 9-9v0zM31 18c0.55 0 1 0.45 1 1v3h2c0.55 0 1 0.45 1 1s-0.45 1-1 1h-3c-0.55 0-1-0.45-1-1v-4c0-0.55 0.45-1 1-1z"/>
</svg>