<svg version="1.1" xmlns="http://www.w3.org/2000/svg" width="32" height="32" viewBox="0 0 32 32">
<path fill="currentColor" d="M18 0c1.105 0 2 0.895 2 2s-0.895 2-2 2v0c-1.105 0-2-0.895-2-2s0.895-2 2-2v0zM10 3.5c0-1.105 0.895-2 2-2s2 0.895 2 2v0c0 1.105-0.895 2-2 2s-2-0.895-2-2v0zM2 18c0-2.206 1.794-4 4-4h8.5v-4.156l-12.694 2.625c-0.813 0.169-1.606-0.356-1.775-1.162s0.356-1.606 1.163-1.775l29-6c0.813-0.169 1.606 0.356 1.775 1.162s-0.356 1.606-1.163 1.775l-13.306 2.75v4.781h8.5c2.206 0 4 1.794 4 4v10c0 2.206-1.794 4-4 4h-20c-2.206 0-4-1.794-4-4v-10zM6 18c-0.55 0-1 0.45-1 1v4c0 0.55 0.45 1 1 1h4c0.55 0 1-0.45 1-1v-4c0-0.55-0.45-1-1-1h-4zM13 19v4c0 0.55 0.45 1 1 1h4c0.55 0 1-0.45 1-1v-4c0-0.55-0.45-1-1-1h-4c-0.55 0-1 0.45-1 1zM22 18c-0.55 0-1 0.45-1 1v4c0 0.55 0.45 1 1 1h4c0.55 0 1-0.45 1-1v-4c0-0.55-0.45-1-1-1h-4z"/>
</svg>