<svg version="1.1" xmlns="http://www.w3.org/2000/svg" width="28" height="32" viewBox="0 0 28 32">
<path fill="currentColor" d="M5.4 0.344l-1.538 2.631c-0.237 0.406-0.362 0.875-0.362 1.35v0.175c0 1.381 1.119 2.5 2.5 2.5s2.5-1.119 2.5-2.5v-0.175c0-0.475-0.125-0.938-0.363-1.35l-1.537-2.631c-0.125-0.212-0.35-0.344-0.6-0.344s-0.475 0.131-0.6 0.344zM13.4 0.344l-1.537 2.631c-0.238 0.406-0.363 0.875-0.363 1.35v0.175c0 1.381 1.119 2.5 2.5 2.5s2.5-1.119 2.5-2.5v-0.175c0-0.475-0.125-0.938-0.363-1.35l-1.537-2.631c-0.125-0.212-0.35-0.344-0.6-0.344s-0.475 0.131-0.6 0.344zM19.863 2.975c-0.238 0.406-0.363 0.875-0.363 1.35v0.175c0 1.381 1.119 2.5 2.5 2.5s2.5-1.119 2.5-2.5v-0.175c0-0.475-0.125-0.938-0.363-1.35l-1.538-2.631c-0.125-0.212-0.35-0.344-0.6-0.344s-0.475 0.131-0.6 0.344l-1.538 2.631zM8 11c0-1.106-0.894-2-2-2s-2 0.894-2 2v3c-2.206 0-4 1.794-4 4v4.438c0.519 0.325 1.131 0.563 1.8 0.563 0.844 0 1.7-0.381 2.4-0.837 0.338-0.219 0.619-0.444 0.813-0.606 0.094-0.081 0.169-0.15 0.219-0.194 0.025-0.025 0.044-0.038 0.050-0.050l0.006-0.006s0 0 0 0 0 0 0 0c0.194-0.2 0.463-0.306 0.744-0.3s0.537 0.131 0.725 0.337v0 0l0.006 0.006c0.006 0.006 0.025 0.025 0.044 0.044 0.044 0.044 0.106 0.106 0.194 0.188 0.175 0.163 0.425 0.381 0.737 0.594 0.637 0.444 1.438 0.819 2.269 0.819s1.631-0.375 2.269-0.819c0.313-0.219 0.563-0.431 0.738-0.594 0.088-0.081 0.15-0.144 0.194-0.188 0.019-0.019 0.037-0.038 0.044-0.044l0.006-0.006c0.188-0.219 0.463-0.337 0.75-0.337s0.563 0.125 0.75 0.337l0.006 0.006c0.006 0.006 0.025 0.025 0.044 0.044 0.044 0.044 0.106 0.106 0.194 0.188 0.175 0.163 0.425 0.381 0.738 0.594 0.637 0.444 1.438 0.819 2.269 0.819s1.631-0.375 2.269-0.819c0.313-0.219 0.563-0.431 0.738-0.594 0.087-0.081 0.15-0.144 0.194-0.188 0.019-0.019 0.038-0.038 0.044-0.044l0.006-0.006c0.181-0.212 0.444-0.331 0.725-0.337s0.544 0.1 0.744 0.3v0 0 0l0.006 0.006c0.012 0.012 0.025 0.025 0.050 0.050 0.050 0.044 0.119 0.113 0.219 0.194 0.194 0.163 0.469 0.387 0.813 0.606 0.7 0.456 1.556 0.837 2.4 0.837 0.669 0 1.281-0.244 1.8-0.563v-4.438c0-2.206-1.794-4-4-4v-3c0-1.106-0.894-2-2-2s-2 0.894-2 2v3h-4.012v-3c0-1.106-0.894-2-2-2s-2 0.894-2 2v3h-4v-3zM28 24.663c-0.531 0.206-1.137 0.337-1.8 0.337-1.406 0-2.65-0.619-3.488-1.163-0.256-0.169-0.488-0.337-0.681-0.488-0.175 0.15-0.381 0.313-0.613 0.469-0.806 0.556-2.006 1.181-3.419 1.181s-2.613-0.625-3.412-1.181c-0.219-0.15-0.419-0.306-0.588-0.45-0.169 0.144-0.369 0.294-0.588 0.45-0.8 0.556-2 1.181-3.412 1.181s-2.612-0.625-3.412-1.181c-0.231-0.163-0.438-0.325-0.612-0.469-0.194 0.15-0.425 0.319-0.681 0.488-0.844 0.544-2.087 1.163-3.494 1.163-0.663 0-1.269-0.137-1.8-0.337v5.337c0 1.106 0.894 2 2 2h24c1.106 0 2-0.894 2-2v-5.337z"/>
</svg>