<svg version="1.1" xmlns="http://www.w3.org/2000/svg" width="32" height="32" viewBox="0 0 32 32">
<path fill="currentColor" d="M10 0c1.106 0 2 0.894 2 2v2h8v-2c0-1.106 0.894-2 2-2s2 0.894 2 2v2h3c1.656 0 3 1.344 3 3v3h-28v-3c0-1.656 1.344-3 3-3h3v-2c0-1.106 0.894-2 2-2zM2 12h28v17c0 1.656-1.344 3-3 3h-22c-1.656 0-3-1.344-3-3v-17zM21.063 19.063c0.587-0.587 0.587-1.538 0-2.119s-1.538-0.587-2.119 0l-2.938 2.938-2.938-2.938c-0.588-0.587-1.537-0.587-2.119 0s-0.588 1.538 0 2.119l2.938 2.938-2.938 2.938c-0.588 0.587-0.588 1.538 0 2.119s1.537 0.587 2.119 0l2.938-2.938 2.938 2.938c0.587 0.587 1.538 0.587 2.119 0s0.587-1.538 0-2.119l-2.938-2.938 2.938-2.938z"/>
</svg>