<svg version="1.1" xmlns="http://www.w3.org/2000/svg" width="32" height="32" viewBox="0 0 32 32">
<path fill="currentColor" d="M8 2v2h-3c-1.656 0-3 1.344-3 3v3h28v-3c0-1.656-1.344-3-3-3h-3v-2c0-1.106-0.894-2-2-2s-2 0.894-2 2v2h-8v-2c0-1.106-0.894-2-2-2s-2 0.894-2 2zM30 12h-28v17c0 1.656 1.344 3 3 3h22c1.656 0 3-1.344 3-3v-17zM16 15.5c0.831 0 1.5 0.669 1.5 1.5v3.5h3.5c0.831 0 1.5 0.669 1.5 1.5s-0.669 1.5-1.5 1.5h-3.5v3.5c0 0.831-0.669 1.5-1.5 1.5s-1.5-0.669-1.5-1.5v-3.5h-3.5c-0.831 0-1.5-0.669-1.5-1.5s0.669-1.5 1.5-1.5h3.5v-3.5c0-0.831 0.669-1.5 1.5-1.5z"/>
</svg>