<svg version="1.1" xmlns="http://www.w3.org/2000/svg" width="40" height="32" viewBox="0 0 40 32">
<path fill="currentColor" d="M13.319 4.050l-0.65 1.95h-4.669c-2.206 0-4 1.794-4 4v16c0 2.206 1.794 4 4 4h24c2.206 0 4-1.794 4-4v-16c0-2.206-1.794-4-4-4h-4.669l-0.65-1.95c-0.406-1.225-1.55-2.050-2.844-2.050h-7.675c-1.294 0-2.438 0.825-2.844 2.050zM28 16c0 0.55-0.45 1-1 1h-4.794c-0.387 0-0.706-0.319-0.706-0.706 0-0.188 0.075-0.369 0.206-0.5l1.481-1.481c-0.85-0.838-1.994-1.313-3.188-1.313-1.2 0-2.356 0.475-3.206 1.331l-1.231 1.231c-0.588 0.587-1.537 0.587-2.119 0s-0.588-1.537 0-2.119l1.231-1.231c1.412-1.419 3.325-2.213 5.325-2.213 1.988 0 3.9 0.787 5.313 2.188l1.481-1.481c0.131-0.131 0.313-0.206 0.5-0.206 0.387 0 0.706 0.319 0.706 0.706v4.794zM12 20c0-0.55 0.45-1 1-1h4.794c0.387 0 0.706 0.319 0.706 0.706 0 0.188-0.075 0.369-0.206 0.5l-1.481 1.481c0.85 0.837 1.994 1.313 3.188 1.313 1.2 0 2.356-0.475 3.206-1.331l1.231-1.231c0.587-0.587 1.538-0.587 2.119 0s0.587 1.538 0 2.119l-1.231 1.231c-1.413 1.419-3.325 2.212-5.325 2.212-1.988 0-3.9-0.788-5.313-2.188l-1.481 1.481c-0.131 0.131-0.313 0.206-0.5 0.206-0.387 0-0.706-0.319-0.706-0.706v-4.794z"/>
</svg>