<svg version="1.1" xmlns="http://www.w3.org/2000/svg" width="32" height="32" viewBox="0 0 32 32">
<path fill="currentColor" d="M13.787 7.575l3.156-1.575h11.056v6h-7.175c-1.369-0.944-3.031-1.5-4.825-1.5s-3.45 0.556-4.825 1.5h-7.175v-4h8c0.619 0 1.231-0.144 1.787-0.425zM0 8v18c0 2.206 1.794 4 4 4h24c2.206 0 4-1.794 4-4v-20c0-2.206-1.794-4-4-4h-11.056c-0.619 0-1.231 0.144-1.787 0.425l-3.156 1.575h-2v-1c0-0.55-0.45-1-1-1h-4c-0.55 0-1 0.45-1 1v1c-2.206 0-4 1.794-4 4zM10.5 19c0-3.038 2.462-5.5 5.5-5.5s5.5 2.462 5.5 5.5v0c0 3.038-2.462 5.5-5.5 5.5s-5.5-2.462-5.5-5.5v0z"/>
</svg>