<svg version="1.1" xmlns="http://www.w3.org/2000/svg" width="32" height="32" viewBox="0 0 32 32">
<path fill="currentColor" d="M21.8 8.219c0.231-0.144 0.494-0.219 0.762-0.219 0.794 0 1.438 0.644 1.438 1.438v0.35c0 0.619-0.319 1.194-0.844 1.519l-21.275 13.3c-1.875 1.175-2.444 3.637-1.275 5.512s3.638 2.444 5.513 1.275l21.281-13.3c2.863-1.788 4.6-4.925 4.6-8.3v-0.356c0-5.213-4.225-9.438-9.438-9.438-1.769 0-3.5 0.5-5.006 1.438l-1.675 1.044c-1.875 1.169-2.444 3.638-1.275 5.513s3.638 2.444 5.513 1.275l1.675-1.050zM18.65 3.112c0.575-0.356 1.194-0.631 1.837-0.819l1.262 3.8c-0.356 0.088-0.7 0.231-1.019 0.425l-0.788 0.494-1.294-3.9zM24.181 6.406l2.887-2.888c0.531 0.406 1.006 0.881 1.413 1.413l-2.887 2.888c-0.319-0.6-0.813-1.094-1.413-1.413zM25.988 10.113l3.85 1.281c-0.137 0.656-0.363 1.294-0.656 1.887l-3.875-1.294c0.387-0.55 0.631-1.194 0.688-1.881zM20.606 15.269l3.775 2.356-1.887 1.181-3.775-2.356 1.887-1.181zM13.906 19.456l3.775 2.356-1.887 1.181-3.775-2.356 1.887-1.181zM7.456 23.481l3.775 2.356-1.887 1.181-3.775-2.356 1.888-1.181z"/>
</svg>