<svg version="1.1" xmlns="http://www.w3.org/2000/svg" width="32" height="32" viewBox="0 0 32 32">
<path fill="currentColor" d="M16 0c0.331 0 0.644 0.169 0.831 0.444 0.988 1.469 2.294 3.981 3.075 6.813 0.45 1.65 0.738 3.45 0.65 5.25 0.719-0.55 1.481-1.044 2.238-1.475 2.563-1.456 5.275-2.306 7.012-2.656 0.325-0.063 0.669 0.037 0.9 0.275s0.337 0.575 0.275 0.906c-0.35 1.731-1.206 4.431-2.669 6.981-0.569 0.994-1.244 1.981-2.025 2.894 1.738 0.413 3.275 1.081 4.2 1.594 0.319 0.175 0.512 0.512 0.512 0.875s-0.2 0.7-0.512 0.875c-0.95 0.525-2.556 1.219-4.363 1.631-1.262 0.288-2.681 0.45-4.075 0.288l0.519 2.069c0.094 0.381-0.038 0.775-0.344 1.025s-0.725 0.288-1.075 0.119l-3.65-1.831v4.425c0 0.831-0.669 1.5-1.5 1.5s-1.5-0.669-1.5-1.5v-4.425l-3.656 1.819c-0.35 0.175-0.769 0.131-1.075-0.119s-0.438-0.644-0.344-1.025l0.519-2.069c-1.387 0.163-2.813 0-4.075-0.288-1.806-0.413-3.413-1.1-4.362-1.631-0.319-0.175-0.512-0.512-0.512-0.875s0.2-0.7 0.512-0.875c0.925-0.512 2.462-1.175 4.2-1.594-0.775-0.9-1.45-1.887-2.019-2.881-1.462-2.55-2.319-5.25-2.669-6.981-0.069-0.325 0.038-0.669 0.275-0.906s0.575-0.338 0.9-0.275c1.744 0.344 4.45 1.2 7.012 2.656 0.756 0.431 1.519 0.919 2.238 1.475-0.088-1.794 0.194-3.6 0.65-5.25 0.781-2.831 2.088-5.344 3.075-6.813 0.188-0.275 0.5-0.444 0.831-0.444z"/>
</svg>