<svg version="1.1" xmlns="http://www.w3.org/2000/svg" width="36" height="32" viewBox="0 0 36 32">
<path fill="currentColor" d="M4 9c0-1.656 1.344-3 3-3s3 1.344 3 3v7h-6v-7zM0 9v14c0 3.869 3.131 7 7 7s7-3.131 7-7v-11.15c0.113 1.194 0.512 2.375 1.238 3.425l8.031 11.706c2.219 3.231 6.581 4.019 9.75 1.756s3.938-6.719 1.719-9.95l-8.031-11.706c-2.219-3.237-6.587-4.019-9.75-1.756-1.75 1.25-2.769 3.175-2.956 5.188v-1.512c0-3.869-3.131-7-7-7s-7 3.131-7 7zM18.538 13.012c-1-1.456-0.625-3.456 0.744-4.438 1.325-0.944 3.156-0.644 4.125 0.762l4.188 6.1-4.994 3.5-4.063-5.925zM30.688 25.481c-0.050 0.038-0.1 0.069-0.15 0.1l0.25-0.175c-0.031 0.025-0.063 0.050-0.1 0.075z"/>
</svg>