<svg version="1.1" xmlns="http://www.w3.org/2000/svg" width="40" height="32" viewBox="0 0 40 32">
<path fill="currentColor" d="M11 0.5c-0.412 0-0.775 0.25-0.931 0.631l-1.838 4.625-4.756-1.45c-0.394-0.119-0.819 0.013-1.075 0.331s-0.288 0.763-0.087 1.119l2.469 4.319-4.1 2.825c-0.338 0.231-0.5 0.644-0.406 1.044s0.419 0.7 0.819 0.762l4.919 0.762-0.35 4.969c-0.031 0.406 0.194 0.794 0.563 0.969s0.806 0.113 1.112-0.163l2.206-2.031 0.594-2.212 0.65-2.412c0.5-1.869 1.906-3.256 3.619-3.806l2.562-3.7c0.706-1.019 1.65-1.806 2.719-2.325-0.025-0.037-0.050-0.075-0.081-0.112-0.256-0.319-0.681-0.45-1.075-0.331l-4.762 1.444-1.838-4.625c-0.156-0.381-0.519-0.631-0.931-0.631zM22.981 10.094l8.475 2.269c0.406 0.113 0.706 0.463 0.737 0.887l0.288 3.531-12.594-3.375 2.012-2.912c0.238-0.35 0.675-0.506 1.081-0.4zM18.613 8.219l-2.994 4.331c-1.35 0.188-2.519 1.162-2.894 2.563l-0.65 2.413-1.556 5.794c-0.287 1.069 0.35 2.163 1.412 2.45l0.969 0.256c1.069 0.288 2.162-0.35 2.45-1.413l0.519-1.931 15.456 4.144-0.519 1.931c-0.288 1.069 0.35 2.163 1.412 2.45l0.969 0.256c1.069 0.288 2.163-0.35 2.45-1.413l0.519-1.931 1.031-3.869 0.65-2.413c0.375-1.4-0.156-2.825-1.225-3.669l-0.425-5.25c-0.169-2.106-1.65-3.875-3.688-4.425l-8.488-2.263c-2.044-0.55-4.206 0.25-5.406 1.987zM17.55 16.406c0.646 0.177 1.113 0.759 1.113 1.45 0 0.829-0.672 1.501-1.501 1.501-0.138 0-0.271-0.019-0.398-0.053l0.011 0.002c-0.646-0.177-1.113-0.759-1.113-1.45 0-0.829 0.672-1.501 1.501-1.501 0.138 0 0.271 0.019 0.398 0.053l-0.011-0.002zM31.169 21.606c0.148-0.684 0.749-1.19 1.468-1.19 0.828 0 1.5 0.672 1.5 1.5 0 0.166-0.027 0.326-0.077 0.475l0.003-0.011c-0.177 0.646-0.759 1.113-1.45 1.113-0.829 0-1.501-0.672-1.501-1.501 0-0.138 0.019-0.271 0.053-0.398l-0.002 0.011z"/>
</svg>