<svg version="1.1" xmlns="http://www.w3.org/2000/svg" width="32" height="32" viewBox="0 0 32 32">
<path fill="currentColor" d="M17.5 1.5c0-0.831-0.669-1.5-1.5-1.5s-1.5 0.669-1.5 1.5v5c0 0.831 0.669 1.5 1.5 1.5s1.5-0.669 1.5-1.5v-5zM11.613 14h8.775c0.425 0 0.8 0.269 0.944 0.662l1.188 3.338h-13.037l1.194-3.338c0.144-0.4 0.519-0.662 0.944-0.662zM6.906 13.319l-1.769 4.956c-1.256 0.531-2.138 1.775-2.138 3.225v8.5c0 1.106 0.894 2 2 2h1c1.106 0 2-0.894 2-2v-2h16v2c0 1.106 0.894 2 2 2h1c1.106 0 2-0.894 2-2v-8.5c0-1.45-0.881-2.694-2.137-3.225l-1.769-4.956c-0.712-1.988-2.594-3.319-4.706-3.319h-8.775c-2.112 0-4 1.331-4.706 3.319zM8 21.5c0.828 0 1.5 0.672 1.5 1.5s-0.672 1.5-1.5 1.5v0c-0.828 0-1.5-0.672-1.5-1.5s0.672-1.5 1.5-1.5v0zM22.5 23c0-0.828 0.672-1.5 1.5-1.5s1.5 0.672 1.5 1.5v0c0 0.828-0.672 1.5-1.5 1.5s-1.5-0.672-1.5-1.5v0zM2.438 2.438c-0.587 0.587-0.587 1.538 0 2.119l3 3c0.588 0.588 1.537 0.588 2.119 0s0.588-1.537 0-2.119l-2.994-3c-0.587-0.587-1.538-0.587-2.119 0zM27.438 2.438l-3 3c-0.587 0.588-0.587 1.537 0 2.119s1.538 0.588 2.119 0l3-3c0.587-0.587 0.587-1.538 0-2.119s-1.538-0.587-2.119 0z"/>
</svg>