<svg version="1.1" xmlns="http://www.w3.org/2000/svg" width="32" height="32" viewBox="0 0 32 32">
<path fill="currentColor" d="M5 6c0-1.106 0.894-2 2-2h4c1.106 0 2 0.894 2 2h6c0-1.106 0.894-2 2-2h4c1.106 0 2 0.894 2 2h1c2.206 0 4 1.794 4 4v14c0 2.206-1.794 4-4 4h-24c-2.206 0-4-1.794-4-4v-14c0-2.206 1.794-4 4-4h1zM24 12c0-0.55-0.45-1-1-1s-1 0.45-1 1v2h-2c-0.55 0-1 0.45-1 1s0.45 1 1 1h2v2c0 0.55 0.45 1 1 1s1-0.45 1-1v-2h2c0.55 0 1-0.45 1-1s-0.45-1-1-1h-2v-2zM5 15c0 0.55 0.45 1 1 1h6c0.55 0 1-0.45 1-1s-0.45-1-1-1h-6c-0.55 0-1 0.45-1 1z"/>
</svg>