<svg version="1.1" xmlns="http://www.w3.org/2000/svg" width="40" height="32" viewBox="0 0 40 32">
<path fill="currentColor" d="M10.706 6h3.294v6h-7.044l1.9-4.744c0.3-0.756 1.031-1.256 1.85-1.256zM17 12v-6h5.075c0.606 0 1.181 0.275 1.563 0.75l4.2 5.25h-10.837zM33.013 12.063l-6.25-7.813c-1.137-1.425-2.863-2.25-4.688-2.25h-11.369c-2.456 0-4.662 1.494-5.569 3.769l-2.6 6.506c-1.488 0.588-2.538 2.031-2.538 3.725v7c0 1.106 0.894 2 2 2h2.081c0.475 2.837 2.944 5 5.919 5s5.444-2.163 5.919-5h8.163c0.475 2.837 2.944 5 5.919 5s5.444-2.163 5.919-5h2.081c1.106 0 2-0.894 2-2v-3c0-4.075-3.050-7.438-6.987-7.938zM27.169 23c0.413-1.196 1.529-2.039 2.842-2.039 1.657 0 3 1.343 3 3 0 0.373-0.068 0.73-0.193 1.060l0.007-0.021c-0.413 1.196-1.529 2.039-2.842 2.039-1.657 0-3-1.343-3-3 0-0.373 0.068-0.73 0.192-1.060l-0.007 0.021zM10 21c1.657 0 3 1.343 3 3s-1.343 3-3 3v0c-1.657 0-3-1.343-3-3s1.343-3 3-3v0z"/>
</svg>