<svg version="1.1" xmlns="http://www.w3.org/2000/svg" width="32" height="32" viewBox="0 0 32 32">
<path fill="currentColor" d="M10.338 6h11.325c0.85 0 1.606 0.537 1.887 1.338l1.631 4.662h-18.363l1.631-4.662c0.281-0.8 1.037-1.338 1.887-1.338zM4.675 6.019l-2.2 6.281c-1.45 0.6-2.475 2.031-2.475 3.7v5c0 1.481 0.806 2.775 2 3.462v3.538c0 1.106 0.894 2 2 2h2c1.106 0 2-0.894 2-2v-3h16v3c0 1.106 0.894 2 2 2h2c1.106 0 2-0.894 2-2v-3.538c1.194-0.694 2-1.981 2-3.462v-5c0-1.669-1.025-3.1-2.475-3.7l-2.2-6.281c-0.844-2.406-3.113-4.019-5.662-4.019h-11.325c-2.55 0-4.819 1.612-5.662 4.019zM13 17h6c0.55 0 1 0.45 1 1v2c0 0.55-0.45 1-1 1h-6c-0.55 0-1-0.45-1-1v-2c0-0.55 0.45-1 1-1zM3 17.5c0-0.831 0.669-1.5 1.5-1.5h2c0.831 0 1.5 0.669 1.5 1.5s-0.669 1.5-1.5 1.5h-2c-0.831 0-1.5-0.669-1.5-1.5zM25.5 16h2c0.831 0 1.5 0.669 1.5 1.5s-0.669 1.5-1.5 1.5h-2c-0.831 0-1.5-0.669-1.5-1.5s0.669-1.5 1.5-1.5z"/>
</svg>