<svg version="1.1" xmlns="http://www.w3.org/2000/svg" width="32" height="32" viewBox="0 0 32 32">
<path fill="currentColor" d="M16 0c-8.838 0-16 7.162-16 16v12c0 2.206 1.794 4 4 4h2.675c-0.412-0.369-0.675-0.9-0.675-1.5v-7c0-1.3 0.706-2.431 1.756-3.038l1.313-4.044c0.469-1.444 1.813-2.419 3.331-2.419h7.2c1.519 0 2.863 0.975 3.331 2.419l1.313 4.044c1.050 0.606 1.762 1.738 1.762 3.038v7c0 0.6-0.262 1.131-0.675 1.5h2.669c2.206 0 4-1.794 4-4v-12c0-8.838-7.162-16-16-16zM22.675 32c-0.413-0.369-0.675-0.9-0.675-1.5v-2.5h-12v2.5c0 0.6-0.262 1.131-0.675 1.5h13.35zM11.925 17.344l-0.863 2.656h9.875l-0.863-2.656c-0.069-0.206-0.256-0.344-0.475-0.344h-7.2c-0.219 0-0.406 0.137-0.475 0.344zM10.5 25.5c0.828 0 1.5-0.672 1.5-1.5s-0.672-1.5-1.5-1.5v0c-0.828 0-1.5 0.672-1.5 1.5s0.672 1.5 1.5 1.5v0zM23 24c0-0.828-0.672-1.5-1.5-1.5s-1.5 0.672-1.5 1.5v0c0 0.828 0.672 1.5 1.5 1.5s1.5-0.672 1.5-1.5v0z"/>
</svg>