<svg version="1.1" xmlns="http://www.w3.org/2000/svg" width="32" height="32" viewBox="0 0 32 32">
<path fill="currentColor" d="M8.45 7.338l-1.631 4.662h18.362l-1.631-4.662c-0.281-0.8-1.038-1.338-1.887-1.338h-11.325c-0.85 0-1.606 0.537-1.887 1.338zM2.475 12.3l2.2-6.281c0.844-2.406 3.112-4.019 5.662-4.019h11.325c2.55 0 4.819 1.612 5.663 4.019l2.2 6.281c1.45 0.6 2.475 2.031 2.475 3.7v12c0 1.106-0.894 2-2 2h-2c-1.106 0-2-0.894-2-2v-3h-20v3c0 1.106-0.894 2-2 2h-2c-1.106 0-2-0.894-2-2v-12c0-1.669 1.025-3.1 2.475-3.7zM8 18c0-1.105-0.895-2-2-2s-2 0.895-2 2v0c0 1.105 0.895 2 2 2s2-0.895 2-2v0zM26 20c1.105 0 2-0.895 2-2s-0.895-2-2-2v0c-1.105 0-2 0.895-2 2s0.895 2 2 2v0z"/>
</svg>