<svg version="1.1" xmlns="http://www.w3.org/2000/svg" width="40" height="32" viewBox="0 0 40 32">
<path fill="currentColor" d="M0 7c0-2.763 2.237-5 5-5h21c5.525 0 10 4.475 10 10v10h2c1.106 0 2 0.894 2 2s-0.894 2-2 2h-20c0 3.313-2.688 6-6 6s-6-2.688-6-6h-1c-2.763 0-5-2.238-5-5v-14zM20 22h8v-6h-2c-0.55 0-1-0.45-1-1s0.45-1 1-1h2v-4c0-1.106-0.894-2-2-2h-4c-1.106 0-2 0.894-2 2v12zM6 8c-1.106 0-2 0.894-2 2v4c0 1.106 0.894 2 2 2h8c1.106 0 2-0.894 2-2v-4c0-1.106-0.894-2-2-2h-8zM12 29c1.657 0 3-1.343 3-3s-1.343-3-3-3v0c-1.657 0-3 1.343-3 3s1.343 3 3 3v0z"/>
</svg>