<svg version="1.1" xmlns="http://www.w3.org/2000/svg" width="32" height="32" viewBox="0 0 32 32">
<path fill="currentColor" d="M21.669 0.375c-0.569 0.688-1.669 2.269-1.669 4.125 0 2.5 0.956 3.456 2.5 5s2.5 2.5 5 2.5c1.856 0 3.438-1.1 4.125-1.669 0.25-0.206 0.375-0.512 0.375-0.831s-0.125-0.625-0.375-0.825c-0.712-0.569-2.394-1.675-4.625-1.675-2 0-2.5 0.5-2.5 0.5s0.5-0.5 0.5-2.5c0-2.231-1.106-3.913-1.675-4.625-0.2-0.25-0.506-0.375-0.825-0.375s-0.625 0.125-0.831 0.375zM15.287 8.5c-2.5 0-4.819 1.131-6.356 3.012l3.781 3.781c0.387 0.387 0.387 1.025 0 1.413s-1.025 0.387-1.412 0l-3.456-3.456v0.006l-7.706 16.612c-0.263 0.569-0.144 1.244 0.3 1.694s1.119 0.563 1.694 0.3l8.419-3.9-3.256-3.256c-0.388-0.387-0.388-1.025 0-1.413s1.025-0.387 1.412 0l3.775 3.769 6.262-2.9c2.9-1.344 4.762-4.25 4.762-7.45-0.006-4.537-3.681-8.213-8.219-8.213z"/>
</svg>