<svg version="1.1" xmlns="http://www.w3.org/2000/svg" width="36" height="32" viewBox="0 0 36 32">
<path fill="currentColor" d="M1.5 0c-0.831 0-1.5 0.669-1.5 1.5s0.669 1.5 1.5 1.5h2.844c0.237 0 0.444 0.169 0.494 0.406l3.225 16.938c0.406 2.125 2.262 3.656 4.419 3.656h18.019c0.831 0 1.5-0.669 1.5-1.5s-0.669-1.5-1.5-1.5h-18.019c-0.719 0-1.338-0.512-1.475-1.219l-0.338-1.781h18.031c2.038 0 3.819-1.363 4.344-3.331l2.563-9.519c0.431-1.587-0.769-3.15-2.413-3.15h-10.694v6.381l1.438-1.438c0.587-0.588 1.538-0.588 2.119 0s0.587 1.537 0 2.119l-4 4c-0.587 0.588-1.538 0.588-2.119 0l-4-4c-0.588-0.588-0.588-1.537 0-2.119s1.538-0.588 2.119 0l1.438 1.438v-6.381h-11.988c-0.569-1.2-1.781-2-3.162-2h-2.844zM11 32c1.657 0 3-1.343 3-3s-1.343-3-3-3v0c-1.657 0-3 1.343-3 3s1.343 3 3 3v0zM32 29c0-1.657-1.343-3-3-3s-3 1.343-3 3v0c0 1.657 1.343 3 3 3s3-1.343 3-3v0z"/>
</svg>