<svg version="1.1" xmlns="http://www.w3.org/2000/svg" width="40" height="32" viewBox="0 0 40 32">
<path fill="currentColor" d="M0 2c0-1.106 0.894-2 2-2h1c2.763 0 5 2.237 5 5v18c0 0.55 0.45 1 1 1h29c1.106 0 2 0.894 2 2s-0.894 2-2 2h-4.169c0.112 0.313 0.169 0.65 0.169 1 0 1.656-1.344 3-3 3s-3-1.344-3-3c0-0.35 0.063-0.688 0.169-1h-12.338c0.113 0.313 0.169 0.65 0.169 1 0 1.656-1.344 3-3 3s-3-1.344-3-3c0-0.35 0.063-0.688 0.169-1h-1.169c-2.763 0-5-2.238-5-5v-18c0-0.55-0.45-1-1-1h-1c-1.106 0-2-0.894-2-2zM27 6v-2.5c0-0.275-0.225-0.5-0.5-0.5h-5c-0.275 0-0.5 0.225-0.5 0.5v2.5h6zM18 6v-2.5c0-1.931 1.569-3.5 3.5-3.5h5c1.931 0 3.5 1.569 3.5 3.5v16.5h-12v-14zM32 20v-14h1c1.656 0 3 1.344 3 3v8c0 1.656-1.344 3-3 3h-1zM15 6h1v14h-1c-1.656 0-3-1.344-3-3v-8c0-1.656 1.344-3 3-3z"/>
</svg>