<svg version="1.1" xmlns="http://www.w3.org/2000/svg" width="40" height="32" viewBox="0 0 40 32">
<path fill="currentColor" d="M2 0c-1.106 0-2 0.894-2 2s0.894 2 2 2h1c0.55 0 1 0.45 1 1v18c0 2.762 2.237 5 5 5h1.169c-0.113 0.313-0.169 0.65-0.169 1 0 1.656 1.344 3 3 3s3-1.344 3-3c0-0.35-0.063-0.688-0.169-1h12.338c-0.113 0.313-0.169 0.65-0.169 1 0 1.656 1.344 3 3 3s3-1.344 3-3c0-0.35-0.063-0.688-0.169-1h4.169c1.106 0 2-0.894 2-2s-0.894-2-2-2h-29c-0.55 0-1-0.45-1-1v-18c0-2.763-2.237-5-5-5h-1zM12 5v12c0 1.656 1.344 3 3 3h20c1.656 0 3-1.344 3-3v-12c0-1.656-1.344-3-3-3h-6v9c0 0.369-0.2 0.706-0.531 0.881s-0.719 0.156-1.025-0.050l-2.444-1.631-2.444 1.631c-0.306 0.206-0.7 0.225-1.025 0.050s-0.531-0.512-0.531-0.881v-9h-6c-1.656 0-3 1.344-3 3z"/>
</svg>