<svg version="1.1" xmlns="http://www.w3.org/2000/svg" width="32" height="32" viewBox="0 0 32 32">
<path fill="currentColor" d="M4 0c-1.106 0-2 0.894-2 2v4c0 1.106 0.894 2 2 2h5v2h-3.563c-1.975 0-3.656 1.444-3.956 3.4l-1.413 9.356c-0.044 0.294-0.069 0.594-0.069 0.894v4.35c0 2.206 1.794 4 4 4h24c2.206 0 4-1.794 4-4v-4.35c0-0.3-0.025-0.6-0.069-0.9l-1.419-9.35c-0.294-1.956-1.975-3.4-3.95-3.4h-13.563v-2h5c1.106 0 2-0.894 2-2v-4c0-1.106-0.894-2-2-2h-14zM6 3h10c0.55 0 1 0.45 1 1s-0.45 1-1 1h-10c-0.55 0-1-0.45-1-1s0.45-1 1-1zM4 27c0-0.55 0.45-1 1-1h22c0.55 0 1 0.45 1 1s-0.45 1-1 1h-22c-0.55 0-1-0.45-1-1zM7 16.5c-0.828 0-1.5-0.672-1.5-1.5s0.672-1.5 1.5-1.5v0c0.828 0 1.5 0.672 1.5 1.5s-0.672 1.5-1.5 1.5v0zM14.5 15c0 0.828-0.672 1.5-1.5 1.5s-1.5-0.672-1.5-1.5v0c0-0.828 0.672-1.5 1.5-1.5s1.5 0.672 1.5 1.5v0zM10 21.5c-0.828 0-1.5-0.672-1.5-1.5s0.672-1.5 1.5-1.5v0c0.828 0 1.5 0.672 1.5 1.5s-0.672 1.5-1.5 1.5v0zM20.5 15c0 0.828-0.672 1.5-1.5 1.5s-1.5-0.672-1.5-1.5v0c0-0.828 0.672-1.5 1.5-1.5s1.5 0.672 1.5 1.5v0zM16 21.5c-0.828 0-1.5-0.672-1.5-1.5s0.672-1.5 1.5-1.5v0c0.828 0 1.5 0.672 1.5 1.5s-0.672 1.5-1.5 1.5v0zM26.5 15c0 0.828-0.672 1.5-1.5 1.5s-1.5-0.672-1.5-1.5v0c0-0.828 0.672-1.5 1.5-1.5s1.5 0.672 1.5 1.5v0zM22 21.5c-0.828 0-1.5-0.672-1.5-1.5s0.672-1.5 1.5-1.5v0c0.828 0 1.5 0.672 1.5 1.5s-0.672 1.5-1.5 1.5v0z"/>
</svg>