<svg version="1.1" xmlns="http://www.w3.org/2000/svg" width="36" height="32" viewBox="0 0 36 32">
<path fill="currentColor" d="M20 12h1.069c1.381 2.394 3.969 4 6.931 4 0.688 0 1.363-0.088 2-0.25v14.25c0 1.106-0.894 2-2 2s-2-0.894-2-2v-8.8l-8.5 6.8h3.5c1.106 0 2 0.894 2 2s-0.894 2-2 2h-9c-3.313 0-6-2.688-6-6v-13.969c0-1.006-0.75-1.863-1.75-1.988l-0.494-0.063c-1.094-0.137-1.875-1.137-1.738-2.231s1.138-1.875 2.231-1.737l0.494 0.063c3 0.375 5.256 2.925 5.256 5.956v5.331c2.15-3.231 5.825-5.363 10-5.363zM30 13.656v0c-0.625 0.219-1.3 0.344-2 0.344-1.775 0-3.375-0.775-4.475-2v0c-0.231-0.256-0.438-0.531-0.619-0.825-0.575-0.925-0.906-2.012-0.906-3.175v0-7.331c0-0.369 0.294-0.662 0.663-0.669h0.012c0.206 0 0.4 0.1 0.525 0.263v0.006l0.8 1.063 2 2.669h4l0.3-0.4 1.7-2.269 0.8-1.063v-0.006c0.125-0.163 0.319-0.263 0.525-0.263h0.013c0.369 0.006 0.663 0.3 0.663 0.669v7.331c0 1.081-0.288 2.1-0.788 2.975-0.706 1.238-1.85 2.2-3.212 2.681zM27 8c0-0.552-0.448-1-1-1s-1 0.448-1 1v0c0 0.552 0.448 1 1 1s1-0.448 1-1v0zM30 9c0.552 0 1-0.448 1-1s-0.448-1-1-1v0c-0.552 0-1 0.448-1 1s0.448 1 1 1v0z"/>
</svg>