<svg version="1.1" xmlns="http://www.w3.org/2000/svg" width="24" height="32" viewBox="0 0 24 32">
<path fill="currentColor" d="M16 2c0-1.106-0.894-2-2-2s-2 0.894-2 2v2.169c-5.675 0.95-10 5.888-10 11.831s4.325 10.881 10 11.831v2.169c0 1.106 0.894 2 2 2s2-0.894 2-2v-2.169c1.931-0.325 3.7-1.106 5.2-2.238 0.881-0.663 1.063-1.919 0.4-2.8s-1.919-1.063-2.8-0.4c-0.825 0.619-1.769 1.081-2.8 1.35v-15.494c1.025 0.262 1.975 0.725 2.8 1.35 0.881 0.662 2.137 0.488 2.8-0.4s0.488-2.138-0.4-2.8c-1.5-1.125-3.275-1.913-5.2-2.237v-2.163zM12 8.25v15.5c-3.45-0.887-6-4.019-6-7.75s2.55-6.863 6-7.75z"/>
</svg>