<svg version="1.1" xmlns="http://www.w3.org/2000/svg" width="24" height="32" viewBox="0 0 24 32">
<path fill="currentColor" d="M14 0c1.106 0 2 0.894 2 2v2.169c1.931 0.325 3.7 1.106 5.2 2.237 0.881 0.662 1.063 1.919 0.4 2.8s-1.919 1.063-2.8 0.4c-1.337-1.012-2.994-1.606-4.8-1.606-4.419 0-8 3.581-8 8s3.581 8 8 8c1.806 0 3.462-0.594 4.8-1.6 0.881-0.663 2.137-0.488 2.8 0.4s0.488 2.137-0.4 2.8c-1.5 1.125-3.275 1.913-5.2 2.238v2.163c0 1.106-0.894 2-2 2s-2-0.894-2-2v-2.169c-5.675-0.95-10-5.887-10-11.831s4.325-10.881 10-11.831v-2.169c0-1.106 0.894-2 2-2z"/>
</svg>