<svg version="1.1" xmlns="http://www.w3.org/2000/svg" width="32" height="32" viewBox="0 0 32 32">
<path fill="currentColor" d="M13.188 0.456c-0.375-0.394-0.938-0.544-1.463-0.406s-0.931 0.556-1.069 1.081l-0.988 3.906-3.875-1.094c-0.525-0.15-1.088 0-1.469 0.381s-0.531 0.944-0.381 1.469l1.094 3.875-3.906 0.994c-0.525 0.131-0.938 0.544-1.081 1.069s0.012 1.081 0.406 1.456l2.888 2.813-2.888 2.813c-0.394 0.375-0.544 0.938-0.406 1.462s0.556 0.931 1.081 1.069l3.906 0.988-1.094 3.875c-0.15 0.525 0 1.087 0.381 1.469s0.944 0.531 1.469 0.381l3.875-1.094 0.988 3.906c0.131 0.525 0.544 0.938 1.069 1.081s1.081-0.012 1.463-0.4l2.813-2.887 2.813 2.887c0.381 0.387 0.938 0.544 1.462 0.4s0.931-0.556 1.069-1.081l0.988-3.906 3.875 1.094c0.525 0.15 1.087 0 1.469-0.381s0.531-0.944 0.381-1.469l-1.094-3.875 3.906-0.988c0.525-0.131 0.938-0.544 1.081-1.069s-0.012-1.081-0.4-1.462l-2.887-2.813 2.887-2.813c0.387-0.381 0.544-0.938 0.4-1.463s-0.556-0.931-1.081-1.069l-3.906-0.988 1.094-3.875c0.15-0.525 0-1.088-0.381-1.469s-0.944-0.531-1.469-0.381l-3.875 1.094-0.994-3.906c-0.131-0.525-0.544-0.938-1.069-1.081s-1.081 0.012-1.456 0.406l-2.813 2.888-2.813-2.888z"/>
</svg>