<svg version="1.1" xmlns="http://www.w3.org/2000/svg" width="28" height="32" viewBox="0 0 28 32">
<path fill="currentColor" d="M15.5 3v13h3v-12.331c1.494 0.862 2.5 2.481 2.5 4.331v8h3v-8c0-4.419-3.581-8-8-8h-4c-4.419 0-8 3.581-8 8v8h3v-8c0-1.85 1.006-3.469 2.5-4.331v12.331h3v-13h3zM3 18c-0.756 0-1.45 0.425-1.788 1.106l-1 2c-0.313 0.619-0.275 1.356 0.088 1.944s1.006 0.95 1.7 0.95v6c0 1.106 0.894 2 2 2s2-0.894 2-2v-6h16v6c0 1.106 0.894 2 2 2s2-0.894 2-2v-6c0.694 0 1.337-0.356 1.7-0.95s0.4-1.325 0.087-1.944l-1-2c-0.337-0.681-1.031-1.106-1.788-1.106h-22z"/>
</svg>