<svg version="1.1" xmlns="http://www.w3.org/2000/svg" width="40" height="32" viewBox="0 0 40 32">
<path fill="currentColor" d="M10 4c0-2.206 1.794-4 4-4h22c2.206 0 4 1.794 4 4v18c0 2.206-1.794 4-4 4h-14.95c-0.738-1.594-1.869-2.969-3.275-4h6.225v-2c0-1.106 0.894-2 2-2h4c1.106 0 2 0.894 2 2v2h4v-18h-22v3.069c-1.175-0.681-2.544-1.069-4-1.069v-2zM10 8c3.314 0 6 2.686 6 6s-2.686 6-6 6v0c-3.314 0-6-2.686-6-6s2.686-6 6-6v0zM8.331 22h3.331c4.606 0 8.337 3.731 8.337 8.331 0 0.919-0.744 1.669-1.669 1.669h-16.663c-0.925 0-1.669-0.744-1.669-1.669 0-4.6 3.731-8.331 8.331-8.331z"/>
</svg>