<svg version="1.1" xmlns="http://www.w3.org/2000/svg" width="40" height="32" viewBox="0 0 40 32">
<path fill="currentColor" d="M9.725 1.081c0.463-0.894 1.519-1.306 2.463-0.963l7.813 2.85 7.813-2.85c0.944-0.344 2 0.069 2.462 0.962l4.925 9.556c1.8 3.488 0.644 7.644-2.406 9.787l1.962 5.387 2.563-0.938c1.038-0.375 2.188 0.156 2.563 1.194s-0.156 2.188-1.194 2.563l-8.887 3.244c-1.038 0.381-2.188-0.156-2.563-1.194s0.156-2.188 1.194-2.563l2.563-0.938-1.956-5.387c-3.712 0.325-7.262-2.125-8.125-5.95l-0.913-4.044-0.913 4.044c-0.863 3.831-4.412 6.275-8.125 5.95l-1.956 5.387 2.563 0.938c1.037 0.375 1.575 1.525 1.194 2.563s-1.525 1.575-2.563 1.194l-8.881-3.238c-1.038-0.381-1.575-1.525-1.194-2.563s1.525-1.575 2.563-1.194l2.563 0.938 1.956-5.387c-3.050-2.15-4.2-6.306-2.4-9.794l4.919-9.556zM12.475 4.481l-1.7 3.3 5.575 2.031 0.819-3.619-4.694-1.713zM27.531 4.481l-4.694 1.712 0.819 3.619 5.575-2.031-1.7-3.3z"/>
</svg>