<svg version="1.1" xmlns="http://www.w3.org/2000/svg" width="36" height="32" viewBox="0 0 36 32">
<path fill="currentColor" d="M19 15v-13.963c0-0.563 0.438-1.038 1-1.038 7.731 0 14 6.269 14 14 0 0.563-0.475 1-1.038 1h-13.962zM2 17c0-7.581 5.631-13.856 12.938-14.856 0.575-0.081 1.063 0.381 1.063 0.962v14.894l9.781 9.781c0.419 0.419 0.387 1.106-0.094 1.444-2.45 1.75-5.45 2.775-8.688 2.775-8.281 0-15-6.712-15-15zM34.9 18c0.581 0 1.038 0.488 0.962 1.063-0.481 3.494-2.163 6.6-4.619 8.894-0.375 0.35-0.962 0.325-1.325-0.044l-9.919-9.913h14.9z"/>
</svg>