<svg version="1.1" xmlns="http://www.w3.org/2000/svg" width="32" height="32" viewBox="0 0 32 32">
<path fill="currentColor" d="M2 2c1.106 0 2 0.894 2 2v21c0 0.55 0.45 1 1 1h25c1.106 0 2 0.894 2 2s-0.894 2-2 2h-25c-2.763 0-5-2.238-5-5v-21c0-1.106 0.894-2 2-2zM10 14c1.106 0 2 0.894 2 2v4c0 1.106-0.894 2-2 2s-2-0.894-2-2v-4c0-1.106 0.894-2 2-2zM18 10v10c0 1.106-0.894 2-2 2s-2-0.894-2-2v-10c0-1.106 0.894-2 2-2s2 0.894 2 2zM22 12c1.106 0 2 0.894 2 2v6c0 1.106-0.894 2-2 2s-2-0.894-2-2v-6c0-1.106 0.894-2 2-2zM30 6v14c0 1.106-0.894 2-2 2s-2-0.894-2-2v-14c0-1.106 0.894-2 2-2s2 0.894 2 2z"/>
</svg>