<svg version="1.1" xmlns="http://www.w3.org/2000/svg" width="32" height="32" viewBox="0 0 32 32">
<path fill="currentColor" d="M4 4c0-1.106-0.894-2-2-2s-2 0.894-2 2v21c0 2.762 2.237 5 5 5h25c1.106 0 2-0.894 2-2s-0.894-2-2-2h-25c-0.55 0-1-0.45-1-1v-21zM10 22h18c1.106 0 2-0.894 2-2v-4.262c0-0.475-0.169-0.938-0.481-1.3l-4.113-4.8c-0.756-0.887-2.106-0.938-2.931-0.113l-1.313 1.313c-0.625 0.625-1.65 0.575-2.212-0.1l-2.45-2.938c-0.787-0.944-2.231-0.963-3.044-0.037l-4.963 5.675c-0.319 0.363-0.494 0.831-0.494 1.319v5.25c0 1.106 0.894 2 2 2z"/>
</svg>