<svg version="1.1" xmlns="http://www.w3.org/2000/svg" width="32" height="32" viewBox="0 0 32 32">
<path fill="currentColor" d="M2 2c1.106 0 2 0.894 2 2v21c0 0.55 0.45 1 1 1h25c1.106 0 2 0.894 2 2s-0.894 2-2 2h-25c-2.763 0-5-2.238-5-5v-21c0-1.106 0.894-2 2-2zM8 8c0-1.106 0.894-2 2-2h12c1.106 0 2 0.894 2 2s-0.894 2-2 2h-12c-1.106 0-2-0.894-2-2zM10 12h8c1.106 0 2 0.894 2 2s-0.894 2-2 2h-8c-1.106 0-2-0.894-2-2s0.894-2 2-2zM10 18h16c1.106 0 2 0.894 2 2s-0.894 2-2 2h-16c-1.106 0-2-0.894-2-2s0.894-2 2-2z"/>
</svg>