<svg version="1.1" xmlns="http://www.w3.org/2000/svg" width="32" height="32" viewBox="0 0 32 32">
<path fill="currentColor" d="M4 4c0-1.106-0.894-2-2-2s-2 0.894-2 2v21c0 2.762 2.237 5 5 5h25c1.106 0 2-0.894 2-2s-0.894-2-2-2h-25c-0.55 0-1-0.45-1-1v-21zM29.413 9.412c0.781-0.781 0.781-2.050 0-2.831s-2.050-0.781-2.831 0l-6.581 6.587-3.587-3.588c-0.781-0.781-2.050-0.781-2.831 0l-7 7c-0.781 0.781-0.781 2.050 0 2.831s2.050 0.781 2.831 0l5.588-5.581 3.588 3.587c0.781 0.781 2.050 0.781 2.831 0l8-8z"/>
</svg>