<svg version="1.1" xmlns="http://www.w3.org/2000/svg" width="36" height="32" viewBox="0 0 36 32">
<path fill="currentColor" d="M6 0c-2.206 0-4 1.794-4 4v24c-1.106 0-2 0.894-2 2s0.894 2 2 2h18c1.106 0 2-0.894 2-2s-0.894-2-2-2v-9h1c1.381 0 2.5 1.119 2.5 2.5v2c0 2.488 2.012 4.5 4.5 4.5s4.5-2.012 4.5-4.5v-7.731c2.031-0.637 3.5-2.531 3.5-4.769v-2c0-0.55-0.45-1-1-1h-1v-3c0-0.55-0.45-1-1-1s-1 0.45-1 1v3h-2v-3c0-0.55-0.45-1-1-1s-1 0.45-1 1v3h-1c-0.55 0-1 0.45-1 1v2c0 2.238 1.469 4.131 3.5 4.769v7.731c0 0.831-0.669 1.5-1.5 1.5s-1.5-0.669-1.5-1.5v-2c0-3.038-2.462-5.5-5.5-5.5h-1v-12c0-2.206-1.794-4-4-4h-10zM13.556 5.169c0.375 0.25 0.531 0.719 0.394 1.144l-1.563 4.681h3.612c0.419 0 0.794 0.262 0.938 0.65s0.031 0.831-0.288 1.106l-7 6c-0.344 0.294-0.838 0.319-1.206 0.069s-0.531-0.719-0.394-1.144l1.563-4.681h-3.612c-0.419 0-0.794-0.262-0.938-0.65s-0.031-0.831 0.287-1.106l7-6c0.344-0.294 0.838-0.319 1.206-0.069z"/>
</svg>