<svg version="1.1" xmlns="http://www.w3.org/2000/svg" width="28" height="32" viewBox="0 0 28 32">
<path fill="currentColor" d="M21.413 5.412c0.781-0.781 0.781-2.050 0-2.831s-2.050-0.781-2.831 0l-8.581 8.587-3.588-3.588c-0.781-0.781-2.050-0.781-2.831 0s-0.781 2.050 0 2.831l5 5c0.781 0.781 2.050 0.781 2.831 0l10-10zM27.413 13.412c0.781-0.781 0.781-2.050 0-2.831s-2.050-0.781-2.831 0l-14.581 14.588-6.588-6.581c-0.781-0.781-2.050-0.781-2.831 0s-0.781 2.050 0 2.831l8 8c0.781 0.781 2.050 0.781 2.831 0l16-16z"/>
</svg>