<svg version="1.1" xmlns="http://www.w3.org/2000/svg" width="36" height="32" viewBox="0 0 36 32">
<path fill="currentColor" d="M6 5c0-1.656 1.344-3 3-3h18c1.656 0 3 1.344 3 3v19h-24v-19zM25.563 7.938c-0.587-0.588-1.538-0.588-2.119 0l-6.938 6.938-2.938-2.938c-0.588-0.588-1.537-0.588-2.119 0s-0.588 1.537 0 2.119l4 4c0.588 0.587 1.537 0.587 2.119 0l7.994-7.994c0.587-0.588 0.587-1.537 0-2.119zM0 21c0-1.656 1.344-3 3-3h1v8h28v-8h1c1.656 0 3 1.344 3 3v6c0 1.656-1.344 3-3 3h-30c-1.656 0-3-1.344-3-3v-6z"/>
</svg>