<svg version="1.1" xmlns="http://www.w3.org/2000/svg" width="28" height="32" viewBox="0 0 28 32">
<path fill="currentColor" d="M14 0c1.106 0 2 0.894 2 2v1h1c1.106 0 2 0.894 2 2s-0.894 2-2 2h-1v3h9.5c1.381 0 2.5 1.119 2.5 2.5 0 0.331-0.063 0.656-0.194 0.963l-4.806 11.537h-18l-4.806-11.537c-0.131-0.306-0.194-0.631-0.194-0.963 0-1.381 1.119-2.5 2.5-2.5h9.5v-3h-1c-1.106 0-2-0.894-2-2s0.894-2 2-2h1v-1c0-1.106 0.894-2 2-2zM2.413 29.587l2.587-2.587h18l2.587 2.587c0.262 0.262 0.413 0.625 0.413 1 0 0.781-0.631 1.413-1.413 1.413h-21.175c-0.781 0-1.413-0.631-1.413-1.413 0-0.375 0.15-0.738 0.413-1z"/>
</svg>