<svg version="1.1" xmlns="http://www.w3.org/2000/svg" width="28" height="32" viewBox="0 0 28 32">
<path fill="currentColor" d="M2 12v-9c0-0.55 0.45-1 1-1h4c0.55 0 1 0.45 1 1v2.5c0 0.275 0.225 0.5 0.5 0.5h2c0.275 0 0.5-0.225 0.5-0.5v-2.5c0-0.55 0.45-1 1-1h4c0.55 0 1 0.45 1 1v2.5c0 0.275 0.225 0.5 0.5 0.5h2c0.275 0 0.5-0.225 0.5-0.5v-2.5c0-0.55 0.45-1 1-1h4c0.55 0 1 0.45 1 1v9c0 0.631-0.294 1.225-0.8 1.6l-3.2 2.4 1 9h-18l1-9-3.2-2.4c-0.506-0.375-0.8-0.969-0.8-1.6zM13 18h2c0.55 0 1-0.45 1-1v-3c0-1.106-0.894-2-2-2s-2 0.894-2 2v3c0 0.55 0.45 1 1 1zM1.413 29.587l2.587-2.587h20l2.587 2.587c0.262 0.262 0.413 0.625 0.413 1 0 0.781-0.631 1.413-1.413 1.413h-23.175c-0.781 0-1.413-0.631-1.413-1.413 0-0.375 0.15-0.738 0.413-1z"/>
</svg>