<svg version="1.1" xmlns="http://www.w3.org/2000/svg" width="20" height="32" viewBox="0 0 20 32">
<path fill="currentColor" d="M13.469 14c1.825-1.15 3.031-3.181 3.031-5.5 0-3.588-2.912-6.5-6.5-6.5s-6.5 2.912-6.5 6.5c0 2.319 1.213 4.35 3.031 5.5h-0.531c-1.106 0-2 0.894-2 2 0 1.031 0.781 1.875 1.781 1.988l-0.781 7.012h10l-0.781-7.012c1-0.113 1.781-0.956 1.781-1.988 0-1.106-0.894-2-2-2h-0.531zM1.413 29.587c-0.262 0.262-0.413 0.625-0.413 1 0 0.781 0.631 1.413 1.413 1.413h15.175c0.781 0 1.413-0.631 1.413-1.413 0-0.375-0.15-0.738-0.413-1l-2.587-2.587h-12l-2.587 2.587z"/>
</svg>