<svg version="1.1" xmlns="http://www.w3.org/2000/svg" width="20" height="32" viewBox="0 0 20 32">
<path fill="currentColor" d="M8 0c-1.106 0-2 0.894-2 2 0 1.006 0.744 1.837 1.713 1.981-2.813 2.694-7.213 7.894-7.213 14.019 0 2.962 1.925 4.519 3.5 5.294v1.706h12v-1.706c1.575-0.781 3.5-2.337 3.5-5.294 0-2.331-0.637-4.525-1.581-6.506l-6.213 6.213c-0.387 0.387-1.025 0.387-1.412 0s-0.387-1.025 0-1.413l6.631-6.631c-1.45-2.381-3.238-4.344-4.637-5.681 0.969-0.144 1.713-0.975 1.713-1.981 0-1.106-0.894-2-2-2h-4zM3 27l-2.587 2.587c-0.263 0.262-0.412 0.625-0.412 1 0 0.781 0.631 1.413 1.413 1.413h17.175c0.781 0 1.413-0.631 1.413-1.413 0-0.375-0.15-0.738-0.413-1l-2.587-2.587h-14z"/>
</svg>