<svg version="1.1" xmlns="http://www.w3.org/2000/svg" width="32" height="32" viewBox="0 0 32 32">
<path fill="currentColor" d="M9 1c0-0.55-0.45-1-1-1s-1 0.45-1 1v1h-1c-0.55 0-1 0.45-1 1s0.45 1 1 1h1v2h-3.237c-0.694 0-1.263 0.569-1.263 1.263 0 0.156 0.031 0.306 0.081 0.456l2.031 5.281h-0.112c-0.831 0-1.5 0.669-1.5 1.5s0.669 1.5 1.5 1.5h0.25l-1 8h8.5l-1-8h0.25c0.831 0 1.5-0.669 1.5-1.5s-0.669-1.5-1.5-1.5h-0.113l2.031-5.281c0.056-0.144 0.081-0.3 0.081-0.456 0-0.7-0.569-1.263-1.262-1.263h-3.238v-2h1c0.55 0 1-0.45 1-1s-0.45-1-1-1h-1v-1zM3 26l-2.7 3.6c-0.194 0.262-0.3 0.575-0.3 0.9 0 0.831 0.669 1.5 1.5 1.5h13c0.831 0 1.5-0.669 1.5-1.5 0-0.325-0.106-0.637-0.3-0.9l-2.7-3.6h-10zM21 26l-2.7 3.6c-0.194 0.262-0.3 0.575-0.3 0.9 0 0.831 0.669 1.5 1.5 1.5h11c0.831 0 1.5-0.669 1.5-1.5 0-0.325-0.106-0.637-0.3-0.9l-2.7-3.6h-8zM19 13v3.244c0 0.488 0.175 0.956 0.5 1.319l1.7 1.938-0.137 4.5h7.844l-0.206-4.5 1.769-1.925c0.337-0.369 0.531-0.85 0.531-1.356v-3.219c0-0.55-0.45-1-1-1h-1c-0.55 0-1 0.45-1 1v1h-1.5v-1c0-0.55-0.45-1-1-1h-1c-0.55 0-1 0.45-1 1v1h-1.5v-1c0-0.55-0.45-1-1-1h-1c-0.55 0-1 0.45-1 1zM24 19c0-0.55 0.45-1 1-1s1 0.45 1 1v2h-2v-2z"/>
</svg>