<svg version="1.1" xmlns="http://www.w3.org/2000/svg" width="28" height="32" viewBox="0 0 28 32">
<path fill="currentColor" d="M6 3l-0.831 0.831c-0.75 0.75-1.169 1.763-1.169 2.825v8.275c0 0.669 0.331 1.294 0.888 1.662l0.662 0.438c0.894 0.6 2.044 0.669 3.006 0.188l0.2-0.1c0.162-0.081 0.313-0.175 0.456-0.281l3.088-2.313c0.412-0.313 0.981-0.313 1.394 0 0.637 0.481 0.619 1.444-0.044 1.894l-8 5.456c-1.031 0.706-1.65 1.875-1.65 3.125h20l1.806-9.938c0.131-0.706 0.194-1.425 0.194-2.144v-0.919c0-6.625-5.375-12-12-12h-8.762c-0.681 0-1.237 0.556-1.237 1.238 0 0.469 0.263 0.894 0.681 1.106l1.319 0.656zM7.5 7.25c0-0.69 0.56-1.25 1.25-1.25s1.25 0.56 1.25 1.25v0c0 0.69-0.56 1.25-1.25 1.25s-1.25-0.56-1.25-1.25v0zM1.413 29.587c-0.262 0.262-0.413 0.625-0.413 1 0 0.781 0.631 1.413 1.413 1.413h23.175c0.781 0 1.413-0.631 1.413-1.413 0-0.375-0.15-0.738-0.413-1l-2.587-2.587h-20l-2.587 2.587z"/>
</svg>