<svg version="1.1" xmlns="http://www.w3.org/2000/svg" width="32" height="32" viewBox="0 0 32 32">
<path fill="currentColor" d="M16 0c1.933 0 3.5 1.567 3.5 3.5s-1.567 3.5-3.5 3.5v0c-1.933 0-3.5-1.567-3.5-3.5s1.567-3.5 3.5-3.5v0zM8.381 8.988c0.206-0.813 0.938-1.487 1.887-1.487 0.769 0 1.412 0.45 1.731 1.062 0.75 1.45 2.263 2.438 4 2.438s3.25-0.988 4-2.438c0.319-0.612 0.962-1.063 1.731-1.063 0.956 0 1.688 0.675 1.887 1.488 0.438 1.738 2.012 3.019 3.881 3.019 0.675 0 1.313-0.169 1.863-0.463 0.525-0.275 1.181-0.281 1.725 0.056 0.813 0.5 1.069 1.563 0.575 2.375l-6.681 11.025h-17.962l-6.681-11.025c-0.494-0.813-0.237-1.875 0.575-2.375 0.544-0.331 1.2-0.331 1.725-0.056 0.556 0.294 1.188 0.463 1.862 0.463 1.869 0 3.444-1.281 3.881-3.019zM16 14v0 0 0zM7 27h18l2.587 2.587c0.262 0.262 0.413 0.625 0.413 1 0 0.781-0.631 1.413-1.413 1.413h-21.175c-0.781 0-1.413-0.631-1.413-1.413 0-0.375 0.15-0.738 0.413-1l2.588-2.587z"/>
</svg>