<svg version="1.1" xmlns="http://www.w3.org/2000/svg" width="20" height="32" viewBox="0 0 20 32">
<path fill="currentColor" d="M14 4c0-2.209-1.791-4-4-4s-4 1.791-4 4v0c0 2.209 1.791 4 4 4s4-1.791 4-4v0zM5.5 25v5c0 1.106 0.894 2 2 2s2-0.894 2-2v-5h1v5c0 1.106 0.894 2 2 2s2-0.894 2-2v-5h1.113c0.681 0 1.163-0.669 0.95-1.319l-1.944-5.837 1.787 2.363c0.669 0.881 1.925 1.050 2.8 0.387s1.050-1.919 0.387-2.8l-3.681-4.856c-1.4-1.85-3.594-2.938-5.912-2.938s-4.513 1.088-5.912 2.938l-3.681 4.856c-0.669 0.881-0.494 2.137 0.387 2.8s2.138 0.494 2.8-0.387l1.794-2.363-1.95 5.837c-0.212 0.65 0.269 1.319 0.95 1.319h1.112z"/>
</svg>