<svg version="1.1" xmlns="http://www.w3.org/2000/svg" width="40" height="32" viewBox="0 0 40 32">
<path fill="currentColor" d="M10 0c2.209 0 4 1.791 4 4s-1.791 4-4 4v0c-2.209 0-4-1.791-4-4s1.791-4 4-4v0zM5.5 30v-5h-1.112c-0.681 0-1.163-0.669-0.95-1.319l1.944-5.837-1.788 2.363c-0.669 0.881-1.925 1.050-2.8 0.387s-1.050-1.919-0.388-2.8l3.681-4.856c1.4-1.85 3.594-2.938 5.913-2.938s4.512 1.088 5.912 2.938l3.681 4.856c0.669 0.881 0.494 2.137-0.387 2.8s-2.137 0.494-2.8-0.387l-1.787-2.363 1.944 5.837c0.219 0.65-0.269 1.319-0.95 1.319h-1.113v5c0 1.106-0.894 2-2 2s-2-0.894-2-2v-5h-1v5c0 1.106-0.894 2-2 2s-2-0.894-2-2zM30 0c2.209 0 4 1.791 4 4s-1.791 4-4 4v0c-2.209 0-4-1.791-4-4s1.791-4 4-4v0zM29.5 24v6c0 1.106-0.894 2-2 2s-2-0.894-2-2v-11.219l-0.806 1.281c-0.587 0.938-1.825 1.212-2.756 0.625s-1.212-1.825-0.625-2.756l3.231-5.131c1.1-1.744 3.019-2.806 5.075-2.806h0.769c2.063 0 3.981 1.056 5.075 2.806l3.231 5.138c0.587 0.938 0.306 2.169-0.625 2.756s-2.169 0.306-2.756-0.625l-0.813-1.288v11.219c0 1.106-0.894 2-2 2s-2-0.894-2-2v-6h-1z"/>
</svg>