<svg version="1.1" xmlns="http://www.w3.org/2000/svg" width="36" height="32" viewBox="0 0 36 32">
<path fill="currentColor" d="M11 8c2.209 0 4-1.791 4-4s-1.791-4-4-4v0c-2.209 0-4 1.791-4 4s1.791 4 4 4v0zM10.5 30v-8h1v8c0 1.106 0.894 2 2 2s2-0.894 2-2v-11.219l0.806 1.281c0.587 0.938 1.825 1.212 2.756 0.625s1.212-1.825 0.625-2.756l-3.231-5.131c-1.1-1.744-3.019-2.806-5.075-2.806h-0.769c-2.063 0-3.981 1.056-5.075 2.806l-3.231 5.138c-0.587 0.938-0.306 2.169 0.625 2.756s2.169 0.306 2.756-0.625l0.813-1.288v11.219c0 1.106 0.894 2 2 2s2-0.894 2-2zM28 0h-2c-0.55 0-1 0.45-1 1s0.45 1 1 1v6.269c-0.6 0.344-1 0.994-1 1.731v2c-1.106 0-2 0.894-2 2v9c0 1.106 0.894 2 2 2h1v6c0 0.55 0.45 1 1 1h3.719c0.65 0 1.125-0.613 0.969-1.244l-1.438-5.756h2.75c0.55 0 1-0.45 1-1v-1c0-0.55-0.45-1-1-1h-3v-1.669l3.319-1.106c0.406-0.137 0.681-0.519 0.681-0.95v-5.275c0-0.55-0.45-1-1-1h-1c-0.55 0-1 0.45-1 1v3.5l-1 0.331v-6.831c0-0.738-0.4-1.387-1-1.731v-7.269c0-0.55-0.45-1-1-1z"/>
</svg>