<svg version="1.1" xmlns="http://www.w3.org/2000/svg" width="24" height="32" viewBox="0 0 24 32">
<path fill="currentColor" d="M16 4c0-2.209-1.791-4-4-4s-4 1.791-4 4v0c0 2.209 1.791 4 4 4s4-1.791 4-4v0zM9.556 10.581c-1.481-0.525-2.781-1.519-3.675-2.862l-1.219-1.831c-0.612-0.919-1.85-1.162-2.775-0.55s-1.169 1.856-0.556 2.775l1.225 1.825c1.131 1.694 2.675 3.025 4.444 3.9v16.163c0 1.106 0.894 2 2 2s2-0.894 2-2v-6h2v6c0 1.106 0.894 2 2 2s2-0.894 2-2v-16.15c1.819-0.887 3.4-2.262 4.544-4.012l1.137-1.744c0.6-0.925 0.337-2.162-0.587-2.769s-2.163-0.344-2.769 0.588l-1.137 1.737c-1.363 2.088-3.681 3.35-6.175 3.35-0.787 0-1.556-0.125-2.287-0.363-0.056-0.019-0.113-0.044-0.169-0.056z"/>
</svg>