<svg version="1.1" xmlns="http://www.w3.org/2000/svg" width="20" height="32" viewBox="0 0 20 32">
<path fill="currentColor" d="M6 4c0-2.209 1.791-4 4-4s4 1.791 4 4v0c0 2.209-1.791 4-4 4s-4-1.791-4-4v0zM9 24v6c0 1.106-0.894 2-2 2s-2-0.894-2-2v-12.012l-1.306 2.075c-0.587 0.938-1.825 1.212-2.756 0.625s-1.219-1.819-0.631-2.75l2.494-3.956c1.556-2.481 4.275-3.981 7.2-3.981s5.644 1.5 7.2 3.975l2.494 3.963c0.587 0.938 0.306 2.169-0.625 2.756s-2.169 0.306-2.756-0.625l-1.313-2.081v12.012c0 1.106-0.894 2-2 2s-2-0.894-2-2v-6h-2z"/>
</svg>