<svg version="1.1" xmlns="http://www.w3.org/2000/svg" width="40" height="32" viewBox="0 0 40 32">
<path fill="currentColor" d="M21.5 1.5c0-0.831-0.669-1.5-1.5-1.5s-1.5 0.669-1.5 1.5v1.5h-2c-0.831 0-1.5 0.669-1.5 1.5s0.669 1.5 1.5 1.5h2v2.9l-7.044 4.225c-0.906 0.544-1.456 1.519-1.456 2.575v16.3h6v-6c0-2.206 1.794-4 4-4s4 1.794 4 4v6h6v-16.3c0-1.056-0.55-2.031-1.456-2.575l-7.044-4.225v-2.9h2c0.831 0 1.5-0.669 1.5-1.5s-0.669-1.5-1.5-1.5h-2v-1.5zM1.556 20.644c-0.963 0.531-1.556 1.538-1.556 2.631v5.725c0 1.656 1.344 3 3 3h5v-14.9l-6.444 3.544zM37 32c1.656 0 3-1.344 3-3v-5.725c0-1.094-0.594-2.1-1.556-2.631l-6.444-3.544v14.9h5z"/>
</svg>