<svg version="1.1" xmlns="http://www.w3.org/2000/svg" width="32" height="32" viewBox="0 0 32 32">
<path fill="currentColor" d="M16 32c8.837 0 16-7.163 16-16s-7.163-16-16-16v0c-8.837 0-16 7.163-16 16s7.163 16 16 16v0zM10.613 10.331c0.494-1.394 1.819-2.331 3.3-2.331h3.644c2.181 0 3.944 1.769 3.944 3.944 0 1.412-0.756 2.719-1.981 3.425l-2.019 1.156c-0.012 0.813-0.681 1.475-1.5 1.475-0.831 0-1.5-0.669-1.5-1.5v-0.844c0-0.537 0.287-1.031 0.756-1.3l2.769-1.588c0.294-0.169 0.475-0.481 0.475-0.819 0-0.525-0.425-0.944-0.944-0.944h-3.644c-0.213 0-0.4 0.131-0.469 0.331l-0.025 0.075c-0.275 0.781-1.137 1.188-1.912 0.912s-1.188-1.137-0.912-1.912l0.025-0.075zM14 22c0-1.105 0.895-2 2-2s2 0.895 2 2v0c0 1.105-0.895 2-2 2s-2-0.895-2-2v0z"/>
</svg>