<svg version="1.1" xmlns="http://www.w3.org/2000/svg" width="32" height="32" viewBox="0 0 32 32">
<path fill="currentColor" d="M13.919 2.006c0.313 1.056-0.287 2.175-1.344 2.488-4.963 1.481-8.575 6.075-8.575 11.506 0 6.625 5.375 12 12 12s12-5.375 12-12c0-5.431-3.613-10.025-8.569-11.506-1.056-0.313-1.663-1.431-1.344-2.487s1.431-1.663 2.488-1.344c6.606 1.969 11.425 8.087 11.425 15.337 0 8.837-7.163 16-16 16s-16-7.163-16-16c0-7.25 4.819-13.369 11.431-15.338 1.056-0.313 2.175 0.287 2.487 1.344z"/>
</svg>