<svg version="1.1" xmlns="http://www.w3.org/2000/svg" width="32" height="32" viewBox="0 0 32 32">
<path fill="currentColor" d="M16 32c8.837 0 16-7.163 16-16s-7.163-16-16-16v0c-8.837 0-16 7.163-16 16s7.163 16 16 16v0zM10.938 10.938c0.588-0.588 1.537-0.588 2.119 0l2.938 2.938 2.937-2.938c0.587-0.588 1.538-0.588 2.119 0s0.587 1.537 0 2.119l-2.938 2.938 2.938 2.937c0.587 0.587 0.587 1.538 0 2.119s-1.538 0.587-2.119 0l-2.938-2.938-2.938 2.938c-0.588 0.587-1.537 0.587-2.119 0s-0.588-1.538 0-2.119l2.938-2.938-2.938-2.938c-0.588-0.588-0.588-1.537 0-2.119z"/>
</svg>