<svg version="1.1" xmlns="http://www.w3.org/2000/svg" width="32" height="32" viewBox="0 0 32 32">
<path fill="currentColor" d="M20.419 25.231c-1.381 0.5-2.869 0.769-4.419 0.769s-3.044-0.275-4.419-0.769c-0.019-0.006-0.031-0.012-0.050-0.019-1.875-0.688-3.55-1.794-4.912-3.212-2.244-2.337-3.619-5.506-3.619-9 0-7.181 5.819-13 13-13s13 5.819 13 13c0 3.494-1.375 6.663-3.619 9-0.063 0.063-0.125 0.131-0.188 0.194-1.337 1.337-2.962 2.381-4.769 3.038zM16 5.744c-0.694 0-1.256 0.563-1.256 1.256v0.375c-0.35 0.075-0.681 0.181-0.994 0.319-0.938 0.425-1.744 1.213-1.944 2.356-0.113 0.637-0.050 1.25 0.213 1.813 0.262 0.55 0.669 0.938 1.081 1.219 0.725 0.494 1.681 0.781 2.412 1l0.137 0.044c0.869 0.262 1.463 0.463 1.831 0.731 0.156 0.113 0.212 0.2 0.231 0.25s0.056 0.162 0.012 0.419c-0.038 0.219-0.156 0.4-0.5 0.55-0.381 0.163-1 0.244-1.8 0.119-0.375-0.063-1.044-0.287-1.637-0.494v0 0 0c-0.137-0.044-0.269-0.094-0.4-0.131-0.656-0.219-1.363 0.137-1.581 0.794s0.137 1.363 0.794 1.581c0.075 0.025 0.169 0.056 0.275 0.094 0.494 0.169 1.269 0.431 1.863 0.569v0.394c0 0.694 0.563 1.256 1.256 1.256s1.256-0.563 1.256-1.256v-0.344c0.331-0.063 0.656-0.156 0.962-0.288 0.981-0.419 1.775-1.231 1.975-2.419 0.113-0.65 0.063-1.269-0.188-1.838-0.244-0.563-0.637-0.975-1.056-1.281-0.762-0.55-1.769-0.856-2.525-1.088l-0.050-0.012c-0.887-0.269-1.488-0.456-1.869-0.713-0.162-0.113-0.213-0.188-0.225-0.219-0.012-0.019-0.044-0.1-0.006-0.313 0.019-0.119 0.119-0.325 0.512-0.506 0.4-0.181 1.025-0.281 1.787-0.162 0.269 0.044 1.119 0.206 1.356 0.269 0.669 0.175 1.35-0.219 1.531-0.887s-0.219-1.35-0.887-1.531c-0.275-0.075-0.9-0.2-1.313-0.275v-0.394c0-0.694-0.563-1.256-1.256-1.256zM3 22h1c1.219 1.619 2.75 2.981 4.512 4h-4.513v2h24v-2h-4.512c1.762-1.019 3.3-2.381 4.512-4h1c1.656 0 3 1.344 3 3v4c0 1.656-1.344 3-3 3h-26c-1.656 0-3-1.344-3-3v-4c0-1.656 1.344-3 3-3z"/>
</svg>