<svg version="1.1" xmlns="http://www.w3.org/2000/svg" width="32" height="32" viewBox="0 0 32 32">
<path fill="currentColor" d="M26.15 9.869c2.206-0.519 3.85-2.5 3.85-4.869 0-2.763-2.238-5-5-5-2.712 0-4.919 2.156-5 4.844l-11.488 4.6c-0.906-0.894-2.144-1.444-3.513-1.444-2.763 0-5 2.238-5 5s2.237 5 5 5c0.763 0 1.487-0.169 2.131-0.475l9.1 7.962c-0.15 0.475-0.231 0.988-0.231 1.512 0 2.762 2.238 5 5 5s5-2.238 5-5c0-1.731-0.875-3.256-2.212-4.15l2.363-12.981zM9.769 14.512c0.137-0.431 0.219-0.887 0.231-1.356l11.488-4.594c0.225 0.219 0.462 0.419 0.725 0.594l-2.363 12.975c-0.344 0.081-0.675 0.194-0.988 0.344l-9.094-7.963z"/>
</svg>