<svg version="1.1" xmlns="http://www.w3.org/2000/svg" width="32" height="32" viewBox="0 0 32 32">
<path fill="currentColor" d="M16 4c6.627 0 12 5.373 12 12s-5.373 12-12 12v0c-6.627 0-12-5.373-12-12s5.373-12 12-12v0zM16 32c8.837 0 16-7.163 16-16s-7.163-16-16-16v0c-8.837 0-16 7.163-16 16s7.163 16 16 16v0zM12.5 16c0-1.294 0.706-2.425 1.75-3.031l-2.25-3.894c-0.55-0.956-1.794-1.3-2.625-0.563-1.6 1.412-2.744 3.331-3.181 5.506-0.213 1.075 0.7 1.981 1.806 1.981h4.5zM14.25 19.031l-2.25 3.9c-0.55 0.956-0.225 2.2 0.819 2.55 1 0.337 2.069 0.519 3.181 0.519s2.181-0.181 3.181-0.519c1.044-0.35 1.369-1.594 0.819-2.55l-2.25-3.9c-0.512 0.3-1.113 0.469-1.75 0.469s-1.238-0.169-1.75-0.469zM19.5 16h4.5c1.106 0 2.019-0.906 1.8-1.988-0.438-2.175-1.581-4.094-3.181-5.506-0.825-0.731-2.069-0.394-2.625 0.563l-2.25 3.894c1.044 0.606 1.75 1.738 1.75 3.031zM16 18c1.105 0 2-0.895 2-2s-0.895-2-2-2v0c-1.105 0-2 0.895-2 2s0.895 2 2 2v0z"/>
</svg>