<svg version="1.1" xmlns="http://www.w3.org/2000/svg" width="32" height="32" viewBox="0 0 32 32">
<path fill="currentColor" d="M16 0c-8.837 0-16 7.163-16 16s7.163 16 16 16v0c8.837 0 16-7.163 16-16s-7.163-16-16-16v0zM23.556 18.413l-6.694 6.244c-0.238 0.219-0.544 0.344-0.863 0.344s-0.631-0.125-0.863-0.344l-6.694-6.244c-0.281-0.262-0.444-0.631-0.444-1.019 0-0.769 0.625-1.394 1.394-1.394h3.606v-6c0-1.106 0.894-2 2-2h2c1.106 0 2 0.894 2 2v6h3.606c0.769 0 1.394 0.625 1.394 1.394 0 0.387-0.163 0.756-0.444 1.019z"/>
</svg>