<svg version="1.1" xmlns="http://www.w3.org/2000/svg" width="40" height="32" viewBox="0 0 40 32">
<path fill="currentColor" d="M30 3c0-1.656-1.344-3-3-3h-6c-1.656 0-3 1.344-3 3v3h-4v-4.5c0-0.831-0.669-1.5-1.5-1.5s-1.5 0.669-1.5 1.5v4.5h-4v-4.5c0-0.831-0.669-1.5-1.5-1.5s-1.5 0.669-1.5 1.5v4.5h-1c-1.656 0-3 1.344-3 3v20c0 1.656 1.344 3 3 3h34c1.656 0 3-1.344 3-3v-14c0-1.656-1.344-3-3-3h-7v-9zM36 23v2c0 0.55-0.45 1-1 1h-2c-0.55 0-1-0.45-1-1v-2c0-0.55 0.45-1 1-1h2c0.55 0 1 0.45 1 1zM15 26h-2c-0.55 0-1-0.45-1-1v-2c0-0.55 0.45-1 1-1h2c0.55 0 1 0.45 1 1v2c0 0.55-0.45 1-1 1zM8 25c0 0.55-0.45 1-1 1h-2c-0.55 0-1-0.45-1-1v-2c0-0.55 0.45-1 1-1h2c0.55 0 1 0.45 1 1v2zM35 16c0.55 0 1 0.45 1 1v2c0 0.55-0.45 1-1 1h-2c-0.55 0-1-0.45-1-1v-2c0-0.55 0.45-1 1-1h2zM16 11v2c0 0.55-0.45 1-1 1h-2c-0.55 0-1-0.45-1-1v-2c0-0.55 0.45-1 1-1h2c0.55 0 1 0.45 1 1zM7 10c0.55 0 1 0.45 1 1v2c0 0.55-0.45 1-1 1h-2c-0.55 0-1-0.45-1-1v-2c0-0.55 0.45-1 1-1h2zM16 19c0 0.55-0.45 1-1 1h-2c-0.55 0-1-0.45-1-1v-2c0-0.55 0.45-1 1-1h2c0.55 0 1 0.45 1 1v2zM7 20h-2c-0.55 0-1-0.45-1-1v-2c0-0.55 0.45-1 1-1h2c0.55 0 1 0.45 1 1v2c0 0.55-0.45 1-1 1zM26 17v2c0 0.55-0.45 1-1 1h-2c-0.55 0-1-0.45-1-1v-2c0-0.55 0.45-1 1-1h2c0.55 0 1 0.45 1 1zM25 4c0.55 0 1 0.45 1 1v2c0 0.55-0.45 1-1 1h-2c-0.55 0-1-0.45-1-1v-2c0-0.55 0.45-1 1-1h2zM26 11v2c0 0.55-0.45 1-1 1h-2c-0.55 0-1-0.45-1-1v-2c0-0.55 0.45-1 1-1h2c0.55 0 1 0.45 1 1z"/>
</svg>