<svg version="1.1" xmlns="http://www.w3.org/2000/svg" width="24" height="32" viewBox="0 0 24 32">
<path fill="currentColor" d="M12 0c-2.613 0-4.838 1.669-5.656 4h-2.344c-2.206 0-4 1.794-4 4v20c0 2.206 1.794 4 4 4h16c2.206 0 4-1.794 4-4v-20c0-2.206-1.794-4-4-4h-2.344c-0.819-2.331-3.044-4-5.656-4zM12 4c1.105 0 2 0.895 2 2s-0.895 2-2 2v0c-1.105 0-2-0.895-2-2s0.895-2 2-2v0zM19.063 17.063l-8 8c-0.588 0.587-1.537 0.587-2.119 0l-4.006-4c-0.588-0.587-0.588-1.538 0-2.119s1.537-0.587 2.119 0l2.938 2.938 6.944-6.944c0.587-0.588 1.538-0.588 2.119 0s0.587 1.537 0 2.119z"/>
</svg>