<svg version="1.1" xmlns="http://www.w3.org/2000/svg" width="32" height="32" viewBox="0 0 32 32">
<path fill="currentColor" d="M4.688 4.688l-2.125-2.125c-0.944-0.944-2.563-0.275-2.563 1.056v6.881c0 0.831 0.669 1.5 1.5 1.5h6.881c1.338 0 2.006-1.619 1.063-2.563l-1.925-1.925c2.169-2.169 5.169-3.513 8.481-3.513 6.625 0 12 5.375 12 12s-5.375 12-12 12c-2.55 0-4.912-0.794-6.856-2.15-0.906-0.631-2.15-0.413-2.787 0.494s-0.412 2.15 0.494 2.788c2.6 1.806 5.756 2.869 9.15 2.869 8.837 0 16-7.163 16-16s-7.163-16-16-16c-4.419 0-8.419 1.794-11.313 4.688zM16 8c-0.831 0-1.5 0.669-1.5 1.5v6.5c0 0.4 0.156 0.781 0.438 1.063l4.5 4.5c0.587 0.587 1.538 0.587 2.119 0s0.587-1.538 0-2.119l-4.063-4.063v-5.881c0-0.831-0.669-1.5-1.5-1.5z"/>
</svg>