<svg version="1.1" xmlns="http://www.w3.org/2000/svg" width="36" height="32" viewBox="0 0 36 32">
<path fill="currentColor" d="M0 6c0-2.206 1.794-4 4-4h28c2.206 0 4 1.794 4 4v20c0 2.206-1.794 4-4 4h-28c-2.206 0-4-1.794-4-4v-20zM12.5 13c0.887 0 1.688 0.381 2.238 1s1.5 0.669 2.119 0.119 0.669-1.5 0.119-2.119c-1.094-1.225-2.694-2-4.469-2-3.313 0-6 2.688-6 6s2.688 6 6 6c1.775 0 3.375-0.775 4.469-2 0.55-0.619 0.5-1.563-0.119-2.119s-1.563-0.5-2.119 0.119c-0.55 0.619-1.35 1-2.237 1-1.656 0-3-1.344-3-3s1.344-3 3-3zM21.5 16c0-1.656 1.344-3 3-3 0.887 0 1.688 0.381 2.238 1s1.5 0.669 2.119 0.119 0.669-1.5 0.119-2.119c-1.094-1.225-2.694-2-4.469-2-3.313 0-6 2.688-6 6s2.688 6 6 6c1.775 0 3.375-0.775 4.469-2 0.55-0.619 0.5-1.563-0.119-2.119s-1.563-0.5-2.119 0.119c-0.55 0.619-1.35 1-2.238 1-1.656 0-3-1.344-3-3z"/>
</svg>