<svg version="1.1" xmlns="http://www.w3.org/2000/svg" width="32" height="32" viewBox="0 0 32 32">
<path fill="currentColor" d="M6 20c-3.313 0-6-2.688-6-6 0-2.656 1.725-4.912 4.119-5.7-0.075-0.419-0.119-0.856-0.119-1.3 0-3.869 3.131-7 7-7 2.694 0 5.031 1.519 6.2 3.75 0.919-1.069 2.281-1.75 3.8-1.75 2.762 0 5 2.237 5 5 0 0.344-0.038 0.675-0.1 1 0.031 0 0.069 0 0.1 0 3.313 0 6 2.688 6 6s-2.688 6-6 6h-20zM5.094 22.119c0.763 0.325 1.112 1.206 0.787 1.969l-3 7c-0.325 0.762-1.206 1.112-1.969 0.788s-1.119-1.206-0.794-1.969l3-7c0.325-0.762 1.206-1.113 1.969-0.788zM12.594 22.119c0.762 0.325 1.113 1.206 0.787 1.969l-3 7c-0.325 0.762-1.206 1.112-1.969 0.788s-1.112-1.206-0.787-1.969l3-7c0.325-0.762 1.206-1.113 1.969-0.788zM27.881 24.087l-3 7c-0.325 0.762-1.206 1.112-1.969 0.788s-1.113-1.206-0.788-1.969l3-7c0.325-0.762 1.206-1.113 1.969-0.788s1.113 1.206 0.788 1.969zM19.594 22.119c0.762 0.325 1.113 1.206 0.788 1.969l-3 7c-0.325 0.762-1.206 1.112-1.969 0.788s-1.113-1.206-0.787-1.969l3-7c0.325-0.762 1.206-1.113 1.969-0.788z"/>
</svg>