<svg version="1.1" xmlns="http://www.w3.org/2000/svg" width="32" height="32" viewBox="0 0 32 32">
<path fill="currentColor" d="M0 14c0 3.313 2.688 6 6 6h2.794c0.594-1.469 2.031-2.5 3.706-2.5 0.125 0 0.244 0.006 0.363 0.019 0.738-0.925 1.869-1.519 3.137-1.519s2.4 0.594 3.137 1.519c0.119-0.012 0.244-0.019 0.363-0.019 1.681 0 3.119 1.031 3.706 2.5h2.794c3.313 0 6-2.688 6-6s-2.688-6-6-6c-0.031 0-0.069 0-0.1 0 0.069-0.325 0.1-0.656 0.1-1 0-2.763-2.238-5-5-5-1.519 0-2.881 0.681-3.8 1.75-1.169-2.231-3.506-3.75-6.2-3.75-3.869 0-7 3.131-7 7 0 0.444 0.044 0.881 0.119 1.3-2.394 0.787-4.119 3.044-4.119 5.7zM18 20c0-1.106-0.894-2-2-2s-2 0.894-2 2c0 0.063 0.006 0.131 0.006 0.194-0.044-0.050-0.088-0.1-0.131-0.144-0.781-0.781-2.050-0.781-2.831 0s-0.781 2.050 0 2.831c0.044 0.044 0.094 0.087 0.144 0.131-0.063-0.006-0.131-0.006-0.194-0.006-1.106 0-2 0.894-2 2s0.894 2 2 2c0.063 0 0.131-0.006 0.194-0.006-0.050 0.044-0.1 0.081-0.144 0.131-0.781 0.781-0.781 2.050 0 2.831s2.050 0.781 2.831 0c0.044-0.044 0.088-0.094 0.131-0.144-0.006 0.063-0.006 0.131-0.006 0.194 0 1.106 0.894 2 2 2s2-0.894 2-2c0-0.063-0.006-0.131-0.006-0.194 0.044 0.050 0.081 0.1 0.131 0.144 0.781 0.781 2.050 0.781 2.831 0s0.781-2.050 0-2.831c-0.044-0.044-0.094-0.087-0.144-0.131 0.063 0.006 0.131 0.006 0.194 0.006 1.106 0 2-0.894 2-2s-0.894-2-2-2c-0.063 0-0.131 0.006-0.194 0.006 0.050-0.044 0.1-0.081 0.144-0.131 0.781-0.781 0.781-2.050 0-2.831s-2.050-0.781-2.831 0c-0.044 0.044-0.087 0.094-0.131 0.144 0.006-0.063 0.006-0.131 0.006-0.194zM3 28c1.657 0 3-1.343 3-3s-1.343-3-3-3v0c-1.657 0-3 1.343-3 3s1.343 3 3 3v0zM29 28c1.657 0 3-1.343 3-3s-1.343-3-3-3v0c-1.657 0-3 1.343-3 3s1.343 3 3 3v0z"/>
</svg>