<svg version="1.1" xmlns="http://www.w3.org/2000/svg" width="36" height="32" viewBox="0 0 36 32">
<path fill="currentColor" d="M14 0c2.413 0 4.494 1.425 5.45 3.481 0.906-0.913 2.163-1.481 3.55-1.481 2.419 0 4.438 1.719 4.9 4h0.1c2.206 0 4 1.794 4 4s-1.794 4-4 4h-20c-2.206 0-4-1.794-4-4s1.794-4 4-4c0-3.313 2.688-6 6-6zM8.787 18.269l-3 5c-0.425 0.712-1.35 0.938-2.056 0.512s-0.944-1.35-0.512-2.056l3-5c0.425-0.712 1.35-0.944 2.056-0.512s0.944 1.35 0.512 2.056zM29.275 16.212c0.712 0.425 0.938 1.35 0.512 2.056l-3 5c-0.425 0.712-1.35 0.938-2.056 0.512s-0.938-1.35-0.512-2.056l3-5c0.425-0.712 1.35-0.944 2.056-0.512zM15.787 18.269l-3 5c-0.425 0.712-1.35 0.938-2.056 0.512s-0.944-1.35-0.512-2.056l3-5c0.425-0.712 1.35-0.944 2.056-0.512s0.944 1.35 0.512 2.056zM22.275 16.212c0.712 0.425 0.938 1.35 0.512 2.056l-3 5c-0.425 0.712-1.35 0.938-2.056 0.512s-0.944-1.35-0.512-2.056l3-5c0.425-0.712 1.35-0.944 2.056-0.512zM19.156 26.369c1.406 0.969 3.125 1.631 4.844 1.631 1.681 0 3.462-0.675 4.837-1.631v0c0.744-0.531 1.756-0.488 2.45 0.106 0.9 0.744 2.031 1.313 3.162 1.575 1.075 0.25 1.744 1.325 1.494 2.4s-1.325 1.744-2.4 1.494c-1.531-0.356-2.806-1.031-3.637-1.563-1.813 0.975-3.844 1.619-5.906 1.619-1.994 0-3.788-0.619-5.025-1.181-0.363-0.169-0.694-0.331-0.975-0.481-0.281 0.15-0.606 0.319-0.975 0.481-1.238 0.563-3.031 1.181-5.025 1.181-2.063 0-4.094-0.644-5.906-1.613-0.838 0.525-2.106 1.206-3.638 1.563-1.075 0.25-2.15-0.419-2.4-1.494s0.419-2.15 1.494-2.4c1.131-0.262 2.263-0.831 3.163-1.575 0.694-0.587 1.706-0.631 2.45-0.106v0c1.381 0.95 3.156 1.625 4.838 1.625 1.719 0 3.438-0.663 4.844-1.631 0.694-0.494 1.619-0.494 2.313 0z"/>
</svg>