<svg version="1.1" xmlns="http://www.w3.org/2000/svg" width="36" height="32" viewBox="0 0 36 32">
<path fill="currentColor" d="M30.075 0c-4.012 0-7.356 2.906-7.969 6.725 2.212 1.1 3.762 3.331 3.881 5.944 1.45 0.688 2.625 1.856 3.319 3.294 0.25 0.025 0.506 0.037 0.769 0.037 2.181 0 4.169-0.863 5.619-2.256 0.319-0.306 0.4-0.781 0.2-1.169s-0.631-0.606-1.063-0.537c-0.306 0.050-0.625 0.081-0.95 0.081-3.063 0-5.525-2.456-5.525-5.463 0-2.037 1.125-3.819 2.806-4.756 0.381-0.212 0.581-0.656 0.488-1.087s-0.456-0.75-0.894-0.787c-0.225-0.019-0.456-0.031-0.681-0.031zM22.994 23.994c2.762 0 5-2.238 5-5 0-2.456-1.775-4.506-4.113-4.919 0.075-0.35 0.119-0.706 0.119-1.075 0-2.762-2.238-5-5-5-1.063 0-2.050 0.331-2.863 0.9-1.056-1.737-2.963-2.9-5.137-2.9-3.313 0-6 2.688-6 6v0.081c-2.837 0.475-5 2.944-5 5.912 0 3.313 2.688 6 6 6h16.994zM5.338 26.256c-0.688-0.462-1.619-0.275-2.081 0.419l-2 3c-0.463 0.688-0.275 1.619 0.419 2.081s1.619 0.275 2.081-0.419l2-3c0.463-0.688 0.275-1.619-0.419-2.081zM11.338 26.256c-0.688-0.462-1.619-0.275-2.081 0.419l-2 3c-0.463 0.688-0.275 1.619 0.419 2.081s1.619 0.275 2.081-0.419l2-3c0.463-0.688 0.275-1.619-0.419-2.081zM17.337 26.256c-0.688-0.462-1.619-0.275-2.081 0.419l-2 3c-0.463 0.688-0.275 1.619 0.419 2.081s1.619 0.275 2.081-0.419l2-3c0.462-0.688 0.275-1.619-0.419-2.081zM23.337 26.256c-0.688-0.462-1.619-0.275-2.081 0.419l-2 3c-0.462 0.688-0.275 1.619 0.419 2.081s1.619 0.275 2.081-0.419l2-3c0.462-0.688 0.275-1.619-0.419-2.081z"/>
</svg>