<svg version="1.1" xmlns="http://www.w3.org/2000/svg" width="32" height="32" viewBox="0 0 32 32">
<path fill="currentColor" d="M0 14c0 3.313 2.688 6 6 6h2.95l9.175-7.344c1.1-0.881 2.663-0.875 3.762 0.012s1.425 2.412 0.8 3.675l-1.831 3.656h5.144c3.313 0 6-2.688 6-6s-2.688-6-6-6c-0.031 0-0.069 0-0.1 0 0.069-0.325 0.1-0.656 0.1-1 0-2.763-2.238-5-5-5-1.519 0-2.881 0.681-3.8 1.75-1.169-2.231-3.506-3.75-6.2-3.75-3.869 0-7 3.131-7 7 0 0.444 0.044 0.881 0.119 1.3-2.394 0.787-4.119 3.044-4.119 5.7zM20.631 14.225c-0.363-0.294-0.887-0.294-1.256-0.006l-10 8c-0.331 0.262-0.463 0.712-0.319 1.113s0.519 0.669 0.944 0.669h4.381l-3.275 6.55c-0.213 0.419-0.1 0.931 0.269 1.225s0.887 0.294 1.256 0.006l10-8c0.331-0.262 0.462-0.712 0.319-1.113s-0.519-0.669-0.944-0.669h-4.387l3.275-6.55c0.212-0.419 0.1-0.931-0.262-1.225z"/>
</svg>