<svg version="1.1" xmlns="http://www.w3.org/2000/svg" width="40" height="32" viewBox="0 0 40 32">
<path fill="currentColor" d="M30.988 0c0.344 0 0.681 0.013 1.019 0.044 0.438 0.037 0.8 0.356 0.894 0.781s-0.1 0.869-0.481 1.081c-2.775 1.575-4.65 4.563-4.65 7.988 0 5.063 4.094 9.162 9.138 9.162 0.538 0 1.063-0.044 1.569-0.131 0.431-0.075 0.862 0.137 1.063 0.531s0.119 0.863-0.194 1.169c-2.156 2.1-5.106 3.4-8.35 3.4-0.581 0-1.15-0.044-1.712-0.119-0.7-1.413-1.863-2.556-3.288-3.231-0.169-3.656-3.144-6.581-6.825-6.669-0.106-0.65-0.163-1.313-0.163-1.988-0.006-6.638 5.356-12.019 11.981-12.019zM27.994 26.994c0 2.762-2.238 5-5 5h-16.994c-3.313 0-6-2.688-6-6 0-2.975 2.163-5.438 5-5.913v-0.081c0-3.313 2.688-6 6-6 2.181 0 4.088 1.162 5.137 2.9 0.813-0.569 1.8-0.9 2.863-0.9 2.762 0 5 2.237 5 5 0 0.369-0.038 0.731-0.119 1.075 2.337 0.419 4.113 2.462 4.113 4.919z"/>
</svg>