<svg version="1.1" xmlns="http://www.w3.org/2000/svg" width="40" height="32" viewBox="0 0 40 32">
<path fill="currentColor" d="M9 30c-4.969 0-9-4.031-9-9 0-3.925 2.513-7.262 6.013-8.494-0.006-0.169-0.013-0.338-0.013-0.506 0-5.525 4.475-10 10-10 3.706 0 6.938 2.013 8.669 5.013 0.95-0.638 2.1-1.013 3.331-1.013 3.313 0 6 2.688 6 6 0 0.762-0.144 1.488-0.4 2.162 3.65 0.738 6.4 3.969 6.4 7.838 0 4.419-3.581 8-8 8h-23zM13.938 16.438c-0.588 0.587-0.588 1.538 0 2.119s1.537 0.587 2.119 0l2.438-2.438v8.381c0 0.831 0.669 1.5 1.5 1.5s1.5-0.669 1.5-1.5v-8.381l2.438 2.438c0.587 0.587 1.538 0.587 2.119 0s0.587-1.538 0-2.119l-5-5c-0.587-0.588-1.538-0.588-2.119 0l-5 5z"/>
</svg>