<svg version="1.1" xmlns="http://www.w3.org/2000/svg" width="40" height="32" viewBox="0 0 40 32">
<path fill="currentColor" d="M18.387 0.075c0.319 0.131 0.544 0.419 0.6 0.756l0.881 5.294 5.294 0.881c0.337 0.056 0.625 0.281 0.756 0.6s0.094 0.681-0.1 0.963l-2.406 3.438c-0.137-0.006-0.275-0.012-0.419-0.012-1.456 0-2.819 0.387-4 1.069v-0.069c0-3.313-2.688-6-6-6s-6 2.688-6 6 2.688 6 6 6c0.506 0 0.994-0.063 1.463-0.181-2.287 1.131-3.956 3.319-4.362 5.931l-1.525 1.063c-0.281 0.2-0.644 0.238-0.963 0.1s-0.544-0.419-0.6-0.756l-0.875-5.281-5.294-0.881c-0.338-0.056-0.625-0.281-0.756-0.6s-0.094-0.681 0.1-0.962l3.1-4.425-3.1-4.425c-0.2-0.281-0.237-0.644-0.1-0.963s0.419-0.544 0.756-0.6l5.294-0.881 0.881-5.294c0.056-0.338 0.281-0.625 0.6-0.756s0.681-0.094 0.963 0.1l4.425 3.1 4.425-3.1c0.281-0.2 0.644-0.237 0.962-0.1zM9 13c0-2.209 1.791-4 4-4s4 1.791 4 4v0c0 2.209-1.791 4-4 4s-4-1.791-4-4v0zM39.994 26.994c0 2.762-2.237 5-5 5h-16.994c-3.313 0-6-2.688-6-6 0-2.975 2.162-5.438 5-5.913v-0.081c0-3.313 2.688-6 6-6 2.181 0 4.087 1.162 5.137 2.9 0.813-0.569 1.8-0.9 2.863-0.9 2.763 0 5 2.237 5 5 0 0.369-0.038 0.731-0.119 1.075 2.337 0.419 4.112 2.462 4.112 4.919z"/>
</svg>