<svg version="1.1" xmlns="http://www.w3.org/2000/svg" width="32" height="32" viewBox="0 0 32 32">
<path fill="currentColor" d="M6 20c-3.313 0-6-2.688-6-6 0-2.656 1.725-4.912 4.119-5.7-0.075-0.419-0.119-0.856-0.119-1.3 0-3.869 3.131-7 7-7 2.694 0 5.031 1.519 6.2 3.75 0.919-1.069 2.281-1.75 3.8-1.75 2.762 0 5 2.237 5 5 0 0.344-0.038 0.675-0.1 1 0.031 0 0.069 0 0.1 0 3.313 0 6 2.688 6 6s-2.688 6-6 6h-20zM5.575 23.25c0.081-0.156 0.244-0.25 0.425-0.25s0.338 0.094 0.425 0.25l2.194 4.038c0.256 0.469 0.387 0.988 0.387 1.519v0.188c0 1.656-1.344 3-3 3s-3-1.344-3-3v-0.188c0-0.531 0.131-1.056 0.388-1.519l2.181-4.038zM15.575 23.25c0.081-0.156 0.244-0.25 0.425-0.25s0.337 0.094 0.425 0.25l2.194 4.038c0.256 0.469 0.387 0.988 0.387 1.519v0.188c0 1.656-1.344 3-3 3s-3-1.344-3-3v-0.188c0-0.531 0.131-1.056 0.387-1.519l2.181-4.038zM23.381 27.288l2.194-4.038c0.081-0.156 0.244-0.25 0.425-0.25s0.337 0.094 0.425 0.25l2.194 4.038c0.256 0.469 0.387 0.988 0.387 1.519v0.188c0 1.656-1.344 3-3 3s-3-1.344-3-3v-0.188c0-0.531 0.131-1.056 0.387-1.519z"/>
</svg>