<svg version="1.1" xmlns="http://www.w3.org/2000/svg" width="40" height="32" viewBox="0 0 40 32">
<path fill="currentColor" d="M18.387 0.075c0.319 0.131 0.544 0.419 0.6 0.756l0.65 3.9c-1.456 0.675-2.681 1.775-3.5 3.144-0.912-0.563-1.988-0.881-3.137-0.881-3.313 0-6 2.688-6 6 0 2.219 1.206 4.162 3 5.2 0.050 1.988 0.825 3.794 2.069 5.169l-3.5 2.45c-0.281 0.194-0.644 0.238-0.963 0.1s-0.544-0.419-0.6-0.756l-0.875-5.288-5.294-0.881c-0.338-0.056-0.625-0.281-0.756-0.6s-0.094-0.681 0.1-0.962l3.1-4.425-3.1-4.425c-0.2-0.281-0.237-0.644-0.1-0.963s0.419-0.544 0.756-0.6l5.294-0.881 0.881-5.294c0.056-0.338 0.281-0.625 0.6-0.756s0.681-0.094 0.963 0.1l4.425 3.1 4.425-3.1c0.281-0.2 0.644-0.237 0.962-0.1zM13 9c0.863 0 1.669 0.275 2.319 0.744-0.075 0.256-0.137 0.519-0.188 0.787-2.369 0.912-4.2 2.912-4.862 5.4-0.781-0.738-1.269-1.775-1.269-2.931 0-2.206 1.794-4 4-4zM17.337 26.25c0.688 0.462 0.875 1.394 0.419 2.081l-2 3c-0.463 0.687-1.394 0.875-2.081 0.419s-0.875-1.394-0.419-2.081l2-3c0.463-0.688 1.394-0.875 2.081-0.419zM23.337 26.25c0.688 0.462 0.875 1.394 0.419 2.081l-2 3c-0.462 0.687-1.394 0.875-2.081 0.419s-0.875-1.394-0.419-2.081l2-3c0.462-0.688 1.394-0.875 2.081-0.419zM29.337 26.25c0.688 0.462 0.875 1.394 0.419 2.081l-2 3c-0.462 0.687-1.394 0.875-2.081 0.419s-0.875-1.394-0.419-2.081l2-3c0.462-0.688 1.394-0.875 2.081-0.419zM35.337 26.25c0.688 0.462 0.875 1.394 0.419 2.081l-2 3c-0.462 0.687-1.394 0.875-2.081 0.419s-0.875-1.394-0.419-2.081l2-3c0.462-0.688 1.394-0.875 2.081-0.419zM39.994 18.994c0 2.762-2.237 5-5 5h-16.994c-3.313 0-6-2.688-6-6 0-2.975 2.162-5.438 5-5.912v-0.081c0-3.313 2.688-6 6-6 2.181 0 4.087 1.162 5.137 2.9 0.813-0.569 1.8-0.9 2.863-0.9 2.763 0 5 2.237 5 5 0 0.369-0.038 0.731-0.119 1.075 2.337 0.419 4.112 2.463 4.112 4.919z"/>
</svg>