<svg version="1.1" xmlns="http://www.w3.org/2000/svg" width="28" height="32" viewBox="0 0 28 32">
<path fill="currentColor" d="M10.831 2c-2.119 0-3.831 1.712-3.831 3.831v0.306c0 0.75 0.206 1.481 0.588 2.125l1.175 1.956c0.069 0.113 0.075 0.194 0.063 0.262-0.012 0.075-0.050 0.156-0.125 0.225s-0.15 0.113-0.225 0.125c-0.063 0.012-0.15 0.006-0.262-0.063l-1.956-1.175c-0.644-0.387-1.375-0.588-2.125-0.588h-0.3c-2.119-0.006-3.831 1.706-3.831 3.825 0 1.012 0.406 1.988 1.119 2.706l0.075 0.075c0.212 0.213 0.212 0.563 0 0.775l-0.075 0.075c-0.713 0.719-1.119 1.694-1.119 2.706 0 2.119 1.712 3.831 3.831 3.831h0.306c0.75 0 1.481-0.206 2.125-0.587l1.956-1.175c0.113-0.069 0.194-0.075 0.262-0.063 0.075 0.012 0.156 0.050 0.225 0.125s0.113 0.15 0.125 0.225c0.012 0.063 0.006 0.15-0.063 0.262l-1.175 1.956c-0.388 0.644-0.588 1.375-0.588 2.125v0.306c0 2.113 1.712 3.831 3.831 3.831 1.012 0 1.988-0.406 2.706-1.119l0.075-0.075c0.213-0.212 0.563-0.212 0.775 0l0.075 0.075c0.719 0.719 1.694 1.119 2.706 1.119 2.113 0 3.831-1.712 3.831-3.831v-0.306c0-0.75-0.206-1.481-0.587-2.125l-1.175-1.956c-0.069-0.113-0.075-0.194-0.063-0.262 0.012-0.075 0.050-0.156 0.125-0.225s0.15-0.113 0.225-0.125c0.063-0.012 0.15-0.006 0.262 0.063l1.956 1.175c0.644 0.387 1.375 0.587 2.125 0.587h0.306c2.113 0 3.831-1.712 3.831-3.831 0-1.012-0.406-1.988-1.119-2.706l-0.075-0.075c-0.212-0.212-0.212-0.563 0-0.775l0.075-0.075c0.719-0.719 1.119-1.694 1.119-2.706 0-2.113-1.712-3.831-3.831-3.831h-0.306c-0.75 0-1.481 0.206-2.125 0.588l-1.956 1.175c-0.113 0.069-0.194 0.075-0.262 0.063-0.075-0.012-0.156-0.050-0.225-0.125s-0.113-0.15-0.125-0.225c-0.012-0.063-0.006-0.15 0.063-0.262l1.175-1.956c0.387-0.644 0.587-1.375 0.587-2.125v-0.3c-0.006-2.119-1.719-3.831-3.837-3.831-1.012 0-1.988 0.406-2.706 1.119l-0.075 0.075c-0.213 0.212-0.563 0.212-0.775 0l-0.075-0.075c-0.719-0.712-1.694-1.119-2.706-1.119z"/>
</svg>