<svg version="1.1" xmlns="http://www.w3.org/2000/svg" width="28" height="32" viewBox="0 0 28 32">
<path fill="currentColor" d="M5 6.5c0.828 0 1.5-0.672 1.5-1.5s-0.672-1.5-1.5-1.5v0c-0.828 0-1.5 0.672-1.5 1.5s0.672 1.5 1.5 1.5v0zM10 5c0 2.050-1.231 3.813-3 4.581v5.488c1.175-0.681 2.544-1.069 4-1.069h6c2.206 0 4-1.794 4-4v-0.419c-1.769-0.769-3-2.531-3-4.581 0-2.763 2.238-5 5-5s5 2.237 5 5c0 2.050-1.231 3.813-3 4.581v0.419c0 4.419-3.581 8-8 8h-6c-2.206 0-4 1.794-4 4v0.419c1.769 0.769 3 2.531 3 4.581 0 2.762-2.237 5-5 5s-5-2.238-5-5c0-2.050 1.231-3.813 3-4.581v-12.838c-1.769-0.769-3-2.531-3-4.581 0-2.763 2.237-5 5-5s5 2.237 5 5zM24.5 5c0-0.828-0.672-1.5-1.5-1.5s-1.5 0.672-1.5 1.5v0c0 0.828 0.672 1.5 1.5 1.5s1.5-0.672 1.5-1.5v0zM5 28.5c0.828 0 1.5-0.672 1.5-1.5s-0.672-1.5-1.5-1.5v0c-0.828 0-1.5 0.672-1.5 1.5s0.672 1.5 1.5 1.5v0z"/>
</svg>