<svg version="1.1" xmlns="http://www.w3.org/2000/svg" width="40" height="32" viewBox="0 0 40 32">
<path fill="currentColor" d="M24.55 0.075c-1.063-0.306-2.169 0.313-2.475 1.375l-8 28c-0.306 1.063 0.313 2.169 1.375 2.475s2.169-0.313 2.475-1.375l8-28c0.306-1.063-0.313-2.169-1.375-2.475zM29.587 7.581c-0.781 0.781-0.781 2.050 0 2.831l5.581 5.588-5.587 5.587c-0.781 0.781-0.781 2.050 0 2.831s2.050 0.781 2.831 0l7-7c0.781-0.781 0.781-2.050 0-2.831l-7-7c-0.781-0.781-2.050-0.781-2.831 0zM10.419 7.581c-0.781-0.781-2.050-0.781-2.831 0l-7 7c-0.781 0.781-0.781 2.050 0 2.831l7 7c0.781 0.781 2.050 0.781 2.831 0s0.781-2.050 0-2.831l-5.588-5.581 5.588-5.588c0.781-0.781 0.781-2.050 0-2.831z"/>
</svg>