<svg version="1.1" xmlns="http://www.w3.org/2000/svg" width="32" height="32" viewBox="0 0 32 32">
<path fill="currentColor" d="M20 30.5c0 0.594-0.35 1.131-0.887 1.369s-1.175 0.144-1.613-0.256l-5-4.5c-0.319-0.288-0.494-0.688-0.494-1.113s0.181-0.831 0.494-1.113l5-4.5c0.438-0.394 1.075-0.494 1.613-0.256s0.887 0.775 0.887 1.369v2.5h1c2.206 0 4-1.794 4-4v-10.419c-1.769-0.769-3-2.531-3-4.581 0-2.763 2.238-5 5-5s5 2.237 5 5c0 2.050-1.231 3.812-3 4.581v10.419c0 4.419-3.581 8-8 8h-1v2.5zM28.5 5c0-0.828-0.672-1.5-1.5-1.5s-1.5 0.672-1.5 1.5v0c0 0.828 0.672 1.5 1.5 1.5s1.5-0.672 1.5-1.5v0zM12 1.5c0-0.594 0.35-1.131 0.887-1.369s1.175-0.144 1.613 0.256l5 4.5c0.319 0.287 0.494 0.688 0.494 1.112s-0.181 0.831-0.494 1.112l-5 4.5c-0.438 0.394-1.075 0.494-1.613 0.256s-0.887-0.775-0.887-1.369v-2.5h-1c-2.206 0-4 1.794-4 4v10.419c1.769 0.769 3 2.531 3 4.581 0 2.762-2.237 5-5 5s-5-2.238-5-5c0-2.050 1.231-3.813 3-4.581v-10.419c0-4.419 3.581-8 8-8h1v-2.5zM3.5 27c0 0.828 0.672 1.5 1.5 1.5s1.5-0.672 1.5-1.5v0c0-0.828-0.672-1.5-1.5-1.5s-1.5 0.672-1.5 1.5v0z"/>
</svg>