<svg version="1.1" xmlns="http://www.w3.org/2000/svg" width="28" height="32" viewBox="0 0 28 32">
<path fill="currentColor" d="M5 6.5c0.828 0 1.5-0.672 1.5-1.5s-0.672-1.5-1.5-1.5v0c-0.828 0-1.5 0.672-1.5 1.5s0.672 1.5 1.5 1.5v0zM10 5c0 2.050-1.231 3.813-3 4.581v2.419c0 1.106 0.894 2 2 2h10c1.106 0 2-0.894 2-2v-2.419c-1.769-0.769-3-2.531-3-4.581 0-2.763 2.238-5 5-5s5 2.237 5 5c0 2.050-1.231 3.812-3 4.581v2.419c0 3.313-2.688 6-6 6h-3v4.419c1.769 0.769 3 2.531 3 4.581 0 2.762-2.238 5-5 5s-5-2.238-5-5c0-2.050 1.231-3.813 3-4.581v-4.419h-3c-3.313 0-6-2.688-6-6v-2.419c-1.769-0.769-3-2.531-3-4.581 0-2.763 2.237-5 5-5s5 2.237 5 5zM23 6.5c0.828 0 1.5-0.672 1.5-1.5s-0.672-1.5-1.5-1.5v0c-0.828 0-1.5 0.672-1.5 1.5s0.672 1.5 1.5 1.5v0zM15.5 27c0-0.828-0.672-1.5-1.5-1.5s-1.5 0.672-1.5 1.5v0c0 0.828 0.672 1.5 1.5 1.5s1.5-0.672 1.5-1.5v0z"/>
</svg>