<svg version="1.1" xmlns="http://www.w3.org/2000/svg" width="28" height="32" viewBox="0 0 28 32">
<path fill="currentColor" d="M5 3.5c0.828 0 1.5 0.672 1.5 1.5s-0.672 1.5-1.5 1.5v0c-0.828 0-1.5-0.672-1.5-1.5s0.672-1.5 1.5-1.5v0zM7.025 9.575c1.75-0.775 2.975-2.531 2.975-4.575 0-2.763-2.237-5-5-5s-5 2.237-5 5c0 2.050 1.231 3.813 3 4.581v12.838c-1.769 0.769-3 2.531-3 4.581 0 2.762 2.237 5 5 5s5-2.238 5-5c0-2.050-1.231-3.813-3-4.581v-5.419c1.669 1.256 3.75 2 6 2h5.419c0.769 1.769 2.531 3 4.581 3 2.762 0 5-2.238 5-5s-2.238-5-5-5c-2.050 0-3.813 1.231-4.581 3h-5.419c-3.119 0-5.688-2.381-5.975-5.425zM5 25.5c0.828 0 1.5 0.672 1.5 1.5s-0.672 1.5-1.5 1.5v0c-0.828 0-1.5-0.672-1.5-1.5s0.672-1.5 1.5-1.5v0zM21.5 17c0-0.828 0.672-1.5 1.5-1.5s1.5 0.672 1.5 1.5v0c0 0.828-0.672 1.5-1.5 1.5s-1.5-0.672-1.5-1.5v0z"/>
</svg>