<svg version="1.1" xmlns="http://www.w3.org/2000/svg" width="32" height="32" viewBox="0 0 32 32">
<path fill="currentColor" d="M32 5c0 1.125-0.894 2.162-2.4 3-1.819 1.006-4.531 1.719-7.644 1.931-0.231-0.113-0.462-0.219-0.706-0.313-2.462-1.031-5.738-1.619-9.25-1.619-0.519 0-1.025 0.012-1.531 0.037l-0.069-0.037c-1.506-0.838-2.4-1.875-2.4-3 0-2.763 5.375-5 12-5s12 2.237 12 5zM10.044 10.069c0.637-0.044 1.294-0.069 1.956-0.069 3.887 0 7.337 0.769 9.531 1.963 1.55 0.844 2.469 1.894 2.469 3.037 0 0.25-0.044 0.494-0.131 0.731-0.288 0.825-1.063 1.581-2.188 2.219 0 0 0 0 0 0-0.006 0.006-0.019 0.006-0.025 0.012v0 0c-0.019 0.012-0.038 0.019-0.056 0.031-2.188 1.212-5.675 2-9.6 2-3.725 0-7.056-0.706-9.262-1.819-0.119-0.056-0.231-0.119-0.344-0.181-1.5-0.831-2.394-1.869-2.394-2.994 0-2.175 3.337-4.031 8-4.713 0.656-0.094 1.338-0.169 2.044-0.219zM26 15c0-1.369-0.663-2.494-1.506-3.338 1.769-0.275 3.387-0.713 4.762-1.281 1.019-0.425 1.969-0.95 2.744-1.594v2.213c0 1.206-1.031 2.319-2.738 3.181-0.913 0.463-2.025 0.856-3.275 1.156 0.006-0.113 0.012-0.219 0.012-0.331zM24 21c0 1.125-0.894 2.163-2.4 3-0.113 0.063-0.225 0.119-0.344 0.181-2.2 1.113-5.531 1.819-9.256 1.819-3.925 0-7.412-0.788-9.6-2-1.506-0.837-2.4-1.875-2.4-3v-2.212c0.781 0.644 1.725 1.169 2.744 1.594 2.469 1.031 5.744 1.619 9.256 1.619s6.787-0.587 9.256-1.619c0.488-0.2 0.956-0.431 1.4-0.681 0.381-0.212 0.738-0.45 1.075-0.7 0.094-0.069 0.181-0.144 0.269-0.212v2.212zM26 21v-3.619c1.188-0.262 2.281-0.594 3.256-1 1.019-0.425 1.969-0.95 2.744-1.594v2.212c0 0.656-0.313 1.313-0.931 1.931-1.019 1.019-2.813 1.856-5.081 2.4 0.006-0.106 0.012-0.219 0.012-0.331zM12 28c3.512 0 6.788-0.587 9.256-1.619 1.019-0.425 1.969-0.95 2.744-1.594v2.212c0 2.762-5.375 5-12 5s-12-2.238-12-5v-2.212c0.781 0.644 1.725 1.169 2.744 1.594 2.469 1.031 5.744 1.619 9.256 1.619z"/>
</svg>