<svg version="1.1" xmlns="http://www.w3.org/2000/svg" width="24" height="32" viewBox="0 0 24 32">
<path fill="currentColor" d="M15.938 2.487c0.269-1.069-0.381-2.156-1.456-2.425s-2.156 0.381-2.419 1.45l-0.694 2.775c-5.362 1.2-9.369 5.987-9.369 11.713 0 3.631 1.612 6.887 4.169 9.087l-1.106 4.425c-0.269 1.069 0.381 2.156 1.456 2.425s2.156-0.381 2.425-1.456l0.813-3.256c0.563 0.212 1.15 0.387 1.75 0.512l-0.444 1.775c-0.269 1.069 0.381 2.156 1.456 2.425s2.156-0.381 2.425-1.456l0.65-2.587c2.088-0.275 4.006-1.087 5.612-2.294 0.881-0.663 1.063-1.919 0.4-2.8s-1.919-1.063-2.8-0.4c-0.637 0.481-1.356 0.869-2.125 1.144l3.381-13.544c0.587-0.019 1.156-0.294 1.538-0.8 0.663-0.881 0.488-2.138-0.4-2.8-0.069-0.050-0.137-0.1-0.206-0.15l0.944-3.763c0.269-1.069-0.381-2.156-1.456-2.425s-2.156 0.381-2.419 1.45l-0.738 2.956c-0.581-0.169-1.175-0.287-1.787-0.369l0.4-1.612zM10.2 8.956l-2.869 11.469c-0.838-1.269-1.331-2.788-1.331-4.425 0-3.044 1.7-5.688 4.2-7.044zM10.738 23.3l3.819-15.287c0.619 0.044 1.219 0.156 1.794 0.331l-3.875 15.506c-0.606-0.119-1.188-0.3-1.738-0.55z"/>
</svg>