<svg version="1.1" xmlns="http://www.w3.org/2000/svg" width="32" height="32" viewBox="0 0 32 32">
<path fill="currentColor" d="M16 28c8.837 0 16-5.819 16-13s-7.163-13-16-13-16 5.819-16 13c0 2.819 1.106 5.425 2.981 7.556-0.119 1.531-0.712 2.894-1.337 3.931-0.344 0.575-0.694 1.038-0.95 1.35-0.131 0.156-0.231 0.275-0.306 0.356-0.037 0.038-0.063 0.069-0.081 0.087l-0.019 0.019c-0.287 0.288-0.369 0.712-0.212 1.087s0.519 0.619 0.925 0.619c1.794 0 3.6-0.556 5.1-1.206 1.431-0.625 2.65-1.369 3.394-1.913 1.988 0.719 4.188 1.119 6.506 1.119zM17.25 8.5v0.869c0.469 0.075 0.913 0.181 1.319 0.294 0.669 0.175 1.063 0.863 0.887 1.531s-0.863 1.063-1.531 0.887c-0.688-0.181-1.35-0.313-1.95-0.325-0.494-0.006-1 0.113-1.344 0.313-0.3 0.175-0.387 0.35-0.387 0.581 0 0.113 0.006 0.219 0.331 0.419 0.394 0.238 0.969 0.419 1.769 0.656l0.044 0.012c0.7 0.213 1.6 0.481 2.319 0.938 0.806 0.506 1.519 1.331 1.538 2.6 0.019 1.306-0.656 2.256-1.55 2.813-0.45 0.281-0.95 0.456-1.45 0.563v0.85c0 0.688-0.563 1.25-1.25 1.25s-1.25-0.563-1.25-1.25v-0.913c-0.644-0.137-1.25-0.344-1.762-0.525v0 0c-0.131-0.044-0.256-0.087-0.381-0.131-0.656-0.219-1.006-0.925-0.787-1.581s0.925-1.006 1.581-0.788c0.156 0.050 0.306 0.106 0.45 0.15 0.85 0.288 1.5 0.506 2.194 0.531 0.538 0.019 1.031-0.1 1.337-0.294 0.256-0.156 0.375-0.344 0.369-0.656 0-0.181-0.050-0.313-0.369-0.512-0.394-0.25-0.962-0.431-1.75-0.669l-0.106-0.031c-0.681-0.206-1.537-0.463-2.225-0.875-0.794-0.481-1.537-1.281-1.544-2.544-0.006-1.319 0.738-2.231 1.613-2.744 0.431-0.256 0.906-0.425 1.387-0.531v-0.887c0-0.688 0.563-1.25 1.25-1.25s1.25 0.563 1.25 1.25z"/>
</svg>