<svg version="1.1" xmlns="http://www.w3.org/2000/svg" width="32" height="32" viewBox="0 0 32 32">
<path fill="currentColor" d="M16 28c8.837 0 16-5.819 16-13s-7.163-13-16-13-16 5.819-16 13c0 2.819 1.106 5.425 2.981 7.556-0.119 1.531-0.712 2.894-1.337 3.931-0.344 0.575-0.694 1.038-0.95 1.35-0.131 0.156-0.231 0.275-0.306 0.356-0.037 0.038-0.063 0.069-0.081 0.087l-0.019 0.019c-0.287 0.288-0.369 0.712-0.212 1.087s0.519 0.619 0.925 0.619c1.794 0 3.6-0.556 5.1-1.206 1.431-0.625 2.65-1.369 3.394-1.913 1.988 0.719 4.188 1.119 6.506 1.119zM14 10c0-0.55 0.45-1 1-1h2c0.55 0 1 0.45 1 1v3h3c0.55 0 1 0.45 1 1v2c0 0.55-0.45 1-1 1h-3v3c0 0.55-0.45 1-1 1h-2c-0.55 0-1-0.45-1-1v-3h-3c-0.55 0-1-0.45-1-1v-2c0-0.55 0.45-1 1-1h3v-3z"/>
</svg>