<svg version="1.1" xmlns="http://www.w3.org/2000/svg" width="32" height="32" viewBox="0 0 32 32">
<path fill="currentColor" d="M16 28c8.837 0 16-5.819 16-13s-7.163-13-16-13-16 5.819-16 13c0 2.819 1.106 5.425 2.981 7.556-0.119 1.531-0.712 2.894-1.337 3.931-0.344 0.575-0.694 1.038-0.95 1.35-0.131 0.156-0.231 0.275-0.306 0.356-0.037 0.038-0.063 0.069-0.081 0.087l-0.019 0.019c-0.287 0.288-0.369 0.712-0.212 1.087s0.519 0.619 0.925 0.619c1.794 0 3.6-0.556 5.1-1.206 1.431-0.625 2.65-1.369 3.394-1.913 1.988 0.719 4.188 1.119 6.506 1.119zM12.681 11.050c0.406-0.137 0.856 0.006 1.119 0.35l2.2 2.931 2.2-2.931c0.256-0.344 0.706-0.488 1.119-0.35s0.681 0.519 0.681 0.95v6c0 0.55-0.45 1-1 1s-1-0.45-1-1v-3l-1.2 1.6c-0.188 0.25-0.488 0.4-0.8 0.4s-0.613-0.15-0.8-0.4l-1.2-1.6v3c0 0.55-0.45 1-1 1s-1-0.45-1-1v-6c0-0.431 0.275-0.813 0.681-0.95zM23.5 13.425c0 0.012 0 0.025 0 0.025 0.006 0.006 0.038 0.050 0.137 0.106 0.244 0.144 0.6 0.256 1.144 0.425l0.038 0.012c0.462 0.137 1.081 0.325 1.575 0.637 0.569 0.356 1.087 0.95 1.1 1.869 0.012 0.938-0.475 1.625-1.113 2.019-0.594 0.369-1.306 0.494-1.919 0.475-0.762-0.025-1.481-0.275-2.038-0.462v0 0c-0.087-0.031-0.169-0.056-0.25-0.087-0.525-0.175-0.806-0.744-0.631-1.262s0.744-0.806 1.262-0.631c0.106 0.038 0.206 0.069 0.306 0.1v0 0c0.569 0.194 0.975 0.331 1.413 0.344 0.331 0.012 0.625-0.063 0.8-0.175 0.075-0.050 0.113-0.094 0.131-0.125 0.012-0.025 0.038-0.075 0.038-0.169v-0.012c0-0.044 0-0.087-0.169-0.194-0.238-0.15-0.6-0.269-1.125-0.431l-0.075-0.025c-0.45-0.137-1.044-0.313-1.519-0.6-0.563-0.338-1.106-0.919-1.106-1.838-0.006-0.95 0.538-1.606 1.156-1.975 0.587-0.344 1.281-0.469 1.856-0.463 0.625 0.012 1.231 0.144 1.744 0.275 0.531 0.144 0.85 0.688 0.706 1.225s-0.688 0.85-1.225 0.706c-0.456-0.119-0.881-0.206-1.256-0.213-0.306-0.006-0.613 0.069-0.806 0.181-0.087 0.050-0.131 0.1-0.15 0.125-0.012 0.019-0.025 0.050-0.025 0.119zM6.5 13.425c0 0.012 0 0.025 0 0.025 0.006 0.006 0.037 0.050 0.138 0.106 0.244 0.144 0.6 0.256 1.144 0.425l0.037 0.012c0.463 0.137 1.081 0.325 1.575 0.637 0.569 0.356 1.088 0.95 1.1 1.869 0.012 0.938-0.475 1.625-1.113 2.019-0.594 0.369-1.306 0.494-1.919 0.475-0.769-0.025-1.513-0.281-2.075-0.475v0 0c-0.081-0.025-0.156-0.050-0.225-0.075-0.525-0.175-0.806-0.744-0.631-1.262s0.744-0.806 1.263-0.631c0.088 0.031 0.175 0.056 0.256 0.087v0 0c0.594 0.2 1.031 0.35 1.481 0.363 0.331 0.012 0.625-0.063 0.8-0.175 0.075-0.050 0.113-0.094 0.131-0.125 0.012-0.025 0.037-0.075 0.037-0.169v-0.012c0-0.044 0-0.087-0.169-0.194-0.238-0.15-0.6-0.269-1.125-0.431l-0.075-0.025c-0.45-0.137-1.044-0.313-1.519-0.6-0.563-0.331-1.106-0.912-1.112-1.831-0.006-0.95 0.537-1.606 1.156-1.975 0.588-0.344 1.281-0.469 1.856-0.463 0.594 0.006 1.387 0.131 1.944 0.275 0.531 0.144 0.85 0.688 0.706 1.225s-0.688 0.85-1.225 0.706c-0.412-0.113-1.050-0.206-1.456-0.213-0.306-0.006-0.612 0.069-0.806 0.181-0.088 0.050-0.131 0.1-0.15 0.125-0.013 0.019-0.025 0.050-0.025 0.119z"/>
</svg>