<svg version="1.1" xmlns="http://www.w3.org/2000/svg" width="40" height="32" viewBox="0 0 40 32">
<path fill="currentColor" d="M2.425 0.319c-0.65-0.512-1.594-0.394-2.106 0.256s-0.394 1.594 0.256 2.106l37 29c0.65 0.513 1.594 0.394 2.106-0.256s0.394-1.594-0.256-2.106l-7.369-5.775c2.456-2.281 3.944-5.275 3.944-8.544 0-7.181-7.163-13-16-13-4.231 0-8.081 1.337-10.944 3.519l-6.631-5.2zM4 15c0 2.819 1.106 5.425 2.981 7.556-0.119 1.531-0.713 2.894-1.337 3.931-0.344 0.575-0.694 1.038-0.95 1.35-0.131 0.156-0.231 0.275-0.306 0.356-0.037 0.038-0.063 0.069-0.081 0.087l-0.019 0.019c-0.287 0.288-0.369 0.712-0.213 1.087s0.519 0.619 0.925 0.619c1.794 0 3.6-0.556 5.1-1.206 1.431-0.625 2.65-1.369 3.394-1.913 1.988 0.719 4.188 1.119 6.506 1.119 2.313 0 4.519-0.4 6.5-1.119l-21.319-16.806c-0.763 1.519-1.181 3.181-1.181 4.919z"/>
</svg>