<svg version="1.1" xmlns="http://www.w3.org/2000/svg" width="40" height="32" viewBox="0 0 40 32">
<path fill="currentColor" d="M26 11c0 6.075-5.819 11-13 11-2.387 0-4.619-0.544-6.544-1.494-0.469 0.25-1 0.494-1.575 0.712-1.144 0.431-2.519 0.781-3.881 0.781-0.431 0-0.819-0.281-0.95-0.694s0.012-0.863 0.362-1.119v0 0l0.013-0.012c0.013-0.012 0.037-0.025 0.069-0.050 0.063-0.050 0.156-0.125 0.269-0.231 0.225-0.206 0.531-0.506 0.831-0.894 0.344-0.438 0.669-0.962 0.887-1.544-1.563-1.813-2.481-4.044-2.481-6.456 0-6.075 5.819-11 13-11s13 4.925 13 11zM14.469 23.938c7.337-0.631 13.531-5.919 13.531-12.938 0-0.325-0.012-0.65-0.038-0.969 6.731 0.412 12.038 5.169 12.038 10.969 0 2.413-0.919 4.644-2.475 6.462 0.219 0.587 0.544 1.106 0.888 1.544 0.3 0.387 0.606 0.688 0.831 0.894 0.112 0.1 0.206 0.181 0.269 0.231 0.031 0.025 0.056 0.044 0.069 0.050l0.013 0.012c0.35 0.256 0.494 0.706 0.362 1.119s-0.519 0.694-0.95 0.694c-1.362 0-2.737-0.35-3.881-0.781-0.575-0.219-1.112-0.462-1.575-0.712-1.931 0.944-4.163 1.488-6.55 1.488-5.975 0-11.012-3.413-12.531-8.063zM14.25 4.5c0-0.688-0.563-1.25-1.25-1.25s-1.25 0.563-1.25 1.25v0.875c-0.475 0.106-0.95 0.275-1.387 0.531-0.869 0.519-1.619 1.425-1.613 2.744 0.006 1.269 0.75 2.069 1.544 2.544 0.688 0.412 1.544 0.675 2.225 0.875l0.106 0.031c0.787 0.238 1.363 0.425 1.75 0.669 0.319 0.2 0.363 0.338 0.369 0.512 0.006 0.313-0.113 0.5-0.369 0.656-0.313 0.194-0.806 0.313-1.338 0.294-0.694-0.025-1.344-0.244-2.194-0.531-0.144-0.050-0.294-0.1-0.45-0.15-0.656-0.219-1.363 0.137-1.581 0.787s0.137 1.363 0.787 1.581c0.119 0.037 0.25 0.081 0.381 0.131v0 0c0.519 0.181 1.119 0.387 1.762 0.525v0.925c0 0.688 0.563 1.25 1.25 1.25s1.25-0.563 1.25-1.25v-0.863c0.5-0.106 1-0.281 1.45-0.563 0.894-0.556 1.569-1.506 1.55-2.813-0.019-1.269-0.731-2.088-1.537-2.6-0.719-0.45-1.619-0.725-2.319-0.938l-0.044-0.012c-0.8-0.244-1.369-0.419-1.769-0.656-0.325-0.194-0.331-0.306-0.331-0.419 0-0.231 0.088-0.406 0.387-0.581 0.338-0.2 0.85-0.319 1.344-0.313 0.6 0.006 1.262 0.138 1.95 0.325 0.669 0.175 1.35-0.219 1.531-0.888s-0.219-1.35-0.887-1.531c-0.406-0.106-0.856-0.213-1.319-0.294v-0.856z"/>
</svg>