<svg version="1.1" xmlns="http://www.w3.org/2000/svg" width="32" height="32" viewBox="0 0 32 32">
<path fill="currentColor" d="M32 15c0 7.181-7.163 13-16 13-2.319 0-4.519-0.4-6.506-1.119-0.744 0.544-1.956 1.288-3.394 1.913-1.5 0.65-3.306 1.206-5.1 1.206-0.406 0-0.769-0.244-0.925-0.619s-0.069-0.8 0.213-1.087v0 0 0 0l0.019-0.019c0.019-0.019 0.044-0.044 0.081-0.087 0.069-0.075 0.175-0.194 0.306-0.356 0.256-0.313 0.6-0.775 0.95-1.35 0.625-1.038 1.219-2.4 1.337-3.931-1.875-2.125-2.981-4.731-2.981-7.55 0-7.181 7.162-13 16-13s16 5.819 16 13z"/>
</svg>