<svg version="1.1" xmlns="http://www.w3.org/2000/svg" width="40" height="32" viewBox="0 0 40 32">
<path fill="currentColor" d="M13 22c7.181 0 13-4.925 13-11s-5.819-11-13-11-13 4.925-13 11c0 2.412 0.919 4.644 2.475 6.462-0.219 0.587-0.544 1.106-0.887 1.544-0.3 0.387-0.606 0.688-0.831 0.894-0.113 0.1-0.206 0.181-0.269 0.231-0.031 0.025-0.056 0.044-0.069 0.050l-0.013 0.012c-0.344 0.256-0.494 0.706-0.356 1.113s0.519 0.694 0.95 0.694c1.362 0 2.737-0.35 3.881-0.781 0.575-0.219 1.112-0.462 1.581-0.712 1.919 0.95 4.15 1.494 6.538 1.494zM28 11c0 7.019-6.194 12.306-13.531 12.938 1.519 4.65 6.556 8.063 12.531 8.063 2.387 0 4.619-0.544 6.544-1.494 0.469 0.25 1 0.494 1.575 0.712 1.144 0.431 2.519 0.781 3.881 0.781 0.431 0 0.819-0.281 0.95-0.694s-0.013-0.863-0.362-1.119v0 0l-0.013-0.012c-0.013-0.012-0.038-0.025-0.069-0.050-0.063-0.050-0.156-0.125-0.269-0.231-0.225-0.206-0.531-0.506-0.831-0.894-0.344-0.438-0.669-0.962-0.888-1.544 1.556-1.813 2.475-4.044 2.475-6.463 0-5.8-5.306-10.556-12.038-10.969 0.025 0.319 0.038 0.644 0.038 0.969z"/>
</svg>