<svg version="1.1" xmlns="http://www.w3.org/2000/svg" width="28" height="32" viewBox="0 0 28 32">
<path fill="currentColor" d="M10 4c0-1.106-0.894-2-2-2s-2 0.894-2 2v4h-4c-1.106 0-2 0.894-2 2s0.894 2 2 2h6c1.106 0 2-0.894 2-2v-6zM2 20c-1.106 0-2 0.894-2 2s0.894 2 2 2h4v4c0 1.106 0.894 2 2 2s2-0.894 2-2v-6c0-1.106-0.894-2-2-2h-6zM22 4c0-1.106-0.894-2-2-2s-2 0.894-2 2v6c0 1.106 0.894 2 2 2h6c1.106 0 2-0.894 2-2s-0.894-2-2-2h-4v-4zM20 20c-1.106 0-2 0.894-2 2v6c0 1.106 0.894 2 2 2s2-0.894 2-2v-4h4c1.106 0 2-0.894 2-2s-0.894-2-2-2h-6z"/>
</svg>