<svg version="1.1" xmlns="http://www.w3.org/2000/svg" width="32" height="32" viewBox="0 0 32 32">
<path fill="currentColor" d="M16 32c8.837 0 16-7.163 16-16s-7.163-16-16-16v0c-8.837 0-16 7.163-16 16s7.163 16 16 16v0zM19.169 20.319l-9.019 3.469c-1.213 0.469-2.406-0.725-1.938-1.938l3.469-9.019c0.206-0.531 0.619-0.944 1.15-1.15l9.019-3.469c1.212-0.469 2.406 0.725 1.938 1.938l-3.469 9.019c-0.2 0.531-0.619 0.944-1.15 1.15zM18 16c0-1.105-0.895-2-2-2s-2 0.895-2 2v0c0 1.105 0.895 2 2 2s2-0.895 2-2v0z"/>
</svg>