<svg version="1.1" xmlns="http://www.w3.org/2000/svg" width="32" height="32" viewBox="0 0 32 32">
<path fill="currentColor" d="M0 16c0-8.837 7.163-16 16-16s16 7.163 16 16v0c0 8.837-7.163 16-16 16s-16-7.163-16-16v0zM16 18c-1.105 0-2-0.895-2-2s0.895-2 2-2v0c1.105 0 2 0.895 2 2s-0.895 2-2 2v0zM10 16c0 3.314 2.686 6 6 6s6-2.686 6-6v0c0-3.314-2.686-6-6-6s-6 2.686-6 6v0zM6 15c0-2.188 1.094-4.444 2.825-6.175s3.988-2.825 6.175-2.825c0.55 0 1-0.45 1-1s-0.45-1-1-1c-2.838 0-5.575 1.394-7.594 3.406s-3.406 4.756-3.406 7.594c0 0.55 0.45 1 1 1s1-0.45 1-1z"/>
</svg>