<svg version="1.1" xmlns="http://www.w3.org/2000/svg" width="32" height="32" viewBox="0 0 32 32">
<path fill="currentColor" d="M22 6c0 0.894-0.194 1.744-0.55 2.512l3.3 5.7c-1.481 1.581-3.387 2.756-5.531 3.35l-3.219-5.563-4.25 7.344c1.344 0.425 2.769 0.656 4.256 0.656 4.419 0 8.363-2.044 10.931-5.25 0.694-0.863 1.95-1 2.813-0.313s1 1.95 0.313 2.813c-3.306 4.113-8.375 6.75-14.063 6.75-2.213 0-4.338-0.4-6.294-1.131l-3.537 6.113c-0.294 0.506-0.731 0.919-1.256 1.181l-3.462 1.731c-0.313 0.156-0.681 0.138-0.975-0.044s-0.475-0.506-0.475-0.85v-3.462c0-0.525 0.138-1.044 0.406-1.506l3.75-6.481c-0.8-0.7-1.544-1.469-2.206-2.3-0.694-0.863-0.55-2.119 0.313-2.813s2.119-0.55 2.813 0.313c0.356 0.444 0.737 0.863 1.138 1.256l4.338-7.494c-0.35-0.763-0.55-1.612-0.55-2.513 0-3.313 2.688-6 6-6s6 2.688 6 6zM23.313 24.619c2.038-0.8 3.906-1.925 5.556-3.306l2.731 4.719c0.262 0.456 0.406 0.975 0.406 1.506v3.462c0 0.344-0.181 0.669-0.475 0.85s-0.663 0.2-0.975 0.044l-3.462-1.731c-0.525-0.262-0.962-0.675-1.256-1.181l-2.525-4.363zM16 8c1.105 0 2-0.895 2-2s-0.895-2-2-2v0c-1.105 0-2 0.895-2 2s0.895 2 2 2v0z"/>
</svg>