<svg version="1.1" xmlns="http://www.w3.org/2000/svg" width="40" height="32" viewBox="0 0 40 32">
<path fill="currentColor" d="M24 6v14h-20v-14h20zM4 2c-2.206 0-4 1.794-4 4v14c0 2.206 1.794 4 4 4h7.331l-0.669 2h-4.662c-1.106 0-2 0.894-2 2s0.894 2 2 2h16c1.106 0 2-0.894 2-2s-0.894-2-2-2h-4.669l-0.669-2h7.337c2.206 0 4-1.794 4-4v-14c0-2.206-1.794-4-4-4h-20zM33 2c-1.656 0-3 1.344-3 3v22c0 1.656 1.344 3 3 3h4c1.656 0 3-1.344 3-3v-22c0-1.656-1.344-3-3-3h-4zM34 6h2c0.55 0 1 0.45 1 1s-0.45 1-1 1h-2c-0.55 0-1-0.45-1-1s0.45-1 1-1zM33 11c0-0.55 0.45-1 1-1h2c0.55 0 1 0.45 1 1s-0.45 1-1 1h-2c-0.55 0-1-0.45-1-1zM35 21c1.105 0 2 0.895 2 2s-0.895 2-2 2v0c-1.105 0-2-0.895-2-2s0.895-2 2-2v0z"/>
</svg>