<svg version="1.1" xmlns="http://www.w3.org/2000/svg" width="32" height="32" viewBox="0 0 32 32">
<path fill="currentColor" d="M16.094 1.725c-0.050-0.337-0.306-0.613-0.644-0.663-1.381-0.194-2.787 0.056-4.025 0.712l-4.625 2.469c-1.231 0.656-2.225 1.688-2.837 2.944l-2.294 4.725c-0.613 1.256-0.813 2.681-0.569 4.056l0.906 5.175c0.244 1.381 0.913 2.644 1.919 3.619l3.769 3.65c1.006 0.975 2.288 1.6 3.669 1.794l5.187 0.731c1.381 0.194 2.788-0.056 4.025-0.712l4.625-2.469c1.231-0.656 2.225-1.688 2.837-2.95l2.294-4.719c0.613-1.256 0.813-2.681 0.569-4.056-0.056-0.331-0.331-0.581-0.663-0.631-3.219-0.512-5.8-2.944-6.531-6.088-0.113-0.475-0.5-0.838-0.981-0.912-3.413-0.544-6.106-3.25-6.637-6.675zM13 9c1.105 0 2 0.895 2 2s-0.895 2-2 2v0c-1.105 0-2-0.895-2-2s0.895-2 2-2v0zM9 21c0-1.105 0.895-2 2-2s2 0.895 2 2v0c0 1.105-0.895 2-2 2s-2-0.895-2-2v0zM23 17c1.105 0 2 0.895 2 2s-0.895 2-2 2v0c-1.105 0-2-0.895-2-2s0.895-2 2-2v0z"/>
</svg>