<svg version="1.1" xmlns="http://www.w3.org/2000/svg" width="32" height="32" viewBox="0 0 32 32">
<path fill="currentColor" d="M16 32c8.837 0 16-7.163 16-16s-7.163-16-16-16v0c-8.837 0-16 7.163-16 16s7.163 16 16 16v0zM12.463 19.538c1.95 1.95 5.119 1.95 7.069 0 0.587-0.587 1.538-0.587 2.119 0s0.587 1.538 0 2.119c-3.125 3.125-8.188 3.125-11.313 0s-3.125-8.188 0-11.313 8.188-3.125 11.313 0c0.587 0.588 0.587 1.537 0 2.119s-1.538 0.588-2.119 0c-1.95-1.95-5.119-1.95-7.069 0s-1.95 5.119 0 7.069z"/>
</svg>