<svg version="1.1" xmlns="http://www.w3.org/2000/svg" width="40" height="32" viewBox="0 0 40 32">
<path fill="currentColor" d="M4 10c0-4.419 3.581-8 8-8h16c4.419 0 8 3.581 8 8v2.1c-2.281 0.463-4 2.481-4 4.9v3h-24v-3c0-2.419-1.719-4.438-4-4.9v-2.1zM34 17c0-1.306 0.837-2.419 2-2.831 0.313-0.113 0.65-0.169 1-0.169 1.656 0 3 1.344 3 3v11c0 1.106-0.894 2-2 2h-2c-1.106 0-2-0.894-2-2h-28c0 1.106-0.894 2-2 2h-2c-1.106 0-2-0.894-2-2v-11c0-1.656 1.344-3 3-3 0.35 0 0.688 0.063 1 0.169 1.162 0.412 2 1.525 2 2.831v5h28v-5z"/>
</svg>