<svg version="1.1" xmlns="http://www.w3.org/2000/svg" width="40" height="32" viewBox="0 0 40 32">
<path fill="currentColor" d="M6 14v12c0 1.106 0.894 2 2 2h2c1.106 0 2-0.894 2-2v-5.512c0.619 0.413 1.287 0.75 2 1.006v1.506c0 0.55 0.45 1 1 1s1-0.45 1-1v-1.056c0.331 0.038 0.663 0.056 1 0.056s0.669-0.019 1-0.056v1.056c0 0.55 0.45 1 1 1s1-0.45 1-1v-1.512c0.712-0.25 1.381-0.587 2-1.006v5.519c0 1.106 0.894 2 2 2h2c1.106 0 2-0.894 2-2v-10l2 2v3.094c0 0.594 0.175 1.169 0.506 1.663l2.619 3.931c0.55 0.819 1.469 1.313 2.456 1.313 1.406 0 2.619-0.994 2.894-2.375l1.269-6.35c0.163-0.813-0.019-1.656-0.5-2.331l-0.244-0.344v-5.1c0-0.831-0.669-1.5-1.5-1.5s-1.5 0.669-1.5 1.5v0.9l-3.306-4.631c-1.694-2.362-4.419-3.769-7.325-3.769h-16.369c-4.144 0-7.5 3.356-7.5 7.5v3.375c-0.912 0.738-1.5 1.863-1.5 3.125v1.1c0 0.5 0.4 0.9 0.9 0.9 1.988 0 3.6-1.613 3.6-3.6v-4.9c0-1.519 0.756-2.862 1.906-3.681-0.263 0.675-0.406 1.412-0.406 2.181v4zM35 21c0-0.552 0.448-1 1-1s1 0.448 1 1v0c0 0.552-0.448 1-1 1s-1-0.448-1-1v0zM10.412 10.412c-0.262-0.262-0.412-0.625-0.412-1 0-0.781 0.631-1.412 1.412-1.412h11.175c0.781 0 1.413 0.631 1.413 1.412 0 0.375-0.15 0.738-0.413 1l-1.462 1.463c-1.363 1.363-3.206 2.125-5.125 2.125s-3.762-0.762-5.119-2.119l-1.463-1.463z"/>
</svg>