<svg version="1.1" xmlns="http://www.w3.org/2000/svg" width="32" height="32" viewBox="0 0 32 32">
<path fill="currentColor" d="M16 0c1.106 0 2 0.894 2 2v0.65c5.856 0.869 10.481 5.5 11.35 11.35h0.65c1.106 0 2 0.894 2 2s-0.894 2-2 2h-0.65c-0.869 5.856-5.5 10.481-11.35 11.35v0.65c0 1.106-0.894 2-2 2s-2-0.894-2-2v-0.65c-5.856-0.869-10.481-5.494-11.35-11.35h-0.65c-1.106 0-2-0.894-2-2s0.894-2 2-2h0.65c0.869-5.856 5.494-10.481 11.35-11.35v-0.65c0-1.106 0.894-2 2-2zM6.713 18c0.781 3.644 3.65 6.506 7.287 7.288v-1.288c0-1.106 0.894-2 2-2s2 0.894 2 2v1.288c3.644-0.781 6.506-3.65 7.288-7.288h-1.288c-1.106 0-2-0.894-2-2s0.894-2 2-2h1.288c-0.781-3.644-3.644-6.506-7.288-7.287v1.287c0 1.106-0.894 2-2 2s-2-0.894-2-2v-1.287c-3.644 0.781-6.506 3.644-7.287 7.287h1.287c1.106 0 2 0.894 2 2s-0.894 2-2 2h-1.287zM16 14c1.105 0 2 0.895 2 2s-0.895 2-2 2v0c-1.105 0-2-0.895-2-2s0.895-2 2-2v0z"/>
</svg>