<svg version="1.1" xmlns="http://www.w3.org/2000/svg" width="40" height="32" viewBox="0 0 40 32">
<path fill="currentColor" d="M28.5 0c-3.038 0-5.5 2.462-5.5 5.5v1.825l-22.219 17.087c-0.875 0.675-1.038 1.931-0.369 2.806s1.931 1.038 2.806 0.369l4.662-3.587h8.319l2.913 7.069c0.313 0.769 1.194 1.131 1.956 0.819s1.131-1.194 0.819-1.956l-2.444-5.931h2.556c0.069 0 0.131 0 0.2 0l2.913 7.075c0.313 0.769 1.194 1.131 1.956 0.819s1.131-1.194 0.819-1.956l-2.625-6.375c5.044-1.431 8.737-6.063 8.737-11.563v-4.5l5.031-1.256c0.538-0.131 0.862-0.675 0.725-1.213-0.444-1.781-2.044-3.031-3.881-3.031h-3.131c-1.012-1.219-2.538-2-4.244-2zM28.5 4c0.828 0 1.5 0.672 1.5 1.5s-0.672 1.5-1.5 1.5v0c-0.828 0-1.5-0.672-1.5-1.5s0.672-1.5 1.5-1.5v0z"/>
</svg>