<svg version="1.1" xmlns="http://www.w3.org/2000/svg" width="36" height="32" viewBox="0 0 36 32">
<path fill="currentColor" d="M19.313 6.625c0.712-0.438 1.188-1.231 1.188-2.125 0-1.381-1.119-2.5-2.5-2.5s-2.5 1.119-2.5 2.5c0 0.9 0.475 1.688 1.188 2.125l-3.581 7.162c-0.569 1.137-2.044 1.463-3.037 0.669l-5.569-4.456c0.313-0.419 0.5-0.938 0.5-1.5 0-1.381-1.119-2.5-2.5-2.5s-2.5 1.119-2.5 2.5 1.119 2.5 2.5 2.5c0.013 0 0.031 0 0.044 0l2.856 15.712c0.344 1.9 2 3.288 3.938 3.288h17.325c1.931 0 3.587-1.381 3.938-3.288l2.856-15.713c0.013 0 0.031 0 0.044 0 1.381 0 2.5-1.119 2.5-2.5s-1.119-2.5-2.5-2.5-2.5 1.119-2.5 2.5c0 0.563 0.188 1.081 0.5 1.5l-5.569 4.456c-0.994 0.794-2.469 0.469-3.038-0.669l-3.581-7.162z"/>
</svg>