<svg version="1.1" xmlns="http://www.w3.org/2000/svg" width="32" height="32" viewBox="0 0 32 32">
<path fill="currentColor" d="M18.587 0.588c-0.781 0.781-0.781 2.050 0 2.831l10 10c0.781 0.781 2.050 0.781 2.831 0s0.781-2.050 0-2.831l-10-10c-0.781-0.781-2.050-0.781-2.831 0zM12.588 9.588l-2.175 2.175c-0.806 0.806-1.369 1.825-1.613 2.944l-1.5 6.725c-0.081 0.369-0.269 0.712-0.537 0.981l-6.175 6.175c-0.781 0.781-0.781 2.050 0 2.831s2.050 0.781 2.831 0l6.175-6.175c0.269-0.269 0.606-0.456 0.981-0.538l6.725-1.494c1.113-0.25 2.131-0.806 2.944-1.613l2.169-2.169c0 0 0.006-0.006 0.006-0.006s0.006-0.006 0.006-0.006l4.662-4.662-2.831-2.831-3.256 3.244-4.169-4.169 3.256-3.256-2.831-2.831-4.669 4.669zM14 13.831l4.169 4.169-0.762 0.762c-0.269 0.269-0.606 0.456-0.981 0.538l-4.794 1.063 1.063-4.794c0.081-0.369 0.269-0.713 0.537-0.981l0.769-0.756z"/>
</svg>