<svg version="1.1" xmlns="http://www.w3.org/2000/svg" width="28" height="32" viewBox="0 0 28 32">
<path fill="currentColor" d="M6 16c0-5.525 4.475-10 10-10 2.563 0 4.894 0.963 6.669 2.544 0.825 0.738 2.087 0.669 2.825-0.156s0.669-2.088-0.156-2.825c-2.475-2.219-5.75-3.563-9.331-3.563-7.738 0-14.006 6.269-14.006 14s6.269 14 14 14c3.588 0 6.856-1.35 9.331-3.563 0.825-0.738 0.894-2 0.156-2.825s-2-0.894-2.825-0.156c-1.769 1.581-4.1 2.544-6.662 2.544v-6.544c0-0.8 0.65-1.456 1.456-1.456 0.288 0 0.569 0.087 0.806 0.244l0.631 0.419c0.919 0.613 2.163 0.363 2.775-0.556s0.363-2.162-0.556-2.775l-0.631-0.419c-0.894-0.6-1.95-0.919-3.025-0.919-0.775 0-1.512 0.162-2.181 0.456-0.344-0.281-0.787-0.456-1.269-0.456-1.106 0-2 0.894-2 2v9.175c-3.537-1.544-6.006-5.069-6.006-9.169z"/>
</svg>