<svg version="1.1" xmlns="http://www.w3.org/2000/svg" width="32" height="32" viewBox="0 0 32 32">
<path fill="currentColor" d="M14.656 0.356c0.869-0.313 1.819-0.313 2.694 0l12 4.287c1.587 0.569 2.65 2.075 2.65 3.769v15.175c0 1.688-1.063 3.2-2.656 3.769l-12 4.287c-0.869 0.313-1.819 0.313-2.694 0l-12-4.288c-1.587-0.569-2.65-2.075-2.65-3.769v-15.175c0-1.688 1.063-3.2 2.656-3.769l12-4.287zM16 4.125l-10.856 3.875 10.856 3.875 10.856-3.875-10.856-3.875zM18 27.163l10-3.569v-11.75l-10 3.569v11.75z"/>
</svg>