<svg version="1.1" xmlns="http://www.w3.org/2000/svg" width="28" height="32" viewBox="0 0 28 32">
<path fill="currentColor" d="M12 4v4c0 1.106 0.894 2 2 2h4c1.106 0 2-0.894 2-2v-4c0-1.106-0.894-2-2-2h-4c-1.106 0-2 0.894-2 2zM5.169 12.938c-0.956 0.55-1.281 1.775-0.731 2.731l2 3.462c0.55 0.956 1.775 1.281 2.731 0.731l3.463-2c0.956-0.55 1.281-1.775 0.731-2.731l-2-3.463c-0.55-0.956-1.775-1.281-2.731-0.731l-3.463 2zM18 12c-1.106 0-2 0.894-2 2v4c0 1.106 0.894 2 2 2h4c1.106 0 2-0.894 2-2v-4c0-1.106-0.894-2-2-2h-4zM22 22c-1.106 0-2 0.894-2 2v4c0 1.106 0.894 2 2 2h4c1.106 0 2-0.894 2-2v-4c0-1.106-0.894-2-2-2h-4zM10 24v4c0 1.106 0.894 2 2 2h4c1.106 0 2-0.894 2-2v-4c0-1.106-0.894-2-2-2h-4c-1.106 0-2 0.894-2 2zM2 22c-1.106 0-2 0.894-2 2v4c0 1.106 0.894 2 2 2h4c1.106 0 2-0.894 2-2v-4c0-1.106-0.894-2-2-2h-4z"/>
</svg>