<svg version="1.1" xmlns="http://www.w3.org/2000/svg" width="36" height="32" viewBox="0 0 36 32">
<path fill="currentColor" d="M18.175 3.038l4.9 1.856-5.075 1.95-5.075-1.95 4.9-1.856c0.113-0.044 0.238-0.044 0.356 0zM8.5 5.781v7.012c-0.081 0.025-0.162 0.050-0.244 0.081l-6 2.275c-1.356 0.512-2.256 1.819-2.256 3.269v7.45c0 1.387 0.819 2.644 2.094 3.206l6 2.637c0.9 0.394 1.919 0.394 2.819 0l7.088-3.119 7.094 3.119c0.9 0.394 1.919 0.394 2.819 0l6-2.637c1.269-0.556 2.094-1.819 2.094-3.206v-7.45c0-1.456-0.9-2.756-2.256-3.275l-6-2.275c-0.081-0.031-0.163-0.056-0.244-0.081v-7.006c0-1.456-0.9-2.756-2.256-3.275l-6-2.275c-0.8-0.3-1.681-0.3-2.481 0l-6 2.275c-1.369 0.519-2.269 1.825-2.269 3.275zM24.5 13.162l-5.15 1.95v-5.575l5.15-1.975v5.6zM9.675 15.681l4.9 1.856-5.075 1.944-5.075-1.944 4.9-1.856c0.113-0.044 0.238-0.044 0.356 0zM10.85 28.456v-6.281l5.15-1.975v5.994l-5.15 2.262zM26.325 15.681c0.113-0.044 0.238-0.044 0.356 0l4.9 1.856-5.081 1.944-5.075-1.944 4.9-1.856zM32.7 26.325l-4.85 2.131v-6.281l5.15-1.975v5.669c0 0.2-0.119 0.375-0.3 0.456z"/>
</svg>