<svg version="1.1" xmlns="http://www.w3.org/2000/svg" width="40" height="32" viewBox="0 0 40 32">
<path fill="currentColor" d="M4 2c0-0.556 0.237-1.306 0.388-1.706 0.063-0.181 0.237-0.294 0.425-0.294 0.119 0 0.237 0.044 0.325 0.131l2.862 2.725 2.863-2.725c0.088-0.087 0.206-0.131 0.325-0.131 0.188 0 0.363 0.113 0.425 0.294 0.15 0.406 0.387 1.15 0.387 1.706 0 1.656-1.369 2.625-1.844 2.912l4.762 4.537c0.375 0.356 0.869 0.55 1.381 0.55h15.7c2.519 0 4.888 1.188 6.4 3.2l1.2 1.6c0.663 0.881 0.481 2.138-0.4 2.8s-2.138 0.481-2.8-0.4l-1.2-1.6c-0.331-0.438-0.737-0.8-1.2-1.063v5.463h-22l-2.525-5.894c-0.244-0.575-0.956-0.787-1.475-0.438l-2.631 1.75c-0.569 0.381-1.231 0.581-1.919 0.581h-0.125c-1.831 0-3.325-1.494-3.325-3.331 0-0.756 0.256-1.488 0.731-2.081l4.744-5.925c-0.594-0.45-1.475-1.337-1.475-2.663zM28 22h6v8c0 1.106-0.894 2-2 2h-2c-1.106 0-2-0.894-2-2v-4h-10v4c0 1.106-0.894 2-2 2h-2c-1.106 0-2-0.894-2-2v-8h16zM16.306 13.181c-0.056-0.113-0.175-0.181-0.3-0.181s-0.244 0.069-0.3 0.181l-0.656 1.281-1.469 0.206c-0.125 0.019-0.231 0.1-0.269 0.219s-0.006 0.244 0.081 0.331l1.063 1-0.25 1.413c-0.019 0.119 0.031 0.244 0.131 0.313s0.238 0.081 0.35 0.025l1.313-0.669 1.313 0.669c0.113 0.056 0.25 0.050 0.35-0.025s0.156-0.194 0.131-0.313l-0.25-1.413 1.063-1c0.094-0.088 0.125-0.213 0.081-0.331s-0.144-0.2-0.269-0.219l-1.469-0.206-0.656-1.281zM23.006 13c-0.125 0-0.244 0.069-0.3 0.181l-0.656 1.281-1.469 0.206c-0.125 0.019-0.231 0.1-0.269 0.219s-0.006 0.244 0.081 0.331l1.063 1-0.25 1.413c-0.019 0.119 0.031 0.244 0.131 0.313s0.238 0.081 0.35 0.025l1.313-0.669 1.313 0.669c0.113 0.056 0.25 0.050 0.35-0.025s0.156-0.194 0.131-0.313l-0.25-1.413 1.063-1c0.094-0.088 0.125-0.213 0.087-0.331s-0.144-0.2-0.269-0.219l-1.469-0.206-0.656-1.281c-0.056-0.113-0.175-0.181-0.3-0.181zM30.306 13.181c-0.056-0.113-0.175-0.181-0.3-0.181s-0.244 0.069-0.3 0.181l-0.656 1.281-1.469 0.206c-0.125 0.019-0.231 0.1-0.269 0.219s-0.006 0.244 0.081 0.331l1.063 1-0.25 1.413c-0.019 0.119 0.031 0.244 0.131 0.313s0.238 0.081 0.35 0.025l1.313-0.669 1.313 0.669c0.113 0.056 0.25 0.050 0.35-0.025s0.156-0.194 0.131-0.313l-0.25-1.413 1.063-1c0.094-0.088 0.125-0.213 0.087-0.331s-0.144-0.2-0.269-0.219l-1.469-0.206-0.656-1.281z"/>
</svg>