<svg version="1.1" xmlns="http://www.w3.org/2000/svg" width="32" height="32" viewBox="0 0 32 32">
<path fill="currentColor" d="M21.113 12.856l3.038-2.656c0.863 1.206 1.462 2.619 1.712 4.137l-4.025 0.269c-0.15-0.631-0.4-1.219-0.725-1.75zM29.869 14.075c-0.331-2.425-1.288-4.656-2.7-6.519l0.050-0.044c0.844-0.737 0.887-2.037 0.094-2.825s-2.087-0.75-2.825 0.094l-0.044 0.050c-1.863-1.413-4.094-2.369-6.519-2.7l0.006-0.069c0.075-1.119-0.813-2.063-1.931-2.063s-2.006 0.95-1.931 2.063l0.006 0.069c-2.425 0.331-4.656 1.288-6.519 2.7l-0.044-0.050c-0.737-0.844-2.037-0.888-2.825-0.094s-0.75 2.087 0.094 2.825l0.050 0.044c-1.413 1.862-2.369 4.094-2.7 6.519l-0.069-0.006c-1.119-0.075-2.063 0.813-2.063 1.931s0.95 2.006 2.063 1.931l0.069-0.006c0.331 2.425 1.288 4.656 2.7 6.519l-0.050 0.044c-0.844 0.738-0.888 2.038-0.094 2.825s2.087 0.75 2.825-0.094l0.044-0.050c1.862 1.413 4.094 2.369 6.519 2.7l-0.006 0.069c-0.075 1.119 0.813 2.063 1.931 2.063s2.006-0.95 1.931-2.063l-0.006-0.069c2.425-0.331 4.656-1.288 6.519-2.7l0.044 0.050c0.738 0.844 2.031 0.887 2.825 0.094s0.75-2.087-0.094-2.825l-0.050-0.044c1.413-1.863 2.369-4.094 2.7-6.519l0.069 0.006c1.119 0.075 2.063-0.813 2.063-1.931s-0.95-2.006-2.063-1.931l-0.069 0.006zM10.2 7.85c1.206-0.862 2.619-1.463 4.137-1.719l0.269 4.025c-0.625 0.15-1.219 0.4-1.75 0.725l-2.656-3.037zM6.138 14.338c0.256-1.525 0.856-2.931 1.719-4.138l3.038 2.656c-0.331 0.531-0.575 1.125-0.725 1.75l-4.025-0.269zM7.856 21.8c-0.862-1.206-1.462-2.619-1.719-4.137l4.025-0.269c0.15 0.625 0.4 1.219 0.725 1.75l-3.037 2.656zM14.344 25.863c-1.525-0.256-2.931-0.856-4.137-1.712l2.656-3.038c0.531 0.331 1.125 0.575 1.75 0.725l-0.269 4.025zM21.806 24.15c-1.206 0.863-2.619 1.462-4.137 1.712l-0.269-4.025c0.625-0.15 1.219-0.4 1.75-0.725l2.656 3.038zM25.869 17.663c-0.256 1.525-0.856 2.931-1.712 4.137l-3.038-2.656c0.331-0.531 0.575-1.125 0.725-1.75l4.025 0.269zM21.806 7.856l-2.656 3.038c-0.531-0.331-1.125-0.575-1.75-0.725l0.269-4.025c1.525 0.256 2.931 0.856 4.137 1.719zM16 14c1.105 0 2 0.895 2 2s-0.895 2-2 2v0c-1.105 0-2-0.895-2-2s0.895-2 2-2v0z"/>
</svg>