<svg version="1.1" xmlns="http://www.w3.org/2000/svg" width="32" height="32" viewBox="0 0 32 32">
<path fill="currentColor" d="M32 10c0 2.206-1.794 4-4 4h-10.5v4h2.881c1.337 0 2.006 1.619 1.063 2.563l-4.381 4.375c-0.587 0.587-1.537 0.587-2.119 0l-4.381-4.375c-0.944-0.944-0.275-2.563 1.063-2.563h2.875v-4h-10.5c-2.206 0-4-1.794-4-4v-4c0-2.206 1.794-4 4-4h24c2.206 0 4 1.794 4 4v4zM28 26v-4h-5.169l0.025-0.025c1.15-1.15 1.275-2.731 0.688-3.975h4.456c2.206 0 4 1.794 4 4v4c0 2.206-1.794 4-4 4h-24c-2.206 0-4-1.794-4-4v-4c0-2.206 1.794-4 4-4h4.456c-0.588 1.244-0.463 2.825 0.688 3.975l0.025 0.025h-5.169v4h9.169l0.356 0.356c1.369 1.369 3.581 1.369 4.95 0l0.356-0.356h9.169z"/>
</svg>