<svg version="1.1" xmlns="http://www.w3.org/2000/svg" width="32" height="32" viewBox="0 0 32 32">
<path fill="currentColor" d="M28 26v-4h-24v4h24zM28 30h-24c-2.206 0-4-1.794-4-4v-4c0-2.206 1.794-4 4-4h24c2.206 0 4 1.794 4 4v4c0 2.206-1.794 4-4 4zM18 10c0 2.206-1.794 4-4 4h-10c-2.206 0-4-1.794-4-4v-4c0-2.206 1.794-4 4-4h19c2.762 0 5 2.237 5 5v1h2.381c1.337 0 2.006 1.619 1.063 2.563l-4.381 4.375c-0.587 0.588-1.538 0.588-2.119 0l-4.381-4.375c-0.944-0.944-0.275-2.563 1.063-2.563h2.381v-1c0-0.55-0.45-1-1-1h-5v4z"/>
</svg>