<svg version="1.1" xmlns="http://www.w3.org/2000/svg" width="32" height="32" viewBox="0 0 32 32">
<path fill="currentColor" d="M32 26v-4c0-2.206-1.794-4-4-4h-24c-2.206 0-4 1.794-4 4v4c0 2.206 1.794 4 4 4h24c2.206 0 4-1.794 4-4zM4 10v-4h10v4h-10zM18 10v-4h5c0.55 0 1 0.45 1 1v1h-2.381c-1.337 0-2.006 1.619-1.063 2.563l4.381 4.375c0.587 0.588 1.538 0.588 2.119 0l4.381-4.375c0.944-0.944 0.275-2.563-1.063-2.563h-2.375v-1c0-2.763-2.238-5-5-5h-19c-2.206 0-4 1.794-4 4v4c0 2.206 1.794 4 4 4h10c2.206 0 4-1.794 4-4z"/>
</svg>