<svg version="1.1" xmlns="http://www.w3.org/2000/svg" width="32" height="32" viewBox="0 0 32 32">
<path fill="currentColor" d="M14.231 0.731c0.975-0.975 2.556-0.975 3.538 0l13.5 13.5c0.975 0.975 0.975 2.556 0 3.538l-13.5 13.5c-0.975 0.975-2.556 0.975-3.537 0l-13.5-13.5c-0.975-0.975-0.975-2.556 0-3.537l13.5-13.5zM19.706 9.294c-0.288-0.287-0.719-0.369-1.087-0.219s-0.619 0.519-0.619 0.925v3.5h-4c-2.206 0-4 1.794-4 4v3c0 0.831 0.669 1.5 1.5 1.5s1.5-0.669 1.5-1.5v-3c0-0.55 0.45-1 1-1h4v3.5c0 0.406 0.244 0.769 0.619 0.925s0.806 0.069 1.087-0.219l5-5c0.387-0.387 0.387-1.025 0-1.412l-5-5z"/>
</svg>