<svg version="1.1" xmlns="http://www.w3.org/2000/svg" width="40" height="32" viewBox="0 0 40 32">
<path fill="currentColor" d="M17.181 2.144c-1.756-1.756-4.606-1.756-6.363 0l-8.675 8.675c-1.756 1.756-1.756 4.606 0 6.363l8.675 8.675c1.756 1.756 4.606 1.756 6.363 0l8.675-8.675c1.756-1.756 1.756-4.606 0-6.363l-8.675-8.675zM12.5 14c0-0.828 0.672-1.5 1.5-1.5s1.5 0.672 1.5 1.5v0c0 0.828-0.672 1.5-1.5 1.5s-1.5-0.672-1.5-1.5v0zM6 12.5c0.828 0 1.5 0.672 1.5 1.5s-0.672 1.5-1.5 1.5v0c-0.828 0-1.5-0.672-1.5-1.5s0.672-1.5 1.5-1.5v0zM14 23.5c-0.828 0-1.5-0.672-1.5-1.5s0.672-1.5 1.5-1.5v0c0.828 0 1.5 0.672 1.5 1.5s-0.672 1.5-1.5 1.5v0zM22 12.5c0.828 0 1.5 0.672 1.5 1.5s-0.672 1.5-1.5 1.5v0c-0.828 0-1.5-0.672-1.5-1.5s0.672-1.5 1.5-1.5v0zM14 7.5c-0.828 0-1.5-0.672-1.5-1.5s0.672-1.5 1.5-1.5v0c0.828 0 1.5 0.672 1.5 1.5s-0.672 1.5-1.5 1.5v0zM20 28c0 2.206 1.794 4 4 4h12c2.206 0 4-1.794 4-4v-12c0-2.206-1.794-4-4-4h-7.144c0.725 2.25 0.194 4.813-1.587 6.594l-7.269 7.269v2.137zM30 20.5c0.828 0 1.5 0.672 1.5 1.5s-0.672 1.5-1.5 1.5v0c-0.828 0-1.5-0.672-1.5-1.5s0.672-1.5 1.5-1.5v0z"/>
</svg>