<svg version="1.1" xmlns="http://www.w3.org/2000/svg" width="32" height="32" viewBox="0 0 32 32">
<path fill="currentColor" d="M3.044 7.862l3.325 1.994c0.487 0.294 1.112 0.125 1.388-0.369l4.844-8.731c0.188-0.338-0.056-0.756-0.444-0.756-0.1 0-0.2 0.031-0.287 0.087l-8.875 6.088c-0.6 0.412-0.575 1.306 0.050 1.681zM1 10.731v7.725c0 0.5 0.65 0.688 0.919 0.275l3.75-5.75c0.313-0.475 0.162-1.113-0.325-1.406l-2.831-1.7c-0.663-0.4-1.512 0.081-1.512 0.856zM19.4 0.756l4.85 8.725c0.275 0.494 0.906 0.662 1.387 0.369l3.325-1.994c0.625-0.375 0.65-1.269 0.050-1.681l-8.881-6.088c-0.087-0.056-0.188-0.087-0.288-0.087-0.387 0-0.631 0.419-0.444 0.756zM31 10.731c0-0.775-0.85-1.256-1.512-0.856l-2.831 1.7c-0.488 0.294-0.631 0.931-0.325 1.406l3.75 5.75c0.269 0.419 0.919 0.225 0.919-0.275v-7.725zM27.919 26.106l-10.037 1.181c-0.506 0.056-0.881 0.488-0.881 0.994v3.3c0 0.231 0.188 0.425 0.425 0.425 0.050 0 0.1-0.006 0.15-0.025l10.794-4c0.381-0.137 0.631-0.5 0.631-0.906 0-0.581-0.506-1.031-1.081-0.962zM14.575 32c0.231 0 0.425-0.188 0.425-0.425v-3.288c0-0.506-0.381-0.931-0.881-0.994l-10.037-1.188c-0.575-0.069-1.081 0.381-1.081 0.962 0 0.406 0.25 0.769 0.631 0.906l10.794 4c0.050 0.019 0.1 0.025 0.15 0.025zM2.606 23.931l10.681 1.262c0.488 0.056 0.838-0.469 0.594-0.894l-5.356-9.375c-0.369-0.65-1.294-0.675-1.706-0.050l-4.931 7.512c-0.406 0.619-0.019 1.456 0.719 1.544zM30.081 22.381l-4.9-7.5c-0.406-0.625-1.337-0.6-1.706 0.050l-5.338 9.35c-0.244 0.425 0.1 0.95 0.594 0.894l10.631-1.25c0.738-0.087 1.125-0.919 0.719-1.538zM16.525 23.069l4.9-8.575c0.381-0.669-0.1-1.494-0.869-1.494h-9.113c-0.769 0-1.25 0.831-0.869 1.494l4.9 8.575c0.231 0.4 0.813 0.4 1.044 0zM10.9 11h10.2c0.762 0 1.244-0.819 0.875-1.488l-5-9c-0.175-0.319-0.512-0.512-0.875-0.512h-0.2c-0.363 0-0.7 0.2-0.875 0.512l-5 9c-0.369 0.669 0.113 1.488 0.875 1.488z"/>
</svg>