<svg version="1.1" xmlns="http://www.w3.org/2000/svg" width="28" height="32" viewBox="0 0 28 32">
<path fill="currentColor" d="M12.563 0.644c0.894-0.487 1.975-0.487 2.875 0l10.956 5.981c0.319 0.175 0.519 0.513 0.519 0.875s-0.2 0.7-0.519 0.875l-11.912 6.5c-0.3 0.162-0.656 0.162-0.956 0l-11.919-6.5c-0.319-0.175-0.519-0.513-0.519-0.875s0.2-0.7 0.519-0.875l10.956-5.981zM1.481 10.625l11 6c0.319 0.175 0.519 0.512 0.519 0.875v13.5c0 0.35-0.188 0.681-0.488 0.863s-0.681 0.187-0.988 0.019l-9.963-5.438c-0.963-0.525-1.563-1.531-1.563-2.631v-12.313c0-0.35 0.188-0.681 0.487-0.863s0.681-0.188 0.988-0.019zM26.525 10.625c0.313-0.169 0.688-0.162 0.988 0.019s0.488 0.506 0.488 0.863v12.306c0 1.1-0.6 2.106-1.563 2.631l-9.956 5.431c-0.313 0.169-0.688 0.163-0.988-0.019s-0.488-0.506-0.488-0.863v-13.494c0-0.369 0.2-0.7 0.519-0.875l11-6z"/>
</svg>