<svg version="1.1" xmlns="http://www.w3.org/2000/svg" width="32" height="32" viewBox="0 0 32 32">
<path fill="currentColor" d="M14.775 3.837l-0.588 0.881c-1.331 2-3.713 3.031-6.081 2.631l-3.725-0.619c-2.294-0.381-4.381 1.387-4.375 3.713 0 0.994 0.4 1.95 1.1 2.656l1.825 1.825c0.688 0.688 1.075 1.619 1.075 2.594 0 0.988-0.4 1.931-1.106 2.625l-0.819 0.8c-0.694 0.675-1.081 1.6-1.081 2.569 0 2.3 2.131 4.012 4.381 3.512l3.894-0.863c0.481-0.106 0.981-0.163 1.475-0.163h0.625c1.7 0 3.356 0.581 4.688 1.644l1.925 1.544c0.656 0.525 1.475 0.813 2.313 0.813 2.044 0 3.706-1.656 3.706-3.706v-1.575c0-2.181 1.337-4.137 3.369-4.925l2.306-0.894c1.4-0.544 2.325-1.894 2.325-3.394 0-1.756-1.256-3.269-2.988-3.581l-1.75-0.319c-2.281-0.419-4.088-2.156-4.6-4.419l-0.444-1.969c-0.419-1.881-2.094-3.219-4.019-3.219-1.375 0-2.662 0.688-3.431 1.837zM10 12c1.105 0 2 0.895 2 2s-0.895 2-2 2v0c-1.105 0-2-0.895-2-2s0.895-2 2-2v0zM18 13c0-0.552 0.448-1 1-1s1 0.448 1 1v0c0 0.552-0.448 1-1 1s-1-0.448-1-1v0zM18 18c1.105 0 2 0.895 2 2s-0.895 2-2 2v0c-1.105 0-2-0.895-2-2s0.895-2 2-2v0z"/>
</svg>