<svg version="1.1" xmlns="http://www.w3.org/2000/svg" width="28" height="32" viewBox="0 0 28 32">
<path fill="currentColor" d="M26 0c1.106 0 2 0.894 2 2 0 3.737-1.894 6.719-4.337 9.162-1.75 1.75-3.906 3.344-6.081 4.838l-0.156 0.106c-0.744 0.506-1.488 1.006-2.219 1.494v0 0 0l-0.1 0.063c-0.375 0.25-0.744 0.494-1.113 0.744-1.306 0.875-2.55 1.731-3.706 2.594h7.419c-0.613-0.462-1.256-0.919-1.919-1.381l0.438-0.294 0.188-0.125c0.944-0.631 1.931-1.288 2.919-1.975 1.563 1.131 3.056 2.331 4.338 3.606 2.438 2.45 4.331 5.431 4.331 9.169 0 1.106-0.894 2-2 2s-2-0.894-2-2h-20c0 1.106-0.894 2-2 2s-2-0.894-2-2c0-3.738 1.894-6.719 4.338-9.163 1.75-1.75 3.906-3.344 6.081-4.838-2.175-1.494-4.331-3.081-6.081-4.838-2.444-2.444-4.338-5.425-4.338-9.162 0-1.106 0.894-2 2-2s2 0.894 2 2h20c0-1.106 0.894-2 2-2zM21.163 24h-14.325c-0.631 0.663-1.162 1.331-1.594 2h17.512c-0.425-0.669-0.956-1.337-1.594-2zM6.838 8h14.325c0.631-0.669 1.163-1.331 1.594-2h-17.512c0.425 0.669 0.956 1.331 1.594 2zM10.3 11c1.15 0.863 2.4 1.719 3.706 2.594 1.306-0.875 2.55-1.731 3.706-2.594h-7.419z"/>
</svg>