<svg version="1.1" xmlns="http://www.w3.org/2000/svg" width="36" height="32" viewBox="0 0 36 32">
<path fill="currentColor" d="M19.35 9.906l1.444-8.669c0.119-0.713 0.738-1.238 1.462-1.238 0.469 0 0.906 0.219 1.188 0.594l1.056 1.406h3.256c0.794 0 1.556 0.319 2.119 0.881l1.125 1.119h3.5c0.831 0 1.5 0.669 1.5 1.5v1.5c0 2.763-2.237 5-5 5h-4.331l-0.319 1.906-7-4zM26 16.006v13.994c0 1.106-0.894 2-2 2h-2c-1.106 0-2-0.894-2-2v-7.2c-1.5 0.769-3.2 1.2-5 1.2s-3.5-0.431-5-1.2v7.2c0 1.106-0.894 2-2 2h-2c-1.106 0-2-0.894-2-2v-14.387c-1.8-0.681-3.212-2.206-3.7-4.156l-0.237-0.969c-0.269-1.069 0.381-2.156 1.456-2.425s2.156 0.381 2.425 1.456l0.244 0.969c0.219 0.887 1.019 1.512 1.938 1.512h12.863l7.012 4.006zM29 5c0-0.552-0.448-1-1-1s-1 0.448-1 1v0c0 0.552 0.448 1 1 1s1-0.448 1-1v0z"/>
</svg>