<svg version="1.1" xmlns="http://www.w3.org/2000/svg" width="20" height="32" viewBox="0 0 20 32">
<path fill="currentColor" d="M10 0c1.106 0 2 0.894 2 2v2.231c0.1 0.013 0.194 0.025 0.294 0.044 0.025 0.006 0.044 0.006 0.069 0.013l3 0.55c1.088 0.2 1.806 1.244 1.606 2.325s-1.244 1.806-2.325 1.606l-2.969-0.544c-1.956-0.287-3.681-0.094-4.894 0.387s-1.7 1.144-1.813 1.756c-0.125 0.669-0.031 1.044 0.075 1.275 0.112 0.244 0.344 0.519 0.8 0.825 1.019 0.669 2.581 1.106 4.606 1.644l0.181 0.050c1.787 0.475 3.975 1.050 5.6 2.113 0.887 0.581 1.725 1.369 2.244 2.469 0.531 1.119 0.644 2.369 0.4 3.7-0.431 2.375-2.069 3.962-4.1 4.794-0.856 0.35-1.787 0.575-2.775 0.688v2.075c0 1.106-0.894 2-2 2s-2-0.894-2-2v-2.181c-0.025-0.006-0.056-0.006-0.081-0.012h-0.013c-1.525-0.238-4.031-0.894-5.719-1.644-1.006-0.45-1.462-1.631-1.012-2.637s1.631-1.462 2.638-1.012c1.306 0.581 3.456 1.156 4.7 1.35 1.994 0.294 3.637 0.125 4.75-0.331 1.056-0.431 1.537-1.056 1.675-1.806 0.119-0.663 0.025-1.044-0.081-1.275-0.119-0.25-0.35-0.525-0.813-0.831-1.025-0.669-2.594-1.106-4.625-1.644l-0.175-0.044c-1.781-0.475-3.969-1.056-5.594-2.119-0.888-0.581-1.719-1.375-2.237-2.475-0.525-1.119-0.631-2.369-0.381-3.7 0.45-2.388 2.237-3.938 4.269-4.744 0.831-0.331 1.744-0.556 2.7-0.688v-2.206c0-1.106 0.894-2 2-2z"/>
</svg>