<svg version="1.1" xmlns="http://www.w3.org/2000/svg" width="36" height="32" viewBox="0 0 36 32">
<path fill="currentColor" d="M0 2c0-1.106 0.894-2 2-2h4.556c1.719 0 3.25 1.1 3.794 2.737l5.756 17.262c1.881 0.031 3.55 0.931 4.625 2.313l12.631-4.212c1.050-0.35 2.181 0.219 2.531 1.262s-0.219 2.181-1.263 2.531l-12.631 4.213c-0.056 3.262-2.719 5.894-6 5.894-3.313 0-6-2.688-6-6 0-1.925 0.906-3.637 2.313-4.738l-5.756-17.262h-4.556c-1.106 0-2-0.894-2-2zM15.3 8.406c-0.344-1.050 0.231-2.181 1.281-2.519l2.856-0.925 1.238 3.806 3.806-1.237-1.244-3.806 2.856-0.925c1.050-0.344 2.181 0.231 2.519 1.281l3.087 9.512c0.344 1.050-0.231 2.181-1.281 2.519l-9.512 3.087c-1.050 0.344-2.181-0.231-2.519-1.281l-3.088-9.512z"/>
</svg>