<svg version="1.1" xmlns="http://www.w3.org/2000/svg" width="24" height="32" viewBox="0 0 24 32">
<path fill="currentColor" d="M18 2c-1.106 0-2 0.894-2 2h-2c-1.106 0-2 0.894-2 2s0.894 2 2 2h2v3.069c-1.175-0.681-2.544-1.069-4-1.069-4.419 0-8 3.581-8 8s3.581 8 8 8c1.531 0 2.963-0.431 4.175-1.175 0.313 0.694 1.012 1.175 1.825 1.175 1.106 0 2-0.894 2-2v-16c1.106 0 2-0.894 2-2s-0.894-2-2-2c0-1.106-0.894-2-2-2zM8 18c0-2.209 1.791-4 4-4s4 1.791 4 4v0c0 2.209-1.791 4-4 4s-4-1.791-4-4v0zM2 28c-1.106 0-2 0.894-2 2s0.894 2 2 2h20c1.106 0 2-0.894 2-2s-0.894-2-2-2h-20z"/>
</svg>