<svg version="1.1" xmlns="http://www.w3.org/2000/svg" width="32" height="32" viewBox="0 0 32 32">
<path fill="currentColor" d="M10.050 6.031c0.875 1.063 1.938 1.931 3.094 2.637 1.619 0.988 3.356 1.619 4.856 1.975v-1.969c-1.387-1.894-2.375-4.206-2.463-6.925-0.025-0.706-0.469-1.344-1.15-1.525-0.475-0.125-0.988-0.013-1.313 0.363-0.831 0.963-2.044 2.787-3.025 5.45zM20 9v4c-3.8-0.319-11.563-2.738-13.706-9.825-0.206-0.675-0.8-1.175-1.506-1.175-0.494 0-0.956 0.244-1.175 0.688-0.688 1.431-1.613 4.319-1.613 8.313 0 7.306 5.006 11.281 7.4 12.675l-8.662 2.363c-0.319 0.087-0.575 0.325-0.681 0.637s-0.050 0.663 0.144 0.925c1.156 1.538 4.631 4.4 9.8 4.4 0.225 0 0.45-0.075 0.625-0.219l4.725-3.781h4.65c5.525 0 10-4.475 10-10v-10l1.869-2.806c0.081-0.125 0.131-0.275 0.131-0.425 0-0.425-0.344-0.769-0.769-0.769h-6.231c-2.762 0-5 2.237-5 5zM25 8c0.552 0 1 0.448 1 1s-0.448 1-1 1v0c-0.552 0-1-0.448-1-1s0.448-1 1-1v0z"/>
</svg>