<svg version="1.1" xmlns="http://www.w3.org/2000/svg" width="32" height="32" viewBox="0 0 32 32">
<path fill="currentColor" d="M18 2c0-1.106-0.894-2-2-2s-2 0.894-2 2v15.169l-4.588-4.588c-0.781-0.781-2.050-0.781-2.831 0s-0.781 2.050 0 2.831l8 8c0.781 0.781 2.050 0.781 2.831 0l8-8c0.781-0.781 0.781-2.050 0-2.831s-2.050-0.781-2.831 0l-4.581 4.587v-15.169zM4 22c-2.206 0-4 1.794-4 4v2c0 2.206 1.794 4 4 4h24c2.206 0 4-1.794 4-4v-2c0-2.206-1.794-4-4-4h-6.344l-2.831 2.831c-1.563 1.563-4.094 1.563-5.656 0l-2.825-2.831h-6.344zM27 25.5c0.828 0 1.5 0.672 1.5 1.5s-0.672 1.5-1.5 1.5v0c-0.828 0-1.5-0.672-1.5-1.5s0.672-1.5 1.5-1.5v0z"/>
</svg>