<svg version="1.1" xmlns="http://www.w3.org/2000/svg" width="40" height="32" viewBox="0 0 40 32">
<path fill="currentColor" d="M22 7.781l-3.244-0.813c-0.406-0.1-0.706-0.444-0.75-0.862s0.175-0.819 0.544-1.006l2.55-1.275-2.7-2.025c-0.344-0.256-0.488-0.706-0.35-1.119s0.519-0.681 0.95-0.681h10c1.887 0 3.669 0.887 4.8 2.4l3.6 4.8c0.388 0.519 0.6 1.15 0.6 1.8 0 1.656-1.344 3-3 3h-1.344c-1.063 0-2.081-0.419-2.831-1.169l-0.825-0.831h-2v1.344c0 1.55 0.8 2.994 2.113 3.819l6.662 4.162c2.006 1.256 3.225 3.45 3.225 5.819 0 3.788-3.069 6.856-6.862 6.856h-31.119c-0.206 0-0.413-0.025-0.6-0.087-0.575-0.175-1.044-0.6-1.269-1.156-0.087-0.212-0.138-0.431-0.15-0.669-0.013-0.231 0.019-0.456 0.081-0.669 0.175-0.575 0.6-1.044 1.163-1.275 0.188-0.075 0.387-0.125 0.594-0.137l25.244-2.256c0.519-0.044 0.919-0.481 0.919-1.006 0-0.269-0.106-0.525-0.294-0.712l-2.775-2.775c-1.875-1.875-2.931-4.419-2.931-7.069v-6.406zM32 4.519c0-0.006 0-0.013 0-0.019s0-0.013 0-0.019v0.037zM31.919 4.981l-2.9-0.725c-0.012 0.081-0.019 0.162-0.019 0.244 0 0.831 0.669 1.5 1.5 1.5 0.663 0 1.219-0.425 1.419-1.019zM8.181 7.281c1.019-0.906 2.525-1.013 3.656-0.256l8.162 5.438v1.725c0 2.050 0.525 4.050 1.5 5.813h-14.5c-0.419 0-0.794-0.262-0.938-0.65s-0.031-0.831 0.287-1.106l4.338-3.725-9.537 1.469c-0.438 0.069-0.869-0.162-1.056-0.563s-0.094-0.881 0.237-1.175l7.85-6.969z"/>
</svg>