<svg version="1.1" xmlns="http://www.w3.org/2000/svg" width="28" height="32" viewBox="0 0 28 32">
<path fill="currentColor" d="M6 9.463v13.075c0.606 0.35 1.112 0.856 1.463 1.462h13.075c0-0.006 0.006-0.012 0.006-0.019l-0.281-0.494-2-3.5c-0.087 0.006-0.175 0.006-0.262 0.006-2.206 0-4-1.794-4-4s1.794-4 4-4c0.087 0 0.175 0 0.262 0.006v0l2.281-3.994-0.006-0.019h-13.075c-0.35 0.606-0.856 1.112-1.463 1.462zM24.019 22c2.2 0.012 3.981 1.794 3.981 4s-1.794 4-4 4c-1.481 0-2.775-0.806-3.462-2h-13.075c-0.694 1.194-1.981 2-3.463 2-2.206 0-4-1.794-4-4 0-1.481 0.806-2.775 2-3.462v-13.075c-1.194-0.688-2-1.981-2-3.463 0-2.206 1.794-4 4-4 1.481 0 2.775 0.806 3.463 2h13.075c0.694-1.194 1.981-2 3.462-2 2.206 0 4 1.794 4 4s-1.781 3.987-3.981 4l-0.281 0.494-2.144 3.75c0.262 0.531 0.406 1.125 0.406 1.756s-0.144 1.225-0.406 1.756l0.144 0.25 2.281 3.994z"/>
</svg>