<svg version="1.1" xmlns="http://www.w3.org/2000/svg" width="40" height="32" viewBox="0 0 40 32">
<path fill="currentColor" d="M20 32c3.325 0 6.337-1.35 8.506-3.538l-18.644-14.688c-1.113 2.294-1.863 4.494-1.863 6.225 0 6.625 5.375 12 12 12zM31.575 23.169c0.275-1.006 0.425-2.069 0.425-3.169 0-5.7-8.137-16.394-10.413-19.269-0.375-0.469-0.931-0.731-1.531-0.731h-0.113c-0.6 0-1.156 0.263-1.531 0.731-1.050 1.331-3.369 4.35-5.55 7.769l-10.438-8.181c-0.65-0.512-1.594-0.394-2.106 0.256s-0.394 1.594 0.256 2.106l37 29c0.65 0.513 1.594 0.394 2.106-0.256s0.394-1.594-0.256-2.106l-7.85-6.15zM14 21c0 2.762 2.238 5 5 5 0.55 0 1 0.45 1 1s-0.45 1-1 1c-3.869 0-7-3.131-7-7 0-0.55 0.45-1 1-1s1 0.45 1 1z"/>
</svg>