<svg version="1.1" xmlns="http://www.w3.org/2000/svg" width="36" height="32" viewBox="0 0 36 32">
<path fill="currentColor" d="M18 2c9.944 0 18 3 18 8v12c0 5-8.056 8-18 8s-18-3-18-8v-12c0-5 8.056-8 18-8zM33 10c0-0.619-0.5-1.869-3.438-3.112-1.163-0.494-2.556-0.9-4.125-1.212l-1.738 2.725c-0.456 0.719-0.7 1.55-0.7 2.4 0 1.094 0.4 2.15 1.131 2.969l0.613 0.688c1.863-0.325 3.494-0.781 4.825-1.344 2.944-1.244 3.438-2.494 3.438-3.113zM21.825 14.831c-0.5-1.637-2.025-2.831-3.825-2.831s-3.331 1.194-3.825 2.831c1.213 0.106 2.494 0.169 3.825 0.169s2.613-0.056 3.825-0.169zM10.563 5.675c-1.575 0.313-2.963 0.725-4.125 1.212-2.938 1.244-3.438 2.494-3.438 3.113s0.5 1.869 3.438 3.113c1.331 0.563 2.963 1.019 4.825 1.344l0.613-0.688c0.725-0.819 1.131-1.875 1.131-2.969 0-0.85-0.244-1.681-0.7-2.4l-1.744-2.725zM14.081 5.175c-0.050 0.263-0.081 0.544-0.081 0.825 0 2.206 1.794 4 4 4s4-1.794 4-4c0-0.281-0.031-0.563-0.087-0.825-1.238-0.112-2.55-0.175-3.913-0.175s-2.675 0.063-3.912 0.175z"/>
</svg>