<svg version="1.1" xmlns="http://www.w3.org/2000/svg" width="32" height="32" viewBox="0 0 32 32">
<path fill="currentColor" d="M31.325 4.756c0.694-0.456 0.887-1.381 0.431-2.075s-1.381-0.887-2.075-0.431l-6.544 4.281c-2.15-0.362-4.575-0.531-7.137-0.531-8.838 0-16 2-16 7v10c0 1.956 1.712 3.675 4.5 4.919v-6.419c0-0.831 0.669-1.5 1.5-1.5s1.5 0.669 1.5 1.5v7.462c2.063 0.556 4.444 0.906 7 1.006v-6.469c0-0.831 0.669-1.5 1.5-1.5s1.5 0.669 1.5 1.5v6.469c2.556-0.1 4.938-0.45 7-1.006v-7.462c0-0.831 0.669-1.5 1.5-1.5s1.5 0.669 1.5 1.5v6.419c2.788-1.244 4.5-2.962 4.5-4.919v-10c0-2.569-1.887-4.344-4.925-5.463l4.244-2.781zM19.212 9.1l-4.037 2.644c-0.694 0.456-0.887 1.381-0.431 2.075s1.381 0.887 2.075 0.431l6.944-4.55c0.919 0.2 1.744 0.438 2.462 0.719 2.425 0.944 2.775 1.919 2.775 2.581 0 0.050-0.169 1.075-2.875 2.244-2.431 1.050-6 1.756-10.125 1.756s-7.694-0.706-10.125-1.756c-2.706-1.169-2.875-2.194-2.875-2.244 0-0.662 0.35-1.637 2.775-2.581 2.388-0.925 5.963-1.419 10.225-1.419 1.125 0 2.194 0.031 3.212 0.1z"/>
</svg>