<svg version="1.1" xmlns="http://www.w3.org/2000/svg" width="32" height="32" viewBox="0 0 32 32">
<path fill="currentColor" d="M10 16.575c0 0.531-0.213 1.038-0.588 1.413l-1.675 1.675c-0.769 0.769-2.031 0.712-3.087 0.45-0.287-0.075-0.588-0.113-0.9-0.113-2.069 0-3.75 1.681-3.75 3.75s1.681 3.75 3.75 3.75c0.394 0 0.75 0.356 0.75 0.75 0 2.069 1.681 3.75 3.75 3.75s3.75-1.681 3.75-3.75c0-0.313-0.037-0.613-0.113-0.906-0.262-1.056-0.325-2.319 0.45-3.087l1.675-1.675c0.375-0.375 0.881-0.587 1.412-0.587h5.575c0.394 0 0.775-0.019 1.156-0.063 0.744-0.075 1.025-0.969 0.675-1.625-0.531-0.988-0.831-2.113-0.831-3.313 0-3.869 3.131-7 7-7 0.5 0 0.981 0.050 1.45 0.15 0.731 0.156 1.506-0.369 1.375-1.1-0.919-5.138-5.419-9.044-10.825-9.044-6.075 0-11 4.925-11 11v5.575z"/>
</svg>