<svg version="1.1" xmlns="http://www.w3.org/2000/svg" width="40" height="32" viewBox="0 0 40 32">
<path fill="currentColor" d="M6 4c0-1.106 0.894-2 2-2h2c1.106 0 2 0.894 2 2v24c0 1.106-0.894 2-2 2h-2c-1.106 0-2-0.894-2-2v-4h-2c-1.106 0-2-0.894-2-2v-4c-1.106 0-2-0.894-2-2s0.894-2 2-2v-4c0-1.106 0.894-2 2-2h2v-4zM34 4v4h2c1.106 0 2 0.894 2 2v4c1.106 0 2 0.894 2 2s-0.894 2-2 2v4c0 1.106-0.894 2-2 2h-2v4c0 1.106-0.894 2-2 2h-2c-1.106 0-2-0.894-2-2v-24c0-1.106 0.894-2 2-2h2c1.106 0 2 0.894 2 2zM26 14v4h-12v-4h12z"/>
</svg>