<svg version="1.1" xmlns="http://www.w3.org/2000/svg" width="36" height="32" viewBox="0 0 36 32">
<path fill="currentColor" d="M3.106 2c-0.656 0-1.238 0.431-1.431 1.056l-1.619 5.256c-0.037 0.125-0.056 0.256-0.056 0.381 0 0.725 0.581 1.306 1.306 1.306h5.875l1.6-8h-5.675zM17 10v-8h-6.181l-1.6 8h7.781zM19 10h7.781l-1.6-8h-6.181v8zM28.819 10h5.875c0.719 0 1.306-0.581 1.306-1.306 0-0.131-0.019-0.256-0.056-0.381l-1.619-5.256c-0.194-0.625-0.775-1.056-1.431-1.056h-5.675l1.6 8zM2 12l0.25 2h-0.25c-1.106 0-2 0.894-2 2s0.894 2 2 2h0.75l1.25 10c0 1.106 0.894 2 2 2s2-0.894 2-2h20c0 1.106 0.894 2 2 2s2-0.894 2-2l1.25-10h0.75c1.106 0 2-0.894 2-2s-0.894-2-2-2h-0.25l0.25-2h-32z"/>
</svg>