<svg version="1.1" xmlns="http://www.w3.org/2000/svg" width="40" height="32" viewBox="0 0 40 32">
<path fill="currentColor" d="M3.106 2c-0.656 0-1.238 0.431-1.431 1.056l-1.619 5.256c-0.037 0.125-0.056 0.256-0.056 0.381 0 0.725 0.581 1.306 1.306 1.306h5.875l1.6-8h-5.675zM17 10v-8h-6.181l-1.6 8h7.781zM19 10h3.625c0.944-1.131 2.006-2.231 3.156-3.256 0.094-0.088 0.2-0.162 0.3-0.237l-0.9-4.506h-6.181v8zM32.119 8.519c1.087-0.987 2.744-1.013 3.856-0.075-0.006-0.044-0.019-0.088-0.031-0.131l-1.619-5.256c-0.194-0.625-0.775-1.056-1.431-1.056h-5.675l0.8 4.013c0.6 0.063 1.188 0.306 1.663 0.737 0.731 0.662 1.438 1.35 2.119 2.069 0.1-0.1 0.206-0.2 0.313-0.3zM20.325 13.169c0.238-0.387 0.494-0.781 0.769-1.169h-19.094l0.25 2h-0.25c-1.106 0-2 0.894-2 2s0.894 2 2 2h0.75l1.25 10c0 1.106 0.894 2 2 2s2-0.894 2-2h13.1c-1.938-2.169-3.1-5.038-3.1-8.119 0-2.2 1.019-4.6 2.325-6.713zM28.35 8.238c-0.175-0.156-0.394-0.231-0.613-0.238-0.225 0-0.45 0.075-0.625 0.231-2.075 1.856-3.837 3.963-5.088 5.988-1.231 1.994-2.025 4.137-2.025 5.788 0 5.488 4.394 9.994 10 9.994 5.544 0 10-4.5 10-9.988 0-1.262-0.6-3.181-1.513-4.938-0.925-1.781-2.231-3.656-3.775-5.069-0.35-0.319-0.9-0.325-1.25 0-0.6 0.55-1.163 1.225-1.656 1.844-1.081-1.294-2.238-2.494-3.469-3.606zM33.125 25.063c-0.938 0.625-1.938 0.938-3.063 0.938-2.813 0-5.063-1.813-5.063-4.875 0-1.5 0.938-2.813 2.813-5.125 0.25 0.313 3.875 4.938 3.875 4.938l2.25-2.625c0.188 0.25 0.313 0.5 0.438 0.75 1.125 2.063 0.625 4.688-1.25 6z"/>
</svg>