<svg version="1.1" xmlns="http://www.w3.org/2000/svg" width="32" height="32" viewBox="0 0 32 32">
<path fill="currentColor" d="M21.038 9.781c0.081 0.069 0.169 0.137 0.244 0.206 0.581 0.512 1.438 0.656 2.087 0.225l4.225-2.819c0.712-0.475 0.887-1.45 0.319-2.088-1.038-1.144-2.231-2.144-3.556-2.956-0.744-0.456-1.681-0.087-2.006 0.725l-1.906 4.762c-0.281 0.694 0.012 1.475 0.594 1.95zM20.5 2.3c0.319-0.8-0.1-1.712-0.938-1.906-1.144-0.256-2.337-0.394-3.563-0.394s-2.419 0.138-3.563 0.4c-0.844 0.188-1.262 1.1-0.938 1.9l1.894 4.737c0.281 0.706 1.050 1.075 1.813 1 0.262-0.025 0.525-0.037 0.794-0.037s0.538 0.012 0.794 0.037c0.756 0.075 1.525-0.294 1.813-1l1.894-4.737zM4.094 5.313c-0.569 0.638-0.394 1.612 0.319 2.088l4.225 2.819c0.644 0.431 1.506 0.287 2.088-0.225 0.081-0.069 0.162-0.144 0.25-0.206 0.581-0.469 0.869-1.256 0.594-1.95l-1.919-4.763c-0.325-0.806-1.269-1.175-2.006-0.725-1.325 0.813-2.519 1.813-3.55 2.962zM23.719 13.881c0.056 0.206 0.106 0.412 0.144 0.625 0.156 0.813 0.813 1.494 1.637 1.494h5c0.831 0 1.506-0.675 1.431-1.5-0.156-1.7-0.581-3.325-1.231-4.831-0.344-0.806-1.337-1.037-2.069-0.556l-4.287 2.856c-0.613 0.406-0.825 1.2-0.625 1.906zM3.369 9.113c-0.725-0.488-1.725-0.25-2.069 0.556-0.65 1.506-1.075 3.131-1.231 4.831-0.075 0.825 0.6 1.5 1.431 1.5h5c0.831 0 1.487-0.675 1.637-1.494 0.037-0.213 0.088-0.419 0.144-0.625 0.194-0.713-0.012-1.5-0.625-1.906l-4.287-2.862zM6.5 18h-5c-0.831 0-1.5 0.669-1.5 1.5v3c0 0.831 0.669 1.5 1.5 1.5h5c0.831 0 1.5-0.669 1.5-1.5v-3c0-0.831-0.669-1.5-1.5-1.5zM25.5 18c-0.831 0-1.5 0.669-1.5 1.5v3c0 0.831 0.669 1.5 1.5 1.5h5c0.831 0 1.5-0.669 1.5-1.5v-3c0-0.831-0.669-1.5-1.5-1.5h-5zM1.5 26c-0.831 0-1.5 0.669-1.5 1.5v3c0 0.831 0.669 1.5 1.5 1.5h5c0.831 0 1.5-0.669 1.5-1.5v-3c0-0.831-0.669-1.5-1.5-1.5h-5zM25.5 26c-0.831 0-1.5 0.669-1.5 1.5v3c0 0.831 0.669 1.5 1.5 1.5h5c0.831 0 1.5-0.669 1.5-1.5v-3c0-0.831-0.669-1.5-1.5-1.5h-5zM17 12c0-0.55-0.45-1-1-1s-1 0.45-1 1v17c0 0.55 0.45 1 1 1s1-0.45 1-1v-17zM13 14c0-0.55-0.45-1-1-1s-1 0.45-1 1v15c0 0.55 0.45 1 1 1s1-0.45 1-1v-15zM21 14c0-0.55-0.45-1-1-1s-1 0.45-1 1v15c0 0.55 0.45 1 1 1s1-0.45 1-1v-15z"/>
</svg>