<svg version="1.1" xmlns="http://www.w3.org/2000/svg" width="32" height="32" viewBox="0 0 32 32">
<path fill="currentColor" d="M24.894 0.212c-0.988-0.494-2.188-0.094-2.681 0.894s-0.094 2.181 0.887 2.681l0.025 0.013c0.025 0.013 0.069 0.038 0.131 0.075 0.125 0.075 0.313 0.188 0.544 0.35 0.469 0.325 1.1 0.825 1.731 1.513 1.25 1.35 2.469 3.388 2.469 6.263 0 1.106 0.894 2 2 2s2-0.894 2-2c0-4.125-1.781-7.088-3.531-8.981-0.869-0.944-1.738-1.631-2.387-2.081-0.331-0.231-0.606-0.4-0.813-0.519-0.1-0.063-0.188-0.106-0.25-0.138-0.031-0.019-0.056-0.031-0.075-0.044l-0.038-0.019h-0.006c0 0 0 0-0.894 1.788l0.887-1.794zM8.044 14.219c0.387-3.5 3.356-6.219 6.956-6.219 3.869 0 7 3.131 7 7 0 1.831-0.7 3.494-1.85 4.744-1.063 1.15-2.15 2.819-2.15 4.875v0.381c0 1.656-1.344 3-3 3-1.106 0-2 0.894-2 2s0.894 2 2 2c3.869 0 7-3.131 7-7v-0.381c0-0.613 0.337-1.356 1.087-2.169 1.806-1.956 2.913-4.575 2.913-7.45 0-6.075-4.925-11-11-11-5.662 0-10.325 4.281-10.931 9.781-0.119 1.1 0.669 2.088 1.769 2.206s2.087-0.669 2.206-1.769zM2 32c1.105 0 2-0.895 2-2s-0.895-2-2-2v0c-1.105 0-2 0.895-2 2s0.895 2 2 2v0zM12 22c0-1.105-0.895-2-2-2s-2 0.895-2 2v0c0 1.105 0.895 2 2 2s2-0.895 2-2v0zM2.587 22.587c-0.781 0.781-0.781 2.050 0 2.831l4 4c0.781 0.781 2.050 0.781 2.831 0s0.781-2.050 0-2.831l-4-4c-0.781-0.781-2.050-0.781-2.831 0zM13 15c0-1.106 0.894-2 2-2s2 0.894 2 2c0 0.831 0.669 1.5 1.5 1.5s1.5-0.669 1.5-1.5c0-2.762-2.238-5-5-5s-5 2.238-5 5c0 0.831 0.669 1.5 1.5 1.5s1.5-0.669 1.5-1.5z"/>
</svg>