<svg version="1.1" xmlns="http://www.w3.org/2000/svg" width="32" height="32" viewBox="0 0 32 32">
<path fill="currentColor" d="M31.413 3.413l-2.5 2.5c-0.781 0.781-2.050 0.781-2.831 0s-0.781-2.050 0-2.831l2.5-2.5c0.781-0.781 2.050-0.781 2.831 0s0.781 2.050 0 2.831zM11.412 23.413l-8 8c-0.781 0.781-2.050 0.781-2.831 0s-0.781-2.050 0-2.831l8-8c0.781-0.781 2.050-0.781 2.831 0s0.781 2.050 0 2.831zM15 8c-3.6 0-6.569 2.725-6.956 6.219-0.119 1.1-1.112 1.887-2.206 1.769s-1.888-1.113-1.769-2.206c0.606-5.5 5.269-9.781 10.931-9.781 6.075 0 11 4.925 11 11 0 2.875-1.106 5.494-2.913 7.456-0.75 0.813-1.087 1.55-1.087 2.169v0.375c0 3.869-3.131 7-7 7-1.106 0-2-0.894-2-2s0.894-2 2-2c1.656 0 3-1.344 3-3v-0.381c0-2.056 1.087-3.725 2.15-4.875 1.15-1.25 1.85-2.913 1.85-4.744 0-3.869-3.131-7-7-7zM15 13c-1.106 0-2 0.894-2 2 0 0.831-0.669 1.5-1.5 1.5s-1.5-0.669-1.5-1.5c0-2.762 2.238-5 5-5s5 2.238 5 5c0 0.831-0.669 1.5-1.5 1.5s-1.5-0.669-1.5-1.5c0-1.106-0.894-2-2-2z"/>
</svg>