<svg version="1.1" xmlns="http://www.w3.org/2000/svg" width="32" height="32" viewBox="0 0 32 32">
<path fill="currentColor" d="M16 32c8.837 0 16-7.163 16-16s-7.163-16-16-16v0c-8.837 0-16 7.163-16 16s7.163 16 16 16v0zM13.037 22.331l-2.438-0.844c-0.406-0.137-0.85-0.144-1.256-0.019l-0.956 0.306c-1.156 0.369-2.406-0.15-2.969-1.219l-0.206-0.387c-0.662-1.256-0.144-2.813 1.138-3.419l2.206-1.050c0.144-0.069 0.275-0.175 0.369-0.3l0.331-0.438c0.45-0.6 1.162-0.956 1.912-0.956s1.463 0.356 1.912 0.956l0.287 0.381c0.125 0.162 0.306 0.281 0.506 0.319 0.488 0.1 0.981-0.094 1.275-0.494l0.65-0.887c0.125-0.175 0.331-0.275 0.544-0.275 0.275 0 0.525 0.169 0.625 0.425l0.631 1.619c0.175 0.45 0.419 0.875 0.719 1.262l1.119 1.425c0.363 0.462 0.563 1.038 0.563 1.625s-0.2 1.163-0.563 1.625l-0.75 0.962c-0.519 0.663-1.313 1.050-2.15 1.050-0.525 0-1.037-0.15-1.481-0.438l-1.588-1.025c-0.137-0.087-0.281-0.156-0.431-0.212zM17.113 8.906l1.387 1.387c0.631 0.631 0.181 1.706-0.706 1.706h-1.869c-0.35 0-0.694-0.075-1.012-0.213l-2.675-1.188c-0.894-0.394-0.744-1.706 0.213-1.894l2.406-0.481c0.819-0.162 1.669 0.094 2.256 0.681zM15.5 27c0-0.55 0.45-1 1-1h1c0.55 0 1 0.45 1 1s-0.45 1-1 1h-1c-0.55 0-1-0.45-1-1zM26.95 18.681l0.5 1.5c0.175 0.525-0.106 1.087-0.631 1.262s-1.087-0.106-1.262-0.631l-0.5-1.5c-0.175-0.525 0.106-1.087 0.631-1.262s1.087 0.106 1.262 0.631zM25.706 23.706l-2 2c-0.387 0.387-1.025 0.387-1.413 0s-0.387-1.025 0-1.413l2-2c0.387-0.387 1.025-0.387 1.413 0s0.387 1.025 0 1.413z"/>
</svg>