<svg version="1.1" xmlns="http://www.w3.org/2000/svg" width="32" height="32" viewBox="0 0 32 32">
<path fill="currentColor" d="M3.606 12.063l0.588 1.025c0.519 0.906 1.369 1.575 2.375 1.863l3.619 1.031c1.075 0.306 1.813 1.287 1.813 2.406v2.494c0 0.688 0.387 1.313 1 1.619s1 0.931 1 1.619v2.438c0 0.975 0.931 1.681 1.869 1.413 1.006-0.288 1.787-1.094 2.044-2.113l0.175-0.7c0.262-1.056 0.95-1.962 1.894-2.5l0.506-0.288c0.938-0.531 1.512-1.531 1.512-2.606v-0.519c0-0.794-0.319-1.556-0.881-2.119l-0.244-0.244c-0.563-0.563-1.325-0.881-2.119-0.881h-2.694c-0.694 0-1.381-0.181-1.988-0.525l-2.156-1.231c-0.269-0.156-0.475-0.406-0.575-0.7-0.2-0.6 0.069-1.25 0.637-1.531l0.369-0.188c0.412-0.206 0.894-0.244 1.331-0.094l1.45 0.481c0.512 0.169 1.075-0.025 1.369-0.469 0.294-0.438 0.262-1.019-0.075-1.425l-0.85-1.019c-0.625-0.75-0.619-1.844 0.019-2.581l0.981-1.144c0.55-0.644 0.637-1.563 0.219-2.294l-0.15-0.263c-0.219-0.013-0.431-0.019-0.65-0.019-5.8 0-10.719 3.806-12.387 9.063zM29 16c0-2.3-0.6-4.463-1.65-6.344l-1.6 0.644c-0.981 0.394-1.488 1.488-1.156 2.488l1.056 3.169c0.219 0.65 0.75 1.144 1.413 1.306l1.819 0.456c0.075-0.563 0.113-1.137 0.113-1.719zM0 16c0-8.837 7.163-16 16-16s16 7.163 16 16v0c0 8.837-7.163 16-16 16s-16-7.163-16-16v0z"/>
</svg>