<svg version="1.1" xmlns="http://www.w3.org/2000/svg" width="32" height="32" viewBox="0 0 32 32">
<path fill="currentColor" d="M3.231 18.444l1.981 0.394c0.494 0.1 1-0.056 1.356-0.413l0.963-0.962c0.725-0.725 1.944-0.525 2.4 0.387l0.581 1.156c0.3 0.6 0.912 0.981 1.588 0.981 0.95 0 1.631-0.913 1.356-1.825l-0.375-1.244c-0.287-0.963 0.431-1.931 1.438-1.931h0.144c0.838 0 1.619-0.419 2.081-1.113l0.669-1.006c0.35-0.531 0.331-1.225-0.050-1.731l-1.006-1.344c-0.644-0.856-0.206-2.094 0.837-2.356l1.063-0.269c0.469-0.119 0.85-0.45 1.031-0.9l1.025-2.556c-1.35-0.456-2.8-0.712-4.313-0.712-7.181 0-13 5.819-13 13 0 0.837 0.081 1.656 0.231 2.444zM28.712 18.731c-0.188-0.019-0.375-0.006-0.563 0.050l-0.988 0.275c-0.419 0.119-0.863-0.056-1.094-0.419l-0.125-0.194c-0.375-0.587-1.025-0.944-1.725-0.944s-1.35 0.356-1.725 0.944l-0.381 0.594c-0.087 0.137-0.212 0.256-0.356 0.331l-2.256 1.262c-1.131 0.631-1.594 2.025-1.063 3.206l0.344 0.775c0.538 1.2 1.919 1.781 3.156 1.319l0.163-0.063c0.625-0.231 1.331-0.137 1.869 0.256l0.094 0.069c2.325-1.844 4.006-4.462 4.65-7.469zM0 16c0-8.837 7.163-16 16-16s16 7.163 16 16v0c0 8.837-7.163 16-16 16s-16-7.163-16-16v0zM9.031 21.756c-0.131 0.538 0.194 1.081 0.725 1.212l2 0.5c0.537 0.131 1.081-0.194 1.213-0.725s-0.194-1.081-0.725-1.212l-2-0.5c-0.537-0.131-1.081 0.194-1.213 0.725zM14.781 20.506c-0.131 0.538 0.194 1.081 0.725 1.212s1.081-0.194 1.213-0.725l0.5-2c0.131-0.538-0.194-1.081-0.725-1.212s-1.081 0.194-1.213 0.725l-0.5 2zM21.45 7.106c-0.494-0.25-1.094-0.044-1.344 0.45l-1 2c-0.25 0.494-0.044 1.094 0.45 1.344s1.094 0.044 1.344-0.45l1-2c0.25-0.494 0.044-1.094-0.45-1.344z"/>
</svg>