<svg version="1.1" xmlns="http://www.w3.org/2000/svg" width="32" height="32" viewBox="0 0 32 32">
<path fill="currentColor" d="M11.113 3.95l0.625 1.087c0.175 0.3 0.262 0.644 0.262 0.994v2.588c0 0.244 0.1 0.481 0.269 0.65 0.387 0.387 1.031 0.356 1.375-0.075l0.85-1.063c0.294-0.369 0.806-0.481 1.225-0.269l0.95 0.475c0.212 0.106 0.45 0.162 0.688 0.162 0.406 0 0.8-0.162 1.087-0.45l0.244-0.244c0.181-0.181 0.456-0.225 0.688-0.112l1.825 0.913c0.488 0.244 0.788 0.738 0.788 1.281 0 0.656-0.444 1.225-1.081 1.387l-2.212 0.55c-0.462 0.113-0.944 0.094-1.4-0.056l-2-0.669c-0.206-0.069-0.419-0.106-0.637-0.106-0.438 0-0.863 0.144-1.213 0.406l-2.444 1.85c-0.631 0.475-1 1.213-1 2v1.75c0 1.656 1.344 3 3 3h2c0.55 0 1 0.45 1 1v3c0 1.106 0.894 2 2 2 0.631 0 1.225-0.294 1.6-0.8l1.6-2.131c0.519-0.694 0.8-1.538 0.8-2.4v-0.756c0-0.244 0.163-0.456 0.4-0.512l0.331-0.081c0.744-0.188 1.269-0.856 1.269-1.625 0-0.444-0.175-0.869-0.488-1.181l-2.094-2.094c-0.231-0.231-0.231-0.606 0-0.838 0.356-0.356 0.881-0.481 1.363-0.319l0.881 0.294c0.769 0.256 1.606-0.094 1.969-0.813 0.219-0.438 0.7-0.675 1.181-0.575l1.712 0.344c-1.525-5.487-6.556-9.512-12.525-9.512-1.731 0-3.375 0.337-4.887 0.95zM0 16c0-8.837 7.163-16 16-16s16 7.163 16 16v0c0 8.837-7.163 16-16 16s-16-7.163-16-16v0z"/>
</svg>