<svg version="1.1" xmlns="http://www.w3.org/2000/svg" width="32" height="32" viewBox="0 0 32 32">
<path fill="currentColor" d="M16.644 3.019l-2.113 1.581c-0.338 0.25-0.531 0.65-0.531 1.069v0.569c0 0.425 0.344 0.769 0.769 0.769 0.15 0 0.3-0.044 0.425-0.131l2.613-1.744c0.125-0.081 0.275-0.131 0.425-0.131h0.063c0.387 0 0.706 0.319 0.706 0.706 0 0.188-0.075 0.369-0.206 0.5l-1.244 1.244c-0.363 0.362-0.806 0.637-1.294 0.8l-1.656 0.55c-0.363 0.119-0.6 0.456-0.6 0.838 0 0.231-0.094 0.456-0.256 0.625l-1.119 1.119c-0.4 0.4-0.619 0.938-0.619 1.5v0.269c0 1.025 0.85 1.856 1.869 1.856 0.688 0 1.325-0.387 1.631-1l0.25-0.506c0.15-0.3 0.462-0.494 0.8-0.494 0.281 0 0.544 0.131 0.712 0.356l1.019 1.356c0.131 0.181 0.344 0.281 0.569 0.281 0.525 0 0.869-0.556 0.631-1.025l-0.069-0.144c-0.219-0.438 0-0.969 0.469-1.125l1.325-0.444c0.475-0.156 0.794-0.6 0.794-1.1 0-0.644 0.519-1.162 1.163-1.162h1.831c0.55 0 1 0.45 1 1s-0.45 1-1 1h-1.294c-0.45 0-0.887 0.181-1.206 0.5l-0.294 0.294c-0.131 0.131-0.206 0.313-0.206 0.5 0 0.387 0.319 0.706 0.706 0.706h0.706c0.375 0 0.738 0.15 1 0.412l0.406 0.406c0.113 0.113 0.175 0.269 0.175 0.425s-0.063 0.313-0.175 0.425l-0.469 0.469c-0.225 0.238-0.35 0.544-0.35 0.863s0.125 0.625 0.356 0.856l1.144 1.144c0.637 0.637 1.506 1 2.413 1h0.462c0.406-1.262 0.625-2.606 0.625-4 0-6.963-5.475-12.65-12.356-12.981zM27.394 22.262c-0.231-0.163-0.512-0.256-0.813-0.256-0.375 0-0.738-0.15-1-0.413l-0.831-0.844c-0.481-0.481-1.125-0.75-1.806-0.75-0.606 0-1.2-0.219-1.663-0.613l-1.656-1.425c-0.725-0.619-1.65-0.962-2.606-0.962h-1.306c-0.787 0-1.563 0.231-2.219 0.669l-1.713 1.144c-1.113 0.744-1.781 1.994-1.781 3.331v0.2c0 1.063 0.419 2.081 1.169 2.831l1 1c0.531 0.531 1.25 0.831 2 0.831h1.331c0.831 0 1.5 0.669 1.5 1.5 0 0.156 0.025 0.313 0.069 0.456 4.456-0.363 8.281-2.975 10.325-6.7zM0 16c0-8.837 7.163-16 16-16s16 7.163 16 16v0c0 8.837-7.163 16-16 16s-16-7.163-16-16v0zM11.706 6.294c-0.387-0.388-1.025-0.388-1.412 0l-2 2c-0.388 0.387-0.388 1.025 0 1.412s1.025 0.387 1.412 0l2-2c0.387-0.388 0.387-1.025 0-1.412z"/>
</svg>