<svg version="1.1" xmlns="http://www.w3.org/2000/svg" width="32" height="32" viewBox="0 0 32 32">
<path fill="currentColor" d="M8.294 0.294l-4 4c-0.287 0.287-0.369 0.719-0.219 1.087s0.519 0.619 0.925 0.619h8c0.406 0 0.769-0.244 0.925-0.619s0.069-0.806-0.219-1.088l-4-4c-0.387-0.388-1.025-0.388-1.412 0zM4 8c-2.206 0-4 1.794-4 4v16c0 2.206 1.794 4 4 4h24c2.206 0 4-1.794 4-4v-16c0-2.206-1.794-4-4-4h-24zM10 14c1.657 0 3 1.343 3 3s-1.343 3-3 3v0c-1.657 0-3-1.343-3-3s1.343-3 3-3v0zM5 25c0-1.656 1.344-3 3-3h4c1.656 0 3 1.344 3 3v1c0 1.106-0.894 2-2 2h-6c-1.106 0-2-0.894-2-2v-1zM17 25c0-1.656 1.344-3 3-3h4c1.656 0 3 1.344 3 3v1c0 1.106-0.894 2-2 2h-6c-1.106 0-2-0.894-2-2v-1zM19 17c0-1.657 1.343-3 3-3s3 1.343 3 3v0c0 1.657-1.343 3-3 3s-3-1.343-3-3v0zM22.294 5.706c0.387 0.388 1.025 0.388 1.413 0l4-4c0.288-0.288 0.369-0.719 0.219-1.087s-0.519-0.619-0.925-0.619h-8c-0.406 0-0.769 0.244-0.925 0.619s-0.069 0.806 0.219 1.087l4 4z"/>
</svg>