<svg version="1.1" xmlns="http://www.w3.org/2000/svg" width="40" height="32" viewBox="0 0 40 32">
<path fill="currentColor" d="M3 4c-1.656 0-3 1.344-3 3 0 0.944 0.444 1.831 1.2 2.4l13.6 10.2c0.713 0.531 1.687 0.531 2.4 0l3.587-2.688c1.494-3.738 4.981-6.456 9.144-6.863l0.869-0.65c0.756-0.569 1.2-1.456 1.2-2.4 0-1.656-1.344-3-3-3h-26zM18.4 21.2c-1.425 1.069-3.375 1.069-4.8 0l-13.6-10.2v13c0 2.206 1.794 4 4 4h18.512c-1.569-1.9-2.512-4.344-2.512-7 0-0.35 0.019-0.694 0.050-1.038l-1.65 1.238zM40 21c0-4.971-4.029-9-9-9s-9 4.029-9 9v0c0 4.971 4.029 9 9 9s9-4.029 9-9v0zM35.206 18.294c0.388 0.387 0.388 1.025 0 1.413l-4.5 4.5c-0.387 0.387-1.025 0.387-1.413 0l-2.5-2.5c-0.387-0.387-0.387-1.025 0-1.413s1.025-0.387 1.413 0l1.794 1.794 3.794-3.794c0.388-0.387 1.025-0.387 1.413 0z"/>
</svg>