<svg version="1.1" xmlns="http://www.w3.org/2000/svg" width="40" height="32" viewBox="0 0 40 32">
<path fill="currentColor" d="M8 0c-1.106 0-2 0.894-2 2v12h6v-2c0-2.206 1.794-4 4-4h14v-6c0-1.106-0.894-2-2-2h-20zM16 10c-1.106 0-2 0.894-2 2v2h6c2.206 0 4 1.794 4 4v8h12c1.106 0 2-0.894 2-2v-12c0-1.106-0.894-2-2-2h-20zM31 14h2c0.55 0 1 0.45 1 1v2c0 0.55-0.45 1-1 1h-2c-0.55 0-1-0.45-1-1v-2c0-0.55 0.45-1 1-1zM4 16c-1.106 0-2 0.894-2 2v0.813l9.694 7.181c0.088 0.063 0.194 0.1 0.306 0.1s0.219-0.038 0.306-0.1l9.694-7.181v-0.813c0-1.106-0.894-2-2-2h-16zM22 21.3l-8.5 6.3c-0.431 0.319-0.956 0.494-1.5 0.494s-1.063-0.175-1.5-0.494l-8.5-6.3v8.7c0 1.106 0.894 2 2 2h16c1.106 0 2-0.894 2-2v-8.7z"/>
</svg>