<svg version="1.1" xmlns="http://www.w3.org/2000/svg" width="32" height="32" viewBox="0 0 32 32">
<path fill="currentColor" d="M13.463 6h-7.463v11.087l-5.987-4.431c0.1-1.131 0.681-2.181 1.606-2.862l1.381-1.025v-2.769c0-1.656 1.344-3 3-3h4.787l3.119-2.306c0.606-0.45 1.338-0.694 2.094-0.694s1.488 0.244 2.094 0.688l3.119 2.313h4.788c1.656 0 3 1.344 3 3v2.769l1.381 1.025c0.925 0.681 1.506 1.731 1.606 2.863l-5.988 4.431v-11.088h-12.537zM0 28v-12.869l13.6 10.075c0.694 0.512 1.537 0.794 2.4 0.794s1.706-0.275 2.4-0.794l13.6-10.075v12.869c0 2.206-1.794 4-4 4h-24c-2.206 0-4-1.794-4-4v0zM11 10h10c0.55 0 1 0.45 1 1s-0.45 1-1 1h-10c-0.55 0-1-0.45-1-1s0.45-1 1-1zM11 14h10c0.55 0 1 0.45 1 1s-0.45 1-1 1h-10c-0.55 0-1-0.45-1-1s0.45-1 1-1z"/>
</svg>