<svg version="1.1" xmlns="http://www.w3.org/2000/svg" width="20" height="32" viewBox="0 0 20 32">
<path fill="currentColor" d="M3.006 15c-0.006 0.169-0.006 0.331-0.006 0.5v1c0 0.169 0 0.331 0.006 0.5h-1.006c-1.106 0-2 0.894-2 2s0.894 2 2 2h1.769c1.85 5.244 6.856 9 12.731 9h1.5c1.106 0 2-0.894 2-2s-0.894-2-2-2h-1.5c-3.619 0-6.762-2.025-8.369-5h7.869c1.106 0 2-0.894 2-2s-0.894-2-2-2h-8.988c-0.006-0.163-0.013-0.331-0.013-0.5v-1c0-0.169 0.006-0.338 0.013-0.5h8.988c1.106 0 2-0.894 2-2s-0.894-2-2-2h-7.869c1.606-2.975 4.75-5 8.369-5h1.5c1.106 0 2-0.894 2-2s-0.894-2-2-2h-1.5c-5.875 0-10.881 3.756-12.731 9h-1.769c-1.106 0-2 0.894-2 2s0.894 2 2 2h1.006z"/>
</svg>