<svg version="1.1" xmlns="http://www.w3.org/2000/svg" width="36" height="32" viewBox="0 0 36 32">
<path fill="currentColor" d="M31.225 0.706c0.419-0.669 1.281-0.906 1.981-0.531s0.987 1.219 0.663 1.937l-8.569 19.050c0.137 0.144 0.269 0.294 0.394 0.444l6.075-3.419c0.656-0.369 1.475-0.194 1.931 0.4s0.394 1.438-0.138 1.969l-5.438 5.438h-4.469c-0.825-2.331-3.044-4-5.656-4s-4.838 1.669-5.656 4h-4.981l-4.719-3.262c-0.606-0.419-0.819-1.225-0.494-1.894s1.087-0.994 1.794-0.775l6.075 1.9c0.188-0.244 0.381-0.481 0.588-0.706l-3.894-6.488c-0.381-0.631-0.244-1.444 0.319-1.919s1.388-0.469 1.944 0.006l6.4 5.494c0.094-0.025 0.188-0.050 0.281-0.069l0.85-8.919c0.075-0.769 0.719-1.356 1.494-1.356s1.419 0.588 1.494 1.356l0.844 8.869 10.887-17.525zM4 28v0h30c1.106 0 2 0.894 2 2s-0.894 2-2 2h-32c-1.106 0-2-0.894-2-2s0.894-2 2-2h2zM18 0c0.831 0 1.5 0.669 1.5 1.5v3c0 0.831-0.669 1.5-1.5 1.5s-1.5-0.669-1.5-1.5v-3c0-0.831 0.669-1.5 1.5-1.5z"/>
</svg>