<svg version="1.1" xmlns="http://www.w3.org/2000/svg" width="40" height="32" viewBox="0 0 40 32">
<path fill="currentColor" d="M2.425 0.319c-0.65-0.512-1.594-0.394-2.106 0.256s-0.394 1.594 0.256 2.106l37 29c0.65 0.513 1.594 0.394 2.106-0.256s0.394-1.594-0.256-2.106l-6.575-5.15c2.475-2.538 4.15-5.381 4.994-7.4 0.206-0.494 0.206-1.044 0-1.537-0.931-2.231-2.888-5.481-5.813-8.194-2.938-2.737-6.981-5.037-12.031-5.037-4.262 0-7.813 1.644-10.581 3.8l-6.994-5.481zM13.944 9.344c1.594-1.456 3.725-2.344 6.056-2.344 4.969 0 9 4.031 9 9 0 1.556-0.394 3.019-1.087 4.294l-2.413-1.887c0.525-1.206 0.663-2.588 0.3-3.956-0.694-2.594-2.988-4.338-5.537-4.444-0.363-0.012-0.575 0.381-0.462 0.731 0.131 0.4 0.206 0.825 0.206 1.269 0 0.637-0.15 1.238-0.413 1.769l-5.644-4.425zM23.313 24.369c-1.025 0.406-2.144 0.631-3.313 0.631-4.969 0-9-4.031-9-9 0-0.431 0.031-0.85 0.088-1.262l-5.894-4.644c-1.425 1.856-2.444 3.706-3.038 5.137-0.206 0.494-0.206 1.044 0 1.538 0.931 2.231 2.888 5.481 5.813 8.194 2.938 2.738 6.981 5.038 12.031 5.038 2.988 0 5.619-0.806 7.887-2.031l-4.575-3.6z"/>
</svg>