<svg version="1.1" xmlns="http://www.w3.org/2000/svg" width="40" height="32" viewBox="0 0 40 32">
<path fill="currentColor" d="M2.425 0.319c-0.65-0.512-1.594-0.394-2.106 0.256s-0.394 1.594 0.256 2.106l37 29c0.65 0.513 1.594 0.394 2.106-0.256s0.394-1.594-0.256-2.106l-6.575-5.15c2.475-2.538 4.15-5.381 4.994-7.4 0.206-0.494 0.206-1.044 0-1.537-0.931-2.231-2.888-5.481-5.813-8.194-2.938-2.737-6.981-5.037-12.031-5.037-4.262 0-7.813 1.644-10.581 3.8l-6.994-5.481zM13.938 9.344c3.038-2.769 7.688-3.175 11.206-0.731 3.8 2.65 4.931 7.7 2.762 11.681l-2.406-1.887c0.525-1.206 0.663-2.588 0.3-3.956-0.694-2.594-2.988-4.338-5.537-4.444-0.363-0.012-0.575 0.381-0.462 0.731 0.131 0.4 0.206 0.825 0.206 1.269 0 0.637-0.15 1.238-0.413 1.769l-5.656-4.431zM27.881 27.969l-22.688-17.875c-0.688 0.9-1.281 1.794-1.775 2.637l21.188 16.606c1.169-0.344 2.262-0.813 3.288-1.363zM2.156 16.769c0.931 2.231 2.888 5.481 5.813 8.194 2.938 2.738 6.981 5.038 12.031 5.038 0.194 0 0.381-0.006 0.575-0.012l-18.506-14.5c-0.113 0.425-0.081 0.875 0.087 1.281z"/>
</svg>