<svg version="1.1" xmlns="http://www.w3.org/2000/svg" width="36" height="32" viewBox="0 0 36 32">
<path fill="currentColor" d="M18 2c-5.050 0-9.094 2.3-12.037 5.037-2.925 2.713-4.881 5.963-5.806 8.194-0.206 0.494-0.206 1.044 0 1.538 0.925 2.231 2.881 5.481 5.806 8.194 2.944 2.738 6.987 5.038 12.037 5.038s9.094-2.3 12.038-5.038c2.925-2.719 4.881-5.962 5.813-8.194 0.206-0.494 0.206-1.044 0-1.537-0.931-2.231-2.888-5.481-5.813-8.194-2.944-2.737-6.988-5.037-12.038-5.037zM9 16c0-4.971 4.029-9 9-9s9 4.029 9 9v0c0 4.971-4.029 9-9 9s-9-4.029-9-9v0zM18 12c0 2.206-1.794 4-4 4-0.444 0-0.869-0.075-1.269-0.206-0.344-0.113-0.744 0.1-0.731 0.462 0.019 0.431 0.081 0.863 0.2 1.294 0.856 3.2 4.15 5.1 7.35 4.244s5.1-4.15 4.244-7.35c-0.694-2.594-2.988-4.338-5.538-4.444-0.363-0.012-0.575 0.381-0.462 0.731 0.131 0.4 0.206 0.825 0.206 1.269z"/>
</svg>