<svg version="1.1" xmlns="http://www.w3.org/2000/svg" width="32" height="32" viewBox="0 0 32 32">
<path fill="currentColor" d="M0 16c0-8.837 7.163-16 16-16s16 7.163 16 16v0c0 8.837-7.163 16-16 16s-16-7.163-16-16v0zM21.169 24.744c0.413-0.369 0.444-1 0.075-1.413-1.006-1.119-2.762-2.331-5.244-2.331s-4.237 1.212-5.244 2.331c-0.369 0.413-0.338 1.044 0.075 1.413s1.044 0.337 1.412-0.075c0.731-0.813 1.975-1.669 3.756-1.669s3.025 0.856 3.756 1.669c0.369 0.413 1 0.444 1.413 0.075zM11.025 17c1.106 0 2-0.894 2-2 0-0.094-0.006-0.188-0.019-0.275l0.681 0.225c0.525 0.175 1.088-0.106 1.262-0.631s-0.106-1.088-0.631-1.262l-6-2c-0.525-0.175-1.088 0.106-1.263 0.631s0.106 1.088 0.631 1.262l1.919 0.637c-0.363 0.363-0.581 0.863-0.581 1.412 0 1.106 0.894 2 2 2zM23.025 15c0-0.556-0.225-1.063-0.594-1.425l1.887-0.631c0.525-0.175 0.806-0.744 0.631-1.262s-0.744-0.806-1.262-0.631l-6 2c-0.525 0.175-0.806 0.744-0.631 1.262s0.744 0.806 1.262 0.631l0.731-0.244c-0.012 0.094-0.019 0.194-0.019 0.294 0 1.106 0.894 2 2 2s2-0.894 2-2z"/>
</svg>