<svg version="1.1" xmlns="http://www.w3.org/2000/svg" width="32" height="32" viewBox="0 0 32 32">
<path fill="currentColor" d="M29.8 7.894c-0.256 0.069-0.525 0.106-0.8 0.106-1.656 0-3-1.313-3-2.938 0-0.313 0.113-0.706 0.288-1.131 0.019-0.044 0.038-0.087 0.056-0.131 0.563-1.263 1.656-2.806 2.25-3.594 0.2-0.275 0.6-0.275 0.8 0 0.819 1.081 2.606 3.606 2.606 4.856 0 1.356-0.931 2.487-2.2 2.831zM16 0c3.212 0 6.206 0.95 8.712 2.575-0.094 0.194-0.188 0.388-0.269 0.581-0.212 0.5-0.444 1.188-0.444 1.906 0 2.769 2.288 4.938 5 4.938 0.6 0 1.175-0.106 1.712-0.3 0.831 1.931 1.288 4.063 1.288 6.3 0 8.837-7.162 16-16 16s-16-7.163-16-16 7.162-16 16-16zM23.988 19.863c-2.406 0.725-5.119 1.137-7.988 1.137s-5.581-0.413-7.988-1.137c-0.769-0.231-1.519 0.438-1.2 1.169 1.531 3.556 5.069 6.044 9.188 6.044s7.656-2.488 9.188-6.044c0.319-0.738-0.431-1.4-1.2-1.169zM13.6 14.3v0 0c0.131 0.175 0.356 0.244 0.556 0.175s0.344-0.256 0.344-0.475c0-1.119-0.419-2.225-1.037-3.050-0.613-0.813-1.494-1.45-2.463-1.45s-1.85 0.637-2.463 1.45c-0.619 0.825-1.037 1.931-1.037 3.050 0 0.213 0.138 0.406 0.344 0.475s0.431 0 0.556-0.175v0 0 0l0.012-0.012c0.012-0.012 0.025-0.031 0.044-0.056 0.037-0.050 0.1-0.125 0.175-0.213 0.156-0.175 0.375-0.412 0.637-0.644 0.55-0.488 1.175-0.875 1.731-0.875s1.181 0.387 1.731 0.875c0.262 0.231 0.481 0.469 0.637 0.644 0.075 0.088 0.137 0.162 0.175 0.213 0.019 0.025 0.037 0.044 0.044 0.056l0.012 0.012zM23.6 14.3v0 0 0c0.131 0.175 0.356 0.244 0.556 0.175s0.344-0.256 0.344-0.475c0-1.119-0.419-2.225-1.038-3.050-0.613-0.813-1.494-1.45-2.462-1.45s-1.85 0.637-2.462 1.45c-0.619 0.825-1.038 1.931-1.038 3.050 0 0.213 0.137 0.406 0.344 0.475s0.431 0 0.556-0.175v0 0 0l0.012-0.012c0.012-0.012 0.025-0.031 0.044-0.056 0.038-0.050 0.1-0.125 0.175-0.213 0.156-0.175 0.375-0.412 0.637-0.644 0.55-0.488 1.175-0.875 1.731-0.875s1.181 0.387 1.731 0.875c0.262 0.231 0.481 0.469 0.637 0.644 0.075 0.088 0.137 0.162 0.175 0.213 0.019 0.025 0.038 0.044 0.044 0.056l0.012 0.012z"/>
</svg>