<svg version="1.1" xmlns="http://www.w3.org/2000/svg" width="32" height="32" viewBox="0 0 32 32">
<path fill="currentColor" d="M22 30.837c-1.85 0.75-3.881 1.163-6 1.163s-4.15-0.413-6-1.163v-12.837c0-0.55-0.45-1-1-1s-1 0.45-1 1v11.863c-4.781-2.769-8-7.938-8-13.863 0-8.838 7.162-16 16-16s16 7.162 16 16c0 5.925-3.219 11.094-8 13.863v-11.863c0-0.55-0.45-1-1-1s-1 0.45-1 1v12.837zM12.2 14.6c0.331 0.444 0.956 0.531 1.4 0.2s0.531-0.956 0.2-1.4c-1.9-2.531-5.7-2.531-7.6 0-0.331 0.444-0.244 1.069 0.2 1.4s1.069 0.244 1.4-0.2c1.1-1.469 3.3-1.469 4.4 0zM19.8 14.6c1.1-1.469 3.3-1.469 4.4 0 0.331 0.444 0.956 0.531 1.4 0.2s0.531-0.956 0.2-1.4c-1.9-2.531-5.7-2.531-7.6 0-0.331 0.444-0.244 1.069 0.2 1.4s1.069 0.244 1.4-0.2zM13 21v2c0 1.656 1.344 3 3 3s3-1.344 3-3v-2c0-1.656-1.344-3-3-3s-3 1.344-3 3z"/>
</svg>