<svg version="1.1" xmlns="http://www.w3.org/2000/svg" width="32" height="32" viewBox="0 0 32 32">
<path fill="currentColor" d="M0 16c0 7.056 4.569 13.044 10.906 15.175-0.575-0.925-0.906-2.012-0.906-3.175v-2.956c-1.5-1.094-2.694-2.587-3.425-4.325-0.313-0.738 0.438-1.406 1.206-1.169 2.481 0.762 5.281 1.188 8.238 1.188s5.756-0.425 8.238-1.188c0.769-0.238 1.519 0.431 1.206 1.169-0.738 1.75-1.944 3.25-3.462 4.35v2.931c0 1.163-0.331 2.25-0.906 3.175 6.338-2.131 10.906-8.119 10.906-15.175 0-8.838-7.163-16-16-16s-16 7.162-16 16zM11.025 11c1.105 0 2 0.895 2 2s-0.895 2-2 2v0c-1.105 0-2-0.895-2-2s0.895-2 2-2v0zM19.025 13c0-1.105 0.895-2 2-2s2 0.895 2 2v0c0 1.105-0.895 2-2 2s-2-0.895-2-2v0zM20 28v-2.837c0-0.919-0.744-1.663-1.663-1.663h-0.125c-0.706 0-1.319 0.494-1.475 1.181-0.175 0.788-1.3 0.788-1.475 0-0.156-0.694-0.769-1.181-1.475-1.181h-0.125c-0.919 0-1.662 0.744-1.662 1.663v2.837c0 2.206 1.794 4 4 4s4-1.794 4-4z"/>
</svg>