<svg version="1.1" xmlns="http://www.w3.org/2000/svg" width="32" height="32" viewBox="0 0 32 32">
<path fill="currentColor" d="M10.906 31.175c-6.338-2.131-10.906-8.119-10.906-15.175 0-8.838 7.162-16 16-16s16 7.162 16 16c0 7.056-4.569 13.044-10.906 15.175 0.575-0.925 0.906-2.012 0.906-3.175v-2.931c1.519-1.094 2.725-2.6 3.462-4.35 0.313-0.738-0.438-1.406-1.206-1.169-2.481 0.762-5.281 1.188-8.238 1.188s-5.756-0.425-8.238-1.188c-0.769-0.238-1.519 0.431-1.206 1.169 0.731 1.738 1.925 3.231 3.425 4.325v2.956c0 1.163 0.331 2.25 0.906 3.175zM12.2 14.6c0.331 0.444 0.956 0.531 1.4 0.2s0.531-0.956 0.2-1.4c-1.9-2.531-5.7-2.531-7.6 0-0.331 0.444-0.244 1.069 0.2 1.4s1.069 0.244 1.4-0.2c1.1-1.469 3.3-1.469 4.4 0zM21 17c2.209 0 4-1.791 4-4s-1.791-4-4-4v0c-2.209 0-4 1.791-4 4s1.791 4 4 4v0zM20 25.163v2.837c0 2.206-1.794 4-4 4s-4-1.794-4-4v-2.837c0-0.919 0.744-1.663 1.662-1.663h0.125c0.706 0 1.319 0.494 1.475 1.181 0.175 0.788 1.3 0.788 1.475 0 0.156-0.694 0.769-1.181 1.475-1.181h0.125c0.919 0 1.663 0.744 1.663 1.663zM21 11.5c0.828 0 1.5 0.672 1.5 1.5s-0.672 1.5-1.5 1.5v0c-0.828 0-1.5-0.672-1.5-1.5s0.672-1.5 1.5-1.5v0z"/>
</svg>