<svg version="1.1" xmlns="http://www.w3.org/2000/svg" width="32" height="32" viewBox="0 0 32 32">
<path fill="currentColor" d="M16 32c8.837 0 16-7.163 16-16s-7.163-16-16-16v0c-8.837 0-16 7.163-16 16s7.163 16 16 16v0zM24.256 19.55c0.769-0.238 1.519 0.431 1.206 1.169-1.563 3.694-5.2 6.281-9.444 6.281s-7.887-2.587-9.444-6.281c-0.313-0.738 0.438-1.406 1.206-1.169 2.481 0.762 5.281 1.188 8.238 1.188s5.756-0.425 8.238-1.188zM12.456 8.069c1.113 0.3 1.775 1.444 1.475 2.55l-1.088 4.063c-0.144 0.531-0.694 0.85-1.225 0.706l-4.069-1.088c-1.112-0.3-1.775-1.444-1.475-2.55s1.444-1.775 2.55-1.475l1.006 0.269 0.269-1.006c0.3-1.113 1.444-1.775 2.55-1.475zM22.1 9.544l0.269 1.006 1.006-0.269c1.113-0.3 2.256 0.363 2.55 1.475s-0.363 2.256-1.475 2.55l-4.069 1.088c-0.531 0.144-1.081-0.175-1.225-0.706l-1.087-4.063c-0.3-1.113 0.363-2.256 1.475-2.55s2.256 0.363 2.556 1.475z"/>
</svg>