<svg version="1.1" xmlns="http://www.w3.org/2000/svg" width="32" height="32" viewBox="0 0 32 32">
<path fill="currentColor" d="M16 32c8.837 0 16-7.163 16-16s-7.163-16-16-16v0c-8.837 0-16 7.163-16 16s7.163 16 16 16v0zM6.050 19.631c-0.237-0.856 0.463-1.631 1.35-1.631h17.2c0.887 0 1.594 0.775 1.35 1.631-1.188 4.244-5.194 7.369-9.95 7.369s-8.762-3.125-9.95-7.369zM13.6 13.3v0 0l-0.012-0.012c-0.012-0.012-0.025-0.031-0.044-0.056-0.037-0.050-0.1-0.125-0.175-0.213-0.156-0.175-0.375-0.412-0.637-0.644-0.55-0.488-1.175-0.875-1.731-0.875s-1.181 0.387-1.731 0.875c-0.262 0.231-0.481 0.469-0.637 0.644-0.075 0.088-0.137 0.162-0.175 0.213-0.019 0.025-0.037 0.044-0.044 0.056l-0.012 0.012c-0.131 0.175-0.356 0.244-0.556 0.175s-0.344-0.256-0.344-0.475c0-1.119 0.419-2.225 1.037-3.050 0.613-0.813 1.494-1.45 2.463-1.45s1.85 0.637 2.463 1.45c0.619 0.825 1.037 1.931 1.037 3.050 0 0.213-0.137 0.406-0.344 0.475s-0.431 0-0.556-0.175v0 0zM23.6 13.3v0l-0.012-0.012c-0.012-0.012-0.025-0.031-0.044-0.056-0.038-0.050-0.1-0.125-0.175-0.213-0.156-0.175-0.375-0.412-0.637-0.644-0.55-0.488-1.175-0.875-1.731-0.875s-1.181 0.387-1.731 0.875c-0.262 0.231-0.481 0.469-0.637 0.644-0.075 0.088-0.137 0.162-0.175 0.213-0.019 0.025-0.038 0.044-0.044 0.056l-0.012 0.012c-0.131 0.175-0.356 0.244-0.556 0.175s-0.344-0.256-0.344-0.475c0-1.119 0.419-2.225 1.038-3.050 0.613-0.813 1.494-1.45 2.462-1.45s1.85 0.637 2.462 1.45c0.619 0.825 1.038 1.931 1.038 3.050 0 0.213-0.137 0.406-0.344 0.475s-0.431 0-0.556-0.175v0 0 0z"/>
</svg>