<svg version="1.1" xmlns="http://www.w3.org/2000/svg" width="32" height="32" viewBox="0 0 32 32">
<path fill="currentColor" d="M16 32c8.837 0 16-7.163 16-16s-7.163-16-16-16v0c-8.837 0-16 7.163-16 16s7.163 16 16 16v0zM19.044 19.606c0.269 0.319 0.456 0.712 0.456 1.144s-0.194 0.825-0.456 1.144c-0.269 0.325-0.631 0.606-1.044 0.837-0.169 0.094-0.356 0.188-0.544 0.269 0.194 0.081 0.375 0.169 0.544 0.269 0.413 0.231 0.781 0.512 1.044 0.837 0.269 0.319 0.456 0.712 0.456 1.144s-0.194 0.825-0.456 1.144c-0.269 0.325-0.631 0.606-1.044 0.837-0.831 0.462-1.913 0.769-3 0.769-0.225 0-0.425-0.156-0.481-0.375s0.037-0.45 0.238-0.563v0 0 0 0l0.012-0.006c0.012-0.006 0.031-0.019 0.056-0.031 0.050-0.031 0.125-0.075 0.213-0.131 0.175-0.119 0.406-0.281 0.637-0.475s0.45-0.413 0.6-0.631c0.156-0.219 0.219-0.4 0.219-0.538s-0.063-0.313-0.219-0.538c-0.156-0.219-0.369-0.431-0.6-0.631-0.231-0.194-0.463-0.356-0.637-0.475-0.088-0.056-0.162-0.1-0.213-0.131-0.025-0.012-0.044-0.025-0.056-0.031l-0.012-0.006c-0.156-0.087-0.256-0.256-0.256-0.438s0.1-0.35 0.256-0.438v0 0 0 0 0l0.012-0.006 0.056-0.038c0.050-0.031 0.125-0.075 0.213-0.131 0.175-0.119 0.406-0.281 0.637-0.475s0.45-0.413 0.6-0.631c0.156-0.219 0.219-0.4 0.219-0.538s-0.063-0.313-0.219-0.538c-0.156-0.219-0.369-0.431-0.6-0.631-0.231-0.194-0.463-0.356-0.637-0.475-0.088-0.056-0.162-0.1-0.213-0.131l-0.025-0.019-0.031-0.019-0.012-0.006c-0.2-0.113-0.294-0.344-0.238-0.563s0.256-0.375 0.481-0.375c1.088 0 2.169 0.306 2.994 0.769 0.413 0.231 0.781 0.512 1.044 0.837zM9.025 13c0-1.105 0.895-2 2-2s2 0.895 2 2v0c0 1.105-0.895 2-2 2s-2-0.895-2-2v0zM21.025 11c1.105 0 2 0.895 2 2s-0.895 2-2 2v0c-1.105 0-2-0.895-2-2s0.895-2 2-2v0z"/>
</svg>