<svg version="1.1" xmlns="http://www.w3.org/2000/svg" width="32" height="32" viewBox="0 0 32 32">
<path fill="currentColor" d="M26.675 0.887c1.2-1.2 3.169-1.175 4.394 0.044s1.25 3.188 0.044 4.394c-0.425 0.425-1.337 0.775-2.337 1.044-1.019 0.275-2.131 0.469-2.894 0.581-0.1 0.013-0.194 0.031-0.288 0.037-0.306 0.050-0.569-0.175-0.594-0.463-0.006-0.044 0-0.088 0.006-0.131 0.1-0.7 0.288-1.85 0.563-2.938 0.019-0.081 0.044-0.163 0.063-0.244 0.269-0.994 0.613-1.906 1.044-2.337zM23.881 2.075c-0.094 0.3-0.181 0.6-0.256 0.894-0.3 1.181-0.5 2.406-0.606 3.144-0.25 1.675 1.181 3.106 2.856 2.862 0.744-0.1 1.969-0.3 3.15-0.606 0.294-0.075 0.594-0.156 0.894-0.256 3.469 6.106 2.594 14-2.606 19.2s-13.094 6.075-19.2 2.613c0.094-0.3 0.175-0.6 0.25-0.894 0.3-1.181 0.5-2.406 0.606-3.144 0.25-1.675-1.181-3.106-2.856-2.863-0.744 0.1-1.969 0.3-3.15 0.606-0.294 0.075-0.594 0.156-0.894 0.256-3.456-6.106-2.581-14 2.619-19.2 5.2-5.206 13.094-6.075 19.2-2.612zM3.219 25.631c1.156-0.313 2.425-0.519 3.181-0.625 0.025-0.006 0.044-0.006 0.063-0.006 0.319-0.012 0.575 0.269 0.525 0.6-0.106 0.756-0.313 2.025-0.625 3.181-0.263 0.994-0.612 1.906-1.037 2.331-1.2 1.2-3.169 1.175-4.394-0.044s-1.25-3.188-0.044-4.394c0.425-0.425 1.338-0.775 2.338-1.044zM26.056 13.063c-0.294-0.744-1.3-0.688-1.675 0.019-1.188 2.219-2.813 4.425-4.844 6.456s-4.238 3.656-6.456 4.837c-0.706 0.375-0.762 1.381-0.019 1.675 3.6 1.431 7.863 0.688 10.769-2.219s3.65-7.175 2.219-10.769zM5.444 17.819c0.125 0.125 0.287 0.2 0.456 0.212l3.506 0.319 0.319 3.506c0.019 0.175 0.094 0.337 0.213 0.456 0.394 0.394 1.075 0.225 1.238-0.306l1.856-6.088c0.219-0.725-0.456-1.406-1.188-1.188l-6.094 1.85c-0.537 0.163-0.706 0.837-0.306 1.238zM16.581 5.75l-1.856 6.088c-0.219 0.725 0.456 1.406 1.188 1.188l6.087-1.856c0.538-0.162 0.706-0.838 0.306-1.238-0.125-0.125-0.288-0.2-0.456-0.213l-3.506-0.319-0.319-3.506c-0.019-0.175-0.094-0.338-0.212-0.456-0.394-0.394-1.075-0.225-1.238 0.306z"/>
</svg>