<svg version="1.1" xmlns="http://www.w3.org/2000/svg" width="32" height="32" viewBox="0 0 32 32">
<path fill="currentColor" d="M16 32c8.837 0 16-7.163 16-16s-7.163-16-16-16v0c-8.837 0-16 7.163-16 16s7.163 16 16 16v0zM12 23h8c0.55 0 1 0.45 1 1s-0.45 1-1 1h-8c-0.55 0-1-0.45-1-1s0.45-1 1-1zM14 14c0 2.206-1.794 4-4 4s-4-1.794-4-4c0-1.625 0.969-3.025 2.363-3.65-0.231 0.325-0.363 0.725-0.363 1.15 0 1.106 0.894 2 2 2s2-0.894 2-2c0-0.431-0.137-0.825-0.363-1.15 1.394 0.625 2.363 2.025 2.363 3.65zM22 18c-2.206 0-4-1.794-4-4 0-1.625 0.969-3.025 2.363-3.65-0.231 0.325-0.363 0.725-0.363 1.15 0 1.106 0.894 2 2 2s2-0.894 2-2c0-0.431-0.137-0.825-0.363-1.15 1.394 0.625 2.363 2.025 2.363 3.65 0 2.206-1.794 4-4 4z"/>
</svg>