<svg version="1.1" xmlns="http://www.w3.org/2000/svg" width="32" height="32" viewBox="0 0 32 32">
<path fill="currentColor" d="M16 32c8.837 0 16-7.163 16-16s-7.163-16-16-16v0c-8.837 0-16 7.163-16 16s7.163 16 16 16v0zM10.294 20.544c1.375-1.375 3.369-2.544 5.706-2.544s4.331 1.169 5.706 2.544c0.694 0.694 1.256 1.462 1.65 2.212 0.387 0.731 0.644 1.525 0.644 2.244 0 0.325-0.163 0.637-0.431 0.825s-0.613 0.231-0.919 0.113l-1.281-0.481c-1.681-0.631-3.469-0.956-5.269-0.956h-0.2c-1.8 0-3.581 0.325-5.269 0.956l-1.281 0.481c-0.306 0.113-0.65 0.075-0.919-0.113s-0.431-0.494-0.431-0.825c0-0.725 0.262-1.512 0.644-2.244 0.394-0.75 0.956-1.519 1.65-2.212zM8.344 9.169l5.619 2.994c0.669 0.356 0.669 1.319 0 1.675l-5.619 2.994c-0.494 0.262-1.094-0.094-1.094-0.656 0-0.175 0.063-0.344 0.175-0.475l2.25-2.7-2.25-2.7c-0.112-0.131-0.175-0.3-0.175-0.475 0-0.563 0.6-0.919 1.094-0.656zM24.75 9.819c0 0.175-0.063 0.344-0.175 0.475l-2.25 2.7 2.25 2.7c0.113 0.131 0.175 0.3 0.175 0.475 0 0.563-0.6 0.919-1.094 0.656l-5.619-2.994c-0.669-0.356-0.669-1.319 0-1.675l5.619-2.994c0.494-0.262 1.094 0.094 1.094 0.656z"/>
</svg>