<svg version="1.1" xmlns="http://www.w3.org/2000/svg" width="32" height="32" viewBox="0 0 32 32">
<path fill="currentColor" d="M0 16c0-8.837 7.163-16 16-16s16 7.163 16 16v0c0 8.837-7.163 16-16 16s-16-7.163-16-16v0zM11 24c0 0.55 0.45 1 1 1h8c0.55 0 1-0.45 1-1s-0.45-1-1-1h-8c-0.55 0-1 0.45-1 1zM10 18.5c2.485 0 4.5-2.015 4.5-4.5s-2.015-4.5-4.5-4.5v0c-2.485 0-4.5 2.015-4.5 4.5s2.015 4.5 4.5 4.5v0zM26.5 14c0-2.485-2.015-4.5-4.5-4.5s-4.5 2.015-4.5 4.5v0c0 2.485 2.015 4.5 4.5 4.5s4.5-2.015 4.5-4.5v0zM8.5 14c0-0.828 0.672-1.5 1.5-1.5s1.5 0.672 1.5 1.5v0c0 0.828-0.672 1.5-1.5 1.5s-1.5-0.672-1.5-1.5v0zM20.5 14c0-0.828 0.672-1.5 1.5-1.5s1.5 0.672 1.5 1.5v0c0 0.828-0.672 1.5-1.5 1.5s-1.5-0.672-1.5-1.5v0z"/>
</svg>