<svg version="1.1" xmlns="http://www.w3.org/2000/svg" width="32" height="32" viewBox="0 0 32 32">
<path fill="currentColor" d="M16 32c8.837 0 16-7.163 16-16s-7.163-16-16-16v0c-8.837 0-16 7.163-16 16s7.163 16 16 16v0zM6.050 19.631c-0.237-0.856 0.463-1.631 1.35-1.631h17.2c0.887 0 1.594 0.775 1.35 1.631-1.188 4.244-5.194 7.369-9.95 7.369s-8.762-3.125-9.95-7.369zM9.025 12c0-1.105 0.895-2 2-2s2 0.895 2 2v0c0 1.105-0.895 2-2 2s-2-0.895-2-2v0zM18.8 13.6c-0.331 0.444-0.956 0.531-1.4 0.2s-0.531-0.956-0.2-1.4c1.9-2.531 5.7-2.531 7.6 0 0.331 0.444 0.244 1.069-0.2 1.4s-1.069 0.244-1.4-0.2c-1.1-1.469-3.3-1.469-4.4 0z"/>
</svg>