<svg version="1.1" xmlns="http://www.w3.org/2000/svg" width="32" height="32" viewBox="0 0 32 32">
<path fill="currentColor" d="M16 32c8.837 0 16-7.163 16-16s-7.163-16-16-16v0c-8.837 0-16 7.163-16 16s7.163 16 16 16v0zM24.256 19.55c0.769-0.238 1.519 0.431 1.206 1.169-1.563 3.694-5.2 6.281-9.444 6.281s-7.887-2.587-9.444-6.281c-0.313-0.738 0.438-1.406 1.206-1.169 2.481 0.762 5.281 1.188 8.238 1.188s5.756-0.425 8.238-1.188zM23.2 14.6c-1.1-1.469-3.3-1.469-4.4 0-0.331 0.444-0.956 0.531-1.4 0.2s-0.531-0.956-0.2-1.4c1.9-2.531 5.7-2.531 7.6 0 0.331 0.444 0.244 1.069-0.2 1.4s-1.069 0.244-1.4-0.2zM11.025 11c1.105 0 2 0.895 2 2s-0.895 2-2 2v0c-1.105 0-2-0.895-2-2s0.895-2 2-2v0z"/>
</svg>