<svg version="1.1" xmlns="http://www.w3.org/2000/svg" width="32" height="32" viewBox="0 0 32 32">
<path fill="currentColor" d="M16 32c8.837 0 16-7.163 16-16s-7.163-16-16-16v0c-8.837 0-16 7.163-16 16s7.163 16 16 16v0zM22 25h-0.5v-2.5h3.456c-0.238 1.419-1.475 2.5-2.956 2.5zM24.956 21.5h-3.456v-2.5h0.5c1.488 0 2.719 1.081 2.956 2.5zM20.5 21.5h-4v-2.5h4v2.5zM20.5 25h-4v-2.5h4v2.5zM15.5 19v2.5h-4v-2.5h4zM15.5 22.5v2.5h-4v-2.5h4zM10.5 21.5h-3.456c0.237-1.419 1.475-2.5 2.956-2.5h0.5v2.5zM10.5 25h-0.5c-1.488 0-2.719-1.081-2.956-2.5h3.456v2.5zM9.025 13c0-1.105 0.895-2 2-2s2 0.895 2 2v0c0 1.105-0.895 2-2 2s-2-0.895-2-2v0zM21.025 11c1.105 0 2 0.895 2 2s-0.895 2-2 2v0c-1.105 0-2-0.895-2-2s0.895-2 2-2v0z"/>
</svg>