<svg version="1.1" xmlns="http://www.w3.org/2000/svg" width="32" height="32" viewBox="0 0 32 32">
<path fill="currentColor" d="M16 32c8.837 0 16-7.163 16-16s-7.163-16-16-16v0c-8.837 0-16 7.163-16 16s7.163 16 16 16v0zM10.256 20.344c1.119 1.294 3.031 2.656 5.744 2.656s4.625-1.363 5.744-2.656c0.363-0.419 0.994-0.462 1.413-0.1s0.462 0.994 0.1 1.413c-1.394 1.6-3.813 3.344-7.256 3.344s-5.863-1.744-7.256-3.344c-0.363-0.419-0.319-1.050 0.1-1.413s1.050-0.319 1.412 0.1zM9.025 13c0-1.105 0.895-2 2-2s2 0.895 2 2v0c0 1.105-0.895 2-2 2s-2-0.895-2-2v0zM21.025 11c1.105 0 2 0.895 2 2s-0.895 2-2 2v0c-1.105 0-2-0.895-2-2s0.895-2 2-2v0z"/>
</svg>