<svg version="1.1" xmlns="http://www.w3.org/2000/svg" width="32" height="32" viewBox="0 0 32 32">
<path fill="currentColor" d="M16 32c8.837 0 16-7.163 16-16s-7.163-16-16-16v0c-8.837 0-16 7.163-16 16s7.163 16 16 16v0zM19.044 19.606c0.269 0.319 0.456 0.712 0.456 1.144s-0.194 0.825-0.456 1.144c-0.269 0.325-0.631 0.606-1.044 0.837-0.169 0.094-0.356 0.188-0.544 0.269 0.194 0.081 0.375 0.169 0.544 0.269 0.413 0.231 0.781 0.512 1.044 0.837 0.269 0.319 0.456 0.712 0.456 1.144s-0.194 0.825-0.456 1.144c-0.269 0.325-0.631 0.606-1.044 0.837-0.831 0.462-1.913 0.769-3 0.769-0.225 0-0.425-0.156-0.481-0.375s0.037-0.45 0.238-0.563v0 0 0 0l0.012-0.006c0.012-0.006 0.031-0.019 0.056-0.031 0.050-0.031 0.125-0.075 0.213-0.131 0.175-0.119 0.406-0.281 0.637-0.475s0.45-0.413 0.6-0.631c0.156-0.219 0.219-0.4 0.219-0.538s-0.063-0.313-0.219-0.538c-0.156-0.219-0.369-0.431-0.6-0.631-0.231-0.194-0.463-0.356-0.637-0.475-0.088-0.056-0.162-0.1-0.213-0.131-0.025-0.012-0.044-0.025-0.056-0.031l-0.012-0.006c-0.156-0.087-0.256-0.256-0.256-0.438s0.1-0.35 0.256-0.438v0 0 0 0 0l0.012-0.006 0.056-0.038c0.050-0.031 0.125-0.075 0.213-0.131 0.175-0.119 0.406-0.281 0.637-0.475s0.45-0.413 0.6-0.631c0.156-0.219 0.219-0.4 0.219-0.538s-0.063-0.313-0.219-0.538c-0.156-0.219-0.369-0.431-0.6-0.631-0.231-0.194-0.463-0.356-0.637-0.475-0.088-0.056-0.162-0.1-0.213-0.131l-0.025-0.019-0.031-0.019-0.012-0.006c-0.2-0.113-0.294-0.344-0.238-0.563s0.256-0.375 0.481-0.375c1.088 0 2.169 0.306 2.994 0.769 0.413 0.231 0.781 0.512 1.044 0.837zM13.6 14.3v0 0l-0.012-0.012c-0.012-0.012-0.025-0.031-0.044-0.056-0.037-0.050-0.1-0.125-0.175-0.213-0.156-0.175-0.375-0.412-0.637-0.644-0.55-0.488-1.175-0.875-1.731-0.875s-1.181 0.387-1.731 0.875c-0.262 0.231-0.481 0.469-0.637 0.644-0.075 0.088-0.137 0.162-0.175 0.213-0.019 0.025-0.037 0.044-0.044 0.056l-0.012 0.012c-0.131 0.175-0.356 0.244-0.556 0.175s-0.344-0.256-0.344-0.475c0-1.119 0.419-2.225 1.037-3.050 0.613-0.813 1.494-1.45 2.463-1.45s1.85 0.637 2.463 1.45c0.619 0.825 1.037 1.931 1.037 3.050 0 0.213-0.137 0.406-0.344 0.475s-0.431 0-0.556-0.175v0 0zM23.6 14.3v0l-0.012-0.012c-0.012-0.012-0.025-0.031-0.044-0.056-0.038-0.050-0.1-0.125-0.175-0.213-0.156-0.175-0.375-0.412-0.637-0.644-0.55-0.488-1.175-0.875-1.731-0.875s-1.181 0.387-1.731 0.875c-0.262 0.231-0.481 0.469-0.637 0.644-0.075 0.088-0.137 0.162-0.175 0.213-0.019 0.025-0.038 0.044-0.044 0.056l-0.012 0.012c-0.131 0.175-0.356 0.244-0.556 0.175s-0.344-0.256-0.344-0.475c0-1.119 0.419-2.225 1.038-3.050 0.613-0.813 1.494-1.45 2.462-1.45s1.85 0.637 2.462 1.45c0.619 0.825 1.038 1.931 1.038 3.050 0 0.213-0.137 0.406-0.344 0.475s-0.431 0-0.556-0.175v0 0 0z"/>
</svg>