<svg version="1.1" xmlns="http://www.w3.org/2000/svg" width="32" height="32" viewBox="0 0 32 32">
<path fill="currentColor" d="M16 32c8.837 0 16-7.163 16-16s-7.163-16-16-16v0c-8.837 0-16 7.163-16 16s7.163 16 16 16v0zM6.050 19.631c-0.237-0.856 0.463-1.631 1.35-1.631h17.2c0.887 0 1.594 0.775 1.35 1.631-1.188 4.244-5.194 7.369-9.95 7.369s-8.762-3.125-9.95-7.369zM8.344 7.169l5.619 2.994c0.669 0.356 0.669 1.319 0 1.675l-5.619 2.994c-0.494 0.262-1.094-0.094-1.094-0.656 0-0.175 0.063-0.344 0.175-0.475l2.25-2.7-2.25-2.7c-0.112-0.131-0.175-0.3-0.175-0.475 0-0.563 0.6-0.919 1.094-0.656zM24.75 7.819c0 0.175-0.063 0.344-0.175 0.475l-2.25 2.7 2.25 2.7c0.113 0.131 0.175 0.3 0.175 0.475 0 0.563-0.6 0.919-1.094 0.656l-5.619-2.994c-0.669-0.356-0.669-1.319 0-1.675l5.619-2.994c0.494-0.263 1.094 0.094 1.094 0.656z"/>
</svg>