<svg version="1.1" xmlns="http://www.w3.org/2000/svg" width="32" height="32" viewBox="0 0 32 32">
<path fill="currentColor" d="M16 32c8.837 0 16-7.163 16-16s-7.163-16-16-16v0c-8.837 0-16 7.163-16 16s7.163 16 16 16v0zM11.025 11c1.105 0 2 0.895 2 2s-0.895 2-2 2v0c-1.105 0-2-0.895-2-2s0.895-2 2-2v0zM19.025 13c0-1.105 0.895-2 2-2s2 0.895 2 2v0c0 1.105-0.895 2-2 2s-2-0.895-2-2v0zM11.4 23.906c-0.775 0.325-1.656-0.256-1.319-1.025 1-2.288 3.275-3.881 5.925-3.881s4.925 1.6 5.925 3.881c0.337 0.769-0.544 1.35-1.319 1.025-1.4-0.594-2.962-0.925-4.606-0.925s-3.206 0.331-4.606 0.925z"/>
</svg>