<svg version="1.1" xmlns="http://www.w3.org/2000/svg" width="32" height="32" viewBox="0 0 32 32">
<path fill="currentColor" d="M0 16c0-8.837 7.163-16 16-16s16 7.163 16 16v0c0 8.837-7.163 16-16 16s-16-7.163-16-16v0zM25.462 20.719c0.313-0.738-0.438-1.406-1.206-1.169-2.481 0.762-5.281 1.188-8.238 1.188s-5.756-0.425-8.238-1.188c-0.769-0.238-1.519 0.431-1.206 1.169 1.562 3.694 5.2 6.281 9.444 6.281s7.887-2.587 9.444-6.281zM10 7.5c-0.194 0-0.369 0.112-0.45 0.287l-1.037 2.169-2.381 0.313c-0.194 0.025-0.35 0.156-0.412 0.344s-0.006 0.387 0.131 0.519l1.744 1.656-0.438 2.363c-0.037 0.188 0.044 0.381 0.2 0.494s0.362 0.125 0.531 0.037l2.112-1.15 2.112 1.144c0.169 0.094 0.375 0.081 0.531-0.037s0.231-0.306 0.2-0.494l-0.438-2.362 1.744-1.656c0.137-0.131 0.194-0.331 0.131-0.519s-0.219-0.319-0.412-0.344l-2.381-0.313-1.037-2.169c-0.081-0.175-0.256-0.287-0.45-0.287zM22 7.5c-0.194 0-0.369 0.112-0.45 0.287l-1.038 2.169-2.381 0.313c-0.194 0.025-0.35 0.156-0.413 0.344s-0.006 0.387 0.131 0.519l1.744 1.656-0.438 2.363c-0.038 0.188 0.044 0.381 0.2 0.494s0.363 0.125 0.531 0.037l2.113-1.15 2.113 1.144c0.169 0.094 0.375 0.081 0.531-0.037s0.231-0.306 0.2-0.494l-0.438-2.362 1.744-1.656c0.137-0.131 0.194-0.331 0.131-0.519s-0.219-0.319-0.413-0.344l-2.381-0.313-1.038-2.169c-0.081-0.175-0.256-0.287-0.45-0.287z"/>
</svg>