<svg version="1.1" xmlns="http://www.w3.org/2000/svg" width="40" height="32" viewBox="0 0 40 32">
<path fill="currentColor" d="M34.288 23.212c-2.637 5.212-8.044 8.788-14.288 8.788s-11.65-3.575-14.287-8.788c0.281-0.181 0.544-0.394 0.794-0.644 0.506-0.506 0.825-1.163 1.031-1.663 0.225-0.55 0.406-1.15 0.55-1.719 0.287-1.137 0.481-2.313 0.581-3.012 0.244-1.656-1.175-3.075-2.825-2.838-0.425 0.056-1.013 0.15-1.663 0.275 1.15-7.706 7.794-13.613 15.819-13.613s14.669 5.906 15.825 13.606c-0.644-0.125-1.237-0.219-1.663-0.275-1.656-0.244-3.075 1.175-2.825 2.838 0.1 0.706 0.288 1.875 0.581 3.012 0.144 0.569 0.325 1.175 0.55 1.719 0.206 0.506 0.525 1.156 1.031 1.663 0.244 0.244 0.513 0.462 0.794 0.644zM6.688 15.881c-0.194 1.344-0.713 4.388-1.594 5.275-0.056 0.063-0.119 0.113-0.181 0.169-1.163 0.969-2.913 0.894-4.019-0.219-1.169-1.169-1.194-3.050-0.044-4.2 0.537-0.538 1.881-0.944 3.156-1.225 0.813-0.175 1.594-0.3 2.119-0.375 0.338-0.050 0.619 0.231 0.563 0.563zM35.094 21.325c-0.050-0.038-0.094-0.081-0.144-0.125-0.013-0.012-0.031-0.025-0.044-0.044-0.881-0.881-1.406-3.931-1.594-5.275-0.050-0.338 0.231-0.619 0.563-0.563 0.063 0.006 0.138 0.019 0.206 0.031 0.513 0.075 1.2 0.188 1.913 0.344 1.275 0.275 2.619 0.681 3.156 1.225 1.15 1.15 1.125 3.031-0.044 4.2-1.106 1.106-2.856 1.188-4.013 0.212zM29.462 20.719c0.313-0.738-0.438-1.406-1.206-1.169-2.481 0.762-5.275 1.188-8.238 1.188s-5.756-0.425-8.238-1.188c-0.769-0.238-1.519 0.431-1.206 1.169 1.563 3.694 5.2 6.281 9.444 6.281s7.887-2.587 9.444-6.281zM17.6 14.3v0 0 0c0.131 0.175 0.356 0.244 0.556 0.175s0.344-0.256 0.344-0.475c0-1.119-0.419-2.225-1.038-3.050-0.613-0.813-1.494-1.45-2.463-1.45s-1.85 0.637-2.463 1.45c-0.619 0.825-1.037 1.931-1.037 3.050 0 0.213 0.137 0.406 0.344 0.475s0.431 0 0.556-0.175v0 0 0l0.012-0.012c0.012-0.012 0.025-0.031 0.044-0.056 0.037-0.050 0.1-0.125 0.175-0.213 0.156-0.175 0.375-0.412 0.637-0.644 0.55-0.488 1.175-0.875 1.731-0.875s1.181 0.387 1.731 0.875c0.262 0.231 0.481 0.469 0.637 0.644 0.075 0.088 0.137 0.162 0.175 0.213 0.019 0.025 0.038 0.044 0.044 0.056l0.012 0.012zM27.6 14.3v0 0c0.131 0.175 0.356 0.244 0.556 0.175s0.344-0.256 0.344-0.475c0-1.119-0.419-2.225-1.038-3.050-0.613-0.813-1.494-1.45-2.462-1.45s-1.85 0.637-2.462 1.45c-0.619 0.825-1.038 1.931-1.038 3.050 0 0.213 0.137 0.406 0.344 0.475s0.431 0 0.556-0.175v0 0 0l0.012-0.012c0.012-0.012 0.025-0.031 0.044-0.056 0.038-0.050 0.1-0.125 0.175-0.213 0.156-0.175 0.375-0.412 0.637-0.644 0.55-0.488 1.175-0.875 1.731-0.875s1.181 0.387 1.731 0.875c0.262 0.231 0.481 0.469 0.637 0.644 0.075 0.088 0.137 0.162 0.175 0.213 0.019 0.025 0.038 0.044 0.044 0.056l0.012 0.012z"/>
</svg>