<svg version="1.1" xmlns="http://www.w3.org/2000/svg" width="32" height="32" viewBox="0 0 32 32">
<path fill="currentColor" d="M31.125 21.231c0.569-1.637 0.875-3.4 0.875-5.231 0-8.838-7.163-16-16-16s-16 7.162-16 16 7.162 16 16 16c2.212 0 4.319-0.45 6.231-1.262-0.3-0.344-0.531-0.762-0.65-1.231l-1.431-5.581c-0.625-2.438 0.738-5.056 3.238-5.756 2.325-0.65 4.613 0.631 5.469 2.75 0.794-0.1 1.569 0.025 2.262 0.313zM18.5 20.75c0 0.431-0.194 0.825-0.456 1.144-0.269 0.325-0.631 0.606-1.044 0.837-0.169 0.094-0.356 0.188-0.544 0.269 0.194 0.081 0.375 0.169 0.544 0.269 0.413 0.231 0.781 0.512 1.044 0.837 0.269 0.319 0.456 0.712 0.456 1.144s-0.194 0.825-0.456 1.144c-0.269 0.325-0.631 0.606-1.044 0.837-0.831 0.462-1.912 0.769-3 0.769-0.225 0-0.425-0.156-0.481-0.375s0.037-0.45 0.238-0.563v0 0 0 0l0.012-0.006c0.012-0.006 0.031-0.019 0.056-0.031 0.050-0.031 0.125-0.075 0.213-0.131 0.175-0.119 0.406-0.281 0.637-0.475s0.45-0.413 0.6-0.631c0.156-0.219 0.219-0.4 0.219-0.538s-0.063-0.313-0.219-0.538c-0.156-0.219-0.369-0.431-0.6-0.631-0.231-0.194-0.463-0.356-0.637-0.475-0.088-0.056-0.162-0.1-0.213-0.131l-0.056-0.038-0.012-0.006c-0.156-0.087-0.256-0.256-0.256-0.438s0.1-0.35 0.256-0.438v0 0 0 0 0l0.012-0.006c0.012-0.006 0.031-0.019 0.056-0.031 0.050-0.031 0.125-0.075 0.213-0.131 0.175-0.119 0.406-0.281 0.637-0.475s0.45-0.413 0.6-0.631c0.156-0.219 0.219-0.4 0.219-0.538s-0.063-0.313-0.219-0.538c-0.156-0.219-0.369-0.431-0.6-0.631-0.231-0.194-0.463-0.356-0.637-0.475-0.088-0.056-0.162-0.1-0.213-0.131-0.025-0.012-0.044-0.025-0.056-0.031l-0.012-0.006c-0.2-0.113-0.294-0.344-0.238-0.563s0.256-0.375 0.481-0.375c1.088 0 2.169 0.306 2.994 0.769 0.413 0.231 0.781 0.512 1.044 0.837 0.269 0.319 0.456 0.712 0.456 1.144zM11.025 11c1.105 0 2 0.895 2 2s-0.895 2-2 2v0c-1.105 0-2-0.895-2-2s0.895-2 2-2v0zM23.2 14.6c-1.1-1.469-3.3-1.469-4.4 0-0.331 0.444-0.956 0.531-1.4 0.2s-0.531-0.956-0.2-1.4c1.9-2.531 5.7-2.531 7.6 0 0.331 0.444 0.244 1.069-0.2 1.4s-1.069 0.244-1.4-0.2zM27.125 22.019c-0.375-1.45-1.8-2.313-3.194-1.925s-2.212 1.881-1.844 3.337l1.431 5.581c0.137 0.544 0.7 0.869 1.238 0.712l5.306-1.488c1.387-0.387 2.212-1.881 1.844-3.337s-1.8-2.313-3.194-1.925l-1.262 0.35-0.337-1.313z"/>
</svg>