<svg version="1.1" xmlns="http://www.w3.org/2000/svg" width="32" height="32" viewBox="0 0 32 32">
<path fill="currentColor" d="M0 16c0 8.837 7.163 16 16 16s16-7.163 16-16v0c0-8.837-7.163-16-16-16s-16 7.163-16 16v0zM15 21c0-0.55 0.45-1 1-1 2.813 0 5.35 1.281 7.231 3.319 0.375 0.406 0.35 1.038-0.056 1.413s-1.038 0.35-1.413-0.056c-1.563-1.694-3.587-2.681-5.769-2.681-0.55 0-1-0.45-1-1zM10 26c-1.656 0-3-1.313-3-2.938 0-1.25 1.787-3.775 2.6-4.856 0.2-0.275 0.6-0.275 0.8 0 0.825 1.081 2.6 3.606 2.6 4.856 0 1.625-1.344 2.938-3 2.938zM22.975 13c0 1.105-0.895 2-2 2s-2-0.895-2-2v0c0-1.105 0.895-2 2-2s2 0.895 2 2v0zM10.975 11c1.105 0 2 0.895 2 2s-0.895 2-2 2v0c-1.105 0-2-0.895-2-2s0.895-2 2-2v0z"/>
</svg>