<svg version="1.1" xmlns="http://www.w3.org/2000/svg" width="32" height="32" viewBox="0 0 32 32">
<path fill="currentColor" d="M16 32c8.837 0 16-7.163 16-16s-7.163-16-16-16v0c-8.837 0-16 7.163-16 16s7.163 16 16 16v0zM9.956 24.294c-0.162 0.525-0.725 0.825-1.25 0.656s-0.825-0.725-0.656-1.25c1.025-3.319 4.219-5.7 7.95-5.7s6.925 2.381 7.956 5.706c0.163 0.525-0.131 1.087-0.656 1.25s-1.087-0.131-1.25-0.656c-0.769-2.462-3.169-4.3-6.050-4.3s-5.281 1.837-6.044 4.294zM9.025 13c0-1.105 0.895-2 2-2s2 0.895 2 2v0c0 1.105-0.895 2-2 2s-2-0.895-2-2v0zM21.025 11c1.105 0 2 0.895 2 2s-0.895 2-2 2v0c-1.105 0-2-0.895-2-2s0.895-2 2-2v0z"/>
</svg>