<svg version="1.1" xmlns="http://www.w3.org/2000/svg" width="32" height="32" viewBox="0 0 32 32">
<path fill="currentColor" d="M16 32c8.837 0 16-7.163 16-16s-7.163-16-16-16v0c-8.837 0-16 7.163-16 16s7.163 16 16 16v0zM16 18c2.209 0 4 1.791 4 4s-1.791 4-4 4v0c-2.209 0-4-1.791-4-4s1.791-4 4-4v0zM6.294 8.294c0.388-0.388 1.025-0.388 1.413 0l2.294 2.294 2.294-2.294c0.387-0.388 1.025-0.388 1.412 0s0.387 1.025 0 1.412l-2.294 2.294 2.294 2.294c0.387 0.387 0.387 1.025 0 1.412s-1.025 0.388-1.412 0l-2.294-2.294-2.294 2.294c-0.388 0.387-1.025 0.387-1.413 0s-0.388-1.025 0-1.412l2.294-2.294-2.294-2.294c-0.388-0.387-0.388-1.025 0-1.412zM18.294 8.294c0.387-0.388 1.025-0.388 1.413 0l2.294 2.294 2.294-2.294c0.387-0.388 1.025-0.388 1.413 0s0.387 1.025 0 1.412l-2.294 2.294 2.294 2.294c0.387 0.387 0.387 1.025 0 1.412s-1.025 0.388-1.413 0l-2.294-2.294-2.294 2.294c-0.387 0.387-1.025 0.387-1.413 0s-0.387-1.025 0-1.412l2.294-2.294-2.294-2.294c-0.387-0.387-0.387-1.025 0-1.412z"/>
</svg>