<svg version="1.1" xmlns="http://www.w3.org/2000/svg" width="32" height="32" viewBox="0 0 32 32">
<path fill="currentColor" d="M16.163 0c-0.106 0-0.213 0.006-0.319 0.031-5.344 1.031-8.619 6.362-7.688 11.8 0.181 1.063 0.525 2.056 0.994 2.963l-7.15-0.794h-0.163c-1.012 0-1.837 0.825-1.837 1.838 0 0.106 0.006 0.212 0.031 0.319 1.031 5.344 6.362 8.619 11.8 7.688 1.063-0.181 2.056-0.525 2.963-0.994l-0.794 7.15v0.163c0 1.012 0.825 1.837 1.838 1.837 0.106 0 0.213-0.006 0.319-0.031 5.344-1.031 8.619-6.363 7.688-11.8-0.181-1.063-0.525-2.056-0.994-2.962l7.15 0.794h0.163c1.012 0 1.837-0.825 1.837-1.837 0-0.106-0.006-0.213-0.031-0.319-1.031-5.344-6.363-8.619-11.8-7.688-1.063 0.181-2.056 0.525-2.962 0.994l0.794-7.15v-0.163c0-1.012-0.825-1.837-1.837-1.837zM16 14c1.105 0 2 0.895 2 2s-0.895 2-2 2v0c-1.105 0-2-0.895-2-2s0.895-2 2-2v0z"/>
</svg>