<svg version="1.1" xmlns="http://www.w3.org/2000/svg" width="32" height="32" viewBox="0 0 32 32">
<path fill="currentColor" d="M14 0c1.106 0 2 0.894 2 2v0.75l6-0.75c1.106 0 2 0.894 2 2s-0.894 2-2 2l-8-1-0.063 0.006-7.938 0.994c-1.106 0-2-0.894-2-2s0.894-2 2-2l6 0.75v-0.75c0-1.106 0.894-2 2-2zM0 14c0-1.106 0.894-2 2-2h6l1.412-1.412c0.375-0.375 0.881-0.588 1.412-0.588h1.175v-2.737l2-0.25 2 0.25v2.737h1.169c0.531 0 1.038 0.213 1.413 0.588l1.419 1.412h2c5.525 0 10 4.475 10 10 0 1.106-0.894 2-2 2h-4c-1.106 0-2-0.894-2-2s-0.894-2-2-2h-2.256c-1.262 1.813-3.369 3-5.744 3s-4.481-1.188-5.744-3h-6.256c-1.106 0-2-0.894-2-2v-4zM27.3 26.462c0.119-0.281 0.394-0.462 0.7-0.462s0.575 0.181 0.7 0.462l1.137 2.65c0.113 0.256 0.169 0.538 0.169 0.819v0.069c0 1.106-0.894 2-2 2s-2-0.894-2-2v-0.075c0-0.281 0.056-0.556 0.169-0.819l1.137-2.65z"/>
</svg>