<svg version="1.1" xmlns="http://www.w3.org/2000/svg" width="32" height="32" viewBox="0 0 32 32">
<path fill="currentColor" d="M12 6v0.75l-6-0.75c-1.106 0-2 0.894-2 2s0.894 2 2 2l8-1 0.063 0.006 7.938 0.994c1.106 0 2-0.894 2-2s-0.894-2-2-2l-6 0.75v-0.75c0-1.106-0.894-2-2-2s-2 0.894-2 2zM2 16c-1.106 0-2 0.894-2 2v4c0 1.106 0.894 2 2 2h6.256c1.262 1.813 3.369 3 5.744 3s4.481-1.188 5.744-3h2.256c1.106 0 2 0.894 2 2s0.894 2 2 2h4c1.106 0 2-0.894 2-2 0-5.525-4.475-10-10-10h-2l-1.413-1.412c-0.375-0.375-0.881-0.588-1.413-0.588h-1.175v-2.738l-2-0.25-2 0.25v2.738h-1.169c-0.531 0-1.037 0.213-1.412 0.588l-1.419 1.412h-6z"/>
</svg>