<svg version="1.1" xmlns="http://www.w3.org/2000/svg" width="32" height="32" viewBox="0 0 32 32">
<path fill="currentColor" d="M8 4v6h4v-6h12.169l1.831 1.831v4.169h4v-4.169c0-1.063-0.419-2.081-1.169-2.831l-1.831-1.831c-0.75-0.75-1.769-1.169-2.831-1.169h-12.169c-2.206 0-4 1.794-4 4zM0 10v20c0 1.106 0.894 2 2 2h2c1.106 0 2-0.894 2-2v-20c0-1.106-0.894-2-2-2h-2c-1.106 0-2 0.894-2 2zM30 12h-22v18c0 1.106 0.894 2 2 2h20c1.106 0 2-0.894 2-2v-16c0-1.106-0.894-2-2-2zM16 16c1.105 0 2 0.895 2 2s-0.895 2-2 2v0c-1.105 0-2-0.895-2-2s0.895-2 2-2v0zM22 18c0-1.105 0.895-2 2-2s2 0.895 2 2v0c0 1.105-0.895 2-2 2s-2-0.895-2-2v0zM24 24c1.105 0 2 0.895 2 2s-0.895 2-2 2v0c-1.105 0-2-0.895-2-2s0.895-2 2-2v0zM14 26c0-1.105 0.895-2 2-2s2 0.895 2 2v0c0 1.105-0.895 2-2 2s-2-0.895-2-2v0z"/>
</svg>