<svg version="1.1" xmlns="http://www.w3.org/2000/svg" width="32" height="32" viewBox="0 0 32 32">
<path fill="currentColor" d="M17.406 13.475l-15.969 15.963c-0.588 0.587-0.588 1.538 0 2.119s1.538 0.587 2.119 0l3.563-3.563h4.25c3.106 0 6.119-0.9 8.687-2.563 0.694-0.45 0.344-1.438-0.488-1.438-0.319 0-0.575-0.256-0.575-0.575 0-0.256 0.169-0.475 0.406-0.55l5.063-1.519c0.156-0.050 0.3-0.131 0.419-0.25l1.4-1.4c0.631-0.631 0.181-1.706-0.706-1.706h-2.012c-0.319 0-0.575-0.256-0.575-0.575 0-0.256 0.169-0.475 0.406-0.55l7-2.1c0.25-0.075 0.462-0.244 0.581-0.481 0.675-1.313 1.025-2.781 1.025-4.287 0-2.563-1.019-5.019-2.831-6.831l-0.344-0.344c-1.806-1.806-4.262-2.825-6.825-2.825s-5.019 1.019-6.831 2.831l-6.481 6.481c-3 3-4.688 7.069-4.688 11.313v3.456l11.85-11.844c0.388-0.387 1.025-0.387 1.412 0 0.337 0.338 0.381 0.85 0.137 1.238z"/>
</svg>