<svg version="1.1" xmlns="http://www.w3.org/2000/svg" width="32" height="32" viewBox="0 0 32 32">
<path fill="currentColor" d="M17.406 13.475l-15.969 15.963c-0.588 0.587-0.588 1.538 0 2.119s1.538 0.587 2.119 0l4.675-4.675c0.463 0.288 0.956 0.512 1.488 0.656 2.8 0.762 7.156 0.869 11.406-1.95 0.762-0.506 0.363-1.587-0.55-1.587h-1.006c-0.319 0-0.575-0.256-0.575-0.575 0-0.256 0.169-0.475 0.406-0.55l6.106-1.831c0.212-0.063 0.4-0.194 0.525-0.381 0.275-0.4 0.538-0.806 0.788-1.225 0.387-0.644-0.094-1.438-0.844-1.438h-2.413c-0.319 0-0.575-0.256-0.575-0.575 0-0.256 0.169-0.475 0.406-0.55l5.056-1.519c0.288-0.088 0.525-0.3 0.637-0.581 1.819-4.588 2.65-9.394 2.906-12.475 0.050-0.619-0.188-1.225-0.625-1.663s-1.044-0.675-1.663-0.625c-5.238 0.425-15.425 2.519-21.119 8.213-5.006 5.006-5.044 10.669-4.131 14.050 0.131 0.494 0.75 0.6 1.112 0.238l10.281-10.275c0.387-0.387 1.025-0.387 1.413 0 0.337 0.338 0.381 0.85 0.137 1.238z"/>
</svg>