<svg version="1.1" xmlns="http://www.w3.org/2000/svg" width="24" height="32" viewBox="0 0 24 32">
<path fill="currentColor" d="M4 0c-2.206 0-4 1.794-4 4v24c0 2.206 1.794 4 4 4h16c2.206 0 4-1.794 4-4v-18h-8c-1.106 0-2-0.894-2-2v-8h-10zM16 0v8h8l-8-8zM16.125 14.144c2.319 1.4 3.875 3.944 3.875 6.856s-1.556 5.456-3.875 6.856c-0.475 0.288-1.088 0.131-1.375-0.337s-0.131-1.087 0.338-1.375c1.75-1.050 2.912-2.962 2.912-5.144s-1.163-4.094-2.906-5.144c-0.475-0.287-0.625-0.9-0.338-1.375s0.9-0.625 1.375-0.338zM10.381 16.075c0.375 0.156 0.619 0.519 0.619 0.925v8c0 0.406-0.244 0.769-0.619 0.925s-0.806 0.069-1.088-0.219l-2.206-2.206h-2.087c-0.55 0-1-0.45-1-1v-3c0-0.55 0.45-1 1-1h2.088l2.206-2.206c0.287-0.288 0.719-0.369 1.088-0.219zM13.569 18.256c0.412-0.369 1.044-0.331 1.412 0.081 0.631 0.7 1.019 1.637 1.019 2.663s-0.387 1.962-1.019 2.669c-0.369 0.413-1 0.444-1.412 0.081s-0.444-1-0.081-1.413c0.319-0.356 0.506-0.819 0.506-1.331s-0.194-0.981-0.506-1.331c-0.369-0.413-0.331-1.044 0.081-1.413z"/>
</svg>