<svg version="1.1" xmlns="http://www.w3.org/2000/svg" width="36" height="32" viewBox="0 0 36 32">
<path fill="currentColor" d="M0 4c0-2.206 1.794-4 4-4h10v8c0 1.106 0.894 2 2 2h8v2.412c-4.619 1.306-8 5.55-8 10.588 0 3.694 1.819 6.956 4.606 8.956-0.2 0.031-0.4 0.044-0.606 0.044h-16c-2.206 0-4-1.794-4-4v-24zM24 8h-8v-8l8 8zM27 14c4.971 0 9 4.029 9 9s-4.029 9-9 9v0c-4.971 0-9-4.029-9-9s4.029-9 9-9v0zM27 29c0.828 0 1.5-0.672 1.5-1.5s-0.672-1.5-1.5-1.5v0c-0.828 0-1.5 0.672-1.5 1.5s0.672 1.5 1.5 1.5v0zM27 17c-0.55 0-1 0.45-1 1v5c0 0.55 0.45 1 1 1s1-0.45 1-1v-5c0-0.55-0.45-1-1-1z"/>
</svg>