<svg version="1.1" xmlns="http://www.w3.org/2000/svg" width="24" height="32" viewBox="0 0 24 32">
<path fill="currentColor" d="M4 0c-2.206 0-4 1.794-4 4v24c0 2.206 1.794 4 4 4h16c2.206 0 4-1.794 4-4v-18h-8c-1.106 0-2-0.894-2-2v-8h-10zM16 0v8h8l-8-8zM4 5c0-0.55 0.45-1 1-1h4c0.55 0 1 0.45 1 1s-0.45 1-1 1h-4c-0.55 0-1-0.45-1-1zM4 9c0-0.55 0.45-1 1-1h4c0.55 0 1 0.45 1 1s-0.45 1-1 1h-4c-0.55 0-1-0.45-1-1zM12 13.5c0.55 0 1 0.45 1 1v1.081c0.531 0.075 1.044 0.194 1.506 0.319 0.531 0.144 0.85 0.687 0.706 1.225s-0.688 0.85-1.225 0.706c-0.694-0.188-1.375-0.325-2.006-0.331-0.525-0.006-1.088 0.113-1.475 0.344-0.356 0.212-0.506 0.456-0.506 0.8 0 0.231 0.081 0.406 0.456 0.631 0.431 0.256 1.037 0.444 1.825 0.681l0.031 0.006c0.706 0.212 1.581 0.475 2.269 0.913 0.756 0.475 1.4 1.231 1.419 2.387 0.019 1.206-0.6 2.081-1.431 2.6-0.481 0.3-1.025 0.475-1.569 0.569v1.069c0 0.55-0.45 1-1 1s-1-0.45-1-1v-1.113c-0.7-0.131-1.356-0.356-1.931-0.556v0c-0.131-0.044-0.262-0.087-0.387-0.131-0.525-0.175-0.806-0.744-0.631-1.262s0.744-0.806 1.262-0.631c0.156 0.050 0.3 0.1 0.444 0.15v0 0 0c0.85 0.288 1.537 0.525 2.269 0.544 0.569 0.019 1.119-0.106 1.481-0.331 0.319-0.2 0.494-0.456 0.488-0.875-0.006-0.288-0.113-0.488-0.481-0.725-0.425-0.269-1.031-0.462-1.813-0.7l-0.1-0.031c-0.688-0.206-1.519-0.456-2.175-0.856-0.75-0.45-1.412-1.181-1.419-2.331-0.006-1.212 0.675-2.050 1.488-2.531 0.469-0.275 0.988-0.45 1.506-0.544v-1.075c0-0.55 0.45-1 1-1z"/>
</svg>