<svg version="1.1" xmlns="http://www.w3.org/2000/svg" width="36" height="32" viewBox="0 0 36 32">
<path fill="currentColor" d="M4 0c-2.206 0-4 1.794-4 4v24c0 2.206 1.794 4 4 4h16c2.206 0 4-1.794 4-4v-1.206c-0.169 0.069-0.337 0.125-0.512 0.169l-3.756 0.938c-0.188 0.044-0.375 0.075-0.563 0.087-0.056 0.006-0.113 0.012-0.169 0.012h-4c-0.381 0-0.725-0.212-0.894-0.55l-0.55-1.106c-0.106-0.212-0.319-0.344-0.55-0.344s-0.45 0.131-0.55 0.344l-0.55 1.106c-0.181 0.369-0.575 0.587-0.981 0.55s-0.756-0.319-0.869-0.706l-1.056-3.481-0.613 2.050c-0.381 1.269-1.55 2.137-2.875 2.137h-0.513c-0.55 0-1-0.45-1-1s0.45-1 1-1h0.513c0.444 0 0.831-0.288 0.956-0.712l0.931-3.094c0.213-0.706 0.862-1.194 1.6-1.194s1.387 0.488 1.6 1.194l0.725 2.413c0.463-0.387 1.050-0.606 1.675-0.606 0.994 0 1.9 0.563 2.344 1.45l0.275 0.55h0.556c-0.194-0.55-0.231-1.15-0.087-1.738l0.938-3.756c0.175-0.706 0.538-1.344 1.050-1.856l5.925-5.925v-2.725h-8c-1.106 0-2-0.894-2-2v-8h-10zM16 0v8h8l-8-8zM34.362 8.731c-0.975-0.975-2.556-0.975-3.538 0l-1.837 1.838 4.438 4.438 1.837-1.838c0.975-0.975 0.975-2.556 0-3.537l-0.9-0.9zM19.494 20.063c-0.256 0.256-0.438 0.575-0.525 0.931l-0.938 3.756c-0.087 0.344 0.012 0.7 0.262 0.95s0.606 0.35 0.95 0.262l3.756-0.938c0.35-0.087 0.675-0.269 0.931-0.525l8.075-8.081-4.438-4.438-8.075 8.081z"/>
</svg>