<svg version="1.1" xmlns="http://www.w3.org/2000/svg" width="24" height="32" viewBox="0 0 24 32">
<path fill="currentColor" d="M4 0c-2.206 0-4 1.794-4 4v24c0 2.206 1.794 4 4 4h16c2.206 0 4-1.794 4-4v-18h-8c-1.106 0-2-0.894-2-2v-8h-10zM16 0v8h8l-8-8zM5 4h4c0.55 0 1 0.45 1 1s-0.45 1-1 1h-4c-0.55 0-1-0.45-1-1s0.45-1 1-1zM5 8h4c0.55 0 1 0.45 1 1s-0.45 1-1 1h-4c-0.55 0-1-0.45-1-1s0.45-1 1-1zM6 14h12c1.106 0 2 0.894 2 2v4c0 1.106-0.894 2-2 2h-12c-1.106 0-2-0.894-2-2v-4c0-1.106 0.894-2 2-2zM6 16v4h12v-4h-12zM15 26h4c0.55 0 1 0.45 1 1s-0.45 1-1 1h-4c-0.55 0-1-0.45-1-1s0.45-1 1-1z"/>
</svg>