<svg version="1.1" xmlns="http://www.w3.org/2000/svg" width="36" height="32" viewBox="0 0 36 32">
<path fill="currentColor" d="M0 4c0-2.206 1.794-4 4-4h10v8c0 1.106 0.894 2 2 2h8v8h-10.5c-0.831 0-1.5 0.669-1.5 1.5s0.669 1.5 1.5 1.5h10.5v7c0 2.206-1.794 4-4 4h-16c-2.206 0-4-1.794-4-4v-24zM24 21v-3h6.881l-2.438-2.438c-0.587-0.588-0.587-1.537 0-2.119s1.538-0.588 2.119 0l5 5c0.587 0.587 0.587 1.538 0 2.119l-5 5c-0.587 0.587-1.538 0.587-2.119 0s-0.587-1.538 0-2.119l2.438-2.438h-6.881zM24 8h-8v-8l8 8z"/>
</svg>