<svg version="1.1" xmlns="http://www.w3.org/2000/svg" width="24" height="32" viewBox="0 0 24 32">
<path fill="currentColor" d="M4 0c-2.206 0-4 1.794-4 4v24c0 2.206 1.794 4 4 4h16c2.206 0 4-1.794 4-4v-18h-8c-1.106 0-2-0.894-2-2v-8h-10zM16 0v8h8l-8-8zM5 4h4c0.55 0 1 0.45 1 1s-0.45 1-1 1h-4c-0.55 0-1-0.45-1-1s0.45-1 1-1zM5 8h4c0.55 0 1 0.45 1 1s-0.45 1-1 1h-4c-0.55 0-1-0.45-1-1s0.45-1 1-1zM8.387 23.863c-0.381 1.269-1.55 2.137-2.875 2.137h-0.513c-0.55 0-1-0.45-1-1s0.45-1 1-1h0.513c0.444 0 0.831-0.288 0.956-0.712l0.931-3.094c0.213-0.706 0.862-1.194 1.6-1.194s1.387 0.481 1.6 1.194l0.725 2.413c0.463-0.387 1.050-0.606 1.675-0.606 0.994 0 1.9 0.563 2.344 1.45l0.275 0.55h3.381c0.55 0 1 0.45 1 1s-0.45 1-1 1h-4c-0.381 0-0.725-0.212-0.894-0.55l-0.55-1.106c-0.106-0.212-0.319-0.344-0.55-0.344s-0.45 0.131-0.55 0.344l-0.55 1.106c-0.181 0.369-0.575 0.587-0.981 0.55s-0.756-0.319-0.869-0.706l-1.056-3.481-0.613 2.050z"/>
</svg>