<svg version="1.1" xmlns="http://www.w3.org/2000/svg" width="32" height="32" viewBox="0 0 32 32">
<path fill="currentColor" d="M0 4c0-2.206 1.794-4 4-4h10v8c0 1.106 0.894 2 2 2h8v9h-13c-2.206 0-4 1.794-4 4v9h-3c-2.206 0-4-1.794-4-4v-24zM24 8h-8v-8l8 8zM11 22h2c1.931 0 3.5 1.569 3.5 3.5s-1.569 3.5-3.5 3.5h-1v2c0 0.55-0.45 1-1 1s-1-0.45-1-1v-8c0-0.55 0.45-1 1-1zM13 27c0.831 0 1.5-0.669 1.5-1.5s-0.669-1.5-1.5-1.5h-1v3h1zM19 22h2c1.656 0 3 1.344 3 3v4c0 1.656-1.344 3-3 3h-2c-0.55 0-1-0.45-1-1v-8c0-0.55 0.45-1 1-1zM21 30c0.55 0 1-0.45 1-1v-4c0-0.55-0.45-1-1-1h-1v6h1zM26 23c0-0.55 0.45-1 1-1h3c0.55 0 1 0.45 1 1s-0.45 1-1 1h-2v2h2c0.55 0 1 0.45 1 1s-0.45 1-1 1h-2v3c0 0.55-0.45 1-1 1s-1-0.45-1-1v-8z"/>
</svg>