<svg version="1.1" xmlns="http://www.w3.org/2000/svg" width="24" height="32" viewBox="0 0 24 32">
<path fill="currentColor" d="M4 0c-2.206 0-4 1.794-4 4v24c0 2.206 1.794 4 4 4h16c2.206 0 4-1.794 4-4v-18h-8c-1.106 0-2-0.894-2-2v-8h-10zM16 0v8h8l-8-8zM4 16c0-1.105 0.895-2 2-2s2 0.895 2 2v0c0 1.105-0.895 2-2 2s-2-0.895-2-2v0zM13.5 18c0.331 0 0.637 0.163 0.825 0.431l5.5 8c0.212 0.306 0.231 0.706 0.063 1.031s-0.512 0.538-0.887 0.538h-14c-0.362 0-0.694-0.194-0.869-0.506s-0.175-0.7 0.013-1.006l3-5c0.181-0.3 0.506-0.488 0.856-0.488s0.675 0.181 0.856 0.488l0.8 1.337 3.019-4.387c0.188-0.269 0.494-0.431 0.825-0.431z"/>
</svg>