<svg version="1.1" xmlns="http://www.w3.org/2000/svg" width="24" height="32" viewBox="0 0 24 32">
<path fill="currentColor" d="M4 0c-2.206 0-4 1.794-4 4v24c0 2.206 1.794 4 4 4h16c2.206 0 4-1.794 4-4v-18h-8c-1.106 0-2-0.894-2-2v-8h-10zM16 0v8h8l-8-8zM6.938 16.069l1.675 5.575 1.975-5.644c0.213-0.6 0.781-1.006 1.419-1.006s1.206 0.4 1.419 1.006l1.975 5.644 1.663-5.575c0.238-0.794 1.075-1.244 1.869-1.006s1.244 1.075 1.006 1.869l-3 10c-0.188 0.625-0.75 1.056-1.4 1.069s-1.238-0.387-1.45-1.006l-2.088-5.956-2.081 5.956c-0.213 0.613-0.8 1.019-1.45 1.006s-1.219-0.444-1.4-1.069l-3-10c-0.237-0.794 0.213-1.631 1.006-1.869s1.631 0.213 1.869 1.006z"/>
</svg>