<svg version="1.1" xmlns="http://www.w3.org/2000/svg" width="24" height="32" viewBox="0 0 24 32">
<path fill="currentColor" d="M4 0c-2.206 0-4 1.794-4 4v24c0 2.206 1.794 4 4 4h16c2.206 0 4-1.794 4-4v-18h-8c-1.106 0-2-0.894-2-2v-8h-10zM16 0v8h8l-8-8zM9.731 15.637l2.269 3.244 2.269-3.244c0.475-0.681 1.412-0.844 2.087-0.369s0.844 1.413 0.369 2.087l-2.894 4.144 2.9 4.137c0.475 0.681 0.313 1.613-0.369 2.087s-1.613 0.313-2.088-0.369l-2.275-3.244-2.269 3.244c-0.475 0.681-1.412 0.844-2.088 0.369s-0.844-1.413-0.369-2.087l2.894-4.137-2.9-4.137c-0.475-0.681-0.313-1.613 0.369-2.088s1.613-0.313 2.088 0.369z"/>
</svg>