<svg version="1.1" xmlns="http://www.w3.org/2000/svg" width="36" height="32" viewBox="0 0 36 32">
<path fill="currentColor" d="M0 4c0-2.206 1.794-4 4-4h10v8c0 1.106 0.894 2 2 2h8v2.938l-5.8 2.319c-1.331 0.531-2.2 1.819-2.2 3.25 0 3.538 1.181 9.25 5.887 13.019-0.563 0.3-1.206 0.475-1.887 0.475h-16c-2.206 0-4-1.794-4-4v-24zM24 8h-8v-8l8 8zM26.444 14.106c0.356-0.144 0.756-0.144 1.113 0l7.5 3c0.569 0.231 0.944 0.781 0.944 1.394 0 3.956-1.619 10.55-8.425 13.387-0.369 0.156-0.788 0.156-1.156 0-6.8-2.837-8.419-9.431-8.419-13.387 0-0.613 0.375-1.163 0.944-1.394l7.5-3zM32.962 19.5l-5.962-2.387v11.744c4.262-2.063 5.719-6.188 5.962-9.356z"/>
</svg>