<svg version="1.1" xmlns="http://www.w3.org/2000/svg" width="24" height="32" viewBox="0 0 24 32">
<path fill="currentColor" d="M4 0c-2.206 0-4 1.794-4 4v24c0 2.206 1.794 4 4 4h16c2.206 0 4-1.794 4-4v-18h-8c-1.106 0-2-0.894-2-2v-8h-10zM16 0v8h8l-8-8zM13.5 25.5c0 0.831-0.669 1.5-1.5 1.5s-1.5-0.669-1.5-1.5v-6.381l-1.938 1.938c-0.588 0.587-1.537 0.587-2.119 0s-0.588-1.538 0-2.119l4.5-4.5c0.588-0.588 1.537-0.588 2.119 0l4.5 4.5c0.587 0.587 0.587 1.538 0 2.119s-1.538 0.587-2.119 0l-1.938-1.938v6.381z"/>
</svg>