<svg version="1.1" xmlns="http://www.w3.org/2000/svg" width="24" height="32" viewBox="0 0 24 32">
<path fill="currentColor" d="M4 0c-2.206 0-4 1.794-4 4v24c0 2.206 1.794 4 4 4h16c2.206 0 4-1.794 4-4v-18h-8c-1.106 0-2-0.894-2-2v-8h-10zM16 0v8h8l-8-8zM6 3c0-0.55 0.45-1 1-1h2c0.55 0 1 0.45 1 1s-0.45 1-1 1h-2c-0.55 0-1-0.45-1-1zM6 7c0-0.55 0.45-1 1-1h2c0.55 0 1 0.45 1 1s-0.45 1-1 1h-2c-0.55 0-1-0.45-1-1zM6 11c0-0.55 0.45-1 1-1h2c0.55 0 1 0.45 1 1s-0.45 1-1 1h-2c-0.55 0-1-0.45-1-1zM5.606 15.488c0.231-0.875 1.025-1.488 1.931-1.488h0.925c0.906 0 1.7 0.606 1.931 1.488l1.469 5.512c0.088 0.337 0.131 0.681 0.131 1.025 0 2.2-1.8 3.981-4 3.981s-4-1.781-4-3.981c0-0.344 0.044-0.694 0.131-1.025l1.469-5.512zM7 21c-0.55 0-1 0.45-1 1s0.45 1 1 1h2c0.55 0 1-0.45 1-1s-0.45-1-1-1h-2z"/>
</svg>