<svg version="1.1" xmlns="http://www.w3.org/2000/svg" width="36" height="32" viewBox="0 0 36 32">
<path fill="currentColor" d="M0 4c0-2.206 1.794-4 4-4h10v8c0 1.106 0.894 2 2 2h8v2.412c-4.619 1.306-8 5.55-8 10.588 0 3.694 1.819 6.956 4.606 8.956-0.2 0.031-0.4 0.044-0.606 0.044h-16c-2.206 0-4-1.794-4-4v-24zM24 8h-8v-8l8 8zM27 14c4.971 0 9 4.029 9 9s-4.029 9-9 9v0c-4.971 0-9-4.029-9-9s4.029-9 9-9v0zM27 29c0.828 0 1.5-0.672 1.5-1.5s-0.672-1.5-1.5-1.5v0c-0.828 0-1.5 0.672-1.5 1.5s0.672 1.5 1.5 1.5v0zM23 20.1v0.4c0 0.55 0.45 1 1 1s1-0.45 1-1v-0.4c0-0.331 0.269-0.6 0.6-0.6h2.531c0.481 0 0.869 0.387 0.869 0.869 0 0.325-0.181 0.619-0.462 0.769l-2 1.050c-0.331 0.175-0.538 0.512-0.538 0.887v0.925c0 0.55 0.45 1 1 1s1-0.45 1-1v-0.319l1.469-0.769c0.944-0.494 1.531-1.475 1.531-2.538 0-1.587-1.288-2.869-2.869-2.869h-2.531c-1.438 0-2.6 1.163-2.6 2.6z"/>
</svg>