<svg version="1.1" xmlns="http://www.w3.org/2000/svg" width="24" height="32" viewBox="0 0 24 32">
<path fill="currentColor" d="M4 0c-2.206 0-4 1.794-4 4v24c0 2.206 1.794 4 4 4h16c2.206 0 4-1.794 4-4v-18h-8c-1.106 0-2-0.894-2-2v-8h-10zM16 0v8h8l-8-8zM4 18c0-1.106 0.894-2 2-2h6c1.106 0 2 0.894 2 2v6c0 1.106-0.894 2-2 2h-6c-1.106 0-2-0.894-2-2v-6zM18.806 24.869l-2.806-1.869v-4l2.806-1.869c0.125-0.081 0.275-0.131 0.425-0.131 0.425 0 0.769 0.344 0.769 0.769v6.463c0 0.425-0.344 0.769-0.769 0.769-0.15 0-0.3-0.044-0.425-0.131z"/>
</svg>