<svg version="1.1" xmlns="http://www.w3.org/2000/svg" width="36" height="32" viewBox="0 0 36 32">
<path fill="currentColor" d="M0 4c0-2.206 1.794-4 4-4h10v8c0 1.106 0.894 2 2 2h8v7.856l-5.425 5.425c-0.644 0.644-1.094 1.444-1.313 2.325l-1.169 4.681c-0.144 0.575-0.113 1.175 0.081 1.719h-12.175c-2.206 0-4-1.794-4-4v-24.006zM24 8h-8v-8l8 8zM34.362 14.731l0.9 0.9c0.975 0.975 0.975 2.556 0 3.537l-1.837 1.837-4.438-4.438 1.837-1.838c0.975-0.975 2.556-0.975 3.538 0zM19.494 26.063l8.075-8.075 4.437 4.438-8.075 8.069c-0.256 0.256-0.575 0.438-0.931 0.525l-3.756 0.938c-0.344 0.087-0.7-0.012-0.95-0.262s-0.35-0.606-0.262-0.95l0.938-3.756c0.087-0.35 0.269-0.675 0.525-0.931z"/>
</svg>