<svg version="1.1" xmlns="http://www.w3.org/2000/svg" width="36" height="32" viewBox="0 0 36 32">
<path fill="currentColor" d="M0 4c0-2.206 1.794-4 4-4h10v8c0 1.106 0.894 2 2 2h8v2.412c-4.619 1.306-8 5.55-8 10.588 0 3.694 1.819 6.956 4.606 8.956-0.2 0.031-0.4 0.044-0.606 0.044h-16c-2.206 0-4-1.794-4-4v-24zM24 8h-8v-8l8 8zM18 23c0-4.971 4.029-9 9-9s9 4.029 9 9v0c0 4.971-4.029 9-9 9s-9-4.029-9-9v0zM31.206 20.294c-0.387-0.387-1.025-0.387-1.413 0l-3.794 3.794-1.794-1.794c-0.387-0.387-1.025-0.387-1.413 0s-0.387 1.025 0 1.413l2.5 2.5c0.387 0.387 1.025 0.387 1.413 0l4.5-4.5c0.387-0.387 0.387-1.025 0-1.413z"/>
</svg>