<svg version="1.1" xmlns="http://www.w3.org/2000/svg" width="24" height="32" viewBox="0 0 24 32">
<path fill="currentColor" d="M4 0c-2.206 0-4 1.794-4 4v24c0 2.206 1.794 4 4 4h16c2.206 0 4-1.794 4-4v-18h-8c-1.106 0-2-0.894-2-2v-8h-10zM16 0v8h8l-8-8zM6.5 12.25h4.5c2.069 0 3.75 1.681 3.75 3.75 0 1.594-0.994 2.95-2.394 3.494l2.688 2.519 2.113-1.938c0.506-0.469 1.3-0.431 1.769 0.075s0.431 1.3-0.075 1.769l-1.975 1.813 1.981 1.856c0.506 0.475 0.531 1.262 0.056 1.769s-1.262 0.531-1.769 0.056l-2.119-1.988-2.181 2c-0.506 0.469-1.3 0.431-1.769-0.075s-0.431-1.3 0.075-1.769l2.037-1.869-4.050-3.8c-0.056-0.050-0.1-0.106-0.144-0.163h-1.244v2.75c0 0.688-0.563 1.25-1.25 1.25s-1.25-0.563-1.25-1.25v-9c0-0.688 0.563-1.25 1.25-1.25zM11 17.25c0.688 0 1.25-0.563 1.25-1.25s-0.563-1.25-1.25-1.25h-3.25v2.5h3.25z"/>
</svg>