<svg version="1.1" xmlns="http://www.w3.org/2000/svg" width="32" height="32" viewBox="0 0 32 32">
<path fill="currentColor" d="M0 4c0-2.206 1.794-4 4-4h10v8c0 1.106 0.894 2 2 2h8v9h-13c-2.206 0-4 1.794-4 4v9h-3c-2.206 0-4-1.794-4-4v-24zM24 8h-8v-8l8 8zM12.5 22h1c1.381 0 2.5 1.119 2.5 2.5v0.5c0 0.55-0.45 1-1 1s-1-0.45-1-1v-0.5c0-0.275-0.225-0.5-0.5-0.5h-1c-0.275 0-0.5 0.225-0.5 0.5v5c0 0.275 0.225 0.5 0.5 0.5h1c0.275 0 0.5-0.225 0.5-0.5v-0.5c0-0.55 0.45-1 1-1s1 0.45 1 1v0.5c0 1.381-1.119 2.5-2.5 2.5h-1c-1.381 0-2.5-1.119-2.5-2.5v-5c0-1.381 1.119-2.5 2.5-2.5zM20.819 22h2.181c0.55 0 1 0.45 1 1s-0.45 1-1 1h-2.181c-0.45 0-0.819 0.369-0.819 0.819 0 0.325 0.188 0.619 0.488 0.75l2.337 1.038c1.019 0.45 1.675 1.462 1.675 2.575 0 1.556-1.262 2.819-2.819 2.819h-2.681c-0.55 0-1-0.45-1-1s0.45-1 1-1h2.681c0.45 0 0.819-0.369 0.819-0.819 0-0.325-0.188-0.619-0.488-0.75l-2.337-1.038c-1.019-0.45-1.675-1.462-1.675-2.575 0-1.556 1.262-2.819 2.819-2.819zM27 22c0.55 0 1 0.45 1 1v1.975c0 1.438 0.344 2.85 1 4.125 0.656-1.269 1-2.681 1-4.125v-1.975c0-0.55 0.45-1 1-1s1 0.45 1 1v1.975c0 2.169-0.644 4.294-1.85 6.1l-0.319 0.481c-0.188 0.281-0.5 0.444-0.831 0.444s-0.644-0.169-0.831-0.444l-0.319-0.481c-1.206-1.806-1.85-3.931-1.85-6.1v-1.975c0-0.55 0.45-1 1-1z"/>
</svg>