<svg version="1.1" xmlns="http://www.w3.org/2000/svg" width="36" height="32" viewBox="0 0 36 32">
<path fill="currentColor" d="M2.587 0.588c0.781-0.781 2.044-0.781 2.825 0l5.088 5.081 3.319-3.319c1.756-1.756 4.606-1.756 6.362 0l9.462 9.469c1.756 1.756 1.756 4.606 0 6.362l-11.9 11.906c-2.344 2.344-6.144 2.344-8.488 0l-7.344-7.344c-2.344-2.344-2.344-6.144 0-8.488l5.756-5.756-5.081-5.088c-0.781-0.781-0.781-2.050 0-2.831zM13.588 14.419l-3.088-3.088-5.756 5.756c-0.263 0.262-0.438 0.581-0.525 0.913h19.95l2.644-2.644c0.194-0.194 0.194-0.512 0-0.706l-9.456-9.469c-0.194-0.194-0.512-0.194-0.706 0l-3.319 3.319 3.088 3.088c0.781 0.781 0.781 2.050 0 2.831s-2.050 0.781-2.831 0zM32 32c-2.206 0-4-1.794-4-4 0-1.575 2.038-4.975 3.2-6.794 0.375-0.587 1.219-0.587 1.594 0 1.169 1.819 3.206 5.219 3.206 6.794 0 2.206-1.794 4-4 4z"/>
</svg>