<svg version="1.1" xmlns="http://www.w3.org/2000/svg" width="32" height="32" viewBox="0 0 32 32">
<path fill="currentColor" d="M5.412 0.588c-0.781-0.781-2.044-0.781-2.825 0s-0.781 2.050 0 2.831l5.081 5.081-5.756 5.756c-2.344 2.344-2.344 6.144 0 8.487l7.344 7.344c2.344 2.344 6.144 2.344 8.487 0l11.9-11.906c1.756-1.756 1.756-4.606 0-6.363l-9.462-9.463c-1.756-1.756-4.606-1.756-6.363 0l-3.319 3.313-5.088-5.081zM10.5 11.331l3.088 3.088c0.781 0.781 2.050 0.781 2.831 0s0.781-2.050 0-2.831l-3.088-3.088 3.319-3.319c0.194-0.194 0.512-0.194 0.706 0l9.463 9.463c0.194 0.194 0.194 0.512 0 0.706l-2.65 2.65h-19.95c0.088-0.337 0.263-0.65 0.525-0.913l5.756-5.756z"/>
</svg>