<svg version="1.1" xmlns="http://www.w3.org/2000/svg" width="32" height="32" viewBox="0 0 32 32">
<path fill="currentColor" d="M0 6c0-2.206 1.794-4 4-4h24c2.206 0 4 1.794 4 4v20c0 2.206-1.794 4-4 4h-24c-2.206 0-4-1.794-4-4v-20zM3 23v2c0 0.55 0.45 1 1 1h2c0.55 0 1-0.45 1-1v-2c0-0.55-0.45-1-1-1h-2c-0.55 0-1 0.45-1 1zM26 22c-0.55 0-1 0.45-1 1v2c0 0.55 0.45 1 1 1h2c0.55 0 1-0.45 1-1v-2c0-0.55-0.45-1-1-1h-2zM3 15v2c0 0.55 0.45 1 1 1h2c0.55 0 1-0.45 1-1v-2c0-0.55-0.45-1-1-1h-2c-0.55 0-1 0.45-1 1zM26 14c-0.55 0-1 0.45-1 1v2c0 0.55 0.45 1 1 1h2c0.55 0 1-0.45 1-1v-2c0-0.55-0.45-1-1-1h-2zM3 7v2c0 0.55 0.45 1 1 1h2c0.55 0 1-0.45 1-1v-2c0-0.55-0.45-1-1-1h-2c-0.55 0-1 0.45-1 1zM26 6c-0.55 0-1 0.45-1 1v2c0 0.55 0.45 1 1 1h2c0.55 0 1-0.45 1-1v-2c0-0.55-0.45-1-1-1h-2zM10 8v4c0 1.106 0.894 2 2 2h8c1.106 0 2-0.894 2-2v-4c0-1.106-0.894-2-2-2h-8c-1.106 0-2 0.894-2 2zM12 18c-1.106 0-2 0.894-2 2v4c0 1.106 0.894 2 2 2h8c1.106 0 2-0.894 2-2v-4c0-1.106-0.894-2-2-2h-8z"/>
</svg>