<svg version="1.1" xmlns="http://www.w3.org/2000/svg" width="36" height="32" viewBox="0 0 36 32">
<path fill="currentColor" d="M0.244 1.431c0.412-0.875 1.288-1.431 2.256-1.431h27c0.969 0 1.844 0.556 2.256 1.431s0.288 1.906-0.325 2.656l-6.656 8.137c-5.012 1.031-8.775 5.463-8.775 10.775 0 1.712 0.394 3.337 1.094 4.781-0.1-0.050-0.2-0.113-0.294-0.181l-4-3c-0.506-0.375-0.8-0.969-0.8-1.6v-4.944l-11.438-13.975c-0.606-0.744-0.738-1.781-0.319-2.65zM18 23c0-4.971 4.029-9 9-9s9 4.029 9 9v0c0 4.971-4.029 9-9 9s-9-4.029-9-9v0zM25.55 20.962c0.038-0.056 0.113-0.131 0.262-0.212 0.319-0.169 0.781-0.256 1.169-0.25 0.512 0.006 1.069 0.113 1.65 0.256 0.538 0.131 1.081-0.194 1.212-0.731s-0.194-1.081-0.731-1.212c-0.35-0.087-0.725-0.169-1.119-0.231v-0.581c0-0.55-0.45-1-1-1s-1 0.45-1 1v0.594c-0.381 0.075-0.769 0.2-1.125 0.394-0.738 0.394-1.438 1.15-1.363 2.325 0.063 1 0.731 1.581 1.35 1.919 0.55 0.294 1.231 0.488 1.788 0.644l0.113 0.031c0.644 0.181 1.119 0.325 1.45 0.519 0.281 0.169 0.294 0.262 0.294 0.35 0.006 0.15-0.031 0.231-0.063 0.281-0.038 0.063-0.113 0.137-0.25 0.206-0.294 0.156-0.738 0.238-1.156 0.225-0.594-0.019-1.156-0.194-1.869-0.425-0.119-0.038-0.238-0.075-0.363-0.113-0.525-0.163-1.087 0.131-1.25 0.656s0.131 1.087 0.656 1.25c0.1 0.031 0.206 0.063 0.313 0.1v0 0c0.438 0.144 0.944 0.3 1.481 0.413v0.712c0 0.55 0.45 1 1 1s1-0.45 1-1v-0.663c0.387-0.069 0.781-0.194 1.144-0.387 0.756-0.406 1.394-1.169 1.356-2.306-0.031-1.012-0.644-1.644-1.281-2.019-0.587-0.35-1.325-0.556-1.906-0.719h-0.012c-0.65-0.181-1.144-0.325-1.494-0.512-0.3-0.163-0.3-0.25-0.3-0.281v-0.006c-0.006-0.119 0.019-0.181 0.050-0.225z"/>
</svg>