<svg version="1.1" xmlns="http://www.w3.org/2000/svg" width="36" height="32" viewBox="0 0 36 32">
<path fill="currentColor" d="M0.244 1.431c0.412-0.875 1.288-1.431 2.256-1.431h27c0.969 0 1.844 0.556 2.256 1.431s0.288 1.906-0.325 2.656l-6.656 8.137c-5.012 1.031-8.775 5.463-8.775 10.775 0 1.712 0.394 3.337 1.094 4.781-0.1-0.050-0.2-0.113-0.294-0.181l-4-3c-0.506-0.375-0.8-0.969-0.8-1.6v-4.944l-11.438-13.975c-0.606-0.744-0.738-1.781-0.319-2.65zM27 14c4.971 0 9 4.029 9 9s-4.029 9-9 9v0c-4.971 0-9-4.029-9-9s4.029-9 9-9v0zM30.706 20.706c0.387-0.387 0.387-1.025 0-1.413s-1.025-0.387-1.413 0l-2.294 2.294-2.294-2.294c-0.387-0.387-1.025-0.387-1.413 0s-0.387 1.025 0 1.413l2.294 2.294-2.294 2.294c-0.387 0.387-0.387 1.025 0 1.413s1.025 0.387 1.413 0l2.294-2.294 2.294 2.294c0.387 0.387 1.025 0.387 1.413 0s0.387-1.025 0-1.413l-2.294-2.294 2.294-2.294z"/>
</svg>