<svg version="1.1" xmlns="http://www.w3.org/2000/svg" width="32" height="32" viewBox="0 0 32 32">
<path fill="currentColor" d="M3 16c0-7.181 5.819-13 13-13 3.944 0 7.475 1.756 9.863 4.531 0.538 0.631 1.488 0.7 2.113 0.162s0.7-1.487 0.163-2.112c-2.931-3.419-7.281-5.581-12.137-5.581-8.838 0-16 7.162-16 16v2.5c0 0.831 0.669 1.5 1.5 1.5s1.5-0.669 1.5-1.5v-2.5zM31.656 12.694c-0.169-0.813-0.969-1.331-1.775-1.156s-1.331 0.969-1.156 1.775c0.181 0.869 0.281 1.769 0.281 2.694v2.5c0 0.831 0.669 1.5 1.5 1.5s1.5-0.669 1.5-1.5v-2.506c0-1.131-0.119-2.238-0.344-3.306zM16 5c-1.188 0-2.338 0.188-3.406 0.537-0.95 0.313-1.169 1.481-0.519 2.244 0.444 0.519 1.175 0.675 1.838 0.494s1.363-0.275 2.088-0.275c4.419 0 8 3.581 8 8v1.556c0 1.575-0.094 3.144-0.275 4.706-0.106 0.913 0.587 1.738 1.512 1.738 0.738 0 1.369-0.538 1.456-1.269 0.206-1.712 0.313-3.438 0.313-5.169v-1.563c0-6.075-4.925-11-11-11zM9.419 9.294c-0.569-0.662-1.581-0.713-2.119-0.025-1.444 1.856-2.3 4.194-2.3 6.731v1.556c0 1.512-0.162 3.025-0.487 4.494-0.213 0.975 0.494 1.95 1.494 1.95 0.656 0 1.244-0.438 1.388-1.081 0.4-1.756 0.606-3.55 0.606-5.363v-1.556c0-1.7 0.531-3.275 1.431-4.569 0.45-0.65 0.5-1.537-0.012-2.137zM16 10c-3.313 0-6 2.688-6 6v1.556c0 2.244-0.287 4.469-0.863 6.631-0.238 0.894 0.419 1.813 1.344 1.813 0.594 0 1.119-0.387 1.275-0.962 0.656-2.438 0.994-4.95 0.994-7.481v-1.556c0-1.794 1.456-3.25 3.25-3.25s3.25 1.456 3.25 3.25v1.556c0 2.269-0.219 4.525-0.65 6.744-0.169 0.869 0.481 1.7 1.363 1.7 0.637 0 1.188-0.438 1.313-1.063 0.481-2.425 0.725-4.894 0.725-7.381v-1.556c0-3.313-2.688-6-6-6zM17.5 16c0-0.831-0.669-1.5-1.5-1.5s-1.5 0.669-1.5 1.5v1.556c0 3.744-0.688 7.456-2.031 10.95l-0.369 0.956c-0.3 0.775 0.088 1.644 0.863 1.938s1.644-0.087 1.938-0.863l0.369-0.956c1.475-3.837 2.231-7.913 2.231-12.025v-1.556z"/>
</svg>