<svg version="1.1" xmlns="http://www.w3.org/2000/svg" width="40" height="32" viewBox="0 0 40 32">
<path fill="currentColor" d="M18.344 0.237c1.231 1.113 2.387 2.313 3.469 3.606 0.494-0.619 1.050-1.294 1.656-1.844 0.35-0.319 0.9-0.319 1.25 0 1.544 1.419 2.85 3.294 3.775 5.069 0.906 1.75 1.512 3.675 1.512 4.938-0.006 5.494-4.463 9.994-10.006 9.994-5.606 0-10-4.506-10-9.988 0-1.65 0.794-3.794 2.025-5.787 1.25-2.025 3.006-4.131 5.088-5.987 0.175-0.156 0.4-0.237 0.625-0.231 0.219 0 0.438 0.081 0.613 0.237zM23.125 17.063c1.875-1.313 2.375-3.938 1.25-6-0.125-0.25-0.25-0.5-0.438-0.75l-2.25 2.625s-3.625-4.625-3.875-4.938c-1.875 2.313-2.813 3.625-2.813 5.125 0 3.063 2.25 4.875 5.063 4.875 1.125 0 2.125-0.313 3.063-0.938zM2 18c0-1.106 0.894-2 2-2h2c1.106 0 2 0.894 2 2s-0.894 2-2 2v4h28v-4c-1.106 0-2-0.894-2-2s0.894-2 2-2h2c1.106 0 2 0.894 2 2v6c1.106 0 2 0.894 2 2v4c0 1.106-0.894 2-2 2h-36c-1.106 0-2-0.894-2-2v-4c0-1.106 0.894-2 2-2v-6zM20 30c1.105 0 2-0.895 2-2s-0.895-2-2-2v0c-1.105 0-2 0.895-2 2s0.895 2 2 2v0zM30 28c0-1.105-0.895-2-2-2s-2 0.895-2 2v0c0 1.105 0.895 2 2 2s2-0.895 2-2v0zM12 30c1.105 0 2-0.895 2-2s-0.895-2-2-2v0c-1.105 0-2 0.895-2 2s0.895 2 2 2v0z"/>
</svg>