<svg version="1.1" xmlns="http://www.w3.org/2000/svg" width="24" height="32" viewBox="0 0 24 32">
<path fill="currentColor" d="M9.6 1.869l1-1.331c0.25-0.338 0.65-0.537 1.069-0.537 0.731 0 1.331 0.6 1.331 1.331v1.388c0 0.819 0.338 1.606 0.931 2.169l5.294 5.050c3.050 2.912 4.775 6.95 4.775 11.169 0 6.019-4.875 10.894-10.894 10.894h-1.106c-6.625 0-12-5.375-12-12v-0.238c0-3.050 1.212-5.975 3.369-8.131l0.219-0.219c0.263-0.262 0.625-0.412 1-0.412 0.781 0 1.412 0.631 1.412 1.412v5.588c0 2.206 1.794 4 4 4s4-1.794 4-4v-0.244c0-1.125-0.45-2.206-1.244-3l-2.412-2.412c-1.5-1.5-2.344-3.544-2.344-5.669 0-1.731 0.563-3.425 1.6-4.806z"/>
</svg>