<svg version="1.1" xmlns="http://www.w3.org/2000/svg" width="32" height="32" viewBox="0 0 32 32">
<path fill="currentColor" d="M31.269 0.456c0.462 0.375 0.731 0.944 0.731 1.544v6c0 0.6-0.269 1.169-0.731 1.544s-1.075 0.531-1.663 0.412l-10-2c-0.762-0.15-1.356-0.725-1.544-1.456h-4.063v2.175c2.363 1.125 4 3.531 4 6.325v9h-14v-9c0-2.794 1.638-5.2 4-6.325v-1.8c-2.263 0.694-4.125 2.306-5.144 4.406-0.362 0.744-1.262 1.056-2.006 0.694s-1.056-1.262-0.694-2.006c1.513-3.106 4.388-5.431 7.844-6.194v-1.775c0-1.106 0.894-2 2-2h2c1.106 0 2 0.894 2 2v1.5h4.063c0.188-0.731 0.781-1.306 1.544-1.462l10-2c0.587-0.119 1.194 0.038 1.663 0.412zM18 26v2c0 2.206-1.794 4-4 4h-6c-2.206 0-4-1.794-4-4v-2h14zM11 6c0.552 0 1-0.448 1-1s-0.448-1-1-1v0c-0.552 0-1 0.448-1 1s0.448 1 1 1v0z"/>
</svg>