<svg version="1.1" xmlns="http://www.w3.org/2000/svg" width="28" height="32" viewBox="0 0 28 32">
<path fill="currentColor" d="M9.956 0.338c0.488-0.456 1.244-0.45 1.731 0.006 1.725 1.619 3.344 3.362 4.856 5.25 0.688-0.9 1.469-1.881 2.313-2.681 0.494-0.462 1.256-0.462 1.75 0.006 2.163 2.063 3.994 4.787 5.281 7.375 1.269 2.55 2.113 5.156 2.113 6.994 0 7.975-6.238 14.712-14 14.712-7.85 0-14-6.744-14-14.719 0-2.4 1.113-5.331 2.837-8.231 1.744-2.944 4.206-6.013 7.119-8.713zM14.106 26c1.581 0 2.981-0.438 4.3-1.313 2.631-1.837 3.337-5.512 1.756-8.4-0.281-0.563-1-0.6-1.406-0.125l-1.575 1.831c-0.413 0.475-1.156 0.462-1.544-0.031-1.031-1.313-2.875-3.656-3.925-4.988-0.394-0.5-1.144-0.506-1.544-0.006-2.113 2.656-3.175 4.331-3.175 6.213 0.006 4.281 3.169 6.819 7.112 6.819z"/>
</svg>