<svg version="1.1" xmlns="http://www.w3.org/2000/svg" width="24" height="32" viewBox="0 0 24 32">
<path fill="currentColor" d="M23.281 16.031l-0.044-0.119c-2.125-5.862-5.613-11.131-10.169-15.381l-0.206-0.188c-0.231-0.219-0.544-0.344-0.863-0.344s-0.631 0.125-0.863 0.344l-0.206 0.188c-4.556 4.25-8.044 9.519-10.169 15.381l-0.044 0.119c-0.475 1.3-0.719 2.681-0.719 4.069 0 6.569 5.425 11.9 12 11.9s12-5.331 12-11.9c0-1.387-0.244-2.762-0.719-4.069zM17.606 19.125c0.256 0.581 0.387 1.212 0.387 1.844 0 3.313-2.688 6.031-6 6.031s-6-2.719-6-6.031c0-0.631 0.131-1.269 0.388-1.844l0.119-0.269c0.987-2.212 2.369-4.231 4.081-5.944l0.556-0.556c0.225-0.225 0.531-0.35 0.85-0.35s0.625 0.125 0.85 0.35l0.556 0.556c1.713 1.713 3.1 3.731 4.081 5.944l0.119 0.269z"/>
</svg>