<svg version="1.1" xmlns="http://www.w3.org/2000/svg" width="36" height="32" viewBox="0 0 36 32">
<path fill="currentColor" d="M11.281 8.844c2.45-2.063 5.756-3.844 9.719-3.844s7.269 1.781 9.719 3.844c2.444 2.063 4.181 4.525 5.063 6.238 0.294 0.575 0.294 1.256 0 1.831-0.881 1.712-2.619 4.175-5.063 6.238-2.45 2.069-5.756 3.85-9.719 3.85s-7.269-1.781-9.719-3.844c-1.012-0.856-1.906-1.781-2.669-2.694l-5.606 3.262c-0.781 0.456-1.775 0.331-2.419-0.306s-0.775-1.625-0.325-2.413l2.862-5.006-2.862-5.006c-0.45-0.787-0.313-1.775 0.331-2.412s1.631-0.763 2.419-0.306l5.606 3.269c0.762-0.912 1.656-1.838 2.669-2.694zM28 16c0-1.105-0.895-2-2-2s-2 0.895-2 2v0c0 1.105 0.895 2 2 2s2-0.895 2-2v0z"/>
</svg>