<svg version="1.1" xmlns="http://www.w3.org/2000/svg" width="36" height="32" viewBox="0 0 36 32">
<path fill="currentColor" d="M17.2 2.4c-0.663-0.5-1.563-0.531-2.269-0.094s-1.056 1.275-0.894 2.087l0.606 3.038c-1.213 0.563-2.306 1.244-3.275 1.969-0.956 0.719-1.813 1.494-2.544 2.269l-5.819-3.394c-0.781-0.456-1.775-0.331-2.419 0.306s-0.775 1.625-0.325 2.412l2.862 5.006-2.862 5.006c-0.45 0.788-0.313 1.775 0.331 2.413s1.631 0.762 2.419 0.306l5.819-3.394c0.738 0.769 1.588 1.55 2.544 2.269 0.969 0.725 2.063 1.406 3.275 1.969l-0.606 3.038c-0.162 0.813 0.194 1.644 0.894 2.081s1.6 0.406 2.269-0.094l4.85-3.637c3.431-0.25 6.344-1.688 8.575-3.363 2.45-1.837 4.2-4.044 5.1-5.594 0.362-0.619 0.362-1.387 0-2.006-0.9-1.55-2.656-3.756-5.1-5.594-2.238-1.675-5.144-3.112-8.575-3.362l-4.856-3.638zM24 16c0-1.105 0.895-2 2-2s2 0.895 2 2v0c0 1.105-0.895 2-2 2s-2-0.895-2-2v0z"/>
</svg>