<svg version="1.1" xmlns="http://www.w3.org/2000/svg" width="28" height="32" viewBox="0 0 28 32">
<path fill="currentColor" d="M2 0c1.106 0 2 0.894 2 2v1l4.313-1.075c2.381-0.594 4.894-0.319 7.094 0.781 2.894 1.45 6.3 1.45 9.194 0l0.6-0.3c1.288-0.65 2.8 0.288 2.8 1.725v17.481c0 0.831-0.519 1.581-1.3 1.875l-2.169 0.813c-2.887 1.081-6.1 0.913-8.856-0.462-2.369-1.188-5.081-1.481-7.656-0.837l-4.019 1v6c0 1.106-0.894 2-2 2s-2-0.894-2-2v-28c0-1.106 0.894-2 2-2zM4 11.694l4-0.869v4.094l-4 0.869v4.088l3.050-0.762c0.319-0.081 0.631-0.15 0.95-0.206v-3.988l2.431-0.525c0.519-0.113 1.044-0.156 1.569-0.131v-4c0.85 0.025 1.7 0.162 2.525 0.4l1.475 0.431v4.169l-2.606-0.769c-0.456-0.131-0.925-0.213-1.394-0.238v4.463c1.363 0.119 2.706 0.419 4 0.9v-4.356l1.419 0.419c0.844 0.25 1.706 0.4 2.581 0.462v-4.019c-0.488-0.050-0.975-0.144-1.45-0.281l-2.55-0.75v-3.875c-0.813-0.237-1.613-0.55-2.387-0.938-0.512-0.256-1.056-0.438-1.613-0.55v4.525c-0.813-0.025-1.625 0.050-2.419 0.225l-1.581 0.344v-4.7l-4 1v4.569zM20 20.981c1.050 0.094 2.119-0.044 3.125-0.425l0.875-0.325v-4.488l-0.494 0.113c-1.15 0.269-2.331 0.356-3.506 0.281v4.838zM24 11.644v-4.431c-1.306 0.381-2.65 0.569-4 0.569v4.344c0.869 0.088 1.75 0.031 2.606-0.162l1.394-0.325z"/>
</svg>