<svg version="1.1" xmlns="http://www.w3.org/2000/svg" width="28" height="32" viewBox="0 0 28 32">
<path fill="currentColor" d="M2 0c1.106 0 2 0.894 2 2v1l4.313-1.075c2.381-0.594 4.894-0.319 7.094 0.781 2.894 1.45 6.3 1.45 9.194 0l0.6-0.3c1.288-0.65 2.8 0.288 2.8 1.725v2.256l-2.794 1.013c-2.675 0.975-5.625 0.869-8.225-0.287l-1.006-0.45c-1.269-0.563-2.612-0.919-3.975-1.056v2.013c1.088 0.131 2.15 0.419 3.162 0.869l1.006 0.45c3.075 1.369 6.563 1.488 9.725 0.338l2.106-0.756v3.875l-2.794 1.012c-2.675 0.975-5.625 0.869-8.225-0.287l-1.006-0.45c-2.513-1.119-5.313-1.406-8.006-0.831l-3.969 0.856v2.044l4.387-0.944c2.275-0.488 4.644-0.244 6.775 0.706l1.006 0.45c3.075 1.369 6.563 1.487 9.725 0.338l2.106-0.769v3.875l-2.794 1.012c-2.675 0.975-5.625 0.869-8.225-0.288l-1.006-0.45c-2.513-1.119-5.313-1.406-8.006-0.831l-3.969 0.856v2.044l4.387-0.944c2.275-0.488 4.644-0.244 6.775 0.706l1.006 0.45c3.075 1.369 6.563 1.488 9.725 0.337l2.106-0.769v2.094c0 0.831-0.519 1.581-1.3 1.875l-2.169 0.813c-2.887 1.081-6.1 0.913-8.856-0.462-2.369-1.188-5.081-1.481-7.656-0.837l-4.019 1v5c0 1.106-0.894 2-2 2s-2-0.894-2-2v-28c0-1.106 0.894-2 2-2zM7 6c0-0.552-0.448-1-1-1s-1 0.448-1 1v0c0 0.552 0.448 1 1 1s1-0.448 1-1v0zM9 6c0.552 0 1-0.448 1-1s-0.448-1-1-1v0c-0.552 0-1 0.448-1 1s0.448 1 1 1v0zM7 9c0-0.552-0.448-1-1-1s-1 0.448-1 1v0c0 0.552 0.448 1 1 1s1-0.448 1-1v0zM9 9c0.552 0 1-0.448 1-1s-0.448-1-1-1v0c-0.552 0-1 0.448-1 1s0.448 1 1 1v0z"/>
</svg>