<svg version="1.1" xmlns="http://www.w3.org/2000/svg" width="28" height="32" viewBox="0 0 28 32">
<path fill="currentColor" d="M18 0h-10c-1.106 0-2 0.894-2 2s0.894 2 2 2v8.3c0 0.738-0.206 1.469-0.594 2.094l-6.763 10.994c-0.419 0.688-0.644 1.469-0.644 2.275 0 2.394 1.944 4.337 4.338 4.337h19.325c2.394 0 4.337-1.944 4.337-4.337 0-0.8-0.225-1.587-0.644-2.275l-6.762-10.988c-0.387-0.631-0.594-1.356-0.594-2.094v-8.306c1.106 0 2-0.894 2-2s-0.894-2-2-2h-2zM12 12.3v-8.3h4v8.3c0 1.481 0.413 2.931 1.188 4.194l2.156 3.506h-10.688l2.156-3.506c0.775-1.262 1.188-2.713 1.188-4.194z"/>
</svg>