<svg version="1.1" xmlns="http://www.w3.org/2000/svg" width="40" height="32" viewBox="0 0 40 32">
<path fill="currentColor" d="M10.938 24.337c-0.613 1-0.938 2.144-0.938 3.319-0.625 0.219-1.3 0.344-2 0.344-3.313 0-6-2.688-6-6v-18c-1.106 0-2-0.894-2-2s0.894-2 2-2h12c1.106 0 2 0.894 2 2s-0.894 2-2 2v15.369l-3.063 4.975zM6 4v6h4v-6h-4zM22 0h10c1.106 0 2 0.894 2 2s-0.894 2-2 2v9.431l7.356 11.956c0.419 0.681 0.644 1.469 0.644 2.275 0 2.394-1.944 4.337-4.337 4.337h-19.325c-2.394 0-4.338-1.944-4.338-4.337 0-0.8 0.225-1.587 0.644-2.275l7.356-11.956v-9.431c-1.106 0-2-0.894-2-2s0.894-2 2-2h2zM24 4v10c0 0.369-0.1 0.731-0.294 1.050l-3.050 4.95h10.688l-3.050-4.95c-0.194-0.313-0.294-0.675-0.294-1.050v-10h-4z"/>
</svg>