<svg version="1.1" xmlns="http://www.w3.org/2000/svg" width="24" height="32" viewBox="0 0 24 32">
<path fill="currentColor" d="M19.669 2c-2.425 0-4.606 1.456-5.537 3.694l-3.463 8.306h-6.669c-1.106 0-2 0.894-2 2s0.894 2 2 2h5l-2.819 6.769c-0.313 0.744-1.037 1.231-1.844 1.231h-2.337c-1.106 0-2 0.894-2 2s0.894 2 2 2h2.331c2.425 0 4.606-1.456 5.537-3.694l3.463-8.306h6.669c1.106 0 2-0.894 2-2s-0.894-2-2-2h-5l2.819-6.769c0.313-0.744 1.038-1.231 1.844-1.231h2.337c1.106 0 2-0.894 2-2s-0.894-2-2-2h-2.331z"/>
</svg>