<svg version="1.1" xmlns="http://www.w3.org/2000/svg" width="36" height="32" viewBox="0 0 36 32">
<path fill="currentColor" d="M5.544 13.988l-5.544 9.5v-17.488c0-2.206 1.794-4 4-4h7.344c1.063 0 2.081 0.419 2.831 1.169l1.656 1.656c0.75 0.75 1.769 1.169 2.831 1.169h7.337c2.206 0 4 1.794 4 4v2h-21c-1.425 0-2.737 0.756-3.456 1.988zM7.269 14.994c0.362-0.619 1.019-0.994 1.731-0.994h25c0.719 0 1.375 0.381 1.731 1.006s0.356 1.388-0.006 2.006l-7 12c-0.356 0.613-1.012 0.988-1.725 0.988h-25c-0.719 0-1.375-0.381-1.731-1.006s-0.356-1.387 0.006-2.006l7-12z"/>
</svg>