<svg version="1.1" xmlns="http://www.w3.org/2000/svg" width="32" height="32" viewBox="0 0 32 32">
<path fill="currentColor" d="M32 26c0 2.206-1.794 4-4 4h-24c-2.206 0-4-1.794-4-4v-20c0-2.206 1.794-4 4-4h8c1.256 0 2.444 0.594 3.2 1.6l1.2 1.6c0.375 0.506 0.969 0.8 1.6 0.8h10c2.206 0 4 1.794 4 4v16zM14.5 23.5c0 0.831 0.669 1.5 1.5 1.5s1.5-0.669 1.5-1.5v-4h4c0.831 0 1.5-0.669 1.5-1.5s-0.669-1.5-1.5-1.5h-4v-4c0-0.831-0.669-1.5-1.5-1.5s-1.5 0.669-1.5 1.5v4h-4c-0.831 0-1.5 0.669-1.5 1.5s0.669 1.5 1.5 1.5h4v4z"/>
</svg>