<svg version="1.1" xmlns="http://www.w3.org/2000/svg" width="36" height="32" viewBox="0 0 36 32">
<path fill="currentColor" d="M4 2c0-1.106-0.894-2-2-2s-2 0.894-2 2v22c0 2.206 1.794 4 4 4h12v-4h-12v-14h12v-4h-12v-4zM18 12c0 1.106 0.894 2 2 2h14c1.106 0 2-0.894 2-2v-8c0-1.106-0.894-2-2-2h-6.169c-0.531 0-1.038-0.212-1.413-0.587l-0.831-0.825c-0.375-0.375-0.881-0.588-1.413-0.588h-4.175c-1.106 0-2 0.894-2 2v10zM18 30c0 1.106 0.894 2 2 2h14c1.106 0 2-0.894 2-2v-8c0-1.106-0.894-2-2-2h-6.169c-0.531 0-1.038-0.212-1.413-0.587l-0.831-0.831c-0.375-0.375-0.881-0.587-1.413-0.587h-4.175c-1.106 0-2 0.894-2 2v10.006z"/>
</svg>