<svg version="1.1" xmlns="http://www.w3.org/2000/svg" width="28" height="32" viewBox="0 0 28 32">
<path fill="currentColor" d="M28 3v21c-3.944 1.406-5.144 2-7.469 2-3.925 0-5.412-2-9.331-2-1.287 0-2.287 0.225-3.2 0.512v-4c0.913-0.288 1.913-0.512 3.2-0.512 3.919 0 5.406 2 9.331 2 1.275 0 2.225-0.188 3.469-0.581v-13c-1.244 0.394-2.194 0.581-3.469 0.581-3.925 0-5.412-2-9.331-2-3.175 0-4.681 1.287-7.2 1.794v19.206c0 1.106-0.894 2-2 2s-2-0.894-2-2v-24c0-1.106 0.894-2 2-2s2 0.894 2 2v0.794c2.519-0.5 4.025-1.794 7.2-1.794 3.919 0 5.406 2 9.331 2 2.319 0 3.525-0.594 7.469-2z"/>
</svg>