<svg version="1.1" xmlns="http://www.w3.org/2000/svg" width="32" height="32" viewBox="0 0 32 32">
<path fill="currentColor" d="M15.469 1.587c-0.844 0.206-1.65 0.45-2.412 0.731-4.125 1.531-7.013 4.156-8.931 7.281-1.144 1.863-1.931 3.894-2.45 5.963l14.856 14.85c0.844-0.206 1.65-0.45 2.413-0.731 4.125-1.531 7.012-4.156 8.931-7.281 1.144-1.863 1.931-3.894 2.444-5.956l-14.85-14.856zM30.95 12.831c0.381-3.55 0.087-7.013-0.481-9.775-0.169-0.806-0.813-1.431-1.631-1.569-3.637-0.606-6.869-0.75-9.725-0.494l11.837 11.838zM12.881 31l-11.831-11.831c-0.381 3.55-0.088 7.012 0.481 9.775 0.169 0.806 0.813 1.431 1.631 1.569 3.638 0.606 6.869 0.75 9.725 0.494zM16.294 10.294c0.387-0.387 1.025-0.387 1.413 0l4 4c0.387 0.387 0.387 1.025 0 1.412s-1.025 0.388-1.413 0l-4-4c-0.387-0.387-0.387-1.025 0-1.412zM13.294 13.294c0.387-0.387 1.025-0.387 1.412 0l4 4c0.387 0.387 0.387 1.025 0 1.413s-1.025 0.387-1.413 0l-4-4c-0.387-0.387-0.387-1.025 0-1.412zM10.294 16.294c0.387-0.387 1.025-0.387 1.412 0l4 4c0.388 0.387 0.388 1.025 0 1.413s-1.025 0.387-1.412 0l-4-4c-0.387-0.387-0.387-1.025 0-1.413z"/>
</svg>