<svg version="1.1" xmlns="http://www.w3.org/2000/svg" width="32" height="32" viewBox="0 0 32 32">
<path fill="currentColor" d="M3.281 27.538c-0.594 0.494-1.425 0.606-2.131 0.275s-1.15-1.038-1.15-1.813v-20c0-0.775 0.45-1.481 1.15-1.813s1.531-0.225 2.131 0.275l10.719 8.931v5.213l-10.719 8.931zM16 22v-16c0-0.775 0.45-1.481 1.15-1.813s1.531-0.225 2.131 0.275l12 10c0.456 0.381 0.719 0.944 0.719 1.537s-0.262 1.156-0.719 1.538l-12 10c-0.594 0.494-1.425 0.606-2.131 0.275s-1.15-1.038-1.15-1.813v-4z"/>
</svg>