<svg version="1.1" xmlns="http://www.w3.org/2000/svg" width="32" height="32" viewBox="0 0 32 32">
<path fill="currentColor" d="M1.15 27.813c0.7 0.331 1.531 0.225 2.131-0.275l10.719-8.931v7.394c0 0.775 0.45 1.481 1.15 1.813s1.531 0.225 2.131-0.275l10.719-8.931v7.394c0 1.106 0.894 2 2 2s2-0.894 2-2v-20c0-1.106-0.894-2-2-2s-2 0.894-2 2v7.394l-10.719-8.931c-0.594-0.494-1.425-0.606-2.131-0.275s-1.15 1.037-1.15 1.813v7.394l-10.719-8.931c-0.594-0.494-1.425-0.606-2.131-0.275s-1.15 1.037-1.15 1.813v20c0 0.775 0.45 1.481 1.15 1.813z"/>
</svg>