<svg version="1.1" xmlns="http://www.w3.org/2000/svg" width="36" height="32" viewBox="0 0 36 32">
<path fill="currentColor" d="M23 2c2.606 0 4.744 1.987 4.981 4.531l5.35 1.644c1.587 0.488 2.675 1.956 2.675 3.619 0 1.363-0.731 2.619-1.919 3.294l-9.038 5.131 5.781 5.781h3.169c1.106 0 2 0.894 2 2s-0.894 2-2 2h-4c-0.531 0-1.038-0.212-1.413-0.587l-6.906-6.9c0.731-2.25 0.2-4.819-1.587-6.606-2.538-2.537-6.644-2.537-9.181-0.006l-4.6 4.375c-0.4 0.381-0.419 1.012-0.037 1.413s1.013 0.413 1.412 0.038l4.625-4.4c0.219-0.219 0.456-0.413 0.706-0.575 1.744-1.156 4.119-0.963 5.656 0.575 1.544 1.544 1.731 3.931 0.563 5.681-0.163 0.238-0.35 0.469-0.563 0.681l-2.313 2.313h5.637c1.106 0 2 0.894 2 2s-0.894 2-2 2h-18c-2.206 0-4-1.794-4-4 0-10.4 7.938-18.944 18.081-19.906 0.431-2.331 2.469-4.094 4.919-4.094zM23 8.5c0.828 0 1.5-0.672 1.5-1.5s-0.672-1.5-1.5-1.5v0c-0.828 0-1.5 0.672-1.5 1.5s0.672 1.5 1.5 1.5v0z"/>
</svg>
