<svg version="1.1" xmlns="http://www.w3.org/2000/svg" width="32" height="32" viewBox="0 0 32 32">
<path fill="currentColor" d="M26.081 22.506l-4.475-0.3c-0.325-0.019-0.644 0.069-0.906 0.262s-0.45 0.462-0.525 0.781l-1.1 4.35c-0.981 0.262-2.012 0.4-3.075 0.4s-2.094-0.137-3.075-0.4l-1.1-4.35c-0.081-0.313-0.269-0.587-0.525-0.781s-0.581-0.281-0.906-0.262l-4.475 0.3c-1.1-1.7-1.781-3.7-1.9-5.85l3.794-2.387c0.275-0.175 0.475-0.438 0.575-0.744s0.088-0.637-0.031-0.938l-1.669-4.162c1.312-1.6 3.019-2.862 4.981-3.619l3.45 2.875c0.25 0.206 0.563 0.319 0.881 0.319s0.637-0.112 0.881-0.319l3.45-2.875c1.956 0.756 3.669 2.019 4.975 3.619l-1.669 4.162c-0.119 0.3-0.131 0.631-0.031 0.938s0.306 0.569 0.575 0.744l3.794 2.387c-0.119 2.15-0.8 4.15-1.9 5.85zM16 32c8.837 0 16-7.163 16-16s-7.163-16-16-16v0c-8.837 0-16 7.163-16 16s7.163 16 16 16v0zM16.881 11.644c-0.525-0.381-1.238-0.381-1.762 0l-2.994 2.169c-0.525 0.381-0.744 1.056-0.544 1.675l1.144 3.519c0.2 0.619 0.775 1.038 1.425 1.038h3.7c0.65 0 1.225-0.419 1.425-1.038l1.144-3.519c0.2-0.619-0.019-1.294-0.544-1.675l-2.994-2.175z"/>
</svg>
