<svg version="1.1" xmlns="http://www.w3.org/2000/svg" width="40" height="32" viewBox="0 0 40 32">
<path fill="currentColor" d="M12 4c-6.625 0-12 5.375-12 12s5.375 12 12 12h16c6.625 0 12-5.375 12-12s-5.375-12-12-12h-16zM31 10.5c1.381 0 2.5 1.119 2.5 2.5s-1.119 2.5-2.5 2.5v0c-1.381 0-2.5-1.119-2.5-2.5s1.119-2.5 2.5-2.5v0zM24.5 19c0-1.381 1.119-2.5 2.5-2.5s2.5 1.119 2.5 2.5v0c0 1.381-1.119 2.5-2.5 2.5s-2.5-1.119-2.5-2.5v0zM10.5 12.5c0-0.831 0.669-1.5 1.5-1.5s1.5 0.669 1.5 1.5v2h2c0.831 0 1.5 0.669 1.5 1.5s-0.669 1.5-1.5 1.5h-2v2c0 0.831-0.669 1.5-1.5 1.5s-1.5-0.669-1.5-1.5v-2h-2c-0.831 0-1.5-0.669-1.5-1.5s0.669-1.5 1.5-1.5h2v-2z"/>
</svg>
