<svg version="1.1" xmlns="http://www.w3.org/2000/svg" width="32" height="32" viewBox="0 0 32 32">
<path fill="currentColor" d="M2 4c0-2.206 1.794-4 4-4h10c2.206 0 4 1.794 4 4v12h0.5c3.038 0 5.5 2.462 5.5 5.5v2c0 0.831 0.669 1.5 1.5 1.5s1.5-0.669 1.5-1.5v-9.625c-1.725-0.444-3-2.012-3-3.875v-4l-2-2c-0.55-0.55-0.55-1.45 0-2s1.45-0.55 2 0l4.831 4.831c0.75 0.75 1.169 1.769 1.169 2.831v13.838c0 2.488-2.012 4.5-4.5 4.5s-4.5-2.012-4.5-4.5v-2c0-1.381-1.119-2.5-2.5-2.5h-0.5v9c1.106 0 2 0.894 2 2s-0.894 2-2 2h-18c-1.106 0-2-0.894-2-2s0.894-2 2-2v-24zM6 5v6c0 0.55 0.45 1 1 1h8c0.55 0 1-0.45 1-1v-6c0-0.55-0.45-1-1-1h-8c-0.55 0-1 0.45-1 1z"/>
</svg>
