<svg version="1.1" xmlns="http://www.w3.org/2000/svg" width="32" height="32" viewBox="0 0 32 32">
<path fill="currentColor" d="M0 16c0-8.837 7.163-16 16-16s16 7.163 16 16v0c0 8.837-7.163 16-16 16s-16-7.163-16-16v0zM18 6c0-1.105-0.895-2-2-2s-2 0.895-2 2v0c0 1.105 0.895 2 2 2s2-0.895 2-2v0zM16 26c2.206 0 4-1.794 4-4 0-1.087-0.431-2.069-1.131-2.788l4.006-9.106c0.331-0.756-0.012-1.644-0.769-1.975s-1.644 0.012-1.975 0.769l-4.012 9.1c-0.038 0-0.081 0-0.119 0-2.206 0-4 1.794-4 4s1.794 4 4 4zM11 9c0-1.105-0.895-2-2-2s-2 0.895-2 2v0c0 1.105 0.895 2 2 2s2-0.895 2-2v0zM6 18c1.105 0 2-0.895 2-2s-0.895-2-2-2v0c-1.105 0-2 0.895-2 2s0.895 2 2 2v0zM28 16c0-1.105-0.895-2-2-2s-2 0.895-2 2v0c0 1.105 0.895 2 2 2s2-0.895 2-2v0z"/>
</svg>
