<svg version="1.1" xmlns="http://www.w3.org/2000/svg" width="32" height="32" viewBox="0 0 32 32">
<path fill="currentColor" d="M19.913 0.588c-0.781-0.781-2.050-0.781-2.831 0l-7.5 7.5c-0.781 0.781-0.781 2.050 0 2.831l1 1c0.781 0.781 2.050 0.781 2.831 0l0.25-0.25 6.675 6.669-0.25 0.25c-0.781 0.781-0.781 2.050 0 2.831l1 1c0.781 0.781 2.050 0.781 2.831 0l7.5-7.5c0.781-0.781 0.781-2.050 0-2.831l-1-1c-0.781-0.781-2.050-0.781-2.831 0l-0.25 0.25-6.675-6.675 0.25-0.25c0.781-0.781 0.781-2.050 0-2.831l-1-1zM10.412 18.587c-0.781-0.781-2.050-0.781-2.831 0l-7 7c-0.781 0.781-0.781 2.050 0 2.831l3 3c0.781 0.781 2.050 0.781 2.831 0l7-7c0.781-0.781 0.781-2.050 0-2.831l-0.088-0.087 3.675-3.669-2.831-2.831-3.669 3.669-0.088-0.087z"/>
</svg>
