<svg version="1.1" xmlns="http://www.w3.org/2000/svg" width="40" height="32" viewBox="0 0 40 32">
<path fill="currentColor" d="M19.281 8.456c0.444-0.394 0.619-1.013 0.387-1.563-0.144-0.331-0.3-0.656-0.475-0.969l-0.194-0.338c-0.188-0.313-0.394-0.619-0.613-0.912-0.356-0.475-0.981-0.631-1.544-0.444l-1.762 0.581c-0.669-0.55-1.438-1-2.262-1.306l-0.381-1.813c-0.119-0.581-0.569-1.044-1.156-1.113-0.412-0.056-0.831-0.081-1.256-0.081h-0.044c-0.425 0-0.844 0.025-1.256 0.075-0.588 0.069-1.037 0.537-1.156 1.113l-0.381 1.819c-0.831 0.313-1.594 0.756-2.263 1.306l-1.769-0.575c-0.563-0.188-1.188-0.031-1.544 0.444-0.219 0.294-0.425 0.6-0.619 0.912l-0.188 0.331c-0.175 0.313-0.331 0.638-0.475 0.975-0.231 0.544-0.056 1.163 0.387 1.562l1.388 1.238c-0.069 0.419-0.106 0.856-0.106 1.3s0.038 0.881 0.106 1.306l-1.387 1.238c-0.444 0.394-0.619 1.012-0.388 1.563 0.144 0.331 0.3 0.656 0.475 0.975l0.188 0.325c0.188 0.319 0.394 0.619 0.619 0.913 0.356 0.475 0.981 0.631 1.544 0.444l1.763-0.581c0.669 0.55 1.438 1 2.263 1.306l0.381 1.819c0.119 0.581 0.569 1.044 1.156 1.113 0.419 0.050 0.844 0.075 1.275 0.075s0.856-0.025 1.275-0.075c0.588-0.069 1.037-0.538 1.156-1.113l0.381-1.819c0.831-0.313 1.594-0.756 2.263-1.306l1.762 0.581c0.563 0.188 1.188 0.031 1.544-0.444 0.219-0.294 0.425-0.594 0.613-0.913l0.194-0.337c0.175-0.313 0.331-0.637 0.475-0.969 0.231-0.544 0.056-1.162-0.387-1.563l-1.387-1.238c0.069-0.425 0.106-0.863 0.106-1.306s-0.038-0.881-0.106-1.306l1.387-1.238zM7 11c0-1.657 1.343-3 3-3s3 1.343 3 3v0c0 1.657-1.343 3-3 3s-3-1.343-3-3v0zM31.544 31.281c0.394 0.444 1.012 0.619 1.563 0.387 0.331-0.144 0.656-0.3 0.969-0.475l0.337-0.194c0.313-0.188 0.619-0.394 0.913-0.613 0.475-0.356 0.631-0.981 0.444-1.544l-0.581-1.762c0.55-0.669 1-1.438 1.306-2.262l1.819-0.381c0.581-0.119 1.044-0.569 1.112-1.156 0.050-0.419 0.075-0.844 0.075-1.275s-0.025-0.856-0.075-1.275c-0.069-0.587-0.538-1.038-1.112-1.156l-1.819-0.387c-0.313-0.831-0.756-1.594-1.306-2.262l0.581-1.762c0.188-0.563 0.031-1.188-0.444-1.544-0.294-0.219-0.6-0.425-0.913-0.619l-0.331-0.188c-0.313-0.175-0.638-0.331-0.975-0.475-0.544-0.231-1.163-0.056-1.563 0.387l-1.238 1.387c-0.425-0.069-0.863-0.106-1.306-0.106s-0.881 0.037-1.306 0.106l-1.238-1.387c-0.394-0.444-1.012-0.619-1.563-0.387-0.331 0.144-0.656 0.3-0.975 0.475l-0.325 0.188c-0.319 0.188-0.619 0.394-0.913 0.619-0.475 0.356-0.631 0.981-0.444 1.544l0.581 1.762c-0.55 0.669-1 1.438-1.306 2.262l-1.819 0.375c-0.581 0.119-1.044 0.569-1.113 1.156-0.050 0.419-0.075 0.844-0.075 1.275s0.025 0.856 0.075 1.275c0.069 0.587 0.538 1.038 1.113 1.156l1.819 0.381c0.313 0.831 0.756 1.594 1.306 2.262l-0.581 1.762c-0.188 0.563-0.031 1.188 0.444 1.544 0.294 0.219 0.594 0.425 0.913 0.613l0.337 0.194c0.313 0.175 0.637 0.331 0.969 0.475 0.544 0.231 1.163 0.056 1.563-0.387l1.238-1.387c0.425 0.069 0.863 0.106 1.306 0.106s0.881-0.038 1.306-0.106l1.238 1.387zM29 19c1.657 0 3 1.343 3 3s-1.343 3-3 3v0c-1.657 0-3-1.343-3-3s1.343-3 3-3v0z"/>
</svg>
