<svg version="1.1" xmlns="http://www.w3.org/2000/svg" width="32" height="32" viewBox="0 0 32 32">
<path fill="currentColor" d="M30.994 10.412c0.2 0.544 0.031 1.15-0.4 1.537l-2.706 2.463c0.069 0.519 0.106 1.050 0.106 1.588s-0.038 1.069-0.106 1.587l2.706 2.462c0.431 0.387 0.6 0.994 0.4 1.538-0.275 0.744-0.606 1.456-0.988 2.144l-0.294 0.506c-0.413 0.688-0.875 1.337-1.381 1.95-0.369 0.45-0.981 0.6-1.531 0.425l-3.481-1.106c-0.837 0.644-1.762 1.181-2.75 1.587l-0.781 3.569c-0.125 0.569-0.563 1.019-1.137 1.113-0.863 0.144-1.75 0.219-2.656 0.219s-1.794-0.075-2.656-0.219c-0.575-0.094-1.012-0.544-1.137-1.113l-0.781-3.569c-0.988-0.406-1.912-0.944-2.75-1.587l-3.475 1.113c-0.55 0.175-1.162 0.019-1.531-0.425-0.506-0.613-0.969-1.262-1.381-1.95l-0.294-0.506c-0.381-0.688-0.713-1.4-0.988-2.144-0.2-0.544-0.031-1.15 0.4-1.538l2.706-2.462c-0.069-0.525-0.106-1.056-0.106-1.594s0.037-1.069 0.106-1.588l-2.706-2.463c-0.431-0.387-0.6-0.994-0.4-1.537 0.275-0.744 0.606-1.456 0.987-2.144l0.294-0.506c0.413-0.688 0.875-1.338 1.381-1.95 0.369-0.45 0.981-0.6 1.531-0.425l3.481 1.106c0.838-0.644 1.762-1.181 2.75-1.587l0.781-3.569c0.125-0.569 0.563-1.019 1.137-1.113 0.863-0.15 1.75-0.225 2.656-0.225s1.794 0.075 2.656 0.219c0.575 0.094 1.012 0.544 1.137 1.113l0.781 3.569c0.988 0.406 1.913 0.944 2.75 1.588l3.481-1.106c0.55-0.175 1.163-0.019 1.531 0.425 0.506 0.612 0.969 1.263 1.381 1.95l0.294 0.506c0.381 0.688 0.712 1.4 0.988 2.144zM16 21c2.761 0 5-2.239 5-5s-2.239-5-5-5v0c-2.761 0-5 2.239-5 5s2.239 5 5 5v0z"/>
</svg>
