<svg version="1.1" xmlns="http://www.w3.org/2000/svg" width="24" height="32" viewBox="0 0 24 32">
<path fill="currentColor" d="M2.506 29.194l-0.7 0.563c-0.2 0.156-0.444 0.244-0.694 0.244-0.613 0-1.113-0.5-1.113-1.113v-16.887c0-6.625 5.375-12 12-12s12 5.375 12 12v16.887c0 0.613-0.5 1.113-1.113 1.113-0.25 0-0.494-0.087-0.694-0.244l-0.7-0.563c-0.837-0.669-2.050-0.563-2.756 0.244l-1.906 2.188c-0.206 0.238-0.512 0.375-0.831 0.375s-0.619-0.137-0.831-0.375l-1.662-1.906c-0.794-0.913-2.213-0.913-3.013 0l-1.662 1.906c-0.206 0.238-0.512 0.375-0.831 0.375s-0.619-0.137-0.831-0.375l-1.906-2.188c-0.706-0.806-1.919-0.913-2.756-0.244zM10 12c0-1.105-0.895-2-2-2s-2 0.895-2 2v0c0 1.105 0.895 2 2 2s2-0.895 2-2v0zM16 14c1.105 0 2-0.895 2-2s-0.895-2-2-2v0c-1.105 0-2 0.895-2 2s0.895 2 2 2v0z"/>
</svg>
