<svg version="1.1" xmlns="http://www.w3.org/2000/svg" width="40" height="32" viewBox="0 0 40 32">
<path fill="currentColor" d="M12.537 2c0.275-0.781-0.131-1.637-0.912-1.913s-1.637 0.131-1.912 0.912l-0.669 1.887-0.619-1.863c-0.262-0.787-1.112-1.212-1.9-0.95s-1.213 1.113-0.95 1.9l0.519 1.563-1.713-1.25c-0.669-0.488-1.606-0.337-2.094 0.331s-0.337 1.606 0.331 2.094l1.769 1.288h-1.388c-1.656 0-3 1.344-3 3v20c0 1.656 1.344 3 3 3h9.537c-0.338-0.587-0.537-1.269-0.537-2v-14c0-1.869 1.281-3.438 3.013-3.875 0.113-1.938 1.069-3.637 2.506-4.756-0.538-0.825-1.462-1.369-2.519-1.369h-1.387l1.769-1.287c0.669-0.487 0.819-1.425 0.331-2.094s-1.425-0.819-2.094-0.331l-1.588 1.156 0.506-1.444zM22.719 11.594l1.85 2.406h-3.069c-0.831 0-1.5-0.669-1.5-1.5 0-0.819 0.675-1.5 1.512-1.5 0.475 0 0.919 0.219 1.206 0.594zM17 12.5c0 0.525 0.087 1.031 0.256 1.5h-0.256c-1.656 0-3 1.344-3 3v5h12v-6h2v6h12v-5c0-1.656-1.344-3-3-3h-0.256c0.169-0.469 0.256-0.975 0.256-1.5 0-2.494-2.031-4.5-4.513-4.5-1.4 0-2.725 0.65-3.581 1.762l-1.906 2.475-1.906-2.475c-0.856-1.113-2.188-1.763-3.581-1.763-2.481 0-4.512 2.006-4.512 4.5zM14 29c0 1.656 1.344 3 3 3h9v-8h-12v5zM28 32h9c1.656 0 3-1.344 3-3v-5h-12v8zM34 12.5c0 0.831-0.669 1.5-1.5 1.5h-3.069l1.85-2.406c0.288-0.369 0.731-0.594 1.206-0.594 0.837 0 1.513 0.681 1.513 1.5z"/>
</svg>
