<svg version="1.1" xmlns="http://www.w3.org/2000/svg" width="32" height="32" viewBox="0 0 32 32">
<path fill="currentColor" d="M11.906 4.3l2.175 3.7h-4.581c-1.381 0-2.5-1.119-2.5-2.5s1.119-2.5 2.5-2.5h0.137c0.931 0 1.8 0.494 2.269 1.3zM4 5.5c0 0.9 0.219 1.75 0.6 2.5h-2.6c-1.106 0-2 0.894-2 2v4c0 1.106 0.894 2 2 2h28c1.106 0 2-0.894 2-2v-4c0-1.106-0.894-2-2-2h-2.6c0.381-0.75 0.6-1.6 0.6-2.5 0-3.038-2.462-5.5-5.5-5.5h-0.137c-1.994 0-3.844 1.056-4.856 2.775l-1.506 2.569-1.506-2.563c-1.012-1.725-2.862-2.781-4.856-2.781h-0.137c-3.037 0-5.5 2.462-5.5 5.5zM25 5.5c0 1.381-1.119 2.5-2.5 2.5h-4.581l2.175-3.7c0.475-0.806 1.337-1.3 2.269-1.3h0.137c1.381 0 2.5 1.119 2.5 2.5zM2 18v11c0 1.656 1.344 3 3 3h9v-14h-12zM18 32h9c1.656 0 3-1.344 3-3v-11h-12v14z"/>
</svg>
