<svg version="1.1" xmlns="http://www.w3.org/2000/svg" width="36" height="32" viewBox="0 0 36 32">
<path fill="currentColor" d="M7.412 5c-0.719 0-1.338 0.494-1.5 1.194l-2.35 10.075c1.281-0.387 3.019-0.769 4.919-0.769 2.019 0 3.863 0.431 5.175 0.844 0.662 0.206 1.206 0.419 1.588 0.575 0.194 0.081 0.344 0.15 0.456 0.2 0.056 0.025 0.1 0.044 0.131 0.063l0.050 0.025h0.006s0 0-0.394 0.794v0l0.394-0.794c0.362 0.181 0.65 0.456 0.844 0.794h2.538c0.194-0.331 0.481-0.613 0.844-0.794l0.394 0.794c-0.394-0.794-0.394-0.794-0.394-0.794v0 0h0.006l0.050-0.025c0.031-0.012 0.075-0.038 0.131-0.063 0.113-0.050 0.262-0.119 0.456-0.2 0.381-0.163 0.925-0.369 1.587-0.575 1.313-0.412 3.15-0.844 5.175-0.844 1.9 0 3.637 0.381 4.919 0.769l-2.35-10.075c-0.163-0.7-0.788-1.194-1.5-1.194-0.194 0-0.387 0.037-0.575 0.112l-1.956 0.781c-0.769 0.306-1.644-0.069-1.95-0.838s0.069-1.644 0.837-1.95l1.956-0.781c0.538-0.212 1.106-0.325 1.688-0.325 2.113 0 3.944 1.456 4.425 3.513l2.744 11.75c0.106 0.456 0.181 0.919 0.219 1.381 0.019 0.119 0.031 0.238 0.031 0.356v4c0 3.869-3.131 7-7 7h-2.775c-3.712 0-6.781-2.9-6.988-6.613l-0.081-1.387h-2.325l-0.075 1.387c-0.206 3.712-3.275 6.613-6.994 6.613h-2.769c-3.869 0-7-3.131-7-7v-4c0-0.119 0.013-0.238 0.031-0.356 0.038-0.462 0.112-0.925 0.219-1.381l2.744-11.75c0.475-2.056 2.306-3.513 4.419-3.513 0.575 0 1.15 0.112 1.688 0.325l1.956 0.781c0.769 0.306 1.144 1.181 0.838 1.95s-1.181 1.144-1.95 0.838l-1.956-0.781c-0.181-0.075-0.375-0.112-0.575-0.112zM4 20.337v2.663c0 1.656 1.344 3 3 3h2.769c1.594 0 2.906-1.244 2.994-2.831l0.156-2.85c-0.144-0.050-0.306-0.106-0.469-0.156-1.075-0.337-2.494-0.656-3.975-0.656s-2.888 0.319-3.95 0.656c-0.194 0.063-0.369 0.119-0.531 0.181zM32 23v-2.663c-0.163-0.056-0.344-0.119-0.531-0.181-1.063-0.337-2.469-0.656-3.95-0.656s-2.9 0.319-3.975 0.656c-0.169 0.050-0.325 0.106-0.469 0.156l0.156 2.85c0.087 1.587 1.406 2.831 2.994 2.831h2.775c1.656 0 3-1.344 3-3z"/>
</svg>
