<svg version="1.1" xmlns="http://www.w3.org/2000/svg" width="24" height="32" viewBox="0 0 24 32">
<path fill="currentColor" d="M2 0c-0.556 0-1.087 0.231-1.462 0.637s-0.575 0.95-0.531 1.506l1.8 25.212c0.188 2.619 2.362 4.644 4.987 4.644h10.413c2.625 0 4.8-2.025 4.988-4.644l1.8-25.212c0.038-0.556-0.15-1.1-0.531-1.506s-0.906-0.637-1.462-0.637h-20zM5.188 18.594l-1.037-14.594h15.7l-1.038 14.594-0.813 0.406c-1.256 0.631-2.744 0.631-4 0s-2.744-0.631-4 0-2.744 0.631-4 0l-0.813-0.406zM16 12.25c0-1.5-2.106-4.381-3.262-5.844-0.381-0.481-1.094-0.481-1.475 0-1.156 1.463-3.263 4.344-3.263 5.844 0 2.069 1.794 3.75 4 3.75s4-1.681 4-3.75z"/>
</svg>
