<svg version="1.1" xmlns="http://www.w3.org/2000/svg" width="24" height="32" viewBox="0 0 24 32">
<path fill="currentColor" d="M2 0c-0.556 0-1.087 0.231-1.462 0.637s-0.575 0.95-0.531 1.506l1.8 25.212c0.188 2.619 2.362 4.644 4.987 4.644h10.413c2.625 0 4.8-2.025 4.988-4.644l1.8-25.212c0.038-0.556-0.15-1.1-0.531-1.506s-0.906-0.637-1.462-0.637h-20zM4.563 9.781l-0.412-5.781h15.7l-0.413 5.781-1.512 0.756c-1.212 0.606-2.637 0.606-3.85 0-1.306-0.65-2.844-0.65-4.15 0-1.213 0.606-2.638 0.606-3.85 0l-1.513-0.756z"/>
</svg>
