<svg version="1.1" xmlns="http://www.w3.org/2000/svg" width="32" height="32" viewBox="0 0 32 32">
<path fill="currentColor" d="M22 16c0 1.387-0.075 2.725-0.206 4h-11.588c-0.137-1.275-0.206-2.613-0.206-4s0.075-2.725 0.206-4h11.588c0.137 1.275 0.206 2.613 0.206 4zM23.8 12h7.694c0.331 1.281 0.506 2.619 0.506 4s-0.175 2.719-0.506 4h-7.694c0.131-1.288 0.2-2.625 0.2-4s-0.069-2.713-0.2-4zM30.837 10h-7.294c-0.625-3.994-1.863-7.338-3.456-9.475 4.894 1.294 8.875 4.844 10.744 9.475zM21.519 10h-11.037c0.381-2.275 0.969-4.287 1.688-5.919 0.656-1.475 1.387-2.544 2.094-3.219 0.7-0.662 1.281-0.863 1.737-0.863s1.038 0.2 1.738 0.863c0.706 0.675 1.438 1.744 2.094 3.219 0.725 1.625 1.306 3.638 1.688 5.919zM8.456 10h-7.294c1.875-4.631 5.85-8.181 10.75-9.475-1.594 2.138-2.831 5.481-3.456 9.475zM0.506 12h7.694c-0.131 1.287-0.2 2.625-0.2 4s0.069 2.712 0.2 4h-7.694c-0.331-1.281-0.506-2.619-0.506-4s0.175-2.719 0.506-4zM12.169 27.913c-0.725-1.625-1.306-3.637-1.688-5.913h11.037c-0.381 2.275-0.969 4.288-1.688 5.913-0.656 1.475-1.387 2.544-2.094 3.219-0.7 0.669-1.281 0.869-1.738 0.869s-1.037-0.2-1.738-0.863c-0.706-0.675-1.438-1.744-2.094-3.219zM8.456 22c0.625 3.994 1.863 7.337 3.456 9.475-4.9-1.294-8.875-4.844-10.75-9.475h7.294zM30.837 22c-1.875 4.631-5.85 8.181-10.744 9.475 1.594-2.137 2.825-5.481 3.456-9.475h7.287z"/>
</svg>
