<svg version="1.1" xmlns="http://www.w3.org/2000/svg" width="24" height="32" viewBox="0 0 24 32">
<path fill="currentColor" d="M24 12c0 4.175-2.131 7.85-5.363 10h-13.275c-3.231-2.15-5.362-5.825-5.362-10 0-6.625 5.375-12 12-12s12 5.375 12 12zM15.131 16.038c0 1.156-0.938 2.094-2.094 2.094-0.306 0-0.569 0.319-0.338 0.525 0.369 0.325 0.856 0.525 1.381 0.525 1.156 0 2.094-0.938 2.094-2.094 0-0.531-0.2-1.012-0.525-1.381-0.206-0.231-0.525 0.031-0.525 0.338zM11.863 12.956c-0.306 0-0.569 0.319-0.338 0.525 0.369 0.325 0.856 0.525 1.381 0.525 1.156 0 2.094-0.938 2.094-2.094 0-0.531-0.2-1.012-0.525-1.381-0.206-0.231-0.525 0.031-0.525 0.338 0 1.156-0.938 2.094-2.094 2.094zM18.956 11.863c0 1.156-0.938 2.094-2.094 2.094-0.306 0-0.569 0.319-0.337 0.525 0.369 0.325 0.856 0.525 1.381 0.525 1.156 0 2.094-0.938 2.094-2.094 0-0.531-0.2-1.012-0.525-1.381-0.206-0.231-0.525 0.031-0.525 0.338zM6 26c0-1.106 0.894-2 2-2h8c1.106 0 2 0.894 2 2s-0.894 2-2 2h-1c-0.55 0-1 0.45-1 1v1c0 1.106-0.894 2-2 2s-2-0.894-2-2v-1c0-0.55-0.45-1-1-1h-1c-1.106 0-2-0.894-2-2z"/>
</svg>
