<svg version="1.1" xmlns="http://www.w3.org/2000/svg" width="32" height="32" viewBox="0 0 32 32">
<path fill="currentColor" d="M7.5 0c0.831 0 1.5 0.669 1.5 1.5v0.5h2.5v-0.5c0-0.831 0.669-1.5 1.5-1.5s1.5 0.669 1.5 1.5v0.5h3v-0.5c0-0.831 0.669-1.5 1.5-1.5s1.5 0.669 1.5 1.5v0.5h2.5v-0.5c0-0.831 0.669-1.5 1.5-1.5s1.5 0.669 1.5 1.5v6.5c1.106 0 2 0.894 2 2v4c1.106 0 2 0.894 2 2v6c1.106 0 2 0.894 2 2v6c0 1.106-0.894 2-2 2h-4v-10h-2v-8h-2v-6h-2v6h2v8h2v10h-5v-3c0-1.656-1.344-3-3-3s-3 1.344-3 3v3h-5v-10h2v-8h2v-6h-2v6h-2v8h-2v10h-4c-1.106 0-2-0.894-2-2v-6c0-1.106 0.894-2 2-2v-6c0-1.106 0.894-2 2-2v-4c0-1.106 0.894-2 2-2v-6.5c0-0.831 0.669-1.5 1.5-1.5zM16 17c-1.106 0-2 0.894-2 2v3h4v-3c0-1.106-0.894-2-2-2zM14 12v2h4v-2c0-1.106-0.894-2-2-2s-2 0.894-2 2z"/>
</svg>
