<svg version="1.1" xmlns="http://www.w3.org/2000/svg" width="40" height="32" viewBox="0 0 40 32">
<path fill="currentColor" d="M20 2c-0.506 0-1.006 0.087-1.481 0.256l-17.531 6.331c-0.594 0.219-0.988 0.781-0.988 1.412s0.394 1.194 0.988 1.412l3.619 1.306c-1.025 1.613-1.606 3.519-1.606 5.525v1.756c0 1.775-0.675 3.606-1.394 5.050-0.406 0.813-0.869 1.613-1.406 2.35-0.2 0.269-0.256 0.619-0.144 0.938s0.375 0.556 0.7 0.637l4 1c0.263 0.069 0.544 0.019 0.775-0.125s0.394-0.381 0.444-0.65c0.537-2.675 0.269-5.075-0.131-6.794-0.2-0.887-0.469-1.794-0.844-2.625v-1.538c0-1.887 0.638-3.669 1.744-5.094 0.806-0.969 1.85-1.75 3.075-2.231l9.813-3.856c0.512-0.2 1.094 0.050 1.294 0.563s-0.050 1.094-0.563 1.294l-9.813 3.856c-0.775 0.306-1.456 0.775-2.012 1.35l9.975 3.6c0.475 0.169 0.975 0.256 1.481 0.256s1.006-0.087 1.481-0.256l17.538-6.313c0.594-0.213 0.987-0.781 0.987-1.412s-0.394-1.194-0.987-1.412l-17.531-6.331c-0.475-0.169-0.975-0.256-1.481-0.256zM8 25.5c0 2.206 5.375 4.5 12 4.5s12-2.294 12-4.5l-0.956-9.087-8.887 3.212c-0.694 0.25-1.425 0.375-2.156 0.375s-1.469-0.125-2.156-0.375l-8.887-3.212-0.956 9.087z"/>
</svg>
