<svg version="1.1" xmlns="http://www.w3.org/2000/svg" width="28" height="32" viewBox="0 0 28 32">
<path fill="currentColor" d="M8 8.5c0-1.381-1.119-2.5-2.5-2.5h-3c-1.381 0-2.5 1.119-2.5 2.5v3c0 1.381 1.119 2.5 2.5 2.5h3c1.381 0 2.5-1.119 2.5-2.5v-3zM8 20.5c0-1.381-1.119-2.5-2.5-2.5h-3c-1.381 0-2.5 1.119-2.5 2.5v3c0 1.381 1.119 2.5 2.5 2.5h3c1.381 0 2.5-1.119 2.5-2.5v-3zM10 8.5v3c0 1.381 1.119 2.5 2.5 2.5h3c1.381 0 2.5-1.119 2.5-2.5v-3c0-1.381-1.119-2.5-2.5-2.5h-3c-1.381 0-2.5 1.119-2.5 2.5zM18 20.5c0-1.381-1.119-2.5-2.5-2.5h-3c-1.381 0-2.5 1.119-2.5 2.5v3c0 1.381 1.119 2.5 2.5 2.5h3c1.381 0 2.5-1.119 2.5-2.5v-3zM20 8.5v3c0 1.381 1.119 2.5 2.5 2.5h3c1.381 0 2.5-1.119 2.5-2.5v-3c0-1.381-1.119-2.5-2.5-2.5h-3c-1.381 0-2.5 1.119-2.5 2.5zM28 20.5c0-1.381-1.119-2.5-2.5-2.5h-3c-1.381 0-2.5 1.119-2.5 2.5v3c0 1.381 1.119 2.5 2.5 2.5h3c1.381 0 2.5-1.119 2.5-2.5v-3z"/>
</svg>
