<svg version="1.1" xmlns="http://www.w3.org/2000/svg" width="20" height="32" viewBox="0 0 20 32">
<path fill="currentColor" d="M2.5 22h3c1.381 0 2.5 1.119 2.5 2.5v3c0 1.381-1.119 2.5-2.5 2.5h-3c-1.381 0-2.5-1.119-2.5-2.5v-3c0-1.381 1.119-2.5 2.5-2.5zM14.5 22h3c1.381 0 2.5 1.119 2.5 2.5v3c0 1.381-1.119 2.5-2.5 2.5h-3c-1.381 0-2.5-1.119-2.5-2.5v-3c0-1.381 1.119-2.5 2.5-2.5zM2.5 20c-1.381 0-2.5-1.119-2.5-2.5v-3c0-1.381 1.119-2.5 2.5-2.5h3c1.381 0 2.5 1.119 2.5 2.5v3c0 1.381-1.119 2.5-2.5 2.5h-3zM14.5 12h3c1.381 0 2.5 1.119 2.5 2.5v3c0 1.381-1.119 2.5-2.5 2.5h-3c-1.381 0-2.5-1.119-2.5-2.5v-3c0-1.381 1.119-2.5 2.5-2.5zM2.5 10c-1.381 0-2.5-1.119-2.5-2.5v-3c0-1.381 1.119-2.5 2.5-2.5h3c1.381 0 2.5 1.119 2.5 2.5v3c0 1.381-1.119 2.5-2.5 2.5h-3zM14.5 2h3c1.381 0 2.5 1.119 2.5 2.5v3c0 1.381-1.119 2.5-2.5 2.5h-3c-1.381 0-2.5-1.119-2.5-2.5v-3c0-1.381 1.119-2.5 2.5-2.5z"/>
</svg>
