<svg version="1.1" xmlns="http://www.w3.org/2000/svg" width="32" height="32" viewBox="0 0 32 32">
<path fill="currentColor" d="M12.569 4.494c1.056-0.313 1.662-1.431 1.344-2.487s-1.431-1.663-2.487-1.344c-1.344 0.4-2.613 0.969-3.787 1.688-0.494-0.225-1.050-0.35-1.638-0.35-2.206 0-4 1.794-4 4 0 0.588 0.125 1.144 0.35 1.644-0.719 1.169-1.288 2.438-1.688 3.788-0.313 1.056 0.287 2.175 1.344 2.487s2.175-0.287 2.487-1.344c0.269-0.912 0.65-1.781 1.119-2.588 0.125 0.012 0.256 0.019 0.381 0.019 2.206 0 4-1.794 4-4 0-0.131-0.006-0.256-0.019-0.381 0.806-0.469 1.675-0.85 2.588-1.119zM20.569 0.662c-1.056-0.313-2.175 0.287-2.488 1.344s0.288 2.175 1.344 2.488c0.913 0.269 1.781 0.65 2.587 1.119-0.012 0.125-0.019 0.256-0.019 0.381 0 2.206 1.794 4 4 4 0.131 0 0.256-0.006 0.387-0.019 0.469 0.806 0.85 1.675 1.119 2.588 0.313 1.056 1.431 1.662 2.488 1.344s1.663-1.431 1.344-2.488c-0.4-1.344-0.969-2.613-1.688-3.787 0.225-0.5 0.35-1.056 0.35-1.644 0-2.206-1.794-4-4-4-0.587 0-1.144 0.125-1.644 0.35-1.169-0.719-2.438-1.288-3.788-1.688zM4.494 19.431c-0.313-1.056-1.431-1.663-2.487-1.344s-1.663 1.431-1.344 2.488c0.4 1.344 0.969 2.613 1.688 3.788-0.225 0.494-0.35 1.050-0.35 1.637 0 2.206 1.794 4 4 4 0.588 0 1.144-0.125 1.644-0.35 1.169 0.719 2.438 1.288 3.788 1.688 1.056 0.313 2.175-0.288 2.487-1.344s-0.287-2.175-1.344-2.488c-0.912-0.269-1.781-0.65-2.588-1.119 0.012-0.125 0.019-0.256 0.019-0.387 0-2.206-1.794-4-4-4-0.131 0-0.256 0.006-0.388 0.019-0.469-0.806-0.85-1.675-1.119-2.587zM31.331 20.575c0.313-1.056-0.288-2.175-1.344-2.488s-2.175 0.288-2.488 1.344c-0.269 0.913-0.65 1.781-1.119 2.587-0.125-0.012-0.256-0.019-0.387-0.019-2.206 0-4 1.794-4 4 0 0.131 0.006 0.256 0.019 0.387-0.806 0.469-1.675 0.85-2.587 1.119-1.056 0.313-1.663 1.431-1.344 2.488s1.431 1.663 2.488 1.344c1.344-0.4 2.613-0.969 3.788-1.688 0.5 0.225 1.056 0.35 1.644 0.35 2.206 0 4-1.794 4-4 0-0.587-0.125-1.144-0.35-1.644 0.719-1.169 1.288-2.438 1.688-3.788zM12.050 16.050c0-0.975 0.35-1.869 0.931-2.569l0.956 0.956c0.412 0.412 1.113 0.119 1.113-0.463v-3.775c0-0.356-0.294-0.65-0.65-0.65h-3.781c-0.581 0-0.869 0.7-0.463 1.113l0.7 0.7c-1.119 1.238-1.806 2.887-1.806 4.694 0 2.725 1.556 5.081 3.819 6.238 0.738 0.375 1.644 0.087 2.019-0.65s0.088-1.644-0.65-2.019c-1.3-0.663-2.181-2.012-2.181-3.563zM17.869 12.387c1.3 0.662 2.181 2.012 2.181 3.563 0 0.975-0.35 1.869-0.931 2.569l-0.956-0.956c-0.413-0.413-1.113-0.119-1.113 0.462v3.781c0 0.356 0.294 0.65 0.65 0.65h3.781c0.581 0 0.869-0.7 0.462-1.113l-0.7-0.7c1.119-1.238 1.806-2.887 1.806-4.694 0-2.725-1.556-5.081-3.819-6.237-0.738-0.375-1.644-0.088-2.019 0.65s-0.087 1.644 0.65 2.019z"/>
</svg>
