<svg version="1.1" xmlns="http://www.w3.org/2000/svg" width="24" height="32" viewBox="0 0 24 32">
<path fill="currentColor" d="M12 0c-1.106 0-2 0.894-2 2v2.169c-5.675 0.95-10 5.888-10 11.831s4.325 10.881 10 11.831v2.169c0 1.106 0.894 2 2 2s2-0.894 2-2v-2.169c5.675-0.95 10-5.887 10-11.831 0-1.106-0.894-2-2-2h-8v-5.75c1.381 0.356 2.613 1.069 3.6 2.037 0.788 0.775 2.056 0.762 2.831-0.025s0.762-2.056-0.031-2.831c-1.712-1.681-3.931-2.85-6.4-3.263v-2.169c0-1.106-0.894-2-2-2zM10 8.25v15.5c-3.45-0.887-6-4.019-6-7.75s2.55-6.863 6-7.75zM14 23.75v-5.75h5.75c-0.725 2.813-2.938 5.025-5.75 5.75z"/>
</svg>
