<svg version="1.1" xmlns="http://www.w3.org/2000/svg" width="32" height="32" viewBox="0 0 32 32">
<path fill="currentColor" d="M29.063 0.438c-0.587-0.588-1.538-0.588-2.119 0l-3.006 3c-0.15 0.15-0.269 0.331-0.344 0.531l-0.962 2.563-4.844 4.85c-2.819-1.838-6.206-1.887-8.188 0.1-0.688 0.688-1.125 1.537-1.338 2.475-0.231 1.037-1.194 1.919-2.256 1.975-1.6 0.081-3.081 0.669-4.206 1.788-2.8 2.806-2.275 7.869 1.169 11.313s8.506 3.969 11.306 1.169c1.119-1.119 1.713-2.606 1.788-4.206 0.056-1.063 0.938-2.019 1.975-2.256 0.938-0.212 1.788-0.656 2.475-1.337 1.988-1.988 1.938-5.369 0.1-8.188l4.85-4.85 2.563-0.963c0.2-0.075 0.381-0.194 0.531-0.344l3-3c0.587-0.588 0.587-1.538 0-2.119l-2.494-2.5zM13 16c1.657 0 3 1.343 3 3s-1.343 3-3 3v0c-1.657 0-3-1.343-3-3s1.343-3 3-3v0z"/>
</svg>
