<svg version="1.1" xmlns="http://www.w3.org/2000/svg" width="36" height="32" viewBox="0 0 36 32">
<path fill="currentColor" d="M33 3.5c0-0.831-0.669-1.5-1.5-1.5s-1.5 0.669-1.5 1.5v0.5h-28c-1.106 0-2 0.894-2 2v7c0 1.106 0.894 2 2 2h0.625c1.3 0 2.256 1.225 1.938 2.488l-2.5 10.025c-0.15 0.6-0.013 1.231 0.362 1.719s0.956 0.769 1.575 0.769h6c0.919 0 1.719-0.625 1.938-1.512l1.625-6.488h6.525c1.481 0 2.8-0.931 3.294-2.325l1.675-4.675h1.944c0.531 0 1.038-0.213 1.413-0.588l1.419-1.412h4.169c1.106 0 2-0.894 2-2v-5c0-1.106-0.894-2-2-2h-1v-0.5zM20.087 19h-5.775l1-4h6.563l-1.313 3.669c-0.069 0.2-0.262 0.331-0.469 0.331zM5 8h24c0.55 0 1 0.45 1 1s-0.45 1-1 1h-24c-0.55 0-1-0.45-1-1s0.45-1 1-1z"/>
</svg>
