<svg version="1.1" xmlns="http://www.w3.org/2000/svg" width="36" height="32" viewBox="0 0 36 32">
<path fill="currentColor" d="M25.844 14.844c-1.762 0.3-3.637-0.225-5-1.588l-2.381-2.381c-0.938-0.938-1.462-2.2-1.462-3.525v-0.756l-4.981-2.719c-0.331-0.181-0.537-0.538-0.519-0.919s0.244-0.719 0.594-0.875l2.95-1.313c1.15-0.506 2.394-0.769 3.656-0.769h1.131c2.294 0 4.5 0.875 6.169 2.444l2.788 2.625c1.512 1.425 2.075 3.481 1.663 5.375l0.988 0.994 0.5-0.5c0.588-0.588 1.537-0.588 2.119 0l1.5 1.5c0.587 0.588 0.587 1.537 0 2.119l-5.5 5.5c-0.587 0.587-1.538 0.587-2.119 0l-1.5-1.5c-0.587-0.587-0.587-1.538 0-2.119l0.5-0.5-1.094-1.094zM1.712 23.569l14.594-12.156c0.219 0.306 0.469 0.6 0.738 0.875l2.381 2.381c0.375 0.375 0.775 0.7 1.2 0.981l-12.194 14.638c-0.906 1.087-2.25 1.712-3.662 1.712-2.638 0-4.769-2.137-4.769-4.769 0-1.413 0.631-2.756 1.712-3.663z"/>
</svg>
