<svg version="1.1" xmlns="http://www.w3.org/2000/svg" width="32" height="32" viewBox="0 0 32 32">
<path fill="currentColor" d="M2.163 18h2.837c0.55 0 1-0.45 1-1v-12.5c0-1.381 1.119-2.5 2.5-2.5s2.5 1.119 2.5 2.5v8.25c0 0.688 0.563 1.25 1.25 1.25s1.25-0.563 1.25-1.25v-10.25c0-1.381 1.119-2.5 2.5-2.5s2.5 1.119 2.5 2.5v10.25c0 0.688 0.563 1.25 1.25 1.25s1.25-0.563 1.25-1.25v-8.25c0-1.381 1.119-2.5 2.5-2.5s2.5 1.119 2.5 2.5v12.5c0 0.55 0.45 1 1 1h2.837c1.194 0 2.163 0.969 2.163 2.163 0 0.538-0.2 1.056-0.563 1.456l-5.4 5.944c-2.569 2.825-6.212 4.438-10.038 4.438s-7.463-1.613-10.037-4.438l-5.4-5.944c-0.362-0.4-0.563-0.919-0.563-1.456 0-1.194 0.969-2.163 2.163-2.163zM16 18c-2.4 0-4.8 2.238-5.662 3.137-0.225 0.231-0.338 0.544-0.338 0.863s0.113 0.631 0.338 0.863c0.863 0.9 3.263 3.137 5.662 3.137s4.8-2.238 5.663-3.137c0.225-0.231 0.337-0.544 0.337-0.863s-0.113-0.631-0.337-0.863c-0.863-0.9-3.262-3.137-5.663-3.137zM16 20c1.105 0 2 0.895 2 2s-0.895 2-2 2v0c-1.105 0-2-0.895-2-2s0.895-2 2-2v0z"/>
</svg>
