<svg version="1.1" xmlns="http://www.w3.org/2000/svg" width="40" height="32" viewBox="0 0 40 32">
<path fill="currentColor" d="M34 15.5v0.206l4.356-4.356c1.369-1.369 1.369-3.581 0-4.95l-4.881-4.875c-1.369-1.369-3.581-1.369-4.95 0l-2.506 2.506c-0.169-0.019-0.344-0.031-0.519-0.031h-7c-2.319 0-4.225 1.75-4.475 4h-0.025v7.5c0 1.381 1.119 2.5 2.5 2.5s2.5-1.119 2.5-2.5v-4.5c0 0 0-0.006 0-0.006v-0.994h9.5c0 0 0 0 0.006 0h0.494c2.762 0 5 2.238 5 5v0.5zM21 12v3.5c0 2.488-2.012 4.5-4.5 4.5s-4.5-2.012-4.5-4.5v-7.412c-2.244 0.387-4.112 2.019-4.75 4.263l-1.031 3.6-4.575 4.575c-1.369 1.369-1.369 3.581 0 4.95l4.881 4.881c1.369 1.369 3.581 1.369 4.95 0l2.356-2.356c0.056 0 0.113 0.006 0.169 0.006h10c1.656 0 3-1.344 3-3 0-0.35-0.063-0.688-0.169-1h0.169c1.656 0 3-1.344 3-3 0-0.8-0.313-1.525-0.825-2.063 1.606-0.313 2.819-1.725 2.825-3.425v-0.025c-0.006-1.925-1.569-3.487-3.5-3.487 0 0 0 0 0 0h-7.5z"/>
</svg>
