<svg version="1.1" xmlns="http://www.w3.org/2000/svg" width="40" height="32" viewBox="0 0 40 32">
<path fill="currentColor" d="M21.95 0.3c0.2-0.125 0.413-0.206 0.625-0.256 0.294-0.063 0.6-0.056 0.881 0.006 0.481 0.112 0.925 0.406 1.212 0.85l7.494 11.238c0.55 0.819 0.837 1.787 0.837 2.775v4.594c0 0.431 0.275 0.813 0.681 0.95l4.95 1.65c0.819 0.269 1.369 1.031 1.369 1.894v6c0 0.619-0.288 1.206-0.781 1.587s-1.131 0.506-1.731 0.344l-10.55-2.813c-3.5-0.931-5.938-4.106-5.938-7.731v-7.387c0-1.106 0.894-2 2-2s2 0.894 2 2v5c0 0.55 0.45 1 1 1s1-0.45 1-1v-5.306c0-0.438-0.113-0.863-0.331-1.238l-5.4-9.45c-0.106-0.188-0.181-0.381-0.225-0.581-0.063-0.294-0.063-0.6 0.006-0.881 0.119-0.5 0.425-0.95 0.894-1.244zM18.050 0.3c0.469 0.287 0.775 0.744 0.894 1.244 0.069 0.287 0.075 0.588 0.006 0.881-0.044 0.2-0.119 0.394-0.225 0.581l-5.394 9.45c-0.219 0.375-0.331 0.806-0.331 1.238v5.306c0 0.55 0.45 1 1 1s1-0.45 1-1v-5c0-1.106 0.894-2 2-2s2 0.894 2 2v7.394c0 3.625-2.438 6.794-5.938 7.731l-10.544 2.813c-0.6 0.163-1.244 0.031-1.731-0.344s-0.787-0.969-0.787-1.594v-6c0-0.863 0.55-1.625 1.369-1.9l4.95-1.65c0.406-0.137 0.681-0.519 0.681-0.95v-4.594c0-0.988 0.294-1.95 0.838-2.775l7.488-11.225c0.287-0.444 0.731-0.738 1.212-0.85 0.288-0.069 0.587-0.075 0.881-0.006 0.219 0.050 0.431 0.131 0.625 0.256z"/>
</svg>
