<svg version="1.1" xmlns="http://www.w3.org/2000/svg" width="40" height="32" viewBox="0 0 40 32">
<path fill="currentColor" d="M20 0c4.418 0 8 3.582 8 8s-3.582 8-8 8v0c-4.418 0-8-3.582-8-8s3.582-8 8-8v0zM2.5 4c1.381 0 2.5 1.119 2.5 2.5v10.012c0 1.063 0.419 2.081 1.169 2.831l3.194 3.194c0.519 0.519 1.331 0.6 1.938 0.194 0.806-0.538 0.919-1.681 0.231-2.363l-2.95-2.95c-0.781-0.781-0.781-2.050 0-2.831s2.050-0.781 2.831 0l4.531 4.531c1.313 1.313 2.050 3.094 2.050 4.95v4.931c0 1.656-1.344 3-3 3h-4.162c-1.063 0-2.081-0.419-2.831-1.169l-6.244-6.244c-1.125-1.125-1.756-2.65-1.756-4.244v-13.844c0-1.381 1.119-2.5 2.5-2.5zM37.5 4c1.381 0 2.5 1.119 2.5 2.5v13.844c0 1.594-0.631 3.119-1.756 4.244l-6.244 6.244c-0.75 0.75-1.769 1.169-2.831 1.169h-4.169c-1.656 0-3-1.344-3-3v-4.931c0-1.856 0.738-3.637 2.050-4.95l4.531-4.531c0.781-0.781 2.050-0.781 2.831 0s0.781 2.050 0 2.831l-2.95 2.95c-0.688 0.688-0.575 1.825 0.231 2.363 0.606 0.406 1.419 0.325 1.938-0.194l3.194-3.194c0.75-0.75 1.169-1.769 1.169-2.831v-10.012c0-1.381 1.119-2.5 2.5-2.5z"/>
</svg>
