<svg version="1.1" xmlns="http://www.w3.org/2000/svg" width="36" height="32" viewBox="0 0 36 32">
<path fill="currentColor" d="M34 10l-0.006 4.537c-0.006 3.263-1.5 6.313-4 8.319 0.006-0.119 0.006-0.238 0.006-0.356v-0.5c0-4.488-2.313-8.662-6.119-11.044l-3.762-2.35c-0.538-0.338-1.119-0.525-1.706-0.588l-2.869-4.969c-0.412-0.719-0.169-1.637 0.55-2.050s1.637-0.169 2.050 0.55l4.875 8.444c0.206 0.356 0.669 0.481 1.025 0.275s0.481-0.669 0.275-1.025l-3.875-6.713c-0.413-0.719-0.169-1.637 0.55-2.050s1.631-0.169 2.044 0.55l6.956 12.050 0.006-3.081c0-1.106 0.9-2 2-2s2 0.9 2 2zM15.244 5.531l1.537 2.656c-0.869 0.281-1.65 0.856-2.169 1.688-0.056 0.088-0.106 0.181-0.156 0.275l-1.806-3.125c-0.412-0.719-0.169-1.638 0.55-2.050s1.637-0.169 2.050 0.55zM12.344 9.512l1.675 2.9c0.037 0.375 0.131 0.738 0.269 1.088h-3.1l-1.438-2.488c-0.412-0.719-0.169-1.637 0.55-2.050s1.637-0.169 2.050 0.55zM16.306 10.938c0.587-0.938 1.819-1.219 2.756-0.637l3.762 2.35c3.219 2.019 5.175 5.55 5.175 9.35v0.5c0 5.244-4.256 9.5-9.5 9.5h-11c-0.831 0-1.5-0.669-1.5-1.5s0.669-1.5 1.5-1.5h5.75c0.412 0 0.75-0.337 0.75-0.75s-0.338-0.75-0.75-0.75h-7.75c-0.831 0-1.5-0.669-1.5-1.5s0.669-1.5 1.5-1.5h7.75c0.412 0 0.75-0.337 0.75-0.75s-0.338-0.75-0.75-0.75h-9.75c-0.831 0-1.5-0.669-1.5-1.5s0.669-1.5 1.5-1.5h9.75c0.412 0 0.75-0.337 0.75-0.75s-0.338-0.75-0.75-0.75h-7.75c-0.831 0-1.5-0.669-1.5-1.5s0.669-1.5 1.5-1.5h14.325l-2.887-1.806c-0.938-0.588-1.219-1.819-0.637-2.756z"/>
</svg>
