<svg version="1.1" xmlns="http://www.w3.org/2000/svg" width="40" height="32" viewBox="0 0 40 32">
<path fill="currentColor" d="M20.212 5.325l-6.050 4.9c-1.006 0.813-1.2 2.275-0.438 3.319 0.806 1.113 2.375 1.331 3.456 0.488l6.206-4.825c0.438-0.338 1.063-0.262 1.406 0.175s0.262 1.063-0.175 1.406l-1.306 1.012 8.688 8v-11.8h-0.044l-4.781-3.063c-0.956-0.612-2.075-0.938-3.212-0.938-1.363 0-2.688 0.469-3.75 1.325zM21.637 13.1l-3.231 2.513c-1.969 1.538-4.825 1.137-6.3-0.887-1.387-1.906-1.037-4.569 0.794-6.050l5.2-4.206c-0.725-0.306-1.506-0.463-2.3-0.463-1.175-0.006-2.319 0.344-3.3 0.994l-4.5 3v14h1.762l5.713 5.212c1.225 1.119 3.119 1.031 4.237-0.194 0.344-0.381 0.575-0.825 0.694-1.288l1.063 0.975c1.219 1.119 3.119 1.038 4.238-0.181 0.281-0.306 0.488-0.663 0.619-1.031 1.212 0.813 2.863 0.644 3.881-0.469 1.119-1.219 1.038-3.119-0.181-4.238l-8.387-7.688zM1 8c-0.55 0-1 0.45-1 1v13c0 1.106 0.894 2 2 2h2c1.106 0 2-0.894 2-2v-14h-5zM3 20c0.552 0 1 0.448 1 1s-0.448 1-1 1v0c-0.552 0-1-0.448-1-1s0.448-1 1-1v0zM34 8v14c0 1.106 0.894 2 2 2h2c1.106 0 2-0.894 2-2v-13c0-0.55-0.45-1-1-1h-5zM36 21c0-0.552 0.448-1 1-1s1 0.448 1 1v0c0 0.552-0.448 1-1 1s-1-0.448-1-1v0z"/>
</svg>
