<svg version="1.1" xmlns="http://www.w3.org/2000/svg" width="28" height="32" viewBox="0 0 28 32">
<path fill="currentColor" d="M12 0c1.106 0 2 0.894 2 2v7h-4v-7c0-1.106 0.894-2 2-2zM4 4c0-1.106 0.894-2 2-2s2 0.894 2 2v5h-4v-5zM16 4c0-1.106 0.894-2 2-2s2 0.894 2 2v6c0 1.106-0.894 2-2 2s-2-0.894-2-2v-6zM22 8c0-1.106 0.894-2 2-2s2 0.894 2 2v4c0 1.106-0.894 2-2 2s-2-0.894-2-2v-4zM16 13.5v-0.037c0.587 0.338 1.269 0.537 2 0.537 0.825 0 1.587-0.25 2.225-0.675 0.544 1.556 2.031 2.675 3.775 2.675 0.731 0 1.413-0.194 2-0.537v0.537c0 3.269-1.569 6.175-4 8v6c0 1.106-0.894 2-2 2h-10c-1.106 0-2-0.894-2-2v-4.9c-1.081-0.494-2.075-1.175-2.931-2.031l-0.725-0.725c-1.5-1.5-2.344-3.538-2.344-5.656v-1.688c0-2.206 1.794-4 4-4h5.5c1.381 0 2.5 1.119 2.5 2.5s-1.119 2.5-2.5 2.5h-3.5c-0.55 0-1 0.45-1 1s0.45 1 1 1h3.5c2.488 0 4.5-2.012 4.5-4.5z"/>
</svg>
