<svg version="1.1" xmlns="http://www.w3.org/2000/svg" width="28" height="32" viewBox="0 0 28 32">
<path fill="currentColor" d="M14.5 0c-1.381 0-2.5 1.119-2.5 2.5v10.262c-0.531-0.475-1.231-0.762-2-0.762-1.656 0-3 1.344-3 3v5c0 0.55-0.45 1-1 1s-1-0.45-1-1v-3.481c-0.125 0.087-0.244 0.188-0.362 0.281l-1.2 1c-0.913 0.762-1.438 1.887-1.438 3.075v2.375c0 2.375 1.056 4.625 2.881 6.144l0.338 0.281c1.8 1.5 4.063 2.319 6.4 2.319h7.381c4.419 0 8-3.581 8-8v-5.994c0-1.656-1.344-3-3-3-0.775 0-1.475 0.294-2.006 0.769-0.119-1.55-1.413-2.769-2.994-2.769-0.769 0-1.469 0.287-2 0.762v-11.262c0-1.381-1.119-2.5-2.5-2.5z"/>
</svg>
