<svg version="1.1" xmlns="http://www.w3.org/2000/svg" width="40" height="32" viewBox="0 0 40 32">
<path fill="currentColor" d="M5 6.5c0-1.381-1.119-2.5-2.5-2.5s-2.5 1.119-2.5 2.5v13.844c0 1.594 0.631 3.119 1.756 4.244l6.244 6.244c0.75 0.75 1.769 1.169 2.831 1.169h4.169c1.656 0 3-1.344 3-3v-4.931c0-1.856-0.738-3.637-2.050-4.95l-4.531-4.531c-0.781-0.781-2.050-0.781-2.831 0s-0.781 2.050 0 2.831l2.95 2.95c0.688 0.688 0.575 1.825-0.231 2.363-0.606 0.406-1.419 0.325-1.938-0.194l-3.2-3.194c-0.75-0.75-1.169-1.769-1.169-2.831v-10.012zM35 6.5v10.012c0 1.063-0.419 2.081-1.169 2.831l-3.194 3.194c-0.519 0.519-1.331 0.6-1.938 0.194-0.806-0.538-0.919-1.681-0.231-2.363l2.95-2.95c0.781-0.781 0.781-2.050 0-2.831s-2.050-0.781-2.831 0l-4.531 4.531c-1.313 1.313-2.050 3.094-2.050 4.95v4.931c0 1.656 1.344 3 3 3h4.169c1.063 0 2.081-0.419 2.831-1.169l6.244-6.244c1.125-1.125 1.756-2.65 1.756-4.244v-13.844c0-1.381-1.119-2.5-2.5-2.5s-2.5 1.119-2.5 2.5z"/>
</svg>
