<svg version="1.1" xmlns="http://www.w3.org/2000/svg" width="40" height="32" viewBox="0 0 40 32">
<path fill="currentColor" d="M6 2c0-1.106-0.894-2-2-2s-2 0.894-2 2v11.369c0 0.887 0.319 1.744 0.894 2.419l5.331 6.212h-0.225c-0.831 0-1.5 0.669-1.5 1.5s0.669 1.5 1.5 1.5h24c0.831 0 1.5-0.669 1.5-1.5s-0.669-1.5-1.5-1.5h-0.225l5.331-6.219c0.575-0.675 0.894-1.531 0.894-2.419v-11.363c0-1.106-0.894-2-2-2s-2 0.894-2 2v7.050l-4.331 5.775c-0.356 0.475-1.006 0.6-1.512 0.3-0.606-0.356-0.756-1.169-0.319-1.719l1.725-2.156c0.675-0.844 0.556-2.081-0.275-2.781s-2.063-0.612-2.781 0.2l-2.919 3.281c-1.025 1.156-1.587 2.638-1.587 4.181v5.869h-4v-5.869c0-1.537-0.563-3.025-1.587-4.175l-2.919-3.281c-0.719-0.813-1.956-0.9-2.781-0.2s-0.95 1.931-0.275 2.781l1.725 2.156c0.438 0.55 0.294 1.363-0.319 1.719-0.506 0.3-1.162 0.169-1.512-0.3l-4.331-5.781v-7.050zM10 30v2h8v-2h4v2h8v-2h2c0.831 0 1.5-0.669 1.5-1.5s-0.669-1.5-1.5-1.5h-24c-0.831 0-1.5 0.669-1.5 1.5s0.669 1.5 1.5 1.5h2z"/>
</svg>
