<svg version="1.1" xmlns="http://www.w3.org/2000/svg" width="40" height="32" viewBox="0 0 40 32">
<path fill="currentColor" d="M20 0c1.106 0 2 0.894 2 2v13c0 0.55 0.45 1 1 1s1-0.45 1-1v-11c0-1.106 0.894-2 2-2s2 0.894 2 2v11c0 0.55 0.45 1 1 1s1-0.45 1-1v-7c0-1.106 0.894-2 2-2s2 0.894 2 2v12.194c-0.744 0.3-1.331 0.931-1.563 1.738l-0.556 1.95-1.95 0.556c-1.144 0.331-1.931 1.375-1.931 2.563 0 1.181 0.781 2.225 1.913 2.556-1.887 1.531-4.294 2.444-6.912 2.444h-1.2c-3.725 0-7.306-1.431-10-4l-7.025-6.688c-1-0.95-1.038-2.538-0.088-3.538s2.537-1.038 3.537-0.087l3.781 3.6c0-0.094-0.006-0.194-0.006-0.288v-17c0-1.106 0.894-2 2-2s2 0.894 2 2v11c0 0.55 0.45 1 1 1s1-0.45 1-1v-13c0-1.106 0.894-2 2-2zM19.544 20.413c-0.069-0.244-0.294-0.413-0.544-0.413s-0.475 0.169-0.544 0.413l-0.456 1.587-1.587 0.456c-0.244 0.069-0.413 0.294-0.413 0.544s0.169 0.475 0.413 0.544l1.587 0.456 0.456 1.587c0.069 0.244 0.294 0.413 0.544 0.413s0.475-0.169 0.544-0.413l0.456-1.587 1.587-0.456c0.244-0.069 0.413-0.294 0.413-0.544s-0.169-0.475-0.413-0.544l-1.587-0.456-0.456-1.587zM6.5 7.5l3.019 0.863c0.287 0.081 0.481 0.344 0.481 0.637s-0.194 0.556-0.481 0.637l-3.019 0.863-0.862 3.019c-0.081 0.287-0.344 0.481-0.638 0.481s-0.556-0.194-0.638-0.481l-0.862-3.019-3.019-0.863c-0.287-0.081-0.481-0.344-0.481-0.637s0.194-0.556 0.481-0.637l3.019-0.862 0.862-3.019c0.081-0.287 0.344-0.481 0.638-0.481s0.556 0.194 0.638 0.481l0.862 3.019zM36.5 25.5l3.019 0.863c0.288 0.081 0.481 0.344 0.481 0.637s-0.194 0.556-0.481 0.637l-3.019 0.863-0.862 3.019c-0.081 0.288-0.344 0.481-0.638 0.481s-0.556-0.194-0.638-0.481l-0.862-3.019-3.019-0.863c-0.288-0.081-0.481-0.344-0.481-0.637s0.194-0.556 0.481-0.637l3.019-0.863 0.862-3.019c0.081-0.288 0.344-0.481 0.638-0.481s0.556 0.194 0.638 0.481l0.862 3.019z"/>
</svg>
