<svg version="1.1" xmlns="http://www.w3.org/2000/svg" width="40" height="32" viewBox="0 0 40 32">
<path fill="currentColor" d="M2.425 0.319c-0.65-0.512-1.594-0.394-2.106 0.256s-0.394 1.594 0.256 2.106l37 29c0.65 0.513 1.594 0.394 2.106-0.256s0.394-1.594-0.256-2.106l-8.438-6.613c-0.069-0.706-0.394-1.394-0.956-1.919l-8.387-7.688-1.462 1.137-1.625-1.269 4.825-3.756c0.438-0.338 1.063-0.262 1.406 0.175s0.262 1.063-0.175 1.406l-1.306 1.012 11.081 10.194h2.612c1.656 0 3-1.344 3-3v-8c0-1.656-1.344-3-3-3h-5.044l-4.781-3.063c-0.956-0.612-2.075-0.938-3.212-0.938-1.363 0-2.688 0.469-3.75 1.325l-5.606 4.538-1.613-1.269 5.113-4.138c-0.725-0.306-1.506-0.462-2.3-0.462-1.181 0.006-2.325 0.356-3.306 1.006l-2.219 1.481-7.856-6.162zM25.85 26.369l-23.275-18.337c-1.456 0.206-2.575 1.456-2.575 2.969v8c0 1.656 1.344 3 3 3h6.763l5.713 5.212c1.225 1.119 3.119 1.031 4.237-0.194 0.344-0.381 0.575-0.825 0.694-1.288l1.063 0.975c1.219 1.119 3.119 1.038 4.238-0.181 0.050-0.050 0.094-0.106 0.137-0.163z"/>
</svg>
