<svg version="1.1" xmlns="http://www.w3.org/2000/svg" width="32" height="32" viewBox="0 0 32 32">
<path fill="currentColor" d="M18 2c0-1.106-0.894-2-2-2s-2 0.894-2 2v13c0 0.55-0.45 1-1 1s-1-0.45-1-1v-11c0-1.106-0.894-2-2-2s-2 0.894-2 2v17c0 0.094 0 0.194 0.006 0.288l-3.781-3.6c-1-0.95-2.581-0.913-3.538 0.087s-0.912 2.581 0.088 3.538l7.025 6.688c2.694 2.569 6.275 4 10 4h1.2c6.075 0 11-4.925 11-11v-13c0-1.106-0.894-2-2-2s-2 0.894-2 2v7c0 0.55-0.45 1-1 1s-1-0.45-1-1v-11c0-1.106-0.894-2-2-2s-2 0.894-2 2v11c0 0.55-0.45 1-1 1s-1-0.45-1-1v-13z"/>
</svg>
