<svg version="1.1" xmlns="http://www.w3.org/2000/svg" width="32" height="32" viewBox="0 0 32 32">
<path fill="currentColor" d="M2 6c-1.106 0-2 0.894-2 2s0.894 2 2 2h13v-4h-13zM12 18c-1.106 0-2 0.894-2 2s0.894 2 2 2h4c1.106 0 2-0.894 2-2s-0.894-2-2-2h-4zM8 14c0 1.106 0.894 2 2 2h3c1.106 0 2-0.894 2-2s-0.894-2-2-2h-3c-1.106 0-2 0.894-2 2zM14 24c-1.106 0-2 0.894-2 2s0.894 2 2 2h4c1.106 0 2-0.894 2-2s-0.894-2-2-2h-4zM19.5 18h-0.038c0.337 0.587 0.538 1.269 0.538 2 0 0.825-0.25 1.587-0.675 2.225 1.556 0.544 2.675 2.031 2.675 3.775 0 0.731-0.194 1.413-0.538 2h0.538c5.525 0 10-4.475 10-10v-3.856c0-2.65-1.056-5.194-2.931-7.069l-0.725-0.725c-1.5-1.506-3.538-2.35-5.656-2.35h-1.688c-2.206 0-4 1.794-4 4v5.5c0 1.381 1.119 2.5 2.5 2.5s2.5-1.119 2.5-2.5v-3.5c0-0.55 0.45-1 1-1s1 0.45 1 1v3.5c0 2.488-2.012 4.5-4.5 4.5z"/>
</svg>
