<svg version="1.1" xmlns="http://www.w3.org/2000/svg" width="36" height="32" viewBox="0 0 36 32">
<path fill="currentColor" d="M17.219 0.412c0.175-0.256 0.469-0.412 0.781-0.412s0.606 0.156 0.781 0.412l4.144 6.025c0.7 1.019 1.075 2.225 1.075 3.456v0.106c0 3.313-2.688 6-6 6s-6-2.688-6-6v-0.106c0-1.238 0.375-2.438 1.075-3.456l4.144-6.025zM35.513 21.019c0.819 1.113 0.581 2.675-0.531 3.494l-7.913 5.831c-1.462 1.075-3.225 1.656-5.044 1.656h-20.025c-1.106 0-2-0.894-2-2v-4c0-1.106 0.894-2 2-2h2.3l2.806-2.25c1.419-1.137 3.181-1.75 5-1.75h9.894c1.106 0 2 0.894 2 2s-0.894 2-2 2h-5c-0.55 0-1 0.45-1 1s0.45 1 1 1h7.537l7.481-5.512c1.112-0.819 2.675-0.581 3.494 0.531zM12.1 24v0h-0.056c0.019 0 0.037 0 0.056 0z"/>
</svg>
