<svg version="1.1" xmlns="http://www.w3.org/2000/svg" width="32" height="32" viewBox="0 0 32 32">
<path fill="currentColor" d="M2.5 13c-1.381 0-2.5 1.119-2.5 2.5s1.119 2.5 2.5 2.5h11.262c-0.475 0.531-0.762 1.231-0.762 2 0 1.581 1.219 2.875 2.769 2.994-0.481 0.531-0.769 1.238-0.769 2.006 0 1.656 1.344 3 3 3h6c4.419 0 8-3.581 8-8v-7.069c0-2.513-1-4.925-2.775-6.706-1.425-1.425-3.356-2.225-5.369-2.225h-2.856c-1.331 0-2.456 0.869-2.85 2.069l4.656 1.481c0.525 0.169 0.819 0.731 0.65 1.256s-0.731 0.819-1.256 0.65l-4.2-1.338v0.006l-12.75-4.013c-1.319-0.413-2.719 0.319-3.138 1.638s0.319 2.719 1.638 3.137l13.094 4.113h-14.344z"/>
</svg>
