<svg version="1.1" xmlns="http://www.w3.org/2000/svg" width="28" height="32" viewBox="0 0 28 32">
<path fill="currentColor" d="M9 0c-1.656 0-3 1.344-3 3v8c0 0.55-0.45 1-1 1s-1-0.45-1-1v-1.669l-0.563 0.469c-0.913 0.762-1.438 1.887-1.438 3.075v2.375c0 2.375 1.056 4.625 2.881 6.144l3.119 2.606v6c0 1.106 0.894 2 2 2h10c1.106 0 2-0.894 2-2v-6.581c2.931-1.188 5-4.063 5-7.419v-7c0-1.656-1.344-3-3-3-0.775 0-1.475 0.294-2.006 0.769-0.119-1.55-1.413-2.769-2.994-2.769-0.775 0-1.475 0.294-2.006 0.769-0.119-1.55-1.412-2.769-2.994-2.769-0.775 0-1.475 0.294-2.006 0.769-0.119-1.55-1.412-2.769-2.994-2.769z"/>
</svg>
