<svg version="1.1" xmlns="http://www.w3.org/2000/svg" width="24" height="32" viewBox="0 0 24 32">
<path fill="currentColor" d="M2 30c0 1.106 0.894 2 2 2s2-0.894 2-2v-13h-4v13zM14 20c0 1.106 0.894 2 2 2s2-0.894 2-2v-4c0-1.106-0.894-2-2-2s-2 0.894-2 2v4zM10 24c1.106 0 2-0.894 2-2v-3c0-1.106-0.894-2-2-2s-2 0.894-2 2v3c0 1.106 0.894 2 2 2zM20 18c0 1.106 0.894 2 2 2s2-0.894 2-2v-4c0-1.106-0.894-2-2-2s-2 0.894-2 2v4zM14 12.5v0.037c0.588-0.338 1.269-0.537 2-0.537 0.825 0 1.587 0.25 2.225 0.675 0.544-1.556 2.031-2.675 3.775-2.675 0.731 0 1.413 0.194 2 0.537v-0.537c0-5.525-4.475-10-10-10h-3.856c-2.656 0-5.2 1.056-7.075 2.931l-0.725 0.725c-1.5 1.5-2.344 3.537-2.344 5.656v1.688c0 2.206 1.794 4 4 4h5.5c1.381 0 2.5-1.119 2.5-2.5s-1.119-2.5-2.5-2.5h-3.5c-0.55 0-1-0.45-1-1s0.45-1 1-1h3.5c2.488 0 4.5 2.012 4.5 4.5z"/>
</svg>
