<svg version="1.1" xmlns="http://www.w3.org/2000/svg" width="36" height="32" viewBox="0 0 36 32">
<path fill="currentColor" d="M10.244 8.556c-1.838-1.862-1.838-4.888 0-6.75s4.813-1.863 6.65 0l1.106 1.125 1.106-1.125c1.837-1.863 4.813-1.863 6.65 0s1.837 4.888 0 6.75l-6.35 6.45c-0.387 0.394-0.894 0.588-1.406 0.588s-1.019-0.194-1.406-0.588l-6.35-6.45zM35.513 21.019c0.819 1.113 0.581 2.675-0.531 3.494l-7.913 5.831c-1.462 1.075-3.225 1.656-5.044 1.656h-20.025c-1.106 0-2-0.894-2-2v-4c0-1.106 0.894-2 2-2h2.3l2.806-2.25c1.419-1.137 3.181-1.75 5-1.75h9.894c1.106 0 2 0.894 2 2s-0.894 2-2 2h-5c-0.55 0-1 0.45-1 1s0.45 1 1 1h7.537l7.481-5.512c1.112-0.819 2.675-0.581 3.494 0.531zM12.1 24v0h-0.056c0.019 0 0.037 0 0.056 0z"/>
</svg>
