<svg version="1.1" xmlns="http://www.w3.org/2000/svg" width="36" height="32" viewBox="0 0 36 32">
<path fill="currentColor" d="M0.487 12.981c-0.819-1.113-0.581-2.675 0.531-3.494l7.913-5.831c1.456-1.075 3.225-1.656 5.037-1.656h20.031c1.106 0 2 0.894 2 2v4c0 1.106-0.894 2-2 2h-2.3l-2.806 2.25c-1.419 1.137-3.181 1.75-5 1.75h-9.894c-1.106 0-2-0.894-2-2s0.894-2 2-2h5c0.55 0 1-0.45 1-1s-0.45-1-1-1h-7.537l-7.481 5.512c-1.112 0.819-2.675 0.581-3.494-0.531zM23.9 10v0h0.056c-0.019 0-0.038 0-0.056 0zM35.513 19.019c0.819 1.113 0.581 2.675-0.531 3.494l-7.913 5.831c-1.462 1.075-3.225 1.656-5.044 1.656h-20.025c-1.106 0-2-0.894-2-2v-4c0-1.106 0.894-2 2-2h2.3l2.806-2.25c1.419-1.137 3.181-1.75 5-1.75h9.894c1.106 0 2 0.894 2 2s-0.894 2-2 2h-5c-0.55 0-1 0.45-1 1s0.45 1 1 1h7.537l7.481-5.512c1.112-0.819 2.675-0.581 3.494 0.531zM12.1 22v0h-0.056c0.019 0 0.037 0 0.056 0z"/>
</svg>
