<svg version="1.1" xmlns="http://www.w3.org/2000/svg" width="36" height="32" viewBox="0 0 36 32">
<path fill="currentColor" d="M15.431 1.481c-0.287-1.069-1.381-1.7-2.45-1.413s-1.7 1.381-1.412 2.45l3.306 12.344c0.156 0.575-0.281 1.137-0.875 1.137-0.4 0-0.75-0.262-0.869-0.644l-2.719-8.938c-0.319-1.056-1.438-1.65-2.494-1.331s-1.65 1.438-1.331 2.494l3.925 12.9c0.15 0.494-0.45 0.863-0.825 0.506l-3.463-3.3c-1-0.95-2.581-0.913-3.538 0.087s-0.913 2.581 0.087 3.538l7.025 6.688c2.694 2.569 6.275 4 10 4h1.194c0.006 0 0.006-0.006 0.006-0.006v0c0-0.006 0.006-0.006 0.006-0.006 3.644-0.219 6.787-2.7 7.831-6.231l5.075-17.188c0.313-1.056-0.294-2.169-1.35-2.487s-2.169 0.294-2.488 1.35l-2.356 8.012c-0.1 0.331-0.4 0.556-0.75 0.556-0.494 0-0.863-0.456-0.762-0.944l2.25-10.644c0.231-1.081-0.462-2.144-1.544-2.369s-2.144 0.462-2.369 1.544l-2.35 11.106c-0.163 0.762-0.831 1.306-1.613 1.306-0.744 0-1.4-0.5-1.587-1.219l-3.563-13.3z"/>
</svg>
