<svg version="1.1" xmlns="http://www.w3.org/2000/svg" width="36" height="32" viewBox="0 0 36 32">
<path fill="currentColor" d="M26 4c1.105 0 2-0.895 2-2s-0.895-2-2-2v0c-1.105 0-2 0.895-2 2s0.895 2 2 2v0zM32 12c1.105 0 2-0.895 2-2s-0.895-2-2-2v0c-1.105 0-2 0.895-2 2s0.895 2 2 2v0zM10 29c0-1.657-1.343-3-3-3s-3 1.343-3 3v0c0 1.657 1.343 3 3 3s3-1.343 3-3v0zM2 10l0.006 4.537c0.006 3.263 1.5 6.313 4 8.319-0.006-0.119-0.006-0.238-0.006-0.356v-0.5c0-4.488 2.313-8.662 6.119-11.044l3.763-2.35c0.538-0.338 1.119-0.525 1.706-0.588l2.869-4.969c0.413-0.719 0.169-1.637-0.55-2.050s-1.637-0.169-2.050 0.55l-4.875 8.444c-0.206 0.356-0.669 0.481-1.025 0.275s-0.481-0.669-0.275-1.025l3.875-6.713c0.412-0.719 0.169-1.637-0.55-2.050s-1.631-0.169-2.044 0.55l-6.956 12.050-0.006-3.081c0-1.106-0.9-2-2-2s-2 0.9-2 2zM20.756 5.531l-1.538 2.656c0.869 0.281 1.65 0.856 2.169 1.688 0.056 0.094 0.106 0.181 0.156 0.275l1.806-3.125c0.413-0.719 0.169-1.638-0.55-2.050s-1.637-0.169-2.050 0.55zM23.656 9.512l-1.675 2.9c-0.038 0.375-0.131 0.738-0.269 1.088h3.1l1.438-2.488c0.413-0.719 0.169-1.637-0.55-2.050s-1.637-0.169-2.050 0.55zM19.694 10.938c-0.587-0.938-1.819-1.219-2.756-0.637l-3.762 2.35c-3.219 2.019-5.175 5.55-5.175 9.35v0.5c0 0.556 0.050 1.1 0.137 1.631 2.213 0.512 3.863 2.5 3.863 4.869 0 0.394-0.044 0.781-0.131 1.15 1.575 1.163 3.525 1.85 5.631 1.85h11c0.831 0 1.5-0.669 1.5-1.5s-0.669-1.5-1.5-1.5h-5.75c-0.413 0-0.75-0.337-0.75-0.75s0.337-0.75 0.75-0.75h7.75c0.831 0 1.5-0.669 1.5-1.5s-0.669-1.5-1.5-1.5h-7.75c-0.413 0-0.75-0.337-0.75-0.75s0.337-0.75 0.75-0.75h9.75c0.831 0 1.5-0.669 1.5-1.5s-0.669-1.5-1.5-1.5h-9.75c-0.413 0-0.75-0.337-0.75-0.75s0.337-0.75 0.75-0.75h7.75c0.831 0 1.5-0.669 1.5-1.5s-0.669-1.5-1.5-1.5h-14.325l2.887-1.806c0.938-0.588 1.219-1.819 0.637-2.756z"/>
</svg>
