<svg version="1.1" xmlns="http://www.w3.org/2000/svg" width="32" height="32" viewBox="0 0 32 32">
<path fill="currentColor" d="M14 0c1.106 0 2 0.894 2 2v13h-4v-13c0-1.106 0.894-2 2-2zM20 10c1.106 0 2 0.894 2 2v4c0 1.106-0.894 2-2 2s-2-0.894-2-2v-4c0-1.106 0.894-2 2-2zM24 14c0-1.106 0.894-2 2-2s2 0.894 2 2v4c0 1.106-0.894 2-2 2s-2-0.894-2-2v-4zM5.831 3.2l5.162 11.8h-4.362l-4.463-10.2c-0.444-1.013 0.019-2.188 1.031-2.631s2.194 0.019 2.631 1.031zM7.519 17.031l-0.013-0.031h5.994c1.381 0 2.5 1.119 2.5 2.5s-1.119 2.5-2.5 2.5h-3.5c-0.55 0-1 0.45-1 1s0.45 1 1 1h3.5c2.488 0 4.5-2.012 4.5-4.5v-0.038c0.587 0.337 1.269 0.538 2 0.538 0.825 0 1.587-0.25 2.225-0.675 0.544 1.556 2.031 2.675 3.775 2.675 0.731 0 1.413-0.194 2-0.538v0.538c0 5.525-4.475 10-10 10h-3.856c-2.65 0-5.194-1.056-7.069-2.931l-0.725-0.725c-1.506-1.5-2.35-3.538-2.35-5.656v-1.688c0-2.044 1.537-3.731 3.519-3.969z"/>
</svg>
