<svg version="1.1" xmlns="http://www.w3.org/2000/svg" width="40" height="32" viewBox="0 0 40 32">
<path fill="currentColor" d="M15 2c0-1.105 0.895-2 2-2s2 0.895 2 2v0c0 1.105-0.895 2-2 2s-2-0.895-2-2v0zM12 3c1.105 0 2 0.895 2 2s-0.895 2-2 2v0c-1.105 0-2-0.895-2-2s0.895-2 2-2v0zM10 8c1.106 0 2 0.894 2 2h0.5c0.831 0 1.5 0.669 1.5 1.5v1c0 0.106-0.012 0.213-0.031 0.319 3.55 1.531 6.031 5.069 6.031 9.181 0 5.525-4.475 10-10 10s-10-4.475-10-10c0-4.113 2.481-7.65 6.031-9.181-0.025-0.1-0.031-0.206-0.031-0.319v-1c0-0.831 0.669-1.5 1.5-1.5h0.5c0-1.106 0.894-2 2-2zM10 28c3.314 0 6-2.686 6-6s-2.686-6-6-6v0c-3.314 0-6 2.686-6 6s2.686 6 6 6v0zM22 22c0-1.619-0.319-3.156-0.9-4.569 1.056-2.056 2.8-3.694 4.931-4.619-0.025-0.1-0.031-0.206-0.031-0.319v-0.994c0-0.831 0.669-1.5 1.5-1.5h0.5c0-1.106 0.894-2 2-2s2 0.894 2 2h0.5c0.831 0 1.5 0.669 1.5 1.5v1c0 0.106-0.013 0.213-0.031 0.319 3.55 1.531 6.031 5.069 6.031 9.181 0 5.525-4.475 10-10 10-3.875 0-7.238-2.206-8.9-5.431 0.581-1.406 0.9-2.95 0.9-4.569zM36 22c0-3.314-2.686-6-6-6s-6 2.686-6 6v0c0 3.314 2.686 6 6 6s6-2.686 6-6v0zM23 0c1.105 0 2 0.895 2 2s-0.895 2-2 2v0c-1.105 0-2-0.895-2-2s0.895-2 2-2v0zM28 3c1.105 0 2 0.895 2 2s-0.895 2-2 2v0c-1.105 0-2-0.895-2-2s0.895-2 2-2v0z"/>
</svg>
