<svg version="1.1" xmlns="http://www.w3.org/2000/svg" width="36" height="32" viewBox="0 0 36 32">
<path fill="currentColor" d="M19.5 1.5v0.656c0.4 0.075 0.788 0.169 1.137 0.263 0.8 0.212 1.275 1.038 1.063 1.837s-1.038 1.275-1.837 1.063c-0.681-0.181-1.319-0.306-1.887-0.313-0.456-0.006-0.919 0.106-1.212 0.275-0.131 0.081-0.194 0.15-0.219 0.188-0.019 0.031-0.044 0.075-0.044 0.175 0 0.019 0 0.031 0 0.037 0.012 0.013 0.056 0.075 0.206 0.162 0.363 0.219 0.9 0.388 1.712 0.631l0.056 0.019c0.694 0.206 1.619 0.487 2.369 0.956 0.856 0.537 1.631 1.431 1.65 2.806 0.019 1.406-0.712 2.431-1.669 3.031-0.419 0.256-0.869 0.438-1.331 0.55v0.662c0 0.831-0.669 1.5-1.5 1.5s-1.5-0.669-1.5-1.5v-0.713c-0.594-0.144-1.137-0.331-1.6-0.488-0.131-0.044-0.256-0.088-0.375-0.125-0.787-0.262-1.213-1.113-0.95-1.9s1.113-1.213 1.9-0.95c0.162 0.056 0.313 0.106 0.456 0.156 0.85 0.287 1.462 0.494 2.119 0.519 0.5 0.019 0.944-0.1 1.2-0.256 0.119-0.075 0.175-0.137 0.2-0.181 0.025-0.037 0.056-0.113 0.050-0.256v-0.012c0-0.063 0-0.131-0.25-0.287-0.356-0.225-0.894-0.4-1.694-0.644l-0.119-0.037c-0.675-0.2-1.563-0.469-2.275-0.9-0.844-0.506-1.656-1.375-1.662-2.756-0.006-1.431 0.806-2.413 1.731-2.962 0.4-0.237 0.831-0.4 1.262-0.512v-0.694c0-0.831 0.669-1.5 1.5-1.5s1.5 0.669 1.5 1.5zM35.513 21.019c0.819 1.113 0.581 2.675-0.531 3.494l-7.913 5.831c-1.462 1.075-3.225 1.656-5.044 1.656h-20.025c-1.106 0-2-0.894-2-2v-4c0-1.106 0.894-2 2-2h2.3l2.806-2.25c1.419-1.137 3.181-1.75 5-1.75h9.894c1.106 0 2 0.894 2 2s-0.894 2-2 2h-5c-0.55 0-1 0.45-1 1s0.45 1 1 1h7.537l7.481-5.512c1.112-0.819 2.675-0.581 3.494 0.531zM12.1 24v0h-0.056c0.019 0 0.037 0 0.056 0z"/>
</svg>
