<svg version="1.1" xmlns="http://www.w3.org/2000/svg" width="36" height="32" viewBox="0 0 36 32">
<path fill="currentColor" d="M34.981 24.512c1.112-0.819 1.35-2.381 0.531-3.494s-2.381-1.35-3.494-0.531l-7.481 5.512h-7.537c-0.55 0-1-0.45-1-1s0.45-1 1-1h5c1.106 0 2-0.894 2-2s-0.894-2-2-2h-9.894c-1.819 0-3.581 0.619-5 1.75l-2.806 2.25h-2.3c-1.106 0-2 0.894-2 2v4c0 1.106 0.894 2 2 2h20.031c1.813 0 3.581-0.581 5.044-1.656l7.912-5.831zM12.1 23.994c0.003 0.005 0.005 0.010 0.005 0.016 0 0.017-0.014 0.031-0.031 0.031s-0.031-0.014-0.031-0.031c0-0.004 0.001-0.007 0.002-0.010l-0 0c-0.003-0.005-0.005-0.010-0.005-0.016 0-0.017 0.014-0.031 0.031-0.031s0.031 0.014 0.031 0.031c0 0.004-0.001 0.007-0.002 0.010l0-0z"/>
</svg>
