<svg version="1.1" xmlns="http://www.w3.org/2000/svg" width="28" height="32" viewBox="0 0 28 32">
<path fill="currentColor" d="M8 2.5c0-1.381 1.119-2.5 2.5-2.5s2.5 1.119 2.5 2.5v9.262c0.531-0.475 1.231-0.762 2-0.762 1.288 0 2.387 0.813 2.813 1.95 0.55-0.581 1.325-0.95 2.188-0.95 1.581 0 2.875 1.219 2.994 2.769 0.531-0.481 1.238-0.769 2.006-0.769 1.656 0 3 1.344 3 3v7c0 4.419-3.581 8-8 8h-5.331c-0.313 0-0.619-0.019-0.919-0.063-3.456-0.35-6.638-2.125-8.75-4.938l-4.5-6c-0.831-1.106-0.606-2.669 0.5-3.5s2.669-0.606 3.5 0.5l3.5 4.669v-20.169zM15 19c0-0.55-0.45-1-1-1s-1 0.45-1 1v6c0 0.55 0.45 1 1 1s1-0.45 1-1v-6zM18 18c-0.55 0-1 0.45-1 1v6c0 0.55 0.45 1 1 1s1-0.45 1-1v-6c0-0.55-0.45-1-1-1zM23 19c0-0.55-0.45-1-1-1s-1 0.45-1 1v6c0 0.55 0.45 1 1 1s1-0.45 1-1v-6z"/>
</svg>
