<svg version="1.1" xmlns="http://www.w3.org/2000/svg" width="32" height="32" viewBox="0 0 32 32">
<path fill="currentColor" d="M30 6c1.106 0 2 0.894 2 2s-0.894 2-2 2h-13v-4h13zM20 18c1.106 0 2 0.894 2 2s-0.894 2-2 2h-4c-1.106 0-2-0.894-2-2s0.894-2 2-2h4zM24 14c0 1.106-0.894 2-2 2h-3c-1.106 0-2-0.894-2-2s0.894-2 2-2h3c1.106 0 2 0.894 2 2zM18 24c1.106 0 2 0.894 2 2s-0.894 2-2 2h-4c-1.106 0-2-0.894-2-2s0.894-2 2-2h4zM12.5 18h0.037c-0.338 0.587-0.537 1.269-0.537 2 0 0.825 0.25 1.587 0.675 2.225-1.556 0.544-2.675 2.031-2.675 3.775 0 0.731 0.194 1.413 0.537 2h-0.537c-5.525 0-10-4.475-10-10v-3.856c0-2.65 1.056-5.194 2.931-7.069l0.725-0.725c1.5-1.506 3.537-2.35 5.656-2.35h1.688c2.206 0 4 1.794 4 4v5.5c0 1.381-1.119 2.5-2.5 2.5s-2.5-1.119-2.5-2.5v-3.5c0-0.55-0.45-1-1-1s-1 0.45-1 1v3.5c0 2.488 2.012 4.5 4.5 4.5z"/>
</svg>
