<svg version="1.1" xmlns="http://www.w3.org/2000/svg" width="40" height="32" viewBox="0 0 40 32">
<path fill="currentColor" d="M9.787 2.894c0.494-0.988 0.094-2.188-0.894-2.681s-2.188-0.094-2.681 0.894l-5.369 10.731c-0.556 1.113-0.844 2.338-0.844 3.581v0.581c0 4.419 3.581 8 8 8h5v-0.019c2.2-0.169 4.088-1.425 5.131-3.231 0.55-0.956 0.225-2.181-0.731-2.731s-2.181-0.225-2.731 0.731c-0.438 0.75-1.244 1.25-2.169 1.25-1.381 0-2.5-1.119-2.5-2.5s1.119-2.5 2.5-2.5c0.925 0 1.731 0.5 2.169 1.25 0.55 0.956 1.775 1.281 2.731 0.731s1.281-1.775 0.731-2.731c-0.8-1.381-2.1-2.444-3.65-2.944l5.050-1.375c1.063-0.287 1.694-1.387 1.406-2.456s-1.387-1.694-2.456-1.406l-6.3 1.719 5.1-4.25c0.85-0.706 0.962-1.969 0.256-2.819s-1.969-0.963-2.819-0.256l-6.369 5.306 1.438-2.875zM30.212 29.106c-0.494 0.988-0.094 2.188 0.894 2.681s2.188 0.094 2.681-0.894l5.369-10.731c0.556-1.113 0.844-2.337 0.844-3.575v-0.588c0-4.419-3.581-8-8-8h-5v0.019c-2.2 0.169-4.087 1.425-5.131 3.231-0.556 0.956-0.225 2.181 0.731 2.731s2.181 0.225 2.731-0.731c0.438-0.75 1.244-1.25 2.169-1.25 1.381 0 2.5 1.119 2.5 2.5s-1.119 2.5-2.5 2.5c-0.925 0-1.731-0.5-2.169-1.25-0.556-0.956-1.775-1.281-2.731-0.731s-1.281 1.775-0.731 2.731c0.8 1.381 2.1 2.444 3.65 2.944l-5.050 1.375c-1.069 0.294-1.694 1.387-1.406 2.456s1.387 1.694 2.456 1.406l6.294-1.719-5.1 4.25c-0.85 0.706-0.962 1.969-0.256 2.819s1.969 0.963 2.819 0.256l6.369-5.306-1.438 2.875z"/>
</svg>
