<svg version="1.1" xmlns="http://www.w3.org/2000/svg" width="32" height="32" viewBox="0 0 32 32">
<path fill="currentColor" d="M21 1v4c0 0.55-0.45 1-1 1s-1-0.45-1-1v-4c0-0.55 0.45-1 1-1s1 0.45 1 1zM14.831 1.444l2 3c0.306 0.463 0.181 1.081-0.275 1.388s-1.081 0.181-1.387-0.275l-2-3c-0.306-0.462-0.181-1.081 0.275-1.387s1.081-0.181 1.387 0.275zM8.438 7.438c0.588-0.588 1.537-0.588 2.119 0l7.737 7.731c0.631 0.631 1.706 0.181 1.706-0.706v-2.463c0-1.106 0.894-2 2-2s2 0.894 2 2v9.6c0 3.569-1.875 6.875-4.931 8.713-4 2.4-9.113 1.769-12.406-1.525l-6.225-6.225c-0.588-0.587-0.588-1.538 0-2.119s1.538-0.587 2.119 0l3.313 3.313c0.381 0.381 1 0.381 1.381 0s0.381-1 0-1.381l-5.813-5.813c-0.588-0.588-0.588-1.537 0-2.119s1.538-0.588 2.119 0l5.813 5.813c0.381 0.381 1 0.381 1.381 0s0.381-1 0-1.381l-7.313-7.313c-0.587-0.588-0.587-1.537 0-2.119s1.537-0.588 2.119 0l7.313 7.313c0.381 0.381 1 0.381 1.381 0s0.381-1 0-1.381l-5.813-5.813c-0.588-0.588-0.588-1.537 0-2.119zM27.069 30.306c-1.512 0.906-3.181 1.381-4.856 1.444 3.006-2.475 4.787-6.188 4.787-10.15v-6.131c0.512-0.006 1-0.4 1-1v-2.469c0-1.106 0.894-2 2-2s2 0.894 2 2v9.6c0 3.569-1.875 6.875-4.931 8.712zM26.556 1.169c0.462 0.306 0.581 0.925 0.275 1.387l-2 3c-0.306 0.463-0.925 0.581-1.387 0.275s-0.581-0.925-0.275-1.388l2-3c0.306-0.463 0.925-0.581 1.387-0.275z"/>
</svg>
