<svg version="1.1" xmlns="http://www.w3.org/2000/svg" width="40" height="32" viewBox="0 0 40 32">
<path fill="currentColor" d="M19.637 0.206c-0.319 0.55-1.137 2.081-1.137 3.294 0 0.831 0.669 1.5 1.5 1.5s1.5-0.669 1.5-1.5c0-1.212-0.819-2.744-1.137-3.294-0.075-0.131-0.212-0.206-0.363-0.206s-0.288 0.075-0.363 0.206zM1.637 3.206c-0.319 0.55-1.137 2.081-1.137 3.294 0 0.831 0.669 1.5 1.5 1.5s1.5-0.669 1.5-1.5c0-1.213-0.819-2.744-1.138-3.294-0.075-0.131-0.212-0.206-0.363-0.206s-0.287 0.075-0.363 0.206zM5.5 6.5c0 0.831 0.669 1.5 1.5 1.5s1.5-0.669 1.5-1.5c0-1.213-0.819-2.744-1.138-3.294-0.075-0.131-0.213-0.206-0.362-0.206s-0.287 0.075-0.362 0.206c-0.319 0.55-1.138 2.081-1.138 3.294zM10.637 3.206c-0.319 0.55-1.137 2.081-1.137 3.294 0 0.831 0.669 1.5 1.5 1.5s1.5-0.669 1.5-1.5c0-1.213-0.819-2.744-1.137-3.294-0.075-0.131-0.213-0.206-0.363-0.206s-0.287 0.075-0.363 0.206zM13.5 6.5c0 0.831 0.669 1.5 1.5 1.5s1.5-0.669 1.5-1.5c0-1.213-0.819-2.744-1.137-3.294-0.075-0.131-0.213-0.206-0.363-0.206s-0.287 0.075-0.363 0.206c-0.319 0.55-1.137 2.081-1.137 3.294zM24.637 3.206c-0.319 0.55-1.137 2.081-1.137 3.294 0 0.831 0.669 1.5 1.5 1.5s1.5-0.669 1.5-1.5c0-1.213-0.819-2.744-1.137-3.294-0.075-0.131-0.212-0.206-0.363-0.206s-0.288 0.075-0.363 0.206zM27.5 6.5c0 0.831 0.669 1.5 1.5 1.5s1.5-0.669 1.5-1.5c0-1.213-0.819-2.744-1.137-3.294-0.075-0.131-0.212-0.206-0.363-0.206s-0.288 0.075-0.363 0.206c-0.319 0.55-1.137 2.081-1.137 3.294zM32.638 3.206c-0.319 0.55-1.137 2.081-1.137 3.294 0 0.831 0.669 1.5 1.5 1.5s1.5-0.669 1.5-1.5c0-1.213-0.819-2.744-1.138-3.294-0.075-0.131-0.212-0.206-0.362-0.206s-0.288 0.075-0.362 0.206zM36.5 6.5c0 0.831 0.669 1.5 1.5 1.5s1.5-0.669 1.5-1.5c0-1.213-0.819-2.744-1.138-3.294-0.075-0.131-0.212-0.206-0.362-0.206s-0.288 0.075-0.362 0.206c-0.319 0.55-1.138 2.081-1.138 3.294zM7 10c-0.55 0-1 0.45-1 1v7h2v-7c0-0.55-0.45-1-1-1zM11 10c-0.55 0-1 0.45-1 1v7h2v-7c0-0.55-0.45-1-1-1zM15 10c-0.55 0-1 0.45-1 1v7h2v-7c0-0.55-0.45-1-1-1zM25 10c-0.55 0-1 0.45-1 1v7h2v-7c0-0.55-0.45-1-1-1zM29 10c-0.55 0-1 0.45-1 1v7h2v-7c0-0.55-0.45-1-1-1zM33 10c-0.55 0-1 0.45-1 1v7h2v-7c0-0.55-0.45-1-1-1zM22 9c0-1.106-0.894-2-2-2s-2 0.894-2 2v11h-12c-1.106 0-2-0.894-2-2v-6c0-1.106-0.894-2-2-2s-2 0.894-2 2v6c0 3.313 2.688 6 6 6h12v4h-8c-1.106 0-2 0.894-2 2s0.894 2 2 2h20c1.106 0 2-0.894 2-2s-0.894-2-2-2h-8v-4h12c3.313 0 6-2.688 6-6v-6c0-1.106-0.894-2-2-2s-2 0.894-2 2v6c0 1.106-0.894 2-2 2h-12v-11z"/>
</svg>
