<svg version="1.1" xmlns="http://www.w3.org/2000/svg" width="32" height="32" viewBox="0 0 32 32">
<path fill="currentColor" d="M0 6c0-2.206 1.794-4 4-4h24c2.206 0 4 1.794 4 4v11.525c-1.063-0.95-2.462-1.525-4-1.525h-24c-1.538 0-2.938 0.575-4 1.525v-11.525zM4 18h24c2.206 0 4 1.794 4 4v4c0 2.206-1.794 4-4 4h-24c-2.206 0-4-1.794-4-4v-4c0-2.206 1.794-4 4-4zM20 26c1.105 0 2-0.895 2-2s-0.895-2-2-2v0c-1.105 0-2 0.895-2 2s0.895 2 2 2v0zM28 24c0-1.105-0.895-2-2-2s-2 0.895-2 2v0c0 1.105 0.895 2 2 2s2-0.895 2-2v0z"/>
</svg>
