<svg version="1.1" xmlns="http://www.w3.org/2000/svg" width="28" height="32" viewBox="0 0 28 32">
<path fill="currentColor" d="M11.331 2.025c1.088 0.181 1.825 1.212 1.644 2.3l-0.613 3.675h5.944l0.719-4.331c0.181-1.087 1.212-1.825 2.3-1.644s1.825 1.212 1.644 2.3l-0.606 3.675h3.637c1.106 0 2 0.894 2 2s-0.894 2-2 2h-4.306l-1.331 8h3.637c1.106 0 2 0.894 2 2s-0.894 2-2 2h-4.306l-0.719 4.331c-0.181 1.087-1.212 1.825-2.3 1.644s-1.825-1.212-1.644-2.3l0.613-3.669h-5.95l-0.719 4.331c-0.181 1.087-1.213 1.825-2.3 1.644s-1.825-1.212-1.644-2.3l0.606-3.681h-3.638c-1.106 0-2-0.894-2-2s0.894-2 2-2h4.306l1.331-8h-3.638c-1.106 0-2-0.894-2-2s0.894-2 2-2h4.306l0.719-4.331c0.181-1.087 1.213-1.825 2.3-1.644zM11.694 12l-1.331 8h5.944l1.331-8h-5.944z"/>
</svg>
