<svg version="1.1" xmlns="http://www.w3.org/2000/svg" width="32" height="32" viewBox="0 0 32 32">
<path fill="currentColor" d="M4 26l6.537-14.706c0.956-2.15 2.519-3.969 4.5-5.231l9.181-5.875c0.188-0.119 0.406-0.181 0.625-0.181 0.637-0.006 1.156 0.512 1.156 1.156v0.1c0 0.163-0.031 0.319-0.087 0.469l-3.738 9.325c-0.119 0.294-0.175 0.606-0.175 0.919 0 0.344 0.075 0.688 0.212 1.006l5.788 13.019h-12.944l0.738-2.212 2.525-0.844c0.406-0.137 0.681-0.519 0.681-0.95s-0.275-0.813-0.681-0.95l-2.525-0.844-0.844-2.525c-0.137-0.4-0.519-0.675-0.95-0.675s-0.813 0.275-0.95 0.681l-0.844 2.525-2.525 0.844c-0.406 0.137-0.681 0.519-0.681 0.95s0.275 0.813 0.681 0.95l2.525 0.844 0.738 2.206h-8.944zM17.475 8.844c-0.069-0.206-0.256-0.344-0.475-0.344s-0.406 0.137-0.475 0.344l-0.419 1.262-1.262 0.419c-0.206 0.069-0.344 0.256-0.344 0.475s0.137 0.406 0.344 0.475l1.262 0.419 0.419 1.262c0.069 0.206 0.256 0.344 0.475 0.344s0.406-0.137 0.475-0.344l0.419-1.262 1.262-0.419c0.206-0.069 0.344-0.256 0.344-0.475s-0.137-0.406-0.344-0.475l-1.262-0.419-0.419-1.262zM2 28h28c1.106 0 2 0.894 2 2s-0.894 2-2 2h-28c-1.106 0-2-0.894-2-2s0.894-2 2-2z"/>
</svg>
