<svg version="1.1" xmlns="http://www.w3.org/2000/svg" width="40" height="32" viewBox="0 0 40 32">
<path fill="currentColor" d="M9.544 8.494l-0.65 3.575c0.425-0.044 0.85-0.069 1.281-0.069h0.669c2.463 0 4.862 0.756 6.881 2.169l19.619 13.731c1.525-0.375 2.656-1.756 2.656-3.4 0-4.738-5.919-7.912-8.413-9.044l-1.962-10.213c-0.363-1.881-2.012-3.244-3.931-3.244h-0.169c-0.35 0-0.694 0.044-1.031 0.138l-12.044 3.206c-1.494 0.4-2.625 1.625-2.906 3.15zM0 24c0 2.206 1.794 4 4 4h30l-17.419-12.194c-1.681-1.175-3.681-1.806-5.738-1.806h-0.662c-3.787 0-7.25 2.137-8.944 5.525l-0.394 0.788c-0.556 1.106-0.844 2.331-0.844 3.575v0.113z"/>
</svg>
