<svg version="1.1" xmlns="http://www.w3.org/2000/svg" width="40" height="32" viewBox="0 0 40 32">
<path fill="currentColor" d="M20 4c0.9 0 1.394-0.438 1.925-0.9 0.6-0.531 1.244-1.1 2.575-1.1 3.081 0 5.275 9.512 6.119 13.869-2.631 1.138-6.188 2.131-10.619 2.131s-7.988-0.994-10.619-2.131c0.844-4.356 3.037-13.869 6.119-13.869 1.331 0 1.975 0.569 2.575 1.1 0.531 0.462 1.025 0.9 1.925 0.9zM6.944 16.919c2.95 1.531 7.344 3.081 13.063 3.081s10.113-1.55 13.056-3.081c1.55-0.806 3.112-1.769 4.381-2.981 0.494-0.494 1.263-0.575 1.85-0.206 0.594 0.369 0.844 1.119 0.619 1.781-0.844 2.356-2.4 4.519-4.131 6.287-3.050 3.131-8.056 6.2-15.781 6.2s-12.725-3.069-15.781-6.2c-1.731-1.775-3.288-3.938-4.131-6.294-0.225-0.662 0.025-1.412 0.619-1.781s1.356-0.281 1.85 0.206c1.275 1.213 2.831 2.175 4.381 2.981z"/>
</svg>
