<svg version="1.1" xmlns="http://www.w3.org/2000/svg" width="40" height="32" viewBox="0 0 40 32">
<path fill="currentColor" d="M28 20.363l2.75 2.156c0.506 0.087 0.925 0.425 1.125 0.881l2.681 2.1c0.663 0.025 1.219 0.475 1.388 1.087l2.444 1.913c0.038 0 0.075-0.006 0.112-0.006 0.694 0 1.275 0.469 1.45 1.113h-0.244c0.388 0.531 0.4 1.275-0.025 1.813-0.513 0.65-1.456 0.769-2.106 0.256l-37-28.994c-0.65-0.513-0.769-1.456-0.256-2.106s1.456-0.769 2.106-0.256l3.175 2.487c2.338-1.762 5.244-2.806 8.4-2.806h1.5c5.95 0 11.325 4.331 12.331 10.012 0.144 0.813 0.425 1.606 0.944 2.25l2.625 3.287c0.387 0.488 0.6 1.087 0.6 1.712 0 1.512-1.225 2.738-2.738 2.738h-1.262v0.363zM0 14.012c0-2.419 0.613-4.694 1.694-6.681l19.669 15.5-0.156 0.019c-0.688 0.087-1.2 0.669-1.2 1.363 0 0.725 0.563 1.325 1.288 1.369l3.875 0.244 2.688 2.119c-0.4 1.194-1.531 2.056-2.856 2.056h-5v0.5c0 0.831-0.669 1.5-1.5 1.5h-12.5c-1.106 0-2-0.894-2-2v-4.544c0-1.044-0.431-2.031-1.069-2.863-1.894-2.444-2.931-5.462-2.931-8.581zM38.5 22.5c0.828 0 1.5 0.672 1.5 1.5s-0.672 1.5-1.5 1.5v0c-0.828 0-1.5-0.672-1.5-1.5s0.672-1.5 1.5-1.5v0zM34.5 19.5c0.828 0 1.5 0.672 1.5 1.5s-0.672 1.5-1.5 1.5v0c-0.828 0-1.5-0.672-1.5-1.5s0.672-1.5 1.5-1.5v0zM37 18c0-0.828 0.672-1.5 1.5-1.5s1.5 0.672 1.5 1.5v0c0 0.828-0.672 1.5-1.5 1.5s-1.5-0.672-1.5-1.5v0z"/>
</svg>
