<svg version="1.1" xmlns="http://www.w3.org/2000/svg" width="36" height="32" viewBox="0 0 36 32">
<path fill="currentColor" d="M2 14.012c0-1.387 0.2-2.725 0.575-3.994l13.813 10.044c-0.25 0.594-0.387 1.25-0.387 1.938v10h-8c-1.106 0-2-0.894-2-2v-4.544c0-1.044-0.431-2.031-1.069-2.863-1.894-2.444-2.931-5.462-2.931-8.581zM17.519 18.413l-14.206-10.331c2.231-4.769 7.075-8.081 12.688-8.081h1.5c5.95 0 11.325 4.331 12.331 10.012 0.144 0.813 0.425 1.606 0.944 2.25l2.625 3.287c0.337 0.419 0.538 0.925 0.587 1.45h-12.988c-1.356 0-2.581 0.538-3.481 1.413zM21 19h13l-1.231 4h-9.769c-0.55 0-1 0.45-1 1s0.45 1 1 1h9.156l-0.613 2h-8.544c-0.55 0-1 0.45-1 1s0.45 1 1 1h7.925l-0.056 0.175c-0.519 1.681-2.069 2.825-3.825 2.825h-9.044v-10c0-0.875 0.375-1.669 0.975-2.212 0 0 0 0 0 0 0.531-0.488 1.244-0.788 2.025-0.788zM24 14c1.105 0 2-0.895 2-2s-0.895-2-2-2v0c-1.105 0-2 0.895-2 2s0.895 2 2 2v0z"/>
</svg>
