<svg version="1.1" xmlns="http://www.w3.org/2000/svg" width="32" height="32" viewBox="0 0 32 32">
<path fill="currentColor" d="M16 3c-7.181 0-13 5.819-13 13v2.5c0 0.831-0.669 1.5-1.5 1.5s-1.5-0.669-1.5-1.5v-2.5c0-8.838 7.162-16 16-16s16 7.162 16 16v9.006c0 3.038-2.462 5.5-5.506 5.5l-6.894-0.006c-0.519 0.894-1.488 1.5-2.6 1.5h-2c-1.656 0-3-1.344-3-3s1.344-3 3-3h2c1.113 0 2.081 0.606 2.6 1.5l6.9 0.006c1.381 0 2.5-1.119 2.5-2.5v-9.006c0-7.181-5.819-13-13-13zM9 13h1c1.106 0 2 0.894 2 2v7c0 1.106-0.894 2-2 2h-1c-2.206 0-4-1.794-4-4v-3c0-2.206 1.794-4 4-4zM23 13c2.206 0 4 1.794 4 4v3c0 2.206-1.794 4-4 4h-1c-1.106 0-2-0.894-2-2v-7c0-1.106 0.894-2 2-2h1z"/>
</svg>
