<svg version="1.1" xmlns="http://www.w3.org/2000/svg" width="40" height="32" viewBox="0 0 40 32">
<path fill="currentColor" d="M0 14.012c0-7.725 6.263-14.012 14-14.012h1.5c5.95 0 11.325 4.331 12.331 10.012 0.144 0.813 0.425 1.606 0.944 2.25l2.625 3.287c0.387 0.487 0.6 1.088 0.6 1.713 0 1.512-1.225 2.738-2.738 2.738h-1.262v2l-6.8 0.85c-0.688 0.087-1.2 0.669-1.2 1.363 0 0.725 0.563 1.325 1.288 1.369l6.712 0.419v1c0 1.656-1.344 3-3 3h-5v0.5c0 0.831-0.669 1.5-1.5 1.5h-12.5c-1.106 0-2-0.894-2-2v-4.544c0-1.044-0.431-2.031-1.069-2.863-1.894-2.444-2.931-5.462-2.931-8.581zM22 14c1.105 0 2-0.895 2-2s-0.895-2-2-2v0c-1.105 0-2 0.895-2 2s0.895 2 2 2v0zM29 24c0-0.828 0.672-1.5 1.5-1.5s1.5 0.672 1.5 1.5v0c0 0.828-0.672 1.5-1.5 1.5s-1.5-0.672-1.5-1.5v0zM38.5 22.5c0.828 0 1.5 0.672 1.5 1.5s-0.672 1.5-1.5 1.5v0c-0.828 0-1.5-0.672-1.5-1.5s0.672-1.5 1.5-1.5v0zM37 30c0-0.828 0.672-1.5 1.5-1.5s1.5 0.672 1.5 1.5v0c0 0.828-0.672 1.5-1.5 1.5s-1.5-0.672-1.5-1.5v0zM34.5 19.5c0.828 0 1.5 0.672 1.5 1.5s-0.672 1.5-1.5 1.5v0c-0.828 0-1.5-0.672-1.5-1.5s0.672-1.5 1.5-1.5v0zM37 18c0-0.828 0.672-1.5 1.5-1.5s1.5 0.672 1.5 1.5v0c0 0.828-0.672 1.5-1.5 1.5s-1.5-0.672-1.5-1.5v0zM34.5 25.5c0.828 0 1.5 0.672 1.5 1.5s-0.672 1.5-1.5 1.5v0c-0.828 0-1.5-0.672-1.5-1.5s0.672-1.5 1.5-1.5v0z"/>
</svg>
