<svg version="1.1" xmlns="http://www.w3.org/2000/svg" width="32" height="32" viewBox="0 0 32 32">
<path fill="currentColor" d="M16 5c-7.181 0-13 5.819-13 13v6.5c0 0.831-0.669 1.5-1.5 1.5s-1.5-0.669-1.5-1.5v-6.5c0-8.838 7.162-16 16-16s16 7.162 16 16v6.5c0 0.831-0.669 1.5-1.5 1.5s-1.5-0.669-1.5-1.5v-6.5c0-7.181-5.819-13-13-13zM5 22c0-2.206 1.794-4 4-4h1c1.106 0 2 0.894 2 2v8c0 1.106-0.894 2-2 2h-1c-2.206 0-4-1.794-4-4v-4zM23 18c2.206 0 4 1.794 4 4v4c0 2.206-1.794 4-4 4h-1c-1.106 0-2-0.894-2-2v-8c0-1.106 0.894-2 2-2h1z"/>
</svg>
