<svg version="1.1" xmlns="http://www.w3.org/2000/svg" width="32" height="32" viewBox="0 0 32 32">
<path fill="currentColor" d="M0 14.012c0-7.725 6.263-14.012 14-14.012h1.5c5.95 0 11.325 4.331 12.331 10.012 0.144 0.813 0.425 1.606 0.944 2.25l2.625 3.287c0.387 0.487 0.6 1.088 0.6 1.713 0 1.512-1.225 2.738-2.738 2.738h-1.262v4c0 2.206-1.794 4-4 4h-4v2c0 1.106-0.894 2-2 2h-12c-1.106 0-2-0.894-2-2v-4.544c0-1.044-0.431-2.031-1.069-2.863-1.894-2.444-2.931-5.462-2.931-8.581zM14 4c-0.55 0-1 0.45-1 1 0 2.063-2.494 3.094-3.95 1.638-0.387-0.388-1.025-0.388-1.412 0s-0.388 1.025 0 1.413c1.456 1.456 0.425 3.95-1.638 3.95-0.55 0-1 0.45-1 1s0.45 1 1 1c2.062 0 3.094 2.494 1.638 3.95-0.388 0.387-0.388 1.025 0 1.413s1.025 0.387 1.412 0c1.456-1.456 3.95-0.425 3.95 1.637 0 0.55 0.45 1 1 1s1-0.45 1-1c0-2.063 2.494-3.094 3.95-1.637 0.387 0.387 1.025 0.387 1.413 0s0.387-1.025 0-1.413c-1.456-1.456-0.425-3.95 1.637-3.95 0.55 0 1-0.45 1-1s-0.45-1-1-1c-2.063 0-3.094-2.494-1.637-3.95 0.387-0.388 0.387-1.025 0-1.412s-1.025-0.388-1.413 0c-1.456 1.456-3.95 0.425-3.95-1.638 0-0.55-0.45-1-1-1zM12.5 10c0.828 0 1.5 0.672 1.5 1.5s-0.672 1.5-1.5 1.5v0c-0.828 0-1.5-0.672-1.5-1.5s0.672-1.5 1.5-1.5v0zM15 15c0-0.552 0.448-1 1-1s1 0.448 1 1v0c0 0.552-0.448 1-1 1s-1-0.448-1-1v0z"/>
</svg>
