<svg version="1.1" xmlns="http://www.w3.org/2000/svg" width="32" height="32" viewBox="0 0 32 32">
<path fill="currentColor" d="M7.463 2.756c1.456-0.244 2.925-0.119 4.287 0.331l3.113 4.844-4.713 4.713c-0.094 0.094-0.15 0.225-0.144 0.363s0.063 0.262 0.162 0.356l7 6.5c0.181 0.169 0.462 0.181 0.656 0.019s0.238-0.438 0.106-0.65l-3.775-6.131 5.669-4.725c0.163-0.131 0.219-0.356 0.15-0.55l-1.425-3.962c1.781-1.044 3.9-1.45 5.981-1.1 4.313 0.712 7.469 4.438 7.469 8.806v0.363c0 2.594-1.075 5.075-2.975 6.844l-11.294 10.544c-0.469 0.438-1.087 0.681-1.731 0.681s-1.262-0.244-1.731-0.681l-11.294-10.544c-1.9-1.769-2.975-4.25-2.975-6.844v-0.363c0-4.369 3.156-8.094 7.463-8.813z"/>
</svg>
