<svg version="1.1" xmlns="http://www.w3.org/2000/svg" width="36" height="32" viewBox="0 0 36 32">
<path fill="currentColor" d="M2.975 18.775l11.294 10.544c0.469 0.438 1.088 0.681 1.731 0.681s1.263-0.244 1.731-0.681l0.163-0.15c-1.194-1.756-1.894-3.881-1.894-6.169 0-6.075 4.925-11 11-11 1.769 0 3.438 0.419 4.919 1.156 0.056-0.406 0.081-0.813 0.081-1.225v-0.363c0-4.369-3.156-8.094-7.462-8.813-2.85-0.475-5.75 0.456-7.788 2.494l-0.75 0.75-0.75-0.75c-2.037-2.038-4.938-2.969-7.787-2.494-4.306 0.719-7.463 4.444-7.463 8.813v0.363c0 2.594 1.075 5.075 2.975 6.844zM27 32c4.971 0 9-4.029 9-9s-4.029-9-9-9v0c-4.971 0-9 4.029-9 9s4.029 9 9 9v0zM29.994 17.938c0.269 0.231 0.337 0.619 0.163 0.931l-1.881 3.381h2.225c0.325 0 0.613 0.206 0.712 0.512s-0.006 0.644-0.262 0.837l-6 4.5c-0.281 0.212-0.675 0.2-0.944-0.038s-0.337-0.619-0.163-0.931l1.881-3.381h-2.225c-0.325 0-0.613-0.206-0.712-0.512s0.006-0.644 0.262-0.837l6-4.5c0.281-0.212 0.675-0.2 0.944 0.038z"/>
</svg>
