<svg version="1.1" xmlns="http://www.w3.org/2000/svg" width="36" height="32" viewBox="0 0 36 32">
<path fill="currentColor" d="M2.975 18.775l11.294 10.544c0.469 0.438 1.088 0.681 1.731 0.681s1.263-0.244 1.731-0.681l0.163-0.15c-1.194-1.756-1.894-3.881-1.894-6.169 0-6.075 4.925-11 11-11 1.769 0 3.438 0.419 4.919 1.156 0.056-0.406 0.081-0.813 0.081-1.225v-0.363c0-4.369-3.156-8.094-7.462-8.813-2.85-0.475-5.75 0.456-7.788 2.494l-0.75 0.75-0.75-0.75c-2.037-2.038-4.938-2.969-7.787-2.494-4.306 0.719-7.463 4.444-7.463 8.813v0.363c0 2.594 1.075 5.075 2.975 6.844zM27 32c4.971 0 9-4.029 9-9s-4.029-9-9-9v0c-4.971 0-9 4.029-9 9s4.029 9 9 9v0zM28 19v3h3c0.55 0 1 0.45 1 1s-0.45 1-1 1h-3v3c0 0.55-0.45 1-1 1s-1-0.45-1-1v-3h-3c-0.55 0-1-0.45-1-1s0.45-1 1-1h3v-3c0-0.55 0.45-1 1-1s1 0.45 1 1z"/>
</svg>
