<svg version="1.1" xmlns="http://www.w3.org/2000/svg" width="32" height="32" viewBox="0 0 32 32">
<path fill="currentColor" d="M14.269 29.319l-11.294-10.544c-0.263-0.244-0.513-0.506-0.744-0.775h5.438c1.412 0 2.688-0.85 3.231-2.156l0.656-1.575 3.081 6.844c0.238 0.531 0.756 0.875 1.338 0.881s1.112-0.313 1.375-0.831l2.65-5.306 0.106 0.213c0.594 1.188 1.806 1.938 3.131 1.938h6.531c-0.231 0.269-0.481 0.531-0.744 0.775l-11.294 10.537c-0.469 0.438-1.087 0.681-1.731 0.681s-1.262-0.244-1.731-0.681zM31.481 15h-8.25c-0.188 0-0.363-0.106-0.45-0.275l-1.45-2.894c-0.256-0.506-0.775-0.831-1.344-0.831s-1.087 0.319-1.344 0.831l-2.587 5.175-3.188-7.119c-0.244-0.544-0.794-0.894-1.387-0.881s-1.131 0.369-1.363 0.925l-1.988 4.769c-0.075 0.188-0.263 0.306-0.463 0.306h-6.669c-0.162 0-0.313 0.025-0.456 0.069-0.356-1-0.544-2.063-0.544-3.144v-0.363c0-4.369 3.156-8.094 7.463-8.813 2.85-0.475 5.75 0.456 7.787 2.494l0.75 0.75 0.75-0.75c2.038-2.038 4.938-2.969 7.788-2.494 4.306 0.719 7.462 4.444 7.462 8.813v0.363c0 1.056-0.175 2.094-0.519 3.069z"/>
</svg>
