<svg version="1.1" xmlns="http://www.w3.org/2000/svg" width="40" height="32" viewBox="0 0 40 32">
<path fill="currentColor" d="M8 2c0-1.106 0.894-2 2-2h24c1.106 0 2 0.894 2 2s-0.894 2-2 2h-10v4h2c5.525 0 10 4.475 10 10v4c0 1.106-0.894 2-2 2h-14c-1.256 0-2.444-0.594-3.2-1.6l-4.463-5.95c-0.219-0.294-0.519-0.519-0.856-0.656l-8.531-3.412c-0.594-0.238-1.044-0.75-1.2-1.375l-1.438-5.763c-0.163-0.631 0.319-1.244 0.969-1.244h1.719c0.631 0 1.225 0.294 1.6 0.8l2.4 3.2h13v-4h-10c-1.106 0-2-0.894-2-2zM24 20h8v-2c0-3.313-2.688-6-6-6h-2v8zM39.413 26.587c0.781 0.781 0.781 2.050 0 2.831l-0.244 0.244c-1.5 1.5-3.538 2.344-5.656 2.344h-17.512c-1.106 0-2-0.894-2-2s0.894-2 2-2h17.512c1.063 0 2.081-0.419 2.831-1.169l0.244-0.244c0.781-0.781 2.050-0.781 2.831 0z"/>
</svg>
