<svg version="1.1" xmlns="http://www.w3.org/2000/svg" width="32" height="32" viewBox="0 0 32 32">
<path fill="currentColor" d="M27.831 14h4.044c-0.9-7.237-6.637-12.975-13.875-13.875v4.044c5.025 0.838 8.994 4.806 9.831 9.831zM31.875 18h-4.044c-0.837 5.025-4.806 8.994-9.831 9.837v4.038c7.238-0.9 12.975-6.637 13.875-13.875zM0.125 18c0.9 7.238 6.638 12.975 13.875 13.875v-4.038c-5.025-0.844-8.994-4.813-9.831-9.837h-4.044zM0.125 14h4.044c0.838-5.025 4.806-8.994 9.831-9.831v-4.044c-7.237 0.9-12.975 6.638-13.875 13.875zM13 10c0-1.106-0.894-2-2-2s-2 0.894-2 2v12c0 1.106 0.894 2 2 2s2-0.894 2-2v-4h6v4c0 1.106 0.894 2 2 2s2-0.894 2-2v-12c0-1.106-0.894-2-2-2s-2 0.894-2 2v4h-6v-4z"/>
</svg>
