<svg version="1.1" xmlns="http://www.w3.org/2000/svg" width="36" height="32" viewBox="0 0 36 32">
<path fill="currentColor" d="M16 2c-1.106 0-2 0.894-2 2v6.369c0 0.35-0.281 0.631-0.631 0.631-0.225 0-0.438-0.119-0.55-0.319l-3-5.244c-4.631 2.281-7.819 7.050-7.819 12.563v4h32v-4.15c-0.056-5.45-3.231-10.15-7.819-12.412l-3 5.244c-0.113 0.2-0.325 0.319-0.55 0.319-0.35 0-0.631-0.281-0.631-0.631v-6.369c0-1.106-0.894-2-2-2h-4zM1.038 24c-0.575 0-1.038 0.462-1.038 1.038 0 0.294 0.125 0.575 0.362 0.744 1.356 0.994 6.625 4.219 17.637 4.219s16.281-3.225 17.638-4.219c0.237-0.175 0.362-0.45 0.362-0.744 0-0.575-0.462-1.038-1.038-1.038h-33.925z"/>
</svg>
