<svg version="1.1" xmlns="http://www.w3.org/2000/svg" width="32" height="32" viewBox="0 0 32 32">
<path fill="currentColor" d="M29.969 14c-0.519-7.819-7.019-14-14.969-14-8.281 0-15 6.719-15 15v3.519c0 3.031 2.45 5.481 5.481 5.481h7.95l8.037 7.587c0.281 0.262 0.65 0.413 1.031 0.413h6c0.831 0 1.5-0.669 1.5-1.5s-0.669-1.5-1.5-1.5h-5.406l-0.094-0.094v-10.906h7c1.106 0 2-0.894 2-2s-0.894-2-2-2h-0.031zM20 26.075l-4.875-4.606 2.025-3.469h2.85v8.075zM17.831 6.444l2.169 3.25v-2.694c0-0.55 0.45-1 1-1s1 0.45 1 1v6c0 0.444-0.288 0.831-0.712 0.956s-0.875-0.037-1.119-0.4l-2.169-3.25v2.694c0 0.55-0.45 1-1 1s-1-0.45-1-1v-6c0-0.444 0.288-0.831 0.712-0.956s0.875 0.037 1.119 0.4zM10 7v4c0 0.55 0.45 1 1 1s1-0.45 1-1v-4c0-0.55 0.45-1 1-1s1 0.45 1 1v4c0 1.656-1.344 3-3 3s-3-1.344-3-3v-4c0-0.55 0.45-1 1-1s1 0.45 1 1z"/>
</svg>
