<svg version="1.1" xmlns="http://www.w3.org/2000/svg" width="36" height="32" viewBox="0 0 36 32">
<path fill="currentColor" d="M19.688 19.688l9.9-13.438-1.831-1.838-13.444 9.9 5.375 5.375zM8 20v0-4.481c0-0.956 0.45-1.85 1.219-2.412l17.069-12.581c0.462-0.344 1.025-0.525 1.6-0.525 0.712 0 1.4 0.281 1.906 0.787l3.425 3.425c0.506 0.506 0.788 1.188 0.788 1.906 0 0.575-0.181 1.138-0.525 1.6l-12.581 17.063c-0.563 0.769-1.462 1.219-2.413 1.219h-4.488l-1.588 1.587c-0.781 0.781-2.050 0.781-2.831 0l-3.169-3.169c-0.781-0.781-0.781-2.050 0-2.831l1.587-1.587zM0.438 29.144l3.938-3.938 4.412 4.412-1.938 1.938c-0.281 0.281-0.662 0.438-1.063 0.438h-4.287c-0.831 0-1.5-0.669-1.5-1.5v-0.294c0-0.4 0.156-0.781 0.438-1.063z"/>
</svg>
