<svg version="1.1" xmlns="http://www.w3.org/2000/svg" width="36" height="32" viewBox="0 0 36 32">
<path fill="currentColor" d="M27.481 25.119c2.137 1.444 5.069 1.219 6.963-0.675 2.15-2.15 2.15-5.631 0-7.775-1.737-1.738-4.344-2.069-6.413-1-0.738 0.381-1.025 1.288-0.644 2.019s1.288 1.025 2.019 0.644c0.944-0.488 2.125-0.331 2.913 0.456 0.975 0.975 0.975 2.556 0 3.538s-2.556 0.975-3.538 0l-5.106-5.106c1.4-0.887 2.325-2.444 2.325-4.219 0-2.119-1.319-3.931-3.181-4.656 0.119-0.425 0.181-0.875 0.181-1.344 0-2.763-2.238-5-5-5-1.706 0-3.219 0.856-4.119 2.162-0.363-1.25-1.512-2.163-2.881-2.163-1.656 0-3 1.344-3 3 0 0.25 0.031 0.494 0.088 0.725l19.394 19.394zM30 4c0-1.105-0.895-2-2-2s-2 0.895-2 2v0c0 1.105 0.895 2 2 2s2-0.895 2-2v0zM30 12c1.105 0 2-0.895 2-2s-0.895-2-2-2v0c-1.105 0-2 0.895-2 2s0.895 2 2 2v0zM4.269 5.438c-1.575-1.575-4.269-0.456-4.269 1.769v19.794c0 2.762 2.237 5 5 5h19.794c2.225 0 3.344-2.694 1.769-4.269l-22.294-22.294z"/>
</svg>
