<svg version="1.1" xmlns="http://www.w3.org/2000/svg" width="36" height="32" viewBox="0 0 36 32">
<path fill="currentColor" d="M15.775 6.487l1.687 3c0.175 0.313 0.512 0.512 0.869 0.512h3.331c0.363 0 0.694-0.194 0.869-0.512l1.688-3c0.169-0.306 0.169-0.675 0-0.981l-1.688-3c-0.175-0.313-0.512-0.512-0.869-0.512h-3.325c-0.363 0-0.694 0.194-0.869 0.512l-1.688 3c-0.169 0.306-0.169 0.675 0 0.981zM4.269 5.438c-1.575-1.575-4.269-0.456-4.269 1.769v19.794c0 2.762 2.237 5 5 5h19.794c2.225 0 3.344-2.694 1.769-4.269l-22.294-22.294zM31.512 25.225c0.306 0.169 0.675 0.169 0.981 0l3-1.688c0.313-0.175 0.513-0.512 0.513-0.869v-3.331c0-0.363-0.194-0.694-0.513-0.869l-3-1.688c-0.306-0.169-0.675-0.169-0.981 0l-3 1.688c-0.313 0.175-0.512 0.512-0.512 0.869v3.331c0 0.363 0.194 0.694 0.512 0.869l3 1.688zM12 4c0-1.105-0.895-2-2-2s-2 0.895-2 2v0c0 1.105 0.895 2 2 2s2-0.895 2-2v0zM24 18c1.105 0 2-0.895 2-2s-0.895-2-2-2v0c-1.105 0-2 0.895-2 2s0.895 2 2 2v0z"/>
</svg>
