<svg version="1.1" xmlns="http://www.w3.org/2000/svg" width="40" height="32" viewBox="0 0 40 32">
<path fill="currentColor" d="M25.438 2.938c0.587-0.587 1.538-0.587 2.119 0l1.075 1.075c0.119-0.006 0.244-0.013 0.363-0.013h2c0.7 0 1.369 0.144 1.975 0.406l0.969-0.969c0.587-0.587 1.538-0.587 2.119 0s0.587 1.537 0 2.119l-0.806 0.813c0.475 0.763 0.75 1.669 0.75 2.631 0 0.637 0.462 1.175 1.044 1.438 1.744 0.781 2.956 2.531 2.956 4.563 0 1.637-0.788 3.087-2 4v2c0 0.55-0.45 1-1 1h-2c-0.55 0-1-0.45-1-1v-1h-4v1c0 0.55-0.45 1-1 1h-2c-0.55 0-1-0.45-1-1v-1.1c-0.738-0.15-1.419-0.462-2-0.9-0.094-0.069-0.181-0.144-0.269-0.219-1.063-0.919-1.731-2.275-1.731-3.781 0-0.55-0.45-1-1-1s-1 0.45-1 1c0 2.794 1.637 5.2 4 6.325v0.675c0 1.106 0.894 2 2 2h2v4c0 1.106-0.894 2-2 2h-4c-1.106 0-2-0.894-2-2v-4.75c-1.238 0.481-2.587 0.75-4 0.75s-2.762-0.269-4-0.75v4.75c0 1.106-0.894 2-2 2h-4c-1.106 0-2-0.894-2-2v-7.431l-1.131 2.538c-0.337 0.756-1.225 1.1-1.981 0.762s-1.094-1.219-0.756-1.975l1.369-3.087c0.331-0.744 0.5-1.544 0.5-2.356 0-6.719 5.325-12.2 11.988-12.444l0.012-0.006h4c2.606 0 5.212 0.756 7.325 1.606 0.106-0.112 0.219-0.225 0.331-0.325l-0.219-0.219c-0.587-0.588-0.587-1.538 0-2.119zM30 14.5c0-0.828-0.672-1.5-1.5-1.5s-1.5 0.672-1.5 1.5v0c0 0.828 0.672 1.5 1.5 1.5s1.5-0.672 1.5-1.5v0zM35.5 16c0.828 0 1.5-0.672 1.5-1.5s-0.672-1.5-1.5-1.5v0c-0.828 0-1.5 0.672-1.5 1.5s0.672 1.5 1.5 1.5v0zM30 9c0-0.552-0.448-1-1-1s-1 0.448-1 1v0c0 0.552 0.448 1 1 1s1-0.448 1-1v0zM33 10c0.552 0 1-0.448 1-1s-0.448-1-1-1v0c-0.552 0-1 0.448-1 1s0.448 1 1 1v0z"/>
</svg>
