<svg version="1.1" xmlns="http://www.w3.org/2000/svg" width="32" height="32" viewBox="0 0 32 32">
<path fill="currentColor" d="M16 6c1.657 0 3-1.343 3-3s-1.343-3-3-3v0c-1.657 0-3 1.343-3 3s1.343 3 3 3v0zM11 12c1.657 0 3-1.343 3-3s-1.343-3-3-3v0c-1.657 0-3 1.343-3 3s1.343 3 3 3v0zM17.3 23.988c0.063 0.006 0.131 0.012 0.2 0.012 2.488 0 4.5 2.012 4.5 4.5v1.419c0 1.025 1 1.744 1.975 1.425l0.8-0.269c1.125-0.375 2.331-0.406 3.475-0.094l1.212 0.331c1.119 0.306 2.15-0.725 1.844-1.844l-0.331-1.219c-0.313-1.144-0.275-2.35 0.094-3.475l0.269-0.8c0.325-0.969-0.4-1.975-1.425-1.975-2.163 0-3.919-1.756-3.919-3.919v-2c0-1.025-1-1.744-1.975-1.425l-0.8 0.269c-1.125 0.375-2.331 0.406-3.475 0.094l-1.85-0.506c-0.181-0.050-0.369-0.063-0.544-0.044 0.262 0.606 0.363 1.3 0.231 2.019l-0.394 2.181c-0.094 0.525-0.087 1.063 0.031 1.581l0.331 1.494c0.175 0.794 0.069 1.575-0.25 2.244zM7.975 14.656c-0.969-0.325-1.975 0.4-1.975 1.425v2c0 2.163-1.756 3.919-3.919 3.919-1.025 0-1.744 1-1.425 1.975l0.269 0.8c0.375 1.125 0.406 2.331 0.094 3.475l-0.331 1.212c-0.3 1.125 0.725 2.15 1.844 1.85l1.219-0.337c1.144-0.313 2.35-0.281 3.475 0.094l0.8 0.269c0.969 0.325 1.975-0.4 1.975-1.425v-2c0-2.163 1.756-3.919 3.919-3.919 1.025 0 1.744-1 1.425-1.975l-0.269-0.8c-0.375-1.125-0.406-2.331-0.094-3.475l0.331-1.212c0.306-1.119-0.725-2.15-1.844-1.844l-1.219 0.338c-1.144 0.313-2.35 0.275-3.475-0.094l-0.8-0.269zM24 9c0-1.657-1.343-3-3-3s-3 1.343-3 3v0c0 1.657 1.343 3 3 3s3-1.343 3-3v0z"/>
</svg>
