<svg version="1.1" xmlns="http://www.w3.org/2000/svg" width="40" height="32" viewBox="0 0 40 32">
<path fill="currentColor" d="M4 29v-9.194c0-6.775 4.269-12.819 10.656-15.081l10.606-3.756c1.337-0.475 2.738 0.519 2.738 1.931 0 0.688-0.344 1.325-0.913 1.706l-2.087 1.394c3.006 0 5.7 1.862 6.756 4.681l3.038 8.094c0.737 1.962 0.256 4.175-1.225 5.656-1 1-2.363 1.569-3.781 1.569h-0.212c-1.631 0-3.181-0.725-4.225-1.981l-2.019-2.419c-0.731 0.256-1.512 0.4-2.331 0.4h-0.006c-0.394 0-0.781-0.031-1.163-0.094-0.225-0.038-0.45-0.087-0.669-0.144v0c-1.806-0.488-3.319-1.675-4.238-3.262-0.275-0.475-0.887-0.644-1.369-0.363s-0.644 0.887-0.363 1.369c1.5 2.594 4.269 4.375 7.456 4.494l2.95 4.425c0.25 0.381 0.387 0.825 0.387 1.275 0 1.269-1.031 2.3-2.3 2.3h-14.688c-1.656 0-3-1.344-3-3zM24.5 14c0.828 0 1.5-0.672 1.5-1.5s-0.672-1.5-1.5-1.5v0c-0.828 0-1.5 0.672-1.5 1.5s0.672 1.5 1.5 1.5v0z"/>
</svg>
