<svg version="1.1" xmlns="http://www.w3.org/2000/svg" width="36" height="32" viewBox="0 0 36 32">
<path fill="currentColor" d="M28 14.881v-4.881h1l0.613 1.225c0.781 1.569 2.637 2.275 4.269 1.625 1.281-0.512 2.119-1.75 2.119-3.131v-4.719c0-1.194-0.525-2.269-1.356-3h0.356c0.55 0 1-0.45 1-1s-0.45-1-1-1h-7c-4.419 0-8 3.581-8 8h-10.7c-1.919 0-3.6 1.019-4.531 2.55-2.694 0.356-4.769 2.662-4.769 5.45v3.5c0 0.831 0.669 1.5 1.5 1.5s1.5-0.669 1.5-1.5v-3.5c0-0.838 0.413-1.575 1.044-2.031 0.1 0.813 0.394 1.588 0.85 2.275l1.763 2.65c0.519 0.775 0.4 1.794-0.075 2.6-1.031 1.75-1.287 3.887-0.625 5.869l1.094 3.275c0.275 0.819 1.037 1.369 1.9 1.369h2.106c1.363 0 2.331-1.337 1.9-2.631l-1.3-3.906c-0.131-0.4-0.031-0.837 0.269-1.137l0.794-0.794c0.825-0.825 1.287-1.944 1.287-3.106 0-0.144-0.006-0.288-0.019-0.431l5.25 1.5c0.256 0.075 0.512 0.131 0.769 0.175v8.325c0 1.106 0.894 2 2 2h2c1.106 0 2-0.894 2-2v-10.269c1.2-1.2 1.969-2.856 2-4.731v0-0.119zM31 4c0.552 0 1 0.448 1 1s-0.448 1-1 1v0c-0.552 0-1-0.448-1-1s0.448-1 1-1v0z"/>
</svg>
