<svg version="1.1" xmlns="http://www.w3.org/2000/svg" width="40" height="32" viewBox="0 0 40 32">
<path fill="currentColor" d="M12 3c0-1.656 1.344-3 3-3h10c1.656 0 3 1.344 3 3v29h-5v-5c0-1.656-1.344-3-3-3s-3 1.344-3 3v5h-5v-29zM3 6h7v26h-7c-1.656 0-3-1.344-3-3v-9h5c0.55 0 1-0.45 1-1s-0.45-1-1-1h-5v-4h5c0.55 0 1-0.45 1-1s-0.45-1-1-1h-5v-3c0-1.656 1.344-3 3-3zM37 6c1.656 0 3 1.344 3 3v3h-5c-0.55 0-1 0.45-1 1s0.45 1 1 1h5v4h-5c-0.55 0-1 0.45-1 1s0.45 1 1 1h5v9c0 1.656-1.344 3-3 3h-7v-26h7zM19.5 4c-0.55 0-1 0.45-1 1v1.5h-1.5c-0.55 0-1 0.45-1 1v1c0 0.55 0.45 1 1 1h1.5v1.5c0 0.55 0.45 1 1 1h1c0.55 0 1-0.45 1-1v-1.5h1.5c0.55 0 1-0.45 1-1v-1c0-0.55-0.45-1-1-1h-1.5v-1.5c0-0.55-0.45-1-1-1h-1z"/>
</svg>
