<svg version="1.1" xmlns="http://www.w3.org/2000/svg" width="36" height="32" viewBox="0 0 36 32">
<path fill="currentColor" d="M3 0c-1.656 0-3 1.344-3 3v13h9c0.55 0 1 0.45 1 1s-0.45 1-1 1h-9v4h9c0.55 0 1 0.45 1 1s-0.45 1-1 1h-9v5c0 1.656 1.344 3 3 3h13.619c-0.394-0.637-0.619-1.387-0.619-2.194 0-2.931 1.612-5.488 4-6.825v-19.981c0-1.656-1.344-3-3-3h-14zM9.5 4h1c0.55 0 1 0.45 1 1v1.5h1.5c0.55 0 1 0.45 1 1v1c0 0.55-0.45 1-1 1h-1.5v1.5c0 0.55-0.45 1-1 1h-1c-0.55 0-1-0.45-1-1v-1.5h-1.5c-0.55 0-1-0.45-1-1v-1c0-0.55 0.45-1 1-1h1.5v-1.5c0-0.55 0.45-1 1-1zM32 17c0-2.761-2.239-5-5-5s-5 2.239-5 5v0c0 2.761 2.239 5 5 5s5-2.239 5-5v0zM18 29.819c0 1.206 0.975 2.181 2.181 2.181h13.637c1.206 0 2.181-0.975 2.181-2.181 0-3.212-2.606-5.819-5.819-5.819h-6.363c-3.212 0-5.819 2.606-5.819 5.819z"/>
</svg>
