<svg version="1.1" xmlns="http://www.w3.org/2000/svg" width="32" height="32" viewBox="0 0 32 32">
<path fill="currentColor" d="M17 1.5c0-0.831-0.669-1.5-1.5-1.5s-1.5 0.669-1.5 1.5v0.325c0 2.125 0.9 4.15 2.481 5.575l1.025 0.925c0.95 0.856 1.488 2.069 1.488 3.344v0.831c0 0.831 0.669 1.5 1.5 1.5s1.5-0.669 1.5-1.5v-0.825c0-2.125-0.9-4.15-2.481-5.575l-1.025-0.925c-0.944-0.856-1.488-2.069-1.488-3.35v-0.325zM0 20v8c0 2.206 1.794 4 4 4h24c2.206 0 4-1.794 4-4v-8c0-2.206-1.794-4-4-4h-10.669c-0.863 0-1.706-0.281-2.4-0.8l-5.331-4c-1.037-0.781-2.3-1.2-3.6-1.2-3.313 0-6 2.688-6 6v4zM8 21v6c0 0.55-0.45 1-1 1s-1-0.45-1-1v-6c0-0.55 0.45-1 1-1s1 0.45 1 1zM13 20c0.55 0 1 0.45 1 1v6c0 0.55-0.45 1-1 1s-1-0.45-1-1v-6c0-0.55 0.45-1 1-1zM20 21v6c0 0.55-0.45 1-1 1s-1-0.45-1-1v-6c0-0.55 0.45-1 1-1s1 0.45 1 1zM25 20c0.55 0 1 0.45 1 1v6c0 0.55-0.45 1-1 1s-1-0.45-1-1v-6c0-0.55 0.45-1 1-1zM22.5 0c-0.831 0-1.5 0.669-1.5 1.5v0.325c0 2.125 0.9 4.15 2.481 5.575l1.025 0.925c0.95 0.856 1.488 2.069 1.488 3.344v0.831c0 0.831 0.669 1.5 1.5 1.5s1.5-0.669 1.5-1.5v-0.825c0-2.125-0.9-4.15-2.481-5.575l-1.025-0.925c-0.944-0.856-1.488-2.069-1.488-3.35v-0.325c0-0.831-0.669-1.5-1.5-1.5zM4 8c2.209 0 4-1.791 4-4s-1.791-4-4-4v0c-2.209 0-4 1.791-4 4s1.791 4 4 4v0z"/>
</svg>
