<svg version="1.1" xmlns="http://www.w3.org/2000/svg" width="32" height="32" viewBox="0 0 32 32">
<path fill="currentColor" d="M30.538 1.462c1.95 1.95 1.95 5.119 0 7.069l-22 22c-1.95 1.95-5.119 1.95-7.069 0s-1.95-5.119 0-7.069l22-22c1.95-1.95 5.119-1.95 7.069 0zM27.706 5.794c-0.387-0.388-1.025-0.388-1.413 0-0.781 0.781-1.488 0.944-2.344 1.1l-0.156 0.025c-0.863 0.156-1.975 0.35-3 1.375-1.044 1.044-1.306 2.25-1.506 3.181v0 0l-0.012 0.063c-0.212 0.975-0.375 1.65-0.981 2.256s-1.281 0.769-2.256 0.981l-0.063 0.012c-0.931 0.2-2.137 0.463-3.181 1.506s-1.306 2.25-1.506 3.181l-0.012 0.063c-0.213 0.975-0.375 1.65-0.981 2.256-0.575 0.575-1.125 0.675-2.044 0.837v0l-0.056 0.012c-0.975 0.175-2.181 0.431-3.4 1.65-0.388 0.387-0.388 1.025 0 1.413s1.025 0.387 1.412 0c0.781-0.781 1.487-0.944 2.344-1.1l0.156-0.025c0.863-0.156 1.975-0.35 3-1.375 1.044-1.044 1.306-2.25 1.506-3.181l0.012-0.063c0.213-0.975 0.375-1.65 0.981-2.256s1.281-0.769 2.256-0.981l0.063-0.012c0.931-0.2 2.137-0.462 3.181-1.506s1.306-2.25 1.506-3.181l0.012-0.063c0.212-0.975 0.375-1.65 0.981-2.256 0.575-0.575 1.125-0.675 2.044-0.838l0.056-0.012c0.975-0.175 2.181-0.431 3.4-1.65 0.387-0.388 0.387-1.025 0-1.412zM11.95 29.95l18-18 0.988 0.988c0.681 0.681 1.063 1.6 1.063 2.563s-0.381 1.881-1.063 2.563l-12.875 12.875c-0.681 0.681-1.6 1.063-2.563 1.063s-1.881-0.381-2.563-1.063l-0.988-0.988zM1.063 19.063c-0.681-0.681-1.063-1.6-1.063-2.563s0.381-1.881 1.063-2.563l12.875-12.875c0.681-0.681 1.6-1.063 2.563-1.063s1.881 0.381 2.563 1.063l0.988 0.987-18 18-0.988-0.988z"/>
</svg>
