<svg version="1.1" xmlns="http://www.w3.org/2000/svg" width="32" height="32" viewBox="0 0 32 32">
<path fill="currentColor" d="M0 2c0-1.106 0.894-2 2-2h28c1.106 0 2 0.894 2 2s-0.894 2-2 2v24c1.106 0 2 0.894 2 2s-0.894 2-2 2h-11v-3c0-1.656-1.344-3-3-3s-3 1.344-3 3v3h-11c-1.106 0-2-0.894-2-2s0.894-2 2-2v-24c-1.106 0-2-0.894-2-2zM6 7v2c0 0.55 0.45 1 1 1h2c0.55 0 1-0.45 1-1v-2c0-0.55-0.45-1-1-1h-2c-0.55 0-1 0.45-1 1zM15 6c-0.55 0-1 0.45-1 1v2c0 0.55 0.45 1 1 1h2c0.55 0 1-0.45 1-1v-2c0-0.55-0.45-1-1-1h-2zM22 7v2c0 0.55 0.45 1 1 1h2c0.55 0 1-0.45 1-1v-2c0-0.55-0.45-1-1-1h-2c-0.55 0-1 0.45-1 1zM7 12c-0.55 0-1 0.45-1 1v2c0 0.55 0.45 1 1 1h2c0.55 0 1-0.45 1-1v-2c0-0.55-0.45-1-1-1h-2zM14 13v2c0 0.55 0.45 1 1 1h2c0.55 0 1-0.45 1-1v-2c0-0.55-0.45-1-1-1h-2c-0.55 0-1 0.45-1 1zM23 12c-0.55 0-1 0.45-1 1v2c0 0.55 0.45 1 1 1h2c0.55 0 1-0.45 1-1v-2c0-0.55-0.45-1-1-1h-2zM20.5 24c0.831 0 1.519-0.681 1.313-1.488-0.663-2.594-3.012-4.512-5.813-4.512s-5.156 1.919-5.813 4.512c-0.206 0.8 0.488 1.488 1.313 1.488h9z"/>
</svg>
