<svg version="1.1" xmlns="http://www.w3.org/2000/svg" width="24" height="32" viewBox="0 0 24 32">
<path fill="currentColor" d="M0 2c0-1.106 0.894-2 2-2h20c1.106 0 2 0.894 2 2s-0.894 2-2 2v0.688c0 2.65-1.056 5.194-2.931 7.069l-4.238 4.244 4.244 4.244c1.875 1.875 2.931 4.419 2.931 7.069v0.688c1.106 0 2 0.894 2 2s-0.894 2-2 2h-20.006c-1.106 0-2-0.894-2-2s0.894-2 2-2v-0.688c0-2.65 1.056-5.194 2.931-7.069l4.237-4.244-4.237-4.244c-1.875-1.875-2.931-4.419-2.931-7.069v-0.688c-1.106 0-2-0.894-2-2zM6 4v0.688c0 1.594 0.631 3.119 1.756 4.244l4.244 4.237 4.244-4.244c1.125-1.125 1.756-2.65 1.756-4.244v-0.681h-12zM6 28h12v-0.688c0-1.594-0.631-3.119-1.756-4.244l-4.244-4.238-4.244 4.244c-1.125 1.125-1.756 2.65-1.756 4.244v0.688z"/>
</svg>
