<svg version="1.1" xmlns="http://www.w3.org/2000/svg" width="24" height="32" viewBox="0 0 24 32">
<path fill="currentColor" d="M2 0c-1.106 0-2 0.894-2 2s0.894 2 2 2v0.688c0 2.65 1.056 5.194 2.931 7.069l4.237 4.244-4.237 4.244c-1.875 1.875-2.931 4.419-2.931 7.069v0.688c-1.106 0-2 0.894-2 2s0.894 2 2 2h20c1.106 0 2-0.894 2-2s-0.894-2-2-2v-0.688c0-2.65-1.056-5.194-2.931-7.069l-4.238-4.244 4.244-4.244c1.875-1.875 2.931-4.419 2.931-7.069v-0.688c1.106 0 2-0.894 2-2s-0.894-2-2-2h-20.006zM6 4.688v-0.688h12v0.688c0 1.188-0.35 2.338-1 3.313h-10c-0.644-0.975-1-2.125-1-3.313zM7 24c0.219-0.331 0.475-0.644 0.756-0.931l4.244-4.238 4.244 4.244c0.288 0.288 0.538 0.6 0.756 0.931h-10z"/>
</svg>
