<svg version="1.1" xmlns="http://www.w3.org/2000/svg" width="40" height="32" viewBox="0 0 40 32">
<path fill="currentColor" d="M24 30c0 0.731 0.194 1.413 0.538 2h-0.038c-1.381 0-2.5-1.119-2.5-2.5v-5.5c0-1.106-0.894-2-2-2h-4c-1.106 0-2 0.894-2 2v5.5c0 1.381-1.119 2.5-2.5 2.5h-3.494c-0.094 0-0.188-0.006-0.281-0.012-0.075 0.006-0.15 0.012-0.225 0.012h-1c-1.381 0-2.5-1.119-2.5-2.5v-7c0-0.056 0-0.119 0.006-0.175v-4.35h-2.006c-1.125 0-2-0.875-2-2.006 0-0.563 0.188-1.063 0.625-1.5l16.025-13.969c0.438-0.438 0.938-0.5 1.375-0.5s0.938 0.125 1.313 0.438l11.331 9.956c-2.719 0.963-4.669 3.556-4.669 6.606v1.538c-1.194 0.694-2 1.981-2 3.462v8zM33 15c-1.106 0-2 0.894-2 2v3h4v-3c0-1.106-0.894-2-2-2zM28 17c0-2.762 2.238-5 5-5s5 2.238 5 5v3c1.106 0 2 0.894 2 2v8c0 1.106-0.894 2-2 2h-10c-1.106 0-2-0.894-2-2v-8c0-1.106 0.894-2 2-2v-3z"/>
</svg>
