<svg version="1.1" xmlns="http://www.w3.org/2000/svg" width="40" height="32" viewBox="0 0 40 32">
<path fill="currentColor" d="M30 0c1.106 0 2 0.894 2 2h7c0.55 0 1 0.45 1 1v8c0 0.55-0.45 1-1 1h-7v20h-4v-30c0-1.106 0.894-2 2-2zM17.3 2.481l8.7 7.456v22.063h-20c-1.106 0-2-0.894-2-2v-12h-2c-0.837 0-1.587-0.519-1.875-1.306s-0.063-1.669 0.575-2.213l14-12c0.75-0.644 1.856-0.644 2.606 0zM14 13v3h-3c-0.55 0-1 0.45-1 1v2c0 0.55 0.45 1 1 1h3v3c0 0.55 0.45 1 1 1h2c0.55 0 1-0.45 1-1v-3h3c0.55 0 1-0.45 1-1v-2c0-0.55-0.45-1-1-1h-3v-3c0-0.55-0.45-1-1-1h-2c-0.55 0-1 0.45-1 1z"/>
</svg>
