<svg version="1.1" xmlns="http://www.w3.org/2000/svg" width="36" height="32" viewBox="0 0 36 32">
<path fill="currentColor" d="M33.987 17.975c1.063 0 2-0.875 2-2.006 0.063-0.563-0.188-1.063-0.688-1.5l-15.956-14.031c-0.375-0.313-0.875-0.438-1.313-0.438s-0.938 0.063-1.375 0.5l-16.031 13.969c-0.438 0.438-0.625 0.938-0.625 1.5 0 1.125 0.875 2.006 2 2.006h2v10.025c0 2.206 1.794 4 4 4h20.031c2.219 0 4.012-1.8 4-4.019l-0.044-10.012h2zM16 13c0-0.55 0.45-1 1-1h2c0.55 0 1 0.45 1 1v3h3c0.55 0 1 0.45 1 1v2c0 0.55-0.45 1-1 1h-3v3c0 0.55-0.45 1-1 1h-2c-0.55 0-1-0.45-1-1v-3h-3c-0.55 0-1-0.45-1-1v-2c0-0.55 0.45-1 1-1h3v-3z"/>
</svg>
