<svg version="1.1" xmlns="http://www.w3.org/2000/svg" width="40" height="32" viewBox="0 0 40 32">
<path fill="currentColor" d="M20.044 22c0.506-5.606 5.219-10 10.956-10 0.556 0 1.1 0.044 1.631 0.119l-13.288-11.681c-0.375-0.313-0.875-0.438-1.313-0.438s-0.938 0.063-1.375 0.5l-16.031 13.969c-0.438 0.438-0.625 0.938-0.625 1.5 0 1.125 0.875 2.006 2 2.006h2v4.356c-0.006 0.056-0.006 0.113-0.006 0.175v6.994c0 1.381 1.119 2.5 2.5 2.5h1c0.075 0 0.15-0.006 0.225-0.012 0.094 0.006 0.188 0.012 0.281 0.012h3.5c1.381 0 2.5-1.119 2.5-2.5v-5.5c0-1.106 0.894-2 2-2h4.044zM31 32c4.971 0 9-4.029 9-9s-4.029-9-9-9v0c-4.971 0-9 4.029-9 9s4.029 9 9 9v0zM31 26c0.828 0 1.5 0.672 1.5 1.5s-0.672 1.5-1.5 1.5v0c-0.828 0-1.5-0.672-1.5-1.5s0.672-1.5 1.5-1.5v0zM31 17c0.55 0 1 0.45 1 1v5c0 0.55-0.45 1-1 1s-1-0.45-1-1v-5c0-0.55 0.45-1 1-1z"/>
</svg>
