<svg version="1.1" xmlns="http://www.w3.org/2000/svg" width="36" height="32" viewBox="0 0 36 32">
<path fill="currentColor" d="M35.987 15.969c0 1.125-0.938 2.006-2 2.006h-2l0.044 10.012c0.013 2.219-1.781 4.019-4 4.019h-7.631l-2.4-4.006 5.050-4.206c0.488-0.406 0.475-1.163-0.025-1.556l-7.363-5.787c-0.912-0.719-2.113 0.438-1.425 1.375l3.762 5.175-5.344 4.45c-0.381 0.313-0.469 0.863-0.219 1.281l1.963 3.269h-6.394c-2.206 0-4-1.794-4-4v-10.025h-2.006c-1.125 0-2-0.875-2-2.006 0-0.563 0.188-1.063 0.625-1.5l16.025-13.969c0.438-0.438 0.938-0.5 1.375-0.5s0.938 0.125 1.313 0.438l6.663 5.856v-2.294c0-1.106 0.894-2 2-2h2c1.106 0 2 0.894 2 2v7.563l3.3 2.9c0.5 0.438 0.75 0.938 0.688 1.5z"/>
</svg>
