<svg version="1.1" xmlns="http://www.w3.org/2000/svg" width="36" height="32" viewBox="0 0 36 32">
<path fill="currentColor" d="M35.987 15.969c0 1.125-0.938 2.006-2 2.006h-2l0.044 10.012c0.013 2.219-1.781 4.019-4 4.019h-20.025c-2.206 0-4-1.794-4-4v-10.031h-2.006c-1.125 0-2-0.875-2-2.006 0-0.563 0.188-1.063 0.625-1.5l16.025-13.969c0.438-0.438 0.938-0.5 1.375-0.5s0.938 0.125 1.313 0.438l15.962 14.031c0.5 0.438 0.75 0.938 0.688 1.5zM22 14c0-2.209-1.791-4-4-4s-4 1.791-4 4v0c0 2.209 1.791 4 4 4s4-1.791 4-4v0zM16 20c-2.762 0-5 2.238-5 5 0 0.55 0.45 1 1 1h12c0.55 0 1-0.45 1-1 0-2.762-2.238-5-5-5h-4z"/>
</svg>
