<svg version="1.1" xmlns="http://www.w3.org/2000/svg" width="36" height="32" viewBox="0 0 36 32">
<path fill="currentColor" d="M19.175 0.381c-0.7-0.506-1.65-0.506-2.35 0l-11 8c-0.7 0.512-0.994 1.412-0.725 2.237s1.031 1.381 1.9 1.381h1v4.563c0.106 0.063 0.206 0.125 0.306 0.194 1.125 0.775 2.506 1.269 3.7 1.269 1.319 0 2.625-0.531 3.7-1.269 1.381-0.969 3.225-0.969 4.606 0 1.15 0.794 2.475 1.269 3.7 1.269 1.188 0 2.575-0.494 3.7-1.269 0.094-0.063 0.188-0.125 0.281-0.181l-0.019-4.575h1.025c0.869 0 1.631-0.556 1.9-1.381s-0.025-1.725-0.725-2.237l-11-8zM16.844 19.369c-1.406 0.969-3.125 1.631-4.844 1.631-1.681 0-3.456-0.675-4.838-1.631v0c-0.744-0.531-1.756-0.488-2.45 0.106-0.9 0.744-2.031 1.313-3.163 1.575-1.075 0.25-1.744 1.325-1.494 2.4s1.325 1.744 2.4 1.494c1.531-0.356 2.806-1.031 3.638-1.563 1.813 0.975 3.844 1.619 5.906 1.619 1.994 0 3.787-0.619 5.025-1.181 0.363-0.169 0.694-0.331 0.975-0.481 0.281 0.15 0.606 0.319 0.975 0.481 1.238 0.563 3.031 1.181 5.025 1.181 2.063 0 4.094-0.644 5.906-1.613 0.837 0.525 2.106 1.206 3.638 1.563 1.075 0.25 2.15-0.419 2.4-1.494s-0.419-2.15-1.494-2.4c-1.131-0.262-2.263-0.831-3.163-1.575-0.694-0.594-1.706-0.631-2.45-0.106v0c-1.375 0.95-3.156 1.625-4.838 1.625-1.719 0-3.438-0.663-4.844-1.631-0.694-0.494-1.619-0.494-2.313 0zM24 28c-1.719 0-3.438-0.663-4.844-1.631-0.694-0.494-1.619-0.494-2.313 0-1.406 0.969-3.125 1.631-4.844 1.631-1.681 0-3.456-0.675-4.838-1.631v0c-0.744-0.531-1.756-0.488-2.45 0.106-0.9 0.744-2.031 1.313-3.163 1.575-1.075 0.25-1.744 1.325-1.494 2.4s1.325 1.744 2.4 1.494c1.531-0.356 2.806-1.031 3.638-1.563 1.813 0.975 3.844 1.619 5.906 1.619 1.994 0 3.787-0.619 5.025-1.181 0.363-0.169 0.694-0.331 0.975-0.481 0.281 0.15 0.606 0.319 0.975 0.481 1.238 0.563 3.031 1.181 5.025 1.181 2.063 0 4.094-0.644 5.906-1.613 0.837 0.525 2.106 1.206 3.638 1.563 1.075 0.25 2.15-0.419 2.4-1.494s-0.419-2.15-1.494-2.4c-1.131-0.262-2.263-0.831-3.163-1.575-0.694-0.587-1.706-0.631-2.45-0.106v0c-1.375 0.95-3.156 1.625-4.838 1.625z"/>
</svg>
