<svg version="1.1" xmlns="http://www.w3.org/2000/svg" width="36" height="32" viewBox="0 0 36 32">
<path fill="currentColor" d="M33.987 17.975c1.063 0 2-0.875 2-2.006 0.063-0.563-0.188-1.063-0.688-1.5l-15.956-14.031c-0.375-0.313-0.875-0.438-1.313-0.438s-0.938 0.063-1.375 0.5l-16.031 13.969c-0.438 0.438-0.625 0.938-0.625 1.5 0 1.125 0.875 2.006 2 2.006h2v10.025c0 2.206 1.794 4 4 4h6.4l-1.956-3.262c-0.256-0.425-0.162-0.969 0.219-1.281l5.338-4.456-3.762-5.175c-0.681-0.938 0.512-2.094 1.425-1.375l7.369 5.787c0.5 0.394 0.512 1.15 0.025 1.556l-5.056 4.206 2.4 4h7.631c2.219 0 4.013-1.8 4-4.019l-0.044-10.012h2z"/>
</svg>
