<svg version="1.1" xmlns="http://www.w3.org/2000/svg" width="36" height="32" viewBox="0 0 36 32">
<path fill="currentColor" d="M22.356 0.531c-0.769-0.706-1.95-0.706-2.712 0l-13 12c-0.588 0.537-0.794 1.375-0.531 2.125 5.444 1.581 9.725 5.887 11.269 11.35h11.619c1.656 0 3-1.344 3-3v-7.006h2c0.825 0 1.563-0.506 1.862-1.269s0.1-1.637-0.506-2.2l-13-12zM18 13c0-0.55 0.45-1 1-1h4c0.55 0 1 0.45 1 1v4c0 0.55-0.45 1-1 1h-4c-0.55 0-1-0.45-1-1v-4zM1.5 16c-0.831 0-1.5 0.669-1.5 1.5s0.669 1.5 1.5 1.5c6.35 0 11.5 5.15 11.5 11.5 0 0.831 0.669 1.5 1.5 1.5s1.5-0.669 1.5-1.5c0-8.006-6.494-14.5-14.5-14.5zM2 32c1.105 0 2-0.895 2-2s-0.895-2-2-2v0c-1.105 0-2 0.895-2 2s0.895 2 2 2v0zM0 23.5c0 0.831 0.669 1.5 1.5 1.5 3.037 0 5.5 2.462 5.5 5.5 0 0.831 0.669 1.5 1.5 1.5s1.5-0.669 1.5-1.5c0-4.694-3.806-8.5-8.5-8.5-0.831 0-1.5 0.669-1.5 1.5z"/>
</svg>
