<svg version="1.1" xmlns="http://www.w3.org/2000/svg" width="36" height="32" viewBox="0 0 36 32">
<path fill="currentColor" d="M5.050 8.531c1.506-2.669 4.487-4.531 8.012-4.531 1.056 0 2.069 0.169 3.012 0.481 1.050 0.344 2.181-0.225 2.525-1.275s-0.225-2.181-1.275-2.525c-1.338-0.444-2.775-0.681-4.262-0.681-7.112 0-13.063 5.5-13.063 12.5 0 5.725 3.344 10.756 8.887 12.131 0.838 0.238 1.719 0.369 2.637 0.369 0.044 0 0.088 0 0.131-0.006 0.113 0 0.231 0.006 0.344 0.006v0c1.994 0 3.787-0.619 5.025-1.181 0.363-0.169 0.694-0.331 0.975-0.481 0.281 0.15 0.606 0.319 0.975 0.481 1.238 0.563 3.031 1.181 5.025 1.181 2.063 0 4.094-0.644 5.906-1.613 0.837 0.525 2.106 1.206 3.638 1.563 1.075 0.25 2.15-0.419 2.4-1.494s-0.419-2.15-1.494-2.4c-1.131-0.262-2.263-0.831-3.163-1.575-0.694-0.594-1.706-0.631-2.45-0.106v0c-1.375 0.95-3.156 1.625-4.838 1.625-1.719 0-3.438-0.663-4.844-1.631-0.694-0.494-1.619-0.494-2.313 0-1.4 0.969-3.119 1.631-4.838 1.631 0 0-0.006 0-0.006 0-0.775 0-1.5-0.094-2.181-0.269-2.219-0.719-3.819-2.794-3.819-5.231 0-3.031 2.469-5.5 5.525-5.5 0.844 0 1.631 0.188 2.344 0.519 1 0.469 2.194 0.037 2.656-0.969s0.038-2.194-0.969-2.656c-1.225-0.575-2.594-0.894-4.031-0.894-2.5 0-4.775 0.963-6.475 2.531zM20.8 7.4c-0.506 0.375-0.8 0.969-0.8 1.6v7.563c0.1 0.063 0.206 0.125 0.3 0.194 1.15 0.794 2.475 1.269 3.7 1.269 1.188 0 2.575-0.494 3.7-1.269 1.488-1.044 3.488-0.956 4.881 0.212 0.663 0.55 1.513 0.975 2.331 1.163 0.362 0.087 0.7 0.212 1.013 0.387 0.044-0.169 0.069-0.344 0.069-0.525l-0.025-9c0-0.625-0.294-1.213-0.794-1.594l-5.969-4.5c-0.712-0.538-1.694-0.538-2.406 0l-6 4.5zM24 28c-1.719 0-3.438-0.663-4.844-1.631-0.694-0.494-1.619-0.494-2.313 0-1.406 0.969-3.125 1.631-4.844 1.631-1.681 0-3.456-0.675-4.838-1.631v0c-0.744-0.531-1.756-0.488-2.45 0.106-0.9 0.744-2.031 1.313-3.163 1.575-1.075 0.25-1.744 1.325-1.494 2.4s1.325 1.744 2.4 1.494c1.531-0.356 2.806-1.031 3.638-1.563 1.813 0.975 3.844 1.619 5.906 1.619 1.994 0 3.787-0.619 5.025-1.181 0.363-0.169 0.694-0.331 0.975-0.481 0.281 0.15 0.606 0.319 0.975 0.481 1.238 0.563 3.031 1.181 5.025 1.181 2.063 0 4.094-0.644 5.906-1.613 0.837 0.525 2.106 1.206 3.638 1.563 1.075 0.25 2.15-0.419 2.4-1.494s-0.419-2.15-1.494-2.4c-1.131-0.262-2.263-0.831-3.163-1.575-0.694-0.587-1.706-0.631-2.45-0.106v0c-1.375 0.95-3.156 1.625-4.838 1.625z"/>
</svg>
