<svg version="1.1" xmlns="http://www.w3.org/2000/svg" width="40" height="32" viewBox="0 0 40 32">
<path fill="currentColor" d="M20 23c0 3.719 1.844 7.006 4.675 9h-16.669c-2.206 0-4-1.794-4-4v-10.025h-2.006c-1.125 0-2-0.875-2-2.006 0-0.563 0.188-1.063 0.625-1.5l16.025-13.969c0.438-0.438 0.938-0.5 1.375-0.5s0.938 0.125 1.313 0.438l13.294 11.681c-0.531-0.081-1.081-0.119-1.631-0.119-3.419 0-6.469 1.556-8.488 4h-2.512v-3c0-0.55-0.45-1-1-1h-2c-0.55 0-1 0.45-1 1v3h-3c-0.55 0-1 0.45-1 1v2c0 0.55 0.45 1 1 1h3v3c0 0.55 0.45 1 1 1h2c0.55 0 1-0.45 1-1zM22 23c0-4.971 4.029-9 9-9s9 4.029 9 9v0c0 4.971-4.029 9-9 9s-9-4.029-9-9v0zM35.206 20.294c-0.388-0.387-1.025-0.387-1.413 0l-3.794 3.794-1.794-1.794c-0.387-0.387-1.025-0.387-1.413 0s-0.387 1.025 0 1.413l2.5 2.5c0.387 0.387 1.025 0.387 1.413 0l4.5-4.5c0.388-0.387 0.388-1.025 0-1.413z"/>
</svg>
