<svg version="1.1" xmlns="http://www.w3.org/2000/svg" width="36" height="32" viewBox="0 0 36 32">
<path fill="currentColor" d="M33.987 17.975c1.063 0 2-0.875 2-2.006 0.063-0.563-0.188-1.063-0.688-1.5l-3.3-2.906v-7.563c0-1.106-0.894-2-2-2h-2c-1.106 0-2 0.894-2 2v2.294l-6.656-5.856c-0.375-0.313-0.875-0.438-1.313-0.438s-0.938 0.063-1.375 0.5l-16.031 13.969c-0.438 0.438-0.625 0.938-0.625 1.5 0 1.125 0.875 2.006 2 2.006h2v4.356c-0.006 0.056-0.006 0.113-0.006 0.175v6.994c0 1.381 1.119 2.5 2.5 2.5h1c0.075 0 0.15-0.006 0.225-0.012 0.094 0.006 0.188 0.012 0.281 0.012h3.5c1.381 0 2.5-1.119 2.5-2.5v-5.5c0-1.106 0.894-2 2-2h4c1.106 0 2 0.894 2 2v5.5c0 1.381 1.119 2.5 2.5 2.5h3.531c0.087 0 0.175 0 0.262-0.006 0.069 0.006 0.137 0.006 0.206 0.006h1c1.381 0 2.5-1.119 2.5-2.5v-1.012c0.019-0.163 0.031-0.331 0.031-0.506l-0.044-10.012h2z"/>
</svg>
