<svg version="1.1" xmlns="http://www.w3.org/2000/svg" width="40" height="32" viewBox="0 0 40 32">
<path fill="currentColor" d="M18 21.881v0.119h-2c-1.106 0-2 0.894-2 2v5.5c0 1.381-1.119 2.5-2.5 2.5h-3.494c-0.094 0-0.188-0.006-0.281-0.012-0.075 0.006-0.15 0.012-0.225 0.012h-1c-1.381 0-2.5-1.119-2.5-2.5v-7c0-0.056 0-0.119 0.006-0.175v-4.35h-2.006c-1.125 0-2-0.875-2-2.006 0-0.563 0.188-1.063 0.625-1.5l16.025-13.969c0.438-0.438 0.938-0.5 1.375-0.5s0.938 0.125 1.313 0.438l8.619 7.569c-0.769-0.063-1.563 0.188-2.175 0.731-2.212 1.975-4.1 4.231-5.456 6.425-1.306 2.119-2.325 4.519-2.325 6.719zM28.344 10.238c1.231 1.113 2.387 2.313 3.469 3.606 0.494-0.619 1.050-1.294 1.656-1.844 0.35-0.319 0.9-0.319 1.25 0 1.544 1.419 2.85 3.294 3.775 5.069 0.906 1.75 1.513 3.675 1.513 4.938-0.006 5.494-4.462 9.994-10.006 9.994-5.606 0-10-4.506-10-9.988 0-1.65 0.794-3.794 2.025-5.787 1.25-2.025 3.006-4.131 5.087-5.988 0.175-0.156 0.4-0.238 0.625-0.231 0.219 0 0.438 0.081 0.613 0.238zM33.125 27.063c1.875-1.313 2.375-3.938 1.25-6-0.125-0.25-0.25-0.5-0.438-0.75l-2.25 2.625s-3.625-4.625-3.875-4.938c-1.875 2.313-2.813 3.625-2.813 5.125 0 3.063 2.25 4.875 5.063 4.875 1.125 0 2.125-0.313 3.063-0.938z"/>
</svg>
