<svg version="1.1" xmlns="http://www.w3.org/2000/svg" width="36" height="32" viewBox="0 0 36 32">
<path fill="currentColor" d="M33.987 17.975c1.063 0 2-0.875 2-2.006 0.063-0.563-0.188-1.063-0.688-1.5l-3.3-2.906v-7.563c0-1.106-0.894-2-2-2h-2c-1.106 0-2 0.894-2 2v2.294l-6.656-5.856c-0.375-0.313-0.875-0.438-1.313-0.438s-0.938 0.063-1.375 0.5l-16.031 13.969c-0.438 0.438-0.625 0.938-0.625 1.5 0 1.125 0.875 2.006 2 2.006h2v10.025c0 2.206 1.794 4 4 4h20.031c2.219 0 4.012-1.8 4-4.019l-0.044-10.012h2zM18 10c2.209 0 4 1.791 4 4s-1.791 4-4 4v0c-2.209 0-4-1.791-4-4s1.791-4 4-4v0zM11 25c0-2.762 2.238-5 5-5h4c2.762 0 5 2.238 5 5 0 0.55-0.45 1-1 1h-12c-0.55 0-1-0.45-1-1z"/>
</svg>
