<svg version="1.1" xmlns="http://www.w3.org/2000/svg" width="40" height="32" viewBox="0 0 40 32">
<path fill="currentColor" d="M13.644 0.531c0.769-0.706 1.95-0.706 2.712 0l13 12c0.419 0.387 0.644 0.925 0.644 1.469h-9c-1.194 0-2.269 0.525-3 1.356v-2.356c0-0.55-0.45-1-1-1h-4c-0.55 0-1 0.45-1 1v4c0 0.55 0.45 1 1 1h4v8h-10c-1.656 0-3-1.344-3-3v-7h-2c-0.825 0-1.563-0.506-1.863-1.269s-0.1-1.637 0.506-2.2l13-12zM22 19v9h12v-9h-12zM19 18c0-1.106 0.894-2 2-2h14c1.106 0 2 0.894 2 2v10h2c0.55 0 1 0.45 1 1 0 1.656-1.344 3-3 3h-18c-1.656 0-3-1.344-3-3 0-0.55 0.45-1 1-1h2v-10z"/>
</svg>
