<svg version="1.1" xmlns="http://www.w3.org/2000/svg" width="24" height="32" viewBox="0 0 24 32">
<path fill="currentColor" d="M7.619 7.263c1.025-0.819 2.3-1.263 3.606-1.263h2.713c1.694 0 3.062 1.369 3.062 3.063 0 0.719-0.25 1.4-0.694 1.938h-14.306c-1.106 0-2 0.894-2 2s0.894 2 2 2h7.719l-3.162 1.806c-0.106 0.063-0.213 0.125-0.319 0.194h-4.237c-1.106 0-2 0.894-2 2s0.894 2 2 2h1.269c-0.175 0.619-0.269 1.275-0.269 1.938 0 3.9 3.163 7.063 7.063 7.063h2.713c2.219 0 4.375-0.756 6.106-2.144l0.369-0.294c0.863-0.688 1-1.95 0.313-2.813s-1.95-1-2.813-0.313l-0.369 0.294c-1.025 0.819-2.294 1.262-3.606 1.262h-2.713c-1.694 0-3.063-1.369-3.063-3.063 0-0.719 0.25-1.4 0.694-1.938h14.306c1.106 0 2-0.894 2-2s-0.894-2-2-2h-7.719l3.163-1.806c0.106-0.063 0.212-0.125 0.319-0.194h4.238c1.106 0 2-0.894 2-2s-0.894-2-2-2h-1.269c0.175-0.625 0.269-1.275 0.269-1.938 0-3.9-3.163-7.063-7.063-7.063h-2.713c-2.219 0-4.375 0.756-6.106 2.144l-0.369 0.3c-0.862 0.688-1 1.95-0.313 2.813s1.95 1 2.813 0.313l0.369-0.294z"/>
</svg>
