<svg version="1.1" xmlns="http://www.w3.org/2000/svg" width="24" height="32" viewBox="0 0 24 32">
<path fill="currentColor" d="M0 13c0-6.475 4.731-11.844 10.931-12.838 0.569-0.087 1.069 0.375 1.069 0.956v3.956c0 0.525 0.406 0.956 0.919 1.031 6.269 0.925 11.081 6.331 11.081 12.856 0 6.475-4.731 11.844-10.931 12.837-0.575 0.094-1.069-0.369-1.069-0.95v-3.962c0-0.525-0.406-0.956-0.919-1.031-6.269-0.925-11.081-6.331-11.081-12.856zM18 16c0-3.314-2.686-6-6-6s-6 2.686-6 6v0c0 3.314 2.686 6 6 6s6-2.686 6-6v0zM12 14c1.105 0 2 0.895 2 2s-0.895 2-2 2v0c-1.105 0-2-0.895-2-2s0.895-2 2-2v0z"/>
</svg>
