<svg version="1.1" xmlns="http://www.w3.org/2000/svg" width="32" height="32" viewBox="0 0 32 32">
<path fill="currentColor" d="M4.737 19.050l-4.675-16.819c-0.044-0.156-0.063-0.313-0.063-0.469 0-0.975 0.787-1.762 1.762-1.762h28.387c1.025 0 1.85 0.825 1.85 1.85 0 0.1-0.006 0.206-0.025 0.306l-4.813 28.85c-0.094 0.575-0.594 0.994-1.175 0.994-0.575 0-1.069-0.413-1.169-0.975l-3.819-21.025-1.8 8.994c-0.119 0.581-0.631 1.006-1.225 1.006-0.575 0-1.075-0.387-1.212-0.944l-1.762-7.056-1.838 11.012c-0.094 0.569-0.588 0.988-1.162 0.988s-1.069-0.419-1.162-0.988l-1.838-11.012-1.756 7.019c-0.144 0.575-0.662 0.981-1.256 0.981-0.581 0-1.094-0.387-1.25-0.95z"/>
</svg>
