<svg version="1.1" xmlns="http://www.w3.org/2000/svg" width="32" height="32" viewBox="0 0 32 32">
<path fill="currentColor" d="M31.269 0.456c0.462 0.375 0.731 0.944 0.731 1.544v9c0 1.656-1.794 3-4 3s-4-1.344-4-3 1.794-3 4-3v-3.563l-6 1.2v7.362c0 1.656-1.794 3-4 3s-4-1.344-4-3 1.794-3 4-3v-6c0-0.956 0.675-1.775 1.606-1.962l10-2c0.587-0.119 1.194 0.038 1.663 0.412zM4.669 19l0.737-1.113c0.369-0.556 0.994-0.887 1.662-0.887h3.856c0.669 0 1.294 0.331 1.662 0.887l0.744 1.113h1.669c1.656 0 3 1.344 3 3v7c0 1.656-1.344 3-3 3h-12c-1.656 0-3-1.344-3-3v-7c0-1.656 1.344-3 3-3h1.669zM12 25.5c0-1.657-1.343-3-3-3s-3 1.343-3 3v0c0 1.657 1.343 3 3 3s3-1.343 3-3v0zM29.919 17.394l-2.4 5.606h3.481c0.419 0 0.788 0.256 0.938 0.65s0.038 0.831-0.275 1.106l-8 7c-0.35 0.306-0.869 0.331-1.244 0.056s-0.512-0.775-0.331-1.2l2.394-5.613h-3.481c-0.419 0-0.788-0.256-0.938-0.65s-0.038-0.831 0.275-1.106l8-7c0.35-0.306 0.869-0.331 1.244-0.056s0.512 0.775 0.331 1.2zM8.731 13.694c-0.406 0.406-1.063 0.406-1.438 0l-6.050-6.244c-1.75-1.813-1.656-4.806 0.313-6.494 1.688-1.469 4.275-1.188 5.838 0.406l0.625 0.656 0.594-0.656c1.563-1.594 4.119-1.875 5.869-0.406 1.938 1.688 2.031 4.681 0.281 6.494l-6.025 6.244z"/>
</svg>
