<svg version="1.1" xmlns="http://www.w3.org/2000/svg" width="36" height="32" viewBox="0 0 36 32">
<path fill="currentColor" d="M0 6h36c0-2.206-1.794-4-4-4h-28c-2.206 0-4 1.794-4 4zM0 8v18c0 2.206 1.794 4 4 4h28c2.206 0 4-1.794 4-4v-18h-36zM4 25.331c0-1.844 1.494-3.331 3.331-3.331h7.337c1.844 0 3.331 1.494 3.331 3.331 0 0.369-0.3 0.669-0.669 0.669h-12.662c-0.369 0-0.669-0.3-0.669-0.669zM11 12c2.209 0 4 1.791 4 4s-1.791 4-4 4v0c-2.209 0-4-1.791-4-4s1.791-4 4-4v0zM22 13c0-0.55 0.45-1 1-1h8c0.55 0 1 0.45 1 1s-0.45 1-1 1h-8c-0.55 0-1-0.45-1-1zM22 17c0-0.55 0.45-1 1-1h8c0.55 0 1 0.45 1 1s-0.45 1-1 1h-8c-0.55 0-1-0.45-1-1zM22 21c0-0.55 0.45-1 1-1h8c0.55 0 1 0.45 1 1s-0.45 1-1 1h-8c-0.55 0-1-0.45-1-1z"/>
</svg>
