<svg version="1.1" xmlns="http://www.w3.org/2000/svg" width="36" height="32" viewBox="0 0 36 32">
<path fill="currentColor" d="M16 0h4c1.106 0 2 0.894 2 2v4c0 1.106-0.894 2-2 2h-4c-1.106 0-2-0.894-2-2v-4c0-1.106 0.894-2 2-2zM4 4h8v3c0 1.656 1.344 3 3 3h6c1.656 0 3-1.344 3-3v-3h8c2.206 0 4 1.794 4 4v20c0 2.206-1.794 4-4 4h-28c-2.206 0-4-1.794-4-4v-20c0-2.206 1.794-4 4-4zM11 27.331c0 0.369 0.3 0.669 0.669 0.669h12.662c0.369 0 0.669-0.3 0.669-0.669 0-1.844-1.494-3.331-3.331-3.331h-7.338c-1.844 0-3.331 1.494-3.331 3.331zM18 22c2.209 0 4-1.791 4-4s-1.791-4-4-4v0c-2.209 0-4 1.791-4 4s1.791 4 4 4v0z"/>
</svg>
