<svg version="1.1" xmlns="http://www.w3.org/2000/svg" width="36" height="32" viewBox="0 0 36 32">
<path fill="currentColor" d="M10 2c-2.206 0-4 1.794-4 4v14c0 2.206 1.794 4 4 4h22c2.206 0 4-1.794 4-4v-14c0-2.206-1.794-4-4-4h-22zM24.75 8.669l6 9c0.306 0.462 0.337 1.050 0.075 1.538s-0.769 0.794-1.325 0.794h-17c-0.575 0-1.1-0.331-1.35-0.85s-0.181-1.137 0.181-1.587l4-5c0.287-0.356 0.712-0.563 1.169-0.563s0.887 0.206 1.169 0.563l1.081 1.35 3.5-5.25c0.281-0.412 0.75-0.662 1.25-0.662s0.969 0.25 1.25 0.669zM12 8c0-1.105 0.895-2 2-2s2 0.895 2 2v0c0 1.105-0.895 2-2 2s-2-0.895-2-2v0zM3 7.5c0-0.831-0.669-1.5-1.5-1.5s-1.5 0.669-1.5 1.5v14c0 4.694 3.806 8.5 8.5 8.5h20c0.831 0 1.5-0.669 1.5-1.5s-0.669-1.5-1.5-1.5h-20c-3.037 0-5.5-2.462-5.5-5.5v-14z"/>
</svg>
