<svg version="1.1" xmlns="http://www.w3.org/2000/svg" width="32" height="32" viewBox="0 0 32 32">
<path fill="currentColor" d="M0 6c0-2.206 1.794-4 4-4h24c2.206 0 4 1.794 4 4v20c0 2.206-1.794 4-4 4h-24c-2.206 0-4-1.794-4-4v-20zM20.238 12.656c-0.281-0.412-0.744-0.656-1.238-0.656s-0.962 0.244-1.238 0.656l-5.438 7.975-1.656-2.069c-0.287-0.356-0.719-0.563-1.169-0.563s-0.887 0.206-1.169 0.563l-4 5c-0.362 0.45-0.431 1.069-0.181 1.587s0.775 0.85 1.35 0.85h21c0.556 0 1.069-0.306 1.325-0.8s0.225-1.087-0.087-1.544l-7.5-11zM7 12c1.657 0 3-1.343 3-3s-1.343-3-3-3v0c-1.657 0-3 1.343-3 3s1.343 3 3 3v0z"/>
</svg>
