<svg version="1.1" xmlns="http://www.w3.org/2000/svg" width="32" height="32" viewBox="0 0 32 32">
<path fill="currentColor" d="M7.563 2c-1.838 0-3.438 1.25-3.881 3.031l-3.563 14.244c-0.081 0.319-0.119 0.644-0.119 0.969v5.756c0 2.206 1.794 4 4 4h24c2.206 0 4-1.794 4-4v-5.756c0-0.325-0.038-0.65-0.119-0.969l-3.563-14.244c-0.444-1.781-2.044-3.031-3.881-3.031h-16.875zM7.563 6h16.875l3 12h-3.2c-0.756 0-1.45 0.425-1.788 1.106l-0.894 1.788c-0.337 0.675-1.031 1.106-1.788 1.106h-7.531c-0.756 0-1.45-0.425-1.787-1.106l-0.894-1.788c-0.338-0.675-1.031-1.106-1.787-1.106h-3.206l3-12z"/>
</svg>
