<svg version="1.1" xmlns="http://www.w3.org/2000/svg" width="28" height="32" viewBox="0 0 28 32">
<path fill="currentColor" d="M0 4c0-1.106 0.894-2 2-2h24c1.106 0 2 0.894 2 2s-0.894 2-2 2h-24c-1.106 0-2-0.894-2-2zM12 12c0-1.106 0.894-2 2-2h12c1.106 0 2 0.894 2 2s-0.894 2-2 2h-12c-1.106 0-2-0.894-2-2zM14 18h12c1.106 0 2 0.894 2 2s-0.894 2-2 2h-12c-1.106 0-2-0.894-2-2s0.894-2 2-2zM0 28c0-1.106 0.894-2 2-2h24c1.106 0 2 0.894 2 2s-0.894 2-2 2h-24c-1.106 0-2-0.894-2-2zM7.987 16.788l-6.375 4.956c-0.656 0.512-1.613 0.044-1.613-0.788v-9.912c0-0.831 0.956-1.3 1.613-0.787l6.369 4.956c0.513 0.4 0.513 1.181 0 1.581z"/>
</svg>
