<svg version="1.1" xmlns="http://www.w3.org/2000/svg" width="20" height="32" viewBox="0 0 20 32">
<path fill="currentColor" d="M0 4c0-1.106 0.894-2 2-2h16c1.106 0 2 0.894 2 2s-0.894 2-2 2h-3.512c0.6 0.9 1.044 1.912 1.294 3h2.219c1.106 0 2 0.894 2 2s-0.894 2-2 2h-2.225c-0.825 3.644-3.869 6.45-7.638 6.931l9.025 6.444c0.9 0.644 1.106 1.894 0.462 2.788s-1.894 1.106-2.787 0.462l-14-10c-0.706-0.5-1.006-1.406-0.744-2.238s1.038-1.387 1.906-1.387h5c2.050 0 3.813-1.231 4.581-3h-9.581c-1.106 0-2-0.894-2-2s0.894-2 2-2h9.581c-0.769-1.769-2.531-3-4.581-3h-5c-1.106 0-2-0.894-2-2z"/>
</svg>
