<svg version="1.1" xmlns="http://www.w3.org/2000/svg" width="40" height="32" viewBox="0 0 40 32">
<path fill="currentColor" d="M0 15.069c0-5.006 4.063-9.069 9.069-9.069 2.406 0 4.713 0.956 6.412 2.656l4.519 4.512 4.512-4.512c1.706-1.7 4.012-2.656 6.419-2.656 5.006 0 9.069 4.063 9.069 9.069v1.856c0 5.012-4.063 9.075-9.069 9.075-2.406 0-4.712-0.956-6.413-2.656l-4.519-4.512-4.512 4.512c-1.706 1.7-4.012 2.656-6.419 2.656-5.006 0-9.069-4.063-9.069-9.069v-1.863zM17.169 16l-4.512-4.512c-0.95-0.95-2.244-1.488-3.588-1.488-2.8 0-5.069 2.269-5.069 5.069v1.856c0 2.8 2.269 5.069 5.069 5.069 1.344 0 2.638-0.531 3.588-1.488l4.512-4.506zM22.825 16l4.512 4.512c0.95 0.95 2.244 1.488 3.587 1.488 2.8 0 5.069-2.269 5.069-5.069v-1.863c0-2.8-2.269-5.069-5.069-5.069-1.344 0-2.637 0.531-3.587 1.488l-4.506 4.513z"/>
</svg>
