<svg version="1.1" xmlns="http://www.w3.org/2000/svg" width="20" height="32" viewBox="0 0 20 32">
<path fill="currentColor" d="M2 2c0-1.106 0.894-2 2-2h12c1.106 0 2 0.894 2 2s-0.894 2-2 2h-12c-1.106 0-2-0.894-2-2zM0 10c0-2.206 1.794-4 4-4h12c2.206 0 4 1.794 4 4v18c0 2.206-1.794 4-4 4h-12c-2.206 0-4-1.794-4-4v-18zM7 10h-2.638c-0.2 0-0.362 0.162-0.362 0.363 0 2.012 1.625 3.637 3.638 3.637h4.725c2.006 0 3.637-1.625 3.637-3.637 0-0.2-0.162-0.363-0.363-0.363h-2.637c-1.194 0-2.269 0.525-3 1.356-0.731-0.831-1.806-1.356-3-1.356zM10 17.356c-0.731-0.831-1.806-1.356-3-1.356h-2.638c-0.2 0-0.362 0.163-0.362 0.363 0 2.012 1.625 3.637 3.638 3.637h4.725c2.006 0 3.637-1.625 3.637-3.637 0-0.2-0.162-0.363-0.363-0.363h-2.637c-1.194 0-2.269 0.525-3 1.356zM7 22h-2.638c-0.2 0-0.362 0.163-0.362 0.363 0 2.012 1.625 3.637 3.638 3.637h1.362v2c0 0.55 0.45 1 1 1s1-0.45 1-1v-2h1.363c2.006 0 3.637-1.625 3.637-3.637 0-0.2-0.162-0.363-0.363-0.363h-2.637c-1.194 0-2.269 0.525-3 1.356-0.731-0.831-1.806-1.356-3-1.356z"/>
</svg>
