<svg version="1.1" xmlns="http://www.w3.org/2000/svg" width="36" height="32" viewBox="0 0 36 32">
<path fill="currentColor" d="M15.375 19.731l-1.325-1.994c-0.131-0.2-0.106-0.462 0.063-0.631s0.431-0.194 0.631-0.063l1.844 1.231c0.131 0.087 0.306 0 0.313-0.163l0.581-17.613c0.006-0.281 0.238-0.5 0.519-0.5s0.506 0.219 0.519 0.5l0.587 17.619c0.006 0.156 0.181 0.244 0.313 0.163l1.844-1.231c0.2-0.131 0.462-0.106 0.631 0.063s0.194 0.431 0.063 0.631l-1.331 1.988c-0.081 0.119-0.012 0.281 0.125 0.306l2.35 0.469c0.231 0.044 0.4 0.25 0.4 0.488s-0.169 0.444-0.4 0.488l-2.35 0.481c-0.137 0.025-0.206 0.188-0.125 0.306l1.325 1.994c0.131 0.2 0.106 0.462-0.063 0.631s-0.431 0.194-0.631 0.063l-1.644-1.1c-0.137-0.087-0.319 0.012-0.313 0.175l0.131 3.844c3.731-0.675 6.569-3.944 6.569-7.875 0-2.313-0.981-4.4-2.55-5.856-0.438-0.406-0.406-1.162 0.063-1.525 2.119-1.65 3.488-4.225 3.488-7.119 0-1.050-0.181-2.063-0.512-3-0.288-0.813 0.637-1.875 1.337-1.375 3.344 2.375 5.794 5.925 6.738 10.044 0.031 0.131-0.013 0.269-0.106 0.369l-1.775 1.775c-0.25 0.25-0.075 0.681 0.281 0.681h1.625c0.212 0 0.388 0.162 0.394 0.375 0.006 0.206 0.013 0.412 0.013 0.625 0 1.094-0.106 2.169-0.3 3.206-0.013 0.075-0.056 0.15-0.106 0.206l-2.906 2.906c-0.25 0.25-0.075 0.681 0.281 0.681h0.913c0.288 0 0.481 0.3 0.356 0.563-2.781 5.6-8.556 9.444-15.231 9.444s-12.45-3.844-15.231-9.438c-0.131-0.262 0.063-0.563 0.356-0.563h0.906c0.356 0 0.537-0.431 0.281-0.681l-2.9-2.906c-0.056-0.056-0.094-0.125-0.106-0.206-0.2-1.038-0.306-2.113-0.306-3.206 0-0.206 0.006-0.419 0.012-0.625 0.006-0.213 0.181-0.375 0.394-0.375h1.625c0.356 0 0.538-0.431 0.281-0.681l-1.775-1.781c-0.094-0.094-0.137-0.238-0.106-0.369 0.95-4.119 3.4-7.669 6.744-10.044 0.706-0.5 1.625 0.556 1.338 1.375-0.331 0.938-0.512 1.95-0.512 3 0 2.894 1.369 5.469 3.487 7.119 0.469 0.363 0.5 1.119 0.063 1.525-1.569 1.456-2.55 3.544-2.55 5.856 0 3.931 2.838 7.2 6.569 7.875l0.131-3.844c0.006-0.163-0.175-0.262-0.313-0.175l-1.644 1.1c-0.2 0.131-0.463 0.106-0.631-0.063s-0.194-0.431-0.063-0.631l1.325-1.994c0.081-0.119 0.012-0.281-0.125-0.306l-2.35-0.469c-0.231-0.044-0.4-0.25-0.4-0.488s0.169-0.444 0.4-0.488l2.35-0.469c0.137-0.025 0.206-0.188 0.125-0.306z"/>
</svg>
