<svg version="1.1" xmlns="http://www.w3.org/2000/svg" width="40" height="32" viewBox="0 0 40 32">
<path fill="currentColor" d="M10 1.5c0-0.831 0.669-1.5 1.5-1.5h7c0.831 0 1.5 0.669 1.5 1.5s-0.669 1.5-1.5 1.5h-1l6.5 9h7.275c0.481 0 0.956 0.088 1.406 0.256l6.381 2.394c0.563 0.213 0.938 0.75 0.938 1.35s-0.375 1.138-0.938 1.35l-6.381 2.394c-0.45 0.169-0.925 0.256-1.406 0.256h-7.275l-6.5 9h1c0.831 0 1.5 0.669 1.5 1.5s-0.669 1.5-1.5 1.5h-7c-0.831 0-1.5-0.669-1.5-1.5s0.669-1.5 1.5-1.5h0.5v-9h-2l-3.412 3.413c-0.375 0.375-0.881 0.587-1.412 0.587h-1.175c-1.106 0-2-0.894-2-2v-4c-1.106 0-2-0.894-2-2s0.894-2 2-2v-4c0-1.106 0.894-2 2-2h1.169c0.531 0 1.037 0.213 1.412 0.588l3.419 3.412h2v-9h-0.5c-0.831 0-1.5-0.669-1.5-1.5zM5 15c-0.55 0-1 0.45-1 1s0.45 1 1 1h4c0.55 0 1-0.45 1-1s-0.45-1-1-1h-4z"/>
</svg>
