<svg version="1.1" xmlns="http://www.w3.org/2000/svg" width="32" height="32" viewBox="0 0 32 32">
<path fill="currentColor" d="M16.919 0.606c-0.156-0.369-0.519-0.606-0.919-0.606s-0.762 0.237-0.919 0.606l-2.756 6.431c-0.213 0.5-0.325 1.031-0.325 1.575v4.813l-9 5.25v-1.175c0-0.831-0.669-1.5-1.5-1.5s-1.5 0.669-1.5 1.5v7c0 0.831 0.669 1.5 1.5 1.5s1.5-0.669 1.5-1.5v-0.5h9v2.044l-3.656 3.206c-0.219 0.188-0.344 0.462-0.344 0.75v1c0 0.55 0.45 1 1 1h6v-4c0-0.55 0.45-1 1-1s1 0.45 1 1v4h6c0.55 0 1-0.45 1-1v-1c0-0.288-0.125-0.563-0.344-0.75l-3.656-3.206v-2.044h9v0.5c0 0.831 0.669 1.5 1.5 1.5s1.5-0.669 1.5-1.5v-7c0-0.831-0.669-1.5-1.5-1.5s-1.5 0.669-1.5 1.5v1.175l-9-5.25v-4.813c0-0.544-0.113-1.075-0.325-1.575l-2.756-6.431z"/>
</svg>
