<svg version="1.1" xmlns="http://www.w3.org/2000/svg" width="40" height="32" viewBox="0 0 40 32">
<path fill="currentColor" d="M28 2c0-1.106-0.894-2-2-2s-2 0.894-2 2v0.688c0 3.45 1.369 6.756 3.806 9.194l1.313 1.313c0.563 0.563 0.881 1.325 0.881 2.119v0.688c0 1.106 0.894 2 2 2s2-0.894 2-2v-0.688c0-1.856-0.737-3.637-2.050-4.95l-1.313-1.313c-1.688-1.688-2.637-3.975-2.637-6.362v-0.688zM36 16c0 1.106 0.894 2 2 2s2-0.894 2-2v-0.688c0-3.45-1.369-6.756-3.806-9.194l-1.313-1.313c-0.563-0.563-0.881-1.325-0.881-2.119v-0.688c0-1.106-0.894-2-2-2s-2 0.894-2 2v0.688c0 1.856 0.738 3.638 2.050 4.95l1.313 1.313c1.688 1.688 2.638 3.975 2.638 6.362v0.688zM14.363 22.5c-0.294-0.144-0.625-0.169-0.95-0.125-2.363 0.35-4.7 0.894-6.681 1.425-1.65 0.45-3.087 0.894-4.106 1.225-0.513 0.169-0.919 0.306-1.2 0.406-0.144 0.050-0.25 0.087-0.325 0.113l-0.081 0.031c-0.594 0.206-1.019 0.762-1.019 1.425s0.425 1.219 1.019 1.419l0.081 0.031c0.075 0.025 0.188 0.069 0.325 0.113 0.281 0.1 0.687 0.238 1.2 0.406 1.019 0.337 2.45 0.781 4.106 1.225 3.287 0.887 7.569 1.806 11.269 1.806h4.206c0.256 0 0.394-0.319 0.225-0.519l-6.4-7.681c-0.463-0.556-1.031-0.994-1.669-1.3zM27.813 32h4.394c0.256 0 0.394-0.319 0.225-0.519l-6.4-7.681c-0.95-1.144-2.356-1.8-3.844-1.8h-4.188c-0.069 0-0.144 0-0.212 0-0.256 0-0.387 0.319-0.219 0.519l6.4 7.681c0.95 1.144 2.356 1.8 3.844 1.8zM27.569 22.519l6.4 7.681c0.913 1.094 2.244 1.744 3.663 1.794 1.319-0.069 2.369-1.163 2.369-2.494v-5c0-1.381-1.119-2.5-2.5-2.5h-9.706c-0.256 0-0.394 0.319-0.225 0.519z"/>
</svg>
