<svg version="1.1" xmlns="http://www.w3.org/2000/svg" width="36" height="32" viewBox="0 0 36 32">
<path fill="currentColor" d="M3.75 7.5l14.25 4.45 14.25-4.45-14.25-4.45-14.25 4.45zM17.406 0.094c0.387-0.119 0.806-0.119 1.194 0l16 5c0.831 0.256 1.4 1.031 1.4 1.906v2.325l-17.7 5.531c-0.194 0.063-0.4 0.063-0.594 0l-17.706-5.531v-2.325c0-0.875 0.569-1.65 1.406-1.906l16-5zM18.9 16.769l17.1-5.344v2.906l-3.3 1.031c-0.525 0.162-0.819 0.725-0.656 1.25s0.725 0.819 1.25 0.656l2.706-0.844v8.575c0 0.875-0.569 1.65-1.406 1.906l-16 5c-0.387 0.119-0.806 0.119-1.194 0l-16-5c-0.831-0.256-1.4-1.031-1.4-1.906v-8.575l2.7 0.844c0.525 0.163 1.087-0.131 1.25-0.656s-0.131-1.088-0.656-1.25l-3.294-1.037v-2.9l17.106 5.344c0.581 0.181 1.206 0.181 1.788 0zM7.306 16.606c-0.525-0.163-1.088 0.131-1.25 0.656s0.131 1.087 0.656 1.25l4 1.25c0.525 0.163 1.088-0.131 1.25-0.656s-0.131-1.087-0.656-1.25l-4-1.25zM29.306 18.512c0.525-0.163 0.819-0.725 0.656-1.25s-0.725-0.819-1.25-0.656l-4 1.25c-0.525 0.163-0.819 0.725-0.656 1.25s0.725 0.819 1.25 0.656l4-1.25zM15.306 19.106c-0.525-0.163-1.088 0.131-1.25 0.656s0.131 1.087 0.656 1.25l2.406 0.75c0.581 0.181 1.206 0.181 1.788 0l2.406-0.75c0.525-0.163 0.819-0.725 0.656-1.25s-0.725-0.819-1.25-0.656l-2.406 0.75c-0.194 0.063-0.4 0.063-0.594 0l-2.406-0.75z"/>
</svg>
