<svg version="1.1" xmlns="http://www.w3.org/2000/svg" width="32" height="32" viewBox="0 0 32 32">
<path fill="currentColor" d="M15.363 0.231c0.369-0.306 0.913-0.306 1.281 0l3 2.5c0.369 0.306 0.469 0.825 0.238 1.244v0 0 0 0l-0.006 0.006-0.019 0.037c-0.019 0.031-0.044 0.081-0.075 0.144-0.063 0.125-0.163 0.313-0.275 0.537-0.031 0.056-0.056 0.119-0.087 0.181 2.137 1.206 3.581 3.494 3.581 6.119s-1.444 4.912-3.581 6.113c0.031 0.063 0.063 0.125 0.087 0.181 0.113 0.231 0.206 0.413 0.275 0.538 0.031 0.063 0.056 0.113 0.075 0.144l0.019 0.038 0.006 0.006c0.225 0.419 0.125 0.938-0.238 1.244l-2.644 2.206v1.238l2.225-1.531 2.569-1.762c2.675-1.837 4.275-4.875 4.275-8.125 0-1.944-0.575-3.85-1.656-5.469l-0.175-0.263c-0.25-0.375-0.219-0.875 0.081-1.219s0.794-0.438 1.2-0.231l-0.45 0.894c0.45-0.894 0.45-0.894 0.45-0.894v0 0h0.006l0.019 0.013 0.063 0.031c0.050 0.025 0.125 0.069 0.219 0.119 0.181 0.106 0.438 0.256 0.738 0.456 0.6 0.4 1.406 1.006 2.212 1.813 1.606 1.606 3.294 4.1 3.294 7.456 0 3.319-1.65 6.281-3.2 8.35-0.788 1.044-1.569 1.894-2.156 2.481-0.294 0.294-0.544 0.525-0.719 0.681-0.087 0.081-0.156 0.137-0.206 0.181l-0.056 0.050-0.019 0.012-0.006 0.006s0 0-0.637-0.769l0.637 0.769c-0.319 0.269-0.775 0.306-1.137 0.1l-4.725-2.688-2.044 1.406 2.844 1.956c0.113-0.025 0.231-0.044 0.356-0.044 0.831 0 1.5 0.669 1.5 1.5s-0.669 1.5-1.5 1.5c-0.762 0-1.394-0.569-1.488-1.313l-2.512-1.712v1.806c0.6 0.344 1 0.994 1 1.731 0 1.106-0.894 2-2 2s-2-0.894-2-2c0-0.738 0.4-1.387 1-1.731v-1.762l-2.519 1.731c-0.119 0.719-0.738 1.262-1.481 1.262-0.831 0-1.5-0.669-1.5-1.5s0.669-1.5 1.5-1.5c0.137 0 0.275 0.019 0.406 0.056l2.863-1.969-2.044-1.406-4.725 2.688c-0.362 0.206-0.813 0.169-1.138-0.1l0.638-0.769c-0.638 0.769-0.638 0.769-0.644 0.769v0 0l-0.006-0.006-0.019-0.012-0.056-0.050c-0.050-0.044-0.119-0.106-0.206-0.181-0.175-0.156-0.419-0.387-0.719-0.681-0.588-0.587-1.369-1.438-2.156-2.481-1.544-2.075-3.194-5.037-3.194-8.356 0-3.356 1.681-5.85 3.294-7.456 0.806-0.806 1.613-1.413 2.212-1.813 0.306-0.2 0.556-0.356 0.737-0.456 0.094-0.050 0.162-0.094 0.219-0.119l0.063-0.031 0.019-0.013h0.006s0 0 0.45 0.894l-0.45-0.894c0.406-0.2 0.894-0.106 1.2 0.231s0.331 0.838 0.081 1.219l-0.175 0.263c-1.081 1.612-1.656 3.519-1.656 5.463 0 3.244 1.6 6.288 4.275 8.125l2.569 1.762 2.156 1.488v-1.194l-2.638-2.2c-0.369-0.306-0.469-0.825-0.238-1.244v0 0 0l0.006-0.006 0.019-0.038c0.019-0.031 0.044-0.081 0.075-0.144 0.063-0.125 0.162-0.313 0.275-0.538 0.031-0.056 0.056-0.119 0.088-0.181-2.144-1.206-3.588-3.494-3.588-6.119s1.444-4.912 3.581-6.112c-0.031-0.063-0.063-0.125-0.088-0.181-0.113-0.231-0.206-0.412-0.275-0.537-0.031-0.063-0.056-0.112-0.075-0.144l-0.019-0.038-0.006-0.006c-0.225-0.419-0.125-0.938 0.238-1.244l3-2.5zM13.762 7.681c-1.063 0.719-1.762 1.938-1.762 3.319s0.7 2.6 1.762 3.319c0.425-1.181 0.738-2.388 0.738-3.319s-0.313-2.137-0.738-3.319zM18.231 14.319c1.063-0.719 1.762-1.938 1.762-3.319s-0.7-2.6-1.762-3.319c-0.419 1.181-0.731 2.388-0.731 3.319s0.313 2.137 0.738 3.319z"/>
</svg>
