<svg version="1.1" xmlns="http://www.w3.org/2000/svg" width="36" height="32" viewBox="0 0 36 32">
<path fill="currentColor" d="M15 9c0-3.314-2.686-6-6-6s-6 2.686-6 6v0c0 3.314 2.686 6 6 6s6-2.686 6-6v0zM17.775 11c-0.906 4.006-4.494 7-8.775 7-4.969 0-9-4.031-9-9s4.031-9 9-9c4.281 0 7.869 2.994 8.775 7h4.488c0.55-0.612 1.35-1 2.238-1h6.5c1.656 0 3 1.344 3 3s-1.344 3-3 3h-6.5c-0.887 0-1.688-0.387-2.238-1h-4.488zM9 5c2.209 0 4 1.791 4 4s-1.791 4-4 4v0c-2.209 0-4-1.791-4-4s1.791-4 4-4v0zM25 15c0.831 0 1.5 0.669 1.5 1.5v0.5h6c0.831 0 1.5 0.669 1.5 1.5s-0.669 1.5-1.5 1.5h-15c-0.831 0-1.5-0.669-1.5-1.5s0.669-1.5 1.5-1.5h6v-0.5c0-0.831 0.669-1.5 1.5-1.5zM18 29v-7h14v7c0 1.656-1.344 3-3 3h-8c-1.656 0-3-1.344-3-3zM3 20h8c1.656 0 3 1.344 3 3s-1.344 3-3 3h-1c0 1.106-0.894 2-2 2h-4c-1.106 0-2-0.894-2-2v-5c0-0.55 0.45-1 1-1zM11 24c0.55 0 1-0.45 1-1s-0.45-1-1-1h-1v2h1zM1.5 29h11c0.831 0 1.5 0.669 1.5 1.5s-0.669 1.5-1.5 1.5h-11c-0.831 0-1.5-0.669-1.5-1.5s0.669-1.5 1.5-1.5z"/>
</svg>
