<svg version="1.1" xmlns="http://www.w3.org/2000/svg" width="36" height="32" viewBox="0 0 36 32">
<path fill="currentColor" d="M18.2 24.275c1.95-1.175 4.044-2.275 6.319-2.275h3.481c0.288 0 0.569-0.012 0.85-0.044l5.331 7.619c0.25 0.356 0.706 0.512 1.119 0.381s0.7-0.519 0.7-0.956v-15c0-4.419-3.581-8-8-8h-3.481c-2.275 0-4.369-1.1-6.319-2.275-1.806-1.094-3.931-1.725-6.2-1.725-6.625 0-12 5.375-12 12 0 4.444 2.413 8.319 6 10.394v4.106c0 0.831 0.669 1.5 1.5 1.5s1.5-0.669 1.5-1.5v-2.875c0.956 0.244 1.963 0.375 3 0.375 0.338 0 0.669-0.012 1-0.044v2.544c0 0.831 0.669 1.5 1.5 1.5s1.5-0.669 1.5-1.5v-3.181c0.775-0.275 1.512-0.625 2.2-1.044zM28 12.5c0.828 0 1.5 0.672 1.5 1.5s-0.672 1.5-1.5 1.5v0c-0.828 0-1.5-0.672-1.5-1.5s0.672-1.5 1.5-1.5v0z"/>
</svg>
