<svg version="1.1" xmlns="http://www.w3.org/2000/svg" width="32" height="32" viewBox="0 0 32 32">
<path fill="currentColor" d="M15.006 0.263c0.613-0.35 1.369-0.35 1.987 0l10.738 6.131 0.269 0.106v0.056l2.994 1.713c0.788 0.45 1.175 1.375 0.944 2.25s-1.025 1.488-1.931 1.488h-28.006c-0.906 0-1.7-0.613-1.931-1.488s0.156-1.8 0.944-2.25l2.987-1.713v-0.056l0.275-0.1 10.731-6.138zM4 14h4v12h2.5v-12h4v12h3v-12h4v12h2.5v-12h4v12.269c0.038 0.019 0.075 0.044 0.113 0.069l3 2c0.731 0.488 1.062 1.4 0.806 2.244s-1.038 1.419-1.919 1.419h-28c-0.881 0-1.656-0.575-1.913-1.419s0.069-1.756 0.806-2.244l3-2c0.038-0.025 0.075-0.044 0.112-0.069v-12.269z"/>
</svg>
