<svg version="1.1" xmlns="http://www.w3.org/2000/svg" width="32" height="32" viewBox="0 0 32 32">
<path fill="currentColor" d="M15.5 0h1c0.831 0 1.5 0.669 1.5 1.5v0.669c5.025 0.837 8.994 4.806 9.831 9.831h0.169c1.106 0 2 0.894 2 2s-0.894 2-2 2h-24c-1.106 0-2-0.894-2-2s0.894-2 2-2h0.169c0.838-5.025 4.806-8.994 9.831-9.831v-0.669c0-0.831 0.669-1.5 1.5-1.5zM4 18h4v8h2.5v-8h4v8h3v-8h4v8h2.5v-8h4v8.269c0.038 0.019 0.075 0.044 0.106 0.069l3 2c0.731 0.488 1.063 1.4 0.806 2.244s-1.031 1.419-1.913 1.419h-28c-0.881 0-1.656-0.575-1.913-1.419s0.069-1.756 0.806-2.244l3-2c0.038-0.025 0.075-0.044 0.112-0.069v-8.269z"/>
</svg>
