<svg version="1.1" xmlns="http://www.w3.org/2000/svg" width="32" height="32" viewBox="0 0 32 32">
<path fill="currentColor" d="M17 0h5c0.55 0 1 0.45 1 1v4c0 0.55-0.45 1-1 1h-5v2h12c1.106 0 2 0.894 2 2s-0.894 2-2 2h-26c-1.106 0-2-0.894-2-2s0.894-2 2-2h12v-7c0-0.55 0.45-1 1-1h1zM4 14h4v12h2.5v-12h4v12h3v-12h4v12h2.5v-12h4v12.269c0.038 0.019 0.075 0.044 0.113 0.069l3 2c0.731 0.488 1.062 1.4 0.806 2.244s-1.038 1.419-1.919 1.419h-28c-0.881 0-1.656-0.575-1.913-1.419s0.069-1.756 0.806-2.244l3-2c0.038-0.025 0.075-0.044 0.112-0.069v-12.269z"/>
</svg>
