<svg version="1.1" xmlns="http://www.w3.org/2000/svg" width="40" height="32" viewBox="0 0 40 32">
<path fill="currentColor" d="M0 8c0-2.206 1.794-4 4-4h32c2.206 0 4 1.794 4 4v16c0 2.206-1.794 4-4 4h-32c-2.206 0-4-1.794-4-4v-16zM20 8v16h16v-16h-16zM11.144 10.994c-0.2-0.45-0.65-0.744-1.144-0.744s-0.944 0.294-1.144 0.744l-4 9c-0.281 0.631 0.006 1.369 0.638 1.65s1.369-0.006 1.65-0.637l0.556-1.256h4.6l0.556 1.256c0.281 0.631 1.019 0.913 1.65 0.637s0.912-1.019 0.637-1.65l-4-9zM10 14.575l1.188 2.675h-2.375l1.188-2.675zM28 10.25c0.688 0 1.25 0.563 1.25 1.25v0.25h3.75c0.688 0 1.25 0.563 1.25 1.25s-0.563 1.25-1.25 1.25h-0.125l-0.1 0.281c-0.556 1.525-1.4 2.913-2.475 4.087 0.056 0.038 0.113 0.069 0.169 0.1l1.181 0.706c0.594 0.356 0.781 1.125 0.431 1.712s-1.125 0.781-1.712 0.431l-1.181-0.706c-0.281-0.169-0.55-0.344-0.819-0.531-0.663 0.469-1.369 0.875-2.125 1.212l-0.225 0.1c-0.631 0.281-1.369-0.006-1.65-0.637s0.006-1.369 0.637-1.65l0.225-0.1c0.4-0.181 0.788-0.381 1.156-0.613l-0.762-0.762c-0.488-0.488-0.488-1.281 0-1.769s1.281-0.488 1.769 0l0.944 0.944c0.775-0.819 1.406-1.769 1.863-2.813h-6.7c-0.688 0-1.25-0.563-1.25-1.25s0.563-1.25 1.25-1.25h3.25v-0.25c0-0.688 0.563-1.25 1.25-1.25z"/>
</svg>
