<svg version="1.1" xmlns="http://www.w3.org/2000/svg" width="40" height="32" viewBox="0 0 40 32">
<path fill="currentColor" d="M4 6c0-2.206 1.794-4 4-4h24c2.206 0 4 1.794 4 4v16h-4v-16h-24v16h-4v-16zM0 25.2c0-0.663 0.537-1.2 1.2-1.2h37.6c0.663 0 1.2 0.538 1.2 1.2 0 2.65-2.15 4.8-4.8 4.8h-30.4c-2.65 0-4.8-2.15-4.8-4.8zM17.563 13.063l-1.938 1.938 1.938 1.938c0.587 0.587 0.587 1.538 0 2.119s-1.538 0.587-2.119 0l-3-3c-0.588-0.588-0.588-1.537 0-2.119l3-3c0.588-0.588 1.537-0.588 2.119 0s0.587 1.537 0 2.119zM24.563 10.938l3 3c0.587 0.588 0.587 1.537 0 2.119l-3 3c-0.587 0.587-1.538 0.587-2.119 0s-0.587-1.538 0-2.119l1.938-1.938-1.938-1.938c-0.587-0.588-0.587-1.537 0-2.119s1.538-0.588 2.119 0z"/>
</svg>
