<svg version="1.1" xmlns="http://www.w3.org/2000/svg" width="40" height="32" viewBox="0 0 40 32">
<path fill="currentColor" d="M4 6c0-2.206 1.794-4 4-4h24c2.206 0 4 1.794 4 4v16h-4v-16h-24v16h-4v-16zM0 25.2c0-0.663 0.537-1.2 1.2-1.2h37.6c0.663 0 1.2 0.538 1.2 1.2 0 2.65-2.15 4.8-4.8 4.8h-30.4c-2.65 0-4.8-2.15-4.8-4.8zM18 10c0-0.55 0.45-1 1-1h2c0.55 0 1 0.45 1 1v3h3c0.55 0 1 0.45 1 1v2c0 0.55-0.45 1-1 1h-3v3c0 0.55-0.45 1-1 1h-2c-0.55 0-1-0.45-1-1v-3h-3c-0.55 0-1-0.45-1-1v-2c0-0.55 0.45-1 1-1h3v-3z"/>
</svg>
