<svg version="1.1" xmlns="http://www.w3.org/2000/svg" width="24" height="32" viewBox="0 0 24 32">
<path fill="currentColor" d="M9 2c1.106 0 2 0.894 2 2v2.044c0.331-0.025 0.662-0.044 1-0.044s0.669 0.013 1 0.044v-2.044c0-1.106 0.894-2 2-2s2 0.894 2 2v3.088c3.431 1.575 5.988 4.719 6.762 8.512 0.219 1.081-0.481 2.138-1.563 2.356s-2.137-0.481-2.356-1.563c-0.381-1.869-1.406-3.494-2.837-4.644v4.25c0 1.106-0.894 2-2 2s-2-0.894-2-2v-5.938c-0.325-0.044-0.662-0.063-1-0.063s-0.675 0.019-1 0.063v5.938c0 1.106-0.894 2-2 2s-2-0.894-2-2v-4.244c-1.838 1.463-3.006 3.719-3.006 6.244 0 4.419 3.581 8 8 8h10c1.106 0 2 0.894 2 2s-0.894 2-2 2h-20c-1.106 0-2-0.894-2-2s0.894-2 2-2h1.056c-1.9-2.125-3.056-4.925-3.056-8 0-4.844 2.869-9.019 7-10.912v-3.088c0-1.106 0.894-2 2-2z"/>
</svg>
