<svg version="1.1" xmlns="http://www.w3.org/2000/svg" width="36" height="32" viewBox="0 0 36 32">
<path fill="currentColor" d="M16.531 0.325c0.931-0.431 2.006-0.431 2.938 0l13.663 6.313c0.531 0.244 0.869 0.775 0.869 1.362s-0.337 1.119-0.869 1.363l-13.663 6.313c-0.931 0.431-2.006 0.431-2.938 0l-13.662-6.313c-0.531-0.25-0.869-0.781-0.869-1.363s0.337-1.119 0.869-1.362l13.662-6.313zM29.806 13.1l3.325 1.537c0.531 0.244 0.869 0.775 0.869 1.363s-0.337 1.119-0.869 1.363l-13.663 6.313c-0.931 0.431-2.006 0.431-2.938 0l-13.662-6.313c-0.531-0.25-0.869-0.781-0.869-1.363s0.337-1.119 0.869-1.363l3.325-1.537 9.5 4.388c1.462 0.675 3.15 0.675 4.613 0l9.5-4.387zM20.306 25.488l9.5-4.387 3.325 1.538c0.531 0.244 0.869 0.775 0.869 1.363s-0.337 1.119-0.869 1.363l-13.663 6.313c-0.931 0.431-2.006 0.431-2.938 0l-13.662-6.313c-0.531-0.25-0.869-0.781-0.869-1.363s0.337-1.119 0.869-1.363l3.325-1.538 9.5 4.387c1.462 0.675 3.15 0.675 4.613 0z"/>
</svg>
