<svg version="1.1" xmlns="http://www.w3.org/2000/svg" width="32" height="32" viewBox="0 0 32 32">
<path fill="currentColor" d="M17 6c-4.912 0-9.069 3.219-10.481 7.656 2.1-1.063 4.469-1.656 6.981-1.656h5.5c0.55 0 1 0.45 1 1s-0.45 1-1 1h-5.5s0 0 0 0c-1.037 0-2.044 0.119-3.012 0.338-1.619 0.369-3.125 1.025-4.463 1.919 0 0 0 0 0 0-3.631 2.419-6.025 6.55-6.025 11.244v1c0 0.831 0.669 1.5 1.5 1.5s1.5-0.669 1.5-1.5v-1c0-3.044 1.294-5.781 3.362-7.7 1.237 4.719 5.531 8.2 10.637 8.2h0.063c8.256-0.044 14.938-8.181 14.938-18.212 0-2.662-0.469-5.194-1.319-7.475-0.163-0.431-0.794-0.413-1.012-0.006-1.175 2.2-3.5 3.694-6.169 3.694h-6.5z"/>
</svg>
