<svg version="1.1" xmlns="http://www.w3.org/2000/svg" width="32" height="32" viewBox="0 0 32 32">
<path fill="currentColor" d="M31.519 17.1c0.306-0.281 0.481-0.681 0.481-1.1s-0.175-0.813-0.481-1.1l-7-6.5c-0.438-0.406-1.075-0.513-1.619-0.275s-0.9 0.781-0.9 1.375v3.5h-12v-3.5c0-0.594-0.356-1.137-0.9-1.375s-1.181-0.131-1.619 0.275l-7 6.5c-0.306 0.287-0.481 0.681-0.481 1.1s0.175 0.813 0.481 1.1l7 6.5c0.438 0.406 1.075 0.512 1.619 0.275s0.9-0.781 0.9-1.375v-3.5h12v3.5c0 0.594 0.356 1.137 0.9 1.375s1.181 0.131 1.619-0.275l7-6.5z"/>
</svg>
