<svg version="1.1" xmlns="http://www.w3.org/2000/svg" width="28" height="32" viewBox="0 0 28 32">
<path fill="currentColor" d="M28 6c0-2.206-1.794-4-4-4-0.413 0-0.813 0.063-1.188 0.181-1.406 0.438-3.006 0.931-4.438 0.563-4.7-1.194-9.775 0.688-13.356 4.269s-5.469 8.662-4.275 13.363c0.363 1.431-0.125 3.025-0.563 4.438-0.119 0.375-0.181 0.775-0.181 1.188 0 2.206 1.794 4 4 4 0.412 0 0.813-0.063 1.194-0.181 1.406-0.438 3.006-0.931 4.438-0.563 4.7 1.194 9.775-0.688 13.356-4.269s5.469-8.656 4.269-13.356c-0.363-1.431 0.125-3.025 0.563-4.438 0.119-0.375 0.181-0.775 0.181-1.194zM13.281 7.963c-3.412 1-6.319 3.906-7.319 7.319-0.156 0.531-0.713 0.831-1.244 0.681s-0.831-0.713-0.681-1.244c1.194-4.069 4.606-7.487 8.681-8.681 0.531-0.156 1.088 0.15 1.244 0.681s-0.15 1.088-0.681 1.244z"/>
</svg>
