<svg version="1.1" xmlns="http://www.w3.org/2000/svg" width="32" height="32" viewBox="0 0 32 32">
<path fill="currentColor" d="M22.95 25.781c-1.956 1.4-4.356 2.219-6.95 2.219s-4.994-0.819-6.95-2.219l3.625-3.625c0.988 0.538 2.125 0.844 3.331 0.844s2.337-0.306 3.331-0.844l3.625 3.625zM28.619 25.831c2.113-2.712 3.375-6.125 3.375-9.831s-1.262-7.119-3.375-9.831c0.563-0.781 0.494-1.881-0.212-2.581s-1.794-0.775-2.575-0.212c-2.712-2.112-6.125-3.375-9.831-3.375s-7.119 1.262-9.831 3.375c-0.781-0.563-1.881-0.494-2.581 0.212s-0.775 1.8-0.212 2.581c-2.112 2.713-3.375 6.125-3.375 9.831s1.262 7.119 3.375 9.831c-0.563 0.781-0.494 1.881 0.212 2.581s1.8 0.775 2.581 0.212c2.713 2.113 6.125 3.375 9.831 3.375s7.119-1.262 9.831-3.375c0.781 0.563 1.881 0.494 2.581-0.212s0.775-1.8 0.212-2.581zM25.775 22.95l-3.625-3.625c0.538-0.988 0.844-2.125 0.844-3.331s-0.306-2.338-0.844-3.331l3.625-3.625c1.406 1.969 2.225 4.369 2.225 6.963s-0.819 4.994-2.219 6.95zM22.95 6.219l-3.625 3.625c-0.988-0.537-2.125-0.844-3.331-0.844s-2.338 0.306-3.331 0.844l-3.625-3.625c1.969-1.4 4.369-2.219 6.963-2.219s4.994 0.819 6.95 2.219zM9.844 19.331l-3.625 3.625c-1.4-1.962-2.219-4.363-2.219-6.956s0.819-4.994 2.219-6.95l3.625 3.625c-0.537 0.988-0.844 2.125-0.844 3.331s0.306 2.337 0.844 3.331zM13 16c0-1.657 1.343-3 3-3s3 1.343 3 3v0c0 1.657-1.343 3-3 3s-3-1.343-3-3v0z"/>
</svg>
