<svg version="1.1" xmlns="http://www.w3.org/2000/svg" width="24" height="32" viewBox="0 0 24 32">
<path fill="currentColor" d="M17 24c0.6-1.994 1.844-3.694 3.075-5.387v0c0.325-0.444 0.65-0.887 0.962-1.337 1.238-1.781 1.962-3.938 1.962-6.269 0-6.081-4.925-11.006-11-11.006s-11 4.925-11 11c0 2.331 0.725 4.494 1.962 6.269 0.313 0.45 0.637 0.894 0.962 1.337v0c1.237 1.694 2.481 3.4 3.075 5.387h10zM12 32c2.762 0 5-2.238 5-5v-1h-10v1c0 2.762 2.238 5 5 5zM7 11c0 0.55-0.45 1-1 1s-1-0.45-1-1c0-3.869 3.131-7 7-7 0.55 0 1 0.45 1 1s-0.45 1-1 1c-2.762 0-5 2.238-5 5z"/>
</svg>
