<svg version="1.1" xmlns="http://www.w3.org/2000/svg" width="24" height="32" viewBox="0 0 24 32">
<path fill="currentColor" d="M11.9 4.631c0.35-1.050-0.219-2.181-1.262-2.531s-2.181 0.219-2.531 1.263l-8 24c-0.35 1.050 0.219 2.181 1.262 2.531s2.181-0.219 2.531-1.262l8-24zM16.331 2.025c-1.088-0.181-2.119 0.556-2.3 1.644l-4 24c-0.181 1.087 0.556 2.119 1.644 2.3s2.119-0.556 2.3-1.644l4-24c0.181-1.087-0.556-2.119-1.644-2.3zM22 2c-1.106 0-2 0.894-2 2v24c0 1.106 0.894 2 2 2s2-0.894 2-2v-24c0-1.106-0.894-2-2-2z"/>
</svg>
