<svg version="1.1" xmlns="http://www.w3.org/2000/svg" width="40" height="32" viewBox="0 0 40 32">
<path fill="currentColor" d="M36.237 16.731c3.531-3.531 3.531-9.25 0-12.781-3.125-3.125-8.050-3.531-11.644-0.962l-0.1 0.069c-0.9 0.644-1.106 1.894-0.462 2.788s1.894 1.106 2.788 0.463l0.1-0.069c2.006-1.431 4.75-1.206 6.488 0.537 1.969 1.969 1.969 5.156 0 7.125l-7.012 7.025c-1.969 1.969-5.156 1.969-7.125 0-1.744-1.744-1.969-4.488-0.538-6.488l0.069-0.1c0.644-0.9 0.431-2.15-0.462-2.787s-2.15-0.431-2.787 0.463l-0.069 0.1c-2.575 3.588-2.169 8.512 0.956 11.637 3.531 3.531 9.25 3.531 12.781 0l7.019-7.019zM3.763 15.269c-3.531 3.531-3.531 9.25 0 12.781 3.125 3.125 8.050 3.531 11.644 0.962l0.1-0.069c0.9-0.644 1.106-1.894 0.463-2.788s-1.894-1.106-2.787-0.462l-0.1 0.069c-2.006 1.431-4.75 1.206-6.487-0.538-1.969-1.975-1.969-5.162 0-7.131l7.013-7.019c1.969-1.969 5.156-1.969 7.125 0 1.744 1.744 1.969 4.488 0.538 6.494l-0.069 0.1c-0.644 0.9-0.431 2.15 0.462 2.788s2.15 0.431 2.788-0.462l0.069-0.1c2.575-3.594 2.169-8.519-0.956-11.644-3.531-3.531-9.25-3.531-12.781 0l-7.019 7.019z"/>
</svg>
