<svg version="1.1" xmlns="http://www.w3.org/2000/svg" width="40" height="32" viewBox="0 0 40 32">
<path fill="currentColor" d="M2.425 0.319c-0.65-0.512-1.594-0.394-2.106 0.256s-0.394 1.594 0.256 2.106l37 29c0.65 0.513 1.594 0.394 2.106-0.256s0.394-1.594-0.256-2.106l-8.844-6.931 5.656-5.656c3.531-3.531 3.531-9.25 0-12.781-3.125-3.125-8.050-3.531-11.644-0.962l-0.1 0.069c-0.9 0.644-1.106 1.894-0.462 2.788s1.894 1.106 2.788 0.463l0.1-0.069c2.006-1.431 4.75-1.206 6.488 0.537 1.969 1.969 1.969 5.156 0 7.125l-6 6-1.994-1.563c1.519-3.363 0.844-7.394-1.85-10.088-3.262-3.269-8.406-3.513-11.956-0.731l-9.181-7.2zM14.938 10.125c1.881-0.931 4.231-0.619 5.8 0.956 1.25 1.25 1.719 3.019 1.356 4.656l-7.156-5.613zM25.413 26.025l-11.606-9.15c-0.131 2.488 0.762 5.006 2.637 6.875 2.431 2.431 5.9 3.188 8.975 2.269zM7.287 11.744l-3.525 3.525c-3.531 3.531-3.531 9.25 0 12.781 3.125 3.125 8.050 3.531 11.644 0.962l0.1-0.069c0.9-0.644 1.106-1.894 0.463-2.788s-1.894-1.106-2.787-0.462l-0.1 0.069c-2.006 1.431-4.75 1.206-6.487-0.538-1.969-1.975-1.969-5.162 0-7.131l3.862-3.863-3.162-2.494z"/>
</svg>
