<svg version="1.1" xmlns="http://www.w3.org/2000/svg" width="20" height="32" viewBox="0 0 20 32">
<path fill="currentColor" d="M7 10.025c0-2.219 1.8-4.025 4.025-4.025 0.431 0 0.863 0.069 1.275 0.206l5.075 1.694c1.050 0.35 2.181-0.219 2.531-1.263s-0.219-2.181-1.262-2.531l-5.081-1.694c-0.819-0.275-1.675-0.413-2.537-0.413-4.431 0-8.025 3.594-8.025 8.025v1.975h-1c-1.106 0-2 0.894-2 2s0.894 2 2 2h1v2h-1c-1.106 0-2 0.894-2 2s0.894 2 2 2h0.875c-0.138 0.656-0.381 1.288-0.731 1.869l-1.856 3.1c-0.369 0.619-0.381 1.387-0.025 2.012s1.019 1.019 1.738 1.019h16c1.106 0 2-0.894 2-2s-0.894-2-2-2h-12.469l0.044-0.069c0.725-1.206 1.181-2.544 1.35-3.931h7.075c1.106 0 2-0.894 2-2s-0.894-2-2-2h-7v-2h7c1.106 0 2-0.894 2-2s-0.894-2-2-2h-7v-1.975z"/>
</svg>
