<svg version="1.1" xmlns="http://www.w3.org/2000/svg" width="32" height="32" viewBox="0 0 32 32">
<path fill="currentColor" d="M9.506 2.388c0.619 0.556 0.669 1.5 0.113 2.119l-4.5 5c-0.275 0.306-0.662 0.488-1.075 0.494s-0.806-0.15-1.1-0.438l-2.506-2.5c-0.581-0.588-0.581-1.537 0-2.125s1.538-0.588 2.119 0l1.381 1.381 3.444-3.825c0.556-0.619 1.5-0.669 2.119-0.112zM9.506 12.387c0.619 0.556 0.669 1.5 0.113 2.119l-4.5 5c-0.275 0.306-0.662 0.488-1.075 0.494s-0.806-0.15-1.1-0.438l-2.506-2.5c-0.588-0.587-0.588-1.537 0-2.119s1.538-0.588 2.119 0l1.381 1.381 3.444-3.825c0.556-0.619 1.5-0.669 2.119-0.113zM14 6c0-1.106 0.894-2 2-2h14c1.106 0 2 0.894 2 2s-0.894 2-2 2h-14c-1.106 0-2-0.894-2-2zM14 16c0-1.106 0.894-2 2-2h14c1.106 0 2 0.894 2 2s-0.894 2-2 2h-14c-1.106 0-2-0.894-2-2zM10 26c0-1.106 0.894-2 2-2h18c1.106 0 2 0.894 2 2s-0.894 2-2 2h-18c-1.106 0-2-0.894-2-2zM3 23c1.657 0 3 1.343 3 3s-1.343 3-3 3v0c-1.657 0-3-1.343-3-3s1.343-3 3-3v0z"/>
</svg>
