<svg version="1.1" xmlns="http://www.w3.org/2000/svg" width="32" height="32" viewBox="0 0 32 32">
<path fill="currentColor" d="M2.5 3c-0.831 0-1.5 0.669-1.5 1.5v3c0 0.831 0.669 1.5 1.5 1.5h3c0.831 0 1.5-0.669 1.5-1.5v-3c0-0.831-0.669-1.5-1.5-1.5h-3zM12 4c-1.106 0-2 0.894-2 2s0.894 2 2 2h18c1.106 0 2-0.894 2-2s-0.894-2-2-2h-18zM12 14c-1.106 0-2 0.894-2 2s0.894 2 2 2h18c1.106 0 2-0.894 2-2s-0.894-2-2-2h-18zM12 24c-1.106 0-2 0.894-2 2s0.894 2 2 2h18c1.106 0 2-0.894 2-2s-0.894-2-2-2h-18zM1 14.5v3c0 0.831 0.669 1.5 1.5 1.5h3c0.831 0 1.5-0.669 1.5-1.5v-3c0-0.831-0.669-1.5-1.5-1.5h-3c-0.831 0-1.5 0.669-1.5 1.5zM2.5 23c-0.831 0-1.5 0.669-1.5 1.5v3c0 0.831 0.669 1.5 1.5 1.5h3c0.831 0 1.5-0.669 1.5-1.5v-3c0-0.831-0.669-1.5-1.5-1.5h-3z"/>
</svg>
