<svg version="1.1" xmlns="http://www.w3.org/2000/svg" width="32" height="32" viewBox="0 0 32 32">
<path fill="currentColor" d="M1.5 3.5c0-0.831 0.669-1.5 1.5-1.5h2c0.831 0 1.5 0.669 1.5 1.5v7.5h1c0.831 0 1.5 0.669 1.5 1.5s-0.669 1.5-1.5 1.5h-5c-0.831 0-1.5-0.669-1.5-1.5s0.669-1.5 1.5-1.5h1v-6h-0.5c-0.831 0-1.5-0.669-1.5-1.5zM5.419 21.325c-0.406-0.462-1.144-0.431-1.5 0.075l-0.7 0.969c-0.481 0.675-1.419 0.831-2.094 0.35s-0.831-1.419-0.35-2.094l0.694-0.975c1.481-2.075 4.519-2.225 6.2-0.306 1.331 1.525 1.3 3.806-0.069 5.294l-2.175 2.363h2.075c0.831 0 1.5 0.669 1.5 1.5s-0.669 1.5-1.5 1.5h-5.5c-0.594 0-1.137-0.35-1.375-0.9s-0.131-1.181 0.269-1.619l4.5-4.875c0.331-0.363 0.338-0.913 0.019-1.281zM14 4h16c1.106 0 2 0.894 2 2s-0.894 2-2 2h-16c-1.106 0-2-0.894-2-2s0.894-2 2-2zM14 14h16c1.106 0 2 0.894 2 2s-0.894 2-2 2h-16c-1.106 0-2-0.894-2-2s0.894-2 2-2zM14 24h16c1.106 0 2 0.894 2 2s-0.894 2-2 2h-16c-1.106 0-2-0.894-2-2s0.894-2 2-2z"/>
</svg>
