<svg version="1.1" xmlns="http://www.w3.org/2000/svg" width="32" height="32" viewBox="0 0 32 32">
<path fill="currentColor" d="M4 9c1.657 0 3-1.343 3-3s-1.343-3-3-3v0c-1.657 0-3 1.343-3 3s1.343 3 3 3v0zM12 4c-1.106 0-2 0.894-2 2s0.894 2 2 2h18c1.106 0 2-0.894 2-2s-0.894-2-2-2h-18zM12 14c-1.106 0-2 0.894-2 2s0.894 2 2 2h18c1.106 0 2-0.894 2-2s-0.894-2-2-2h-18zM12 24c-1.106 0-2 0.894-2 2s0.894 2 2 2h18c1.106 0 2-0.894 2-2s-0.894-2-2-2h-18zM4 29c1.657 0 3-1.343 3-3s-1.343-3-3-3v0c-1.657 0-3 1.343-3 3s1.343 3 3 3v0zM7 16c0-1.657-1.343-3-3-3s-3 1.343-3 3v0c0 1.657 1.343 3 3 3s3-1.343 3-3v0z"/>
</svg>
