<svg version="1.1" xmlns="http://www.w3.org/2000/svg" width="32" height="32" viewBox="0 0 32 32">
<path fill="currentColor" d="M13.481 31.2c0.688-0.863 1.569-1.981 2.519-3.269v-5.931c0-1.481 0.806-2.775 2-3.462v-1.538c0-3.475 2.531-6.356 5.85-6.906-0.913-5.719-5.869-10.094-11.85-10.094-6.625 0-12 5.375-12 12 0 5.462 7.313 15.188 10.519 19.2 0.769 0.956 2.194 0.956 2.963 0zM12 8c2.209 0 4 1.791 4 4s-1.791 4-4 4v0c-2.209 0-4-1.791-4-4s1.791-4 4-4v0zM25 15c1.106 0 2 0.894 2 2v3h-4v-3c0-1.106 0.894-2 2-2zM20 17v3c-1.106 0-2 0.894-2 2v8c0 1.106 0.894 2 2 2h10c1.106 0 2-0.894 2-2v-8c0-1.106-0.894-2-2-2v-3c0-2.762-2.238-5-5-5s-5 2.238-5 5z"/>
</svg>
