<svg version="1.1" xmlns="http://www.w3.org/2000/svg" width="32" height="32" viewBox="0 0 32 32">
<path fill="currentColor" d="M16 0c1.106 0 2 0.894 2 2v2.169c5.025 0.838 8.994 4.806 9.831 9.831h2.169c1.106 0 2 0.894 2 2s-0.894 2-2 2h-2.169c-0.837 5.025-4.806 8.994-9.831 9.831v2.169c0 1.106-0.894 2-2 2s-2-0.894-2-2v-2.169c-5.025-0.837-8.994-4.806-9.831-9.831h-2.169c-1.106 0-2-0.894-2-2s0.894-2 2-2h2.169c0.838-5.025 4.806-8.994 9.831-9.831v-2.169c0-1.106 0.894-2 2-2zM8 16c0 4.418 3.582 8 8 8s8-3.582 8-8v0c0-4.418-3.582-8-8-8s-8 3.582-8 8v0zM16 11c2.761 0 5 2.239 5 5s-2.239 5-5 5v0c-2.761 0-5-2.239-5-5s2.239-5 5-5v0z"/>
</svg>
