<svg version="1.1" xmlns="http://www.w3.org/2000/svg" width="36" height="32" viewBox="0 0 36 32">
<path fill="currentColor" d="M19.5 2c-0.831 0-1.5 0.669-1.5 1.5s0.669 1.5 1.5 1.5h1c6.169 0 11.288 4.463 12.313 10.338-0.563-0.219-1.175-0.338-1.813-0.338h-4.012l-2.613-6.094c-0.212-0.494-0.675-0.838-1.206-0.9s-1.063 0.169-1.381 0.6l-2.556 3.469-1.356-3.169c-0.206-0.488-0.656-0.825-1.181-0.894s-1.044 0.144-1.375 0.556l-15 19c-0.512 0.65-0.4 1.594 0.25 2.106s1.594 0.4 2.106-0.25l4.963-6.281 2.688 1.025-2.531 3.438c-0.494 0.669-0.35 1.606 0.319 2.1s1.606 0.35 2.1-0.319l3.231-4.387h4.656l-1.831 2.644c-0.469 0.681-0.3 1.613 0.381 2.087s1.613 0.3 2.087-0.381l3.012-4.35h5.025l2.425 4.244c0.413 0.719 1.325 0.969 2.044 0.556s0.969-1.325 0.556-2.044l-1.575-2.756h0.775c2.756 0 4.988-2.231 5-4.981 0-0.006 0-0.012 0-0.019v-2.5c0-8.563-6.938-15.5-15.5-15.5h-1zM22.656 12.5l1.069 2.5h-2.913l1.844-2.5zM17.175 14.881l-0.087 0.119h-3.019l2.044-2.594 1.056 2.469zM5.55 15c-1.962 0-3.55 1.587-3.55 3.55 0 0.969 0.394 1.875 1.056 2.525l4.862-6.075h-2.369zM31 18c0.552 0 1 0.448 1 1s-0.448 1-1 1v0c-0.552 0-1-0.448-1-1s0.448-1 1-1v0z"/>
</svg>
