<svg version="1.1" xmlns="http://www.w3.org/2000/svg" width="40" height="32" viewBox="0 0 40 32">
<path fill="currentColor" d="M20 0c1.106 0 2 0.894 2 2v7.762c-0.531-0.475-1.231-0.762-2-0.762s-1.469 0.287-2 0.762v-7.763c0-1.106 0.894-2 2-2zM27.781 12.219c-1.025-1.025-2.613-1.156-3.781-0.381v-1.506c0-2.394 1.938-4.331 4.331-4.331 1.356 0 2.675 0.638 3.488 1.8 0.962 1.381 2.769 4.088 4.438 7.306 1.656 3.181 3.275 7.031 3.725 10.644 0.013 0.081 0.013 0.163 0.013 0.25v0.438c0 3.069-2.487 5.563-5.563 5.563-0.456 0-0.906-0.056-1.35-0.169l-4.544-1.137c-1.306-0.325-2.419-1.069-3.219-2.056 0.875 0.094 1.781-0.188 2.45-0.863v0c1.169-1.169 1.169-3.069 0-4.244-0.069-0.069-0.087-0.125-0.094-0.156-0.006-0.050-0.006-0.113 0.025-0.181s0.075-0.119 0.113-0.144c0.031-0.019 0.081-0.050 0.181-0.050 1.656 0 3-1.344 3-3s-1.344-3-3-3c-0.1 0-0.15-0.025-0.181-0.050-0.038-0.025-0.081-0.075-0.113-0.144s-0.031-0.137-0.025-0.181c0.006-0.038 0.025-0.087 0.094-0.156 1.169-1.169 1.169-3.069 0-4.244zM26.363 26.363c-0.387 0.387-1.025 0.387-1.413 0-1.456-1.456-3.95-0.425-3.95 1.637 0 0.55-0.45 1-1 1s-1-0.45-1-1c0-2.063-2.494-3.094-3.95-1.637-0.387 0.387-1.025 0.387-1.412 0s-0.387-1.025 0-1.413c1.456-1.456 0.425-3.95-1.637-3.95-0.55 0-1-0.45-1-1s0.45-1 1-1c2.063 0 3.094-2.494 1.637-3.95-0.387-0.387-0.387-1.025 0-1.412s1.025-0.387 1.412 0c1.456 1.456 3.95 0.425 3.95-1.637 0-0.55 0.45-1 1-1s1 0.45 1 1c0 2.063 2.494 3.094 3.95 1.637 0.387-0.387 1.025-0.387 1.413 0s0.387 1.025 0 1.412c-1.456 1.456-0.425 3.95 1.637 3.95 0.55 0 1 0.45 1 1s-0.45 1-1 1c-2.063 0-3.094 2.494-1.637 3.95 0.387 0.387 0.387 1.025 0 1.413zM11.456 30.7l-4.544 1.137c-0.444 0.113-0.894 0.169-1.35 0.169-3.069 0-5.563-2.488-5.563-5.563v-0.438c0-0.081 0.006-0.169 0.013-0.25 0.45-3.619 2.069-7.462 3.725-10.644 1.675-3.219 3.475-5.925 4.438-7.306 0.813-1.162 2.125-1.8 3.488-1.8 2.4-0.006 4.337 1.931 4.337 4.325v1.506c-1.162-0.775-2.75-0.644-3.781 0.381-1.169 1.169-1.169 3.069 0 4.244 0.069 0.069 0.088 0.125 0.094 0.156 0.006 0.050 0.006 0.113-0.025 0.181s-0.075 0.119-0.113 0.144c-0.031 0.019-0.081 0.050-0.181 0.050-1.656 0-3 1.344-3 3s1.344 3 3 3c0.1 0 0.15 0.025 0.181 0.050 0.037 0.025 0.081 0.075 0.113 0.144s0.031 0.137 0.025 0.181c-0.006 0.038-0.025 0.087-0.094 0.156-1.169 1.169-1.169 3.069 0 4.244 0.669 0.669 1.581 0.956 2.45 0.863-0.8 0.994-1.912 1.731-3.219 2.056zM18.5 20c0.828 0 1.5-0.672 1.5-1.5s-0.672-1.5-1.5-1.5v0c-0.828 0-1.5 0.672-1.5 1.5s0.672 1.5 1.5 1.5v0zM23 22c0-0.552-0.448-1-1-1s-1 0.448-1 1v0c0 0.552 0.448 1 1 1s1-0.448 1-1v0z"/>
</svg>
