<svg version="1.1" xmlns="http://www.w3.org/2000/svg" width="40" height="32" viewBox="0 0 40 32">
<path fill="currentColor" d="M20 0c1.106 0 2 0.894 2 2v8.256c0 1.025 0.525 1.981 1.387 2.531l0.613 0.387v-2.844c0-2.394 1.938-4.331 4.331-4.331 1.356 0 2.675 0.638 3.488 1.8 0.962 1.381 2.769 4.088 4.438 7.306 1.656 3.181 3.275 7.031 3.725 10.644 0.013 0.081 0.013 0.163 0.013 0.25v0.438c0 3.069-2.487 5.563-5.563 5.563-0.456 0-0.906-0.056-1.35-0.169l-4.544-1.137c-2.663-0.663-4.537-3.063-4.537-5.819v-4.563l5.656 3.6c0.469 0.294 1.081 0.156 1.381-0.306s0.156-1.081-0.306-1.381l-6.731-4.281v-0.025l-2.756-1.756c-0.456-0.287-0.869-0.631-1.244-1.006-0.369 0.375-0.788 0.719-1.244 1.006l-9.525 6.063c0 0 0 0-0.006 0-0.463 0.3-0.6 0.913-0.3 1.381 0.294 0.469 0.912 0.606 1.381 0.306l5.694-3.625v4.587c0 2.756-1.875 5.156-4.544 5.819l-4.544 1.137c-0.444 0.113-0.894 0.169-1.35 0.169-3.069 0-5.563-2.488-5.563-5.563v-0.438c0-0.081 0.006-0.169 0.013-0.25 0.45-3.619 2.069-7.462 3.725-10.644 1.675-3.219 3.475-5.925 4.438-7.306 0.813-1.162 2.125-1.8 3.488-1.8 2.4 0 4.338 1.938 4.338 4.331v2.844l0.613-0.387c0.863-0.55 1.387-1.506 1.387-2.531v-8.256c0-1.106 0.894-2 2-2z"/>
</svg>
