<svg version="1.1" xmlns="http://www.w3.org/2000/svg" width="32" height="32" viewBox="0 0 32 32">
<path fill="currentColor" d="M26 13c0 2.869-0.931 5.519-2.5 7.669l7.913 7.919c0.781 0.781 0.781 2.050 0 2.831s-2.050 0.781-2.831 0l-7.912-7.919c-2.15 1.575-4.8 2.5-7.669 2.5-7.181 0-13-5.819-13-13s5.819-13 13-13 13 5.819 13 13zM15.063 7.438c-0.588-0.588-1.537-0.588-2.119 0s-0.588 1.537 0 2.119l1.938 1.938h-7.381c-0.831 0-1.5 0.669-1.5 1.5s0.669 1.5 1.5 1.5h7.381l-1.938 1.937c-0.588 0.587-0.588 1.538 0 2.119s1.537 0.587 2.119 0l4.5-4.5c0.587-0.588 0.587-1.537 0-2.119l-4.5-4.5z"/>
</svg>
