<svg version="1.1" xmlns="http://www.w3.org/2000/svg" width="32" height="32" viewBox="0 0 32 32">
<path fill="currentColor" d="M26 13c0 2.869-0.931 5.519-2.5 7.669l7.913 7.919c0.781 0.781 0.781 2.050 0 2.831s-2.050 0.781-2.831 0l-7.912-7.919c-2.15 1.575-4.8 2.5-7.669 2.5-7.181 0-13-5.819-13-13s5.819-13 13-13 13 5.819 13 13zM14.25 6.5c0-0.688-0.563-1.25-1.25-1.25s-1.25 0.563-1.25 1.25v0.875c-0.475 0.106-0.95 0.275-1.387 0.531-0.869 0.519-1.619 1.425-1.613 2.744 0.006 1.269 0.75 2.069 1.544 2.544 0.688 0.412 1.544 0.675 2.225 0.875l0.106 0.031c0.787 0.238 1.363 0.425 1.75 0.669 0.319 0.2 0.363 0.338 0.369 0.512 0.006 0.313-0.113 0.5-0.369 0.656-0.313 0.194-0.806 0.313-1.338 0.294-0.694-0.025-1.344-0.244-2.194-0.531-0.144-0.050-0.294-0.1-0.45-0.15-0.656-0.219-1.363 0.137-1.581 0.787s0.137 1.363 0.787 1.581c0.119 0.038 0.25 0.081 0.381 0.131v0 0c0.519 0.181 1.119 0.387 1.762 0.525v0.925c0 0.688 0.563 1.25 1.25 1.25s1.25-0.563 1.25-1.25v-0.863c0.5-0.106 1-0.281 1.45-0.563 0.894-0.556 1.569-1.506 1.55-2.813-0.019-1.269-0.731-2.088-1.537-2.6-0.719-0.45-1.619-0.725-2.319-0.938l-0.044-0.012c-0.8-0.244-1.369-0.419-1.769-0.656-0.325-0.194-0.331-0.306-0.331-0.419 0-0.231 0.088-0.406 0.387-0.581 0.338-0.2 0.85-0.319 1.344-0.313 0.6 0.006 1.262 0.137 1.95 0.325 0.669 0.175 1.35-0.219 1.531-0.887s-0.219-1.35-0.887-1.531c-0.406-0.106-0.856-0.213-1.319-0.294v-0.856z"/>
</svg>
