<svg version="1.1" xmlns="http://www.w3.org/2000/svg" width="32" height="32" viewBox="0 0 32 32">
<path fill="currentColor" d="M26 13c0 2.869-0.931 5.519-2.5 7.669l7.913 7.919c0.781 0.781 0.781 2.050 0 2.831s-2.050 0.781-2.831 0l-7.912-7.919c-2.15 1.575-4.8 2.5-7.669 2.5-7.181 0-13-5.819-13-13s5.819-13 13-13 13 5.819 13 13zM6.5 13.5v4c0 0.831 0.669 1.5 1.5 1.5s1.5-0.669 1.5-1.5v-4c0-0.831-0.669-1.5-1.5-1.5s-1.5 0.669-1.5 1.5zM11.5 7.5v10c0 0.831 0.669 1.5 1.5 1.5s1.5-0.669 1.5-1.5v-10c0-0.831-0.669-1.5-1.5-1.5s-1.5 0.669-1.5 1.5zM16.5 11.5v6c0 0.831 0.669 1.5 1.5 1.5s1.5-0.669 1.5-1.5v-6c0-0.831-0.669-1.5-1.5-1.5s-1.5 0.669-1.5 1.5z"/>
</svg>
