<svg version="1.1" xmlns="http://www.w3.org/2000/svg" width="32" height="32" viewBox="0 0 32 32">
<path fill="currentColor" d="M26 13c0 2.869-0.931 5.519-2.5 7.669l7.913 7.919c0.781 0.781 0.781 2.050 0 2.831s-2.050 0.781-2.831 0l-7.912-7.919c-2.15 1.575-4.8 2.5-7.669 2.5-7.181 0-13-5.819-13-13s5.819-13 13-13 13 5.819 13 13zM18 11c0-2.762-2.238-5-5-5s-5 2.238-5 5c0 3.050 2.906 6.975 4.287 8.663 0.375 0.456 1.050 0.456 1.419 0 1.381-1.688 4.287-5.613 4.287-8.662zM11 11c0-1.105 0.895-2 2-2s2 0.895 2 2v0c0 1.105-0.895 2-2 2s-2-0.895-2-2v0z"/>
</svg>
