<svg version="1.1" xmlns="http://www.w3.org/2000/svg" width="36" height="32" viewBox="0 0 36 32">
<path fill="currentColor" d="M25.5 7.5c0 3.412-4.569 9.494-6.575 12-0.481 0.6-1.375 0.6-1.85 0-2.006-2.506-6.575-8.588-6.575-12 0-4.144 3.356-7.5 7.5-7.5s7.5 3.356 7.5 7.5zM26 12.525c0.219-0.431 0.419-0.863 0.6-1.287 0.031-0.075 0.063-0.156 0.094-0.231l7.25-2.9c0.987-0.394 2.056 0.331 2.056 1.394v16.925c0 0.613-0.375 1.163-0.944 1.394l-9.056 3.619v-18.913zM8.6 8.644c0.15 0.881 0.45 1.769 0.8 2.594 0.181 0.425 0.381 0.856 0.6 1.287v15.713l-7.944 3.181c-0.988 0.394-2.056-0.331-2.056-1.394v-16.925c0-0.613 0.375-1.162 0.944-1.394l7.662-3.063zM20.488 20.75c0.869-1.087 2.231-2.856 3.512-4.813v15.581l-12-3.431v-12.15c1.281 1.956 2.644 3.725 3.512 4.812 1.281 1.6 3.694 1.6 4.975 0zM18 9.5c1.381 0 2.5-1.119 2.5-2.5s-1.119-2.5-2.5-2.5v0c-1.381 0-2.5 1.119-2.5 2.5s1.119 2.5 2.5 2.5v0z"/>
</svg>
