<svg version="1.1" xmlns="http://www.w3.org/2000/svg" width="36" height="32" viewBox="0 0 36 32">
<path fill="currentColor" d="M18.925 19.5c2.006-2.506 6.575-8.588 6.575-12 0-4.144-3.356-7.5-7.5-7.5s-7.5 3.356-7.5 7.5c0 3.412 4.569 9.494 6.575 12 0.481 0.6 1.375 0.6 1.85 0zM26 31.438l9.056-3.625c0.569-0.225 0.944-0.781 0.944-1.394v-16.919c0-1.063-1.069-1.787-2.056-1.394l-7.25 2.9c-0.031 0.075-0.063 0.156-0.094 0.231-0.181 0.425-0.381 0.856-0.6 1.287v18.913zM0.944 11.706c-0.569 0.231-0.944 0.781-0.944 1.394v16.925c0 1.063 1.069 1.788 2.056 1.394l7.944-3.181v-15.713c-0.219-0.431-0.419-0.863-0.6-1.287-0.35-0.825-0.65-1.713-0.8-2.594l-7.662 3.063zM24 15.938c-1.281 1.956-2.644 3.725-3.512 4.813-1.281 1.6-3.694 1.6-4.975 0-0.869-1.087-2.231-2.856-3.513-4.813v12.15l12 3.431v-15.581z"/>
</svg>
