<svg version="1.1" xmlns="http://www.w3.org/2000/svg" width="32" height="32" viewBox="0 0 32 32">
<path fill="currentColor" d="M30.063 1.938c-2.244-2.237-5.881-2.237-8.125 0l-0.938 0.938-0.819-0.813c-1.756-1.756-4.606-1.756-6.363 0l-5.381 5.375c-0.588 0.588-0.588 1.537 0 2.119s1.537 0.588 2.119 0l5.381-5.375c0.588-0.587 1.537-0.587 2.119 0l0.825 0.819-7.238 7.231 8.125 8.125 10.294-10.294c2.244-2.244 2.244-5.881 0-8.119zM18.356 21.769l-8.125-8.125-4.013 4.012c-3 3-5.050 6.825-5.881 10.988l-0.313 1.563c-0.1 0.494 0.056 1 0.412 1.356s0.862 0.506 1.356 0.413l1.563-0.313c4.162-0.831 7.988-2.881 10.988-5.881l4.012-4.012z"/>
</svg>
