<svg version="1.1" xmlns="http://www.w3.org/2000/svg" width="40" height="32" viewBox="0 0 40 32">
<path fill="currentColor" d="M19.5 2c-0.606 0-1.156 0.362-1.387 0.925s-0.106 1.206 0.325 1.638l2.087 2.088-3.288 3.287c-1.775-1.219-3.919-1.938-6.238-1.938-6.075 0-11 4.925-11 11s4.925 11 11 11 11-4.925 11-11c0-2.313-0.712-4.463-1.938-6.238l3.288-3.287 2.087 2.088c0.431 0.431 1.075 0.556 1.637 0.325s0.925-0.781 0.925-1.387v-7c0-0.831-0.669-1.5-1.5-1.5h-7zM25 5v0 0 0zM4 19c0-3.866 3.134-7 7-7s7 3.134 7 7v0c0 3.866-3.134 7-7 7s-7-3.134-7-7v0zM23 30c6.075 0 11-4.925 11-11 0-2.313-0.712-4.463-1.938-6.238l3.288-3.287 2.087 2.088c0.431 0.431 1.075 0.556 1.638 0.325s0.925-0.781 0.925-1.387v-7c0-0.831-0.669-1.5-1.5-1.5h-7c-0.606 0-1.156 0.362-1.387 0.925-0.075 0.181-0.113 0.375-0.113 0.563v0.025c0 0.388 0.156 0.762 0.438 1.050l2.087 2.088-2.525 2.519v1.331c0 1.412-0.85 2.694-2.163 3.231-0.050 0.019-0.106 0.044-0.156 0.063 1.425 1.281 2.319 3.137 2.319 5.206 0 3.869-3.131 7-7 7-0.337 0-0.675-0.025-1-0.069-0.806 1.275-1.819 2.394-3.006 3.319 1.238 0.488 2.587 0.75 4 0.75z"/>
</svg>
