<svg version="1.1" xmlns="http://www.w3.org/2000/svg" width="32" height="32" viewBox="0 0 32 32">
<path fill="currentColor" d="M23.5 0c-0.606 0-1.156 0.362-1.387 0.925s-0.106 1.206 0.325 1.637l2.087 2.088-1.381 1.375-1.581-1.588c-0.587-0.587-1.538-0.587-2.119 0s-0.587 1.537 0 2.119l1.587 1.588-1.794 1.794c-1.775-1.219-3.919-1.938-6.238-1.938-6.075 0-11 4.925-11 11s4.925 11 11 11 11-4.925 11-11c0-2.313-0.712-4.463-1.938-6.238l1.788-1.787 1.587 1.588c0.587 0.588 1.538 0.588 2.119 0s0.587-1.537 0-2.119l-1.587-1.588 1.381-1.381 2.087 2.088c0.431 0.431 1.075 0.556 1.637 0.325s0.925-0.781 0.925-1.387v-7c0-0.831-0.669-1.5-1.5-1.5h-7zM29 3v0 0 0zM6 19c0-3.866 3.134-7 7-7s7 3.134 7 7v0c0 3.866-3.134 7-7 7s-7-3.134-7-7v0z"/>
</svg>
