<svg version="1.1" xmlns="http://www.w3.org/2000/svg" width="32" height="32" viewBox="0 0 32 32">
<path fill="currentColor" d="M21.113 0.925c0.231-0.563 0.781-0.925 1.387-0.925h7c0.831 0 1.5 0.669 1.5 1.5v7c0 0.606-0.363 1.156-0.925 1.387s-1.206 0.106-1.637-0.325l-2.438-2.438-1.544 1.544c0.981 1.537 1.544 3.369 1.544 5.331 0 5.012-3.694 9.169-8.506 9.887 0 0.038 0.006 0.075 0.006 0.113v1.488h1.5c0.831 0 1.5 0.669 1.5 1.5s-0.669 1.5-1.5 1.5h-1.5v1.994h-3v-1.981h-1.5c-0.831 0-1.5-0.669-1.5-1.5s0.669-1.5 1.5-1.5h1.5v-1.5c0-0.038 0-0.075 0.006-0.113-4.813-0.719-8.506-4.875-8.506-9.887 0-5.525 4.475-10 10-10 2.475 0 4.744 0.9 6.488 2.388l1.394-1.388-2.444-2.438c-0.431-0.431-0.556-1.075-0.325-1.637zM28 3v0 0 0zM16 30.5h1.5c0 0.831-0.669 1.5-1.5 1.5s-1.5-0.669-1.5-1.5h1.5zM22 14c0-3.314-2.686-6-6-6s-6 2.686-6 6v0c0 3.314 2.686 6 6 6s6-2.686 6-6v0z"/>
</svg>
