<svg version="1.1" xmlns="http://www.w3.org/2000/svg" width="28" height="32" viewBox="0 0 28 32">
<path fill="currentColor" d="M18.113 2.925c0.231-0.563 0.781-0.925 1.387-0.925h7c0.831 0 1.5 0.669 1.5 1.5v7c0 0.606-0.363 1.156-0.925 1.387s-1.206 0.106-1.637-0.325l-2.087-2.088-3.288 3.287c1.219 1.775 1.938 3.919 1.938 6.238 0 6.075-4.925 11-11 11s-11-4.925-11-11 4.925-11 11-11c2.313 0 4.463 0.713 6.238 1.938l3.288-3.287-2.087-2.088c-0.431-0.431-0.556-1.075-0.325-1.638zM25 5v0 0 0zM11 26c3.866 0 7-3.134 7-7s-3.134-7-7-7v0c-3.866 0-7 3.134-7 7s3.134 7 7 7v0z"/>
</svg>
