<svg version="1.1" xmlns="http://www.w3.org/2000/svg" width="20" height="32" viewBox="0 0 20 32">
<path fill="currentColor" d="M9.294 0.294c0.387-0.388 1.025-0.388 1.412 0l4 4c0.287 0.287 0.369 0.719 0.219 1.087s-0.519 0.619-0.925 0.619h-2.5v1.5h2c0.831 0 1.5 0.669 1.5 1.5s-0.669 1.5-1.5 1.5h-2v1.5c0 0.037 0 0.075-0.006 0.113 4.813 0.725 8.506 4.875 8.506 9.887 0 5.525-4.475 10-10 10s-10-4.475-10-10c0-5.012 3.694-9.169 8.506-9.887 0-0.037-0.006-0.075-0.006-0.113v-1.5h-2c-0.831 0-1.5-0.669-1.5-1.5s0.669-1.5 1.5-1.5h2v-1.5h-2.5c-0.406 0-0.769-0.244-0.925-0.619s-0.069-0.806 0.219-1.088l4-4zM16 22c0-3.314-2.686-6-6-6s-6 2.686-6 6v0c0 3.314 2.686 6 6 6s6-2.686 6-6v0z"/>
</svg>
