<svg version="1.1" xmlns="http://www.w3.org/2000/svg" width="40" height="32" viewBox="0 0 40 32">
<path fill="currentColor" d="M13 23c3.866 0 7-3.134 7-7s-3.134-7-7-7v0c-3.866 0-7 3.134-7 7s3.134 7 7 7v0zM23.9 17.5c-0.731 5.363-5.331 9.5-10.9 9.5-6.075 0-11-4.925-11-11s4.925-11 11-11c5.569 0 10.169 4.137 10.9 9.5h2.1v-3.5c0-0.831 0.669-1.5 1.5-1.5s1.5 0.669 1.5 1.5v3.5h2v-3.5c0-0.606 0.363-1.156 0.925-1.387s1.206-0.106 1.637 0.325l5 5c0.587 0.588 0.587 1.538 0 2.119l-5 5c-0.431 0.431-1.075 0.556-1.637 0.325s-0.925-0.781-0.925-1.387v-3.494h-2v3.5c0 0.831-0.669 1.5-1.5 1.5s-1.5-0.669-1.5-1.5v-3.5h-2.1z"/>
</svg>
