<svg version="1.1" xmlns="http://www.w3.org/2000/svg" width="40" height="32" viewBox="0 0 40 32">
<path fill="currentColor" d="M31.5 0c-0.606 0-1.156 0.362-1.387 0.925s-0.106 1.206 0.325 1.637l2.438 2.438-1.387 1.388c-1.744-1.487-4.012-2.388-6.488-2.388-5.525 0-10 4.475-10 10 0 5.012 3.694 9.169 8.506 9.887 0 0.038-0.006 0.075-0.006 0.113v1.488h-1.5c-0.831 0-1.5 0.669-1.5 1.5s0.669 1.5 1.5 1.5h1.5v1.994c0 0.831 0.669 1.5 1.5 1.5s1.5-0.669 1.5-1.5v0-1.981h1.5c0.831 0 1.5-0.669 1.5-1.5s-0.669-1.5-1.5-1.5h-1.5v-1.5c0-0.038 0-0.075-0.006-0.113 4.813-0.725 8.506-4.875 8.506-9.887 0-1.963-0.563-3.794-1.544-5.338l1.544-1.544 2.438 2.437c0.431 0.431 1.075 0.556 1.638 0.325s0.925-0.781 0.925-1.387v-6.994c0-0.831-0.669-1.5-1.5-1.5h-7zM25 8c3.314 0 6 2.686 6 6s-2.686 6-6 6v0c-3.314 0-6-2.686-6-6s2.686-6 6-6v0zM11.931 1.131c-0.156-0.381-0.519-0.631-0.931-0.631s-0.775 0.25-0.931 0.631l-1.838 4.625-4.756-1.45c-0.394-0.119-0.819 0.013-1.075 0.331s-0.288 0.763-0.087 1.119l2.469 4.319-4.1 2.825c-0.338 0.231-0.5 0.644-0.406 1.044s0.419 0.7 0.819 0.762l4.919 0.762-0.35 4.969c-0.031 0.406 0.194 0.794 0.563 0.969s0.806 0.113 1.112-0.163l3.663-3.363 3.662 3.369c0.256 0.238 0.619 0.319 0.95 0.225-1.637-2.050-2.613-4.65-2.613-7.475 0-3.8 1.769-7.188 4.525-9.387l-3.756 1.144-1.838-4.625z"/>
</svg>
