<svg version="1.1" xmlns="http://www.w3.org/2000/svg" width="36" height="32" viewBox="0 0 36 32">
<path fill="currentColor" d="M27 15c3.313 0 6-2.688 6-6s-2.688-6-6-6c-2.219 0-4.163 1.206-5.2 3h-3.288c1.238-3.494 4.569-6 8.488-6 4.969 0 9 4.031 9 9s-4.031 9-9 9c-1.731 0-3.344-0.488-4.719-1.331l2.212-2.213c0.762 0.35 1.613 0.544 2.506 0.544zM0.113 8.925c0.231-0.563 0.781-0.925 1.387-0.925h23c0.606 0 1.156 0.363 1.387 0.925s0.106 1.206-0.325 1.637l-11.063 11.063v7.375h4c0.831 0 1.5 0.669 1.5 1.5s-0.669 1.5-1.5 1.5h-11c-0.831 0-1.5-0.669-1.5-1.5s0.669-1.5 1.5-1.5h4v-7.381l-11.063-11.056c-0.431-0.431-0.556-1.075-0.325-1.637z"/>
</svg>
