<svg version="1.1" xmlns="http://www.w3.org/2000/svg" width="40" height="32" viewBox="0 0 40 32">
<path fill="currentColor" d="M20 4c-1.7 0-3.363 0.5-4.775 1.444l-2.319 1.55c-0.988 0.656-2.144 1.006-3.331 1.006h-6.075c-1.931 0-3.5 1.569-3.5 3.5v5.313c0 3.444 2.344 6.444 5.681 7.275l6.75 1.688c2.181 1.413 4.781 2.225 7.569 2.225s5.387-0.813 7.569-2.219l6.75-1.688c3.337-0.837 5.681-3.837 5.681-7.281v-5.313c0-1.931-1.569-3.5-3.5-3.5h-6.075c-1.188 0-2.344-0.35-3.331-1.006l-2.319-1.55c-1.413-0.944-3.075-1.444-4.775-1.444zM8.269 21.644l-1.862-0.462c-2-0.5-3.406-2.3-3.406-4.369v-5.313c0-0.275 0.225-0.5 0.5-0.5h2.5v3c0 2.819 0.838 5.45 2.269 7.644zM33.587 21.181l-1.863 0.462c1.437-2.2 2.269-4.825 2.269-7.644v-3h2.5c0.275 0 0.5 0.225 0.5 0.5v5.313c0 2.063-1.406 3.863-3.406 4.369zM12 13c0-0.55 0.45-1 1-1h14c0.55 0 1 0.45 1 1s-0.45 1-1 1h-14c-0.55 0-1-0.45-1-1zM13 16h14c0.55 0 1 0.45 1 1s-0.45 1-1 1h-14c-0.55 0-1-0.45-1-1s0.45-1 1-1zM14 21c0-0.55 0.45-1 1-1h10c0.55 0 1 0.45 1 1s-0.45 1-1 1h-10c-0.55 0-1-0.45-1-1z"/>
</svg>
