<svg version="1.1" xmlns="http://www.w3.org/2000/svg" width="40" height="32" viewBox="0 0 40 32">
<path fill="currentColor" d="M4.662 23.325c2.606 2.256 6.75 5.156 10.381 4.606 0.381-0.056 0.756-0.156 1.125-0.281-0.575-0.769-1.081-1.525-1.512-2.212-1.369-2.188-1.8-4.7-1.619-7.1-1.287 0.256-2.45 0.813-3.419 1.587-0.406 0.325-1.019 0.081-0.925-0.438 0.4-2.094 2.063-3.806 4.262-4.144 0.162-0.025 0.331-0.044 0.494-0.050l1.213-8.206c0.125-0.862 0.5-2.044 1.563-2.869 1.163-0.894 3.181-1.906 6.475-2.206-0.050-0.044-0.1-0.087-0.15-0.131-1.262-0.975-4.525-2.6-11.569-1.531s-9.7 3.587-10.625 4.894c-0.356 0.5-0.406 1.131-0.319 1.744l1.513 10.269c0.344 2.331 1.344 4.538 3.113 6.075zM10.144 9.6c0.275-0.194 0.675-0.125 0.738 0.206 0.006 0.031 0.012 0.069 0.019 0.1 0.2 1.363-0.725 2.625-2.069 2.831s-2.594-0.738-2.794-2.094c-0.006-0.031-0.006-0.069-0.013-0.1-0.037-0.338 0.325-0.525 0.644-0.419 0.563 0.188 1.175 0.244 1.794 0.15s1.194-0.331 1.675-0.675zM16.35 24.375c1.837 2.931 4.969 6.931 8.6 7.481s7.781-2.344 10.381-4.606c1.769-1.531 2.769-3.738 3.112-6.075l1.513-10.269c0.087-0.613 0.038-1.244-0.319-1.744-0.925-1.306-3.581-3.825-10.625-4.894s-10.3 0.556-11.563 1.531c-0.488 0.375-0.719 0.963-0.806 1.575l-1.512 10.269c-0.344 2.331-0.025 4.738 1.225 6.731zM25.281 14.706c-0.481-0.344-1.050-0.581-1.675-0.675s-1.238-0.037-1.794 0.15c-0.319 0.106-0.681-0.081-0.644-0.419 0.006-0.031 0.006-0.069 0.012-0.1 0.2-1.363 1.45-2.3 2.794-2.094s2.269 1.469 2.069 2.831c-0.006 0.031-0.012 0.069-0.019 0.1-0.063 0.331-0.462 0.4-0.738 0.206zM33.794 15.675c-0.063 0.331-0.462 0.4-0.737 0.206-0.481-0.344-1.050-0.581-1.675-0.675s-1.238-0.037-1.794 0.15c-0.319 0.106-0.681-0.081-0.644-0.419 0.006-0.031 0.006-0.069 0.012-0.1 0.2-1.363 1.45-2.3 2.794-2.094s2.269 1.469 2.069 2.831c-0.006 0.031-0.013 0.069-0.019 0.1zM33.125 21.887c-1.225 2.794-4.175 4.531-7.3 4.056s-5.444-3.012-5.813-6.044c-0.063-0.519 0.556-0.756 0.95-0.419 1.494 1.3 3.35 2.206 5.438 2.519s4.131 0.006 5.931-0.8c0.475-0.212 1 0.2 0.788 0.681z"/>
</svg>
