<svg version="1.1" xmlns="http://www.w3.org/2000/svg" width="36" height="32" viewBox="0 0 36 32">
<path fill="currentColor" d="M18 4c-14 0-18 6-18 13s5 11 11 11h0.525c1.512 0 2.9-0.856 3.575-2.212l1.45-2.894c0.275-0.55 0.831-0.894 1.45-0.894s1.175 0.344 1.45 0.894l1.45 2.894c0.675 1.356 2.063 2.212 3.575 2.212h0.525c6 0 11-4 11-11s-4-13-18-13zM6 16c0-2.209 1.791-4 4-4s4 1.791 4 4v0c0 2.209-1.791 4-4 4s-4-1.791-4-4v0zM26 12c2.209 0 4 1.791 4 4s-1.791 4-4 4v0c-2.209 0-4-1.791-4-4s1.791-4 4-4v0z"/>
</svg>
