<svg version="1.1" xmlns="http://www.w3.org/2000/svg" width="40" height="32" viewBox="0 0 40 32">
<path fill="currentColor" d="M9.944 11c-1.231 2.7-1.944 5.544-1.944 7.8 0 0.994 0.137 1.962 0.394 2.875l-1.987-0.494c-2-0.5-3.406-2.3-3.406-4.369v-5.313c0-0.275 0.225-0.5 0.5-0.5h6.444zM11.569 8h-8.069c-1.931 0-3.5 1.569-3.5 3.5v5.313c0 3.444 2.344 6.444 5.681 7.275l4.456 1.113c1.419 1.906 3.463 3.381 5.863 4.162v-4.781c-1.231-1.025-2-2.519-2-4.181 0-3.094 2.688-8.4 6-8.4 3.281 0 6 5.306 6 8.4 0 1.669-0.775 3.15-2 4.175v4.787c2.375-0.788 4.413-2.25 5.844-4.15l4.475-1.119c3.337-0.837 5.681-3.837 5.681-7.281v-5.313c0-1.931-1.569-3.5-3.5-3.5h-8.094c-2.175-3.388-5.15-6-8.406-6-3.288 0-6.262 2.612-8.431 6zM30.044 11h6.456c0.275 0 0.5 0.225 0.5 0.5v5.313c0 2.063-1.406 3.863-3.406 4.369l-1.988 0.5c0.262-0.919 0.4-1.881 0.4-2.881 0-2.256-0.725-5.1-1.956-7.8zM18 20v12h4v-12c0-1.106-0.894-2-2-2s-2 0.894-2 2z"/>
</svg>
