<svg version="1.1" xmlns="http://www.w3.org/2000/svg" width="32" height="32" viewBox="0 0 32 32">
<path fill="currentColor" d="M12.5 2h-9c-0.831 0-1.5 0.669-1.5 1.5v9c0 0.606 0.362 1.156 0.925 1.387s1.206 0.106 1.638-0.325l2.5-2.5 4.938 4.938-4.938 4.938-2.5-2.5c-0.431-0.431-1.075-0.556-1.638-0.325s-0.925 0.781-0.925 1.387v9c0 0.831 0.669 1.5 1.5 1.5h9c0.606 0 1.156-0.363 1.387-0.925s0.106-1.206-0.325-1.637l-2.5-2.5 4.938-4.938 4.938 4.938-2.5 2.5c-0.431 0.431-0.556 1.075-0.325 1.637s0.781 0.925 1.387 0.925h9c0.831 0 1.5-0.669 1.5-1.5v-9c0-0.606-0.363-1.156-0.925-1.387s-1.206-0.106-1.637 0.325l-2.5 2.5-4.938-4.938 4.938-4.938 2.5 2.5c0.431 0.431 1.075 0.556 1.637 0.325s0.925-0.781 0.925-1.387v-9c0-0.831-0.669-1.5-1.5-1.5h-9c-0.606 0-1.156 0.362-1.387 0.925s-0.106 1.206 0.325 1.638l2.5 2.5-4.938 4.938-4.938-4.938 2.5-2.5c0.431-0.431 0.556-1.075 0.325-1.638s-0.781-0.925-1.387-0.925z"/>
</svg>
