<svg version="1.1" xmlns="http://www.w3.org/2000/svg" width="32" height="32" viewBox="0 0 32 32">
<path fill="currentColor" d="M0.256 2.388c-0.169-0.25-0.256-0.55-0.256-0.85 0-0.85 0.688-1.538 1.538-1.538h6.831c0.7 0 1.356 0.369 1.713 0.969l4.281 7.131c-3.012 0.381-5.706 1.787-7.713 3.869l-6.394-9.581zM31.738 2.388l-6.387 9.581c-2.006-2.081-4.7-3.488-7.712-3.869l4.281-7.131c0.363-0.6 1.012-0.969 1.712-0.969h6.831c0.85 0 1.537 0.688 1.537 1.538 0 0.3-0.087 0.6-0.256 0.85zM5 21c0-6.075 4.925-11 11-11s11 4.925 11 11v0c0 6.075-4.925 11-11 11s-11-4.925-11-11v0zM16.525 15.069c-0.212-0.438-0.831-0.438-1.050 0l-1.4 2.838c-0.088 0.175-0.25 0.294-0.438 0.319l-3.138 0.456c-0.481 0.069-0.669 0.656-0.325 1l2.269 2.212c0.137 0.137 0.2 0.325 0.169 0.519l-0.537 3.119c-0.081 0.475 0.419 0.844 0.85 0.619l2.8-1.475c0.169-0.087 0.375-0.087 0.544 0l2.8 1.475c0.431 0.225 0.931-0.137 0.85-0.619l-0.538-3.119c-0.031-0.188 0.031-0.381 0.169-0.519l2.269-2.212c0.35-0.337 0.156-0.925-0.325-1l-3.131-0.456c-0.188-0.025-0.356-0.15-0.438-0.319l-1.4-2.838z"/>
</svg>
