<svg version="1.1" xmlns="http://www.w3.org/2000/svg" width="36" height="32" viewBox="0 0 36 32">
<path fill="currentColor" d="M4 4c-2.206 0-4 1.794-4 4v0.463c0 0.425 0.275 0.787 0.631 1.019 0.825 0.537 1.369 1.463 1.369 2.519s-0.544 1.981-1.369 2.519c-0.356 0.231-0.631 0.594-0.631 1.019v4.462h36v-4.463c0-0.425-0.275-0.787-0.631-1.019-0.825-0.537-1.369-1.463-1.369-2.519s0.544-1.981 1.369-2.519c0.356-0.231 0.631-0.594 0.631-1.019v-0.463c0-2.206-1.794-4-4-4h-28zM36 22h-36v4c0 1.106 0.894 2 2 2h3v-2c0-0.55 0.45-1 1-1s1 0.45 1 1v2h6v-2c0-0.55 0.45-1 1-1s1 0.45 1 1v2h6v-2c0-0.55 0.45-1 1-1s1 0.45 1 1v2h6v-2c0-0.55 0.45-1 1-1s1 0.45 1 1v2h3c1.106 0 2-0.894 2-2v-4zM12 10v4c0 1.106-0.894 2-2 2s-2-0.894-2-2v-4c0-1.106 0.894-2 2-2s2 0.894 2 2zM20 10v4c0 1.106-0.894 2-2 2s-2-0.894-2-2v-4c0-1.106 0.894-2 2-2s2 0.894 2 2zM28 10v4c0 1.106-0.894 2-2 2s-2-0.894-2-2v-4c0-1.106 0.894-2 2-2s2 0.894 2 2z"/>
</svg>
