<svg version="1.1" xmlns="http://www.w3.org/2000/svg" width="40" height="32" viewBox="0 0 40 32">
<path fill="currentColor" d="M1.3 0.463c0.125-0.281 0.394-0.463 0.7-0.463s0.575 0.181 0.7 0.463l1.131 2.644c0.112 0.256 0.169 0.538 0.169 0.819v0.075c0 1.106-0.894 2-2 2s-2-0.894-2-2v-0.075c0-0.281 0.056-0.556 0.169-0.819l1.131-2.644zM7.3 0.463c0.125-0.281 0.394-0.463 0.7-0.463s0.575 0.181 0.7 0.463l1.137 2.65c0.113 0.256 0.169 0.538 0.169 0.819v0.069c0 1.106-0.894 2-2 2s-2-0.894-2-2v-0.075c0-0.281 0.056-0.556 0.169-0.819l1.125-2.644zM12.162 3.112l1.137-2.65c0.125-0.281 0.394-0.463 0.7-0.463s0.575 0.181 0.7 0.463l1.137 2.65c0.113 0.256 0.169 0.538 0.169 0.819v0.069c0 1.106-0.894 2-2 2s-2-0.894-2-2v-0.075c0-0.281 0.056-0.556 0.169-0.819zM19.3 0.463c0.125-0.281 0.394-0.463 0.7-0.463s0.575 0.181 0.7 0.463l1.137 2.65c0.113 0.256 0.169 0.538 0.169 0.819v0.069c0 1.106-0.894 2-2 2s-2-0.894-2-2v-0.075c0-0.281 0.056-0.556 0.169-0.819l1.125-2.644zM24.163 3.112l1.137-2.65c0.125-0.281 0.394-0.463 0.7-0.463s0.575 0.181 0.7 0.463l1.137 2.65c0.113 0.256 0.169 0.538 0.169 0.819v0.069c0 1.106-0.894 2-2 2s-2-0.894-2-2v-0.075c0-0.281 0.056-0.556 0.169-0.819zM31.3 0.463c0.125-0.281 0.394-0.463 0.7-0.463s0.575 0.181 0.7 0.463l1.138 2.65c0.112 0.256 0.169 0.538 0.169 0.819v0.069c0 1.106-0.894 2-2 2s-2-0.894-2-2v-0.075c0-0.281 0.056-0.556 0.169-0.819l1.125-2.644zM36.163 3.112l1.138-2.65c0.125-0.281 0.394-0.463 0.7-0.463s0.575 0.181 0.7 0.463l1.138 2.65c0.112 0.256 0.169 0.538 0.169 0.819v0.069c0 1.106-0.894 2-2 2s-2-0.894-2-2v-0.075c0-0.281 0.056-0.556 0.169-0.819zM2 8c1.106 0 2 0.894 2 2v8c0 1.106 0.894 2 2 2h12v-10c0-1.106 0.894-2 2-2s2 0.894 2 2v10h12c1.106 0 2-0.894 2-2v-8c0-1.106 0.894-2 2-2s2 0.894 2 2v8c0 3.313-2.688 6-6 6h-12v4h8c1.106 0 2 0.894 2 2s-0.894 2-2 2h-20c-1.106 0-2-0.894-2-2s0.894-2 2-2h8v-4h-12c-3.313 0-6-2.688-6-6v-8c0-1.106 0.894-2 2-2zM8 8c1.106 0 2 0.894 2 2v8h-4v-8c0-1.106 0.894-2 2-2zM14 8c1.106 0 2 0.894 2 2v8h-4v-8c0-1.106 0.894-2 2-2zM26 8c1.106 0 2 0.894 2 2v8h-4v-8c0-1.106 0.894-2 2-2zM32 8c1.106 0 2 0.894 2 2v8h-4v-8c0-1.106 0.894-2 2-2z"/>
</svg>
