<svg version="1.1" xmlns="http://www.w3.org/2000/svg" width="24" height="32" viewBox="0 0 24 32">
<path fill="currentColor" d="M4.506 0.438c0.856-0.688 2.119-0.55 2.806 0.313 1.1 1.375 2.794 2.25 4.688 2.25s3.581-0.875 4.688-2.25c0.694-0.863 1.95-1 2.813-0.313s1 1.95 0.313 2.813c-0.488 0.606-1.038 1.15-1.65 1.631 2.919 1.975 4.837 5.325 4.837 9.119 0 5.569-4.137 10.169-9.5 10.9v1.6h2c0.831 0 1.5 0.669 1.5 1.5s-0.669 1.5-1.5 1.5h-2v1c0 0.831-0.669 1.5-1.5 1.5s-1.5-0.669-1.5-1.5v-1h-2c-0.831 0-1.5-0.669-1.5-1.5s0.669-1.5 1.5-1.5h2v-1.6c-5.362-0.731-9.5-5.331-9.5-10.9 0-3.794 1.919-7.144 4.844-9.119-0.612-0.475-1.162-1.025-1.65-1.631-0.694-0.863-0.55-2.119 0.313-2.813zM5 14c0 3.866 3.134 7 7 7s7-3.134 7-7v0c0-3.866-3.134-7-7-7s-7 3.134-7 7v0z"/>
</svg>
