<svg version="1.1" xmlns="http://www.w3.org/2000/svg" width="32" height="32" viewBox="0 0 32 32">
<path fill="currentColor" d="M30.856 0.056l-12.144 4.669 0.144-1.831c0.063-0.8-0.8-1.344-1.5-0.944l-11.025 6.387c-3.919 2.269-6.331 6.45-6.331 10.975 0 7.006 5.681 12.688 12.688 12.688 4.525 0 8.712-2.413 10.981-6.331l6.381-11.025c0.406-0.694-0.137-1.563-0.944-1.5l-1.831 0.144 4.669-12.144c0.038-0.094 0.056-0.2 0.056-0.3 0-0.469-0.375-0.844-0.844-0.844-0.106 0-0.206 0.019-0.3 0.056zM12 12c4.418 0 8 3.582 8 8s-3.582 8-8 8v0c-4.418 0-8-3.582-8-8s3.582-8 8-8v0zM12 18c0-1.105-0.895-2-2-2s-2 0.895-2 2v0c0 1.105 0.895 2 2 2s2-0.895 2-2v0zM13 24c0.552 0 1-0.448 1-1s-0.448-1-1-1v0c-0.552 0-1 0.448-1 1s0.448 1 1 1v0z"/>
</svg>
