<svg version="1.1" xmlns="http://www.w3.org/2000/svg" width="24" height="32" viewBox="0 0 24 32">
<path fill="currentColor" d="M12 0c-3.313 0-6 2.688-6 6v10c0 3.313 2.688 6 6 6s6-2.688 6-6v-10c0-3.313-2.688-6-6-6zM4 13.5c0-0.831-0.669-1.5-1.5-1.5s-1.5 0.669-1.5 1.5v2.5c0 5.569 4.138 10.169 9.5 10.9v2.1h-3c-0.831 0-1.5 0.669-1.5 1.5s0.669 1.5 1.5 1.5h9c0.831 0 1.5-0.669 1.5-1.5s-0.669-1.5-1.5-1.5h-3v-2.1c5.363-0.731 9.5-5.331 9.5-10.9v-2.5c0-0.831-0.669-1.5-1.5-1.5s-1.5 0.669-1.5 1.5v2.5c0 4.419-3.581 8-8 8s-8-3.581-8-8v-2.5z"/>
</svg>
