<svg version="1.1" xmlns="http://www.w3.org/2000/svg" width="32" height="32" viewBox="0 0 32 32">
<path fill="currentColor" d="M11 1.5c0-0.831-0.669-1.5-1.5-1.5s-1.5 0.669-1.5 1.5v2.5c-2.206 0-4 1.794-4 4h-2.5c-0.831 0-1.5 0.669-1.5 1.5s0.669 1.5 1.5 1.5h2.5v3.5h-2.5c-0.831 0-1.5 0.669-1.5 1.5s0.669 1.5 1.5 1.5h2.5v3.5h-2.5c-0.831 0-1.5 0.669-1.5 1.5s0.669 1.5 1.5 1.5h2.5c0 2.206 1.794 4 4 4v2.5c0 0.831 0.669 1.5 1.5 1.5s1.5-0.669 1.5-1.5v-2.5h3.5v2.5c0 0.831 0.669 1.5 1.5 1.5s1.5-0.669 1.5-1.5v-2.5h3.5v2.5c0 0.831 0.669 1.5 1.5 1.5s1.5-0.669 1.5-1.5v-2.5c2.206 0 4-1.794 4-4h2.5c0.831 0 1.5-0.669 1.5-1.5s-0.669-1.5-1.5-1.5h-2.5v-3.5h2.5c0.831 0 1.5-0.669 1.5-1.5s-0.669-1.5-1.5-1.5h-2.5v-3.5h2.5c0.831 0 1.5-0.669 1.5-1.5s-0.669-1.5-1.5-1.5h-2.5c0-2.206-1.794-4-4-4v-2.5c0-0.831-0.669-1.5-1.5-1.5s-1.5 0.669-1.5 1.5v2.5h-3.5v-2.5c0-0.831-0.669-1.5-1.5-1.5s-1.5 0.669-1.5 1.5v2.5h-3.5v-2.5zM10 8h12c1.106 0 2 0.894 2 2v12c0 1.106-0.894 2-2 2h-12c-1.106 0-2-0.894-2-2v-12c0-1.106 0.894-2 2-2zM22 10h-12v12h12v-12z"/>
</svg>
