<svg version="1.1" xmlns="http://www.w3.org/2000/svg" width="32" height="32" viewBox="0 0 32 32">
<path fill="currentColor" d="M10 2c0-1.106 0.894-2 2-2h2c1.106 0 2 0.894 2 2 1.106 0 2 0.894 2 2v14c0 1.106-0.894 2-2 2 0 1.106-0.894 2-2 2h-2c-1.106 0-2-0.894-2-2-1.106 0-2-0.894-2-2v-14c0-1.106 0.894-2 2-2zM2 28h18c4.419 0 8-3.581 8-8s-3.581-8-8-8v-4c6.625 0 12 5.375 12 12 0 3.075-1.156 5.875-3.056 8h1.056c1.106 0 2 0.894 2 2s-0.894 2-2 2h-28c-1.106 0-2-0.894-2-2s0.894-2 2-2zM7 24h12c0.55 0 1 0.45 1 1s-0.45 1-1 1h-12c-0.55 0-1-0.45-1-1s0.45-1 1-1z"/>
</svg>
