<svg version="1.1" xmlns="http://www.w3.org/2000/svg" width="40" height="32" viewBox="0 0 40 32">
<path fill="currentColor" d="M2.425 0.319c-0.65-0.512-1.594-0.394-2.106 0.256s-0.394 1.594 0.256 2.106l37 29c0.65 0.513 1.594 0.394 2.106-0.256s0.394-1.594-0.256-2.106l-9.919-7.775c0.95-1.625 1.494-3.519 1.494-5.544v-2.5c0-0.831-0.669-1.5-1.5-1.5s-1.5 0.669-1.5 1.5v2.5c0 1.325-0.319 2.569-0.887 3.669l-1.113-0.869v-12.8c0-3.313-2.688-6-6-6s-6 2.688-6 6v3.394l-11.575-9.075zM21.5 26.9c1.275-0.175 2.481-0.569 3.581-1.137l-2.694-2.119c-0.756 0.231-1.556 0.356-2.387 0.356-4.419 0-8-3.581-8-8v-0.544l-2.956-2.331c-0.031 0.119-0.044 0.244-0.044 0.375v2.5c0 5.569 4.137 10.169 9.5 10.9v2.1h-3c-0.831 0-1.5 0.669-1.5 1.5s0.669 1.5 1.5 1.5h9c0.831 0 1.5-0.669 1.5-1.5s-0.669-1.5-1.5-1.5h-3v-2.1z"/>
</svg>
