<svg version="1.1" xmlns="http://www.w3.org/2000/svg" width="24" height="32" viewBox="0 0 24 32">
<path fill="currentColor" d="M18.881 2.675c0.369-1.038-0.169-2.188-1.212-2.556s-2.188 0.169-2.556 1.212l-2.112 5.925c-0.356 0.25-0.694 0.531-1 0.844-1.269-1.294-3.044-2.1-5-2.1-1.219 0-2.362 0.313-3.356 0.856-0.362-0.519-0.962-0.856-1.644-0.856-1.106 0-2 0.894-2 2v18c0 1.106 0.894 2 2 2s2-0.894 2-2v-13c0-1.656 1.344-3 3-3s3 1.344 3 3v2.656l-4.881 13.669c-0.369 1.038 0.169 2.188 1.213 2.556s2.188-0.169 2.556-1.212l1.338-3.75c0.331 0.644 1 1.081 1.775 1.081 1.106 0 2-0.894 2-2v-9.656l2.231-6.25c0.244-0.063 0.506-0.1 0.769-0.1 1.656 0 3 1.344 3 3v13.006c0 1.106 0.894 2 2 2s2-0.894 2-2v-13c0-3.637-2.769-6.625-6.319-6.969l1.2-3.362z"/>
</svg>
