<svg version="1.1" xmlns="http://www.w3.org/2000/svg" width="32" height="32" viewBox="0 0 32 32">
<path fill="currentColor" d="M28.5 14h-9c-0.831 0-1.5-0.669-1.5-1.5v-9c0-0.606 0.363-1.156 0.925-1.388s1.206-0.106 1.637 0.325l2.5 2.5 4.581-4.581c0.231-0.231 0.538-0.356 0.856-0.356s0.625 0.125 0.856 0.356l2.294 2.294c0.225 0.225 0.35 0.531 0.35 0.85s-0.125 0.625-0.356 0.856l-4.581 4.581 2.5 2.5c0.431 0.431 0.556 1.075 0.325 1.637s-0.781 0.925-1.387 0.925zM28.5 18c0.606 0 1.156 0.363 1.387 0.925s0.106 1.206-0.325 1.637l-2.5 2.5 4.587 4.587c0.225 0.225 0.356 0.531 0.356 0.856s-0.125 0.625-0.356 0.856l-2.294 2.294c-0.231 0.219-0.538 0.344-0.856 0.344s-0.625-0.125-0.856-0.356l-4.581-4.581-2.5 2.5c-0.431 0.431-1.075 0.556-1.637 0.325s-0.925-0.781-0.925-1.387v-9c0-0.831 0.669-1.5 1.5-1.5h9zM12.5 18c0.831 0 1.5 0.669 1.5 1.5v9c0 0.606-0.363 1.156-0.925 1.387s-1.206 0.106-1.637-0.325l-2.5-2.5-4.581 4.581c-0.231 0.231-0.538 0.356-0.856 0.356s-0.625-0.125-0.856-0.356l-2.288-2.288c-0.231-0.231-0.356-0.538-0.356-0.856s0.125-0.625 0.356-0.856l4.581-4.581-2.5-2.5c-0.431-0.431-0.556-1.075-0.325-1.637s0.781-0.925 1.388-0.925h9zM3.5 14c-0.606 0-1.156-0.363-1.388-0.925s-0.106-1.206 0.325-1.637l2.5-2.5-4.581-4.581c-0.231-0.231-0.356-0.538-0.356-0.856s0.125-0.625 0.356-0.856l2.288-2.288c0.231-0.231 0.538-0.356 0.856-0.356s0.625 0.125 0.856 0.356l4.581 4.581 2.5-2.5c0.431-0.431 1.075-0.556 1.637-0.325s0.925 0.781 0.925 1.388v9c0 0.831-0.669 1.5-1.5 1.5h-9z"/>
</svg>
