<svg version="1.1" xmlns="http://www.w3.org/2000/svg" width="28" height="32" viewBox="0 0 28 32">
<path fill="currentColor" d="M22 24h-18l-3.663-12.819c-0.225-0.781-0.338-1.594-0.338-2.412 0-4.844 3.925-8.769 8.769-8.769h0.213c4.125 0 7.719 2.806 8.719 6.806l1.962 7.862 1.1-1.256c0.788-0.9 1.919-1.412 3.113-1.412h0.175c2.181 0 3.956 1.769 3.956 3.956 0 0.994-0.375 1.95-1.050 2.681l-4.956 5.363zM2 28c0-1.106 0.894-2 2-2h18c1.106 0 2 0.894 2 2v2c0 1.106-0.894 2-2 2h-18c-1.106 0-2-0.894-2-2v-2z"/>
</svg>
