<svg version="1.1" xmlns="http://www.w3.org/2000/svg" width="32" height="32" viewBox="0 0 32 32">
<path fill="currentColor" d="M11 0c2.762 0 5 2.237 5 5 0 0.55-0.45 1-1 1-2.762 0-5-2.237-5-5 0-0.55 0.45-1 1-1zM3.5 1h3c0.831 0 1.5 0.669 1.5 1.5s-0.669 1.5-1.5 1.5h-3c-0.831 0-1.5-0.669-1.5-1.5s0.669-1.5 1.5-1.5zM1.5 5.5h7c0.831 0 1.5 0.669 1.5 1.5s-0.669 1.5-1.5 1.5h-7c-0.831 0-1.5-0.669-1.5-1.5s0.669-1.5 1.5-1.5zM2 11.5c0-0.831 0.669-1.5 1.5-1.5h3c0.831 0 1.5 0.669 1.5 1.5s-0.669 1.5-1.5 1.5h-3c-0.831 0-1.5-0.669-1.5-1.5zM17 1c0-0.55 0.45-1 1-1 2.762 0 5 2.237 5 5 0 0.55-0.45 1-1 1-2.762 0-5-2.237-5-5zM25 0c2.762 0 5 2.237 5 5 0 0.55-0.45 1-1 1-2.762 0-5-2.237-5-5 0-0.55 0.45-1 1-1zM30 9c0 2.762-2.238 5-5 5-0.55 0-1-0.45-1-1 0-2.762 2.238-5 5-5 0.55 0 1 0.45 1 1zM22 8c0.55 0 1 0.45 1 1 0 2.762-2.238 5-5 5-0.55 0-1-0.45-1-1 0-2.762 2.238-5 5-5zM16 9c0 2.762-2.238 5-5 5-0.55 0-1-0.45-1-1 0-2.762 2.238-5 5-5 0.55 0 1 0.45 1 1zM0 19c0-1.656 1.344-3 3-3h26c1.656 0 3 1.344 3 3v10c0 1.656-1.344 3-3 3h-26c-1.656 0-3-1.344-3-3v-10zM3 26v3h3c0-1.656-1.344-3-3-3zM6 19h-3v3c1.656 0 3-1.344 3-3zM29 26c-1.656 0-3 1.344-3 3h3v-3zM26 19c0 1.656 1.344 3 3 3v-3h-3zM20 24c0-2.209-1.791-4-4-4s-4 1.791-4 4v0c0 2.209 1.791 4 4 4s4-1.791 4-4v0z"/>
</svg>
