<svg version="1.1" xmlns="http://www.w3.org/2000/svg" width="40" height="32" viewBox="0 0 40 32">
<path fill="currentColor" d="M33.438 2.563c-0.587-0.587-0.587-1.538 0-2.119s1.538-0.588 2.119 0l4 4c0.281 0.281 0.438 0.662 0.438 1.063s-0.156 0.781-0.438 1.063l-4 4c-0.587 0.588-1.538 0.588-2.119 0s-0.587-1.537 0-2.119l1.438-1.438-10.875-0.013c-0.831 0-1.5-0.669-1.5-1.5s0.669-1.5 1.5-1.5h10.881l-1.444-1.438zM6.563 23.563l-1.438 1.438h10.875c0.831 0 1.5 0.669 1.5 1.5s-0.669 1.5-1.5 1.5h-10.881l1.438 1.438c0.588 0.587 0.588 1.538 0 2.119s-1.537 0.587-2.119 0l-4-3.994c-0.281-0.281-0.438-0.663-0.438-1.063s0.156-0.781 0.438-1.063l4-4c0.588-0.587 1.537-0.587 2.119 0s0.588 1.538 0 2.119zM6 4h15.119c-0.231 0.45-0.369 0.956-0.369 1.5 0 1.794 1.456 3.25 3.25 3.25h7.337c-0.25 1.063 0.038 2.219 0.862 3.050 1.269 1.269 3.325 1.269 4.594 0l1.206-1.206v13.406c0 2.206-1.794 4-4 4h-15.119c0.231-0.45 0.369-0.956 0.369-1.5 0-1.794-1.456-3.25-3.25-3.25h-7.338c0.25-1.063-0.037-2.219-0.862-3.050-1.269-1.269-3.325-1.269-4.594 0l-1.206 1.206v-13.406c0-2.206 1.794-4 4-4zM10 8h-4v4c2.206 0 4-1.794 4-4zM34 20c-2.206 0-4 1.794-4 4h4v-4zM20 22c3.314 0 6-2.686 6-6s-2.686-6-6-6v0c-3.314 0-6 2.686-6 6s2.686 6 6 6v0z"/>
</svg>
