<svg version="1.1" xmlns="http://www.w3.org/2000/svg" width="36" height="32" viewBox="0 0 36 32">
<path fill="currentColor" d="M4 4c-2.206 0-4 1.794-4 4v16c0 2.206 1.794 4 4 4h28c2.206 0 4-1.794 4-4v-16c0-2.206-1.794-4-4-4h-28zM8 24h-4v-4c2.206 0 4 1.794 4 4zM4 12v-4h4c0 2.206-1.794 4-4 4zM28 24c0-2.206 1.794-4 4-4v4h-4zM32 12c-2.206 0-4-1.794-4-4h4v4zM11 16c0-3.866 3.134-7 7-7s7 3.134 7 7v0c0 3.866-3.134 7-7 7s-7-3.134-7-7v0zM15.75 13c0 0.606 0.431 1.106 1 1.225v3.025h-0.25c-0.688 0-1.25 0.563-1.25 1.25s0.563 1.25 1.25 1.25h3c0.688 0 1.25-0.563 1.25-1.25s-0.563-1.25-1.25-1.25h-0.25v-4.25c0-0.688-0.563-1.25-1.25-1.25h-1c-0.688 0-1.25 0.563-1.25 1.25z"/>
</svg>
