<svg version="1.1" xmlns="http://www.w3.org/2000/svg" width="36" height="32" viewBox="0 0 36 32">
<path fill="currentColor" d="M4 4c-2.206 0-4 1.794-4 4v16c0 2.206 1.794 4 4 4h28c2.206 0 4-1.794 4-4v-16c0-2.206-1.794-4-4-4h-28zM17 12h14c0.55 0 1 0.45 1 1s-0.45 1-1 1h-14c-0.55 0-1-0.45-1-1s0.45-1 1-1zM16 19c0-0.55 0.45-1 1-1h14c0.55 0 1 0.45 1 1s-0.45 1-1 1h-14c-0.55 0-1-0.45-1-1zM10.25 9.5v0.869c0.469 0.075 0.912 0.181 1.319 0.294 0.669 0.175 1.063 0.863 0.887 1.531s-0.863 1.063-1.531 0.887c-0.688-0.181-1.35-0.313-1.95-0.325-0.494-0.006-1 0.113-1.344 0.313-0.3 0.175-0.388 0.35-0.388 0.581 0 0.113 0.006 0.219 0.331 0.419 0.394 0.238 0.969 0.419 1.769 0.656l0.044 0.012c0.7 0.213 1.6 0.481 2.319 0.938 0.806 0.506 1.519 1.331 1.537 2.6 0.019 1.306-0.656 2.256-1.55 2.813-0.45 0.281-0.95 0.456-1.45 0.563v0.85c0 0.688-0.563 1.25-1.25 1.25s-1.25-0.563-1.25-1.25v-0.913c-0.644-0.137-1.25-0.344-1.763-0.525v0 0c-0.131-0.044-0.256-0.087-0.381-0.131-0.656-0.219-1.006-0.925-0.787-1.581s0.925-1.006 1.581-0.788c0.156 0.050 0.306 0.106 0.45 0.15 0.85 0.288 1.5 0.506 2.194 0.531 0.537 0.019 1.031-0.1 1.338-0.294 0.256-0.156 0.375-0.344 0.369-0.656 0-0.181-0.050-0.313-0.369-0.512-0.394-0.25-0.963-0.431-1.75-0.669l-0.106-0.031c-0.681-0.206-1.537-0.462-2.225-0.875-0.794-0.481-1.537-1.281-1.544-2.544-0.006-1.319 0.737-2.231 1.612-2.744 0.431-0.256 0.906-0.425 1.388-0.531v-0.887c0-0.688 0.562-1.25 1.25-1.25s1.25 0.563 1.25 1.25z"/>
</svg>
