<svg version="1.1" xmlns="http://www.w3.org/2000/svg" width="32" height="32" viewBox="0 0 32 32">
<path fill="currentColor" d="M29.419 0.588c0.188 0.194 0.331 0.412 0.431 0.644s0.15 0.488 0.15 0.762v6.006c0 1.106-0.894 2-2 2s-2-0.894-2-2v-1.169l-6.588 6.581c-0.738 0.738-1.925 0.787-2.719 0.106l-5.694-4.888-5.7 4.887c-0.838 0.719-2.1 0.619-2.819-0.219s-0.619-2.1 0.219-2.819l7-6c0.75-0.644 1.856-0.644 2.606 0l5.594 4.794 5.269-5.275h-1.169c-1.106 0-2-0.894-2-2s0.894-2 2-2h6c0.55 0 1.050 0.225 1.413 0.581l0.006 0.006zM0 19c0-1.656 1.344-3 3-3h26c1.656 0 3 1.344 3 3v10c0 1.656-1.344 3-3 3h-26c-1.656 0-3-1.344-3-3v-10zM3 26v3h3c0-1.656-1.344-3-3-3zM6 19h-3v3c1.656 0 3-1.344 3-3zM29 26c-1.656 0-3 1.344-3 3h3v-3zM26 19c0 1.656 1.344 3 3 3v-3h-3zM20 24c0-2.209-1.791-4-4-4s-4 1.791-4 4v0c0 2.209 1.791 4 4 4s4-1.791 4-4v0z"/>
</svg>
