<svg version="1.1" xmlns="http://www.w3.org/2000/svg" width="36" height="32" viewBox="0 0 36 32">
<path fill="currentColor" d="M0 7.031v19.363c0 1.125 0.631 2.188 1.688 2.581 5.438 2.031 10.875 0.644 16.313-0.744 4.988-1.269 9.975-2.544 14.956-1.181 1.438 0.394 3.044-0.594 3.044-2.087v-19.356c0-1.125-0.631-2.188-1.688-2.581-5.438-2.031-10.875-0.644-16.313 0.744-4.988 1.269-9.975 2.538-14.956 1.175-1.444-0.394-3.044 0.594-3.044 2.088zM18 22c-2.762 0-5-2.688-5-6s2.238-6 5-6 5 2.688 5 6-2.238 6-5 6zM4 22c2.206 0 4 1.794 4 4h-4v-4zM8 9c0 2.206-1.794 4-4 4v-4h4zM32 19v4h-4c0-2.206 1.794-4 4-4zM28 6h4v4c-2.206 0-4-1.794-4-4z"/>
</svg>
