<svg version="1.1" xmlns="http://www.w3.org/2000/svg" width="40" height="32" viewBox="0 0 40 32">
<path fill="currentColor" d="M6 6v14c0 2.206 1.794 4 4 4h26c2.206 0 4-1.794 4-4v-14c0-2.206-1.794-4-4-4h-26c-2.206 0-4 1.794-4 4zM10 16c2.206 0 4 1.794 4 4h-4v-4zM14 6c0 2.206-1.794 4-4 4v-4h4zM36 16v4h-4c0-2.206 1.794-4 4-4zM32 6h4v4c-2.206 0-4-1.794-4-4zM18 13c0-2.761 2.239-5 5-5s5 2.239 5 5v0c0 2.761-2.239 5-5 5s-5-2.239-5-5v0zM3 7.5c0-0.831-0.669-1.5-1.5-1.5s-1.5 0.669-1.5 1.5v15c0 4.144 3.356 7.5 7.5 7.5h25c0.831 0 1.5-0.669 1.5-1.5s-0.669-1.5-1.5-1.5h-25c-2.487 0-4.5-2.012-4.5-4.5v-15z"/>
</svg>
