<svg version="1.1" xmlns="http://www.w3.org/2000/svg" width="36" height="32" viewBox="0 0 36 32">
<path fill="currentColor" d="M4 4c-2.206 0-4 1.794-4 4v16c0 2.206 1.794 4 4 4h28c2.206 0 4-1.794 4-4v-16c0-2.206-1.794-4-4-4h-28zM7 14h10c0.55 0 1 0.45 1 1s-0.45 1-1 1h-10c-0.55 0-1-0.45-1-1s0.45-1 1-1zM6 21c0-0.55 0.45-1 1-1h22c0.55 0 1 0.45 1 1s-0.45 1-1 1h-22c-0.55 0-1-0.45-1-1zM23.5 10h5c0.831 0 1.5 0.669 1.5 1.5v3c0 0.831-0.669 1.5-1.5 1.5h-5c-0.831 0-1.5-0.669-1.5-1.5v-3c0-0.831 0.669-1.5 1.5-1.5z"/>
</svg>
