<svg version="1.1" xmlns="http://www.w3.org/2000/svg" width="36" height="32" viewBox="0 0 36 32">
<path fill="currentColor" d="M0 7.031v19.363c0 1.125 0.631 2.188 1.688 2.581 5.438 2.031 10.875 0.644 16.313-0.744 4.988-1.269 9.975-2.544 14.956-1.181 1.438 0.394 3.044-0.594 3.044-2.087v-19.356c0-1.125-0.631-2.188-1.688-2.581-5.438-2.031-10.875-0.644-16.313 0.744-4.988 1.269-9.975 2.538-14.956 1.175-1.444-0.394-3.044 0.594-3.044 2.088zM8 26h-4v-4c2.206 0 4 1.794 4 4zM4 14v-4h4c0 2.206-1.794 4-4 4zM28 22c0-2.206 1.794-4 4-4v4h-4zM32 10c-2.206 0-4-1.794-4-4h4v4zM24 16c0 3.869-2.688 7-6 7s-6-3.131-6-7 2.688-7 6-7 6 3.131 6 7zM15.75 13c0 0.606 0.431 1.106 1 1.225v3.025h-0.25c-0.688 0-1.25 0.563-1.25 1.25s0.563 1.25 1.25 1.25h3c0.688 0 1.25-0.563 1.25-1.25s-0.563-1.25-1.25-1.25h-0.25v-4.25c0-0.688-0.563-1.25-1.25-1.25h-1c-0.688 0-1.25 0.563-1.25 1.25z"/>
</svg>
