<svg version="1.1" xmlns="http://www.w3.org/2000/svg" width="32" height="32" viewBox="0 0 32 32">
<path fill="currentColor" d="M31.519 0.694c-0.688-0.794-1.863-0.925-2.706-0.306l-13.044 9.613h9.063l6.581-6.588c0.737-0.737 0.788-1.925 0.1-2.719zM2 12c-1.106 0-2 0.894-2 2s0.894 2 2 2c0 5.156 2.713 9.231 7.744 11.012-0.694 0.869-1.213 1.894-1.494 3.006-0.275 1.069 0.644 1.981 1.75 1.981h12c1.106 0 2.025-0.913 1.756-1.981-0.281-1.113-0.8-2.131-1.494-3.006 5.025-1.781 7.738-5.856 7.738-11.012 1.106 0 2-0.894 2-2s-0.894-2-2-2h-28z"/>
</svg>
