<svg version="1.1" xmlns="http://www.w3.org/2000/svg" width="40" height="32" viewBox="0 0 40 32">
<path fill="currentColor" d="M28.981 31.619c0.613-0.556 0.669-1.519 0.131-2.144l-2.631-3.063v-3.419c0-0.344-0.113-0.675-0.319-0.944l-4.162-5.406v-0.019l8.337 7.613c3.563 3.738 9.663 1.087 9.663-4.2 0-2.994-2.125-5.519-4.962-5.887l-9.563-1.494 2.55-2.556c0.488-0.488 0.587-1.256 0.244-1.863l-1.488-2.606 2.387-3.181c0.5-0.663 0.381-1.619-0.269-2.131s-1.575-0.394-2.075 0.275l-3 3.994c-0.369 0.494-0.413 1.162-0.106 1.7l1.419 2.462-3.137 3.144v-2.387c0-0.931-0.637-1.713-1.5-1.938v-3.575c0-0.275-0.225-0.5-0.5-0.5s-0.5 0.225-0.5 0.5v3.575c-0.863 0.225-1.5 1.006-1.5 1.938v2.381l-3.137-3.138 1.413-2.469c0.306-0.537 0.262-1.206-0.106-1.7l-3-3.994c-0.5-0.662-1.425-0.787-2.075-0.275s-0.762 1.469-0.269 2.131l2.387 3.181-1.494 2.606c-0.344 0.606-0.244 1.375 0.244 1.863l2.55 2.556-9.563 1.494c-2.825 0.375-4.95 2.9-4.95 5.894 0 5.287 6.1 7.938 9.662 4.194l8.337-7.606v0.019l-4.156 5.4c-0.206 0.269-0.319 0.6-0.319 0.944v3.419l-2.631 3.063c-0.537 0.631-0.481 1.594 0.131 2.144s1.544 0.494 2.088-0.131l3-3.494c0.238-0.275 0.369-0.637 0.369-1.006v-3.462l1.519-1.975v3.944c0 1.106 0.894 2 2 2s2-0.894 2-2v-3.944l1.519 1.975v3.462c0 0.369 0.131 0.731 0.369 1.006l3 3.494c0.538 0.631 1.475 0.688 2.087 0.131z"/>
</svg>
