<svg version="1.1" xmlns="http://www.w3.org/2000/svg" width="40" height="32" viewBox="0 0 40 32">
<path fill="currentColor" d="M10.55 28.894c-0.494-0.25-0.694-0.85-0.45-1.344l1.9-3.788v-2.762c0-0.262 0.106-0.519 0.294-0.706l3.706-3.706v-1.45l-7.3 6.363c-3.213 3.206-8.7 0.931-8.7-3.606 0-2.569 1.913-4.738 4.463-5.056l9.994-1.494-3.1-2.581c-0.319-0.262-0.438-0.694-0.306-1.088l0.869-2.606-1.813-3.631c-0.25-0.494-0.044-1.094 0.45-1.344s1.094-0.044 1.344 0.45l2 4c0.119 0.237 0.137 0.513 0.056 0.763l-0.781 2.35 2.825 2.375v-1.412c0-0.931 0.631-1.706 1.488-1.938v-2.7c0-0.281 0.231-0.513 0.512-0.513s0.512 0.231 0.512 0.513v2.706c0.856 0.225 1.488 1.006 1.488 1.938v1.412l2.837-2.362-0.788-2.356c-0.081-0.25-0.063-0.525 0.056-0.763l2-4c0.25-0.494 0.85-0.694 1.344-0.45s0.694 0.85 0.45 1.344l-1.813 3.631 0.869 2.606c0.131 0.387 0.006 0.819-0.306 1.088l-3.1 2.581 9.994 1.494c1.406 0.175 2.612 0.912 3.419 1.963-0.169 0.162-0.325 0.338-0.456 0.537-0.538-0.806-1.456-1.344-2.5-1.344s-1.962 0.531-2.5 1.344c-0.538-0.806-1.456-1.344-2.5-1.344-1.356 0-2.5 0.894-2.869 2.131-0.669 0.2-1.238 0.631-1.619 1.2l-2.512-2.188v1.444l2.025 2.025c-0.019 0.125-0.025 0.256-0.025 0.387 0 1.044 0.531 1.962 1.344 2.5-0.25 0.163-0.469 0.369-0.663 0.594l-2.688-2.688v3.125c0 1.106-0.894 2-2 2s-2-0.894-2-2v-3.125l-2 2v2.587c0 0.156-0.037 0.306-0.106 0.45l-2 4c-0.25 0.494-0.85 0.694-1.344 0.45zM32 16c0.55 0 1 0.45 1 1v1h3v-1c0-0.55 0.45-1 1-1s1 0.45 1 1v1h1c0.55 0 1 0.45 1 1s-0.45 1-1 1h-1v3h1c0.55 0 1 0.45 1 1s-0.45 1-1 1h-1v3h1c0.55 0 1 0.45 1 1s-0.45 1-1 1h-1v1c0 0.55-0.45 1-1 1s-1-0.45-1-1v-1h-3v1c0 0.55-0.45 1-1 1s-1-0.45-1-1v-1h-3v1c0 0.55-0.45 1-1 1s-1-0.45-1-1v-1h-1c-0.55 0-1-0.45-1-1s0.45-1 1-1h1v-3h-1c-0.55 0-1-0.45-1-1s0.45-1 1-1h1v-3h-1c-0.55 0-1-0.45-1-1s0.45-1 1-1h1v-1c0-0.55 0.45-1 1-1s1 0.45 1 1v1h3v-1c0-0.55 0.45-1 1-1zM33 23h3v-3h-3v3zM33 28h3v-3h-3v3zM28 20v3h3v-3h-3zM28 25v3h3v-3h-3z"/>
</svg>
