<svg version="1.1" xmlns="http://www.w3.org/2000/svg" width="40" height="32" viewBox="0 0 40 32">
<path fill="currentColor" d="M25 0c0.313 0 0.613 0.15 0.8 0.4 2.169 2.894 4.881 4.681 8.344 6.969v0 0c0.325 0.213 0.656 0.438 1 0.662 1.806 1.2 2.856 3.231 2.856 5.381 0 1.787-0.706 3.406-1.862 4.588h-22.275c-1.15-1.188-1.863-2.806-1.863-4.588 0-2.15 1.044-4.181 2.856-5.381 0.338-0.225 0.675-0.444 1-0.662v0 0c3.462-2.287 6.175-4.075 8.344-6.969 0.188-0.25 0.488-0.4 0.8-0.4zM18 32v-4.5c0-0.831-0.669-1.5-1.5-1.5s-1.5 0.669-1.5 1.5v4.5h-3c-1.106 0-2-0.894-2-2v-8c0-1.106 0.894-2 2-2h26c1.106 0 2 0.894 2 2v8c0 1.106-0.894 2-2 2h-3v-4.5c0-0.831-0.669-1.5-1.5-1.5s-1.5 0.669-1.5 1.5v4.5h-4v-3.625c0-1.188-0.525-2.313-1.438-3.075l-1.563-1.3-1.563 1.3c-0.913 0.762-1.438 1.887-1.438 3.075v3.625h-4zM4.4 0.325c0.356-0.269 0.844-0.269 1.2 0l1 0.75c2.138 1.606 3.4 4.125 3.4 6.8v0.125h-10v-0.125c0-2.675 1.262-5.194 3.4-6.8l1-0.75zM0 10h10v8.538c-1.194 0.694-2 1.981-2 3.462v8c0 0.6 0.131 1.163 0.363 1.675-0.412 0.212-0.875 0.325-1.362 0.325h-4c-1.656 0-3-1.344-3-3v-19z"/>
</svg>
