<svg version="1.1" xmlns="http://www.w3.org/2000/svg" width="40" height="32" viewBox="0 0 40 32">
<path fill="currentColor" d="M17.5 2c-0.831 0-1.5 0.669-1.5 1.5s0.669 1.5 1.5 1.5h3.606l1.025 1.894-6.131 5.106-2.831-2.831c-0.75-0.75-1.769-1.169-2.831-1.169h-6.338c-1.106 0-2 0.894-2 2v2h6c5.525 0 10 4.475 10 10 0 0.688-0.069 1.356-0.2 2h4.4c-0.131-0.644-0.2-1.313-0.2-2 0-3.262 1.563-6.162 3.981-7.988l0.962 1.787c-1.794 1.469-2.944 3.7-2.944 6.2 0 4.419 3.581 8 8 8s8-3.581 8-8-3.581-8-8-8c-0.844 0-1.656 0.131-2.419 0.375l-3.444-6.375h3.863c1.106 0 2-0.894 2-2v-2c0-1.106-0.894-2-2-2h-1.275c-0.469 0-0.919 0.163-1.281 0.462l-2.962 2.469-0.875-1.625c-0.438-0.806-1.281-1.313-2.2-1.313h-3.906zM28.919 19.45l1.762 3.262c0.394 0.731 1.306 1 2.031 0.606s1-1.306 0.606-2.031l-1.762-3.262c0.144-0.019 0.294-0.025 0.444-0.025 2.206 0 4 1.794 4 4s-1.794 4-4 4-4-1.794-4-4c0-0.969 0.344-1.856 0.919-2.55zM11.706 23.5c-0.594 1.469-2.031 2.5-3.706 2.5-2.206 0-4-1.794-4-4s1.794-4 4-4c1.681 0 3.119 1.031 3.706 2.5h4.15c-0.7-3.7-3.95-6.5-7.856-6.5-4.419 0-8 3.581-8 8s3.581 8 8 8c3.906 0 7.156-2.8 7.863-6.5h-4.156zM8 24c1.105 0 2-0.895 2-2s-0.895-2-2-2v0c-1.105 0-2 0.895-2 2s0.895 2 2 2v0z"/>
</svg>
