<svg version="1.1" xmlns="http://www.w3.org/2000/svg" width="40" height="32" viewBox="0 0 40 32">
<path fill="currentColor" d="M21 0c-1.656 0-3 1.344-3 3v5.756l4.462 7.4c0.156-0.1 0.337-0.156 0.538-0.156h2c0.55 0 1 0.45 1 1v2c0 0.55-0.45 1-1 1h-0.219l4.613 7.65c0.775 1.288 0.806 2.894 0.075 4.206-0.025 0.050-0.056 0.1-0.087 0.144h7.619c1.656 0 3-1.344 3-3v-14c0-1.656-1.344-3-3-3h-1.5v-4.5c0-0.831-0.669-1.5-1.5-1.5s-1.5 0.669-1.5 1.5v4.5h-2.5v-9c0-1.656-1.344-3-3-3h-6zM23 4h2c0.55 0 1 0.45 1 1v2c0 0.55-0.45 1-1 1h-2c-0.55 0-1-0.45-1-1v-2c0-0.55 0.45-1 1-1zM22 11c0-0.55 0.45-1 1-1h2c0.55 0 1 0.45 1 1v2c0 0.55-0.45 1-1 1h-2c-0.55 0-1-0.45-1-1v-2zM32 17c0-0.55 0.45-1 1-1h2c0.55 0 1 0.45 1 1v2c0 0.55-0.45 1-1 1h-2c-0.55 0-1-0.45-1-1v-2zM33 22h2c0.55 0 1 0.45 1 1v2c0 0.55-0.45 1-1 1h-2c-0.55 0-1-0.45-1-1v-2c0-0.55 0.45-1 1-1zM14 11.806l3.738 6.194h-3.8l-3 4-1.537-2.575 4.6-7.619zM15.838 9.044c-0.394-0.65-1.088-1.044-1.838-1.044s-1.444 0.394-1.838 1.044l-11.844 19.637c-0.406 0.675-0.419 1.519-0.044 2.206s1.1 1.113 1.881 1.113h23.688c0.781 0 1.5-0.425 1.881-1.113s0.363-1.531-0.044-2.206l-11.844-19.637z"/>
</svg>
