<svg version="1.1" xmlns="http://www.w3.org/2000/svg" width="40" height="32" viewBox="0 0 40 32">
<path fill="currentColor" d="M35 10c2.761 0 5-2.239 5-5s-2.239-5-5-5v0c-2.761 0-5 2.239-5 5s2.239 5 5 5v0zM3.494 32h32.688c2.112 0 3.819-1.712 3.819-3.819 0-0.7-0.194-1.387-0.556-1.988l-8.25-13.519c-0.256-0.419-0.706-0.675-1.194-0.675s-0.938 0.256-1.194 0.669l-3.012 4.938-7.869-12.544c-0.413-0.662-1.144-1.063-1.925-1.063s-1.506 0.4-1.925 1.063l-13.537 21.587c-0.35 0.556-0.537 1.2-0.537 1.856 0 1.931 1.563 3.494 3.494 3.494z"/>
</svg>
