<svg version="1.1" xmlns="http://www.w3.org/2000/svg" width="32" height="32" viewBox="0 0 32 32">
<path fill="currentColor" d="M5.5 0c-0.831 0-1.5 0.669-1.5 1.5 0 2.431 1.463 3.713 2.444 4.569l0.069 0.063c1.019 0.888 1.487 1.362 1.487 2.369 0 0.831 0.669 1.5 1.5 1.5s1.5-0.669 1.5-1.5c0-2.431-1.463-3.713-2.444-4.569l-0.069-0.063c-1.019-0.888-1.487-1.362-1.487-2.369 0-0.831-0.669-1.5-1.5-1.5zM2 12c-1.106 0-2 0.894-2 2v12c0 3.313 2.688 6 6 6h12c3.313 0 6-2.688 6-6h1c3.869 0 7-3.131 7-7s-3.131-7-7-7h-23zM24 16h1c1.656 0 3 1.344 3 3s-1.344 3-3 3h-1v-6zM14 1.5c0-0.831-0.669-1.5-1.5-1.5s-1.5 0.669-1.5 1.5c0 2.431 1.463 3.713 2.444 4.569l0.069 0.063c1.019 0.888 1.488 1.362 1.488 2.369 0 0.831 0.669 1.5 1.5 1.5s1.5-0.669 1.5-1.5c0-2.431-1.462-3.713-2.444-4.569l-0.069-0.063c-1.019-0.888-1.488-1.362-1.488-2.369z"/>
</svg>
