<svg version="1.1" xmlns="http://www.w3.org/2000/svg" width="28" height="32" viewBox="0 0 28 32">
<path fill="currentColor" d="M7.662 2.894c-0.487-0.731-1.4-1.063-2.244-0.806s-1.419 1.031-1.419 1.913v12h-2c-1.106 0-2 0.894-2 2s0.894 2 2 2h2v8c0 1.106 0.894 2 2 2s2-0.894 2-2v-8h6.263l6.075 9.113c0.488 0.731 1.4 1.063 2.244 0.806s1.419-1.031 1.419-1.913v-8.006h2c1.106 0 2-0.894 2-2s-0.894-2-2-2h-2v-12c0-1.106-0.894-2-2-2s-2 0.894-2 2v12h-3.594l-8.744-13.106zM19.069 20h0.931v1.394l-0.931-1.394zM11.594 16h-3.594v-5.394l3.594 5.394z"/>
</svg>
