<svg version="1.1" xmlns="http://www.w3.org/2000/svg" width="40" height="32" viewBox="0 0 40 32">
<path fill="currentColor" d="M16 4h8v4h-8v-4zM15 0c-1.656 0-3 1.344-3 3v6c0 1.656 1.344 3 3 3h3v2h-16c-1.106 0-2 0.894-2 2s0.894 2 2 2h6v2h-3c-1.656 0-3 1.344-3 3v6c0 1.656 1.344 3 3 3h10c1.656 0 3-1.344 3-3v-6c0-1.656-1.344-3-3-3h-3v-2h16v2h-3c-1.656 0-3 1.344-3 3v6c0 1.656 1.344 3 3 3h10c1.656 0 3-1.344 3-3v-6c0-1.656-1.344-3-3-3h-3v-2h6c1.106 0 2-0.894 2-2s-0.894-2-2-2h-16v-2h3c1.656 0 3-1.344 3-3v-6c0-1.656-1.344-3-3-3h-10zM6 28v-4h8v4h-8zM26 24h8v4h-8v-4z"/>
</svg>
