<svg version="1.1" xmlns="http://www.w3.org/2000/svg" width="32" height="32" viewBox="0 0 32 32">
<path fill="currentColor" d="M6 6c0-2.206 1.794-4 4-4h18c2.206 0 4 1.794 4 4v20c0 2.206-1.794 4-4 4h-23c-2.763 0-5-2.238-5-5v-17c0-1.106 0.894-2 2-2s2 0.894 2 2v17c0 0.55 0.45 1 1 1s1-0.45 1-1v-19zM10 7.5v5c0 0.831 0.669 1.5 1.5 1.5h7c0.831 0 1.5-0.669 1.5-1.5v-5c0-0.831-0.669-1.5-1.5-1.5h-7c-0.831 0-1.5 0.669-1.5 1.5zM23 7c0 0.55 0.45 1 1 1h3c0.55 0 1-0.45 1-1s-0.45-1-1-1h-3c-0.55 0-1 0.45-1 1zM23 13c0 0.55 0.45 1 1 1h3c0.55 0 1-0.45 1-1s-0.45-1-1-1h-3c-0.55 0-1 0.45-1 1zM10 19c0 0.55 0.45 1 1 1h16c0.55 0 1-0.45 1-1s-0.45-1-1-1h-16c-0.55 0-1 0.45-1 1zM10 25c0 0.55 0.45 1 1 1h16c0.55 0 1-0.45 1-1s-0.45-1-1-1h-16c-0.55 0-1 0.45-1 1z"/>
</svg>
