<svg version="1.1" xmlns="http://www.w3.org/2000/svg" width="28" height="32" viewBox="0 0 28 32">
<path fill="currentColor" d="M23.113 2.337c0.919 0.613 1.169 1.856 0.556 2.775l-2.6 3.888h3.931c1.106 0 2 0.894 2 2s-0.894 2-2 2h-6.594l-4 6h10.594c1.106 0 2 0.894 2 2s-0.894 2-2 2h-13.262l-4.075 6.106c-0.612 0.919-1.856 1.169-2.775 0.556s-1.169-1.856-0.556-2.775l2.6-3.887h-3.931c-1.106 0-2-0.894-2-2s0.894-2 2-2h6.594l4-6h-10.594c-1.106 0-2-0.894-2-2s0.894-2 2-2h13.262l4.075-6.106c0.613-0.919 1.856-1.169 2.775-0.556z"/>
</svg>
