<svg version="1.1" xmlns="http://www.w3.org/2000/svg" width="32" height="32" viewBox="0 0 32 32">
<path fill="currentColor" d="M6 22v-16c0-2.206 1.794-4 4-4h16c2.206 0 4 1.794 4 4v12.344c0 1.063-0.419 2.081-1.169 2.831l-3.656 3.656c-0.75 0.75-1.769 1.169-2.831 1.169h-12.344c-2.206 0-4-1.794-4-4zM17 8c-0.55 0-1 0.45-1 1v3h-3c-0.55 0-1 0.45-1 1v2c0 0.55 0.45 1 1 1h3v3c0 0.55 0.45 1 1 1h2c0.55 0 1-0.45 1-1v-3h3c0.55 0 1-0.45 1-1v-2c0-0.55-0.45-1-1-1h-3v-3c0-0.55-0.45-1-1-1h-2zM18.5 29c0.831 0 1.5 0.669 1.5 1.5s-0.669 1.5-1.5 1.5h-10c-4.694 0-8.5-3.806-8.5-8.5v-14c0-0.831 0.669-1.5 1.5-1.5s1.5 0.669 1.5 1.5v14c0 3.038 2.463 5.5 5.5 5.5h10z"/>
</svg>
