<svg version="1.1" xmlns="http://www.w3.org/2000/svg" width="40" height="32" viewBox="0 0 40 32">
<path fill="currentColor" d="M2 7.463c-1.194-0.688-2-1.981-2-3.463 0-2.206 1.794-4 4-4 1.481 0 2.775 0.806 3.463 2h13.075c0.688-1.194 1.981-2 3.462-2 2.206 0 4 1.794 4 4 0 1.481-0.806 2.775-2 3.463v7.075c1.194 0.694 2 1.981 2 3.462 0 2.206-1.794 4-4 4-1.481 0-2.775-0.806-3.462-2h-13.075c-0.694 1.194-1.981 2-3.463 2-2.206 0-4-1.794-4-4 0-1.481 0.806-2.775 2-3.463v-7.075zM7.463 6c-0.35 0.606-0.856 1.112-1.463 1.463v7.075c0.606 0.35 1.112 0.856 1.463 1.462h13.075c0.35-0.606 0.856-1.113 1.462-1.463v-7.075c-0.606-0.35-1.113-0.856-1.462-1.462h-13.075zM19.462 30c-0.694 1.194-1.981 2-3.463 2-2.206 0-4-1.794-4-4 0-1.481 0.806-2.775 2-3.462v-2.538h4v2.538c0.606 0.35 1.113 0.856 1.462 1.462h13.075c0.35-0.606 0.856-1.113 1.462-1.462v-7.075c-0.606-0.35-1.112-0.856-1.462-1.462h-2.875c-0.337-0.963-0.913-1.806-1.656-2.475v-1.525h4.538c0.694-1.194 1.981-2 3.462-2 2.206 0 4 1.794 4 4 0 1.481-0.806 2.775-2 3.462v7.075c1.194 0.694 2 1.981 2 3.462 0 2.206-1.794 4-4 4-1.481 0-2.775-0.806-3.462-2h-13.081z"/>
</svg>
