<svg version="1.1" xmlns="http://www.w3.org/2000/svg" width="36" height="32" viewBox="0 0 36 32">
<path fill="currentColor" d="M2 7.463c-1.194-0.688-2-1.981-2-3.463 0-2.206 1.794-4 4-4 1.481 0 2.775 0.806 3.463 2h21.075c0.688-1.194 1.981-2 3.462-2 2.206 0 4 1.794 4 4 0 1.481-0.806 2.775-2 3.463v17.075c1.194 0.694 2 1.981 2 3.462 0 2.206-1.794 4-4 4-1.481 0-2.775-0.806-3.462-2h-21.075c-0.694 1.194-1.981 2-3.463 2-2.206 0-4-1.794-4-4 0-1.481 0.806-2.775 2-3.462v-17.075zM28.538 6h-21.075c-0.35 0.606-0.856 1.112-1.463 1.463v17.075c0.606 0.35 1.112 0.856 1.463 1.462h21.075c0.35-0.606 0.856-1.113 1.462-1.462v-17.075c-0.606-0.35-1.113-0.856-1.462-1.463zM8 10c0-1.106 0.894-2 2-2h8c1.106 0 2 0.894 2 2v6c0 1.106-0.894 2-2 2h-8c-1.106 0-2-0.894-2-2v-6zM16 20h2c2.206 0 4-1.794 4-4v-2h4c1.106 0 2 0.894 2 2v6c0 1.106-0.894 2-2 2h-8c-1.106 0-2-0.894-2-2v-2z"/>
</svg>
