<svg version="1.1" xmlns="http://www.w3.org/2000/svg" width="36" height="32" viewBox="0 0 36 32">
<path fill="currentColor" d="M33.019 3.831c-0.712-2.669-3.456-4.25-6.125-3.538l-0.962 0.256c-1.069 0.287-1.7 1.387-1.413 2.45l1.531 5.713-6.769 1.756-0.394-1.131c-0.281-0.8-1.038-1.338-1.887-1.338s-1.606 0.537-1.887 1.338l-0.85 2.438-8.262 2.138v-2.412c0-0.831-0.669-1.5-1.5-1.5s-1.5 0.669-1.5 1.5v16.5h-1c-1.106 0-2 0.894-2 2s0.894 2 2 2h32c1.106 0 2-0.894 2-2s-0.894-2-2-2h-8.581l-4.169-11.906-3.887 1.006 1.719 4.9h-4.162l1.644-4.688-4.662 1.206-3.319 9.481h-2.581v-9.95l21.087-5.469 1.575 5.875c0.288 1.069 1.381 1.7 2.45 1.413l0.969-0.256c2.669-0.712 4.25-3.456 3.538-6.125l-2.6-9.656zM12.819 28l0.7-2h6.963l0.7 2h-8.363z"/>
</svg>
