<svg version="1.1" xmlns="http://www.w3.org/2000/svg" width="40" height="32" viewBox="0 0 40 32">
<path fill="currentColor" d="M20 8c1.106 0 2-0.894 2-2s-0.894-2-2-2h-8c-1.106 0-2 0.894-2 2s0.894 2 2 2h2v2h-11c-1.656 0-3 1.344-3 3v4.050c0 1.188 0.7 2.262 1.781 2.744l4.219 1.875v1.331c0 1.656 1.344 3 3 3h16.194c1.15 0 2.238-0.494 3-1.356l11.4-12.912c0.769-0.869-0.019-2.213-1.15-1.969l-10.444 2.237-3.156-1.575c-0.556-0.275-1.169-0.425-1.788-0.425h-5.056v-2h2zM6 13v5.381l-3-1.331v-4.050h3z"/>
</svg>
