<svg version="1.1" xmlns="http://www.w3.org/2000/svg" width="32" height="32" viewBox="0 0 32 32">
<path fill="currentColor" d="M23.706 0.294c-0.387-0.388-1.025-0.388-1.413 0l-1 1c-0.387 0.387-0.387 1.025 0 1.412l1 1c0.387 0.388 1.025 0.388 1.413 0l1-1c0.387-0.388 0.387-1.025 0-1.413l-1-1zM7.2 10.6c0.5-0.375 1.119-0.6 1.8-0.6 1.656 0 3 1.344 3 3s-1.344 3-3 3h-2.138c-0.475 0-0.862 0.387-0.862 0.863 0 0.094 0.013 0.181 0.044 0.275l0.5 1.5c0.275 0.819 1.038 1.369 1.9 1.369h1.556c2.206 0 4 1.794 4 4s-1.794 4-4 4c-3.175 0-5.169-1.344-6.388-2.675-0.619-0.675-1.038-1.35-1.306-1.856-0.131-0.25-0.225-0.456-0.281-0.6-0.031-0.069-0.050-0.125-0.063-0.156l-0.012-0.031v-0.006c-0.163-0.488-0.669-0.769-1.169-0.656-0.506 0.113-0.838 0.587-0.775 1.1l0.994-0.125c-0.994 0.125-0.994 0.125-0.994 0.125v0 0 0.006l0.006 0.025c0 0.019 0.006 0.050 0.013 0.081 0.012 0.069 0.025 0.169 0.050 0.288 0.050 0.244 0.125 0.587 0.244 0.994 0.237 0.813 0.644 1.9 1.331 3 1.394 2.244 3.938 4.481 8.35 4.481 4.419 0 8-3.581 8-8 0-1.456-0.387-2.825-1.069-4h1.413c1.594 0 3.119-0.631 4.244-1.756l1.656-1.656c0.375-0.375 0.881-0.588 1.413-0.588h0.344c1.106 0 2 0.894 2 2v6c0 1.106-0.894 2-2 2-1.606 0-2.587-0.781-3.2-1.6-0.313-0.419-0.525-0.837-0.656-1.163-0.069-0.156-0.113-0.288-0.137-0.375-0.012-0.044-0.025-0.075-0.031-0.094l-0.006-0.019c0 0 0 0 0 0-0.119-0.456-0.538-0.775-1.012-0.756s-0.869 0.369-0.944 0.837l0.988 0.169c-0.988-0.163-0.988-0.163-0.988-0.163v0 0 0.006l-0.006 0.019c0 0.019-0.006 0.038-0.012 0.069-0.006 0.056-0.019 0.131-0.025 0.225-0.019 0.188-0.038 0.456-0.038 0.775 0 0.631 0.069 1.494 0.363 2.381 0.3 0.894 0.837 1.831 1.788 2.544 0.962 0.725 2.25 1.144 3.919 1.144 3.313 0 6-2.688 6-6v-6c0-3.313-2.688-6-6-6h-0.344c-1.594 0-3.119 0.631-4.244 1.756l-1.656 1.656c-0.375 0.375-0.881 0.588-1.413 0.588h-3.019c0.431-0.906 0.675-1.925 0.675-3 0-3.869-3.131-7-7-7-1.575 0-3.031 0.519-4.2 1.4-0.881 0.662-1.063 1.919-0.4 2.8s1.919 1.063 2.8 0.4zM17.556 4.169c-0.375-0.25-0.875-0.219-1.219 0.081s-0.438 0.794-0.231 1.2l0.894-0.45c-0.894 0.45-0.894 0.45-0.894 0.45v0 0 0.006l0.006 0.013 0.025 0.044c0.019 0.037 0.050 0.088 0.087 0.15 0.075 0.125 0.181 0.3 0.319 0.513 0.275 0.419 0.694 0.969 1.25 1.525 1.106 1.119 2.85 2.3 5.206 2.3 1.95 0 3.538-0.65 4.619-1.262 0.544-0.313 0.975-0.619 1.275-0.862 0.15-0.119 0.269-0.225 0.356-0.306 0.044-0.037 0.081-0.075 0.106-0.1l0.038-0.031 0.019-0.019c0 0 0 0-1.413-1.412l1.413 1.412c0.781-0.781 0.781-2.050 0-2.831-0.775-0.775-2.038-0.781-2.819-0.013-0.006 0.006-0.012 0.013-0.031 0.025-0.031 0.031-0.094 0.081-0.175 0.15-0.169 0.138-0.425 0.325-0.756 0.513-0.669 0.388-1.581 0.737-2.631 0.737-1.3 0-2.65-0.438-3.719-0.912-0.525-0.231-0.962-0.469-1.269-0.644-0.15-0.088-0.269-0.156-0.35-0.206-0.038-0.025-0.069-0.044-0.087-0.056l-0.019-0.013z"/>
</svg>
