<svg version="1.1" xmlns="http://www.w3.org/2000/svg" width="40" height="32" viewBox="0 0 40 32">
<path fill="currentColor" d="M11.344 12.319l0.806 0.4c0.369 0.188 0.775 0.281 1.194 0.281 1.469 0 2.663-1.194 2.663-2.662v-1.338c0-2.206-1.794-4-4-4h-4.006c-2.206 0-4 1.794-4 4v1.338c0 1.469 1.194 2.662 2.662 2.662 0.412 0 0.819-0.094 1.194-0.281l0.806-0.4 0.525-0.262-0.744-0.494c-0.281-0.188-0.444-0.5-0.444-0.831v-0.231c0-0.831 0.669-1.5 1.5-1.5h1c0.831 0 1.5 0.669 1.5 1.5v0.231c0 0.331-0.169 0.644-0.444 0.831l-0.738 0.494 0.525 0.262zM10.806 15.406l-0.806-0.406-0.806 0.4c-0.787 0.394-1.656 0.6-2.531 0.6-0.225 0-0.444-0.012-0.662-0.037v0.037c0 2.206 1.794 4 4 4h4c1.106 0 2 0.894 2 2s-0.894 2-2 2h10v-4c0-1.481 0.806-2.775 2-3.462 0.587-0.337 1.269-0.538 2-0.538v-1c0-1.656 1.344-3 3-3 0.55 0 1 0.45 1 1v6c0 0.55 0.45 1 1 1s1-0.45 1-1v-6.231c0-3.012-1.925-5.688-4.788-6.644l-0.531-0.175c-0.5-0.169-0.788-0.694-0.65-1.206s0.644-0.825 1.163-0.725l1.244 0.25c5.563 1.112 9.563 5.994 9.563 11.663v0.069c0 7.731-6.269 14-14 14h-10.037c-7.713 0-13.963-6.25-13.963-13.963v-2.488c-0.631-0.912-1-2.019-1-3.213v-1.425c-0.581-0.206-1-0.756-1-1.412 0-0.831 0.669-1.5 1.5-1.5h0.175c1.125-2.362 3.531-4 6.325-4h4c2.794 0 5.2 1.638 6.325 4h0.175c0.831 0 1.5 0.669 1.5 1.5 0 0.656-0.419 1.206-1 1.412v1.425c0 0.088 0 0.175-0.006 0.269 0.75-0.387 1.606-0.6 2.506-0.6h0.5c1.106 0 2 0.894 2 2s-0.894 2-2 2h-0.5c-0.831 0-1.5 0.669-1.5 1.5v0.5h3.525c-0.95 1.063-1.525 2.462-1.525 4h-2c-2.644 0-4.887-1.712-5.688-4.081-0.319 0.056-0.644 0.081-0.975 0.081-0.881 0-1.744-0.206-2.531-0.6zM6 8c0.552 0 1 0.448 1 1s-0.448 1-1 1v0c-0.552 0-1-0.448-1-1s0.448-1 1-1v0zM13 9c0-0.552 0.448-1 1-1s1 0.448 1 1v0c0 0.552-0.448 1-1 1s-1-0.448-1-1v0z"/>
</svg>
