<svg version="1.1" xmlns="http://www.w3.org/2000/svg" width="32" height="32" viewBox="0 0 32 32">
<path fill="currentColor" d="M0 8c0-2.206 1.794-4 4-4h24c2.206 0 4 1.794 4 4v16c0 2.206-1.794 4-4 4h-24c-2.206 0-4-1.794-4-4v-16zM4 10v4c0 1.106 0.894 2 2 2h20c1.106 0 2-0.894 2-2v-4c0-1.106-0.894-2-2-2h-20c-1.106 0-2 0.894-2 2zM5 20c-0.831 0-1.5 0.669-1.5 1.5s0.669 1.5 1.5 1.5h3.5c0.831 0 1.5-0.669 1.5-1.5s-0.669-1.5-1.5-1.5h-3.5zM13.5 20c-0.831 0-1.5 0.669-1.5 1.5s0.669 1.5 1.5 1.5h3c0.831 0 1.5-0.669 1.5-1.5s-0.669-1.5-1.5-1.5h-3z"/>
</svg>
