<svg version="1.1" xmlns="http://www.w3.org/2000/svg" width="36" height="32" viewBox="0 0 36 32">
<path fill="currentColor" d="M21.206 22.944c1.706-0.244 3.244-1.212 4.2-2.681l10.106-15.631c0.788-1.219 0.587-2.831-0.475-3.825s-2.681-1.081-3.844-0.206l-14.794 11.1c-1.5 1.125-2.387 2.881-2.4 4.756l7.206 6.488zM19.981 24.531l-7.25-6.525c-3.738 0.137-6.731 3.219-6.731 6.994 0 0.244 0.013 0.488 0.037 0.725 0.112 1.094-0.638 2.275-1.737 2.275h-0.3c-1.106 0-2 0.894-2 2s0.894 2 2 2h9c3.869 0 7-3.131 7-7 0-0.156-0.006-0.313-0.012-0.469z"/>
</svg>
