<svg version="1.1" xmlns="http://www.w3.org/2000/svg" width="40" height="32" viewBox="0 0 40 32">
<path fill="currentColor" d="M2.85 2c-1.575 0-2.85 1.275-2.85 2.85v22.3c0 1.575 1.275 2.85 2.85 2.85 0.319 0 0.625-0.050 0.919-0.15 0.894-0.3 7.331-2.35 16.231-2.35s15.337 2.050 16.225 2.35c0.294 0.1 0.606 0.15 0.919 0.15 1.575 0 2.85-1.275 2.85-2.85v-22.3c0.006-1.575-1.269-2.85-2.844-2.85-0.313 0-0.625 0.050-0.919 0.15-0.894 0.3-7.331 2.35-16.231 2.35s-15.338-2.050-16.225-2.35c-0.3-0.1-0.606-0.15-0.925-0.15zM6 10c0-1.105 0.895-2 2-2s2 0.895 2 2v0c0 1.105-0.895 2-2 2s-2-0.895-2-2v0zM23 10c0.494 0 0.962 0.244 1.238 0.656l7.781 11.406c0.337 0.5 0.35 1.15 0.025 1.656s-0.919 0.769-1.512 0.669c-2.863-0.488-6.456-0.887-10.531-0.887-4.1 0-7.713 0.406-10.581 0.9-0.613 0.106-1.231-0.181-1.544-0.719s-0.269-1.212 0.119-1.7l4.338-5.419c0.287-0.356 0.713-0.563 1.169-0.563s0.887 0.206 1.169 0.563l1.65 2.069 5.438-7.975c0.281-0.412 0.744-0.656 1.238-0.656z"/>
</svg>
