<svg version="1.1" xmlns="http://www.w3.org/2000/svg" width="32" height="32" viewBox="0 0 32 32">
<path fill="currentColor" d="M31.131 0.35c0.631 0.438 0.962 1.194 0.844 1.95l-4 26c-0.094 0.606-0.462 1.137-1 1.438s-1.181 0.337-1.75 0.1l-7.475-3.106-4.281 4.631c-0.556 0.606-1.431 0.806-2.2 0.506s-1.269-1.044-1.269-1.869v-5.225c0-0.25 0.094-0.488 0.262-0.669l10.475-11.431c0.363-0.394 0.35-1-0.025-1.375s-0.981-0.4-1.375-0.044l-12.713 11.294-5.519-2.762c-0.662-0.331-1.087-0.994-1.106-1.731s0.369-1.425 1.006-1.794l28-16c0.669-0.381 1.494-0.344 2.125 0.088z"/>
</svg>
