<svg version="1.1" xmlns="http://www.w3.org/2000/svg" width="32" height="32" viewBox="0 0 32 32">
<path fill="currentColor" d="M23.969 12c0.019-0.331 0.031-0.662 0.031-1 0-3.188-0.994-6-2.512-7.975-1.519-1.969-3.475-3.025-5.488-3.025s-3.969 1.056-5.488 3.025c-1.519 1.975-2.513 4.787-2.513 7.975 0 0.338 0.013 0.669 0.031 1h6.969v8h-2c-0.438 0-0.856 0.094-1.231 0.262l-7.506-8.262h1.769c-0.019-0.331-0.031-0.662-0.031-1 0-4 1.388-7.575 3.569-9.956-5.694 2.038-8.406 6.619-9.306 9.806-0.169 0.594 0.3 1.15 0.919 1.15h0.375l8.769 9.644c-0.206 0.406-0.325 0.869-0.325 1.356v6c0 1.656 1.344 3 3 3h6c1.656 0 3-1.344 3-3v-6c0-0.488-0.119-0.95-0.325-1.356l8.769-9.644h0.375c0.619 0 1.087-0.556 0.919-1.15-0.9-3.188-3.613-7.769-9.306-9.806 2.181 2.381 3.569 5.963 3.569 9.956 0 0.338-0.012 0.669-0.031 1h1.769l-7.506 8.262c-0.375-0.169-0.794-0.262-1.231-0.262h-2v-8h6.969z"/>
</svg>
