<svg version="1.1" xmlns="http://www.w3.org/2000/svg" width="28" height="32" viewBox="0 0 28 32">
<path fill="currentColor" d="M0 4c0-2.206 1.794-4 4-4h20c2.206 0 4 1.794 4 4v24c0 2.206-1.794 4-4 4h-20c-2.206 0-4-1.794-4-4v-24zM11.438 17.425c-1.744-0.825-3.025-2.463-3.356-4.425h2.444c0.1 1.9 0.481 3.363 0.912 4.425zM14.019 18h-0.037c-0.15-0.219-0.356-0.556-0.569-1.031-0.375-0.85-0.775-2.144-0.887-3.969h2.944c-0.113 1.825-0.506 3.119-0.887 3.969-0.213 0.475-0.419 0.813-0.569 1.031zM16.563 17.425c0.425-1.069 0.806-2.525 0.913-4.425h2.444c-0.331 1.963-1.613 3.6-3.356 4.425zM17.475 11c-0.1-1.9-0.481-3.362-0.913-4.425 1.744 0.825 3.025 2.462 3.356 4.425h-2.444zM13.981 6h0.037c0.15 0.219 0.356 0.556 0.569 1.031 0.375 0.85 0.775 2.144 0.887 3.969h-2.944c0.113-1.825 0.506-3.119 0.887-3.969 0.213-0.475 0.419-0.813 0.569-1.031zM11.438 6.575c-0.425 1.069-0.806 2.525-0.912 4.425h-2.444c0.331-1.963 1.613-3.6 3.356-4.425zM22 12c0-4.418-3.582-8-8-8s-8 3.582-8 8v0c0 4.418 3.582 8 8 8s8-3.582 8-8v0zM7 24c-0.55 0-1 0.45-1 1s0.45 1 1 1h14c0.55 0 1-0.45 1-1s-0.45-1-1-1h-14z"/>
</svg>
