<svg version="1.1" xmlns="http://www.w3.org/2000/svg" width="32" height="32" viewBox="0 0 32 32">
<path fill="currentColor" d="M10 0c-1.481 0-2.775 0.806-3.463 2h-3.538c-1.656 0-3 1.344-3 3v20c0 1.656 1.344 3 3 3h9v-17c0-2.762 2.238-5 5-5h3v-1c0-1.656-1.344-3-3-3h-3.537c-0.688-1.194-1.981-2-3.463-2zM17 8c-1.656 0-3 1.344-3 3v18c0 1.656 1.344 3 3 3h12c1.656 0 3-1.344 3-3v-13h-6c-1.106 0-2-0.894-2-2v-6h-7zM10 2.5c0.828 0 1.5 0.672 1.5 1.5s-0.672 1.5-1.5 1.5v0c-0.828 0-1.5-0.672-1.5-1.5s0.672-1.5 1.5-1.5v0zM26 8v6h6l-6-6z"/>
</svg>
