<svg version="1.1" xmlns="http://www.w3.org/2000/svg" width="32" height="32" viewBox="0 0 32 32">
<path fill="currentColor" d="M14.156 5.806c0.894 2.681-0.019 5.388-2.037 6.050s-4.381-0.975-5.275-3.656 0.019-5.388 2.037-6.050 4.381 0.975 5.275 3.656zM6.275 12.412c1.181 2.025 0.894 4.381-0.638 5.256s-3.731-0.056-4.906-2.081-0.9-4.381 0.631-5.256 3.731 0.056 4.906 2.081zM4.325 25.075c3.275-8.831 9.094-11.075 11.675-11.075s8.4 2.244 11.675 11.075c0.225 0.606 0.325 1.256 0.325 1.906v0.1c0 1.613-1.306 2.919-2.919 2.919-0.719 0-1.431-0.087-2.125-0.262l-5.5-1.375c-0.956-0.238-1.956-0.238-2.912 0l-5.5 1.375c-0.694 0.175-1.406 0.262-2.125 0.262-1.612 0-2.919-1.306-2.919-2.919v-0.1c0-0.65 0.1-1.3 0.325-1.906zM26.363 17.669c-1.531-0.875-1.819-3.231-0.637-5.256s3.375-2.956 4.906-2.081 1.819 3.231 0.637 5.256-3.375 2.956-4.906 2.081zM19.381 11.856c-2.019-0.662-2.931-3.369-2.038-6.050s3.256-4.319 5.275-3.656 2.931 3.369 2.038 6.050-3.256 4.319-5.275 3.656z"/>
</svg>
