<svg version="1.1" xmlns="http://www.w3.org/2000/svg" width="32" height="32" viewBox="0 0 32 32">
<path fill="currentColor" d="M23.344 1.694c0.938-1.075 2.294-1.694 3.719-1.694 2.725 0 4.938 2.212 4.938 4.938 0 1.425-0.619 2.787-1.694 3.725l-12.95 11.275-5.294-5.294 11.281-12.95zM10.644 16.056l5.3 5.3-1.2 5.213c-0.244 1.069-1.056 1.919-2.113 2.212l-11.106 3.113 5.963-5.963c0.162 0.044 0.338 0.069 0.519 0.069 1.106 0 2-0.894 2-2s-0.894-2-2-2-2 0.894-2 2c0 0.181 0.025 0.35 0.069 0.519l-5.969 5.956 3.112-11.1c0.294-1.056 1.144-1.869 2.212-2.113l5.213-1.2z"/>
</svg>
