<svg version="1.1" xmlns="http://www.w3.org/2000/svg" width="32" height="32" viewBox="0 0 32 32">
<path fill="currentColor" d="M23.025 1.144l-3.481 3.487 7.825 7.825 3.481-3.481c1.369-1.369 1.369-3.581 0-4.95l-2.875-2.881c-1.369-1.369-3.581-1.369-4.95 0zM18 5.912l-0.575 0.175-9.006 2.7c-1.244 0.375-2.231 1.325-2.644 2.563l-5.537 16.512c-0.237 0.706-0.063 1.494 0.456 2.025l9.6-9.594c-0.188-0.394-0.294-0.831-0.294-1.294 0-1.656 1.344-3 3-3s3 1.344 3 3-1.344 3-3 3c-0.463 0-0.9-0.106-1.294-0.294l-9.6 9.6c0.538 0.519 1.319 0.7 2.025 0.456l16.519-5.537c1.231-0.413 2.188-1.4 2.563-2.644l2.7-9.006 0.175-0.575-8.088-8.088z"/>
</svg>
