<svg version="1.1" xmlns="http://www.w3.org/2000/svg" width="32" height="32" viewBox="0 0 32 32">
<path fill="currentColor" d="M29.475 1.356c-1.369-1.369-3.581-1.369-4.95 0l-1.881 1.875 6.119 6.119 1.881-1.881c1.369-1.369 1.369-3.581 0-4.95l-1.169-1.163zM10.775 15.106c-0.381 0.381-0.675 0.85-0.844 1.369l-1.85 5.55c-0.181 0.538-0.037 1.131 0.363 1.538s0.994 0.544 1.537 0.363l5.55-1.85c0.512-0.169 0.981-0.462 1.369-0.844l10.456-10.463-6.125-6.125-10.456 10.463zM6 4c-3.313 0-6 2.688-6 6v16c0 3.313 2.688 6 6 6h16c3.313 0 6-2.688 6-6v-6c0-1.106-0.894-2-2-2s-2 0.894-2 2v6c0 1.106-0.894 2-2 2h-16c-1.106 0-2-0.894-2-2v-16c0-1.106 0.894-2 2-2h6c1.106 0 2-0.894 2-2s-0.894-2-2-2h-6z"/>
</svg>
