<svg version="1.1" xmlns="http://www.w3.org/2000/svg" width="32" height="32" viewBox="0 0 32 32">
<path fill="currentColor" d="M29.331 1.206l1.462 1.463c1.563 1.563 1.563 4.094 0 5.656l-3.525 3.525-7.125-7.119 3.525-3.525c1.563-1.563 4.094-1.563 5.656 0zM2.806 22.075l15.925-15.931 7.125 7.125-15.931 15.925c-0.419 0.419-0.944 0.725-1.512 0.887l-6.5 1.856c-0.525 0.15-1.087 0.006-1.475-0.381s-0.531-0.95-0.381-1.475l1.856-6.5c0.163-0.575 0.469-1.094 0.888-1.512zM15.588 6.463l-9.125 9.125-5.463-5.469c-1.169-1.169-1.169-3.069 0-4.244l4.881-4.875c1.169-1.169 3.069-1.169 4.244 0l1.238 1.237c-0.019 0.019-0.044 0.038-0.063 0.056l-4 4c-0.388 0.388-0.388 1.025 0 1.412s1.025 0.387 1.412 0l4-4c0.019-0.019 0.037-0.044 0.056-0.063l2.819 2.819zM25.538 16.413l2.819 2.819c-0.019 0.019-0.044 0.038-0.063 0.056l-4 4c-0.387 0.387-0.387 1.025 0 1.413s1.025 0.387 1.413 0l4-4c0.019-0.019 0.038-0.044 0.056-0.063l1.238 1.244c1.169 1.169 1.169 3.069 0 4.244l-4.881 4.875c-1.169 1.169-3.069 1.169-4.244 0l-5.462-5.462 9.125-9.125z"/>
</svg>
