<svg version="1.1" xmlns="http://www.w3.org/2000/svg" width="32" height="32" viewBox="0 0 32 32">
<path fill="currentColor" d="M28.331 1.206l2.462 2.463c1.563 1.563 1.563 4.094 0 5.656l-3.256 3.256-8.125-8.125 3.256-3.256c1.563-1.563 4.094-1.563 5.656 0zM15.063 7.181c-0.588-0.588-1.537-0.588-2.119 0l-6.381 6.381c-0.588 0.588-1.537 0.588-2.119 0s-0.587-1.537 0-2.119l6.375-6.381c1.756-1.756 4.606-1.756 6.362 0l8.944 8.944-11.781 11.775c-3 3-6.825 5.050-10.988 5.881l-1.563 0.313c-0.494 0.1-1-0.056-1.356-0.413s-0.506-0.863-0.412-1.356l0.313-1.563c0.831-4.162 2.881-7.988 5.881-10.988l9.662-9.656-0.819-0.819z"/>
</svg>
