<svg version="1.1" xmlns="http://www.w3.org/2000/svg" width="32" height="32" viewBox="0 0 32 32">
<path fill="currentColor" d="M25.644 14.438l0.706-0.706-8.119-8.119-14.569 14.569c-0.65 0.65-1.125 1.456-1.388 2.337l-2.212 7.525c-0.156 0.525-0.012 1.094 0.381 1.481s0.956 0.531 1.481 0.381l7.519-2.212c0.881-0.262 1.688-0.738 2.338-1.387l13.863-13.869zM10 24.962l-0.569 1.419c-0.25 0.194-0.531 0.337-0.831 0.431l-4.888 1.438 1.438-4.881c0.088-0.306 0.237-0.587 0.431-0.831l1.419-0.569v2c0 0.55 0.45 1 1 1h2zM22.669 1.169l-0.9 0.906-1.413 1.413-0.712 0.706 8.119 8.119 3.025-3.025c1.563-1.563 1.563-4.094 0-5.656l-2.456-2.462c-1.563-1.563-4.094-1.563-5.656 0zM19.706 11.669l-9 9c-0.387 0.387-1.025 0.387-1.412 0s-0.387-1.025 0-1.413l9-9c0.387-0.387 1.025-0.387 1.413 0s0.387 1.025 0 1.412z"/>
</svg>
