<svg version="1.1" xmlns="http://www.w3.org/2000/svg" width="40" height="32" viewBox="0 0 40 32">
<path fill="currentColor" d="M4 4c0-2.209 1.791-4 4-4s4 1.791 4 4v0c0 2.209-1.791 4-4 4s-4-1.791-4-4v0zM1.619 14.588c0.212-2.594 2.381-4.588 4.981-4.588h2.8c1.688 0 3.188 0.838 4.094 2.131-0.169 0.119-0.325 0.25-0.469 0.394l-4 4c-1.369 1.369-1.369 3.581 0 4.95l2.975 2.975v4.55c0 1.656-1.344 3-3 3h-2c-1.656 0-3-1.344-3-3v-7.231c-1.656-0.594-2.794-2.238-2.638-4.1l0.256-3.081zM28 4c0-2.209 1.791-4 4-4s4 1.791 4 4v0c0 2.209-1.791 4-4 4s-4-1.791-4-4v0zM26.975 12.525c-0.144-0.144-0.306-0.275-0.469-0.394 0.906-1.294 2.413-2.131 4.094-2.131h2.8c2.6 0 4.769 1.994 4.981 4.588l0.256 3.081c0.156 1.863-0.981 3.506-2.638 4.1v7.231c0 1.656-1.344 3-3 3h-2c-1.656 0-3-1.344-3-3v-4.55l2.975-2.975c1.369-1.369 1.369-3.581 0-4.95l-4-4zM17 15v2h6v-2c0-0.606 0.363-1.156 0.925-1.387s1.206-0.106 1.637 0.325l4 4c0.587 0.587 0.587 1.538 0 2.119l-4 4c-0.431 0.431-1.075 0.556-1.637 0.325s-0.925-0.781-0.925-1.387v-1.994h-6v2c0 0.606-0.363 1.156-0.925 1.387s-1.206 0.106-1.637-0.325l-4-4c-0.588-0.587-0.588-1.538 0-2.119l4-4c0.431-0.431 1.075-0.556 1.637-0.325s0.925 0.781 0.925 1.387z"/>
</svg>
