<svg version="1.1" xmlns="http://www.w3.org/2000/svg" width="40" height="32" viewBox="0 0 40 32">
<path fill="currentColor" d="M20.969 0.25l18 10c0.962 0.537 1.313 1.756 0.775 2.719s-1.756 1.313-2.719 0.775l-17.025-9.456-17.031 9.463c-0.962 0.537-2.181 0.188-2.719-0.775s-0.188-2.181 0.775-2.719l18.006-10.006c0.606-0.338 1.337-0.338 1.944 0zM20 10c1.381 0 2.5 1.119 2.5 2.5s-1.119 2.5-2.5 2.5v0c-1.381 0-2.5-1.119-2.5-2.5s1.119-2.5 2.5-2.5v0zM9 16c1.381 0 2.5 1.119 2.5 2.5s-1.119 2.5-2.5 2.5v0c-1.381 0-2.5-1.119-2.5-2.5s1.119-2.5 2.5-2.5v0zM28.5 18.5c0-1.381 1.119-2.5 2.5-2.5s2.5 1.119 2.5 2.5v0c0 1.381-1.119 2.5-2.5 2.5s-2.5-1.119-2.5-2.5v0zM14.181 30.712l-1.681-3.119v2.406c0 1.106-0.894 2-2 2h-3c-1.106 0-2-0.894-2-2v-2.406l-1.681 3.119c-0.394 0.731-1.3 1-2.031 0.613s-1-1.3-0.613-2.031l2.369-4.394c0.956-1.781 2.819-2.894 4.844-2.894h1.219c1.019 0 1.994 0.281 2.838 0.788l2.1-3.894c0.956-1.781 2.819-2.894 4.844-2.894h1.219c2.025 0 3.881 1.113 4.844 2.894l2.1 3.894c0.844-0.506 1.819-0.788 2.837-0.788h1.219c2.025 0 3.881 1.113 4.844 2.894l2.369 4.394c0.394 0.731 0.119 1.637-0.612 2.031s-1.638 0.119-2.031-0.613l-1.675-3.119v2.406c0 1.106-0.894 2-2 2h-3c-1.106 0-2-0.894-2-2v-2.406l-1.681 3.119c-0.394 0.731-1.3 1-2.031 0.613s-1-1.3-0.613-2.031l2.269-4.219c-0.106-0.106-0.2-0.225-0.269-0.363l-1.675-3.119v3.406c0 1.106-0.894 2-2 2h-3c-1.106 0-2-0.894-2-2v-3.406l-1.681 3.119c-0.075 0.137-0.162 0.256-0.269 0.363l2.269 4.219c0.394 0.731 0.119 1.637-0.613 2.031s-1.637 0.119-2.031-0.613z"/>
</svg>
