<svg version="1.1" xmlns="http://www.w3.org/2000/svg" width="36" height="32" viewBox="0 0 36 32">
<path fill="currentColor" d="M5 6c1.657 0 3-1.343 3-3s-1.343-3-3-3v0c-1.657 0-3 1.343-3 3s1.343 3 3 3v0zM4 8c-2.206 0-4 1.794-4 4v8c0 1.106 0.894 2 2 2 0.612 0 1.156-0.275 1.525-0.7l1.5 9.031c0.181 1.087 1.213 1.825 2.3 1.644s1.825-1.212 1.644-2.3l-1.275-7.675h0.981l1.875 8.431c0.238 1.081 1.306 1.756 2.388 1.519s1.756-1.306 1.519-2.387l-3.581-16.125 7.269 3.363c0.031 0.019 0.069 0.031 0.1 0.044 0.538 0.225 1.125 0.194 1.619-0.044 0.212-0.1 0.413-0.244 0.581-0.419 0.194-0.2 0.344-0.438 0.444-0.713 0.006-0.019 0.012-0.044 0.019-0.063l0.156-0.469c0.356-1.069 1.144-1.931 2.169-2.388l0.5-0.219c0.063-0.025 0.119-0.050 0.181-0.075l-1.056 3.969c-0.35 1.319-0.006 2.725 0.919 3.731l4.419 4.819 1.375 5.506c0.269 1.069 1.356 1.725 2.425 1.456s1.725-1.356 1.456-2.425l-1.438-5.756c-0.119-0.488-0.363-0.931-0.7-1.3l-3.094-3.375 1.206-4.094 0.6 1.438c0.275 0.663 0.781 1.206 1.425 1.531l1.669 0.831c0.987 0.494 2.188 0.094 2.681-0.894s0.094-2.188-0.894-2.681l-1.344-0.669-0.956-2.3c-1.075-2.569-3.587-4.244-6.375-4.244-1.425 0-2.831 0.3-4.131 0.875l-0.5 0.219c-1.525 0.681-2.788 1.813-3.631 3.225l-8.137-3.762c-0.787-0.369-1.65-0.556-2.519-0.556h-3.313zM29 6c1.657 0 3-1.343 3-3s-1.343-3-3-3v0c-1.657 0-3 1.343-3 3s1.343 3 3 3v0zM21.856 20.975l-1.563 3.9-3.712 3.712c-0.781 0.781-0.781 2.050 0 2.831s2.050 0.781 2.831 0l3.856-3.856c0.288-0.288 0.512-0.631 0.663-1.006l0.906-2.262-2.544-2.775c-0.156-0.169-0.3-0.35-0.438-0.538z"/>
</svg>
