<svg version="1.1" xmlns="http://www.w3.org/2000/svg" width="40" height="32" viewBox="0 0 40 32">
<path fill="currentColor" d="M5 3c0-1.657 1.343-3 3-3s3 1.343 3 3v0c0 1.657-1.343 3-3 3s-3-1.343-3-3v0zM9 15.106v4.069l3.188 3.188c0.444 0.444 0.738 1.012 0.838 1.631l0.95 5.681c0.181 1.087-0.556 2.119-1.644 2.3s-2.119-0.556-2.3-1.644l-0.894-5.369-4.963-4.962c-0.75-0.75-1.175-1.769-1.175-2.831v-5.506c0-2.025 1.638-3.662 3.663-3.662 1.506 0 2.906 0.75 3.744 2l2.963 4.444 0.631 0.313v-4.756c0-1.106 0.894-2 2-2h8c1.106 0 2 0.894 2 2v4.762l0.631-0.313 2.962-4.45c0.831-1.25 2.238-2 3.744-2 2.025 0 3.663 1.637 3.663 3.662v5.506c0 1.063-0.419 2.081-1.169 2.831l-4.962 4.962-0.894 5.369c-0.181 1.087-1.212 1.825-2.3 1.644s-1.825-1.212-1.644-2.3l0.95-5.681c0.1-0.619 0.394-1.188 0.837-1.631l3.188-3.188v-4.069l-1.188 1.781c-0.288 0.438-0.688 0.788-1.156 1.019l-3.725 1.863c-0.15 0.081-0.306 0.137-0.475 0.175-0.163 0.038-0.331 0.056-0.494 0.050h-7.925c-0.156 0.006-0.313-0.012-0.469-0.044-0.181-0.038-0.35-0.1-0.506-0.188l-3.719-1.863c-0.469-0.231-0.863-0.587-1.156-1.019l-1.188-1.781zM0.144 29.256l2.987-7.469 3.075 3.075-2.35 5.875c-0.413 1.025-1.575 1.525-2.6 1.113s-1.525-1.569-1.113-2.594zM32 0c1.657 0 3 1.343 3 3s-1.343 3-3 3v0c-1.657 0-3-1.343-3-3s1.343-3 3-3v0zM36.869 21.788l2.987 7.469c0.413 1.025-0.087 2.188-1.112 2.6s-2.188-0.087-2.6-1.113l-2.35-5.875 3.075-3.075z"/>
</svg>
