<svg version="1.1" xmlns="http://www.w3.org/2000/svg" width="40" height="32" viewBox="0 0 40 32">
<path fill="currentColor" d="M4.5 5.5c0-1.933 1.567-3.5 3.5-3.5s3.5 1.567 3.5 3.5v0c0 1.933-1.567 3.5-3.5 3.5s-3.5-1.567-3.5-3.5v0zM4 15.356c-0.625 0.7-1 1.631-1 2.644s0.375 1.944 1 2.644v-5.287zM13.025 12.275c-1.856 1.644-3.025 4.050-3.025 6.725 0 2.144 0.75 4.113 2 5.656v1.344c0 1.106-0.894 2-2 2h-4c-1.106 0-2-0.894-2-2v-1.675c-2.362-1.125-4-3.531-4-6.325 0-3.869 3.131-7 7-7h2c1.5 0 2.887 0.469 4.025 1.269zM28 26v-1.344c1.25-1.544 2-3.512 2-5.656 0-2.675-1.169-5.081-3.025-6.731 1.137-0.8 2.525-1.269 4.025-1.269h2c3.869 0 7 3.131 7 7 0 2.794-1.638 5.2-4 6.325v1.675c0 1.106-0.894 2-2 2h-4c-1.106 0-2-0.894-2-2zM28.5 5.5c0-1.933 1.567-3.5 3.5-3.5s3.5 1.567 3.5 3.5v0c0 1.933-1.567 3.5-3.5 3.5s-3.5-1.567-3.5-3.5v0zM36 15.356v5.294c0.625-0.706 1-1.631 1-2.644s-0.375-1.944-1-2.644zM20 2c2.209 0 4 1.791 4 4s-1.791 4-4 4v0c-2.209 0-4-1.791-4-4s1.791-4 4-4v0zM15 19c0 1.012 0.375 1.938 1 2.644v-5.287c-0.625 0.706-1 1.631-1 2.644zM24 16.356v5.294c0.625-0.706 1-1.631 1-2.644s-0.375-1.944-1-2.644zM28 19c0 2.794-1.637 5.2-4 6.325v2.675c0 1.106-0.894 2-2 2h-4c-1.106 0-2-0.894-2-2v-2.675c-2.363-1.125-4-3.531-4-6.325 0-3.869 3.131-7 7-7h2c3.869 0 7 3.131 7 7z"/>
</svg>
