<svg version="1.1" xmlns="http://www.w3.org/2000/svg" width="36" height="32" viewBox="0 0 36 32">
<path fill="currentColor" d="M30.512 3.694c-0.631 2.531-2.906 4.306-5.512 4.306s-4.881-1.775-5.512-4.306l-0.55-2.181c-0.262-1.069-1.35-1.719-2.425-1.45s-1.719 1.35-1.45 2.425l0.544 2.181c0.688 2.75 2.512 4.975 4.894 6.225v19.106c0 1.106 0.894 2 2 2s2-0.894 2-2v-8h1v8c0 1.106 0.894 2 2 2s2-0.894 2-2v-19.106c2.381-1.25 4.206-3.475 4.894-6.225l0.544-2.181c0.269-1.069-0.381-2.156-1.456-2.425s-2.156 0.381-2.419 1.45l-0.544 2.181zM25 6c1.657 0 3-1.343 3-3s-1.343-3-3-3v0c-1.657 0-3 1.343-3 3s1.343 3 3 3v0zM5 6c1.657 0 3-1.343 3-3s-1.343-3-3-3v0c-1.657 0-3 1.343-3 3s1.343 3 3 3v0zM4.5 8c-2.206 0-4 1.794-4 4v18c0 1.106 0.894 2 2 2s2-0.894 2-2v-8h1v8c0 1.106 0.894 2 2 2s2-0.894 2-2v-14.206l0.813 1.281c0.369 0.575 1.006 0.931 1.688 0.931h3c1.106 0 2-0.894 2-2s-0.894-2-2-2h-1.9l-2.338-3.681c-0.912-1.45-2.506-2.325-4.219-2.325h-2.044z"/>
</svg>
