<svg version="1.1" xmlns="http://www.w3.org/2000/svg" width="32" height="32" viewBox="0 0 32 32">
<path fill="currentColor" d="M26.769 0.188c0.725-0.4 1.637-0.144 2.038 0.581l0.3 0.544c1.206 2.169 1.238 4.731 0.212 6.875 1.669 1.787 2.681 4.181 2.681 6.813 0 1.156-0.194 2.269-0.556 3.3-0.381 1.081-1.781 1.019-2.3-0.006l-0.731-1.462c-0.256-0.506-0.775-0.831-1.344-0.831h-4.569c-0.831 0-1.5-0.669-1.5-1.5v-5c0-0.831-0.669-1.5-1.5-1.5h-1.069c-1.331 0-1.875-1.494-0.675-2.056 1.288-0.606 2.725-0.944 4.244-0.944 1.769 0 3.425 0.456 4.863 1.263 0.344-1.138 0.231-2.4-0.375-3.487l-0.3-0.544c-0.4-0.725-0.144-1.637 0.581-2.038zM10.7 21.594l5.8-11.594h2.5v5c0 1.656 1.344 3 3 3h4.762l1.494 2.988c-4.988 6.756-12.988 11.012-21.806 11.012h-3.675c-1.531 0-2.775-1.244-2.775-2.775 0-1.3 0.906-2.425 2.175-2.706l3.113-0.694c2.35-0.525 4.344-2.075 5.419-4.231z"/>
</svg>
