<svg version="1.1" xmlns="http://www.w3.org/2000/svg" width="36" height="32" viewBox="0 0 36 32">
<path fill="currentColor" d="M21 6c1.657 0 3-1.343 3-3s-1.343-3-3-3v0c-1.657 0-3 1.343-3 3s1.343 3 3 3v0zM14.2 10c0.119 0 0.238 0.006 0.35 0.019l-1.95 5.856c-0.581 1.75 0.106 3.675 1.675 4.656l5.388 3.369-1.456 5.1h-5.531l2.569-5.506-2.025-1.269c-0.488-0.306-0.919-0.669-1.287-1.081l-3.669 7.856h-2.031l3.387-16.1c0.287-0.094 0.563-0.256 0.794-0.488l1.444-1.444c0.619-0.619 1.463-0.969 2.344-0.969zM7.588 12.412c0.025 0.025 0.050 0.050 0.081 0.075l-3.481 16.513h-2.688c-0.831 0-1.5 0.669-1.5 1.5s0.669 1.5 1.5 1.5h8.456c0.025 0 0.056 0 0.081 0h9.919c0.031 0 0.063 0 0.087 0h11.456c2.487 0 4.5-2.012 4.5-4.5v-0.5c0-0.831-0.669-1.5-1.5-1.5s-1.5 0.669-1.5 1.5v0.5c0 0.831-0.669 1.5-1.5 1.5h-4.337l1.725-11.206c0.656-0.325 1.113-1.006 1.113-1.794 0-1.106-0.894-2-2-2h-1.331c-0.806 0-1.538-0.488-1.844-1.231l-0.394-0.938c-0.913-2.194-2.756-3.869-5.031-4.569l-3.044-0.938c-0.694-0.213-1.419-0.325-2.15-0.325-1.938 0-3.8 0.769-5.169 2.144l-1.444 1.444c-0.781 0.781-0.781 2.050 0 2.831zM26.837 18l-1.694 11h-2.781l1.35-4.725c0.369-1.288-0.163-2.663-1.294-3.369l-3.544-2.219 1.931-5.15 0.319 0.769c0.938 2.237 3.119 3.694 5.544 3.694h0.169z"/>
</svg>
