<svg version="1.1" xmlns="http://www.w3.org/2000/svg" width="36" height="32" viewBox="0 0 36 32">
<path fill="currentColor" d="M12 6c1.657 0 3-1.343 3-3s-1.343-3-3-3v0c-1.657 0-3 1.343-3 3s1.343 3 3 3v0zM3.712 19.031l1.788-2.975v13.944c0 1.106 0.894 2 2 2s2-0.894 2-2v-8h1v8c0 1.106 0.894 2 2 2s2-0.894 2-2v-15.294l2.962 3.569c0.706 0.85 1.969 0.969 2.819 0.262s0.969-1.969 0.262-2.819l-4.606-5.556c-1.137-1.375-2.831-2.169-4.619-2.169h-2.25c-2.106 0-4.056 1.106-5.144 2.913l-3.644 6.062c-0.569 0.944-0.263 2.175 0.681 2.744s2.175 0.262 2.744-0.681zM30 15c0-1.657-1.343-3-3-3s-3 1.343-3 3v0c0 1.657 1.343 3 3 3s3-1.343 3-3v0zM29 21.5v3.669l-2.587-2.587c-0.456-0.456-1.1-0.663-1.738-0.563s-1.181 0.506-1.469 1.081l-3 6c-0.494 0.988-0.094 2.188 0.894 2.681s2.188 0.094 2.681-0.894l1.769-3.512 3.419 3.419c0.775 0.775 1.819 1.206 2.913 1.206 2.275 0 4.119-1.844 4.119-4.119v-6.381c0-1.931-1.569-3.5-3.5-3.5s-3.5 1.569-3.5 3.5zM18 3c0 0.55 0.45 1 1 1h3.5c0.55 0 1-0.45 1-1s-0.45-1-1-1h-3.5c-0.55 0-1 0.45-1 1zM17.95 6.106c-0.494-0.25-1.094-0.044-1.344 0.45s-0.044 1.094 0.45 1.344l3 1.5c0.494 0.25 1.094 0.044 1.344-0.45s0.044-1.094-0.45-1.344l-3-1.5z"/>
</svg>
