<svg version="1.1" xmlns="http://www.w3.org/2000/svg" width="40" height="32" viewBox="0 0 40 32">
<path fill="currentColor" d="M12 6c1.657 0 3-1.343 3-3s-1.343-3-3-3v0c-1.657 0-3 1.343-3 3s1.343 3 3 3v0zM11.5 30v-8h1v8c0 1.106 0.894 2 2 2s2-0.894 2-2v-18h8.5c1.106 0 2-0.894 2-2s-0.894-2-2-2h-1v-4h12v12h-12v-2h-4v3c0 1.656 1.344 3 3 3h14c1.656 0 3-1.344 3-3v-14c0-1.656-1.344-3-3-3h-14c-1.656 0-3 1.344-3 3v5h-8.931c-2.106 0-4.056 1.106-5.144 2.912l-3.644 6.063c-0.569 0.944-0.263 2.175 0.681 2.744s2.175 0.262 2.744-0.681l1.794-2.981v13.944c0 1.106 0.894 2 2 2s2-0.894 2-2z"/>
</svg>
