<svg version="1.1" xmlns="http://www.w3.org/2000/svg" width="40" height="32" viewBox="0 0 40 32">
<path fill="currentColor" d="M25 6c1.657 0 3-1.343 3-3s-1.343-3-3-3v0c-1.657 0-3 1.343-3 3s1.343 3 3 3v0zM26.7 10l-3.863-3.050c-1.081-0.85-2.606-0.862-3.694-0.019l-5.194 4.013c-1.919 1.488-1.781 4.425 0.269 5.725l3.781 2.4v6.931c0 1.106 0.894 2 2 2s2-0.894 2-2v-8c0-0.669-0.331-1.294-0.887-1.663l-2.675-1.781 3.769-3.031 2.544 2.037c0.356 0.281 0.794 0.438 1.25 0.438h4c1.106 0 2-0.894 2-2s-0.894-2-2-2h-3.3zM3.5 24c0-2.485 2.015-4.5 4.5-4.5s4.5 2.015 4.5 4.5v0c0 2.485-2.015 4.5-4.5 4.5s-4.5-2.015-4.5-4.5v0zM16 24c0-4.418-3.582-8-8-8s-8 3.582-8 8v0c0 4.418 3.582 8 8 8s8-3.582 8-8v0zM27.5 24c0-2.485 2.015-4.5 4.5-4.5s4.5 2.015 4.5 4.5v0c0 2.485-2.015 4.5-4.5 4.5s-4.5-2.015-4.5-4.5v0zM40 24c0-4.418-3.582-8-8-8s-8 3.582-8 8v0c0 4.418 3.582 8 8 8s8-3.582 8-8v0z"/>
</svg>
