<svg version="1.1" xmlns="http://www.w3.org/2000/svg" width="32" height="32" viewBox="0 0 32 32">
<path fill="currentColor" d="M23.794 3c0-1.657 1.343-3 3-3s3 1.343 3 3v0c0 1.657-1.343 3-3 3s-3-1.343-3-3v0zM0.169 16.806c0.381-0.738 1.288-1.019 2.025-0.637l12.35 6.412 2.887-4.325-4.694-4.694c-0.912-0.912-1.275-2.119-1.15-3.256l6.8 3.25 2.456 2.456c1.012 1.012 1.169 2.594 0.375 3.788l-3.106 4.637 8.044 4.175c0.85 0.444 1.863 0.45 2.725 0.019l0.95-0.475c0.744-0.369 1.644-0.069 2.012 0.669s0.069 1.644-0.669 2.012l-0.95 0.475c-1.719 0.856-3.744 0.844-5.45-0.044l-23.969-12.438c-0.731-0.381-1.019-1.288-0.637-2.025zM7.431 4.1l1.131 0.537 0.544-1.087c0.25-0.494 0.85-0.694 1.344-0.45s0.694 0.85 0.45 1.344l-0.531 1.056 3.419 1.638c0.094-0.044 0.194-0.088 0.294-0.131l5.212-2.087c2.137-0.856 4.55 0.263 5.281 2.45l1.069 3.2 3.256 1.631c0.988 0.494 1.387 1.694 0.894 2.681s-1.694 1.387-2.681 0.894l-3.631-1.813c-0.712-0.356-1.25-0.981-1.506-1.738l-0.363-1.081-2.131 0.944-0.419-0.2-9.594-4.594-0.575 1.15c-0.25 0.494-0.85 0.694-1.344 0.45s-0.694-0.85-0.45-1.344l0.563-1.125-1.1-0.525c-0.5-0.237-0.706-0.838-0.469-1.331s0.838-0.706 1.331-0.469z"/>
</svg>
