<svg version="1.1" xmlns="http://www.w3.org/2000/svg" width="40" height="32" viewBox="0 0 40 32">
<path fill="currentColor" d="M16 2c0-1.106-0.894-2-2-2s-2 0.894-2 2v0.612c0 2.438-1.481 4.625-3.744 5.525-3.781 1.519-6.256 5.175-6.256 9.25v4.613c0 1.106 0.894 2 2 2s2-0.894 2-2v-4.613c0-0.625 0.1-1.238 0.281-1.813l10.038 15.512c0.6 0.925 1.837 1.194 2.769 0.594s1.194-1.837 0.594-2.769l-5.769-8.912h5.087l2.4 3.2c0.663 0.881 1.919 1.063 2.8 0.4s1.063-1.919 0.4-2.8l-2.7-3.6c-0.569-0.756-1.456-1.2-2.4-1.2h-4.469l-3.563-5.031c2.794-1.813 4.531-4.938 4.531-8.35v-0.612zM6 5c0-1.657-1.343-3-3-3s-3 1.343-3 3v0c0 1.657 1.343 3 3 3s3-1.343 3-3v0zM29 17.881l3.663 3.369c0.3 0.275 0.744 0.344 1.112 0.163s0.594-0.563 0.563-0.969l-0.35-4.963 4.919-0.762c0.406-0.063 0.731-0.369 0.819-0.762s-0.069-0.813-0.406-1.044l-4.1-2.819 2.469-4.331c0.206-0.356 0.169-0.8-0.087-1.119s-0.681-0.45-1.075-0.331l-4.756 1.444-1.837-4.625c-0.156-0.381-0.519-0.631-0.931-0.631s-0.775 0.25-0.931 0.631l-1.837 4.625-4.756-1.45c-0.394-0.119-0.819 0.013-1.075 0.331s-0.288 0.763-0.087 1.119l2.469 4.319-4.1 2.819c-0.337 0.231-0.5 0.644-0.406 1.044 0.006 0.019 0.006 0.037 0.012 0.050h1.212c1.256 0 2.45 0.469 3.363 1.3l1.15 0.181-0.075 1.112 2.262 3.019c0.131 0.175 0.244 0.356 0.344 0.538l2.456-2.256z"/>
</svg>
