<svg version="1.1" xmlns="http://www.w3.org/2000/svg" width="36" height="32" viewBox="0 0 36 32">
<path fill="currentColor" d="M19.344 11.15l8.65 7.419c-0.1 0.056-0.2 0.125-0.3 0.188-1.125 0.775-2.506 1.269-3.7 1.269-1.225 0-2.55-0.481-3.7-1.269-1.381-0.969-3.225-0.969-4.606 0-1.069 0.738-2.375 1.269-3.7 1.269-0.631 0-1.319-0.137-1.994-0.387 0.2-7.563 6.394-13.637 14.006-13.637h4c1.106 0 2 0.894 2 2s-0.894 2-2 2h-4c-1.681 0-3.269 0.412-4.656 1.15zM10 10c0 2.209-1.791 4-4 4s-4-1.791-4-4v0c0-2.209 1.791-4 4-4s4 1.791 4 4v0zM19.156 20.369c1.406 0.969 3.125 1.631 4.844 1.631 1.681 0 3.462-0.675 4.837-1.631v0c0.744-0.531 1.756-0.488 2.45 0.106 0.9 0.744 2.031 1.313 3.162 1.575 1.075 0.25 1.744 1.325 1.494 2.4s-1.325 1.744-2.4 1.494c-1.531-0.356-2.806-1.031-3.637-1.563-1.813 0.975-3.844 1.619-5.906 1.619-1.994 0-3.788-0.619-5.025-1.181-0.363-0.169-0.694-0.331-0.975-0.481-0.281 0.15-0.606 0.319-0.975 0.481-1.238 0.563-3.031 1.181-5.025 1.181-2.063 0-4.094-0.644-5.906-1.613-0.838 0.525-2.106 1.206-3.638 1.563-1.075 0.25-2.15-0.419-2.4-1.494s0.419-2.15 1.494-2.4c1.131-0.262 2.263-0.831 3.163-1.575 0.694-0.587 1.706-0.631 2.45-0.106v0c1.381 0.95 3.156 1.625 4.838 1.625 1.719 0 3.438-0.663 4.844-1.631 0.694-0.494 1.619-0.494 2.313 0z"/>
</svg>
