<svg version="1.1" xmlns="http://www.w3.org/2000/svg" width="32" height="32" viewBox="0 0 32 32">
<path fill="currentColor" d="M16.994 0.263c-0.613-0.35-1.369-0.35-1.988 0l-14 8c-0.619 0.356-1.006 1.019-1.006 1.738v20c0 1.106 0.894 2 2 2s2-0.894 2-2v-18.837l12-6.856 12 6.856v18.837c0 1.106 0.894 2 2 2s2-0.894 2-2v-20c0-0.719-0.387-1.381-1.006-1.738l-14-8zM16 13c1.381 0 2.5-1.119 2.5-2.5s-1.119-2.5-2.5-2.5v0c-1.381 0-2.5 1.119-2.5 2.5s1.119 2.5 2.5 2.5v0zM15.5 30.5v-5.5h1v5.5c0 0.831 0.669 1.5 1.5 1.5s1.5-0.669 1.5-1.5v-10.906l1.681 3.119c0.394 0.731 1.3 1 2.031 0.613s1-1.3 0.613-2.031l-2.369-4.394c-0.956-1.781-2.819-2.894-4.844-2.894h-1.225c-2.025 0-3.881 1.113-4.844 2.894l-2.369 4.394c-0.394 0.731-0.119 1.637 0.613 2.031s1.637 0.119 2.031-0.613l1.681-3.119v10.906c0 0.831 0.669 1.5 1.5 1.5s1.5-0.669 1.5-1.5z"/>
</svg>
