<svg version="1.1" xmlns="http://www.w3.org/2000/svg" width="40" height="32" viewBox="0 0 40 32">
<path fill="currentColor" d="M4 4h14v0.612c0 2.438-1.481 4.625-3.744 5.525-3.781 1.519-6.256 5.175-6.256 9.25v4.613s0 0 0 0h-4v-20zM22 4h14v20h-4.231l-0.231-0.281-4.7-5.637c-0.569-0.681-1.413-1.081-2.306-1.081h-4.444l-2.563-3.944c-0.019-0.031-0.038-0.063-0.063-0.088 2.794-1.813 4.531-4.938 4.531-8.35v-0.612zM26.563 24h-2.863l2.669 4h10.631c1.656 0 3-1.344 3-3v-22c0-1.656-1.344-3-3-3h-34c-1.656 0-3 1.344-3 3v22c0 1.656 1.344 3 3 3h16.262l2.075 3.113c0.613 0.919 1.856 1.169 2.775 0.556s1.169-1.856 0.556-2.775l-5.262-7.894h4.662l2.5 3zM16.594 24h-4.594s0 0 0 0v-4.613c0-0.637 0.1-1.256 0.294-1.844l4.3 6.456zM12 8c0-1.657-1.343-3-3-3s-3 1.343-3 3v0c0 1.657 1.343 3 3 3s3-1.343 3-3v0z"/>
</svg>
