<svg version="1.1" xmlns="http://www.w3.org/2000/svg" width="36" height="32" viewBox="0 0 36 32">
<path fill="currentColor" d="M18 11c3.038 0 5.5-2.462 5.5-5.5s-2.462-5.5-5.5-5.5v0c-3.038 0-5.5 2.462-5.5 5.5s2.462 5.5 5.5 5.5v0zM4.919 23.306c0.938-0.781 3.125-2.15 6.081-3.131v6.825h14v-6.831c2.956 0.988 5.144 2.356 6.081 3.131 1.275 1.063 3.162 0.887 4.225-0.381s0.888-3.163-0.381-4.225c-0.75-0.625-1.881-1.406-3.325-2.188-0.525 0.894-1.494 1.494-2.6 1.494-1.656 0-3-1.344-3-3 0-0.269 0.038-0.525 0.1-0.775-2.406-0.731-5.144-1.225-8.1-1.225-3.762 0-7.181 0.806-10 1.869 0 0.044 0 0.088 0 0.131 0 1.656-1.344 3-3 3-0.737 0-1.419-0.269-1.938-0.712-0.819 0.506-1.481 0.994-1.981 1.406-1.275 1.063-1.444 2.95-0.381 4.225s2.95 1.444 4.225 0.381zM1.5 29c-0.831 0-1.5 0.669-1.5 1.5s0.669 1.5 1.5 1.5h33c0.831 0 1.5-0.669 1.5-1.5s-0.669-1.5-1.5-1.5h-33zM14 17.5c0-0.828 0.672-1.5 1.5-1.5s1.5 0.672 1.5 1.5v0c0 0.828-0.672 1.5-1.5 1.5s-1.5-0.672-1.5-1.5v0zM20.5 21c0.828 0 1.5 0.672 1.5 1.5s-0.672 1.5-1.5 1.5v0c-0.828 0-1.5-0.672-1.5-1.5s0.672-1.5 1.5-1.5v0zM6 15c0-0.552-0.448-1-1-1s-1 0.448-1 1v0c0 0.552 0.448 1 1 1s1-0.448 1-1v0zM29 16c0.552 0 1-0.448 1-1s-0.448-1-1-1v0c-0.552 0-1 0.448-1 1s0.448 1 1 1v0z"/>
</svg>
