<svg version="1.1" xmlns="http://www.w3.org/2000/svg" width="32" height="32" viewBox="0 0 32 32">
<path fill="currentColor" d="M13 3c0-1.657 1.343-3 3-3s3 1.343 3 3v0c0 1.657-1.343 3-3 3s-3-1.343-3-3v0zM15.5 22v8c0 1.106-0.894 2-2 2s-2-0.894-2-2v-13.944l-1.787 2.969c-0.569 0.944-1.8 1.25-2.744 0.681s-1.25-1.8-0.681-2.744l3.644-6.063c1.088-1.806 3.037-2.912 5.144-2.912h1.856c2.106 0 4.056 1.106 5.144 2.912l3.644 6.063c0.569 0.944 0.262 2.175-0.681 2.744s-2.175 0.262-2.744-0.681l-1.794-2.969v13.944c0 1.106-0.894 2-2 2s-2-0.894-2-2v-8h-1zM0.438 0.438c0.587-0.581 1.538-0.581 2.125 0l5 5c0.588 0.588 0.588 1.537 0 2.119s-1.537 0.588-2.119 0l-5.006-4.994c-0.581-0.587-0.581-1.538 0-2.125zM29.438 0.438c0.587-0.588 1.538-0.588 2.119 0s0.587 1.538 0 2.119l-5 5c-0.587 0.588-1.538 0.588-2.119 0s-0.587-1.537 0-2.119l5-5zM0.438 31.563c-0.588-0.587-0.588-1.538 0-2.119l5-5c0.588-0.587 1.537-0.587 2.119 0s0.588 1.538 0 2.119l-4.994 5c-0.587 0.587-1.538 0.587-2.119 0zM29.438 31.563l-5-5c-0.587-0.587-0.587-1.538 0-2.119s1.538-0.587 2.119 0l5 5c0.587 0.587 0.587 1.538 0 2.119s-1.538 0.587-2.119 0z"/>
</svg>
