<svg version="1.1" xmlns="http://www.w3.org/2000/svg" width="28" height="32" viewBox="0 0 28 32">
<path fill="currentColor" d="M14 0c2.761 0 5 2.239 5 5s-2.239 5-5 5v0c-2.761 0-5-2.239-5-5s2.239-5 5-5v0zM27.3 23.925l-3.956 4.95c-1.038 1.294-2.925 1.506-4.219 0.469-1.1-0.881-1.419-2.381-0.844-3.606l-0.050-0.006c-2.431-0.35-4.644-1.569-6.231-3.425v-2.306c0-1.106-0.894-2-2-2s-2 0.894-2 2v3c0 0.050 0 0.1 0.006 0.15l6.338 3.169c1.481 0.744 2.081 2.544 1.344 4.025s-2.544 2.081-4.025 1.344l-9.963-4.981c-0.069-0.031-0.137-0.069-0.206-0.106-0.306-0.175-0.575-0.4-0.787-0.663-0.287-0.337-0.487-0.731-0.6-1.15-0.206-0.75-0.119-1.575 0.3-2.288 0.037-0.069 0.081-0.137 0.125-0.2l4.194-6.294c1.669-2.506 4.481-4.006 7.487-4.006h4.7c2.906 0 5.631 1.406 7.325 3.769l3.169 4.431c0.137 0.188 0.25 0.381 0.344 0.587 0.181 0.419 0.269 0.863 0.25 1.3-0.019 0.663-0.262 1.313-0.7 1.837zM20 20.75c0-1.519-1.231-2.75-2.75-2.75s-2.75 1.231-2.75 2.75v0c0 1.519 1.231 2.75 2.75 2.75s2.75-1.231 2.75-2.75v0z"/>
</svg>
