<svg version="1.1" xmlns="http://www.w3.org/2000/svg" width="20" height="32" viewBox="0 0 20 32">
<path fill="currentColor" d="M10 3c0-1.657 1.343-3 3-3s3 1.343 3 3v0c0 1.657-1.343 3-3 3s-3-1.343-3-3v0zM7.906 12.456c-0.063 0.025-0.119 0.050-0.181 0.075l-0.5 0.219c-1.025 0.456-1.813 1.325-2.169 2.387l-0.162 0.488c-0.35 1.050-1.481 1.613-2.531 1.262s-1.613-1.481-1.262-2.531l0.163-0.488c0.713-2.131 2.287-3.869 4.338-4.781l0.5-0.219c1.3-0.575 2.706-0.875 4.131-0.875 2.787 0 5.3 1.675 6.369 4.244l0.962 2.306 1.337 0.669c0.988 0.494 1.387 1.694 0.894 2.681s-1.694 1.387-2.681 0.894l-1.675-0.831c-0.644-0.325-1.15-0.863-1.425-1.531l-0.6-1.438-1.206 4.094 3.094 3.375c0.338 0.369 0.575 0.813 0.7 1.3l1.438 5.756c0.269 1.069-0.381 2.156-1.456 2.425s-2.156-0.381-2.425-1.456l-1.375-5.506-4.419-4.819c-0.925-1.006-1.269-2.413-0.919-3.731l1.056-3.969zM4.294 24.875l1.563-3.9c0.131 0.188 0.281 0.363 0.438 0.538l2.544 2.775-0.906 2.262c-0.15 0.375-0.375 0.719-0.662 1.006l-3.856 3.856c-0.781 0.781-2.050 0.781-2.831 0s-0.781-2.050 0-2.831l3.713-3.706z"/>
</svg>
