<svg version="1.1" xmlns="http://www.w3.org/2000/svg" width="32" height="32" viewBox="0 0 32 32">
<path fill="currentColor" d="M11 6c1.657 0 3-1.343 3-3s-1.343-3-3-3v0c-1.657 0-3 1.343-3 3s1.343 3 3 3v0zM10.475 8c-2.275 0-4.35 1.281-5.369 3.319l-2.894 5.787c-0.494 0.988-0.094 2.188 0.894 2.681s2.188 0.094 2.681-0.894l2.213-4.419v2.7c0 1.063 0.419 2.081 1.169 2.831l4.831 4.825v5.169c0 1.106 0.894 2 2 2s2-0.894 2-2v-5.588c0-0.794-0.319-1.556-0.881-2.119l-3.119-3.125v-5.838l4.4 5.869c0.663 0.881 1.919 1.063 2.8 0.4s1.063-1.919 0.4-2.8l-4.8-6.4c-1.131-1.512-2.912-2.4-4.8-2.4h-1.525zM8.019 21.675l-1.956 7.838c-0.269 1.069 0.381 2.156 1.456 2.425s2.156-0.381 2.425-1.456l1.375-5.512-3.3-3.3zM28.175 31.569c0.313 0.456 0.938 0.569 1.394 0.25s0.569-0.938 0.25-1.394l-7.387-10.669c-0.175 0.238-0.381 0.456-0.631 0.644-0.313 0.238-0.656 0.4-1.012 0.494l7.387 10.675z"/>
</svg>
