<svg version="1.1" xmlns="http://www.w3.org/2000/svg" width="40" height="32" viewBox="0 0 40 32">
<path fill="currentColor" d="M33 3c0-1.657-1.343-3-3-3s-3 1.343-3 3v0c0 1.657 1.343 3 3 3s3-1.343 3-3v0zM24.387 24h1.113v6c0 1.106 0.894 2 2 2s2-0.894 2-2v-6h1v6c0 1.106 0.894 2 2 2s2-0.894 2-2v-6h1.112c0.681 0 1.163-0.669 0.95-1.319l-2.394-7.175 2.119 3.519c0.569 0.944 1.8 1.25 2.744 0.681s1.25-1.8 0.681-2.744l-3.35-5.575c-1.263-2.106-3.544-3.394-6-3.394h-0.725c-2.456 0-4.731 1.288-6 3.394l-3.35 5.575c-0.569 0.944-0.262 2.175 0.681 2.744s2.175 0.262 2.744-0.681l2.119-3.519-2.394 7.175c-0.219 0.65 0.269 1.319 0.95 1.319zM11.931 1.131c-0.156-0.381-0.519-0.631-0.931-0.631s-0.775 0.25-0.931 0.631l-1.838 4.625-4.756-1.45c-0.394-0.119-0.819 0.013-1.075 0.331s-0.288 0.763-0.087 1.119l2.469 4.319-4.1 2.825c-0.338 0.231-0.5 0.644-0.406 1.044s0.419 0.7 0.819 0.762l4.919 0.762-0.35 4.969c-0.031 0.406 0.194 0.794 0.563 0.969s0.806 0.113 1.112-0.163l3.663-3.363 3.662 3.369c0.3 0.275 0.744 0.344 1.113 0.163s0.594-0.563 0.563-0.969l-0.35-4.963 3.156-0.488 1.525-2.531-3.45-2.375 2.469-4.325c0.206-0.356 0.169-0.8-0.087-1.119s-0.681-0.45-1.075-0.331l-4.756 1.444-1.838-4.625z"/>
</svg>
