<svg version="1.1" xmlns="http://www.w3.org/2000/svg" width="32" height="32" viewBox="0 0 32 32">
<path fill="currentColor" d="M13.106 0.212c0.988-0.494 2.188-0.094 2.681 0.894l1.563 3.125 2.65 0.531c1.219 0.244 2.363 0.769 3.344 1.531l7.881 6.131c0.875 0.681 1.031 1.938 0.35 2.806s-1.938 1.031-2.806 0.35l-4.506-3.506-4.469 1.988 2.069 1.725c1.45 1.206 2.094 3.125 1.669 4.962l-1.087 4.7c-0.137 0.587-0.512 1.050-1.006 1.313l5.406 2.069c0.288 0.113 0.587 0.163 0.894 0.163h1.762c0.831 0 1.5 0.669 1.5 1.5s-0.669 1.5-1.5 1.5h-1.762c-0.675 0-1.337-0.125-1.969-0.363l-22.012-8.425c-0.719-0.275-1.375-0.7-1.925-1.25l-1.394-1.394c-0.588-0.587-0.588-1.538 0-2.119s1.538-0.587 2.119 0l1.4 1.4c0.25 0.25 0.544 0.444 0.875 0.569l1.4 0.538c-0.050-0.1-0.094-0.2-0.131-0.306-0.35-1.050 0.219-2.181 1.263-2.531l4.638-1.556v-3.325c0-1.512 0.856-2.9 2.213-3.575l2.825-1.412-0.469-0.094c-1.213-0.244-2.244-1.031-2.794-2.131l-1.563-3.125c-0.494-0.988-0.094-2.188 0.894-2.681zM8.688 21.881l9.938 3.806c-0.131-0.35-0.163-0.744-0.069-1.137l1.087-4.7c0.087-0.369-0.044-0.75-0.331-0.994l-3.3-2.75v1.175c0 1.294-0.825 2.438-2.050 2.844l-5.275 1.756zM27 0c1.657 0 3 1.343 3 3s-1.343 3-3 3v0c-1.657 0-3-1.343-3-3s1.343-3 3-3v0z"/>
</svg>
