<svg version="1.1" xmlns="http://www.w3.org/2000/svg" width="28" height="32" viewBox="0 0 28 32">
<path fill="currentColor" d="M22 3c0-1.657 1.343-3 3-3s3 1.343 3 3v0c0 1.657-1.343 3-3 3s-3-1.343-3-3v0zM8 8c0-1.106 0.894-2 2-2h9.962c2.725 0 4.038 3.338 2.050 5.194l-4.65 4.338 3.762 3.762c0.563 0.563 0.881 1.325 0.881 2.119v4.588c0 1.106-0.894 2-2 2s-2-0.894-2-2v-4.169l-4.869-4.863c-1.662-1.662-1.537-4.394 0.269-5.9l1.275-1.063h-4.681c-1.106 0-2-0.894-2-2zM5.088 22.087l5.431-5.431c0.287 0.625 0.688 1.206 1.206 1.719l1.363 1.363-5.169 5.169c-0.781 0.781-2.050 0.781-2.831 0s-0.781-2.050 0-2.831zM25.244 28.031c0.538 0.131 0.863 0.675 0.725 1.212l-0.025 0.106c-0.387 1.556-1.788 2.65-3.394 2.65h-5.55c-0.55 0-1-0.45-1-1s0.45-1 1-1h5.55c0.688 0 1.288-0.469 1.456-1.137l0.025-0.106c0.131-0.538 0.675-0.863 1.212-0.725zM8.45 29.894l-0.387 0.194c-1.35 0.675-2.975 0.413-4.037-0.656l-3.731-3.725c-0.388-0.387-0.388-1.025 0-1.413s1.025-0.387 1.413 0l3.725 3.725c0.456 0.456 1.156 0.569 1.731 0.281l0.388-0.194c0.494-0.25 1.094-0.044 1.344 0.45s0.044 1.094-0.45 1.344z"/>
</svg>
