<svg version="1.1" xmlns="http://www.w3.org/2000/svg" width="28" height="32" viewBox="0 0 28 32">
<path fill="currentColor" d="M20 3c0-1.657-1.343-3-3-3s-3 1.343-3 3v0c0 1.657 1.343 3 3 3s3-1.343 3-3v0zM7.856 10.969c0.619-0.619 1.462-0.969 2.344-0.969 0.119 0 0.238 0.006 0.35 0.019l-1.95 5.856c-0.581 1.75 0.106 3.675 1.675 4.656l5.388 3.369-1.588 5.55c-0.306 1.063 0.313 2.169 1.375 2.475s2.169-0.313 2.475-1.375l1.794-6.275c0.369-1.288-0.163-2.663-1.294-3.369l-3.55-2.219 1.931-5.15 0.319 0.769c0.938 2.237 3.119 3.694 5.544 3.694h1.331c1.106 0 2-0.894 2-2s-0.894-2-2-2h-1.331c-0.806 0-1.538-0.488-1.844-1.231l-0.394-0.938c-0.913-2.194-2.756-3.869-5.031-4.569l-3.044-0.938c-0.694-0.213-1.419-0.325-2.15-0.325-1.938 0-3.8 0.769-5.169 2.144l-1.45 1.444c-0.781 0.781-0.781 2.050 0 2.831s2.050 0.781 2.831 0l1.444-1.444zM5.7 22h-3.7c-1.106 0-2 0.894-2 2s0.894 2 2 2h4.35c1.188 0 2.263-0.7 2.744-1.781l0.719-1.619-0.594-0.375c-1.094-0.681-1.906-1.675-2.369-2.806l-1.15 2.581z"/>
</svg>
