<svg version="1.1" xmlns="http://www.w3.org/2000/svg" width="36" height="32" viewBox="0 0 36 32">
<path fill="currentColor" d="M7 3c0-1.657 1.343-3 3-3s3 1.343 3 3v0c0 1.657-1.343 3-3 3s-3-1.343-3-3v0zM9.5 22v8c0 1.106-0.894 2-2 2s-2-0.894-2-2v-13.944l-1.788 2.975c-0.569 0.944-1.8 1.25-2.744 0.681s-1.25-1.8-0.681-2.744l3.644-6.063c1.087-1.806 3.038-2.912 5.144-2.912h1.856c2.106 0 4.056 1.106 5.144 2.912l2.806 4.669c-1.006 1.1-1.788 2.406-2.288 3.844-0.119-0.113-0.219-0.244-0.306-0.394l-1.787-2.969v13.944c0 1.106-0.894 2-2 2s-2-0.894-2-2v-8h-1zM27 14c4.971 0 9 4.029 9 9s-4.029 9-9 9v0c-4.971 0-9-4.029-9-9s4.029-9 9-9v0zM30.706 20.706c0.387-0.387 0.387-1.025 0-1.413s-1.025-0.387-1.413 0l-2.294 2.294-2.294-2.294c-0.387-0.387-1.025-0.387-1.413 0s-0.387 1.025 0 1.413l2.294 2.294-2.294 2.294c-0.387 0.387-0.387 1.025 0 1.413s1.025 0.387 1.413 0l2.294-2.294 2.294 2.294c0.387 0.387 1.025 0.387 1.413 0s0.387-1.025 0-1.413l-2.294-2.294 2.294-2.294z"/>
</svg>
