<svg version="1.1" xmlns="http://www.w3.org/2000/svg" width="32" height="32" viewBox="0 0 32 32">
<path fill="currentColor" d="M4.438 0.781c-0.538 0.063-0.938 0.512-0.938 1.050 0 0.581 0.469 1.050 1.044 1.056h6.963c0.55-0.006 0.994-0.45 0.994-1v-0.887c0-0.594-0.519-1.063-1.113-0.994l-6.95 0.775zM11.844 4.881h-7.688c-0.1 0.356-0.156 0.731-0.156 1.119 0 2.206 1.794 4 4 4s4-1.794 4-4c0-0.388-0.056-0.763-0.156-1.119zM2 16v2c0 1.106 0.894 2 2 2h8c0.113 0 0.219-0.006 0.325-0.025l-9.012-6.938c-0.806 0.731-1.313 1.787-1.313 2.962zM13.887 18.656c0.069-0.206 0.113-0.425 0.113-0.656v-2c0-2.206-1.794-4-4-4h-4c-0.231 0-0.463 0.019-0.681 0.056l8.569 6.6zM24 10c2.209 0 4-1.791 4-4s-1.791-4-4-4v0c-2.209 0-4 1.791-4 4s1.791 4 4 4v0zM22 12c-2.206 0-4 1.794-4 4v2c0 1.106 0.894 2 2 2h8c1.106 0 2-0.894 2-2v-2c0-2.206-1.794-4-4-4h-4zM13.488 28.131c0.325-0.288 0.512-0.694 0.512-1.131s-0.188-0.844-0.512-1.131l-4-3.5c-0.444-0.387-1.069-0.481-1.606-0.238s-0.881 0.781-0.881 1.369v2h-5.5c-0.831 0-1.5 0.669-1.5 1.5s0.669 1.5 1.5 1.5h5.5v2c0 0.587 0.344 1.125 0.881 1.369s1.163 0.15 1.606-0.238l4-3.5zM18 26.994c0 0.431 0.181 0.844 0.506 1.131l4 3.525c0.444 0.388 1.069 0.487 1.606 0.244s0.881-0.775 0.881-1.369v-2.025h5.5c0.831 0 1.5-0.669 1.5-1.5s-0.669-1.5-1.5-1.5h-5.5v-2c0-0.587-0.344-1.125-0.881-1.369s-1.163-0.15-1.606 0.238l-4 3.5c-0.325 0.281-0.512 0.694-0.512 1.125z"/>
</svg>
