<svg version="1.1" xmlns="http://www.w3.org/2000/svg" width="36" height="32" viewBox="0 0 36 32">
<path fill="currentColor" d="M16.575 12c1.587 0 3.113 0.444 4.425 1.244v18.756h-12v-10.894l-3.35 5.662c-0.7 1.188-2.237 1.581-3.425 0.881s-1.581-2.238-0.881-3.425l4.763-8.050c1.531-2.588 4.313-4.175 7.319-4.175h3.15zM10 5c0-2.761 2.239-5 5-5s5 2.239 5 5v0c0 2.761-2.239 5-5 5s-5-2.239-5-5v0zM28 0c0.55 0 1 0.45 1 1v7.269c0.6 0.344 1 0.994 1 1.731v6.831l1-0.331v-3.5c0-0.55 0.45-1 1-1h1c0.55 0 1 0.45 1 1v5.281c0 0.431-0.275 0.813-0.681 0.95l-3.319 1.1v1.669h3c0.55 0 1 0.45 1 1v1c0 0.55-0.45 1-1 1h-2.75l1.438 5.756c0.156 0.631-0.319 1.244-0.969 1.244h-3.719c-0.55 0-1-0.45-1-1v-6h-1c-1.106 0-2-0.894-2-2v-9c0-1.106 0.894-2 2-2v-2c0-0.738 0.4-1.387 1-1.731v-6.269c-0.55 0-1-0.45-1-1s0.45-1 1-1h2z"/>
</svg>
