<svg version="1.1" xmlns="http://www.w3.org/2000/svg" width="24" height="32" viewBox="0 0 24 32">
<path fill="currentColor" d="M12 0c1.657 0 3 1.343 3 3s-1.343 3-3 3v0c-1.657 0-3-1.343-3-3s1.343-3 3-3v0zM7.5 23.938c-0.862-0.225-1.5-1.006-1.5-1.938v-3.444l-0.287 0.475c-0.569 0.944-1.8 1.25-2.744 0.681s-1.25-1.8-0.681-2.744l3.644-6.063c0.938-1.556 2.519-2.594 4.294-2.85 0.256-0.037 0.512-0.063 0.781-0.063h0.994c0.088 0 0.175 0.006 0.256 0.019 2.231 0.181 4.087 1.831 4.506 4.063l0.381 2.031c2.769 0.537 4.856 2.969 4.856 5.894v2c0 1.106-0.894 2-2 2h-3.5v6c0 1.106-0.894 2-2 2s-2-0.894-2-2v-6h-1v6c0 1.106-0.894 2-2 2s-2-0.894-2-2v-6.063z"/>
</svg>
