<svg version="1.1" xmlns="http://www.w3.org/2000/svg" width="32" height="32" viewBox="0 0 32 32">
<path fill="currentColor" d="M18 0c1.106 0 2 0.894 2 2v0.612c0 3.413-1.744 6.537-4.531 8.35l0.012 0.019 3.55 5.019h5.469c0.944 0 1.831 0.444 2.4 1.2l2.7 3.6c0.663 0.881 0.481 2.137-0.4 2.8s-2.137 0.481-2.8-0.4l-2.4-3.2h-6.087l5.769 8.912c0.6 0.925 0.337 2.163-0.594 2.769s-2.163 0.338-2.769-0.594l-10.037-15.512c-0.181 0.575-0.281 1.188-0.281 1.813v4.613c0 1.106-0.894 2-2 2s-2-0.894-2-2v-4.613c0-4.069 2.475-7.731 6.256-9.244 2.262-0.906 3.744-3.094 3.744-5.531v-0.612c0-1.106 0.894-2 2-2zM7 2c1.657 0 3 1.343 3 3s-1.343 3-3 3v0c-1.657 0-3-1.343-3-3s1.343-3 3-3v0z"/>
</svg>
