<svg version="1.1" xmlns="http://www.w3.org/2000/svg" width="36" height="32" viewBox="0 0 36 32">
<path fill="currentColor" d="M15.431 0.881c-0.806 0.069-1.431 0.744-1.431 1.556 0 0.862 0.7 1.563 1.563 1.563h9.438c0.55 0 1-0.45 1-1v-1.913c0-0.588-0.5-1.044-1.081-1l-9.488 0.794zM15 7c0 2.762 2.238 5 5 5s5-2.238 5-5c0-0.344-0.038-0.675-0.1-1h-9.8c-0.063 0.325-0.1 0.656-0.1 1zM4.5 14c-1.381 0-2.5 1.119-2.5 2.5s1.119 2.5 2.5 2.5h9.5v5.587l10.175-10.181c-0.831-0.269-1.706-0.406-2.6-0.406h-17.075zM26.106 15.306l-10.694 10.694h10.588v-2.894l3.35 5.662c0.7 1.188 2.238 1.581 3.425 0.881s1.581-2.238 0.881-3.425l-4.762-8.050c-0.7-1.181-1.663-2.156-2.788-2.869zM14 28v2c0 1.106 0.894 2 2 2h8c1.106 0 2-0.894 2-2v-2h-12z"/>
</svg>
