<svg version="1.1" xmlns="http://www.w3.org/2000/svg" width="40" height="32" viewBox="0 0 40 32">
<path fill="currentColor" d="M12 6c1.657 0 3-1.343 3-3s-1.343-3-3-3v0c-1.657 0-3 1.343-3 3s1.343 3 3 3v0zM11.5 28v-6h1v6h-1zM7.5 28h-5.5c-1.106 0-2 0.894-2 2s0.894 2 2 2h36c1.106 0 2-0.894 2-2s-0.894-2-2-2h-21.5v-11.944l1.788 2.969c0.569 0.944 1.8 1.25 2.744 0.681s1.25-1.8 0.681-2.744l-3.644-6.063c-1.087-1.806-3.037-2.912-5.144-2.912h-1.856c-2.106 0-4.056 1.106-5.144 2.912l-3.644 6.063c-0.569 0.944-0.263 2.175 0.681 2.744s2.175 0.262 2.744-0.681l1.794-2.969v11.944zM29 4v15.169l-1.587-1.587c-0.781-0.781-2.050-0.781-2.831 0s-0.781 2.050 0 2.831l5 5c0.781 0.781 2.050 0.781 2.831 0l5-5c0.781-0.781 0.781-2.050 0-2.831s-2.050-0.781-2.831 0l-1.581 1.587v-15.169c0-1.106-0.894-2-2-2s-2 0.894-2 2z"/>
</svg>
