<svg version="1.1" xmlns="http://www.w3.org/2000/svg" width="40" height="32" viewBox="0 0 40 32">
<path fill="currentColor" d="M30 6c1.657 0 3-1.343 3-3s-1.343-3-3-3v0c-1.657 0-3 1.343-3 3s1.343 3 3 3v0zM29.5 30v-8h1v8c0 1.106 0.894 2 2 2s2-0.894 2-2v-13.944l1.788 2.969c0.569 0.944 1.8 1.25 2.744 0.681s1.25-1.8 0.681-2.744l-3.644-6.063c-1.087-1.806-3.038-2.912-5.144-2.912h-1.856c-2.106 0-4.056 1.106-5.144 2.912l-3.644 6.063c-0.569 0.944-0.262 2.175 0.681 2.744s2.175 0.262 2.744-0.681l1.794-2.969v13.944c0 1.106 0.894 2 2 2s2-0.894 2-2zM11.931 1.131c-0.156-0.381-0.519-0.631-0.931-0.631s-0.775 0.25-0.931 0.631l-1.838 4.625-4.756-1.45c-0.394-0.119-0.819 0.013-1.075 0.331s-0.288 0.763-0.087 1.119l2.469 4.319-4.1 2.825c-0.338 0.231-0.5 0.644-0.406 1.044s0.419 0.7 0.819 0.762l4.919 0.762-0.35 4.969c-0.031 0.406 0.194 0.794 0.563 0.969s0.806 0.113 1.112-0.163l3.663-3.363 3.662 3.369c0.3 0.275 0.744 0.344 1.113 0.163s0.594-0.563 0.563-0.969l-0.35-4.963 3.156-0.488 1.525-2.531-3.45-2.375 2.469-4.325c0.206-0.356 0.169-0.8-0.087-1.119s-0.681-0.45-1.075-0.331l-4.756 1.444-1.838-4.625z"/>
</svg>
