<svg version="1.1" xmlns="http://www.w3.org/2000/svg" width="36" height="32" viewBox="0 0 36 32">
<path fill="currentColor" d="M13 4c0-1.657 1.343-3 3-3s3 1.343 3 3v0c0 1.657-1.343 3-3 3s-3-1.343-3-3v0zM0.613 13.425c0.319-0.762 1.194-1.125 1.963-0.806l1.219 0.506 1.431-2.381c1.019-1.706 2.856-2.744 4.838-2.744 3.213 0 6.063 2.056 7.081 5.106l2.163 6.481 4.956 2.069 2.137-2.85c0.4-0.531 1.038-0.831 1.7-0.8s1.269 0.4 1.613 0.969l6 10c0.369 0.619 0.381 1.387 0.025 2.012s-1.019 1.012-1.737 1.012h-16c-0.694 0-1.337-0.356-1.7-0.95s-0.4-1.325-0.087-1.944l1-2c0.337-0.675 1.031-1.106 1.788-1.106h2l1.406-1.875-20.981-8.738c-0.762-0.319-1.125-1.194-0.806-1.963zM5.787 19.163l7 3c0.738 0.313 1.213 1.038 1.213 1.837v6c0 1.106-0.894 2-2 2s-2-0.894-2-2v-4.681l-3.787-1.625-2.313 6.938c-0.35 1.050-1.481 1.612-2.531 1.262s-1.613-1.481-1.269-2.525l3.688-11.063 2 0.856z"/>
</svg>
