<svg version="1.1" xmlns="http://www.w3.org/2000/svg" width="28" height="32" viewBox="0 0 28 32">
<path fill="currentColor" d="M17 3c0-1.657-1.343-3-3-3s-3 1.343-3 3v0c0 1.657 1.343 3 3 3s3-1.343 3-3v0zM16.5 14.706l2.962 3.569c0.706 0.85 1.969 0.969 2.819 0.262s0.969-1.969 0.262-2.819l-4.606-5.556c-1.137-1.375-2.831-2.169-4.619-2.169h-2.25c-2.106 0-4.056 1.106-5.144 2.913l-3.644 6.062c-0.569 0.944-0.263 2.175 0.681 2.744s2.175 0.262 2.744-0.681l1.794-2.975v13.944c0 1.106 0.894 2 2 2s2-0.894 2-2v-8h1v8c0 1.106 0.894 2 2 2s2-0.894 2-2v-15.294zM22 23.5c0-0.275 0.225-0.5 0.5-0.5s0.5 0.225 0.5 0.5v7c0 0.831 0.669 1.5 1.5 1.5s1.5-0.669 1.5-1.5v-7c0-1.931-1.569-3.5-3.5-3.5s-3.5 1.569-3.5 3.5v0.5c0 0.831 0.669 1.5 1.5 1.5s1.5-0.669 1.5-1.5v-0.5z"/>
</svg>
