<svg version="1.1" xmlns="http://www.w3.org/2000/svg" width="24" height="32" viewBox="0 0 24 32">
<path fill="currentColor" d="M12 3c0-1.657 1.343-3 3-3s3 1.343 3 3v0c0 1.657-1.343 3-3 3s-3-1.343-3-3v0zM15.206 14.419l-1.194 4.769 3.106 3.106c0.563 0.563 0.881 1.325 0.881 2.119v5.588c0 1.106-0.894 2-2 2s-2-0.894-2-2v-5.169l-4.619-4.619c-0.988-0.988-1.388-2.413-1.056-3.769l1.275-5.25c0.519-2.131 2.669-3.431 4.794-2.9 1.188 0.3 2.225 1.025 2.9 2.044l1.775 2.662h1.931v-1.5c0-0.831 0.669-1.5 1.5-1.5s1.5 0.669 1.5 1.5v3.487c0 0.006 0 0.012 0 0.012s0 0.012 0 0.012v15.488c0 0.831-0.669 1.5-1.5 1.5s-1.5-0.669-1.5-1.5v-13.5h-2.462c-1 0-1.938-0.5-2.494-1.338l-0.831-1.25zM5.069 29.494l2.263-8.619c0.188 0.262 0.4 0.512 0.631 0.744l2.619 2.619-1.65 6.269c-0.281 1.069-1.375 1.706-2.444 1.425s-1.706-1.375-1.425-2.444zM8.537 7.869l-2.2 8.787c-0.188 0.756-0.931 1.244-1.7 1.119l-2.994-0.5c-0.875-0.144-1.431-1.019-1.2-1.875l1.55-5.713c0.594-2.175 2.569-3.688 4.825-3.688h0.263c0.975 0 1.694 0.919 1.456 1.862z"/>
</svg>
