<svg version="1.1" xmlns="http://www.w3.org/2000/svg" width="40" height="32" viewBox="0 0 40 32">
<path fill="currentColor" d="M13 6c1.657 0 3-1.343 3-3s-1.343-3-3-3v0c-1.657 0-3 1.343-3 3s1.343 3 3 3v0zM7.731 12.531c0.063-0.025 0.119-0.050 0.181-0.075l-1.056 3.969c-0.35 1.319-0.006 2.725 0.919 3.731l4.419 4.819 1.375 5.506c0.269 1.069 1.356 1.725 2.425 1.456s1.725-1.356 1.456-2.425l-1.438-5.756c-0.119-0.488-0.363-0.931-0.7-1.3l-3.094-3.375 1.206-4.094 0.6 1.438c0.275 0.663 0.781 1.206 1.425 1.531l1.669 0.831c0.988 0.494 2.188 0.094 2.681-0.894s0.094-2.188-0.894-2.681l-1.344-0.669-0.956-2.3c-1.075-2.569-3.588-4.244-6.375-4.244-1.425 0-2.831 0.3-4.131 0.875l-0.5 0.219c-2.056 0.912-3.631 2.65-4.338 4.781l-0.163 0.488c-0.35 1.050 0.219 2.181 1.262 2.531s2.181-0.219 2.531-1.262l0.162-0.488c0.356-1.069 1.144-1.931 2.169-2.387l0.5-0.219zM5.856 20.975l-1.563 3.9-3.706 3.712c-0.781 0.781-0.781 2.050 0 2.831s2.050 0.781 2.831 0l3.85-3.856c0.287-0.288 0.513-0.631 0.662-1.006l0.906-2.262-2.544-2.775c-0.156-0.169-0.3-0.35-0.438-0.538zM34.413 9.588c-0.781-0.781-2.050-0.781-2.831 0s-0.781 2.050 0 2.831l1.588 1.581h-9.169c-1.106 0-2 0.894-2 2s0.894 2 2 2h9.169l-1.587 1.587c-0.781 0.781-0.781 2.050 0 2.831s2.050 0.781 2.831 0l5-5c0.781-0.781 0.781-2.050 0-2.831l-5-5z"/>
</svg>
