<svg version="1.1" xmlns="http://www.w3.org/2000/svg" width="20" height="32" viewBox="0 0 20 32">
<path fill="currentColor" d="M10 0c1.657 0 3 1.343 3 3s-1.343 3-3 3v0c-1.657 0-3-1.343-3-3s1.343-3 3-3v0zM10.5 22v-14h0.431c2.106 0 4.056 1.106 5.144 2.912l3.644 6.063c0.569 0.944 0.262 2.175-0.681 2.744s-2.175 0.262-2.744-0.681l-1.794-2.981v13.944c0 1.106-0.894 2-2 2s-2-0.894-2-2v-8zM3.638 11.394c1.244-2.069 3.456-3.344 5.862-3.394v22c0 1.106-0.894 2-2 2s-2-0.894-2-2v-6h-1.112c-0.681 0-1.163-0.669-0.95-1.319l2.394-7.175-2.119 3.525c-0.569 0.944-1.8 1.25-2.744 0.681s-1.25-1.8-0.681-2.744l3.35-5.575z"/>
</svg>
