<svg version="1.1" xmlns="http://www.w3.org/2000/svg" width="36" height="32" viewBox="0 0 36 32">
<path fill="currentColor" d="M16 2c0-1.106-0.894-2-2-2s-2 0.894-2 2v10h4v-10zM36 2c0-1.106-0.894-2-2-2s-2 0.894-2 2v28c0 1.106 0.894 2 2 2s2-0.894 2-2v-28zM14 32c1.106 0 2-0.894 2-2v-10h-4v10c0 1.106 0.894 2 2 2zM20 0c-0.581 0-1.131 0.25-1.512 0.688s-0.55 1.019-0.469 1.594l1.95 13.662-1.931 9.662c-0.219 1.081 0.488 2.137 1.569 2.356s2.137-0.488 2.356-1.569l0.044-0.225c0.081 1.025 0.944 1.837 1.994 1.837 1.106 0 2-0.894 2-2 0 1.106 0.894 2 2 2s2-0.894 2-2v-24.006c0-1.106-0.894-2-2-2h-8zM7 5c0-1.657-1.343-3-3-3s-3 1.343-3 3v0c0 1.657 1.343 3 3 3s3-1.343 3-3v0zM7 21.331v-4.5l0.294 0.294c0.563 0.563 1.325 0.881 2.119 0.881h4.588c1.106 0 2-0.894 2-2s-0.894-2-2-2h-4.169l-2.6-2.6c-0.894-0.894-2.112-1.4-3.375-1.4-2.131-0.006-3.856 1.719-3.856 3.844v16.15c0 1.106 0.894 2 2 2s2-0.894 2-2v-6l2 2.669v3.331c0 1.106 0.894 2 2 2s2-0.894 2-2v-3.669c0-0.65-0.213-1.281-0.6-1.8l-2.4-3.2z"/>
</svg>
