<svg version="1.1" xmlns="http://www.w3.org/2000/svg" width="32" height="32" viewBox="0 0 32 32">
<path fill="currentColor" d="M10 2.438c0-0.813 0.625-1.488 1.431-1.556l9.488-0.794c0.581-0.044 1.081 0.412 1.081 1v1.912c0 0.55-0.45 1-1 1h-9.438c-0.863 0-1.563-0.7-1.563-1.563zM11.1 6h9.8c0.063 0.325 0.1 0.656 0.1 1 0 2.762-2.238 5-5 5s-5-2.238-5-5c0-0.344 0.037-0.675 0.1-1zM25.35 28.769l-3.35-5.662v6.894c0 0.081-0.006 0.156-0.012 0.238l-10.894-15.556c1.037-0.444 2.162-0.681 3.331-0.681h3.15c0.994 0 1.956 0.175 2.863 0.494l5.931-10.262c-0.481-0.275-0.644-0.888-0.369-1.369s0.887-0.644 1.369-0.369l1.738 1c0.481 0.275 0.644 0.888 0.369 1.369l-3.475 6.006 0.1 0.056c0.956 0.55 1.288 1.775 0.731 2.731l-2.294 3.969c0.125 0.175 0.244 0.363 0.356 0.55l4.756 8.050c0.7 1.188 0.306 2.719-0.881 3.425s-2.719 0.306-3.425-0.881zM20 32h-8c-1.106 0-2-0.894-2-2v-6.894l-3.35 5.662c-0.7 1.188-2.237 1.581-3.425 0.881s-1.581-2.238-0.881-3.425l4.756-8.050c0.588-0.988 1.356-1.831 2.25-2.5l11.344 16.2c-0.219 0.081-0.45 0.125-0.694 0.125zM18.5 20c0.828 0 1.5-0.672 1.5-1.5s-0.672-1.5-1.5-1.5v0c-0.828 0-1.5 0.672-1.5 1.5s0.672 1.5 1.5 1.5v0z"/>
</svg>
