<svg version="1.1" xmlns="http://www.w3.org/2000/svg" width="28" height="32" viewBox="0 0 28 32">
<path fill="currentColor" d="M22 4c0-2.209-1.791-4-4-4s-4 1.791-4 4v0c0 2.209 1.791 4 4 4s4-1.791 4-4v0zM14.544 16.5l1.431 1.969c0.406 0.556 1.019 0.919 1.7 1.006s1.369-0.106 1.9-0.544l5.5-4.5c1.069-0.875 1.225-2.45 0.35-3.519s-2.45-1.225-3.519-0.35l-3.45 2.825-1.637-2.25c-0.969-1.344-2.531-2.137-4.194-2.137-1.931 0-3.7 1.069-4.6 2.775l-3.037 5.781c-1.263 2.406-0.588 5.369 1.6 6.988l3.325 2.456h-5.412c-1.381 0-2.5 1.119-2.5 2.5s1.119 2.5 2.5 2.5h13c1.081 0 2.038-0.694 2.375-1.719s-0.019-2.15-0.887-2.794l-7.256-5.363 2.813-5.625z"/>
</svg>
