<svg version="1.1" xmlns="http://www.w3.org/2000/svg" width="24" height="32" viewBox="0 0 24 32">
<path fill="currentColor" d="M4 2c-1.106 0-2 0.894-2 2v4c-1.106 0-2 0.894-2 2s0.894 2 2 2v2c-1.106 0-2 0.894-2 2s0.894 2 2 2v10c0 1.106 0.894 2 2 2s2-0.894 2-2v-4h5c4.275 0 7.981-2.438 9.8-6h1.2c1.106 0 2-0.894 2-2s-0.894-2-2-2h-0.044c0.031-0.331 0.044-0.662 0.044-1s-0.012-0.669-0.044-1h0.044c1.106 0 2-0.894 2-2s-0.894-2-2-2h-1.2c-1.819-3.563-5.525-6-9.8-6h-7zM15.9 8h-9.9v-2h5c1.906 0 3.637 0.763 4.9 2zM6 12h11.931c0.044 0.325 0.069 0.662 0.069 1s-0.025 0.675-0.069 1h-11.931v-2zM15.9 18c-1.262 1.238-2.994 2-4.9 2h-5v-2h9.9z"/>
</svg>
