<svg version="1.1" xmlns="http://www.w3.org/2000/svg" width="32" height="32" viewBox="0 0 32 32">
<path fill="currentColor" d="M17.5 0c8.006 0 14.5 6.494 14.5 14.5 0 0.831-0.669 1.5-1.5 1.5s-1.5-0.669-1.5-1.5c0-6.35-5.15-11.5-11.5-11.5-0.831 0-1.5-0.669-1.5-1.5s0.669-1.5 1.5-1.5zM18 12c1.105 0 2 0.895 2 2s-0.895 2-2 2v0c-1.105 0-2-0.895-2-2s0.895-2 2-2v0zM16 7.5c0-0.831 0.669-1.5 1.5-1.5 4.694 0 8.5 3.806 8.5 8.5 0 0.831-0.669 1.5-1.5 1.5s-1.5-0.669-1.5-1.5c0-3.037-2.462-5.5-5.5-5.5-0.831 0-1.5-0.669-1.5-1.5zM7.344 0.087c1.213-0.331 2.481 0.287 2.963 1.45l2.5 6c0.425 1.019 0.131 2.2-0.725 2.894l-3.081 2.525c2.081 4.4 5.644 7.963 10.044 10.044l2.519-3.081c0.7-0.856 1.875-1.15 2.894-0.725l6 2.5c1.163 0.481 1.781 1.75 1.45 2.962l-1.5 5.5c-0.294 1.087-1.281 1.844-2.406 1.844-15.463 0-28-12.537-28-28 0-1.125 0.756-2.112 1.844-2.413l5.5-1.5z"/>
</svg>
