<svg version="1.1" xmlns="http://www.w3.org/2000/svg" width="40" height="32" viewBox="0 0 40 32">
<path fill="currentColor" d="M14.306 1.538c-0.481-1.163-1.75-1.781-2.963-1.45l-5.5 1.5c-1.088 0.3-1.844 1.287-1.844 2.412 0 6.713 2.362 12.875 6.3 17.694l-9.725 7.625c-0.65 0.512-0.769 1.456-0.256 2.106s1.456 0.769 2.106 0.256l37-29c0.65-0.513 0.769-1.456 0.256-2.106s-1.456-0.769-2.106-0.256l-21.762 17.056c-1.113-1.344-2.056-2.825-2.813-4.419l3.081-2.519c0.856-0.7 1.15-1.875 0.725-2.894l-2.5-6zM20.356 21.475l-5.706 4.5c4.769 3.775 10.794 6.025 17.35 6.025 1.125 0 2.112-0.756 2.413-1.844l1.5-5.5c0.331-1.212-0.288-2.481-1.45-2.962l-6-2.5c-1.019-0.425-2.2-0.131-2.894 0.725l-2.525 3.081c-0.938-0.444-1.831-0.95-2.688-1.519z"/>
</svg>
