<svg version="1.1" xmlns="http://www.w3.org/2000/svg" width="40" height="32" viewBox="0 0 40 32">
<path fill="currentColor" d="M16 0h20c2.206 0 4 1.794 4 4v14c0 2.206-1.794 4-4 4h-20c-2.206 0-4-1.794-4-4v-14c0-2.206 1.794-4 4-4zM29.75 6.669c-0.281-0.419-0.75-0.669-1.25-0.669s-0.969 0.25-1.25 0.669l-3.5 5.25-1.081-1.356c-0.288-0.356-0.719-0.563-1.169-0.563s-0.887 0.206-1.169 0.563l-4 5c-0.363 0.45-0.431 1.069-0.181 1.587s0.775 0.85 1.35 0.85h17c0.556 0 1.063-0.306 1.325-0.794s0.231-1.081-0.075-1.537l-6-9zM21 6c0-1.105-0.895-2-2-2s-2 0.895-2 2v0c0 1.105 0.895 2 2 2s2-0.895 2-2v0zM4 8h6v18c0 1.106 0.894 2 2 2h8c1.106 0 2-0.894 2-2v-2h10v4c0 2.206-1.794 4-4 4h-24c-2.206 0-4-1.794-4-4v-16c0-2.206 1.794-4 4-4zM4.5 12c-0.55 0-1 0.45-1 1v1c0 0.55 0.45 1 1 1h1c0.55 0 1-0.45 1-1v-1c0-0.55-0.45-1-1-1h-1zM4.5 18.5c-0.55 0-1 0.45-1 1v1c0 0.55 0.45 1 1 1h1c0.55 0 1-0.45 1-1v-1c0-0.55-0.45-1-1-1h-1zM4.5 25c-0.55 0-1 0.45-1 1v1c0 0.55 0.45 1 1 1h1c0.55 0 1-0.45 1-1v-1c0-0.55-0.45-1-1-1h-1zM25.5 26v1c0 0.55 0.45 1 1 1h1c0.55 0 1-0.45 1-1v-1c0-0.55-0.45-1-1-1h-1c-0.55 0-1 0.45-1 1z"/>
</svg>
