<svg version="1.1" xmlns="http://www.w3.org/2000/svg" width="36" height="32" viewBox="0 0 36 32">
<path fill="currentColor" d="M25 6v0.044c-0.331-0.025-0.663-0.044-1-0.044h-8c-1.031 0-2.031 0.131-2.988 0.375-0.006-0.125-0.012-0.25-0.012-0.375 0-3.313 2.688-6 6-6s6 2.688 6 6zM24 8c0.219 0 0.438 0.006 0.65 0.019 0.262 0.019 0.525 0.044 0.788 0.081 1.1-1.281 2.738-2.1 4.563-2.1h0.719c0.65 0 1.125 0.612 0.969 1.244l-0.863 3.45c0.988 0.925 1.794 2.050 2.344 3.306h0.831c1.106 0 2 0.894 2 2v6c0 1.106-0.894 2-2 2h-2c-0.569 0.756-1.244 1.431-2 2v4c0 1.106-0.894 2-2 2h-2c-1.106 0-2-0.894-2-2v-2h-8v2c0 1.106-0.894 2-2 2h-2c-1.106 0-2-0.894-2-2v-4c-2.181-1.637-3.669-4.144-3.95-7h-1.8c-2.35 0-4.25-1.9-4.25-4.25s1.9-4.25 4.25-4.25h0.25c0.831 0 1.5 0.669 1.5 1.5s-0.669 1.5-1.5 1.5h-0.25c-0.688 0-1.25 0.563-1.25 1.25s0.563 1.25 1.25 1.25h1.95c0.756-3.738 3.606-6.719 7.269-7.675 0.806-0.213 1.656-0.325 2.531-0.325h8zM28 16.5c0-0.828-0.672-1.5-1.5-1.5s-1.5 0.672-1.5 1.5v0c0 0.828 0.672 1.5 1.5 1.5s1.5-0.672 1.5-1.5v0z"/>
</svg>
