<svg version="1.1" xmlns="http://www.w3.org/2000/svg" width="36" height="32" viewBox="0 0 36 32">
<path fill="currentColor" d="M7 6c-1.656 0-3 1.344-3 3v7h6v-7c0-1.656-1.344-3-3-3zM0 9c0-3.869 3.131-7 7-7s7 3.131 7 7v14c0 3.869-3.131 7-7 7s-7-3.131-7-7v-14zM34.681 24.962c-0.444 0.769-1.481 0.819-2.112 0.194l-11.725-11.725c-0.625-0.625-0.581-1.669 0.194-2.112 1.462-0.838 3.156-1.319 4.962-1.319 5.525 0 10 4.475 10 10 0 1.806-0.481 3.5-1.319 4.962zM30.962 28.681c-1.462 0.837-3.156 1.319-4.962 1.319-5.525 0-10-4.475-10-10 0-1.806 0.481-3.5 1.319-4.963 0.444-0.769 1.481-0.819 2.113-0.194l11.725 11.725c0.625 0.625 0.581 1.669-0.194 2.113z"/>
</svg>
