<svg version="1.1" xmlns="http://www.w3.org/2000/svg" width="32" height="32" viewBox="0 0 32 32">
<path fill="currentColor" d="M10.606 0.056c-1.425-0.1-2.619 0.875-2.969 2.169l-0.737 2.775c0.031 0 0.069 0 0.1 0 11.044 0 20 8.956 20 20 0 0.031 0 0.069 0 0.1l2.775-0.738c1.3-0.344 2.269-1.544 2.169-2.969-0.788-11.425-9.912-20.55-21.337-21.337zM24.988 25.637c0.006-0.212 0.012-0.425 0.012-0.637 0-9.944-8.056-18-18-18-0.213 0-0.425 0.006-0.638 0.013l-6.331 23.731c-0.094 0.344 0.006 0.712 0.256 0.962s0.619 0.35 0.963 0.256l23.738-6.325zM11 13c1.105 0 2 0.895 2 2s-0.895 2-2 2v0c-1.105 0-2-0.895-2-2s0.895-2 2-2v0zM15 21c0-1.105 0.895-2 2-2s2 0.895 2 2v0c0 1.105-0.895 2-2 2s-2-0.895-2-2v0zM6 24c0-1.105 0.895-2 2-2s2 0.895 2 2v0c0 1.105-0.895 2-2 2s-2-0.895-2-2v0z"/>
</svg>
