<svg version="1.1" xmlns="http://www.w3.org/2000/svg" width="40" height="32" viewBox="0 0 40 32">
<path fill="currentColor" d="M14 6.831v6.769l-2.544 1.525c-0.906 0.544-1.456 1.519-1.456 2.575v14.3h6v-6c0-2.206 1.794-4 4-4s4 1.794 4 4v6h6v-14.3c0-1.056-0.55-2.031-1.456-2.575l-2.544-1.525v-6.769c0-0.531-0.212-1.038-0.587-1.413l-4.706-4.713c-0.387-0.388-1.025-0.388-1.413 0l-4.706 4.706c-0.375 0.375-0.588 0.881-0.588 1.413zM1.556 20.644c-0.963 0.531-1.556 1.538-1.556 2.631v5.725c0 1.656 1.344 3 3 3h5v-14.9l-6.444 3.544zM37 32c1.656 0 3-1.344 3-3v-5.725c0-1.094-0.594-2.1-1.556-2.631l-6.444-3.544v14.9h5z"/>
</svg>
