<svg version="1.1" xmlns="http://www.w3.org/2000/svg" width="40" height="32" viewBox="0 0 40 32">
<path fill="currentColor" d="M16 0c-2.188 0-4 3.719-4 5.856v5.288l-11.494 6.569c-0.313 0.175-0.506 0.512-0.506 0.869v4.094c0 0.663 0.637 1.144 1.275 0.962l10.725-3.063v4.431l-3.6 2.7c-0.25 0.188-0.4 0.488-0.4 0.8v2.625c0 0.488 0.394 0.875 0.875 0.875 0.081 0 0.162-0.012 0.244-0.031l6.881-1.975 6.881 1.969c0.081 0.025 0.163 0.031 0.244 0.031 0.375 0 0.694-0.231 0.819-0.563-2.413-2.019-3.944-5.050-3.944-8.438 0-3.788 1.913-7.125 4.819-9.1l-4.819-2.756v-5.287c0-2.138-1.75-5.856-4-5.856zM31 32c4.971 0 9-4.029 9-9s-4.029-9-9-9v0c-4.971 0-9 4.029-9 9s4.029 9 9 9v0zM31 26c0.828 0 1.5 0.672 1.5 1.5s-0.672 1.5-1.5 1.5v0c-0.828 0-1.5-0.672-1.5-1.5s0.672-1.5 1.5-1.5v0zM31 17c0.55 0 1 0.45 1 1v5c0 0.55-0.45 1-1 1s-1-0.45-1-1v-5c0-0.55 0.45-1 1-1z"/>
</svg>
