<svg version="1.1" xmlns="http://www.w3.org/2000/svg" width="36" height="32" viewBox="0 0 36 32">
<path fill="currentColor" d="M30.144 12c2.137 0 5.856 1.813 5.856 4 0 2.25-3.719 4-5.856 4h-7.287l-6.281 10.994c-0.356 0.625-1.019 1.006-1.738 1.006h-3.512c-0.662 0-1.144-0.637-0.963-1.275l3.063-10.725h-6.425l-2.7 3.6c-0.188 0.25-0.487 0.4-0.8 0.4h-2.625c-0.487 0-0.875-0.394-0.875-0.875 0-0.081 0.013-0.163 0.031-0.244l1.969-6.881-1.969-6.881c-0.025-0.081-0.031-0.162-0.031-0.244 0-0.488 0.394-0.875 0.875-0.875h2.625c0.313 0 0.612 0.15 0.8 0.4l2.7 3.6h6.431l-3.063-10.725c-0.188-0.637 0.294-1.275 0.956-1.275h3.512c0.719 0 1.381 0.388 1.738 1.006l6.281 10.994h7.288z"/>
</svg>
