<svg version="1.1" xmlns="http://www.w3.org/2000/svg" width="32" height="32" viewBox="0 0 32 32">
<path fill="currentColor" d="M12 5.856c0-2.138 1.813-5.856 4-5.856 2.25 0 4 3.719 4 5.856v4.144l11.113 7.406c0.556 0.369 0.887 0.994 0.887 1.663v3.544c0 0.681-0.669 1.163-1.319 0.95l-10.681-3.563v5l3.6 2.7c0.25 0.188 0.4 0.488 0.4 0.8v2.625c0 0.488-0.394 0.875-0.875 0.875-0.081 0-0.163-0.012-0.244-0.031l-6.881-1.969-6.881 1.969c-0.081 0.025-0.162 0.031-0.244 0.031-0.488 0-0.875-0.394-0.875-0.875v-2.625c0-0.313 0.15-0.613 0.4-0.8l3.6-2.7v-5l-10.681 3.563c-0.65 0.212-1.319-0.269-1.319-0.95v-3.544c0-0.669 0.331-1.294 0.887-1.663l11.113-7.406v-4.144z"/>
</svg>
