<svg version="1.1" xmlns="http://www.w3.org/2000/svg" width="32" height="32" viewBox="0 0 32 32">
<path fill="currentColor" d="M18 7.5c0-1.931 1.569-3.5 3.5-3.5s3.5 1.569 3.5 3.5v0.813c-1.831 0.625-3 2.156-3 4.381 0 1.744 1.581 4.675 4.125 6.975 0.238 0.219 0.556 0.331 0.875 0.331s0.637-0.113 0.875-0.331c2.544-2.3 4.125-5.231 4.125-6.975 0-2.225-1.169-3.763-3-4.381v-0.813c0-4.144-3.356-7.5-7.5-7.5s-7.5 3.356-7.5 7.5v1.363c-1.044-0.55-2.238-0.863-3.5-0.863-4.144 0-7.5 3.356-7.5 7.5v0.813c-1.831 0.625-3 2.156-3 4.381 0 1.744 1.581 4.675 4.125 6.975 0.237 0.219 0.556 0.331 0.875 0.331s0.638-0.113 0.875-0.331c2.544-2.3 4.125-5.231 4.125-6.975 0-2.225-1.169-3.762-3-4.381v-0.813c0-1.931 1.569-3.5 3.5-3.5s3.5 1.569 3.5 3.5v14.5c0 1.106 0.894 2 2 2s2-0.894 2-2v-22.5z"/>
</svg>
