<svg version="1.1" xmlns="http://www.w3.org/2000/svg" width="40" height="32" viewBox="0 0 40 32">
<path fill="currentColor" d="M32.144 12c2.138 0 5.856 1.813 5.856 4 0 2.25-3.719 4-5.856 4h-4.606l11.887 9.319c0.65 0.512 0.769 1.456 0.256 2.106s-1.456 0.769-2.106 0.256l-37-29c-0.65-0.513-0.769-1.456-0.256-2.106s1.456-0.769 2.106-0.256l12.456 9.762-2.519-8.806c-0.181-0.637 0.3-1.275 0.963-1.275h3.513c0.719 0 1.381 0.388 1.738 1.006l6.281 10.994h7.287zM2.594 8.044l20.063 15.806-4.081 7.144c-0.356 0.625-1.019 1.006-1.738 1.006h-3.512c-0.662 0-1.144-0.637-0.963-1.275l3.063-10.725h-6.425l-2.7 3.6c-0.188 0.25-0.487 0.4-0.8 0.4h-2.625c-0.487 0-0.875-0.394-0.875-0.875 0-0.081 0.013-0.163 0.031-0.244l1.969-6.881-1.969-6.881c-0.025-0.081-0.031-0.162-0.031-0.244 0-0.387 0.25-0.713 0.594-0.831z"/>
</svg>
