<svg version="1.1" xmlns="http://www.w3.org/2000/svg" width="40" height="32" viewBox="0 0 40 32">
<path fill="currentColor" d="M0.019 10.431l-0.019-6.181c0-0.644 0.594-1.119 1.219-0.981l2.225 0.494c0.663 0.144 1.2 0.619 1.437 1.25l1.119 2.987 7.956 2.35-2.594-9.075c-0.181-0.637 0.3-1.275 0.963-1.275h2.506c0.725 0 1.387 0.388 1.744 1.019l6.813 12.113 6.7 1.981c0.994 0.294 1.925 0.781 2.731 1.425l2.15 1.725c1.5 1.2 1.131 3.581-0.669 4.262-2.575 0.975-5.387 1.131-8.050 0.438l-18.644-4.85c-0.694-0.181-1.325-0.544-1.831-1.056l-5.181-5.219c-0.369-0.375-0.581-0.875-0.581-1.406zM2 28h36c1.106 0 2 0.894 2 2s-0.894 2-2 2h-36c-1.106 0-2-0.894-2-2s0.894-2 2-2zM8 23c0-1.105 0.895-2 2-2s2 0.895 2 2v0c0 1.105-0.895 2-2 2s-2-0.895-2-2v0zM16 22c1.105 0 2 0.895 2 2s-0.895 2-2 2v0c-1.105 0-2-0.895-2-2s0.895-2 2-2v0z"/>
</svg>
