<svg version="1.1" xmlns="http://www.w3.org/2000/svg" width="40" height="32" viewBox="0 0 40 32">
<path fill="currentColor" d="M23.813 7.181l-12.181-4.569c-1.044-0.388-2.2-0.331-3.194 0.169l-2.869 1.431c-0.694 0.35-0.744 1.319-0.094 1.737l9.181 5.906-6.156 3.144-3.638-1.619c-0.544-0.244-1.175-0.231-1.706 0.037l-2.013 1.006c-0.581 0.294-0.738 1.050-0.313 1.544l4.569 5.331c0.381 0.444 0.938 0.7 1.519 0.7h8.606c0.313 0 0.619-0.075 0.894-0.212l17.056-8.525c2.906-1.456 5.156-3.956 6.3-7 0.594-1.575-0.575-3.263-2.263-3.263h-3.587c-1.263 0-2.512 0.3-3.637 0.875l-6.475 3.306zM0 30c0 1.106 0.894 2 2 2h36c1.106 0 2-0.894 2-2s-0.894-2-2-2h-36c-1.106 0-2 0.894-2 2z"/>
</svg>
