<svg version="1.1" xmlns="http://www.w3.org/2000/svg" width="40" height="32" viewBox="0 0 40 32">
<path fill="currentColor" d="M12 5.856c0-2.138 1.813-5.856 4-5.856 2.25 0 4 3.719 4 5.856v5.288l6.363 3.637c-0.238 0.694-0.363 1.444-0.363 2.219v1.538c-1.119 0.65-1.894 1.819-1.988 3.181l-4.012-1.15v4.431l3.6 2.7c0.25 0.188 0.4 0.488 0.4 0.8v2.625c0 0.488-0.394 0.875-0.875 0.875-0.081 0-0.163-0.012-0.244-0.031l-6.881-1.969-6.881 1.969c-0.081 0.025-0.162 0.031-0.244 0.031-0.488 0-0.875-0.394-0.875-0.875v-2.625c0-0.313 0.15-0.613 0.4-0.8l3.6-2.7v-4.431l-10.725 3.063c-0.637 0.188-1.275-0.294-1.275-0.956v-4.094c0-0.356 0.194-0.688 0.506-0.869l11.494-6.569v-5.287zM33 15c-1.106 0-2 0.894-2 2v3h4v-3c0-1.106-0.894-2-2-2zM28 17c0-2.762 2.238-5 5-5s5 2.238 5 5v3c1.106 0 2 0.894 2 2v8c0 1.106-0.894 2-2 2h-10c-1.106 0-2-0.894-2-2v-8c0-1.106 0.894-2 2-2v-3z"/>
</svg>
