<svg version="1.1" xmlns="http://www.w3.org/2000/svg" width="32" height="32" viewBox="0 0 32 32">
<path fill="currentColor" d="M11 2c2.762 0 5 2.237 5 5v1c0 0.55-0.45 1-1 1-2.762 0-5-2.237-5-5v-1c0-0.55 0.45-1 1-1zM3.5 4h3c0.831 0 1.5 0.669 1.5 1.5s-0.669 1.5-1.5 1.5h-3c-0.831 0-1.5-0.669-1.5-1.5s0.669-1.5 1.5-1.5zM1.5 8.5h7c0.831 0 1.5 0.669 1.5 1.5s-0.669 1.5-1.5 1.5h-7c-0.831 0-1.5-0.669-1.5-1.5s0.669-1.5 1.5-1.5zM2 14.5c0-0.831 0.669-1.5 1.5-1.5h3c0.831 0 1.5 0.669 1.5 1.5s-0.669 1.5-1.5 1.5h-3c-0.831 0-1.5-0.669-1.5-1.5zM17 3c0-0.55 0.45-1 1-1 2.762 0 5 2.237 5 5v1c0 0.55-0.45 1-1 1-2.762 0-5-2.237-5-5v-1zM25 2c2.762 0 5 2.237 5 5v1c0 0.55-0.45 1-1 1-2.762 0-5-2.237-5-5v-1c0-0.55 0.45-1 1-1zM30 12v1c0 2.762-2.238 5-5 5-0.55 0-1-0.45-1-1v-1c0-2.762 2.238-5 5-5 0.55 0 1 0.45 1 1zM22 11c0.55 0 1 0.45 1 1v1c0 2.762-2.238 5-5 5-0.55 0-1-0.45-1-1v-1c0-2.762 2.238-5 5-5zM16 12v1c0 2.762-2.238 5-5 5-0.55 0-1-0.45-1-1v-1c0-2.762 2.238-5 5-5 0.55 0 1 0.45 1 1zM0.219 21.725c-0.119-0.919 0.594-1.725 1.519-1.725h28.525c0.925 0 1.637 0.806 1.525 1.725-0.394 3.137-2.775 5.587-5.787 6.15v0.125c0 1.106-0.894 2-2 2h-16c-1.106 0-2-0.894-2-2v-0.125c-3.013-0.563-5.394-3.012-5.781-6.15z"/>
</svg>
