<svg version="1.1" xmlns="http://www.w3.org/2000/svg" width="36" height="32" viewBox="0 0 36 32">
<path fill="currentColor" d="M6 0c-1.106 0-2 0.894-2 2v6h4v-6c0-1.106-0.894-2-2-2zM18 0c-1.106 0-2 0.894-2 2v6h4v-6c0-1.106-0.894-2-2-2zM2 10c-1.106 0-2 0.894-2 2s0.894 2 2 2v2c0 4.837 3.438 8.875 8 9.8v4.2c0 1.106 0.894 2 2 2s2-0.894 2-2v-4.2c0.769-0.156 1.506-0.4 2.194-0.719-0.131-0.675-0.194-1.369-0.194-2.081 0-5.019 3.363-9.25 7.956-10.575 0.031-0.137 0.044-0.281 0.044-0.425 0-1.106-0.894-2-2-2h-20zM27 32c4.971 0 9-4.029 9-9s-4.029-9-9-9v0c-4.971 0-9 4.029-9 9s4.029 9 9 9v0zM29.994 17.938c0.269 0.231 0.337 0.619 0.163 0.931l-1.881 3.381h2.225c0.325 0 0.613 0.206 0.712 0.512s-0.006 0.644-0.262 0.837l-6 4.5c-0.281 0.212-0.675 0.2-0.944-0.038s-0.337-0.619-0.163-0.931l1.881-3.381h-2.225c-0.325 0-0.613-0.206-0.712-0.512s0.006-0.644 0.262-0.837l6-4.5c0.281-0.212 0.675-0.2 0.944 0.038z"/>
</svg>
