<svg version="1.1" xmlns="http://www.w3.org/2000/svg" width="36" height="32" viewBox="0 0 36 32">
<path fill="currentColor" d="M6 0c-1.106 0-2 0.894-2 2v6h4v-6c0-1.106-0.894-2-2-2zM18 0c-1.106 0-2 0.894-2 2v6h4v-6c0-1.106-0.894-2-2-2zM2 10c-1.106 0-2 0.894-2 2s0.894 2 2 2v2c0 4.837 3.438 8.875 8 9.8v4.2c0 1.106 0.894 2 2 2s2-0.894 2-2v-4.2c0.769-0.156 1.506-0.4 2.194-0.719-0.131-0.675-0.194-1.369-0.194-2.081 0-5.019 3.363-9.25 7.956-10.575 0.031-0.137 0.044-0.281 0.044-0.425 0-1.106-0.894-2-2-2h-20zM27 32c4.971 0 9-4.029 9-9s-4.029-9-9-9v0c-4.971 0-9 4.029-9 9s4.029 9 9 9v0zM30.706 20.706l-2.294 2.294 2.294 2.294c0.387 0.387 0.387 1.025 0 1.413s-1.025 0.387-1.413 0l-2.294-2.294-2.294 2.294c-0.387 0.387-1.025 0.387-1.413 0s-0.387-1.025 0-1.413l2.294-2.294-2.294-2.294c-0.387-0.387-0.387-1.025 0-1.413s1.025-0.387 1.413 0l2.294 2.294 2.294-2.294c0.387-0.387 1.025-0.387 1.413 0s0.387 1.025 0 1.413z"/>
</svg>
