<svg version="1.1" xmlns="http://www.w3.org/2000/svg" width="28" height="32" viewBox="0 0 28 32">
<path fill="currentColor" d="M19.962 23.25c3.031-1.956 5.038-5.369 5.038-9.25 0-6.075-4.925-11-11-11s-11 4.925-11 11c0 3.881 2.006 7.288 5.037 9.25 0.075 1.081 0.25 2.375 0.45 3.569l0.012 0.063c-5-2.144-8.5-7.1-8.5-12.881 0-7.731 6.269-14 14-14s14 6.269 14 14c0 5.781-3.5 10.744-8.5 12.881l0.012-0.069c0.194-1.2 0.375-2.488 0.45-3.563zM19.819 20.869c-0.1-0.356-0.244-0.694-0.438-1.012-0.363-0.606-0.844-1.063-1.369-1.4 1.219-1.1 1.988-2.688 1.988-4.456 0-3.313-2.688-6-6-6s-6 2.688-6 6c0 1.769 0.769 3.363 1.988 4.456-0.525 0.337-1.006 0.794-1.369 1.4-0.194 0.319-0.338 0.656-0.438 1.012-1.944-1.65-3.181-4.119-3.181-6.869 0-4.969 4.031-9 9-9s9 4.031 9 9c0 2.75-1.238 5.219-3.181 6.869zM14 19.5c2.056 0 4 0.538 4 2.738 0 2.063-0.806 6.506-1.288 8.306-0.319 1.188-1.531 1.462-2.713 1.462s-2.388-0.275-2.713-1.462c-0.488-1.781-1.287-6.231-1.287-8.3 0-2.194 1.944-2.738 4-2.738zM14 10.5c1.933 0 3.5 1.567 3.5 3.5s-1.567 3.5-3.5 3.5v0c-1.933 0-3.5-1.567-3.5-3.5s1.567-3.5 3.5-3.5v0z"/>
</svg>
