<svg version="1.1" xmlns="http://www.w3.org/2000/svg" width="28" height="32" viewBox="0 0 28 32">
<path fill="currentColor" d="M14.806 0.013c-0.344-0.044-0.688 0.087-0.906 0.356s-0.287 0.631-0.175 0.956c0.175 0.512 0.269 1.056 0.269 1.631 0 1.356-0.531 2.325-1.369 2.975-0.863 0.675-2.125 1.063-3.613 1.063h-1.013c-2.206 0-4 1.794-4 4 0 0.762 0.213 1.469 0.581 2.075-2.6 0.444-4.581 2.706-4.581 5.431 0 2.563 1.75 4.712 4.112 5.325-0.331-1.156 0.063-2.406 1.013-3.169l10-8c1.1-0.881 2.663-0.875 3.762 0.012s1.425 2.412 0.8 3.675l-1.831 3.656h1.144c1.275 0 2.406 0.806 2.831 2.006 0.231 0.663 0.219 1.363 0 1.994h0.669c3.038 0 5.5-2.462 5.5-5.5 0-2.725-1.981-4.988-4.581-5.425 0.369-0.606 0.581-1.319 0.581-2.075 0-2.206-1.794-4-4-4h-0.087c0.056-0.338 0.087-0.681 0.087-1.037 0-3.044-2.256-5.556-5.194-5.95zM17.625 14.225c-0.363-0.294-0.887-0.294-1.256-0.006l-10 8c-0.331 0.262-0.463 0.712-0.319 1.113s0.519 0.669 0.944 0.669h4.381l-3.269 6.55c-0.213 0.419-0.1 0.931 0.269 1.225s0.887 0.294 1.256 0.006l10-8c0.331-0.262 0.462-0.712 0.319-1.113s-0.519-0.669-0.944-0.669h-4.387l3.275-6.55c0.212-0.419 0.1-0.931-0.269-1.225z"/>
</svg>
