<svg version="1.1" xmlns="http://www.w3.org/2000/svg" width="32" height="32" viewBox="0 0 32 32">
<path fill="currentColor" d="M16.806 0.056c-0.344-0.044-0.688 0.087-0.906 0.356s-0.287 0.631-0.175 0.962c0.175 0.512 0.269 1.056 0.269 1.631 0 2.756-2.231 4.994-4.988 5h-1.006c-2.206 0-4 1.794-4 4 0 1.194 0.525 2.269 1.356 3h-0.856c-2.487 0-4.5 2.013-4.5 4.5 0 1.45 0.688 2.738 1.75 3.563-2.131 0.356-3.75 2.206-3.75 4.438 0 2.488 2.013 4.5 4.5 4.5h23c2.488 0 4.5-2.012 4.5-4.5 0-2.231-1.619-4.081-3.75-4.438 1.063-0.825 1.75-2.113 1.75-3.563 0-2.488-2.012-4.5-4.5-4.5h-0.856c0.831-0.731 1.356-1.806 1.356-3 0-2.206-1.794-4-4-4h-0.344c0.219-0.625 0.344-1.3 0.344-2 0-3.038-2.262-5.55-5.194-5.944zM12 16c1.105 0 2 0.895 2 2s-0.895 2-2 2v0c-1.105 0-2-0.895-2-2s0.895-2 2-2v0zM18 18c0-1.105 0.895-2 2-2s2 0.895 2 2v0c0 1.105-0.895 2-2 2s-2-0.895-2-2v0zM22 24.769c0 0.15-0.044 0.3-0.137 0.419-0.512 0.656-2.469 2.813-5.863 2.813s-5.35-2.163-5.863-2.813c-0.094-0.119-0.137-0.269-0.137-0.419 0-0.425 0.344-0.769 0.769-0.769h10.463c0.425 0 0.769 0.344 0.769 0.769z"/>
</svg>
