<svg version="1.1" xmlns="http://www.w3.org/2000/svg" width="32" height="32" viewBox="0 0 32 32">
<path fill="currentColor" d="M15.9 0.412c0.219-0.269 0.562-0.406 0.906-0.356 2.931 0.394 5.194 2.906 5.194 5.944 0 0.7-0.119 1.375-0.344 2h0.344c2.206 0 4 1.794 4 4 0 1.194-0.525 2.269-1.356 3h0.856c2.488 0 4.5 2.012 4.5 4.5 0 1.45-0.688 2.738-1.75 3.563 2.131 0.356 3.75 2.206 3.75 4.438 0 2.488-2.012 4.5-4.5 4.5h-23c-2.487 0-4.5-2.012-4.5-4.5 0-2.231 1.619-4.081 3.75-4.438-1.063-0.825-1.75-2.113-1.75-3.563 0-2.488 2.013-4.5 4.5-4.5h0.856c-0.831-0.731-1.356-1.806-1.356-3 0-2.206 1.794-4 4-4h1.012c2.756-0.006 4.988-2.244 4.988-5 0-0.575-0.094-1.119-0.269-1.631-0.113-0.325-0.050-0.694 0.175-0.963z"/>
</svg>
