<svg version="1.1" xmlns="http://www.w3.org/2000/svg" width="32" height="32" viewBox="0 0 32 32">
<path fill="currentColor" d="M18 2c0-1.106-0.894-2-2-2s-2 0.894-2 2v14c0 1.106 0.894 2 2 2s2-0.894 2-2v-14zM8.969 7.537c0.85-0.706 0.963-1.969 0.256-2.819s-1.969-0.962-2.819-0.256c-3.3 2.75-5.406 6.9-5.406 11.537 0 8.281 6.719 15 15 15s15-6.719 15-15c0-4.637-2.113-8.787-5.413-11.537-0.85-0.706-2.113-0.587-2.819 0.256s-0.587 2.112 0.256 2.819c2.431 2.019 3.969 5.063 3.969 8.463 0 6.075-4.925 11-11 11s-11-4.925-11-11c0-3.4 1.544-6.444 3.969-8.463z"/>
</svg>
