<svg version="1.1" xmlns="http://www.w3.org/2000/svg" width="28" height="32" viewBox="0 0 28 32">
<path fill="currentColor" d="M2 0c-1.106 0-2 0.894-2 2v16c0 1.106 0.894 2 2 2s2-0.894 2-2v-4h3.169l8 8-6.581 6.587c-0.781 0.781-0.781 2.050 0 2.831s2.050 0.781 2.831 0l6.581-6.588 6.587 6.581c0.781 0.781 2.050 0.781 2.831 0s0.781-2.050 0-2.831l-6.588-6.581 6.581-6.588c0.781-0.781 0.781-2.050 0-2.831s-2.050-0.781-2.831 0l-6.581 6.587-5.363-5.363c3.075-0.738 5.363-3.506 5.363-6.806 0-3.869-3.131-7-7-7h-9zM11 10h-7v-6h7c1.656 0 3 1.344 3 3s-1.344 3-3 3z"/>
</svg>
