<svg version="1.1" xmlns="http://www.w3.org/2000/svg" width="28" height="32" viewBox="0 0 28 32">
<path fill="currentColor" d="M8 2v6h8v-2h3.756c0.262 0 0.519 0.106 0.706 0.294l2.119 2.119c0.781 0.781 2.050 0.781 2.831 0s0.781-2.050 0-2.831l-2.119-2.119c-0.938-0.938-2.212-1.462-3.538-1.462h-3.756c0-1.106-0.894-2-2-2h-4c-1.106 0-2 0.894-2 2zM7.338 10c-2.081 0-3.813 1.594-3.987 3.669l-1.163 14c-0.194 2.331 1.644 4.331 3.988 4.331h11.65c2.337 0 4.181-2 3.988-4.331l-1.169-14c-0.175-2.075-1.906-3.669-3.988-3.669h-9.319zM13.5 17.5v2h2c0.831 0 1.5 0.669 1.5 1.5s-0.669 1.5-1.5 1.5h-2v2c0 0.831-0.669 1.5-1.5 1.5s-1.5-0.669-1.5-1.5v-2h-2c-0.831 0-1.5-0.669-1.5-1.5s0.669-1.5 1.5-1.5h2v-2c0-0.831 0.669-1.5 1.5-1.5s1.5 0.669 1.5 1.5z"/>
</svg>
