<svg version="1.1" xmlns="http://www.w3.org/2000/svg" width="28" height="32" viewBox="0 0 28 32">
<path fill="currentColor" d="M8 2v6h8v-2h3.756c0.262 0 0.519 0.106 0.706 0.294l2.119 2.119c0.781 0.781 2.050 0.781 2.831 0s0.781-2.050 0-2.831l-2.119-2.119c-0.938-0.938-2.212-1.462-3.538-1.462h-3.756c0-1.106-0.894-2-2-2h-4c-1.106 0-2 0.894-2 2zM7.338 10c-2.081 0-3.813 1.594-3.987 3.669l-1.163 14c-0.194 2.331 1.644 4.331 3.988 4.331h11.65c2.337 0 4.181-2 3.988-4.331l-1.169-14c-0.175-2.075-1.906-3.669-3.988-3.669h-9.319zM16 22.5c0 2.206-1.794 3.5-4 3.5s-4-1.294-4-3.5c0-2.031 2.313-5.056 3.181-6.119 0.2-0.244 0.506-0.381 0.819-0.381s0.619 0.137 0.819 0.381c0.869 1.063 3.181 4.087 3.181 6.119z"/>
</svg>
