<svg version="1.1" xmlns="http://www.w3.org/2000/svg" width="32" height="32" viewBox="0 0 32 32">
<path fill="currentColor" d="M12 6.55c0-0.575-0.363-1.081-0.825-1.425-0.725-0.544-1.175-1.294-1.175-2.125 0-1.656 1.794-3 4-3s4 1.344 4 3c0 0.831-0.45 1.581-1.175 2.125-0.462 0.344-0.825 0.85-0.825 1.425v0c0 0.8 0.65 1.45 1.45 1.45h3.55c1.656 0 3 1.344 3 3v3.55c0 0.8 0.65 1.45 1.45 1.45v0c0.575 0 1.081-0.363 1.425-0.825 0.544-0.725 1.294-1.175 2.125-1.175 1.656 0 3 1.794 3 4s-1.344 4-3 4c-0.831 0-1.581-0.45-2.125-1.175-0.344-0.462-0.85-0.825-1.425-0.825v0c-0.8 0-1.45 0.65-1.45 1.45v7.55c0 1.656-1.344 3-3 3h-3.55c-0.8 0-1.45-0.65-1.45-1.45v0c0-0.575 0.363-1.081 0.825-1.425 0.725-0.544 1.175-1.294 1.175-2.125 0-1.656-1.794-3-4-3s-4 1.344-4 3c0 0.831 0.45 1.581 1.175 2.125 0.463 0.344 0.825 0.85 0.825 1.425v0c0 0.8-0.65 1.45-1.45 1.45h-7.55c-1.656 0-3-1.344-3-3v-7.55c0-0.8 0.65-1.45 1.45-1.45v0c0.575 0 1.081 0.363 1.425 0.825 0.544 0.725 1.294 1.175 2.125 1.175 1.656 0 3-1.794 3-4s-1.344-4-3-4c-0.831 0-1.581 0.45-2.125 1.175-0.344 0.463-0.85 0.825-1.425 0.825v0c-0.8 0-1.45-0.65-1.45-1.45v-3.55c0-1.656 1.344-3 3-3h7.55c0.8 0 1.45-0.65 1.45-1.45v0z"/>
</svg>
