<svg version="1.1" xmlns="http://www.w3.org/2000/svg" width="28" height="32" viewBox="0 0 28 32">
<path fill="currentColor" d="M4 16c0 5.525 4.475 10 10 10 1.806 0 3.5-0.481 4.962-1.319l-4.5-5.4c-0.706-0.85-0.594-2.113 0.256-2.819s2.112-0.594 2.819 0.256l4.431 5.319c1.275-1.675 2.031-3.769 2.031-6.038 0-5.525-4.475-10-10-10s-10 4.475-10 10zM21.556 27.788c-2.181 1.4-4.775 2.212-7.556 2.212-7.731 0-14-6.269-14-14s6.269-14 14-14 14 6.269 14 14c0 3.506-1.288 6.712-3.419 9.169l2.956 3.55c0.706 0.85 0.594 2.113-0.256 2.819s-2.113 0.594-2.819-0.256l-2.913-3.494z"/>
</svg>
