<svg version="1.1" xmlns="http://www.w3.org/2000/svg" width="28" height="32" viewBox="0 0 28 32">
<path fill="currentColor" d="M0 5c0-1.656 1.344-3 3-3h6c1.656 0 3 1.344 3 3v6c0 1.656-1.344 3-3 3h-6c-1.656 0-3-1.344-3-3v-6zM4 6v4h4v-4h-4zM0 21c0-1.656 1.344-3 3-3h6c1.656 0 3 1.344 3 3v6c0 1.656-1.344 3-3 3h-6c-1.656 0-3-1.344-3-3v-6zM4 22v4h4v-4h-4zM19 2h6c1.656 0 3 1.344 3 3v6c0 1.656-1.344 3-3 3h-6c-1.656 0-3-1.344-3-3v-6c0-1.656 1.344-3 3-3zM24 6h-4v4h4v-4zM16 19c0-0.55 0.45-1 1-1h4c0.55 0 1 0.45 1 1s0.45 1 1 1h2c0.55 0 1-0.45 1-1s0.45-1 1-1 1 0.45 1 1v6c0 0.55-0.45 1-1 1h-4c-0.55 0-1-0.45-1-1s-0.45-1-1-1-1 0.45-1 1v4c0 0.55-0.45 1-1 1h-2c-0.55 0-1-0.45-1-1v-10zM23 30c-0.552 0-1-0.448-1-1s0.448-1 1-1v0c0.552 0 1 0.448 1 1s-0.448 1-1 1v0zM27 30c-0.552 0-1-0.448-1-1s0.448-1 1-1v0c0.552 0 1 0.448 1 1s-0.448 1-1 1v0z"/>
</svg>
