<svg version="1.1" xmlns="http://www.w3.org/2000/svg" width="20" height="32" viewBox="0 0 20 32">
<path fill="currentColor" d="M5 10c0-2.206 1.794-4 4-4h2c2.206 0 4 1.794 4 4v0.225c0 1.363-0.694 2.631-1.838 3.362l-2.638 1.694c-1.575 1.013-2.525 2.756-2.525 4.625v0.094c0 1.106 0.894 2 2 2s2-0.894 2-2v-0.087c0-0.512 0.262-0.988 0.688-1.262l2.638-1.694c2.288-1.475 3.675-4.006 3.675-6.731v-0.225c0-4.419-3.581-8-8-8h-2c-4.419 0-8 3.581-8 8 0 1.106 0.894 2 2 2s2-0.894 2-2zM10 30c1.381 0 2.5-1.119 2.5-2.5s-1.119-2.5-2.5-2.5v0c-1.381 0-2.5 1.119-2.5 2.5s1.119 2.5 2.5 2.5v0z"/>
</svg>
