<svg version="1.1" xmlns="http://www.w3.org/2000/svg" width="28" height="32" viewBox="0 0 28 32">
<path fill="currentColor" d="M28 18.5c0 4.144-3.356 7.5-7.5 7.5h-0.5c-1.106 0-2-0.894-2-2s0.894-2 2-2h0.5c1.931 0 3.5-1.569 3.5-3.5v-0.5h-4c-2.206 0-4-1.794-4-4v-4c0-2.206 1.794-4 4-4h4c2.206 0 4 1.794 4 4v8.5zM12 18.5c0 4.144-3.356 7.5-7.5 7.5h-0.5c-1.106 0-2-0.894-2-2s0.894-2 2-2h0.5c1.931 0 3.5-1.569 3.5-3.5v-0.5h-4c-2.206 0-4-1.794-4-4v-4c0-2.206 1.794-4 4-4h4c2.206 0 4 1.794 4 4v8.5z"/>
</svg>
