<svg version="1.1" xmlns="http://www.w3.org/2000/svg" width="32" height="32" viewBox="0 0 32 32">
<path fill="currentColor" d="M13.5 11.669c-1.494 0.863-2.5 2.481-2.5 4.331h-9c-1.106 0-2.013-0.9-1.875-1.994 0.544-4.381 2.862-8.213 6.206-10.756 0.881-0.669 2.112-0.331 2.669 0.625l4.5 7.794zM16 21c0.913 0 1.762-0.244 2.5-0.669l4.5 7.8c0.55 0.956 0.231 2.194-0.788 2.619-1.913 0.806-4.012 1.25-6.213 1.25s-4.306-0.444-6.213-1.25c-1.019-0.431-1.338-1.663-0.787-2.619l4.5-7.8c0.738 0.425 1.588 0.669 2.5 0.669zM30 16h-9c0-1.85-1.006-3.469-2.5-4.331l4.5-7.794c0.55-0.956 1.788-1.294 2.669-0.625 3.35 2.544 5.662 6.375 6.213 10.756 0.138 1.094-0.775 1.994-1.875 1.994zM16 13c1.657 0 3 1.343 3 3s-1.343 3-3 3v0c-1.657 0-3-1.343-3-3s1.343-3 3-3v0z"/>
</svg>
