<svg version="1.1" xmlns="http://www.w3.org/2000/svg" width="40" height="32" viewBox="0 0 40 32">
<path fill="currentColor" d="M22.113 3.381l-1.475-2.987c-0.244-0.519-1.006-0.537-1.275 0l-1.475 2.987-3.269 0.469c-0.581 0.087-0.831 0.806-0.4 1.238l2.375 2.313-0.563 3.256c-0.088 0.581 0.512 1.031 1.050 0.762l2.931-1.55 2.913 1.525c0.538 0.269 1.144-0.181 1.050-0.762l-0.563-3.256 2.375-2.287c0.425-0.425 0.181-1.144-0.4-1.237l-3.269-0.469zM16 16c-1.106 0-2 0.894-2 2v12c0 1.106 0.894 2 2 2h8c1.106 0 2-0.894 2-2v-12c0-1.106-0.894-2-2-2h-8zM2 20c-1.106 0-2 0.894-2 2v8c0 1.106 0.894 2 2 2h8c1.106 0 2-0.894 2-2v-8c0-1.106-0.894-2-2-2h-8zM28 26v4c0 1.106 0.894 2 2 2h8c1.106 0 2-0.894 2-2v-4c0-1.106-0.894-2-2-2h-8c-1.106 0-2 0.894-2 2z"/>
</svg>
