<svg version="1.1" xmlns="http://www.w3.org/2000/svg" width="24" height="32" viewBox="0 0 24 32">
<path fill="currentColor" d="M0.875 0.138c0.531-0.244 1.156-0.156 1.6 0.225l2.525 2.163 2.525-2.163c0.563-0.481 1.394-0.481 1.95 0l2.525 2.163 2.525-2.163c0.563-0.481 1.394-0.481 1.95 0l2.525 2.163 2.525-2.163c0.444-0.381 1.069-0.469 1.6-0.225s0.875 0.775 0.875 1.363v29c0 0.587-0.344 1.119-0.875 1.363s-1.156 0.156-1.6-0.225l-2.525-2.163-2.525 2.163c-0.563 0.481-1.394 0.481-1.95 0l-2.525-2.163-2.525 2.163c-0.563 0.481-1.394 0.481-1.95 0l-2.525-2.163-2.525 2.163c-0.444 0.381-1.069 0.469-1.6 0.225s-0.875-0.775-0.875-1.363v-29c0-0.588 0.344-1.119 0.875-1.363zM6 9c-0.55 0-1 0.45-1 1s0.45 1 1 1h12c0.55 0 1-0.45 1-1s-0.45-1-1-1h-12zM5 22c0 0.55 0.45 1 1 1h12c0.55 0 1-0.45 1-1s-0.45-1-1-1h-12c-0.55 0-1 0.45-1 1zM6 15c-0.55 0-1 0.45-1 1s0.45 1 1 1h12c0.55 0 1-0.45 1-1s-0.45-1-1-1h-12z"/>
</svg>
