<svg version="1.1" xmlns="http://www.w3.org/2000/svg" width="36" height="32" viewBox="0 0 36 32">
<path fill="currentColor" d="M4 2c-2.206 0-4 1.794-4 4v20c0 2.206 1.794 4 4 4h28c2.206 0 4-1.794 4-4v-20c0-2.206-1.794-4-4-4h-28zM14.344 10.831l4.5 9c0.369 0.744 0.069 1.644-0.669 2.012s-1.644 0.069-2.012-0.669l-0.338-0.675h-5.65l-0.338 0.669c-0.369 0.744-1.269 1.044-2.013 0.669s-1.044-1.269-0.669-2.012l4.5-9c0.256-0.506 0.775-0.831 1.344-0.831s1.088 0.319 1.344 0.831zM13 14.856l-1.325 2.644h2.644l-1.319-2.644zM24.5 16c-0.828 0-1.5 0.672-1.5 1.5s0.672 1.5 1.5 1.5v0c0.828 0 1.5-0.672 1.5-1.5s-0.672-1.5-1.5-1.5v0zM26 13.256v-1.756c0-0.831 0.669-1.5 1.5-1.5s1.5 0.669 1.5 1.5v9c0 0.831-0.669 1.5-1.5 1.5-0.413 0-0.788-0.169-1.063-0.438-0.587 0.281-1.244 0.438-1.938 0.438-2.488 0-4.5-2.012-4.5-4.5s2.012-4.5 4.5-4.5c0.525 0 1.031 0.088 1.5 0.256z"/>
</svg>
