<svg version="1.1" xmlns="http://www.w3.org/2000/svg" width="36" height="32" viewBox="0 0 36 32">
<path fill="currentColor" d="M0 6c0-2.206 1.794-4 4-4h28c2.206 0 4 1.794 4 4v20c0 2.206-1.794 4-4 4h-28c-2.206 0-4-1.794-4-4v-20zM8 18c1.105 0 2-0.895 2-2s-0.895-2-2-2v0c-1.105 0-2 0.895-2 2s0.895 2 2 2v0zM10 10c0-1.105-0.895-2-2-2s-2 0.895-2 2v0c0 1.105 0.895 2 2 2s2-0.895 2-2v0zM8 24c1.105 0 2-0.895 2-2s-0.895-2-2-2v0c-1.105 0-2 0.895-2 2s0.895 2 2 2v0zM14 8.5c-0.831 0-1.5 0.669-1.5 1.5s0.669 1.5 1.5 1.5h14c0.831 0 1.5-0.669 1.5-1.5s-0.669-1.5-1.5-1.5h-14zM14 14.5c-0.831 0-1.5 0.669-1.5 1.5s0.669 1.5 1.5 1.5h14c0.831 0 1.5-0.669 1.5-1.5s-0.669-1.5-1.5-1.5h-14zM14 20.5c-0.831 0-1.5 0.669-1.5 1.5s0.669 1.5 1.5 1.5h14c0.831 0 1.5-0.669 1.5-1.5s-0.669-1.5-1.5-1.5h-14z"/>
</svg>
