<svg version="1.1" xmlns="http://www.w3.org/2000/svg" width="32" height="32" viewBox="0 0 32 32">
<path fill="currentColor" d="M10.919 2.819c1.094-1.756 3.019-2.819 5.081-2.819s3.988 1.063 5.081 2.819l2.413 3.856 1.688-0.975c0.525-0.306 1.181-0.263 1.663 0.106s0.694 0.994 0.538 1.581l-1.462 5.463c-0.212 0.8-1.038 1.275-1.837 1.063l-5.463-1.463c-0.587-0.156-1.019-0.65-1.1-1.25s0.212-1.194 0.738-1.494l1.775-1.025-2.344-3.744c-0.363-0.581-1-0.938-1.688-0.938s-1.325 0.356-1.688 0.938l-1.094 1.75c-0.575 0.925-1.787 1.219-2.725 0.656-0.956-0.575-1.262-1.825-0.669-2.775l1.094-1.75zM26.844 15.744c0.938-0.563 2.15-0.269 2.725 0.656l1.525 2.444c0.587 0.944 0.9 2.025 0.913 3.137 0.019 3.319-2.669 6.025-5.988 6.025l-6.019-0.006v2c0 0.606-0.363 1.156-0.925 1.387s-1.206 0.106-1.637-0.325l-4-4c-0.588-0.587-0.588-1.538 0-2.119l4-4c0.431-0.431 1.075-0.556 1.637-0.325s0.925 0.781 0.925 1.387v2h6.012c1.1 0 1.994-0.9 1.988-2 0-0.369-0.106-0.731-0.3-1.044l-1.525-2.444c-0.594-0.95-0.294-2.2 0.669-2.775zM4.056 13.806l-1.806-1.044c-0.525-0.306-0.819-0.894-0.738-1.494s0.512-1.094 1.1-1.25l5.463-1.463c0.8-0.213 1.625 0.262 1.838 1.063l1.463 5.456c0.156 0.588-0.056 1.206-0.537 1.581s-1.137 0.413-1.662 0.106l-1.656-0.956-3.219 5.15c-0.194 0.313-0.3 0.675-0.3 1.044-0.006 1.1 0.888 2 1.987 2h2.013c1.106 0 2 0.894 2 2s-0.894 2-2 2h-2.013c-3.319 0-6.006-2.7-5.987-6.025 0.006-1.113 0.319-2.194 0.912-3.137l3.144-5.031z"/>
</svg>
