<svg version="1.1" xmlns="http://www.w3.org/2000/svg" width="32" height="32" viewBox="0 0 32 32">
<path fill="currentColor" d="M16 32c8.837 0 16-7.163 16-16s-7.163-16-16-16v0c-8.837 0-16 7.163-16 16s7.163 16 16 16v0zM10 9.5c0-0.831 0.669-1.5 1.5-1.5h5.5c2.762 0 5 2.238 5 5 0 1.75-0.9 3.294-2.269 4.188l2.131 4.694c0.344 0.756 0.006 1.644-0.744 1.988s-1.644 0.006-1.988-0.744l-2.325-5.125h-3.806v4.5c0 0.831-0.669 1.5-1.5 1.5s-1.5-0.669-1.5-1.5v-13zM13 15h4c1.106 0 2-0.894 2-2s-0.894-2-2-2h-4v4z"/>
</svg>
