<svg version="1.1" xmlns="http://www.w3.org/2000/svg" width="32" height="32" viewBox="0 0 32 32">
<path fill="currentColor" d="M0 14c0 1.106 0.894 2 2 2s2-0.894 2-2c0-3.313 2.688-6 6-6h10v2c0 0.806 0.488 1.537 1.238 1.85s1.606 0.137 2.181-0.431l4-4c0.781-0.781 0.781-2.050 0-2.831l-4-4c-0.575-0.575-1.431-0.744-2.181-0.431s-1.238 1.038-1.238 1.844v2h-10c-5.525 0-10 4.475-10 10zM32 18c0-1.106-0.894-2-2-2s-2 0.894-2 2c0 3.313-2.688 6-6 6h-10v-2c0-0.806-0.488-1.538-1.238-1.85s-1.606-0.137-2.181 0.431l-4 4c-0.781 0.781-0.781 2.050 0 2.831l4 4c0.575 0.575 1.431 0.744 2.181 0.431s1.238-1.038 1.238-1.85v-1.994h10c5.525 0 10-4.475 10-10z"/>
</svg>
