<svg version="1.1" xmlns="http://www.w3.org/2000/svg" width="36" height="32" viewBox="0 0 36 32">
<path fill="currentColor" d="M13.088 2.469c-0.569-0.6-1.519-0.625-2.119-0.056l-8.856 8.412c-1.244 1.181-1.244 3.169 0 4.35l8.856 8.412c0.6 0.569 1.55 0.544 2.119-0.056s0.544-1.55-0.056-2.119l-8.856-8.412 8.856-8.412c0.6-0.569 0.625-1.519 0.056-2.119zM22 4c0-0.788-0.462-1.506-1.188-1.825s-1.563-0.188-2.15 0.337l-10 9c-0.419 0.381-0.662 0.919-0.662 1.488s0.244 1.106 0.662 1.488l10 9c0.587 0.531 1.431 0.663 2.15 0.337s1.188-1.038 1.188-1.825v-4h2c3.313 0 6 2.688 6 6 0 1.9-0.8 2.994-1.387 3.544-0.344 0.319-0.613 0.75-0.613 1.219 0 0.681 0.55 1.231 1.231 1.231 0.175 0 0.35-0.038 0.506-0.119 1.169-0.631 6.262-3.794 6.262-10.875 0-6.075-4.925-11-11-11h-3v-4z"/>
</svg>
