<svg version="1.1" xmlns="http://www.w3.org/2000/svg" width="32" height="32" viewBox="0 0 32 32">
<path fill="currentColor" d="M12.813 2.175c0.719 0.319 1.188 1.038 1.188 1.825v4h7c6.075 0 11 4.925 11 11 0 7.081-5.094 10.244-6.262 10.881-0.156 0.087-0.331 0.119-0.506 0.119-0.681 0-1.231-0.556-1.231-1.231 0-0.469 0.269-0.9 0.613-1.219 0.587-0.55 1.387-1.65 1.387-3.544 0-3.313-2.688-6-6-6h-6v4c0 0.788-0.463 1.506-1.188 1.825s-1.563 0.188-2.15-0.337l-10-9c-0.419-0.387-0.662-0.925-0.662-1.494s0.244-1.106 0.662-1.488l10-9c0.588-0.531 1.431-0.663 2.15-0.337z"/>
</svg>
