<svg version="1.1" xmlns="http://www.w3.org/2000/svg" width="40" height="32" viewBox="0 0 40 32">
<path fill="currentColor" d="M0 12c0-5.525 4.475-10 10-10h14c5.525 0 10 4.475 10 10v4h-34v-4zM25.994 8c-0.15 0-0.294 0.081-0.356 0.213l-0.788 1.537-1.762 0.25c-0.15 0.019-0.275 0.125-0.325 0.262s-0.006 0.294 0.1 0.394l1.275 1.2-0.3 1.694c-0.025 0.144 0.038 0.294 0.156 0.375s0.288 0.1 0.419 0.031l1.575-0.8 1.575 0.8c0.137 0.069 0.3 0.056 0.419-0.031s0.188-0.231 0.156-0.375l-0.3-1.694 1.288-1.2c0.106-0.1 0.15-0.256 0.1-0.394s-0.175-0.244-0.325-0.262l-1.762-0.25-0.788-1.537c-0.069-0.131-0.206-0.213-0.356-0.213zM17.35 8.213c-0.069-0.131-0.206-0.213-0.356-0.213s-0.294 0.081-0.356 0.213l-0.787 1.537-1.762 0.25c-0.15 0.019-0.275 0.125-0.325 0.262s-0.006 0.294 0.1 0.394l1.275 1.2-0.3 1.694c-0.025 0.144 0.037 0.294 0.156 0.375s0.287 0.1 0.419 0.031l1.575-0.8 1.575 0.8c0.137 0.069 0.3 0.056 0.419-0.031s0.188-0.231 0.156-0.375l-0.3-1.694 1.288-1.2c0.106-0.1 0.15-0.256 0.1-0.394s-0.175-0.244-0.325-0.262l-1.762-0.25-0.788-1.537zM7.994 8c-0.15 0-0.294 0.081-0.356 0.213l-0.787 1.537-1.763 0.25c-0.15 0.019-0.275 0.125-0.325 0.262s-0.006 0.294 0.1 0.394l1.275 1.2-0.3 1.694c-0.025 0.144 0.037 0.294 0.156 0.375s0.287 0.1 0.419 0.031l1.575-0.8 1.575 0.8c0.137 0.069 0.3 0.056 0.419-0.031s0.188-0.231 0.156-0.375l-0.3-1.694 1.287-1.2c0.106-0.1 0.15-0.256 0.1-0.394s-0.175-0.244-0.325-0.262l-1.762-0.25-0.787-1.537c-0.069-0.131-0.206-0.213-0.356-0.213zM8 18h26v7c0 0.55 0.45 1 1 1s1-0.45 1-1v-3c0-1.106 0.894-2 2-2s2 0.894 2 2v3c0 2.762-2.237 5-5 5s-5-2.238-5-5v-3h-2v6c0 1.106-0.894 2-2 2h-4c-1.106 0-2-0.894-2-2v-4h-12v4c0 1.106-0.894 2-2 2h-4c-1.106 0-2-0.894-2-2v-10h8z"/>
</svg>
