<svg version="1.1" xmlns="http://www.w3.org/2000/svg" width="40" height="32" viewBox="0 0 40 32">
<path fill="currentColor" d="M5 3c0-1.657 1.343-3 3-3s3 1.343 3 3v0c0 1.657-1.343 3-3 3s-3-1.343-3-3v0zM7.5 22v8c0 1.106-0.894 2-2 2s-2-0.894-2-2v-9.675c-0.506 0.575-1.319 0.825-2.094 0.587-1.056-0.331-1.644-1.45-1.313-2.506l1.931-6.194c0.781-2.506 3.1-4.213 5.725-4.213h0.5c2.625 0 4.944 1.706 5.725 4.213l1.931 6.194c0.331 1.056-0.256 2.175-1.313 2.506-0.775 0.244-1.588-0.012-2.094-0.587v9.675c0 1.106-0.894 2-2 2s-2-0.894-2-2v-8h-1zM20 0c0.831 0 1.5 0.669 1.5 1.5v29c0 0.831-0.669 1.5-1.5 1.5s-1.5-0.669-1.5-1.5v-29c0-0.831 0.669-1.5 1.5-1.5zM29 3c0-1.657 1.343-3 3-3s3 1.343 3 3v0c0 1.657-1.343 3-3 3s-3-1.343-3-3v0zM27.5 30v-6h-1.113c-0.681 0-1.163-0.669-0.95-1.319l0.563-1.681c-0.2 0-0.4-0.031-0.594-0.094-1.056-0.331-1.644-1.45-1.313-2.506l1.856-5.95c0.825-2.644 3.275-4.45 6.050-4.45s5.225 1.806 6.050 4.45l1.856 5.95c0.331 1.056-0.256 2.175-1.313 2.506-0.2 0.063-0.4 0.094-0.594 0.094l0.563 1.681c0.219 0.65-0.269 1.319-0.95 1.319h-1.112v6c0 1.106-0.894 2-2 2s-2-0.894-2-2v-6h-1v6c0 1.106-0.894 2-2 2s-2-0.894-2-2z"/>
</svg>
