<svg version="1.1" xmlns="http://www.w3.org/2000/svg" width="36" height="32" viewBox="0 0 36 32">
<path fill="currentColor" d="M17 26c1.106 0 2-0.894 2-2s-0.894-2-2-2h-7c-1.106 0-2-0.894-2-2v-8h2c0.806 0 1.537-0.488 1.85-1.238s0.137-1.606-0.431-2.181l-4-4c-0.781-0.781-2.050-0.781-2.831 0l-4 4c-0.575 0.575-0.744 1.431-0.431 2.181s1.038 1.238 1.85 1.238h2v8c0 3.313 2.688 6 6 6h6.994zM19 6c-1.106 0-2 0.894-2 2s0.894 2 2 2h7c1.106 0 2 0.894 2 2v8h-2c-0.806 0-1.538 0.488-1.85 1.238s-0.137 1.606 0.431 2.181l4 4c0.781 0.781 2.050 0.781 2.831 0l4-4c0.575-0.575 0.744-1.431 0.431-2.181s-1.038-1.238-1.85-1.238h-2v-8c0-3.313-2.688-6-6-6h-6.994z"/>
</svg>
