<svg version="1.1" xmlns="http://www.w3.org/2000/svg" width="28" height="32" viewBox="0 0 28 32">
<path fill="currentColor" d="M20.825 20.175v0l-11.7-12.762c0.488-0.319 2.313-1.412 4.875-1.412s4.387 1.088 4.875 1.412l-3.519 3.838 5.35 5.838 1.712-1.863c1.019-1.106 1.581-2.556 1.581-4.063v-1.844c0-1.188-0.35-2.344-1.006-3.331l-2.506-3.763c-0.931-1.387-2.494-2.225-4.162-2.225h-4.75c-1.613 0-3.131 0.781-4.069 2.094l-2.388 3.344c-0.725 1.013-1.119 2.237-1.119 3.487v1.325c0 1.45 0.525 2.85 1.475 3.944l14.444 16.569c0.625 0.719 1.675 0.894 2.5 0.425l3.406-1.944c1.113-0.637 1.35-2.144 0.481-3.087l-5.481-5.981zM12.825 25.663l-5.206-5.975-5.925 6.469c-0.869 0.944-0.631 2.45 0.481 3.087l3.444 1.969c0.813 0.462 1.831 0.306 2.463-0.381l4.744-5.163z"/>
</svg>
