<svg version="1.1" xmlns="http://www.w3.org/2000/svg" width="32" height="32" viewBox="0 0 32 32">
<path fill="currentColor" d="M2 6h20v-4c0-0.806 0.488-1.538 1.238-1.85s1.606-0.138 2.181 0.431l6 6c0.375 0.375 0.588 0.881 0.588 1.413s-0.212 1.037-0.587 1.412l-6 6c-0.575 0.575-1.431 0.744-2.181 0.431s-1.238-1.037-1.238-1.85v-3.988h-20c-1.106 0-2-0.894-2-2s0.894-2 2-2zM30 22c1.106 0 2 0.894 2 2s-0.894 2-2 2h-20v4c0 0.806-0.488 1.538-1.238 1.85s-1.606 0.137-2.181-0.431l-6-6c-0.375-0.375-0.588-0.881-0.588-1.413s0.212-1.038 0.588-1.413l6-6c0.575-0.575 1.431-0.744 2.181-0.431s1.238 1.038 1.238 1.85v4h20z"/>
</svg>
