<svg version="1.1" xmlns="http://www.w3.org/2000/svg" width="32" height="32" viewBox="0 0 32 32">
<path fill="currentColor" d="M4 13c0 0.488 0.275 1.169 1.069 1.894 2.838-1.512 6.737-2.394 10.931-2.394s8.094 0.881 10.931 2.394c0.794-0.725 1.069-1.406 1.069-1.894 0-0.769-0.675-2-2.994-3.162-2.2-1.1-5.381-1.838-9.006-1.838s-6.806 0.738-9.006 1.838c-2.319 1.162-2.994 2.394-2.994 3.162zM16 15.5c-2.938 0-5.581 0.475-7.681 1.231 2.075 0.781 4.731 1.269 7.681 1.269s5.606-0.488 7.681-1.269c-2.1-0.756-4.744-1.231-7.681-1.231zM0 13c0-3.1 2.462-5.362 5.206-6.737 2.862-1.431 6.688-2.263 10.794-2.263s7.931 0.831 10.794 2.263c2.744 1.375 5.206 3.638 5.206 6.737v6c0 3.1-2.462 5.363-5.206 6.738-2.863 1.431-6.688 2.262-10.794 2.262s-7.931-0.831-10.794-2.262c-2.744-1.375-5.206-3.637-5.206-6.738v-6z"/>
</svg>
