<svg version="1.1" xmlns="http://www.w3.org/2000/svg" width="40" height="32" viewBox="0 0 40 32">
<path fill="currentColor" d="M22 0h16c1.106 0 2 0.894 2 2v28c0 1.106-0.894 2-2 2h-16c-1.106 0-2-0.894-2-2v-28c0-1.106 0.894-2 2-2zM30 12.5c-0.831 0-1.5 0.669-1.5 1.5v4c0 0.831 0.669 1.5 1.5 1.5s1.5-0.669 1.5-1.5v-4c0-0.831-0.669-1.5-1.5-1.5zM31.5 24c0-0.831-0.669-1.5-1.5-1.5s-1.5 0.669-1.5 1.5v4c0 0.831 0.669 1.5 1.5 1.5s1.5-0.669 1.5-1.5v-4zM30 2.5c-0.831 0-1.5 0.669-1.5 1.5v4c0 0.831 0.669 1.5 1.5 1.5s1.5-0.669 1.5-1.5v-4c0-0.831-0.669-1.5-1.5-1.5zM2 6h16v4h-2.5v4h2.5v6c-3.313 0-6 2.688-6 6v4c0 1.106-0.894 2-2 2h-2c-1.106 0-2-0.894-2-2v-4c0-3.313-2.688-6-6-6v-6h4.5v-4h-2.5c-1.106 0-2-0.894-2-2s0.894-2 2-2zM12.5 10h-5v4h5v-4z"/>
</svg>
