<svg version="1.1" xmlns="http://www.w3.org/2000/svg" width="40" height="32" viewBox="0 0 40 32">
<path fill="currentColor" d="M18 2h-4.675c-1.694 0-3.206 1.069-3.769 2.662l-7.362 20.788c-0.131 0.369-0.194 0.75-0.194 1.137 0 1.881 1.531 3.413 3.413 3.413h12.588v-4c0-1.106 0.894-2 2-2s2 0.894 2 2v4h2v-8c0-1.481 0.806-2.775 2-3.462v-1.538c0-3.644 2.788-6.637 6.344-6.969l-1.9-5.369c-0.569-1.594-2.075-2.663-3.769-2.663h-4.675v4c0 1.106-0.894 2-2 2s-2-0.894-2-2v-4zM22 14v4c0 1.106-0.894 2-2 2s-2-0.894-2-2v-4c0-1.106 0.894-2 2-2s2 0.894 2 2zM33 15c1.106 0 2 0.894 2 2v3h-4v-3c0-1.106 0.894-2 2-2zM28 17v3c-1.106 0-2 0.894-2 2v8c0 1.106 0.894 2 2 2h10c1.106 0 2-0.894 2-2v-8c0-1.106-0.894-2-2-2v-3c0-2.762-2.237-5-5-5s-5 2.238-5 5z"/>
</svg>
