<svg version="1.1" xmlns="http://www.w3.org/2000/svg" width="40" height="32" viewBox="0 0 40 32">
<path fill="currentColor" d="M13.325 2h4.675v4c0 1.106 0.894 2 2 2s2-0.894 2-2v-4h4.675c1.694 0 3.206 1.069 3.769 2.662l2.669 7.537c-0.681-0.131-1.387-0.2-2.113-0.2-3.719 0-7.006 1.85-9 4.675v-2.675c0-1.106-0.894-2-2-2s-2 0.894-2 2v4c0 1.106 0.894 2 2 2 0.144 0 0.288-0.019 0.425-0.044-0.281 0.969-0.425 1.988-0.425 3.044 0 0.337 0.012 0.669 0.044 1h-0.044c-1.106 0-2 0.894-2 2v4h-12.588c-1.881 0-3.413-1.531-3.413-3.413 0-0.387 0.069-0.775 0.194-1.137l7.362-20.788c0.569-1.594 2.075-2.663 3.769-2.663zM31 14c4.971 0 9 4.029 9 9s-4.029 9-9 9v0c-4.971 0-9-4.029-9-9s4.029-9 9-9v0zM31 29c0.828 0 1.5-0.672 1.5-1.5s-0.672-1.5-1.5-1.5v0c-0.828 0-1.5 0.672-1.5 1.5s0.672 1.5 1.5 1.5v0zM31 17c-0.55 0-1 0.45-1 1v5c0 0.55 0.45 1 1 1s1-0.45 1-1v-5c0-0.55-0.45-1-1-1z"/>
</svg>
