<svg version="1.1" xmlns="http://www.w3.org/2000/svg" width="40" height="32" viewBox="0 0 40 32">
<path fill="currentColor" d="M2 2c-1.106 0-2 0.894-2 2v24c0 1.106 0.894 2 2 2s2-0.894 2-2v-11.356l5.325-10.644h-5.325v-2c0-1.106-0.894-2-2-2zM25.325 6h-4.65l-0.337 0.669-5.662 11.331h4.644l0.337-0.669 5.669-11.331zM22.675 18h4.644l0.337-0.669 5.669-11.331h-4.65l-0.337 0.669-5.663 11.331zM12.675 6l-0.338 0.669-5.662 11.331h4.644l0.338-0.669 5.669-11.331h-4.65zM30.675 18h5.325v10c0 1.106 0.894 2 2 2s2-0.894 2-2v-24c0-1.106-0.894-2-2-2s-2 0.894-2 2v3.356l-5.325 10.644z"/>
</svg>
