<svg version="1.1" xmlns="http://www.w3.org/2000/svg" width="32" height="32" viewBox="0 0 32 32">
<path fill="currentColor" d="M9.787 24.056l-1.931-1.931c-0.531-0.531-0.719-1.3-0.481-2.012 0.188-0.556 0.438-1.281 0.737-2.113h-6.612c-0.537 0-1.038-0.288-1.306-0.756s-0.263-1.044 0.013-1.506l3.281-5.531c0.812-1.369 2.281-2.206 3.869-2.206h5.144c0.15-0.25 0.3-0.481 0.45-0.706 5.119-7.55 12.744-7.8 17.294-6.963 0.725 0.131 1.288 0.7 1.425 1.425 0.838 4.556 0.581 12.175-6.963 17.294-0.219 0.15-0.456 0.3-0.706 0.45v5.144c0 1.587-0.837 3.063-2.206 3.869l-5.531 3.281c-0.463 0.275-1.037 0.281-1.506 0.012s-0.756-0.762-0.756-1.306v-6.7c-0.881 0.306-1.65 0.556-2.231 0.744-0.7 0.225-1.463 0.031-1.988-0.488zM24 10.5c1.381 0 2.5-1.119 2.5-2.5s-1.119-2.5-2.5-2.5v0c-1.381 0-2.5 1.119-2.5 2.5s1.119 2.5 2.5 2.5v0z"/>
</svg>
