<svg version="1.1" xmlns="http://www.w3.org/2000/svg" width="32" height="32" viewBox="0 0 32 32">
<path fill="currentColor" d="M8.931 8.931c3.888-3.888 10.169-3.906 14.081-0.063l-2.575 2.569c-0.431 0.431-0.556 1.075-0.325 1.637s0.781 0.925 1.387 0.925h7.469c0 0 0 0 0 0h0.531c0.831 0 1.5-0.669 1.5-1.5v-8c0-0.606-0.363-1.156-0.925-1.388s-1.206-0.106-1.637 0.325l-2.6 2.6c-5.475-5.406-14.294-5.388-19.738 0.063-1.525 1.525-2.625 3.319-3.3 5.237-0.369 1.044 0.181 2.181 1.219 2.55s2.181-0.181 2.55-1.219c0.481-1.363 1.263-2.644 2.363-3.738zM1 19.5v8c0 0.606 0.363 1.156 0.925 1.387s1.206 0.106 1.637-0.325l2.6-2.6c5.475 5.406 14.294 5.387 19.737-0.063 1.525-1.525 2.631-3.319 3.306-5.231 0.369-1.044-0.181-2.181-1.219-2.55s-2.181 0.181-2.55 1.219c-0.481 1.363-1.262 2.644-2.363 3.738-3.887 3.887-10.169 3.906-14.081 0.063l2.569-2.575c0.431-0.431 0.556-1.075 0.325-1.637s-0.781-0.925-1.387-0.925h-8c-0.831 0-1.5 0.669-1.5 1.5z"/>
</svg>
