<svg version="1.1" xmlns="http://www.w3.org/2000/svg" width="32" height="32" viewBox="0 0 32 32">
<path fill="currentColor" d="M28.969 14h0.531c0.831 0 1.5-0.669 1.5-1.5v-8c0-0.606-0.363-1.156-0.925-1.388s-1.206-0.106-1.637 0.325l-2.6 2.6c-5.475-5.406-14.294-5.388-19.738 0.063-5.469 5.469-5.469 14.331 0 19.8s14.331 5.469 19.8 0c0.781-0.781 0.781-2.050 0-2.831s-2.050-0.781-2.831 0c-3.906 3.906-10.238 3.906-14.144 0s-3.906-10.238 0-14.144c3.887-3.888 10.169-3.906 14.081-0.063l-2.569 2.575c-0.431 0.431-0.556 1.075-0.325 1.637s0.781 0.925 1.387 0.925h7.469z"/>
</svg>
