<svg version="1.1" xmlns="http://www.w3.org/2000/svg" width="32" height="32" viewBox="0 0 32 32">
<path fill="currentColor" d="M32 6c0 3.137-3.694 7.819-5.288 9.688-0.238 0.275-0.587 0.381-0.906 0.313h-5.806c-1.106 0-2 0.894-2 2s0.894 2 2 2h6c3.313 0 6 2.688 6 6s-2.688 6-6 6h-17.275c0.544-0.619 1.206-1.413 1.875-2.3 0.394-0.525 0.8-1.1 1.188-1.7h14.212c1.106 0 2-0.894 2-2s-0.894-2-2-2h-6c-3.313 0-6-2.688-6-6s2.688-6 6-6h2.488c-1.313-1.969-2.488-4.231-2.488-6 0-3.313 2.688-6 6-6s6 2.688 6 6zM7.319 30.569c-0.237 0.269-0.45 0.506-0.631 0.706l-0.112 0.125-0.013-0.012c-0.375 0.288-0.912 0.25-1.25-0.113-1.575-1.712-5.313-6.119-5.313-9.275 0-3.313 2.688-6 6-6s6 2.688 6 6c0 1.875-1.319 4.188-2.719 6.119-0.669 0.919-1.356 1.75-1.925 2.406l-0.037 0.044zM8 22c0-1.105-0.895-2-2-2s-2 0.895-2 2v0c0 1.105 0.895 2 2 2s2-0.895 2-2v0zM26 8c1.105 0 2-0.895 2-2s-0.895-2-2-2v0c-1.105 0-2 0.895-2 2s0.895 2 2 2v0z"/>
</svg>
