<svg version="1.1" xmlns="http://www.w3.org/2000/svg" width="32" height="32" viewBox="0 0 32 32">
<path fill="currentColor" d="M11.119 30.881c-1.169 1.169-3.069 1.169-4.244 0l-5.756-5.762c-1.169-1.169-1.169-3.069 0-4.244l3.169-3.169 3 3c0.388 0.387 1.025 0.387 1.413 0s0.387-1.025 0-1.413l-3-3 2.588-2.588 3 3c0.387 0.387 1.025 0.387 1.412 0s0.387-1.025 0-1.412l-3-3 2.588-2.588 3 3c0.387 0.387 1.025 0.387 1.413 0s0.387-1.025 0-1.412l-3-3 2.587-2.588 3 3c0.387 0.387 1.025 0.387 1.413 0s0.387-1.025 0-1.412l-3-3 3.169-3.169c1.169-1.169 3.069-1.169 4.244 0l5.756 5.756c1.169 1.169 1.169 3.069 0 4.244l-19.75 19.756z"/>
</svg>
