<svg version="1.1" xmlns="http://www.w3.org/2000/svg" width="28" height="32" viewBox="0 0 28 32">
<path fill="currentColor" d="M0 4c0-1.106 0.894-2 2-2h5c4.969 0 9 4.031 9 9 0 3.675-2.2 6.831-5.356 8.231l3.213 8.025c0.412 1.025-0.088 2.188-1.113 2.6s-2.188-0.087-2.6-1.113l-3.5-8.744h-2.644v8c0 1.106-0.894 2-2 2s-2-0.894-2-2v-24zM4 16h3c2.762 0 5-2.238 5-5s-2.238-5-5-5h-3v10zM20.031 17.025c-0.056 0.375 0 0.544 0.025 0.613s0.087 0.163 0.262 0.306c0.45 0.356 1.169 0.625 2.369 1.050l0.081 0.031c1 0.35 2.419 0.85 3.481 1.756 0.594 0.506 1.119 1.163 1.444 2.019 0.319 0.856 0.381 1.781 0.238 2.75-0.262 1.756-1.281 3.081-2.738 3.806-1.381 0.688-3.006 0.781-4.575 0.5h-0.012c-0.581-0.113-1.281-0.356-1.831-0.563-0.375-0.144-0.788-0.306-1.106-0.431v0c-0.156-0.063-0.288-0.113-0.394-0.156-1.031-0.4-1.537-1.563-1.137-2.587s1.556-1.538 2.587-1.137c0.163 0.063 0.325 0.125 0.494 0.194v0c0.3 0.119 0.613 0.244 0.962 0.375 0.55 0.206 0.956 0.337 1.169 0.375 0.981 0.175 1.669 0.050 2.056-0.144 0.313-0.156 0.5-0.375 0.569-0.813 0.063-0.431 0.012-0.656-0.031-0.769-0.038-0.106-0.113-0.225-0.281-0.369-0.431-0.363-1.137-0.65-2.306-1.063l-0.188-0.069c-0.969-0.337-2.313-0.813-3.331-1.619-0.594-0.469-1.144-1.1-1.481-1.938-0.344-0.837-0.412-1.75-0.275-2.7 0.525-3.569 4.188-4.875 7.306-4.306 0.431 0.081 1.706 0.363 2.212 0.525 1.056 0.325 1.644 1.45 1.319 2.506s-1.45 1.644-2.506 1.319c-0.294-0.087-1.394-0.344-1.744-0.406-0.913-0.169-1.613-0.025-2.038 0.2-0.394 0.206-0.556 0.475-0.594 0.75z"/>
</svg>
