<svg version="1.1" xmlns="http://www.w3.org/2000/svg" width="32" height="32" viewBox="0 0 32 32">
<path fill="currentColor" d="M0 4c0-1.106 0.894-2 2-2h5c4.969 0 9 4.031 9 9 0 3.675-2.2 6.831-5.356 8.231l3.213 8.025c0.412 1.025-0.088 2.188-1.113 2.6s-2.188-0.087-2.6-1.113l-3.5-8.744h-2.644v8c0 1.106-0.894 2-2 2s-2-0.894-2-2v-24zM4 16h3c2.762 0 5-2.238 5-5s-2.238-5-5-5h-3v10zM20 10h5c3.869 0 7 3.131 7 7s-3.131 7-7 7h-3v6c0 1.106-0.894 2-2 2s-2-0.894-2-2v-18c0-1.106 0.894-2 2-2zM25 20c1.656 0 3-1.344 3-3s-1.344-3-3-3h-3v6h3z"/>
</svg>
