<svg version="1.1" xmlns="http://www.w3.org/2000/svg" width="20" height="32" viewBox="0 0 20 32">
<path fill="currentColor" d="M6.194 6.588c-1.256 0.537-1.931 1.362-2.119 2.463-0.15 0.881-0.044 1.45 0.125 1.838 0.175 0.394 0.494 0.775 1.044 1.162 1.2 0.838 3.019 1.381 5.306 2.031 0.063 0.019 0.119 0.037 0.181 0.050 2.044 0.581 4.5 1.287 6.306 2.544 0.981 0.681 1.869 1.594 2.413 2.819 0.55 1.238 0.675 2.625 0.413 4.144-0.456 2.656-2.206 4.481-4.488 5.456-2.213 0.95-4.944 1.119-7.731 0.681h-0.013c-1.5-0.244-3.919-1.069-5.475-1.6-0.3-0.106-0.575-0.194-0.8-0.269-1.038-0.356-1.6-1.488-1.256-2.538s1.481-1.613 2.531-1.269c0.306 0.1 0.638 0.212 0.994 0.337 1.587 0.538 3.525 1.2 4.65 1.381 2.3 0.356 4.219 0.156 5.531-0.406 1.256-0.538 1.925-1.363 2.119-2.462 0.15-0.881 0.044-1.45-0.125-1.837-0.175-0.394-0.494-0.775-1.044-1.163-1.2-0.837-3.019-1.381-5.306-2.031-0.063-0.019-0.119-0.038-0.181-0.050-2.044-0.581-4.5-1.288-6.306-2.544-0.981-0.681-1.869-1.594-2.413-2.819-0.55-1.238-0.675-2.625-0.412-4.144l1.969 0.344-1.975-0.338c0.456-2.656 2.206-4.481 4.488-5.456 2.213-0.95 4.944-1.119 7.731-0.681 0.813 0.125 3.275 0.6 4.162 0.837 1.069 0.281 1.7 1.381 1.419 2.45s-1.381 1.7-2.45 1.419c-0.7-0.188-3.006-0.638-3.756-0.75v0c-2.306-0.362-4.219-0.156-5.537 0.406z"/>
</svg>
