<svg version="1.1" xmlns="http://www.w3.org/2000/svg" width="32" height="32" viewBox="0 0 32 32">
<path fill="currentColor" d="M12 6h8l2.962-4.444c0.444-0.669-0.031-1.556-0.831-1.556h-12.262c-0.8 0-1.275 0.887-0.831 1.556l2.963 4.444zM20 8h-8c-0.238 0.156-0.506 0.331-0.813 0.525v0 0c-3.544 2.269-11.188 7.156-11.188 17.475 0 3.313 2.688 6 6 6h20c3.313 0 6-2.688 6-6 0-10.319-7.644-15.206-11.188-17.475-0.3-0.194-0.575-0.369-0.813-0.525zM18.119 21l2.938 2.938c0.587 0.587 0.587 1.538 0 2.119s-1.538 0.587-2.119 0l-2.938-2.938-2.938 2.938c-0.588 0.587-1.537 0.587-2.119 0s-0.588-1.538 0-2.119l2.938-2.938-2.938-2.938c-0.588-0.587-0.588-1.538 0-2.119s1.537-0.588 2.119 0l2.938 2.938 2.938-2.938c0.587-0.588 1.538-0.588 2.119 0s0.587 1.538 0 2.119l-2.938 2.938z"/>
</svg>
