<svg version="1.1" xmlns="http://www.w3.org/2000/svg" width="36" height="32" viewBox="0 0 36 32">
<path fill="currentColor" d="M16 1c0-0.438 0.281-0.825 0.7-0.956s0.869 0.025 1.119 0.381l14 20c0.213 0.306 0.238 0.706 0.069 1.038s-0.512 0.538-0.887 0.538h-14c-0.55 0-1-0.45-1-1v-20zM13.256 6.031c0.438 0.119 0.744 0.513 0.744 0.969v14c0 0.55-0.45 1-1 1h-8c-0.356 0-0.688-0.188-0.862-0.5s-0.181-0.688-0.006-1l8-14c0.225-0.394 0.688-0.588 1.125-0.469zM0.356 25.269c-0.181-0.637 0.3-1.269 0.963-1.269h33.362c0.663 0 1.144 0.631 0.962 1.269l-0.25 0.894c-0.975 3.456-4.119 5.837-7.706 5.837h-19.375c-3.588 0-6.731-2.381-7.706-5.831l-0.25-0.894z"/>
</svg>
