<svg version="1.1" xmlns="http://www.w3.org/2000/svg" width="32" height="32" viewBox="0 0 32 32">
<path fill="currentColor" d="M12 2c0-1.106 0.894-2 2-2 9.944 0 18 8.056 18 18 0 1.106-0.894 2-2 2s-2-0.894-2-2c0-7.731-6.269-14-14-14-1.106 0-2-0.894-2-2zM3.788 13.787l6.506 6.506 1.775-1.775c-0.044-0.163-0.069-0.337-0.069-0.519 0-1.106 0.894-2 2-2s2 0.894 2 2-0.894 2-2 2c-0.181 0-0.35-0.025-0.519-0.069l-1.775 1.775 6.506 6.506c0.906 0.906 0.738 2.425-0.456 2.894-1.475 0.575-3.075 0.894-4.756 0.894-7.181 0-13-5.819-13-13 0-1.681 0.319-3.281 0.9-4.756 0.469-1.188 1.988-1.363 2.894-0.456zM14 6c6.625 0 12 5.375 12 12 0 1.106-0.894 2-2 2s-2-0.894-2-2c0-4.419-3.581-8-8-8-1.106 0-2-0.894-2-2s0.894-2 2-2z"/>
</svg>
