<svg version="1.1" xmlns="http://www.w3.org/2000/svg" width="32" height="32" viewBox="0 0 32 32">
<path fill="currentColor" d="M14.563 0.438c-0.588-0.588-1.537-0.588-2.119 0l-6 6c-0.588 0.588-0.588 1.537 0 2.119l5.588 5.588-0.969 0.969c-1.544-0.713-3.256-1.113-5.063-1.113-1.981 0-3.844 0.481-5.487 1.325-0.563 0.294-0.644 1.044-0.194 1.488l6.725 6.731-1.025 1.025c-0.162-0.044-0.338-0.069-0.519-0.069-1.106 0-2 0.894-2 2s0.894 2 2 2 2-0.894 2-2c0-0.181-0.025-0.35-0.069-0.519l1.025-1.025 6.725 6.725c0.45 0.45 1.2 0.369 1.487-0.194 0.85-1.644 1.331-3.506 1.331-5.488 0-1.806-0.4-3.519-1.113-5.056l0.969-0.969 5.581 5.587c0.587 0.587 1.538 0.587 2.119 0l6-6c0.587-0.587 0.587-1.538 0-2.119l-5.587-5.588 3.438-3.438c0.781-0.781 0.781-2.050 0-2.831l-3-3c-0.781-0.781-2.050-0.781-2.831 0l-3.438 3.438-5.575-5.588zM24.5 22.375l-4.525-4.525 3.881-3.881 4.525 4.531-3.881 3.881zM14.144 12.025l-4.525-4.525 3.881-3.881 4.525 4.525-3.881 3.881z"/>
</svg>
