<svg version="1.1" xmlns="http://www.w3.org/2000/svg" width="40" height="32" viewBox="0 0 40 32">
<path fill="currentColor" d="M24 2h8c1.106 0 2 0.894 2 2s-0.894 2-2 2h-7.1c-0.325 1.612-1.431 2.944-2.9 3.581v18.419h10c1.106 0 2 0.894 2 2s-0.894 2-2 2h-24c-1.106 0-2-0.894-2-2s0.894-2 2-2h10v-18.419c-1.469-0.644-2.575-1.975-2.9-3.581h-7.1c-1.106 0-2-0.894-2-2s0.894-2 2-2h8c0.913-1.212 2.363-2 4-2s3.087 0.787 4 2zM27.475 20h9.050l-4.525-7.762-4.525 7.762zM32 26c-3.931 0-7.2-2.125-7.875-4.931-0.163-0.688 0.063-1.394 0.419-2.006l5.95-10.2c0.313-0.537 0.887-0.863 1.506-0.863s1.194 0.331 1.506 0.863l5.95 10.2c0.356 0.613 0.581 1.319 0.419 2.006-0.675 2.806-3.944 4.931-7.875 4.931zM7.925 12.238l-4.525 7.762h9.056l-4.531-7.762zM0.056 21.069c-0.163-0.688 0.062-1.394 0.419-2.006l5.95-10.2c0.313-0.537 0.888-0.863 1.506-0.863s1.194 0.331 1.506 0.863l5.95 10.2c0.356 0.613 0.581 1.319 0.419 2.006-0.681 2.806-3.95 4.931-7.881 4.931s-7.194-2.125-7.869-4.931z"/>
</svg>
