<svg version="1.1" xmlns="http://www.w3.org/2000/svg" width="40" height="32" viewBox="0 0 40 32">
<path fill="currentColor" d="M7.369 3.9c-1.050-0.35-1.612-1.481-1.263-2.531s1.481-1.613 2.531-1.262l7.063 2.356c0.863-1.475 2.469-2.462 4.3-2.462 2.762 0 5 2.237 5 5 0 0.188-0.012 0.369-0.031 0.55l7.663 2.556c1.050 0.35 1.612 1.481 1.263 2.531s-1.481 1.613-2.531 1.262l-8.462-2.825c-0.281 0.2-0.581 0.369-0.9 0.512v20.413c0 1.106-0.894 2-2 2h-12c-1.106 0-2-0.894-2-2s0.894-2 2-2h10v-18.419c-1.313-0.575-2.325-1.688-2.762-3.063l-7.869-2.625zM12.525 18l-4.525-7.762-4.525 7.762h9.050zM8 24c-3.931 0-7.2-2.125-7.875-4.931-0.163-0.688 0.063-1.394 0.419-2.006l5.95-10.2c0.313-0.537 0.888-0.862 1.506-0.862s1.194 0.331 1.506 0.862l5.95 10.2c0.356 0.613 0.581 1.319 0.419 2.006-0.675 2.806-3.944 4.931-7.875 4.931zM31.925 18.238l-4.525 7.762h9.056l-4.531-7.762zM39.8 27.069c-0.675 2.806-3.944 4.931-7.875 4.931s-7.2-2.125-7.875-4.931c-0.163-0.688 0.063-1.394 0.419-2.006l5.95-10.2c0.313-0.537 0.887-0.863 1.506-0.863s1.194 0.331 1.506 0.863l5.95 10.2c0.356 0.613 0.581 1.319 0.419 2.006z"/>
</svg>
