<svg version="1.1" xmlns="http://www.w3.org/2000/svg" width="40" height="32" viewBox="0 0 40 32">
<path fill="currentColor" d="M32.631 3.9c1.050-0.35 1.612-1.481 1.263-2.531s-1.481-1.613-2.525-1.269l-7.063 2.356c-0.869-1.469-2.475-2.456-4.306-2.456-2.762 0-5 2.237-5 5 0 0.188 0.012 0.369 0.031 0.55l-7.662 2.55c-1.050 0.35-1.612 1.481-1.263 2.531s1.481 1.613 2.531 1.262l8.469-2.825c0.281 0.2 0.581 0.369 0.9 0.512v20.419c0 1.106 0.894 2 2 2h11.994c1.106 0 2-0.894 2-2s-0.894-2-2-2h-10v-18.419c1.313-0.575 2.325-1.688 2.762-3.063l7.869-2.625zM27.475 18l4.525-7.762 4.525 7.762h-9.050zM32 24c3.931 0 7.2-2.125 7.875-4.931 0.163-0.688-0.063-1.394-0.419-2.006l-5.95-10.2c-0.313-0.537-0.888-0.862-1.506-0.862s-1.194 0.331-1.506 0.862l-5.95 10.206c-0.356 0.613-0.581 1.319-0.419 2.006 0.675 2.8 3.944 4.925 7.875 4.925zM8.075 18.238l4.525 7.762h-9.056l4.525-7.762zM0.2 27.069c0.675 2.806 3.944 4.931 7.875 4.931s7.2-2.125 7.875-4.931c0.163-0.688-0.063-1.394-0.419-2.006l-5.956-10.2c-0.313-0.537-0.887-0.863-1.506-0.863s-1.194 0.331-1.506 0.863l-5.944 10.206c-0.356 0.613-0.581 1.319-0.419 2.006z"/>
</svg>
