<svg version="1.1" xmlns="http://www.w3.org/2000/svg" width="40" height="32" viewBox="0 0 40 32">
<path fill="currentColor" d="M21.113 0.338c-0.675-0.45-1.55-0.45-2.225 0l-8.494 5.662h-7.394c-1.656 0-3 1.344-3 3v20c0 1.656 1.344 3 3 3h13v-6c0-2.206 1.794-4 4-4h0.050c0.212-2.356 1.169-4.506 2.637-6.194-0.8 0.444-1.712 0.694-2.688 0.694-3.038 0-5.5-2.463-5.5-5.5s2.462-5.5 5.5-5.5 5.5 2.463 5.5 5.5c0 1.144-0.35 2.206-0.944 3.088 1.813-1.313 4.038-2.088 6.444-2.088 3.719 0 7.006 1.85 9 4.675v-7.675c0-1.656-1.344-3-3-3h-7.394l-8.494-5.662zM6 12h2c0.55 0 1 0.45 1 1v4c0 0.55-0.45 1-1 1h-2c-0.55 0-1-0.45-1-1v-4c0-0.55 0.45-1 1-1zM6 20h2c0.55 0 1 0.45 1 1v4c0 0.55-0.45 1-1 1h-2c-0.55 0-1-0.45-1-1v-4c0-0.55 0.45-1 1-1zM20 8c-0.55 0-1 0.45-1 1v2c0 0.55 0.45 1 1 1h2c0.55 0 1-0.45 1-1s-0.45-1-1-1h-1v-1c0-0.55-0.45-1-1-1zM31 32c4.971 0 9-4.029 9-9s-4.029-9-9-9v0c-4.971 0-9 4.029-9 9s4.029 9 9 9v0zM31 26c0.828 0 1.5 0.672 1.5 1.5s-0.672 1.5-1.5 1.5v0c-0.828 0-1.5-0.672-1.5-1.5s0.672-1.5 1.5-1.5v0zM31 17c0.55 0 1 0.45 1 1v5c0 0.55-0.45 1-1 1s-1-0.45-1-1v-5c0-0.55 0.45-1 1-1z"/>
</svg>
