<svg version="1.1" xmlns="http://www.w3.org/2000/svg" width="40" height="32" viewBox="0 0 40 32">
<path fill="currentColor" d="M18.887 0.338c0.669-0.45 1.55-0.45 2.219 0l8.5 5.662h7.394c1.656 0 3 1.344 3 3v8c0-3.869-3.131-7-7-7s-7 3.131-7 7v1.538c-1.194 0.694-2 1.981-2 3.462h-4c-2.206 0-4 1.794-4 4v6h-13c-1.656 0-3-1.344-3-3v-20c0-1.656 1.344-3 3-3h7.394l8.494-5.662zM5 13v4c0 0.55 0.45 1 1 1h2c0.55 0 1-0.45 1-1v-4c0-0.55-0.45-1-1-1h-2c-0.55 0-1 0.45-1 1zM5 21v4c0 0.55 0.45 1 1 1h2c0.55 0 1-0.45 1-1v-4c0-0.55-0.45-1-1-1h-2c-0.55 0-1 0.45-1 1zM20 16.5c3.038 0 5.5-2.462 5.5-5.5s-2.462-5.5-5.5-5.5v0c-3.038 0-5.5 2.462-5.5 5.5s2.462 5.5 5.5 5.5v0zM21 9v1h1c0.55 0 1 0.45 1 1s-0.45 1-1 1h-2c-0.55 0-1-0.45-1-1v-2c0-0.55 0.45-1 1-1s1 0.45 1 1zM33 15c-1.106 0-2 0.894-2 2v3h4v-3c0-1.106-0.894-2-2-2zM28 17c0-2.762 2.238-5 5-5s5 2.238 5 5v3c1.106 0 2 0.894 2 2v8c0 1.106-0.894 2-2 2h-10c-1.106 0-2-0.894-2-2v-8c0-1.106 0.894-2 2-2v-3z"/>
</svg>
