<svg version="1.1" xmlns="http://www.w3.org/2000/svg" width="36" height="32" viewBox="0 0 36 32">
<path fill="currentColor" d="M18 0h7c0.55 0 1 0.45 1 1v4c0 0.55-0.45 1-1 1h-4.956l5.6 4h6.356c2.206 0 4 1.794 4 4v14c0 2.206-1.794 4-4 4h-11v-7c0-1.656-1.344-3-3-3s-3 1.344-3 3v7h-11c-2.206 0-4-1.794-4-4v-14c0-2.206 1.794-4 4-4h6.356l5.644-4.031v-3.969c0-1.106 0.894-2 2-2zM21 15c0-1.657-1.343-3-3-3s-3 1.343-3 3v0c0 1.657 1.343 3 3 3s3-1.343 3-3v0zM5 14c-0.55 0-1 0.45-1 1v4c0 0.55 0.45 1 1 1h2c0.55 0 1-0.45 1-1v-4c0-0.55-0.45-1-1-1h-2zM28 15v4c0 0.55 0.45 1 1 1h2c0.55 0 1-0.45 1-1v-4c0-0.55-0.45-1-1-1h-2c-0.55 0-1 0.45-1 1zM5 22c-0.55 0-1 0.45-1 1v4c0 0.55 0.45 1 1 1h2c0.55 0 1-0.45 1-1v-4c0-0.55-0.45-1-1-1h-2zM29 22c-0.55 0-1 0.45-1 1v4c0 0.55 0.45 1 1 1h2c0.55 0 1-0.45 1-1v-4c0-0.55-0.45-1-1-1h-2z"/>
</svg>
