<svg version="1.1" xmlns="http://www.w3.org/2000/svg" width="40" height="32" viewBox="0 0 40 32">
<path fill="currentColor" d="M21.113 0.338c-0.675-0.45-1.55-0.45-2.225 0l-8.494 5.662h-7.394c-1.656 0-3 1.344-3 3v20c0 1.656 1.344 3 3 3h34c1.656 0 3-1.344 3-3v-20c0-1.656-1.344-3-3-3h-7.394l-8.494-5.662zM16 26c0-2.206 1.794-4 4-4s4 1.794 4 4v6h-8v-6zM6 12h2c0.55 0 1 0.45 1 1v4c0 0.55-0.45 1-1 1h-2c-0.55 0-1-0.45-1-1v-4c0-0.55 0.45-1 1-1zM31 13c0-0.55 0.45-1 1-1h2c0.55 0 1 0.45 1 1v4c0 0.55-0.45 1-1 1h-2c-0.55 0-1-0.45-1-1v-4zM6 20h2c0.55 0 1 0.45 1 1v4c0 0.55-0.45 1-1 1h-2c-0.55 0-1-0.45-1-1v-4c0-0.55 0.45-1 1-1zM31 21c0-0.55 0.45-1 1-1h2c0.55 0 1 0.45 1 1v4c0 0.55-0.45 1-1 1h-2c-0.55 0-1-0.45-1-1v-4zM14.5 11c0-3.038 2.462-5.5 5.5-5.5s5.5 2.462 5.5 5.5v0c0 3.038-2.462 5.5-5.5 5.5s-5.5-2.462-5.5-5.5v0zM20 8c-0.55 0-1 0.45-1 1v2c0 0.55 0.45 1 1 1h2c0.55 0 1-0.45 1-1s-0.45-1-1-1h-1v-1c0-0.55-0.45-1-1-1z"/>
</svg>
