<svg version="1.1" xmlns="http://www.w3.org/2000/svg" width="32" height="32" viewBox="0 0 32 32">
<path fill="currentColor" d="M16 12l-2.469-2.469c0.306-0.787 0.469-1.638 0.469-2.531 0-3.869-3.131-7-7-7s-7 3.131-7 7 3.131 7 7 7c0.894 0 1.744-0.169 2.531-0.469l2.469 2.469-2.469 2.469c-0.787-0.306-1.638-0.469-2.531-0.469-3.869 0-7 3.131-7 7s3.131 7 7 7 7-3.131 7-7c0-0.894-0.169-1.744-0.469-2.531l17.669-17.669c0.444-0.444 0.444-1.156 0-1.6-1.769-1.769-4.631-1.769-6.4 0l-8.8 8.8zM17.413 21.413l7.387 7.387c1.769 1.769 4.631 1.769 6.4 0 0.444-0.444 0.444-1.156 0-1.6l-9.788-9.787-4 4zM4 7c0-1.657 1.343-3 3-3s3 1.343 3 3v0c0 1.657-1.343 3-3 3s-3-1.343-3-3v0zM7 22c1.657 0 3 1.343 3 3s-1.343 3-3 3v0c-1.657 0-3-1.343-3-3s1.343-3 3-3v0z"/>
</svg>
