<svg version="1.1" xmlns="http://www.w3.org/2000/svg" width="32" height="32" viewBox="0 0 32 32">
<path fill="currentColor" d="M29.063 0.438c-0.531-0.531-1.375-0.588-1.975-0.131l-6.5 5c-0.369 0.281-0.587 0.725-0.587 1.188v3.381l-5.35 5.35c0.419 0.262 0.813 0.581 1.175 0.944s0.681 0.762 0.944 1.175l5.35-5.344h3.381c0.469 0 0.906-0.219 1.188-0.588l5-6.5c0.462-0.6 0.406-1.444-0.131-1.975l-2.494-2.5zM7.588 17.587l-7 7c-0.781 0.781-0.781 2.050 0 2.831l4 4c0.781 0.781 2.050 0.781 2.831 0l7-7c1.887-1.887 1.887-4.944 0-6.831s-4.944-1.887-6.831 0z"/>
</svg>
