<svg version="1.1" xmlns="http://www.w3.org/2000/svg" width="32" height="32" viewBox="0 0 32 32">
<path fill="currentColor" d="M4.912 0.313c-0.594-0.463-1.438-0.406-1.975 0.125l-2.5 2.5c-0.531 0.531-0.588 1.375-0.131 1.975l5 6.5c0.281 0.369 0.725 0.588 1.188 0.588h3.381l6.813 6.813c-0.919 1.813-0.625 4.087 0.894 5.6l7 7c0.781 0.781 2.050 0.781 2.831 0l4-4c0.781-0.781 0.781-2.050 0-2.831l-7-7c-1.512-1.512-3.788-1.813-5.6-0.894l-6.813-6.813v-3.375c0-0.469-0.219-0.906-0.588-1.188l-6.5-5zM1.244 24.756c-0.794 0.794-1.244 1.875-1.244 3 0 2.344 1.9 4.244 4.244 4.244 1.125 0 2.206-0.45 3-1.244l7.362-7.363c-0.488-1.306-0.563-2.725-0.225-4.069l-3.856-3.856-9.281 9.287zM32 9c0-0.656-0.069-1.294-0.2-1.906-0.15-0.7-1.006-0.881-1.512-0.375l-3.994 3.994c-0.188 0.188-0.444 0.294-0.706 0.294h-3.587c-0.55 0-1-0.45-1-1v-3.594c0-0.263 0.106-0.519 0.294-0.706l3.994-3.994c0.506-0.506 0.325-1.363-0.375-1.512-0.619-0.131-1.256-0.2-1.913-0.2-4.969 0-9 4.031-9 9v0.050l5.331 5.331c2.25-0.569 4.738 0.031 6.5 1.794l0.981 0.981c3.063-1.438 5.188-4.55 5.188-8.156zM3.5 27c0-0.828 0.672-1.5 1.5-1.5s1.5 0.672 1.5 1.5v0c0 0.828-0.672 1.5-1.5 1.5s-1.5-0.672-1.5-1.5v0z"/>
</svg>
