<svg version="1.1" xmlns="http://www.w3.org/2000/svg" width="40" height="32" viewBox="0 0 40 32">
<path fill="currentColor" d="M6 30v-28c0-1.106-1.344-2-3-2s-3 0.894-3 2v28c0 1.106 1.344 2 3 2s3-0.894 3-2zM32 2h-24v28h24v-28zM37 0c-1.656 0-3 0.894-3 2v28c0 1.106 1.344 2 3 2s3-0.894 3-2v-28c0-1.106-1.344-2-3-2zM12.25 19.606c0-0.2 0.056-0.4 0.156-0.575l1.762-3.031-1.769-3.031c-0.1-0.175-0.156-0.375-0.156-0.575 0-0.631 0.512-1.144 1.144-1.144h3.55l1.962-3.369c0.225-0.394 0.644-0.631 1.1-0.631s0.869 0.237 1.1 0.631l1.962 3.369h3.544c0.631 0 1.144 0.512 1.144 1.144 0 0.2-0.056 0.4-0.156 0.575l-1.762 3.031 1.769 3.031c0.1 0.175 0.156 0.375 0.156 0.575 0 0.631-0.512 1.144-1.144 1.144h-3.55l-1.962 3.369c-0.225 0.394-0.644 0.631-1.1 0.631s-0.869-0.238-1.1-0.631l-1.962-3.369h-3.544c-0.631 0-1.144-0.512-1.144-1.144zM20 23.025l1.325-2.275h-2.65l1.325 2.275zM15.906 16l1.894 3.25h4.4l1.894-3.25-1.894-3.25h-4.4l-1.894 3.25zM24.962 17.488l-1.025 1.762h2.050l-1.025-1.762zM25.988 12.75h-2.050l1.025 1.762 1.025-1.762zM20 8.975l-1.325 2.275h2.65l-1.325-2.275zM14.012 12.75l1.025 1.762 1.025-1.762h-2.050zM16.063 19.25l-1.025-1.762-1.025 1.762h2.050z"/>
</svg>
