<svg version="1.1" xmlns="http://www.w3.org/2000/svg" width="24" height="32" viewBox="0 0 24 32">
<path fill="currentColor" d="M20 0h-11.169c-1.063 0-2.081 0.419-2.831 1.169l-4.831 4.831c-0.75 0.75-1.169 1.769-1.169 2.831v19.169c0 2.206 1.794 4 4 4h16c2.206 0 4-1.794 4-4v-24c0-2.206-1.794-4-4-4zM10 5.5v3c0 0.831-0.669 1.5-1.5 1.5s-1.5-0.669-1.5-1.5v-3c0-0.831 0.669-1.5 1.5-1.5s1.5 0.669 1.5 1.5zM15 5.5v3c0 0.831-0.669 1.5-1.5 1.5s-1.5-0.669-1.5-1.5v-3c0-0.831 0.669-1.5 1.5-1.5s1.5 0.669 1.5 1.5zM20 5.5v3c0 0.831-0.669 1.5-1.5 1.5s-1.5-0.669-1.5-1.5v-3c0-0.831 0.669-1.5 1.5-1.5s1.5 0.669 1.5 1.5z"/>
</svg>
