<svg version="1.1" xmlns="http://www.w3.org/2000/svg" width="16" height="32" viewBox="0 0 16 32">
<path fill="currentColor" d="M4.056 6c0.138-0.725 0.55-1.237 1.319-1.588 0.862-0.388 2.175-0.556 3.825-0.281 0.55 0.088 2.256 0.444 2.756 0.581 1.063 0.3 2.169-0.319 2.469-1.388s-0.319-2.169-1.387-2.469c-0.694-0.194-2.563-0.575-3.181-0.675-2.169-0.35-4.338-0.219-6.125 0.588-1.863 0.844-3.263 2.413-3.631 4.638-0.006 0.031-0.012 0.069-0.012 0.1-0.138 1.231 0.019 2.369 0.506 3.381 0.481 1.006 1.212 1.75 2 2.306 0.038 0.031 0.081 0.056 0.125 0.088-1.325 0.856-2.313 2.162-2.612 3.906-0.006 0.037-0.012 0.069-0.012 0.106-0.144 1.206 0.025 2.319 0.525 3.313 0.494 0.975 1.237 1.688 2.019 2.219 1.4 0.95 3.244 1.5 4.713 1.938v0l0.231 0.069c1.7 0.512 2.931 0.913 3.712 1.488 0.344 0.25 0.512 0.475 0.594 0.681 0.081 0.2 0.162 0.538 0.056 1.131-0.106 0.631-0.481 1.125-1.294 1.469-0.875 0.375-2.213 0.531-3.875 0.275-0.8-0.131-2.194-0.606-3.381-1.012v0c-0.269-0.094-0.531-0.181-0.769-0.262-1.044-0.35-2.175 0.219-2.525 1.262s0.219 2.181 1.269 2.531c0.163 0.050 0.356 0.119 0.575 0.194 1.163 0.394 3.031 1.038 4.206 1.225v0h0.013c2.156 0.338 4.3 0.213 6.075-0.544 1.838-0.788 3.281-2.281 3.656-4.469 0.206-1.206 0.119-2.337-0.313-3.369-0.394-0.938-1.025-1.65-1.725-2.2 1.031-0.869 1.781-2.075 2.037-3.637 0.2-1.238 0.119-2.394-0.3-3.444s-1.113-1.838-1.887-2.438c-1.425-1.1-3.35-1.713-4.856-2.188l-0.088-0.031c-1.713-0.544-2.987-0.956-3.844-1.563-0.381-0.275-0.594-0.531-0.713-0.775-0.112-0.231-0.2-0.581-0.144-1.156zM8.85 19.031c-0.012-0.006-0.025-0.006-0.037-0.012l-0.088-0.025c-1.713-0.512-2.994-0.906-3.856-1.488-0.388-0.262-0.581-0.494-0.688-0.706-0.094-0.188-0.181-0.481-0.131-0.981 0.119-0.606 0.494-1.081 1.281-1.419 0.875-0.375 2.212-0.531 3.881-0.269l1.025 0.162c0.394 0.181 0.731 0.375 1.012 0.594 0.344 0.262 0.525 0.512 0.625 0.762s0.175 0.65 0.069 1.306c-0.15 0.919-0.8 1.65-2.319 1.938l-0.775 0.144z"/>
</svg>
