<svg version="1.1" xmlns="http://www.w3.org/2000/svg" width="32" height="32" viewBox="0 0 32 32">
<path fill="currentColor" d="M19.712 0.969c-0.356-0.6-1.012-0.969-1.712-0.969s-1.356 0.369-1.712 0.969l-6 10c-0.369 0.619-0.381 1.387-0.025 2.012s1.019 1.012 1.738 1.012h12c0.719 0 1.387-0.387 1.738-1.012s0.344-1.394-0.025-2.012l-6-10zM18 19.5v9c0 1.381 1.119 2.5 2.5 2.5h9c1.381 0 2.5-1.119 2.5-2.5v-9c0-1.381-1.119-2.5-2.5-2.5h-9c-1.381 0-2.5 1.119-2.5 2.5zM8 32c4.418 0 8-3.582 8-8s-3.582-8-8-8v0c-4.418 0-8 3.582-8 8s3.582 8 8 8v0z"/>
</svg>
