<svg version="1.1" xmlns="http://www.w3.org/2000/svg" width="28" height="32" viewBox="0 0 28 32">
<path fill="currentColor" d="M22 14c3.313 0 6-2.688 6-6s-2.688-6-6-6-6 2.688-6 6c0 0.25 0.012 0.5 0.044 0.744l-5.881 2.938c-1.075-1.044-2.544-1.681-4.162-1.681-3.313 0-6 2.688-6 6s2.688 6 6 6c1.619 0 3.088-0.637 4.162-1.681l5.881 2.938c-0.031 0.244-0.044 0.488-0.044 0.744 0 3.313 2.688 6 6 6s6-2.688 6-6-2.688-6-6-6c-1.619 0-3.087 0.637-4.163 1.681l-5.881-2.938c0.031-0.244 0.044-0.488 0.044-0.744s-0.012-0.5-0.044-0.744l5.881-2.938c1.075 1.044 2.544 1.681 4.163 1.681z"/>
</svg>
