<svg version="1.1" xmlns="http://www.w3.org/2000/svg" width="36" height="32" viewBox="0 0 36 32">
<path fill="currentColor" d="M22 14h-2.906c-2.813 0-5.094 2.281-5.094 5.094 0 1.394 0.644 2.144 1.2 2.531 0.425 0.294 0.8 0.75 0.8 1.269 0 0.613-0.5 1.113-1.113 1.113h-0.156c-0.15 0-0.3-0.025-0.444-0.087-1.113-0.494-6.287-3.081-6.287-8.919 0-4.969 4.031-9 9-9h5v-3.831c0-1.2 0.969-2.169 2.169-2.169 0.538 0 1.050 0.2 1.45 0.556l8.637 7.775c0.475 0.425 0.744 1.031 0.744 1.669s-0.269 1.244-0.744 1.669l-8.688 7.819c-0.369 0.331-0.844 0.512-1.337 0.512h-0.231c-1.106 0-2-0.894-2-2v-4zM5 6c-0.55 0-1 0.45-1 1v20c0 0.55 0.45 1 1 1h20c0.55 0 1-0.45 1-1v-3c0-1.106 0.894-2 2-2s2 0.894 2 2v3c0 2.762-2.238 5-5 5h-20c-2.763 0-5-2.238-5-5v-20c0-2.763 2.237-5 5-5h3c1.106 0 2 0.894 2 2s-0.894 2-2 2h-3z"/>
</svg>
