<svg version="1.1" xmlns="http://www.w3.org/2000/svg" width="24" height="32" viewBox="0 0 24 32">
<path fill="currentColor" d="M0 28c0 2.206 1.794 4 4 4h10v-8c0-1.106 0.894-2 2-2h8v-18c0-2.206-1.794-4-4-4h-16c-2.206 0-4 1.794-4 4v24zM10.706 4.706l-6 6c-0.388 0.387-1.025 0.387-1.413 0s-0.388-1.025 0-1.412l6-6c0.387-0.388 1.025-0.388 1.412 0s0.387 1.025 0 1.412zM16.706 6.706l-10 10c-0.388 0.387-1.025 0.387-1.412 0s-0.388-1.025 0-1.412l10-10c0.387-0.388 1.025-0.388 1.412 0s0.387 1.025 0 1.412zM24 24h-8v8l8-8z"/>
</svg>
