<svg version="1.1" xmlns="http://www.w3.org/2000/svg" width="32" height="32" viewBox="0 0 32 32">
<path fill="currentColor" d="M16.837 0.181c-0.262-0.119-0.544-0.181-0.838-0.181s-0.575 0.063-0.838 0.181l-11.769 4.994c-1.375 0.581-2.4 1.938-2.394 3.575 0.031 6.2 2.581 17.544 13.35 22.7 1.044 0.5 2.256 0.5 3.3 0 10.769-5.156 13.319-16.5 13.35-22.7 0.006-1.638-1.019-2.994-2.394-3.575l-11.769-4.994zM16 7c0.55 0 1 0.45 1 1 0 2.063 2.494 3.094 3.95 1.637 0.387-0.387 1.025-0.387 1.413 0s0.387 1.025 0 1.412c-1.456 1.456-0.425 3.95 1.637 3.95 0.55 0 1 0.45 1 1s-0.45 1-1 1c-2.063 0-3.094 2.494-1.637 3.95 0.387 0.387 0.387 1.025 0 1.413s-1.025 0.387-1.413 0c-1.456-1.456-3.95-0.425-3.95 1.637 0 0.55-0.45 1-1 1s-1-0.45-1-1c0-2.063-2.494-3.094-3.95-1.637-0.387 0.387-1.025 0.387-1.412 0s-0.387-1.025 0-1.413c1.456-1.456 0.425-3.95-1.637-3.95-0.55 0-1-0.45-1-1s0.45-1 1-1c2.063 0 3.094-2.494 1.637-3.95-0.387-0.387-0.387-1.025 0-1.412s1.025-0.387 1.412 0c1.456 1.456 3.95 0.425 3.95-1.637 0-0.55 0.45-1 1-1zM14.5 16c0.828 0 1.5-0.672 1.5-1.5s-0.672-1.5-1.5-1.5v0c-0.828 0-1.5 0.672-1.5 1.5s0.672 1.5 1.5 1.5v0zM19 18c0-0.552-0.448-1-1-1s-1 0.448-1 1v0c0 0.552 0.448 1 1 1s1-0.448 1-1v0z"/>
</svg>
