<svg version="1.1" xmlns="http://www.w3.org/2000/svg" width="32" height="32" viewBox="0 0 32 32">
<path fill="currentColor" d="M16.837 0.181c-0.262-0.119-0.544-0.181-0.838-0.181s-0.575 0.063-0.838 0.181l-11.769 4.994c-1.375 0.581-2.4 1.938-2.394 3.575 0.031 6.2 2.581 17.544 13.35 22.7 1.044 0.5 2.256 0.5 3.3 0 10.769-5.156 13.319-16.5 13.35-22.7 0.006-1.638-1.019-2.994-2.394-3.575l-11.769-4.994zM9 13.831c0-2.113 1.713-3.831 3.831-3.831 1.012 0 1.988 0.406 2.706 1.119l0.462 0.463 0.462-0.463c0.719-0.719 1.694-1.119 2.706-1.119 2.113 0 3.831 1.713 3.831 3.831 0 1.012-0.406 1.988-1.119 2.706l-5.169 5.169c-0.387 0.387-1.025 0.387-1.412 0l-5.169-5.169c-0.719-0.719-1.119-1.694-1.119-2.706z"/>
</svg>
