<svg version="1.1" xmlns="http://www.w3.org/2000/svg" width="32" height="32" viewBox="0 0 32 32">
<path fill="currentColor" d="M16.837 0.181c-0.262-0.119-0.544-0.181-0.838-0.181s-0.575 0.063-0.838 0.181l-11.769 4.994c-1.375 0.581-2.4 1.938-2.394 3.575 0.031 6.2 2.581 17.544 13.35 22.7 1.044 0.5 2.256 0.5 3.3 0 10.769-5.156 13.319-16.5 13.35-22.7 0.006-1.638-1.019-2.994-2.394-3.575l-11.769-4.994zM10 9.65c0-0.363 0.294-0.65 0.65-0.65h0.012c0.213 0 0.406 0.1 0.531 0.269l2.5 3.331c0.188 0.25 0.488 0.4 0.8 0.4h3c0.313 0 0.613-0.15 0.8-0.4l2.5-3.331c0.125-0.169 0.325-0.269 0.531-0.269h0.012c0.363 0 0.65 0.294 0.65 0.65v7.35c0 3.313-2.688 6-6 6s-6-2.688-6-6v-7.35zM13.5 18c0.552 0 1-0.448 1-1s-0.448-1-1-1v0c-0.552 0-1 0.448-1 1s0.448 1 1 1v0zM19.5 17c0-0.552-0.448-1-1-1s-1 0.448-1 1v0c0 0.552 0.448 1 1 1s1-0.448 1-1v0z"/>
</svg>
