<svg version="1.1" xmlns="http://www.w3.org/2000/svg" width="32" height="32" viewBox="0 0 32 32">
<path fill="currentColor" d="M16.837 0.181c-0.262-0.119-0.544-0.181-0.838-0.181s-0.575 0.063-0.838 0.181l-11.769 4.994c-1.375 0.581-2.4 1.938-2.394 3.575 0.031 6.2 2.581 17.544 13.35 22.7 1.044 0.5 2.256 0.5 3.3 0 10.769-5.156 13.319-16.5 13.35-22.7 0.006-1.638-1.019-2.994-2.394-3.575l-11.769-4.994zM10.056 17.887c0.3 0.075 0.619 0.113 0.944 0.113 2.206 0 4-1.794 4-4v-4h2.762c0.756 0 1.45 0.425 1.788 1.106l0.45 0.894h4c0.55 0 1 0.45 1 1v2c0 2.762-2.238 5-5 5h-3v3.169c0 0.456-0.369 0.831-0.831 0.831-0.113 0-0.225-0.025-0.325-0.069l-6.169-2.644c-0.412-0.175-0.675-0.581-0.675-1.025 0-0.175 0.037-0.344 0.119-0.5l0.938-1.875zM10 10h3v4c0 1.106-0.894 2-2 2s-2-0.894-2-2v-3c0-0.55 0.45-1 1-1zM18 13c0-0.552-0.448-1-1-1s-1 0.448-1 1v0c0 0.552 0.448 1 1 1s1-0.448 1-1v0z"/>
</svg>
