<svg version="1.1" xmlns="http://www.w3.org/2000/svg" width="40" height="32" viewBox="0 0 40 32">
<path fill="currentColor" d="M13.238 0c0.488 0 0.894 0.356 1.044 0.825 0.769 2.419 3.038 4.175 5.719 4.175s4.95-1.756 5.719-4.175c0.15-0.469 0.556-0.825 1.044-0.825h0.788c1.406 0 2.762 0.494 3.844 1.394l7.887 6.569c0.413 0.344 0.669 0.844 0.712 1.381s-0.131 1.069-0.487 1.475l-3.5 4c-0.712 0.819-1.95 0.912-2.788 0.219l-3.219-2.681v15.644c0 2.206-1.794 4-4 4h-12c-2.206 0-4-1.794-4-4v-15.644l-3.219 2.681c-0.831 0.694-2.069 0.6-2.788-0.219l-3.5-4c-0.356-0.406-0.531-0.938-0.487-1.475s0.3-1.037 0.713-1.381l7.887-6.569c1.081-0.9 2.438-1.394 3.844-1.394h0.787z"/>
</svg>
