<svg version="1.1" xmlns="http://www.w3.org/2000/svg" width="40" height="32" viewBox="0 0 40 32">
<path fill="currentColor" d="M2.425 0.319c-0.65-0.512-1.594-0.394-2.106 0.256s-0.394 1.594 0.256 2.106l37 29c0.65 0.513 1.594 0.394 2.106-0.256s0.394-1.594-0.256-2.106l-3.425-2.688v-12.631h-4v9.5l-8-6.269v-3.231h-4v0.094l-2.675-2.094h20.375c1.269 0 2.3-1.031 2.3-2.3 0-0.456-0.138-0.9-0.388-1.275l-4.725-7.088c-0.556-0.838-1.487-1.337-2.494-1.337h-24.788c-1 0-1.938 0.5-2.494 1.337l-0.481 0.712-2.206-1.731zM2.3 12h5.313l-6.3-4.969-0.925 1.387c-0.25 0.381-0.388 0.825-0.388 1.275 0 1.275 1.031 2.306 2.3 2.306zM20 24h-12v-10h-4v15c0 1.656 1.344 3 3 3h14c1.656 0 3-1.344 3-3v-4.094l-4-3.15v2.244z"/>
</svg>
