<svg version="1.1" xmlns="http://www.w3.org/2000/svg" width="40" height="32" viewBox="0 0 40 32">
<path fill="currentColor" d="M2.3 12h25.8c1.262-1.238 2.994-2 4.9-2s3.631 0.762 4.894 1.994c1.181-0.1 2.106-1.088 2.106-2.294 0-0.456-0.138-0.9-0.388-1.275l-4.725-7.088c-0.556-0.838-1.487-1.337-2.494-1.337h-24.788c-1 0-1.938 0.5-2.494 1.337l-4.725 7.081c-0.25 0.381-0.388 0.825-0.388 1.275 0 1.275 1.031 2.306 2.3 2.306zM24 14h-4v10h-12v-10h-4v15c0 1.656 1.344 3 3 3h14c1.656 0 3-1.344 3-3v-15zM33 15c1.106 0 2 0.894 2 2v3h-4v-3c0-1.106 0.894-2 2-2zM28 17v3c-1.106 0-2 0.894-2 2v8c0 1.106 0.894 2 2 2h10c1.106 0 2-0.894 2-2v-8c0-1.106-0.894-2-2-2v-3c0-2.762-2.237-5-5-5s-5 2.238-5 5z"/>
</svg>
