<svg version="1.1" xmlns="http://www.w3.org/2000/svg" width="32" height="32" viewBox="0 0 32 32">
<path fill="currentColor" d="M4 8.244c0-1.237 1.006-2.244 2.244-2.244 0.594 0 1.162 0.237 1.588 0.656l1.012 1.013c-1.313 2.431-1.088 5.469 0.681 7.687l-0.088 0.081c-0.588 0.587-0.588 1.538 0 2.119s1.537 0.587 2.119 0l10.006-9.994c0.587-0.588 0.587-1.537 0-2.119s-1.538-0.588-2.119 0l-0.081 0.081c-2.219-1.769-5.262-1.994-7.688-0.681l-1.019-1.013c-1.169-1.175-2.756-1.831-4.412-1.831-3.45 0-6.244 2.794-6.244 6.244v19.756c0 1.106 0.894 2 2 2s2-0.894 2-2v-19.756zM16 22c1.105 0 2-0.895 2-2s-0.895-2-2-2v0c-1.105 0-2 0.895-2 2s0.895 2 2 2v0zM20 26c0-1.105-0.895-2-2-2s-2 0.895-2 2v0c0 1.105 0.895 2 2 2s2-0.895 2-2v0zM20 18c1.105 0 2-0.895 2-2s-0.895-2-2-2v0c-1.105 0-2 0.895-2 2s0.895 2 2 2v0zM24 22c0-1.105-0.895-2-2-2s-2 0.895-2 2v0c0 1.105 0.895 2 2 2s2-0.895 2-2v0zM24 14c1.105 0 2-0.895 2-2s-0.895-2-2-2v0c-1.105 0-2 0.895-2 2s0.895 2 2 2v0zM28 18c0-1.105-0.895-2-2-2s-2 0.895-2 2v0c0 1.105 0.895 2 2 2s2-0.895 2-2v0zM30 16c1.105 0 2-0.895 2-2s-0.895-2-2-2v0c-1.105 0-2 0.895-2 2s0.895 2 2 2v0z"/>
</svg>
