<svg version="1.1" xmlns="http://www.w3.org/2000/svg" width="32" height="32" viewBox="0 0 32 32">
<path fill="currentColor" d="M4 2c-2.206 0-4 1.794-4 4s1.794 4 4 4h0.063c0.231 5.556 4.813 10 10.438 10h3.5v-12h-14c-1.106 0-2-0.894-2-2s0.894-2 2-2h25c0.55 0 1-0.45 1-1s-0.45-1-1-1h-25zM14 28.5c0 0.831 0.669 1.5 1.5 1.5h4.5v-4.512l-4.006-1.4c-0.781-0.275-1.637 0.137-1.912 0.919s0.137 1.637 0.919 1.913l0.281 0.1c-0.719 0.1-1.281 0.725-1.281 1.481zM22 29.956c2.275-0.206 4.344-1.1 6.006-2.475l-5.406-2.163c-0.188 0.113-0.387 0.2-0.6 0.269v4.369zM29.538 25.938c1.538-1.894 2.462-4.306 2.462-6.938 0-0.769-0.081-1.519-0.231-2.244l-7.844 5.438c0.050 0.212 0.075 0.438 0.075 0.663 0 0.288-0.044 0.563-0.119 0.819l5.656 2.262zM21 8h-1v12h1.144c0.619 0 1.194 0.2 1.663 0.531l8.344-5.775c-1.663-3.969-5.581-6.756-10.15-6.756zM10.5 12c0-0.828 0.672-1.5 1.5-1.5s1.5 0.672 1.5 1.5v0c0 0.828-0.672 1.5-1.5 1.5s-1.5-0.672-1.5-1.5v0z"/>
</svg>
