<svg version="1.1" xmlns="http://www.w3.org/2000/svg" width="32" height="32" viewBox="0 0 32 32">
<path fill="currentColor" d="M25.238 2.15c0.75-0.313 1.606-0.138 2.181 0.431l4 4c0.375 0.375 0.588 0.881 0.588 1.413s-0.212 1.037-0.587 1.412l-4 4c-0.575 0.575-1.431 0.744-2.181 0.431s-1.238-1.037-1.238-1.85v-1.988h-2c-0.631 0-1.225 0.294-1.6 0.8l-2.65 3.531-2.5-3.331 1.95-2.6c1.131-1.513 2.913-2.4 4.8-2.4h2v-2c0-0.806 0.488-1.538 1.238-1.85zM10.25 17.669l2.5 3.331-1.95 2.6c-1.131 1.512-2.912 2.4-4.8 2.4h-4c-1.106 0-2-0.894-2-2s0.894-2 2-2h4c0.631 0 1.225-0.294 1.6-0.8l2.65-3.531zM27.413 29.419c-0.575 0.575-1.431 0.744-2.181 0.431s-1.238-1.038-1.238-1.85v-2h-1.994c-1.887 0-3.669-0.887-4.8-2.4l-9.6-12.8c-0.375-0.506-0.969-0.8-1.6-0.8h-4c-1.106 0-2-0.894-2-2s0.894-2 2-2h4c1.888 0 3.669 0.888 4.8 2.4l9.6 12.8c0.375 0.506 0.969 0.8 1.6 0.8h2v-2c0-0.806 0.488-1.538 1.238-1.85s1.606-0.137 2.181 0.431l4 4c0.375 0.375 0.588 0.881 0.588 1.413s-0.212 1.038-0.587 1.413l-4 4z"/>
</svg>
