<svg version="1.1" xmlns="http://www.w3.org/2000/svg" width="40" height="32" viewBox="0 0 40 32">
<path fill="currentColor" d="M8.125 30c2.537 0 5.025-0.688 7.2-1.994l6.675-4.006h-14v6h0.125zM22 8l-6.675-4.006c-2.175-1.306-4.662-1.994-7.2-1.994h-0.125v6h14zM6 8v-6h-1c-1.656 0-3 1.344-3 3v3h0.5c-1.381 0-2.5 1.119-2.5 2.5v11c0 1.381 1.119 2.5 2.5 2.5h-0.5v3c0 1.656 1.344 3 3 3h1v-6h0.5c1.637 0 3.088-0.788 4-2h18c4.331 0 8.438-1.419 11.2-5.1 0.4-0.531 0.4-1.269 0-1.8-2.763-3.681-6.869-5.1-11.2-5.1h-18c-0.912-1.213-2.363-2-4-2h-0.5zM32 15.225v1.556c0 1.225-0.994 2.225-2.225 2.225-0.156 0-0.275-0.125-0.275-0.275v-5.456c0-0.156 0.125-0.275 0.275-0.275 1.225 0 2.225 0.994 2.225 2.225z"/>
</svg>
