<svg version="1.1" xmlns="http://www.w3.org/2000/svg" width="40" height="32" viewBox="0 0 40 32">
<path fill="currentColor" d="M12 8c0-1.106 0.894-2 2-2s2 0.894 2 2v0.488c0 1.731-0.15 3.456-0.444 5.156l-5.275 1.581c-2.537 0.762-4.275 3.1-4.275 5.75v4.494c0 2.5 2.031 4.531 4.531 4.531 1.625 0 3.125-0.869 3.931-2.281l0.869-1.519c1.675-2.938 2.906-6.106 3.65-9.406l5.9-1.769-0.781 2.344c-0.206 0.613-0.1 1.281 0.275 1.8s0.981 0.831 1.625 0.831h7.994c1.106 0 2-0.894 2-2s-0.894-2-2-2h-5.225l1.125-3.369c0.238-0.706 0.056-1.488-0.462-2.025s-1.294-0.738-2.012-0.525l-7.65 2.3c0.15-1.294 0.225-2.588 0.225-3.894v-0.487c0-3.313-2.688-6-6-6s-6 2.688-6 6v2c0 1.106 0.894 2 2 2s2-0.894 2-2v-2zM11.425 19.063l3.063-0.919c-0.65 2.113-1.531 4.15-2.631 6.075l-0.869 1.519c-0.094 0.163-0.269 0.269-0.463 0.269-0.294 0-0.531-0.238-0.531-0.531v-4.5c0-0.881 0.581-1.663 1.425-1.919zM1.5 23c-0.831 0-1.5 0.669-1.5 1.5s0.669 1.5 1.5 1.5h2.519c-0.013-0.175-0.019-0.35-0.019-0.531v-2.469h-2.5zM38.5 26c0.831 0 1.5-0.669 1.5-1.5s-0.669-1.5-1.5-1.5h-19.381c-0.419 1.019-0.887 2.019-1.394 3h20.775z"/>
</svg>
