<svg version="1.1" xmlns="http://www.w3.org/2000/svg" width="32" height="32" viewBox="0 0 32 32">
<path fill="currentColor" d="M14 2h-10c-1.106 0-2 0.894-2 2v4c0 1.106 0.894 2 2 2h23.587c0.262 0 0.519-0.106 0.706-0.294l3-3c0.387-0.388 0.387-1.025 0-1.412l-3-3c-0.188-0.188-0.444-0.294-0.706-0.294h-9.587c0-1.106-0.894-2-2-2s-2 0.894-2 2zM30 16c0-1.106-0.894-2-2-2h-10v-2h-4v2h-9.588c-0.263 0-0.519 0.106-0.706 0.294l-3 3c-0.388 0.387-0.388 1.025 0 1.413l3 3c0.188 0.188 0.444 0.294 0.706 0.294h23.587c1.106 0 2-0.894 2-2v-4zM18 30v-6h-4v6c0 1.106 0.894 2 2 2s2-0.894 2-2z"/>
</svg>
