<svg version="1.1" xmlns="http://www.w3.org/2000/svg" width="40" height="32" viewBox="0 0 40 32">
<path fill="currentColor" d="M36 0c1.106 0 2 0.894 2 2v28c0 1.106-0.894 2-2 2s-2-0.894-2-2v-28c0-1.106 0.894-2 2-2zM28 6c1.106 0 2 0.894 2 2v22c0 1.106-0.894 2-2 2s-2-0.894-2-2v-22c0-1.106 0.894-2 2-2zM22 14v16c0 1.106-0.894 2-2 2s-2-0.894-2-2v-16c0-1.106 0.894-2 2-2s2 0.894 2 2zM12 18c1.106 0 2 0.894 2 2v10c0 1.106-0.894 2-2 2s-2-0.894-2-2v-10c0-1.106 0.894-2 2-2zM6 26v4c0 1.106-0.894 2-2 2s-2-0.894-2-2v-4c0-1.106 0.894-2 2-2s2 0.894 2 2z"/>
</svg>
