<svg version="1.1" xmlns="http://www.w3.org/2000/svg" width="24" height="32" viewBox="0 0 24 32">
<path fill="currentColor" d="M4 0h11.169c1.063 0 2.081 0.419 2.831 1.169l4.831 4.831c0.75 0.75 1.169 1.769 1.169 2.831v19.169c0 2.206-1.794 4-4 4h-16c-2.206 0-4-1.794-4-4v-24c0-2.206 1.794-4 4-4zM6 12c-1.106 0-2 0.894-2 2v2h4v-4h-2zM4 22h16v-4h-16v4zM20 14c0-1.106-0.894-2-2-2h-2v4h4v-2zM10 12v4h4v-4h-4zM18 28c1.106 0 2-0.894 2-2v-2h-4v4h2zM10 24v4h4v-4h-4zM4 26c0 1.106 0.894 2 2 2h2v-4h-4v2z"/>
</svg>
