<svg version="1.1" xmlns="http://www.w3.org/2000/svg" width="32" height="32" viewBox="0 0 32 32">
<path fill="currentColor" d="M18 6c0-1.106 0.894-2 2-2s2 0.894 2 2 0.894 2 2 2 2-0.894 2-2c0-3.313-2.688-6-6-6s-6 2.688-6 6v12h-4v-1.5c0-1.931-1.569-3.5-3.5-3.5h-3c-0.831 0-1.5 0.669-1.5 1.5s0.669 1.5 1.5 1.5h3c0.275 0 0.5 0.225 0.5 0.5v1.5h-5c-1.106 0-2 0.894-2 2s0.894 2 2 2h28c1.106 0 2-0.894 2-2s-0.894-2-2-2h-5v-1.5c0-0.275 0.225-0.5 0.5-0.5h3.5c0.831 0 1.5-0.669 1.5-1.5s-0.669-1.5-1.5-1.5h-3.5c-1.931 0-3.5 1.569-3.5 3.5v1.5h-4v-12zM30 26v-2h-28v2c0 3.313 2.688 6 6 6h16c3.313 0 6-2.688 6-6z"/>
</svg>
