<svg version="1.1" xmlns="http://www.w3.org/2000/svg" width="32" height="32" viewBox="0 0 32 32">
<path fill="currentColor" d="M26 24.931c3.656-2.569 6-6.506 6-10.931 0-7.731-7.163-14-16-14s-16 6.269-16 14c0 4.419 2.344 8.362 6 10.931 0 0.025 0 0.044 0 0.069v4c0 1.656 1.344 3 3 3h3v-3c0-0.55 0.45-1 1-1s1 0.45 1 1v3h4v-3c0-0.55 0.45-1 1-1s1 0.45 1 1v3h3c1.656 0 3-1.344 3-3v-4c0-0.025 0-0.044 0-0.069zM6 16c0-2.209 1.791-4 4-4s4 1.791 4 4v0c0 2.209-1.791 4-4 4s-4-1.791-4-4v0zM22 12c2.209 0 4 1.791 4 4s-1.791 4-4 4v0c-2.209 0-4-1.791-4-4s1.791-4 4-4v0z"/>
</svg>
