<svg version="1.1" xmlns="http://www.w3.org/2000/svg" width="28" height="32" viewBox="0 0 28 32">
<path fill="currentColor" d="M23 8c0 2.775-1.587 5.219-4 6.65v1.35c0 1.106-0.894 2-2 2h-6c-1.106 0-2-0.894-2-2v-1.35c-2.412-1.438-4-3.881-4-6.65 0-4.419 4.031-8 9-8s9 3.581 9 8zM10.5 11c1.105 0 2-0.895 2-2s-0.895-2-2-2v0c-1.105 0-2 0.895-2 2s0.895 2 2 2v0zM19.5 9c0-1.105-0.895-2-2-2s-2 0.895-2 2v0c0 1.105 0.895 2 2 2s2-0.895 2-2v0zM0.212 17.106c0.494-0.988 1.694-1.387 2.681-0.894l11.106 5.55 11.106-5.55c0.988-0.494 2.188-0.094 2.681 0.894s0.094 2.188-0.894 2.681l-8.419 4.213 8.425 4.212c0.988 0.494 1.387 1.694 0.894 2.681s-1.694 1.388-2.681 0.894l-11.113-5.55-11.106 5.55c-0.988 0.494-2.188 0.094-2.681-0.894s-0.094-2.188 0.894-2.681l8.419-4.212-8.419-4.212c-0.988-0.494-1.387-1.694-0.894-2.681z"/>
</svg>
