<svg version="1.1" xmlns="http://www.w3.org/2000/svg" width="40" height="32" viewBox="0 0 40 32">
<path fill="currentColor" d="M2 2c-1.106 0-2 0.894-2 2s0.894 2 2 2v10c0 3.313 2.688 6 6 6v2h4v-2h12v2h4v-2c3.313 0 6-2.688 6-6v-6c1.106 0 2-0.894 2-2s-0.894-2-2-2h-4c-1.106 0-2 0.894-2 2v2.581c0 1.887-1.531 3.419-3.419 3.419-4.719 0-9.1-2.431-11.6-6.431l-0.269-0.431c-1.825-2.912-4.9-4.787-8.294-5.094-0.138-0.031-0.275-0.044-0.419-0.044h-2zM40 24c0-1.106-0.894-2-2-2s-2 0.894-2 2v0.5c0 0.831-0.669 1.5-1.5 1.5h-30.5c-1.106 0-2 0.894-2 2s0.894 2 2 2h30.5c3.038 0 5.5-2.462 5.5-5.5v-0.5z"/>
</svg>
