<svg version="1.1" xmlns="http://www.w3.org/2000/svg" width="32" height="32" viewBox="0 0 32 32">
<path fill="currentColor" d="M0 26c0 1.106 0.894 2 2 2h3.419c0.769 1.769 2.531 3 4.581 3s3.813-1.231 4.581-3h15.419c1.106 0 2-0.894 2-2s-0.894-2-2-2h-15.419c-0.769-1.769-2.531-3-4.581-3s-3.813 1.231-4.581 3h-3.419c-1.106 0-2 0.894-2 2zM8 26c0-1.105 0.895-2 2-2s2 0.895 2 2v0c0 1.105-0.895 2-2 2s-2-0.895-2-2v0zM20 16c0-1.105 0.895-2 2-2s2 0.895 2 2v0c0 1.105-0.895 2-2 2s-2-0.895-2-2v0zM22 11c-2.050 0-3.813 1.231-4.581 3h-15.419c-1.106 0-2 0.894-2 2s0.894 2 2 2h15.419c0.769 1.769 2.531 3 4.581 3s3.813-1.231 4.581-3h3.419c1.106 0 2-0.894 2-2s-0.894-2-2-2h-3.419c-0.769-1.769-2.531-3-4.581-3zM12 8c-1.105 0-2-0.895-2-2s0.895-2 2-2v0c1.105 0 2 0.895 2 2s-0.895 2-2 2v0zM16.581 4c-0.769-1.769-2.531-3-4.581-3s-3.813 1.231-4.581 3h-5.419c-1.106 0-2 0.894-2 2s0.894 2 2 2h5.419c0.769 1.769 2.531 3 4.581 3s3.813-1.231 4.581-3h13.419c1.106 0 2-0.894 2-2s-0.894-2-2-2h-13.419z"/>
</svg>
