<svg version="1.1" xmlns="http://www.w3.org/2000/svg" width="40" height="32" viewBox="0 0 40 32">
<path fill="currentColor" d="M2 9c0 4.969 4.031 9 9 9h7.706c1.413 1.244 3.262 2 5.294 2s3.881-0.756 5.294-2h1.706c3.869 0 7-3.131 7-7s-3.131-7-7-7c-0.669 0-1.313 0.094-1.925 0.269-1.337-2.538-4.006-4.269-7.075-4.269-2.038 0-3.9 0.762-5.319 2.019-1.55-1.262-3.525-2.019-5.681-2.019-4.969 0-9 4.031-9 9zM38.5 23h-21c-0.831 0-1.5 0.669-1.5 1.5s0.669 1.5 1.5 1.5h21c0.831 0 1.5-0.669 1.5-1.5s-0.669-1.5-1.5-1.5zM34.5 29h-7c-0.831 0-1.5 0.669-1.5 1.5s0.669 1.5 1.5 1.5h7c0.831 0 1.5-0.669 1.5-1.5s-0.669-1.5-1.5-1.5zM22.5 29h-21c-0.831 0-1.5 0.669-1.5 1.5s0.669 1.5 1.5 1.5h21c0.831 0 1.5-0.669 1.5-1.5s-0.669-1.5-1.5-1.5zM14 24.5c0-0.831-0.669-1.5-1.5-1.5h-6.5c-0.831 0-1.5 0.669-1.5 1.5s0.669 1.5 1.5 1.5h6.5c0.831 0 1.5-0.669 1.5-1.5z"/>
</svg>
