<svg version="1.1" xmlns="http://www.w3.org/2000/svg" width="40" height="32" viewBox="0 0 40 32">
<path fill="currentColor" d="M28 2v0.688c0 2.388 0.95 4.675 2.637 6.363l1.313 1.313c1.313 1.313 2.050 3.094 2.050 4.95v0.688c0 1.106-0.894 2-2 2s-2-0.894-2-2v-0.688c0-0.794-0.319-1.556-0.881-2.119l-1.313-1.313c-2.438-2.438-3.806-5.75-3.806-9.194v-0.688c0-1.106 0.894-2 2-2s2 0.894 2 2zM36 16v-0.688c0-2.387-0.95-4.675-2.638-6.363l-1.313-1.313c-1.313-1.313-2.050-3.094-2.050-4.95v-0.688c0-1.106 0.894-2 2-2s2 0.894 2 2v0.688c0 0.794 0.319 1.556 0.881 2.119l1.313 1.313c2.438 2.438 3.806 5.744 3.806 9.194v0.688c0 1.106-0.894 2-2 2s-2-0.894-2-2zM0 26c0-2.206 1.794-4 4-4h22c1.106 0 2 0.894 2 2v6c0 1.106-0.894 2-2 2h-22c-2.206 0-4-1.794-4-4v-2zM14 26v2h10v-2h-10zM32 22c1.106 0 2 0.894 2 2v6c0 1.106-0.894 2-2 2s-2-0.894-2-2v-6c0-1.106 0.894-2 2-2zM38 22c1.106 0 2 0.894 2 2v6c0 1.106-0.894 2-2 2s-2-0.894-2-2v-6c0-1.106 0.894-2 2-2z"/>
</svg>
