<svg version="1.1" xmlns="http://www.w3.org/2000/svg" width="28" height="32" viewBox="0 0 28 32">
<path fill="currentColor" d="M14 0c1.106 0 2 0.894 2 2v1.881l0.938-0.938c0.587-0.587 1.538-0.587 2.119 0s0.587 1.538 0 2.119l-3.063 3.063v4.394l3.837-2.238 1.106-4.131c0.212-0.8 1.038-1.275 1.837-1.063s1.275 1.037 1.063 1.838l-0.325 1.206 1.475-0.862c0.956-0.556 2.181-0.231 2.738 0.719s0.238 2.181-0.719 2.737l-1.581 0.925 1.356 0.363c0.8 0.213 1.275 1.037 1.063 1.838s-1.038 1.275-1.837 1.063l-4.231-1.131-3.806 2.219 3.806 2.219 4.231-1.131c0.8-0.212 1.625 0.262 1.837 1.063s-0.262 1.625-1.063 1.837l-1.356 0.363 1.581 0.925c0.956 0.556 1.275 1.781 0.719 2.738s-1.781 1.275-2.738 0.719l-1.475-0.863 0.325 1.206c0.212 0.8-0.262 1.625-1.063 1.837s-1.625-0.262-1.837-1.063l-1.106-4.131-3.831-2.238v4.394l3.063 3.063c0.587 0.587 0.587 1.538 0 2.119s-1.538 0.587-2.119 0l-0.938-0.938v1.881c0 1.106-0.894 2-2 2s-2-0.894-2-2v-1.881l-0.938 0.938c-0.588 0.587-1.537 0.587-2.119 0s-0.588-1.538 0-2.119l3.063-3.063v-4.394l-3.838 2.238-1.106 4.131c-0.213 0.8-1.038 1.275-1.837 1.063s-1.275-1.038-1.063-1.837l0.325-1.206-1.487 0.856c-0.956 0.556-2.181 0.231-2.737-0.719s-0.231-2.181 0.719-2.738l1.581-0.925-1.356-0.363c-0.8-0.212-1.275-1.038-1.063-1.837s1.038-1.275 1.837-1.063l4.231 1.131 3.813-2.212-3.806-2.219-4.231 1.131c-0.8 0.213-1.625-0.262-1.837-1.063s0.263-1.625 1.063-1.838l1.356-0.363-1.581-0.925c-0.956-0.556-1.275-1.781-0.719-2.731s1.781-1.275 2.737-0.719l1.475 0.862-0.325-1.206c-0.212-0.8 0.263-1.625 1.063-1.837s1.625 0.263 1.837 1.063l1.106 4.131 3.831 2.231v-4.4l-3.063-3.056c-0.588-0.588-0.588-1.538 0-2.119s1.537-0.587 2.119 0l0.938 0.938v-1.881c0-1.106 0.894-2 2-2z"/>
</svg>
