<svg version="1.1" xmlns="http://www.w3.org/2000/svg" width="32" height="32" viewBox="0 0 32 32">
<path fill="currentColor" d="M21.319 8.787c-0.125 0.244-0.1 0.537 0.075 0.75 0.438 0.531 0.806 1.131 1.075 1.775l3.031-1.3v-2.513c0-0.831 0.669-1.5 1.5-1.5s1.5 0.669 1.5 1.5v1.225l1.406-0.606c0.762-0.325 1.644 0.025 1.969 0.787s-0.025 1.644-0.788 1.969l-8.1 3.469c-0.031 0.594-0.131 1.162-0.3 1.706-0.075 0.238-0.006 0.5 0.175 0.675 1.931 1.831 3.137 4.413 3.137 7.275 0 2.794-1.144 5.313-2.988 7.131-0.619 0.606-1.481 0.869-2.344 0.869h-9.338c-0.869 0-1.731-0.262-2.344-0.869-1.844-1.819-2.987-4.337-2.987-7.131 0-2.863 1.206-5.444 3.131-7.269 0.181-0.175 0.25-0.431 0.175-0.675-0.169-0.544-0.269-1.119-0.3-1.706l-8.1-3.469c-0.756-0.331-1.113-1.213-0.787-1.975s1.206-1.112 1.969-0.787l1.413 0.606v-1.225c0-0.831 0.669-1.5 1.5-1.5s1.5 0.669 1.5 1.5v2.513l3.037 1.3c0.269-0.644 0.631-1.244 1.075-1.775 0.175-0.213 0.206-0.506 0.075-0.75-0.438-0.838-0.688-1.781-0.688-2.787 0-3.313 2.688-6 6-6s6 2.688 6 6c0 1.006-0.25 1.95-0.681 2.787zM14 6c0.552 0 1-0.448 1-1s-0.448-1-1-1v0c-0.552 0-1 0.448-1 1s0.448 1 1 1v0zM17 14c0-0.552-0.448-1-1-1s-1 0.448-1 1v0c0 0.552 0.448 1 1 1s1-0.448 1-1v0zM16 19c0.552 0 1-0.448 1-1s-0.448-1-1-1v0c-0.552 0-1 0.448-1 1s0.448 1 1 1v0zM17 22c0-0.552-0.448-1-1-1s-1 0.448-1 1v0c0 0.552 0.448 1 1 1s1-0.448 1-1v0zM18 6c0.552 0 1-0.448 1-1s-0.448-1-1-1v0c-0.552 0-1 0.448-1 1s0.448 1 1 1v0zM15 7.5v0.2c0 0.2 0.050 0.394 0.144 0.562l0.563 1.056c0.056 0.106 0.169 0.175 0.294 0.175s0.238-0.069 0.294-0.175l0.563-1.056c0.094-0.175 0.144-0.369 0.144-0.563v-0.2c0-0.55-0.45-1-1-1s-1 0.45-1 1z"/>
</svg>
