<svg version="1.1" xmlns="http://www.w3.org/2000/svg" width="40" height="32" viewBox="0 0 40 32">
<path fill="currentColor" d="M18.681 4l4.288 10h-6.969l-4-4v-6h6.681zM27.819 15.169l-5.462-12.75c-0.631-1.462-2.075-2.419-3.675-2.419h-7.681c-1.656 0-3 1.344-3 3v7h-2c-1.106 0-2 0.894-2 2v6.675c-2.362 1.125-4 3.531-4 6.325 0 3.869 3.131 7 7 7h16c3.869 0 7-3.131 7-7 0-1.075-0.244-2.094-0.675-3h2.675v3.169c0 1.063 0.419 2.081 1.169 2.831l3.413 3.413c0.781 0.781 2.050 0.781 2.831 0s0.781-2.050 0-2.831l-3.413-3.413v-10.469l3.563-4.45c0.688-0.863 0.55-2.119-0.313-2.813s-2.119-0.55-2.813 0.313l-3.563 4.45c-0.569 0.706-0.875 1.588-0.875 2.5v3.3h-4v-1.956c0.006-0.15-0.012-0.3-0.038-0.444s-0.075-0.294-0.137-0.425zM23 22c1.656 0 3 1.344 3 3s-1.344 3-3 3h-16c-1.656 0-3-1.344-3-3s1.344-3 3-3h16zM9 25c0-0.828-0.672-1.5-1.5-1.5s-1.5 0.672-1.5 1.5v0c0 0.828 0.672 1.5 1.5 1.5s1.5-0.672 1.5-1.5v0zM22.5 26.5c0.828 0 1.5-0.672 1.5-1.5s-0.672-1.5-1.5-1.5v0c-0.828 0-1.5 0.672-1.5 1.5s0.672 1.5 1.5 1.5v0zM19 25c0-0.828-0.672-1.5-1.5-1.5s-1.5 0.672-1.5 1.5v0c0 0.828 0.672 1.5 1.5 1.5s1.5-0.672 1.5-1.5v0zM12.5 26.5c0.828 0 1.5-0.672 1.5-1.5s-0.672-1.5-1.5-1.5v0c-0.828 0-1.5 0.672-1.5 1.5s0.672 1.5 1.5 1.5v0z"/>
</svg>
