<svg version="1.1" xmlns="http://www.w3.org/2000/svg" width="32" height="32" viewBox="0 0 32 32">
<path fill="currentColor" d="M13 6c1.657 0 3-1.343 3-3s-1.343-3-3-3v0c-1.657 0-3 1.343-3 3s1.343 3 3 3v0zM20 16c2.209 0 4-1.791 4-4s-1.791-4-4-4v0c-2.209 0-4 1.791-4 4s1.791 4 4 4v0zM26 2c0-1.105-0.895-2-2-2s-2 0.895-2 2v0c0 1.105 0.895 2 2 2s2-0.895 2-2v0zM26 12c0 1.725-0.731 3.281-1.9 4.381 2.281 0.85 3.9 3.044 3.9 5.619 0 3.313-2.688 6-6 6h-12c-3.313 0-6-2.688-6-6s2.688-6 6-6h5.525c-0.95-1.063-1.525-2.463-1.525-4h-8c-3.313 0-6 2.688-6 6v8c0 3.313 2.688 6 6 6h20c3.313 0 6-2.688 6-6v-8c0-3.313-2.688-6-6-6zM10 18c-2.206 0-4 1.794-4 4s1.794 4 4 4h12c2.206 0 4-1.794 4-4s-1.794-4-4-4h-12z"/>
</svg>
