<svg version="1.1" xmlns="http://www.w3.org/2000/svg" width="32" height="32" viewBox="0 0 32 32">
<path fill="currentColor" d="M10.95 29.788c-0.606-1.125-0.95-2.419-0.95-3.788 0-2.519 1.188-4.887 3.2-6.4l4-3c0.506-0.375 0.8-0.969 0.8-1.6v-9h-10v9c0 1.256-0.594 2.444-1.6 3.2l-4 3c-1.512 1.131-2.4 2.913-2.4 4.8 0 3.313 2.688 6 6 6 1.3 0 2.563-0.419 3.6-1.2l1.35-1.012zM8 4h10v-1c0-0.906 0.244-1.762 0.669-2.494-0.481-0.319-1.050-0.506-1.669-0.506h-6c-1.656 0-3 1.344-3 3v1zM20 6v9c0 1.256-0.594 2.444-1.6 3.2l-4 3c-1.512 1.131-2.4 2.913-2.4 4.8 0 3.313 2.688 6 6 6 1.3 0 2.563-0.419 3.6-1.2l7.2-5.4c2.012-1.512 3.2-3.881 3.2-6.4v-13h-12zM32 4v-1c0-1.656-1.344-3-3-3h-6c-1.656 0-3 1.344-3 3v1h12z"/>
</svg>
