<svg version="1.1" xmlns="http://www.w3.org/2000/svg" width="40" height="32" viewBox="0 0 40 32">
<path fill="currentColor" d="M7.638 0c-1.906 0-3.544 1.344-3.919 3.212l-3.2 16c-0.494 2.475 1.394 4.788 3.919 4.788h13.563v4h-4c-1.106 0-2 0.894-2 2s0.894 2 2 2h12c1.106 0 2-0.894 2-2s-0.894-2-2-2h-4v-4h13.563c2.525 0 4.419-2.306 3.925-4.788l-3.2-16c-0.381-1.869-2.019-3.212-3.925-3.212h-24.725zM16.306 4h7.387l0.65 6.5h-8.688l0.65-6.5zM12.644 10.5h-6.306l1.3-6.5h5.65l-0.644 6.5zM5.737 13.5h6.606l-0.65 6.5h-7.256l1.3-6.5zM15.356 13.5h9.287l0.65 6.5h-10.588l0.65-6.5zM27.656 13.5h6.606l1.3 6.5h-7.25l-0.656-6.5zM33.656 10.5h-6.3l-0.65-6.5h5.65l1.962-0.394-1.956 0.394 1.3 6.5z"/>
</svg>
