<svg version="1.1" xmlns="http://www.w3.org/2000/svg" width="36" height="32" viewBox="0 0 36 32">
<path fill="currentColor" d="M11.444 14.706c2.106 1.294 3.931 3.006 5.362 5.031 0.438 0.619 0.837 1.269 1.194 1.938 0.356-0.675 0.756-1.319 1.194-1.938 1.431-2.025 3.256-3.738 5.363-5.031 2.794-1.719 6.075-2.706 9.569-2.706h0.619c0.694 0 1.256 0.563 1.256 1.256 0 9.25-7.494 16.744-16.744 16.744h-2.512c-9.25 0-16.744-7.494-16.744-16.744 0-0.694 0.563-1.256 1.256-1.256h0.619c3.494 0 6.775 0.988 9.569 2.706zM18.844 2.35c0.981 1.056 3.819 4.488 5.275 10.287-2.375 1.35-4.462 3.175-6.119 5.35-1.656-2.175-3.744-3.994-6.119-5.35 1.45-5.8 4.287-9.231 5.275-10.287 0.219-0.231 0.525-0.35 0.844-0.35s0.625 0.119 0.844 0.35z"/>
</svg>
