<svg version="1.1" xmlns="http://www.w3.org/2000/svg" width="40" height="32" viewBox="0 0 40 32">
<path fill="currentColor" d="M13 4c0-0.552-0.448-1-1-1s-1 0.448-1 1v0c0 0.552 0.448 1 1 1s1-0.448 1-1v0zM16 4c0 1.013-0.375 1.944-1 2.644l0.975 1.95c1.169-0.375 2.494-0.594 4.025-0.594s2.863 0.219 4.025 0.594l0.975-1.95c-0.625-0.7-1-1.631-1-2.644 0-2.206 1.794-4 4-4s4 1.794 4 4-1.794 4-4 4c-0.106 0-0.212-0.006-0.319-0.013l-0.944 1.888c1.319 0.85 2.356 1.887 3.212 2.9 0.444 0.519 0.844 1.037 1.206 1.5l0.087 0.113c0.394 0.506 0.725 0.925 1.044 1.275 0.669 0.731 1.006 0.837 1.212 0.837 0.156 0 0.269-0.038 0.444-0.206 0.231-0.219 0.444-0.55 0.781-1.088l0.038-0.056c0.288-0.463 0.688-1.1 1.212-1.606 0.606-0.581 1.431-1.044 2.525-1.044 0.831 0 1.5 0.669 1.5 1.5s-0.669 1.5-1.5 1.5c-0.156 0-0.269 0.037-0.444 0.206-0.231 0.219-0.444 0.55-0.781 1.087l-0.038 0.056c-0.288 0.462-0.688 1.1-1.212 1.606-0.606 0.581-1.431 1.044-2.525 1.044-1.156 0-2.056-0.531-2.769-1.163-0.194 0.25-0.413 0.519-0.656 0.794 0.087 0.269 0.175 0.531 0.25 0.781 0.056 0.188 0.113 0.363 0.163 0.538 0.188 0.613 0.344 1.137 0.538 1.619 0.244 0.613 0.462 0.962 0.675 1.156 0.163 0.15 0.369 0.269 0.8 0.269 0.544 0 1.056-0.262 2.106-0.825 0.938-0.5 2.231-1.175 3.894-1.175 0.831 0 1.5 0.669 1.5 1.5s-0.669 1.5-1.5 1.5c-0.837 0-1.544 0.325-2.481 0.825-0.063 0.038-0.131 0.069-0.2 0.106-0.825 0.45-1.981 1.075-3.319 1.075-1.15 0-2.1-0.381-2.844-1.075-0.694-0.644-1.119-1.481-1.419-2.25-0.225-0.563-0.419-1.194-0.594-1.781-1.025 0.769-2.256 1.475-3.681 1.956 0.225 0.675 0.525 1.469 0.9 2.262 0.469 0.994 1.012 1.9 1.613 2.531 0.587 0.637 1.1 0.856 1.525 0.856 0.831 0 1.5 0.669 1.5 1.5s-0.669 1.5-1.5 1.5c-1.575 0-2.813-0.844-3.719-1.8-0.906-0.962-1.606-2.181-2.137-3.313-0.5-1.063-0.881-2.113-1.144-2.931-0.325 0.025-0.663 0.038-1 0.038s-0.675-0.012-1-0.038c-0.262 0.813-0.644 1.869-1.144 2.931-0.531 1.131-1.238 2.35-2.137 3.313-0.906 0.956-2.144 1.8-3.719 1.8-0.831 0-1.5-0.669-1.5-1.5s0.669-1.5 1.5-1.5c0.425 0 0.938-0.219 1.531-0.856 0.594-0.631 1.144-1.538 1.613-2.531 0.369-0.788 0.669-1.587 0.9-2.262-1.425-0.481-2.656-1.188-3.681-1.956-0.181 0.587-0.375 1.219-0.594 1.781-0.3 0.762-0.725 1.6-1.419 2.25-0.75 0.694-1.7 1.075-2.85 1.075-1.338 0-2.494-0.625-3.319-1.069v0c-0.069-0.038-0.138-0.075-0.2-0.106-0.938-0.5-1.644-0.825-2.481-0.825-0.831 0-1.5-0.669-1.5-1.5s0.669-1.5 1.5-1.5c1.663 0 2.956 0.675 3.894 1.175 1.050 0.563 1.563 0.825 2.106 0.825 0.425 0 0.637-0.119 0.8-0.269 0.213-0.2 0.438-0.55 0.675-1.156 0.188-0.481 0.35-1.006 0.537-1.619 0.050-0.169 0.106-0.35 0.162-0.538 0.075-0.25 0.162-0.512 0.25-0.781-0.244-0.281-0.463-0.55-0.656-0.794-0.713 0.625-1.612 1.156-2.769 1.156-1.094 0-1.919-0.462-2.525-1.044-0.525-0.506-0.925-1.144-1.212-1.606l-0.038-0.056c-0.337-0.538-0.55-0.869-0.781-1.088-0.175-0.169-0.288-0.206-0.444-0.206-0.831 0-1.5-0.669-1.5-1.5s0.669-1.5 1.5-1.5c1.094 0 1.919 0.463 2.525 1.044 0.525 0.506 0.925 1.144 1.213 1.606l0.037 0.056c0.338 0.537 0.55 0.869 0.781 1.087 0.175 0.169 0.287 0.206 0.444 0.206 0.206 0 0.544-0.106 1.213-0.838 0.319-0.35 0.65-0.769 1.044-1.275l0.088-0.113c0.363-0.463 0.762-0.981 1.206-1.5 0.863-1.012 1.894-2.050 3.213-2.9l-0.944-1.888c-0.106 0.006-0.213 0.013-0.319 0.013-2.206 0-4-1.794-4-4s1.794-4 4-4 4 1.794 4 4zM29 4c0-0.552-0.448-1-1-1s-1 0.448-1 1v0c0 0.552 0.448 1 1 1s1-0.448 1-1v0z"/>
</svg>
