<svg version="1.1" xmlns="http://www.w3.org/2000/svg" width="36" height="32" viewBox="0 0 36 32">
<path fill="currentColor" d="M7 0c-0.806 0-1.537 0.487-1.844 1.231l-4.169 10-0.831 2c-0.425 1.019 0.056 2.188 1.075 2.613s2.188-0.056 2.612-1.075l0.325-0.769h5.669l0.319 0.769c0.425 1.019 1.594 1.5 2.612 1.075s1.5-1.594 1.075-2.613l-0.831-2-4.169-10c-0.306-0.744-1.037-1.231-1.844-1.231zM8.169 10h-2.338l1.169-2.8 1.169 2.8zM16 2v12c0 1.106 0.894 2 2 2h5c2.762 0 5-2.238 5-5 0-1.444-0.613-2.738-1.587-3.65 0.375-0.7 0.587-1.5 0.587-2.35 0-2.763-2.238-5-5-5h-4c-1.106 0-2 0.894-2 2zM22 6h-2v-2h2c0.55 0 1 0.45 1 1s-0.45 1-1 1zM20 10h3c0.55 0 1 0.45 1 1s-0.45 1-1 1h-3v-2zM35.413 19.413c0.781-0.781 0.781-2.050 0-2.831s-2.050-0.781-2.831 0l-10.581 10.588-4.588-4.587c-0.781-0.781-2.050-0.781-2.831 0s-0.781 2.050 0 2.831l6 6c0.781 0.781 2.050 0.781 2.831 0l12-12z"/>
</svg>
