<svg version="1.1" xmlns="http://www.w3.org/2000/svg" width="32" height="32" viewBox="0 0 32 32">
<path fill="currentColor" d="M9.9 2.038c0.3-0.775-0.088-1.644-0.863-1.938s-1.644 0.087-1.938 0.863l-2.031 5.287c-0.494 1.294-0.188 2.756 0.794 3.731l3.587 3.588-5.025-1.675c-0.15-0.050-0.269-0.169-0.319-0.319l-1.181-3.55c-0.263-0.787-1.113-1.213-1.9-0.95s-1.212 1.112-0.95 1.9l1.181 3.55c0.35 1.044 1.169 1.863 2.212 2.213l3.788 1.262-3.781 1.263c-1.044 0.35-1.863 1.169-2.212 2.212l-1.188 3.55c-0.263 0.788 0.163 1.637 0.95 1.9s1.637-0.163 1.9-0.95l1.181-3.55c0.050-0.15 0.169-0.269 0.319-0.319l5.025-1.675-3.594 3.587c-0.975 0.981-1.287 2.444-0.787 3.731l2.031 5.288c0.3 0.775 1.162 1.156 1.938 0.863s1.156-1.163 0.863-1.938l-2.031-5.287c-0.069-0.188-0.025-0.394 0.112-0.531l2.019-2.025c0.063 3.256 2.725 5.881 6 5.881s5.938-2.619 6-5.881l2.019 2.019c0.137 0.137 0.181 0.35 0.113 0.531l-2.031 5.287c-0.3 0.775 0.087 1.644 0.863 1.938s1.644-0.087 1.938-0.863l2.031-5.281c0.494-1.294 0.188-2.756-0.794-3.731l-3.587-3.587 5.025 1.675c0.15 0.050 0.269 0.169 0.319 0.319l1.181 3.55c0.262 0.788 1.113 1.212 1.9 0.95s1.212-1.113 0.95-1.9l-1.181-3.55c-0.35-1.044-1.169-1.863-2.212-2.212l-3.788-1.262 3.781-1.262c1.044-0.35 1.863-1.169 2.212-2.213l1.181-3.55c0.262-0.787-0.163-1.638-0.95-1.9s-1.637 0.162-1.9 0.95l-1.181 3.55c-0.050 0.15-0.169 0.269-0.319 0.319l-5.025 1.675 3.587-3.588c0.975-0.975 1.288-2.438 0.794-3.731l-2.025-5.287c-0.3-0.775-1.163-1.163-1.938-0.863s-1.156 1.163-0.863 1.938l2.031 5.287c0.069 0.188 0.025 0.394-0.113 0.531l-3.019 3.025v-0.881c0-1.988-1.163-3.706-2.844-4.513-0.569-0.275-1.156 0.206-1.156 0.838v0.675c0 0.55-0.45 1-1 1s-1-0.45-1-1v-0.675c0-0.631-0.588-1.106-1.156-0.838-1.681 0.806-2.844 2.525-2.844 4.513v0.881l-3.019-3.019c-0.138-0.138-0.181-0.35-0.112-0.531l2.031-5.287z"/>
</svg>
