<svg version="1.1" xmlns="http://www.w3.org/2000/svg" width="32" height="32" viewBox="0 0 32 32">
<path fill="currentColor" d="M19 3c0-1.657-1.343-3-3-3s-3 1.343-3 3v0c0 1.657 1.343 3 3 3s3-1.343 3-3v0zM19 29c0-1.657-1.343-3-3-3s-3 1.343-3 3v0c0 1.657 1.343 3 3 3s3-1.343 3-3v0zM3 19c1.657 0 3-1.343 3-3s-1.343-3-3-3v0c-1.657 0-3 1.343-3 3s1.343 3 3 3v0zM32 16c0-1.657-1.343-3-3-3s-3 1.343-3 3v0c0 1.657 1.343 3 3 3s3-1.343 3-3v0zM8.931 27.313c0.543-0.543 0.879-1.293 0.879-2.122 0-1.657-1.344-3.001-3.001-3.001-0.829 0-1.579 0.336-2.122 0.879v0c-0.543 0.543-0.879 1.293-0.879 2.122 0 1.657 1.343 3.001 3.001 3.001 0.829 0 1.579-0.336 2.122-0.879v0zM8.931 8.925c0.581-0.548 0.943-1.324 0.943-2.184 0-1.657-1.343-3-3-3-0.862 0-1.639 0.363-2.186 0.945l-0.001 0.002c-0.543 0.543-0.879 1.293-0.879 2.122 0 1.657 1.343 3.001 3.001 3.001 0.829 0 1.579-0.336 2.122-0.879v0zM23.069 27.313c0.543 0.543 1.293 0.879 2.122 0.879 1.657 0 3.001-1.343 3.001-3.001 0-0.829-0.336-1.579-0.879-2.122v0c-0.543-0.543-1.293-0.879-2.122-0.879-1.657 0-3.001 1.343-3.001 3.001 0 0.829 0.336 1.579 0.879 2.122v0z"/>
</svg>
