<svg version="1.1" xmlns="http://www.w3.org/2000/svg" width="32" height="32" viewBox="0 0 32 32">
<path fill="currentColor" d="M13.031 3.894l1.756-2.306c0.762-1 1.95-1.587 3.213-1.587 1.781 0 3.35 1.169 3.863 2.875l1.113 3.713c0.644 2.15 2.256 3.875 4.363 4.662l2.488 0.931c1.306 0.494 2.175 1.744 2.175 3.138 0 1.056-0.494 2.050-1.344 2.681l-4.206 3.156c-1.519 1.137-2.325 2.994-2.113 4.881l0.156 1.419c0.269 2.419-1.625 4.537-4.063 4.537-0.925 0-1.831-0.319-2.55-0.894l-3.463-2.769c-0.281-0.225-0.581-0.419-0.906-0.575-0.988-0.494-2.106-0.65-3.188-0.456l-5.175 0.944c-2.163 0.394-4.15-1.269-4.15-3.462 0-0.825 0.294-1.625 0.819-2.262l0.7-0.837c0.913-1.087 1.413-2.462 1.413-3.881 0-1.175-0.344-2.325-0.988-3.313l-2.394-3.644c-0.356-0.55-0.55-1.194-0.55-1.85 0-2.088 1.881-3.675 3.938-3.325l3.206 0.544c2.244 0.381 4.512-0.513 5.887-2.319z"/>
</svg>
