<svg version="1.1" xmlns="http://www.w3.org/2000/svg" width="32" height="32" viewBox="0 0 32 32">
<path fill="currentColor" d="M6 2v6h8v-6c0-1.106-0.894-2-2-2h-4c-1.106 0-2 0.894-2 2zM6 10c-3.313 0-6 2.688-6 6v13c0 1.656 1.344 3 3 3h14c1.656 0 3-1.344 3-3v-13c0-3.313-2.688-6-6-6h-8zM10 16c2.761 0 5 2.239 5 5s-2.239 5-5 5v0c-2.761 0-5-2.239-5-5s2.239-5 5-5v0zM24 3c0-0.087-0.063-0.188-0.137-0.225l-1.863-0.775-0.775-1.863c-0.038-0.075-0.137-0.138-0.225-0.138s-0.188 0.063-0.225 0.138l-0.775 1.863-1.863 0.775c-0.075 0.038-0.137 0.138-0.137 0.225s0.063 0.188 0.137 0.225l1.863 0.775 0.775 1.862c0.038 0.075 0.137 0.138 0.225 0.138s0.188-0.063 0.225-0.138l0.775-1.862 1.863-0.775c0.075-0.038 0.137-0.138 0.137-0.225zM28.775 5.862c0.038 0.075 0.137 0.138 0.225 0.138s0.188-0.063 0.225-0.138l0.775-1.862 1.863-0.775c0.075-0.038 0.137-0.138 0.137-0.225s-0.063-0.188-0.137-0.225l-1.863-0.775-0.775-1.863c-0.038-0.075-0.137-0.138-0.225-0.138s-0.188 0.063-0.225 0.138l-0.775 1.863-1.863 0.775c-0.075 0.038-0.137 0.138-0.137 0.225s0.063 0.188 0.137 0.225l1.863 0.775 0.775 1.862zM29.225 12.137c-0.038-0.075-0.137-0.137-0.225-0.137s-0.188 0.063-0.225 0.137l-0.775 1.863-1.863 0.775c-0.075 0.037-0.137 0.137-0.137 0.225s0.063 0.188 0.137 0.225l1.863 0.775 0.775 1.863c0.038 0.075 0.137 0.137 0.225 0.137s0.188-0.063 0.225-0.137l0.775-1.863 1.863-0.775c0.075-0.037 0.137-0.137 0.137-0.225s-0.063-0.188-0.137-0.225l-1.863-0.775-0.775-1.863zM28 9c0-0.088-0.063-0.188-0.137-0.225l-1.863-0.775-0.775-1.862c-0.038-0.075-0.137-0.138-0.225-0.138s-0.188 0.063-0.225 0.138l-0.775 1.862-1.863 0.775c-0.075 0.037-0.137 0.137-0.137 0.225s0.063 0.188 0.137 0.225l1.863 0.775 0.775 1.863c0.038 0.075 0.137 0.137 0.225 0.137s0.188-0.063 0.225-0.137l0.775-1.863 1.863-0.775c0.075-0.037 0.137-0.137 0.137-0.225z"/>
</svg>
