<svg version="1.1" xmlns="http://www.w3.org/2000/svg" width="28" height="32" viewBox="0 0 28 32">
<path fill="currentColor" d="M0 6c0-2.206 1.794-4 4-4h20c2.206 0 4 1.794 4 4v20c0 2.206-1.794 4-4 4h-20c-2.206 0-4-1.794-4-4v-20zM4.731 10.037c-0.431 0.119-0.731 0.512-0.731 0.963v10c0 0.55 0.45 1 1 1s1-0.45 1-1v-6.387l4.144 6.906c0.231 0.387 0.694 0.569 1.125 0.45s0.731-0.512 0.731-0.962v-10.006c0-0.55-0.45-1-1-1s-1 0.45-1 1v6.388l-4.144-6.9c-0.231-0.387-0.694-0.569-1.125-0.45zM14 11v10c0 0.55 0.45 1 1 1s1-0.45 1-1v-5h3c0.55 0 1-0.45 1-1s-0.45-1-1-1h-3v-2h3c0.55 0 1-0.45 1-1s-0.45-1-1-1h-4c-0.55 0-1 0.45-1 1zM24 11c0-0.55-0.45-1-1-1s-1 0.45-1 1v10c0 0.55 0.45 1 1 1s1-0.45 1-1v-10z"/>
</svg>
