<svg version="1.1" xmlns="http://www.w3.org/2000/svg" width="28" height="32" viewBox="0 0 28 32">
<path fill="currentColor" d="M4 2c-2.206 0-4 1.794-4 4v20c0 2.206 1.794 4 4 4h20c2.206 0 4-1.794 4-4v-20c0-2.206-1.794-4-4-4h-20zM24 10c0 2.206-1.794 4-4 4-0.962 0-1.844-0.338-2.538-0.906l-5.331 2.906 5.331 2.906c0.688-0.569 1.575-0.906 2.538-0.906 2.206 0 4 1.794 4 4s-1.794 4-4 4-4-1.794-4-4c0-0.156 0.006-0.306 0.025-0.456l-5.119-2.794c-0.731 0.769-1.762 1.25-2.906 1.25-2.206 0-4-1.794-4-4s1.794-4 4-4c1.144 0 2.175 0.481 2.906 1.25l5.119-2.794c-0.019-0.15-0.025-0.306-0.025-0.456 0-2.206 1.794-4 4-4s4 1.794 4 4z"/>
</svg>
