<svg version="1.1" xmlns="http://www.w3.org/2000/svg" width="28" height="32" viewBox="0 0 28 32">
<path fill="currentColor" d="M4 2c-2.206 0-4 1.794-4 4v20c0 2.206 1.794 4 4 4h20c2.206 0 4-1.794 4-4v-20c0-2.206-1.794-4-4-4h-20zM10 9c0-1.657 1.343-3 3-3s3 1.343 3 3v0c0 1.657-1.343 3-3 3s-3-1.343-3-3v0zM15 15.5c0-1.931 1.569-3.5 3.5-3.5s3.5 1.569 3.5 3.5v6.381c0 2.275-1.844 4.119-4.119 4.119-1.094 0-2.144-0.431-2.912-1.206l-3.419-3.419-1.756 3.519c-0.494 0.988-1.694 1.387-2.681 0.894s-1.388-1.694-0.894-2.681l3-6c0.287-0.575 0.831-0.975 1.469-1.081s1.281 0.106 1.738 0.563l2.575 2.581v-3.669z"/>
</svg>
