<svg version="1.1" xmlns="http://www.w3.org/2000/svg" width="28" height="32" viewBox="0 0 28 32">
<path fill="currentColor" d="M4 2c-2.206 0-4 1.794-4 4v20c0 2.206 1.794 4 4 4h20c2.206 0 4-1.794 4-4v-20c0-2.206-1.794-4-4-4h-20zM13.625 16.981l-9.613-6.206c0.112-1 0.956-1.775 1.987-1.775h16c1.031 0 1.875 0.775 1.988 1.775l-9.613 6.206c-0.113 0.075-0.244 0.113-0.375 0.113s-0.262-0.038-0.375-0.113zM15.463 18.663l8.537-5.512v7.85c0 1.106-0.894 2-2 2h-16c-1.106 0-2-0.894-2-2v-7.85l8.537 5.513c0.438 0.281 0.944 0.431 1.463 0.431s1.025-0.15 1.463-0.431z"/>
</svg>
