<svg version="1.1" xmlns="http://www.w3.org/2000/svg" width="28" height="32" viewBox="0 0 28 32">
<path fill="currentColor" d="M24 2c2.206 0 4 1.794 4 4v20c0 2.206-1.794 4-4 4h-20c-2.206 0-4-1.794-4-4v-20c0-2.206 1.794-4 4-4h20zM20 19.587v-8.588c0-0.55-0.45-1-1-1h-8.588c-0.781 0-1.412 0.631-1.412 1.412 0 0.375 0.15 0.738 0.412 1l2.088 2.088-4.144 4.144c-0.231 0.231-0.356 0.538-0.356 0.856s0.125 0.625 0.356 0.856l2.294 2.294c0.225 0.225 0.531 0.356 0.856 0.356s0.625-0.125 0.856-0.356l4.138-4.15 2.087 2.087c0.262 0.262 0.625 0.413 1 0.413 0.781 0 1.413-0.631 1.413-1.413z"/>
</svg>
