<svg version="1.1" xmlns="http://www.w3.org/2000/svg" width="28" height="32" viewBox="0 0 28 32">
<path fill="currentColor" d="M24 2c2.206 0 4 1.794 4 4v20c0 2.206-1.794 4-4 4h-20c-2.206 0-4-1.794-4-4v-20c0-2.206 1.794-4 4-4h20zM18.331 8.044c-0.606-0.162-1.244 0.144-1.481 0.725l-1.25 3c-0.213 0.512-0.063 1.1 0.363 1.45l1.538 1.262c-1.038 2.2-2.819 3.981-5.019 5.019l-1.262-1.544c-0.35-0.425-0.938-0.575-1.45-0.363l-3 1.25c-0.581 0.244-0.888 0.875-0.725 1.481l0.75 2.75c0.15 0.55 0.644 0.925 1.206 0.925 7.731 0 14-6.269 14-14 0-0.563-0.375-1.056-0.919-1.206l-2.75-0.75z"/>
</svg>
