<svg version="1.1" xmlns="http://www.w3.org/2000/svg" width="28" height="32" viewBox="0 0 28 32">
<path fill="currentColor" d="M4 2c-2.206 0-4 1.794-4 4v20c0 2.206 1.794 4 4 4h20c2.206 0 4-1.794 4-4v-20c0-2.206-1.794-4-4-4h-20zM13.988 5.856c0.831 0 1.5 0.669 1.5 1.5 0 1.831 2.212 2.744 3.506 1.45 0.587-0.588 1.538-0.588 2.119 0s0.587 1.537 0 2.119c-1.294 1.294-0.375 3.506 1.45 3.506 0.831 0 1.5 0.669 1.5 1.5s-0.669 1.5-1.5 1.5c-1.831 0-2.744 2.212-1.45 3.506 0.587 0.587 0.587 1.538 0 2.119s-1.538 0.587-2.119 0c-1.294-1.294-3.506-0.375-3.506 1.45 0 0.831-0.669 1.5-1.5 1.5s-1.5-0.669-1.5-1.5c0-1.831-2.213-2.744-3.506-1.45-0.588 0.587-1.537 0.587-2.119 0s-0.588-1.538 0-2.119c1.294-1.294 0.375-3.506-1.45-3.506-0.831 0-1.5-0.669-1.5-1.5s0.669-1.5 1.5-1.5c1.831 0 2.744-2.213 1.45-3.506-0.588-0.588-0.588-1.537 0-2.119s1.537-0.588 2.119 0c1.294 1.294 3.506 0.375 3.506-1.45 0-0.831 0.669-1.5 1.5-1.5zM12 16c1.105 0 2-0.895 2-2s-0.895-2-2-2v0c-1.105 0-2 0.895-2 2s0.895 2 2 2v0zM17.5 18c0-0.828-0.672-1.5-1.5-1.5s-1.5 0.672-1.5 1.5v0c0 0.828 0.672 1.5 1.5 1.5s1.5-0.672 1.5-1.5v0z"/>
</svg>
