<svg version="1.1" xmlns="http://www.w3.org/2000/svg" width="36" height="32" viewBox="0 0 36 32">
<path fill="currentColor" d="M17.663 4.881c0.5-1.706 2.063-2.881 3.837-2.881h12.5c1.106 0 2 0.894 2 2s-0.894 2-2 2h-12.5l-6.581 22.563c-0.225 0.769-0.881 1.325-1.675 1.425s-1.569-0.288-1.969-0.975l-6.425-11.012h-2.85c-1.106 0-2-0.894-2-2s0.894-2 2-2h2.85c1.425 0 2.737 0.756 3.456 1.988l4.075 6.988 5.281-18.094zM24.587 14.588c0.781-0.781 2.050-0.781 2.831 0l2.581 2.581 2.587-2.588c0.781-0.781 2.050-0.781 2.831 0s0.781 2.050 0 2.831l-2.587 2.587 2.587 2.587c0.781 0.781 0.781 2.050 0 2.831s-2.050 0.781-2.831 0l-2.587-2.587-2.587 2.587c-0.781 0.781-2.050 0.781-2.831 0s-0.781-2.050 0-2.831l2.587-2.587-2.587-2.587c-0.781-0.781-0.781-2.050 0-2.831z"/>
</svg>
