<svg version="1.1" xmlns="http://www.w3.org/2000/svg" width="28" height="32" viewBox="0 0 28 32">
<path fill="currentColor" d="M4 2c-2.206 0-4 1.794-4 4v20c0 2.206 1.794 4 4 4h20c2.206 0 4-1.794 4-4v-20c0-2.206-1.794-4-4-4h-20zM20.363 8.731l0.9 0.9c0.975 0.975 0.975 2.556 0 3.537l-1.337 1.338-4.438-4.438 1.337-1.338c0.975-0.975 2.556-0.975 3.538 0zM7.494 18.063l6.575-6.575 4.438 4.438-6.575 6.569c-0.256 0.256-0.575 0.438-0.931 0.525l-3.756 0.938c-0.344 0.087-0.7-0.012-0.95-0.262s-0.35-0.606-0.263-0.95l0.938-3.756c0.088-0.35 0.269-0.675 0.525-0.931z"/>
</svg>
