<svg version="1.1" xmlns="http://www.w3.org/2000/svg" width="28" height="32" viewBox="0 0 28 32">
<path fill="currentColor" d="M4 2c-2.206 0-4 1.794-4 4v20c0 2.206 1.794 4 4 4h20c2.206 0 4-1.794 4-4v-20c0-2.206-1.794-4-4-4h-20zM9.669 8.044c0.606-0.162 1.244 0.144 1.481 0.725l1.25 3c0.213 0.512 0.063 1.1-0.363 1.45l-1.537 1.262c1.037 2.2 2.819 3.981 5.019 5.019l1.262-1.544c0.35-0.425 0.938-0.575 1.45-0.363l3 1.25c0.581 0.244 0.887 0.875 0.725 1.481l-0.75 2.75c-0.15 0.55-0.644 0.925-1.206 0.925-7.731 0-14-6.269-14-14 0-0.563 0.375-1.056 0.919-1.206l2.75-0.75z"/>
</svg>
