<svg version="1.1" xmlns="http://www.w3.org/2000/svg" width="28" height="32" viewBox="0 0 28 32">
<path fill="currentColor" d="M4 2c-2.206 0-4 1.794-4 4v20c0 2.206 1.794 4 4 4h20c2.206 0 4-1.794 4-4v-20c0-2.206-1.794-4-4-4h-20zM6 8.5c0-0.831 0.669-1.5 1.5-1.5 8.563 0 15.5 6.938 15.5 15.5 0 0.831-0.669 1.5-1.5 1.5s-1.5-0.669-1.5-1.5c0-6.906-5.594-12.5-12.5-12.5-0.831 0-1.5-0.669-1.5-1.5zM6 14.5c0-0.831 0.669-1.5 1.5-1.5 5.244 0 9.5 4.256 9.5 9.5 0 0.831-0.669 1.5-1.5 1.5s-1.5-0.669-1.5-1.5c0-3.587-2.912-6.5-6.5-6.5-0.831 0-1.5-0.669-1.5-1.5zM6 22c0-1.105 0.895-2 2-2s2 0.895 2 2v0c0 1.105-0.895 2-2 2s-2-0.895-2-2v0z"/>
</svg>
