<svg version="1.1" xmlns="http://www.w3.org/2000/svg" width="32" height="32" viewBox="0 0 32 32">
<path fill="currentColor" d="M19.5 12.613c0-1.088 0.575-2.075 1.244-2.938 0.788-1.019 1.256-2.294 1.256-3.675 0-3.313-2.688-6-6-6s-6 2.688-6 6c0 1.381 0.469 2.656 1.256 3.675 0.669 0.863 1.244 1.85 1.244 2.938 0 1.869-1.519 3.387-3.387 3.387h-2.112c-3.869 0-7 3.131-7 7 0 1.306 0.838 2.419 2 2.831v3.169c0 1.656 1.344 3 3 3h22c1.656 0 3-1.344 3-3v-3.169c1.163-0.413 2-1.525 2-2.831 0-3.869-3.131-7-7-7h-2.113c-1.869 0-3.387-1.519-3.387-3.387zM26 26v2h-20v-2h20z"/>
</svg>
