<svg version="1.1" xmlns="http://www.w3.org/2000/svg" width="32" height="32" viewBox="0 0 32 32">
<path fill="currentColor" d="M13 2c0-1.106 0.894-2 2-2h2c1.106 0 2 0.894 2 2v8.806l7.625-4.4c0.956-0.55 2.181-0.225 2.731 0.731l1 1.731c0.55 0.956 0.225 2.181-0.731 2.731l-7.625 4.4 7.625 4.4c0.956 0.55 1.281 1.775 0.731 2.731l-1 1.731c-0.55 0.956-1.775 1.288-2.731 0.731l-7.625-4.4v8.806c0 1.106-0.894 2-2 2h-2c-1.106 0-2-0.894-2-2v-8.806l-7.625 4.406c-0.956 0.55-2.181 0.225-2.731-0.731l-1-1.731c-0.55-0.956-0.225-2.181 0.731-2.731l7.625-4.406-7.625-4.4c-0.956-0.55-1.281-1.775-0.731-2.731l1-1.731c0.55-0.963 1.775-1.288 2.731-0.737l7.625 4.4v-8.8z"/>
</svg>
