<svg version="1.1" xmlns="http://www.w3.org/2000/svg" width="32" height="32" viewBox="0 0 32 32">
<path fill="currentColor" d="M25.262 19.344l-1.319 2.156h2.644l-1.319-2.156zM23.212 16l-3.375-5.5h-7.675l-3.375 5.5 3.375 5.5h7.675l3.375-5.5zM27.319 16l3.337 5.438c0.225 0.369 0.344 0.794 0.344 1.225 0 1.294-1.050 2.337-2.337 2.337h-6.869l-3.512 5.719c-0.481 0.8-1.35 1.281-2.281 1.281s-1.8-0.481-2.287-1.281l-3.506-5.719h-6.869c-1.288 0-2.337-1.050-2.337-2.337 0-0.431 0.119-0.856 0.344-1.225l3.337-5.438-3.337-5.438c-0.225-0.369-0.344-0.794-0.344-1.225 0-1.287 1.050-2.338 2.337-2.338h6.869l3.512-5.719c0.481-0.8 1.35-1.281 2.281-1.281s1.8 0.481 2.288 1.281l3.506 5.719h6.869c1.294 0 2.337 1.050 2.337 2.338 0 0.431-0.119 0.856-0.344 1.225l-3.337 5.438zM23.944 10.5l1.319 2.156 1.325-2.156h-2.644zM17.688 7l-1.688-2.75-1.688 2.75h3.375zM8.056 10.5h-2.644l1.319 2.156 1.325-2.156zM6.737 19.344l-1.325 2.156h2.644l-1.319-2.156zM14.313 25l1.688 2.75 1.688-2.75h-3.375z"/>
</svg>
