<svg version="1.1" xmlns="http://www.w3.org/2000/svg" width="32" height="32" viewBox="0 0 32 32">
<path fill="currentColor" d="M0 16c0-8.838 7.162-16 16-16 2.063 0 4.038 0.394 5.85 1.106 0.462 0.181 0.719 0.669 0.613 1.15s-0.55 0.813-1.044 0.775c-0.3-0.019-0.606-0.031-0.913-0.031-7.181 0-13 5.819-13 13s5.819 13 13 13c0.306 0 0.613-0.012 0.913-0.031 0.494-0.031 0.938 0.294 1.044 0.775s-0.15 0.969-0.613 1.15c-1.813 0.712-3.788 1.106-5.85 1.106-8.838 0-16-7.162-16-16zM23.462 8.588c0.219-0.444 0.856-0.444 1.075 0l1.969 3.987c0.087 0.175 0.256 0.3 0.45 0.331l4.4 0.637c0.494 0.069 0.688 0.675 0.331 1.025l-3.181 3.1c-0.144 0.137-0.206 0.337-0.175 0.531l0.75 4.381c0.081 0.488-0.431 0.863-0.869 0.631l-3.938-2.069c-0.175-0.094-0.381-0.094-0.556 0l-3.938 2.069c-0.438 0.231-0.956-0.144-0.869-0.631l0.75-4.381c0.031-0.194-0.031-0.394-0.175-0.531l-3.175-3.1c-0.356-0.35-0.163-0.95 0.331-1.025l4.4-0.637c0.194-0.031 0.363-0.15 0.45-0.331l1.969-3.988z"/>
</svg>
