<svg version="1.1" xmlns="http://www.w3.org/2000/svg" width="36" height="32" viewBox="0 0 36 32">
<path fill="currentColor" d="M19.806 1.125c-0.331-0.688-1.031-1.125-1.8-1.125s-1.462 0.438-1.8 1.125l-4.019 8.269-8.975 1.325c-0.75 0.113-1.375 0.637-1.606 1.356s-0.044 1.512 0.494 2.044l6.513 6.444-1.537 9.106c-0.125 0.75 0.188 1.512 0.806 1.956s1.438 0.5 2.113 0.144l8.019-4.281 8.019 4.281c0.675 0.356 1.494 0.306 2.113-0.144s0.931-1.206 0.806-1.956l-1.544-9.106 6.513-6.444c0.538-0.531 0.731-1.325 0.494-2.044s-0.856-1.244-1.606-1.356l-8.981-1.325-4.019-8.269z"/>
</svg>
