<svg version="1.1" xmlns="http://www.w3.org/2000/svg" width="40" height="32" viewBox="0 0 40 32">
<path fill="currentColor" d="M20 23.525l0.006-0.006 6.975 3.725-1.031-6.1-0.3-1.794 1.294-1.281 4.381-4.331-7.837-1.156-0.806-1.662-2.675-5.487-0.006 0.019v18.075zM30.944 29.669c0.125 0.75-0.188 1.512-0.806 1.956s-1.438 0.5-2.113 0.144l-8.019-4.281-8.019 4.281c-0.675 0.356-1.494 0.3-2.113-0.144s-0.931-1.206-0.806-1.956l1.544-9.106-6.513-6.444c-0.538-0.531-0.731-1.325-0.494-2.044s0.856-1.244 1.606-1.356l8.975-1.325 4.025-8.269c0.337-0.688 1.031-1.125 1.8-1.125s1.462 0.438 1.8 1.125l4.019 8.269 8.975 1.325c0.75 0.113 1.375 0.637 1.606 1.356s0.044 1.512-0.494 2.044l-6.512 6.444 1.538 9.106z"/>
</svg>
