<svg version="1.1" xmlns="http://www.w3.org/2000/svg" width="36" height="32" viewBox="0 0 36 32">
<path fill="currentColor" d="M8.9 1.369c0.35 1.050-0.219 2.181-1.263 2.531l-1.638 0.544v7.556c0 3.313 2.688 6 6 6s6-2.688 6-6v-7.556l-1.631-0.544c-1.050-0.35-1.613-1.481-1.262-2.531s1.481-1.613 2.531-1.262l1.631 0.544c1.631 0.544 2.731 2.069 2.731 3.794v7.556c0 4.825-3.413 8.85-7.956 9.794 0.394 3.494 3.356 6.206 6.956 6.206 3.869 0 7-3.131 7-7v-4.419c-1.769-0.769-3-2.531-3-4.581 0-2.762 2.238-5 5-5s5 2.238 5 5c0 2.050-1.231 3.813-3 4.581v4.419c0 6.075-4.925 11-11 11-5.806 0-10.556-4.494-10.969-10.194-4.581-0.919-8.031-4.956-8.031-9.806v-7.556c0-1.719 1.1-3.25 2.737-3.794l1.631-0.544c1.050-0.35 2.181 0.219 2.531 1.262zM30 14c1.105 0 2-0.895 2-2s-0.895-2-2-2v0c-1.105 0-2 0.895-2 2s0.895 2 2 2v0z"/>
</svg>
