<svg version="1.1" xmlns="http://www.w3.org/2000/svg" width="28" height="32" viewBox="0 0 28 32">
<path fill="currentColor" d="M11 0c-1.106 0-2 0.894-2 2s0.894 2 2 2h1v2.15c-6.231 0.963-11 6.35-11 12.85 0 7.181 5.819 13 13 13s13-5.819 13-13c0-2.613-0.769-5.044-2.094-7.075l1.506-1.506c0.781-0.781 0.781-2.050 0-2.831s-2.050-0.781-2.831 0l-1.35 1.35c-1.756-1.438-3.887-2.425-6.231-2.787v-2.15h1c1.106 0 2-0.894 2-2s-0.894-2-2-2h-6zM15.5 12v8c0 0.831-0.669 1.5-1.5 1.5s-1.5-0.669-1.5-1.5v-8c0-0.831 0.669-1.5 1.5-1.5s1.5 0.669 1.5 1.5z"/>
</svg>
