<svg version="1.1" xmlns="http://www.w3.org/2000/svg" width="28" height="32" viewBox="0 0 28 32">
<path fill="currentColor" d="M11 0c-1.106 0-2 0.894-2 2s0.894 2 2 2h1v2.15c-6.231 0.963-11 6.35-11 12.85 0 7.181 5.819 13 13 13s13-5.819 13-13c0-2.613-0.769-5.044-2.094-7.075l1.506-1.506c0.781-0.781 0.781-2.050 0-2.831s-2.050-0.781-2.831 0l-1.35 1.35c-1.756-1.438-3.887-2.425-6.231-2.787v-2.15h1c1.106 0 2-0.894 2-2s-0.894-2-2-2h-6zM18 12.75c1.794 0 3.25 1.456 3.25 3.25v6c0 1.794-1.456 3.25-3.25 3.25s-3.25-1.456-3.25-3.25v-6c0-1.794 1.456-3.25 3.25-3.25zM17.25 16v6c0 0.413 0.337 0.75 0.75 0.75s0.75-0.337 0.75-0.75v-6c0-0.412-0.337-0.75-0.75-0.75s-0.75 0.338-0.75 0.75zM9.969 15.25c-0.338 0-0.637 0.219-0.744 0.537l-0.037 0.106c-0.219 0.656-0.925 1.006-1.581 0.787s-1.006-0.925-0.787-1.581l0.037-0.106c0.45-1.344 1.7-2.244 3.112-2.244 1.813 0 3.281 1.469 3.281 3.281v0.137c0 0.837-0.306 1.65-0.863 2.275l-2.438 2.744c-0.387 0.438-0.625 0.981-0.681 1.556h2.731c0.688 0 1.25 0.563 1.25 1.25s-0.563 1.25-1.25 1.25h-4c-0.688 0-1.25-0.563-1.25-1.25v-0.975c0-1.288 0.469-2.525 1.325-3.488l2.438-2.744c0.15-0.169 0.231-0.387 0.231-0.613v-0.137c0-0.431-0.35-0.781-0.781-0.781z"/>
</svg>
