<svg version="1.1" xmlns="http://www.w3.org/2000/svg" width="40" height="32" viewBox="0 0 40 32">
<path fill="currentColor" d="M2.425 0.319c-0.65-0.512-1.594-0.394-2.106 0.256s-0.394 1.594 0.256 2.106l37 29c0.65 0.513 1.594 0.394 2.106-0.256s0.394-1.594-0.256-2.106l-5.425-4.25v-9.281c-0.25 0.063-0.5 0.113-0.769 0.144h-0.006c-0.331 0.044-0.669 0.069-1.013 0.069-0.775 0-1.519-0.119-2.212-0.331v6.263l-11.175-8.762c0.438-0.275 0.831-0.606 1.175-0.981 0.994 1.1 2.444 1.813 4.075 1.813 1.637 0 3.081-0.713 4.075-1.813 1 1.1 2.444 1.813 4.075 1.813 0.256 0 0.506-0.019 0.756-0.050 3.469-0.463 5.112-4.531 3.256-7.463l-3.594-5.669c-0.319-0.506-0.887-0.819-1.494-0.819h-22.3c-0.606 0-1.175 0.313-1.494 0.819l-1.419 2.25-3.513-2.75zM7.013 13.95c0.25 0.031 0.506 0.050 0.756 0.050 0.688 0 1.337-0.125 1.938-0.35l-6.65-5.244c-0.381 2.537 1.219 5.175 3.956 5.544zM10 24v-8.338c-0.7 0.219-1.45 0.338-2.225 0.338-0.344 0-0.688-0.025-1.019-0.069h-0.006c-0.256-0.037-0.506-0.081-0.75-0.144v12.213c0 2.206 1.794 4 4 4h20c0.806 0 1.55-0.238 2.181-0.644l-9.337-7.356h-12.844z"/>
</svg>
