<svg version="1.1" xmlns="http://www.w3.org/2000/svg" width="36" height="32" viewBox="0 0 36 32">
<path fill="currentColor" d="M34.225 6.487l-3.581-5.669c-0.319-0.506-0.887-0.819-1.494-0.819h-22.3c-0.606 0-1.175 0.313-1.494 0.819l-3.587 5.669c-1.85 2.925-0.212 6.994 3.244 7.462 0.25 0.031 0.506 0.050 0.756 0.050 1.631 0 3.081-0.713 4.075-1.813 0.994 1.1 2.444 1.813 4.075 1.813s3.081-0.713 4.075-1.813c0.994 1.1 2.444 1.813 4.075 1.813 1.637 0 3.081-0.713 4.075-1.813 1 1.1 2.444 1.813 4.075 1.813 0.256 0 0.506-0.019 0.756-0.050 3.469-0.463 5.113-4.531 3.256-7.463zM31.231 15.931h-0.006c-0.331 0.044-0.669 0.069-1.012 0.069-0.775 0-1.519-0.119-2.212-0.331v8.331h-20v-8.338c-0.7 0.219-1.45 0.338-2.225 0.338-0.344 0-0.688-0.025-1.019-0.069h-0.006c-0.256-0.037-0.506-0.081-0.75-0.144v12.213c0 2.206 1.794 4 4 4h20c2.206 0 4-1.794 4-4v-12.213c-0.25 0.063-0.5 0.113-0.769 0.144z"/>
</svg>
