<svg version="1.1" xmlns="http://www.w3.org/2000/svg" width="32" height="32" viewBox="0 0 32 32">
<path fill="currentColor" d="M20 4c0-2.209-1.791-4-4-4s-4 1.791-4 4v0c0 2.209 1.791 4 4 4s4-1.791 4-4v0zM14 10c-2.206 0-4 1.794-4 4v3c0 1.106 0.894 2 2 2h0.113l0.694 6.219c0.113 1.012 0.969 1.781 1.988 1.781h2.419c1.019 0 1.875-0.769 1.988-1.781l0.688-6.219h0.113c1.106 0 2-0.894 2-2v-3c0-2.206-1.794-4-4-4h-4zM8.269 24.637c0.813-0.15 1.356-0.931 1.206-1.744s-0.931-1.356-1.744-1.206c-2.025 0.369-3.806 0.887-5.125 1.55-0.656 0.331-1.269 0.731-1.738 1.225-0.469 0.506-0.869 1.194-0.869 2.038 0 1.337 0.969 2.256 1.819 2.813 0.919 0.6 2.144 1.081 3.525 1.462 2.794 0.769 6.556 1.225 10.656 1.225s7.863-0.456 10.65-1.225c1.381-0.381 2.613-0.863 3.525-1.462 0.856-0.556 1.819-1.475 1.819-2.813 0-0.844-0.4-1.531-0.875-2.038-0.469-0.494-1.081-0.894-1.738-1.225-1.313-0.663-3.094-1.181-5.125-1.55-0.813-0.15-1.594 0.394-1.744 1.206s0.394 1.594 1.206 1.744c1.887 0.344 3.356 0.8 4.313 1.281 0.2 0.1 0.363 0.194 0.494 0.281 0.225 0.15 0.225 0.45 0 0.6-0.55 0.356-1.444 0.738-2.688 1.081-2.444 0.681-5.931 1.119-9.838 1.119s-7.394-0.438-9.856-1.119c-1.244-0.344-2.138-0.725-2.688-1.081-0.225-0.15-0.225-0.45 0-0.6 0.131-0.087 0.3-0.181 0.494-0.281 0.956-0.481 2.425-0.931 4.313-1.281z"/>
</svg>
