<svg version="1.1" xmlns="http://www.w3.org/2000/svg" width="32" height="32" viewBox="0 0 32 32">
<path fill="currentColor" d="M10.081 9c0.2-1.075 0.875-1.881 2.106-2.412 1.319-0.563 3.238-0.769 5.538-0.406 0.744 0.119 3.050 0.569 3.756 0.75 1.069 0.281 2.163-0.35 2.45-1.419s-0.35-2.163-1.419-2.45c-0.894-0.237-3.35-0.712-4.163-0.837-2.794-0.438-5.519-0.262-7.731 0.681-2.281 0.975-4.025 2.8-4.487 5.456-0.006 0.037-0.013 0.069-0.013 0.106-0.175 1.494 0.031 2.85 0.631 4.037 0.281 0.563 0.638 1.056 1.044 1.494h-5.794c-1.106 0-2 0.894-2 2s0.894 2 2 2h28c1.106 0 2-0.894 2-2s-0.894-2-2-2h-13.119c-0.006 0-0.019-0.006-0.025-0.006l-0.069-0.019c-2.25-0.675-4.075-1.225-5.325-2.069-0.581-0.394-0.938-0.787-1.137-1.194-0.194-0.381-0.325-0.912-0.238-1.713zM21.806 21.075c0.169 0.406 0.275 0.988 0.119 1.881-0.188 1.1-0.863 1.925-2.119 2.462-1.319 0.563-3.231 0.769-5.531 0.406-1.125-0.181-3.069-0.844-4.65-1.381-0.35-0.119-0.688-0.231-0.994-0.337-1.050-0.35-2.181 0.219-2.531 1.269s0.219 2.181 1.269 2.531c0.225 0.075 0.494 0.169 0.794 0.269v0 0c1.556 0.531 3.975 1.356 5.475 1.6v0h0.012c2.794 0.438 5.519 0.262 7.731-0.681 2.281-0.975 4.025-2.8 4.488-5.456 0.225-1.313 0.169-2.525-0.194-3.631h-4.731c0.438 0.35 0.712 0.7 0.869 1.075z"/>
</svg>
