<svg version="1.1" xmlns="http://www.w3.org/2000/svg" width="32" height="32" viewBox="0 0 32 32">
<path fill="currentColor" d="M0 16c0-8.837 7.163-16 16-16s16 7.163 16 16v0c0 8.837-7.163 16-16 16s-16-7.163-16-16v0zM19.538 3.981c-0.387-0.388-1.025-0.388-1.413 0l-2.125 2.119-2.119-2.119c-0.387-0.388-1.025-0.388-1.412 0s-0.387 1.025 0 1.413l2.119 2.119-2.831 2.831-3.537-3.537c-0.388-0.388-1.025-0.388-1.412 0s-0.388 1.025 0 1.412l3.537 3.537-2.831 2.831-2.119-2.125c-0.388-0.387-1.025-0.387-1.413 0s-0.388 1.025 0 1.412l2.119 2.125-2.119 2.119c-0.388 0.387-0.388 1.025 0 1.413s1.025 0.387 1.413 0l2.119-2.119 2.831 2.831-3.537 3.538c-0.388 0.387-0.388 1.025 0 1.413s1.025 0.387 1.412 0l3.537-3.538 2.831 2.831-2.119 2.119c-0.387 0.387-0.387 1.025 0 1.413s1.025 0.387 1.412 0l2.119-2.119 2.119 2.119c0.387 0.387 1.025 0.387 1.413 0s0.387-1.025 0-1.413l-2.119-2.119 2.831-2.831 3.538 3.538c0.387 0.387 1.025 0.387 1.413 0s0.387-1.025 0-1.413l-3.538-3.538 2.831-2.831 2.119 2.119c0.387 0.387 1.025 0.387 1.413 0s0.387-1.025 0-1.413l-2.119-2.119 2.119-2.119c0.387-0.387 0.387-1.025 0-1.412s-1.025-0.387-1.413 0l-2.119 2.119-2.831-2.831 3.538-3.537c0.387-0.388 0.387-1.025 0-1.412s-1.025-0.388-1.413 0l-3.538 3.537-2.831-2.831 2.119-2.119c0.387-0.388 0.387-1.025 0-1.413zM8.931 16l2.831-2.831 2.825 2.831-2.831 2.831-2.825-2.831zM13.175 20.244l2.825-2.831 2.831 2.831-2.831 2.825-2.831-2.831zM17.413 16l2.831-2.831 2.825 2.831-2.831 2.831-2.825-2.831zM18.825 11.756l-2.825 2.831-2.831-2.831 2.831-2.825 2.831 2.831z"/>
</svg>
