<svg version="1.1" xmlns="http://www.w3.org/2000/svg" width="32" height="32" viewBox="0 0 32 32">
<path fill="currentColor" d="M2 4c-1.106 0-2 0.894-2 2s0.894 2 2 2h0.956l5.6 8-5.6 8h-0.956c-1.106 0-2 0.894-2 2s0.894 2 2 2h2c0.65 0 1.263-0.319 1.638-0.85l5.363-7.663 5.363 7.663c0.375 0.538 0.988 0.85 1.637 0.85h2c1.106 0 2-0.894 2-2s-0.894-2-2-2h-0.956l-5.6-8 5.6-8h0.956c1.106 0 2-0.894 2-2s-0.894-2-2-2h-2c-0.65 0-1.262 0.319-1.637 0.85l-5.363 7.662-5.362-7.662c-0.375-0.531-0.987-0.85-1.638-0.85h-2zM30 20c0-0.694-0.356-1.337-0.95-1.7s-1.325-0.4-1.944-0.087l-2 1c-0.988 0.494-1.387 1.694-0.894 2.681 0.35 0.7 1.056 1.106 1.788 1.106v5c-1.106 0-2 0.894-2 2s0.894 2 2 2h4c1.106 0 2-0.894 2-2s-0.894-2-2-2v-8z"/>
</svg>
