<svg version="1.1" xmlns="http://www.w3.org/2000/svg" width="24" height="32" viewBox="0 0 24 32">
<path fill="currentColor" d="M9 3.5c0-0.275 0.225-0.5 0.5-0.5h5c0.275 0 0.5 0.225 0.5 0.5v4.5h-6v-4.5zM20 8h-2v-4.5c0-1.931-1.569-3.5-3.5-3.5h-5c-1.931 0-3.5 1.569-3.5 3.5v4.5h-2c-2.206 0-4 1.794-4 4v14c0 2.206 1.794 4 4 4 0 1.106 0.894 2 2 2s2-0.894 2-2h8c0 1.106 0.894 2 2 2s2-0.894 2-2c2.206 0 4-1.794 4-4v-14c0-2.206-1.794-4-4-4zM7 14h10c0.55 0 1 0.45 1 1s-0.45 1-1 1h-10c-0.55 0-1-0.45-1-1s0.45-1 1-1zM7 22h10c0.55 0 1 0.45 1 1s-0.45 1-1 1h-10c-0.55 0-1-0.45-1-1s0.45-1 1-1z"/>
</svg>
