<svg version="1.1" xmlns="http://www.w3.org/2000/svg" width="40" height="32" viewBox="0 0 40 32">
<path fill="currentColor" d="M10 0c-0.394 0-0.75 0.231-0.912 0.594l-1.55 3.463-3.544-1.356c-0.369-0.144-0.788-0.050-1.063 0.225s-0.369 0.694-0.225 1.063l1.356 3.544-3.469 1.556c-0.362 0.162-0.594 0.519-0.594 0.912s0.231 0.75 0.594 0.912l3.463 1.55-1.356 3.544c-0.144 0.369-0.050 0.788 0.225 1.063s0.694 0.369 1.063 0.225l3.544-1.356 1.55 3.462c0.162 0.363 0.519 0.594 0.912 0.594s0.75-0.231 0.912-0.594l1.55-3.463 3.544 1.356c0.369 0.144 0.788 0.050 1.063-0.225s0.369-0.694 0.225-1.063l-1.356-3.544 3.462-1.55c0.363-0.162 0.594-0.519 0.594-0.912s-0.231-0.75-0.594-0.912l-3.463-1.55 1.356-3.544c0.144-0.369 0.050-0.788-0.225-1.063s-0.694-0.369-1.063-0.225l-3.537 1.35-1.55-3.462c-0.162-0.362-0.519-0.594-0.912-0.594zM10 6c2.209 0 4 1.791 4 4s-1.791 4-4 4v0c-2.209 0-4-1.791-4-4s1.791-4 4-4v0zM12 10c0-1.105-0.895-2-2-2s-2 0.895-2 2v0c0 1.105 0.895 2 2 2s2-0.895 2-2v0zM31.5 11c0-1.106 0.894-2 2-2s2 0.894 2 2v3.338c-0.925 0.481-1.5 1.444-1.5 2.787 0 1.050 1 2.75 2.337 4.2 0.362 0.387 0.969 0.387 1.325 0 1.337-1.45 2.337-3.156 2.337-4.2 0-1.344-0.575-2.313-1.5-2.787v-3.338c0-2.762-2.237-5-5-5s-5 2.238-5 5v1.419c-0.613-0.269-1.288-0.419-2-0.419-2.762 0-5 2.238-5 5v1.337c-0.925 0.481-1.5 1.444-1.5 2.788 0 1.050 1 2.75 2.337 4.2 0.363 0.387 0.969 0.387 1.325 0 1.337-1.45 2.337-3.156 2.337-4.2 0-1.344-0.575-2.313-1.5-2.788v-1.337c0-1.106 0.894-2 2-2s2 0.894 2 2v11h-26.5c-1.106 0-2 0.894-2 2s0.894 2 2 2h36c1.106 0 2-0.894 2-2s-0.894-2-2-2h-6.5v-17z"/>
</svg>
