<svg version="1.1" xmlns="http://www.w3.org/2000/svg" width="32" height="32" viewBox="0 0 32 32">
<path fill="currentColor" d="M22.594 0.075c0.313 0.131 0.538 0.412 0.6 0.744l1.244 6.744 6.744 1.238c0.331 0.063 0.613 0.287 0.744 0.6s0.094 0.669-0.1 0.95l-3.894 5.65 3.894 5.644c0.194 0.281 0.231 0.637 0.1 0.95s-0.413 0.538-0.744 0.6l-6.744 1.244-1.244 6.744c-0.063 0.331-0.288 0.613-0.6 0.744s-0.669 0.094-0.95-0.1l-5.644-3.894-5.644 3.894c-0.281 0.194-0.637 0.231-0.95 0.1s-0.537-0.413-0.6-0.744l-1.244-6.744-6.744-1.244c-0.331-0.063-0.613-0.288-0.744-0.6s-0.094-0.669 0.1-0.95l3.894-5.644-3.894-5.644c-0.194-0.281-0.231-0.637-0.1-0.95s0.412-0.537 0.744-0.6l6.744-1.244 1.244-6.744c0.063-0.331 0.287-0.613 0.6-0.744s0.669-0.094 0.95 0.1l5.644 3.894 5.644-3.894c0.281-0.194 0.637-0.231 0.95-0.1zM10 16c0-3.314 2.686-6 6-6s6 2.686 6 6v0c0 3.314-2.686 6-6 6s-6-2.686-6-6v0zM24 16c0-4.418-3.582-8-8-8s-8 3.582-8 8v0c0 4.418 3.582 8 8 8s8-3.582 8-8v0z"/>
</svg>
