<svg version="1.1" xmlns="http://www.w3.org/2000/svg" width="32" height="32" viewBox="0 0 32 32">
<path fill="currentColor" d="M0 2c0-1.106 0.894-2 2-2h8c1.106 0 2 0.894 2 2v24c0 3.313-2.688 6-6 6s-6-2.688-6-6v-24zM13.975 26.619c0.019-0.206 0.025-0.413 0.025-0.619v-16.375l4.712-4.713c0.781-0.781 2.050-0.781 2.831 0l5.656 5.656c0.781 0.781 0.781 2.050 0 2.831l-13.225 13.219zM11.425 32l12-12h6.575c1.106 0 2 0.894 2 2v8c0 1.106-0.894 2-2 2h-18.575zM8 4h-4v4h4v-4zM4 12v4h4v-4h-4zM6 27.5c0.828 0 1.5-0.672 1.5-1.5s-0.672-1.5-1.5-1.5v0c-0.828 0-1.5 0.672-1.5 1.5s0.672 1.5 1.5 1.5v0z"/>
</svg>
