<svg version="1.1" xmlns="http://www.w3.org/2000/svg" width="32" height="32" viewBox="0 0 32 32">
<path fill="currentColor" d="M27.563 0.438l4 4c0.587 0.588 0.587 1.537 0 2.119s-1.538 0.588-2.119 0l-0.938-0.938-2.387 2.381 3.438 3.438c0.587 0.588 0.587 1.537 0 2.119s-1.538 0.588-2.119 0l-9-8.994c-0.587-0.587-0.587-1.538 0-2.119s1.538-0.587 2.119 0l3.438 3.437 2.387-2.381-0.944-0.938c-0.587-0.587-0.587-1.538 0-2.119s1.538-0.588 2.119 0zM13.144 9.731l3.819-3.819c0.019 0.019 0.038 0.044 0.063 0.063l9 9c0.019 0.019 0.038 0.037 0.063 0.063l-11.938 11.938c-0.656 0.656-1.544 1.025-2.475 1.025h-5.556l-3.556 3.563c-0.587 0.587-1.538 0.587-2.119 0s-0.588-1.538 0-2.119l3.563-3.563v-5.55c0-0.931 0.369-1.819 1.025-2.475l2.706-2.706 3.562 3.563c0.387 0.387 1.025 0.387 1.412 0s0.387-1.025 0-1.413l-3.563-3.563 2.588-2.588 3.563 3.563c0.387 0.387 1.025 0.387 1.413 0s0.387-1.025 0-1.412l-3.563-3.563z"/>
</svg>
