<svg version="1.1" xmlns="http://www.w3.org/2000/svg" width="40" height="32" viewBox="0 0 40 32">
<path fill="currentColor" d="M30 18c-3.131 0-5.85 1.8-7.163 4.425l-14.531-14.531 3.794-3.794c5.469-5.469 14.331-5.469 19.8 0 4.194 4.194 5.169 10.394 2.925 15.519-1.337-1.019-3.012-1.619-4.825-1.619zM7.081 9.494l15.050 15.050c-0.087 0.469-0.131 0.956-0.131 1.456 0 1.45 0.387 2.806 1.056 3.981-0.188 0.012-0.381 0.019-0.575 0.019h-0.169c-2.119 0-4.156-0.844-5.656-2.344l-0.613-0.613c-0.819-0.819-2.162-0.775-2.925 0.106l-3.606 4.162c-0.363 0.419-0.887 0.669-1.438 0.688s-1.094-0.194-1.487-0.587l-2-2c-0.394-0.394-0.606-0.931-0.587-1.488s0.269-1.075 0.688-1.438l4.162-3.606c0.875-0.762 0.925-2.106 0.106-2.925l-0.613-0.613c-1.5-1.5-2.344-3.537-2.344-5.656v-0.169c0-1.425 0.381-2.806 1.081-4.019zM30 20c3.314 0 6 2.686 6 6s-2.686 6-6 6v0c-3.314 0-6-2.686-6-6s2.686-6 6-6v0z"/>
</svg>
