<svg version="1.1" xmlns="http://www.w3.org/2000/svg" width="40" height="32" viewBox="0 0 40 32">
<path fill="currentColor" d="M38.394 15.438c1.019-1.563 1.606-3.431 1.606-5.438 0-5.525-4.475-10-10-10-2.006 0-3.869 0.588-5.438 1.606-0.494 0.325-0.531 1.012-0.113 1.431l12.512 12.512c0.419 0.419 1.112 0.387 1.431-0.113zM35.438 18.394c0.494-0.325 0.531-1.012 0.112-1.431l-12.512-12.512c-0.419-0.419-1.113-0.388-1.431 0.112-1.019 1.563-1.606 3.431-1.606 5.438 0 5.525 4.475 10 10 10 2.006 0 3.869-0.587 5.438-1.606zM18.844 23h-17.688c-0.594 0-1.056 0.512-0.938 1.094 0.962 4.519 4.975 7.906 9.781 7.906s8.819-3.387 9.781-7.906c0.125-0.581-0.344-1.094-0.938-1.094zM18.844 21c0.594 0 1.056-0.512 0.938-1.094-0.962-4.519-4.975-7.906-9.781-7.906s-8.819 3.387-9.781 7.906c-0.125 0.581 0.344 1.094 0.938 1.094h17.688z"/>
</svg>
