<svg version="1.1" xmlns="http://www.w3.org/2000/svg" width="40" height="32" viewBox="0 0 40 32">
<path fill="currentColor" d="M4 4c-2.206 0-4 1.794-4 4v16c0 2.206 1.794 4 4 4h32c2.206 0 4-1.794 4-4v-16c0-2.206-1.794-4-4-4h-32zM6 8h14c1.106 0 2 0.894 2 2v4c0 1.106-0.894 2-2 2h-14c-1.106 0-2-0.894-2-2v-4c0-1.106 0.894-2 2-2zM4 23c0-0.55 0.45-1 1-1h16c0.55 0 1 0.45 1 1s-0.45 1-1 1h-16c-0.55 0-1-0.45-1-1zM24 23c0-0.55 0.45-1 1-1h10c0.55 0 1 0.45 1 1s-0.45 1-1 1h-10c-0.55 0-1-0.45-1-1zM5 18c0.552 0 1 0.448 1 1s-0.448 1-1 1v0c-0.552 0-1-0.448-1-1s0.448-1 1-1v0zM8 19c0-0.552 0.448-1 1-1s1 0.448 1 1v0c0 0.552-0.448 1-1 1s-1-0.448-1-1v0zM13 18c0.552 0 1 0.448 1 1s-0.448 1-1 1v0c-0.552 0-1-0.448-1-1s0.448-1 1-1v0zM16 19c0-0.552 0.448-1 1-1s1 0.448 1 1v0c0 0.552-0.448 1-1 1s-1-0.448-1-1v0zM21 18c0.552 0 1 0.448 1 1s-0.448 1-1 1v0c-0.552 0-1-0.448-1-1s0.448-1 1-1v0z"/>
</svg>
