<svg version="1.1" xmlns="http://www.w3.org/2000/svg" width="36" height="32" viewBox="0 0 36 32">
<path fill="currentColor" d="M18 10c-2.206 0-4-1.681-4-3.75 0-1.5 2.106-4.381 3.262-5.844 0.381-0.481 1.094-0.481 1.475 0 1.156 1.462 3.262 4.344 3.262 5.844 0 2.069-1.794 3.75-4 3.75zM4 8h8.344c0.825 2.331 3.044 4 5.656 4s4.837-1.669 5.656-4h8.344c2.206 0 4 1.794 4 4v10h-8c-1.106 0-2 0.894-2 2v8h-22c-2.206 0-4-1.794-4-4v-16c0-2.206 1.794-4 4-4zM28 32v-8h8l-8 8zM6 16c1.105 0 2-0.895 2-2s-0.895-2-2-2v0c-1.105 0-2 0.895-2 2s0.895 2 2 2v0z"/>
</svg>
