<svg version="1.1" xmlns="http://www.w3.org/2000/svg" width="32" height="32" viewBox="0 0 32 32">
<path fill="currentColor" d="M12 0c-1.106 0-2 0.894-2 2v2c0 0.006 0 0.006 0 0.013-2.412 0.138-4.519 1.706-5.325 4.006l-2.2 6.281c-1.45 0.6-2.475 2.031-2.475 3.7v12c0 1.106 0.894 2 2 2h2c1.106 0 2-0.894 2-2v-3h20v3c0 1.106 0.894 2 2 2h2c1.106 0 2-0.894 2-2v-12c0-1.669-1.025-3.1-2.475-3.7l-2.2-6.281c-0.806-2.3-2.913-3.875-5.325-4.006 0-0.006 0-0.006 0-0.013v-2c0-1.106-0.894-2-2-2h-8zM10.338 8h11.325c0.85 0 1.606 0.537 1.887 1.338l1.631 4.662h-18.363l1.631-4.662c0.281-0.8 1.037-1.338 1.887-1.338zM6 18c1.105 0 2 0.895 2 2s-0.895 2-2 2v0c-1.105 0-2-0.895-2-2s0.895-2 2-2v0zM24 20c0-1.105 0.895-2 2-2s2 0.895 2 2v0c0 1.105-0.895 2-2 2s-2-0.895-2-2v0z"/>
</svg>
