<svg version="1.1" xmlns="http://www.w3.org/2000/svg" width="36" height="32" viewBox="0 0 36 32">
<path fill="currentColor" d="M6 2c-3.313 0-6 2.688-6 6v4c0 2.206 1.794 4 4 4h28c2.206 0 4-1.794 4-4v-4c0-3.313-2.688-6-6-6h-24zM14 6c1.656 0 3 1.344 3 3v3.5c0 0.831-0.669 1.5-1.5 1.5h-3c-0.831 0-1.5-0.669-1.5-1.5v-3.5c0-1.656 1.344-3 3-3zM19 9c0-1.656 1.344-3 3-3s3 1.344 3 3v3.5c0 0.831-0.669 1.5-1.5 1.5h-3c-0.831 0-1.5-0.669-1.5-1.5v-3.5zM6 8c1.656 0 3 1.344 3 3v1.5c0 0.831-0.669 1.5-1.5 1.5h-3c-0.831 0-1.5-0.669-1.5-1.5v-1.5c0-1.656 1.344-3 3-3zM27 11c0-1.656 1.344-3 3-3s3 1.344 3 3v1.5c0 0.831-0.669 1.5-1.5 1.5h-3c-0.831 0-1.5-0.669-1.5-1.5v-1.5zM6 30h24c3.313 0 6-2.688 6-6v-2c0-2.206-1.794-4-4-4h-28c-2.206 0-4 1.794-4 4v2c0 3.313 2.688 6 6 6zM6 26c-1.656 0-3-1.344-3-3v-1.5c0-0.831 0.669-1.5 1.5-1.5h3c0.831 0 1.5 0.669 1.5 1.5v1.5c0 1.656-1.344 3-3 3zM11 23v-1.5c0-0.831 0.669-1.5 1.5-1.5h3c0.831 0 1.5 0.669 1.5 1.5v1.5c0 1.656-1.344 3-3 3s-3-1.344-3-3zM22 26c-1.656 0-3-1.344-3-3v-1.5c0-0.831 0.669-1.5 1.5-1.5h3c0.831 0 1.5 0.669 1.5 1.5v1.5c0 1.656-1.344 3-3 3zM27 23v-1.5c0-0.831 0.669-1.5 1.5-1.5h3c0.831 0 1.5 0.669 1.5 1.5v1.5c0 1.656-1.344 3-3 3s-3-1.344-3-3z"/>
</svg>
