<svg version="1.1" xmlns="http://www.w3.org/2000/svg" width="36" height="32" viewBox="0 0 36 32">
<path fill="currentColor" d="M0 8c0-3.313 2.688-6 6-6h24c3.313 0 6 2.688 6 6v16c0 3.313-2.688 6-6 6h-24c-3.313 0-6-2.688-6-6v-16zM11 11v3.5c0 0.831 0.669 1.5 1.5 1.5h3c0.831 0 1.5-0.669 1.5-1.5v-3.5c0-1.656-1.344-3-3-3s-3 1.344-3 3zM22 8c-1.656 0-3 1.344-3 3v3.5c0 0.831 0.669 1.5 1.5 1.5h3c0.831 0 1.5-0.669 1.5-1.5v-3.5c0-1.656-1.344-3-3-3zM3 13v1.5c0 0.831 0.669 1.5 1.5 1.5h3c0.831 0 1.5-0.669 1.5-1.5v-1.5c0-1.656-1.344-3-3-3s-3 1.344-3 3zM6 24c1.656 0 3-1.344 3-3v-1.5c0-0.831-0.669-1.5-1.5-1.5h-3c-0.831 0-1.5 0.669-1.5 1.5v1.5c0 1.656 1.344 3 3 3zM11 21c0 1.656 1.344 3 3 3s3-1.344 3-3v-1.5c0-0.831-0.669-1.5-1.5-1.5h-3c-0.831 0-1.5 0.669-1.5 1.5v1.5zM22 24c1.656 0 3-1.344 3-3v-1.5c0-0.831-0.669-1.5-1.5-1.5h-3c-0.831 0-1.5 0.669-1.5 1.5v1.5c0 1.656 1.344 3 3 3zM27 13v1.5c0 0.831 0.669 1.5 1.5 1.5h3c0.831 0 1.5-0.669 1.5-1.5v-1.5c0-1.656-1.344-3-3-3s-3 1.344-3 3zM30 24c1.656 0 3-1.344 3-3v-1.5c0-0.831-0.669-1.5-1.5-1.5h-3c-0.831 0-1.5 0.669-1.5 1.5v1.5c0 1.656 1.344 3 3 3z"/>
</svg>
