<svg version="1.1" xmlns="http://www.w3.org/2000/svg" width="32" height="32" viewBox="0 0 32 32">
<path fill="currentColor" d="M28 6c0-1.105-0.895-2-2-2s-2 0.895-2 2v0c0 1.105 0.895 2 2 2s2-0.895 2-2v0zM20 6c0-3.314 2.686-6 6-6s6 2.686 6 6v0c0 3.314-2.686 6-6 6s-6-2.686-6-6v0zM9 4c-1.656 0-3 1.344-3 3v10.281c0 1.081-0.444 1.994-0.956 2.656-0.656 0.85-1.044 1.906-1.044 3.063 0 2.762 2.237 5 5 5s5-2.238 5-5c0-1.156-0.387-2.212-1.044-3.056-0.512-0.663-0.956-1.575-0.956-2.656v-10.287c0-1.656-1.344-3-3-3zM2 7c0-3.862 3.131-7 7-7s7 3.131 7 7v10.281c0 0.006 0.006 0.019 0.012 0.038 0.012 0.038 0.050 0.1 0.106 0.175 1.181 1.525 1.881 3.438 1.881 5.506 0 4.969-4.031 9-9 9s-9-4.031-9-9c0-2.075 0.7-3.988 1.881-5.506 0.056-0.075 0.094-0.137 0.106-0.175 0.006-0.019 0.012-0.031 0.012-0.038v-10.281zM12 23c0 1.656-1.344 3-3 3s-3-1.344-3-3c0-1.306 0.838-2.419 2-2.831v-3.169c0-0.55 0.45-1 1-1s1 0.45 1 1v3.169c1.162 0.413 2 1.525 2 2.831z"/>
</svg>
