<svg version="1.1" xmlns="http://www.w3.org/2000/svg" width="20" height="32" viewBox="0 0 20 32">
<path fill="currentColor" d="M7 7c0-1.656 1.344-3 3-3s3 1.344 3 3v10.281c0 1.081 0.444 1.994 0.956 2.656 0.656 0.85 1.044 1.906 1.044 3.063 0 2.762-2.238 5-5 5s-5-2.238-5-5c0-1.156 0.388-2.212 1.044-3.056 0.513-0.663 0.956-1.575 0.956-2.656v-10.287zM10 0c-3.869 0-7 3.138-7 7v10.281c0 0.006-0.006 0.019-0.013 0.038-0.013 0.038-0.050 0.1-0.106 0.175-1.181 1.519-1.881 3.431-1.881 5.506 0 4.969 4.031 9 9 9s9-4.031 9-9c0-2.075-0.7-3.988-1.881-5.506-0.056-0.075-0.094-0.137-0.106-0.175-0.006-0.019-0.012-0.031-0.012-0.038v-10.281c0-3.862-3.131-7-7-7zM10 26c1.657 0 3-1.343 3-3s-1.343-3-3-3v0c-1.657 0-3 1.343-3 3s1.343 3 3 3v0z"/>
</svg>
