<svg version="1.1" xmlns="http://www.w3.org/2000/svg" width="32" height="32" viewBox="0 0 32 32">
<path fill="currentColor" d="M26 4c1.105 0 2 0.895 2 2s-0.895 2-2 2v0c-1.105 0-2-0.895-2-2s0.895-2 2-2v0zM26 12c3.314 0 6-2.686 6-6s-2.686-6-6-6v0c-3.314 0-6 2.686-6 6s2.686 6 6 6v0zM6 7c0-1.656 1.344-3 3-3s3 1.344 3 3v10.281c0 1.081 0.444 1.994 0.956 2.656 0.656 0.85 1.044 1.906 1.044 3.063 0 2.762-2.238 5-5 5s-5-2.238-5-5c0-1.156 0.388-2.212 1.044-3.056 0.513-0.669 0.956-1.581 0.956-2.663v-10.281zM9 0c-3.869 0-7 3.138-7 7v10.281c0 0.006-0.006 0.019-0.012 0.038-0.012 0.038-0.050 0.1-0.106 0.175-1.181 1.519-1.881 3.431-1.881 5.506 0 4.969 4.031 9 9 9s9-4.031 9-9c0-2.075-0.7-3.988-1.881-5.506-0.056-0.075-0.094-0.137-0.106-0.175-0.006-0.019-0.012-0.031-0.012-0.038v-10.281c0-3.862-3.131-7-7-7zM9 26c1.656 0 3-1.344 3-3 0-1.306-0.838-2.419-2-2.831v-13.169c0-0.55-0.45-1-1-1s-1 0.45-1 1v13.169c-1.162 0.413-2 1.525-2 2.831 0 1.656 1.344 3 3 3z"/>
</svg>
