<svg version="1.1" xmlns="http://www.w3.org/2000/svg" width="36" height="32" viewBox="0 0 36 32">
<path fill="currentColor" d="M8 7c0-1.656 1.344-3 3-3s3 1.344 3 3v10.281c0 1.081 0.444 1.994 0.956 2.656 0.656 0.85 1.044 1.906 1.044 3.063 0 2.762-2.238 5-5 5s-5-2.238-5-5c0-1.156 0.388-2.212 1.044-3.056 0.513-0.663 0.956-1.575 0.956-2.656v-10.287zM11 0c-3.869 0-7 3.131-7 7v10.275c0 0.006-0.006 0.019-0.013 0.038-0.013 0.038-0.050 0.1-0.106 0.175-1.181 1.525-1.881 3.438-1.881 5.512 0 4.969 4.031 9 9 9s9-4.031 9-9c0-2.075-0.7-3.988-1.881-5.506-0.056-0.075-0.094-0.137-0.106-0.175-0.006-0.019-0.012-0.031-0.012-0.038v-10.281c0-3.869-3.131-7-7-7zM11 26c1.656 0 3-1.344 3-3 0-1.306-0.838-2.419-2-2.831v-13.169c0-0.55-0.45-1-1-1s-1 0.45-1 1v13.169c-1.162 0.413-2 1.525-2 2.831 0 1.656 1.344 3 3 3zM30 10h2c0.806 0 1.538-0.488 1.85-1.238s0.138-1.606-0.431-2.181l-4-4c-0.781-0.781-2.050-0.781-2.831 0l-4 4c-0.575 0.575-0.744 1.431-0.431 2.181s1.038 1.238 1.85 1.238h2v18c0 1.106 0.894 2 2 2s2-0.894 2-2v-18z"/>
</svg>
