<svg version="1.1" xmlns="http://www.w3.org/2000/svg" width="36" height="32" viewBox="0 0 36 32">
<path fill="currentColor" d="M30.506 0.388c-0.619-0.556-1.563-0.506-2.119 0.112s-0.506 1.563 0.113 2.119l2.094 1.881h-25.188l2.094-1.888c0.619-0.556 0.669-1.5 0.112-2.119s-1.5-0.662-2.119-0.106l-5 4.5c-0.313 0.281-0.494 0.688-0.494 1.112s0.181 0.831 0.494 1.112l5 4.5c0.619 0.556 1.563 0.506 2.119-0.113s0.506-1.563-0.112-2.119l-2.094-1.881h25.181l-2.094 1.887c-0.619 0.556-0.669 1.5-0.113 2.119s1.5 0.669 2.119 0.113l5-4.5c0.319-0.287 0.494-0.688 0.494-1.112s-0.181-0.831-0.494-1.112l-5-4.5zM19.212 10.406c-0.719-0.544-1.706-0.544-2.425 0l-10.5 8c-0.412 0.313-0.688 0.781-0.769 1.294l-1.5 10c-0.087 0.575 0.081 1.163 0.463 1.6s0.938 0.7 1.519 0.7h12v-10l6 10h6c0.581 0 1.137-0.256 1.512-0.694s0.55-1.025 0.462-1.6l-1.5-10c-0.075-0.512-0.35-0.981-0.769-1.294l-10.5-8z"/>
</svg>
