<svg version="1.1" xmlns="http://www.w3.org/2000/svg" width="36" height="32" viewBox="0 0 36 32">
<path fill="currentColor" d="M13.113 6.994c-0.556-0.619-1.5-0.669-2.119-0.112l-2.494 2.25v-7.631c0-0.831-0.669-1.5-1.5-1.5s-1.5 0.669-1.5 1.5v7.631l-2.494-2.25c-0.619-0.556-1.563-0.506-2.119 0.112s-0.506 1.563 0.113 2.119l5 4.5c0.569 0.512 1.438 0.512 2.006 0l5-4.5c0.619-0.556 0.669-1.5 0.113-2.119zM35.112 6.994c-0.556-0.619-1.5-0.669-2.119-0.112l-2.494 2.25v-7.631c0-0.831-0.669-1.5-1.5-1.5s-1.5 0.669-1.5 1.5v7.631l-2.494-2.25c-0.619-0.556-1.563-0.506-2.119 0.112s-0.506 1.563 0.113 2.119l5 4.5c0.569 0.512 1.438 0.512 2.006 0l5-4.5c0.619-0.556 0.669-1.5 0.112-2.119zM19.212 10.406c-0.719-0.544-1.706-0.544-2.425 0l-10.5 8c-0.412 0.313-0.688 0.781-0.769 1.294l-1.5 10c-0.087 0.575 0.081 1.163 0.463 1.6s0.938 0.7 1.519 0.7h12v-10l6 10h6c0.581 0 1.137-0.256 1.512-0.694s0.55-1.025 0.462-1.6l-1.5-10c-0.075-0.512-0.35-0.981-0.769-1.294l-10.5-8z"/>
</svg>
