<svg version="1.1" xmlns="http://www.w3.org/2000/svg" width="40" height="32" viewBox="0 0 40 32">
<path fill="currentColor" d="M15.113 6.994c0.556 0.619 0.506 1.563-0.113 2.119l-5 4.5c-0.569 0.512-1.438 0.512-2.006 0l-5-4.5c-0.619-0.556-0.669-1.5-0.112-2.119s1.5-0.669 2.119-0.112l2.494 2.25 0.006-7.631c0-0.831 0.669-1.5 1.5-1.5s1.5 0.669 1.5 1.5v7.631l2.494-2.25c0.619-0.556 1.563-0.506 2.119 0.112zM22.788 8.406c0.719-0.544 1.706-0.544 2.425 0l10.5 8c0.413 0.313 0.688 0.781 0.769 1.294l1.5 10 0.044 0.294c1.094 0.012 1.975 0.9 1.975 2 0 1.106-0.894 2-2 2h-36c-1.106 0-2-0.894-2-2s0.894-2 2-2h7.975l0.044-0.294 1.5-10c0.075-0.512 0.35-0.981 0.769-1.294l10.5-8zM24 28h4.8l-4.8-8v8z"/>
</svg>
