<svg version="1.1" xmlns="http://www.w3.org/2000/svg" width="40" height="32" viewBox="0 0 40 32">
<path fill="currentColor" d="M24.788 0.406l-10.050 7.662c0.6 0.113 1.181 0.363 1.688 0.75l10.5 8c0.825 0.631 1.375 1.556 1.531 2.587l0.387 2.594h9.156c0.581 0 1.138-0.256 1.513-0.694s0.55-1.025 0.462-1.6l-1.5-10c-0.075-0.512-0.35-0.981-0.769-1.294l-10.5-8c-0.719-0.544-1.706-0.544-2.425 0zM15.213 10.406c-0.719-0.544-1.706-0.544-2.425 0l-10.5 8c-0.413 0.313-0.688 0.781-0.769 1.294l-1.5 10c-0.087 0.575 0.081 1.163 0.463 1.6s0.938 0.7 1.519 0.7h12v-10l6 10h6c0.581 0 1.137-0.256 1.512-0.694s0.55-1.025 0.462-1.6l-1.5-10c-0.075-0.512-0.35-0.981-0.769-1.294l-10.5-8z"/>
</svg>
