<svg version="1.1" xmlns="http://www.w3.org/2000/svg" width="36" height="32" viewBox="0 0 36 32">
<path fill="currentColor" d="M7.506 2.612c0.619-0.556 0.669-1.5 0.112-2.119s-1.506-0.662-2.125-0.106l-5 4.5c-0.313 0.281-0.494 0.688-0.494 1.112s0.181 0.831 0.494 1.112l5 4.5c0.619 0.556 1.563 0.506 2.119-0.113s0.506-1.563-0.112-2.119l-2.094-1.881h23.094c2.488 0 4.5 2.012 4.5 4.5v2.5c0 0.831 0.669 1.5 1.5 1.5s1.5-0.669 1.5-1.5v-2.5c0-4.144-3.356-7.5-7.5-7.5h-23.094l2.094-1.888zM19.212 10.406c-0.719-0.544-1.706-0.544-2.425 0l-10.5 8c-0.412 0.313-0.688 0.781-0.769 1.294l-1.5 10c-0.087 0.575 0.081 1.163 0.463 1.6s0.938 0.7 1.519 0.7h12v-10l6 10h6c0.581 0 1.137-0.256 1.512-0.694s0.55-1.025 0.462-1.6l-1.5-10c-0.075-0.512-0.35-0.981-0.769-1.294l-10.5-8z"/>
</svg>
