<svg version="1.1" xmlns="http://www.w3.org/2000/svg" width="28" height="32" viewBox="0 0 28 32">
<path fill="currentColor" d="M4 8v-2h8v8h-1c-1.106 0-2 0.894-2 2s0.894 2 2 2h6c1.106 0 2-0.894 2-2s-0.894-2-2-2h-1v-8h8v2c0 1.106 0.894 2 2 2s2-0.894 2-2v-3c0-1.656-1.344-3-3-3h-22c-1.656 0-3 1.344-3 3v3c0 1.106 0.894 2 2 2s2-0.894 2-2zM0.588 22.587c-0.781 0.781-0.781 2.050 0 2.831l4 4c0.575 0.575 1.431 0.744 2.181 0.431s1.238-1.038 1.238-1.85v-2h11.994v2c0 0.806 0.488 1.538 1.238 1.85s1.606 0.137 2.181-0.431l4-4c0.781-0.781 0.781-2.050 0-2.831l-4-4c-0.575-0.575-1.431-0.744-2.181-0.431s-1.238 1.038-1.238 1.85v2h-12v-2.006c0-0.806-0.487-1.538-1.237-1.85s-1.606-0.137-2.181 0.431l-4 4z"/>
</svg>
