<svg version="1.1" xmlns="http://www.w3.org/2000/svg" width="36" height="32" viewBox="0 0 36 32">
<path fill="currentColor" d="M4 8v-2h4v20h-2c-1.106 0-2 0.894-2 2s0.894 2 2 2h8c1.106 0 2-0.894 2-2s-0.894-2-2-2h-2v-20h4v2c0 1.106 0.894 2 2 2s2-0.894 2-2v-3c0-1.656-1.344-3-3-3h-14c-1.656 0-3 1.344-3 3v3c0 1.106 0.894 2 2 2s2-0.894 2-2zM31.413 2.587c-0.781-0.781-2.050-0.781-2.831 0l-4 4c-0.575 0.575-0.744 1.431-0.431 2.181s1.038 1.238 1.85 1.238h2v11.994h-2c-0.806 0-1.538 0.488-1.85 1.238s-0.137 1.606 0.431 2.181l4 4c0.781 0.781 2.050 0.781 2.831 0l4-4c0.575-0.575 0.744-1.431 0.431-2.181s-1.038-1.238-1.85-1.238h-1.994v-12h2c0.806 0 1.538-0.488 1.85-1.238s0.138-1.606-0.431-2.181l-4-4z"/>
</svg>
