<svg version="1.1" xmlns="http://www.w3.org/2000/svg" width="40" height="32" viewBox="0 0 40 32">
<path fill="currentColor" d="M2.425 0.319c-0.65-0.512-1.594-0.394-2.106 0.256s-0.394 1.594 0.256 2.106l37 29c0.65 0.513 1.594 0.394 2.106-0.256s0.394-1.594-0.256-2.106l-17.194-13.475 2.781-9.844h6.425l-0.375 1.513c-0.269 1.069 0.381 2.156 1.456 2.425s2.156-0.381 2.425-1.456l0.688-2.756c0.469-1.894-0.962-3.725-2.913-3.725h-19.938c-1.375 0-2.575 0.938-2.912 2.275l-0.394 1.575-7.050-5.531zM12.925 8.55c0.006-0.019 0.012-0.044 0.019-0.063l0.619-2.487h7.294l-2.025 7.175-5.906-4.631zM15.206 26h-3.206c-1.106 0-2 0.894-2 2s0.894 2 2 2h10c1.106 0 2-0.894 2-2s-0.894-2-2-2h-2.637l1.1-3.881-3.406-2.681-1.85 6.563z"/>
</svg>
