<svg version="1.1" xmlns="http://www.w3.org/2000/svg" width="32" height="32" viewBox="0 0 32 32">
<path fill="currentColor" d="M6 23.881v-5.55c0-0.931 0.369-1.819 1.025-2.475l1.706-1.706 3.563 3.562c0.387 0.387 1.025 0.387 1.412 0s0.387-1.025 0-1.413l-3.563-3.563 2.588-2.588 3.563 3.563c0.387 0.387 1.025 0.387 1.413 0s0.387-1.025 0-1.412l-3.563-3.563 2.587-2.588 3.563 3.563c0.387 0.387 1.025 0.387 1.413 0s0.387-1.025 0-1.412l-3.563-3.563 2.844-2.844c1.212-1.212 2.85-1.894 4.563-1.894 3.563 0 6.45 2.888 6.45 6.45 0 1.713-0.681 3.35-1.887 4.563l-13.969 13.963c-0.656 0.656-1.544 1.025-2.475 1.025h-5.55l-5.556 5.563c-0.587 0.588-1.538 0.588-2.119 0s-0.588-1.538 0-2.119l5.563-5.563z"/>
</svg>
