<svg version="1.1" xmlns="http://www.w3.org/2000/svg" width="32" height="32" viewBox="0 0 32 32">
<path fill="currentColor" d="M19.587 2.056c1.625 0.325 2.681 1.906 2.356 3.531l-0.144 0.713c-0.331 1.669-0.944 3.256-1.8 4.7h9c1.656 0 3 1.344 3 3 0 1.156-0.656 2.163-1.619 2.663 0.681 0.55 1.119 1.394 1.119 2.337 0 1.462-1.050 2.681-2.431 2.944 0.275 0.456 0.431 0.988 0.431 1.556 0 1.331-0.869 2.462-2.069 2.85 0.044 0.206 0.069 0.425 0.069 0.65 0 1.656-1.344 3-3 3h-6.094c-1.188 0-2.344-0.35-3.331-1.006l-2.406-1.606c-1.669-1.113-2.669-2.988-2.669-4.994v-6.95c0-1.825 0.831-3.544 2.25-4.688l0.463-0.369c1.656-1.325 2.787-3.188 3.2-5.263l0.144-0.713c0.325-1.625 1.906-2.681 3.531-2.356zM2 12h4c1.106 0 2 0.894 2 2v14c0 1.106-0.894 2-2 2h-4c-1.106 0-2-0.894-2-2v-14c0-1.106 0.894-2 2-2z"/>
</svg>
