<svg version="1.1" xmlns="http://www.w3.org/2000/svg" width="24" height="32" viewBox="0 0 24 32">
<path fill="currentColor" d="M2 2c0-1.106 0.894-2 2-2h16c1.106 0 2 0.894 2 2s-0.894 2-2 2h-1.844l0.712 9.262c2.294 1.244 4.106 3.325 4.969 5.919l0.063 0.188c0.206 0.613 0.1 1.281-0.275 1.8s-0.981 0.831-1.625 0.831h-20c-0.644 0-1.244-0.306-1.625-0.831s-0.481-1.194-0.275-1.8l0.063-0.188c0.862-2.594 2.675-4.675 4.969-5.919l0.713-9.262h-1.844c-1.106 0-2-0.894-2-2zM10 24h4v6c0 1.106-0.894 2-2 2s-2-0.894-2-2v-6z"/>
</svg>
