<svg version="1.1" xmlns="http://www.w3.org/2000/svg" width="36" height="32" viewBox="0 0 36 32">
<path fill="currentColor" d="M4 4c-2.206 0-4 1.794-4 4v4c0 0.55 0.463 0.981 0.981 1.162 1.175 0.406 2.019 1.525 2.019 2.838s-0.844 2.431-2.019 2.837c-0.519 0.181-0.981 0.613-0.981 1.163v4c0 2.206 1.794 4 4 4h28c2.206 0 4-1.794 4-4v-4c0-0.55-0.462-0.981-0.981-1.163-1.175-0.406-2.019-1.525-2.019-2.838s0.844-2.431 2.019-2.838c0.519-0.181 0.981-0.613 0.981-1.162v-4c0-2.206-1.794-4-4-4h-28zM8 11v10c0 0.55 0.45 1 1 1h18c0.55 0 1-0.45 1-1v-10c0-0.55-0.45-1-1-1h-18c-0.55 0-1 0.45-1 1zM6 10c0-1.106 0.894-2 2-2h20c1.106 0 2 0.894 2 2v12c0 1.106-0.894 2-2 2h-20c-1.106 0-2-0.894-2-2v-12z"/>
</svg>
