<svg version="1.1" xmlns="http://www.w3.org/2000/svg" width="40" height="32" viewBox="0 0 40 32">
<path fill="currentColor" d="M8 4.5c0.828 0 1.5 0.672 1.5 1.5s-0.672 1.5-1.5 1.5v0c-0.828 0-1.5-0.672-1.5-1.5s0.672-1.5 1.5-1.5v0zM10 10.581c1.769-0.769 3-2.531 3-4.581 0-2.763-2.238-5-5-5s-5 2.237-5 5c0 2.050 1.231 3.812 3 4.581v3.419h-4c-1.106 0-2 0.894-2 2s0.894 2 2 2h16v3.419c-1.769 0.769-3 2.531-3 4.581 0 2.762 2.238 5 5 5s5-2.238 5-5c0-2.050-1.231-3.813-3-4.581v-3.419h16c1.106 0 2-0.894 2-2s-0.894-2-2-2h-4v-3.419c1.769-0.769 3-2.531 3-4.581 0-2.763-2.237-5-5-5s-5 2.237-5 5c0 2.050 1.231 3.812 3 4.581v3.419h-20v-3.419zM30.5 6c0-0.828 0.672-1.5 1.5-1.5s1.5 0.672 1.5 1.5v0c0 0.828-0.672 1.5-1.5 1.5s-1.5-0.672-1.5-1.5v0zM20 24.5c0.828 0 1.5 0.672 1.5 1.5s-0.672 1.5-1.5 1.5v0c-0.828 0-1.5-0.672-1.5-1.5s0.672-1.5 1.5-1.5v0z"/>
</svg>
