<svg version="1.1" xmlns="http://www.w3.org/2000/svg" width="36" height="32" viewBox="0 0 36 32">
<path fill="currentColor" d="M2 0h12c1.106 0 2 0.894 2 2v2h-16v-2c0-1.106 0.894-2 2-2zM0 6h16v24.5c0 0.831-0.669 1.5-1.5 1.5s-1.5-0.669-1.5-1.5v-0.5h-10v0.5c0 0.831-0.669 1.5-1.5 1.5s-1.5-0.669-1.5-1.5v-24.5zM12 14c-0.55 0-1 0.45-1 1v4c0 0.55 0.45 1 1 1s1-0.45 1-1v-4c0-0.55-0.45-1-1-1zM22 0h12c1.106 0 2 0.894 2 2v2h-16v-2c0-1.106 0.894-2 2-2zM20 6h16v24.5c0 0.831-0.669 1.5-1.5 1.5s-1.5-0.669-1.5-1.5v-0.5h-10v0.5c0 0.831-0.669 1.5-1.5 1.5s-1.5-0.669-1.5-1.5v-24.5zM32 14c-0.55 0-1 0.45-1 1v4c0 0.55 0.45 1 1 1s1-0.45 1-1v-4c0-0.55-0.45-1-1-1z"/>
</svg>
