<svg version="1.1" xmlns="http://www.w3.org/2000/svg" width="40" height="32" viewBox="0 0 40 32">
<path fill="currentColor" d="M27.762 0c-2.938 3.1-3.762 7.906-3.762 12 0 9.925-1.706 15.438-2.669 17.744-0.625 1.5-2.075 2.256-3.462 2.256h-14.869c-0.719 0-1.387-0.387-1.738-1.012s-0.35-1.394 0.025-2.012c0.613-1.106 0.963-2.387 1.281-3.606 0.7-2.694 1.431-7.025 1.431-13.369 0-6.625 2.688-12 6-12h17.763zM32 24c-3.313 0-6-5.375-6-12s2.688-12 6-12 6 5.375 6 12-2.688 12-6 12zM32 16c1.106 0 2-1.794 2-4s-0.894-4-2-4-2 1.794-2 4 0.894 4 2 4zM9 13c0-0.552-0.448-1-1-1s-1 0.448-1 1v0c0 0.552 0.448 1 1 1s1-0.448 1-1v0zM13 13c0-0.552-0.448-1-1-1s-1 0.448-1 1v0c0 0.552 0.448 1 1 1s1-0.448 1-1v0zM16 14c0.552 0 1-0.448 1-1s-0.448-1-1-1v0c-0.552 0-1 0.448-1 1s0.448 1 1 1v0zM21 13c0-0.552-0.448-1-1-1s-1 0.448-1 1v0c0 0.552 0.448 1 1 1s1-0.448 1-1v0z"/>
</svg>
