<svg version="1.1" xmlns="http://www.w3.org/2000/svg" width="40" height="32" viewBox="0 0 40 32">
<path fill="currentColor" d="M2.425 0.319c-0.65-0.512-1.594-0.394-2.106 0.256s-0.394 1.594 0.256 2.106l37 29c0.65 0.513 1.594 0.394 2.106-0.256s0.394-1.594-0.256-2.106l-6.856-5.375c3.050-0.569 5.431-5.7 5.431-11.944 0-6.625-2.688-12-6-12s-6 5.375-6 12c0 3.069 0.575 5.869 1.525 7.994l-3.688-2.887c0.1-1.55 0.163-3.25 0.163-5.1 0-4.094 0.825-8.9 3.762-12h-17.762c-1.55 0-2.963 1.175-4.025 3.1l-3.55-2.788zM22.956 24.087l-18.8-14.813c-0.1 0.875-0.156 1.787-0.156 2.725 0 6.344-0.731 10.675-1.438 13.369-0.319 1.212-0.669 2.494-1.281 3.606-0.369 0.619-0.381 1.381-0.025 2.012s1.025 1.012 1.744 1.012h14.869c1.394 0 2.837-0.756 3.462-2.256 0.462-1.106 1.094-2.95 1.625-5.662zM34 12c0 2.206-0.894 4-2 4s-2-1.794-2-4 0.894-4 2-4 2 1.794 2 4z"/>
</svg>
