<svg version="1.1" xmlns="http://www.w3.org/2000/svg" width="28" height="32" viewBox="0 0 28 32">
<path fill="currentColor" d="M1.5 0c-0.831 0-1.5 0.669-1.5 1.5s0.669 1.5 1.5 1.5h0.5v9.306c-0.119 0.088-0.238 0.181-0.35 0.275-0.969 0.825-1.65 1.975-1.65 3.419 0 2.931 0.894 5.256 2.313 7.031 0.888 1.106 1.944 1.956 3.031 2.613l-1.244 3.725c-0.206 0.613-0.1 1.281 0.275 1.8s0.981 0.831 1.625 0.831h16c0.644 0 1.244-0.306 1.625-0.831s0.481-1.194 0.275-1.8l-1.238-3.719c1.087-0.656 2.144-1.506 3.031-2.613 1.419-1.775 2.313-4.094 2.313-7.031 0-1.444-0.681-2.594-1.65-3.412-0.113-0.094-0.231-0.188-0.35-0.275v-9.319h0.5c0.831 0 1.5-0.669 1.5-1.5s-0.669-1.5-1.5-1.5h-25.006zM24 16.019c0 0.063-0.019 0.163-0.238 0.35-0.3 0.256-0.875 0.563-1.831 0.837-1.9 0.544-4.675 0.794-7.931 0.794s-6.031-0.25-7.931-0.8c-0.956-0.275-1.531-0.581-1.831-0.837-0.219-0.188-0.237-0.288-0.237-0.35v-0.025c0-0.063 0-0.156 0.237-0.363 0.3-0.256 0.875-0.563 1.831-0.838 1.9-0.537 4.675-0.787 7.931-0.787s6.031 0.25 7.931 0.8c0.956 0.275 1.531 0.581 1.831 0.838 0.238 0.2 0.238 0.3 0.238 0.363v0.025zM20.512 24l-0.012 0.031v-0.031h0.012zM7 4h2c0.55 0 1 0.45 1 1s-0.45 1-1 1h-2c-0.55 0-1-0.45-1-1s0.45-1 1-1z"/>
</svg>
