<svg version="1.1" xmlns="http://www.w3.org/2000/svg" width="32" height="32" viewBox="0 0 32 32">
<path fill="currentColor" d="M11 5.5v2.5h10v-2.5c0-0.275-0.225-0.5-0.5-0.5h-9c-0.275 0-0.5 0.225-0.5 0.5zM8 8v-2.5c0-1.931 1.569-3.5 3.5-3.5h9c1.931 0 3.5 1.569 3.5 3.5v2.5h1.756c0.794 0 1.556 0.319 2.119 0.881l3.244 3.244c0.563 0.563 0.881 1.325 0.881 2.119v4.756h-8v-1c0-1.106-0.894-2-2-2s-2 0.894-2 2v1h-8v-1c0-1.106-0.894-2-2-2s-2 0.894-2 2v1h-8v-4.756c0-0.794 0.319-1.556 0.881-2.119l3.244-3.244c0.563-0.563 1.325-0.881 2.119-0.881h1.756zM0 26v-5h8v1c0 1.106 0.894 2 2 2s2-0.894 2-2v-1h8v1c0 1.106 0.894 2 2 2s2-0.894 2-2v-1h8v5c0 2.206-1.794 4-4 4h-24c-2.206 0-4-1.794-4-4z"/>
</svg>
