<svg version="1.1" xmlns="http://www.w3.org/2000/svg" width="28" height="32" viewBox="0 0 28 32">
<path fill="currentColor" d="M11.631 3.256c-1.050-0.813-2.338-1.256-3.662-1.256-3.3 0-5.969 2.669-5.969 5.969v0.387c0 0.988 0.231 1.956 0.669 2.844l1.469 2.944c0.281 0.556 0.475 1.15 0.588 1.762l2.294 12.862c0.125 0.7 0.725 1.212 1.431 1.238s1.338-0.462 1.5-1.15l1.806-7.581c0.256-1.044 1.181-1.775 2.244-1.775s1.988 0.731 2.237 1.769l1.806 7.581c0.163 0.694 0.794 1.175 1.5 1.15s1.306-0.538 1.431-1.238l2.294-12.863c0.113-0.613 0.306-1.206 0.587-1.762l1.469-2.944c0.444-0.881 0.669-1.856 0.669-2.844v-0.131c0-3.438-2.788-6.225-6.225-6.225-1.506 0-2.962 0.55-4.1 1.538l-0.2 0.175 1.219 0.95c0.438 0.338 0.512 0.969 0.175 1.406s-0.969 0.513-1.406 0.175l-3.838-2.987z"/>
</svg>
