<svg version="1.1" xmlns="http://www.w3.org/2000/svg" width="32" height="32" viewBox="0 0 32 32">
<path fill="currentColor" d="M0 5c0 1.656 1.344 3 3 3h1v4h4v-4h6v4h4v-4h6v4h4v-4h1c1.656 0 3-1.344 3-3v-4.162c0-0.463-0.375-0.838-0.837-0.838-0.106 0-0.212 0.019-0.313 0.063l-3.063 1.225c-1.181 0.469-2.444 0.712-3.712 0.712h-16.15c-1.275 0-2.531-0.244-3.713-0.712l-3.063-1.225c-0.1-0.037-0.206-0.063-0.313-0.063-0.463 0-0.838 0.375-0.838 0.838v4.162zM4 18v12c0 1.106 0.894 2 2 2s2-0.894 2-2v-12h16v12c0 1.106 0.894 2 2 2s2-0.894 2-2v-12h2c1.106 0 2-0.894 2-2s-0.894-2-2-2h-28c-1.106 0-2 0.894-2 2s0.894 2 2 2h2z"/>
</svg>
