<svg version="1.1" xmlns="http://www.w3.org/2000/svg" width="28" height="32" viewBox="0 0 28 32">
<path fill="currentColor" d="M0 2v0.85c0 1.069 0.106 2.125 0.313 3.15h22.050c0.2-0.431 0.469-0.831 0.813-1.175l2.413-2.413c0.262-0.263 0.413-0.625 0.413-1 0-0.781-0.631-1.413-1.413-1.413h-22.587c-1.106 0-2 0.894-2 2zM22.012 8h-21.163c0.762 2.244 2.019 4.294 3.675 6h21.225l-2.95-3.931c-0.456-0.606-0.725-1.325-0.788-2.069zM7.888 16.637l7.275 4.281c0.512 0.3 0.988 0.669 1.406 1.081h11.244c0.125-0.613 0.188-1.244 0.188-1.881 0-1.438-0.331-2.844-0.956-4.119h-20.156c0.325 0.225 0.656 0.438 1 0.638zM18 24c0.644 1.337 0.863 2.844 0.619 4.313l-0.369 2.231c-0.125 0.762 0.462 1.463 1.238 1.463 0.331 0 0.65-0.131 0.887-0.369l4.887-4.887c0.8-0.8 1.444-1.731 1.9-2.744h-9.162z"/>
</svg>
