<svg version="1.1" xmlns="http://www.w3.org/2000/svg" width="36" height="32" viewBox="0 0 36 32">
<path fill="currentColor" d="M3.913 0.144c-1.025-0.412-2.188 0.081-2.606 1.106-0.844 2.087-1.306 4.369-1.306 6.75s0.463 4.662 1.306 6.75c0.413 1.025 1.581 1.519 2.606 1.106s1.519-1.581 1.106-2.606c-0.656-1.619-1.019-3.387-1.019-5.25s0.362-3.631 1.019-5.25c0.412-1.025-0.081-2.188-1.106-2.606zM32.087 0.144c-1.025 0.419-1.519 1.581-1.106 2.606 0.656 1.619 1.019 3.388 1.019 5.25s-0.363 3.631-1.019 5.25c-0.413 1.025 0.081 2.188 1.106 2.606s2.188-0.081 2.606-1.106c0.844-2.088 1.306-4.369 1.306-6.75s-0.462-4.662-1.306-6.75c-0.419-1.025-1.581-1.519-2.606-1.106zM21.256 10.325c0.469-0.656 0.744-1.456 0.744-2.325 0-2.206-1.794-4-4-4s-4 1.794-4 4c0 0.869 0.275 1.669 0.744 2.325l-8.563 18.85c-0.456 1.006-0.013 2.194 0.994 2.65s2.194 0.012 2.65-0.994l1.281-2.831h13.787l1.288 2.825c0.456 1.006 1.644 1.45 2.65 0.994s1.45-1.644 0.994-2.65l-8.569-18.844zM23.075 24h-10.15l0.906-2h8.338l0.906 2zM18 12.831l2.35 5.169h-4.7l2.35-5.169zM10.206 4.6c0.331-0.756-0.012-1.644-0.775-1.975s-1.644 0.013-1.975 0.775c-0.612 1.413-0.956 2.969-0.956 4.6s0.344 3.188 0.956 4.6c0.331 0.756 1.219 1.106 1.975 0.775s1.106-1.219 0.775-1.975c-0.456-1.037-0.706-2.188-0.706-3.4s0.25-2.362 0.706-3.4zM28.544 3.4c-0.331-0.756-1.219-1.106-1.975-0.775s-1.106 1.219-0.775 1.975c0.456 1.037 0.706 2.188 0.706 3.4s-0.25 2.363-0.706 3.4c-0.331 0.756 0.012 1.644 0.775 1.975s1.644-0.012 1.975-0.775c0.613-1.412 0.956-2.969 0.956-4.6s-0.344-3.188-0.956-4.6z"/>
</svg>
