<svg version="1.1" xmlns="http://www.w3.org/2000/svg" width="36" height="32" viewBox="0 0 36 32">
<path fill="currentColor" d="M5.019 2.75c-0.656 1.619-1.019 3.388-1.019 5.25s0.362 3.631 1.019 5.25c0.412 1.025-0.081 2.188-1.106 2.606s-2.188-0.081-2.606-1.106c-0.844-2.088-1.306-4.369-1.306-6.75s0.463-4.662 1.306-6.75c0.419-1.025 1.581-1.519 2.606-1.106s1.519 1.581 1.106 2.606zM34.694 1.25c0.844 2.087 1.306 4.369 1.306 6.75s-0.462 4.662-1.306 6.75c-0.413 1.025-1.581 1.519-2.606 1.106s-1.519-1.581-1.106-2.606c0.656-1.619 1.019-3.387 1.019-5.25s-0.363-3.631-1.019-5.25c-0.413-1.025 0.081-2.188 1.106-2.606s2.188 0.081 2.606 1.106zM22 8c0 1.481-0.806 2.775-2 3.463v18.538c0 1.106-0.894 2-2 2s-2-0.894-2-2v-18.538c-1.194-0.694-2-1.981-2-3.463 0-2.206 1.794-4 4-4s4 1.794 4 4zM10.662 4.8c-0.425 0.975-0.662 2.056-0.662 3.2s0.238 2.225 0.662 3.2c0.444 1.012-0.019 2.194-1.031 2.631s-2.194-0.019-2.631-1.031c-0.644-1.475-1-3.1-1-4.8s0.356-3.325 1-4.8c0.444-1.013 1.619-1.475 2.631-1.031s1.475 1.619 1.031 2.631zM29 3.2c0.644 1.475 1 3.1 1 4.8s-0.356 3.325-1 4.8c-0.444 1.012-1.619 1.475-2.631 1.031s-1.475-1.619-1.031-2.631c0.425-0.975 0.663-2.056 0.663-3.2s-0.238-2.225-0.663-3.2c-0.444-1.013 0.019-2.194 1.031-2.631s2.194 0.019 2.631 1.031z"/>
</svg>
