<svg version="1.1" xmlns="http://www.w3.org/2000/svg" width="40" height="32" viewBox="0 0 40 32">
<path fill="currentColor" d="M6 4c0-2.206 1.794-4 4-4h6.644c1.637 0 3.106 0.994 3.712 2.513l3 7.487h6.644v-2.112c0-1.55 0.363-3.081 1.056-4.475l0.156-0.313c0.494-0.987 1.694-1.387 2.681-0.894s1.388 1.694 0.894 2.681l-0.156 0.313c-0.419 0.831-0.631 1.75-0.631 2.681v2.119h3.5c1.381 0 2.5 1.119 2.5 2.5v2.838c0 1.031-0.531 1.994-1.413 2.544l-2.706 1.694c-0.888-0.369-1.862-0.575-2.881-0.575-2.456 0-4.631 1.181-6 3h-5c0 1.106-0.894 2-2 2h-0.512c-0.106 0.3-0.231 0.594-0.363 0.881l0.363 0.363c0.781 0.781 0.781 2.050 0 2.831l-1.413 1.413c-0.781 0.781-2.050 0.781-2.831 0l-0.363-0.363c-0.287 0.137-0.581 0.256-0.881 0.363v0.512c0 1.106-0.894 2-2 2h-2c-1.106 0-2-0.894-2-2v-0.512c-0.3-0.106-0.594-0.231-0.881-0.363l-0.362 0.363c-0.781 0.781-2.050 0.781-2.831 0l-1.413-1.419c-0.781-0.781-0.781-2.050 0-2.831l0.362-0.363c-0.138-0.288-0.256-0.581-0.362-0.881h-0.512c-1.106 0-2-0.894-2-2v-1.994c0-1.106 0.894-2 2-2h0.512c0.106-0.3 0.231-0.594 0.362-0.881l-0.362-0.363c-0.781-0.781-0.781-2.050 0-2.831l1.413-1.412c0.563-0.563 1.369-0.719 2.069-0.475v-8.037zM16.644 4h-6.644v6h9.044l-2.4-6zM11 16c-2.761 0-5 2.239-5 5s2.239 5 5 5v0c2.761 0 5-2.239 5-5s-2.239-5-5-5v0zM33 28c0.828 0 1.5-0.672 1.5-1.5s-0.672-1.5-1.5-1.5v0c-0.828 0-1.5 0.672-1.5 1.5s0.672 1.5 1.5 1.5v0zM33 32c-3.038 0-5.5-2.462-5.5-5.5 0-1.863 0.925-3.506 2.337-4.5 0.894-0.631 1.988-1 3.163-1 0.169 0 0.331 0.006 0.494 0.019 2.806 0.25 5.006 2.606 5.006 5.481 0 3.038-2.462 5.5-5.5 5.5z"/>
</svg>
