<svg version="1.1" xmlns="http://www.w3.org/2000/svg" width="40" height="32" viewBox="0 0 40 32">
<path fill="currentColor" d="M21.6 6.8c-0.519-0.688-1.419-0.969-2.231-0.7s-1.369 1.037-1.369 1.9v16c0 1.106 0.894 2 2 2s2-0.894 2-2v-10l5.4 7.2c0.375 0.506 0.969 0.8 1.6 0.8s1.225-0.294 1.6-0.8l5.4-7.2v10c0 1.106 0.894 2 2 2s2-0.894 2-2v-16c0-0.862-0.55-1.625-1.369-1.9s-1.719 0.006-2.231 0.7l-7.4 9.869-7.4-9.869zM0 8c0 1.106 0.894 2 2 2h4v14c0 1.106 0.894 2 2 2s2-0.894 2-2v-14h4c1.106 0 2-0.894 2-2s-0.894-2-2-2h-12c-1.106 0-2 0.894-2 2z"/>
</svg>
