<svg version="1.1" xmlns="http://www.w3.org/2000/svg" width="28" height="32" viewBox="0 0 28 32">
<path fill="currentColor" d="M6 0c-3.313 0-6 2.688-6 6v16c0 3 2.2 5.481 5.069 5.931l-2.875 2.875c-0.438 0.438-0.125 1.194 0.494 1.194h2.481c0.531 0 1.037-0.212 1.412-0.587l3.419-3.413h8l3.413 3.413c0.375 0.375 0.881 0.587 1.413 0.587h2.488c0.625 0 0.938-0.756 0.494-1.194l-2.875-2.875c2.875-0.444 5.069-2.931 5.069-5.931v-16c0-3.313-2.688-6-6-6h-16zM4 8c0-1.106 0.894-2 2-2h5c1.106 0 2 0.894 2 2v6c0 1.106-0.894 2-2 2h-5c-1.106 0-2-0.894-2-2v-6zM17 6h5c1.106 0 2 0.894 2 2v6c0 1.106-0.894 2-2 2h-5c-1.106 0-2-0.894-2-2v-6c0-1.106 0.894-2 2-2zM4 22c0-1.105 0.895-2 2-2s2 0.895 2 2v0c0 1.105-0.895 2-2 2s-2-0.895-2-2v0zM22 20c1.105 0 2 0.895 2 2s-0.895 2-2 2v0c-1.105 0-2-0.895-2-2s0.895-2 2-2v0z"/>
</svg>
