<svg version="1.1" xmlns="http://www.w3.org/2000/svg" width="40" height="32" viewBox="0 0 40 32">
<path fill="currentColor" d="M3 2c-1.656 0-3 1.344-3 3v16c0 1.656 1.344 3 3 3h1.069c0.487-3.394 3.4-6 6.931-6s6.444 2.606 6.931 6h20.069c1.106 0 2-0.894 2-2s-0.894-2-2-2h-4v-15c0-1.656-1.344-3-3-3h-28zM5 6c0.55 0 1 0.45 1 1v8.2c-0.713 0.369-1.388 0.806-2 1.313v-9.512c0-0.55 0.45-1 1-1zM11 14c-0.338 0-0.669 0.012-1 0.044v-7.044c0-0.55 0.45-1 1-1s1 0.45 1 1v7.044c-0.331-0.031-0.662-0.044-1-0.044zM16 15.2v-8.2c0-0.55 0.45-1 1-1s1 0.45 1 1v9.512c-0.613-0.506-1.288-0.95-2-1.313zM23 6c0.55 0 1 0.45 1 1v12c0 0.55-0.45 1-1 1s-1-0.45-1-1v-12c0-0.55 0.45-1 1-1zM30 7v12c0 0.55-0.45 1-1 1s-1-0.45-1-1v-12c0-0.55 0.45-1 1-1s1 0.45 1 1zM11 30c2.761 0 5-2.239 5-5s-2.239-5-5-5v0c-2.761 0-5 2.239-5 5s2.239 5 5 5v0zM11 23c1.105 0 2 0.895 2 2s-0.895 2-2 2v0c-1.105 0-2-0.895-2-2s0.895-2 2-2v0z"/>
</svg>
