<svg version="1.1" xmlns="http://www.w3.org/2000/svg" width="28" height="32" viewBox="0 0 28 32">
<path fill="currentColor" d="M5.425 3c-0.763 0-1.475 0.344-1.95 0.938l-0.806 1c-0.512 0.644-1.456 0.75-2.106 0.231s-0.75-1.456-0.231-2.106l0.794-1c1.044-1.3 2.625-2.063 4.3-2.063h17.15c1.669 0 3.25 0.762 4.294 2.063l0.8 1c0.519 0.65 0.413 1.594-0.238 2.106s-1.594 0.412-2.106-0.231l-0.794-1c-0.475-0.594-1.194-0.938-1.95-0.938h-7.081v3h2.5c3.313 0 6 2.688 6 6v10c0 1.913-0.894 3.613-2.288 4.712l4.094 4.094c0.444 0.444 0.131 1.194-0.494 1.194h-2.481c-0.531 0-1.038-0.212-1.413-0.587l-3.419-3.413h-8l-3.412 3.413c-0.375 0.375-0.881 0.587-1.412 0.587h-2.487c-0.625 0-0.938-0.756-0.494-1.194l4.094-4.094c-1.394-1.1-2.288-2.8-2.288-4.712v-10c0-3.313 2.688-6 6-6h2.5v-3h-7.075zM10 10c-1.106 0-2 0.894-2 2v2c0 1.106 0.894 2 2 2h8c1.106 0 2-0.894 2-2v-2c0-1.106-0.894-2-2-2h-8zM12 22c0-1.105-0.895-2-2-2s-2 0.895-2 2v0c0 1.105 0.895 2 2 2s2-0.895 2-2v0zM18 24c1.105 0 2-0.895 2-2s-0.895-2-2-2v0c-1.105 0-2 0.895-2 2s0.895 2 2 2v0z"/>
</svg>
