<svg version="1.1" xmlns="http://www.w3.org/2000/svg" width="32" height="32" viewBox="0 0 32 32">
<path fill="currentColor" d="M7 0c0.406 0 0.769 0.244 0.925 0.619s0.069 0.806-0.219 1.087l-1.938 1.938 1.231 1.237 0.438-0.438c0.588-0.587 1.537-0.587 2.119 0s0.588 1.537 0 2.119l-0.438 0.438 0.95 0.95c1.662-1.225 3.713-1.95 5.931-1.95s4.269 0.725 5.931 1.95l4.3-4.3-1.938-1.938c-0.288-0.288-0.369-0.719-0.219-1.087s0.519-0.619 0.925-0.619h6c0.55 0 1 0.45 1 1v6c0 0.406-0.244 0.769-0.619 0.925s-0.806 0.069-1.087-0.219l-1.938-1.938-4.3 4.3c1.219 1.656 1.944 3.706 1.944 5.925 0 5.012-3.688 9.163-8.5 9.887v1.113h1c0.831 0 1.5 0.669 1.5 1.5s-0.669 1.5-1.5 1.5h-1v0.5c0 0.831-0.669 1.5-1.5 1.5s-1.5-0.669-1.5-1.5v-0.5h-1c-0.831 0-1.5-0.669-1.5-1.5s0.669-1.5 1.5-1.5h1v-1.113c-4.813-0.725-8.5-4.875-8.5-9.887 0-2.219 0.725-4.269 1.95-5.931l-0.95-0.95-0.438 0.438c-0.588 0.588-1.537 0.588-2.119 0s-0.587-1.537 0-2.119l0.438-0.438-1.237-1.231-1.938 1.938c-0.288 0.287-0.719 0.369-1.087 0.219s-0.619-0.519-0.619-0.925v-6c0-0.55 0.45-1 1-1h6zM22 16c0-3.314-2.686-6-6-6s-6 2.686-6 6v0c0 3.314 2.686 6 6 6s6-2.686 6-6v0z"/>
</svg>
