<svg version="1.1" xmlns="http://www.w3.org/2000/svg" width="28" height="32" viewBox="0 0 28 32">
<path fill="currentColor" d="M10.238 0h7.525c0.756 0 1.45 0.425 1.788 1.106l0.45 0.894h6c1.106 0 2 0.894 2 2s-0.894 2-2 2h-24c-1.106 0-2-0.894-2-2s0.894-2 2-2h6l0.45-0.894c0.338-0.681 1.031-1.106 1.787-1.106zM2 8h24v20c0 2.206-1.794 4-4 4h-16c-2.206 0-4-1.794-4-4v-20zM14 12c-0.4 0-0.781 0.156-1.063 0.438l-5 5c-0.588 0.587-0.588 1.538 0 2.119s1.537 0.587 2.119 0l2.438-2.438v8.381c0 0.831 0.669 1.5 1.5 1.5s1.5-0.669 1.5-1.5v-8.381l2.437 2.438c0.587 0.587 1.538 0.587 2.119 0s0.587-1.538 0-2.119l-5-5c-0.281-0.281-0.662-0.438-1.063-0.438z"/>
</svg>
