<svg version="1.1" xmlns="http://www.w3.org/2000/svg" width="28" height="32" viewBox="0 0 28 32">
<path fill="currentColor" d="M8.45 1.106c0.338-0.681 1.031-1.106 1.787-1.106h7.525c0.756 0 1.45 0.425 1.788 1.106l0.45 0.894h6c1.106 0 2 0.894 2 2s-0.894 2-2 2h-24c-1.106 0-2-0.894-2-2s0.894-2 2-2h6l0.45-0.894zM2 8h24v20c0 2.206-1.794 4-4 4h-16c-2.206 0-4-1.794-4-4v-20zM8 12c-0.55 0-1 0.45-1 1v14c0 0.55 0.45 1 1 1s1-0.45 1-1v-14c0-0.55-0.45-1-1-1zM14 12c-0.55 0-1 0.45-1 1v14c0 0.55 0.45 1 1 1s1-0.45 1-1v-14c0-0.55-0.45-1-1-1zM20 12c-0.55 0-1 0.45-1 1v14c0 0.55 0.45 1 1 1s1-0.45 1-1v-14c0-0.55-0.45-1-1-1z"/>
</svg>
