<svg version="1.1" xmlns="http://www.w3.org/2000/svg" width="40" height="32" viewBox="0 0 40 32">
<path fill="currentColor" d="M18 3c0-1.656 1.344-3 3-3h6c1.656 0 3 1.344 3 3v9h2.5v-4.5c0-0.831 0.669-1.5 1.5-1.5s1.5 0.669 1.5 1.5v4.5h1.5c1.656 0 3 1.344 3 3v14c0 1.656-1.344 3-3 3h-16c-1.656 0-3-1.344-3-3v-26zM22 5v2c0 0.55 0.45 1 1 1h2c0.55 0 1-0.45 1-1v-2c0-0.55-0.45-1-1-1h-2c-0.55 0-1 0.45-1 1zM23 10c-0.55 0-1 0.45-1 1v2c0 0.55 0.45 1 1 1h2c0.55 0 1-0.45 1-1v-2c0-0.55-0.45-1-1-1h-2zM22 17v2c0 0.55 0.45 1 1 1h2c0.55 0 1-0.45 1-1v-2c0-0.55-0.45-1-1-1h-2c-0.55 0-1 0.45-1 1zM33 16c-0.55 0-1 0.45-1 1v2c0 0.55 0.45 1 1 1h2c0.55 0 1-0.45 1-1v-2c0-0.55-0.45-1-1-1h-2zM32 23v2c0 0.55 0.45 1 1 1h2c0.55 0 1-0.45 1-1v-2c0-0.55-0.45-1-1-1h-2c-0.55 0-1 0.45-1 1zM14 10c0 0.375-0.063 0.688-0.125 1 1.25 0.875 2.125 2.375 2.125 4 0 2.813-2.25 5-5 5h-1v10c0 1.125-0.938 2-2 2-1.125 0-2-0.875-2-2v-10h-1c-2.813 0-5-2.188-5-5 0-1.625 0.813-3.125 2.063-4-0.063-0.313-0.063-0.625-0.063-1 0-3.313 2.625-6 6-6 3.313 0 6 2.688 6 6z"/>
</svg>
