<svg version="1.1" xmlns="http://www.w3.org/2000/svg" width="28" height="32" viewBox="0 0 28 32">
<path fill="currentColor" d="M13.162 0.369l-9.287 10.219c-0.244 0.262-0.375 0.613-0.375 0.969 0 0.8 0.644 1.444 1.444 1.444h1.556l-4.588 4.587c-0.262 0.262-0.413 0.625-0.413 1 0 0.781 0.631 1.413 1.413 1.413h2.088l-4.662 5.594c-0.219 0.262-0.338 0.594-0.338 0.938 0 0.813 0.656 1.469 1.469 1.469h10.531v2c0 1.106 0.894 2 2 2s2-0.894 2-2v-2h10.531c0.813 0 1.469-0.656 1.469-1.469 0-0.344-0.119-0.675-0.337-0.938l-4.663-5.594h2.087c0.781 0 1.413-0.631 1.413-1.413 0-0.375-0.15-0.738-0.413-1l-4.587-4.588h1.556c0.794 0 1.444-0.644 1.444-1.444 0-0.356-0.131-0.706-0.375-0.969l-9.287-10.219c-0.213-0.237-0.519-0.369-0.838-0.369s-0.625 0.131-0.838 0.369z"/>
</svg>
