<svg version="1.1" xmlns="http://www.w3.org/2000/svg" width="32" height="32" viewBox="0 0 32 32">
<path fill="currentColor" d="M21.494 13.338l-6.162 6.162 4.088 4.087c0.494 0.494 0.694 1.212 0.525 1.894s-0.675 1.225-1.344 1.431l-16 5c-0.712 0.219-1.488 0.031-2.013-0.494s-0.719-1.306-0.494-2.012l5-16c0.206-0.669 0.75-1.181 1.431-1.344s1.4 0.031 1.894 0.525l4.081 4.081 6.162-6.162c-0.894-0.912-0.887-2.375 0.019-3.281l5.963-5.963c1.681-1.681 4.406-1.681 6.094 0s1.681 4.406 0 6.094l-5.962 5.963c-0.906 0.906-2.369 0.912-3.281 0.019z"/>
</svg>
