<svg version="1.1" xmlns="http://www.w3.org/2000/svg" width="32" height="32" viewBox="0 0 32 32">
<path fill="currentColor" d="M15.050 0.3c0.594 0.362 0.95 1.006 0.95 1.7v4.5h5.563c0.225-0.862 1.006-1.5 1.938-1.5h5.5c1.656 0 3 1.344 3 3s-1.344 3-3 3h-5.5c-0.931 0-1.712-0.637-1.938-1.5h-5.563v4.5c0 0.694-0.356 1.338-0.95 1.7s-1.325 0.4-1.944 0.088l-12-6c-0.681-0.338-1.106-1.031-1.106-1.787s0.425-1.45 1.106-1.787l12-6c0.619-0.313 1.356-0.275 1.944 0.088zM18 16c0-1.106 0.894-2 2-2h10c1.106 0 2 0.894 2 2v4c0 1.106-0.894 2-2 2h-10c-1.106 0-2-0.894-2-2v-4zM2 24h6c1.106 0 2 0.894 2 2v4c0 1.106-0.894 2-2 2h-6c-1.106 0-2-0.894-2-2v-4c0-1.106 0.894-2 2-2zM14 24h16c1.106 0 2 0.894 2 2v4c0 1.106-0.894 2-2 2h-16c-1.106 0-2-0.894-2-2v-4c0-1.106 0.894-2 2-2z"/>
</svg>
