<svg version="1.1" xmlns="http://www.w3.org/2000/svg" width="40" height="32" viewBox="0 0 40 32">
<path fill="currentColor" d="M0 3c0-1.656 1.344-3 3-3h20c1.656 0 3 1.344 3 3v3h3.169c1.063 0 2.081 0.419 2.831 1.169l4.831 4.831c0.75 0.75 1.169 1.769 1.169 2.831v7.169c1.106 0 2 0.894 2 2s-0.894 2-2 2h-2c0 3.313-2.688 6-6 6s-6-2.688-6-6h-8c0 3.313-2.688 6-6 6s-6-2.688-6-6h-1c-1.656 0-3-1.344-3-3v-20zM26 16h8v-1.169l-4.831-4.831h-3.169v6zM10 29c1.657 0 3-1.343 3-3s-1.343-3-3-3v0c-1.657 0-3 1.343-3 3s1.343 3 3 3v0zM33 26c0-1.657-1.343-3-3-3s-3 1.343-3 3v0c0 1.657 1.343 3 3 3s3-1.343 3-3v0zM11 5v3h-3c-0.55 0-1 0.45-1 1v2c0 0.55 0.45 1 1 1h3v3c0 0.55 0.45 1 1 1h2c0.55 0 1-0.45 1-1v-3h3c0.55 0 1-0.45 1-1v-2c0-0.55-0.45-1-1-1h-3v-3c0-0.55-0.45-1-1-1h-2c-0.55 0-1 0.45-1 1z"/>
</svg>
