<svg version="1.1" xmlns="http://www.w3.org/2000/svg" width="40" height="32" viewBox="0 0 40 32">
<path fill="currentColor" d="M6 2c-2.206 0-4 1.794-4 4v2c-1.106 0-2 0.894-2 2v6c0 1.106 0.894 2 2 2v2c-1.106 0-2 0.894-2 2s0.894 2 2 2h2c0 3.313 2.688 6 6 6s6-2.688 6-6h8c0 3.313 2.688 6 6 6s6-2.688 6-6h2c1.106 0 2-0.894 2-2s-0.894-2-2-2v-2c0-2.206-1.794-4-4-4h-0.263c-0.025-0.069-0.056-0.131-0.081-0.2l-3.3-7.425c-0.644-1.444-2.075-2.375-3.656-2.375h-3.238c-0.688-1.194-1.981-2-3.462-2h-14zM24 8h2.7l2.669 6h-5.369v-6zM7 24c0-1.657 1.343-3 3-3s3 1.343 3 3v0c0 1.657-1.343 3-3 3s-3-1.343-3-3v0zM30 21c1.657 0 3 1.343 3 3s-1.343 3-3 3v0c-1.657 0-3-1.343-3-3s1.343-3 3-3v0zM15.831 8.444l2.169 3.25v-2.694c0-0.55 0.45-1 1-1s1 0.45 1 1v6c0 0.444-0.288 0.831-0.712 0.956s-0.875-0.037-1.119-0.4l-2.169-3.25v2.694c0 0.55-0.45 1-1 1s-1-0.45-1-1v-6c0-0.444 0.287-0.831 0.713-0.956s0.875 0.037 1.119 0.4zM8 9v4c0 0.55 0.45 1 1 1s1-0.45 1-1v-4c0-0.55 0.45-1 1-1s1 0.45 1 1v4c0 1.656-1.344 3-3 3s-3-1.344-3-3v-4c0-0.55 0.45-1 1-1s1 0.45 1 1z"/>
</svg>
