<svg version="1.1" xmlns="http://www.w3.org/2000/svg" width="40" height="32" viewBox="0 0 40 32">
<path fill="currentColor" d="M2 6c0-2.206 1.794-4 4-4h14c1.481 0 2.775 0.806 3.462 2h3.238c1.581 0 3.012 0.931 3.656 2.375l3.3 7.425c0.031 0.069 0.056 0.131 0.081 0.2h0.263c2.206 0 4 1.794 4 4v2c1.106 0 2 0.894 2 2s-0.894 2-2 2h-2c0 3.313-2.688 6-6 6s-6-2.688-6-6h-8c0 3.313-2.688 6-6 6s-6-2.688-6-6h-2c-1.106 0-2-0.894-2-2s0.894-2 2-2v-2c-1.106 0-2-0.894-2-2v-6c0-1.106 0.894-2 2-2v-2zM24 14h5.369l-2.669-6h-2.7v6zM10 27c1.657 0 3-1.343 3-3s-1.343-3-3-3v0c-1.657 0-3 1.343-3 3s1.343 3 3 3v0zM33 24c0-1.657-1.343-3-3-3s-3 1.343-3 3v0c0 1.657 1.343 3 3 3s3-1.343 3-3v0z"/>
</svg>
