<svg version="1.1" xmlns="http://www.w3.org/2000/svg" width="40" height="32" viewBox="0 0 40 32">
<path fill="currentColor" d="M23.038 6l4.8 6h-9.838v-6h5.038zM14 5v7h-10c-1.106 0-2 0.894-2 2v4c-1.106 0-2 0.894-2 2s0.894 2 2 2h2.069c-0.044 0.325-0.069 0.663-0.069 1 0 3.869 3.131 7 7 7s7-3.131 7-7c0-0.337-0.025-0.675-0.069-1h4.144c-0.044 0.325-0.069 0.663-0.069 1 0 3.869 3.131 7 7 7s7-3.131 7-7c0-0.337-0.025-0.675-0.069-1h2.063c1.106 0 2-0.894 2-2s-0.894-2-2-2v-4c0-1.106-0.894-2-2-2h-3.038l-6.8-8.5c-0.756-0.95-1.906-1.5-3.125-1.5h-6.037c-1.656 0-3 1.344-3 3zM14 23c0 1.657-1.343 3-3 3s-3-1.343-3-3v0c0-1.657 1.343-3 3-3s3 1.343 3 3v0zM32 23c0 1.657-1.343 3-3 3s-3-1.343-3-3v0c0-1.657 1.343-3 3-3s3 1.343 3 3v0z"/>
</svg>
