<svg version="1.1" xmlns="http://www.w3.org/2000/svg" width="40" height="32" viewBox="0 0 40 32">
<path fill="currentColor" d="M7 0c-1.656 0-3 1.344-3 3v3h-3c-0.55 0-1 0.45-1 1s0.45 1 1 1h16c0.55 0 1 0.45 1 1s-0.45 1-1 1h-14c-0.55 0-1 0.45-1 1s0.45 1 1 1h12c0.55 0 1 0.45 1 1s-0.45 1-1 1h-14c-0.55 0-1 0.45-1 1s0.45 1 1 1h12c0.55 0 1 0.45 1 1s-0.45 1-1 1h-9v8c0 3.313 2.688 6 6 6s6-2.688 6-6h8c0 3.313 2.688 6 6 6s6-2.688 6-6h2c1.106 0 2-0.894 2-2s-0.894-2-2-2v-7.169c0-1.063-0.419-2.081-1.169-2.831l-4.831-4.831c-0.75-0.75-1.769-1.169-2.831-1.169h-3.169v-3c0-1.656-1.344-3-3-3h-16zM34 14.831v1.169h-8v-6h3.169l4.831 4.831zM10 23c1.657 0 3 1.343 3 3s-1.343 3-3 3v0c-1.657 0-3-1.343-3-3s1.343-3 3-3v0zM27 26c0-1.657 1.343-3 3-3s3 1.343 3 3v0c0 1.657-1.343 3-3 3s-3-1.343-3-3v0z"/>
</svg>
