<svg version="1.1" xmlns="http://www.w3.org/2000/svg" width="40" height="32" viewBox="0 0 40 32">
<path fill="currentColor" d="M40 0v25c0 3.869-3.131 7-7 7-3.813 0-6.906-3.044-7-6.831l-22.975 6.262c-1.069 0.288-2.163-0.337-2.456-1.406s0.338-2.163 1.406-2.456l20.025-5.456v-18.113c0-2.206 1.794-4 4-4h14zM36 25c0-1.657-1.343-3-3-3s-3 1.343-3 3v0c0 1.657 1.343 3 3 3s3-1.343 3-3v0zM1.444 12.981c-0.288-1.069 0.35-2.162 1.413-2.45l2.9-0.775 1.294 4.831c0.144 0.531 0.694 0.85 1.225 0.706l1.931-0.519c0.531-0.144 0.85-0.694 0.706-1.225l-1.294-4.831 2.9-0.775c1.069-0.287 2.162 0.35 2.45 1.412l2.587 9.656c0.288 1.069-0.35 2.163-1.413 2.45l-9.662 2.594c-1.069 0.288-2.162-0.35-2.45-1.413l-2.587-9.662z"/>
</svg>
