<svg version="1.1" xmlns="http://www.w3.org/2000/svg" width="40" height="32" viewBox="0 0 40 32">
<path fill="currentColor" d="M12.5 0c-1.912 0-3.5 3.419-3.5 5.381v6.65l-8.512 5.113c-0.306 0.181-0.487 0.506-0.487 0.856v4c0 0.319 0.15 0.613 0.4 0.8s0.581 0.244 0.881 0.156l7.712-2.313v5.075l-3.125 2.5c-0.237 0.188-0.375 0.475-0.375 0.781v2c0 0.319 0.156 0.625 0.412 0.813s0.594 0.237 0.9 0.137l5.694-1.894 5.65 1.881c-0.1-0.294-0.15-0.613-0.15-0.938v-2.038c-1.137-0.656-1.919-1.856-1.994-3.238l-0.006-0.006v-20.337c0-1.962-1.531-5.381-3.5-5.381zM18 11v14c0 1.306 0.837 2.419 2 2.831v2.669c0 0.831 0.669 1.5 1.5 1.5h1c0.831 0 1.5-0.669 1.5-1.5v-2.5h10v2.5c0 0.831 0.669 1.5 1.5 1.5h1c0.831 0 1.5-0.669 1.5-1.5v-2.669c1.163-0.413 2-1.525 2-2.831v-14c0-1.656-1.344-3-3-3h-16c-1.656 0-3 1.344-3 3zM22.988 15.919c0.206-0.544 0.7-0.919 1.281-0.919h9.463c0.575 0 1.075 0.375 1.281 0.919l0.987 3.081h-14l0.988-3.081zM35.5 22c0.828 0 1.5 0.672 1.5 1.5s-0.672 1.5-1.5 1.5v0c-0.828 0-1.5-0.672-1.5-1.5s0.672-1.5 1.5-1.5v0zM21 23.5c0-0.828 0.672-1.5 1.5-1.5s1.5 0.672 1.5 1.5v0c0 0.828-0.672 1.5-1.5 1.5s-1.5-0.672-1.5-1.5v0z"/>
</svg>
