<svg version="1.1" xmlns="http://www.w3.org/2000/svg" width="40" height="32" viewBox="0 0 40 32">
<path fill="currentColor" d="M4 2c-2.206 0-4 1.794-4 4v19c0 2.762 2.237 5 5 5 1.638 0 3.088-0.788 4-2 0.912 1.212 2.363 2 4 2 2.762 0 5-2.238 5-5 0-0.344-0.038-0.675-0.1-1h10.2c-0.063 0.325-0.1 0.656-0.1 1 0 2.762 2.238 5 5 5s5-2.238 5-5c0-0.344-0.038-0.675-0.1-1h0.1c1.106 0 2-0.894 2-2v-5.644c0-0.575-0.2-1.137-0.563-1.581l-3.675-4.488c-0.663-0.813-1.656-1.281-2.706-1.281h-3.056v-3.006c0-2.206-1.794-4-4-4h-22zM36.563 16h-6.563v-4h3.050c0.15 0 0.294 0.069 0.388 0.181l3.125 3.819zM33 23c1.105 0 2 0.895 2 2s-0.895 2-2 2v0c-1.105 0-2-0.895-2-2s0.895-2 2-2v0zM11 25c0-1.105 0.895-2 2-2s2 0.895 2 2v0c0 1.105-0.895 2-2 2s-2-0.895-2-2v0zM5 23c1.105 0 2 0.895 2 2s-0.895 2-2 2v0c-1.105 0-2-0.895-2-2s0.895-2 2-2v0z"/>
</svg>
