<svg version="1.1" xmlns="http://www.w3.org/2000/svg" width="40" height="32" viewBox="0 0 40 32">
<path fill="currentColor" d="M18 4v4h8l-3-4h-5zM26.2 1.6l4.8 6.4h5c1.106 0 2 0.894 2 2v4c1.106 0 2 0.894 2 2s-0.894 2-2 2c-1.825-2.431-4.731-4-8-4s-6.175 1.569-8 4h-4c-1.825-2.431-4.731-4-8-4s-6.175 1.569-8 4c-1.106 0-2-0.894-2-2s0.894-2 2-2v-4c0-1.106 0.894-2 2-2h10v-5c0-1.656 1.344-3 3-3h6c1.256 0 2.444 0.594 3.2 1.6zM9.5 16h1c0.756 0 1.381 0.556 1.488 1.288 0.475 0.137 0.931 0.331 1.356 0.563 0.588-0.438 1.425-0.394 1.956 0.144l0.706 0.706c0.538 0.538 0.581 1.369 0.144 1.956 0.231 0.425 0.425 0.881 0.563 1.356 0.725 0.106 1.288 0.731 1.288 1.488v1c0 0.756-0.556 1.381-1.288 1.488-0.137 0.475-0.331 0.931-0.563 1.356 0.438 0.587 0.394 1.425-0.144 1.956l-0.706 0.706c-0.537 0.538-1.369 0.581-1.956 0.137-0.425 0.231-0.881 0.425-1.356 0.563-0.106 0.738-0.731 1.294-1.488 1.294h-1c-0.756 0-1.381-0.556-1.488-1.288-0.475-0.137-0.931-0.331-1.356-0.563-0.588 0.444-1.425 0.394-1.956-0.137l-0.712-0.706c-0.538-0.538-0.581-1.369-0.144-1.956-0.231-0.431-0.425-0.881-0.563-1.363-0.725-0.106-1.281-0.731-1.281-1.488v-1c0-0.756 0.556-1.381 1.288-1.488 0.138-0.475 0.331-0.931 0.563-1.363-0.438-0.587-0.394-1.425 0.144-1.956l0.706-0.706c0.537-0.538 1.369-0.581 1.956-0.144 0.425-0.231 0.881-0.425 1.356-0.563 0.106-0.725 0.731-1.287 1.488-1.287zM10 27c1.657 0 3-1.343 3-3s-1.343-3-3-3v0c-1.657 0-3 1.343-3 3s1.343 3 3 3v0zM28.012 17.288c0.106-0.725 0.731-1.288 1.488-1.288h1c0.756 0 1.381 0.556 1.488 1.288 0.475 0.137 0.931 0.331 1.363 0.563 0.587-0.438 1.425-0.394 1.956 0.144l0.706 0.706c0.538 0.538 0.581 1.369 0.138 1.956 0.231 0.425 0.425 0.881 0.563 1.356 0.725 0.106 1.288 0.731 1.288 1.488v1c0 0.756-0.556 1.381-1.288 1.488-0.138 0.475-0.331 0.931-0.563 1.356 0.438 0.587 0.394 1.425-0.138 1.956l-0.706 0.706c-0.538 0.538-1.369 0.581-1.956 0.137-0.431 0.231-0.881 0.425-1.363 0.563-0.106 0.738-0.731 1.294-1.488 1.294h-1c-0.756 0-1.381-0.556-1.488-1.288-0.475-0.137-0.931-0.331-1.356-0.563-0.587 0.444-1.425 0.394-1.956-0.137l-0.706-0.706c-0.538-0.538-0.581-1.369-0.137-1.956-0.231-0.431-0.425-0.881-0.563-1.363-0.738-0.106-1.294-0.731-1.294-1.488v-1c0-0.756 0.556-1.381 1.288-1.488 0.137-0.475 0.331-0.931 0.563-1.363-0.438-0.587-0.394-1.425 0.137-1.956l0.706-0.706c0.538-0.538 1.369-0.581 1.956-0.144 0.425-0.231 0.881-0.425 1.356-0.563zM33 24c0-1.657-1.343-3-3-3s-3 1.343-3 3v0c0 1.657 1.343 3 3 3s3-1.343 3-3v0z"/>
</svg>
