<svg version="1.1" xmlns="http://www.w3.org/2000/svg" width="32" height="32" viewBox="0 0 32 32">
<path fill="currentColor" d="M0 5c0-2.763 2.237-5 5-5h22c2.762 0 5 2.237 5 5v18c0 1.637-0.788 3.087-2 4v3c0 1.106-0.894 2-2 2h-2c-1.106 0-2-0.894-2-2v-2h-16v2c0 1.106-0.894 2-2 2h-2c-1.106 0-2-0.894-2-2v-3c-1.212-0.913-2-2.363-2-4v-18zM8.119 9.512l-1.119 4.488h18l-1.119-4.488c-0.225-0.887-1.025-1.513-1.944-1.513h-11.875c-0.919 0-1.719 0.625-1.938 1.513zM8 20c0-1.105-0.895-2-2-2s-2 0.895-2 2v0c0 1.105 0.895 2 2 2s2-0.895 2-2v0zM26 22c1.105 0 2-0.895 2-2s-0.895-2-2-2v0c-1.105 0-2 0.895-2 2s0.895 2 2 2v0z"/>
</svg>
