<svg version="1.1" xmlns="http://www.w3.org/2000/svg" width="32" height="32" viewBox="0 0 32 32">
<path fill="currentColor" d="M2.394 15.081l-1.45-2.544c-0.575-1.012-0.525-2.281 0.281-3.125 2.612-2.737 7.819-6.412 14.775-6.412s12.163 3.675 14.775 6.412c0.806 0.844 0.856 2.113 0.281 3.125l-1.444 2.544c-0.469 0.825-1.456 1.206-2.363 0.912l-5.069-1.662c-0.819-0.269-1.375-1.037-1.375-1.9v-3.431c-3.1-1.131-6.5-1.131-9.6 0v3.425c0 0.863-0.556 1.631-1.375 1.9l-5.075 1.662c-0.906 0.294-1.894-0.088-2.362-0.912zM2 21c0-0.55 0.45-1 1-1h2c0.55 0 1 0.45 1 1v2c0 0.55-0.45 1-1 1h-2c-0.55 0-1-0.45-1-1v-2zM2 27c0-0.55 0.45-1 1-1h2c0.55 0 1 0.45 1 1v2c0 0.55-0.45 1-1 1h-2c-0.55 0-1-0.45-1-1v-2zM9 20h2c0.55 0 1 0.45 1 1v2c0 0.55-0.45 1-1 1h-2c-0.55 0-1-0.45-1-1v-2c0-0.55 0.45-1 1-1zM14 21c0-0.55 0.45-1 1-1h2c0.55 0 1 0.45 1 1v2c0 0.55-0.45 1-1 1h-2c-0.55 0-1-0.45-1-1v-2zM21 20h2c0.55 0 1 0.45 1 1v2c0 0.55-0.45 1-1 1h-2c-0.55 0-1-0.45-1-1v-2c0-0.55 0.45-1 1-1zM26 21c0-0.55 0.45-1 1-1h2c0.55 0 1 0.45 1 1v2c0 0.55-0.45 1-1 1h-2c-0.55 0-1-0.45-1-1v-2zM27 26h2c0.55 0 1 0.45 1 1v2c0 0.55-0.45 1-1 1h-2c-0.55 0-1-0.45-1-1v-2c0-0.55 0.45-1 1-1zM8 27c0-0.55 0.45-1 1-1h14c0.55 0 1 0.45 1 1v2c0 0.55-0.45 1-1 1h-14c-0.55 0-1-0.45-1-1v-2z"/>
</svg>
