<svg version="1.1" xmlns="http://www.w3.org/2000/svg" width="24" height="32" viewBox="0 0 24 32">
<path fill="currentColor" d="M6 2c1.106 0 2 0.894 2 2v2.206l7.45-2.131c1.063-0.306 2.169 0.313 2.475 1.375s-0.313 2.169-1.375 2.475l-8.55 2.444v1.838l7.45-2.131c1.063-0.306 2.169 0.313 2.475 1.375s-0.313 2.169-1.375 2.475l-8.55 2.444v9.631h3.988c4.262 0 7.775-3.344 7.988-7.6l0.025-0.5c0.056-1.106 0.994-1.95 2.1-1.9s1.95 0.994 1.9 2.1l-0.025 0.5c-0.319 6.387-5.594 11.4-11.988 11.4h-5.987c-1.106 0-2-0.894-2-2v-10.494l-1.45 0.413c-1.063 0.306-2.169-0.313-2.475-1.375s0.313-2.169 1.375-2.475l2.55-0.719v-1.844l-1.45 0.412c-1.063 0.306-2.169-0.313-2.475-1.375s0.313-2.169 1.375-2.475l2.55-0.719v-3.35c0-1.106 0.894-2 2-2z"/>
</svg>
