<svg version="1.1" xmlns="http://www.w3.org/2000/svg" width="36" height="32" viewBox="0 0 36 32">
<path fill="currentColor" d="M21.644 16.988l-3.756-1.369-4.512 12.381h-11.375c-1.106 0-2 0.894-2 2s0.894 2 2 2h32c1.106 0 2-0.894 2-2s-0.894-2-2-2h-16.369l4.006-11.012zM29.212 16.975l-0.206 0.569 4.231 1.538c1.131 0.413 2.375-0.262 2.475-1.462 0.406-4.906-1.494-9.719-5.050-13.031 0.125 0.5 0.2 1.019 0.212 1.55l0.012 0.375c0.113 3.563-0.456 7.112-1.675 10.462zM28.875 6.194c-0.069-2.15-1.406-4.050-3.4-4.838-0.056-0.025-0.119-0.044-0.175-0.069-2.063-0.731-4.363-0.15-5.819 1.488l-0.25 0.281c-2.206 2.462-3.919 5.331-5.056 8.444l-0.206 0.569 13.156 4.787 0.206-0.569c1.131-3.113 1.663-6.406 1.556-9.719l-0.012-0.375zM6.7 7.056c-0.694 0.981-0.175 2.3 0.956 2.713l4.438 1.613 0.206-0.569c1.219-3.35 3.069-6.438 5.444-9.094l0.25-0.281c0.387-0.431 0.819-0.813 1.281-1.137-4.975 0.156-9.669 2.638-12.575 6.75z"/>
</svg>
