<svg version="1.1" xmlns="http://www.w3.org/2000/svg" width="36" height="32" viewBox="0 0 36 32">
<path fill="currentColor" d="M18 0c1.106 0 2 0.894 2 2v1.106c8.238 0.856 14.856 6.956 15.869 14.762 0.125 0.975-1.081 1.525-1.737 0.794-0.875-0.975-2.581-1.663-4.131-1.663-2.419 0-4.438 1.719-4.9 4.006-0.106 0.544-0.544 0.994-1.1 0.994s-0.988-0.45-1.1-0.994c-0.462-2.288-2.481-4.006-4.9-4.006s-4.438 1.719-4.9 4.006c-0.106 0.544-0.544 0.994-1.1 0.994s-0.988-0.45-1.1-0.994c-0.463-2.288-2.481-4.006-4.9-4.006-1.55 0-3.256 0.688-4.131 1.669-0.656 0.731-1.863 0.175-1.738-0.8 1.012-7.806 7.631-13.906 15.869-14.762v-1.106c0-1.106 0.894-2 2-2zM18 19c0.769 0 1.469 0.288 2 0.762v7.15c0 2.813-2.281 5.087-5.088 5.087-1.925 0-3.688-1.087-4.55-2.813l-0.144-0.294c-0.494-0.988-0.094-2.188 0.894-2.681s2.188-0.094 2.681 0.894l0.144 0.294c0.188 0.369 0.563 0.6 0.975 0.6 0.6 0 1.087-0.488 1.087-1.087v-7.15c0.531-0.475 1.231-0.762 2-0.762z"/>
</svg>
