<svg version="1.1" xmlns="http://www.w3.org/2000/svg" width="32" height="32" viewBox="0 0 32 32">
<path fill="currentColor" d="M0 16c0-8.837 7.163-16 16-16s16 7.163 16 16v0c0 8.837-7.163 16-16 16s-16-7.163-16-16v0zM10.094 10.619c-0.762-0.325-1.644 0.025-1.969 0.787s0.025 1.644 0.787 1.969l0.744 0.319c1.081 0.463 2.2 0.806 3.35 1.019v3.131c0 0.269-0.044 0.538-0.131 0.788l-1.794 5.381c-0.262 0.788 0.162 1.637 0.95 1.9s1.637-0.163 1.9-0.95l1.525-4.575c0.081-0.238 0.3-0.4 0.55-0.4s0.475 0.163 0.55 0.4l1.525 4.575c0.262 0.788 1.113 1.212 1.9 0.95s1.212-1.113 0.95-1.9l-1.794-5.381c-0.087-0.256-0.131-0.519-0.131-0.788v-3.125c1.15-0.219 2.269-0.556 3.35-1.019l0.744-0.319c0.762-0.325 1.113-1.206 0.788-1.969s-1.206-1.113-1.969-0.787l-0.75 0.313c-1.631 0.7-3.387 1.063-5.169 1.063s-3.531-0.363-5.169-1.063l-0.744-0.319zM16 10c1.381 0 2.5-1.119 2.5-2.5s-1.119-2.5-2.5-2.5v0c-1.381 0-2.5 1.119-2.5 2.5s1.119 2.5 2.5 2.5v0z"/>
</svg>
