<svg version="1.1" xmlns="http://www.w3.org/2000/svg" width="32" height="32" viewBox="0 0 32 32">
<path fill="currentColor" d="M17.413 0.588c-0.781-0.781-2.050-0.781-2.831 0l-4 4c-0.575 0.575-0.744 1.431-0.431 2.181s1.037 1.238 1.85 1.238h2v6h-6v-2.006c0-0.806-0.487-1.537-1.237-1.85s-1.606-0.137-2.181 0.431l-4 4c-0.781 0.781-0.781 2.050 0 2.831l4 4c0.575 0.575 1.431 0.744 2.181 0.431s1.238-1.038 1.238-1.85v-1.994h6v6h-2c-0.806 0-1.537 0.488-1.85 1.238s-0.137 1.606 0.431 2.181l4 4c0.781 0.781 2.050 0.781 2.831 0l4-4c0.575-0.575 0.744-1.431 0.431-2.181s-1.038-1.238-1.85-1.238h-1.994v-6h6v2c0 0.806 0.488 1.538 1.238 1.85s1.606 0.137 2.181-0.431l4-4c0.781-0.781 0.781-2.050 0-2.831l-4-4c-0.575-0.575-1.431-0.744-2.181-0.431s-1.238 1.037-1.238 1.85v2h-6v-6.006h2c0.806 0 1.538-0.487 1.85-1.237s0.137-1.606-0.431-2.181l-4-4z"/>
</svg>
