<svg version="1.1" xmlns="http://www.w3.org/2000/svg" width="16" height="32" viewBox="0 0 16 32">
<path fill="currentColor" d="M9.1 0.481c-0.287-0.306-0.681-0.481-1.1-0.481s-0.813 0.175-1.1 0.481l-6.5 7c-0.406 0.438-0.512 1.075-0.275 1.619s0.781 0.9 1.375 0.9h3.5v12h-3.5c-0.594 0-1.137 0.356-1.375 0.9s-0.131 1.181 0.275 1.619l6.5 7c0.281 0.306 0.681 0.481 1.1 0.481s0.813-0.175 1.1-0.481l6.5-7c0.406-0.438 0.513-1.075 0.275-1.619s-0.781-0.9-1.375-0.9h-3.5v-12h3.5c0.594 0 1.137-0.356 1.375-0.9s0.131-1.181-0.275-1.619l-6.5-7z"/>
</svg>
