<svg version="1.1" xmlns="http://www.w3.org/2000/svg" width="32" height="32" viewBox="0 0 32 32">
<path fill="currentColor" d="M22 0c-0.806 0-1.538 0.487-1.85 1.238s-0.137 1.606 0.431 2.181l2.587 2.581-10.581 10.587c-0.781 0.781-0.781 2.050 0 2.831s2.050 0.781 2.831 0l10.581-10.588 2.587 2.588c0.575 0.575 1.431 0.744 2.181 0.431s1.238-1.037 1.238-1.85v-8c0-1.106-0.894-2-2-2h-8.006zM5 2c-2.763 0-5 2.237-5 5v20c0 2.762 2.237 5 5 5h20c2.762 0 5-2.238 5-5v-7c0-1.106-0.894-2-2-2s-2 0.894-2 2v7c0 0.55-0.45 1-1 1h-20c-0.55 0-1-0.45-1-1v-20c0-0.55 0.45-1 1-1h7c1.106 0 2-0.894 2-2s-0.894-2-2-2h-7z"/>
</svg>
