<svg version="1.1" xmlns="http://www.w3.org/2000/svg" width="32" height="32" viewBox="0 0 32 32">
<path fill="currentColor" d="M18 6.831v15.169c0 1.106-0.894 2-2 2s-2-0.894-2-2v-15.169l-4.588 4.588c-0.781 0.781-2.050 0.781-2.831 0s-0.781-2.050 0-2.831l8-8c0.781-0.781 2.050-0.781 2.831 0l8 8c0.781 0.781 0.781 2.050 0 2.831s-2.050 0.781-2.831 0l-4.581-4.588zM4 22h8c0 2.206 1.794 4 4 4s4-1.794 4-4h8c2.206 0 4 1.794 4 4v2c0 2.206-1.794 4-4 4h-24c-2.206 0-4-1.794-4-4v-2c0-2.206 1.794-4 4-4zM27 28.5c0.828 0 1.5-0.672 1.5-1.5s-0.672-1.5-1.5-1.5v0c-0.828 0-1.5 0.672-1.5 1.5s0.672 1.5 1.5 1.5v0z"/>
</svg>
