<svg version="1.1" xmlns="http://www.w3.org/2000/svg" width="40" height="32" viewBox="0 0 40 32">
<path fill="currentColor" d="M2.425 0.319c-0.65-0.512-1.594-0.394-2.106 0.256s-0.394 1.594 0.256 2.106l37 29c0.65 0.513 1.594 0.394 2.106-0.256s0.394-1.594-0.256-2.106l-17.344-13.594c3.413-0.912 5.919-4.025 5.919-7.725 0-4.419-3.581-8-8-8-4.363 0-7.906 3.487-8 7.825l-9.575-7.506zM16.519 19.019c-5.863 0.319-10.519 5.181-10.519 11.125 0 1.025 0.831 1.856 1.856 1.856h24.288c0.244 0 0.475-0.044 0.688-0.131l-16.313-12.85z"/>
</svg>
