<svg version="1.1" xmlns="http://www.w3.org/2000/svg" width="28" height="32" viewBox="0 0 28 32">
<path fill="currentColor" d="M14 16c-4.418 0-8-3.582-8-8s3.582-8 8-8v0c4.418 0 8 3.582 8 8s-3.582 8-8 8v0zM13.069 22.45l-1.162-1.938c-0.4-0.669 0.081-1.512 0.856-1.512h2.469c0.775 0 1.256 0.85 0.856 1.512l-1.162 1.938 2.088 7.744 2.25-9.181c0.125-0.506 0.613-0.837 1.119-0.706 4.381 1.1 7.619 5.063 7.619 9.775 0 1.063-0.863 1.919-1.919 1.919h-8.238c-0.131 0-0.25-0.025-0.363-0.069l0.019 0.069h-7l0.019-0.069c-0.113 0.044-0.238 0.069-0.363 0.069h-8.238c-1.056 0-1.919-0.863-1.919-1.919 0-4.719 3.244-8.681 7.619-9.775 0.506-0.125 0.994 0.206 1.119 0.706l2.25 9.181 2.088-7.744z"/>
</svg>
