<svg version="1.1" xmlns="http://www.w3.org/2000/svg" width="28" height="32" viewBox="0 0 28 32">
<path fill="currentColor" d="M14 16c-3.575 0-6.6-2.344-7.625-5.581-0.069 0.081-0.138 0.162-0.219 0.238-0.987 0.988-2.425 1.294-3.35 1.381-0.506 0.050-0.913-0.356-0.863-0.863 0.088-0.919 0.394-2.362 1.381-3.35 0.362-0.362 0.787-0.631 1.225-0.838-0.438-0.2-0.862-0.475-1.225-0.838-0.988-0.981-1.288-2.419-1.381-3.344-0.050-0.506 0.356-0.913 0.862-0.863 0.919 0.088 2.362 0.394 3.35 1.381 0.3 0.3 0.544 0.65 0.731 1.006 1.325-2.569 4.013-4.331 7.112-4.331 4.419 0 8 3.581 8 8s-3.581 8-8 8zM0 30.144c0-5.175 3.525-9.519 8.3-10.775 0.375-0.1 0.762 0.056 0.994 0.363l3.906 5.206c0.4 0.531 1.2 0.531 1.6 0l3.906-5.206c0.231-0.306 0.619-0.462 0.994-0.363 4.775 1.256 8.3 5.6 8.3 10.775 0 1.025-0.831 1.856-1.856 1.856h-24.288c-1.025 0-1.856-0.831-1.856-1.856zM10 6c-0.55 0-1 0.45-1 1s0.45 1 1 1h8c0.55 0 1-0.45 1-1s-0.45-1-1-1h-8z"/>
</svg>
