<svg version="1.1" xmlns="http://www.w3.org/2000/svg" width="28" height="32" viewBox="0 0 28 32">
<path fill="currentColor" d="M13.706 0.031c0.194-0.037 0.394-0.037 0.588 0l12.5 2.5c0.7 0.138 1.206 0.756 1.206 1.469s-0.506 1.331-1.206 1.469l-4.794 0.963v3.569c0 4.419-3.581 8-8 8s-8-3.581-8-8v-3.569l-3-0.6v4.069l0.981 4.9c0.056 0.294-0.019 0.6-0.206 0.831s-0.475 0.369-0.775 0.369h-2c-0.3 0-0.581-0.131-0.775-0.369s-0.269-0.537-0.206-0.831l0.981-4.9v-4.487c-0.594-0.206-1-0.769-1-1.413 0-0.712 0.506-1.331 1.206-1.469l12.5-2.5zM6.994 20.481c0.656-0.212 1.363 0.025 1.838 0.531l4.438 4.719c0.394 0.419 1.063 0.419 1.456 0l4.438-4.719c0.475-0.506 1.181-0.744 1.837-0.531 4.063 1.306 7 5.106 7 9.6 0 1.063-0.863 1.919-1.919 1.919h-24.163c-1.056 0-1.919-0.863-1.919-1.919 0-4.494 2.938-8.294 6.994-9.6z"/>
</svg>
