<svg version="1.1" xmlns="http://www.w3.org/2000/svg" width="40" height="32" viewBox="0 0 40 32">
<path fill="currentColor" d="M14 16c4.418 0 8-3.582 8-8s-3.582-8-8-8v0c-4.418 0-8 3.582-8 8s3.582 8 8 8v0zM11.144 19c-6.156 0-11.144 4.988-11.144 11.144 0 1.025 0.831 1.856 1.856 1.856h22.681c-0.337-0.587-0.538-1.269-0.538-2v-8c0-0.131 0.006-0.262 0.019-0.394-1.938-1.625-4.438-2.606-7.163-2.606h-5.713zM33 15c1.106 0 2 0.894 2 2v3h-4v-3c0-1.106 0.894-2 2-2zM28 17v3c-1.106 0-2 0.894-2 2v8c0 1.106 0.894 2 2 2h10c1.106 0 2-0.894 2-2v-8c0-1.106-0.894-2-2-2v-3c0-2.762-2.237-5-5-5s-5 2.238-5 5z"/>
</svg>
