<svg version="1.1" xmlns="http://www.w3.org/2000/svg" width="40" height="32" viewBox="0 0 40 32">
<path fill="currentColor" d="M14 16c4.418 0 8-3.582 8-8s-3.582-8-8-8v0c-4.418 0-8 3.582-8 8s3.582 8 8 8v0zM11.144 19c-6.156 0-11.144 4.988-11.144 11.144 0 1.025 0.831 1.856 1.856 1.856h24.288c0.625 0 1.175-0.306 1.512-0.781l-6.2-6.2c-0.931-0.931-1.456-2.194-1.456-3.506v-2.063c-0.994-0.294-2.050-0.45-3.144-0.45h-5.713zM24 14c-1.106 0-2 0.894-2 2v5.169c0 1.063 0.419 2.081 1.169 2.831l6.713 6.706c1.169 1.169 3.069 1.169 4.244 0l4.587-4.588c1.169-1.169 1.169-3.069 0-4.244l-6.712-6.706c-0.75-0.75-1.769-1.169-2.831-1.169h-5.169zM25.5 19c0-0.828 0.672-1.5 1.5-1.5s1.5 0.672 1.5 1.5v0c0 0.828-0.672 1.5-1.5 1.5s-1.5-0.672-1.5-1.5v0z"/>
</svg>
