<svg version="1.1" xmlns="http://www.w3.org/2000/svg" width="28" height="32" viewBox="0 0 28 32">
<path fill="currentColor" d="M15 5h6.419c-0.494-1.219-1.275-2.281-2.262-3.119l-4.156 3.119zM17.356 0.738c-1.025-0.475-2.156-0.738-3.356-0.738-3.356 0-6.231 2.069-7.419 5h5.087l5.688-4.263zM14 16c4.419 0 8-3.581 8-8 0-0.338-0.019-0.675-0.063-1h-15.875c-0.044 0.325-0.063 0.662-0.063 1 0 4.419 3.581 8 8 8zM7.75 19.525c-0.606 0.194-1.194 0.438-1.75 0.731v11.744h9.231l-3.887-6.488-3.594-5.988zM9.813 19.075l2.956 4.925h4.231c2.762 0 5 2.238 5 5 0 1.125-0.375 2.163-1 3h5.144c1.025 0 1.856-0.831 1.856-1.856 0-6.156-4.988-11.144-11.144-11.144h-5.713c-0.45 0-0.894 0.025-1.331 0.081zM0 30.144c0 1.025 0.831 1.856 1.856 1.856h2.144v-10.413c-2.444 2.044-4 5.119-4 8.556zM20 29c0-1.656-1.344-3-3-3h-3.031l3.569 5.95c1.4-0.25 2.462-1.475 2.462-2.95z"/>
</svg>
