<svg version="1.1" xmlns="http://www.w3.org/2000/svg" width="40" height="32" viewBox="0 0 40 32">
<path fill="currentColor" d="M14 0c4.418 0 8 3.582 8 8s-3.582 8-8 8v0c-4.418 0-8-3.582-8-8s3.582-8 8-8v0zM11.144 19h5.713c0.738 0 1.462 0.075 2.156 0.206-0.131 1.156 0.462 2.225 1.363 2.8-1.038 0.663-1.669 1.975-1.25 3.331 0.25 0.806 0.587 1.594 1.025 2.35s0.95 1.444 1.525 2.063c0.981 1.056 2.475 1.15 3.575 0.544v0.056c0 0.575 0.169 1.156 0.494 1.644h-23.887c-1.025 0.006-1.856-0.825-1.856-1.85 0-6.156 4.987-11.144 11.144-11.144zM27.25 13.637c0-0.438 0.281-0.831 0.706-0.925 0.656-0.15 1.344-0.231 2.044-0.231s1.387 0.081 2.044 0.231c0.425 0.094 0.706 0.488 0.706 0.925v1.912c0.494 0.213 0.962 0.481 1.394 0.8l1.556-0.894c0.381-0.219 0.856-0.169 1.156 0.15 0.475 0.506 0.894 1.075 1.256 1.7s0.644 1.275 0.844 1.938c0.131 0.419-0.069 0.856-0.45 1.075l-1.563 0.9c0.025 0.25 0.044 0.506 0.044 0.769s-0.013 0.512-0.044 0.769l1.563 0.9c0.381 0.219 0.575 0.656 0.45 1.075-0.206 0.663-0.487 1.313-0.844 1.938s-0.781 1.194-1.256 1.7c-0.3 0.319-0.781 0.369-1.156 0.15l-1.556-0.894c-0.431 0.319-0.894 0.587-1.394 0.8v1.913c0 0.438-0.281 0.831-0.706 0.925-0.656 0.15-1.344 0.231-2.044 0.231s-1.387-0.081-2.044-0.231c-0.425-0.094-0.706-0.488-0.706-0.925v-1.913c-0.5-0.212-0.975-0.481-1.406-0.806l-1.544 0.894c-0.381 0.219-0.856 0.169-1.156-0.15-0.475-0.506-0.894-1.075-1.256-1.7s-0.644-1.275-0.844-1.938c-0.131-0.419 0.069-0.856 0.45-1.075l1.55-0.894c-0.025-0.256-0.044-0.512-0.044-0.775s0.012-0.519 0.044-0.775l-1.556-0.894c-0.381-0.219-0.575-0.656-0.45-1.075 0.206-0.663 0.481-1.313 0.844-1.938s0.781-1.194 1.256-1.7c0.3-0.319 0.775-0.369 1.156-0.15l1.55 0.894c0.431-0.319 0.906-0.588 1.406-0.806v-1.9zM33.006 21.981c0.002-0.041 0.003-0.089 0.003-0.137 0-1.66-1.346-3.006-3.006-3.006s-3.006 1.346-3.006 3.006c0 0.048 0.001 0.096 0.003 0.144l-0-0.007c-0.002 0.041-0.003 0.089-0.003 0.137 0 1.66 1.346 3.006 3.006 3.006s3.006-1.346 3.006-3.006c0-0.048-0.001-0.096-0.003-0.144l0 0.007z"/>
</svg>
