<svg version="1.1" xmlns="http://www.w3.org/2000/svg" width="40" height="32" viewBox="0 0 40 32">
<path fill="currentColor" d="M0 1.5c0-0.831 0.669-1.5 1.5-1.5h37c0.831 0 1.5 0.669 1.5 1.5s-0.669 1.5-1.5 1.5h-37c-0.831 0-1.5-0.669-1.5-1.5zM0 30.5c0-0.831 0.669-1.5 1.5-1.5h37c0.831 0 1.5 0.669 1.5 1.5s-0.669 1.5-1.5 1.5h-37c-0.831 0-1.5-0.669-1.5-1.5zM5.2 10c0-2.209 1.791-4 4-4s4 1.791 4 4v0c0 2.209-1.791 4-4 4s-4-1.791-4-4v0zM2 20c0-2.206 1.794-4 4-4h6c0.762 0 1.481 0.212 2.088 0.587-2.325 0.944-4.1 2.95-4.737 5.413h-5.35c-1.106 0-2-0.894-2-2zM30.85 22c-0.644-2.506-2.475-4.538-4.856-5.462 0.587-0.344 1.275-0.538 2.006-0.538h6c2.206 0 4 1.794 4 4 0 1.106-0.894 2-2 2h-5.15zM24.45 18.15c2.006 0.462 3.631 1.931 4.306 3.85 0.219 0.625 0.344 1.3 0.344 2 0 1.106-0.894 2-2 2h-14c-1.106 0-2-0.894-2-2 0-0.7 0.119-1.375 0.344-2 0.656-1.856 2.206-3.3 4.131-3.806 0.487-0.131 1-0.194 1.531-0.194h6c0.462 0 0.919 0.050 1.35 0.15zM27.2 10c0-2.209 1.791-4 4-4s4 1.791 4 4v0c0 2.209-1.791 4-4 4s-4-1.791-4-4v0zM20.1 6c2.761 0 5 2.239 5 5s-2.239 5-5 5v0c-2.761 0-5-2.239-5-5s2.239-5 5-5v0z"/>
</svg>
