<svg version="1.1" xmlns="http://www.w3.org/2000/svg" width="40" height="32" viewBox="0 0 40 32">
<path fill="currentColor" d="M2.563 0.438c-0.587-0.581-1.538-0.581-2.125 0s-0.581 1.538 0 2.125l4.5 4.5c0.588 0.588 1.537 0.588 2.119 0s0.588-1.537 0-2.119l-4.494-4.506zM37.438 0.438l-4.5 4.5c-0.587 0.588-0.587 1.537 0 2.119s1.538 0.588 2.119 0l4.5-4.5c0.587-0.587 0.587-1.538 0-2.119s-1.538-0.588-2.119 0zM0.438 31.563c0.587 0.587 1.538 0.587 2.119 0l4.5-4.5c0.588-0.587 0.588-1.538 0-2.119s-1.537-0.587-2.119 0l-4.5 4.494c-0.588 0.587-0.588 1.538 0 2.119zM37.438 31.563c0.587 0.587 1.538 0.587 2.119 0s0.587-1.538 0-2.119l-4.5-4.5c-0.587-0.587-1.538-0.587-2.119 0s-0.587 1.538 0 2.119l4.5 4.5zM20 16c2.209 0 4-1.791 4-4s-1.791-4-4-4v0c-2.209 0-4 1.791-4 4s1.791 4 4 4v0zM13.256 21c-0.169 0.469-0.256 0.975-0.256 1.5 0 0.831 0.669 1.5 1.5 1.5h11c0.831 0 1.5-0.669 1.5-1.5 0-0.525-0.087-1.031-0.256-1.5-0.031-0.087-0.063-0.169-0.1-0.25-0.587-1.394-1.863-2.431-3.394-2.688-0.244-0.044-0.494-0.063-0.75-0.063h-5c-0.256 0-0.506 0.019-0.75 0.063-0.050 0.006-0.106 0.019-0.156 0.031-1.556 0.319-2.819 1.438-3.338 2.906zM10.988 14c1.657 0 3-1.343 3-3s-1.343-3-3-3v0c-1.657 0-3 1.343-3 3s1.343 3 3 3v0zM9.331 16c-1.838 0-3.331 1.494-3.331 3.331 0 0.919 0.744 1.669 1.669 1.669h3.506c0.5-2.131 2.050-3.856 4.075-4.6-0.469-0.256-1.012-0.4-1.581-0.4h-4.338zM32.331 21c0.919 0 1.669-0.744 1.669-1.669 0-1.844-1.494-3.331-3.331-3.331h-4.338c-0.575 0-1.113 0.144-1.581 0.4 2.025 0.744 3.575 2.469 4.075 4.6h3.506zM29 14c1.657 0 3-1.343 3-3s-1.343-3-3-3v0c-1.657 0-3 1.343-3 3s1.343 3 3 3v0z"/>
</svg>
