<svg version="1.1" xmlns="http://www.w3.org/2000/svg" width="28" height="32" viewBox="0 0 28 32">
<path fill="currentColor" d="M14 16c4.418 0 8-3.582 8-8s-3.582-8-8-8v0c-4.418 0-8 3.582-8 8s3.582 8 8 8v0zM8 19.45c-4.625 1.356-8 5.631-8 10.694 0 1.025 0.831 1.856 1.856 1.856h24.288c1.025 0 1.856-0.831 1.856-1.856 0-5.063-3.375-9.337-8-10.694v3.175c1.725 0.444 3 2.012 3 3.875v2.5c0 0.55-0.45 1-1 1h-1c-0.55 0-1-0.45-1-1s0.45-1 1-1v-1.5c0-1.106-0.894-2-2-2s-2 0.894-2 2v1.5c0.55 0 1 0.45 1 1s-0.45 1-1 1h-1c-0.55 0-1-0.45-1-1v-2.5c0-1.863 1.275-3.431 3-3.875v-3.569c-0.375-0.038-0.756-0.056-1.144-0.056h-5.713c-0.387 0-0.769 0.019-1.144 0.056v4.088c1.444 0.431 2.5 1.769 2.5 3.356 0 1.931-1.569 3.5-3.5 3.5s-3.5-1.569-3.5-3.5c0-1.587 1.056-2.925 2.5-3.356v-3.694zM9 28c0.828 0 1.5-0.672 1.5-1.5s-0.672-1.5-1.5-1.5v0c-0.828 0-1.5 0.672-1.5 1.5s0.672 1.5 1.5 1.5v0z"/>
</svg>
