<svg version="1.1" xmlns="http://www.w3.org/2000/svg" width="28" height="32" viewBox="0 0 28 32">
<path fill="currentColor" d="M6 8v-3.612c0-0.831 0.519-1.581 1.3-1.875l6-2.25c0.45-0.169 0.95-0.169 1.406 0l6 2.25c0.781 0.294 1.3 1.038 1.3 1.875v3.612h-0.019c0.012 0.162 0.019 0.331 0.019 0.5v2.5c0 4.419-3.581 8-8 8s-8-3.581-8-8v-2.5c0-0.169 0.006-0.338 0.019-0.5h-0.025zM9 11c0 2.762 2.238 5 5 5s5-2.238 5-5v-1h-10v1zM6.994 20.481c0.656-0.212 1.363 0.025 1.838 0.531l4.438 4.719c0.394 0.419 1.063 0.419 1.456 0l4.438-4.719c0.475-0.506 1.181-0.744 1.837-0.531 4.063 1.306 7 5.106 7 9.6 0 1.063-0.863 1.919-1.919 1.919h-24.163c-1.056 0-1.919-0.863-1.919-1.919 0-4.494 2.938-8.294 6.994-9.6zM13 3v1h-1c-0.275 0-0.5 0.225-0.5 0.5v1c0 0.275 0.225 0.5 0.5 0.5h1v1c0 0.275 0.225 0.5 0.5 0.5h1c0.275 0 0.5-0.225 0.5-0.5v-1h1c0.275 0 0.5-0.225 0.5-0.5v-1c0-0.275-0.225-0.5-0.5-0.5h-1v-1c0-0.275-0.225-0.5-0.5-0.5h-1c-0.275 0-0.5 0.225-0.5 0.5z"/>
</svg>
