<svg version="1.1" xmlns="http://www.w3.org/2000/svg" width="40" height="32" viewBox="0 0 40 32">
<path fill="currentColor" d="M9 0c2.761 0 5 2.239 5 5s-2.239 5-5 5v0c-2.761 0-5-2.239-5-5s2.239-5 5-5v0zM32 0c2.761 0 5 2.239 5 5s-2.239 5-5 5v0c-2.761 0-5-2.239-5-5s2.239-5 5-5v0zM0 18.669c0-3.681 2.987-6.669 6.669-6.669h2.669c0.994 0 1.938 0.219 2.787 0.606-0.081 0.45-0.119 0.919-0.119 1.394 0 2.387 1.050 4.531 2.706 6-0.012 0-0.025 0-0.044 0h-13.338c-0.731 0-1.331-0.6-1.331-1.331zM25.331 20c-0.012 0-0.025 0-0.044 0 1.663-1.469 2.706-3.613 2.706-6 0-0.475-0.044-0.938-0.119-1.394 0.85-0.394 1.794-0.606 2.788-0.606h2.669c3.681 0 6.669 2.988 6.669 6.669 0 0.738-0.6 1.331-1.331 1.331h-13.337zM14 14c0-3.314 2.686-6 6-6s6 2.686 6 6v0c0 3.314-2.686 6-6 6s-6-2.686-6-6v0zM8 30.331c0-4.6 3.731-8.331 8.331-8.331h7.338c4.6 0 8.331 3.731 8.331 8.331 0 0.919-0.744 1.669-1.669 1.669h-20.663c-0.919 0-1.669-0.744-1.669-1.669z"/>
</svg>
