<svg version="1.1" xmlns="http://www.w3.org/2000/svg" width="40" height="32" viewBox="0 0 40 32">
<path fill="currentColor" d="M6 8c0-4.418 3.582-8 8-8s8 3.582 8 8v0c0 4.418-3.582 8-8 8s-8-3.582-8-8v0zM0 30.144c0-6.156 4.987-11.144 11.144-11.144h5.713c6.156 0 11.144 4.988 11.144 11.144 0 1.025-0.831 1.856-1.856 1.856h-24.288c-1.025 0-1.856-0.831-1.856-1.856zM38.081 32h-8.619c0.337-0.587 0.538-1.269 0.538-2v-0.5c0-3.794-1.694-7.2-4.363-9.488 0.15-0.006 0.294-0.012 0.444-0.012h3.837c5.569 0 10.081 4.512 10.081 10.081 0 1.063-0.862 1.919-1.919 1.919zM27 16c-1.938 0-3.688-0.787-4.956-2.056 1.231-1.662 1.956-3.719 1.956-5.944 0-1.675-0.413-3.256-1.144-4.644 1.163-0.85 2.594-1.356 4.144-1.356 3.869 0 7 3.131 7 7s-3.131 7-7 7z"/>
</svg>
