<svg version="1.1" xmlns="http://www.w3.org/2000/svg" width="40" height="32" viewBox="0 0 40 32">
<path fill="currentColor" d="M6 8c0-4.418 3.582-8 8-8s8 3.582 8 8v0c0 4.418-3.582 8-8 8s-8-3.582-8-8v0zM0 30.144c0-6.156 4.987-11.144 11.144-11.144h5.713c6.156 0 11.144 4.988 11.144 11.144 0 1.025-0.831 1.856-1.856 1.856h-24.288c-1.025 0-1.856-0.831-1.856-1.856zM39.063 11.063l-8 8c-0.587 0.587-1.538 0.587-2.119 0l-4-4c-0.587-0.588-0.587-1.537 0-2.119s1.538-0.588 2.119 0l2.938 2.938 6.938-6.944c0.587-0.588 1.538-0.588 2.119 0s0.587 1.537 0 2.119z"/>
</svg>
