<svg version="1.1" xmlns="http://www.w3.org/2000/svg" width="40" height="32" viewBox="0 0 40 32">
<path fill="currentColor" d="M14 0c4.418 0 8 3.582 8 8s-3.582 8-8 8v0c-4.418 0-8-3.582-8-8s3.582-8 8-8v0zM11.144 19h5.713c1.288 0 2.525 0.219 3.675 0.619-0.344 1.069-0.531 2.2-0.531 3.381 0 3.719 1.844 7.006 4.675 9h-22.819c-1.025 0-1.856-0.831-1.856-1.856 0-6.156 4.987-11.144 11.144-11.144zM22 23c0-4.971 4.029-9 9-9s9 4.029 9 9v0c0 4.971-4.029 9-9 9s-9-4.029-9-9v0zM31 18c-0.55 0-1 0.45-1 1v4c0 0.55 0.45 1 1 1h3c0.55 0 1-0.45 1-1s-0.45-1-1-1h-2v-3c0-0.55-0.45-1-1-1z"/>
</svg>
