<svg version="1.1" xmlns="http://www.w3.org/2000/svg" width="40" height="32" viewBox="0 0 40 32">
<path fill="currentColor" d="M13.2 6c0-2.209-1.791-4-4-4s-4 1.791-4 4v0c0 2.209 1.791 4 4 4s4-1.791 4-4v0zM2 16c0 1.106 0.894 2 2 2h5.35c0.631-2.463 2.412-4.469 4.737-5.412-0.606-0.375-1.325-0.588-2.088-0.588h-6c-2.206 0-4 1.794-4 4zM30.85 18h5.15c1.106 0 2-0.894 2-2 0-2.206-1.794-4-4-4h-6c-0.731 0-1.419 0.194-2.006 0.537 2.381 0.925 4.212 2.956 4.856 5.463zM24.45 14.15c-0.431-0.1-0.887-0.15-1.35-0.15h-6c-0.531 0-1.044 0.069-1.531 0.194-1.925 0.506-3.475 1.944-4.131 3.806-0.219 0.625-0.344 1.3-0.344 2 0 1.106 0.894 2 2 2h14c1.106 0 2-0.894 2-2 0-0.7-0.119-1.375-0.344-2-0.675-1.919-2.3-3.387-4.306-3.85zM35.2 6c0-2.209-1.791-4-4-4s-4 1.791-4 4v0c0 2.209 1.791 4 4 4s4-1.791 4-4v0zM20.1 12c2.761 0 5-2.239 5-5s-2.239-5-5-5v0c-2.761 0-5 2.239-5 5s2.239 5 5 5v0zM2 26c-1.106 0-2 0.894-2 2s0.894 2 2 2h36c1.106 0 2-0.894 2-2s-0.894-2-2-2h-36z"/>
</svg>
