<svg version="1.1" xmlns="http://www.w3.org/2000/svg" width="40" height="32" viewBox="0 0 40 32">
<path fill="currentColor" d="M2.425 0.319c-0.65-0.512-1.594-0.394-2.106 0.256s-0.394 1.594 0.256 2.106l37 29c0.65 0.513 1.594 0.394 2.106-0.256s0.394-1.594-0.256-2.106l-15.556-12.194c3.031-1.45 5.131-4.544 5.131-8.125 0-4.969-4.031-9-9-9-4.35 0-7.975 3.081-8.819 7.181l-8.756-6.862zM34.094 32h-1.094l-15.231-12h-3.688c-5.569 0-10.081 4.512-10.081 10.081 0 1.063 0.862 1.919 1.919 1.919h28.181z"/>
</svg>
