<svg version="1.1" xmlns="http://www.w3.org/2000/svg" width="40" height="32" viewBox="0 0 40 32">
<path fill="currentColor" d="M14 16c4.418 0 8-3.582 8-8s-3.582-8-8-8v0c-4.418 0-8 3.582-8 8s3.582 8 8 8v0zM11.144 19c-6.156 0-11.144 4.988-11.144 11.144 0 1.025 0.831 1.856 1.856 1.856h18.319c-0.194-0.55-0.231-1.15-0.087-1.738l0.938-3.756c0.175-0.706 0.538-1.344 1.050-1.856l2.519-2.519c-2.006-1.938-4.731-3.131-7.744-3.131h-5.706zM38.362 14.731c-0.975-0.975-2.556-0.975-3.538 0l-1.837 1.837 4.438 4.438 1.837-1.837c0.975-0.975 0.975-2.556 0-3.537l-0.9-0.9zM23.494 26.063c-0.256 0.256-0.438 0.575-0.525 0.931l-0.938 3.756c-0.087 0.344 0.012 0.7 0.262 0.95s0.606 0.35 0.95 0.262l3.756-0.938c0.35-0.087 0.675-0.269 0.931-0.525l8.075-8.081-4.438-4.438-8.075 8.081z"/>
</svg>
