<svg version="1.1" xmlns="http://www.w3.org/2000/svg" width="28" height="32" viewBox="0 0 28 32">
<path fill="currentColor" d="M23.169 6.006c-1.538-3.538-5.063-6.006-9.169-6.006s-7.631 2.469-9.169 6.006c-1.025 0.088-1.831 0.944-1.831 1.994v4c0 1.050 0.806 1.906 1.831 1.994 1.537 3.537 5.063 6.006 9.169 6.006s7.631-2.469 9.169-6.006c1.025-0.088 1.831-0.944 1.831-1.994v-4c0-1.050-0.806-1.906-1.831-1.994zM21 9v1c0 3.313-2.688 6-6 6h-2c-3.313 0-6-2.688-6-6v-1c0-1.656 1.344-3 3-3h8c1.656 0 3 1.344 3 3zM11.831 10.169l-0.375-1.325c-0.056-0.206-0.244-0.344-0.456-0.344s-0.4 0.137-0.456 0.344l-0.375 1.325-1.325 0.375c-0.206 0.056-0.344 0.244-0.344 0.456s0.137 0.4 0.344 0.456l1.325 0.375 0.375 1.325c0.056 0.206 0.244 0.344 0.456 0.344s0.4-0.137 0.456-0.344l0.375-1.325 1.325-0.375c0.206-0.056 0.344-0.244 0.344-0.456s-0.137-0.4-0.344-0.456l-1.325-0.375zM7.044 19.781c-4.125 1.631-7.044 5.656-7.044 10.363 0 1.025 0.831 1.856 1.856 1.856h6.144v-4c0-1.106 0.894-2 2-2h8c1.106 0 2 0.894 2 2v4h6.144c1.025 0 1.856-0.831 1.856-1.856 0-4.706-2.919-8.731-7.044-10.363-1.962 1.394-4.363 2.219-6.956 2.219s-4.994-0.825-6.956-2.219zM11 28c-0.55 0-1 0.45-1 1v3h2v-3c0-0.55-0.45-1-1-1zM17 30c0.552 0 1-0.448 1-1s-0.448-1-1-1v0c-0.552 0-1 0.448-1 1s0.448 1 1 1v0z"/>
</svg>
