<svg version="1.1" xmlns="http://www.w3.org/2000/svg" width="40" height="32" viewBox="0 0 40 32">
<path fill="currentColor" d="M14 16c4.418 0 8-3.582 8-8s-3.582-8-8-8v0c-4.418 0-8 3.582-8 8s3.582 8 8 8v0zM11.144 19c-6.156 0-11.144 4.988-11.144 11.144 0 1.025 0.831 1.856 1.856 1.856h24.288c0.113 0 0.219-0.012 0.331-0.031-4.769-3.444-6.238-8.813-6.444-12.512-1.006-0.3-2.069-0.456-3.169-0.456h-5.719zM30.444 14.106l-7.5 3c-0.569 0.231-0.944 0.781-0.944 1.394 0 3.956 1.619 10.55 8.425 13.387 0.369 0.156 0.788 0.156 1.156 0 6.8-2.837 8.419-9.431 8.419-13.387 0-0.613-0.375-1.163-0.944-1.394l-7.5-3c-0.356-0.144-0.756-0.144-1.113 0zM36.962 19.5c-0.244 3.169-1.7 7.294-5.962 9.356v-11.744l5.962 2.387z"/>
</svg>
