<svg version="1.1" xmlns="http://www.w3.org/2000/svg" width="40" height="32" viewBox="0 0 40 32">
<path fill="currentColor" d="M3 3h5.5c0.831 0 1.5-0.669 1.5-1.5s-0.669-1.5-1.5-1.5h-6.5c-1.106 0-2 0.894-2 2v6.5c0 0.831 0.669 1.5 1.5 1.5s1.5-0.669 1.5-1.5v-5.5zM10.988 14c1.657 0 3-1.343 3-3s-1.343-3-3-3v0c-1.657 0-3 1.343-3 3s1.343 3 3 3v0zM9.331 16c-1.838 0-3.331 1.494-3.331 3.331 0 0.919 0.744 1.669 1.669 1.669h3.506c0.5-2.131 2.050-3.856 4.075-4.6-0.469-0.256-1.012-0.4-1.581-0.4h-4.338zM32.331 21c0.919 0 1.669-0.744 1.669-1.669 0-1.844-1.494-3.331-3.331-3.331h-4.338c-0.575 0-1.113 0.144-1.581 0.4 2.025 0.744 3.575 2.469 4.075 4.6h3.506zM26.744 21c-0.538-1.519-1.869-2.663-3.494-2.938-0.244-0.044-0.494-0.063-0.75-0.063h-5c-0.256 0-0.506 0.019-0.75 0.063-1.625 0.275-2.956 1.419-3.494 2.938-0.169 0.469-0.256 0.975-0.256 1.5 0 0.831 0.669 1.5 1.5 1.5h11c0.831 0 1.5-0.669 1.5-1.5 0-0.525-0.087-1.031-0.256-1.5zM29 14c1.657 0 3-1.343 3-3s-1.343-3-3-3v0c-1.657 0-3 1.343-3 3s1.343 3 3 3v0zM24 12c0-2.209-1.791-4-4-4s-4 1.791-4 4v0c0 2.209 1.791 4 4 4s4-1.791 4-4v0zM31.5 3h5.5v5.5c0 0.831 0.669 1.5 1.5 1.5s1.5-0.669 1.5-1.5v-6.5c0-1.106-0.894-2-2-2h-6.5c-0.831 0-1.5 0.669-1.5 1.5s0.669 1.5 1.5 1.5zM3 29v-5.5c0-0.831-0.669-1.5-1.5-1.5s-1.5 0.669-1.5 1.5v6.5c0 1.106 0.894 2 2 2h6.5c0.831 0 1.5-0.669 1.5-1.5s-0.669-1.5-1.5-1.5h-5.5zM31.5 29c-0.831 0-1.5 0.669-1.5 1.5s0.669 1.5 1.5 1.5h6.5c1.106 0 2-0.894 2-2v-6.5c0-0.831-0.669-1.5-1.5-1.5s-1.5 0.669-1.5 1.5v5.5h-5.5z"/>
</svg>
