<svg version="1.1" xmlns="http://www.w3.org/2000/svg" width="40" height="32" viewBox="0 0 40 32">
<path fill="currentColor" d="M2.425 0.319c-0.65-0.512-1.594-0.394-2.106 0.256s-0.394 1.594 0.256 2.106l37 29c0.65 0.513 1.594 0.394 2.106-0.256s0.394-1.594-0.256-2.106l-11.887-9.319h11.131c0.737 0 1.331-0.6 1.331-1.331 0-3.681-2.987-6.669-6.669-6.669h-2.663c-0.994 0-1.938 0.219-2.788 0.606 0.081 0.45 0.119 0.919 0.119 1.394 0 1.887-0.656 3.625-1.75 4.994l-1.575-1.231c0.831-1.031 1.325-2.338 1.325-3.762 0-3.313-2.688-6-6-6-1.944 0-3.669 0.925-4.769 2.356l-2.537-1.988c0.813-0.888 1.306-2.069 1.306-3.369 0-2.763-2.238-5-5-5-1.731 0-3.256 0.881-4.156 2.219l-2.419-1.9zM6.669 12c-3.681 0-6.669 2.988-6.669 6.669 0 0.731 0.6 1.331 1.331 1.331h13.338c0.012 0 0.025 0 0.044 0-1.287-1.137-2.2-2.675-2.55-4.425l-4.55-3.575h-0.944zM16.331 22c-4.6 0-8.331 3.731-8.331 8.331 0 0.919 0.744 1.669 1.669 1.669h20.663c0.656 0 1.219-0.375 1.494-0.925l-11.519-9.075h-3.975zM32 10c2.761 0 5-2.239 5-5s-2.239-5-5-5v0c-2.761 0-5 2.239-5 5s2.239 5 5 5v0z"/>
</svg>
