<svg version="1.1" xmlns="http://www.w3.org/2000/svg" width="40" height="32" viewBox="0 0 40 32">
<path fill="currentColor" d="M9 10c2.761 0 5-2.239 5-5s-2.239-5-5-5v0c-2.761 0-5 2.239-5 5s2.239 5 5 5v0zM32 10c2.761 0 5-2.239 5-5s-2.239-5-5-5v0c-2.761 0-5 2.239-5 5s2.239 5 5 5v0zM0 18.669c0 0.731 0.6 1.331 1.331 1.331h13.338c0.012 0 0.025 0 0.044 0-1.662-1.469-2.706-3.613-2.706-6 0-0.475 0.044-0.938 0.119-1.394-0.85-0.394-1.794-0.606-2.787-0.606h-2.669c-3.681 0-6.669 2.988-6.669 6.669zM20 20c1.5 0 2.869-0.55 3.919-1.456 0.156-0.231 0.325-0.456 0.5-0.669 0.169-0.206 0.356-0.381 0.563-0.519 0.644-0.962 1.019-2.113 1.019-3.356 0-3.313-2.688-6-6-6s-6 2.688-6 6 2.688 6 6 6zM24.087 23.762c-0.644-0.369-1.131-1.012-1.3-1.762h-6.456c-4.6 0-8.331 3.731-8.331 8.331 0 0.919 0.744 1.669 1.669 1.669h18.781c-0.131-0.325-0.2-0.681-0.2-1.025v-0.188c-0.081-0.044-0.169-0.094-0.25-0.144l-0.163 0.094c-1.050 0.606-2.531 0.5-3.419-0.606-0.281-0.35-0.538-0.719-0.775-1.1l-0.012-0.025-0.15-0.256-0.012-0.025c-0.212-0.387-0.4-0.788-0.563-1.206-0.512-1.325 0.137-2.663 1.188-3.269l0.169-0.094c0-0.050 0-0.094 0-0.144s0-0.094 0-0.144l-0.169-0.094zM33.331 12h-2.663c-0.994 0-1.938 0.219-2.788 0.606 0.081 0.45 0.119 0.919 0.119 1.394 0 1.088-0.219 2.119-0.606 3.063 0.156 0.056 0.306 0.125 0.444 0.206l0.163 0.094c0.081-0.050 0.163-0.1 0.25-0.144v-0.188c0-1.213 0.831-2.444 2.238-2.662 0.494-0.075 1-0.119 1.512-0.119s1.019 0.037 1.512 0.119c1.406 0.219 2.237 1.45 2.237 2.662v0.188c0.081 0.044 0.169 0.094 0.25 0.144l0.163-0.094c1.050-0.606 2.531-0.5 3.419 0.606 0.144 0.175 0.281 0.363 0.413 0.544-0.131-3.569-3.063-6.419-6.663-6.419zM39.038 22.244c0.394-0.225 0.594-0.694 0.425-1.125-0.131-0.344-0.288-0.675-0.462-0.994l-0.144-0.25c-0.194-0.319-0.406-0.619-0.638-0.906-0.288-0.356-0.794-0.419-1.188-0.188l-1.131 0.656c-0.556-0.475-1.194-0.85-1.9-1.1v-1.313c0-0.456-0.306-0.863-0.756-0.931-0.406-0.063-0.819-0.094-1.244-0.094s-0.837 0.031-1.244 0.094c-0.45 0.069-0.756 0.475-0.756 0.931v1.313c-0.7 0.25-1.344 0.625-1.9 1.1l-1.137-0.656c-0.394-0.225-0.9-0.163-1.188 0.188-0.231 0.288-0.444 0.594-0.637 0.913l-0.144 0.244c-0.175 0.319-0.331 0.65-0.462 0.994-0.163 0.425 0.031 0.894 0.425 1.119l1.137 0.656c-0.063 0.356-0.1 0.725-0.1 1.1s0.038 0.744 0.1 1.094l-1.137 0.656c-0.394 0.225-0.594 0.694-0.425 1.119 0.131 0.344 0.288 0.669 0.462 0.988l0.15 0.256c0.188 0.319 0.4 0.619 0.631 0.906 0.288 0.356 0.794 0.419 1.188 0.188l1.137-0.637c0.556 0.475 1.2 0.85 1.9 1.1v1.313c0 0.456 0.306 0.863 0.756 0.931 0.406 0.063 0.819 0.094 1.244 0.094s0.837-0.031 1.244-0.094c0.45-0.069 0.756-0.475 0.756-0.931v-1.313c0.7-0.25 1.344-0.625 1.9-1.1l1.138 0.656c0.394 0.225 0.9 0.163 1.188-0.188 0.231-0.288 0.444-0.587 0.631-0.906l0.15-0.262c0.175-0.319 0.331-0.644 0.462-0.988 0.163-0.425-0.031-0.894-0.425-1.119l-1.138-0.656c0.063-0.356 0.1-0.725 0.1-1.094s-0.038-0.744-0.1-1.1l1.138-0.656zM29.5 24c0-1.381 1.119-2.5 2.5-2.5s2.5 1.119 2.5 2.5v0c0 1.381-1.119 2.5-2.5 2.5s-2.5-1.119-2.5-2.5v0z"/>
</svg>
