<svg version="1.1" xmlns="http://www.w3.org/2000/svg" width="28" height="32" viewBox="0 0 28 32">
<path fill="currentColor" d="M26 0c-1 0-8 2-8 11v7c0 2.206 1.794 4 4 4h2v8c0 1.106 0.894 2 2 2s2-0.894 2-2v-28c0-1.106-0.894-2-2-2zM4 1c0-0.512-0.381-0.938-0.894-0.994s-0.969 0.281-1.081 0.775l-1.894 8.519c-0.087 0.394-0.131 0.794-0.131 1.194 0 2.869 2.194 5.225 5 5.481v14.025c0 1.106 0.894 2 2 2s2-0.894 2-2v-14.025c2.806-0.256 5-2.612 5-5.481 0-0.4-0.044-0.8-0.131-1.194l-1.894-8.519c-0.113-0.5-0.581-0.831-1.088-0.775s-0.887 0.481-0.887 0.994v8.387c0 0.338-0.275 0.613-0.613 0.613-0.319 0-0.581-0.244-0.613-0.563l-0.781-8.525c-0.044-0.519-0.475-0.912-0.994-0.912s-0.95 0.394-0.994 0.912l-0.775 8.525c-0.031 0.319-0.294 0.563-0.612 0.563-0.338 0-0.612-0.275-0.612-0.613v-8.387zM7.019 10.5h-0.037l0.019-0.044 0.019 0.044z"/>
</svg>
