<svg version="1.1" xmlns="http://www.w3.org/2000/svg" width="40" height="32" viewBox="0 0 40 32">
<path fill="currentColor" d="M4 6.5v5.5h6v-6h-5.5c-0.275 0-0.5 0.225-0.5 0.5zM34.125 12l-5.056-6h-5.069v6h10.125zM20 12v-6h-6v6h6zM37 24h-1c0 3.313-2.688 6-6 6s-6-2.688-6-6h-8c0 3.313-2.688 6-6 6s-6-2.688-6-6h-1c-1.656 0-3-1.344-3-3v-14.5c0-2.487 2.013-4.5 4.5-4.5h24.569c1.181 0 2.3 0.519 3.063 1.425l6.931 8.231c0.606 0.719 0.938 1.631 0.938 2.575v6.769c0 1.656-1.344 3-3 3zM33 24c0-1.657-1.343-3-3-3s-3 1.343-3 3v0c0 1.657 1.343 3 3 3s3-1.343 3-3v0zM10 27c1.657 0 3-1.343 3-3s-1.343-3-3-3v0c-1.657 0-3 1.343-3 3s1.343 3 3 3v0z"/>
</svg>
