<svg version="1.1" xmlns="http://www.w3.org/2000/svg" width="36" height="32" viewBox="0 0 36 32">
<path fill="currentColor" d="M4 0c-2.206 0-4 1.794-4 4v22c0 2.206 1.794 4 4 4h1l1 2h4l1-2h14l1 2h4l1-2h1c2.206 0 4-1.794 4-4v-22c0-2.206-1.794-4-4-4h-28zM14 20c2.761 0 5-2.239 5-5s-2.239-5-5-5v0c-2.761 0-5 2.239-5 5s2.239 5 5 5v0zM14 5c5.523 0 10 4.477 10 10s-4.477 10-10 10v0c-5.523 0-10-4.477-10-10s4.477-10 10-10v0zM30 13.831v7.169c0 0.55-0.45 1-1 1s-1-0.45-1-1v-7.169c-1.163-0.412-2-1.525-2-2.831 0-1.656 1.344-3 3-3s3 1.344 3 3c0 1.306-0.837 2.419-2 2.831z"/>
</svg>
