<svg version="1.1" xmlns="http://www.w3.org/2000/svg" width="28" height="32" viewBox="0 0 28 32">
<path fill="currentColor" d="M23 5h2v2h-2v-2zM22 2c-1.106 0-2 0.894-2 2h-12c0-1.106-0.894-2-2-2h-4c-1.106 0-2 0.894-2 2v4c0 1.106 0.894 2 2 2v12c-1.106 0-2 0.894-2 2v4c0 1.106 0.894 2 2 2h4c1.106 0 2-0.894 2-2h12c0 1.106 0.894 2 2 2h4c1.106 0 2-0.894 2-2v-4c0-1.106-0.894-2-2-2v-12c1.106 0 2-0.894 2-2v-4c0-1.106-0.894-2-2-2h-4zM6 10c1.106 0 2-0.894 2-2h12c0 1.106 0.894 2 2 2v12c-1.106 0-2 0.894-2 2h-12c0-1.106-0.894-2-2-2v-12zM3 25h2v2h-2v-2zM23 27v-2h2v2h-2zM3 7v-2h2v2h-2z"/>
</svg>
