<svg version="1.1" xmlns="http://www.w3.org/2000/svg" width="40" height="32" viewBox="0 0 40 32">
<path fill="currentColor" d="M12 18c3.866 0 7-3.134 7-7s-3.134-7-7-7v0c-3.866 0-7 3.134-7 7s3.134 7 7 7v0zM23 11c0 5.394-3.881 9.881-9 10.819v2.181h2c1.106 0 2 0.894 2 2s-0.894 2-2 2h-2v2c0 1.106-0.894 2-2 2s-2-0.894-2-2v-2h-2c-1.106 0-2-0.894-2-2s0.894-2 2-2h2v-2.181c-5.119-0.938-9-5.425-9-10.819 0-6.075 4.925-11 11-11s11 4.925 11 11zM21.5 19.875c0.913-0.975 1.675-2.087 2.25-3.313 1.175 0.9 2.65 1.438 4.25 1.438 3.869 0 7-3.131 7-7s-3.131-7-7-7c-1.6 0-3.069 0.537-4.25 1.438-0.581-1.219-1.344-2.337-2.25-3.313 1.819-1.337 4.069-2.125 6.5-2.125 6.075 0 11 4.925 11 11 0 5.394-3.881 9.881-9 10.819v2.181h2c1.106 0 2 0.894 2 2s-0.894 2-2 2h-2v2c0 1.106-0.894 2-2 2s-2-0.894-2-2v-2h-2c-1.106 0-2-0.894-2-2s0.894-2 2-2h2v-2.181c-1.663-0.306-3.194-0.981-4.5-1.944z"/>
</svg>
