<svg version="1.1" xmlns="http://www.w3.org/2000/svg" width="40" height="32" viewBox="0 0 40 32">
<path fill="currentColor" d="M11 18c3.866 0 7-3.134 7-7s-3.134-7-7-7v0c-3.866 0-7 3.134-7 7s3.134 7 7 7v0zM22 11c0 5.394-3.881 9.881-9 10.819v2.181h2c1.106 0 2 0.894 2 2s-0.894 2-2 2h-2v2c0 1.106-0.894 2-2 2s-2-0.894-2-2v-2h-2c-1.106 0-2-0.894-2-2s0.894-2 2-2h2v-2.181c-5.119-0.938-9-5.425-9-10.819 0-6.075 4.925-11 11-11s11 4.925 11 11zM16.994 22.538c1.206-0.631 2.306-1.444 3.256-2.4 1.25 1.156 2.919 1.863 4.756 1.863 3.869 0 7-3.131 7-7s-3.131-7-7-7c-0.45 0-0.894 0.044-1.319 0.125-0.306-1.344-0.813-2.606-1.5-3.763 0.894-0.237 1.837-0.362 2.813-0.362 2.313 0 4.462 0.713 6.238 1.938l1.287-1.287-2.087-2.087c-0.431-0.431-0.556-1.075-0.325-1.637s0.781-0.925 1.387-0.925h7c0.831 0 1.5 0.669 1.5 1.5v7c0 0.606-0.362 1.156-0.925 1.387s-1.206 0.106-1.638-0.325l-2.087-2.088-1.288 1.287c1.219 1.775 1.938 3.919 1.938 6.238 0 6.075-4.925 11-11 11-3.156 0-6-1.331-8.006-3.462z"/>
</svg>
