<svg version="1.1" xmlns="http://www.w3.org/2000/svg" width="28" height="32" viewBox="0 0 28 32">
<path fill="currentColor" d="M9.45 4.356l3.494 10.481-0.688 2.069c-0.169 0.512-0.256 1.044-0.256 1.581v10.512c0 0.906 0.244 1.762 0.669 2.494-0.481 0.319-1.050 0.506-1.669 0.506h-8c-1.656 0-3-1.344-3-3v-12.094c0-0.594 0.175-1.169 0.506-1.662l2.994-4.487c0.331-0.494 0.506-1.069 0.506-1.662v-6.094c-0.006-1.656 1.338-3 2.994-3h0.281c0.013 0 0.025 0 0.037 0 0.025 0 0.050 0 0.075 0 1.175 0 2.131 0.606 2.756 1.175 0.575 0.525 1.775 1.325 3.85 1.325s3.275-0.8 3.856-1.325c0.625-0.569 1.581-1.175 2.75-1.175 0.025 0 0.050 0 0.075 0 0.012 0 0.025 0 0.038 0h0.281c1.656 0 3 1.344 3 3v6.094c0 0.594 0.175 1.169 0.506 1.662l2.994 4.488c0.331 0.494 0.506 1.069 0.506 1.663v12.094c0 1.656-1.344 3-3 3h-8.006c-1.656 0-3-1.344-3-3v-10.512c0-0.325 0.050-0.644 0.156-0.95l4.394-13.181c-1.087 0.625-2.588 1.144-4.55 1.144s-3.463-0.519-4.55-1.144zM6 28.5c1.381 0 2.5-1.119 2.5-2.5s-1.119-2.5-2.5-2.5v0c-1.381 0-2.5 1.119-2.5 2.5s1.119 2.5 2.5 2.5v0zM3.969 15.969c-0.294 0.294-0.294 0.769 0 1.063l0.969 0.969-0.969 0.969c-0.294 0.294-0.294 0.769 0 1.063s0.769 0.294 1.063 0l0.969-0.969 0.969 0.969c0.294 0.294 0.769 0.294 1.063 0s0.294-0.769 0-1.063l-0.969-0.969 0.969-0.969c0.294-0.294 0.294-0.769 0-1.063s-0.769-0.294-1.063 0l-0.969 0.969-0.969-0.969c-0.294-0.294-0.769-0.294-1.063 0zM19 17.5v2.5c0 0.55 0.45 1 1 1h2.5c0.831 0 1.5-0.669 1.5-1.5s-0.669-1.5-1.5-1.5h-0.5v-0.5c0-0.831-0.669-1.5-1.5-1.5s-1.5 0.669-1.5 1.5z"/>
</svg>
