<svg version="1.1" xmlns="http://www.w3.org/2000/svg" width="28" height="32" viewBox="0 0 28 32">
<path fill="currentColor" d="M12.944 14.838l-3.494-10.481c1.088 0.625 2.588 1.144 4.55 1.144s3.462-0.519 4.55-1.144l-4.394 13.181c-0.1 0.306-0.156 0.625-0.156 0.95v10.512c0 1.656 1.344 3 3 3h8c1.656 0 3-1.344 3-3v-12.094c0-0.594-0.175-1.169-0.506-1.662l-2.994-4.487c-0.331-0.494-0.506-1.069-0.506-1.662v-6.094c0-1.656-1.344-3-3-3h-0.281c-0.012 0-0.025 0-0.038 0-0.025 0-0.050 0-0.075 0-1.163 0-2.119 0.606-2.744 1.175-0.581 0.525-1.781 1.325-3.856 1.325s-3.275-0.8-3.856-1.325c-0.625-0.569-1.581-1.175-2.75-1.175-0.025 0-0.050 0-0.075 0-0.013 0-0.025 0-0.037 0h-0.281c-1.656 0-3 1.344-3 3v6.094c0 0.594-0.175 1.169-0.506 1.662l-2.987 4.488c-0.331 0.494-0.506 1.075-0.506 1.663v12.094c0 1.656 1.344 3 3 3h8c0.619 0 1.188-0.188 1.669-0.506-0.425-0.731-0.669-1.587-0.669-2.494v-10.512c0-0.538 0.088-1.069 0.256-1.581l0.688-2.069zM21.706 22.294l3 3c0.387 0.387 0.387 1.025 0 1.413s-1.025 0.387-1.413 0l-3-3c-0.387-0.387-0.387-1.025 0-1.413s1.025-0.387 1.413 0zM3.294 25.294l3-3c0.388-0.387 1.025-0.387 1.413 0s0.387 1.025 0 1.413l-3 3c-0.388 0.387-1.025 0.387-1.413 0s-0.388-1.025 0-1.413z"/>
</svg>
