<svg version="1.1" xmlns="http://www.w3.org/2000/svg" width="32" height="32" viewBox="0 0 32 32">
<path fill="currentColor" d="M0 4c0-1.106 0.894-2 2-2h12c1.106 0 2 0.894 2 2s-0.894 2-2 2v10.675c-1.262 1.788-2 3.969-2 6.325 0 1.575 0.331 3.069 0.925 4.425-1.081 1.556-2.887 2.575-4.925 2.575-3.313 0-6-2.688-6-6v-18c-1.106 0-2-0.894-2-2zM6 6v6h4v-6h-4zM14 23c0-4.971 4.029-9 9-9s9 4.029 9 9v0c0 4.971-4.029 9-9 9s-9-4.029-9-9v0zM27.206 20.294c-0.387-0.387-1.025-0.387-1.413 0l-3.794 3.794-1.794-1.794c-0.387-0.387-1.025-0.387-1.413 0s-0.387 1.025 0 1.413l2.5 2.5c0.387 0.387 1.025 0.387 1.413 0l4.5-4.5c0.387-0.387 0.387-1.025 0-1.413z"/>
</svg>
