<svg version="1.1" xmlns="http://www.w3.org/2000/svg" width="32" height="32" viewBox="0 0 32 32">
<path fill="currentColor" d="M2 2c-1.106 0-2 0.894-2 2s0.894 2 2 2v18c0 3.313 2.688 6 6 6 1.787 0 3.387-0.781 4.488-2.019 0.006-0.887 0.35-1.769 1.025-2.444 0.012-0.012 0.006-0.038-0.012-0.038-1.931 0-3.5-1.569-3.5-3.5s1.569-3.5 3.5-3.5c0.019 0 0.025-0.025 0.012-0.038-1.369-1.369-1.369-3.581 0-4.95 0.15-0.15 0.313-0.287 0.488-0.406v-7.106c1.106 0 2-0.894 2-2s-0.894-2-2-2h-12zM6 12v-6h4v6h-4zM13.5 23.5c1.8 0 2.7 2.175 1.431 3.45-0.588 0.587-0.588 1.538 0 2.119s1.537 0.587 2.119 0c1.275-1.275 3.45-0.369 3.45 1.431 0 0.831 0.669 1.5 1.5 1.5s1.5-0.669 1.5-1.5c0-1.8 2.175-2.7 3.45-1.431 0.587 0.587 1.538 0.587 2.119 0s0.587-1.538 0-2.119c-1.269-1.275-0.369-3.45 1.431-3.45 0.831 0 1.5-0.669 1.5-1.5s-0.669-1.5-1.5-1.5c-1.8 0-2.7-2.175-1.431-3.45 0.587-0.587 0.587-1.537 0-2.119s-1.538-0.588-2.119 0c-1.275 1.269-3.45 0.369-3.45-1.431 0-0.831-0.669-1.5-1.5-1.5s-1.5 0.669-1.5 1.5c0 1.8-2.175 2.7-3.45 1.431-0.587-0.588-1.537-0.588-2.119 0s-0.588 1.537 0 2.119c1.275 1.275 0.369 3.45-1.431 3.45-0.831 0-1.5 0.669-1.5 1.5s0.669 1.5 1.5 1.5zM20 18c1.105 0 2 0.895 2 2s-0.895 2-2 2v0c-1.105 0-2-0.895-2-2s0.895-2 2-2v0zM22.5 24c0-0.828 0.672-1.5 1.5-1.5s1.5 0.672 1.5 1.5v0c0 0.828-0.672 1.5-1.5 1.5s-1.5-0.672-1.5-1.5v0z"/>
</svg>
