<svg version="1.1" xmlns="http://www.w3.org/2000/svg" width="40" height="32" viewBox="0 0 40 32">
<path fill="currentColor" d="M2.425 0.319c-0.65-0.512-1.594-0.394-2.106 0.256s-0.394 1.594 0.256 2.106l37 29c0.65 0.513 1.594 0.394 2.106-0.256s0.394-1.594-0.256-2.106l-5.4-4.231 0.862 0.575c0.612 0.406 1.4 0.45 2.056 0.1s1.056-1.025 1.056-1.762v-16c0-0.737-0.406-1.412-1.056-1.763s-1.438-0.313-2.056 0.1l-6.887 4.594v9.431l-2-1.569v-10.794c0-2.206-1.794-4-4-4h-14.881l-4.694-3.681zM25.438 26.044l-23.419-18.45c-0.013 0.131-0.019 0.269-0.019 0.406v16c0 2.206 1.794 4 4 4h16c1.462 0 2.744-0.788 3.438-1.956z"/>
</svg>
