<svg version="1.1" xmlns="http://www.w3.org/2000/svg" width="40" height="32" viewBox="0 0 40 32">
<path fill="currentColor" d="M17.563 1.375l1.55-1.081c0.081-0.056 0.169-0.112 0.256-0.15 0.2-0.1 0.419-0.144 0.631-0.144s0.431 0.044 0.631 0.138c0.087 0.044 0.175 0.094 0.256 0.15l1.55 1.087c2.125 1.487 4.488 2.594 6.988 3.275l1.438 0.394c0.113 0.031 0.225 0.069 0.325 0.125 0.2 0.106 0.369 0.25 0.506 0.425 0.238 0.306 0.35 0.706 0.294 1.112-0.025 0.175-0.075 0.338-0.156 0.487-0.106 0.2-0.25 0.369-0.425 0.506-0.269 0.2-0.6 0.319-0.944 0.306h-0.462v3.506l0.4 0.319 0.325 0.256c1.319 1.044 2.813 1.85 4.406 2.381l1.806 0.6c0.1 0.031 0.2 0.075 0.288 0.125 0.194 0.106 0.362 0.256 0.487 0.431s0.219 0.381 0.256 0.6c0.031 0.169 0.038 0.344 0.006 0.519s-0.087 0.337-0.169 0.488c-0.106 0.194-0.256 0.363-0.431 0.488s-0.381 0.219-0.6 0.256c-0.1 0.019-0.206 0.025-0.313 0.025h-2.462v4.119c1.281 1.425 2.962 2.45 4.837 2.919 0.663 0.15 1.163 0.75 1.163 1.462 0 0.831-0.669 1.5-1.5 1.5h-2.5v2c0 1.106-0.894 2-2 2s-2-0.894-2-2v-2h-10v2c0 1.106-0.894 2-2 2s-2-0.894-2-2v-2h-10v2c0 1.106-0.894 2-2 2s-2-0.894-2-2v-2h-2.5c-0.831 0-1.5-0.669-1.5-1.5 0-0.712 0.5-1.313 1.163-1.462 1.875-0.475 3.556-1.494 4.838-2.919v-4.119h-2.462c-0.106 0-0.212-0.006-0.313-0.025-0.219-0.044-0.425-0.131-0.6-0.256s-0.325-0.294-0.438-0.488c-0.081-0.15-0.144-0.313-0.169-0.488s-0.025-0.35 0.006-0.519c0.044-0.219 0.131-0.425 0.256-0.6s0.294-0.325 0.487-0.431c0.087-0.050 0.188-0.094 0.288-0.125l1.806-0.6c1.594-0.531 3.087-1.338 4.406-2.381l0.325-0.256 0.4-0.319v-3.513h-0.469c-0.344 0.006-0.675-0.106-0.944-0.306-0.175-0.131-0.319-0.3-0.425-0.506-0.075-0.15-0.131-0.313-0.156-0.487-0.056-0.406 0.056-0.8 0.294-1.112 0.131-0.175 0.3-0.319 0.506-0.425 0.1-0.050 0.213-0.094 0.325-0.125l1.438-0.394c2.513-0.675 4.875-1.781 7-3.269zM26 8h-12v4h12v-4zM10 18v4h20v-4h-20z"/>
</svg>
