<svg version="1.1" xmlns="http://www.w3.org/2000/svg" width="40" height="32" viewBox="0 0 40 32">
<path fill="currentColor" d="M2.425 0.319c-0.65-0.512-1.594-0.394-2.106 0.256s-0.394 1.594 0.256 2.106l37 29c0.65 0.513 1.594 0.394 2.106-0.256s0.394-1.594-0.256-2.106l-9.644-7.563c-0.125-1.881 1.3-3.756 3.5-3.756h0.719c1.106 0 2-0.894 2-2s-0.894-2-2-2h-0.719c-3.119 0-4.681-3.769-2.475-5.975l0.512-0.513c0.781-0.781 0.781-2.050 0-2.831s-2.050-0.781-2.831 0l-0.512 0.513c-2.206 2.206-5.975 0.644-5.975-2.475v-0.719c0-1.106-0.894-2-2-2s-2 0.894-2 2v0.719c0 3.119-3.769 4.681-5.975 2.475l-0.512-0.506c-0.781-0.781-2.050-0.781-2.831 0-0.1 0.1-0.194 0.213-0.269 0.331l-5.987-4.7zM16.538 11.381c0.431-0.244 0.931-0.381 1.462-0.381 1.656 0 3 1.344 3 3 0 0.275-0.038 0.544-0.106 0.794l-4.356-3.412zM25.125 25.794l-16.081-12.669c-0.594 0.531-1.388 0.875-2.325 0.875h-0.719c-1.106 0-2 0.894-2 2s0.894 2 2 2h0.719c3.119 0 4.681 3.769 2.475 5.975l-0.512 0.512c-0.781 0.781-0.781 2.050 0 2.831s2.050 0.781 2.831 0l0.512-0.512c2.206-2.206 5.975-0.644 5.975 2.475v0.719c0 1.106 0.894 2 2 2s2-0.894 2-2v-0.719c0-1.95 1.475-3.294 3.125-3.481z"/>
</svg>
