<svg version="1.1" xmlns="http://www.w3.org/2000/svg" width="32" height="32" viewBox="0 0 32 32">
<path fill="currentColor" d="M12 1.5c0-0.831 0.669-1.5 1.5-1.5h5c0.831 0 1.5 0.669 1.5 1.5s-0.669 1.5-1.5 1.5h-1v2.1c1.919 0.263 3.675 1.019 5.144 2.131l1.488-1.481-0.706-0.713c-0.587-0.588-0.587-1.538 0-2.119s1.538-0.587 2.119 0l3.538 3.538c0.587 0.588 0.587 1.537 0 2.119s-1.538 0.588-2.119 0l-0.712-0.706-1.488 1.487c1.119 1.469 1.869 3.231 2.131 5.144h2.106v-1c0-0.831 0.669-1.5 1.5-1.5s1.5 0.669 1.5 1.5v5c0 0.831-0.669 1.5-1.5 1.5s-1.5-0.669-1.5-1.5v-1h-2.1c-0.262 1.919-1.019 3.675-2.131 5.144l1.481 1.488 0.706-0.706c0.587-0.587 1.538-0.587 2.119 0s0.587 1.538 0 2.119l-3.538 3.538c-0.587 0.587-1.538 0.587-2.119 0s-0.587-1.538 0-2.119l0.712-0.712-1.488-1.488c-1.469 1.119-3.231 1.869-5.144 2.131v2.106h1c0.831 0 1.5 0.669 1.5 1.5s-0.669 1.5-1.5 1.5h-5c-0.831 0-1.5-0.669-1.5-1.5s0.669-1.5 1.5-1.5h1v-2.1c-1.919-0.262-3.675-1.019-5.144-2.131l-1.487 1.481 0.706 0.706c0.588 0.587 0.588 1.538 0 2.119s-1.537 0.587-2.119 0l-3.538-3.531c-0.587-0.587-0.587-1.538 0-2.119s1.538-0.587 2.119 0l0.713 0.706 1.487-1.488c-1.119-1.469-1.875-3.225-2.138-5.144h-2.1v1c0 0.831-0.669 1.5-1.5 1.5s-1.5-0.669-1.5-1.5v-5c0-0.831 0.669-1.5 1.5-1.5s1.5 0.669 1.5 1.5v1h2.1c0.263-1.919 1.019-3.675 2.131-5.144l-1.481-1.487-0.713 0.706c-0.588 0.588-1.538 0.588-2.119 0s-0.587-1.537 0-2.119l3.538-3.538c0.588-0.587 1.537-0.587 2.119 0s0.588 1.538 0 2.119l-0.706 0.713 1.487 1.487c1.469-1.119 3.231-1.869 5.144-2.131v-2.106h-1c-0.831 0-1.5-0.669-1.5-1.5zM15 14c0-1.657-1.343-3-3-3s-3 1.343-3 3v0c0 1.657 1.343 3 3 3s3-1.343 3-3v0zM19 20.5c0.828 0 1.5-0.672 1.5-1.5s-0.672-1.5-1.5-1.5v0c-0.828 0-1.5 0.672-1.5 1.5s0.672 1.5 1.5 1.5v0z"/>
</svg>
