<svg version="1.1" xmlns="http://www.w3.org/2000/svg" width="32" height="32" viewBox="0 0 32 32">
<path fill="currentColor" d="M18 2c0-1.106-0.894-2-2-2s-2 0.894-2 2v0.719c0 3.119-3.769 4.681-5.975 2.475l-0.513-0.506c-0.781-0.781-2.044-0.781-2.825 0s-0.781 2.050 0 2.831l0.513 0.513c2.2 2.2 0.638 5.969-2.481 5.969h-0.719c-1.106 0-2 0.894-2 2s0.894 2 2 2h0.719c3.119 0 4.681 3.769 2.475 5.975l-0.506 0.512c-0.781 0.781-0.781 2.050 0 2.831s2.050 0.781 2.831 0l0.513-0.512c2.206-2.206 5.975-0.644 5.975 2.475v0.719c0 1.106 0.894 2 2 2s2-0.894 2-2v-0.719c0-3.119 3.769-4.681 5.975-2.475l0.512 0.512c0.781 0.781 2.050 0.781 2.831 0s0.781-2.050 0-2.831l-0.512-0.512c-2.206-2.206-0.644-5.975 2.475-5.975h0.712c1.106 0 2-0.894 2-2s-0.894-2-2-2h-0.719c-3.119 0-4.681-3.769-2.475-5.975l0.512-0.513c0.781-0.781 0.781-2.050 0-2.831s-2.050-0.781-2.831 0l-0.512 0.513c-2.206 2.206-5.975 0.644-5.975-2.475v-0.719zM11 14c0-1.657 1.343-3 3-3s3 1.343 3 3v0c0 1.657-1.343 3-3 3s-3-1.343-3-3v0zM19 17.5c0.828 0 1.5 0.672 1.5 1.5s-0.672 1.5-1.5 1.5v0c-0.828 0-1.5-0.672-1.5-1.5s0.672-1.5 1.5-1.5v0z"/>
</svg>
