<svg version="1.1" xmlns="http://www.w3.org/2000/svg" width="40" height="32" viewBox="0 0 40 32">
<path fill="currentColor" d="M12 0c0.831 0 1.5 0.669 1.5 1.5v0.844c0 2.225 2.694 3.344 4.269 1.769l0.594-0.594c0.587-0.587 1.538-0.587 2.119 0s0.587 1.538 0 2.119l-0.594 0.594c-1.575 1.575-0.456 4.269 1.769 4.269h0.844c0.831 0 1.5 0.669 1.5 1.5s-0.669 1.5-1.5 1.5h-0.844c-2.225 0-3.344 2.694-1.769 4.269l0.594 0.594c0.587 0.587 0.587 1.538 0 2.119s-1.538 0.587-2.119 0l-0.594-0.594c-1.575-1.575-4.269-0.456-4.269 1.769v0.844c0 0.831-0.669 1.5-1.5 1.5s-1.5-0.669-1.5-1.5v-0.844c0-2.225-2.694-3.344-4.269-1.769l-0.594 0.594c-0.588 0.587-1.538 0.587-2.119 0s-0.587-1.538 0-2.119l0.594-0.594c1.575-1.575 0.456-4.269-1.769-4.269h-0.844c-0.831 0-1.5-0.669-1.5-1.5s0.669-1.5 1.5-1.5h0.844c2.225 0 3.344-2.694 1.769-4.269l-0.594-0.594c-0.587-0.588-0.587-1.538 0-2.119s1.537-0.587 2.119 0l0.594 0.594c1.575 1.575 4.269 0.456 4.269-1.769v-0.844c0-0.831 0.669-1.5 1.5-1.5zM15 14c0.552 0 1-0.448 1-1s-0.448-1-1-1v0c-0.552 0-1 0.448-1 1s0.448 1 1 1v0zM12 10c0-1.105-0.895-2-2-2s-2 0.895-2 2v0c0 1.105 0.895 2 2 2s2-0.895 2-2v0zM32 15c0 2.063 2.494 3.094 3.95 1.637 0.388-0.387 1.025-0.387 1.413 0s0.388 1.025 0 1.413c-1.456 1.456-0.425 3.95 1.638 3.95 0.55 0 1 0.45 1 1s-0.45 1-1 1c-2.063 0-3.094 2.494-1.638 3.95 0.388 0.387 0.388 1.025 0 1.413s-1.025 0.387-1.413 0c-1.456-1.456-3.95-0.425-3.95 1.637 0 0.55-0.45 1-1 1s-1-0.45-1-1c0-2.063-2.494-3.094-3.95-1.637-0.387 0.387-1.025 0.387-1.413 0s-0.387-1.025 0-1.413c1.456-1.456 0.425-3.95-1.637-3.95-0.55 0-1-0.45-1-1s0.45-1 1-1c2.063 0 3.094-2.494 1.637-3.95-0.387-0.387-0.387-1.025 0-1.413s1.025-0.387 1.413 0c1.456 1.456 3.95 0.425 3.95-1.637 0-0.55 0.45-1 1-1s1 0.45 1 1zM32 22c0-1.105-0.895-2-2-2s-2 0.895-2 2v0c0 1.105 0.895 2 2 2s2-0.895 2-2v0z"/>
</svg>
