<svg version="1.1" xmlns="http://www.w3.org/2000/svg" width="40" height="32" viewBox="0 0 40 32">
<path fill="currentColor" d="M2.425 0.319c-0.65-0.512-1.594-0.394-2.106 0.256s-0.394 1.594 0.256 2.106l37 29c0.65 0.513 1.594 0.394 2.106-0.256s0.394-1.594-0.256-2.106l-9.919-7.775c0.712-1.219 1.194-2.587 1.394-4.044h2.1v1c0 0.831 0.669 1.5 1.5 1.5s1.5-0.669 1.5-1.5v-5c0-0.831-0.669-1.5-1.5-1.5s-1.5 0.669-1.5 1.5v1h-2.1c-0.262-1.919-1.019-3.675-2.131-5.144l1.481-1.487 0.706 0.706c0.587 0.588 1.538 0.588 2.119 0s0.587-1.537 0-2.119l-3.531-3.538c-0.587-0.587-1.538-0.587-2.119 0s-0.587 1.538 0 2.119l0.706 0.713-1.488 1.487c-1.469-1.119-3.225-1.875-5.144-2.138v-2.1h1c0.831 0 1.5-0.669 1.5-1.5s-0.669-1.5-1.5-1.5h-5c-0.831 0-1.5 0.669-1.5 1.5s0.669 1.5 1.5 1.5h1v2.1c-1.919 0.263-3.675 1.019-5.144 2.131l-1.488-1.481 0.706-0.706c0.588-0.588 0.588-1.538 0-2.119s-1.537-0.587-2.119 0l-2.075 2.062-5.956-4.669zM9.325 13.344c-0.094 0.375-0.169 0.762-0.219 1.156h-2.106v-1c0-0.831-0.669-1.5-1.5-1.5s-1.5 0.669-1.5 1.5v5c0 0.831 0.669 1.5 1.5 1.5s1.5-0.669 1.5-1.5v-1h2.1c0.262 1.919 1.019 3.675 2.131 5.144l-1.481 1.488-0.706-0.706c-0.588-0.587-1.537-0.587-2.119 0s-0.588 1.538 0 2.119l3.537 3.538c0.588 0.587 1.537 0.587 2.119 0s0.588-1.538 0-2.119l-0.713-0.712 1.488-1.488c1.469 1.119 3.231 1.869 5.144 2.131v2.106h-1c-0.831 0-1.5 0.669-1.5 1.5s0.669 1.5 1.5 1.5h5c0.831 0 1.5-0.669 1.5-1.5s-0.669-1.5-1.5-1.5h-1v-2.1c1.275-0.175 2.481-0.569 3.581-1.137l-15.756-12.419z"/>
</svg>
