<svg version="1.1" xmlns="http://www.w3.org/2000/svg" width="32" height="32" viewBox="0 0 32 32">
<path fill="currentColor" d="M10 9c-2.206 0-4-1.794-4-4s1.794-4 4-4c0.981 0 1.875 0.35 2.575 0.938 0.7-1.163 1.969-1.938 3.425-1.938s2.725 0.775 3.425 1.938c0.7-0.587 1.594-0.938 2.575-0.938 2.206 0 4 1.794 4 4s-1.794 4-4 4c-0.919 0-1.769-0.313-2.444-0.831l-2 3c-0.35 0.519-0.931 0.831-1.556 0.831s-1.206-0.313-1.556-0.831l-2-3c-0.675 0.519-1.525 0.831-2.444 0.831zM9 22l3.025-1.512c0.637-0.319 1.35-0.488 2.063-0.488 1.225 0 2.4 0.488 3.263 1.35l2.031 2.031c0.394 0.394 0.931 0.619 1.488 0.619 0.706 0 1.363-0.35 1.75-0.938l0.606-0.913-3.681-4.144c-0.569-0.637-1.387-1.006-2.244-1.006h-2.606c-0.856 0-1.675 0.369-2.244 1.006l-3.744 4.213 0.294-0.219zM10.213 16.012c1.137-1.281 2.769-2.012 4.487-2.012h2.613c1.712 0 3.344 0.731 4.488 2.012l9.387 10.563c0.531 0.594 0.825 1.369 0.825 2.169 0 1.8-1.462 3.263-3.262 3.263h-25.488c-1.8-0.006-3.263-1.469-3.263-3.269 0-0.8 0.294-1.569 0.825-2.169l9.387-10.563z"/>
</svg>
