<svg version="1.1" xmlns="http://www.w3.org/2000/svg" width="32" height="32" viewBox="0 0 32 32">
<path fill="currentColor" d="M31.988 16.712c-1.631 0.544-3.337 0.863-5.063 0.944 0.575-6.581-1.969-12.762-6.45-17.025 6.656 1.938 11.525 8.088 11.525 15.369 0 0.238-0.006 0.475-0.012 0.712zM31.744 18.881c-0.363 2-1.1 3.875-2.137 5.544-6.094 3.031-13.606 2.663-19.494-1.531 1.481-2.262 3.463-4.231 5.906-5.738 4.994 2.7 10.631 3.175 15.725 1.725zM16.994 15.412c-0.156-5.681-2.569-10.794-6.369-14.481 1.675-0.606 3.487-0.931 5.375-0.931 0.169 0 0.331 0 0.494 0.006 5.675 3.763 9.106 10.45 8.419 17.644-2.694-0.15-5.4-0.881-7.925-2.244zM8.625 1.8c1.287 1.144 2.419 2.463 3.356 3.913-5.987 2.794-10.069 8.088-11.525 14.094-0.3-1.219-0.456-2.494-0.456-3.806 0-6.175 3.5-11.531 8.625-14.2zM12.975 7.456c1.219 2.413 1.938 5.119 2.019 7.981-4.838 2.975-8.063 7.619-9.356 12.75-1.513-1.288-2.788-2.85-3.737-4.613 0.419-6.794 4.494-13.119 11.069-16.119zM16 32c-3.169 0-6.125-0.919-8.613-2.512 0.35-1.688 0.925-3.319 1.713-4.856 5.412 3.781 12.031 4.669 17.962 2.931-2.875 2.75-6.769 4.438-11.063 4.438z"/>
</svg>
