<svg version="1.1" xmlns="http://www.w3.org/2000/svg" width="36" height="32" viewBox="0 0 36 32">
<path fill="currentColor" d="M18.819 2.175c0.719 0.325 1.181 1.038 1.181 1.825v24c0 0.788-0.462 1.5-1.181 1.825s-1.563 0.194-2.15-0.331l-8.431-7.494h-4.237c-2.206 0-4-1.794-4-4v-4c0-2.206 1.794-4 4-4h4.237l8.431-7.494c0.587-0.525 1.431-0.65 2.15-0.331zM26.563 10.438l3.438 3.438 3.438-3.438c0.587-0.588 1.538-0.588 2.119 0s0.587 1.537 0 2.119l-3.438 3.438 3.438 3.437c0.587 0.587 0.587 1.538 0 2.119s-1.538 0.587-2.119 0l-3.438-3.438-3.438 3.438c-0.587 0.587-1.538 0.587-2.119 0s-0.587-1.538 0-2.119l3.438-3.438-3.438-3.438c-0.587-0.588-0.587-1.537 0-2.119s1.538-0.588 2.119 0z"/>
</svg>
