<svg version="1.1" xmlns="http://www.w3.org/2000/svg" width="28" height="32" viewBox="0 0 28 32">
<path fill="currentColor" d="M18.819 2.175c0.719 0.325 1.181 1.038 1.181 1.825v24c0 0.788-0.462 1.5-1.181 1.825s-1.563 0.194-2.15-0.331l-8.431-7.494h-4.237c-2.206 0-4-1.794-4-4v-4c0-2.206 1.794-4 4-4h4.237l8.431-7.494c0.587-0.525 1.431-0.65 2.15-0.331zM25.788 11.344c1.344 1.1 2.212 2.775 2.212 4.656s-0.869 3.556-2.212 4.656c-0.644 0.525-1.587 0.425-2.113-0.219s-0.425-1.587 0.219-2.113c0.675-0.55 1.106-1.387 1.106-2.325s-0.431-1.775-1.106-2.331c-0.644-0.525-0.738-1.469-0.219-2.113s1.469-0.738 2.113-0.219z"/>
</svg>
