<svg version="1.1" xmlns="http://www.w3.org/2000/svg" width="40" height="32" viewBox="0 0 40 32">
<path fill="currentColor" d="M33.35 2.031c4.056 3.3 6.65 8.331 6.65 13.969s-2.594 10.675-6.65 13.969c-0.644 0.525-1.587 0.425-2.113-0.219s-0.425-1.587 0.219-2.113c3.387-2.75 5.544-6.938 5.544-11.637s-2.156-8.887-5.544-11.644c-0.644-0.525-0.738-1.469-0.219-2.112s1.469-0.738 2.113-0.219zM29.569 6.688c2.7 2.2 4.431 5.556 4.431 9.313s-1.731 7.113-4.431 9.313c-0.644 0.525-1.587 0.425-2.113-0.219s-0.425-1.587 0.219-2.113c2.031-1.65 3.325-4.162 3.325-6.981s-1.294-5.331-3.325-6.988c-0.644-0.525-0.738-1.469-0.219-2.112s1.469-0.737 2.113-0.219zM25.788 11.344c1.344 1.1 2.212 2.775 2.212 4.656s-0.869 3.556-2.212 4.656c-0.644 0.525-1.587 0.425-2.113-0.219s-0.425-1.587 0.219-2.113c0.675-0.55 1.106-1.387 1.106-2.325s-0.431-1.775-1.106-2.331c-0.644-0.525-0.738-1.469-0.219-2.113s1.469-0.738 2.113-0.219zM18.819 2.175c0.719 0.325 1.181 1.038 1.181 1.825v24c0 0.788-0.462 1.5-1.181 1.825s-1.563 0.194-2.15-0.331l-8.431-7.494h-4.237c-2.206 0-4-1.794-4-4v-4c0-2.206 1.794-4 4-4h4.237l8.431-7.494c0.587-0.525 1.431-0.65 2.15-0.331z"/>
</svg>
