<svg version="1.1" xmlns="http://www.w3.org/2000/svg" width="40" height="32" viewBox="0 0 40 32">
<path fill="currentColor" d="M36 4h-32c-2.206 0-4 1.794-4 4v16c0 2.206 1.794 4 4 4h7.525c1.512 0 2.9-0.856 3.575-2.212l2-4c0.55-1.094 1.669-1.788 2.894-1.788s2.344 0.694 2.894 1.788l2 4c0.675 1.356 2.063 2.212 3.575 2.212h7.537c2.206 0 4-1.794 4-4v-16c0-2.206-1.794-4-4-4zM6 15c0-2.209 1.791-4 4-4s4 1.791 4 4v0c0 2.209-1.791 4-4 4s-4-1.791-4-4v0zM30 11c2.209 0 4 1.791 4 4s-1.791 4-4 4v0c-2.209 0-4-1.791-4-4s1.791-4 4-4v0z"/>
</svg>
