<svg version="1.1" xmlns="http://www.w3.org/2000/svg" width="36" height="32" viewBox="0 0 36 32">
<path fill="currentColor" d="M1.3 2.125c1.031-0.387 2.188 0.138 2.575 1.169l6.887 18.375 5.319-18.231c0.25-0.856 1.031-1.438 1.919-1.438s1.669 0.587 1.919 1.438l5.319 18.231 6.888-18.369c0.388-1.031 1.538-1.556 2.575-1.169s1.556 1.544 1.169 2.575l-9 24c-0.3 0.806-1.087 1.331-1.95 1.294s-1.606-0.613-1.844-1.438l-5.075-17.419-5.081 17.419c-0.244 0.825-0.988 1.406-1.844 1.438s-1.644-0.488-1.95-1.294l-9-24.006c-0.388-1.031 0.138-2.188 1.175-2.575z"/>
</svg>
