<svg version="1.1" xmlns="http://www.w3.org/2000/svg" width="24" height="32" viewBox="0 0 24 32">
<path fill="currentColor" d="M7 1.5c0-0.831-0.669-1.5-1.5-1.5s-1.5 0.669-1.5 1.5v4.5h-1c-1.656 0-3 1.344-3 3v9.756c0 0.794 0.319 1.556 0.881 2.119l0.244 0.244c0.563 0.563 0.881 1.325 0.881 2.119v5.762c0 1.656 1.344 3 3 3h13.994c1.656 0 3-1.344 3-3v-5.756c0-0.794 0.319-1.556 0.881-2.119l0.244-0.244c0.563-0.563 0.881-1.325 0.881-2.119v-9.762c0-1.656-1.344-3-3-3h-1.006c0-1.106-0.894-2-2-2s-2 0.894-2 2h-2c0-1.106-0.894-2-2-2s-2 0.894-2 2h-3v-4.5zM7 10h10c0.55 0 1 0.45 1 1s-0.45 1-1 1h-10c-0.55 0-1-0.45-1-1s0.45-1 1-1zM7 14h10c0.55 0 1 0.45 1 1s-0.45 1-1 1h-10c-0.55 0-1-0.45-1-1s0.45-1 1-1zM7 18h10c0.55 0 1 0.45 1 1s-0.45 1-1 1h-10c-0.55 0-1-0.45-1-1s0.45-1 1-1z"/>
</svg>
