<svg version="1.1" xmlns="http://www.w3.org/2000/svg" width="32" height="32" viewBox="0 0 32 32">
<path fill="currentColor" d="M29 0.381c0.594-0.531 1.5-0.506 2.063 0.056l0.5 0.5c0.563 0.563 0.587 1.469 0.056 2.063l-5.363 5.994c-0.163 0.181-0.256 0.419-0.256 0.669v1.338c0 0.55-0.45 1-1 1h-0.988c-0.288 0-0.556 0.119-0.744 0.331l-16.975 18.975c-0.4 0.444-0.963 0.694-1.556 0.694-0.55 0-1.081-0.219-1.469-0.613l-2.663-2.656c-0.388-0.394-0.606-0.919-0.606-1.469 0-0.594 0.25-1.156 0.694-1.55l6.975-6.238c0.213-0.188 0.331-0.462 0.331-0.744v-1.731c0-0.55 0.45-1 1-1h2.162c0.244 0 0.481-0.094 0.669-0.256l17.169-15.363zM27 18c0.225 0 0.419 0.15 0.481 0.363l0.925 3.231 3.231 0.925c0.212 0.063 0.363 0.256 0.363 0.481s-0.15 0.419-0.363 0.481l-3.231 0.925-0.925 3.231c-0.063 0.212-0.256 0.363-0.481 0.363s-0.419-0.15-0.481-0.363l-0.925-3.231-3.231-0.925c-0.212-0.063-0.363-0.256-0.363-0.481s0.15-0.419 0.363-0.481l3.231-0.925 0.925-3.231c0.063-0.212 0.256-0.363 0.481-0.363zM5.481 4.362l0.925 3.231 3.231 0.925c0.213 0.063 0.363 0.256 0.363 0.481s-0.15 0.419-0.363 0.481l-3.231 0.925-0.925 3.231c-0.063 0.213-0.256 0.363-0.481 0.363s-0.419-0.15-0.481-0.363l-0.925-3.231-3.231-0.925c-0.212-0.063-0.362-0.256-0.362-0.481s0.15-0.419 0.362-0.481l3.231-0.925 0.925-3.231c0.063-0.213 0.256-0.362 0.481-0.362s0.419 0.15 0.481 0.362zM13 0c0.231 0 0.431 0.156 0.488 0.381l0.425 1.706 1.706 0.425c0.225 0.056 0.381 0.256 0.381 0.487s-0.156 0.431-0.381 0.487l-1.706 0.425-0.425 1.706c-0.056 0.225-0.256 0.381-0.488 0.381s-0.431-0.156-0.488-0.381l-0.425-1.706-1.706-0.425c-0.225-0.056-0.381-0.256-0.381-0.487s0.156-0.431 0.381-0.487l1.706-0.425 0.425-1.706c0.056-0.225 0.256-0.381 0.488-0.381z"/>
</svg>
