<svg version="1.1" xmlns="http://www.w3.org/2000/svg" width="36" height="32" viewBox="0 0 36 32">
<path fill="currentColor" d="M14.669 2.669l-2.356 0.881c-0.188 0.069-0.313 0.25-0.313 0.45s0.125 0.381 0.313 0.45l2.356 0.881 0.881 2.356c0.069 0.188 0.25 0.313 0.45 0.313s0.381-0.125 0.45-0.313l0.881-2.356 2.356-0.881c0.188-0.069 0.313-0.25 0.313-0.45s-0.125-0.381-0.313-0.45l-2.356-0.881-0.881-2.356c-0.069-0.188-0.25-0.313-0.45-0.313s-0.381 0.125-0.45 0.313l-0.881 2.356zM2.881 24.712c-1.169 1.169-1.169 3.069 0 4.244l2.163 2.163c1.169 1.169 3.069 1.169 4.244 0l23.831-23.837c1.169-1.169 1.169-3.069 0-4.244l-2.163-2.156c-1.169-1.169-3.069-1.169-4.244 0l-23.831 23.831zM30.288 5.162l-6.563 6.563-1.456-1.456 6.563-6.563 1.456 1.456zM0.469 7.325c-0.281 0.106-0.469 0.375-0.469 0.675s0.188 0.569 0.469 0.675l3.531 1.325 1.325 3.531c0.106 0.281 0.375 0.469 0.675 0.469s0.569-0.188 0.675-0.469l1.325-3.531 3.531-1.325c0.281-0.106 0.469-0.375 0.469-0.675s-0.188-0.569-0.469-0.675l-3.531-1.325-1.325-3.531c-0.106-0.281-0.375-0.469-0.675-0.469s-0.569 0.188-0.675 0.469l-1.325 3.531-3.531 1.325zM22.469 23.325c-0.281 0.106-0.469 0.375-0.469 0.675s0.188 0.569 0.469 0.675l3.531 1.325 1.325 3.531c0.106 0.281 0.375 0.469 0.675 0.469s0.569-0.188 0.675-0.469l1.325-3.531 3.531-1.325c0.281-0.106 0.469-0.375 0.469-0.675s-0.188-0.569-0.469-0.675l-3.531-1.325-1.325-3.531c-0.106-0.281-0.375-0.469-0.675-0.469s-0.569 0.188-0.675 0.469l-1.325 3.531-3.531 1.325z"/>
</svg>
