<svg version="1.1" xmlns="http://www.w3.org/2000/svg" width="40" height="32" viewBox="0 0 40 32">
<path fill="currentColor" d="M0 30.5v-19.794c0-1.637 0.994-3.106 2.513-3.713l16.744-6.694c0.475-0.194 1.006-0.194 1.488 0l16.744 6.694c1.519 0.606 2.513 2.081 2.513 3.713v19.794c0 0.831-0.669 1.5-1.5 1.5h-3c-0.831 0-1.5-0.669-1.5-1.5v-16.5c0-1.106-0.894-2-2-2h-24c-1.106 0-2 0.894-2 2v16.5c0 0.831-0.669 1.5-1.5 1.5h-3c-0.831 0-1.5-0.669-1.5-1.5zM30.5 32h-21c-0.831 0-1.5-0.669-1.5-1.5v-3.5h24v3.5c0 0.831-0.669 1.5-1.5 1.5zM8 25v-4h24v4h-24zM8 19v-5h24v5h-24z"/>
</svg>
