<svg version="1.1" xmlns="http://www.w3.org/2000/svg" width="32" height="32" viewBox="0 0 32 32">
<path fill="currentColor" d="M8 11c0-4.418 3.582-8 8-8s8 3.582 8 8v0c0 4.418-3.582 8-8 8s-8-3.582-8-8v0zM24.488 4c-2.019-2.444-5.069-4-8.488-4s-6.469 1.556-8.488 4h-3.513c-2.206 0-4 1.794-4 4v20c0 2.206 1.794 4 4 4h24c2.206 0 4-1.794 4-4v-20c0-2.206-1.794-4-4-4h-3.512zM18.5 14c0-0.662-0.256-1.262-0.681-1.713l2.1-4.894c0.219-0.506-0.019-1.094-0.525-1.313s-1.094 0.019-1.313 0.525l-2.1 4.894c-1.375 0.006-2.481 1.125-2.481 2.5 0 1.381 1.119 2.5 2.5 2.5s2.5-1.119 2.5-2.5z"/>
</svg>
