<svg version="1.1" xmlns="http://www.w3.org/2000/svg" width="32" height="32" viewBox="0 0 32 32">
<path fill="currentColor" d="M31.563 2.563c0.587-0.587 0.587-1.538 0-2.119s-1.538-0.588-2.119 0l-5.506 5.494c-0.587 0.588-0.587 1.537 0 2.119s1.538 0.588 2.119 0l5.5-5.5zM19.094 1.706c-0.387-0.387-1.025-0.387-1.413 0l-0.712 0.706c-2.344 2.344-2.344 6.144 0 8.488l0.65 0.65-1.906 1.906c-0.213-1.706-0.969-3.363-2.281-4.675l-0.706-0.706c-0.387-0.388-1.025-0.388-1.412 0l-0.706 0.706c-2.344 2.344-2.344 6.144 0 8.488l0.65 0.65-1.906 1.906c-0.213-1.706-0.969-3.363-2.281-4.675l-0.706-0.713c-0.388-0.387-1.025-0.387-1.413 0l-0.706 0.706c-2.344 2.344-2.344 6.144 0 8.488l0.65 0.65-4.306 4.306c-0.781 0.781-0.781 2.050 0 2.831s2.050 0.781 2.831 0l4.306-4.306 0.762 0.762c2.344 2.344 6.144 2.344 8.488 0l0.706-0.706c0.387-0.387 0.387-1.025 0-1.413l-0.706-0.706c-1.363-1.363-3.1-2.131-4.881-2.306l1.994-1.994 0.762 0.762c2.344 2.344 6.144 2.344 8.488 0l0.706-0.706c0.387-0.387 0.387-1.025 0-1.413l-0.706-0.706c-1.363-1.363-3.1-2.131-4.881-2.306l1.994-1.994 0.762 0.762c2.344 2.344 6.144 2.344 8.488 0l0.706-0.713c0.387-0.387 0.387-1.025 0-1.412l-0.706-0.713c-0.325-0.325-0.663-0.613-1.025-0.869l2.887-2.881c0.588-0.588 0.588-1.537 0-2.119s-1.538-0.588-2.119 0l-3.712 3.713c-1.288-0.275-2.625-0.231-3.894 0.131 0.381-1.331 0.413-2.737 0.087-4.081l3.637-3.644c0.587-0.587 0.587-1.538 0-2.119s-1.538-0.588-2.119 0l-2.875 2.862c-0.231-0.313-0.488-0.613-0.775-0.894l-0.7-0.706z"/>
</svg>
