<svg version="1.1" xmlns="http://www.w3.org/2000/svg" width="40" height="32" viewBox="0 0 40 32">
<path fill="currentColor" d="M31.563 2.563c0.587-0.587 0.587-1.538 0-2.119s-1.538-0.588-2.119 0l-5.506 5.494c-0.587 0.588-0.587 1.537 0 2.119s1.538 0.588 2.119 0l5.5-5.5zM19.094 1.706c-0.387-0.387-1.025-0.387-1.413 0l-0.712 0.706c-2.344 2.344-2.344 6.144 0 8.488l0.65 0.65-1.906 1.906c-0.213-1.706-0.969-3.363-2.281-4.675l-0.706-0.706c-0.387-0.388-1.025-0.388-1.412 0l-0.706 0.706c-2.344 2.344-2.344 6.144 0 8.488l0.65 0.65-1.906 1.906c-0.213-1.706-0.969-3.363-2.281-4.675l-0.706-0.713c-0.388-0.387-1.025-0.387-1.413 0l-0.706 0.706c-2.344 2.344-2.344 6.144 0 8.488l0.65 0.65-4.306 4.306c-0.781 0.781-0.781 2.050 0 2.831s2.050 0.781 2.831 0l4.306-4.306 0.762 0.762c2.344 2.344 6.144 2.344 8.488 0l0.706-0.706c0.387-0.387 0.387-1.025 0-1.413l-0.706-0.706c-1.363-1.363-3.1-2.131-4.881-2.306l1.994-1.994 0.762 0.762c1.406 1.406 3.331 1.969 5.15 1.688 0-0.063 0-0.131 0-0.194 0-2.069 0.569-4.006 1.563-5.663-0.969-0.544-2.031-0.863-3.113-0.969l1.994-1.994 0.762 0.762c0.375 0.375 0.788 0.694 1.231 0.95 1.719-2.125 4.206-3.594 7.037-3.988-0.256-0.238-0.525-0.456-0.806-0.656l2.894-2.887c0.588-0.588 0.588-1.537 0-2.119s-1.538-0.588-2.119 0l-3.712 3.713c-1.288-0.275-2.625-0.231-3.894 0.131 0.381-1.331 0.413-2.737 0.087-4.081l3.637-3.644c0.587-0.587 0.587-1.538 0-2.119s-1.538-0.588-2.119 0l-2.875 2.862c-0.231-0.313-0.488-0.613-0.775-0.894l-0.7-0.706zM31 32c4.971 0 9-4.029 9-9s-4.029-9-9-9v0c-4.971 0-9 4.029-9 9s4.029 9 9 9v0zM31 26c0.828 0 1.5 0.672 1.5 1.5s-0.672 1.5-1.5 1.5v0c-0.828 0-1.5-0.672-1.5-1.5s0.672-1.5 1.5-1.5v0zM31 17c0.55 0 1 0.45 1 1v5c0 0.55-0.45 1-1 1s-1-0.45-1-1v-5c0-0.55 0.45-1 1-1z"/>
</svg>
