<svg version="1.1" xmlns="http://www.w3.org/2000/svg" width="28" height="32" viewBox="0 0 28 32">
<path fill="currentColor" d="M20 3c0-1.657 1.343-3 3-3s3 1.343 3 3v0c0 1.657-1.343 3-3 3s-3-1.343-3-3v0zM12.781 7.581c-0.338-0.156-0.731-0.119-1.025 0.106l-2.556 1.919c-0.881 0.662-2.138 0.481-2.8-0.4s-0.481-2.138 0.4-2.8l2.556-1.919c1.481-1.112 3.456-1.313 5.131-0.525l5.65 2.656c1.819 0.856 2.3 3.225 0.95 4.719l-2.394 2.662h6.088c1.894 0 3.313 1.731 2.944 3.588l-1.762 8.806c-0.219 1.081-1.269 1.788-2.356 1.569s-1.788-1.269-1.569-2.356l1.525-7.606h-4.394c0.538 1.225 0.831 2.575 0.831 4 0 5.525-4.475 10-10 10s-10-4.475-10-10 4.475-10 10-10c0.694 0 1.375 0.069 2.025 0.206l3.388-3.387-2.631-1.237zM10 28c3.314 0 6-2.686 6-6s-2.686-6-6-6v0c-3.314 0-6 2.686-6 6s2.686 6 6 6v0z"/>
</svg>
