<svg version="1.1" xmlns="http://www.w3.org/2000/svg" width="32" height="32" viewBox="0 0 32 32">
<path fill="currentColor" d="M12 6c1.657 0 3-1.343 3-3s-1.343-3-3-3v0c-1.657 0-3 1.343-3 3s1.343 3 3 3v0zM7.531 15.45c0.775-0.294 1.169-1.156 0.875-1.931s-1.156-1.169-1.931-0.875c-3.781 1.425-6.475 5.075-6.475 9.356 0 5.525 4.475 10 10 10 3.825 0 7.144-2.144 8.825-5.294 0.387-0.731 0.113-1.637-0.619-2.031s-1.637-0.113-2.031 0.619c-1.175 2.206-3.5 3.706-6.175 3.706-3.869 0-7-3.131-7-7 0-2.994 1.881-5.55 4.531-6.55zM16.238 11l-0.119-0.606c-0.281-1.394-1.5-2.394-2.925-2.394-1.881 0-3.294 1.719-2.925 3.563l1.444 7.219c0.375 1.869 2.013 3.212 3.925 3.212h0.319c0.025 0 0.050 0 0.081 0h5.881c0.419 0 0.788 0.256 0.938 0.65l2.269 6.056c0.375 1.006 1.488 1.538 2.506 1.194l3-1c1.050-0.35 1.613-1.481 1.262-2.531s-1.481-1.613-2.531-1.262l-1.169 0.387-1.594-4.25c-0.731-1.95-2.6-3.244-4.681-3.244h-4.281l-0.6-3h3.962c1.106 0 2-0.894 2-2s-0.894-2-2-2h-4.762z"/>
</svg>
