<svg version="1.1" xmlns="http://www.w3.org/2000/svg" width="32" height="32" viewBox="0 0 32 32">
<path fill="currentColor" d="M18 2c0 1.106 0.894 2 2 2h2c1.106 0 2 0.894 2 2s-0.894 2-2 2h-20c-1.106 0-2 0.894-2 2s0.894 2 2 2h20c3.313 0 6-2.688 6-6s-2.688-6-6-6h-2c-1.106 0-2 0.894-2 2zM22 24c0 1.106 0.894 2 2 2h2c3.313 0 6-2.688 6-6s-2.688-6-6-6h-24c-1.106 0-2 0.894-2 2s0.894 2 2 2h24c1.106 0 2 0.894 2 2s-0.894 2-2 2h-2c-1.106 0-2 0.894-2 2zM8 32h2c3.313 0 6-2.688 6-6s-2.688-6-6-6h-8c-1.106 0-2 0.894-2 2s0.894 2 2 2h8c1.106 0 2 0.894 2 2s-0.894 2-2 2h-2c-1.106 0-2 0.894-2 2s0.894 2 2 2z"/>
</svg>
