<svg version="1.1" xmlns="http://www.w3.org/2000/svg" width="32" height="32" viewBox="0 0 32 32">
<path fill="currentColor" d="M24.587 0.588c0.781-0.781 2.050-0.781 2.831 0l4 4c0.781 0.781 0.781 2.050 0 2.831-0.738 0.737-1.919 0.781-2.7 0.119l-3.644 3.644c-0.575 0.575-0.719 1.431-0.538 2.225 0.587 2.556-0.119 5.35-2.113 7.344l-10.094 10.081c-1.563 1.562-4.094 1.562-5.656 0l-5.5-5.5c-1.563-1.563-1.563-4.094 0-5.656l10.088-10.094c1.994-1.994 4.787-2.694 7.344-2.112 0.788 0.181 1.65 0.031 2.219-0.537l3.644-3.644c-0.663-0.788-0.625-1.962 0.119-2.7zM6.206 21.706l4.087 4.088c0.387 0.387 1.025 0.387 1.412 0l6.088-6.087c0.387-0.387 0.387-1.025 0-1.413l-4.088-4.088c-0.387-0.387-1.025-0.387-1.412 0l-6.088 6.088c-0.388 0.387-0.388 1.025 0 1.413z"/>
</svg>
