<svg version="1.1" xmlns="http://www.w3.org/2000/svg" width="32" height="32" viewBox="0 0 32 32">
<path fill="currentColor" d="M3.9 3.369c-0.35-1.050-1.488-1.613-2.531-1.269s-1.613 1.487-1.269 2.531l3.125 9.369h-1.225c-1.106 0-2 0.894-2 2s0.894 2 2 2h2.556l3.544 10.631c0.281 0.844 1.088 1.4 1.975 1.369s1.65-0.65 1.863-1.512l2.625-10.488h2.875l2.625 10.488c0.212 0.863 0.975 1.481 1.863 1.512s1.694-0.525 1.975-1.369l3.544-10.631h2.556c1.106 0 2-0.894 2-2s-0.894-2-2-2h-1.225l3.125-9.369c0.35-1.050-0.219-2.181-1.262-2.531s-2.181 0.219-2.531 1.263l-3.55 10.637h-3.994l-2.625-10.488c-0.219-0.888-1.019-1.512-1.938-1.512s-1.719 0.625-1.938 1.512l-2.625 10.488h-4l-3.538-10.631zM8.775 18h1.662l-0.713 2.85-0.95-2.85zM15.563 14l0.438-1.756 0.438 1.756h-0.875zM21.563 18h1.663l-0.95 2.85-0.712-2.85z"/>
</svg>
