<svg version="1.1" xmlns="http://www.w3.org/2000/svg" width="32" height="32" viewBox="0 0 32 32">
<path fill="currentColor" d="M16 6c0-3.313 2.688-6 6-6h2.4c3.094 0 5.6 2.506 5.6 5.6v17.9c0 4.694-3.806 8.5-8.5 8.5s-8.5-3.806-8.5-8.5v-5c0-1.381-1.119-2.5-2.5-2.5s-2.5 1.119-2.5 2.5v10.5c0 1.656-1.344 3-3 3s-3-1.344-3-3v-10.5c0-4.694 3.806-8.5 8.5-8.5s8.5 3.806 8.5 8.5v5c0 1.381 1.119 2.5 2.5 2.5s2.5-1.119 2.5-2.5v-11.5h-2c-3.313 0-6-2.688-6-6zM25 5.5c0-0.828-0.672-1.5-1.5-1.5s-1.5 0.672-1.5 1.5v0c0 0.828 0.672 1.5 1.5 1.5s1.5-0.672 1.5-1.5v0z"/>
</svg>
