<svg version="1.1" xmlns="http://www.w3.org/2000/svg" width="32" height="32" viewBox="0 0 32 32">
<path fill="currentColor" d="M22 20c5.525 0 10-4.475 10-10 0-0.956-0.137-1.881-0.387-2.763-0.194-0.675-1.025-0.825-1.519-0.331l-4.8 4.8c-0.188 0.188-0.444 0.294-0.706 0.294h-3.587c-0.55 0-1-0.45-1-1v-3.588c0-0.263 0.106-0.519 0.294-0.706l4.8-4.8c0.494-0.494 0.337-1.325-0.331-1.519-0.881-0.25-1.806-0.388-2.762-0.388-5.525 0-10 4.475-10 10 0 1.194 0.213 2.344 0.594 3.406l-11.35 11.35c-0.794 0.794-1.244 1.875-1.244 3 0 2.344 1.9 4.244 4.244 4.244 1.125 0 2.206-0.45 3-1.244l11.35-11.35c1.063 0.387 2.212 0.594 3.406 0.594zM5 25.5c0.828 0 1.5 0.672 1.5 1.5s-0.672 1.5-1.5 1.5v0c-0.828 0-1.5-0.672-1.5-1.5s0.672-1.5 1.5-1.5v0z"/>
</svg>
