<svg version="1.1" xmlns="http://www.w3.org/2000/svg" width="32" height="32" viewBox="0 0 32 32">
<path fill="currentColor" d="M0 4c0-1.106 0.894-2 2-2h28c1.106 0 2 0.894 2 2s-0.894 2-2 2v20c1.106 0 2 0.894 2 2s-0.894 2-2 2h-28c-1.106 0-2-0.894-2-2s0.894-2 2-2v-20c-1.106 0-2-0.894-2-2zM16 6c-0.55 0-1 0.45-1 1v2h-5c-0.55 0-1 0.45-1 1s0.45 1 1 1h5v3h-7c-0.55 0-1 0.45-1 1s0.45 1 1 1h7v4.413l-3.181-1.225c-0.325-0.125-0.662-0.188-1.012-0.188h-0.131c-1.475 0-2.675 1.2-2.675 2.675 0 0.6 0.2 1.181 0.569 1.65l1.137 1.45c0.606 0.775 1.537 1.225 2.519 1.225h7.55c0.981 0 1.913-0.45 2.519-1.225l1.137-1.45c0.369-0.469 0.569-1.050 0.569-1.65 0-1.475-1.2-2.675-2.675-2.675h-0.137c-0.344 0-0.688 0.063-1.012 0.188l-3.175 1.225v-4.413h7c0.55 0 1-0.45 1-1s-0.45-1-1-1h-7v-3h5c0.55 0 1-0.45 1-1s-0.45-1-1-1h-5v-2c0-0.55-0.45-1-1-1zM13 22c0.552 0 1 0.448 1 1s-0.448 1-1 1v0c-0.552 0-1-0.448-1-1s0.448-1 1-1v0zM18 23c0-0.552 0.448-1 1-1s1 0.448 1 1v0c0 0.552-0.448 1-1 1s-1-0.448-1-1v0z"/>
</svg>
