<svg version="1.1" xmlns="http://www.w3.org/2000/svg" width="40" height="32" viewBox="0 0 40 32">
<path fill="currentColor" d="M2 2c-1.106 0-2 0.894-2 2s0.894 2 2 2h36c1.106 0 2-0.894 2-2s-0.894-2-2-2h-36zM2 26c-1.106 0-2 0.894-2 2s0.894 2 2 2h36c1.106 0 2-0.894 2-2s-0.894-2-2-2h-36zM0.438 10.438c-0.588 0.588-0.588 1.537 0 2.119l3.438 3.438-3.438 3.444c-0.588 0.587-0.588 1.538 0 2.119s1.538 0.587 2.119 0l3.438-3.438 3.438 3.438c0.588 0.587 1.537 0.587 2.119 0s0.588-1.538 0-2.119l-3.438-3.438 3.438-3.438c0.588-0.588 0.588-1.537 0-2.119s-1.537-0.588-2.119 0l-3.438 3.438-3.431-3.444c-0.587-0.588-1.538-0.588-2.119 0zM16.563 10.438c-0.588-0.588-1.537-0.588-2.119 0s-0.588 1.537 0 2.119l3.438 3.438-3.438 3.437c-0.588 0.587-0.588 1.538 0 2.119s1.537 0.587 2.119 0l3.438-3.438 3.438 3.438c0.587 0.587 1.538 0.587 2.119 0s0.587-1.538 0-2.119l-3.438-3.438 3.438-3.438c0.587-0.588 0.587-1.537 0-2.119s-1.538-0.588-2.119 0l-3.438 3.438-3.438-3.438zM28.438 10.438c-0.587 0.588-0.587 1.537 0 2.119l3.438 3.438-3.438 3.437c-0.587 0.587-0.587 1.538 0 2.119s1.538 0.587 2.119 0l3.438-3.438 3.438 3.438c0.587 0.587 1.538 0.587 2.119 0s0.587-1.538 0-2.119l-3.438-3.438 3.438-3.438c0.587-0.588 0.587-1.537 0-2.119s-1.538-0.588-2.119 0l-3.438 3.438-3.438-3.438c-0.587-0.588-1.538-0.588-2.119 0z"/>
</svg>
