<svg version="1.1" xmlns="http://www.w3.org/2000/svg" width="20" height="32" viewBox="0 0 20 32">
<path fill="currentColor" d="M3.663 2.888c-0.613-0.919-1.85-1.163-2.769-0.55s-1.169 1.85-0.556 2.769l5.925 8.894h-3.263c-1.106 0-2 0.894-2 2s0.894 2 2 2h5v2h-5c-1.106 0-2 0.894-2 2s0.894 2 2 2h5v4c0 1.106 0.894 2 2 2s2-0.894 2-2v-4h5c1.106 0 2-0.894 2-2s-0.894-2-2-2h-5v-2h5c1.106 0 2-0.894 2-2s-0.894-2-2-2h-3.262l5.925-8.894c0.613-0.919 0.363-2.163-0.556-2.775s-2.163-0.363-2.775 0.556l-6.331 9.506-6.338-9.506z"/>
</svg>
