<svg version="1.1" xmlns="http://www.w3.org/2000/svg" width="36" height="32" viewBox="0 0 36 32">
<path fill="currentColor" d="M32 5c0.55 0 1 0.45 1 1v20c0 0.55-0.45 1-1 1h-28c-0.55 0-1-0.45-1-1v-20c0-0.55 0.45-1 1-1h28zM4 2c-2.206 0-4 1.794-4 4v20c0 2.206 1.794 4 4 4h28c2.206 0 4-1.794 4-4v-20c0-2.206-1.794-4-4-4h-28zM13 16c2.209 0 4-1.791 4-4s-1.791-4-4-4v0c-2.209 0-4 1.791-4 4s1.791 4 4 4v0zM11 18c-2.762 0-5 2.238-5 5 0 0.55 0.45 1 1 1h12c0.55 0 1-0.45 1-1 0-2.762-2.238-5-5-5h-4zM23.5 9c-0.831 0-1.5 0.669-1.5 1.5s0.669 1.5 1.5 1.5h5c0.831 0 1.5-0.669 1.5-1.5s-0.669-1.5-1.5-1.5h-5zM23.5 15c-0.831 0-1.5 0.669-1.5 1.5s0.669 1.5 1.5 1.5h5c0.831 0 1.5-0.669 1.5-1.5s-0.669-1.5-1.5-1.5h-5z"/>
</svg>
