<svg version="1.1" xmlns="http://www.w3.org/2000/svg" width="32" height="32" viewBox="0 0 32 32">
<path fill="currentColor" d="M24 3c0.55 0 1 0.45 1 1v24c0 0.55-0.45 1-1 1h-18c-0.55 0-1-0.45-1-1v-24c0-0.55 0.45-1 1-1h18zM6 0c-2.206 0-4 1.794-4 4v24c0 2.206 1.794 4 4 4h18c2.206 0 4-1.794 4-4v-24c0-2.206-1.794-4-4-4h-18zM15 16c2.209 0 4-1.791 4-4s-1.791-4-4-4v0c-2.209 0-4 1.791-4 4s1.791 4 4 4v0zM13 18c-2.762 0-5 2.238-5 5 0 0.55 0.45 1 1 1h12c0.55 0 1-0.45 1-1 0-2.762-2.238-5-5-5h-4zM32 5c0-0.55-0.45-1-1-1s-1 0.45-1 1v4c0 0.55 0.45 1 1 1s1-0.45 1-1v-4zM31 12c-0.55 0-1 0.45-1 1v4c0 0.55 0.45 1 1 1s1-0.45 1-1v-4c0-0.55-0.45-1-1-1zM32 21c0-0.55-0.45-1-1-1s-1 0.45-1 1v4c0 0.55 0.45 1 1 1s1-0.45 1-1v-4z"/>
</svg>
