<svg version="1.1" xmlns="http://www.w3.org/2000/svg" width="40" height="32" viewBox="0 0 40 32">
<path fill="currentColor" d="M2.425 0.319c-0.65-0.512-1.594-0.394-2.106 0.256s-0.394 1.594 0.256 2.106l37 29c0.65 0.513 1.594 0.394 2.106-0.256s0.394-1.594-0.256-2.106l-5.513-4.319c0.169-0.488 0.081-1.031-0.244-1.438l-0.931-1.163c-1.769-2.219-2.738-4.975-2.738-7.813v-2.088c0-4.737-3.469-8.662-8-9.381v-1.119c0-1.106-0.894-2-2-2s-2 0.894-2 2v1.119c-2.744 0.438-5.094 2.044-6.525 4.294l-9.050-7.094zM13.856 9.275c1.119-1.956 3.225-3.275 5.644-3.275h1c3.587 0 6.5 2.912 6.5 6.5v2.088c0 2.044 0.4 4.050 1.169 5.906l-14.313-11.219zM25.387 26l-3.806-3h-11.063c1.325-2.050 2.15-4.394 2.4-6.819l-2.919-2.3v0.713c0 2.838-0.969 5.594-2.737 7.806l-0.931 1.163c-0.362 0.45-0.431 1.069-0.181 1.587s0.775 0.85 1.35 0.85h17.887zM24 28h-8c0 1.063 0.419 2.081 1.169 2.831s1.769 1.169 2.831 1.169 2.081-0.419 2.831-1.169 1.169-1.769 1.169-2.831z"/>
</svg>
