<svg version="1.1" xmlns="http://www.w3.org/2000/svg" width="28" height="32" viewBox="0 0 28 32">
<path fill="currentColor" d="M14 0c-1.106 0-2 0.894-2 2v1.119c-4.531 0.719-8 4.644-8 9.381v2.088c0 2.838-0.969 5.594-2.737 7.806l-0.931 1.169c-0.362 0.45-0.431 1.069-0.181 1.587s0.775 0.85 1.35 0.85h25c0.575 0 1.1-0.331 1.35-0.85s0.181-1.137-0.181-1.587l-0.931-1.163c-1.769-2.219-2.738-4.975-2.738-7.813v-2.088c0-4.737-3.469-8.662-8-9.381v-1.119c0-1.106-0.894-2-2-2zM14 6h0.5c3.587 0 6.5 2.912 6.5 6.5v2.088c0 2.994 0.869 5.912 2.481 8.412h-18.962c1.612-2.5 2.481-5.419 2.481-8.412v-2.088c0-3.588 2.913-6.5 6.5-6.5h0.5zM18 28h-8c0 1.063 0.419 2.081 1.169 2.831s1.769 1.169 2.831 1.169 2.081-0.419 2.831-1.169 1.169-1.769 1.169-2.831z"/>
</svg>
