<svg version="1.1" xmlns="http://www.w3.org/2000/svg" width="24" height="32" viewBox="0 0 24 32">
<path fill="currentColor" d="M4 3c-0.55 0-1 0.45-1 1v24c0 0.55 0.45 1 1 1h5v-4c0-1.656 1.344-3 3-3s3 1.344 3 3v4h5c0.55 0 1-0.45 1-1v-24c0-0.55-0.45-1-1-1h-16zM0 4c0-2.206 1.794-4 4-4h16c2.206 0 4 1.794 4 4v24c0 2.206-1.794 4-4 4h-16c-2.206 0-4-1.794-4-4v-24zM5.5 6.5c0-0.55 0.45-1 1-1h3c0.55 0 1 0.45 1 1v3c0 0.55-0.45 1-1 1h-3c-0.55 0-1-0.45-1-1v-3zM14.5 5.5h3c0.55 0 1 0.45 1 1v3c0 0.55-0.45 1-1 1h-3c-0.55 0-1-0.45-1-1v-3c0-0.55 0.45-1 1-1zM5.5 14.5c0-0.55 0.45-1 1-1h3c0.55 0 1 0.45 1 1v3c0 0.55-0.45 1-1 1h-3c-0.55 0-1-0.45-1-1v-3zM14.5 13.5h3c0.55 0 1 0.45 1 1v3c0 0.55-0.45 1-1 1h-3c-0.55 0-1-0.45-1-1v-3c0-0.55 0.45-1 1-1z"/>
</svg>
