<svg version="1.1" xmlns="http://www.w3.org/2000/svg" width="32" height="32" viewBox="0 0 32 32">
<path fill="currentColor" d="M10 0c0.831 0 1.5 0.669 1.5 1.5v2.5h9v-2.5c0-0.831 0.669-1.5 1.5-1.5s1.5 0.669 1.5 1.5v2.5h2.5c2.206 0 4 1.794 4 4v20c0 2.206-1.794 4-4 4h-20c-2.206 0-4-1.794-4-4v-20c0-2.206 1.794-4 4-4h2.5v-2.5c0-0.831 0.669-1.5 1.5-1.5zM27 12h-22v16c0 0.55 0.45 1 1 1h20c0.55 0 1-0.45 1-1v-16zM20.5 22h-9c-0.831 0-1.5-0.669-1.5-1.5s0.669-1.5 1.5-1.5h9c0.831 0 1.5 0.669 1.5 1.5s-0.669 1.5-1.5 1.5z"/>
</svg>
