<svg version="1.1" xmlns="http://www.w3.org/2000/svg" width="32" height="32" viewBox="0 0 32 32">
<path fill="currentColor" d="M11.5 1.5c0-0.831-0.669-1.5-1.5-1.5s-1.5 0.669-1.5 1.5v2.5h-2.5c-2.206 0-4 1.794-4 4v20c0 2.206 1.794 4 4 4h20c2.206 0 4-1.794 4-4v-20c0-2.206-1.794-4-4-4h-2.5v-2.5c0-0.831-0.669-1.5-1.5-1.5s-1.5 0.669-1.5 1.5v2.5h-9v-2.5zM5 12h22v16c0 0.55-0.45 1-1 1h-20c-0.55 0-1-0.45-1-1v-16zM16 14.5c-0.831 0-1.5 0.669-1.5 1.5v3h-3c-0.831 0-1.5 0.669-1.5 1.5s0.669 1.5 1.5 1.5h3v3c0 0.831 0.669 1.5 1.5 1.5s1.5-0.669 1.5-1.5v-3h3c0.831 0 1.5-0.669 1.5-1.5s-0.669-1.5-1.5-1.5h-3v-3c0-0.831-0.669-1.5-1.5-1.5z"/>
</svg>
