<svg version="1.1" xmlns="http://www.w3.org/2000/svg" width="32" height="32" viewBox="0 0 32 32">
<path fill="currentColor" d="M1.5 2c0.831 0 1.5 0.669 1.5 1.5v22c0 0.831 0.669 1.5 1.5 1.5h26c0.831 0 1.5 0.669 1.5 1.5s-0.669 1.5-1.5 1.5h-26c-2.487 0-4.5-2.012-4.5-4.5v-22c0-0.831 0.669-1.5 1.5-1.5zM8 8.5c0-0.831 0.669-1.5 1.5-1.5h13c0.831 0 1.5 0.669 1.5 1.5s-0.669 1.5-1.5 1.5h-13c-0.831 0-1.5-0.669-1.5-1.5zM9.5 13h9c0.831 0 1.5 0.669 1.5 1.5s-0.669 1.5-1.5 1.5h-9c-0.831 0-1.5-0.669-1.5-1.5s0.669-1.5 1.5-1.5zM9.5 19h17c0.831 0 1.5 0.669 1.5 1.5s-0.669 1.5-1.5 1.5h-17c-0.831 0-1.5-0.669-1.5-1.5s0.669-1.5 1.5-1.5z"/>
</svg>
