<svg version="1.1" xmlns="http://www.w3.org/2000/svg" width="28" height="32" viewBox="0 0 28 32">
<path fill="currentColor" d="M14.162 3h-6.831l1.069 0.8c0.375 0.281 0.6 0.725 0.6 1.2s-0.225 0.919-0.6 1.2l-0.406 0.306c-0.625 0.469-1 1.206-1 1.994l-0.019 5.688c0 0.637 0.306 1.244 0.825 1.613l0.119 0.081c0.619 0.444 1.456 0.438 2.075-0.006l3.119-2.269c0.669-0.488 1.606-0.338 2.094 0.331s0.338 1.606-0.331 2.094l-6.481 4.713c-0.456 0.331-0.813 0.762-1.056 1.256h-3.162c0.331-1.381 1.112-2.619 2.244-3.519-0.081-0.050-0.162-0.106-0.237-0.163l-0.119-0.081c-1.313-0.938-2.087-2.45-2.081-4.063l0.019-5.688c0.006-1.237 0.419-2.419 1.163-3.369l-0.025-0.019c-0.719-0.537-1.138-1.375-1.138-2.269 0-1.563 1.269-2.831 2.831-2.831h7.331c6.538 0 11.837 5.3 11.837 11.838 0 0.694-0.063 1.387-0.181 2.075l-1.438 8.088h-3.050l1.531-8.613c0.094-0.512 0.137-1.031 0.137-1.55 0-4.881-3.956-8.838-8.838-8.838zM5.325 27l-1.031 2h19.413l-1.038-2h-17.344zM25.056 25.081l1.656 3.2c0.188 0.363 0.288 0.762 0.288 1.169 0 1.406-1.137 2.55-2.55 2.55h-20.9c-1.413 0-2.55-1.137-2.55-2.55 0-0.406 0.1-0.806 0.288-1.169l1.656-3.2c0.337-0.663 1.025-1.081 1.775-1.081h18.563c0.75 0 1.431 0.419 1.775 1.081zM10.75 8c0.69 0 1.25 0.56 1.25 1.25s-0.56 1.25-1.25 1.25v0c-0.69 0-1.25-0.56-1.25-1.25s0.56-1.25 1.25-1.25v0z"/>
</svg>
