<svg version="1.1" xmlns="http://www.w3.org/2000/svg" width="28" height="32" viewBox="0 0 28 32">
<path fill="currentColor" d="M15.5 1.5c0-0.831-0.669-1.5-1.5-1.5s-1.5 0.669-1.5 1.5v2h-2c-0.831 0-1.5 0.669-1.5 1.5s0.669 1.5 1.5 1.5h2v2.5h-8.775c-2.056 0-3.725 1.669-3.725 3.725 0 0.512 0.106 1.019 0.306 1.488l3.388 7.787h3.269l-3.9-8.988c-0.038-0.094-0.063-0.188-0.063-0.287 0-0.4 0.325-0.725 0.725-0.725h20.55c0.4 0 0.725 0.325 0.725 0.725 0 0.1-0.019 0.2-0.063 0.287l-3.906 8.988h3.269l3.387-7.787c0.206-0.469 0.306-0.975 0.306-1.488 0-2.056-1.669-3.725-3.725-3.725h-8.769v-2.5h2c0.831 0 1.5-0.669 1.5-1.5s-0.669-1.5-1.5-1.5h-2v-2zM6.325 27h15.35l1.038 2h-17.419l1.037-2zM24.056 25.081c-0.344-0.663-1.031-1.081-1.775-1.081h-16.563c-0.75 0-1.431 0.419-1.775 1.081l-1.656 3.2c-0.188 0.363-0.288 0.762-0.288 1.169 0 1.413 1.138 2.55 2.55 2.55h18.9c1.406 0 2.55-1.137 2.55-2.55 0-0.406-0.1-0.806-0.288-1.169l-1.656-3.2z"/>
</svg>
