<svg version="1.1" xmlns="http://www.w3.org/2000/svg" width="28" height="32" viewBox="0 0 28 32">
<path fill="currentColor" d="M5 5v7c0 0.156 0.075 0.306 0.2 0.4l3.2 2.4c0.425 0.319 0.65 0.838 0.594 1.369l-0.65 5.831h-3.019l0.588-5.313-2.513-1.887c-0.881-0.662-1.4-1.7-1.4-2.8v-7.5c0-1.381 1.119-2.5 2.5-2.5h19c1.381 0 2.5 1.119 2.5 2.5v7.5c0 1.1-0.519 2.137-1.4 2.8l-2.512 1.887 0.587 5.313h-3.019l-0.65-5.831c-0.056-0.525 0.169-1.050 0.594-1.369l3.2-2.4c0.125-0.094 0.2-0.244 0.2-0.4v-7h-4v1.5c0 0.831-0.669 1.5-1.5 1.5s-1.5-0.669-1.5-1.5v-1.5h-4v1.5c0 0.831-0.669 1.5-1.5 1.5s-1.5-0.669-1.5-1.5v-1.5h-4zM5.294 29h17.413l-1.038-2h-15.344l-1.031 2zM22.288 24c0.75 0 1.431 0.419 1.775 1.081l1.656 3.2c0.188 0.363 0.288 0.762 0.288 1.169 0 1.406-1.137 2.55-2.55 2.55h-18.906c-1.413 0-2.55-1.137-2.55-2.55 0-0.406 0.1-0.806 0.288-1.169l1.656-3.2c0.337-0.663 1.025-1.081 1.775-1.081h16.563zM13 18c-0.55 0-1-0.45-1-1v-3c0-1.106 0.894-2 2-2s2 0.894 2 2v3c0 0.55-0.45 1-1 1h-2z"/>
</svg>
