<svg version="1.1" xmlns="http://www.w3.org/2000/svg" width="32" height="32" viewBox="0 0 32 32">
<path fill="currentColor" d="M16 6c1.657 0 3-1.343 3-3s-1.343-3-3-3v0c-1.657 0-3 1.343-3 3s1.343 3 3 3v0zM10.050 5.5c-1.131 0-1.956 0.8-2.225 1.681-0.5 1.637-2.025 2.825-3.825 2.825-0.625 0-1.212-0.144-1.731-0.394-0.475-0.231-1.044-0.206-1.5 0.075-0.725 0.444-0.963 1.381-0.537 2.119l5.869 10.194h3.463l-5.188-9.006c2.531-0.137 4.706-1.619 5.819-3.737 1.375 1.675 3.463 2.744 5.8 2.744s4.425-1.069 5.8-2.744c1.113 2.125 3.288 3.606 5.819 3.738l-5.175 9.006h3.462l5.869-10.194c0.425-0.731 0.188-1.669-0.538-2.112-0.456-0.281-1.025-0.306-1.5-0.075-0.525 0.25-1.106 0.394-1.731 0.394-1.8 0-3.325-1.188-3.825-2.825-0.269-0.888-1.094-1.688-2.225-1.688-0.906 0-1.644 0.531-2.025 1.206-0.775 1.375-2.244 2.294-3.925 2.294s-3.15-0.925-3.925-2.294c-0.381-0.675-1.113-1.206-2.025-1.206zM8.325 27h15.35l1.038 2h-17.419l1.037-2zM26.056 25.081c-0.344-0.663-1.031-1.081-1.775-1.081h-16.563c-0.75 0-1.431 0.419-1.775 1.081l-1.656 3.2c-0.188 0.363-0.288 0.762-0.288 1.169 0 1.406 1.137 2.55 2.55 2.55h18.9c1.406 0 2.55-1.137 2.55-2.55 0-0.406-0.1-0.806-0.288-1.169l-1.656-3.2z"/>
</svg>
