<svg version="1.1" xmlns="http://www.w3.org/2000/svg" width="20" height="32" viewBox="0 0 20 32">
<path fill="currentColor" d="M6.5 0c-0.831 0-1.5 0.669-1.5 1.5 0 0.7 0.475 1.288 1.125 1.45-0.487 0.5-1.006 1.063-1.525 1.688-2.212 2.656-4.6 6.538-4.6 11.044 0 2.8 1.538 4.512 3 5.488v0.831h3v-1.688c0-0.563-0.313-1.075-0.813-1.331-1.125-0.581-2.188-1.544-2.188-3.294 0-3.469 1.862-6.675 3.9-9.119 1-1.2 2.006-2.175 2.763-2.844 0.119-0.106 0.231-0.2 0.331-0.288 0.106 0.087 0.213 0.188 0.331 0.288 0.756 0.669 1.762 1.644 2.762 2.844 0.331 0.394 0.656 0.813 0.969 1.25l-4.119 4.119c-0.588 0.588-0.588 1.537 0 2.119s1.537 0.588 2.119 0l3.613-3.612c0.8 1.619 1.325 3.394 1.325 5.238 0 1.75-1.063 2.712-2.188 3.294-0.5 0.256-0.813 0.769-0.813 1.331v1.688h3v-0.825c1.462-0.975 3-2.681 3-5.488 0-4.506-2.387-8.387-4.6-11.044-0.519-0.619-1.037-1.188-1.525-1.688 0.644-0.169 1.125-0.756 1.125-1.45 0-0.831-0.669-1.5-1.5-1.5h-6.994zM3.294 29l1.038-2h11.344l1.038 2h-13.419zM16.288 24h-12.569c-0.75 0-1.431 0.419-1.775 1.081l-1.656 3.2c-0.188 0.363-0.287 0.762-0.287 1.169 0 1.413 1.138 2.55 2.55 2.55h14.9c1.406 0 2.55-1.137 2.55-2.55 0-0.406-0.1-0.806-0.288-1.169l-1.656-3.2c-0.344-0.663-1.031-1.081-1.775-1.081z"/>
</svg>
