<svg version="1.1" xmlns="http://www.w3.org/2000/svg" width="32" height="32" viewBox="0 0 32 32">
<path fill="currentColor" d="M29 16c0-7.18-5.82-13-13-13s-13 5.82-13 13v0c0 7.18 5.82 13 13 13s13-5.82 13-13v0zM0 16c0-8.837 7.163-16 16-16s16 7.163 16 16v0c0 8.837-7.163 16-16 16s-16-7.163-16-16v0zM14 11.5v9c0 0.831-0.669 1.5-1.5 1.5s-1.5-0.669-1.5-1.5v-9c0-0.831 0.669-1.5 1.5-1.5s1.5 0.669 1.5 1.5zM21 11.5v9c0 0.831-0.669 1.5-1.5 1.5s-1.5-0.669-1.5-1.5v-9c0-0.831 0.669-1.5 1.5-1.5s1.5 0.669 1.5 1.5z"/>
</svg>
