<svg version="1.1" xmlns="http://www.w3.org/2000/svg" width="32" height="32" viewBox="0 0 32 32">
<path fill="currentColor" d="M29 16c0-7.18-5.82-13-13-13s-13 5.82-13 13v0c0 7.18 5.82 13 13 13s13-5.82 13-13v0zM0 16c0-8.837 7.163-16 16-16s16 7.163 16 16v0c0 8.837-7.163 16-16 16s-16-7.163-16-16v0zM11.769 9.194c0.475-0.262 1.050-0.256 1.519 0.031l9 5.5c0.444 0.275 0.719 0.756 0.719 1.281s-0.275 1.006-0.719 1.281l-9 5.5c-0.463 0.281-1.044 0.294-1.519 0.031s-0.769-0.762-0.769-1.306v-11.012c0-0.544 0.294-1.044 0.769-1.306z"/>
</svg>
