<svg version="1.1" xmlns="http://www.w3.org/2000/svg" width="32" height="32" viewBox="0 0 32 32">
<path fill="currentColor" d="M3 16c0-7.18 5.82-13 13-13s13 5.82 13 13v0c0 7.18-5.82 13-13 13s-13-5.82-13-13v0zM32 16c0-8.837-7.163-16-16-16s-16 7.163-16 16v0c0 8.837 7.163 16 16 16s16-7.163 16-16v0zM13.588 23.556c0.262 0.281 0.631 0.444 1.019 0.444 0.769 0 1.394-0.625 1.394-1.394v-3.606h6c1.106 0 2-0.894 2-2v-2c0-1.106-0.894-2-2-2h-6v-3.606c0-0.769-0.625-1.394-1.394-1.394-0.387 0-0.756 0.162-1.019 0.444l-6.244 6.694c-0.219 0.238-0.344 0.544-0.344 0.863s0.125 0.631 0.344 0.863l6.244 6.694z"/>
</svg>
