<svg version="1.1" xmlns="http://www.w3.org/2000/svg" width="32" height="32" viewBox="0 0 32 32">
<path fill="currentColor" d="M16 3c7.18 0 13 5.82 13 13s-5.82 13-13 13v0c-7.18 0-13-5.82-13-13s5.82-13 13-13v0zM16 32c8.837 0 16-7.163 16-16s-7.163-16-16-16v0c-8.837 0-16 7.163-16 16s7.163 16 16 16v0zM8.444 13.588c-0.281 0.262-0.444 0.631-0.444 1.019 0 0.769 0.625 1.394 1.394 1.394h3.606v6c0 1.106 0.894 2 2 2h2c1.106 0 2-0.894 2-2v-6h3.606c0.769 0 1.394-0.625 1.394-1.394 0-0.387-0.163-0.756-0.444-1.019l-6.694-6.244c-0.238-0.219-0.544-0.344-0.863-0.344s-0.631 0.125-0.863 0.344l-6.694 6.244z"/>
</svg>
