<svg version="1.1" xmlns="http://www.w3.org/2000/svg" width="32" height="32" viewBox="0 0 32 32">
<path fill="currentColor" d="M16 3c7.18 0 13 5.82 13 13s-5.82 13-13 13v0c-7.18 0-13-5.82-13-13s5.82-13 13-13v0zM16 32c8.837 0 16-7.163 16-16s-7.163-16-16-16v0c-8.837 0-16 7.163-16 16s7.163 16 16 16v0zM23.063 13.063c0.587-0.588 0.587-1.537 0-2.119s-1.538-0.588-2.119 0l-6.938 6.938-2.938-2.938c-0.588-0.588-1.537-0.588-2.119 0s-0.588 1.538 0 2.119l4 4c0.588 0.587 1.537 0.587 2.119 0l7.994-8z"/>
</svg>
