<svg version="1.1" xmlns="http://www.w3.org/2000/svg" width="40" height="32" viewBox="0 0 40 32">
<path fill="currentColor" d="M5.513 19.319c0.612-1.144 0.425-2.55-0.469-3.488-1.331-1.4-2.044-3.081-2.044-4.831 0-3.969 3.987-8 10-8s10 4.031 10 8-3.988 8-10 8c-0.819 0-1.613-0.081-2.363-0.225-0.65-0.125-1.325-0.038-1.919 0.262-0.256 0.131-0.519 0.256-0.787 0.375-1 0.45-2.056 0.844-3.119 1.125 0.175-0.288 0.338-0.569 0.494-0.85 0.069-0.119 0.138-0.244 0.2-0.369zM0 11c0 2.613 1.075 5.006 2.869 6.894-0.056 0.106-0.119 0.219-0.175 0.319-0.644 1.15-1.394 2.281-2.288 3.256-0.412 0.438-0.519 1.075-0.287 1.619 0.244 0.556 0.781 0.913 1.381 0.913 2.688 0 5.406-0.831 7.669-1.856 0.3-0.137 0.6-0.281 0.887-0.425 0.944 0.188 1.931 0.281 2.944 0.281 7.181 0 13-4.925 13-11s-5.819-11-13-11-13 4.925-13 11zM27 30c1.012 0 1.994-0.1 2.944-0.281 0.288 0.144 0.587 0.288 0.887 0.425 2.262 1.025 4.981 1.856 7.669 1.856 0.6 0 1.138-0.356 1.375-0.906s0.125-1.188-0.288-1.619c-0.888-0.975-1.638-2.106-2.288-3.256-0.056-0.106-0.119-0.212-0.175-0.319 1.8-1.894 2.875-4.288 2.875-6.9 0-5.9-5.494-10.719-12.387-10.988 0.256 0.95 0.387 1.95 0.387 2.988v0.037c5.45 0.419 9 4.219 9 7.963 0 1.75-0.712 3.431-2.044 4.825-0.894 0.938-1.081 2.35-0.469 3.488 0.069 0.125 0.138 0.25 0.2 0.369 0.156 0.281 0.325 0.563 0.494 0.85-1.063-0.281-2.119-0.669-3.119-1.125-0.269-0.119-0.531-0.244-0.788-0.375-0.594-0.3-1.269-0.387-1.919-0.262-0.756 0.15-1.544 0.225-2.363 0.225-3.856 0-6.875-1.656-8.55-3.894-1 0.337-2.050 0.587-3.125 0.738 2.119 3.65 6.556 6.162 11.681 6.162z"/>
</svg>
