<svg version="1.1" xmlns="http://www.w3.org/2000/svg" width="36" height="32" viewBox="0 0 36 32">
<path fill="currentColor" d="M32 5c0.55 0 1 0.45 1 1v2h-30v-2c0-0.55 0.45-1 1-1h28zM33 14v12c0 0.55-0.45 1-1 1h-28c-0.55 0-1-0.45-1-1v-12h30zM4 2c-2.206 0-4 1.794-4 4v20c0 2.206 1.794 4 4 4h28c2.206 0 4-1.794 4-4v-20c0-2.206-1.794-4-4-4h-28zM7.5 21c-0.831 0-1.5 0.669-1.5 1.5s0.669 1.5 1.5 1.5h3c0.831 0 1.5-0.669 1.5-1.5s-0.669-1.5-1.5-1.5h-3zM15.5 21c-0.831 0-1.5 0.669-1.5 1.5s0.669 1.5 1.5 1.5h7c0.831 0 1.5-0.669 1.5-1.5s-0.669-1.5-1.5-1.5h-7z"/>
</svg>
