<svg version="1.1" xmlns="http://www.w3.org/2000/svg" width="32" height="32" viewBox="0 0 32 32">
<path fill="currentColor" d="M15.963 3.013c0.012-0.006 0.025-0.013 0.037-0.013s0.025 0.006 0.038 0.013l12.75 9.113c0.131 0.094 0.212 0.244 0.212 0.406v0.85l-10.781 8.85c-1.294 1.063-3.15 1.063-4.444 0l-10.775-8.85v-0.85c0-0.162 0.075-0.313 0.212-0.406l12.75-9.113zM3 17.262l8.875 7.287c2.4 1.969 5.856 1.969 8.25 0l8.875-7.288v11.238c0 0.275-0.225 0.5-0.5 0.5h-25c-0.275 0-0.5-0.225-0.5-0.5v-11.238zM16 0c-0.637 0-1.262 0.2-1.781 0.569l-12.75 9.113c-0.925 0.656-1.469 1.719-1.469 2.85v15.969c0 1.931 1.569 3.5 3.5 3.5h25c1.931 0 3.5-1.569 3.5-3.5v-15.969c0-1.131-0.544-2.194-1.462-2.85l-12.756-9.113c-0.519-0.369-1.144-0.569-1.781-0.569z"/>
</svg>
