<svg version="1.1" xmlns="http://www.w3.org/2000/svg" width="40" height="32" viewBox="0 0 40 32">
<path fill="currentColor" d="M2.425 0.319c-0.65-0.512-1.594-0.394-2.106 0.256s-0.394 1.594 0.256 2.106l37 29c0.65 0.513 1.594 0.394 2.106-0.256s0.394-1.594-0.256-2.106l-6.575-5.15c2.475-2.538 4.15-5.381 4.994-7.4 0.206-0.494 0.206-1.044 0-1.537-0.931-2.231-2.888-5.481-5.813-8.194-2.938-2.737-6.981-5.037-12.031-5.037-4.262 0-7.813 1.644-10.581 3.8l-6.994-5.481zM11.863 7.713c2.262-1.606 4.981-2.713 8.137-2.713 4.075 0 7.425 1.85 9.994 4.231 2.406 2.238 4.069 4.894 4.919 6.769-0.788 1.75-2.288 4.175-4.431 6.306l-3.363-2.637c0.569-1.1 0.887-2.344 0.887-3.669 0-4.419-3.581-8-8-8-2.012 0-3.856 0.744-5.262 1.969l-2.881-2.256zM24.681 17.762l-5.094-3.994c0.262-0.531 0.413-1.137 0.413-1.769 0-0.344-0.044-0.681-0.125-1 0.044 0 0.081 0 0.125 0 2.762 0 5 2.237 5 5 0 0.619-0.113 1.213-0.319 1.763zM25.269 25.906c-1.594 0.681-3.35 1.094-5.269 1.094-4.075 0-7.425-1.85-9.994-4.231-2.406-2.238-4.069-4.894-4.919-6.769 0.519-1.15 1.344-2.594 2.462-4.050l-2.356-1.856c-1.425 1.856-2.444 3.706-3.038 5.137-0.206 0.494-0.206 1.044 0 1.538 0.931 2.231 2.888 5.481 5.813 8.194 2.938 2.738 6.981 5.038 12.031 5.038 2.988 0 5.619-0.806 7.887-2.031l-2.619-2.063zM12 16c0 4.419 3.581 8 8 8 0.831 0 1.631-0.125 2.387-0.363l-3.512-2.762c-1.469-0.337-2.694-1.325-3.356-2.644l-3.506-2.762c-0.012 0.175-0.019 0.35-0.019 0.531z"/>
</svg>
