<svg version="1.1" xmlns="http://www.w3.org/2000/svg" width="36" height="32" viewBox="0 0 36 32">
<path fill="currentColor" d="M18 5c-4.075 0-7.425 1.85-9.994 4.231-2.406 2.238-4.069 4.894-4.919 6.769 0.85 1.875 2.513 4.531 4.912 6.769 2.575 2.381 5.925 4.231 10 4.231s7.425-1.85 9.994-4.231c2.406-2.238 4.069-4.894 4.919-6.769-0.85-1.875-2.512-4.531-4.913-6.769-2.575-2.381-5.925-4.231-10-4.231zM5.963 7.037c2.944-2.737 6.987-5.037 12.037-5.037s9.094 2.3 12.038 5.037c2.925 2.719 4.881 5.963 5.813 8.194 0.206 0.494 0.206 1.044 0 1.538-0.931 2.231-2.888 5.481-5.813 8.194-2.944 2.738-6.988 5.038-12.038 5.038s-9.094-2.3-12.037-5.038c-2.925-2.712-4.881-5.962-5.806-8.194-0.206-0.494-0.206-1.044 0-1.537 0.925-2.231 2.881-5.481 5.806-8.194zM18 21c2.762 0 5-2.238 5-5s-2.238-5-5-5c-0.044 0-0.081 0-0.125 0 0.081 0.319 0.125 0.656 0.125 1 0 2.206-1.794 4-4 4-0.344 0-0.681-0.044-1-0.125 0 0.044 0 0.081 0 0.125 0 2.762 2.238 5 5 5zM18 8c4.418 0 8 3.582 8 8s-3.582 8-8 8v0c-4.418 0-8-3.582-8-8s3.582-8 8-8v0z"/>
</svg>
