<svg version="1.1" xmlns="http://www.w3.org/2000/svg" width="32" height="32" viewBox="0 0 32 32">
<path fill="currentColor" d="M29 16c0-7.18-5.82-13-13-13s-13 5.82-13 13v0c0 7.18 5.82 13 13 13s13-5.82 13-13v0zM0 16c0-8.837 7.163-16 16-16s16 7.163 16 16v0c0 8.837-7.163 16-16 16s-16-7.163-16-16v0zM11.031 20.019c1.225-1.137 2.956-2.019 4.969-2.019s3.744 0.881 4.969 2.019c1.188 1.113 2.031 2.606 2.031 3.981 0 0.337-0.169 0.65-0.45 0.837s-0.637 0.212-0.95 0.081l-1.075-0.469c-1.425-0.625-2.969-0.944-4.525-0.944s-3.1 0.325-4.525 0.944l-1.075 0.469c-0.306 0.137-0.669 0.106-0.95-0.081s-0.45-0.5-0.45-0.837c0-1.375 0.844-2.869 2.031-3.981zM8.344 9.169l5.619 2.994c0.669 0.356 0.669 1.319 0 1.675l-5.619 2.994c-0.494 0.262-1.094-0.094-1.094-0.656 0-0.175 0.063-0.344 0.175-0.475l2.25-2.7-2.25-2.7c-0.112-0.131-0.175-0.3-0.175-0.475 0-0.563 0.6-0.919 1.094-0.656zM24.75 9.819c0 0.175-0.063 0.344-0.175 0.475l-2.25 2.7 2.25 2.7c0.113 0.131 0.175 0.3 0.175 0.475 0 0.563-0.6 0.919-1.094 0.656l-5.619-2.994c-0.669-0.356-0.669-1.319 0-1.675l5.619-2.994c0.494-0.262 1.094 0.094 1.094 0.656z"/>
</svg>
