<svg version="1.1" xmlns="http://www.w3.org/2000/svg" width="32" height="32" viewBox="0 0 32 32">
<path fill="currentColor" d="M21.769 27.65c0.15-0.525 0.231-1.081 0.231-1.65v-3.281c0.55-0.5 1.038-1.069 1.438-1.688 0.65-1.006-0.425-2.031-1.594-1.756-1.806 0.425-3.781 0.656-5.85 0.656s-4.044-0.231-5.85-0.656c-1.169-0.275-2.244 0.75-1.594 1.756 0.406 0.625 0.894 1.194 1.444 1.694v3.275c0 0.575 0.081 1.125 0.231 1.65-4.281-2.125-7.225-6.544-7.225-11.65 0-7.181 5.819-13 13-13s13 5.819 13 13c0 5.106-2.944 9.525-7.231 11.65zM16 32c8.837 0 16-7.163 16-16s-7.163-16-16-16v0c-8.837 0-16 7.163-16 16s7.163 16 16 16v0zM9.975 13.75c0.662 0 1.244 0.238 1.588 0.606 0.475 0.506 1.262 0.531 1.769 0.056s0.531-1.262 0.056-1.769c-0.906-0.969-2.2-1.394-3.412-1.394s-2.506 0.425-3.412 1.394c-0.475 0.506-0.444 1.294 0.056 1.769s1.294 0.444 1.769-0.056c0.344-0.363 0.925-0.606 1.588-0.606zM21.019 14.5c0.828 0 1.5-0.672 1.5-1.5s-0.672-1.5-1.5-1.5v0c-0.828 0-1.5 0.672-1.5 1.5s0.672 1.5 1.5 1.5v0zM20.994 10c1.657 0 3 1.343 3 3s-1.343 3-3 3v0c-1.657 0-3-1.343-3-3s1.343-3 3-3v0zM20.994 18c2.761 0 5-2.239 5-5s-2.239-5-5-5v0c-2.761 0-5 2.239-5 5s2.239 5 5 5v0zM20 26c0 2.206-1.794 4-4 4s-4-1.794-4-4v-2.337c0-0.919 0.744-1.663 1.662-1.663h0.125c0.706 0 1.319 0.494 1.475 1.181 0.175 0.788 1.3 0.788 1.475 0 0.156-0.694 0.769-1.181 1.475-1.181h0.125c0.919 0 1.663 0.744 1.663 1.663v2.337z"/>
</svg>
