<svg version="1.1" xmlns="http://www.w3.org/2000/svg" width="32" height="32" viewBox="0 0 32 32">
<path fill="currentColor" d="M16 3c7.18 0 13 5.82 13 13s-5.82 13-13 13v0c-7.18 0-13-5.82-13-13s5.82-13 13-13v0zM16 32c8.837 0 16-7.163 16-16s-7.163-16-16-16v0c-8.837 0-16 7.163-16 16s7.163 16 16 16v0zM11.45 8.287c-0.081-0.175-0.256-0.287-0.45-0.287s-0.369 0.113-0.45 0.287l-1.037 2.169-2.381 0.313c-0.194 0.025-0.35 0.156-0.412 0.344s-0.006 0.387 0.131 0.519l1.744 1.656-0.438 2.363c-0.037 0.188 0.044 0.381 0.2 0.494s0.363 0.125 0.531 0.038l2.112-1.15 2.113 1.144c0.169 0.094 0.375 0.081 0.531-0.038s0.231-0.306 0.2-0.494l-0.438-2.362 1.744-1.656c0.137-0.131 0.194-0.331 0.131-0.519s-0.219-0.319-0.412-0.344l-2.381-0.313-1.037-2.169zM21.45 8.287c-0.081-0.175-0.256-0.287-0.45-0.287s-0.369 0.113-0.45 0.287l-1.038 2.169-2.381 0.313c-0.194 0.025-0.35 0.156-0.413 0.344s-0.006 0.387 0.131 0.519l1.744 1.656-0.438 2.363c-0.038 0.188 0.044 0.381 0.2 0.494s0.363 0.125 0.531 0.038l2.113-1.15 2.113 1.144c0.169 0.094 0.375 0.081 0.531-0.038s0.231-0.306 0.2-0.494l-0.438-2.362 1.744-1.656c0.137-0.131 0.194-0.331 0.131-0.519s-0.219-0.319-0.413-0.344l-2.381-0.313-1.038-2.169zM21.844 19.275c-1.806 0.425-3.781 0.656-5.85 0.656s-4.044-0.231-5.85-0.656c-1.169-0.275-2.244 0.75-1.594 1.756 1.537 2.381 4.294 3.969 7.444 3.969s5.906-1.587 7.444-3.969c0.65-1.006-0.425-2.031-1.594-1.756z"/>
</svg>
