<svg version="1.1" xmlns="http://www.w3.org/2000/svg" width="32" height="32" viewBox="0 0 32 32">
<path fill="currentColor" d="M16 3c-7.18 0-13 5.82-13 13s5.82 13 13 13v0c7.18 0 13-5.82 13-13s-5.82-13-13-13v0zM32 16c0 8.837-7.163 16-16 16s-16-7.163-16-16v0c0-8.837 7.163-16 16-16s16 7.163 16 16v0zM10.5 20c-0.831 0-1.5 0.669-1.5 1.5s0.669 1.5 1.5 1.5h0.5v-3h-0.5zM13 23h2v-3h-2v3zM19 23v-3h-2v3h2zM21 23h0.5c0.831 0 1.5-0.669 1.5-1.5s-0.669-1.5-1.5-1.5h-0.5v3zM10.5 18h11c1.931 0 3.5 1.569 3.5 3.5s-1.569 3.5-3.5 3.5h-11c-1.931 0-3.5-1.569-3.5-3.5s1.569-3.5 3.5-3.5zM9.025 13c0-1.105 0.895-2 2-2s2 0.895 2 2v0c0 1.105-0.895 2-2 2s-2-0.895-2-2v0zM21.025 11c1.105 0 2 0.895 2 2s-0.895 2-2 2v0c-1.105 0-2-0.895-2-2s0.895-2 2-2v0z"/>
</svg>
