<svg version="1.1" xmlns="http://www.w3.org/2000/svg" width="32" height="32" viewBox="0 0 32 32">
<path fill="currentColor" d="M16 3c7.18 0 13 5.82 13 13s-5.82 13-13 13v0c-7.18 0-13-5.82-13-13s5.82-13 13-13v0zM16 32c8.837 0 16-7.163 16-16s-7.163-16-16-16v0c-8.837 0-16 7.163-16 16s7.163 16 16 16v0zM10.5 23.5c0 0.831 0.669 1.5 1.5 1.5h8c0.831 0 1.5-0.669 1.5-1.5s-0.669-1.5-1.5-1.5h-8c-0.831 0-1.5 0.669-1.5 1.5zM10 17c-1.656 0-3-1.344-3-3 0-0.894 0.394-1.7 1.012-2.25-0.013 0.081-0.013 0.162-0.013 0.25 0 1.106 0.894 2 2 2s2-0.894 2-2c0-0.088-0.006-0.169-0.012-0.25 0.625 0.55 1.012 1.356 1.012 2.25 0 1.656-1.344 3-3 3zM10 19c2.761 0 5-2.239 5-5s-2.239-5-5-5v0c-2.761 0-5 2.239-5 5s2.239 5 5 5v0zM22 17c-1.656 0-3-1.344-3-3 0-0.894 0.394-1.7 1.012-2.25-0.012 0.081-0.012 0.162-0.012 0.25 0 1.106 0.894 2 2 2s2-0.894 2-2c0-0.088-0.006-0.169-0.012-0.25 0.625 0.55 1.012 1.356 1.012 2.25 0 1.656-1.344 3-3 3zM22 19c2.761 0 5-2.239 5-5s-2.239-5-5-5v0c-2.761 0-5 2.239-5 5s2.239 5 5 5v0z"/>
</svg>
