<svg version="1.1" xmlns="http://www.w3.org/2000/svg" width="32" height="32" viewBox="0 0 32 32">
<path fill="currentColor" d="M10.994 28c-2.188-0.006-4.094-1.413-4.75-3.413-2.019-2.288-3.244-5.294-3.244-8.588 0-7.181 5.819-13 13-13s13 5.819 13 13-5.819 13-13 13c-1.775 0-3.469-0.356-5.006-1zM0 16c0 8.837 7.163 16 16 16s16-7.163 16-16v0c0-8.837-7.163-16-16-16s-16 7.163-16 16v0zM8 23.063c0 1.625 1.344 2.938 3 2.938s3-1.313 3-2.938c0-1.25-1.775-3.775-2.6-4.856-0.2-0.275-0.6-0.275-0.8 0-0.813 1.081-2.6 3.606-2.6 4.856zM16 19c-0.831 0-1.5 0.669-1.5 1.5s0.669 1.5 1.5 1.5c1.919 0 3.669 0.719 5 1.913 0.619 0.55 1.563 0.5 2.119-0.119s0.5-1.563-0.119-2.119c-1.856-1.663-4.313-2.675-7-2.675zM18.975 13c0 1.105 0.895 2 2 2s2-0.895 2-2v0c0-1.105-0.895-2-2-2s-2 0.895-2 2v0zM10.975 15c1.105 0 2-0.895 2-2s-0.895-2-2-2v0c-1.105 0-2 0.895-2 2s0.895 2 2 2v0z"/>
</svg>
