<svg version="1.1" xmlns="http://www.w3.org/2000/svg" width="32" height="32" viewBox="0 0 32 32">
<path fill="currentColor" d="M29 16c0-7.18-5.82-13-13-13s-13 5.82-13 13v0c0 7.18 5.82 13 13 13s13-5.82 13-13v0zM0 16c0-8.837 7.163-16 16-16s16 7.163 16 16v0c0 8.837-7.163 16-16 16s-16-7.163-16-16v0zM8.169 19.619c-0.263-0.85 0.444-1.619 1.331-1.619h13.281c0.887 0 1.594 0.775 1.331 1.619-1.050 3.406-4.225 5.881-7.975 5.881s-6.925-2.475-7.969-5.881zM9.025 12c0-1.105 0.895-2 2-2s2 0.895 2 2v0c0 1.105-0.895 2-2 2s-2-0.895-2-2v0zM19.387 13.356c-0.475 0.506-1.262 0.531-1.769 0.056s-0.531-1.262-0.056-1.769c0.906-0.969 2.2-1.394 3.413-1.394s2.506 0.425 3.413 1.394c0.475 0.506 0.444 1.294-0.056 1.769s-1.294 0.444-1.769-0.056c-0.344-0.363-0.925-0.606-1.587-0.606s-1.244 0.238-1.587 0.606z"/>
</svg>
