<svg version="1.1" xmlns="http://www.w3.org/2000/svg" width="32" height="32" viewBox="0 0 32 32">
<path fill="currentColor" d="M29 16c0-7.18-5.82-13-13-13s-13 5.82-13 13v0c0 7.18 5.82 13 13 13s13-5.82 13-13v0zM0 16c0-8.837 7.163-16 16-16s16 7.163 16 16v0c0 8.837-7.163 16-16 16s-16-7.163-16-16v0zM8.169 19.619c-0.263-0.85 0.444-1.619 1.331-1.619h13.281c0.887 0 1.594 0.775 1.331 1.619-1.050 3.406-4.225 5.881-7.975 5.881s-6.925-2.475-7.969-5.881zM8.344 8.162l5.619 2.994c0.669 0.356 0.669 1.319 0 1.675l-5.619 2.994c-0.494 0.263-1.094-0.094-1.094-0.656 0-0.175 0.063-0.344 0.175-0.475l2.25-2.7-2.25-2.7c-0.112-0.131-0.175-0.3-0.175-0.475 0-0.563 0.6-0.919 1.094-0.656zM24.75 8.819c0 0.175-0.063 0.344-0.175 0.475l-2.25 2.7 2.25 2.7c0.113 0.131 0.175 0.3 0.175 0.475 0 0.563-0.6 0.919-1.094 0.656l-5.619-2.994c-0.669-0.356-0.669-1.319 0-1.675l5.619-2.994c0.494-0.263 1.094 0.094 1.094 0.656z"/>
</svg>
