<svg version="1.1" xmlns="http://www.w3.org/2000/svg" width="32" height="32" viewBox="0 0 32 32">
<path fill="currentColor" d="M25 25.381v-7.381c0-0.831-0.669-1.5-1.5-1.5s-1.5 0.669-1.5 1.5v9.538c-1.794 0.938-3.837 1.462-6 1.462s-4.206-0.531-6-1.462v-9.538c0-0.831-0.669-1.5-1.5-1.5s-1.5 0.669-1.5 1.5v7.381c-2.463-2.369-4-5.694-4-9.381 0-7.181 5.819-13 13-13s13 5.819 13 13c0 3.688-1.538 7.012-4 9.381zM16 32c8.837 0 16-7.163 16-16s-7.163-16-16-16v0c-8.837 0-16 7.163-16 16s7.163 16 16 16v0zM9.975 13.75c0.662 0 1.244 0.238 1.588 0.606 0.475 0.506 1.262 0.531 1.769 0.056s0.531-1.262 0.056-1.769c-0.906-0.969-2.2-1.394-3.412-1.394s-2.506 0.425-3.412 1.394c-0.475 0.506-0.444 1.294 0.056 1.769s1.294 0.444 1.769-0.056c0.344-0.363 0.925-0.606 1.588-0.606zM20.387 14.356c0.344-0.363 0.925-0.606 1.587-0.606s1.244 0.238 1.587 0.606c0.475 0.506 1.262 0.531 1.769 0.056s0.531-1.262 0.056-1.769c-0.906-0.969-2.2-1.394-3.413-1.394s-2.506 0.425-3.413 1.394c-0.475 0.506-0.444 1.294 0.056 1.769s1.294 0.444 1.769-0.056zM13 20v2c0 1.656 1.344 3 3 3s3-1.344 3-3v-2c0-1.656-1.344-3-3-3s-3 1.344-3 3z"/>
</svg>
