<svg version="1.1" xmlns="http://www.w3.org/2000/svg" width="32" height="32" viewBox="0 0 32 32">
<path fill="currentColor" d="M16 3c7.18 0 13 5.82 13 13s-5.82 13-13 13v0c-7.18 0-13-5.82-13-13s5.82-13 13-13v0zM16 32c8.837 0 16-7.163 16-16s-7.163-16-16-16v0c-8.837 0-16 7.163-16 16s7.163 16 16 16v0zM20.525 24.594c0.606-0.563 0.637-1.512 0.075-2.119-0.894-0.956-2.438-1.975-4.6-1.975s-3.706 1.019-4.594 1.975c-0.563 0.606-0.531 1.556 0.075 2.119s1.556 0.531 2.119-0.075c0.463-0.494 1.25-1.025 2.406-1.025s1.944 0.531 2.406 1.025c0.563 0.606 1.512 0.637 2.119 0.075zM11.025 17c1.106 0 2-0.894 2-2 0-0.094-0.006-0.188-0.019-0.275l0.681 0.225c0.525 0.175 1.088-0.106 1.262-0.631s-0.106-1.088-0.631-1.262l-6-2c-0.525-0.175-1.088 0.106-1.263 0.631s0.106 1.088 0.631 1.262l1.919 0.637c-0.363 0.363-0.581 0.863-0.581 1.412 0 1.106 0.894 2 2 2zM23.025 15c0-0.556-0.225-1.063-0.594-1.425l1.887-0.631c0.525-0.175 0.806-0.744 0.631-1.262s-0.744-0.806-1.262-0.631l-6 2c-0.525 0.175-0.806 0.744-0.631 1.262s0.744 0.806 1.262 0.631l0.731-0.244c-0.012 0.094-0.019 0.194-0.019 0.294 0 1.106 0.894 2 2 2s2-0.894 2-2z"/>
</svg>
