<svg version="1.1" xmlns="http://www.w3.org/2000/svg" width="32" height="32" viewBox="0 0 32 32">
<path fill="currentColor" d="M29 16c0-7.181-5.819-13-13-13s-13 5.819-13 13c0 5.106 2.944 9.525 7.231 11.65-0.15-0.525-0.231-1.081-0.231-1.65v-1.456c-1.5-1.094-2.694-2.587-3.425-4.325-0.313-0.738 0.438-1.406 1.206-1.169 2.481 0.762 5.281 1.188 8.238 1.188s5.756-0.425 8.238-1.188c0.769-0.238 1.519 0.431 1.206 1.169-0.738 1.75-1.944 3.25-3.462 4.35v1.431c0 0.575-0.081 1.125-0.231 1.65 4.288-2.125 7.231-6.544 7.231-11.65zM0 16c0-8.837 7.163-16 16-16s16 7.163 16 16v0c0 8.837-7.163 16-16 16s-16-7.163-16-16v0zM7.25 9.819c0-0.563 0.6-0.919 1.094-0.656l5.619 2.994c0.669 0.356 0.669 1.319 0 1.675l-5.619 2.994c-0.494 0.262-1.094-0.094-1.094-0.656 0-0.175 0.063-0.344 0.175-0.475l2.25-2.7-2.25-2.7c-0.112-0.131-0.175-0.3-0.175-0.475zM23.656 9.162c0.494-0.262 1.094 0.094 1.094 0.656 0 0.175-0.063 0.344-0.175 0.475l-2.25 2.7 2.25 2.7c0.113 0.131 0.175 0.3 0.175 0.475 0 0.563-0.6 0.919-1.094 0.656l-5.619-2.994c-0.669-0.356-0.669-1.319 0-1.675l5.619-2.994zM20 26v-2.337c0-0.919-0.744-1.663-1.663-1.663h-0.125c-0.706 0-1.319 0.494-1.475 1.181-0.175 0.788-1.3 0.788-1.475 0-0.156-0.694-0.769-1.181-1.475-1.181h-0.125c-0.919 0-1.662 0.744-1.662 1.663v2.337c0 2.206 1.794 4 4 4s4-1.794 4-4z"/>
</svg>
