<svg version="1.1" xmlns="http://www.w3.org/2000/svg" width="32" height="32" viewBox="0 0 32 32">
<path fill="currentColor" d="M26.675 0.887c1.2-1.2 3.169-1.175 4.394 0.044s1.25 3.188 0.044 4.394c-0.925 0.925-4.106 1.475-5.519 1.669-0.35 0.056-0.644-0.244-0.594-0.594 0.206-1.406 0.75-4.588 1.675-5.513zM4.688 4.688c5.2-5.206 13.094-6.075 19.2-2.612-0.094 0.3-0.181 0.6-0.256 0.894-0.194 0.763-0.344 1.537-0.456 2.188-5.050-3.35-11.919-2.8-16.369 1.65s-5 11.319-1.65 16.369c-0.656 0.113-1.431 0.262-2.188 0.456-0.294 0.075-0.594 0.156-0.894 0.256-3.462-6.106-2.587-14 2.612-19.2zM29.038 8.369c0.294-0.075 0.594-0.156 0.894-0.256 3.456 6.106 2.581 14-2.619 19.2s-13.094 6.075-19.2 2.613c0.094-0.3 0.175-0.6 0.25-0.894 0.194-0.762 0.344-1.538 0.456-2.188 5.050 3.35 11.919 2.8 16.369-1.65s5-11.319 1.65-16.369c0.656-0.113 1.431-0.262 2.188-0.456zM22.45 14.181c0.631-1.019 2.119-1.056 2.369 0.119 0.594 2.775-0.231 5.844-2.456 8.069s-5.3 3.050-8.069 2.456c-1.169-0.25-1.137-1.738-0.119-2.369 1.575-0.981 3.137-2.212 4.6-3.675s2.694-3.025 3.675-4.6zM5.75 16.581l6.088-1.856c0.725-0.219 1.406 0.456 1.188 1.188l-1.856 6.087c-0.162 0.538-0.838 0.706-1.238 0.306-0.125-0.125-0.2-0.288-0.213-0.456l-0.319-3.506-3.506-0.319c-0.175-0.019-0.338-0.094-0.456-0.212-0.394-0.394-0.225-1.075 0.306-1.238zM17.813 5.444c0.125 0.125 0.2 0.287 0.212 0.456l0.319 3.506 3.506 0.319c0.175 0.019 0.337 0.094 0.456 0.213 0.394 0.394 0.225 1.075-0.306 1.238l-6.088 1.856c-0.725 0.219-1.406-0.456-1.188-1.188l1.856-6.094c0.163-0.537 0.837-0.706 1.238-0.306zM0.931 31.069c-1.225-1.225-1.25-3.188-0.044-4.394 0.925-0.925 4.1-1.475 5.513-1.669 0.35-0.056 0.644 0.244 0.594 0.594-0.2 1.406-0.744 4.594-1.669 5.519-1.2 1.194-3.169 1.169-4.394-0.050z"/>
</svg>
