<svg version="1.1" xmlns="http://www.w3.org/2000/svg" width="32" height="32" viewBox="0 0 32 32">
<path fill="currentColor" d="M29.8 7.894c1.269-0.344 2.2-1.475 2.2-2.831 0-1.25-1.788-3.775-2.6-4.856-0.2-0.275-0.6-0.275-0.8 0-0.594 0.787-1.694 2.325-2.25 3.594-0.019 0.044-0.038 0.087-0.056 0.131-0.181 0.425-0.294 0.819-0.294 1.131 0 1.625 1.344 2.938 3 2.938 0.275 0 0.544-0.037 0.8-0.106zM24.712 2.575c-2.506-1.625-5.5-2.575-8.713-2.575-8.838 0-16 7.162-16 16s7.162 16 16 16 16-7.163 16-16c0-2.238-0.456-4.369-1.288-6.3-0.538 0.194-1.113 0.3-1.712 0.3-0.556 0-1.1-0.094-1.606-0.262 1.025 1.856 1.606 3.994 1.606 6.262 0 7.181-5.819 13-13 13s-13-5.819-13-13 5.819-13 13-13c3.044 0 5.837 1.044 8.056 2.794-0.038-0.237-0.056-0.481-0.056-0.731 0-0.713 0.238-1.4 0.444-1.906 0.081-0.194 0.169-0.388 0.269-0.581zM23.438 21.031c0.65-1.006-0.425-2.031-1.594-1.756-1.806 0.425-3.781 0.656-5.85 0.656s-4.044-0.231-5.85-0.656c-1.169-0.275-2.244 0.75-1.594 1.756 1.537 2.381 4.294 3.969 7.444 3.969s5.906-1.587 7.444-3.969zM13.6 14.3v0 0 0c0.131 0.175 0.356 0.244 0.556 0.175s0.344-0.256 0.344-0.475c0-1.119-0.419-2.225-1.037-3.050-0.613-0.813-1.494-1.45-2.463-1.45s-1.85 0.637-2.463 1.45c-0.619 0.825-1.037 1.931-1.037 3.050 0 0.213 0.138 0.406 0.344 0.475s0.431 0 0.556-0.175v0 0 0l0.012-0.012c0.012-0.012 0.025-0.031 0.044-0.056 0.037-0.050 0.1-0.125 0.175-0.213 0.156-0.175 0.375-0.412 0.637-0.644 0.55-0.488 1.175-0.875 1.731-0.875s1.181 0.387 1.731 0.875c0.262 0.231 0.481 0.469 0.637 0.644 0.075 0.088 0.137 0.162 0.175 0.213 0.019 0.025 0.037 0.044 0.044 0.056l0.012 0.012zM23.6 14.3v0 0c0.131 0.175 0.356 0.244 0.556 0.175s0.344-0.256 0.344-0.475c0-1.119-0.419-2.225-1.038-3.050-0.613-0.813-1.494-1.45-2.462-1.45s-1.85 0.637-2.462 1.45c-0.619 0.825-1.038 1.931-1.038 3.050 0 0.213 0.137 0.406 0.344 0.475s0.431 0 0.556-0.175v0 0 0l0.012-0.012c0.012-0.012 0.025-0.031 0.044-0.056 0.038-0.050 0.1-0.125 0.175-0.213 0.156-0.175 0.375-0.412 0.637-0.644 0.55-0.488 1.175-0.875 1.731-0.875s1.181 0.387 1.731 0.875c0.262 0.231 0.481 0.469 0.637 0.644 0.075 0.088 0.137 0.162 0.175 0.213 0.019 0.025 0.038 0.044 0.044 0.056l0.012 0.012z"/>
</svg>
