<svg version="1.1" xmlns="http://www.w3.org/2000/svg" width="32" height="32" viewBox="0 0 32 32">
<path fill="currentColor" d="M21.181 27.925c-1.587 0.688-3.337 1.075-5.181 1.075-7.181 0-13-5.819-13-13s5.819-13 13-13 13 5.819 13 13c0 1.4-0.219 2.744-0.631 4.006 0.194 0.281 0.356 0.587 0.488 0.913 0.794-0.1 1.569 0.025 2.262 0.313 0.569-1.637 0.875-3.4 0.875-5.231 0.006-8.838-7.156-16-15.994-16s-16 7.162-16 16 7.162 16 16 16c2.213 0 4.319-0.45 6.231-1.262-0.3-0.344-0.531-0.762-0.65-1.231l-0.406-1.581zM18.5 19.75c0-0.431-0.194-0.825-0.456-1.144-0.269-0.325-0.631-0.606-1.044-0.837-0.831-0.462-1.912-0.769-3-0.769-0.225 0-0.425 0.156-0.481 0.375s0.037 0.45 0.238 0.563v0 0 0l0.012 0.006c0.012 0.006 0.031 0.019 0.056 0.031 0.050 0.031 0.125 0.075 0.213 0.131 0.175 0.119 0.406 0.281 0.637 0.475s0.45 0.413 0.6 0.631c0.156 0.219 0.219 0.4 0.219 0.538s-0.063 0.313-0.219 0.538c-0.156 0.219-0.369 0.431-0.6 0.631-0.231 0.194-0.463 0.356-0.637 0.475-0.088 0.056-0.162 0.1-0.213 0.131-0.025 0.012-0.044 0.025-0.056 0.031l-0.012 0.006c-0.156 0.087-0.256 0.256-0.256 0.438s0.1 0.35 0.256 0.438v0 0 0l0.012 0.006c0.012 0.006 0.031 0.019 0.056 0.031 0.050 0.031 0.125 0.075 0.213 0.131 0.175 0.119 0.406 0.281 0.637 0.475s0.45 0.413 0.6 0.631c0.156 0.219 0.219 0.4 0.219 0.538s-0.063 0.313-0.219 0.538c-0.156 0.219-0.369 0.431-0.6 0.631-0.231 0.194-0.463 0.356-0.637 0.475-0.088 0.056-0.162 0.1-0.213 0.131-0.025 0.012-0.044 0.025-0.056 0.031l-0.012 0.006c-0.2 0.113-0.294 0.344-0.238 0.563s0.256 0.375 0.481 0.375c1.088 0 2.169-0.306 2.994-0.769 0.413-0.231 0.781-0.512 1.044-0.837 0.269-0.319 0.456-0.712 0.456-1.144s-0.194-0.825-0.456-1.144c-0.269-0.325-0.631-0.606-1.044-0.837-0.169-0.094-0.356-0.188-0.544-0.269 0.194-0.081 0.375-0.169 0.544-0.269 0.413-0.231 0.781-0.512 1.044-0.837 0.269-0.319 0.456-0.712 0.456-1.144zM11.025 15c1.105 0 2-0.895 2-2s-0.895-2-2-2v0c-1.105 0-2 0.895-2 2s0.895 2 2 2v0zM20.981 13.75c0.663 0 1.244 0.238 1.587 0.606 0.475 0.506 1.262 0.531 1.769 0.056s0.531-1.262 0.056-1.769c-0.913-0.969-2.206-1.394-3.419-1.394s-2.506 0.425-3.413 1.394c-0.475 0.506-0.444 1.294 0.056 1.769s1.294 0.444 1.769-0.056c0.344-0.363 0.925-0.606 1.587-0.606zM27.125 22.019c-0.375-1.45-1.8-2.313-3.194-1.925s-2.212 1.881-1.844 3.337l1.431 5.581c0.137 0.544 0.7 0.869 1.238 0.712l5.306-1.488c1.387-0.387 2.212-1.881 1.844-3.337s-1.8-2.313-3.194-1.925l-1.262 0.35-0.337-1.313z"/>
</svg>
