<svg version="1.1" xmlns="http://www.w3.org/2000/svg" width="32" height="32" viewBox="0 0 32 32">
<path fill="currentColor" d="M29 16c0-7.18-5.82-13-13-13s-13 5.82-13 13v0c0 7.18 5.82 13 13 13s13-5.82 13-13v0zM0 16c0-8.837 7.163-16 16-16s16 7.163 16 16v0c0 8.837-7.163 16-16 16s-16-7.163-16-16v0zM10.912 24.006c-0.281 0.781-1.137 1.181-1.919 0.9s-1.181-1.137-0.9-1.919c1.088-3.025 4.338-4.988 7.906-4.988s6.819 1.962 7.913 4.994c0.281 0.781-0.125 1.637-0.9 1.919s-1.637-0.125-1.919-0.9c-0.581-1.606-2.519-3.012-5.094-3.012s-4.512 1.406-5.088 3.006zM9.025 13c0-1.105 0.895-2 2-2s2 0.895 2 2v0c0 1.105-0.895 2-2 2s-2-0.895-2-2v0zM21.025 11c1.105 0 2 0.895 2 2s-0.895 2-2 2v0c-1.105 0-2-0.895-2-2s0.895-2 2-2v0z"/>
</svg>
