<svg version="1.1" xmlns="http://www.w3.org/2000/svg" width="32" height="32" viewBox="0 0 32 32">
<path fill="currentColor" d="M29 16c0-7.181-5.819-13-13-13s-13 5.819-13 13c0 5.106 2.944 9.525 7.231 11.65-0.15-0.525-0.231-1.081-0.231-1.65v-3.275c-0.556-0.5-1.044-1.069-1.444-1.694-0.65-1.006 0.425-2.031 1.594-1.756 1.806 0.425 3.781 0.656 5.85 0.656s4.044-0.231 5.85-0.656c1.169-0.275 2.244 0.75 1.594 1.756-0.4 0.619-0.887 1.188-1.438 1.688v3.281c0 0.575-0.081 1.125-0.231 1.65 4.281-2.125 7.225-6.544 7.225-11.65zM0 16c0-8.837 7.163-16 16-16s16 7.163 16 16v0c0 8.837-7.163 16-16 16s-16-7.163-16-16v0zM11.025 11c1.105 0 2 0.895 2 2s-0.895 2-2 2v0c-1.105 0-2-0.895-2-2s0.895-2 2-2v0zM19.025 13c0-1.105 0.895-2 2-2s2 0.895 2 2v0c0 1.105-0.895 2-2 2s-2-0.895-2-2v0zM20 26v-2.337c0-0.919-0.744-1.663-1.663-1.663h-0.125c-0.706 0-1.319 0.494-1.475 1.181-0.175 0.788-1.3 0.788-1.475 0-0.156-0.694-0.769-1.181-1.475-1.181h-0.125c-0.919 0-1.662 0.744-1.662 1.663v2.337c0 2.206 1.794 4 4 4s4-1.794 4-4z"/>
</svg>
