<svg version="1.1" xmlns="http://www.w3.org/2000/svg" width="32" height="32" viewBox="0 0 32 32">
<path fill="currentColor" d="M29 16c0-7.18-5.82-13-13-13s-13 5.82-13 13v0c0 7.18 5.82 13 13 13s13-5.82 13-13v0zM0 16c0-8.837 7.163-16 16-16s16 7.163 16 16v0c0 8.837-7.163 16-16 16s-16-7.163-16-16v0zM21.844 19.275c1.169-0.275 2.244 0.75 1.594 1.756-1.538 2.381-4.294 3.969-7.444 3.969s-5.906-1.587-7.444-3.969c-0.65-1.006 0.425-2.031 1.594-1.756 1.806 0.425 3.781 0.656 5.85 0.656s4.044-0.231 5.85-0.656zM9.025 13c0-1.105 0.895-2 2-2s2 0.895 2 2v0c0 1.105-0.895 2-2 2s-2-0.895-2-2v0zM19.387 14.356c-0.475 0.506-1.262 0.531-1.769 0.056s-0.531-1.262-0.056-1.769c0.906-0.969 2.2-1.394 3.413-1.394s2.506 0.425 3.413 1.394c0.475 0.506 0.444 1.294-0.056 1.769s-1.294 0.444-1.769-0.056c-0.344-0.363-0.925-0.606-1.587-0.606s-1.244 0.238-1.587 0.606z"/>
</svg>
