<svg version="1.1" xmlns="http://www.w3.org/2000/svg" width="32" height="32" viewBox="0 0 32 32">
<path fill="currentColor" d="M29 16c0-7.18-5.82-13-13-13s-13 5.82-13 13v0c0 7.18 5.82 13 13 13s13-5.82 13-13v0zM0 16c0-8.837 7.163-16 16-16s16 7.163 16 16v0c0 8.837-7.163 16-16 16s-16-7.163-16-16v0zM21.844 19.275c1.169-0.275 2.244 0.75 1.594 1.756-1.538 2.381-4.294 3.969-7.444 3.969s-5.906-1.587-7.444-3.969c-0.65-1.006 0.425-2.031 1.594-1.756 1.806 0.425 3.781 0.656 5.85 0.656s4.044-0.231 5.85-0.656zM14 12c0 2.206-0.894 4-2 4s-2-1.794-2-4 0.894-4 2-4 2 1.794 2 4zM20 16c-1.106 0-2-1.794-2-4s0.894-4 2-4 2 1.794 2 4-0.894 4-2 4z"/>
</svg>
