<svg version="1.1" xmlns="http://www.w3.org/2000/svg" width="32" height="32" viewBox="0 0 32 32">
<path fill="currentColor" d="M29 16c0-7.18-5.82-13-13-13s-13 5.82-13 13v0c0 7.18 5.82 13 13 13s13-5.82 13-13v0zM0 16c0-8.837 7.163-16 16-16s16 7.163 16 16v0c0 8.837-7.163 16-16 16s-16-7.163-16-16v0zM21.844 19.275c1.169-0.275 2.244 0.75 1.594 1.756-1.538 2.381-4.294 3.969-7.444 3.969s-5.906-1.587-7.444-3.969c-0.65-1.006 0.425-2.031 1.594-1.756 1.806 0.425 3.781 0.656 5.85 0.656s4.044-0.231 5.85-0.656zM13.456 8.569c1.113 0.3 1.775 1.444 1.475 2.55l-1.088 4.063c-0.144 0.531-0.694 0.85-1.225 0.706l-4.069-1.088c-1.112-0.3-1.775-1.444-1.475-2.55s1.444-1.775 2.55-1.475l1.006 0.269 0.269-1.006c0.3-1.113 1.444-1.775 2.55-1.475zM21.1 10.044l0.269 1.006 1.006-0.269c1.113-0.3 2.256 0.363 2.55 1.475s-0.363 2.256-1.475 2.55l-4.069 1.088c-0.531 0.144-1.081-0.175-1.225-0.706l-1.087-4.063c-0.3-1.113 0.363-2.256 1.475-2.55s2.256 0.363 2.556 1.475z"/>
</svg>
