<svg version="1.1" xmlns="http://www.w3.org/2000/svg" width="40" height="32" viewBox="0 0 40 32">
<path fill="currentColor" d="M32.256 20.344c0.063 0.188 0.131 0.375 0.206 0.556 0.206 0.506 0.525 1.156 1.031 1.663 0.244 0.244 0.513 0.462 0.794 0.644-2.637 5.219-8.044 8.794-14.288 8.794s-11.65-3.575-14.287-8.788c0.281-0.181 0.544-0.394 0.794-0.644 0.506-0.506 0.825-1.163 1.031-1.663 0.075-0.181 0.144-0.369 0.206-0.556 1.787 5.037 6.6 8.65 12.256 8.65s10.469-3.613 12.256-8.656zM20 3c-6.338 0-11.613 4.531-12.769 10.531-0.419-0.194-0.894-0.269-1.394-0.194-0.425 0.056-1.013 0.15-1.663 0.275 1.156-7.706 7.8-13.613 15.825-13.613s14.669 5.906 15.825 13.606c-0.644-0.125-1.237-0.219-1.663-0.275-0.5-0.075-0.981 0.006-1.394 0.194-1.156-5.994-6.431-10.525-12.769-10.525zM4.906 21.319c-1.156 0.975-2.906 0.9-4.013-0.212-1.169-1.169-1.194-3.050-0.044-4.2 0.537-0.538 1.881-0.944 3.156-1.225 0.813-0.175 1.594-0.3 2.119-0.375 0.338-0.050 0.619 0.231 0.563 0.563-0.194 1.344-0.713 4.388-1.594 5.275-0.056 0.063-0.119 0.113-0.181 0.169zM35.094 21.319c-0.050-0.038-0.094-0.081-0.144-0.125-0.013-0.012-0.031-0.025-0.044-0.044-0.881-0.881-1.406-3.931-1.594-5.275-0.050-0.338 0.231-0.619 0.563-0.563 0.063 0.006 0.138 0.019 0.206 0.031 0.513 0.075 1.2 0.188 1.913 0.344 1.275 0.275 2.619 0.681 3.156 1.225 1.15 1.15 1.125 3.031-0.044 4.2-1.106 1.106-2.856 1.188-4.013 0.212zM27.438 21.031c-1.538 2.381-4.294 3.969-7.444 3.969s-5.906-1.587-7.444-3.969c-0.65-1.006 0.425-2.031 1.594-1.756 1.806 0.425 3.781 0.656 5.85 0.656s4.044-0.231 5.85-0.656c1.169-0.275 2.244 0.75 1.594 1.756zM17.6 14.3v0l-0.012-0.012c-0.012-0.012-0.025-0.031-0.044-0.056-0.038-0.050-0.1-0.125-0.175-0.213-0.156-0.175-0.375-0.412-0.637-0.644-0.55-0.488-1.175-0.875-1.731-0.875s-1.181 0.387-1.731 0.875c-0.262 0.231-0.481 0.469-0.637 0.644-0.075 0.088-0.137 0.162-0.175 0.213-0.019 0.025-0.037 0.044-0.044 0.056l-0.012 0.012c-0.131 0.175-0.356 0.244-0.556 0.175s-0.344-0.256-0.344-0.475c0-1.119 0.419-2.225 1.037-3.050 0.613-0.813 1.494-1.45 2.463-1.45s1.85 0.637 2.463 1.45c0.619 0.825 1.038 1.931 1.038 3.050 0 0.213-0.137 0.406-0.344 0.475s-0.431 0-0.556-0.175v0 0 0zM27.6 14.3v0 0l-0.012-0.012c-0.012-0.012-0.025-0.031-0.044-0.056-0.038-0.050-0.1-0.125-0.175-0.213-0.156-0.175-0.375-0.412-0.637-0.644-0.55-0.488-1.175-0.875-1.731-0.875s-1.181 0.387-1.731 0.875c-0.262 0.231-0.481 0.469-0.637 0.644-0.075 0.088-0.137 0.162-0.175 0.213-0.019 0.025-0.038 0.044-0.044 0.056l-0.012 0.012c-0.131 0.175-0.356 0.244-0.556 0.175s-0.344-0.256-0.344-0.475c0-1.119 0.419-2.225 1.038-3.050 0.613-0.813 1.494-1.45 2.462-1.45s1.85 0.637 2.462 1.45c0.619 0.825 1.038 1.931 1.038 3.050 0 0.213-0.137 0.406-0.344 0.475s-0.431 0-0.556-0.175v0 0z"/>
</svg>
