<svg version="1.1" xmlns="http://www.w3.org/2000/svg" width="32" height="32" viewBox="0 0 32 32">
<path fill="currentColor" d="M29 16c0-7.18-5.82-13-13-13s-13 5.82-13 13v0c0 7.18 5.82 13 13 13s13-5.82 13-13v0zM0 16c0-8.837 7.163-16 16-16s16 7.163 16 16v0c0 8.837-7.163 16-16 16s-16-7.163-16-16v0zM16 18c2.209 0 4 1.791 4 4s-1.791 4-4 4v0c-2.209 0-4-1.791-4-4s1.791-4 4-4v0zM6.438 8.438c0.588-0.588 1.537-0.588 2.119 0l1.438 1.438 1.438-1.438c0.588-0.588 1.537-0.588 2.119 0s0.588 1.537 0 2.119l-1.438 1.438 1.438 1.438c0.588 0.588 0.588 1.537 0 2.119s-1.537 0.587-2.119 0l-1.438-1.438-1.438 1.438c-0.588 0.587-1.537 0.587-2.119 0s-0.588-1.537 0-2.119l1.438-1.438-1.438-1.438c-0.588-0.588-0.588-1.537 0-2.119zM18.438 8.438c0.587-0.588 1.538-0.588 2.119 0l1.438 1.438 1.438-1.438c0.587-0.588 1.538-0.588 2.119 0s0.587 1.537 0 2.119l-1.438 1.438 1.438 1.438c0.587 0.588 0.587 1.537 0 2.119s-1.538 0.587-2.119 0l-1.438-1.438-1.438 1.438c-0.587 0.587-1.538 0.587-2.119 0s-0.587-1.537 0-2.119l1.438-1.438-1.438-1.438c-0.587-0.588-0.587-1.537 0-2.119z"/>
</svg>
