<svg version="1.1" xmlns="http://www.w3.org/2000/svg" width="24" height="32" viewBox="0 0 24 32">
<path fill="currentColor" d="M3 28v-24c0-0.55 0.45-1 1-1h10v5c0 1.106 0.894 2 2 2h5v18c0 0.55-0.45 1-1 1h-16c-0.55 0-1-0.45-1-1zM4 0c-2.206 0-4 1.794-4 4v24c0 2.206 1.794 4 4 4h16c2.206 0 4-1.794 4-4v-18.344c0-1.063-0.419-2.081-1.169-2.831l-5.662-5.656c-0.75-0.75-1.762-1.169-2.825-1.169h-10.344zM7.438 15.069c-0.237-0.794-1.075-1.244-1.869-1.006s-1.244 1.075-1.006 1.869l3 10c0.188 0.637 0.775 1.069 1.438 1.069s1.244-0.438 1.438-1.069l1.563-5.212 1.563 5.212c0.188 0.637 0.775 1.069 1.438 1.069s1.244-0.438 1.438-1.069l3-10c0.238-0.794-0.212-1.631-1.006-1.869s-1.631 0.213-1.869 1.006l-1.563 5.213-1.563-5.213c-0.188-0.637-0.775-1.069-1.438-1.069s-1.244 0.438-1.438 1.069l-1.563 5.213-1.563-5.213z"/>
</svg>
