<svg version="1.1" xmlns="http://www.w3.org/2000/svg" width="24" height="32" viewBox="0 0 24 32">
<path fill="currentColor" d="M4 29c-0.55 0-1-0.45-1-1v-24c0-0.55 0.45-1 1-1h3c0 0.55 0.45 1 1 1h2c0.55 0 1-0.45 1-1h3v5c0 1.106 0.894 2 2 2h5v18c0 0.55-0.45 1-1 1h-16zM4 0c-2.206 0-4 1.794-4 4v24c0 2.206 1.794 4 4 4h16c2.206 0 4-1.794 4-4v-18.344c0-1.063-0.419-2.081-1.169-2.831l-5.662-5.656c-0.75-0.75-1.762-1.169-2.825-1.169h-10.344zM7 7c0 0.55 0.45 1 1 1h2c0.55 0 1-0.45 1-1s-0.45-1-1-1h-2c-0.55 0-1 0.45-1 1zM7 11c0 0.55 0.45 1 1 1h2c0.55 0 1-0.45 1-1s-0.45-1-1-1h-2c-0.55 0-1 0.45-1 1zM6.606 15.488l-1.475 5.506c-0.088 0.337-0.131 0.681-0.131 1.025 0 2.2 1.8 3.981 4 3.981s4-1.781 4-3.981c0-0.344-0.044-0.694-0.131-1.025l-1.469-5.512c-0.231-0.875-1.025-1.488-1.931-1.488h-0.931c-0.906 0-1.7 0.606-1.931 1.488zM8 21h2c0.55 0 1 0.45 1 1s-0.45 1-1 1h-2c-0.55 0-1-0.45-1-1s0.45-1 1-1z"/>
</svg>
