<svg version="1.1" xmlns="http://www.w3.org/2000/svg" width="24" height="32" viewBox="0 0 24 32">
<path fill="currentColor" d="M4 29c-0.55 0-1-0.45-1-1v-24c0-0.55 0.45-1 1-1h10v5c0 1.106 0.894 2 2 2h5v18c0 0.55-0.45 1-1 1h-16zM4 0c-2.206 0-4 1.794-4 4v24c0 2.206 1.794 4 4 4h16c2.206 0 4-1.794 4-4v-18.344c0-1.063-0.419-2.081-1.169-2.831l-5.662-5.656c-0.75-0.75-1.762-1.169-2.825-1.169h-10.344zM10.063 18.063c0.588-0.587 0.588-1.538 0-2.119s-1.537-0.588-2.119 0l-3.006 2.994c-0.588 0.587-0.588 1.538 0 2.119l3 3c0.588 0.587 1.537 0.587 2.119 0s0.588-1.538 0-2.119l-1.938-1.938 1.938-1.938zM16.063 15.938c-0.588-0.588-1.537-0.588-2.119 0s-0.588 1.538 0 2.119l1.938 1.938-1.938 1.938c-0.588 0.587-0.588 1.538 0 2.119s1.537 0.587 2.119 0l3-3c0.587-0.587 0.587-1.538 0-2.119l-3-3z"/>
</svg>
