<svg version="1.1" xmlns="http://www.w3.org/2000/svg" width="32" height="32" viewBox="0 0 32 32">
<path fill="currentColor" d="M4 29h2v3h-2c-2.206 0-4-1.794-4-4v-24c0-2.206 1.794-4 4-4h10.344c1.063 0 2.081 0.419 2.831 1.169l5.656 5.656c0.75 0.75 1.169 1.769 1.169 2.831v8.344h-3v-8h-5c-1.106 0-2-0.894-2-2v-5h-10c-0.55 0-1 0.45-1 1v24c0 0.55 0.45 1 1 1zM11 22h2c1.931 0 3.5 1.569 3.5 3.5s-1.569 3.5-3.5 3.5h-1v2c0 0.55-0.45 1-1 1s-1-0.45-1-1v-8c0-0.55 0.45-1 1-1zM13 27c0.831 0 1.5-0.669 1.5-1.5s-0.669-1.5-1.5-1.5h-1v3h1zM19 22h2c1.656 0 3 1.344 3 3v4c0 1.656-1.344 3-3 3h-2c-0.55 0-1-0.45-1-1v-8c0-0.55 0.45-1 1-1zM21 30c0.55 0 1-0.45 1-1v-4c0-0.55-0.45-1-1-1h-1v6h1zM26 23c0-0.55 0.45-1 1-1h3c0.55 0 1 0.45 1 1s-0.45 1-1 1h-2v2h2c0.55 0 1 0.45 1 1s-0.45 1-1 1h-2v3c0 0.55-0.45 1-1 1s-1-0.45-1-1v-8z"/>
</svg>
