<svg version="1.1" xmlns="http://www.w3.org/2000/svg" width="24" height="32" viewBox="0 0 24 32">
<path fill="currentColor" d="M4 29c-0.55 0-1-0.45-1-1v-24c0-0.55 0.45-1 1-1h10v5c0 1.106 0.894 2 2 2h5v18c0 0.55-0.45 1-1 1h-16zM4 0c-2.206 0-4 1.794-4 4v24c0 2.206 1.794 4 4 4h16c2.206 0 4-1.794 4-4v-18.344c0-1.063-0.419-2.081-1.169-2.831l-5.662-5.656c-0.75-0.75-1.762-1.169-2.825-1.169h-10.344zM7.5 16c-0.831 0-1.5 0.669-1.5 1.5s0.669 1.5 1.5 1.5h9c0.831 0 1.5-0.669 1.5-1.5s-0.669-1.5-1.5-1.5h-9zM7.5 22c-0.831 0-1.5 0.669-1.5 1.5s0.669 1.5 1.5 1.5h9c0.831 0 1.5-0.669 1.5-1.5s-0.669-1.5-1.5-1.5h-9z"/>
</svg>
