<svg version="1.1" xmlns="http://www.w3.org/2000/svg" width="24" height="32" viewBox="0 0 24 32">
<path fill="currentColor" d="M4 29c-0.55 0-1-0.45-1-1v-24c0-0.55 0.45-1 1-1h10v5c0 1.106 0.894 2 2 2h5v18c0 0.55-0.45 1-1 1h-16zM4 0c-2.206 0-4 1.794-4 4v24c0 2.206 1.794 4 4 4h16c2.206 0 4-1.794 4-4v-18.344c0-1.063-0.419-2.081-1.169-2.831l-5.662-5.656c-0.75-0.75-1.762-1.169-2.825-1.169h-10.344zM10 16c0-1.105-0.895-2-2-2s-2 0.895-2 2v0c0 1.105 0.895 2 2 2s2-0.895 2-2v0zM14.325 18.931c-0.188-0.269-0.494-0.431-0.825-0.431s-0.637 0.163-0.825 0.431l-2.581 3.731-0.744-1.194c-0.181-0.294-0.506-0.469-0.85-0.469s-0.662 0.175-0.85 0.469l-2.5 4c-0.194 0.306-0.2 0.694-0.025 1.012s0.513 0.512 0.875 0.512h12c0.375 0 0.712-0.206 0.887-0.538s0.15-0.725-0.063-1.031l-4.5-6.5z"/>
</svg>
