<svg version="1.1" xmlns="http://www.w3.org/2000/svg" width="24" height="32" viewBox="0 0 24 32">
<path fill="currentColor" d="M3 28v-24c0-0.55 0.45-1 1-1h10v5c0 1.106 0.894 2 2 2h5v18c0 0.55-0.45 1-1 1h-16c-0.55 0-1-0.45-1-1zM4 0c-2.206 0-4 1.794-4 4v24c0 2.206 1.794 4 4 4h16c2.206 0 4-1.794 4-4v-18.344c0-1.063-0.419-2.081-1.169-2.831l-5.662-5.656c-0.75-0.75-1.762-1.169-2.825-1.169h-10.344zM9.681 14.581c-0.506-0.656-1.45-0.769-2.106-0.262s-0.769 1.45-0.263 2.106l2.787 3.575-2.781 3.581c-0.506 0.656-0.394 1.594 0.263 2.106s1.594 0.394 2.106-0.262l2.313-2.981 2.319 2.975c0.506 0.656 1.45 0.769 2.106 0.262s0.769-1.45 0.262-2.106l-2.787-3.575 2.781-3.581c0.506-0.656 0.394-1.594-0.262-2.106s-1.594-0.394-2.106 0.262l-2.313 2.981-2.319-2.975z"/>
</svg>
