<svg version="1.1" xmlns="http://www.w3.org/2000/svg" width="24" height="32" viewBox="0 0 24 32">
<path fill="currentColor" d="M4 29h16c0.55 0 1-0.45 1-1v-18h-5c-1.106 0-2-0.894-2-2v-5h-10c-0.55 0-1 0.45-1 1v24c0 0.55 0.45 1 1 1zM0 4c0-2.206 1.794-4 4-4h10.344c1.063 0 2.081 0.419 2.831 1.169l5.656 5.656c0.75 0.75 1.169 1.769 1.169 2.831v18.344c0 2.206-1.794 4-4 4h-16c-2.206 0-4-1.794-4-4v-24zM12 17v8c0 0.406-0.244 0.769-0.619 0.925s-0.806 0.069-1.088-0.219l-2.206-2.206h-1.088c-0.55 0-1-0.45-1-1v-3c0-0.55 0.45-1 1-1h1.088l2.206-2.206c0.287-0.288 0.719-0.369 1.088-0.219s0.619 0.519 0.619 0.925zM17.363 16.75c0.725 1.25 1.137 2.706 1.137 4.25s-0.413 3-1.137 4.25c-0.413 0.719-1.331 0.962-2.050 0.55s-0.963-1.331-0.55-2.050c0.469-0.806 0.738-1.744 0.738-2.75s-0.269-1.944-0.738-2.75c-0.412-0.719-0.169-1.637 0.55-2.050s1.637-0.169 2.050 0.55z"/>
</svg>
