<svg version="1.1" xmlns="http://www.w3.org/2000/svg" width="28" height="32" viewBox="0 0 28 32">
<path fill="currentColor" d="M3 1.5c0-0.831-0.669-1.5-1.5-1.5s-1.5 0.669-1.5 1.5v29c0 0.831 0.669 1.5 1.5 1.5s1.5-0.669 1.5-1.5v-6.25l5.019-1.256c2.569-0.644 5.287-0.344 7.656 0.837 2.762 1.381 5.969 1.55 8.856 0.462l2.169-0.813c0.781-0.294 1.3-1.038 1.3-1.875v-17.475c0-1.438-1.512-2.375-2.8-1.731l-0.6 0.3c-2.894 1.45-6.3 1.45-9.194 0-2.194-1.1-4.713-1.375-7.094-0.781l-5.313 1.331v-1.75zM3 6.344l6.037-1.513c1.688-0.419 3.469-0.225 5.025 0.55 3.431 1.713 7.419 1.856 10.938 0.425v15.113l-1.525 0.569c-2.106 0.788-4.45 0.669-6.462-0.337-3.012-1.506-6.456-1.881-9.725-1.069l-4.287 1.075v-14.813z"/>
</svg>
