<svg version="1.1" xmlns="http://www.w3.org/2000/svg" width="28" height="32" viewBox="0 0 28 32">
<path fill="currentColor" d="M3 6v20c0 0.55 0.45 1 1 1h20c0.55 0 1-0.45 1-1v-15.344c0-0.262-0.106-0.519-0.294-0.706l2.119-2.119c0.75 0.75 1.169 1.769 1.169 2.831v15.338c0 2.206-1.794 4-4 4h-19.994c-2.206 0-4-1.794-4-4v-20c0-2.206 1.794-4 4-4h15.344c1.063 0 2.081 0.419 2.831 1.169l4.656 4.656-2.119 2.119-4.662-4.65c-0.019-0.019-0.031-0.031-0.050-0.050v6.256c0 0.831-0.669 1.5-1.5 1.5h-12c-0.831 0-1.5-0.669-1.5-1.5v-6.5h-1c-0.55 0-1 0.45-1 1zM8 5v5h9v-5h-9zM10 20c0-2.209 1.791-4 4-4s4 1.791 4 4v0c0 2.209-1.791 4-4 4s-4-1.791-4-4v0z"/>
</svg>
