<svg version="1.1" xmlns="http://www.w3.org/2000/svg" width="36" height="32" viewBox="0 0 36 32">
<path fill="currentColor" d="M24 30h3c0.712 0 1.369-0.375 1.725-0.994l7-12c0.362-0.619 0.362-1.381 0.006-2.006s-1.013-1-1.731-1h-25c-0.713 0-1.369 0.375-1.725 0.994l-4.275 7.325v-16.319c0-0.55 0.45-1 1-1h7.344c0.262 0 0.519 0.106 0.706 0.294l1.656 1.656c1.313 1.312 3.094 2.050 4.95 2.050h7.344c0.55 0 1 0.45 1 1v2h3v-2c0-2.206-1.794-4-4-4h-7.344c-1.063 0-2.081-0.419-2.831-1.169l-1.656-1.663c-0.75-0.75-1.769-1.169-2.831-1.169h-7.338c-2.206 0-4 1.794-4 4v20c0 2.206 1.794 4 4 4h20z"/>
</svg>
