<svg version="1.1" xmlns="http://www.w3.org/2000/svg" width="32" height="32" viewBox="0 0 32 32">
<path fill="currentColor" d="M15.731 7.975v0c0.656 0.656 1.544 1.025 2.475 1.025h9.794c0.55 0 1 0.45 1 1v2h-26v-6c0-0.55 0.45-1 1-1h8.344c0.262 0 0.519 0.106 0.706 0.294v0l2.681 2.681zM3 15h26v11c0 0.55-0.45 1-1 1h-24c-0.55 0-1-0.45-1-1v-11zM17.856 5.856l-2.688-2.688c-0.75-0.75-1.769-1.169-2.831-1.169h-8.338c-2.206 0-4 1.794-4 4v20c0 2.206 1.794 4 4 4h24c2.206 0 4-1.794 4-4v-16c0-2.206-1.794-4-4-4h-9.794c-0.131 0-0.262-0.050-0.356-0.144z"/>
</svg>
