<svg version="1.1" xmlns="http://www.w3.org/2000/svg" width="28" height="32" viewBox="0 0 28 32">
<path fill="currentColor" d="M3 3.5c0-0.831-0.669-1.5-1.5-1.5s-1.5 0.669-1.5 1.5v25c0 0.831 0.669 1.5 1.5 1.5s1.5-0.669 1.5-1.5v-20.738l0.781-0.15c1.044-0.2 1.969-0.531 2.763-0.819v0 0c0.231-0.081 0.444-0.162 0.65-0.231 0.95-0.325 1.9-0.569 3.2-0.569 1.6 0 2.688 0.375 3.969 0.831l0.031 0.013c1.306 0.463 2.8 0.994 4.944 0.994 2.025 0 3.356-0.425 5.656-1.225v14.825l-0.594 0.206c-2.594 0.9-3.45 1.2-5.063 1.2-1.606 0-2.694-0.375-3.975-0.831l-0.037-0.012c-1.3-0.462-2.8-0.988-4.938-0.988-1.050 0-1.938 0.125-2.744 0.313s-1.306 1-1.119 1.806 1 1.306 1.806 1.119c0.6-0.137 1.256-0.231 2.056-0.231 1.6 0 2.688 0.375 3.969 0.831l0.031 0.012c1.306 0.462 2.8 0.994 4.944 0.994 2.15 0 3.525-0.481 6.113-1.387 0.469-0.163 0.969-0.337 1.525-0.531l1.012-0.344v-21.188l-1.969 0.681c-0.606 0.206-1.137 0.394-1.606 0.556-2.594 0.9-3.45 1.2-5.063 1.2-1.606 0-2.694-0.375-3.975-0.831l-0.037-0.013c-1.3-0.462-2.8-0.987-4.938-0.987-1.738 0-3.031 0.344-4.162 0.725-0.306 0.106-0.581 0.206-0.85 0.3-0.744 0.269-1.375 0.494-2.169 0.644l-0.212 0.037v-1.212z"/>
</svg>
