<svg version="1.1" xmlns="http://www.w3.org/2000/svg" width="32" height="32" viewBox="0 0 32 32">
<path fill="currentColor" d="M27.212 22.581l-5.606-0.375c-0.325-0.019-0.644 0.069-0.906 0.262s-0.45 0.462-0.525 0.781l-1.375 5.45c-0.9 0.2-1.837 0.3-2.8 0.3s-1.894-0.106-2.8-0.3l-1.375-5.45c-0.081-0.313-0.269-0.587-0.525-0.781s-0.581-0.281-0.906-0.262l-5.606 0.375c-0.931-1.587-1.544-3.394-1.725-5.319l4.75-2.994c0.275-0.175 0.475-0.438 0.575-0.744s0.088-0.637-0.031-0.938l-2.081-5.213c1.244-1.4 2.788-2.531 4.525-3.294l4.319 3.6c0.25 0.206 0.563 0.319 0.881 0.319s0.637-0.112 0.881-0.319l4.319-3.6c1.738 0.763 3.281 1.894 4.525 3.294l-2.087 5.212c-0.119 0.3-0.131 0.631-0.031 0.938s0.306 0.569 0.575 0.744l4.756 2.994c-0.188 1.925-0.794 3.731-1.725 5.319zM16 3v0zM3.544 12.262c0.056-0.188 0.119-0.381 0.181-0.569l-0.181 0.569zM8.25 26.438l0.238 0.169c-0.081-0.056-0.156-0.113-0.238-0.169zM23.756 26.431c-0.081 0.063-0.169 0.125-0.25 0.181l0.25-0.181zM28.456 12.269l-0.188-0.575c0.069 0.188 0.131 0.381 0.188 0.575zM16 32c8.837 0 16-7.163 16-16s-7.163-16-16-16v0c-8.837 0-16 7.163-16 16s7.163 16 16 16v0zM16.881 11.644c-0.525-0.381-1.238-0.381-1.762 0l-2.994 2.169c-0.525 0.381-0.744 1.056-0.544 1.675l1.144 3.519c0.2 0.619 0.775 1.038 1.425 1.038h3.7c0.65 0 1.225-0.419 1.425-1.038l1.144-3.519c0.2-0.619-0.019-1.294-0.544-1.675l-2.994-2.175z"/>
</svg>
