<svg version="1.1" xmlns="http://www.w3.org/2000/svg" width="32" height="32" viewBox="0 0 32 32">
<path fill="currentColor" d="M10.531 4.5l5.469 5.813 5.469-5.813h-10.938zM23.994 6.194l-4.525 4.806h8.063l-3.538-4.806zM27.119 14h-22.238l11.119 12.269 11.119-12.269zM4.469 11h8.063l-4.525-4.806-3.537 4.806zM31.613 13.506l-14.5 16c-0.281 0.313-0.688 0.494-1.113 0.494s-0.825-0.181-1.113-0.494l-14.5-16c-0.481-0.531-0.519-1.325-0.094-1.9l7-9.5c0.281-0.381 0.731-0.613 1.206-0.613h15c0.475 0 0.925 0.225 1.206 0.613l7 9.5c0.425 0.575 0.381 1.369-0.094 1.9z"/>
</svg>
