<svg version="1.1" xmlns="http://www.w3.org/2000/svg" width="32" height="32" viewBox="0 0 32 32">
<path fill="currentColor" d="M15.675 0.087c-2.2-0.231-4.162 1.363-4.394 3.563l-0.406 3.788-1.081-3.088c-0.731-2.081-3.019-3.175-5.1-2.444s-3.181 3.019-2.45 5.1l3.3 9.381c-0.95 0.906-1.544 2.194-1.544 3.613v0 1.5c0 5.8 4.7 10.5 10.5 10.5h3c5.8 0 10.5-4.7 10.5-10.5v-7.5c0-2.206-1.794-4-4-4-0.494 0-0.962 0.088-1.4 0.25-0.65-1.331-2.019-2.25-3.6-2.25-0.044 0-0.094 0-0.137 0l0.369-3.519c0.231-2.2-1.363-4.162-3.563-4.394zM15.662 9.8c-0.419 0.631-0.662 1.387-0.662 2.2v3c0 0.044 0 0.088 0 0.125-0.319-0.081-0.656-0.125-1-0.125h-0.463l-0.338-0.956 1.063-10.081c0.056-0.55 0.55-0.95 1.1-0.888s0.95 0.55 0.888 1.1l-0.594 5.631zM6.963 5.35l3.394 9.65h-1.356c-0.25 0-0.5 0.019-0.744 0.056l-3.181-9.044c-0.181-0.519 0.094-1.094 0.612-1.275s1.094 0.094 1.275 0.612zM18 12c0-0.55 0.45-1 1-1s1 0.45 1 1v3c0 0.55-0.45 1-1 1s-1-0.45-1-1v-3zM20.4 18.75c0.65 1.331 2.019 2.25 3.6 2.25 0.344 0 0.681-0.044 1-0.125v0.625c0 4.144-3.356 7.5-7.5 7.5h-3c-4.144 0-7.5-3.356-7.5-7.5v-1.5c0-1.106 0.894-2 2-2h5c0.55 0 1 0.45 1 1s-0.45 1-1 1h-2.5c-0.831 0-1.5 0.669-1.5 1.5s0.669 1.5 1.5 1.5h2.5c2.206 0 4-1.794 4-4 0-0.044 0-0.087 0-0.125 0.319 0.081 0.656 0.125 1 0.125 0.494 0 0.962-0.087 1.4-0.25zM25 17c0 0.55-0.45 1-1 1s-1-0.45-1-1v-3c0-0.55 0.45-1 1-1s1 0.45 1 1v3z"/>
</svg>
