<svg version="1.1" xmlns="http://www.w3.org/2000/svg" width="40" height="32" viewBox="0 0 40 32">
<path fill="currentColor" d="M17.012 4.037l-3.194 3.194c-0.956 0.263-1.844 0.744-2.594 1.406l-1.662 1.481c-0.637 0.569-1.469 0.881-2.325 0.881h-1.237v8c1.275 0.038 2.488 0.556 3.394 1.462l4.35 4.35c0.387 0.387 1.025 0.387 1.412 0 0.106-0.106 0.188-0.231 0.231-0.363 0.175-0.481 0.581-0.844 1.081-0.956s1.025 0.038 1.387 0.406l0.675 0.663c0.725 0.725 1.9 0.725 2.619 0 0.337-0.337 0.519-0.769 0.538-1.212 0.025-0.55 0.35-1.038 0.85-1.275s1.081-0.188 1.525 0.131c0.587 0.419 1.406 0.363 1.931-0.163 0.587-0.587 0.587-1.538 0-2.119l-4.738-4.738-2.238 2.063c-1.706 1.575-4.325 1.6-6.063 0.056-1.981-1.762-2.025-4.838-0.1-6.656l4.381-4.138c1.712-1.612 3.975-2.513 6.331-2.513 2.256 0 4.438 0.831 6.119 2.325l1.881 1.675h7.431c0.55 0 1 0.45 1 1v13c0 1.106-0.894 2-2 2h-2c-0.737 0-1.388-0.4-1.731-1h-5.306c-0.212 0.419-0.494 0.819-0.844 1.169-1.069 1.069-2.55 1.488-3.938 1.256-0.225 0.456-0.531 0.881-0.913 1.262-1.706 1.706-4.375 1.875-6.275 0.506-1.569 1.3-3.906 1.219-5.375-0.256l-2.119-2.125-2.225-2.225c-0.344-0.344-0.794-0.544-1.275-0.581 0 1.1-0.9 1.994-2 1.994h-2c-1.106 0-2-0.894-2-2v-13c0-0.55 0.45-1 1-1h6.237c0.125 0 0.244-0.044 0.331-0.125l1.656-1.475c1.744-1.544 3.988-2.4 6.319-2.4h0.644c0.275 0 0.556 0.012 0.825 0.038zM34 20v-9h-3c-0.369 0-0.725-0.137-0.994-0.381l-2.306-2.050c-1.137-1.013-2.606-1.569-4.131-1.569-1.587 0-3.113 0.606-4.269 1.694l-4.381 4.137c-0.644 0.613-0.631 1.644 0.031 2.231 0.581 0.519 1.463 0.506 2.031-0.019l4.494-4.15c0.606-0.563 1.556-0.525 2.119 0.088s0.525 1.556-0.087 2.119l-0.050 0.050 4.65 4.65c0.625 0.625 1.031 1.394 1.212 2.194h4.681zM4 21c0-0.552-0.448-1-1-1s-1 0.448-1 1v0c0 0.552 0.448 1 1 1s1-0.448 1-1v0zM37 22c0.552 0 1-0.448 1-1s-0.448-1-1-1v0c-0.552 0-1 0.448-1 1s0.448 1 1 1v0z"/>
</svg>
