<svg version="1.1" xmlns="http://www.w3.org/2000/svg" width="32" height="32" viewBox="0 0 32 32">
<path fill="currentColor" d="M0.013 17.269c-0.075-2.206 1.65-4.063 3.856-4.137l0.206-0.006-0.513-0.119c-2.156-0.475-3.519-2.613-3.044-4.769s2.619-3.519 4.775-3.037l10.813 2.394c0.144-0.181 0.294-0.356 0.444-0.531l1.15-1.269c1.044-1.138 2.519-1.794 4.069-1.794h0.637c3.381 0 6.506 1.794 8.206 4.713l0.094 0.162c0.85 1.45 1.294 3.106 1.294 4.787v7.837c0 4.144-3.356 7.5-7.5 7.5h-6.5c-2.206 0-4-1.794-4-4 0-0.175 0.012-0.35 0.031-0.519-1.213-0.688-2.031-1.988-2.031-3.481 0-0.050 0-0.1 0-0.15l-7.85 0.275c-2.206 0.075-4.063-1.65-4.138-3.856zM3.975 16.131c-0.55 0.019-0.981 0.481-0.962 1.031s0.481 0.981 1.031 0.962l10.094-0.35c0.613-0.019 1.169 0.331 1.419 0.887s0.137 1.206-0.281 1.65c-0.175 0.181-0.275 0.419-0.275 0.688 0 0.55 0.45 1 1 1 0.569 0 1.088 0.319 1.344 0.831s0.2 1.119-0.144 1.569c-0.125 0.169-0.2 0.375-0.2 0.6 0 0.55 0.45 1 1 1h6.5c2.488 0 4.5-2.012 4.5-4.5v-7.838c0-1.15-0.306-2.281-0.887-3.275l-0.094-0.162c-1.163-2-3.3-3.225-5.613-3.225h-0.637c-0.706 0-1.375 0.3-1.85 0.819v0l-1.15 1.269c-0.038 0.037-0.069 0.081-0.106 0.119l3.563 0.825c0.538 0.125 0.875 0.662 0.75 1.2s-0.663 0.875-1.2 0.75l-5.35-1.231-11.781-2.625c-0.537-0.119-1.075 0.219-1.194 0.762s0.219 1.075 0.762 1.194l11.719 2.6c0.638 0.144 1.112 0.681 1.169 1.338l0.006 0.063c0.038 0.412-0.094 0.819-0.363 1.131s-0.663 0.494-1.075 0.512l-11.694 0.406z"/>
</svg>
