<svg version="1.1" xmlns="http://www.w3.org/2000/svg" width="24" height="32" viewBox="0 0 24 32">
<path fill="currentColor" d="M4 28v-11.1c0.325 0.063 0.656 0.1 1 0.1h1v11c0 0.55-0.45 1-1 1s-1-0.45-1-1zM5 14c-1.106 0-2-0.894-2-2 0 0 0 0 0 0v-1.5c0-4.144 3.356-7.5 7.5-7.5h3c3.281 0 6.069 2.106 7.087 5.044-0.194-0.031-0.387-0.044-0.587-0.044-1.25 0-2.369 0.575-3.106 1.475-0.563-0.306-1.213-0.475-1.894-0.475-0.944 0-1.813 0.331-2.5 0.875-0.688-0.55-1.556-0.875-2.5-0.875h-2.5c-0.831 0-1.5 0.669-1.5 1.5s0.669 1.5 1.5 1.5h2.5c0.55 0 1 0.45 1 1s-0.45 1-1 1h-5zM0 12s0 0 0 0c0 1.125 0.375 2.162 1 3v13c0 2.206 1.794 4 4 4s4-1.794 4-4v-5.125c0.319 0.081 0.656 0.125 1 0.125 1.581 0 2.95-0.919 3.6-2.25 0.438 0.163 0.906 0.25 1.4 0.25 1.25 0 2.369-0.575 3.106-1.475 0.563 0.306 1.212 0.475 1.894 0.475 2.206 0 4-1.794 4-4v-5.5c0-5.8-4.7-10.5-10.5-10.5h-3c-5.8 0-10.5 4.7-10.5 10.5v1.5zM21 16c0 0.55-0.45 1-1 1s-1-0.45-1-1v-4c0-0.55 0.45-1 1-1s1 0.45 1 1v4zM10 17c0.344 0 0.681-0.044 1-0.125v2.125c0 0.55-0.45 1-1 1s-1-0.45-1-1v-2h1zM14 15.5v-2.5c0-0.55 0.45-1 1-1s1 0.45 1 1v4c0 0.55-0.45 1-1 1s-1-0.45-1-1v-1.5z"/>
</svg>
