<svg version="1.1" xmlns="http://www.w3.org/2000/svg" width="32" height="32" viewBox="0 0 32 32">
<path fill="currentColor" d="M4.5 7c-0.831 0-1.5 0.669-1.5 1.5s0.669 1.5 1.5 1.5h10.5c2.206 0 4 1.794 4 4s-1.794 4-4 4h-6.5c-0.831 0-1.5 0.669-1.5 1.5s0.669 1.5 1.5 1.5h9.5c0.281 0 0.556 0.081 0.794 0.225l4 2.5c0.438 0.275 0.706 0.756 0.706 1.275v1.5c0 0.831-0.669 1.5-1.5 1.5s-1.5-0.669-1.5-1.5v-0.669l-2.931-1.831h-9.069c-2.487 0-4.5-2.012-4.5-4.5s2.013-4.5 4.5-4.5h6.5c0.55 0 1-0.45 1-1s-0.45-1-1-1h-10.5c-2.487 0-4.5-2.012-4.5-4.5s2.013-4.5 4.5-4.5h13.1c2.919 0 5.681 1.344 7.481 3.644l4.9 6.256c1.306 1.669 2.019 3.731 2.019 5.856v6.744c0 0.831-0.669 1.5-1.5 1.5s-1.5-0.669-1.5-1.5v-6.744c0-1.45-0.488-2.863-1.381-4.006l-4.9-6.256c-1.231-1.575-3.119-2.494-5.119-2.494h-13.1z"/>
</svg>
