<svg version="1.1" xmlns="http://www.w3.org/2000/svg" width="28" height="32" viewBox="0 0 28 32">
<path fill="currentColor" d="M9 4c0-0.55 0.45-1 1-1s1 0.45 1 1c0 0.569 0.319 1.088 0.831 1.344s1.119 0.2 1.569-0.144c0.169-0.125 0.375-0.2 0.6-0.2 0.55 0 1 0.45 1 1 0 0.569 0.319 1.088 0.831 1.344s1.119 0.2 1.569-0.144c0.169-0.125 0.375-0.2 0.6-0.2 0.55 0 1 0.45 1 1 0 0.569 0.319 1.088 0.831 1.344s1.119 0.2 1.569-0.144c0.169-0.125 0.375-0.2 0.6-0.2 0.55 0 1 0.45 1 1v6.5c0 1.956-1.25 3.625-3 4.244-0.6 0.212-1 0.781-1 1.413v8.344c0 0.831 0.669 1.5 1.5 1.5s1.5-0.669 1.5-1.5v-7.363c2.375-1.256 4-3.756 4-6.637v-6.5c0-2.206-1.794-4-4-4-0.175 0-0.35 0.013-0.519 0.031-0.681-1.213-1.988-2.031-3.481-2.031-0.175 0-0.35 0.013-0.519 0.031-0.681-1.212-1.988-2.031-3.481-2.031-0.175 0-0.35 0.013-0.519 0.031-0.681-1.212-1.988-2.031-3.481-2.031-2.206 0-4 1.794-4 4v4.019c-0.731 0.463-1.406 1.025-2 1.681v0l-0.587 0.656c-0.913 1.006-1.413 2.319-1.413 3.681v0.8c0 3.1 1.513 6.006 4.050 7.781v0l0.556 0.387c0.431 0.3 0.9 0.538 1.394 0.706v6.787c0 0.831 0.669 1.5 1.5 1.5s1.5-0.669 1.5-1.5v-8.006c0-0.788-0.613-1.444-1.4-1.494-0.456-0.031-0.894-0.181-1.269-0.444v0l-0.556-0.387c-1.737-1.225-2.775-3.212-2.775-5.331v-0.8c0-0.619 0.231-1.213 0.644-1.675l0.588-0.656c0.237-0.262 0.494-0.506 0.769-0.725v2.019c0 0.55 0.45 1 1 1s1-0.45 1-1v-9z"/>
</svg>
