<svg version="1.1" xmlns="http://www.w3.org/2000/svg" width="36" height="32" viewBox="0 0 36 32">
<path fill="currentColor" d="M10.637 5.050c-0.575-2.112 0.662-4.3 2.775-4.9 2.125-0.6 4.338 0.637 4.938 2.763l1.894 6.694 0.825-4.356c0.413-2.169 2.506-3.594 4.675-3.181 1.962 0.375 3.313 2.119 3.25 4.056 0.625-0.162 1.3-0.175 1.969-0.006 2.144 0.537 3.444 2.706 2.912 4.85l-3.456 13.856c-1.056 4.219-4.844 7.175-9.194 7.175-0.7 0-1.406 0-2.106 0-3.556 0-7.012-1.188-9.825-3.369l-5.75-4.475c-1.744-1.356-2.056-3.869-0.7-5.613s3.869-2.056 5.612-0.7l1.063 0.825-3.237-8.2c-0.813-2.056 0.2-4.381 2.25-5.188 0.694-0.275 1.419-0.338 2.106-0.231zM15.456 3.725c-0.15-0.531-0.7-0.837-1.231-0.688s-0.838 0.7-0.688 1.231l3.425 11.4c0.219 0.769-0.206 1.575-0.962 1.831s-1.581-0.125-1.875-0.869l-3.194-8c-0.2-0.512-0.781-0.769-1.3-0.563s-0.769 0.781-0.563 1.3l4.581 11.6c0.75 1.894-1.481 3.563-3.088 2.313l-3.944-3.069c-0.438-0.337-1.063-0.262-1.406 0.175s-0.263 1.063 0.175 1.406l5.75 4.475c2.281 1.775 5.087 2.738 7.981 2.738 0.7 0 1.406 0 2.106 0 2.969 0 5.563-2.025 6.281-4.906l3.462-13.85c0.131-0.537-0.194-1.081-0.725-1.213s-1.081 0.194-1.212 0.725l-1.625 6.5c-0.181 0.725-0.844 1.238-1.594 1.238-1.031 0-1.806-0.938-1.613-1.95l1.781-9.363c0.106-0.544-0.25-1.069-0.794-1.169s-1.069 0.25-1.169 0.794l-1.988 10.438c-0.137 0.725-0.775 1.25-1.512 1.25-0.688 0-1.294-0.456-1.481-1.119l-3.575-12.656z"/>
</svg>
