<svg version="1.1" xmlns="http://www.w3.org/2000/svg" width="28" height="32" viewBox="0 0 28 32">
<path fill="currentColor" d="M10 4c0-0.55 0.45-1 1-1s1 0.45 1 1v8.5c0 0.644 0.412 1.219 1.025 1.425s1.287-0.006 1.675-0.519c0.188-0.244 0.475-0.4 0.8-0.4 0.55 0 1 0.45 1 1 0 0.644 0.413 1.219 1.025 1.425s1.288-0.006 1.675-0.519c0.188-0.244 0.475-0.4 0.8-0.4 0.488 0 0.894 0.35 0.981 0.813 0.1 0.512 0.456 0.944 0.944 1.125s1.044 0.1 1.456-0.225c0.169-0.131 0.381-0.212 0.619-0.212 0.55 0 1 0.45 1 1v7.488c0 2.488-2.012 4.5-4.5 4.5h-7.287c-2.338 0-4.525-1.169-5.825-3.119l-4.219-6.325c-0.306-0.462-0.181-1.081 0.275-1.387s1.081-0.181 1.387 0.275l2.419 3.631c0.369 0.55 1.050 0.794 1.681 0.606s1.063-0.775 1.063-1.438v-17.244zM11 0c-2.206 0-4 1.794-4 4v12.356c-1.3-1.481-3.531-1.806-5.219-0.688-1.837 1.231-2.337 3.712-1.106 5.55l4.219 6.331c1.856 2.781 4.975 4.45 8.319 4.45h7.288c4.144 0 7.5-3.356 7.5-7.5v-7.5c0-2.206-1.794-4-4-4-0.281 0-0.55 0.031-0.813 0.081-0.731-0.963-1.887-1.581-3.188-1.581-0.431 0-0.844 0.069-1.231 0.194-0.725-1.025-1.919-1.694-3.269-1.694-0.169 0-0.338 0.012-0.5 0.031v-6.031c0-2.206-1.794-4-4-4zM14 19c0-0.55-0.45-1-1-1s-1 0.45-1 1v6c0 0.55 0.45 1 1 1s1-0.45 1-1v-6zM17 18c-0.55 0-1 0.45-1 1v6c0 0.55 0.45 1 1 1s1-0.45 1-1v-6c0-0.55-0.45-1-1-1zM22 19c0-0.55-0.45-1-1-1s-1 0.45-1 1v6c0 0.55 0.45 1 1 1s1-0.45 1-1v-6z"/>
</svg>
