<svg version="1.1" xmlns="http://www.w3.org/2000/svg" width="32" height="32" viewBox="0 0 32 32">
<path fill="currentColor" d="M16 0c-1.581 0-2.95 0.919-3.6 2.25-0.438-0.163-0.906-0.25-1.4-0.25-2.206 0-4 1.794-4 4v10.344l-0.169-0.169c-1.563-1.563-4.094-1.563-5.656 0s-1.563 4.094 0 5.656l5.481 5.481c3 3 7.069 4.688 11.313 4.688h1.031c0.094 0 0.188-0.006 0.281-0.025 5.731-0.387 10.313-4.962 10.694-10.694 0.019-0.094 0.025-0.188 0.025-0.281v-11c0-2.206-1.794-4-4-4-0.344 0-0.681 0.044-1 0.125v-0.125c0-2.206-1.794-4-4-4-0.494 0-0.962 0.087-1.4 0.25-0.65-1.331-2.019-2.25-3.6-2.25zM15 6.006c0 0 0-0.006 0-0.006v-2c0-0.55 0.45-1 1-1s1 0.45 1 1v1.994c0 0 0 0.006 0 0.006v8.5c0 0.831 0.669 1.5 1.5 1.5s1.5-0.669 1.5-1.5v-8.5c0 0 0 0 0-0.006 0-0.55 0.45-1 1-1s1 0.45 1 1v3.494c0 0 0 0.006 0 0.006v5c0 0.831 0.669 1.5 1.5 1.5s1.5-0.669 1.5-1.5v-4.487c0 0 0-0.006 0-0.006 0-0.55 0.45-1 1-1s1 0.45 1 1v10.806c-0.006 0.038-0.006 0.081-0.012 0.119-0.212 4.356-3.706 7.85-8.063 8.063-0.038 0-0.081 0.006-0.119 0.012h-0.837c-3.45 0-6.756-1.369-9.194-3.806l-5.481-5.488c-0.388-0.387-0.388-1.025 0-1.413s1.025-0.387 1.413 0l2.731 2.731c0.431 0.431 1.075 0.556 1.638 0.325s0.925-0.781 0.925-1.387v-13.963c0-0.55 0.45-1 1-1s1 0.444 1 0.994v8.506c0 0.831 0.669 1.5 1.5 1.5s1.5-0.669 1.5-1.5v-8.494z"/>
</svg>
