<svg version="1.1" xmlns="http://www.w3.org/2000/svg" width="32" height="32" viewBox="0 0 32 32">
<path fill="currentColor" d="M4 8h11.1c-0.063 0.325-0.1 0.656-0.1 1v1h-11c-0.55 0-1-0.45-1-1s0.45-1 1-1zM18 9c0-1.106 0.894-2 2-2 0 0 0 0 0 0h1.5c4.144 0 7.5 3.356 7.5 7.5v3c0 3.281-2.106 6.069-5.044 7.087 0.031-0.194 0.044-0.387 0.044-0.587 0-1.25-0.575-2.369-1.475-3.106 0.306-0.563 0.475-1.212 0.475-1.894 0-0.944-0.331-1.813-0.875-2.5 0.55-0.688 0.875-1.556 0.875-2.5v-2.5c0-0.831-0.669-1.5-1.5-1.5s-1.5 0.669-1.5 1.5v2.5c0 0.55-0.45 1-1 1s-1-0.45-1-1v-5zM20 4s0 0 0 0c-1.125 0-2.163 0.375-3 1h-13c-2.206 0-4 1.794-4 4s1.794 4 4 4h5.125c-0.081 0.319-0.125 0.656-0.125 1 0 1.581 0.919 2.95 2.25 3.6-0.162 0.438-0.25 0.906-0.25 1.4 0 1.25 0.575 2.369 1.475 3.106-0.306 0.563-0.475 1.212-0.475 1.894 0 2.206 1.794 4 4 4h5.5c5.8 0 10.5-4.7 10.5-10.5v-3c0-5.8-4.7-10.5-10.5-10.5h-1.5zM16 25c-0.55 0-1-0.45-1-1s0.45-1 1-1h4c0.55 0 1 0.45 1 1s-0.45 1-1 1h-4zM15 14c0 0.344 0.044 0.681 0.125 1h-2.125c-0.55 0-1-0.45-1-1s0.45-1 1-1h2v1zM16.5 18h2.5c0.55 0 1 0.45 1 1s-0.45 1-1 1h-4c-0.55 0-1-0.45-1-1s0.45-1 1-1h1.5z"/>
</svg>
