<svg version="1.1" xmlns="http://www.w3.org/2000/svg" width="32" height="32" viewBox="0 0 32 32">
<path fill="currentColor" d="M4 5c-0.55 0-1 0.45-1 1v10.125c0.319-0.081 0.656-0.125 1-0.125h24c0.344 0 0.681 0.044 1 0.125v-10.125c0-0.55-0.45-1-1-1h-24zM3 20v6c0 0.55 0.45 1 1 1h24c0.55 0 1-0.45 1-1v-6c0-0.55-0.45-1-1-1h-24c-0.55 0-1 0.45-1 1zM0 20v-14c0-2.206 1.794-4 4-4h24c2.206 0 4 1.794 4 4v20c0 2.206-1.794 4-4 4h-24c-2.206 0-4-1.794-4-4v-6zM17.5 23c0-0.828 0.672-1.5 1.5-1.5s1.5 0.672 1.5 1.5v0c0 0.828-0.672 1.5-1.5 1.5s-1.5-0.672-1.5-1.5v0zM25 21.5c0.828 0 1.5 0.672 1.5 1.5s-0.672 1.5-1.5 1.5v0c-0.828 0-1.5-0.672-1.5-1.5s0.672-1.5 1.5-1.5v0z"/>
</svg>
