<svg version="1.1" xmlns="http://www.w3.org/2000/svg" width="32" height="32" viewBox="0 0 32 32">
<path fill="currentColor" d="M14.113 29.262l-0.156-0.144-10.95-10.169c-1.919-1.781-3.006-4.281-3.006-6.9v-0.206c0-4.4 3.125-8.175 7.45-9 2.463-0.475 4.981 0.094 6.987 1.506 0.563 0.4 1.088 0.862 1.563 1.394 0.262-0.3 0.544-0.575 0.844-0.831 0.231-0.2 0.469-0.388 0.719-0.563 0 0 0 0 0 0 2.006-1.413 4.525-1.981 6.988-1.513 4.325 0.825 7.45 4.606 7.45 9.006v0.206c0 2.619-1.087 5.119-3.006 6.9l-11.106 10.313c-0.512 0.475-1.188 0.744-1.887 0.744s-1.375-0.262-1.887-0.744zM14.944 9.063c-0.025-0.019-0.044-0.044-0.063-0.069l-1.113-1.25c0 0-0.006-0.006-0.006-0.006s0 0 0 0c-1.444-1.619-3.625-2.356-5.75-1.95-2.912 0.556-5.013 3.094-5.013 6.056v0.206c0 1.781 0.744 3.488 2.050 4.7l10.95 10.169 10.95-10.169c1.306-1.213 2.050-2.919 2.050-4.7v-0.206c0-2.956-2.1-5.5-5.006-6.056-2.125-0.406-4.313 0.338-5.75 1.95 0 0 0 0-0.006 0.006s0 0-0.006 0.006l-1.113 1.25c-0.019 0.025-0.044 0.044-0.063 0.069-0.281 0.281-0.663 0.438-1.056 0.438s-0.775-0.156-1.056-0.438z"/>
</svg>
