<svg version="1.1" xmlns="http://www.w3.org/2000/svg" width="40" height="32" viewBox="0 0 40 32">
<path fill="currentColor" d="M14.5 0c-2.488 0-4.5 2.013-4.5 4.5v0.5h-5.5c-2.487 0-4.5 2.013-4.5 4.5v18c0 2.488 2.013 4.5 4.5 4.5h31c2.487 0 4.5-2.012 4.5-4.5v-18c0-2.487-2.013-4.5-4.5-4.5h-5.5v-0.5c0-2.487-2.012-4.5-4.5-4.5h-11zM30 8h5.5c0.831 0 1.5 0.669 1.5 1.5v2.5h-3.5c-0.831 0-1.5 0.669-1.5 1.5s0.669 1.5 1.5 1.5h3.5v3h-3.5c-0.831 0-1.5 0.669-1.5 1.5s0.669 1.5 1.5 1.5h3.5v6.5c0 0.831-0.669 1.5-1.5 1.5h-5.5v-21zM4.5 8h5.5v21h-5.5c-0.825 0-1.5-0.669-1.5-1.5v-6.5h3.5c0.831 0 1.5-0.669 1.5-1.5s-0.669-1.5-1.5-1.5h-3.5v-3h3.5c0.831 0 1.5-0.669 1.5-1.5s-0.669-1.5-1.5-1.5h-3.5v-2.5c0-0.831 0.669-1.5 1.5-1.5zM13 4.5c0-0.831 0.669-1.5 1.5-1.5h11c0.831 0 1.5 0.669 1.5 1.5v24.5h-4v-4c0-1.656-1.344-3-3-3s-3 1.344-3 3v4h-4v-24.5zM18.5 6v1.5h-1.5c-0.55 0-1 0.45-1 1v1c0 0.55 0.45 1 1 1h1.5v1.5c0 0.55 0.45 1 1 1h1c0.55 0 1-0.45 1-1v-1.5h1.5c0.55 0 1-0.45 1-1v-1c0-0.55-0.45-1-1-1h-1.5v-1.5c0-0.55-0.45-1-1-1h-1c-0.55 0-1 0.45-1 1z"/>
</svg>
