<svg version="1.1" xmlns="http://www.w3.org/2000/svg" width="24" height="32" viewBox="0 0 24 32">
<path fill="currentColor" d="M1.5 0c-0.831 0-1.5 0.669-1.5 1.5s0.669 1.5 1.5 1.5h0.5v1.188c0 2.519 1 4.938 2.781 6.719l5.1 5.094-5.1 5.094c-1.781 1.781-2.781 4.2-2.781 6.719v1.188h-0.5c-0.831 0-1.5 0.669-1.5 1.5s0.669 1.5 1.5 1.5h21c0.831 0 1.5-0.669 1.5-1.5s-0.669-1.5-1.5-1.5h-0.5v-1.188c0-2.519-1-4.938-2.781-6.719l-5.1-5.094 5.094-5.094c1.788-1.781 2.788-4.2 2.788-6.719v-1.188h0.5c0.831 0 1.5-0.669 1.5-1.5s-0.669-1.5-1.5-1.5h-21zM12 18.119l5.094 5.094c1.219 1.225 1.906 2.875 1.906 4.6v1.188h-14v-1.188c0-1.725 0.688-3.375 1.906-4.594l5.094-5.1zM12 13.875l-5.094-5.094c-1.219-1.219-1.906-2.869-1.906-4.594v-1.188h14v1.188c0 1.725-0.688 3.375-1.906 4.594l-5.094 5.1z"/>
</svg>
