<svg version="1.1" xmlns="http://www.w3.org/2000/svg" width="24" height="32" viewBox="0 0 24 32">
<path fill="currentColor" d="M0 1.5c0-0.831 0.669-1.5 1.5-1.5h21c0.831 0 1.5 0.669 1.5 1.5s-0.669 1.5-1.5 1.5h-0.5v1.188c0 2.519-1 4.938-2.781 6.719l-5.1 5.094 5.094 5.094c1.788 1.781 2.788 4.2 2.788 6.719v1.188h0.5c0.831 0 1.5 0.669 1.5 1.5s-0.669 1.5-1.5 1.5h-21c-0.831 0-1.5-0.669-1.5-1.5s0.669-1.5 1.5-1.5h0.5v-1.188c0-2.519 1-4.938 2.781-6.719l5.1-5.094-5.1-5.094c-1.781-1.781-2.781-4.2-2.781-6.719v-1.188h-0.5c-0.831 0-1.5-0.669-1.5-1.5zM6.906 23.219c-0.244 0.244-0.469 0.506-0.669 0.781h11.525c-0.2-0.275-0.425-0.538-0.669-0.781l-5.094-5.1-5.094 5.094zM17.762 8c0.8-1.1 1.238-2.438 1.238-3.813v-1.188h-14v1.188c0 1.381 0.438 2.713 1.237 3.813h11.525z"/>
</svg>
