<svg version="1.1" xmlns="http://www.w3.org/2000/svg" width="36" height="32" viewBox="0 0 36 32">
<path fill="currentColor" d="M33 10v16c0 0.55-0.45 1-1 1h-12c0-2.762-2.238-5-5-5h-4c-2.762 0-5 2.238-5 5h-2c-0.55 0-1-0.45-1-1v-16h30zM4 2c-2.206 0-4 1.794-4 4v20c0 2.206 1.794 4 4 4h28c2.206 0 4-1.794 4-4v-20c0-2.206-1.794-4-4-4h-28zM17 16c0-2.209-1.791-4-4-4s-4 1.791-4 4v0c0 2.209 1.791 4 4 4s4-1.791 4-4v0zM23.5 13c-0.831 0-1.5 0.669-1.5 1.5s0.669 1.5 1.5 1.5h5c0.831 0 1.5-0.669 1.5-1.5s-0.669-1.5-1.5-1.5h-5zM23.5 19c-0.831 0-1.5 0.669-1.5 1.5s0.669 1.5 1.5 1.5h5c0.831 0 1.5-0.669 1.5-1.5s-0.669-1.5-1.5-1.5h-5z"/>
</svg>
