<svg version="1.1" xmlns="http://www.w3.org/2000/svg" width="36" height="32" viewBox="0 0 36 32">
<path fill="currentColor" d="M10 5h22c0.55 0 1 0.45 1 1v14c0 0.55-0.45 1-1 1h-1.325l-6.419-9.819c-0.275-0.425-0.75-0.681-1.256-0.681s-0.981 0.256-1.256 0.681l-3.262 4.987-0.775-1.056c-0.281-0.387-0.731-0.613-1.212-0.613s-0.925 0.225-1.213 0.613l-4.306 5.888h-0.975c-0.55 0-1-0.45-1-1v-14c0-0.55 0.45-1 1-1zM6 6v14c0 2.206 1.794 4 4 4h22c2.206 0 4-1.794 4-4v-14c0-2.206-1.794-4-4-4h-22c-2.206 0-4 1.794-4 4zM3 7.5c0-0.831-0.669-1.5-1.5-1.5s-1.5 0.669-1.5 1.5v14c0 4.694 3.806 8.5 8.5 8.5h20c0.831 0 1.5-0.669 1.5-1.5s-0.669-1.5-1.5-1.5h-20c-3.037 0-5.5-2.462-5.5-5.5v-14zM16 9c0-1.105-0.895-2-2-2s-2 0.895-2 2v0c0 1.105 0.895 2 2 2s2-0.895 2-2v0z"/>
</svg>
