<svg version="1.1" xmlns="http://www.w3.org/2000/svg" width="36" height="32" viewBox="0 0 36 32">
<path fill="currentColor" d="M4 7c-0.55 0-1 0.45-1 1v16c0 0.55 0.45 1 1 1h28c0.55 0 1-0.45 1-1v-16c0-0.55-0.45-1-1-1h-28zM0 8c0-2.206 1.794-4 4-4h28c2.206 0 4 1.794 4 4v16c0 2.206-1.794 4-4 4h-28c-2.206 0-4-1.794-4-4v-16zM11 20h14c0.55 0 1 0.45 1 1v1c0 0.55-0.45 1-1 1h-14c-0.55 0-1-0.45-1-1v-1c0-0.55 0.45-1 1-1zM6.5 15.5c0-0.55 0.45-1 1-1h1c0.55 0 1 0.45 1 1v1c0 0.55-0.45 1-1 1h-1c-0.55 0-1-0.45-1-1v-1zM7.5 9.5h1c0.55 0 1 0.45 1 1v1c0 0.55-0.45 1-1 1h-1c-0.55 0-1-0.45-1-1v-1c0-0.55 0.45-1 1-1zM11.5 15.5c0-0.55 0.45-1 1-1h1c0.55 0 1 0.45 1 1v1c0 0.55-0.45 1-1 1h-1c-0.55 0-1-0.45-1-1v-1zM12.5 9.5h1c0.55 0 1 0.45 1 1v1c0 0.55-0.45 1-1 1h-1c-0.55 0-1-0.45-1-1v-1c0-0.55 0.45-1 1-1zM16.5 15.5c0-0.55 0.45-1 1-1h1c0.55 0 1 0.45 1 1v1c0 0.55-0.45 1-1 1h-1c-0.55 0-1-0.45-1-1v-1zM17.5 9.5h1c0.55 0 1 0.45 1 1v1c0 0.55-0.45 1-1 1h-1c-0.55 0-1-0.45-1-1v-1c0-0.55 0.45-1 1-1zM21.5 15.5c0-0.55 0.45-1 1-1h1c0.55 0 1 0.45 1 1v1c0 0.55-0.45 1-1 1h-1c-0.55 0-1-0.45-1-1v-1zM22.5 9.5h1c0.55 0 1 0.45 1 1v1c0 0.55-0.45 1-1 1h-1c-0.55 0-1-0.45-1-1v-1c0-0.55 0.45-1 1-1zM26.5 15.5c0-0.55 0.45-1 1-1h1c0.55 0 1 0.45 1 1v1c0 0.55-0.45 1-1 1h-1c-0.55 0-1-0.45-1-1v-1zM27.5 9.5h1c0.55 0 1 0.45 1 1v1c0 0.55-0.45 1-1 1h-1c-0.55 0-1-0.45-1-1v-1c0-0.55 0.45-1 1-1z"/>
</svg>
