<svg version="1.1" xmlns="http://www.w3.org/2000/svg" width="28" height="32" viewBox="0 0 28 32">
<path fill="currentColor" d="M23 5c-0.2 0-0.387 0.025-0.556 0.081-1.194 0.344-2.881 0.662-4.644 0.206-3.588-0.931-7.787 0.463-10.919 3.594s-4.525 7.331-3.594 10.919c0.456 1.762 0.138 3.45-0.206 4.644-0.050 0.175-0.081 0.363-0.081 0.556 0 1.106 0.894 2 2 2 0.2 0 0.388-0.025 0.556-0.081 1.194-0.344 2.881-0.669 4.644-0.206 3.588 0.931 7.788-0.462 10.919-3.594s4.525-7.331 3.594-10.919c-0.456-1.762-0.137-3.45 0.206-4.644 0.050-0.175 0.081-0.362 0.081-0.556 0-1.106-0.894-2-2-2zM23 2c2.762 0 5 2.237 5 5 0 0.481-0.069 0.95-0.194 1.394-0.288 0.988-0.444 2.056-0.188 3.056 1.256 4.85-0.681 10.094-4.375 13.794s-8.944 5.637-13.794 4.375c-1-0.256-2.063-0.1-3.056 0.188-0.444 0.125-0.912 0.194-1.394 0.194-2.763 0-5-2.238-5-5 0-0.481 0.069-0.95 0.194-1.394 0.287-0.988 0.444-2.056 0.187-3.056-1.256-4.844 0.681-10.094 4.381-13.787s8.944-5.638 13.787-4.381c1 0.256 2.063 0.1 3.056-0.188 0.444-0.125 0.913-0.194 1.394-0.194zM15.419 10.438c-3.25 0.95-6.031 3.731-6.981 6.981-0.231 0.794-1.069 1.25-1.862 1.019s-1.25-1.069-1.019-1.863c1.237-4.231 4.787-7.781 9.019-9.019 0.794-0.231 1.631 0.225 1.862 1.019s-0.225 1.631-1.019 1.863z"/>
</svg>
