<svg version="1.1" xmlns="http://www.w3.org/2000/svg" width="32" height="32" viewBox="0 0 32 32">
<path fill="currentColor" d="M24.069 26.194c-2.212 1.756-5.019 2.806-8.069 2.806s-5.856-1.050-8.069-2.806l5.025-5.025c0.894 0.525 1.938 0.831 3.050 0.831s2.156-0.3 3.050-0.831l5.025 5.025zM28.325 26.206c2.294-2.775 3.675-6.325 3.675-10.206s-1.381-7.431-3.675-10.206l0.738-0.731c0.587-0.588 0.587-1.538 0-2.119s-1.538-0.587-2.119 0l-0.738 0.731c-2.775-2.294-6.325-3.675-10.206-3.675s-7.431 1.381-10.206 3.675l-0.731-0.737c-0.588-0.587-1.538-0.587-2.119 0s-0.587 1.538 0 2.119l0.731 0.737c-2.294 2.775-3.675 6.325-3.675 10.206s1.381 7.431 3.675 10.206l-0.737 0.731c-0.587 0.587-0.587 1.538 0 2.119s1.538 0.587 2.119 0l0.737-0.738c2.775 2.3 6.325 3.681 10.206 3.681s7.431-1.381 10.206-3.675l0.731 0.738c0.587 0.587 1.538 0.587 2.119 0s0.587-1.538 0-2.119l-0.738-0.738zM26.194 24.075l-5.025-5.025c0.525-0.894 0.831-1.938 0.831-3.050s-0.3-2.156-0.831-3.050l5.025-5.025c1.756 2.219 2.806 5.025 2.806 8.075s-1.050 5.856-2.806 8.069zM24.069 5.806l-5.025 5.025c-0.894-0.525-1.938-0.831-3.050-0.831s-2.156 0.3-3.050 0.831l-5.013-5.025c2.212-1.756 5.019-2.806 8.069-2.806s5.856 1.050 8.069 2.806zM10.831 19.050l-5.025 5.019c-1.756-2.212-2.806-5.019-2.806-8.069s1.050-5.856 2.806-8.069l5.025 5.025c-0.525 0.894-0.831 1.938-0.831 3.050s0.3 2.156 0.831 3.050zM13 16c0-1.657 1.343-3 3-3s3 1.343 3 3v0c0 1.657-1.343 3-3 3s-3-1.343-3-3v0z"/>
</svg>
