<svg version="1.1" xmlns="http://www.w3.org/2000/svg" width="24" height="32" viewBox="0 0 24 32">
<path fill="currentColor" d="M18.575 15.556c0.9-1.287 1.425-2.856 1.425-4.556 0-4.419-3.581-8-8-8s-8 3.581-8 8c0 1.7 0.525 3.269 1.425 4.556 0.231 0.331 0.506 0.706 0.8 1.106v0c0.806 1.106 1.769 2.431 2.487 3.738 0.65 1.188 0.981 2.425 1.144 3.594h-3.044c-0.138-0.75-0.369-1.481-0.737-2.156-0.619-1.125-1.388-2.181-2.156-3.238v0 0c-0.325-0.444-0.65-0.887-0.962-1.337-1.231-1.769-1.956-3.931-1.956-6.262 0-6.075 4.925-11 11-11s11 4.925 11 11c0 2.331-0.725 4.494-1.962 6.269-0.313 0.45-0.637 0.894-0.962 1.337v0 0c-0.769 1.050-1.538 2.106-2.156 3.238-0.369 0.675-0.6 1.406-0.738 2.156h-3.031c0.162-1.169 0.494-2.413 1.144-3.594 0.719-1.306 1.681-2.631 2.488-3.738v0 0 0c0.294-0.4 0.563-0.775 0.794-1.106zM12 8c-1.656 0-3 1.344-3 3 0 0.55-0.45 1-1 1s-1-0.45-1-1c0-2.762 2.238-5 5-5 0.55 0 1 0.45 1 1s-0.45 1-1 1zM12 32c-2.762 0-5-2.238-5-5v-1h10v1c0 2.762-2.238 5-5 5z"/>
</svg>
