<svg version="1.1" xmlns="http://www.w3.org/2000/svg" width="36" height="32" viewBox="0 0 36 32">
<path fill="currentColor" d="M35.35 2.263c0.406 0.281 0.65 0.744 0.65 1.237v21c0 0.625-0.388 1.181-0.969 1.4l-10.5 4c-0.325 0.125-0.681 0.131-1.006 0.019l-11.494-3.825-10 3.813c-0.462 0.175-0.981 0.113-1.387-0.169s-0.644-0.744-0.644-1.238v-21c0-0.625 0.381-1.181 0.969-1.4l10.5-4c0.325-0.125 0.681-0.131 1.006-0.019l11.494 3.825 10-3.813c0.462-0.175 0.981-0.113 1.388 0.169zM3 8.531v17.794l7.5-2.856v-17.794l-7.5 2.856zM22.5 26.419v-17.837l-9-3v17.837l9 3zM25.5 26.325l7.5-2.856v-17.794l-7.5 2.856v17.794z"/>
</svg>
