<svg version="1.1" xmlns="http://www.w3.org/2000/svg" width="36" height="32" viewBox="0 0 36 32">
<path fill="currentColor" d="M7 7c0 2.206-1.794 4-4 4v10c2.206 0 4 1.794 4 4h22c0-2.206 1.794-4 4-4v-10c-2.206 0-4-1.794-4-4h-22zM0 8c0-2.206 1.794-4 4-4h28c2.206 0 4 1.794 4 4v16c0 2.206-1.794 4-4 4h-28c-2.206 0-4-1.794-4-4v-16zM11 16c0-3.866 3.134-7 7-7s7 3.134 7 7v0c0 3.866-3.134 7-7 7s-7-3.134-7-7v0zM16 13c0 0.55 0.45 1 1 1v4h-0.5c-0.55 0-1 0.45-1 1s0.45 1 1 1h3c0.55 0 1-0.45 1-1s-0.45-1-1-1h-0.5v-5c0-0.55-0.45-1-1-1h-1c-0.55 0-1 0.45-1 1z"/>
</svg>
