<svg version="1.1" xmlns="http://www.w3.org/2000/svg" width="24" height="32" viewBox="0 0 24 32">
<path fill="currentColor" d="M9.044 6.169c-1.313 2.131-2.069 4.644-2.069 7.331 0 6.125 3.925 11.337 9.4 13.231-0.775 0.175-1.581 0.269-2.412 0.269-6.050 0-10.963-4.919-10.963-11 0-4.306 2.463-8.025 6.050-9.831zM12.925 2.044c-7.231 0.531-12.925 6.575-12.925 13.956 0 7.731 6.25 14 13.969 14 2.988 0 5.75-0.938 8.025-2.538 0.119-0.081 0.231-0.169 0.344-0.25 0.3-0.225 0.587-0.462 0.869-0.712 0.169-0.15 0.331-0.3 0.494-0.456 0.313-0.306 0.394-0.781 0.194-1.169s-0.631-0.606-1.063-0.531c-0.231 0.038-0.462 0.075-0.694 0.1-0.313 0.031-0.631 0.056-0.956 0.063-0.075 0-0.156 0-0.231 0-0.006 0-0.012 0-0.019 0-6.050-0.012-10.95-4.931-10.95-11 0-3.425 1.556-6.481 4.006-8.5 0.063-0.056 0.131-0.106 0.2-0.162 0.25-0.2 0.512-0.388 0.781-0.563 0.194-0.125 0.394-0.25 0.6-0.362 0.381-0.219 0.575-0.656 0.481-1.081s-0.456-0.744-0.894-0.781c-0.225-0.019-0.444-0.031-0.669-0.038-0.169-0.006-0.344-0.006-0.512-0.006-0.206 0-0.406 0.006-0.613 0.013-0.144 0.006-0.287 0.013-0.431 0.025z"/>
</svg>
