<svg version="1.1" xmlns="http://www.w3.org/2000/svg" width="32" height="32" viewBox="0 0 32 32">
<path fill="currentColor" d="M10.5 5c-0.831 0-1.5 0.669-1.5 1.5v19c0 0.525-0.088 1.031-0.256 1.5h18.756c0.831 0 1.5-0.669 1.5-1.5v-19c0-0.831-0.669-1.5-1.5-1.5h-17zM4.5 30c-2.487 0-4.5-2.012-4.5-4.5v-18.5c0-0.831 0.669-1.5 1.5-1.5s1.5 0.669 1.5 1.5v18.5c0 0.831 0.669 1.5 1.5 1.5s1.5-0.669 1.5-1.5v-19c0-2.487 2.012-4.5 4.5-4.5h17c2.488 0 4.5 2.013 4.5 4.5v19c0 2.488-2.012 4.5-4.5 4.5h-23zM11 8.5c0-0.831 0.669-1.5 1.5-1.5h6c0.831 0 1.5 0.669 1.5 1.5v5c0 0.831-0.669 1.5-1.5 1.5h-6c-0.831 0-1.5-0.669-1.5-1.5v-5zM23.5 7h2c0.831 0 1.5 0.669 1.5 1.5s-0.669 1.5-1.5 1.5h-2c-0.831 0-1.5-0.669-1.5-1.5s0.669-1.5 1.5-1.5zM23.5 12h2c0.831 0 1.5 0.669 1.5 1.5s-0.669 1.5-1.5 1.5h-2c-0.831 0-1.5-0.669-1.5-1.5s0.669-1.5 1.5-1.5zM12.5 17h13c0.831 0 1.5 0.669 1.5 1.5s-0.669 1.5-1.5 1.5h-13c-0.831 0-1.5-0.669-1.5-1.5s0.669-1.5 1.5-1.5zM12.5 22h13c0.831 0 1.5 0.669 1.5 1.5s-0.669 1.5-1.5 1.5h-13c-0.831 0-1.5-0.669-1.5-1.5s0.669-1.5 1.5-1.5z"/>
</svg>
