<svg version="1.1" xmlns="http://www.w3.org/2000/svg" width="36" height="32" viewBox="0 0 36 32">
<path fill="currentColor" d="M3 7.237c-0.612-0.55-1-1.35-1-2.237 0-1.656 1.344-3 3-3 0.888 0 1.688 0.388 2.237 1h21.525c0.55-0.612 1.35-1 2.238-1 1.656 0 3 1.344 3 3 0 0.888-0.388 1.688-1 2.237v17.525c0.612 0.55 1 1.35 1 2.238 0 1.656-1.344 3-3 3-0.887 0-1.688-0.387-2.238-1h-21.525c-0.55 0.613-1.35 1-2.237 1-1.656 0-3-1.344-3-3 0-0.887 0.388-1.688 1-2.238v-17.525zM7.831 6c-0.3 0.85-0.975 1.525-1.831 1.831v16.337c0.85 0.3 1.525 0.975 1.831 1.831h20.337c0.3-0.85 0.975-1.525 1.831-1.831v-16.337c-0.85-0.3-1.525-0.975-1.831-1.831h-20.337zM8 10c0-1.106 0.894-2 2-2h8c1.106 0 2 0.894 2 2v6c0 1.106-0.894 2-2 2h-8c-1.106 0-2-0.894-2-2v-6zM16 20h2c2.206 0 4-1.794 4-4v-2h4c1.106 0 2 0.894 2 2v6c0 1.106-0.894 2-2 2h-8c-1.106 0-2-0.894-2-2v-2z"/>
</svg>
