<svg version="1.1" xmlns="http://www.w3.org/2000/svg" width="40" height="32" viewBox="0 0 40 32">
<path fill="currentColor" d="M3.013 4.175c-0.006-0.050-0.013-0.106-0.013-0.156 0-0.006 0-0.006 0-0.013 0-0.55 0.45-1 1-1 0.056 0 0.119 0.006 0.175 0.013 0.469 0.075 0.825 0.487 0.825 0.981 0 0.55-0.45 1-1 1-0.494 0-0.906-0.356-0.987-0.825zM0 4c0 1.681 1.031 3.119 2.5 3.706v6.587c-1.469 0.588-2.5 2.025-2.5 3.706 0 2.206 1.794 4 4 4 1.681 0 3.119-1.031 3.706-2.5h12.587c0.594 1.469 2.031 2.5 3.706 2.5 2.206 0 4-1.794 4-4 0-1.681-1.031-3.119-2.5-3.706v-6.588c1.469-0.594 2.5-2.031 2.5-3.706 0-2.206-1.794-4-4-4-1.681 0-3.119 1.031-3.706 2.5h-12.588c-0.588-1.469-2.025-2.5-3.706-2.5-2.206 0-4 1.794-4 4zM23 4c0-0.552 0.448-1 1-1s1 0.448 1 1v0c0 0.552-0.448 1-1 1s-1-0.448-1-1v0zM20.294 5.5c0.406 1 1.206 1.806 2.206 2.206v6.587c-1 0.406-1.806 1.206-2.206 2.206h-12.588c-0.406-1-1.206-1.806-2.206-2.206v-6.588c1-0.406 1.806-1.206 2.206-2.206h12.588zM24 17c0.552 0 1 0.448 1 1s-0.448 1-1 1v0c-0.552 0-1-0.448-1-1s0.448-1 1-1v0zM5 18c0 0.494-0.356 0.906-0.825 0.988-0.050 0.006-0.106 0.012-0.156 0.012h-0.013c-0.55 0-1-0.45-1-1 0-0.056 0.006-0.119 0.013-0.175 0.075-0.469 0.487-0.825 0.981-0.825 0.55 0 1 0.45 1 1zM29.456 15.5h2.838c0.406 1 1.206 1.806 2.206 2.206v6.588c-1 0.406-1.806 1.206-2.206 2.206h-12.587c-0.406-1-1.206-1.806-2.206-2.206v-2.294h-3v2.294c-1.469 0.594-2.5 2.031-2.5 3.706 0 2.206 1.794 4 4 4 1.681 0 3.119-1.031 3.706-2.5h12.587c0.594 1.469 2.031 2.5 3.706 2.5 2.206 0 4-1.794 4-4 0-1.681-1.031-3.119-2.5-3.706v-6.588c1.469-0.594 2.5-2.031 2.5-3.706 0-2.206-1.794-4-4-4-1.681 0-3.119 1.031-3.706 2.5h-4.294v1.025c0.613 0.55 1.113 1.219 1.456 1.975zM35.013 13.831c0.068-0.492 0.486-0.866 0.991-0.866 0.552 0 1 0.448 1 1 0 0.074-0.008 0.147-0.023 0.216l0.001-0.007c-0.068 0.492-0.486 0.866-0.991 0.866-0.552 0-1-0.448-1-1 0-0.074 0.008-0.147 0.023-0.216l-0.001 0.007zM16.988 28.169c-0.068 0.492-0.486 0.866-0.991 0.866-0.552 0-1-0.448-1-1 0-0.074 0.008-0.147 0.023-0.216l-0.001 0.007c0.068-0.492 0.486-0.866 0.991-0.866 0.552 0 1 0.448 1 1 0 0.074-0.008 0.147-0.023 0.216l0.001-0.007zM35.831 28.981c-0.469-0.081-0.825-0.494-0.825-0.988 0-0.55 0.45-1 1-1 0.494 0 0.906 0.356 0.987 0.825v0.006c0.006 0.056 0.013 0.113 0.013 0.169 0 0.55-0.45 1-1 1-0.056 0-0.119-0.006-0.175-0.012z"/>
</svg>
