<svg version="1.1" xmlns="http://www.w3.org/2000/svg" width="32" height="32" viewBox="0 0 32 32">
<path fill="currentColor" d="M1.006 16.262c-1.413 0.806-1.281 2.956 0.225 3.581l8.769 3.656v6.456c0 1.131 0.912 2.044 2.044 2.044 0.606 0 1.181-0.269 1.569-0.738l3.875-4.644 7.744 3.225c1.181 0.494 2.55-0.281 2.744-1.544l4-26c0.119-0.756-0.212-1.519-0.844-1.95s-1.456-0.469-2.125-0.088l-28 16zM4.263 17.856l21.344-12.194-13.725 15.338 0.075 0.063-7.694-3.206zM25.206 26.587l-10.412-4.344 13.381-14.956-2.969 19.3z"/>
</svg>
