<svg version="1.1" xmlns="http://www.w3.org/2000/svg" width="32" height="32" viewBox="0 0 32 32">
<path fill="currentColor" d="M5 6v1c0 1.106 0.894 2 2 2h3.8c1.037-1.794 2.975-3 5.2-3h3.875c-0.444-1.725-2.012-3-3.875-3h-2.537c-0.238-1.694-1.7-3-3.463-3s-3.225 1.306-3.463 3h-2.538c-2.206 0-4 1.794-4 4v17c0 2.206 1.794 4 4 4h6v-3h-6c-0.55 0-1-0.45-1-1v-17c0-0.55 0.45-1 1-1h1zM9 3.5c0-0.552 0.448-1 1-1s1 0.448 1 1v0c0 0.552-0.448 1-1 1s-1-0.448-1-1v0zM16 29c-0.55 0-1-0.45-1-1v-16c0-0.55 0.45-1 1-1h8v3c0 1.106 0.894 2 2 2h3v12c0 0.55-0.45 1-1 1h-12zM28 32c2.206 0 4-1.794 4-4v-13.756c0-0.794-0.319-1.556-0.881-2.119l-3.244-3.244c-0.563-0.563-1.325-0.881-2.119-0.881h-9.756c-2.206 0-4 1.794-4 4v16c0 2.206 1.794 4 4 4h12z"/>
</svg>
