<svg version="1.1" xmlns="http://www.w3.org/2000/svg" width="32" height="32" viewBox="0 0 32 32">
<path fill="currentColor" d="M27.563 3.681l0.756 0.756c0.587 0.588 0.587 1.537 0 2.119l-1.819 1.825-2.881-2.881 1.819-1.819c0.587-0.587 1.538-0.587 2.119 0zM13.113 16.012l8.387-8.394 2.881 2.881-8.394 8.387c-0.181 0.181-0.406 0.313-0.65 0.381l-3.656 1.044 1.044-3.656c0.069-0.244 0.2-0.469 0.381-0.65zM23.319 1.563l-12.331 12.325c-0.544 0.544-0.938 1.213-1.144 1.944l-1.787 6.25c-0.15 0.525-0.006 1.087 0.381 1.475s0.95 0.531 1.475 0.381l6.25-1.788c0.738-0.212 1.406-0.606 1.944-1.144l12.331-12.325c1.756-1.756 1.756-4.606 0-6.362l-0.756-0.756c-1.756-1.756-4.606-1.756-6.363 0zM5.5 4c-3.038 0-5.5 2.463-5.5 5.5v17c0 3.038 2.462 5.5 5.5 5.5h17c3.038 0 5.5-2.462 5.5-5.5v-7c0-0.831-0.669-1.5-1.5-1.5s-1.5 0.669-1.5 1.5v7c0 1.381-1.119 2.5-2.5 2.5h-17c-1.381 0-2.5-1.119-2.5-2.5v-17c0-1.381 1.119-2.5 2.5-2.5h7c0.831 0 1.5-0.669 1.5-1.5s-0.669-1.5-1.5-1.5h-7z"/>
</svg>
