<svg version="1.1" xmlns="http://www.w3.org/2000/svg" width="36" height="32" viewBox="0 0 36 32">
<path fill="currentColor" d="M4 5c-0.55 0-1 0.45-1 1v20c0 0.55 0.45 1 1 1h28c0.55 0 1-0.45 1-1v-20c0-0.55-0.45-1-1-1h-28zM0 6c0-2.206 1.794-4 4-4h28c2.206 0 4 1.794 4 4v20c0 2.206-1.794 4-4 4h-28c-2.206 0-4-1.794-4-4v-20zM6 10c0-1.105 0.895-2 2-2s2 0.895 2 2v0c0 1.105-0.895 2-2 2s-2-0.895-2-2v0zM12.5 10c0-0.831 0.669-1.5 1.5-1.5h14c0.831 0 1.5 0.669 1.5 1.5s-0.669 1.5-1.5 1.5h-14c-0.831 0-1.5-0.669-1.5-1.5zM12.5 16c0-0.831 0.669-1.5 1.5-1.5h14c0.831 0 1.5 0.669 1.5 1.5s-0.669 1.5-1.5 1.5h-14c-0.831 0-1.5-0.669-1.5-1.5zM12.5 22c0-0.831 0.669-1.5 1.5-1.5h14c0.831 0 1.5 0.669 1.5 1.5s-0.669 1.5-1.5 1.5h-14c-0.831 0-1.5-0.669-1.5-1.5zM8 18c-1.105 0-2-0.895-2-2s0.895-2 2-2v0c1.105 0 2 0.895 2 2s-0.895 2-2 2v0zM6 22c0-1.105 0.895-2 2-2s2 0.895 2 2v0c0 1.105-0.895 2-2 2s-2-0.895-2-2v0z"/>
</svg>
