<svg version="1.1" xmlns="http://www.w3.org/2000/svg" width="32" height="32" viewBox="0 0 32 32">
<path fill="currentColor" d="M4 5c-0.55 0-1 0.45-1 1v20c0 0.55 0.45 1 1 1h24c0.55 0 1-0.45 1-1v-20c0-0.55-0.45-1-1-1h-24zM0 6c0-2.206 1.794-4 4-4h24c2.206 0 4 1.794 4 4v20c0 2.206-1.794 4-4 4h-24c-2.206 0-4-1.794-4-4v-20zM10.938 10.938c0.588-0.588 1.537-0.588 2.119 0l2.938 2.938 2.937-2.938c0.587-0.588 1.538-0.588 2.119 0s0.587 1.537 0 2.119l-2.938 2.938 2.938 2.937c0.587 0.587 0.587 1.538 0 2.119s-1.538 0.587-2.119 0l-2.938-2.938-2.938 2.938c-0.588 0.587-1.537 0.587-2.119 0s-0.588-1.538 0-2.119l2.938-2.938-2.938-2.938c-0.588-0.588-0.588-1.537 0-2.119z"/>
</svg>
