<svg version="1.1" xmlns="http://www.w3.org/2000/svg" width="32" height="32" viewBox="0 0 32 32">
<path fill="currentColor" d="M16 3c7.18 0 13 5.82 13 13s-5.82 13-13 13v0c-7.18 0-13-5.82-13-13s5.82-13 13-13v0zM16 32c8.837 0 16-7.163 16-16s-7.163-16-16-16v0c-8.837 0-16 7.163-16 16s7.163 16 16 16v0zM10 9.5v13c0 0.831 0.669 1.5 1.5 1.5s1.5-0.669 1.5-1.5v-4.5h3.806l2.325 5.119c0.344 0.756 1.231 1.087 1.988 0.744s1.087-1.231 0.744-1.988l-2.131-4.688c1.363-0.894 2.269-2.438 2.269-4.188 0-2.762-2.238-5-5-5h-5.5c-0.831 0-1.5 0.669-1.5 1.5zM13 15v-4h4c1.106 0 2 0.894 2 2s-0.894 2-2 2h-4z"/>
</svg>
