<svg version="1.1" xmlns="http://www.w3.org/2000/svg" width="36" height="32" viewBox="0 0 36 32">
<path fill="currentColor" d="M25 15.963v-2.963c0-0.55-0.45-1-1-1h-5.906c-3.181 0-5.869 2.094-6.769 4.975-0.206-0.587-0.325-1.238-0.325-1.975 0-3.869 3.131-7 7-7h6c0.55 0 1-0.45 1-1v-2.963l6.625 5.963-6.625 5.963zM21 15h1v3c0 1.106 0.894 2 2 2h0.231c0.494 0 0.969-0.181 1.337-0.512l8.687-7.819c0.475-0.425 0.744-1.031 0.744-1.669s-0.269-1.244-0.744-1.669l-8.637-7.775c-0.4-0.356-0.913-0.556-1.45-0.556-1.2 0-2.169 0.969-2.169 2.169v2.831h-4c-5.525 0-10 4.475-10 10 0 3.775 2.162 6.194 3.994 7.556 0.369 0.275 0.719 0.506 1.044 0.7 0.275 0.169 0.531 0.306 0.744 0.413s0.387 0.188 0.512 0.244c0.137 0.063 0.287 0.087 0.444 0.087h0.156c0.613 0 1.112-0.5 1.112-1.113 0-0.488-0.331-0.919-0.725-1.219v0c-0.025-0.019-0.044-0.031-0.069-0.050-0.106-0.069-0.213-0.156-0.313-0.256-0.050-0.050-0.106-0.1-0.156-0.163s-0.1-0.119-0.15-0.181c-0.113-0.156-0.219-0.331-0.313-0.531-0.162-0.375-0.269-0.831-0.269-1.4 0-2.256 1.831-4.094 4.094-4.094h2.894zM4.5 2c-2.487 0-4.5 2.013-4.5 4.5v21c0 2.488 2.013 4.5 4.5 4.5h21c2.488 0 4.5-2.012 4.5-4.5v-4c0-0.831-0.669-1.5-1.5-1.5s-1.5 0.669-1.5 1.5v4c0 0.831-0.669 1.5-1.5 1.5h-21c-0.831 0-1.5-0.669-1.5-1.5v-21c0-0.831 0.669-1.5 1.5-1.5h4c0.831 0 1.5-0.669 1.5-1.5s-0.669-1.5-1.5-1.5h-4z"/>
</svg>
