<svg version="1.1" xmlns="http://www.w3.org/2000/svg" width="28" height="32" viewBox="0 0 28 32">
<path fill="currentColor" d="M14 0c0.831 0 1.5 0.669 1.5 1.5v2.881l1.438-1.438c0.587-0.587 1.538-0.587 2.119 0s0.587 1.537 0 2.119l-3.563 3.563v4.781l4.137-2.387 1.306-4.862c0.212-0.8 1.038-1.275 1.837-1.063s1.275 1.038 1.063 1.837l-0.525 1.956 2.319-1.338c0.719-0.412 1.637-0.169 2.050 0.55s0.169 1.637-0.55 2.050l-2.319 1.338 1.969 0.525c0.8 0.213 1.275 1.037 1.063 1.838s-1.038 1.275-1.837 1.063l-4.863-1.306-4.144 2.394 4.137 2.387 4.863-1.306c0.8-0.212 1.625 0.262 1.837 1.063s-0.262 1.625-1.063 1.837l-1.962 0.531 2.319 1.337c0.719 0.413 0.962 1.331 0.55 2.050s-1.331 0.962-2.050 0.55l-2.319-1.337 0.525 1.969c0.212 0.8-0.262 1.625-1.063 1.837s-1.625-0.262-1.837-1.063l-1.306-4.863-4.131-2.394v4.781l3.563 3.563c0.587 0.587 0.587 1.538 0 2.119s-1.538 0.587-2.119 0l-1.438-1.438v2.875c0 0.831-0.669 1.5-1.5 1.5s-1.5-0.669-1.5-1.5v-2.881l-1.438 1.438c-0.588 0.587-1.537 0.587-2.119 0s-0.588-1.538 0-2.119l3.563-3.563v-4.775l-4.138 2.387-1.306 4.863c-0.213 0.8-1.037 1.275-1.838 1.063s-1.275-1.038-1.063-1.837l0.519-1.962-2.319 1.337c-0.719 0.413-1.637 0.169-2.050-0.55s-0.169-1.637 0.55-2.050l2.319-1.337-1.969-0.525c-0.8-0.212-1.275-1.038-1.063-1.837s1.038-1.275 1.837-1.063l4.863 1.306 4.144-2.394-4.138-2.387-4.869 1.3c-0.8 0.213-1.625-0.262-1.837-1.063s0.263-1.625 1.063-1.838l1.969-0.525-2.319-1.338c-0.719-0.412-0.963-1.331-0.55-2.050s1.331-0.963 2.050-0.55l2.319 1.337-0.525-1.969c-0.212-0.8 0.263-1.625 1.063-1.838s1.625 0.263 1.838 1.063l1.306 4.863 4.131 2.394v-4.781l-3.563-3.556c-0.588-0.588-0.588-1.538 0-2.119s1.537-0.587 2.119 0l1.438 1.437v-2.881c0-0.831 0.669-1.5 1.5-1.5z"/>
</svg>
