<svg version="1.1" xmlns="http://www.w3.org/2000/svg" width="28" height="32" viewBox="0 0 28 32">
<path fill="currentColor" d="M3 26c0 0.55 0.45 1 1 1h20c0.55 0 1-0.45 1-1v-20c0-0.55-0.45-1-1-1h-20c-0.55 0-1 0.45-1 1v20zM4 30c-2.206 0-4-1.794-4-4v-20c0-2.206 1.794-4 4-4h20c2.206 0 4 1.794 4 4v20c0 2.206-1.794 4-4 4h-20zM8 16c0-0.419 0.175-0.813 0.481-1.1l7-6.5c0.438-0.406 1.075-0.513 1.619-0.275s0.9 0.781 0.9 1.375v13c0 0.594-0.356 1.137-0.9 1.375s-1.181 0.131-1.619-0.275l-7-6.5c-0.306-0.281-0.481-0.681-0.481-1.1z"/>
</svg>
