<svg version="1.1" xmlns="http://www.w3.org/2000/svg" width="28" height="32" viewBox="0 0 28 32">
<path fill="currentColor" d="M4 5c-0.55 0-1 0.45-1 1v20c0 0.55 0.45 1 1 1h20c0.55 0 1-0.45 1-1v-20c0-0.55-0.45-1-1-1h-20zM0 6c0-2.206 1.794-4 4-4h20c2.206 0 4 1.794 4 4v20c0 2.206-1.794 4-4 4h-20c-2.206 0-4-1.794-4-4v-20zM21.063 13.063l-8 8c-0.588 0.587-1.537 0.587-2.119 0l-4-4c-0.588-0.587-0.588-1.537 0-2.119s1.537-0.588 2.119 0l2.938 2.938 6.938-6.944c0.587-0.588 1.538-0.588 2.119 0s0.587 1.537 0 2.119z"/>
</svg>
