<svg version="1.1" xmlns="http://www.w3.org/2000/svg" width="28" height="32" viewBox="0 0 28 32">
<path fill="currentColor" d="M4 5c-0.55 0-1 0.45-1 1v20c0 0.55 0.45 1 1 1h20c0.55 0 1-0.45 1-1v-20c0-0.55-0.45-1-1-1h-20zM0 6c0-2.206 1.794-4 4-4h20c2.206 0 4 1.794 4 4v20c0 2.206-1.794 4-4 4h-20c-2.206 0-4-1.794-4-4v-20zM14 10c0.419 0 0.813 0.175 1.1 0.481l6.5 7c0.406 0.438 0.512 1.075 0.275 1.619s-0.781 0.9-1.375 0.9h-13c-0.594 0-1.138-0.356-1.375-0.9s-0.131-1.181 0.275-1.619l6.5-7c0.281-0.306 0.681-0.481 1.1-0.481z"/>
</svg>
