<svg version="1.1" xmlns="http://www.w3.org/2000/svg" width="28" height="32" viewBox="0 0 28 32">
<path fill="currentColor" d="M4 5c-0.55 0-1 0.45-1 1v20c0 0.55 0.45 1 1 1h20c0.55 0 1-0.45 1-1v-20c0-0.55-0.45-1-1-1h-20zM0 6c0-2.206 1.794-4 4-4h20c2.206 0 4 1.794 4 4v20c0 2.206-1.794 4-4 4h-20c-2.206 0-4-1.794-4-4v-20zM12.5 21.5v-4h-4c-0.831 0-1.5-0.669-1.5-1.5s0.669-1.5 1.5-1.5h4v-4c0-0.831 0.669-1.5 1.5-1.5s1.5 0.669 1.5 1.5v4h4c0.831 0 1.5 0.669 1.5 1.5s-0.669 1.5-1.5 1.5h-4v4c0 0.831-0.669 1.5-1.5 1.5s-1.5-0.669-1.5-1.5z"/>
</svg>
