<svg version="1.1" xmlns="http://www.w3.org/2000/svg" width="36" height="32" viewBox="0 0 36 32">
<path fill="currentColor" d="M17.994 0c0.575 0 1.1 0.325 1.35 0.844l4.288 8.831 9.575 1.412c0.563 0.081 1.031 0.475 1.206 1.019s0.031 1.131-0.369 1.531l-6.944 6.888 1.637 9.725c0.094 0.563-0.137 1.131-0.6 1.469s-1.081 0.375-1.581 0.106l-8.563-4.575-8.556 4.569c-0.506 0.269-1.119 0.231-1.581-0.106s-0.7-0.906-0.606-1.469l1.637-9.725-6.944-6.881c-0.406-0.4-0.544-0.994-0.369-1.531s0.644-0.931 1.206-1.019l9.575-1.412 4.287-8.831c0.256-0.519 0.775-0.844 1.35-0.844zM17.994 4.938l-3.281 6.762c-0.219 0.444-0.637 0.756-1.131 0.831l-7.394 1.088 5.369 5.319c0.344 0.344 0.506 0.831 0.425 1.313l-1.269 7.481 6.575-3.512c0.444-0.238 0.975-0.238 1.413 0l6.575 3.512-1.262-7.475c-0.081-0.481 0.075-0.969 0.425-1.313l5.369-5.319-7.394-1.094c-0.488-0.075-0.913-0.381-1.131-0.831l-3.288-6.763z"/>
</svg>
