<svg version="1.1" xmlns="http://www.w3.org/2000/svg" width="40" height="32" viewBox="0 0 40 32">
<path fill="currentColor" d="M21.344 0.844c-0.25-0.519-0.775-0.844-1.35-0.844s-1.1 0.325-1.35 0.844l-4.287 8.831-9.575 1.419c-0.563 0.081-1.031 0.475-1.206 1.019s-0.031 1.131 0.369 1.531l6.944 6.881-1.637 9.719c-0.094 0.563 0.137 1.131 0.606 1.469s1.081 0.375 1.581 0.106l8.563-4.575 8.563 4.575c0.506 0.269 1.119 0.231 1.581-0.106s0.7-0.906 0.606-1.469l-1.65-9.719 6.95-6.887c0.406-0.4 0.544-0.994 0.369-1.531s-0.644-0.931-1.206-1.019l-9.581-1.412-4.287-8.831zM20 24.044v-19.1l3.281 6.756c0.219 0.444 0.637 0.756 1.131 0.831l7.394 1.094-5.369 5.313c-0.344 0.344-0.506 0.831-0.425 1.313l1.262 7.475-6.575-3.506c-0.219-0.119-0.462-0.175-0.7-0.175z"/>
</svg>
