<svg version="1.1" xmlns="http://www.w3.org/2000/svg" width="36" height="32" viewBox="0 0 36 32">
<path fill="currentColor" d="M18.331 0.037c0.681 0.156 1.163 0.762 1.163 1.462v24.044c0 0.556-0.306 1.063-0.794 1.325l-9.262 4.95c-0.506 0.269-1.119 0.231-1.581-0.106s-0.7-0.906-0.606-1.469l1.637-9.725-6.944-6.881c-0.406-0.4-0.544-0.994-0.369-1.531s0.644-0.931 1.206-1.019l9.575-1.412 4.288-8.831c0.306-0.631 1.006-0.963 1.688-0.806zM16.494 8.025l-1.787 3.675c-0.219 0.444-0.637 0.756-1.131 0.831l-7.388 1.088 5.369 5.319c0.344 0.344 0.506 0.831 0.425 1.313l-1.269 7.481 5.781-3.087v-16.619z"/>
</svg>
