<svg version="1.1" xmlns="http://www.w3.org/2000/svg" width="32" height="32" viewBox="0 0 32 32">
<path fill="currentColor" d="M23.481 1.231c-0.094-0.5-0.431-0.919-0.9-1.113s-1.006-0.138-1.425 0.15l-5.156 3.55-5.156-3.556c-0.419-0.287-0.956-0.344-1.425-0.15s-0.806 0.613-0.9 1.113l-1.131 6.156-6.156 1.137c-0.5 0.094-0.919 0.431-1.113 0.9s-0.138 1.006 0.15 1.425l3.55 5.156-3.556 5.156c-0.287 0.419-0.344 0.956-0.15 1.425s0.613 0.813 1.113 0.9l6.156 1.131 1.131 6.156c0.094 0.5 0.431 0.919 0.9 1.113s1.006 0.138 1.425-0.15l5.162-3.55 5.156 3.556c0.419 0.287 0.956 0.344 1.425 0.15s0.806-0.613 0.9-1.113l1.131-6.156 6.156-1.131c0.5-0.094 0.919-0.431 1.113-0.9s0.138-1.006-0.15-1.425l-3.55-5.162 3.556-5.156c0.287-0.419 0.344-0.956 0.15-1.425s-0.613-0.806-1.113-0.9l-6.156-1.131-1.137-6.156zM16.85 6.875l4.1-2.825 0.9 4.894c0.113 0.613 0.594 1.094 1.206 1.206l4.894 0.9-2.825 4.1c-0.356 0.512-0.356 1.187 0 1.7l2.825 4.1-4.894 0.9c-0.613 0.113-1.094 0.594-1.206 1.206l-0.9 4.894-4.1-2.825c-0.512-0.356-1.188-0.356-1.7 0l-4.1 2.825-0.9-4.894c-0.113-0.613-0.594-1.094-1.206-1.206l-4.894-0.9 2.825-4.1c0.356-0.512 0.356-1.188 0-1.7l-2.825-4.1 4.894-0.9c0.613-0.113 1.094-0.594 1.206-1.206l0.9-4.894 4.1 2.825c0.512 0.356 1.188 0.356 1.7 0zM16 23c3.866 0 7-3.134 7-7s-3.134-7-7-7v0c-3.866 0-7 3.134-7 7s3.134 7 7 7v0zM12 16c0-2.209 1.791-4 4-4s4 1.791 4 4v0c0 2.209-1.791 4-4 4s-4-1.791-4-4v0z"/>
</svg>
