<svg version="1.1" xmlns="http://www.w3.org/2000/svg" width="32" height="32" viewBox="0 0 32 32">
<path fill="currentColor" d="M20.238 29.825c-2.387 0.681-4.881-0.7-5.563-3.087l-0.356-1.25c-0.231-0.813-0.65-1.563-1.219-2.188l-3.206-3.525c-0.556-0.613-0.512-1.563 0.1-2.119s1.563-0.512 2.119 0.1l3.206 3.525c0.881 0.969 1.525 2.125 1.881 3.381l0.356 1.25c0.225 0.794 1.056 1.256 1.856 1.031s1.256-1.056 1.031-1.856l-0.356-1.25c-0.356-1.244-0.919-2.419-1.663-3.469-0.325-0.456-0.363-1.056-0.106-1.556s0.769-0.813 1.331-0.813h8.35c0.55 0 1-0.45 1-1 0-0.425-0.269-0.794-0.65-0.938-0.462-0.175-0.813-0.563-0.931-1.044s0.006-0.988 0.331-1.356c0.156-0.175 0.25-0.406 0.25-0.662 0-0.488-0.35-0.894-0.813-0.981-0.512-0.1-0.944-0.456-1.125-0.95s-0.1-1.044 0.225-1.456c0.131-0.169 0.212-0.381 0.212-0.619 0-0.419-0.262-0.787-0.637-0.931-0.719-0.281-1.106-1.056-0.9-1.8 0.025-0.081 0.038-0.175 0.038-0.269 0-0.55-0.45-1-1-1h-6.094c-0.788 0-1.563 0.231-2.219 0.669l-3.856 2.569c-0.688 0.463-1.619 0.275-2.081-0.419s-0.275-1.619 0.419-2.081l3.856-2.569c1.15-0.769 2.5-1.175 3.881-1.175h6.094c2.169 0 3.931 1.725 4 3.875 0.913 0.731 1.5 1.856 1.5 3.125 0 0.281-0.031 0.55-0.081 0.813 0.962 0.731 1.581 1.887 1.581 3.188 0 0.406-0.063 0.8-0.175 1.169 0.725 0.738 1.175 1.738 1.175 2.844 0 2.206-1.788 4-4 4h-5.769c0.294 0.65 0.544 1.325 0.738 2.012l0.356 1.25c0.681 2.387-0.7 4.881-3.087 5.563zM2 24c-1.106 0-2-0.894-2-2v-14c0-1.106 0.894-2 2-2h4c1.106 0 2 0.894 2 2v14c0 1.106-0.894 2-2 2h-4z"/>
</svg>
