<svg version="1.1" xmlns="http://www.w3.org/2000/svg" width="32" height="32" viewBox="0 0 32 32">
<path fill="currentColor" d="M29.75 14.813h-3.819c-0.541-4.575-4.169-8.203-8.744-8.744v-3.819c0-0.138-0.113-0.25-0.25-0.25h-1.875c-0.137 0-0.25 0.112-0.25 0.25v3.819c-4.575 0.541-8.203 4.169-8.744 8.744h-3.819c-0.138 0-0.25 0.113-0.25 0.25v1.875c0 0.137 0.112 0.25 0.25 0.25h3.819c0.541 4.575 4.169 8.203 8.744 8.744v3.819c0 0.137 0.113 0.25 0.25 0.25h1.875c0.137 0 0.25-0.113 0.25-0.25v-3.819c4.575-0.541 8.203-4.169 8.744-8.744h3.819c0.137 0 0.25-0.113 0.25-0.25v-1.875c0-0.137-0.113-0.25-0.25-0.25zM16 23.625c-4.213 0-7.625-3.413-7.625-7.625s3.412-7.625 7.625-7.625 7.625 3.412 7.625 7.625-3.413 7.625-7.625 7.625z"/>
<path fill="currentColor" d="M16 12.25c-1.003 0-1.941 0.387-2.65 1.1-0.709 0.709-1.1 1.647-1.1 2.65s0.391 1.941 1.1 2.65c0.709 0.706 1.65 1.1 2.65 1.1s1.941-0.391 2.65-1.1c0.706-0.709 1.1-1.65 1.1-2.65s-0.391-1.941-1.1-2.65c-0.709-0.713-1.647-1.1-2.65-1.1z"/>
</svg>
