<svg version="1.1" xmlns="http://www.w3.org/2000/svg" width="32" height="32" viewBox="0 0 32 32">
<path fill="currentColor" d="M18.841 20.931c-1.163 0.081-1.050-0.541-0.359-1.444 1.575-2.1 4.491-4.953 4.622-7.037 0.181-2.706-2.541-3.544-5.344-3.544-1.95 0.050-3.969 0.591-5.344 1.081-4.737 1.672-7.706 4.297-9.591 7.25-1.95 2.919-1.344 5.725 2.869 5.806 3.181-0.131 5.328-1.016 7.491-2.131 0.016 0-6.016 1.722-8.247 0.459-0.247-0.131-0.491-0.313-0.556-0.819 0-1.034 1.706-2.116 2.706-2.459v-1.772c2.016 0.706 4.394 0.509 6.428-1 0.066 0.181 0.131 0.409 0.116 0.656h0.344c0.081-0.706-0.394-1.394-1.181-1.444 0.228 0.181 0.394 0.328 0.475 0.459l-0.047 0.047c-2.622 1.837-5.166 0.984-5.409 0.934l1.459-1.428-0.409-1.034c2.903-1.016 5.297-1.756 9.278-2.459l-0.891-0.719 0.459-0.278c2.359 0.656 3.95 1.147 3.869 2.394-0.031 0.213-0.116 0.459-0.247 0.722-0.703 1.394-2.769 3.641-3.606 4.609-0.541 0.641-1.081 1.231-1.459 1.822-0.425 0.606-0.641 1.166-0.656 1.672 0.081 4.119 12.231-1.934 14.625-3.528-3.491 1.494-7.278 2.922-11.394 3.184zM21.497 11.466c0.087 0.162 0.128 0.363 0.128 0.597-0.003-0.213-0.044-0.416-0.128-0.597z"/>
</svg>
