<svg version="1.1" xmlns="http://www.w3.org/2000/svg" width="32" height="32" viewBox="0 0 32 32">
<path fill="currentColor" d="M28.25 4.938h-15.5c-0.137 0-0.25 0.112-0.25 0.25v1.75c0 0.138 0.113 0.25 0.25 0.25h15.5c0.137 0 0.25-0.112 0.25-0.25v-1.75c0-0.138-0.113-0.25-0.25-0.25zM28.25 18.188h-15.5c-0.137 0-0.25 0.113-0.25 0.25v1.75c0 0.137 0.113 0.25 0.25 0.25h15.5c0.137 0 0.25-0.113 0.25-0.25v-1.75c0-0.137-0.113-0.25-0.25-0.25zM28.25 24.813h-24.5c-0.138 0-0.25 0.113-0.25 0.25v1.75c0 0.137 0.112 0.25 0.25 0.25h24.5c0.137 0 0.25-0.113 0.25-0.25v-1.75c0-0.137-0.113-0.25-0.25-0.25zM28.25 11.563h-24.5c-0.138 0-0.25 0.113-0.25 0.25v1.75c0 0.137 0.112 0.25 0.25 0.25h24.5c0.137 0 0.25-0.113 0.25-0.25v-1.75c0-0.137-0.113-0.25-0.25-0.25z"/>
</svg>
