<svg version="1.1" xmlns="http://www.w3.org/2000/svg" width="32" height="32" viewBox="0 0 32 32">
<path fill="currentColor" d="M16 2c7.732 0 14 6.268 14 14s-6.268 14-14 14-14-6.268-14-14 6.268-14 14-14zM17.015 7.25c-2.177 0-2.689 0.526-2.71 1.221l-0.001 0.045v1.457h-5.197c-0.31 0-0.446 0.72-0.446 1.228 0 0.084 0.065 0.154 0.149 0.154h5.494v1.822h-3.641c-0.311 0-0.447 0.742-0.446 1.234 0 0.082 0.067 0.149 0.149 0.149l7.295 0c-0.141 1.283-0.482 2.424-0.96 3.416l-0.038 0.078-0.010-0.009c-1.883-0.89-3.763-1.643-6.075-1.643l-0.082 0.001c-2.656 0.035-4.522 1.766-4.56 3.97l-0.001 0.038 0.001 0.066c0.039 2.2 1.986 3.952 4.641 3.952 1.914-0 3.637-0.527 5.108-1.407 0.174-0.086 0.318-0.169 0.456-0.259l-0.017 0.010c0.565-0.379 1.090-0.811 1.572-1.286l0.295 0.198 0.389 0.26c1.798 1.196 3.555 2.269 5.308 2.477 0.17 0.023 0.367 0.036 0.567 0.036 0.002 0 0.004 0 0.006 0h-0c1.344 0 1.718-1.646 1.793-2.985l0.005-0.089c0.012-0.264-0.194-0.487-0.458-0.496-2.358-0.074-4.264-0.689-6-1.441l-0.196-0.086c1.098-1.775 1.771-3.807 1.786-5.833l0.003-0.034c0.013-0.172-0.125-0.319-0.297-0.319h-3.733v-1.822h5.179c0.31 0 0.446-0.691 0.446-1.228-0-0.084-0.065-0.154-0.149-0.154h-5.476v-2.573c0-0.083-0.068-0.149-0.151-0.149zM10.25 18.245c1.707 0 3.346 0.701 4.94 1.631l0.18 0.106c-3.237 3.745-7.724 2.997-8.179 0.824-0.018-0.090-0.031-0.195-0.035-0.303l-0-0.004-0.002-0.073 0-0.028c0.030-1.254 1.417-2.153 3.095-2.153z"/>
</svg>
