<svg version="1.1" xmlns="http://www.w3.org/2000/svg" width="32" height="32" viewBox="0 0 32 32">
<path fill="currentColor" d="M17.413 4.031c0.115 0 0.21 0.092 0.21 0.208v3.58h7.619c0.117 0 0.207 0.097 0.208 0.214 0 0.747-0.189 1.709-0.62 1.709h-7.206v2.534h5.193c0.24 0 0.431 0.204 0.414 0.443l-0.004 0.047c-0.022 2.819-0.957 5.645-2.485 8.114l0.272 0.119c2.415 1.046 5.067 1.902 8.348 2.004 0.367 0.012 0.654 0.322 0.637 0.69l-0.006 0.123c-0.104 1.862-0.625 4.152-2.495 4.152-0.275 0-0.54-0.017-0.796-0.050-2.439-0.289-4.884-1.783-7.385-3.446l-0.542-0.362-0.411-0.276c-0.67 0.661-1.401 1.262-2.187 1.789-0.194 0.125-0.398 0.241-0.612 0.346-2.047 1.224-4.444 1.956-7.107 1.957-3.694 0-6.404-2.437-6.458-5.497l-0.001-0.092 0.001-0.053c0.052-3.066 2.649-5.474 6.344-5.522l0.113-0.001c3.216 0 5.833 1.048 8.453 2.286l0.014 0.012 0.053-0.108c0.665-1.38 1.139-2.967 1.335-4.752l-10.15-0c-0.114-0-0.207-0.093-0.207-0.207v-0c-0.001-0.683 0.187-1.716 0.62-1.716h5.065v-2.534h-7.644c-0.117 0-0.207-0.097-0.207-0.214-0-0.707 0.189-1.709 0.62-1.709h7.231v-2.027l0.001-0.062c0.028-0.967 0.741-1.699 3.77-1.699zM8.028 19.344c-2.336 0-4.267 1.248-4.309 2.988l-0.001 0.039 0.002 0.101c0.007 0.155 0.024 0.302 0.053 0.445l-0.003-0.018c0.633 3.015 6.88 4.053 11.386-1.144l-0.251-0.148c-2.219-1.291-4.501-2.263-6.877-2.263z"/>
</svg>
