<svg version="1.1" xmlns="http://www.w3.org/2000/svg" width="32" height="32" viewBox="0 0 32 32">
<path fill="currentColor" d="M27.131 11.794c-0.591-1.409-1.447-2.675-2.538-3.769-1.052-1.054-2.302-1.911-3.689-2.508l-0.077-0.029c-1.352-0.589-2.927-0.931-4.582-0.931-0.010 0-0.019 0-0.029 0h0.002c-1.309 0-2.591 0.209-3.809 0.625-2.847-1.328-6.134-1.431-7.078-1.431-0.069 0-0.231 0-0.294 0.006-0.372 0.013-0.713 0.203-0.912 0.513-0.203 0.309-0.241 0.7-0.106 1.047l2.009 5.050c-1.037 1.723-1.65 3.803-1.65 6.027 0 0.004 0 0.008 0 0.012v-0.001c0 1.606 0.313 3.156 0.931 4.613 0.591 1.406 1.444 2.675 2.537 3.766 1.084 1.087 2.356 1.941 3.766 2.538 1.459 0.619 3.009 0.931 4.606 0.931 1.603 0 3.153-0.316 4.616-0.931 1.403-0.591 2.672-1.447 3.762-2.538 1.084-1.087 1.941-2.356 2.538-3.769 0.589-1.354 0.931-2.931 0.931-4.588 0-0.009 0-0.017-0-0.026v0.001c-0.006-1.6-0.316-3.15-0.934-4.606zM25.056 20.122c-0.509 1.19-1.204 2.207-2.059 3.063v0c-0.887 0.891-1.916 1.584-3.053 2.059h-0.003c-1.188 0.5-2.447 0.756-3.747 0.756-0.003 0-0.007 0-0.011 0-2.652 0-5.052-1.077-6.786-2.818l-0-0c-0.887-0.891-1.581-1.919-2.056-3.056v-0.003c-0.5-1.181-0.753-2.444-0.753-3.747 0-1.731 0.463-3.428 1.337-4.906l0.412-0.691-1.9-4.778c0.466 0.019 1.122 0.066 1.866 0.175 1.369 0.203 2.578 0.547 3.591 1.019l0.594 0.278 0.622-0.213c0.984-0.338 2.025-0.506 3.091-0.506 0.003 0 0.007 0 0.011 0 2.652 0 5.052 1.077 6.786 2.818l0 0c0.887 0.891 1.581 1.919 2.056 3.056l0.006 0.006c0.5 1.175 0.753 2.438 0.756 3.744-0.003 1.303-0.259 2.563-0.759 3.744zM21.284 11.381c-0.637 0-1.159 0.522-1.159 1.159v1.722c0 0.637 0.519 1.159 1.159 1.159s1.159-0.522 1.159-1.159v-1.722c0-0.641-0.522-1.159-1.159-1.159zM15.809 11.381c-0.641 0-1.159 0.522-1.159 1.159v1.722c0 0.637 0.522 1.159 1.159 1.159 0.641 0 1.159-0.522 1.159-1.159v-1.722c0-0.641-0.522-1.159-1.159-1.159z"/>
</svg>
