<svg version="1.1" xmlns="http://www.w3.org/2000/svg" width="32" height="32" viewBox="0 0 32 32">
<path fill="currentColor" d="M29.975 11.997c-0.009-2.566-2.091-4.644-4.659-4.644h-7.319l0.675 2.663 6.281 1.366c0.576 0.137 1.002 0.636 1.028 1.238l0 0.003c0.003 0.016 0.003 6.753 0 6.769-0.026 0.605-0.452 1.103-1.019 1.239l-0.009 0.002-6.281 1.366-0.675 2.666h7.319c2.566 0 4.65-2.078 4.659-4.644v-8.022zM7.047 20.637c-0.576-0.137-1.002-0.636-1.028-1.238l-0-0.003c-0.003-0.019-0.003-6.753 0-6.769 0.025-0.606 0.456-1.109 1.028-1.241l6.281-1.366 0.675-2.662h-7.322c-2.566 0-4.65 2.075-4.659 4.644v8.028c0.009 2.566 2.094 4.644 4.659 4.644h7.319l-0.675-2.666-6.278-1.372zM13.325 15.675h5.344v0.666h-5.344z"/>
</svg>
