<svg version="1.1" xmlns="http://www.w3.org/2000/svg" width="32" height="32" viewBox="0 0 32 32">
<path fill="currentColor" d="M25.781 24.028c-0.103-0.028-0.228-0.012-0.372 0.041-1.925 0.881-3.797 1.509-5.616 1.881-3.928 0.8-7.756 0.381-11.481-1.253-1.034-0.456-2.472-1.225-4.313-2.313-0.045-0.036-0.103-0.059-0.165-0.062l-0.001-0c-0.063-0.003-0.116 0.003-0.166 0.028s-0.087 0.056-0.116 0.097c-0.028 0.041-0.034 0.097-0.013 0.169 0.019 0.069 0.066 0.147 0.144 0.231 0.325 0.381 0.728 0.788 1.206 1.219s1.112 0.919 1.903 1.462c0.791 0.544 1.619 1.028 2.478 1.45 0.863 0.422 1.863 0.778 3.003 1.066s2.281 0.431 3.419 0.431c1.131 0 2.231-0.116 3.297-0.341 1.069-0.228 1.969-0.497 2.703-0.809 0.731-0.309 1.406-0.656 2.025-1.031s1.075-0.694 1.372-0.947c0.297-0.256 0.509-0.456 0.631-0.606 0.144-0.178 0.216-0.331 0.216-0.466 0.003-0.141-0.053-0.222-0.156-0.247zM16.481 10.878c-0.475 0.041-1.047 0.128-1.719 0.259-0.672 0.128-1.294 0.291-1.869 0.481s-1.162 0.456-1.759 0.794c-0.6 0.338-1.109 0.725-1.531 1.156s-0.766 0.972-1.034 1.625c-0.269 0.65-0.403 1.366-0.403 2.147 0 0.847 0.147 1.6 0.447 2.266 0.297 0.666 0.694 1.188 1.194 1.575 0.497 0.387 1.063 0.691 1.688 0.913s1.287 0.322 1.975 0.294c0.688-0.028 1.359-0.134 2.013-0.322 0.65-0.184 1.262-0.481 1.831-0.884s1.034-0.881 1.4-1.428c0.134 0.206 0.253 0.359 0.359 0.459l0.272 0.278c0.181 0.184 0.459 0.456 0.834 0.816 0.372 0.359 0.753 0.709 1.134 1.053l3.262-3.122-0.188-0.153c-0.134-0.103-0.294-0.25-0.475-0.447-0.181-0.194-0.363-0.409-0.538-0.641-0.178-0.231-0.331-0.503-0.459-0.809s-0.194-0.603-0.194-0.891v-8.213c0-0.316-0.059-0.656-0.178-1.025-0.122-0.366-0.334-0.766-0.647-1.197s-0.7-0.819-1.163-1.156c-0.466-0.338-1.084-0.625-1.863-0.856-0.775-0.231-1.644-0.347-2.6-0.347-0.978 0-1.887 0.116-2.738 0.341-0.847 0.228-1.572 0.531-2.178 0.912-0.603 0.381-1.122 0.822-1.553 1.325s-0.753 1.028-0.963 1.575c-0.209 0.547-0.316 1.1-0.316 1.659l4.225 0.372c0.172-0.512 0.403-0.956 0.688-1.338 0.287-0.381 0.559-0.656 0.806-0.828 0.25-0.172 0.519-0.309 0.803-0.412 0.287-0.103 0.481-0.156 0.581-0.169 0.1-0.009 0.178-0.013 0.238-0.013 0.834 0 1.413 0.247 1.738 0.737 0.203 0.297 0.303 0.747 0.303 1.353v1.769c-0.475 0.019-0.95 0.050-1.425 0.091zM17.909 15.625c0 0.519-0.069 0.991-0.203 1.406-0.288 0.909-0.834 1.481-1.637 1.712-0.7 0.206-1.366 0.103-1.997-0.306-0.672-0.438-1.006-1.056-1.006-1.853 0-0.622 0.156-1.153 0.469-1.597 0.313-0.441 0.728-0.772 1.25-0.991s1.031-0.375 1.531-0.466c0.497-0.094 1.031-0.15 1.594-0.169v2.263zM28.384 22.466c-0.134-0.169-0.497-0.278-1.091-0.334s-1.109-0.053-1.553 0.012c-0.478 0.056-0.972 0.194-1.478 0.419-0.509 0.222-0.731 0.409-0.675 0.556l0.022 0.041 0.028 0.022 0.044 0.006h0.144c0.025 0 0.056-0.003 0.1-0.006s0.084-0.009 0.122-0.012c0.038-0.003 0.091-0.009 0.159-0.012 0.066-0.003 0.128-0.012 0.188-0.022 0.009 0 0.116-0.009 0.322-0.028s0.356-0.031 0.447-0.041c0.091-0.009 0.244-0.019 0.453-0.028s0.378-0.009 0.503 0c0.125 0.009 0.266 0.022 0.425 0.034s0.288 0.041 0.387 0.084c0.1 0.041 0.175 0.094 0.222 0.159 0.163 0.206 0.131 0.663-0.094 1.372s-0.438 1.275-0.637 1.694c-0.087 0.178-0.087 0.288 0 0.334s0.209 0.003 0.372-0.125c0.488-0.381 0.894-0.956 1.222-1.728 0.191-0.456 0.328-0.931 0.409-1.428 0.075-0.497 0.063-0.819-0.041-0.969z"/>
</svg>
