<svg version="1.1" xmlns="http://www.w3.org/2000/svg" width="32" height="32" viewBox="0 0 32 32">
<path fill="currentColor" d="M14.009 7.037c-0.581 0-1 0.419-1 0.997s0.422 0.997 1 0.997c0.581 0 1-0.419 1-0.997 0.003-0.575-0.419-0.997-1-0.997zM26.319 10.050c-0.431-0.431-1.022-0.672-1.663-0.672-0.122 0-0.231 0.012-0.334 0.031v-0.031h-0.113c-0.172-0.956-0.581-1.891-1.191-2.731-0.584-0.803-1.344-1.497-2.212-2.028l0.784-1.119v-0.103c0-0.025 0.012-0.072 0.022-0.119 0.019-0.075 0.044-0.172 0.044-0.278 0-0.578-0.422-0.997-1-0.997-0.306 0-0.609 0.178-0.809 0.481l-0.916 1.316c-0.938-0.306-1.95-0.469-2.931-0.469-0.978 0-1.991 0.163-2.931 0.469l-0.912-1.319c-0.206-0.3-0.503-0.481-0.813-0.481-0.581 0-1 0.419-1 0.997 0 0.194 0.078 0.4 0.209 0.544l0.706 1.009c-0.897 0.531-1.672 1.231-2.256 2.034-0.606 0.841-1 1.775-1.147 2.731h-0.172v0.031c-0.1-0.019-0.209-0.031-0.334-0.031-0.634 0-1.225 0.234-1.659 0.666-0.431 0.431-0.672 1.019-0.672 1.656v7.344c0 0.634 0.234 1.222 0.669 1.653 0.431 0.431 1.025 0.672 1.662 0.672 0.122 0 0.231-0.012 0.334-0.031v2.922c0 0.913 0.747 1.659 1.662 1.659h0.997v1.822c0 0.634 0.234 1.222 0.669 1.653 0.431 0.431 1.025 0.672 1.662 0.672 0.634 0 1.225-0.234 1.659-0.666 0.431-0.431 0.672-1.019 0.672-1.656v-1.819h1.994v1.816c0 0.634 0.234 1.222 0.669 1.653 0.431 0.431 1.025 0.672 1.663 0.672s1.225-0.234 1.659-0.675c0.431-0.431 0.672-1.019 0.672-1.656v-1.819h0.997c0.916 0 1.663-0.744 1.663-1.659v-2.856c0.1 0.019 0.209 0.031 0.334 0.031 0.634 0 1.225-0.234 1.659-0.666 0.431-0.431 0.672-1.019 0.672-1.656v-7.344c-0.003-0.634-0.238-1.219-0.669-1.653zM7.688 19.050c0 0.212-0.122 0.331-0.334 0.331s-0.334-0.119-0.334-0.331v-7.347c0-0.213 0.122-0.331 0.334-0.331s0.334 0.119 0.334 0.331v7.347zM11.784 6.65c1.172-0.853 2.666-1.322 4.219-1.322s3.047 0.472 4.219 1.328c1.012 0.741 1.694 1.694 1.959 2.734h-12.356c0.266-1.044 0.953-2 1.959-2.741zM13.012 27.734c-0.019 0.175-0.137 0.272-0.328 0.272-0.213 0-0.334-0.119-0.334-0.331v-1.819h0.662v1.878zM19.334 28.006c-0.212 0-0.334-0.119-0.334-0.331v-1.819h0.663v1.878c-0.019 0.175-0.134 0.272-0.328 0.272zM22.328 23.863h-12.644v-12.488h12.644v12.488zM24.991 19.050c0 0.212-0.122 0.331-0.334 0.331s-0.334-0.119-0.334-0.331v-7.347c0-0.213 0.122-0.331 0.334-0.331s0.334 0.119 0.334 0.331v7.347zM18.003 7.037c-0.581 0-1 0.419-1 0.997s0.422 0.997 1 0.997c0.581 0 1.003-0.419 1.003-1-0.003-0.581-0.419-0.994-1.003-0.994z"/>
</svg>
