<svg version="1.1" xmlns="http://www.w3.org/2000/svg" width="32" height="32" viewBox="0 0 32 32">
<path fill="currentColor" d="M22.384 9.806c0.594-0.591 0.594-1.553 0-2.144l-2.181-2.181c-0.578-0.578-1.572-1.572-2.978-2.975-0.663-0.647-1.734-0.641-2.391 0.016l-12.306 12.297c-0.307 0.305-0.497 0.727-0.497 1.194s0.19 0.889 0.497 1.194l12.303 12.294c0.306 0.306 0.729 0.495 1.195 0.495s0.889-0.189 1.195-0.495l5.159-5.156c0.594-0.591 0.594-1.553 0-2.144-0.275-0.274-0.655-0.443-1.073-0.443s-0.798 0.169-1.073 0.443l0-0-3.906 3.913c-0.163 0.163-0.416 0.163-0.578 0l-9.828-9.819c-0.162-0.163-0.162-0.416 0-0.578l9.825-9.819c0.012-0.013 0.028-0.022 0.041-0.034 0.162-0.128 0.388-0.116 0.537 0.034l3.913 3.909c0.594 0.594 1.556 0.594 2.147 0zM12.769 16.075c0 1.833 1.487 3.319 3.322 3.319s3.322-1.486 3.322-3.319v0c0-1.833-1.487-3.319-3.322-3.319s-3.322 1.486-3.322 3.319v0zM29.525 14.869l-3.841-3.822c-0.594-0.591-1.556-0.591-2.147 0.003-0.275 0.274-0.445 0.653-0.445 1.072s0.17 0.798 0.445 1.072l0 0 2.594 2.591c0.163 0.162 0.163 0.416 0 0.578l-2.556 2.553c-0.275 0.274-0.445 0.653-0.445 1.072s0.17 0.798 0.445 1.072l0 0c0.275 0.274 0.655 0.443 1.073 0.443s0.798-0.169 1.073-0.443l3.806-3.803c0.305-0.305 0.494-0.727 0.494-1.192 0-0.467-0.19-0.89-0.497-1.195l-0-0z"/>
</svg>
