<svg version="1.1" xmlns="http://www.w3.org/2000/svg" width="32" height="32" viewBox="0 0 32 32">
<path fill="currentColor" d="M11.841 23.063c-0.097 0-0.191-0.016-0.275-0.047l0.137 0.959h0.822l-0.484-0.934c-0.066 0.016-0.131 0.022-0.2 0.022zM24.997 13.963c-0.394 0-0.775 0.047-1.141 0.131-0.669-1.2-1.947-2.009-3.416-2.009-0.216 0-0.425 0.019-0.631 0.050-1.106-2.419-3.544-4.097-6.372-4.097-3.509 0-6.416 2.581-6.925 5.95-2.534 0.247-4.513 2.381-4.513 4.981 0 2.762 2.237 5.003 5 5.006h1.563l0.412-0.863c-0.819-0.259-1.353-0.906-1.222-1.525 0.144-0.675 1.025-1.059 1.972-0.859 0.716 0.153 1.262 0.597 1.422 1.097 0.145-0.233 0.4-0.386 0.69-0.387h0.006c-0.025-0.1-0.037-0.203-0.037-0.309 0-0.628 0.463-1.147 1.066-1.238v-0.794c0-0.137 0.113-0.25 0.25-0.25s0.25 0.113 0.25 0.25v0.822c0.144 0.038 0.275 0.1 0.394 0.181l0.609-0.669c0.094-0.103 0.25-0.109 0.353-0.016s0.109 0.25 0.016 0.353l-0.631 0.694c0.122 0.189 0.194 0.421 0.194 0.669 0 0.69-0.56 1.25-1.25 1.25-0.147 0-0.288-0.025-0.418-0.072l0.009 0.003c-0.012 0.175-0.081 0.334-0.188 0.462l0.625 1.2 12.041-0.003c2.703-0.069 4.875-2.281 4.875-5.003 0-2.766-2.241-5.006-5.003-5.006zM10.569 23.038l-0.134 0.938h0.762l-0.184-1.297c-0.109 0.144-0.259 0.266-0.444 0.359zM24.922 9.531c0 0.828 0.672 1.5 1.5 1.5s1.5-0.672 1.5-1.5v0c0-0.828-0.672-1.5-1.5-1.5s-1.5 0.672-1.5 1.5v0zM22.869 11.447c0 0.414 0.336 0.75 0.75 0.75s0.75-0.336 0.75-0.75v0c0-0.414-0.336-0.75-0.75-0.75s-0.75 0.336-0.75 0.75v0zM9.481 23.216l-0.363 0.759h0.813l0.109-0.772c-0.178 0.025-0.366 0.031-0.559 0.012z"/>
</svg>
