<svg version="1.1" xmlns="http://www.w3.org/2000/svg" width="32" height="32" viewBox="0 0 32 32">
<path fill="currentColor" d="M28.375 20h-3.25v-4.75c0-0.137-0.113-0.25-0.25-0.25h-7.75v-3h3.375c0.275 0 0.5-0.225 0.5-0.5v-9c0-0.275-0.225-0.5-0.5-0.5h-9c-0.275 0-0.5 0.225-0.5 0.5v9c0 0.275 0.225 0.5 0.5 0.5h3.375v3h-7.75c-0.138 0-0.25 0.113-0.25 0.25v4.75h-3.25c-0.275 0-0.5 0.225-0.5 0.5v9c0 0.275 0.225 0.5 0.5 0.5h9c0.275 0 0.5-0.225 0.5-0.5v-9c0-0.275-0.225-0.5-0.5-0.5h-3.5v-2.75h13.75v2.75h-3.5c-0.275 0-0.5 0.225-0.5 0.5v9c0 0.275 0.225 0.5 0.5 0.5h9c0.275 0 0.5-0.225 0.5-0.5v-9c0-0.275-0.225-0.5-0.5-0.5zM10.75 22.375v5.25h-5.25v-5.25h5.25zM13.375 9.625v-5.25h5.25v5.25h-5.25zM26.5 27.625h-5.25v-5.25h5.25v5.25z"/>
</svg>
