<svg version="1.1" xmlns="http://www.w3.org/2000/svg" width="32" height="32" viewBox="0 0 32 32">
<path fill="currentColor" d="M23.356 16.741c-0.012-2.131 0.953-3.738 2.903-4.922-1.091-1.563-2.741-2.422-4.916-2.588-2.059-0.162-4.313 1.2-5.137 1.2-0.872 0-2.866-1.144-4.434-1.144-3.238 0.050-6.678 2.581-6.678 7.731 0 1.522 0.278 3.094 0.834 4.713 0.744 2.131 3.425 7.353 6.222 7.269 1.463-0.034 2.497-1.038 4.4-1.038 1.847 0 2.803 1.038 4.434 1.038 2.822-0.041 5.247-4.787 5.953-6.925-3.784-1.784-3.581-5.225-3.581-5.334zM23.025 25.084c-0.447 0.622-0.897 1.113-1.309 1.428-0.328 0.25-0.581 0.356-0.75 0.363-0.281-0.003-0.553-0.072-1.084-0.275-0.038-0.016-0.078-0.031-0.131-0.050l-0.137-0.053c-0.544-0.209-0.869-0.322-1.284-0.431-0.581-0.15-1.159-0.231-1.778-0.231-0.631 0-1.225 0.078-1.816 0.225-0.434 0.109-0.8 0.231-1.334 0.431-0.022 0.009-0.253 0.097-0.319 0.122-0.109 0.041-0.194 0.072-0.272 0.1-0.325 0.113-0.531 0.159-0.716 0.163-0.022 0-0.041-0.003-0.056-0.006-0.034-0.006-0.078-0.019-0.128-0.041-0.141-0.056-0.309-0.159-0.5-0.306-0.438-0.341-0.919-0.875-1.409-1.559-0.859-1.206-1.672-2.806-2.063-3.928-0.481-1.4-0.719-2.741-0.719-4.019 0-1.881 0.556-3.313 1.512-4.284 0.822-0.831 1.928-1.297 3.056-1.322 0.184 0.003 0.453 0.047 0.794 0.141 0.269 0.072 0.563 0.169 0.959 0.309 0.119 0.044 0.528 0.191 0.578 0.209 0.241 0.088 0.422 0.15 0.6 0.206 0.569 0.181 1.009 0.281 1.487 0.281 0.484 0 0.9-0.103 1.491-0.306 0.222-0.075 1.028-0.375 1.172-0.425 0.8-0.284 1.391-0.438 1.9-0.475 0.15-0.012 0.284-0.012 0.413-0.003 0.709 0.056 1.316 0.197 1.831 0.431-1.175 1.356-1.781 3.016-1.778 4.95-0.009 0.459 0.028 0.991 0.159 1.619 0.2 0.953 0.581 1.897 1.184 2.781 0.459 0.672 1.028 1.278 1.709 1.806-0.359 0.741-0.8 1.506-1.262 2.15zM20.072 7.209c1.584-1.881 1.441-3.594 1.394-4.209-1.4 0.081-3.019 0.953-3.941 2.025-1.016 1.15-1.613 2.572-1.484 4.175 1.512 0.116 2.894-0.662 4.031-1.991z"/>
</svg>
