<svg version="1.1" xmlns="http://www.w3.org/2000/svg" width="32" height="32" viewBox="0 0 32 32">
<path fill="currentColor" d="M14.5 4.5h-9.5c-0.275 0-0.5 0.225-0.5 0.5v9.5c0 0.275 0.225 0.5 0.5 0.5h9.5c0.275 0 0.5-0.225 0.5-0.5v-9.5c0-0.275-0.225-0.5-0.5-0.5zM12.875 12.875h-6.25v-6.25h6.25v6.25zM27 4.5h-9.5c-0.275 0-0.5 0.225-0.5 0.5v9.5c0 0.275 0.225 0.5 0.5 0.5h9.5c0.275 0 0.5-0.225 0.5-0.5v-9.5c0-0.275-0.225-0.5-0.5-0.5zM25.375 12.875h-6.25v-6.25h6.25v6.25zM14.5 17h-9.5c-0.275 0-0.5 0.225-0.5 0.5v9.5c0 0.275 0.225 0.5 0.5 0.5h9.5c0.275 0 0.5-0.225 0.5-0.5v-9.5c0-0.275-0.225-0.5-0.5-0.5zM12.875 25.375h-6.25v-6.25h6.25v6.25zM27 17h-9.5c-0.275 0-0.5 0.225-0.5 0.5v9.5c0 0.275 0.225 0.5 0.5 0.5h9.5c0.275 0 0.5-0.225 0.5-0.5v-9.5c0-0.275-0.225-0.5-0.5-0.5zM25.375 25.375h-6.25v-6.25h6.25v6.25z"/>
</svg>
