<svg version="1.1" xmlns="http://www.w3.org/2000/svg" width="32" height="32" viewBox="0 0 32 32">
<path fill="currentColor" d="M27.75 24.75h-21.5v-19.5c0-0.138-0.112-0.25-0.25-0.25h-1.75c-0.138 0-0.25 0.112-0.25 0.25v21.5c0 0.137 0.112 0.25 0.25 0.25h23.5c0.137 0 0.25-0.113 0.25-0.25v-1.75c0-0.137-0.113-0.25-0.25-0.25zM8.5 22.75h16.75c0.137 0 0.25-0.113 0.25-0.25v-13.625c0-0.225-0.272-0.334-0.428-0.178l-6.572 6.572-3.919-3.875c-0.045-0.045-0.108-0.073-0.177-0.073s-0.131 0.028-0.177 0.073l0-0-5.906 5.925c-0.044 0.044-0.072 0.106-0.072 0.174 0 0 0 0.001 0 0.001v-0 5.006c0 0.137 0.113 0.25 0.25 0.25z"/>
</svg>
