<svg version="1.1" xmlns="http://www.w3.org/2000/svg" width="32" height="32" viewBox="0 0 32 32">
<path fill="currentColor" d="M27.156 15.244l-11.806-10.247c-0.091-0.078-0.206-0.122-0.328-0.122h-2.766c-0.231 0-0.338 0.287-0.162 0.438l10.944 9.5h-18.288c-0.138 0-0.25 0.113-0.25 0.25v1.875c0 0.137 0.112 0.25 0.25 0.25h18.284l-10.944 9.5c-0.175 0.153-0.069 0.438 0.162 0.438h2.859c0.059 0 0.119-0.022 0.162-0.063l11.881-10.306c0.212-0.185 0.345-0.455 0.345-0.756s-0.133-0.572-0.343-0.755l-0.001-0.001z"/>
</svg>
