<svg version="1.1" xmlns="http://www.w3.org/2000/svg" width="32" height="32" viewBox="0 0 32 32">
<path fill="currentColor" d="M26.938 14.541h-2.531c-0.144 0-0.281 0.063-0.378 0.172l-6.841 7.884v-17.597c0-0.138-0.113-0.25-0.25-0.25h-1.875c-0.137 0-0.25 0.112-0.25 0.25v17.597l-6.841-7.884c-0.094-0.109-0.231-0.172-0.378-0.172h-2.531c-0.213 0-0.328 0.253-0.188 0.412l10.372 11.953c0.184 0.212 0.454 0.345 0.755 0.345s0.571-0.133 0.754-0.343l0.001-0.001 10.369-11.953c0.141-0.162 0.025-0.412-0.188-0.412z"/>
</svg>
