<svg version="1.1" xmlns="http://www.w3.org/2000/svg" width="32" height="32" viewBox="0 0 32 32">
<path fill="currentColor" d="M26.719 5.003l-5.913 0.734c-0.206 0.025-0.291 0.275-0.147 0.422l1.709 1.709-4.797 4.797c-0.045 0.045-0.073 0.108-0.073 0.177s0.028 0.131 0.073 0.177l1.409 1.409c0.097 0.097 0.256 0.097 0.353 0l4.8-4.8 1.709 1.709c0.045 0.045 0.107 0.073 0.175 0.073 0.127 0 0.232-0.095 0.246-0.218l0-0.001 0.731-5.909c0.001-0.010 0.002-0.022 0.002-0.034 0-0.136-0.111-0.247-0.247-0.247-0.012 0-0.023 0.001-0.035 0.002l0.001-0zM13.019 17.572c-0.045-0.045-0.108-0.073-0.177-0.073s-0.131 0.028-0.177 0.073l-4.797 4.8-1.709-1.709c-0.045-0.045-0.107-0.073-0.175-0.073-0.127 0-0.232 0.095-0.246 0.218l-0 0.001-0.734 5.909c-0.019 0.163 0.116 0.297 0.278 0.278l5.913-0.734c0.206-0.025 0.291-0.275 0.147-0.422l-1.709-1.709 4.8-4.8c0.097-0.097 0.097-0.256 0-0.353l-1.412-1.406z"/>
</svg>
