<svg version="1.1" xmlns="http://www.w3.org/2000/svg" width="32" height="32" viewBox="0 0 32 32">
<path fill="currentColor" d="M27.25 14.813h-18.284l10.944-9.5c0.175-0.153 0.069-0.438-0.163-0.438h-2.766c-0.122 0-0.238 0.044-0.328 0.122l-11.809 10.247c-0.212 0.184-0.345 0.454-0.345 0.755s0.133 0.571 0.343 0.754l0.001 0.001 11.878 10.309c0.047 0.041 0.103 0.063 0.163 0.063h2.859c0.231 0 0.337-0.288 0.163-0.438l-10.941-9.5h18.284c0.137 0 0.25-0.113 0.25-0.25v-1.875c0-0.137-0.113-0.25-0.25-0.25z"/>
</svg>
