<svg version="1.1" xmlns="http://www.w3.org/2000/svg" width="32" height="32" viewBox="0 0 32 32">
<path fill="currentColor" d="M27.125 17.047l-10.372-11.953c-0.184-0.212-0.454-0.345-0.755-0.345s-0.571 0.133-0.754 0.343l-0.001 0.001-10.369 11.953c-0.038 0.043-0.061 0.101-0.061 0.163 0 0.137 0.111 0.249 0.249 0.249h2.531c0.144 0 0.281-0.063 0.378-0.172l6.841-7.884v17.597c0 0.137 0.113 0.25 0.25 0.25h1.875c0.137 0 0.25-0.113 0.25-0.25v-17.597l6.841 7.884c0.094 0.109 0.231 0.172 0.378 0.172h2.531c0.212 0 0.328-0.25 0.188-0.413z"/>
</svg>
