<svg version="1.1" xmlns="http://www.w3.org/2000/svg" width="32" height="32" viewBox="0 0 32 32">
<path fill="currentColor" d="M9.25 7.813c-0.137 0-0.25 0.112-0.25 0.25v1.5c0 0.137 0.113 0.25 0.25 0.25h12c0.137 0 0.25-0.113 0.25-0.25v-1.5c0-0.138-0.113-0.25-0.25-0.25h-12zM15 12.313h-5.75c-0.137 0-0.25 0.113-0.25 0.25v1.5c0 0.137 0.113 0.25 0.25 0.25h5.75c0.137 0 0.25-0.113 0.25-0.25v-1.5c0-0.137-0.113-0.25-0.25-0.25zM13.5 26.625h-7v-22h17.5v10c0 0.137 0.113 0.25 0.25 0.25h1.75c0.137 0 0.25-0.113 0.25-0.25v-11.25c0-0.553-0.447-1-1-1h-20c-0.553 0-1 0.447-1 1v24.5c0 0.553 0.447 1 1 1h8.25c0.137 0 0.25-0.113 0.25-0.25v-1.75c0-0.137-0.113-0.25-0.25-0.25zM27.25 23.875h-4.5v-1.144c1.447-0.431 2.5-1.769 2.5-3.356 0-1.934-1.566-3.5-3.5-3.5s-3.5 1.566-3.5 3.5c0 1.584 1.053 2.925 2.5 3.356v1.144h-4.5c-0.275 0-0.5 0.225-0.5 0.5v4.75c0 0.275 0.225 0.5 0.5 0.5h11c0.275 0 0.5-0.225 0.5-0.5v-4.75c0-0.275-0.225-0.5-0.5-0.5zM20.188 19.375c0-0.863 0.7-1.563 1.563-1.563s1.563 0.7 1.563 1.563-0.7 1.563-1.563 1.563-1.563-0.7-1.563-1.563zM25.813 27.688h-8.125v-1.875h8.125v1.875z"/>
</svg>
