<svg version="1.1" xmlns="http://www.w3.org/2000/svg" width="32" height="32" viewBox="0 0 32 32">
<path fill="currentColor" d="M21.313 14.219v-4.5l-2.375 2.375v2.125c-0.003 1.584-1.313 2.878-2.938 2.875-0.597 0.003-1.15-0.169-1.625-0.469l-1.688 1.719c0.909 0.7 2.059 1.125 3.313 1.125 2.931 0 5.313-2.347 5.313-5.25z"/>
<path fill="currentColor" d="M26.031 13.938h-1.875c-0.137 0-0.25 0.113-0.25 0.25 0 4.384-3.553 7.938-7.938 7.938-1.969 0-3.772-0.719-5.156-1.906l-1.688 1.688c1.528 1.35 3.463 2.259 5.594 2.531v3.188h-4.531c-0.434 0-0.778 0.447-0.781 1v1.125c0.003 0.137 0.091 0.25 0.188 0.25h12.75c0.1 0 0.188-0.113 0.188-0.25v-1.125c0-0.553-0.344-1-0.781-1h-4.656v-3.188c5.166-0.559 9.188-4.934 9.188-10.25 0-0.137-0.113-0.25-0.25-0.25zM26.441 2.134l-1.359-1.309c-0.097-0.094-0.253-0.094-0.35 0.003l-4.031 4.031c-0.878-1.697-2.669-2.859-4.731-2.859-2.934 0-5.313 2.353-5.313 5.25v7c0 0.209 0.012 0.416 0.037 0.619l-2.125 2.125c-0.328-0.872-0.509-1.819-0.506-2.806-0.006-0.137-0.119-0.25-0.25-0.25h-1.875c-0.138 0-0.25 0.113-0.25 0.25 0 1.656 0.391 3.219 1.081 4.606l-4.281 4.281c-0.097 0.097-0.097 0.256 0 0.353l1.334 1.334c0.097 0.097 0.256 0.097 0.353 0l22.272-22.272c0.097-0.1 0.094-0.259-0.006-0.356zM13.031 12.531v-5.281c0-1.581 1.309-2.875 2.938-2.875 1.438 0 2.628 1.009 2.884 2.334l-5.822 5.822z"/>
</svg>
