<svg version="1.1" xmlns="http://www.w3.org/2000/svg" width="32" height="32" viewBox="0 0 32 32">
<path fill="currentColor" d="M7.813 17.095c2.887-0.619 2.493-4.065 2.405-4.818-0.143-1.163-1.508-3.192-3.363-3.032-2.335 0.21-2.677 3.581-2.677 3.581-0.314 1.559 0.757 4.888 3.635 4.269zM10.46 23.787c0.321 1.209 1.373 1.264 1.373 1.264h1.511v-3.689h-1.617c-0.726 0.218-1.078 0.785-1.156 1.025-0.086 0.243-0.272 0.862-0.111 1.401zM15.743 7.19c0-2.263-1.285-4.096-2.881-4.096-1.591 0-2.881 1.833-2.881 4.096 0 2.265 1.29 4.099 2.881 4.099 1.596 0 2.881-1.833 2.881-4.099zM23.496 7.474c0.277-1.717-1.096-3.715-2.604-4.057-1.511-0.347-3.397 2.071-3.568 3.648-0.205 1.929 0.275 3.853 2.402 4.127 2.13 0.277 3.501-1.996 3.77-3.718zM24.945 21.006s-3.296-2.548-5.219-5.3c-2.607-4.060-6.312-2.408-7.551-0.344-1.233 2.064-3.156 3.371-3.428 3.715-0.277 0.342-3.98 2.338-3.159 5.986 0.821 3.646 3.711 3.578 3.711 3.578s2.127 0.21 4.597-0.342c2.469-0.549 4.594 0.137 4.594 0.137s5.768 1.929 7.346-1.787c1.575-3.718-0.891-5.644-0.891-5.644zM11.325 26.537c-1.62-0.324-2.265-1.427-2.348-1.616-0.080-0.192-0.539-1.080-0.295-2.589 0.7-2.263 2.695-2.426 2.695-2.426h1.995v-2.452l1.7 0.026 0.003 9.057zM17.744 26.511c-1.674-0.43-1.752-1.618-1.752-1.618v-4.769l1.752-0.029v4.285c0.106 0.456 0.676 0.541 0.676 0.541h1.778v-4.798h1.863v6.387zM27.864 14.082c0-0.823-0.684-3.304-3.223-3.304-2.545 0-2.884 2.341-2.884 3.995 0 1.579 0.135 3.785 3.293 3.713 3.161-0.067 2.814-3.576 2.814-4.404z"/>
</svg>
