<svg version="1.1" xmlns="http://www.w3.org/2000/svg" width="32" height="32" viewBox="0 0 32 32">
<path fill="currentColor" d="M27.75 24.75h-21.5v-19.5c0-0.138-0.112-0.25-0.25-0.25h-1.75c-0.138 0-0.25 0.112-0.25 0.25v21.5c0 0.137 0.112 0.25 0.25 0.25h23.5c0.137 0 0.25-0.113 0.25-0.25v-1.75c0-0.137-0.113-0.25-0.25-0.25zM9 22.25h1.75c0.137 0 0.25-0.113 0.25-0.25v-4.5c0-0.137-0.113-0.25-0.25-0.25h-1.75c-0.137 0-0.25 0.113-0.25 0.25v4.5c0 0.137 0.113 0.25 0.25 0.25zM13.75 22.25h1.75c0.137 0 0.25-0.113 0.25-0.25v-10c0-0.137-0.113-0.25-0.25-0.25h-1.75c-0.137 0-0.25 0.113-0.25 0.25v10c0 0.137 0.113 0.25 0.25 0.25zM18.5 22.25h1.75c0.137 0 0.25-0.113 0.25-0.25v-7.563c0-0.137-0.113-0.25-0.25-0.25h-1.75c-0.137 0-0.25 0.113-0.25 0.25v7.563c0 0.137 0.113 0.25 0.25 0.25zM23.25 22.25h1.75c0.137 0 0.25-0.113 0.25-0.25v-12.5c0-0.137-0.113-0.25-0.25-0.25h-1.75c-0.137 0-0.25 0.113-0.25 0.25v12.5c0 0.137 0.113 0.25 0.25 0.25z"/>
</svg>
