<svg version="1.1" xmlns="http://www.w3.org/2000/svg" width="32" height="32" viewBox="0 0 32 32">
<path fill="currentColor" d="M3.75 5h-1.5c-0.138 0-0.25 0.112-0.25 0.25v21.5c0 0.137 0.112 0.25 0.25 0.25h1.5c0.138 0 0.25-0.113 0.25-0.25v-21.5c0-0.138-0.112-0.25-0.25-0.25zM29.781 5h-1.5c-0.137 0-0.25 0.112-0.25 0.25v21.5c0 0.137 0.113 0.25 0.25 0.25h1.5c0.137 0 0.25-0.113 0.25-0.25v-21.5c0-0.138-0.113-0.25-0.25-0.25zM6.25 23h3.5c0.137 0 0.25-0.113 0.25-0.25v-17.5c0-0.138-0.113-0.25-0.25-0.25h-3.5c-0.138 0-0.25 0.112-0.25 0.25v17.5c0 0.137 0.112 0.25 0.25 0.25zM16.281 23h1.5c0.137 0 0.25-0.113 0.25-0.25v-17.5c0-0.138-0.113-0.25-0.25-0.25h-1.5c-0.137 0-0.25 0.112-0.25 0.25v17.5c0 0.137 0.113 0.25 0.25 0.25zM20.219 23h5.563c0.137 0 0.25-0.113 0.25-0.25v-17.5c0-0.138-0.113-0.25-0.25-0.25h-5.563c-0.137 0-0.25 0.112-0.25 0.25v17.5c0 0.137 0.113 0.25 0.25 0.25zM12.25 23h1.5c0.137 0 0.25-0.113 0.25-0.25v-17.5c0-0.138-0.113-0.25-0.25-0.25h-1.5c-0.137 0-0.25 0.112-0.25 0.25v17.5c0 0.137 0.113 0.25 0.25 0.25zM9.781 25h-3.5c-0.138 0-0.25 0.113-0.25 0.25v1.5c0 0.137 0.112 0.25 0.25 0.25h3.5c0.137 0 0.25-0.113 0.25-0.25v-1.5c0-0.137-0.113-0.25-0.25-0.25zM17.813 25h-1.5c-0.137 0-0.25 0.113-0.25 0.25v1.5c0 0.137 0.113 0.25 0.25 0.25h1.5c0.137 0 0.25-0.113 0.25-0.25v-1.5c0-0.137-0.113-0.25-0.25-0.25zM25.813 25h-5.563c-0.137 0-0.25 0.113-0.25 0.25v1.5c0 0.137 0.113 0.25 0.25 0.25h5.563c0.137 0 0.25-0.113 0.25-0.25v-1.5c0-0.137-0.113-0.25-0.25-0.25zM13.781 25h-1.5c-0.137 0-0.25 0.113-0.25 0.25v1.5c0 0.137 0.113 0.25 0.25 0.25h1.5c0.137 0 0.25-0.113 0.25-0.25v-1.5c0-0.137-0.113-0.25-0.25-0.25z"/>
</svg>
