<svg version="1.1" xmlns="http://www.w3.org/2000/svg" width="32" height="32" viewBox="0 0 32 32">
<path fill="currentColor" d="M19.813 9.197h6.234v1.512h-6.234zM13.566 15.181c1.378-0.659 2.1-1.662 2.1-3.213 0-3.066-2.281-3.809-4.916-3.809h-7.25v15.387h7.453c2.794 0 5.416-1.344 5.416-4.469 0-1.931-0.912-3.359-2.803-3.897zM6.881 10.784h3.172c1.222 0 2.319 0.341 2.319 1.759 0 1.306-0.853 1.831-2.063 1.831h-3.428v-3.591zM10.491 20.934h-3.612v-4.238h3.684c1.488 0 2.428 0.622 2.428 2.197 0 1.55-1.122 2.041-2.5 2.041zM28.484 18.137c0-3.297-1.928-6.044-5.416-6.044-3.391 0-5.697 2.553-5.697 5.9 0 3.469 2.184 5.85 5.697 5.85 2.659 0 4.381-1.197 5.209-3.75h-2.697c-0.294 0.953-1.488 1.453-2.416 1.453-1.794 0-2.731-1.050-2.731-2.834h8.028c0.009-0.184 0.022-0.378 0.022-0.575zM20.434 16.781c0.097-1.466 1.075-2.381 2.538-2.381 1.538 0 2.306 0.903 2.441 2.381h-4.978z"/>
</svg>
