<svg version="1.1" xmlns="http://www.w3.org/2000/svg" width="32" height="32" viewBox="0 0 32 32">
<path fill="currentColor" d="M23.95 23.259c1.366 0 2.481-1.131 2.481-2.516 0-1.672-2.481-4.4-2.481-4.4s-2.481 2.728-2.481 4.4c0 1.384 1.116 2.516 2.481 2.516zM12.166 21.881c0.222 0.222 0.581 0.222 0.8 0l8.003-8c0.222-0.222 0.222-0.581 0-0.8l-8-8c-0.019-0.019-0.041-0.037-0.063-0.053l-2.444-2.444c-0.051-0.051-0.122-0.082-0.2-0.082s-0.149 0.031-0.2 0.082l-1.5 1.5c-0.051 0.051-0.082 0.122-0.082 0.2s0.031 0.149 0.082 0.2l2.1 2.1-6.494 6.497c-0.222 0.222-0.222 0.581 0 0.8l7.997 8zM12.569 7.862l5.591 5.591h-11.178l5.588-5.591zM28.25 25.5h-24.5c-0.138 0-0.25 0.113-0.25 0.25v2.5c0 0.137 0.112 0.25 0.25 0.25h24.5c0.137 0 0.25-0.113 0.25-0.25v-2.5c0-0.137-0.113-0.25-0.25-0.25z"/>
</svg>
