<svg version="1.1" xmlns="http://www.w3.org/2000/svg" width="32" height="32" viewBox="0 0 32 32">
<path fill="currentColor" d="M7.36 19.268c0.523-0.023 1.009-0.056 1.49-0.065 2.087-0.037 4.138 0.213 6.086 1 0.953 0.384 1.874 0.829 2.703 1.454 0.68 0.514 0.828 1.153 0.518 2.097-0.194 0.583-0.583 1.023-1.074 1.407-1.157 0.903-2.37 1.718-3.763 2.176-0.977 0.324-1.99 0.569-3.008 0.727-1.338 0.208-2.694 0.301-4.045 0.426-0.278 0.028-0.56-0.009-0.838-0.009-0.143 0-0.181-0.074-0.185-0.199-0.037-0.616-0.065-1.236-0.12-1.852-0.069-0.796-0.148-1.593-0.241-2.384-0.125-1.106-0.264-2.208-0.403-3.31-0.144-1.162-0.292-2.319-0.43-3.481-0.139-1.134-0.264-2.273-0.412-3.407-0.167-1.296-0.352-2.592-0.528-3.889-0.208-1.532-0.495-3.051-0.889-4.546-0.018-0.065 0.037-0.208 0.093-0.227 1.31-0.528 2.624-1.042 3.934-1.565 0.435-0.176 0.472-0.227 0.477 0.324 0.005 2.347 0.014 4.694 0.051 7.041 0.019 1.222 0.065 2.444 0.148 3.662 0.102 1.486 0.259 2.972 0.393 4.458 0 0.065 0.028 0.125 0.042 0.162zM9.975 26.082c6.847-5.041 8.014-5.932 9.18-6.825l-5.593 4.107c-0.148-0.213-3.416-1.495-4.184-1.667 0.194 1.449 0.393 2.893 0.597 4.384zM23.541 25.633c-0.623-6.317-1.149-12.703-2.354-19.052 0.392-0.046 0.785-0.102 1.181-0.134 0.457-0.042 0.918-0.060 1.375-0.097 0.383-0.032 0.526 0.069 0.549 0.444 0.069 1.004 0.129 2.008 0.198 3.013 0.092 1.356 0.189 2.716 0.286 4.072 0.069 0.976 0.129 1.957 0.208 2.934 0.088 1.069 0.185 2.133 0.282 3.202 0.069 0.787 0.134 1.578 0.212 2.365 0.083 0.851 0.175 1.703 0.263 2.554 0.023 0.245 0.051 0.491 0.069 0.736 0.009 0.134-0.065 0.153-0.189 0.139-0.678-0.069-1.357-0.12-2.081-0.176zM17.875 16.474c0.55-0.079 1.082-0.167 1.614-0.227 0.384-0.046 0.773-0.051 1.157-0.088 0.208-0.019 0.342 0.055 0.375 0.259 0.088 0.541 0.18 1.087 0.245 1.633 0.106 0.907 0.19 1.818 0.287 2.725 0.083 0.796 0.167 1.587 0.259 2.383 0.102 0.851 0.213 1.698 0.319 2.545 0.032 0.25 0.056 0.504 0.088 0.777-2.282 0.258-3.082 0.364-3.88 0.474l1.544-0.173c-0.666-3.433-1.332-6.838-2.008-10.308zM29.813 27.062c-0.753 0-1.477 0.005-2.202-0.009-0.060 0-0.167-0.107-0.172-0.171-0.111-1.158-0.209-2.311-0.311-3.469l-0.293-3.223c-0.102-1.107-0.2-2.214-0.302-3.321-0.005-0.065-0.019-0.125-0.033-0.222 0.269-0.032 0.525-0.083 0.785-0.083 0.702 0 1.403 0.019 2.109 0.037 0.181 0.005 0.26 0.125 0.269 0.292 0.023 0.347 0.056 0.69 0.056 1.037 0.005 1.63-0.005 3.265 0.009 4.895 0.014 1.301 0.056 2.607 0.084 3.909zM19.44 15c-0.166-1.33-0.332-2.628-0.502-3.982 0.433-0.005 0.866-0.018 1.295-0.018 0.143 0 0.207 0.079 0.221 0.236 0.115 1.21 0.235 2.42 0.359 3.677-0.447 0.023-0.908 0.055-1.373 0.088zM28.156 11.377c0.373 0 0.769-0.005 1.17 0 0.201 0.005 0.298 0.084 0.298 0.32-0.014 1.132-0.005 2.264-0.005 3.391v0.255c-0.48-0.023-0.942-0.046-1.459-0.070-0.005-1.285-0.005-2.575-0.005-3.897zM17.768 15.281c-0.232-1.287-0.469-2.565-0.705-3.876 0.422-0.065 0.844-0.134 1.262-0.185 0.186-0.023 0.153 0.138 0.162 0.24 0.051 0.434 0.088 0.863 0.135 1.296 0.074 0.678 0.148 1.357 0.218 2.030 0.009 0.088 0 0.18 0 0.277-0.353 0.074-0.705 0.143-1.072 0.217zM26.219 11.411c0.397 0 0.795 0.005 1.188-0.005 0.178-0.005 0.243 0.032 0.238 0.236-0.014 0.542 0.005 1.085 0.009 1.631 0.005 0.672 0 1.349 0 2.016-0.402 0.042-0.753 0.074-1.132 0.116-0.098-1.312-0.201-2.619-0.304-3.995z"/>
</svg>
