<svg version="1.1" xmlns="http://www.w3.org/2000/svg" width="32" height="32" viewBox="0 0 32 32">
<path fill="currentColor" d="M26.75 11.75h-6.5v-6.5c0-0.275-0.225-0.5-0.5-0.5h-14.5c-0.275 0-0.5 0.225-0.5 0.5v14.5c0 0.275 0.225 0.5 0.5 0.5h6.5v6.5c0 0.275 0.225 0.5 0.5 0.5h14.5c0.275 0 0.5-0.225 0.5-0.5v-14.5c0-0.275-0.225-0.5-0.5-0.5zM11.75 12.25v5.875h-4.875v-11.25h11.25v4.875h-5.875c-0.275 0-0.5 0.225-0.5 0.5zM18.125 13.875v4.25h-4.25v-4.25h4.25zM25.125 25.125h-11.25v-4.875h5.875c0.275 0 0.5-0.225 0.5-0.5v-5.875h4.875v11.25z"/>
</svg>
