<svg version="1.1" xmlns="http://www.w3.org/2000/svg" width="32" height="32" viewBox="0 0 32 32">
<path fill="currentColor" d="M21.806 15.044c1.050-1.094 1.694-2.572 1.694-4.197v-0.319c0-3.362-2.753-6.091-6.147-6.091h-9.247c-0.472 0-0.856 0.384-0.856 0.856v21.222c0 0.509 0.412 0.922 0.922 0.922h9.959c3.656 0 6.619-2.944 6.619-6.578v-0.344c0-2.281-1.169-4.291-2.944-5.472zM10.25 7.438h7.022c1.784 0 3.228 1.387 3.228 3.103v0.297c0 1.713-1.447 3.103-3.228 3.103h-7.022v-6.503zM21.706 20.856c0 1.966-1.616 3.559-3.609 3.559h-7.847v-7.456h7.847c1.994 0 3.609 1.594 3.609 3.559v0.337z"/>
</svg>
