<svg version="1.1" xmlns="http://www.w3.org/2000/svg" width="32" height="32" viewBox="0 0 32 32">
<path fill="currentColor" d="M26 2h-20c-0.553 0-1 0.447-1 1v26c0 0.553 0.447 1 1 1h20c0.553 0 1-0.447 1-1v-26c0-0.553-0.447-1-1-1zM17.875 4.25h3v6.559l-1.453-1.059-1.547 1.106v-6.606zM24.75 27.75h-17.5v-23.5h8.75v9.278c0 0.103 0.031 0.206 0.094 0.291 0.091 0.128 0.239 0.21 0.406 0.21 0.109 0 0.211-0.035 0.293-0.095l-0.001 0.001 2.619-1.872 2.544 1.856c0.084 0.063 0.188 0.097 0.294 0.097 0.275 0 0.5-0.225 0.5-0.5v-9.266h2v23.5z"/>
</svg>
