<svg version="1.1" xmlns="http://www.w3.org/2000/svg" width="32" height="32" viewBox="0 0 32 32">
<path fill="currentColor" d="M29.75 7h-1.625c-0.137 0-0.25 0.112-0.25 0.25v7.75h-2.875v-5.5c0-0.137-0.113-0.25-0.25-0.25h-17.5c-0.138 0-0.25 0.113-0.25 0.25v5.5h-2.875v-7.75c0-0.138-0.112-0.25-0.25-0.25h-1.625c-0.138 0-0.25 0.112-0.25 0.25v17.5c0 0.137 0.112 0.25 0.25 0.25h1.625c0.138 0 0.25-0.113 0.25-0.25v-7.625h2.875v5.375c0 0.137 0.112 0.25 0.25 0.25h17.5c0.137 0 0.25-0.113 0.25-0.25v-5.375h2.875v7.625c0 0.137 0.113 0.25 0.25 0.25h1.625c0.137 0 0.25-0.113 0.25-0.25v-17.5c0-0.138-0.113-0.25-0.25-0.25zM9.25 11.5h2.75v9h-2.75v-9zM22.75 20.5h-8.75v-9h8.75v9z"/>
</svg>
