<svg version="1.1" xmlns="http://www.w3.org/2000/svg" width="32" height="32" viewBox="0 0 32 32">
<path fill="currentColor" d="M23.125 5.031c-1.931 0-3.5 1.569-3.5 3.5 0 1.566 1.034 2.894 2.453 3.341v2.997l-12.078 3.956v-8.884c1.381-0.469 2.375-1.778 2.375-3.316 0-1.931-1.569-3.5-3.5-3.5s-3.5 1.569-3.5 3.5c0 1.538 0.994 2.844 2.375 3.316v12.122c-1.381 0.469-2.375 1.778-2.375 3.316 0 1.931 1.569 3.5 3.5 3.5s3.5-1.569 3.5-3.5c0-1.538-0.994-2.844-2.375-3.316v-0.869l13.234-4.334c0.638-0.212 1.091-0.804 1.091-1.501 0-0.002 0-0.003 0-0.005v0-3.534c1.341-0.494 2.3-1.781 2.3-3.287 0-1.931-1.569-3.5-3.5-3.5zM7.375 6.625c0.017-0.815 0.682-1.47 1.5-1.47s1.483 0.654 1.5 1.468l0 0.002c-0.017 0.815-0.682 1.47-1.5 1.47s-1.483-0.654-1.5-1.468l-0-0.002zM10.375 25.375c-0.017 0.815-0.682 1.47-1.5 1.47s-1.483-0.654-1.5-1.468l-0-0.002c0.017-0.815 0.682-1.47 1.5-1.47s1.483 0.654 1.5 1.468l0 0.002zM23.125 10.031c-0.815-0.017-1.47-0.682-1.47-1.5s0.654-1.483 1.468-1.5l0.002-0c0.815 0.017 1.47 0.682 1.47 1.5s-0.654 1.483-1.468 1.5l-0.002 0z"/>
</svg>
