<svg version="1.1" xmlns="http://www.w3.org/2000/svg" width="32" height="32" viewBox="0 0 32 32">
<path fill="currentColor" d="M9.5 8.75h1.75c0.137 0 0.25-0.113 0.25-0.25 0-0.884 0.184-1.662 0.534-2.297 0.331-0.606 0.813-1.088 1.419-1.419 0.637-0.347 1.412-0.534 2.297-0.534h0.5c0.884 0 1.663 0.184 2.297 0.534 0.606 0.331 1.087 0.813 1.419 1.419 0.347 0.638 0.534 1.412 0.534 2.297 0 0.137 0.113 0.25 0.25 0.25h1.75c0.137 0 0.25-0.113 0.25-0.25 0-1.25-0.275-2.397-0.809-3.378-0.538-0.984-1.328-1.775-2.313-2.313-0.981-0.534-2.128-0.809-3.378-0.809h-0.5c-1.25 0-2.397 0.275-3.378 0.809-0.984 0.538-1.775 1.328-2.313 2.313-0.534 0.981-0.809 2.128-0.809 3.378 0 0.137 0.113 0.25 0.25 0.25z"/>
<path fill="currentColor" d="M29.375 16h-4.625v-3.125c2.4 0 4.344-1.944 4.344-4.344 0-0.137-0.113-0.25-0.25-0.25h-1.875c-0.137 0-0.25 0.113-0.25 0.25 0 1.088-0.881 1.969-1.969 1.969h-17.5c-1.088 0-1.969-0.881-1.969-1.969 0-0.137-0.112-0.25-0.25-0.25h-1.875c-0.138 0-0.25 0.113-0.25 0.25 0 2.4 1.944 4.344 4.344 4.344v3.125h-4.625c-0.138 0-0.25 0.113-0.25 0.25v1.75c0 0.137 0.112 0.25 0.25 0.25h4.625v3c0 0.203 0.006 0.406 0.022 0.603-2.144 0.916-3.647 3.044-3.647 5.522 0 0.137 0.112 0.25 0.25 0.25h1.75c0.138 0 0.25-0.113 0.25-0.25 0-1.381 0.747-2.591 1.862-3.241 0.188 0.538 0.425 1.050 0.709 1.531 0.759 1.297 1.844 2.381 3.141 3.141s2.803 1.194 4.412 1.194 3.119-0.434 4.416-1.194c1.297-0.759 2.381-1.844 3.141-3.141 0.284-0.484 0.522-0.997 0.709-1.531 1.113 0.65 1.859 1.859 1.859 3.241 0 0.137 0.113 0.25 0.25 0.25h1.75c0.137 0 0.25-0.113 0.25-0.25 0-2.478-1.503-4.606-3.647-5.522 0.012-0.2 0.022-0.4 0.022-0.603v-3h4.625c0.137 0 0.25-0.113 0.25-0.25v-1.75c0-0.137-0.113-0.25-0.25-0.25zM22.375 21.25c0 1.15-0.303 2.25-0.869 3.216-0.553 0.947-1.344 1.738-2.291 2.291-0.966 0.566-2.066 0.869-3.216 0.869s-2.25-0.303-3.216-0.869c-0.947-0.553-1.738-1.344-2.291-2.291-0.566-0.966-0.869-2.066-0.869-3.216v-8.375h12.75v8.375z"/>
</svg>
