<svg version="1.1" xmlns="http://www.w3.org/2000/svg" width="32" height="32" viewBox="0 0 32 32">
<path fill="currentColor" d="M19.75 27.75h-7.5c-0.137 0-0.25 0.113-0.25 0.25v1c0 0.553 0.447 1 1 1h6c0.553 0 1-0.447 1-1v-1c0-0.137-0.113-0.25-0.25-0.25zM16 2c-5.659 0-10.25 4.591-10.25 10.25 0 3.794 2.063 7.106 5.125 8.878v3.622c0 0.553 0.447 1 1 1h8.25c0.553 0 1-0.447 1-1v-3.622c3.063-1.772 5.125-5.084 5.125-8.878 0-5.659-4.591-10.25-10.25-10.25zM19.997 19.181l-1.122 0.65v3.669h-5.75v-3.669l-1.122-0.65c-2.459-1.422-4.003-4.041-4.003-6.931 0-4.419 3.581-8 8-8s8 3.581 8 8c0 2.891-1.544 5.509-4.003 6.931z"/>
</svg>
