<svg version="1.1" xmlns="http://www.w3.org/2000/svg" width="32" height="32" viewBox="0 0 32 32">
<path fill="currentColor" d="M7.85 12.094h2.15v2.15c0 0.056 0.056 0.1 0.125 0.1h1.5c0.069 0 0.125-0.044 0.125-0.103v-2.147h2.15c0.056 0 0.1-0.056 0.1-0.125v-1.5c0-0.069-0.044-0.125-0.103-0.125h-2.147v-2.15c0-0.056-0.056-0.1-0.125-0.1h-1.5c-0.069 0-0.125 0.044-0.125 0.1v2.15h-2.15c-0.056 0-0.1 0.056-0.1 0.125v1.5c0 0.069 0.044 0.125 0.1 0.125zM18.1 12.094h6.050c0.056 0 0.1-0.056 0.1-0.125v-1.5c0-0.069-0.044-0.125-0.103-0.125h-6.047c-0.056 0-0.1 0.056-0.1 0.125v1.5c0 0.069 0.044 0.125 0.1 0.125zM18.1 20.375h6.050c0.056 0 0.1-0.056 0.1-0.125v-1.5c0-0.069-0.044-0.125-0.103-0.125h-6.047c-0.056 0-0.1 0.056-0.1 0.125v1.5c0 0.069 0.044 0.125 0.1 0.125zM18.1 23.625h6.050c0.056 0 0.1-0.056 0.1-0.125v-1.5c0-0.069-0.044-0.125-0.103-0.125h-6.047c-0.056 0-0.1 0.056-0.1 0.125v1.5c0 0.069 0.044 0.125 0.1 0.125zM11.984 21.094l1.912-2.341c0.134-0.163 0.022-0.409-0.184-0.409h-1.588c-0.072 0-0.141 0.031-0.184 0.091l-1.063 1.3-1.063-1.3c-0.044-0.054-0.11-0.089-0.184-0.091h-1.591c-0.206 0-0.319 0.247-0.184 0.409l1.913 2.341-1.959 2.4c-0.138 0.163-0.025 0.409 0.181 0.409h1.588c0.072 0 0.141-0.031 0.184-0.091l1.109-1.359 1.109 1.359c0.047 0.056 0.116 0.091 0.184 0.091h1.588c0.206 0 0.319-0.247 0.184-0.409l-1.953-2.4zM27.5 3.5h-23c-0.553 0-1 0.447-1 1v23c0 0.553 0.447 1 1 1h23c0.553 0 1-0.447 1-1v-23c0-0.553-0.447-1-1-1zM26.375 26.375h-20.75v-20.75h20.75v20.75z"/>
</svg>
