<svg version="1.1" xmlns="http://www.w3.org/2000/svg" width="32" height="32" viewBox="0 0 32 32">
<path fill="currentColor" d="M11.875 22h8.25c0.137 0 0.25-0.113 0.25-0.25v-2.625c0-0.137-0.113-0.25-0.25-0.25h-1.25c-0.137 0-0.25 0.113-0.25 0.25v1.125h-5.25v-1.125c0-0.137-0.113-0.25-0.25-0.25h-1.25c-0.137 0-0.25 0.113-0.25 0.25v2.625c0 0.137 0.113 0.25 0.25 0.25zM22.5 18.156c0 0.69 0.56 1.25 1.25 1.25s1.25-0.56 1.25-1.25v0c0-0.69-0.56-1.25-1.25-1.25s-1.25 0.56-1.25 1.25v0zM29.969 12.919l-0.741-1.294c-0.044-0.075-0.124-0.124-0.216-0.124-0.046 0-0.089 0.012-0.126 0.034l0.001-0.001-1.584 0.925-2.447-6.756c-0.266-0.812-1.017-1.388-1.902-1.388-0.001 0-0.001 0-0.002 0h-13.541c-1.084 0-2.047 0.7-2.381 1.734l-2.331 6.413-1.587-0.925c-0.036-0.021-0.079-0.033-0.125-0.033-0.092 0-0.172 0.049-0.215 0.123l-0.001 0.001-0.741 1.291c-0.069 0.119-0.028 0.269 0.091 0.338l1.887 1.1-0.453 1.25c-0.038 0.1-0.056 0.206-0.056 0.313v10.881c0 0.491 0.369 0.887 0.822 0.887h2.112c0.384 0 0.719-0.291 0.8-0.697l0.241-1.178h17.050l0.241 1.178c0.084 0.406 0.416 0.697 0.8 0.697h2.113c0.453 0 0.822-0.397 0.822-0.887v-10.881c0-0.106-0.019-0.213-0.056-0.313l-0.453-1.25 1.884-1.1c0.075-0.044 0.125-0.124 0.125-0.216 0-0.044-0.012-0.086-0.032-0.122l0.001 0.001zM26.25 16.156v7.406h-20.5v-7.406l0.487-1.344h19.525l0.488 1.344zM9.147 6.816l0.016-0.041 0.012-0.041c0.034-0.103 0.128-0.172 0.238-0.172h13.362l2.356 6.5h-18.256l2.272-6.247zM7 18.156c0 0.69 0.56 1.25 1.25 1.25s1.25-0.56 1.25-1.25v0c0-0.69-0.56-1.25-1.25-1.25s-1.25 0.56-1.25 1.25v0z"/>
</svg>
