<svg version="1.1" xmlns="http://www.w3.org/2000/svg" width="32" height="32" viewBox="0 0 32 32">
<path fill="currentColor" d="M21.844 11.031h-1.466c-0.319 0-0.622 0.153-0.809 0.416l-4.912 6.812-2.225-3.088c-0.188-0.259-0.488-0.416-0.809-0.416h-1.466c-0.203 0-0.322 0.231-0.203 0.397l3.894 5.4c0.183 0.253 0.476 0.415 0.808 0.415s0.625-0.162 0.806-0.412l0.002-0.003 6.581-9.125c0.122-0.166 0.003-0.397-0.2-0.397z"/>
<path fill="currentColor" d="M16 2c-7.731 0-14 6.269-14 14s6.269 14 14 14 14-6.269 14-14-6.269-14-14-14zM16 27.625c-6.419 0-11.625-5.206-11.625-11.625s5.206-11.625 11.625-11.625 11.625 5.206 11.625 11.625-5.206 11.625-11.625 11.625z"/>
</svg>
