<svg version="1.1" xmlns="http://www.w3.org/2000/svg" width="32" height="32" viewBox="0 0 32 32">
<path fill="currentColor" d="M29 16.009v-0.009c0-7.181-5.819-13-13-13s-13 5.819-13 13v0.013c0 7.181 5.819 13 13 13s13-5.819 13-13v-0.003zM28.791 13.678v0zM21.147 19.944c1.672-2.569 1.641-5.919-0.347-8.241l5.075-0.262c0.641 1.387 1 2.931 1 4.559 0 5.787-4.519 10.519-10.222 10.856l4.494-6.913zM16 20.384c-2.422 0-4.381-1.959-4.381-4.381 0-2.428 1.959-4.381 4.381-4.381s4.381 1.956 4.381 4.378-1.959 4.384-4.381 4.384zM27.538 10.019v0zM16 5.125c3.791 0 7.131 1.941 9.075 4.881l-8.238-0.434c-3.047-0.178-5.944 1.537-6.947 4.409l-2.772-4.262c1.972-2.778 5.216-4.594 8.881-4.594zM3.203 18.306c0.813 4.531 3.972 8.25 8.175 9.847-4.203-1.591-7.362-5.309-8.175-9.847zM5.125 16c0-1.747 0.412-3.397 1.144-4.859l3.741 7.356c1.378 2.709 4.294 4.366 7.312 3.8l-2.313 4.534c-5.544-0.503-9.884-5.159-9.884-10.831zM15.272 28.981c0.125 0.006 0.25 0.012 0.375 0.016-0.125-0.006-0.25-0.009-0.375-0.016z"/>
</svg>
