<svg version="1.1" xmlns="http://www.w3.org/2000/svg" width="32" height="32" viewBox="0 0 32 32">
<path fill="currentColor" d="M28.097 27.175l-1.656-9.55h0.559c0.45 0 0.813-0.363 0.813-0.813v-6c0-0.45-0.363-0.813-0.813-0.813h-7.688v-5.688c0-0.45-0.363-0.813-0.813-0.813h-5c-0.45 0-0.813 0.362-0.813 0.813v5.688h-7.688c-0.45 0-0.813 0.363-0.813 0.813v6c0 0.45 0.362 0.813 0.813 0.813h0.559l-1.656 9.55c-0.009 0.047-0.013 0.094-0.013 0.137 0 0.45 0.362 0.813 0.813 0.813h22.594c0.047 0 0.094-0.003 0.137-0.012 0.444-0.075 0.741-0.497 0.663-0.938zM6.375 12.188h8.5v-6.5h2.25v6.5h8.5v3.25h-19.25v-3.25zM21 25.938v-4.875c0-0.137-0.113-0.25-0.25-0.25h-1.5c-0.137 0-0.25 0.113-0.25 0.25v4.875h-6v-4.875c0-0.137-0.113-0.25-0.25-0.25h-1.5c-0.137 0-0.25 0.113-0.25 0.25v4.875h-4.662l1.409-8.125h16.503l1.409 8.125h-4.659z"/>
</svg>
