<svg version="1.1" xmlns="http://www.w3.org/2000/svg" width="32" height="32" viewBox="0 0 32 32">
<path fill="currentColor" d="M27.5 3.5c0.553 0 1 0.447 1 1v23c0 0.553-0.447 1-1 1h-23c-0.553 0-1-0.447-1-1v-23c0-0.553 0.447-1 1-1zM26.25 5.75h-20.5v20.5h20.5v-20.5zM20 10.588c0.001 0 0.001 0.001 0.003 0.002l1.407 1.407c0.001 0.001 0.002 0.002 0.002 0.003s0 0.001 0 0.001-0 0.001-0 0.001v-0c-0 0.001-0.001 0.001-0.002 0.003l-3.996 3.996 3.996 3.996c0.001 0.001 0.001 0.001 0.002 0.002l0 0 0 0.001c0 0 0 0.001 0 0.001s-0 0.001-0 0.001v-0c-0 0.001-0.001 0.001-0.002 0.003l-1.407 1.407c-0.001 0.001-0.002 0.002-0.003 0.002s-0.001 0-0.001 0-0.001-0-0.001-0h0c-0.001-0-0.001-0.001-0.003-0.002l-3.996-3.996-3.996 3.996c-0.001 0.001-0.002 0.002-0.003 0.002s-0.001 0-0.001 0-0.001-0-0.001-0h0c-0.001-0-0.001-0.001-0.003-0.002l-1.407-1.407c-0.001-0.001-0.002-0.002-0.002-0.003s-0-0.001-0-0.001 0-0.001 0-0.001v0c0-0.001 0.001-0.001 0.002-0.003l3.996-3.996-3.996-3.996c-0.001-0.001-0.001-0.001-0.002-0.002l-0-0-0-0.001c-0-0-0-0.001-0-0.001s0-0.001 0-0.001v0c0-0.001 0.001-0.001 0.002-0.003l1.407-1.407c0.001-0.001 0.002-0.002 0.003-0.002s0.001-0 0.001-0 0.001 0 0.001 0h-0c0.001 0 0.001 0.001 0.003 0.002l3.996 3.996 3.996-3.996c0.001-0.001 0.002-0.002 0.003-0.002s0.001-0 0.001-0 0.001 0 0.001 0h-0z"/>
</svg>
