<svg version="1.1" xmlns="http://www.w3.org/2000/svg" width="32" height="32" viewBox="0 0 32 32">
<path fill="currentColor" d="M24.995 5.197c0.001 0 0.001 0.001 0.003 0.002l1.803 1.803c0.001 0.001 0.002 0.002 0.002 0.003s0 0.001 0 0.001-0 0.001-0 0.001v-0c-0 0.001-0.001 0.001-0.002 0.003l-8.991 8.991 8.991 8.991c0.001 0.001 0.002 0.002 0.002 0.003s0 0.001 0 0.001-0 0.001-0 0.001v-0c-0 0.001-0.001 0.001-0.002 0.003l-1.803 1.803c-0.001 0.001-0.002 0.002-0.003 0.002s-0.001 0-0.001 0-0.001-0-0.001-0h0c-0.001-0-0.001-0.001-0.003-0.002l-8.991-8.991-8.991 8.991c-0.001 0.001-0.002 0.002-0.003 0.002s-0.001 0-0.001 0-0.001-0-0.001-0h0c-0.001-0-0.001-0.001-0.003-0.002l-1.803-1.803c-0.001-0.001-0.002-0.002-0.002-0.003s-0-0.001-0-0.001 0-0.001 0-0.001v0c0-0.001 0.001-0.001 0.002-0.003l8.991-8.991-8.991-8.991c-0.001-0.001-0.002-0.002-0.002-0.003s-0-0.001-0-0.001 0-0.001 0-0.001v0c0-0.001 0.001-0.001 0.002-0.003l1.803-1.803c0.001-0.001 0.002-0.002 0.003-0.002s0.001-0 0.001-0 0.001 0 0.001 0h-0c0.001 0 0.001 0.001 0.003 0.002l8.991 8.991 8.991-8.991c0.001-0.001 0.002-0.002 0.003-0.002s0.001-0 0.001-0 0.001 0 0.001 0h-0z"/>
</svg>
