<svg version="1.1" xmlns="http://www.w3.org/2000/svg" width="32" height="32" viewBox="0 0 32 32">
<path fill="currentColor" d="M19.5 22.072h-2.316v-7.572c0-0.137-0.113-0.25-0.25-0.25h-1.875c-0.137 0-0.25 0.113-0.25 0.25v7.572h-2.309c-0.209 0-0.325 0.241-0.197 0.403l3.5 4.428c0.046 0.059 0.117 0.096 0.197 0.096s0.151-0.037 0.196-0.095l0-0.001 3.5-4.428c0.128-0.163 0.012-0.403-0.197-0.403z"/>
<path fill="currentColor" d="M25.356 11.459c-1.431-3.775-5.078-6.459-9.35-6.459s-7.919 2.681-9.35 6.456c-2.678 0.703-4.656 3.144-4.656 6.044 0 3.453 2.797 6.25 6.247 6.25h1.253c0.137 0 0.25-0.113 0.25-0.25v-1.875c0-0.137-0.113-0.25-0.25-0.25h-1.253c-1.053 0-2.044-0.419-2.781-1.178-0.734-0.756-1.125-1.775-1.091-2.831 0.028-0.825 0.309-1.6 0.819-2.253 0.522-0.666 1.253-1.15 2.066-1.366l1.184-0.309 0.434-1.144c0.269-0.713 0.644-1.378 1.116-1.981 0.47-0.599 1.009-1.114 1.614-1.543l0.024-0.016c1.284-0.903 2.797-1.381 4.375-1.381s3.091 0.478 4.375 1.381c0.622 0.438 1.172 0.963 1.637 1.559 0.472 0.603 0.847 1.272 1.116 1.981l0.431 1.141 1.181 0.313c1.694 0.456 2.878 1.997 2.878 3.753 0 1.034-0.403 2.009-1.134 2.741-0.697 0.701-1.661 1.134-2.727 1.134-0.004 0-0.007 0-0.011 0h-1.253c-0.137 0-0.25 0.113-0.25 0.25v1.875c0 0.137 0.113 0.25 0.25 0.25h1.253c3.45 0 6.247-2.797 6.247-6.25 0-2.897-1.972-5.334-4.644-6.041z"/>
</svg>
