<svg version="1.1" xmlns="http://www.w3.org/2000/svg" width="32" height="32" viewBox="0 0 32 32">
<path fill="currentColor" d="M25.356 11.528c-1.431-3.778-5.078-6.466-9.35-6.466s-7.919 2.684-9.35 6.462c-2.691 0.709-4.672 3.169-4.656 6.087 0.019 3.262 2.55 5.916 5.737 6.2 0.147 0.012 0.272-0.103 0.272-0.25v-1.887c0-0.125-0.094-0.231-0.219-0.247-0.844-0.106-1.641-0.475-2.253-1.078-0.75-0.734-1.163-1.722-1.163-2.769 0-0.875 0.284-1.7 0.819-2.387 0.522-0.669 1.256-1.153 2.066-1.366l1.184-0.313 0.434-1.147c0.269-0.713 0.644-1.381 1.116-1.984 0.466-0.6 1.019-1.125 1.637-1.563 1.284-0.903 2.797-1.381 4.375-1.381s3.091 0.478 4.375 1.384c0.622 0.438 1.172 0.963 1.637 1.563 0.472 0.603 0.847 1.272 1.116 1.984l0.431 1.144 1.181 0.313c1.694 0.45 2.878 1.991 2.878 3.75 0 1.050-0.413 2.034-1.163 2.769-0.609 0.6-1.403 0.972-2.247 1.078-0.125 0.016-0.216 0.122-0.216 0.247v1.891c0 0.147 0.128 0.262 0.275 0.25 3.178-0.288 5.703-2.938 5.725-6.194 0.019-2.919-1.959-5.378-4.644-6.091z"/>
<path fill="currentColor" d="M11.778 20.512c0.056-1.047 0.491-2.022 1.234-2.769 0.794-0.797 1.875-1.244 3-1.244 1.131 0 2.197 0.441 3 1.244 0.044 0.044 0.084 0.087 0.128 0.134l-0.781 0.613c-0.059 0.046-0.097 0.118-0.097 0.198 0 0.117 0.080 0.215 0.189 0.243l0.002 0 3.069 0.75c0.156 0.038 0.309-0.081 0.309-0.241l0.016-3.166c0-0.209-0.238-0.328-0.403-0.197l-0.725 0.569c-1.144-1.313-2.825-2.144-4.703-2.144-3.356 0-6.094 2.659-6.231 5.991-0.006 0.141 0.106 0.259 0.25 0.259h1.497c0.131-0.003 0.241-0.106 0.247-0.241zM21.969 20.75h-1.497c-0.131 0-0.241 0.103-0.25 0.238-0.056 1.047-0.491 2.022-1.234 2.769-0.794 0.797-1.875 1.244-3 1.244-1.131 0-2.197-0.441-3-1.244-0.044-0.044-0.084-0.087-0.128-0.134l0.781-0.613c0.059-0.046 0.097-0.118 0.097-0.198 0-0.117-0.080-0.215-0.189-0.243l-0.002-0-3.069-0.75c-0.156-0.038-0.309 0.081-0.309 0.241l-0.012 3.169c0 0.209 0.238 0.328 0.403 0.197l0.725-0.569c1.144 1.313 2.825 2.144 4.703 2.144 3.356 0 6.094-2.659 6.231-5.991 0.006-0.141-0.106-0.259-0.25-0.259z"/>
</svg>
