<svg version="1.1" xmlns="http://www.w3.org/2000/svg" width="32" height="32" viewBox="0 0 32 32">
<path fill="currentColor" d="M27.75 21.25h-1.688v-4.375h-9v-2.875h7.438c0.275 0 0.5-0.225 0.5-0.5v-8.25c0-0.275-0.225-0.5-0.5-0.5h-17c-0.275 0-0.5 0.225-0.5 0.5v8.25c0 0.275 0.225 0.5 0.5 0.5h7.438v2.875h-9v4.375h-1.688c-0.138 0-0.25 0.113-0.25 0.25v5.5c0 0.137 0.112 0.25 0.25 0.25h5.5c0.137 0 0.25-0.113 0.25-0.25v-5.5c0-0.137-0.113-0.25-0.25-0.25h-1.688v-2.25h6.875v2.25h-1.688c-0.137 0-0.25 0.113-0.25 0.25v5.5c0 0.137 0.113 0.25 0.25 0.25h5.5c0.137 0 0.25-0.113 0.25-0.25v-5.5c0-0.137-0.113-0.25-0.25-0.25h-1.688v-2.25h6.875v2.25h-1.688c-0.137 0-0.25 0.113-0.25 0.25v5.5c0 0.137 0.113 0.25 0.25 0.25h5.5c0.137 0 0.25-0.113 0.25-0.25v-5.5c0-0.137-0.113-0.25-0.25-0.25zM8 25.166c0 0.047-0.037 0.084-0.084 0.084h-1.834c-0.047 0-0.084-0.038-0.084-0.084v-1.834c0-0.047 0.037-0.084 0.084-0.084h1.834c0.047 0 0.084 0.038 0.084 0.084v1.834zM17 25.166c0 0.047-0.038 0.084-0.084 0.084h-1.834c-0.047 0-0.084-0.038-0.084-0.084v-1.834c0-0.047 0.037-0.084 0.084-0.084h1.834c0.047 0 0.084 0.038 0.084 0.084v1.834zM9 12v-5.25h14v5.25h-14zM26 25.166c0 0.047-0.038 0.084-0.084 0.084h-1.834c-0.047 0-0.084-0.038-0.084-0.084v-1.834c0-0.047 0.038-0.084 0.084-0.084h1.834c0.047 0 0.084 0.038 0.084 0.084v1.834zM11.25 9.375c0 0.69 0.56 1.25 1.25 1.25s1.25-0.56 1.25-1.25v0c0-0.69-0.56-1.25-1.25-1.25s-1.25 0.56-1.25 1.25v0z"/>
</svg>
