<svg version="1.1" xmlns="http://www.w3.org/2000/svg" width="32" height="32" viewBox="0 0 32 32">
<path fill="currentColor" d="M28.491 12.041l-0.009-0.047c-0.006-0.031-0.009-0.059-0.019-0.091-0.006-0.019-0.012-0.034-0.016-0.053-0.009-0.025-0.016-0.053-0.028-0.078-0.006-0.019-0.016-0.034-0.025-0.053-0.012-0.025-0.025-0.047-0.038-0.072-0.009-0.016-0.019-0.034-0.031-0.050-0.025-0.037-0.053-0.075-0.081-0.113-0.016-0.019-0.034-0.041-0.053-0.059-0.012-0.016-0.028-0.028-0.044-0.041-0.019-0.019-0.041-0.034-0.059-0.050-0.016-0.012-0.031-0.025-0.050-0.037-0.006-0.003-0.012-0.009-0.019-0.012l-11.422-7.603c-0.167-0.113-0.373-0.181-0.595-0.181s-0.428 0.067-0.599 0.183l0.004-0.002-11.428 7.609c-0.006 0.003-0.013 0.009-0.019 0.012-0.016 0.012-0.031 0.025-0.050 0.037-0.022 0.016-0.041 0.034-0.059 0.050-0.016 0.012-0.028 0.028-0.044 0.041-0.019 0.019-0.038 0.037-0.053 0.059-0.031 0.034-0.056 0.072-0.081 0.113-0.009 0.016-0.022 0.031-0.031 0.050-0.013 0.022-0.025 0.047-0.038 0.072-0.009 0.016-0.016 0.034-0.025 0.053-0.009 0.025-0.019 0.053-0.028 0.078-0.006 0.019-0.013 0.034-0.016 0.053-0.006 0.028-0.013 0.059-0.019 0.091l-0.009 0.047c-0.006 0.047-0.009 0.094-0.009 0.141v7.609c0 0.047 0.003 0.094 0.009 0.141l0.009 0.047 0.019 0.091c0.006 0.019 0.009 0.034 0.016 0.053 0.009 0.028 0.019 0.053 0.028 0.078 0.006 0.019 0.016 0.034 0.025 0.053 0.013 0.025 0.022 0.047 0.038 0.072 0.009 0.016 0.019 0.034 0.031 0.050 0.016 0.022 0.028 0.044 0.047 0.066l0.038 0.047c0.016 0.019 0.034 0.041 0.053 0.059 0.013 0.016 0.028 0.028 0.044 0.041 0.019 0.019 0.041 0.034 0.059 0.050 0.016 0.012 0.031 0.025 0.050 0.038 0.006 0.003 0.013 0.009 0.019 0.012l11.425 7.609c0.175 0.119 0.384 0.181 0.597 0.181 0.206 0 0.416-0.059 0.597-0.181l11.425-7.609c0.006-0.003 0.012-0.009 0.019-0.012 0.016-0.012 0.031-0.025 0.050-0.038 0.022-0.016 0.041-0.034 0.059-0.050 0.016-0.012 0.028-0.028 0.044-0.041 0.019-0.019 0.038-0.038 0.053-0.059l0.038-0.047 0.047-0.066c0.009-0.016 0.022-0.031 0.031-0.050 0.012-0.025 0.025-0.047 0.038-0.072 0.009-0.016 0.016-0.034 0.025-0.053 0.009-0.025 0.019-0.053 0.028-0.078 0.006-0.016 0.012-0.034 0.016-0.053 0.009-0.028 0.012-0.059 0.019-0.091l0.009-0.047c0.006-0.047 0.009-0.094 0.009-0.141v-7.616c-0.009-0.047-0.012-0.094-0.019-0.141zM17.075 6.578l8.419 5.606-3.759 2.512-4.656-3.113v-5.006zM14.925 6.578v5.006l-4.656 3.112-3.759-2.512 8.416-5.606zM5.647 14.191l2.688 1.797-2.688 1.797v-3.594zM14.925 25.394l-8.416-5.606 3.759-2.512 4.656 3.113v5.006zM16 18.525l-3.8-2.537 3.8-2.541 3.8 2.537-3.8 2.541zM17.075 25.394v-5.006l4.656-3.113 3.759 2.512-8.416 5.606zM26.353 17.781l-2.688-1.797 2.688-1.797v3.594z"/>
</svg>
