<svg version="1.1" xmlns="http://www.w3.org/2000/svg" width="32" height="32" viewBox="0 0 32 32">
<path fill="currentColor" d="M16.125 21.031c0 0.137 0.106 0.25 0.234 0.25h5.781c0.128 0 0.234-0.113 0.234-0.25v-1.5c0-0.137-0.106-0.25-0.234-0.25h-5.781c-0.128 0-0.234 0.113-0.234 0.25v1.5zM10.034 21.222l6-5.031c0.119-0.1 0.119-0.284 0-0.384l-6-5.028c-0.043-0.037-0.099-0.059-0.161-0.059-0.137 0-0.248 0.111-0.248 0.248 0 0 0 0.001 0 0.001v-0 1.959c0 0.075 0.031 0.144 0.091 0.191l3.431 2.881-3.431 2.881c-0.055 0.046-0.090 0.114-0.091 0.19v1.96c0 0.212 0.247 0.328 0.409 0.191zM27.5 3.5h-23c-0.553 0-1 0.447-1 1v23c0 0.553 0.447 1 1 1h23c0.553 0 1-0.447 1-1v-23c0-0.553-0.447-1-1-1zM26.25 26.25h-20.5v-20.5h20.5v20.5z"/>
</svg>
