<svg version="1.1" xmlns="http://www.w3.org/2000/svg" width="32" height="32" viewBox="0 0 32 32">
<path fill="currentColor" d="M8.594 8.781c0.622 0 1.125-0.503 1.125-1.125v-6.531c0-0.622-0.503-1.125-1.125-1.125s-1.125 0.503-1.125 1.125v6.531c0 0.622 0.503 1.125 1.125 1.125zM27.75 13.281h-3.75c0-1.244-1.006-2.25-2.25-2.25h-15.5c-1.244 0-2.25 1.006-2.25 2.25v7.75c0 0.106 0.006 0.209 0.022 0.309-0.016 0.219-0.022 0.438-0.022 0.659 0 5.522 4.478 10 10 10 5.003 0 9.147-3.672 9.884-8.469h3.866c1.244 0 2.25-1.006 2.25-2.25v-5.75c0-1.244-1.006-2.25-2.25-2.25zM21.75 21.281h-0.034c0.022 0.238 0.034 0.475 0.034 0.719 0 4.281-3.469 7.75-7.75 7.75s-7.75-3.469-7.75-7.75c0-0.244 0.013-0.481 0.034-0.719h-0.034v-8h15.5v8zM27.75 21.031h-3.5v-5.5h3.5v5.5zM19.156 8.781c0.622 0 1.125-0.503 1.125-1.125v-6.531c0-0.622-0.503-1.125-1.125-1.125s-1.125 0.503-1.125 1.125v6.531c0 0.622 0.503 1.125 1.125 1.125zM13.844 8.781c0.622 0 1.125-0.503 1.125-1.125v-6.531c0-0.622-0.503-1.125-1.125-1.125s-1.125 0.503-1.125 1.125v6.531c0 0.622 0.503 1.125 1.125 1.125z"/>
</svg>
