<svg version="1.1" xmlns="http://www.w3.org/2000/svg" width="32" height="32" viewBox="0 0 32 32">
<path fill="currentColor" d="M5.625 5.5h-1.875c-0.138 0-0.25 0.112-0.25 0.25v20.5c0 0.137 0.112 0.25 0.25 0.25h1.875c0.138 0 0.25-0.113 0.25-0.25v-20.5c0-0.138-0.112-0.25-0.25-0.25zM28.25 5.5h-1.875c-0.137 0-0.25 0.112-0.25 0.25v20.5c0 0.137 0.113 0.25 0.25 0.25h1.875c0.137 0 0.25-0.113 0.25-0.25v-20.5c0-0.138-0.113-0.25-0.25-0.25zM24.541 15.759l-3.988-3.147c-0.038-0.030-0.087-0.048-0.14-0.048-0.125 0-0.226 0.101-0.226 0.226 0 0 0 0 0 0.001v-0 2.084h-8.375v-1.963c0-0.188-0.219-0.294-0.366-0.178l-3.987 3.15c-0.053 0.041-0.087 0.105-0.087 0.177s0.034 0.135 0.086 0.176l0 0 3.984 3.15c0.147 0.116 0.366 0.012 0.366-0.178v-2.084h8.375v1.962c0 0.188 0.219 0.294 0.366 0.178l3.984-3.15c0.119-0.091 0.119-0.266 0.006-0.356z"/>
</svg>
