<svg version="1.1" xmlns="http://www.w3.org/2000/svg" width="32" height="32" viewBox="0 0 32 32">
<path fill="currentColor" d="M17.906 13.156c-0.722 0-1.281 0.559-1.281 1.25s0.559 1.25 1.281 1.25c0.659 0 1.219-0.559 1.219-1.25s-0.559-1.25-1.219-1.25zM9.156 13.156c-0.722 0-1.281 0.559-1.281 1.25s0.559 1.25 1.281 1.25c0.659 0 1.219-0.559 1.219-1.25s-0.559-1.25-1.219-1.25z"/>
<path fill="currentColor" d="M27.938 10.781c-1.503-2.063-3.603-3.441-5.906-4.063v0.003c-0.534-0.594-1.137-1.141-1.813-1.628-5.116-3.719-12.297-2.584-16.031 2.531-3.009 4.156-2.881 9.747 0.188 13.719l0.025 4.144c0 0.1 0.016 0.2 0.047 0.294 0.166 0.528 0.728 0.819 1.253 0.653l3.956-1.247c1.047 0.372 2.128 0.584 3.203 0.644l-0.016 0.012c2.784 2.028 6.434 2.637 9.781 1.531l3.972 1.294c0.1 0.031 0.203 0.050 0.309 0.050 0.553 0 1-0.447 1-1v-4.188c2.753-3.738 2.825-8.903 0.031-12.75zM10.094 22.969l-0.375-0.156-3.094 0.969-0.031-3.25-0.25-0.281c-2.644-3.225-2.819-7.872-0.344-11.281 3.012-4.131 8.787-5.044 12.906-2.063 4.131 3.003 5.047 8.769 2.063 12.875-2.503 3.434-6.984 4.703-10.875 3.188zM25.875 22.438l-0.25 0.313 0.031 3.25-3.063-1.031-0.375 0.156c-1.75 0.65-3.616 0.703-5.344 0.219l-0.006-0.003c2.309-0.709 4.403-2.147 5.913-4.216 2.387-3.291 2.775-7.425 1.387-10.95l0.019 0.012c0.719 0.516 1.378 1.159 1.938 1.938 2.269 3.113 2.141 7.35-0.25 10.313z"/>
<path fill="currentColor" d="M13.531 13.156c-0.722 0-1.281 0.559-1.281 1.25s0.559 1.25 1.281 1.25c0.659 0 1.219-0.559 1.219-1.25s-0.559-1.25-1.219-1.25z"/>
</svg>
