<svg version="1.1" xmlns="http://www.w3.org/2000/svg" width="32" height="32" viewBox="0 0 32 32">
<path fill="currentColor" d="M16 2c-7.731 0-14 6.269-14 14s6.269 14 14 14 14-6.269 14-14-6.269-14-14-14zM16 27.625c-6.419 0-11.625-5.206-11.625-11.625s5.206-11.625 11.625-11.625 11.625 5.206 11.625 11.625-5.206 11.625-11.625 11.625zM22.2 9.247c-0.108-0.043-0.233-0.069-0.364-0.069-0.145 0-0.283 0.031-0.408 0.087l0.006-0.003-8.469 3.706-3.703 8.469c-0.113 0.256-0.113 0.547 0 0.803 0.106 0.244 0.303 0.434 0.553 0.531 0.119 0.047 0.241 0.069 0.366 0.069 0.137 0 0.272-0.028 0.4-0.084l8.469-3.706 3.703-8.469c0.053-0.118 0.084-0.256 0.084-0.401 0-0.422-0.261-0.783-0.63-0.931l-0.007-0.002zM18.025 16.7l0.819 0.819-1.325 1.325-0.819-0.819-4.825 2.113 2.109-4.825-0.797-0.8 1.325-1.325 0.797 0.797 4.828-2.109-2.113 4.825zM14.512 13.188l-1.325 1.325 0.797 0.8 3.534 3.531 1.325-1.325-3.531-3.534z"/>
</svg>
