<svg version="1.1" xmlns="http://www.w3.org/2000/svg" width="32" height="32" viewBox="0 0 32 32">
<path fill="currentColor" d="M9.416 15.522c-0.744 0-1.256-0.328-1.3-0.841h-1.709c0.028 1.356 1.153 2.197 2.934 2.197 1.847 0 2.969-0.887 2.969-2.359 0-1.119-0.625-1.747-2.016-2.016l-0.909-0.175c-0.744-0.147-1.056-0.372-1.056-0.756 0-0.469 0.416-0.766 1.044-0.766s1.103 0.347 1.144 0.844h1.656c-0.028-1.303-1.172-2.197-2.822-2.197-1.7 0-2.803 0.903-2.803 2.281 0 1.109 0.662 1.813 1.953 2.056l0.928 0.184c0.806 0.162 1.113 0.372 1.113 0.762 0.003 0.459-0.453 0.784-1.125 0.784z"/>
<path fill="currentColor" d="M29 4.375h-26c-0.553 0-1 0.447-1 1v15.5c0 0.553 0.447 1 1 1h11.875v3.5h-5.375c-0.275 0-0.5 0.225-0.5 0.5v1.5c0 0.137 0.113 0.25 0.25 0.25h13.5c0.137 0 0.25-0.113 0.25-0.25v-1.5c0-0.275-0.225-0.5-0.5-0.5h-5.375v-3.5h11.875c0.553 0 1-0.447 1-1v-15.5c0-0.553-0.447-1-1-1zM27.75 19.625h-23.5v-13h23.5v13z"/>
<path fill="currentColor" d="M25.891 15.209h-2.994v-5.569h-1.794v7.047h4.787zM16.559 16.878c0.441 0 0.85-0.063 1.222-0.181l0.416 0.634h1.666l-0.866-1.363c0.659-0.625 1.031-1.597 1.031-2.806 0-2.291-1.353-3.713-3.466-3.713s-3.475 1.416-3.475 3.713c-0.003 2.303 1.344 3.716 3.472 3.716zM16.559 10.941c0.988 0 1.647 0.866 1.647 2.222 0 0.522-0.113 0.956-0.313 1.266l-0.163-0.216h-1.525l0.731 1.131c-0.122 0.028-0.25 0.044-0.381 0.044-0.991 0-1.65-0.859-1.65-2.225 0.003-1.363 0.662-2.222 1.653-2.222z"/>
</svg>
