<svg version="1.1" xmlns="http://www.w3.org/2000/svg" width="32" height="32" viewBox="0 0 32 32">
<path fill="currentColor" d="M16 2c-7.731 0-14 6.269-14 14s6.269 14 14 14 14-6.269 14-14-6.269-14-14-14zM16 27.625c-6.419 0-11.625-5.206-11.625-11.625s5.206-11.625 11.625-11.625 11.625 5.206 11.625 11.625-5.206 11.625-11.625 11.625zM16.175 10.978c1.656 0 2.781 1.056 2.906 2.606 0.009 0.131 0.119 0.231 0.25 0.231h1.772c0.081 0 0.147-0.066 0.147-0.147 0-2.709-2.137-4.606-5.084-4.606-3.434 0-5.416 2.319-5.416 6.15v1.634c0 3.803 1.981 6.091 5.416 6.091 2.938 0 5.084-1.837 5.084-4.419 0-0.081-0.066-0.147-0.147-0.147h-1.775c-0.131 0-0.238 0.1-0.25 0.228-0.131 1.441-1.253 2.431-2.906 2.431-2.041 0-3.191-1.497-3.191-4.175v-1.644c0.003-2.719 1.156-4.234 3.194-4.234z"/>
</svg>
