<svg version="1.1" xmlns="http://www.w3.org/2000/svg" width="32" height="32" viewBox="0 0 32 32">
<path fill="currentColor" d="M20.347 20.059c-0.044-0.038-0.1-0.059-0.159-0.059h-1.709c-0.075 0-0.144 0.034-0.191 0.091l-2.287 2.744-2.284-2.744c-0.047-0.056-0.119-0.091-0.191-0.091h-1.713c-0.059 0-0.116 0.022-0.159 0.059-0.106 0.087-0.122 0.247-0.031 0.353l3.197 3.837-3.2 3.841c-0.088 0.106-0.075 0.262 0.031 0.353 0.044 0.038 0.1 0.059 0.159 0.059h1.709c0.075 0 0.144-0.034 0.191-0.091l2.284-2.744 2.284 2.744c0.047 0.056 0.119 0.091 0.191 0.091h1.719c0.059 0 0.116-0.022 0.159-0.059 0.106-0.087 0.122-0.247 0.031-0.353l-3.197-3.841 3.2-3.841c0.087-0.106 0.072-0.262-0.034-0.35zM14.75 17h2.5c0.137 0 0.25-0.113 0.25-0.25v-13c0-0.138-0.113-0.25-0.25-0.25h-2.5c-0.137 0-0.25 0.112-0.25 0.25v13c0 0.137 0.113 0.25 0.25 0.25zM10.938 12.063h-5.188v-7.813c0-0.103-0.084-0.188-0.188-0.188h-1.875c-0.103 0-0.188 0.084-0.188 0.188v9.125c0 0.519 0.419 0.938 0.938 0.938h6.5c0.103 0 0.188-0.084 0.188-0.188v-1.875c0-0.103-0.084-0.188-0.188-0.188zM28.313 4.063h-1.875c-0.103 0-0.188 0.084-0.188 0.188v7.813h-5.188c-0.103 0-0.188 0.084-0.188 0.188v1.875c0 0.103 0.084 0.188 0.188 0.188h6.5c0.519 0 0.938-0.419 0.938-0.938v-9.125c0-0.103-0.084-0.188-0.188-0.188z"/>
</svg>
