<svg version="1.1" xmlns="http://www.w3.org/2000/svg" width="32" height="32" viewBox="0 0 32 32">
<path fill="currentColor" d="M25.619 16l3.2-3.841c0.087-0.106 0.075-0.262-0.031-0.353-0.044-0.037-0.1-0.059-0.159-0.059h-1.709c-0.075 0-0.144 0.034-0.191 0.091l-2.291 2.747-2.284-2.744c-0.047-0.056-0.119-0.091-0.191-0.091h-1.712c-0.059 0-0.116 0.022-0.159 0.059-0.106 0.088-0.122 0.247-0.031 0.353l3.197 3.837-3.2 3.841c-0.087 0.106-0.075 0.262 0.031 0.353 0.044 0.038 0.1 0.059 0.159 0.059h1.709c0.075 0 0.144-0.034 0.191-0.091l2.284-2.744 2.284 2.744c0.047 0.056 0.119 0.091 0.191 0.091h1.719c0.059 0 0.116-0.022 0.159-0.059 0.106-0.087 0.122-0.247 0.031-0.353l-3.197-3.841zM16.75 14.5h-13c-0.138 0-0.25 0.113-0.25 0.25v2.5c0 0.137 0.112 0.25 0.25 0.25h13c0.137 0 0.25-0.113 0.25-0.25v-2.5c0-0.137-0.113-0.25-0.25-0.25zM14.125 20.875h-1.875c-0.103 0-0.188 0.084-0.188 0.188v5.188h-7.813c-0.103 0-0.188 0.084-0.188 0.188v1.875c0 0.103 0.084 0.188 0.188 0.188h9.125c0.519 0 0.938-0.419 0.938-0.938v-6.5c0-0.103-0.084-0.188-0.188-0.188zM4.25 5.75h7.813v5.188c0 0.103 0.084 0.188 0.188 0.188h1.875c0.103 0 0.188-0.084 0.188-0.188v-6.5c0-0.519-0.419-0.938-0.938-0.938h-9.125c-0.103 0-0.188 0.084-0.188 0.188v1.875c0 0.103 0.084 0.188 0.188 0.188z"/>
</svg>
