<svg version="1.1" xmlns="http://www.w3.org/2000/svg" width="32" height="32" viewBox="0 0 32 32">
<path fill="currentColor" d="M11.25 5.75h-0.25c0.137 0 0.25-0.112 0.25-0.25v0.25h9.5v-0.25c0 0.138 0.113 0.25 0.25 0.25h-0.25v2.25h2.25v-2.5c0-1.103-0.897-2-2-2h-10c-1.103 0-2 0.897-2 2v2.5h2.25v-2.25zM27 8h-22c-0.553 0-1 0.447-1 1v1c0 0.137 0.112 0.25 0.25 0.25h1.888l0.772 16.344c0.050 1.066 0.931 1.906 1.997 1.906h14.188c1.069 0 1.947-0.837 1.997-1.906l0.772-16.344h1.887c0.137 0 0.25-0.113 0.25-0.25v-1c0-0.553-0.447-1-1-1zM22.853 26.25h-13.706l-0.756-16h15.219l-0.756 16z"/>
</svg>
