<svg version="1.1" xmlns="http://www.w3.org/2000/svg" width="32" height="32" viewBox="0 0 32 32">
<path fill="currentColor" d="M19.75 21.822l4.434-3.5c0.128-0.1 0.128-0.294 0-0.394l-4.434-3.5c-0.166-0.131-0.406-0.012-0.406 0.197v2.375h-10.125c-0.137 0-0.25 0.113-0.25 0.25v1.75c0 0.137 0.113 0.25 0.25 0.25h10.125v2.375c0 0.209 0.244 0.325 0.406 0.197zM27.916 9.166l-5.081-5.081c-0.234-0.234-0.522-0.406-0.834-0.5v-0.084h-17.5c-0.553 0-1 0.447-1 1v8.688c0 0.137 0.112 0.25 0.25 0.25h1.75c0.138 0 0.25-0.113 0.25-0.25v-7.438h4.25v4.25c0 0.553 0.447 1 1 1h10c0.553 0 1-0.447 1-1v-3.569l4.25 4.25v2.506c0 0.137 0.113 0.25 0.25 0.25h1.75c0.137 0 0.25-0.113 0.25-0.25v-2.609c0-0.531-0.209-1.037-0.584-1.412zM20 9h-8v-3.25h8v3.25zM28.25 22.625h-1.75c-0.137 0-0.25 0.113-0.25 0.25v3.375h-20.5v-3.375c0-0.137-0.112-0.25-0.25-0.25h-1.75c-0.138 0-0.25 0.113-0.25 0.25v4.625c0 0.553 0.447 1 1 1h23c0.553 0 1-0.447 1-1v-4.625c0-0.137-0.113-0.25-0.25-0.25z"/>
</svg>
