<svg version="1.1" xmlns="http://www.w3.org/2000/svg" width="32" height="32" viewBox="0 0 32 32">
<path fill="currentColor" d="M27.759 21.663c-1.328-0.769-2.947-0.563-4.038 0.4l-1.656-0.959v-4.741c0-0.491-0.262-0.947-0.688-1.191l-4.25-2.447v-2.097c1.381-0.469 2.375-1.775 2.375-3.316 0-1.934-1.566-3.5-3.5-3.5s-3.5 1.566-3.5 3.5c0 1.541 0.994 2.847 2.375 3.316v2.097l-4.25 2.447c-0.425 0.244-0.688 0.7-0.688 1.191v4.738l-1.656 0.959c-1.091-0.962-2.713-1.169-4.037-0.4-1.672 0.969-2.241 3.106-1.281 4.778 0.962 1.672 3.091 2.247 4.756 1.281 1.328-0.769 1.959-2.281 1.675-3.712l1.522-0.884 4.394 2.531c0.213 0.122 0.45 0.184 0.688 0.184s0.475-0.063 0.688-0.184l4.391-2.528 1.522 0.884c-0.284 1.428 0.35 2.944 1.675 3.712 1.666 0.966 3.797 0.394 4.756-1.281 0.962-1.675 0.394-3.813-1.272-4.778zM6.728 25.988c-0.214 0.126-0.471 0.2-0.746 0.2-0.55 0-1.031-0.299-1.288-0.743l-0.004-0.007c-0.412-0.716-0.169-1.634 0.547-2.047 0.214-0.126 0.471-0.2 0.746-0.2 0.55 0 1.031 0.299 1.288 0.743l0.004 0.007c0.412 0.716 0.169 1.634-0.547 2.047zM14.5 7.313c0.017-0.815 0.682-1.47 1.5-1.47s1.483 0.654 1.5 1.468l0 0.002c-0.017 0.815-0.682 1.47-1.5 1.47s-1.483-0.654-1.5-1.468l-0-0.002zM19.813 21.256l-3.813 2.197-3.813-2.197v-4.387l3.813-2.197 3.813 2.197v4.387zM27.309 25.441c-0.413 0.716-1.325 0.962-2.038 0.55s-0.959-1.331-0.547-2.047 1.325-0.962 2.038-0.55c0.716 0.413 0.959 1.328 0.547 2.047z"/>
</svg>
