<svg version="1.1" xmlns="http://www.w3.org/2000/svg" width="32" height="32" viewBox="0 0 32 32">
<path fill="currentColor" d="M14.875 12.472c0-0.122-0.097-0.222-0.219-0.222h-1.313c-0.119 0-0.219 0.1-0.219 0.222v2.653h-2.641c-0.128 0-0.234 0.097-0.234 0.219v1.313c0 0.119 0.106 0.219 0.234 0.219h2.641v2.653c0 0.122 0.1 0.222 0.219 0.222h1.313c0.122 0 0.219-0.1 0.219-0.222v-2.653h2.641c0.128 0 0.234-0.1 0.234-0.219v-1.313c0-0.122-0.106-0.219-0.234-0.219h-2.641v-2.653zM17.516 22h-7.031c-0.128 0-0.234 0.1-0.234 0.219v1.313c0 0.119 0.106 0.219 0.234 0.219h7.031c0.128 0 0.234-0.1 0.234-0.219v-1.313c0-0.119-0.106-0.219-0.234-0.219zM17.294 6.294c-0.188-0.188-0.441-0.294-0.706-0.294h-10.588c-0.553 0-1 0.447-1 1v22c0 0.553 0.447 1 1 1h16c0.553 0 1-0.447 1-1v-16.584c0-0.266-0.106-0.519-0.294-0.706l-5.412-5.416zM20.75 27.75h-13.5v-19.5h8.819l4.681 4.681v14.819zM26.694 9.581l-7.591-7.303c-0.188-0.178-0.434-0.278-0.694-0.278h-9.159c-0.137 0-0.25 0.112-0.25 0.25v1.75c0 0.138 0.113 0.25 0.25 0.25h8.656l6.844 6.581v14.919c0 0.137 0.113 0.25 0.25 0.25h1.75c0.137 0 0.25-0.113 0.25-0.25v-15.45c0-0.272-0.109-0.531-0.306-0.719z"/>
</svg>
