<svg version="1.1" xmlns="http://www.w3.org/2000/svg" width="32" height="32" viewBox="0 0 32 32">
<path fill="currentColor" d="M17.928 7.891c-4.725-1.722-11.637-4.869-11.637-4.869-0.491-0.128-0.559 0.347-0.559 0.347-0.156 1.909 1.050 5.016 1.675 5.713 0.622 0.697 9.972 3.553 9.972 3.553s-7.191-1.45-8.925-1.95c-1.737-0.5-1.184 0.556-1.184 0.556 0.356 1.928 2.028 4.119 3.35 4.325 1.319 0.206 6.878 0.125 6.878 0.125s-1.109 0.128-2.912 0.372c-1.334 0.181-3.031 0.391-3.472 0.556-1.034 0.391 0.75 1.956 0.75 1.956 2.647 2.4 4.053 1.578 4.053 1.578 1.041-0.334 1.919-0.578 2.662-0.756l-0.922 3.825h2.644l-1.456 5.778 6.416-8.497h-3.359l0.697-1.209c0.009 0.016 0.012 0.025 0.012 0.025s2.384-3.816 3.297-5.762l0.019-0.031h-0.003c0.156-0.338 0.269-0.616 0.313-0.806 0.531-2.228-3.578-3.106-8.306-4.828z"/>
</svg>
