<svg version="1.1" xmlns="http://www.w3.org/2000/svg" width="32" height="32" viewBox="0 0 32 32">
<path fill="currentColor" d="M12.656 4.938l-0.781 0.094s-3.504 0.383-6.063 2.438h-0.030l-0.032 0.030c-0.574 0.528-0.824 1.177-1.219 2.126-0.396 0.927-0.801 2.091-1.135 3.284l-0.052 0.216c-0.742 2.683-1.344 5.933-1.344 8.906v0.25l0.125 0.25c0.926 1.625 2.57 2.66 4.094 3.375 1.523 0.715 2.84 1.094 3.75 1.125l0.594 0.031 0.312-0.531 1.094-1.938c1.16 0.262 2.496 0.438 4.031 0.438s2.871-0.176 4.031-0.438l1.094 1.938 0.313 0.531 0.593-0.031c0.91-0.031 2.227-0.41 3.75-1.125 1.524-0.715 3.168-1.75 4.094-3.375l0.125-0.25v-0.25c0-2.973-0.602-6.223-1.344-8.906-0.386-1.409-0.791-2.573-1.262-3.703l0.075 0.203c-0.395-0.95-0.645-1.598-1.219-2.125l-0.031-0.032h-0.032c-2.557-2.054-6.062-2.437-6.062-2.437l-0.781-0.094-0.282 0.719s-0.289 0.73-0.468 1.563c-0.774-0.113-1.672-0.181-2.586-0.188l-0.008-0c-0.535 0-1.46 0.035-2.594 0.188-0.18-0.833-0.469-1.563-0.469-1.563zM11.281 7.22c0.043 0.14 0.086 0.261 0.125 0.375-1.293 0.32-2.672 0.808-3.937 1.593l1.062 1.688c2.594-1.61 6.32-1.844 7.469-1.844 1.148 0 4.875 0.234 7.469 1.844l1.062-1.688c-1.265-0.785-2.644-1.273-3.937-1.594 0.039-0.113 0.082-0.234 0.125-0.375 0.933 0.188 2.715 0.618 4.187 1.782-0.008 0.004 0.375 0.582 0.719 1.406 0.352 0.848 0.742 1.977 1.094 3.25 0.676 2.441 1.207 5.414 1.25 8.031-0.63 0.961-1.797 1.828-3.032 2.407-0.704 0.341-1.521 0.612-2.377 0.771l-0.060 0.009-0.5-0.843c0.297-0.11 0.59-0.23 0.844-0.344 1.539-0.676 2.375-1.406 2.375-1.406l-1.313-1.5s-0.562 0.516-1.875 1.094c-1.311 0.578-3.316 1.156-6.031 1.156s-4.719-0.578-6.031-1.156c-1.313-0.578-1.875-1.094-1.875-1.094l-1.313 1.5s0.836 0.73 2.375 1.406c0.191 0.091 0.469 0.207 0.753 0.314l0.091 0.030-0.5 0.844c-0.917-0.169-1.734-0.44-2.496-0.807l0.058 0.025c-1.234-0.578-2.402-1.445-3.030-2.406 0.042-2.617 0.573-5.59 1.25-8.031 0.356-1.31 0.729-2.391 1.163-3.44l-0.070 0.19c0.344-0.824 0.727-1.402 0.719-1.406 1.472-1.164 3.254-1.594 4.187-1.781zM12.5 14.031c-0.773 0-1.457 0.441-1.875 1s-0.625 1.246-0.625 2 0.207 1.441 0.625 2c0.418 0.559 1.102 1 1.875 1s1.457-0.441 1.875-1c0.418-0.559 0.625-1.246 0.625-2s-0.207-1.441-0.625-2c-0.418-0.559-1.102-1-1.875-1zM19.5 14.031c-0.773 0-1.457 0.441-1.875 1s-0.625 1.246-0.625 2 0.207 1.441 0.625 2c0.418 0.559 1.102 1 1.875 1s1.457-0.441 1.875-1c0.418-0.559 0.625-1.246 0.625-2s-0.207-1.441-0.625-2c-0.418-0.559-1.102-1-1.875-1zM12.5 16.032c0.055 0 0.125 0.020 0.25 0.188s0.25 0.46 0.25 0.812-0.125 0.645-0.25 0.813c-0.125 0.167-0.195 0.187-0.25 0.187s-0.125-0.020-0.25-0.188c-0.156-0.223-0.25-0.5-0.25-0.799 0-0.005 0-0.009 0-0.014v0.001c0-0.352 0.125-0.645 0.25-0.813s0.195-0.187 0.25-0.187zM19.5 16.032c0.055 0 0.125 0.020 0.25 0.188s0.25 0.46 0.25 0.812-0.125 0.645-0.25 0.813c-0.125 0.167-0.195 0.187-0.25 0.187s-0.125-0.020-0.25-0.188c-0.156-0.223-0.25-0.5-0.25-0.799 0-0.005 0-0.009 0-0.014v0.001c0-0.352 0.125-0.645 0.25-0.813s0.195-0.187 0.25-0.187z"/>
</svg>
