<svg version="1.1" xmlns="http://www.w3.org/2000/svg" width="32" height="32" viewBox="0 0 32 32">
<path fill="currentColor" d="M26.019 5.981c-2.644-2.644-6.922-2.644-9.563 0l-3.028 3.028 1.594 1.594 3.028-3.028c1.681-1.681 4.519-1.859 6.375 0 1.859 1.859 1.681 4.694 0 6.375l-3.028 3.028 1.597 1.597 3.028-3.028c2.637-2.644 2.637-6.922-0.003-9.566zM13.953 24.425c-1.681 1.681-4.519 1.859-6.375 0-1.859-1.859-1.681-4.694 0-6.375l3.028-3.028-1.597-1.597-3.028 3.028c-2.644 2.644-2.644 6.922 0 9.563s6.922 2.644 9.563 0l3.028-3.028-1.594-1.594-3.025 3.031zM8.134 6.544c-0.045-0.045-0.108-0.073-0.177-0.073s-0.131 0.028-0.177 0.073l-1.237 1.237c-0.045 0.045-0.073 0.108-0.073 0.177s0.028 0.131 0.073 0.177l17.325 17.325c0.097 0.097 0.256 0.097 0.353 0l1.238-1.238c0.097-0.097 0.097-0.256 0-0.353l-17.325-17.325z"/>
</svg>
