<svg version="1.1" xmlns="http://www.w3.org/2000/svg" width="32" height="32" viewBox="0 0 32 32">
<path fill="currentColor" d="M27.684 15.322c0.113-0.375 0.169-0.762 0.169-1.156 0-0.884-0.291-1.734-0.816-2.428 0.113-0.375 0.169-0.762 0.169-1.156 0-0.884-0.291-1.734-0.816-2.428 0.113-0.375 0.169-0.763 0.169-1.156 0-1.612-0.959-3.066-2.447-3.7-0.241-0.107-0.522-0.169-0.818-0.169-0.004 0-0.007 0-0.011 0h-18.784c-0.553 0-1 0.447-1 1v11.375c0 0.553 0.447 1 1 1h4.041l2.681 9.713c0.431 1.566 1.869 2.659 3.494 2.659 0.928 0 1.794-0.369 2.434-1.044 0.641-0.672 0.969-1.553 0.922-2.481l-0.188-3.841h7.497c0.378 0 0.747-0.1 1.072-0.291 1.262-0.734 2.047-2.066 2.047-3.469 0-0.884-0.291-1.734-0.816-2.428zM5.75 14.25v-8.875h2.531v8.875h-2.531zM25.35 19.262h-9.825l0.3 6.2c0.019 0.372-0.147 0.722-0.456 0.953-0.191 0.141-0.425 0.212-0.659 0.209-0.625-0.006-1.151-0.427-1.316-1l-0.002-0.010-3.109-11.266v-8.975h12.981c0.623 0.284 1.049 0.902 1.050 1.619v0c0 0.303-0.072 0.591-0.216 0.853l-0.434 0.794 0.684 0.594c0.376 0.327 0.613 0.806 0.613 1.341 0 0.001 0 0.002 0 0.003v-0c0 0.303-0.072 0.591-0.216 0.853l-0.434 0.794 0.684 0.594c0.376 0.327 0.613 0.806 0.613 1.341 0 0.001 0 0.002 0 0.003v-0c0 0.303-0.072 0.591-0.216 0.853l-0.438 0.797 0.684 0.594c0.376 0.327 0.613 0.806 0.613 1.341 0 0.001 0 0.002 0 0.003v-0c0 0.597-0.344 1.172-0.9 1.512z"/>
</svg>
