<svg version="1.1" xmlns="http://www.w3.org/2000/svg" width="32" height="32" viewBox="0 0 32 32">
<path fill="currentColor" d="M17.371 15.257h-2.894v-2.587h2.894zM17.371 6.313h-2.894v2.675h2.894zM20.791 12.67h-2.894v2.587h2.894zM13.951 9.513h-2.894v2.631h2.894zM17.371 9.513h-2.894v2.631h2.894zM29.518 13.898c-0.614-0.438-2.105-0.57-3.201-0.351-0.132-1.052-0.745-1.973-1.798-2.806l-0.614-0.395-0.395 0.614c-0.789 1.228-1.009 3.245-0.175 4.56-0.395 0.219-1.14 0.482-2.105 0.482h-19.119c-0.395 2.236 0.263 5.13 1.929 7.103 1.623 1.929 4.078 2.894 7.235 2.894 6.884 0 12.015-3.157 14.383-8.945 0.921 0 2.982 0 3.99-1.973 0.044-0.088 0.307-0.57 0.351-0.745zM7.11 12.67h-2.894v2.587h2.894zM10.531 12.67h-2.894v2.587h2.894zM13.951 12.67h-2.894v2.587h2.894zM10.531 9.513h-2.894v2.631h2.894z"/>
</svg>
