<svg version="1.1" xmlns="http://www.w3.org/2000/svg" width="32" height="32" viewBox="0 0 32 32">
<path fill="currentColor" d="M16 2c-7.731 0-14 6.269-14 14s6.269 14 14 14 14-6.269 14-14-6.269-14-14-14zM16 27.625c-6.419 0-11.625-5.206-11.625-11.625s5.206-11.625 11.625-11.625 11.625 5.206 11.625 11.625-5.206 11.625-11.625 11.625zM17.491 15.275l-0.794-0.184v-4.197c1.188 0.162 1.922 0.906 2.047 1.819 0.016 0.125 0.122 0.216 0.247 0.216h1.403c0.147 0 0.262-0.128 0.25-0.275-0.191-1.947-1.794-3.197-3.934-3.412v-1.022c0-0.137-0.113-0.25-0.25-0.25h-0.878c-0.137 0-0.25 0.113-0.25 0.25v1.031c-2.213 0.216-3.944 1.438-3.944 3.719 0 2.113 1.556 3.131 3.191 3.522l0.772 0.197v4.459c-1.381-0.184-2.156-0.922-2.316-1.916-0.019-0.119-0.125-0.206-0.247-0.206h-1.444c-0.147 0-0.262 0.125-0.25 0.272 0.141 1.719 1.444 3.3 4.225 3.503v0.981c0 0.137 0.113 0.25 0.25 0.25h0.887c0.137 0 0.25-0.113 0.25-0.253l-0.006-0.991c2.447-0.216 4.197-1.525 4.197-3.875-0.003-2.169-1.381-3.137-3.406-3.637zM15.347 14.769c-0.175-0.050-0.322-0.097-0.469-0.156-1.056-0.381-1.547-0.997-1.547-1.791 0-1.134 0.859-1.781 2.016-1.928v3.875zM16.697 21.156v-4.178c0.097 0.028 0.184 0.050 0.275 0.069 1.478 0.45 1.975 1.075 1.975 2.034 0 1.222-0.919 1.956-2.25 2.075z"/>
</svg>
