<svg version="1.1" xmlns="http://www.w3.org/2000/svg" width="32" height="32" viewBox="0 0 32 32">
<path fill="currentColor" d="M27.75 24.75h-21.5v-19.5c0-0.138-0.112-0.25-0.25-0.25h-1.75c-0.138 0-0.25 0.112-0.25 0.25v21.5c0 0.137 0.112 0.25 0.25 0.25h23.5c0.137 0 0.25-0.113 0.25-0.25v-1.75c0-0.137-0.113-0.25-0.25-0.25zM9 18.875c0 1.105 0.895 2 2 2s2-0.895 2-2v0c0-1.105-0.895-2-2-2s-2 0.895-2 2v0zM12.688 11.875c0 0.828 0.672 1.5 1.5 1.5s1.5-0.672 1.5-1.5v0c0-0.828-0.672-1.5-1.5-1.5s-1.5 0.672-1.5 1.5v0zM17.625 19c0 1.657 1.343 3 3 3s3-1.343 3-3v0c0-1.657-1.343-3-3-3s-3 1.343-3 3v0zM22.25 9.188c0 0.966 0.784 1.75 1.75 1.75s1.75-0.784 1.75-1.75v0c0-0.966-0.784-1.75-1.75-1.75s-1.75 0.784-1.75 1.75v0z"/>
</svg>
