<svg version="1.1" xmlns="http://www.w3.org/2000/svg" width="32" height="32" viewBox="0 0 32 32">
<path opacity="0.7744" fill="#000" d="M3.165 20.688c-0.333 0-0.61-0.103-0.832-0.309s-0.333-0.459-0.333-0.76c0-0.309 0.114-0.562 0.343-0.76s0.513-0.296 0.855-0.296c0.346 0 0.628 0.1 0.848 0.299s0.33 0.452 0.33 0.757c0 0.313-0.112 0.57-0.336 0.77s-0.515 0.299-0.874 0.299zM14.313 20.531h-2.093l-3.794-5.792c-0.223-0.339-0.377-0.594-0.462-0.765h-0.026c0.034 0.326 0.051 0.823 0.051 1.491v5.066h-1.958v-9.219h2.234l3.653 5.612c0.167 0.253 0.321 0.504 0.462 0.752h0.026c-0.034-0.214-0.051-0.636-0.051-1.266v-5.098h1.958z"/>
<path opacity="0.7744" fill="#000" d="M21.938 20.531h-5.531v-9.219h5.319v1.691h-3.242v2.051h3.016v1.684h-3.016v2.109h3.454z"/>
<path opacity="0.7744" fill="#000" d="M30 13.003h-2.624v7.528h-2.078v-7.528h-2.611v-1.691h7.313z"/>
</svg>
