<svg version="1.1" xmlns="http://www.w3.org/2000/svg" width="32" height="32" viewBox="0 0 32 32">
<path fill="currentColor" d="M8.528 16l8.294-10.597c0.128-0.162 0.012-0.403-0.197-0.403h-2.416c-0.153 0-0.3 0.072-0.394 0.191l-7.978 10.194c-0.133 0.168-0.213 0.383-0.213 0.617s0.080 0.449 0.215 0.619l-0.002-0.002 7.978 10.191c0.094 0.122 0.241 0.191 0.394 0.191h2.416c0.209 0 0.325-0.241 0.197-0.403l-8.294-10.597zM18.028 16l8.294-10.597c0.128-0.162 0.012-0.403-0.197-0.403h-2.416c-0.153 0-0.3 0.072-0.394 0.191l-7.978 10.194c-0.133 0.168-0.213 0.383-0.213 0.617s0.080 0.449 0.215 0.619l-0.002-0.002 7.978 10.191c0.094 0.122 0.241 0.191 0.394 0.191h2.416c0.209 0 0.325-0.241 0.197-0.403l-8.294-10.597z"/>
</svg>
