<svg version="1.1" xmlns="http://www.w3.org/2000/svg" width="32" height="32" viewBox="0 0 32 32">
<path fill="currentColor" d="M16.663 15.384l-7.978-10.194c-0.094-0.122-0.241-0.191-0.394-0.191h-2.416c-0.209 0-0.325 0.241-0.197 0.403l8.294 10.597-8.294 10.597c-0.033 0.042-0.053 0.096-0.053 0.154 0 0.138 0.112 0.249 0.249 0.249 0 0 0 0 0.001 0h2.416c0.153 0 0.3-0.072 0.394-0.191l7.978-10.191c0.284-0.366 0.284-0.872 0-1.234zM26.163 15.384l-7.978-10.194c-0.094-0.122-0.241-0.191-0.394-0.191h-2.416c-0.209 0-0.325 0.241-0.197 0.403l8.294 10.597-8.294 10.597c-0.033 0.042-0.053 0.096-0.053 0.154 0 0.138 0.112 0.249 0.249 0.249 0 0 0 0 0.001 0h2.416c0.153 0 0.3-0.072 0.394-0.191l7.978-10.191c0.284-0.366 0.284-0.872 0-1.234z"/>
</svg>
