<svg version="1.1" xmlns="http://www.w3.org/2000/svg" width="32" height="32" viewBox="0 0 32 32">
<path fill="currentColor" d="M15.797 20.584c0.1 0.137 0.303 0.137 0.403 0l5.563-7.688c0.119-0.166 0-0.397-0.203-0.397h-1.466c-0.319 0-0.622 0.153-0.809 0.412l-3.284 4.544-3.287-4.544c-0.188-0.259-0.488-0.412-0.809-0.412h-1.466c-0.203 0-0.322 0.231-0.203 0.397l5.563 7.688z"/>
<path fill="currentColor" d="M27.5 3.5h-23c-0.553 0-1 0.447-1 1v23c0 0.553 0.447 1 1 1h23c0.553 0 1-0.447 1-1v-23c0-0.553-0.447-1-1-1zM26.25 26.25h-20.5v-20.5h20.5v20.5z"/>
</svg>
