<svg version="1.1" xmlns="http://www.w3.org/2000/svg" width="32" height="32" viewBox="0 0 32 32">
<path fill="currentColor" d="M15.803 20.656c0.046 0.059 0.117 0.096 0.197 0.096s0.151-0.037 0.196-0.095l0-0.001 3.5-4.428c0.128-0.163 0.012-0.403-0.197-0.403h-2.316v-10.575c0-0.138-0.113-0.25-0.25-0.25h-1.875c-0.137 0-0.25 0.112-0.25 0.25v10.572h-2.309c-0.209 0-0.325 0.241-0.197 0.403l3.5 4.431zM27.438 19.563h-1.875c-0.137 0-0.25 0.113-0.25 0.25v4.813h-18.625v-4.813c0-0.137-0.112-0.25-0.25-0.25h-1.875c-0.138 0-0.25 0.113-0.25 0.25v6.188c0 0.553 0.447 1 1 1h21.375c0.553 0 1-0.447 1-1v-6.188c0-0.137-0.113-0.25-0.25-0.25z"/>
</svg>
