<svg version="1.1" xmlns="http://www.w3.org/2000/svg" width="32" height="32" viewBox="0 0 32 32">
<path fill="currentColor" d="M28.416 15.822l-3.988-3.147c-0.038-0.030-0.087-0.048-0.14-0.048-0.125 0-0.226 0.101-0.226 0.226 0 0 0 0 0 0.001v-0 2.022h-6.938v-6.938h2.025c0.188 0 0.294-0.219 0.178-0.366l-3.15-3.987c-0.041-0.053-0.105-0.087-0.177-0.087s-0.135 0.034-0.176 0.086l-0 0.001-3.15 3.987c-0.030 0.038-0.048 0.087-0.048 0.14 0 0.125 0.101 0.226 0.226 0.226 0 0 0 0 0.001 0h2.022v6.938h-6.938v-2.025c0-0.188-0.219-0.294-0.366-0.178l-3.987 3.15c-0.053 0.041-0.087 0.105-0.087 0.177s0.034 0.135 0.086 0.176l0.001 0 3.984 3.15c0.147 0.116 0.366 0.012 0.366-0.178v-2.022h6.938v6.938h-2.025c-0.188 0-0.294 0.219-0.178 0.366l3.15 3.984c0.091 0.116 0.266 0.116 0.353 0l3.15-3.984c0.116-0.147 0.012-0.366-0.178-0.366h-2.019v-6.938h6.938v2.025c0 0.188 0.219 0.294 0.366 0.178l3.984-3.15c0.053-0.042 0.087-0.107 0.087-0.179 0-0.071-0.033-0.135-0.084-0.177l-0-0z"/>
</svg>
