<svg version="1.1" xmlns="http://www.w3.org/2000/svg" width="32" height="32" viewBox="0 0 32 32">
<path fill="currentColor" d="M16 3c-7.169 0-13 5.831-13 13s5.831 13 13 13 13-5.831 13-13-5.831-13-13-13zM24.597 8.994c1.547 1.891 2.484 4.297 2.506 6.919-0.366-0.078-4.037-0.822-7.731-0.356-0.078-0.191-0.156-0.381-0.238-0.572-0.231-0.541-0.478-1.081-0.738-1.609 4.103-1.678 5.966-4.063 6.2-4.381zM16 4.912c2.822 0 5.4 1.059 7.359 2.797-0.2 0.284-1.872 2.531-5.819 4.013-1.819-3.344-3.834-6.088-4.144-6.5 0.853-0.206 1.725-0.309 2.603-0.309zM11.278 5.969c0.294 0.4 2.278 3.153 4.116 6.422-5.194 1.378-9.769 1.359-10.266 1.353 0.722-3.447 3.044-6.309 6.15-7.775zM4.897 16.016c0-0.113 0.003-0.228 0.006-0.341 0.484 0.009 5.866 0.078 11.412-1.581 0.319 0.622 0.622 1.253 0.9 1.884-0.147 0.041-0.294 0.084-0.438 0.131-5.728 1.856-8.775 6.903-9.028 7.331-1.772-1.969-2.853-4.572-2.853-7.425zM16 27.119c-2.569 0-4.934-0.875-6.816-2.344 0.2-0.409 2.447-4.75 8.709-6.934l0.072-0.025c1.559 4.050 2.203 7.447 2.369 8.422-1.269 0.557-2.749 0.881-4.304 0.881-0.011 0-0.021 0-0.032-0h0.002zM22.203 25.222c-0.113-0.675-0.703-3.925-2.156-7.916 3.481-0.556 6.538 0.356 6.916 0.475-0.494 3.087-2.266 5.756-4.759 7.441z"/>
</svg>
