<svg version="1.1" xmlns="http://www.w3.org/2000/svg" width="32" height="32" viewBox="0 0 32 32">
<path fill="currentColor" d="M26.706 9.034c-0.62-1.408-1.461-2.608-2.494-3.613l-0.003-0.003c-1.034-1.012-2.26-1.833-3.617-2.403l-0.076-0.028c-1.431-0.594-2.95-0.894-4.516-0.894s-3.084 0.3-4.516 0.891c-1.384 0.572-2.625 1.391-3.694 2.431-1.035 1.008-1.876 2.208-2.468 3.543l-0.029 0.072c-0.609 1.406-0.919 2.9-0.919 4.438 0 2.206 0.528 4.403 1.566 6.522 0.834 1.703 2 3.363 3.469 4.941 2.509 2.694 5.141 4.341 5.887 4.781 0.2 0.12 0.44 0.191 0.698 0.191 0.001 0 0.002 0 0.002 0h-0c0.244 0 0.484-0.063 0.7-0.191 0.747-0.441 3.378-2.087 5.887-4.781 1.469-1.575 2.634-3.238 3.469-4.941 1.044-2.116 1.572-4.309 1.572-6.519 0-1.537-0.309-3.031-0.919-4.438zM16 27.506c-2.059-1.309-9.375-6.494-9.375-14.034 0-2.434 0.972-4.722 2.738-6.447 1.772-1.728 4.128-2.681 6.637-2.681s4.866 0.953 6.637 2.684c1.766 1.722 2.738 4.009 2.738 6.444 0 7.541-7.316 12.725-9.375 14.034zM16 8.219c-3.037 0-5.5 2.463-5.5 5.5s2.463 5.5 5.5 5.5 5.5-2.462 5.5-5.5-2.462-5.5-5.5-5.5zM18.475 16.194c-0.631 0.633-1.505 1.025-2.47 1.025-0.002 0-0.004 0-0.006 0h0c-0.934 0-1.813-0.366-2.475-1.025-0.633-0.631-1.025-1.505-1.025-2.47 0-0.002 0-0.004 0-0.006v0c0-0.934 0.366-1.813 1.025-2.475 0.662-0.662 1.541-1.025 2.475-1.025s1.813 0.363 2.475 1.025c0.663 0.662 1.025 1.541 1.025 2.475s-0.363 1.813-1.025 2.475z"/>
</svg>
