<svg version="1.1" xmlns="http://www.w3.org/2000/svg" width="32" height="32" viewBox="0 0 32 32">
<path fill="currentColor" d="M10.688 2.75h-6.938c-0.553 0-1 0.447-1 1v7c0 0.275 0.225 0.5 0.5 0.5h1.5c0.275 0 0.5-0.225 0.5-0.5v-5.5h5.438c0.275 0 0.5-0.225 0.5-0.5v-1.5c0-0.275-0.225-0.5-0.5-0.5zM28.75 20.75h-1.5c-0.275 0-0.5 0.225-0.5 0.5v5.5h-5.438c-0.275 0-0.5 0.225-0.5 0.5v1.5c0 0.275 0.225 0.5 0.5 0.5h6.938c0.553 0 1-0.447 1-1v-7c0-0.275-0.225-0.5-0.5-0.5zM10.688 26.75h-5.438v-5.5c0-0.275-0.225-0.5-0.5-0.5h-1.5c-0.275 0-0.5 0.225-0.5 0.5v7c0 0.553 0.447 1 1 1h6.938c0.275 0 0.5-0.225 0.5-0.5v-1.5c0-0.275-0.225-0.5-0.5-0.5zM28.25 2.75h-6.938c-0.275 0-0.5 0.225-0.5 0.5v1.5c0 0.275 0.225 0.5 0.5 0.5h5.438v5.5c0 0.275 0.225 0.5 0.5 0.5h1.5c0.275 0 0.5-0.225 0.5-0.5v-7c0-0.553-0.447-1-1-1z"/>
</svg>
