<svg version="1.1" xmlns="http://www.w3.org/2000/svg" width="32" height="32" viewBox="0 0 32 32">
<path fill="currentColor" d="M16 14.75c0 0.69 0.56 1.25 1.25 1.25s1.25-0.56 1.25-1.25v0c0-0.69-0.56-1.25-1.25-1.25s-1.25 0.56-1.25 1.25v0zM27.469 25.778l-5.709-14.778v-5.438h2.241v-2.125h-16v2.125h2.241v5.438l-5.709 14.778c-0.088 0.231-0.134 0.475-0.134 0.722 0 1.103 0.897 2 2 2h19.206c0.247 0 0.491-0.047 0.722-0.134 1.031-0.397 1.544-1.556 1.144-2.587zM12.366 11.397v-5.772h7.269v5.772l2.841 7.353c-0.647-0.166-1.316-0.25-1.997-0.25-1.913 0-3.725 0.672-5.166 1.875-1.016 0.853-2.339 1.372-3.782 1.372-0.003 0-0.006 0-0.009 0h0c-1.022 0-2.003-0.259-2.869-0.741l3.713-9.609zM6.578 26.375l1.303-3.369c1.116 0.566 2.356 0.869 3.644 0.869 1.912 0 3.725-0.672 5.166-1.875 1.059-0.881 2.384-1.372 3.791-1.372 1.094 0 2.137 0.297 3.050 0.847l1.891 4.9h-18.844z"/>
</svg>
