<svg version="1.1" xmlns="http://www.w3.org/2000/svg" width="32" height="32" viewBox="0 0 32 32">
<path fill="currentColor" d="M29.444 15.194q-1.648-3.472-3.922-5.662l-1.59 1.59c1.297 1.239 2.426 2.86 3.402 4.879-2.6 5.381-6.291 7.938-11.334 7.938q-2.271 0-4.183-0.699l-1.723 1.723q2.656 1.227 5.906 1.227 9.009 0 13.444-9.384c0.114-0.236 0.18-0.512 0.18-0.805s-0.067-0.569-0.185-0.816l0.005 0.011zM27.457 5.174l-1.332-1.334c-0.045-0.045-0.108-0.073-0.177-0.073s-0.132 0.028-0.177 0.073v0l-3.418 3.416q-2.827-1.444-6.353-1.444-9.009 0-13.444 9.384c-0.114 0.236-0.18 0.512-0.18 0.805s0.067 0.569 0.185 0.816l-0.005-0.011q1.772 3.731 4.266 5.982l-3.307 3.306c-0.045 0.045-0.073 0.108-0.073 0.177s0.028 0.131 0.073 0.177l1.334 1.334c0.045 0.045 0.108 0.073 0.177 0.073s0.131-0.028 0.177-0.073l22.255-22.254c0.045-0.045 0.073-0.108 0.073-0.177s-0.028-0.132-0.073-0.177v0zM4.666 16c2.603-5.381 6.294-7.938 11.334-7.938 1.704 0 3.254 0.293 4.66 0.887l-2.197 2.197c-0.749-0.408-1.641-0.647-2.589-0.647-3.038 0-5.5 2.462-5.5 5.5 0 0.948 0.24 1.84 0.662 2.618l-0.014-0.029-2.607 2.607c-1.443-1.273-2.687-2.999-3.749-5.195zM12.375 16c0.002-1.933 1.57-3.5 3.503-3.5 0.381 0 0.747 0.061 1.090 0.173l-0.025-0.007-4.403 4.403c-0.105-0.318-0.166-0.684-0.166-1.065 0-0.001 0-0.003 0-0.004v0z"/>
<path fill="currentColor" d="M15.875 19.5c-0.108 0-0.215-0.005-0.32-0.015l-1.651 1.651c0.584 0.23 1.26 0.364 1.968 0.364 3.039 0 5.503-2.464 5.503-5.503 0-0.708-0.134-1.384-0.377-2.005l0.013 0.037-1.651 1.651c0.010 0.106 0.015 0.212 0.015 0.32 0 0.001 0 0.001 0 0.002 0 1.932-1.566 3.498-3.498 3.498-0.001 0-0.001 0-0.002 0h0z"/>
</svg>
