<svg version="1.1" xmlns="http://www.w3.org/2000/svg" width="32" height="32" viewBox="0 0 32 32">
<path fill="currentColor" d="M29.444 15.194c-2.962-6.241-7.441-9.381-13.444-9.381-6.006 0-10.481 3.141-13.444 9.384-0.114 0.236-0.18 0.512-0.18 0.805s0.067 0.569 0.185 0.816l-0.005-0.011c2.962 6.241 7.441 9.381 13.444 9.381 6.006 0 10.481-3.141 13.444-9.384 0.241-0.506 0.241-1.094 0-1.609zM16 23.938c-5.041 0-8.731-2.556-11.334-7.938 2.603-5.381 6.294-7.938 11.334-7.938s8.731 2.556 11.334 7.938c-2.6 5.381-6.291 7.938-11.334 7.938zM15.875 10.5c-3.037 0-5.5 2.463-5.5 5.5s2.463 5.5 5.5 5.5 5.5-2.462 5.5-5.5-2.462-5.5-5.5-5.5zM15.875 19.5c-1.934 0-3.5-1.566-3.5-3.5s1.566-3.5 3.5-3.5 3.5 1.566 3.5 3.5-1.566 3.5-3.5 3.5z"/>
</svg>
