<svg version="1.1" xmlns="http://www.w3.org/2000/svg" width="32" height="32" viewBox="0 0 32 32">
<path fill="currentColor" d="M28.934 25.125l-0.75-6.225c-0.025-0.206-0.278-0.294-0.425-0.147l-1.853 1.856-8.478-8.475c-0.197-0.194-0.512-0.194-0.706 0l-3.181 3.178-8.647-8.647c-0.045-0.045-0.108-0.073-0.177-0.073s-0.131 0.028-0.177 0.073l0-0-1.406 1.413c-0.045 0.045-0.073 0.108-0.073 0.177s0.028 0.131 0.073 0.177l10.053 10.059c0.194 0.197 0.512 0.197 0.706 0l3.181-3.178 7.066 7.062-1.853 1.853c-0.045 0.045-0.073 0.108-0.073 0.177 0 0.127 0.095 0.233 0.218 0.248l0.001 0 6.225 0.75c0.159 0.022 0.297-0.116 0.275-0.278z"/>
</svg>
