<svg version="1.1" xmlns="http://www.w3.org/2000/svg" width="32" height="32" viewBox="0 0 32 32">
<path fill="currentColor" d="M16.175 8.547l-8.981 7.056c-0.118 0.093-0.193 0.236-0.193 0.397s0.075 0.304 0.192 0.396l0.001 0.001 8.981 7.056c0.334 0.262 0.825 0.025 0.825-0.397v-14.113c0-0.422-0.491-0.659-0.825-0.397zM26.175 8.547l-8.981 7.056c-0.118 0.093-0.193 0.236-0.193 0.397s0.075 0.304 0.192 0.396l0.001 0.001 8.981 7.056c0.334 0.262 0.825 0.025 0.825-0.397v-14.113c0-0.422-0.491-0.659-0.825-0.397zM6.8 7.75h-1.6c-0.109 0-0.2 0.084-0.2 0.188v16.125c0 0.103 0.091 0.188 0.2 0.188h1.6c0.109 0 0.2-0.084 0.2-0.188v-16.125c0-0.103-0.091-0.188-0.2-0.188z"/>
</svg>
