<svg version="1.1" xmlns="http://www.w3.org/2000/svg" width="32" height="32" viewBox="0 0 32 32">
<path fill="currentColor" d="M18.75 12.356h2.844v7.925h2.469v-11.938c0-0.137-0.113-0.25-0.25-0.25h-1.506c-0.116 0-0.219 0.081-0.241 0.197-0.081 0.378-0.216 0.697-0.403 0.966-0.225 0.316-0.497 0.569-0.822 0.762-0.322 0.194-0.688 0.328-1.094 0.403-0.325 0.059-0.656 0.094-1 0.097-0.137 0.003-0.247 0.113-0.247 0.25v1.338c0 0.137 0.113 0.25 0.25 0.25zM27.219 21.938h-9.5c-0.137 0-0.25 0.113-0.25 0.25v1.5c0 0.137 0.113 0.25 0.25 0.25h9.5c0.137 0 0.25-0.113 0.25-0.25v-1.5c0-0.137-0.113-0.25-0.25-0.25zM13.872 9.772c-0.503-0.594-1.075-1.012-1.725-1.262-0.666-0.256-1.378-0.384-2.138-0.384-0.747 0-1.45 0.128-2.116 0.384-0.65 0.25-1.219 0.669-1.713 1.259-0.497 0.597-0.897 1.397-1.197 2.406-0.3 1.016-0.453 2.281-0.453 3.797 0 1.559 0.153 2.856 0.453 3.887 0.3 1.025 0.7 1.834 1.197 2.428 0.494 0.591 1.063 1.009 1.713 1.259 0.666 0.256 1.369 0.384 2.116 0.384 0.762 0 1.475-0.128 2.137-0.384 0.65-0.25 1.225-0.669 1.725-1.262 0.503-0.594 0.906-1.403 1.206-2.428 0.3-1.031 0.453-2.328 0.453-3.887 0-1.512-0.153-2.778-0.453-3.797-0.297-1.003-0.7-1.803-1.206-2.4zM12.95 17.637c-0.031 0.669-0.131 1.313-0.297 1.934-0.172 0.647-0.453 1.203-0.844 1.669-0.425 0.509-1.037 0.759-1.8 0.759-0.75 0-1.35-0.253-1.772-0.762-0.381-0.462-0.659-1.019-0.831-1.666-0.166-0.622-0.266-1.269-0.297-1.934-0.031-0.65-0.047-1.203-0.047-1.662 0-0.275 0.003-0.606 0.013-0.994 0.006-0.397 0.034-0.806 0.081-1.225 0.047-0.425 0.125-0.847 0.237-1.266 0.116-0.431 0.275-0.822 0.481-1.169 0.216-0.363 0.494-0.659 0.834-0.884 0.356-0.238 0.791-0.353 1.297-0.353 0.503 0 0.941 0.116 1.303 0.35 0.347 0.225 0.634 0.519 0.856 0.881 0.216 0.35 0.378 0.744 0.488 1.178 0.103 0.412 0.181 0.831 0.234 1.253 0.056 0.422 0.088 0.831 0.094 1.231 0.006 0.387 0.012 0.719 0.012 0.994 0.003 0.463-0.012 1.016-0.044 1.666z"/>
</svg>
