<svg version="1.1" xmlns="http://www.w3.org/2000/svg" width="32" height="32" viewBox="0 0 32 32">
<path fill="currentColor" d="M27.363 16.122c0.066 0.025 0.137-0.009 0.163-0.075 0.006-0.012 0.006-0.028 0.006-0.044v-1.822c0-0.056-0.034-0.103-0.087-0.119-0.188-0.056-0.538-0.094-0.85-0.094-1.028 0-1.928 0.522-2.297 1.287v-0.894c0-0.137-0.113-0.25-0.25-0.25h-1.641c-0.137 0-0.25 0.113-0.25 0.25v8.419c0 0.137 0.113 0.25 0.25 0.25h1.712c0.137 0 0.25-0.113 0.25-0.25v-4.884c0-1.131 0.816-1.881 2.034-1.881 0.325 0.003 0.831 0.056 0.959 0.106zM10.581 14.856l-1.709-0.394c-1.912-0.444-2.741-1.088-2.741-2.209 0-1.394 1.222-2.297 3.028-2.297 1.65 0 2.856 0.828 3.122 2.153h2.188c-0.222-2.372-2.356-4.016-5.3-4.016-3.228 0-5.344 1.734-5.344 4.344 0 2.144 1.206 3.422 3.819 4.016l1.925 0.447c1.988 0.466 2.862 1.159 2.862 2.347 0 1.378-1.359 2.35-3.203 2.35-1.894 0-3.266-0.85-3.525-2.203h-2.234c0.225 2.497 2.362 4.075 5.597 4.075 3.506 0 5.653-1.744 5.653-4.553 0-2.194-1.206-3.391-4.137-4.059z"/>
<path fill="currentColor" d="M26.281 22.781c0 0.621 0.504 1.125 1.125 1.125s1.125-0.504 1.125-1.125v0c0-0.621-0.504-1.125-1.125-1.125s-1.125 0.504-1.125 1.125v0z"/>
<path fill="currentColor" d="M20.406 14.306h-1.606v-1.931c0-0.137-0.113-0.25-0.25-0.25h-1.709c-0.137 0-0.25 0.113-0.25 0.25v1.931h-1.122c-0.137 0-0.25 0.113-0.25 0.25v1.322c0 0.137 0.113 0.25 0.25 0.25h1.122v4.609c0 1.756 0.856 2.481 2.909 2.481 0.366 0 0.738-0.038 1.056-0.097 0.059-0.009 0.1-0.063 0.1-0.122v-1.541c0-0.069-0.056-0.125-0.125-0.125h-0.012c-0.153 0.016-0.194 0.019-0.259 0.025-0.128 0.009-0.244 0.016-0.394 0.016-0.753 0-1.066-0.322-1.066-1.113v-4.134h1.606c0.137 0 0.25-0.113 0.25-0.25v-1.322c0-0.137-0.113-0.25-0.25-0.25z"/>
</svg>
