<svg version="1.1" xmlns="http://www.w3.org/2000/svg" width="32" height="32" viewBox="0 0 32 32">
<path fill="currentColor" d="M15.875 8.75h-1.978c-0.103 0-0.188 0.084-0.188 0.188v10.631h-0.178l-7.362-10.738c-0.034-0.050-0.094-0.081-0.153-0.081h-2.078c-0.103 0-0.188 0.084-0.188 0.188v14.5c0 0.103 0.084 0.188 0.188 0.188h1.959c0.103 0 0.188-0.084 0.188-0.188v-10.778h0.178l7.444 10.884c0.034 0.050 0.094 0.081 0.156 0.081h2.013c0.103 0 0.188-0.084 0.188-0.188v-14.5c0-0.103-0.084-0.188-0.188-0.188zM27.688 21.656h-9.5c-0.137 0-0.25 0.113-0.25 0.25v1.5c0 0.137 0.113 0.25 0.25 0.25h9.5c0.137 0 0.25-0.113 0.25-0.25v-1.5c0-0.137-0.113-0.25-0.25-0.25zM22.931 19.688c1.653 0 2.975-0.538 3.944-1.616 0.919-1.028 1.375-2.369 1.375-4.025 0-1.659-0.456-3.016-1.375-4.041-0.966-1.088-2.288-1.631-3.944-1.631-1.678 0-2.997 0.547-3.947 1.65-0.913 1.034-1.356 2.372-1.356 4.022 0 1.637 0.447 2.975 1.359 4.009 0.956 1.084 2.281 1.631 3.944 1.631zM20.697 11.447c0.528-0.644 1.259-0.966 2.231-0.966 0.984 0 1.712 0.3 2.219 0.909 0.512 0.634 0.778 1.519 0.778 2.653s-0.262 2.003-0.775 2.622c-0.516 0.606-1.25 0.913-2.222 0.913-0.975 0-1.719-0.322-2.231-0.95-0.509-0.628-0.766-1.478-0.766-2.581 0.003-1.119 0.256-1.969 0.766-2.6z"/>
</svg>
