<svg version="1.1" xmlns="http://www.w3.org/2000/svg" width="32" height="32" viewBox="0 0 32 32">
<path fill="currentColor" d="M27.331 9.431l-8.681-8.766c-0.141-0.141-0.294-0.259-0.459-0.359-0.044-0.025-0.087-0.050-0.134-0.072-0.028-0.016-0.059-0.028-0.087-0.041-0.281-0.125-0.591-0.194-0.906-0.194h-10.781c-1.244 0-2.281 1.006-2.281 2.25v27.5c0 1.244 1.037 2.25 2.281 2.25h19.469c1.244 0 2.219-1.006 2.219-2.25v-18.734c0-0.594-0.219-1.162-0.637-1.584zM18.219 3.45l6.275 6.3h-6.275v-6.3zM25.719 29.75h-19.469v-27.5h9.719v7.5c0 1.244 1.038 2.25 2.281 2.25h7.469v17.75zM10.938 21.766c0 0.756-0.234 0.981-0.684 0.981-0.281 0-0.575-0.181-0.775-0.578l-0.95 0.706c0.419 0.716 1.009 1.069 1.916 1.069 1.3 0 1.9-0.934 1.9-2.069v-3.844h-1.406v3.734zM15.666 18.031h-2.009v5.813h1.375v-1.938h0.675c1.222 0 2.284-0.613 2.284-1.988 0-1.431-1.047-1.887-2.325-1.887zM15.641 20.813h-0.609v-1.656h0.569c0.672 0 1.044 0.194 1.044 0.778 0 0.566-0.328 0.878-1.003 0.878zM21.344 20.531v1.125h0.938v0.941c-0.125 0.091-0.344 0.147-0.553 0.147-1.072 0-1.584-0.669-1.584-1.819 0-1.128 0.616-1.794 1.472-1.794 0.478 0 0.781 0.194 1.063 0.45l0.741-0.884c-0.397-0.4-1.003-0.756-1.85-0.756-1.55 0-2.847 1.103-2.847 3.031 0 1.959 1.25 2.972 2.859 2.972 0.809 0 1.538-0.319 1.922-0.706v-2.706h-2.159z"/>
</svg>
