<svg version="1.1" xmlns="http://www.w3.org/2000/svg" width="32" height="32" viewBox="0 0 32 32">
<path fill="currentColor" d="M17.284 15.909l-2.431 3.1-1.284-1.637c-0.046-0.059-0.117-0.096-0.197-0.096s-0.151 0.037-0.196 0.095l-0 0.001-3.119 3.975c-0.033 0.042-0.053 0.096-0.053 0.154 0 0.138 0.112 0.249 0.249 0.249 0 0 0 0 0.001 0h11.497c0.209 0 0.325-0.241 0.197-0.403l-4.266-5.438c-0.047-0.059-0.118-0.096-0.198-0.096s-0.152 0.037-0.198 0.095l-0 0.001zM11.25 13.813c0 0.69 0.56 1.25 1.25 1.25s1.25-0.56 1.25-1.25v0c0-0.69-0.56-1.25-1.25-1.25s-1.25 0.56-1.25 1.25v0zM26.706 9.019l-6.725-6.725c-0.188-0.188-0.441-0.294-0.706-0.294h-13.275c-0.553 0-1 0.447-1 1v26c0 0.553 0.447 1 1 1h20c0.553 0 1-0.447 1-1v-19.272c0-0.266-0.106-0.522-0.294-0.709zM24.694 10.188h-5.881v-5.881l5.881 5.881zM24.75 27.75h-17.5v-23.5h9.438v6.75c0 0.725 0.588 1.313 1.313 1.313v0h6.75v15.438z"/>
</svg>
