<svg version="1.1" xmlns="http://www.w3.org/2000/svg" width="32" height="32" viewBox="0 0 32 32">
<path fill="currentColor" d="M9.25 12.25h2v2h-2zM9.25 18.188v5h4v-5h-2v-1.938h-2v1.938zM11.75 19.688v2h-1v-2h1zM11.25 10.25h2v2h-2zM9.25 8.25h2v2h-2zM11.25 14.25h2v2h-2zM11.25 6.25h2v2h-2zM26.706 9.019l-6.725-6.725c-0.188-0.188-0.441-0.294-0.706-0.294h-13.275c-0.553 0-1 0.447-1 1v26c0 0.553 0.447 1 1 1h20c0.553 0 1-0.447 1-1v-19.272c0-0.266-0.106-0.522-0.294-0.709zM24.694 10.188h-5.881v-5.881l5.881 5.881zM24.75 27.75h-17.5v-23.5h2v2h2v-2h5.438v6.75c0 0.725 0.588 1.313 1.313 1.313v0h6.75v15.438z"/>
</svg>
