<svg version="1.1" xmlns="http://www.w3.org/2000/svg" width="32" height="32" viewBox="0 0 32 32">
<path fill="currentColor" d="M9.25 8c-0.137 0-0.25 0.113-0.25 0.25v1.5c0 0.137 0.113 0.25 0.25 0.25h12c0.137 0 0.25-0.113 0.25-0.25v-1.5c0-0.137-0.113-0.25-0.25-0.25h-12zM15.25 14.25v-1.5c0-0.137-0.113-0.25-0.25-0.25h-5.75c-0.137 0-0.25 0.113-0.25 0.25v1.5c0 0.137 0.113 0.25 0.25 0.25h5.75c0.137 0 0.25-0.113 0.25-0.25zM13.75 26.625h-7.25v-22h17.5v10.75c0 0.137 0.113 0.25 0.25 0.25h1.75c0.137 0 0.25-0.113 0.25-0.25v-12c0-0.553-0.447-1-1-1h-20c-0.553 0-1 0.447-1 1v24.5c0 0.553 0.447 1 1 1h8.5c0.137 0 0.25-0.113 0.25-0.25v-1.75c0-0.137-0.113-0.25-0.25-0.25zM17.003 23.012c0.056-1.078 0.506-2.087 1.275-2.856 0.819-0.819 1.938-1.281 3.097-1.281 1.169 0 2.269 0.456 3.097 1.281 0.1 0.1 0.197 0.206 0.288 0.316l-0.722 0.559c-0.059 0.046-0.097 0.118-0.097 0.198 0 0.117 0.080 0.215 0.189 0.243l0.002 0 2.916 0.703c0.156 0.038 0.306-0.081 0.309-0.241l0.019-2.981c0-0.001 0-0.002 0-0.002 0-0.138-0.112-0.25-0.25-0.25-0.058 0-0.111 0.020-0.154 0.053l0.001-0-0.634 0.494c-1.169-1.447-2.959-2.372-4.962-2.372-3.434 0-6.238 2.716-6.375 6.116-0.006 0.141 0.109 0.259 0.25 0.259h1.503c0.134 0 0.244-0.103 0.25-0.238zM27.5 23.25h-1.503c-0.134 0-0.244 0.103-0.25 0.238-0.056 1.078-0.506 2.087-1.275 2.856-0.819 0.819-1.938 1.281-3.097 1.281-1.169 0-2.269-0.456-3.097-1.281-0.1-0.1-0.197-0.206-0.288-0.316l0.722-0.559c0.059-0.046 0.097-0.118 0.097-0.198 0-0.117-0.080-0.215-0.189-0.243l-0.002-0-2.916-0.703c-0.156-0.038-0.306 0.081-0.309 0.241l-0.019 2.981c0 0.001 0 0.002 0 0.002 0 0.138 0.112 0.25 0.25 0.25 0.058 0 0.111-0.020 0.154-0.053l-0.001 0 0.634-0.494c1.169 1.447 2.959 2.372 4.962 2.372 3.434 0 6.238-2.716 6.375-6.116 0.006-0.141-0.109-0.259-0.25-0.259z"/>
</svg>
