<svg version="1.1" xmlns="http://www.w3.org/2000/svg" width="32" height="32" viewBox="0 0 32 32">
<path fill="currentColor" d="M17.234 15.328h-0.953c-0.144 0-0.262 0.116-0.262 0.262v6.909c0 0.144 0.116 0.262 0.262 0.262h0.953c0.144 0 0.262-0.116 0.262-0.262v-6.909c-0.003-0.144-0.119-0.262-0.262-0.262zM14.916 18.75h-2.753c-0.144 0-0.262 0.116-0.262 0.262v0.744c0 0.144 0.116 0.262 0.262 0.262h1.488v0.022c-0.019 0.934-0.719 1.556-1.766 1.556-1.225 0-1.988-0.959-1.988-2.544 0-1.566 0.747-2.519 1.947-2.519 0.878 0 1.484 0.422 1.731 1.197l0.028 0.087h1.537l-0.022-0.144c-0.247-1.553-1.534-2.55-3.275-2.55-2.15 0-3.531 1.544-3.531 3.934 0 2.422 1.366 3.941 3.55 3.941 2.012 0 3.313-1.259 3.313-3.216v-0.775c0-0.144-0.116-0.259-0.259-0.259z"/>
<path fill="currentColor" d="M26.706 9.019l-6.725-6.725c-0.188-0.188-0.441-0.294-0.706-0.294h-13.275c-0.553 0-1 0.447-1 1v26c0 0.553 0.447 1 1 1h20c0.553 0 1-0.447 1-1v-19.272c0-0.266-0.106-0.522-0.294-0.709zM18.813 4.306l5.881 5.881h-5.881v-5.881zM24.75 27.75h-17.5v-23.5h9.438v6.75c0 0.725 0.587 1.313 1.313 1.313h6.75v15.438z"/>
<path fill="currentColor" d="M19.006 22.744h1.009c0.144 0 0.262-0.116 0.262-0.262v-2.65h2.744c0.144 0 0.262-0.116 0.262-0.262v-0.797c0-0.144-0.116-0.262-0.262-0.262h-2.744v-1.841h3.025c0.144 0 0.262-0.116 0.262-0.262v-0.838c0-0.144-0.116-0.262-0.262-0.262h-4.297c-0.144 0-0.262 0.116-0.262 0.262v6.909c0 0.15 0.119 0.266 0.262 0.266z"/>
</svg>
