<svg version="1.1" xmlns="http://www.w3.org/2000/svg" width="32" height="32" viewBox="0 0 32 32">
<path fill="currentColor" d="M20.147 20.913c-0.045-0.063-0.119-0.103-0.201-0.103-0.001 0-0.001 0-0.002 0h-1.381c-0.203 0-0.322 0.231-0.203 0.397l2.306 3.191c0.1 0.137 0.303 0.137 0.403 0l3.569-4.938c0.119-0.166 0-0.397-0.203-0.397h-1.384c-0.081 0-0.156 0.038-0.203 0.103l-1.984 2.744-0.716-0.997zM21.5 9.563v-1.5c0-0.138-0.113-0.25-0.25-0.25h-12c-0.137 0-0.25 0.112-0.25 0.25v1.5c0 0.137 0.113 0.25 0.25 0.25h12c0.137 0 0.25-0.113 0.25-0.25zM9.25 12.313c-0.137 0-0.25 0.113-0.25 0.25v1.5c0 0.137 0.113 0.25 0.25 0.25h5.75c0.137 0 0.25-0.113 0.25-0.25v-1.5c0-0.137-0.113-0.25-0.25-0.25h-5.75zM15 26.625h-8.5v-22h17.5v9.25c0 0.137 0.113 0.25 0.25 0.25h1.75c0.137 0 0.25-0.113 0.25-0.25v-10.5c0-0.553-0.447-1-1-1h-20c-0.553 0-1 0.447-1 1v24.5c0 0.553 0.447 1 1 1h9.75c0.137 0 0.25-0.113 0.25-0.25v-1.75c0-0.137-0.113-0.25-0.25-0.25zM27.581 16.6l-6-2.084c-0.028-0.009-0.053-0.012-0.081-0.012s-0.056 0.003-0.081 0.012l-6 2.084c-0.099 0.034-0.168 0.126-0.169 0.234v7.847c0 0.078 0.034 0.15 0.097 0.197l6 4.694c0.044 0.034 0.1 0.053 0.153 0.053s0.109-0.019 0.153-0.053l6-4.694c0.059-0.047 0.097-0.119 0.097-0.197v-7.847c0-0.106-0.069-0.2-0.169-0.234zM25.813 23.866l-4.313 3.372-4.313-3.372v-5.834l4.313-1.5 4.313 1.5v5.834z"/>
</svg>
