<svg version="1.1" xmlns="http://www.w3.org/2000/svg" width="32" height="32" viewBox="0 0 32 32">
<path fill="currentColor" d="M26.706 9.019l-6.725-6.725c-0.188-0.188-0.441-0.294-0.706-0.294h-13.275c-0.553 0-1 0.447-1 1v26c0 0.553 0.447 1 1 1h20c0.553 0 1-0.447 1-1v-19.272c0-0.266-0.106-0.522-0.294-0.709zM24.694 10.188h-5.881v-5.881l5.881 5.881zM24.75 27.75h-17.5v-23.5h9.438v6.75c0 0.725 0.588 1.313 1.313 1.313v0h6.75v15.438zM13.406 15.037c-0.059-0.137-0.194-0.225-0.344-0.225h-1.094c-0.206 0-0.375 0.169-0.375 0.375v8.5c0 0.206 0.169 0.375 0.375 0.375h0.847c0.206 0 0.375-0.169 0.375-0.375v-5.497l2.088 4.694c0.060 0.132 0.191 0.222 0.342 0.222 0.001 0 0.001 0 0.002 0h0.753c0.147 0 0.281-0.087 0.344-0.222l2.087-4.706v5.509c0 0.206 0.169 0.375 0.375 0.375h0.85c0.206 0 0.375-0.169 0.375-0.375v-8.5c0-0.206-0.169-0.375-0.375-0.375h-1.084c-0.15 0-0.284 0.088-0.344 0.225l-2.597 5.969-2.6-5.969z"/>
</svg>
