<svg version="1.1" xmlns="http://www.w3.org/2000/svg" width="32" height="32" viewBox="0 0 32 32">
<path fill="currentColor" d="M21.5 9.75v-1.5c0-0.137-0.113-0.25-0.25-0.25h-12c-0.137 0-0.25 0.113-0.25 0.25v1.5c0 0.137 0.113 0.25 0.25 0.25h12c0.137 0 0.25-0.113 0.25-0.25zM9.25 12.5c-0.137 0-0.25 0.113-0.25 0.25v1.5c0 0.137 0.113 0.25 0.25 0.25h5.75c0.137 0 0.25-0.113 0.25-0.25v-1.5c0-0.137-0.113-0.25-0.25-0.25h-5.75zM13.75 26.625h-7.25v-22h17.5v10.75c0 0.137 0.113 0.25 0.25 0.25h1.75c0.137 0 0.25-0.113 0.25-0.25v-12c0-0.553-0.447-1-1-1h-20c-0.553 0-1 0.447-1 1v24.5c0 0.553 0.447 1 1 1h8.5c0.137 0 0.25-0.113 0.25-0.25v-1.75c0-0.137-0.113-0.25-0.25-0.25zM27.678 28.234l-2.916-2.916c0.697-0.922 1.113-2.072 1.113-3.319 0-3.038-2.462-5.5-5.5-5.5s-5.5 2.462-5.5 5.5 2.462 5.5 5.5 5.5c1.119 0 2.156-0.334 3.025-0.906l2.959 2.959c0.050 0.050 0.113 0.072 0.175 0.072s0.128-0.025 0.175-0.072l0.969-0.969c0.045-0.045 0.073-0.107 0.073-0.175s-0.028-0.13-0.073-0.175v0zM20.375 25.5c-1.934 0-3.5-1.566-3.5-3.5s1.566-3.5 3.5-3.5 3.5 1.566 3.5 3.5-1.566 3.5-3.5 3.5z"/>
</svg>
