<svg version="1.1" xmlns="http://www.w3.org/2000/svg" width="32" height="32" viewBox="0 0 32 32">
<path fill="currentColor" d="M21.5 9.75v-1.5c0-0.137-0.113-0.25-0.25-0.25h-12c-0.137 0-0.25 0.113-0.25 0.25v1.5c0 0.137 0.113 0.25 0.25 0.25h12c0.137 0 0.25-0.113 0.25-0.25zM9.25 12.5c-0.137 0-0.25 0.113-0.25 0.25v1.5c0 0.137 0.113 0.25 0.25 0.25h5.75c0.137 0 0.25-0.113 0.25-0.25v-1.5c0-0.137-0.113-0.25-0.25-0.25h-5.75zM21 16.125c-3.728 0-6.75 3.022-6.75 6.75s3.022 6.75 6.75 6.75 6.75-3.022 6.75-6.75-3.022-6.75-6.75-6.75zM24.359 26.234c-0.897 0.897-2.091 1.391-3.359 1.391s-2.462-0.494-3.359-1.391c-0.897-0.897-1.391-2.091-1.391-3.359s0.494-2.462 1.391-3.359c0.897-0.897 2.091-1.391 3.359-1.391s2.462 0.494 3.359 1.391c0.897 0.897 1.391 2.091 1.391 3.359s-0.494 2.462-1.391 3.359zM23.781 20.5h-1.384c-0.081 0-0.156 0.038-0.203 0.103l-1.984 2.744-0.722-0.997c-0.045-0.063-0.119-0.103-0.201-0.103-0.001 0-0.001 0-0.002 0h-1.378c-0.203 0-0.322 0.231-0.203 0.397l2.306 3.191c0.1 0.137 0.303 0.137 0.403 0l3.569-4.938c0.122-0.166 0.003-0.397-0.2-0.397zM13.75 26.625h-7.25v-22h17.5v10.75c0 0.137 0.113 0.25 0.25 0.25h1.75c0.137 0 0.25-0.113 0.25-0.25v-12c0-0.553-0.447-1-1-1h-20c-0.553 0-1 0.447-1 1v24.5c0 0.553 0.447 1 1 1h8.5c0.137 0 0.25-0.113 0.25-0.25v-1.75c0-0.137-0.113-0.25-0.25-0.25z"/>
</svg>
