<svg version="1.1" xmlns="http://www.w3.org/2000/svg" width="32" height="32" viewBox="0 0 32 32">
<path fill="currentColor" d="M16.603 17.95l0.009-0.044c0.181-0.747 0.409-1.678 0.231-2.522-0.119-0.666-0.609-0.925-1.028-0.944-0.494-0.022-0.934 0.259-1.044 0.669-0.206 0.75-0.022 1.775 0.316 3.081-0.425 1.012-1.103 2.484-1.6 3.359-0.925 0.478-2.166 1.216-2.35 2.147-0.037 0.172 0.006 0.391 0.109 0.587 0.116 0.219 0.3 0.387 0.516 0.469 0.094 0.034 0.206 0.063 0.338 0.063 0.55 0 1.441-0.444 2.628-2.481 0.181-0.059 0.369-0.122 0.55-0.184 0.85-0.288 1.731-0.587 2.528-0.722 0.881 0.472 1.884 0.775 2.566 0.775 0.675 0 0.941-0.4 1.041-0.641 0.175-0.422 0.091-0.953-0.194-1.238-0.413-0.406-1.416-0.512-2.978-0.319-0.769-0.469-1.272-1.106-1.637-2.056zM13.175 22.697c-0.434 0.631-0.762 0.947-0.941 1.084 0.209-0.384 0.619-0.791 0.941-1.084zM15.912 15.338c0.162 0.278 0.141 1.119 0.016 1.544-0.153-0.622-0.175-1.503-0.084-1.606 0.025 0.003 0.047 0.022 0.069 0.063zM15.863 19.103c0.334 0.578 0.756 1.075 1.222 1.444-0.675 0.153-1.291 0.406-1.841 0.631-0.131 0.053-0.259 0.106-0.384 0.156 0.416-0.753 0.762-1.606 1.003-2.231zM20.725 21.15c0.003 0.006 0.006 0.016-0.012 0.028h-0.006l-0.006 0.009c-0.025 0.016-0.281 0.166-1.384-0.269 1.269-0.059 1.406 0.228 1.409 0.231zM26.706 9.019l-6.725-6.725c-0.188-0.188-0.441-0.294-0.706-0.294h-13.275c-0.553 0-1 0.447-1 1v26c0 0.553 0.447 1 1 1h20c0.553 0 1-0.447 1-1v-19.272c0-0.266-0.106-0.522-0.294-0.709zM24.694 10.188h-5.881v-5.881l5.881 5.881zM24.75 27.75h-17.5v-23.5h9.438v6.75c0 0.725 0.588 1.313 1.313 1.313v0h6.75v15.438z"/>
</svg>
