<svg version="1.1" xmlns="http://www.w3.org/2000/svg" width="32" height="32" viewBox="0 0 32 32">
<path fill="currentColor" d="M26.706 9.019l-6.725-6.725c-0.188-0.188-0.441-0.294-0.706-0.294h-13.275c-0.553 0-1 0.447-1 1v26c0 0.553 0.447 1 1 1h20c0.553 0 1-0.447 1-1v-19.272c0-0.266-0.106-0.522-0.294-0.709zM24.694 10.188h-5.881v-5.881l5.881 5.881zM24.75 27.75h-17.5v-23.5h9.438v6.75c0 0.725 0.588 1.313 1.313 1.313v0h6.75v15.438zM16.503 14.75h-1.006c-0.172 0-0.322 0.116-0.363 0.284l-1.553 6.216-1.441-6.209c-0.041-0.169-0.191-0.291-0.366-0.291h-1.106c-0.207 0-0.375 0.168-0.375 0.376 0 0.034 0.005 0.067 0.013 0.099l-0.001-0.003 2.319 8.625c0.044 0.163 0.194 0.278 0.363 0.278h1c0.169 0 0.319-0.113 0.363-0.278l1.65-6.156 1.65 6.156c0.044 0.163 0.194 0.278 0.363 0.278h0.994c0.169 0 0.319-0.113 0.363-0.278l2.325-8.625c0.008-0.029 0.012-0.062 0.012-0.096 0-0.207-0.168-0.375-0.375-0.376h-1.113c-0.175 0-0.325 0.122-0.366 0.291l-1.431 6.222-1.556-6.228c-0.041-0.169-0.191-0.284-0.363-0.284z"/>
</svg>
