<svg version="1.1" xmlns="http://www.w3.org/2000/svg" width="32" height="32" viewBox="0 0 32 32">
<path fill="currentColor" d="M13.25 14.875c-0.137 0-0.25 0.113-0.25 0.25v8.625c0 0.137 0.113 0.25 0.25 0.25h1.016c0.137 0 0.25-0.113 0.25-0.25v-2.984h1.978c1.856 0 3.006-1.216 3.006-2.941 0-1.703-1.134-2.947-3-2.947h-3.25zM17.956 17.822c0 1.356-0.828 1.697-2.225 1.697h-1.216v-3.387h1.756c1.056 0 1.684 0.616 1.684 1.691zM26.706 9.019l-6.725-6.725c-0.188-0.188-0.441-0.294-0.706-0.294h-13.275c-0.553 0-1 0.447-1 1v26c0 0.553 0.447 1 1 1h20c0.553 0 1-0.447 1-1v-19.272c0-0.266-0.106-0.522-0.294-0.709zM24.694 10.188h-5.881v-5.881l5.881 5.881zM24.75 27.75h-17.5v-23.5h9.438v6.75c0 0.725 0.588 1.313 1.313 1.313v0h6.75v15.438z"/>
</svg>
