<svg version="1.1" xmlns="http://www.w3.org/2000/svg" width="32" height="32" viewBox="0 0 32 32">
<path fill="currentColor" d="M26.066 14.662c-0.636-1.411-1.51-2.608-2.583-3.593l-0.008-0.007-0.909-0.834c-0.044-0.040-0.104-0.064-0.168-0.064-0.109 0-0.202 0.069-0.237 0.166l-0.001 0.002-0.406 1.166c-0.253 0.731-0.719 1.478-1.378 2.213-0.044 0.047-0.094 0.059-0.128 0.063s-0.087-0.003-0.134-0.047c-0.044-0.037-0.066-0.094-0.063-0.15 0.116-1.881-0.447-4.003-1.678-6.313-1.019-1.919-2.434-3.416-4.203-4.459l-1.291-0.759c-0.169-0.1-0.384 0.031-0.375 0.228l0.069 1.5c0.047 1.025-0.072 1.931-0.353 2.684-0.344 0.922-0.838 1.778-1.469 2.547-0.443 0.537-0.93 1.009-1.464 1.425l-0.021 0.015c-1.306 1.011-2.363 2.279-3.105 3.734l-0.029 0.062c-0.713 1.406-1.13 3.065-1.131 4.822v0c0 1.475 0.291 2.903 0.866 4.25 0.586 1.348 1.381 2.498 2.358 3.465l0.001 0.001c1.012 1 2.188 1.788 3.497 2.334 1.356 0.569 2.794 0.856 4.278 0.856s2.922-0.288 4.278-0.853c1.359-0.574 2.52-1.362 3.497-2.335l-0 0c1.012-1 1.806-2.169 2.359-3.466 0.547-1.247 0.866-2.7 0.866-4.228 0-0.008 0-0.016-0-0.024v0.001c0-1.525-0.313-3.006-0.934-4.403zM22.281 25.266c-1.678 1.663-3.906 2.575-6.281 2.575s-4.603-0.913-6.281-2.575c-1.672-1.659-2.594-3.859-2.594-6.2 0-1.359 0.306-2.663 0.909-3.875 0.588-1.184 1.463-2.244 2.525-3.059 0.686-0.528 1.287-1.111 1.816-1.756l0.015-0.019c0.781-0.953 1.394-2.016 1.819-3.156 0.16-0.415 0.291-0.904 0.372-1.41l0.006-0.043c0.753 0.694 1.384 1.531 1.913 2.513 1.044 1.956 1.525 3.697 1.431 5.178-0.003 0.044-0.005 0.096-0.005 0.148 0 0.682 0.295 1.295 0.765 1.719l0.002 0.002c0.405 0.367 0.945 0.591 1.537 0.591 0.046 0 0.093-0.001 0.138-0.004l-0.006 0c0.616-0.031 1.181-0.303 1.594-0.762 0.416-0.466 0.775-0.941 1.075-1.425 0.438 0.559 0.803 1.169 1.094 1.825 0.497 1.119 0.75 2.309 0.75 3.534 0 2.341-0.922 4.544-2.594 6.2z"/>
</svg>
