<svg version="1.1" xmlns="http://www.w3.org/2000/svg" width="32" height="32" viewBox="0 0 32 32">
<path fill="currentColor" d="M27.5 9.531h-8v-3.531c0-0.553-0.447-1-1-1h-12.75v-1.25c0-0.138-0.112-0.25-0.25-0.25h-1.75c-0.138 0-0.25 0.112-0.25 0.25v24.5c0 0.137 0.112 0.25 0.25 0.25h1.75c0.138 0 0.25-0.113 0.25-0.25v-8.25h7.75v3.531c0 0.553 0.447 1 1 1h13c0.553 0 1-0.447 1-1v-13c0-0.553-0.447-1-1-1zM5.75 17.75v-10.5h11.5v10.5h-11.5zM26.25 22.281h-10.5v-2.281h3.5c0.137 0 0.25-0.113 0.25-0.25v-7.969h6.75v10.5z"/>
</svg>
