<svg version="1.1" xmlns="http://www.w3.org/2000/svg" width="32" height="32" viewBox="0 0 32 32">
<path fill="currentColor" d="M9.659 17.322c-0.169 0.363-0.169 0.778 0 1.137 1.381 2.916 3.516 4.416 6.356 4.416s4.975-1.503 6.356-4.416c0.169-0.359 0.169-0.775 0.003-1.134l-0.006-0.006c-1.378-2.912-3.512-4.412-6.353-4.412s-4.975 1.503-6.356 4.416zM16.016 14.906c1.941 0 3.356 0.938 4.409 2.984-1.050 2.047-2.469 2.984-4.409 2.984s-3.356-0.938-4.409-2.984c1.053-2.047 2.469-2.984 4.409-2.984z"/>
<path fill="currentColor" d="M14.281 17.906c0 0.966 0.784 1.75 1.75 1.75s1.75-0.784 1.75-1.75v0c0-0.966-0.784-1.75-1.75-1.75s-1.75 0.784-1.75 1.75v0z"/>
<path fill="currentColor" d="M27.5 9.325h-11.219l-3.666-3.506c-0.047-0.044-0.109-0.069-0.172-0.069h-7.944c-0.553 0-1 0.447-1 1v18.5c0 0.553 0.447 1 1 1h23c0.553 0 1-0.447 1-1v-14.925c0-0.553-0.447-1-1-1zM26.25 24h-20.5v-16h5.891l3.738 3.575h10.872v12.425z"/>
</svg>
