<svg version="1.1" xmlns="http://www.w3.org/2000/svg" width="32" height="32" viewBox="0 0 32 32">
<path fill="currentColor" d="M29 13.875h-3.375v-3.55c0-0.553-0.447-1-1-1h-9.844l-3.666-3.506c-0.045-0.042-0.105-0.068-0.172-0.069h-7.944c-0.553 0-1 0.447-1 1v18.5c0 0.553 0.447 1 1 1h21.813c0.406 0 0.775-0.247 0.928-0.625l4.188-10.375c0.047-0.119 0.072-0.247 0.072-0.375 0-0.553-0.447-1-1-1zM4.25 8h5.891l3.738 3.575h9.497v2.3h-15.938c-0.406 0-0.775 0.247-0.928 0.625l-2.259 5.6v-12.1zM24.103 24h-19.134l3.228-8h19.138l-3.231 8z"/>
</svg>
