<svg version="1.1" xmlns="http://www.w3.org/2000/svg" width="32" height="32" viewBox="0 0 32 32">
<path fill="currentColor" d="M15.125 13.847v2.653h-2.641c-0.128 0-0.234 0.097-0.234 0.219v1.313c0 0.119 0.106 0.219 0.234 0.219h2.641v2.653c0 0.122 0.1 0.222 0.219 0.222h1.313c0.122 0 0.219-0.1 0.219-0.222v-2.653h2.641c0.128 0 0.234-0.1 0.234-0.219v-1.313c0-0.122-0.106-0.219-0.234-0.219h-2.641v-2.653c0-0.122-0.097-0.222-0.219-0.222h-1.313c-0.119 0-0.219 0.1-0.219 0.222zM27.5 9.325h-11.219l-3.666-3.506c-0.045-0.042-0.105-0.068-0.172-0.069h-7.944c-0.553 0-1 0.447-1 1v18.5c0 0.553 0.447 1 1 1h23c0.553 0 1-0.447 1-1v-14.925c0-0.553-0.447-1-1-1zM26.25 24h-20.5v-16h5.891l3.738 3.575h10.872v12.425z"/>
</svg>
