<svg version="1.1" xmlns="http://www.w3.org/2000/svg" width="32" height="32" viewBox="0 0 32 32">
<path fill="currentColor" d="M28.25 25.5h-24.5c-0.138 0-0.25 0.113-0.25 0.25v2.5c0 0.137 0.112 0.25 0.25 0.25h24.5c0.137 0 0.25-0.113 0.25-0.25v-2.5c0-0.137-0.113-0.25-0.25-0.25zM7.928 23h2.656c0.131 0 0.25-0.084 0.291-0.212l1.678-5.188h6.85l1.663 5.188c0.041 0.125 0.156 0.212 0.291 0.212h2.784c0.034 0 0.069-0.006 0.1-0.016 0.12-0.042 0.205-0.155 0.205-0.287 0-0.036-0.006-0.071-0.018-0.103l0.001 0.002-6.503-18.891c-0.043-0.12-0.155-0.204-0.287-0.206h-3.197c-0.131 0-0.247 0.081-0.287 0.206l-6.513 18.891c-0.013 0.031-0.016 0.066-0.016 0.1-0.003 0.166 0.134 0.303 0.303 0.303zM15.925 6.872h0.128l2.619 8.244h-5.394l2.647-8.244z"/>
</svg>
