<svg version="1.1" xmlns="http://www.w3.org/2000/svg" width="32" height="32" viewBox="0 0 32 32">
<path fill="currentColor" d="M23.5 3.125c-1.931 0-3.5 1.569-3.5 3.5 0 1.491 0.934 2.766 2.25 3.269v0.863l-6.25 8.038-6.25-8.037v-0.863c1.316-0.503 2.25-1.778 2.25-3.269 0-1.931-1.569-3.5-3.5-3.5s-3.5 1.569-3.5 3.5c0 1.581 1.056 2.922 2.5 3.353v1.075c0 0.303 0.103 0.603 0.291 0.844l7.084 9.113v1.050c-1.381 0.469-2.375 1.778-2.375 3.316 0 1.931 1.569 3.5 3.5 3.5s3.5-1.569 3.5-3.5c0-1.538-0.994-2.844-2.375-3.316v-1.050l7.084-9.113c0.188-0.241 0.291-0.541 0.291-0.844v-1.075c1.444-0.431 2.5-1.772 2.5-3.353 0-1.931-1.569-3.5-3.5-3.5zM7 6.625c0.017-0.815 0.682-1.47 1.5-1.47s1.483 0.654 1.5 1.468l0 0.002c-0.017 0.815-0.682 1.47-1.5 1.47s-1.483-0.654-1.5-1.468l-0-0.002zM17.5 25.375c-0.017 0.815-0.682 1.47-1.5 1.47s-1.483-0.654-1.5-1.468l-0-0.002c0.017-0.815 0.682-1.47 1.5-1.47s1.483 0.654 1.5 1.468l0 0.002zM23.5 8.125c-0.815-0.017-1.47-0.682-1.47-1.5s0.654-1.483 1.468-1.5l0.002-0c0.815 0.017 1.47 0.682 1.47 1.5s-0.654 1.483-1.468 1.5l-0.002 0z"/>
</svg>
