<svg version="1.1" xmlns="http://www.w3.org/2000/svg" width="32" height="32" viewBox="0 0 32 32">
<path fill="currentColor" d="M28.25 16h-1.75c-0.137 0-0.25 0.113-0.25 0.25v10h-20.5v-20.5h10c0.137 0 0.25-0.112 0.25-0.25v-1.75c0-0.138-0.113-0.25-0.25-0.25h-11.25c-0.553 0-1 0.447-1 1v23c0 0.553 0.447 1 1 1h23c0.553 0 1-0.447 1-1v-11.25c0-0.137-0.113-0.25-0.25-0.25z"/>
<path fill="currentColor" d="M11.122 16.716l-0.059 3.716c-0.003 0.278 0.222 0.506 0.5 0.506h0.012l3.688-0.091c0.063-0.003 0.125-0.028 0.169-0.072l12.997-12.969c0.097-0.097 0.097-0.256 0-0.353l-3.884-3.881c-0.050-0.050-0.113-0.072-0.178-0.072s-0.128 0.025-0.178 0.072l-12.994 12.969c-0.044 0.046-0.071 0.107-0.072 0.175v0zM13.106 17.453l11.259-11.234 1.413 1.409-11.266 11.241-1.428 0.034 0.022-1.45z"/>
</svg>
