<svg version="1.1" xmlns="http://www.w3.org/2000/svg" width="32" height="32" viewBox="0 0 32 32">
<path fill="currentColor" d="M9 13.156c0 0.828 0.672 1.5 1.5 1.5s1.5-0.672 1.5-1.5v0c0-0.828-0.672-1.5-1.5-1.5s-1.5 0.672-1.5 1.5v0zM20 13.156c0 0.828 0.672 1.5 1.5 1.5s1.5-0.672 1.5-1.5v0c0-0.828-0.672-1.5-1.5-1.5s-1.5 0.672-1.5 1.5v0zM16 2c-7.731 0-14 6.269-14 14s6.269 14 14 14 14-6.269 14-14-6.269-14-14-14zM24.219 24.219c-1.069 1.069-2.313 1.906-3.697 2.494-1.428 0.606-2.95 0.913-4.522 0.913s-3.094-0.306-4.525-0.913c-1.437-0.616-2.665-1.458-3.697-2.493l-0-0c-1.069-1.069-1.906-2.313-2.494-3.697-0.603-1.428-0.909-2.95-0.909-4.522s0.306-3.094 0.912-4.525c0.616-1.437 1.458-2.665 2.493-3.697l0-0c1.069-1.069 2.312-1.906 3.697-2.494 1.428-0.603 2.95-0.909 4.522-0.909s3.094 0.306 4.525 0.912c1.437 0.616 2.665 1.458 3.697 2.493l0 0c1.069 1.069 1.906 2.312 2.494 3.697 0.603 1.428 0.909 2.95 0.909 4.522s-0.306 3.094-0.913 4.525c-0.615 1.437-1.457 2.663-2.493 3.693l-0.001 0.001zM16 16.656c-2.672 0-4.863 2.103-5 4.738-0 0.004-0 0.008-0 0.012 0 0.138 0.112 0.25 0.25 0.25 0 0 0 0 0 0h1.503c0.131 0 0.244-0.1 0.253-0.231 0.119-1.547 1.416-2.769 2.994-2.769s2.878 1.222 2.994 2.769c0.009 0.131 0.122 0.231 0.253 0.231h1.503c0 0 0 0 0 0 0.138 0 0.25-0.112 0.25-0.25 0-0.004-0-0.009-0-0.013l0 0.001c-0.137-2.634-2.328-4.738-5-4.738z"/>
</svg>
