<svg version="1.1" xmlns="http://www.w3.org/2000/svg" width="32" height="32" viewBox="0 0 32 32">
<path fill="currentColor" d="M9.063 7.388l1.372-1.372c0.045-0.045 0.073-0.108 0.073-0.177 0-0.127-0.095-0.233-0.219-0.248l-0.001-0-5.006-0.591c-0.159-0.019-0.297 0.116-0.278 0.278l0.591 5.006c0.025 0.206 0.278 0.294 0.425 0.147l1.366-1.366 4.178 4.175c0.097 0.097 0.256 0.097 0.353 0l1.325-1.322c0.097-0.097 0.097-0.256 0-0.353l-4.178-4.178zM20.084 13.241c0.097 0.097 0.256 0.097 0.353 0l4.178-4.175 1.366 1.366c0.045 0.045 0.108 0.073 0.177 0.073 0.127 0 0.233-0.095 0.248-0.219l0-0.001 0.591-5.003c0.019-0.159-0.116-0.297-0.278-0.278l-5.006 0.591c-0.206 0.025-0.294 0.278-0.147 0.425l1.372 1.372-4.178 4.172c-0.045 0.045-0.073 0.108-0.073 0.177s0.028 0.131 0.073 0.177l1.325 1.325zM26.406 21.716c-0.025-0.206-0.278-0.294-0.425-0.147l-1.366 1.366-4.178-4.175c-0.045-0.045-0.108-0.073-0.177-0.073s-0.131 0.028-0.177 0.073l0-0-1.325 1.322c-0.045 0.045-0.073 0.108-0.073 0.177s0.028 0.131 0.073 0.177l4.178 4.178-1.372 1.372c-0.045 0.045-0.073 0.108-0.073 0.177 0 0.127 0.095 0.233 0.218 0.248l0.001 0 5.006 0.591c0.159 0.019 0.297-0.116 0.278-0.278l-0.591-5.006zM11.916 18.759c-0.045-0.045-0.108-0.073-0.177-0.073s-0.131 0.028-0.177 0.073l-4.178 4.175-1.366-1.366c-0.045-0.045-0.108-0.073-0.177-0.073-0.127 0-0.233 0.095-0.248 0.218l-0 0.001-0.591 5.003c-0.019 0.159 0.116 0.297 0.278 0.278l5.006-0.591c0.206-0.025 0.294-0.278 0.147-0.425l-1.372-1.369 4.178-4.175c0.097-0.097 0.097-0.256 0-0.353l-1.325-1.325z"/>
</svg>
