<svg version="1.1" xmlns="http://www.w3.org/2000/svg" width="32" height="32" viewBox="0 0 32 32">
<path fill="currentColor" d="M26.281 11.563c0.094-0.103 0.084-0.259-0.019-0.353-0.047-0.041-0.106-0.066-0.166-0.066h-2.269c-0.075 0-0.144 0.031-0.191 0.088l-3.841 4.537c-0.091 0.106-0.247 0.119-0.353 0.028-0.028-0.025-0.050-0.053-0.066-0.088l-1.984-4.416c-0.041-0.091-0.128-0.147-0.228-0.147h-5.269l0.028-0.147 0.25-1.322c0.328-1.731 1.188-2.544 2.681-2.544 0.581 0 1.109 0.053 1.525 0.147l0.441-2.087c-0.706-0.147-1.1-0.191-1.716-0.191-3.228 0-4.887 1.384-5.497 4.603l-0.294 1.544h-3.050c-0.119 0-0.222 0.084-0.244 0.2l-0.338 1.619c-0.028 0.134 0.059 0.269 0.194 0.297 0.016 0.003 0.034 0.006 0.050 0.006h2.947l-2.781 13.434c-0.028 0.134 0.059 0.269 0.194 0.297 0.016 0.003 0.034 0.006 0.050 0.006h2.069c0.119 0 0.222-0.084 0.244-0.2l2.803-13.534h4.244l2.131 4.347c0.044 0.091 0.031 0.2-0.038 0.275l-5.644 6.344c-0.091 0.103-0.081 0.262 0.022 0.353 0.047 0.041 0.106 0.063 0.166 0.063h2.272c0.075 0 0.144-0.031 0.191-0.087l3.866-4.584c0.087-0.106 0.247-0.119 0.353-0.031 0.028 0.025 0.050 0.053 0.066 0.087l2.056 4.459c0.041 0.087 0.128 0.147 0.228 0.147h2.019c0.137 0 0.25-0.113 0.25-0.25 0-0.038-0.009-0.075-0.025-0.109l-2.975-6.216c-0.044-0.091-0.028-0.2 0.041-0.275l5.606-6.234z"/>
</svg>
