<svg version="1.1" xmlns="http://www.w3.org/2000/svg" width="32" height="32" viewBox="0 0 32 32">
<path fill="currentColor" d="M29.875 21.453l-0.006-0.006c-1.378-2.916-3.512-4.416-6.353-4.416s-4.975 1.503-6.356 4.416v0.003c-0.169 0.359-0.169 0.778 0 1.137 1.381 2.913 3.516 4.413 6.356 4.413s4.975-1.503 6.356-4.416c0.169-0.359 0.169-0.775 0.003-1.131zM23.516 25c-1.941 0-3.356-0.938-4.409-2.984 1.050-2.047 2.469-2.984 4.409-2.984s3.356 0.938 4.409 2.984c-1.050 2.047-2.469 2.984-4.409 2.984z"/>
<path fill="currentColor" d="M21.781 22.031c0 0.966 0.784 1.75 1.75 1.75s1.75-0.784 1.75-1.75v0c0-0.966-0.784-1.75-1.75-1.75s-1.75 0.784-1.75 1.75v0z"/>
<path fill="currentColor" d="M4.25 7.25h22v7.906h2.25v-9.156c0-0.553-0.447-1-1-1h-24.5c-0.553 0-1 0.447-1 1v16.25c0 0.553 0.447 1 1 1h11v-2.25h-9.75v-13.75z"/>
<path fill="currentColor" d="M22.653 10.566l-1.15-1.15c-0.097-0.097-0.256-0.097-0.353 0l-5.744 5.75-2.691-2.694c-0.097-0.097-0.256-0.097-0.353 0l-4.509 4.509c-0.097 0.097-0.097 0.256 0 0.353l1.15 1.15c0.097 0.097 0.256 0.097 0.353 0l3.181-3.181 2.691 2.694c0.097 0.097 0.256 0.097 0.353 0l7.072-7.078c0.1-0.097 0.1-0.256 0-0.353z"/>
</svg>
