<svg version="1.1" xmlns="http://www.w3.org/2000/svg" width="32" height="32" viewBox="0 0 32 32">
<path fill="currentColor" d="M28.938 5.125h-26c-0.553 0-1 0.447-1 1v20c0 0.553 0.447 1 1 1h26c0.553 0 1-0.447 1-1v-20c0-0.553-0.447-1-1-1zM27.688 24.875h-23.5v-17.5h23.5v17.5zM7.097 22.303c0.097 0.097 0.256 0.097 0.353 0l5.391-5.391 3.575 3.578c0.097 0.097 0.256 0.097 0.353 0l9.281-9.287c0.097-0.097 0.097-0.256 0-0.353l-1.15-1.15c-0.045-0.045-0.108-0.073-0.177-0.073s-0.131 0.028-0.177 0.073l-7.953 7.956-3.575-3.578c-0.045-0.045-0.108-0.073-0.177-0.073s-0.131 0.028-0.177 0.073l-6.716 6.719c-0.045 0.045-0.073 0.108-0.073 0.177s0.028 0.131 0.073 0.177l-0-0 1.147 1.153z"/>
</svg>
