<svg version="1.1" xmlns="http://www.w3.org/2000/svg" width="32" height="32" viewBox="0 0 32 32">
<path fill="currentColor" d="M9.753 18.484c0.097 0.097 0.256 0.097 0.353 0l3.181-3.181 2.691 2.694c0.097 0.097 0.256 0.097 0.353 0l7.072-7.078c0.097-0.097 0.097-0.256 0-0.353l-1.15-1.15c-0.097-0.097-0.256-0.097-0.353 0l-5.744 5.75-2.691-2.694c-0.097-0.097-0.256-0.097-0.353 0l-4.509 4.509c-0.097 0.097-0.097 0.256 0 0.353l1.15 1.15z"/>
<path fill="currentColor" d="M28.25 5h-11.125v-2c0-0.138-0.113-0.25-0.25-0.25h-1.75c-0.137 0-0.25 0.112-0.25 0.25v2h-11.125c-0.553 0-1 0.447-1 1v16.25c0 0.553 0.447 1 1 1h11.137v1l-5.15 3.378c-0.116 0.075-0.147 0.228-0.072 0.344l0.947 1.475v0.003c0.075 0.116 0.231 0.147 0.347 0.072l5.041-3.306 5.041 3.306c0.116 0.075 0.272 0.044 0.347-0.072v-0.003l0.947-1.475c0.075-0.116 0.041-0.269-0.072-0.344l-5.137-3.369v-1.009h11.125c0.553 0 1-0.447 1-1v-16.25c0-0.553-0.447-1-1-1zM27 21h-22v-13.75h22v13.75z"/>
</svg>
