<svg version="1.1" xmlns="http://www.w3.org/2000/svg" width="32" height="32" viewBox="0 0 32 32">
<path fill="currentColor" d="M29 12.25c0.275 0 0.5-0.225 0.5-0.5v-5.75c0-0.275-0.225-0.5-0.5-0.5h-5.75c-0.275 0-0.5 0.225-0.5 0.5v1.75h-13.5v-1.75c0-0.275-0.225-0.5-0.5-0.5h-5.75c-0.275 0-0.5 0.225-0.5 0.5v5.75c0 0.275 0.225 0.5 0.5 0.5h1.75v7.5h-1.75c-0.275 0-0.5 0.225-0.5 0.5v5.75c0 0.275 0.225 0.5 0.5 0.5h5.75c0.275 0 0.5-0.225 0.5-0.5v-1.75h13.5v1.75c0 0.275 0.225 0.5 0.5 0.5h5.75c0.275 0 0.5-0.225 0.5-0.5v-5.75c0-0.275-0.225-0.5-0.5-0.5h-1.75v-7.5h1.75zM24.75 7.5h2.75v2.75h-2.75v-2.75zM4.5 10.25v-2.75h2.75v2.75h-2.75zM7.25 24.5h-2.75v-2.75h2.75v2.75zM27.5 21.75v2.75h-2.75v-2.75h2.75zM25 19.75h-1.75c-0.275 0-0.5 0.225-0.5 0.5v1.75h-13.5v-1.75c0-0.275-0.225-0.5-0.5-0.5h-1.75v-7.5h1.75c0.275 0 0.5-0.225 0.5-0.5v-1.75h13.5v1.75c0 0.275 0.225 0.5 0.5 0.5h1.75v7.5z"/>
</svg>
