<svg version="1.1" xmlns="http://www.w3.org/2000/svg" width="32" height="32" viewBox="0 0 32 32">
<path fill="currentColor" d="M29.5 9.344h-7.875c-0.137 0-0.25 0.113-0.25 0.25v12.688c0 0.137 0.113 0.25 0.25 0.25h1.85c0.137 0 0.25-0.113 0.25-0.25v-5.097h5.256c0.137 0 0.25-0.113 0.25-0.25v-1.466c0-0.137-0.113-0.25-0.25-0.25h-5.256v-3.838h5.775c0.137 0 0.25-0.113 0.25-0.25v-1.537c0-0.137-0.113-0.25-0.25-0.25zM18.375 9.375h-1.75c-0.137 0-0.25 0.113-0.25 0.25v12.688c0 0.137 0.113 0.25 0.25 0.25h1.75c0.137 0 0.25-0.113 0.25-0.25v-12.688c0-0.137-0.113-0.25-0.25-0.25zM14.125 15.653h-5.047c-0.137 0-0.25 0.113-0.25 0.25v1.366c0 0.137 0.113 0.25 0.25 0.25h2.966l-0.009 0.278c-0.037 1.837-1.425 3.078-3.466 3.078-2.381 0-3.872-1.866-3.872-4.897 0-2.994 1.462-4.85 3.797-4.85 1.713 0 2.909 0.841 3.391 2.356h2.381c-0.425-2.725-2.688-4.481-5.772-4.481-3.806-0.003-6.244 2.722-6.244 6.994 0 4.322 2.409 7.003 6.281 7.003 3.566 0 5.844-2.209 5.844-5.675v-1.422c0-0.137-0.113-0.25-0.25-0.25z"/>
</svg>
