<svg version="1.1" xmlns="http://www.w3.org/2000/svg" width="32" height="32" viewBox="0 0 32 32">
<path fill="currentColor" d="M27.5 9.688h-4.613c0.425-0.669 0.675-1.463 0.675-2.313 0-2.378-1.934-4.313-4.313-4.313-1.294 0-2.459 0.575-3.25 1.481-0.791-0.906-1.956-1.481-3.25-1.481-2.378 0-4.313 1.934-4.313 4.313 0 0.85 0.247 1.644 0.675 2.313h-4.612c-0.553 0-1 0.447-1 1v6.25c0 0.137 0.112 0.25 0.25 0.25h1.25v10.75c0 0.553 0.447 1 1 1h20c0.553 0 1-0.447 1-1v-10.75h1.25c0.137 0 0.25-0.113 0.25-0.25v-6.25c0-0.553-0.447-1-1-1zM17.063 7.375c0-1.206 0.981-2.188 2.188-2.188s2.188 0.981 2.188 2.188-0.981 2.188-2.188 2.188h-2.188v-2.188zM12.75 5.188c1.206 0 2.188 0.981 2.188 2.188v2.188h-2.188c-1.206 0-2.188-0.981-2.188-2.188s0.981-2.188 2.188-2.188zM5.625 15.063v-3.25h9.313v3.25h-9.313zM7.125 17.188h7.813v9.625h-7.813v-9.625zM24.875 26.813h-7.813v-9.625h7.813v9.625zM26.375 15.063h-9.313v-3.25h9.313v3.25z"/>
</svg>
