<svg version="1.1" xmlns="http://www.w3.org/2000/svg" width="32" height="32" viewBox="0 0 32 32">
<path fill="currentColor" d="M15.988 2.384c-7.728-0.003-13.988 6.253-13.988 13.975 0 6.106 3.916 11.297 9.369 13.203 0.734 0.184 0.622-0.337 0.622-0.694v-2.422c-4.241 0.497-4.412-2.309-4.697-2.778-0.575-0.981-1.934-1.231-1.528-1.7 0.966-0.497 1.95 0.125 3.091 1.809 0.825 1.222 2.434 1.016 3.25 0.813 0.178-0.734 0.559-1.391 1.084-1.9-4.394-0.788-6.225-3.469-6.225-6.656 0-1.547 0.509-2.969 1.509-4.116-0.638-1.891 0.059-3.509 0.153-3.75 1.816-0.162 3.703 1.3 3.85 1.416 1.031-0.278 2.209-0.425 3.528-0.425 1.325 0 2.506 0.153 3.547 0.434 0.353-0.269 2.103-1.525 3.791-1.372 0.091 0.241 0.772 1.822 0.172 3.688 1.012 1.15 1.528 2.584 1.528 4.134 0 3.194-1.844 5.878-6.25 6.653 0.735 0.723 1.191 1.729 1.191 2.841 0 0.001 0 0.002 0 0.003v-0 3.516c0.025 0.281 0 0.559 0.469 0.559 5.534-1.866 9.519-7.094 9.519-13.253 0-7.725-6.262-13.978-13.984-13.978z"/>
</svg>
