<svg version="1.1" xmlns="http://www.w3.org/2000/svg" width="32" height="32" viewBox="0 0 32 32">
<path fill="currentColor" d="M28.559 17.256l-3.403-11.591c-0.238-0.716-0.803-1.141-1.509-1.141-0.731 0-1.328 0.422-1.553 1.1l-2.231 6.656h-7.713l-2.231-6.656c-0.225-0.678-0.822-1.1-1.553-1.1-0.722 0-1.328 0.463-1.513 1.144l-3.4 11.587c-0.138 0.459 0.038 0.981 0.422 1.272l11.516 8.637c0.081 0.113 0.194 0.197 0.325 0.244l0.269 0.2 0.266-0.2c0.153-0.053 0.281-0.147 0.372-0.278l11.512-8.606c0.387-0.288 0.563-0.809 0.425-1.269zM23.491 6.044c0.031-0.056 0.091-0.059 0.109-0.059 0.034 0 0.078 0.009 0.106 0.094l1.856 6.244h-4.172l2.1-6.278zM8.259 6.075c0.028-0.081 0.072-0.091 0.106-0.091 0.084 0 0.091 0.003 0.106 0.053l2.103 6.287h-4.122l1.806-6.25zM4.963 17.459l0.881-3.041 6.325 8.444-7.206-5.403zM7.272 13.822h3.816l2.838 8.884-6.653-8.884zM16.028 24.25l-3.35-10.428h6.697l-3.347 10.428zM20.962 13.822h3.734l-6.572 8.775 2.837-8.775zM19.691 23.006l6.478-8.647 0.922 3.1-7.4 5.547z"/>
</svg>
