<svg version="1.1" xmlns="http://www.w3.org/2000/svg" width="32" height="32" viewBox="0 0 32 32">
<path fill="currentColor" d="M26.7 25.028c0.006-0.009 0.016-0.019 0.022-0.028 2.047-2.434 3.278-5.572 3.278-9s-1.231-6.566-3.275-9c-0.006-0.009-0.016-0.016-0.022-0.025-0.034-0.041-0.066-0.078-0.1-0.116-0.012-0.016-0.025-0.028-0.038-0.044l-0.128-0.147-0.003-0.003c-0.047-0.053-0.097-0.106-0.144-0.159l-0.003-0.003c-0.1-0.106-0.2-0.213-0.303-0.316l-0.163-0.162c-0.047-0.047-0.094-0.091-0.141-0.134-0.016-0.016-0.031-0.031-0.050-0.047-0.031-0.031-0.063-0.059-0.094-0.088-0.009-0.009-0.022-0.019-0.031-0.031-2.494-2.313-5.834-3.725-9.506-3.725s-7.013 1.413-9.509 3.725c-0.009 0.009-0.022 0.019-0.031 0.031-0.031 0.028-0.063 0.059-0.094 0.091-0.016 0.016-0.031 0.031-0.050 0.047-0.047 0.044-0.094 0.091-0.141 0.134l-0.162 0.162c-0.103 0.103-0.203 0.209-0.303 0.316l-0.003 0.003c-0.050 0.053-0.097 0.106-0.144 0.159l-0.003 0.003c-0.044 0.047-0.088 0.097-0.128 0.147-0.013 0.016-0.025 0.028-0.037 0.044-0.034 0.037-0.066 0.078-0.1 0.116-0.006 0.009-0.016 0.016-0.022 0.025-2.041 2.431-3.272 5.569-3.272 8.997s1.231 6.566 3.275 9c0.006 0.009 0.016 0.019 0.022 0.028l0.097 0.116c0.013 0.016 0.025 0.028 0.037 0.044l0.128 0.147c0 0.003 0.003 0.003 0.003 0.006 0.047 0.053 0.094 0.106 0.144 0.156l0.003 0.003c0.1 0.106 0.2 0.212 0.3 0.316l0.003 0.003c0.050 0.050 0.097 0.1 0.147 0.147l0.009 0.009c0.103 0.103 0.209 0.203 0.316 0.3 2.503 2.313 5.844 3.725 9.516 3.725s7.013-1.413 9.509-3.725c0.111-0.102 0.213-0.2 0.312-0.3l0.010-0.010c0.050-0.050 0.1-0.097 0.147-0.147l0.003-0.003c0.103-0.103 0.203-0.209 0.3-0.316l0.003-0.003c0.047-0.053 0.097-0.103 0.144-0.156 0-0.003 0.003-0.003 0.003-0.006 0.044-0.047 0.087-0.097 0.128-0.147 0.012-0.016 0.025-0.028 0.038-0.044 0.033-0.035 0.067-0.073 0.099-0.111l0.004-0.004zM26.828 20.572c-0.431 1.019-1 1.962-1.694 2.819-0.745-0.647-1.58-1.226-2.474-1.711l-0.073-0.036c0.363-1.466 0.587-3.075 0.647-4.769h4.484c-0.094 1.278-0.394 2.519-0.891 3.697zM27.719 15.125h-4.484c-0.059-1.694-0.284-3.303-0.647-4.769 0.916-0.488 1.769-1.075 2.547-1.747 1.453 1.777 2.397 4.021 2.582 6.476l0.002 0.039zM20.572 5.172c1.241 0.525 2.369 1.25 3.363 2.162-0.546 0.468-1.153 0.899-1.798 1.275l-0.059 0.032c-0.491-1.406-1.119-2.628-1.85-3.606 0.116 0.044 0.231 0.091 0.344 0.138zM17.741 27.066c-0.288 0.225-0.575 0.397-0.866 0.512v-5.797c1.324 0.095 2.554 0.387 3.697 0.848l-0.082-0.029c-0.259 0.769-0.559 1.478-0.906 2.119-0.544 1.012-1.181 1.822-1.844 2.347zM19.584 7.281c0.344 0.644 0.647 1.353 0.906 2.119-1.062 0.432-2.291 0.724-3.576 0.816l-0.039 0.002v-5.794c0.288 0.116 0.578 0.284 0.866 0.513 0.663 0.522 1.3 1.331 1.844 2.344zM16.875 20.028v-3.153h4.609c-0.050 1.381-0.222 2.722-0.509 3.994l-0.009 0.038c-1.204-0.471-2.597-0.785-4.051-0.876l-0.040-0.002zM16.875 15.125v-3.153c1.431-0.088 2.806-0.391 4.091-0.878l0.009 0.037c0.288 1.272 0.459 2.609 0.509 3.994h-4.609zM15.125 16.875v3.153c-1.431 0.087-2.806 0.391-4.091 0.878l-0.009-0.038c-0.287-1.272-0.459-2.609-0.509-3.994h4.609zM10.516 15.125c0.050-1.381 0.222-2.722 0.509-3.994l0.009-0.037c1.284 0.488 2.656 0.791 4.091 0.878v3.153h-4.609zM15.125 21.781v5.794c-0.287-0.116-0.578-0.284-0.866-0.512-0.662-0.522-1.303-1.334-1.847-2.347-0.344-0.644-0.647-1.353-0.906-2.119 1.162-0.456 2.372-0.728 3.619-0.816zM15.125 10.219c-1.324-0.095-2.554-0.387-3.697-0.848l0.082 0.029c0.259-0.769 0.559-1.478 0.906-2.119 0.544-1.013 1.181-1.825 1.847-2.347 0.287-0.225 0.575-0.397 0.866-0.513v5.797zM11.428 5.172c0.116-0.047 0.228-0.094 0.344-0.138-0.731 0.978-1.359 2.2-1.85 3.606-0.656-0.375-1.278-0.813-1.856-1.306 0.994-0.912 2.122-1.638 3.363-2.162zM5.172 11.428c0.431-1.019 1-1.963 1.694-2.819 0.778 0.672 1.631 1.259 2.547 1.747-0.363 1.466-0.588 3.075-0.647 4.769h-4.484c0.094-1.278 0.394-2.519 0.891-3.697zM4.281 16.875h4.484c0.059 1.694 0.284 3.303 0.647 4.769-0.967 0.521-1.802 1.1-2.564 1.761l0.017-0.015c-1.453-1.777-2.397-4.021-2.582-6.477l-0.002-0.039zM11.428 26.828c-1.241-0.525-2.369-1.25-3.362-2.163 0.578-0.494 1.2-0.928 1.856-1.306 0.491 1.406 1.119 2.628 1.85 3.606-0.116-0.044-0.231-0.091-0.344-0.137zM20.572 26.828c-0.116 0.047-0.228 0.094-0.344 0.137 0.731-0.978 1.359-2.2 1.85-3.606 0.656 0.375 1.278 0.813 1.856 1.306-0.955 0.88-2.067 1.608-3.287 2.133l-0.076 0.029z"/>
</svg>
