<svg version="1.1" xmlns="http://www.w3.org/2000/svg" width="32" height="32" viewBox="0 0 32 32">
<path fill="currentColor" d="M27.531 13.825h-11.291v4.641h6.45c-0.278 1.5-1.122 2.769-2.394 3.619-1.075 0.719-2.447 1.144-4.059 1.144-3.122 0-5.762-2.109-6.706-4.944-0.238-0.719-0.375-1.488-0.375-2.278s0.137-1.559 0.375-2.278c0.947-2.831 3.588-4.941 6.709-4.941 1.759 0 3.337 0.606 4.581 1.794l3.438-3.441c-2.078-1.938-4.787-3.125-8.019-3.125-4.684 0-8.738 2.688-10.709 6.606-0.813 1.619-1.275 3.45-1.275 5.388s0.463 3.766 1.275 5.384c1.972 3.919 6.025 6.606 10.709 6.606 3.238 0 5.95-1.075 7.931-2.906 2.266-2.087 3.575-5.162 3.575-8.816 0-0.85-0.075-1.666-0.216-2.453z"/>
</svg>
