<svg version="1.1" xmlns="http://www.w3.org/2000/svg" width="32" height="32" viewBox="0 0 32 32">
<path fill="currentColor" d="M27.484 14.7c-0.009-0.844-0.012-1.694-0.016-2.541h-2.525c-0.009 0.844-0.016 1.691-0.022 2.541-0.85 0.003-1.694 0.009-2.538 0.019v2.528c0.844 0.009 1.694 0.016 2.538 0.025 0.009 0.844 0.009 1.691 0.016 2.534h2.528c0.003-0.844 0.009-1.691 0.016-2.541 0.85-0.009 1.694-0.012 2.538-0.022v-2.528c-0.841-0.006-1.691-0.006-2.534-0.016zM10.922 14.713c-0.003 1.009 0 2.022 0.003 3.031 1.694 0.056 3.391 0.031 5.084 0.056-0.747 3.759-5.856 4.978-8.559 2.522-2.781-2.153-2.65-6.875 0.241-8.875 2.022-1.613 4.894-1.216 6.916 0.181 0.794-0.734 1.538-1.522 2.253-2.334-1.681-1.341-3.744-2.297-5.938-2.197-4.581-0.153-8.791 3.859-8.866 8.444-0.294 3.747 2.169 7.419 5.644 8.744 3.462 1.334 7.903 0.425 10.116-2.688 1.459-1.966 1.775-4.497 1.603-6.875-2.834-0.022-5.666-0.019-8.497-0.009z"/>
</svg>
