<svg version="1.1" xmlns="http://www.w3.org/2000/svg" width="32" height="32" viewBox="0 0 32 32">
<path fill="currentColor" d="M29.866 26.75l-13-22.5c-0.194-0.334-0.528-0.5-0.866-0.5s-0.675 0.166-0.866 0.5l-13 22.5c-0.384 0.669 0.097 1.5 0.866 1.5h26c0.769 0 1.25-0.831 0.866-1.5zM5.166 26.003l10.834-18.756 10.834 18.753h-21.669zM15.134 11.188l-7.125 12.313c-0.384 0.666 0.097 1.5 0.866 1.5h14.244c0.772 0 1.253-0.834 0.866-1.5l-7.119-12.313c-0.194-0.334-0.531-0.5-0.866-0.5-0.338 0-0.675 0.166-0.866 0.5zM21.822 23.25h-11.644l5.822-10.063 5.822 10.063zM15.134 17.184l-1.781 3.075c-0.384 0.663 0.097 1.491 0.866 1.491h3.563c0.769 0 1.247-0.828 0.866-1.491l-1.781-3.075c-0.191-0.331-0.528-0.497-0.866-0.497s-0.672 0.166-0.866 0.497zM16.919 20.259h-1.834l0.919-1.584 0.916 1.584z"/>
</svg>
