<svg version="1.1" xmlns="http://www.w3.org/2000/svg" width="32" height="32" viewBox="0 0 32 32">
<path fill="currentColor" d="M16.753 8.531h-1.503c-0.137 0-0.25 0.113-0.25 0.25v8.603c0 0.081 0.037 0.156 0.103 0.203l5.166 3.772c0.113 0.081 0.269 0.059 0.35-0.053l0.894-1.219c0.084-0.116 0.059-0.272-0.053-0.35l-4.456-3.222v-7.734c0-0.137-0.113-0.25-0.25-0.25zM23.622 10.881l4.9 1.197c0.156 0.037 0.309-0.081 0.309-0.241l0.025-5.047c0-0.209-0.241-0.328-0.403-0.197l-4.925 3.847c-0.059 0.046-0.097 0.118-0.097 0.198 0 0.117 0.080 0.215 0.189 0.243l0.002 0zM28.863 20.291l-1.772-0.609c-0.024-0.009-0.052-0.014-0.081-0.014-0.107 0-0.198 0.067-0.234 0.162l-0.001 0.002c-0.059 0.159-0.122 0.316-0.188 0.472-0.556 1.316-1.353 2.5-2.372 3.516-0.982 0.985-2.149 1.785-3.444 2.344l-0.072 0.027c-1.265 0.549-2.738 0.869-4.286 0.869-0.006 0-0.012 0-0.018 0h0.001c-1.494 0-2.941-0.291-4.303-0.869-1.367-0.587-2.534-1.387-3.515-2.372l-0-0c-1.016-1.016-1.813-2.2-2.372-3.516-0.545-1.263-0.863-2.734-0.863-4.279 0-0.009 0-0.017 0-0.025v0.001c0-1.494 0.291-2.944 0.869-4.306 0.556-1.316 1.353-2.5 2.372-3.516 0.982-0.985 2.149-1.785 3.444-2.344l0.072-0.027c1.356-0.578 2.806-0.869 4.3-0.869s2.941 0.291 4.303 0.869c1.367 0.587 2.534 1.387 3.515 2.372l0 0c0.319 0.322 0.619 0.656 0.894 1.009l1.869-1.463c-2.459-3.144-6.287-5.166-10.588-5.162-7.488 0.003-13.5 6.084-13.425 13.575 0.075 7.359 6.059 13.3 13.431 13.3 5.797 0 10.734-3.675 12.616-8.822 0.047-0.131-0.022-0.278-0.153-0.325z"/>
</svg>
