<svg version="1.1" xmlns="http://www.w3.org/2000/svg" width="32" height="32" viewBox="0 0 32 32">
<path fill="currentColor" d="M9.375 8.641c0.541 0.313 1.209 0.313 1.75 0s0.875-0.89 0.875-1.516c0-0.625-0.334-1.203-0.875-1.516s-1.209-0.313-1.75 0c-0.541 0.313-0.875 0.89-0.875 1.516s0.334 1.203 0.875 1.516zM9.375 17.516c0.541 0.313 1.209 0.313 1.75 0s0.875-0.89 0.875-1.516c0-0.625-0.334-1.203-0.875-1.516s-1.209-0.313-1.75 0c-0.541 0.313-0.875 0.89-0.875 1.516s0.334 1.203 0.875 1.516zM20 7.125c0 0.625 0.334 1.203 0.875 1.516s1.209 0.313 1.75 0c0.541-0.313 0.875-0.89 0.875-1.516s-0.334-1.203-0.875-1.516c-0.541-0.313-1.209-0.313-1.75 0s-0.875 0.89-0.875 1.516v0zM20 16c0 0.625 0.334 1.203 0.875 1.516s1.209 0.313 1.75 0c0.541-0.313 0.875-0.89 0.875-1.516s-0.334-1.203-0.875-1.516c-0.541-0.313-1.209-0.313-1.75 0s-0.875 0.89-0.875 1.516v0zM9.375 26.391c0.541 0.313 1.209 0.313 1.75 0s0.875-0.89 0.875-1.516c0-0.625-0.334-1.203-0.875-1.516s-1.209-0.313-1.75 0c-0.541 0.313-0.875 0.89-0.875 1.516s0.334 1.203 0.875 1.516zM20 24.875c0 0.625 0.334 1.203 0.875 1.516s1.209 0.313 1.75 0c0.541-0.313 0.875-0.89 0.875-1.516s-0.334-1.203-0.875-1.516c-0.541-0.313-1.209-0.313-1.75 0s-0.875 0.89-0.875 1.516v0z"/>
</svg>
