<svg version="1.1" xmlns="http://www.w3.org/2000/svg" width="32" height="32" viewBox="0 0 32 32">
<path fill="currentColor" d="M29.578 15.781l-12.884-12.878c-0.178-0.177-0.423-0.286-0.694-0.286s-0.516 0.109-0.694 0.286l-12.884 12.878c-0.363 0.362-0.588 0.862-0.588 1.415 0 0.008 0 0.016 0 0.024v-0.001c0.012 1.1 0.928 1.978 2.028 1.978h1.328v10.178h21.619v-10.178h1.356c0.534 0 1.038-0.209 1.416-0.587 0.361-0.36 0.584-0.858 0.584-1.408 0-0.003 0-0.006-0-0.008v0c0-0.531-0.209-1.034-0.587-1.412zM17.75 27.125h-3.5v-6.375h3.5v6.375zM24.559 16.947v10.178h-4.809v-7.125c0-0.691-0.559-1.25-1.25-1.25h-5c-0.691 0-1.25 0.559-1.25 1.25v7.125h-4.809v-10.178h-3l11.563-11.553 11.559 11.553h-3.003z"/>
</svg>
