<svg version="1.1" xmlns="http://www.w3.org/2000/svg" width="32" height="32" viewBox="0 0 32 32">
<path fill="currentColor" d="M23.188 9.938v-4.188h2.688c0.137 0 0.25-0.112 0.25-0.25v-1.75c0-0.138-0.113-0.25-0.25-0.25h-19.75c-0.138 0-0.25 0.112-0.25 0.25v1.75c0 0.138 0.112 0.25 0.25 0.25h2.688v4.188c0 2.547 1.325 4.787 3.325 6.063-2 1.275-3.325 3.516-3.325 6.063v4.188h-2.688c-0.138 0-0.25 0.113-0.25 0.25v1.75c0 0.137 0.112 0.25 0.25 0.25h19.75c0.137 0 0.25-0.113 0.25-0.25v-1.75c0-0.137-0.113-0.25-0.25-0.25h-2.688v-4.188c0-2.547-1.325-4.788-3.325-6.063 2-1.275 3.325-3.516 3.325-6.063zM20.938 22.063v4.188h-9.875v-4.188c0-1.319 0.512-2.559 1.447-3.491 0.931-0.934 2.172-1.447 3.491-1.447s2.559 0.512 3.491 1.447c0.934 0.931 1.447 2.172 1.447 3.491zM20.938 9.938c0 1.319-0.512 2.559-1.447 3.491-0.931 0.934-2.172 1.447-3.491 1.447s-2.559-0.512-3.491-1.447c-0.894-0.887-1.447-2.116-1.447-3.474 0-0.006 0-0.011 0-0.017v0.001-4.188h9.875v4.188z"/>
</svg>
