<svg version="1.1" xmlns="http://www.w3.org/2000/svg" width="32" height="32" viewBox="0 0 32 32">
<path fill="currentColor" d="M26.644 11.488c0.509-1.153 1.003-2.834 1.003-4.119 0-3.409-3.734-4.612-9.828-1.809-5.044-0.338-9.9 3.453-11.113 8.741 1.447-1.634 3.669-3.856 5.719-4.741-2.547 2.263-4.716 5.128-6.362 8.116-0.972 1.778-2.063 4.65-2.063 6.797 0 4.622 4.353 4.056 8.45 1.969 1.472 0.722 3.119 0.731 4.766 0.731 4.553 0 8.637-2.544 10.162-6.844h-5.663c-2.462 4.153-9.225 2.484-9.225-2.225h15.412c0.3-2.044-0.078-4.488-1.259-6.616zM7.025 20.259c0.831 2.397 2.519 4.494 4.7 5.781-4.159 2.294-8.122 1.363-4.7-5.781zM12.463 15.156c0.094-2.584 2.356-4.447 4.875-4.447 2.503 0 4.781 1.863 4.875 4.447h-9.75zM21.113 6.362c1.003-0.481 2.275-1.031 3.4-1.031 1.472 0 2.544 1.019 2.544 2.519 0 0.938-0.347 2.297-0.684 3.181-1.228-1.984-3.091-3.825-5.259-4.669z"/>
</svg>
