<svg version="1.1" xmlns="http://www.w3.org/2000/svg" width="32" height="32" viewBox="0 0 32 32">
<path fill="currentColor" d="M27.5 28.5h-23c-0.553 0-1-0.447-1-1v-23c0-0.553 0.447-1 1-1h11.25c0.137 0 0.25 0.112 0.25 0.25v1.75c0 0.138-0.113 0.25-0.25 0.25h-10v20.5h20.5v-10c0-0.137 0.113-0.25 0.25-0.25h1.75c0.137 0 0.25 0.113 0.25 0.25v11.25c0 0.553-0.447 1-1 1zM20.416 13.269l1.631 1.631c0.147 0.147 0.059 0.4-0.147 0.425l-5.606 0.656c-0.159 0.019-0.297-0.116-0.278-0.278l0.656-5.606c0.025-0.206 0.278-0.294 0.425-0.147l1.637 1.637 8.006-8.006c0.097-0.097 0.256-0.097 0.353 0l1.325 1.325c0.097 0.097 0.097 0.256 0 0.353l-8.003 8.009z"/>
</svg>
