<svg version="1.1" xmlns="http://www.w3.org/2000/svg" width="32" height="32" viewBox="0 0 32 32">
<path fill="currentColor" d="M27.663 13.947l-0.006-0.025-3.506-8.909c-0.156-0.503-0.622-0.85-1.15-0.85h-14.213c-0.531 0-1.003 0.353-1.153 0.862l-3.278 8.819-0.009 0.022-0.006 0.025c-0.041 0.153-0.053 0.309-0.031 0.463-0.003 0.050-0.006 0.1-0.006 0.15v11.434c0.002 1.049 0.851 1.898 1.9 1.9h19.6c1.047 0 1.9-0.853 1.903-1.9v-11.434c0-0.041 0-0.081-0.003-0.116 0.012-0.153 0-0.3-0.041-0.441zM18.419 12.603l-0.009 0.491c-0.025 1.403-0.994 2.347-2.409 2.347-0.691 0-1.284-0.222-1.713-0.644s-0.662-1.009-0.675-1.703l-0.009-0.491h-6.431l2.484-6.041h12.475l2.553 6.041h-6.266zM6.7 15.003h4.916c0.759 1.784 2.375 2.837 4.387 2.837 1.053 0 2.031-0.294 2.822-0.85 0.694-0.488 1.234-1.169 1.584-1.988h4.891v10.434h-18.6v-10.434z"/>
</svg>
