<svg version="1.1" xmlns="http://www.w3.org/2000/svg" width="32" height="32" viewBox="0 0 32 32">
<path fill="currentColor" d="M26.75 3.5h-2.5c-0.137 0-0.25 0.112-0.25 0.25v24.5c0 0.137 0.113 0.25 0.25 0.25h2.5c0.137 0 0.25-0.113 0.25-0.25v-24.5c0-0.138-0.113-0.25-0.25-0.25zM20.5 3.5h-14.5c-0.553 0-1 0.466-1 1.041v22.916c0 0.575 0.447 1.041 1 1.041h14.5c0.553 0 1-0.466 1-1.041v-22.916c0-0.575-0.447-1.041-1-1.041zM12.25 26.25h-5v-5.5h5v5.5zM12.25 18.75h-5v-5.5h5v5.5zM12.25 11.25h-5v-5.5h5v5.5zM19.25 26.25h-5v-5.5h5v5.5zM19.25 18.75h-5v-5.5h5v5.5zM19.25 11.25h-5v-5.5h5v5.5z"/>
</svg>
