<svg version="1.1" xmlns="http://www.w3.org/2000/svg" width="32" height="32" viewBox="0 0 32 32">
<path fill="currentColor" d="M27.459 10.5h-22.919c-0.575 0-1.041 0.447-1.041 1v14.5c0 0.553 0.466 1 1.041 1h22.916c0.575 0 1.041-0.447 1.041-1v-14.5c0.003-0.553-0.462-1-1.038-1zM11.25 24.75h-5.5v-5h5.5v5zM11.25 17.75h-5.5v-5h5.5v5zM18.75 24.75h-5.5v-5h5.5v5zM18.75 17.75h-5.5v-5h5.5v5zM26.25 24.75h-5.5v-5h5.5v5zM26.25 17.75h-5.5v-5h5.5v5zM28.25 5h-24.5c-0.138 0-0.25 0.112-0.25 0.25v2.5c0 0.138 0.112 0.25 0.25 0.25h24.5c0.137 0 0.25-0.112 0.25-0.25v-2.5c0-0.138-0.113-0.25-0.25-0.25z"/>
</svg>
