<svg version="1.1" xmlns="http://www.w3.org/2000/svg" width="32" height="32" viewBox="0 0 32 32">
<path fill="currentColor" d="M16 9.591c-3.547 0-6.409 2.863-6.409 6.409s2.863 6.409 6.409 6.409 6.409-2.863 6.409-6.409-2.863-6.409-6.409-6.409zM16 20.166c-2.294 0-4.166-1.872-4.166-4.166s1.872-4.166 4.166-4.166 4.166 1.872 4.166 4.166-1.872 4.166-4.166 4.166zM22.672 7.834c-0.828 0-1.497 0.669-1.497 1.497s0.669 1.497 1.497 1.497 1.497-0.666 1.497-1.497c0-0.001 0-0.001 0-0.002 0-0.826-0.669-1.495-1.495-1.495-0.001 0-0.001 0-0.002 0h0zM28.494 16c0-1.725 0.016-3.434-0.081-5.156-0.097-2-0.553-3.775-2.016-5.237-1.466-1.466-3.238-1.919-5.238-2.016-1.725-0.097-3.434-0.081-5.156-0.081-1.725 0-3.434-0.016-5.156 0.081-2 0.097-3.775 0.553-5.237 2.016-1.466 1.466-1.919 3.237-2.016 5.237-0.097 1.725-0.081 3.434-0.081 5.156s-0.016 3.434 0.081 5.156c0.097 2 0.553 3.775 2.016 5.238 1.466 1.466 3.237 1.919 5.237 2.016 1.725 0.097 3.434 0.081 5.156 0.081 1.725 0 3.434 0.016 5.156-0.081 2-0.097 3.775-0.553 5.238-2.016 1.466-1.466 1.919-3.238 2.016-5.238 0.1-1.722 0.081-3.431 0.081-5.156zM25.744 23.369c-0.228 0.569-0.503 0.994-0.944 1.431-0.441 0.441-0.863 0.716-1.431 0.944-1.644 0.653-5.547 0.506-7.369 0.506s-5.728 0.147-7.372-0.503c-0.569-0.228-0.994-0.503-1.431-0.944-0.441-0.441-0.716-0.863-0.944-1.431-0.65-1.647-0.503-5.55-0.503-7.372s-0.147-5.728 0.503-7.372c0.228-0.569 0.503-0.994 0.944-1.431s0.863-0.716 1.431-0.944c1.644-0.65 5.55-0.503 7.372-0.503s5.728-0.147 7.372 0.503c0.569 0.228 0.994 0.503 1.431 0.944 0.441 0.441 0.716 0.863 0.944 1.431 0.65 1.644 0.503 5.55 0.503 7.372s0.147 5.725-0.506 7.369z"/>
</svg>
