<svg version="1.1" xmlns="http://www.w3.org/2000/svg" width="32" height="32" viewBox="0 0 32 32">
<path fill="currentColor" d="M13.8 9.588l-1.206-0.569c-0.024-0.011-0.051-0.018-0.081-0.018-0.085 0-0.157 0.056-0.181 0.132l-0 0.001c-0.547 1.828-1.412 3.441-2.569 4.8-0.028 0.033-0.045 0.076-0.045 0.122 0 0.019 0.003 0.037 0.008 0.054l-0-0.001 0.412 1.359c0.041 0.137 0.219 0.178 0.319 0.075 0.241-0.253 0.481-0.528 0.722-0.813v5.769c0 0.137 0.113 0.25 0.25 0.25h1.166c0.137 0 0.25-0.113 0.25-0.25v-8.216c0.395-0.702 0.751-1.519 1.024-2.374l0.026-0.095c0.031-0.091-0.009-0.188-0.094-0.228zM14.637 9.875v3.975c0 0.137 0.113 0.25 0.25 0.25h2.059v0.581h-2.966c-0.137 0-0.25 0.113-0.25 0.25v1.112c0 0.137 0.113 0.25 0.25 0.25h1.722c-0.597 0.962-1.325 1.741-2.219 2.375-0.048 0.034-0.079 0.090-0.079 0.153 0 0.037 0.011 0.072 0.029 0.101l-0-0.001 0.713 1.141c0.059 0.097 0.194 0.119 0.278 0.044 0.988-0.837 1.834-1.966 2.519-3.363v3.75c0 0.137 0.113 0.25 0.25 0.25h1.131c0.137 0 0.25-0.113 0.25-0.25v-3.744c0.666 1.303 1.484 2.422 2.441 3.341 0.081 0.078 0.212 0.066 0.278-0.022l0.822-1.103c0.063-0.084 0.044-0.203-0.038-0.262-0.953-0.706-1.694-1.494-2.259-2.403h1.844c0.137 0 0.25-0.113 0.25-0.25v-1.113c0-0.137-0.113-0.25-0.25-0.25h-3.087v-0.581h2.084c0.137 0 0.25-0.113 0.25-0.25v-3.981c0-0.137-0.113-0.25-0.25-0.25h-5.772c-0.137 0-0.25 0.113-0.25 0.25zM16.247 11.213h3.059v1.3h-3.059v-1.3zM27.091 5.309l-10.619-3.619c-0.128-0.044-0.3-0.066-0.472-0.066s-0.344 0.022-0.472 0.066l-10.619 3.619c-0.259 0.088-0.472 0.388-0.472 0.662v15.075c0 0.275 0.178 0.637 0.394 0.809l10.772 8.394c0.109 0.084 0.25 0.128 0.394 0.128s0.288-0.044 0.394-0.128l10.772-8.394c0.216-0.169 0.394-0.531 0.394-0.809v-15.075c0.006-0.275-0.206-0.572-0.466-0.662zM25.313 20.447l-9.313 7.256-9.313-7.256v-13.363l9.313-3.175 9.313 3.175v13.363z"/>
</svg>
