<svg version="1.1" xmlns="http://www.w3.org/2000/svg" width="32" height="32" viewBox="0 0 32 32">
<path fill="currentColor" d="M14.5 21.5c0 0.828 0.672 1.5 1.5 1.5s1.5-0.672 1.5-1.5v0c0-0.828-0.672-1.5-1.5-1.5s-1.5 0.672-1.5 1.5v0zM16.75 18c0.137 0 0.25-0.113 0.25-0.25v-8.5c0-0.137-0.113-0.25-0.25-0.25h-1.5c-0.137 0-0.25 0.113-0.25 0.25v8.5c0 0.137 0.113 0.25 0.25 0.25h1.5zM29.25 12.125h-1.853c-0.081 0-0.156 0.037-0.203 0.103l-3.328 4.588-1.559-2.15c-0.045-0.063-0.119-0.103-0.201-0.103-0.001 0-0.001 0-0.002 0h-1.853c-0.203 0-0.322 0.231-0.203 0.397l3.413 4.709c0.093 0.126 0.24 0.206 0.406 0.206s0.314-0.081 0.405-0.205l0.001-0.001 5.181-7.147c0.119-0.166 0-0.397-0.203-0.397zM27.875 21.688h-2.006c-0.172 0-0.331 0.091-0.425 0.234-0.465 0.733-0.979 1.37-1.556 1.943l-0.001 0.001c-0.989 0.99-2.164 1.795-3.468 2.357l-0.072 0.028c-1.272 0.551-2.754 0.872-4.311 0.872-0.008 0-0.016 0-0.025-0h0.001c-1.503 0-2.963-0.294-4.334-0.872-1.376-0.59-2.551-1.394-3.541-2.384l-0-0c-0.993-0.987-1.799-2.162-2.36-3.466l-0.027-0.072c-0.581-1.369-0.875-2.828-0.875-4.328s0.294-2.959 0.875-4.328c0.559-1.325 1.362-2.516 2.387-3.537s2.216-1.825 3.541-2.384c1.272-0.551 2.754-0.872 4.311-0.872 0.008 0 0.016 0 0.025 0h-0.001c1.503 0 2.962 0.294 4.334 0.872 1.325 0.559 2.516 1.362 3.541 2.384 0.594 0.594 1.113 1.244 1.556 1.944 0.091 0.147 0.253 0.234 0.425 0.234h2.006c0.188 0 0.306-0.197 0.225-0.363-2.2-4.372-6.703-7.388-11.922-7.45-7.463-0.087-13.662 6.016-13.678 13.475-0.016 7.466 6.041 13.525 13.512 13.525 5.288 0 9.863-3.031 12.084-7.45 0.017-0.033 0.027-0.071 0.027-0.113 0-0.138-0.111-0.249-0.249-0.25h-0z"/>
</svg>
