<svg version="1.1" xmlns="http://www.w3.org/2000/svg" width="32" height="32" viewBox="0 0 32 32">
<path fill="currentColor" d="M13 5.5h-5.014v13.3c0 3.291-1.13 4.21-3.097 4.21-0.922 0-1.752-0.158-2.397-0.38l-0.523 3.894c0.921 0.317 2.335 0.507 3.441 0.507 4.516 0 7.59-2.12 7.59-8.198zM23.922 5c-4.851 0-7.922 2.754-7.922 6.394 0 3.135 2.365 5.098 5.803 6.363 2.487 0.886 3.47 1.678 3.47 2.976 0 1.424-1.136 2.343-3.285 2.343-1.996 0-3.808-0.666-5.036-1.33v-0.001l-0.952 3.957c1.168 0.666 3.348 1.33 5.711 1.33 5.681 0 8.321-3.039 8.321-6.616 0-3.039-1.689-5.001-5.342-6.395-2.702-1.076-3.838-1.677-3.838-3.038 0-1.077 0.983-2.057 3.009-2.057 1.995 0 3.366 0.67 4.166 1.082l1.198-4.006c-1.253-0.55-2.94-1.002-5.303-1.002z"/>
</svg>
