<svg version="1.1" xmlns="http://www.w3.org/2000/svg" width="32" height="32" viewBox="0 0 32 32">
<path fill="currentColor" d="M12.334 23.656s-1.073 0.623 0.761 0.831c2.222 0.252 3.355 0.219 5.801-0.246 0 0 0.646 0.405 1.543 0.755-5.484 2.346-12.412-0.137-8.105-1.34zM11.666 20.588s-1.198 0.886 0.635 1.077c2.37 0.246 4.247 0.262 7.487-0.361 0 0 0.449 0.454 1.155 0.7-6.638 1.941-14.026 0.159-9.276-1.416zM17.314 15.387c1.352 1.553-0.356 2.953-0.356 2.953s3.431-1.772 1.855-3.987c-1.472-2.067-2.6-3.095 3.508-6.634 0.005 0-9.588 2.395-5.008 7.667zM24.571 25.92s0.794 0.651-0.87 1.159c-3.169 0.957-13.178 1.247-15.958 0.038-1.002-0.432 0.876-1.039 1.467-1.165 0.613-0.131 0.969-0.109 0.969-0.109-1.111-0.782-7.186 1.537-3.087 2.198 11.175 1.816 20.38-0.815 17.48-2.122zM12.848 17.411s-5.095 1.209-1.806 1.646c1.39 0.186 4.159 0.142 6.737-0.071 2.107-0.175 4.225-0.558 4.225-0.558s-0.744 0.317-1.281 0.684c-5.172 1.362-15.159 0.727-12.286-0.662 2.435-1.17 4.411-1.039 4.411-1.039zM21.988 22.513c5.259-2.729 2.824-5.354 1.127-4.998-0.416 0.087-0.602 0.164-0.602 0.164s0.153-0.241 0.449-0.345c3.355-1.181 5.938 3.478-1.084 5.321 0-0.005 0.082-0.077 0.109-0.142zM18.813 2s2.911 2.909-2.764 7.383c-4.548 3.588-1.040 5.638 0 7.973-2.654-2.395-4.602-4.501-3.295-6.464 1.921-2.871 7.235-4.271 6.058-8.892zM13.368 29.912c5.046 0.323 12.795-0.18 12.976-2.565 0 0-0.35 0.902-4.17 1.624-4.307 0.809-9.621 0.716-12.768 0.197 0-0.005 0.646 0.53 3.962 0.744z"/>
</svg>
