<svg version="1.1" xmlns="http://www.w3.org/2000/svg" width="32" height="32" viewBox="0 0 32 32">
<path fill="currentColor" d="M19 3.5c-5.247 0-9.5 4.253-9.5 9.5 0 2.197 0.747 4.219 1.997 5.828l-3.503 3.472-1.947-1.947c-0.098-0.096-0.258-0.096-0.356 0l-1.244 1.244c-0.096 0.098-0.096 0.258 0 0.356l1.947 1.947-1.403 1.403-1.947-1.947c-0.098-0.096-0.258-0.096-0.356 0l-1.244 1.244c-0.096 0.098-0.096 0.258 0 0.356l3.447 3.475c0.097 0.097 0.256 0.097 0.353 0l7.925-7.925c1.591 1.243 3.62 1.994 5.824 1.994 0.003 0 0.005 0 0.008 0h-0c5.247 0 9.5-4.253 9.5-9.5s-4.253-9.5-9.5-9.5zM24.038 18.038c-1.344 1.347-3.134 2.087-5.038 2.087s-3.694-0.741-5.037-2.087c-1.347-1.344-2.088-3.134-2.088-5.037s0.741-3.694 2.088-5.037c1.344-1.347 3.134-2.088 5.037-2.088s3.694 0.741 5.038 2.088c1.347 1.344 2.087 3.134 2.087 5.037s-0.741 3.694-2.087 5.037z"/>
</svg>
