<svg version="1.1" xmlns="http://www.w3.org/2000/svg" width="32" height="32" viewBox="0 0 32 32">
<path fill="currentColor" d="M16 3.469c-0 0-0 0-0 0-0.304 0-0.592 0.071-0.848 0.197l0.011-0.005-8.478 4.094c-0.527 0.255-0.911 0.737-1.041 1.308l-2.095 9.204c-0.030 0.128-0.048 0.276-0.048 0.427 0 0.455 0.158 0.874 0.421 1.204l-0.003-0.004 5.869 7.38c0.365 0.459 0.921 0.727 1.508 0.727h9.408c0.587 0 1.143-0.268 1.508-0.727l5.869-7.38c0.364-0.457 0.501-1.056 0.372-1.626v-0.001l-2.096-9.205c-0.13-0.57-0.513-1.052-1.041-1.307l-8.477-4.094c-0-0-0.001-0.001-0.001-0.001v0c-0.245-0.12-0.532-0.191-0.836-0.191-0 0-0.001 0-0.001 0h0zM16 4.566c0.123 0 0.246 0.027 0.361 0.082l8.478 4.094c0.225 0.11 0.391 0.313 0.448 0.558l0.001 0.006 2.095 9.204c0.013 0.056 0.021 0.119 0.021 0.185 0 0.196-0.068 0.376-0.182 0.518l0.001-0.002-5.869 7.38c-0.158 0.199-0.397 0.313-0.65 0.313h-9.408c-0.254 0-0.491-0.114-0.649-0.313l-5.869-7.38c-0.157-0.198-0.217-0.455-0.161-0.702l2.096-9.203c0.056-0.247 0.221-0.454 0.448-0.563v-0.001l8.478-4.094c0.105-0.052 0.229-0.082 0.36-0.082 0 0 0 0 0.001 0h-0zM15.995 6.873c-0.077 0-0.156 0.016-0.231 0.047-0.302 0.132-0.444 0.482-0.313 0.784 0.126 0.296 0.17 0.592 0.202 0.888 0.011 0.154 0.017 0.302 0.012 0.45 0.016 0.148-0.061 0.296-0.17 0.444-0.115 0.148-0.126 0.296-0.142 0.444-1.505 0.148-2.86 0.807-3.895 1.798l-0.010-0.005c-0.126-0.082-0.246-0.165-0.438-0.17-0.181-0.011-0.346-0.043-0.45-0.153-0.115-0.088-0.23-0.186-0.334-0.29-0.214-0.208-0.417-0.434-0.566-0.719-0.071-0.137-0.203-0.247-0.362-0.297-0.318-0.088-0.647 0.093-0.74 0.411-0.093 0.313 0.093 0.647 0.411 0.735 0.307 0.093 0.565 0.247 0.817 0.411 0.133 0.091 0.247 0.179 0.357 0.273l-0.005-0.004c0.126 0.082 0.192 0.236 0.241 0.411 0.036 0.176 0.137 0.277 0.236 0.376-0.751 1.069-1.195 2.368-1.195 3.77 0 0.232 0.013 0.461 0.036 0.687-0.123 0.043-0.245 0.090-0.349 0.213-0.121 0.137-0.252 0.246-0.401 0.257-0.124 0.035-0.272 0.064-0.425 0.081l-0.014 0.001c-0.296 0.038-0.598 0.060-0.91-0.005-0.154-0.027-0.323 0.005-0.461 0.104-0.269 0.186-0.329 0.559-0.142 0.828 0.192 0.269 0.565 0.335 0.833 0.144 0.263-0.186 0.543-0.291 0.828-0.384 0.143-0.044 0.286-0.082 0.434-0.109 0.143-0.049 0.301-0.006 0.471 0.065 0.141 0.073 0.266 0.067 0.39 0.055 0.483 1.565 1.538 2.876 2.916 3.704-0.047 0.132-0.091 0.269-0.049 0.442 0.033 0.181 0.038 0.352-0.039 0.478-0.060 0.137-0.126 0.268-0.197 0.399-0.154 0.252-0.318 0.505-0.559 0.724-0.115 0.104-0.193 0.252-0.198 0.422-0.011 0.329 0.247 0.604 0.576 0.615s0.609-0.247 0.62-0.576c0.005-0.324 0.093-0.608 0.192-0.893 0.049-0.137 0.11-0.274 0.176-0.406 0.049-0.143 0.181-0.247 0.34-0.335 0.158-0.082 0.23-0.197 0.301-0.319 0.692 0.248 1.434 0.391 2.211 0.391 0.79 0 1.544-0.148 2.246-0.404 0.074 0.127 0.151 0.247 0.31 0.332 0.159 0.093 0.29 0.193 0.34 0.335 0.066 0.137 0.121 0.274 0.17 0.411 0.099 0.285 0.181 0.57 0.192 0.893 0 0.159 0.066 0.313 0.192 0.428 0.247 0.219 0.62 0.203 0.845-0.039 0.219-0.247 0.203-0.62-0.039-0.845-0.241-0.214-0.406-0.472-0.554-0.729-0.071-0.126-0.137-0.263-0.197-0.394-0.077-0.132-0.072-0.297-0.033-0.478 0.044-0.186-0.005-0.323-0.049-0.466l-0.004-0.014c1.367-0.836 2.409-2.151 2.881-3.716l0.018 0.001c0.154 0.011 0.301 0.027 0.466-0.066 0.165-0.077 0.33-0.121 0.472-0.077 0.143 0.022 0.29 0.055 0.433 0.093 0.285 0.082 0.571 0.181 0.84 0.362 0.132 0.082 0.296 0.121 0.461 0.082 0.324-0.071 0.526-0.389 0.455-0.707-0.071-0.324-0.39-0.526-0.713-0.455-0.318 0.071-0.614 0.060-0.916 0.032-0.148-0.016-0.291-0.038-0.439-0.071-0.148-0.011-0.279-0.109-0.405-0.241-0.126-0.148-0.269-0.186-0.411-0.23l-0.010-0.003c0.019-0.203 0.031-0.409 0.031-0.617 0-1.36-0.415-2.625-1.125-3.675 0.104-0.109 0.209-0.213 0.247-0.399 0.049-0.175 0.115-0.329 0.241-0.411 0.11-0.099 0.231-0.186 0.351-0.274 0.247-0.165 0.505-0.324 0.812-0.411 0.154-0.044 0.284-0.148 0.361-0.302 0.154-0.291 0.039-0.652-0.257-0.8-0.291-0.154-0.653-0.039-0.801 0.257-0.148 0.285-0.351 0.51-0.559 0.719-0.11 0.104-0.219 0.203-0.334 0.297-0.104 0.11-0.269 0.142-0.45 0.153-0.192 0.005-0.313 0.093-0.439 0.176-1.046-1.036-2.436-1.724-3.981-1.875-0.016-0.148-0.027-0.296-0.142-0.444-0.11-0.148-0.187-0.296-0.17-0.444-0.005-0.148 0.001-0.296 0.012-0.45 0.033-0.296 0.076-0.592 0.202-0.888 0.060-0.143 0.066-0.312 0-0.471-0.099-0.226-0.321-0.36-0.553-0.36zM15.209 11.057l-0.027 0.211c-0.077 0.592-0.132 1.19-0.186 1.782-0.024 0.203-0.054 0.528-0.077 0.855l-0.005 0.089c-0.269-0.192-0.537-0.395-0.823-0.576-0.494-0.335-0.987-0.669-1.497-0.988l-0.172-0.107c0.771-0.665 1.73-1.114 2.788-1.266zM16.79 11.057c1.101 0.159 2.093 0.641 2.88 1.351l-0.183 0.116c-0.505 0.324-0.992 0.658-1.486 0.993-0.197 0.132-0.39 0.269-0.576 0.406-0.148 0.104-0.351 0.011-0.362-0.17-0.016-0.236-0.038-0.466-0.060-0.702-0.055-0.592-0.11-1.19-0.186-1.782zM11.383 13.521l0.175 0.182c0.417 0.433 0.839 0.85 1.267 1.272 0.181 0.181 0.362 0.352 0.548 0.522 0.132 0.121 0.082 0.334-0.088 0.383-0.269 0.082-0.538 0.159-0.806 0.246-0.565 0.186-1.135 0.363-1.7 0.566l-0.248 0.087c-0.005-0.1-0.015-0.199-0.015-0.301 0-1.091 0.321-2.104 0.868-2.957zM20.681 13.629c0.506 0.831 0.802 1.803 0.802 2.849 0 0.092-0.009 0.18-0.014 0.271l-0.195-0.062c-0.57-0.186-1.14-0.346-1.716-0.511-0.373-0.11-0.746-0.208-1.119-0.301 0.28-0.269 0.571-0.532 0.84-0.807 0.422-0.422 0.844-0.844 1.255-1.283zM15.66 15.381h0.668c0.104 0 0.203 0.050 0.258 0.126l0.427 0.538c0.060 0.071 0.083 0.175 0.066 0.268l-0.154 0.664c-0.016 0.104-0.088 0.186-0.176 0.236l-0.614 0.285c-0.041 0.023-0.090 0.037-0.142 0.037s-0.101-0.014-0.144-0.038l0.001 0.001-0.615-0.285c-0.088-0.049-0.165-0.131-0.176-0.236l-0.153-0.664c-0.016-0.093 0.006-0.196 0.066-0.268l0.427-0.538c0.055-0.077 0.154-0.126 0.258-0.126zM13.68 17.997c0.17-0.027 0.308 0.143 0.242 0.302-0.104 0.274-0.203 0.543-0.297 0.817-0.203 0.565-0.4 1.124-0.587 1.694l-0.075 0.236c-0.976-0.649-1.726-1.604-2.125-2.728l0.291-0.025c0.598-0.055 1.184-0.127 1.782-0.198 0.258-0.027 0.51-0.066 0.768-0.099zM18.418 18.074c0.258 0.027 0.51 0.055 0.768 0.077 0.598 0.055 1.19 0.109 1.788 0.148l0.191 0.011c-0.392 1.11-1.125 2.056-2.081 2.706l-0.062-0.199c-0.181-0.57-0.378-1.135-0.57-1.694-0.088-0.252-0.176-0.499-0.269-0.745-0.060-0.159 0.071-0.324 0.236-0.302zM16.040 19.156c0.078 0 0.156 0.039 0.2 0.119 0.121 0.23 0.247 0.455 0.379 0.68 0.296 0.515 0.591 1.037 0.909 1.541l0.13 0.21c-0.496 0.162-1.066 0.256-1.659 0.256-0 0-0 0-0.001 0h0c-0 0-0.001 0-0.001 0-0.575 0-1.129-0.088-1.65-0.252l0.039 0.011 0.137-0.22c0.318-0.505 0.62-1.020 0.921-1.536 0.102-0.161 0.233-0.387 0.358-0.617l0.037-0.074c0.044-0.080 0.121-0.119 0.199-0.119z"/>
</svg>
