<svg version="1.1" xmlns="http://www.w3.org/2000/svg" width="32" height="32" viewBox="0 0 32 32">
<path fill="currentColor" d="M29.903 26.409l-1.891-6.659v-14.5c0-0.553-0.447-1-1-1h-22c-0.553 0-1 0.447-1 1v14.5l-1.891 6.659c-0.234 0.653 0.247 1.341 0.941 1.341h25.9c0.694 0 1.175-0.688 0.941-1.341zM6.263 6.5h19.5v12.344h-19.5v-12.344zM13.397 25.5l0.253-1.156h4.697l0.253 1.156h-5.203zM20.397 25.5l-0.597-2.709c-0.025-0.116-0.128-0.197-0.244-0.197h-7.113c-0.119 0-0.219 0.081-0.244 0.197l-0.597 2.709h-6.884l1.322-4.656h19.944l1.322 4.656h-6.909z"/>
</svg>
