<svg version="1.1" xmlns="http://www.w3.org/2000/svg" width="32" height="32" viewBox="0 0 32 32">
<path fill="currentColor" d="M11.416 16.203l7.687 5.563c0.166 0.119 0.397 0 0.397-0.203v-1.466c0-0.319-0.153-0.622-0.413-0.809l-4.544-3.288 4.544-3.287c0.259-0.188 0.413-0.488 0.413-0.809v-1.466c0-0.203-0.231-0.322-0.397-0.203l-7.688 5.563c-0.063 0.046-0.103 0.12-0.103 0.203s0.040 0.157 0.102 0.203l0.001 0z"/>
<path fill="currentColor" d="M27.5 3.5h-23c-0.553 0-1 0.447-1 1v23c0 0.553 0.447 1 1 1h23c0.553 0 1-0.447 1-1v-23c0-0.553-0.447-1-1-1zM26.25 26.25h-20.5v-20.5h20.5v20.5z"/>
</svg>
