<svg version="1.1" xmlns="http://www.w3.org/2000/svg" width="32" height="32" viewBox="0 0 32 32">
<path fill="currentColor" d="M18.853 10.234l-7.688 5.563c-0.063 0.046-0.103 0.119-0.103 0.202s0.040 0.156 0.102 0.201l0.001 0 7.688 5.563c0.166 0.119 0.397 0 0.397-0.203v-1.466c0-0.319-0.153-0.622-0.413-0.809l-4.544-3.284 4.544-3.287c0.259-0.188 0.413-0.488 0.413-0.809v-1.466c0-0.203-0.231-0.322-0.397-0.203z"/>
<path fill="currentColor" d="M16 2c-7.731 0-14 6.269-14 14s6.269 14 14 14 14-6.269 14-14-6.269-14-14-14zM16 27.625c-6.419 0-11.625-5.206-11.625-11.625s5.206-11.625 11.625-11.625 11.625 5.206 11.625 11.625-5.206 11.625-11.625 11.625z"/>
</svg>
