<svg version="1.1" xmlns="http://www.w3.org/2000/svg" width="32" height="32" viewBox="0 0 32 32">
<path fill="currentColor" d="M27.684 16.678c0.525-0.694 0.816-1.544 0.816-2.428 0-1.403-0.784-2.731-2.047-3.472-0.306-0.183-0.675-0.291-1.070-0.291-0.001 0-0.001 0-0.002 0h-7.494l0.188-3.841c0.044-0.928-0.284-1.809-0.922-2.481-0.609-0.643-1.469-1.044-2.422-1.044-0.004 0-0.009 0-0.013 0h0.001c-1.625 0-3.063 1.094-3.494 2.659l-2.684 9.719h-4.041c-0.553 0-1 0.447-1 1v11.375c0 0.553 0.447 1 1 1h18.791c0.288 0 0.569-0.056 0.828-0.169 1.488-0.634 2.447-2.087 2.447-3.7 0-0.394-0.056-0.781-0.169-1.156 0.525-0.694 0.816-1.544 0.816-2.428 0-0.394-0.056-0.781-0.169-1.156 0.525-0.694 0.816-1.544 0.816-2.428-0.006-0.394-0.063-0.784-0.175-1.159zM5.75 26.625v-8.875h2.531v8.875h-2.531zM25.637 15.594l-0.684 0.594 0.434 0.794c0.136 0.243 0.216 0.534 0.216 0.843 0 0.003 0 0.007-0 0.010v-0.001c0 0.516-0.225 1.006-0.613 1.344l-0.684 0.594 0.434 0.794c0.136 0.243 0.216 0.534 0.216 0.843 0 0.003 0 0.007-0 0.010v-0.001c0 0.516-0.225 1.006-0.613 1.344l-0.684 0.594 0.434 0.794c0.136 0.243 0.216 0.534 0.216 0.843 0 0.003 0 0.007-0 0.010v-0.001c0 0.7-0.413 1.331-1.050 1.619h-12.978v-8.972l3.109-11.266c0.166-0.584 0.693-1.005 1.318-1.009h0.001c0.238 0 0.472 0.069 0.659 0.209 0.309 0.231 0.475 0.581 0.456 0.953l-0.3 6.2h9.825c0.556 0.341 0.9 0.916 0.9 1.512 0 0.516-0.225 1.003-0.613 1.344z"/>
</svg>
