<svg version="1.1" xmlns="http://www.w3.org/2000/svg" width="32" height="32" viewBox="0 0 32 32">
<path fill="currentColor" d="M20.25 5h-17c-0.138 0-0.25 0.112-0.25 0.25v4c0 0.137 0.112 0.25 0.25 0.25h1.75c0.138 0 0.25-0.113 0.25-0.25v-2h5.25v17.5h-2.875c-0.138 0-0.25 0.113-0.25 0.25v1.75c0 0.137 0.112 0.25 0.25 0.25h8.25c0.137 0 0.25-0.113 0.25-0.25v-1.75c0-0.137-0.113-0.25-0.25-0.25h-2.875v-17.5h5.25v2c0 0.137 0.113 0.25 0.25 0.25h1.75c0.137 0 0.25-0.113 0.25-0.25v-4c0-0.138-0.113-0.25-0.25-0.25zM28.775 22.063h-2.025v-12.125h2.025c0.188 0 0.294-0.219 0.178-0.366l-3.15-3.987c-0.041-0.053-0.105-0.087-0.177-0.087s-0.135 0.034-0.176 0.086l-0 0-3.15 3.987c-0.030 0.038-0.048 0.087-0.048 0.14 0 0.125 0.101 0.226 0.226 0.226 0 0 0 0 0.001 0h2.022v12.125h-2.025c-0.188 0-0.294 0.219-0.178 0.366l3.15 3.984c0.091 0.116 0.266 0.116 0.353 0l3.15-3.984c0.031-0.038 0.049-0.087 0.049-0.141 0-0.124-0.1-0.225-0.224-0.225h-0z"/>
</svg>
