<svg version="1.1" xmlns="http://www.w3.org/2000/svg" width="32" height="32" viewBox="0 0 32 32">
<path fill="currentColor" d="M26.491 3.5h-20.981c-1.109 0-2.009 0.9-2.009 2.009v20.981c0 1.109 0.9 2.009 2.009 2.009h20.981c1.109 0 2.009-0.9 2.009-2.009v-20.981c0-1.109-0.9-2.009-2.009-2.009zM26.491 26.5c-13.994-0.003-20.991-0.006-20.991-0.009 0.003-13.994 0.006-20.991 0.009-20.991 13.994 0.003 20.991 0.006 20.991 0.009-0.003 13.994-0.006 20.991-0.009 20.991zM7.206 12.872h3.709v11.931h-3.709zM9.063 11.241c1.184 0 2.15-0.963 2.15-2.15s-0.963-2.15-2.15-2.15-2.15 0.963-2.15 2.15v0c-0.003 1.188 0.959 2.15 2.15 2.15zM16.947 18.9c0-1.556 0.297-3.063 2.225-3.063 1.9 0 1.928 1.778 1.928 3.163v5.803h3.706v-6.544c0-3.213-0.694-5.684-4.447-5.684-1.803 0-3.012 0.991-3.509 1.928h-0.050v-1.631h-3.559v11.931h3.706v-5.903z"/>
</svg>
