<svg version="1.1" xmlns="http://www.w3.org/2000/svg" width="32" height="32" viewBox="0 0 32 32">
<path fill="currentColor" d="M17.938 20.794c-0.045-0.045-0.108-0.073-0.177-0.073s-0.131 0.028-0.177 0.073l-3.631 3.631c-1.681 1.681-4.519 1.859-6.375 0-1.859-1.859-1.681-4.694 0-6.375l3.631-3.631c0.097-0.097 0.097-0.256 0-0.353l-1.244-1.244c-0.045-0.045-0.108-0.073-0.177-0.073s-0.131 0.028-0.177 0.073l-3.631 3.631c-2.644 2.644-2.644 6.922 0 9.563s6.922 2.644 9.563 0l3.631-3.631c0.097-0.097 0.097-0.256 0-0.353l-1.238-1.238zM26.019 5.981c-2.644-2.644-6.922-2.644-9.563 0l-3.634 3.631c-0.045 0.045-0.073 0.108-0.073 0.177s0.028 0.131 0.073 0.177l1.241 1.241c0.097 0.097 0.256 0.097 0.353 0l3.631-3.631c1.681-1.681 4.519-1.859 6.375 0 1.859 1.859 1.681 4.694 0 6.375l-3.631 3.631c-0.045 0.045-0.073 0.108-0.073 0.177s0.028 0.131 0.073 0.177l1.244 1.244c0.097 0.097 0.256 0.097 0.353 0l3.631-3.631c2.641-2.644 2.641-6.922 0-9.566zM19.066 11.634c-0.045-0.045-0.108-0.073-0.177-0.073s-0.131 0.028-0.177 0.073l-7.078 7.075c-0.045 0.045-0.073 0.108-0.073 0.177s0.028 0.131 0.073 0.177l1.237 1.237c0.097 0.097 0.256 0.097 0.353 0l7.075-7.075c0.097-0.097 0.097-0.256 0-0.353l-1.234-1.238z"/>
</svg>
