<svg version="1.1" xmlns="http://www.w3.org/2000/svg" width="32" height="32" viewBox="0 0 32 32">
<path fill="currentColor" d="M16.587 2c-0.181 0-0.367 0.009-0.559 0.025-4.931 0.388-3.623 5.608-3.698 7.347-0.090 1.275-0.35 2.28-1.226 3.524-1.032 1.226-2.481 3.208-3.168 5.274-0.324 0.971-0.478 1.965-0.335 2.904-0.053 0.043-0.097 0.095-0.128 0.155l-0.001 0.003c-0.303 0.313-0.524 0.701-0.772 0.979-0.232 0.232-0.566 0.311-0.93 0.467-0.365 0.159-0.768 0.314-1.008 0.794-0.105 0.219-0.159 0.458-0.154 0.701 0 0.232 0.032 0.468 0.064 0.625 0.068 0.465 0.135 0.85 0.045 1.132-0.289 0.793-0.325 1.337-0.122 1.732 0.203 0.39 0.624 0.547 1.095 0.701 0.946 0.233 2.228 0.157 3.237 0.699 1.080 0.545 2.177 0.783 3.052 0.548 0.623-0.14 1.13-0.546 1.404-1.091l0.005-0.012c0.685-0.003 1.435-0.314 2.636-0.39 0.815-0.068 1.836 0.311 3.007 0.232 0.029 0.157 0.073 0.232 0.133 0.39l0.003 0.003c0.456 0.908 1.298 1.321 2.198 1.249 0.899-0.070 1.857-0.625 2.633-1.524 0.736-0.892 1.963-1.265 2.774-1.753 0.406-0.232 0.734-0.547 0.757-0.995 0.027-0.467-0.232-0.947-0.833-1.606v-0.113l-0.003-0.003c-0.198-0.233-0.292-0.624-0.394-1.080-0.099-0.468-0.212-0.917-0.574-1.22h-0.003c-0.069-0.063-0.143-0.078-0.219-0.157-0.062-0.044-0.138-0.071-0.221-0.075l-0.001-0c0.503-1.491 0.308-2.975-0.202-4.309-0.622-1.645-1.709-3.077-2.537-4.063-0.929-1.172-1.839-2.283-1.821-3.93 0.032-2.51 0.276-7.155-4.134-7.162zM17.205 5.972h0.015c0.248 0 0.462 0.072 0.681 0.231 0.223 0.157 0.385 0.387 0.512 0.622 0.122 0.302 0.184 0.535 0.194 0.845 0-0.023 0.007-0.047 0.007-0.069v0.121c-0.002-0.007-0.004-0.016-0.005-0.024l-0-0-0.005-0.028c-0.003 0.298-0.067 0.581-0.18 0.837l0.005-0.013c-0.058 0.152-0.142 0.283-0.249 0.391l0-0c-0.028-0.016-0.062-0.033-0.097-0.047l-0.006-0.002c-0.122-0.053-0.232-0.075-0.332-0.155-0.072-0.030-0.157-0.056-0.245-0.075l-0.010-0.002c0.057-0.069 0.169-0.155 0.212-0.231 0.062-0.149 0.096-0.308 0.103-0.469v-0.022c0-0.007 0-0.015 0-0.024 0-0.158-0.026-0.311-0.074-0.453l0.003 0.010c-0.052-0.157-0.118-0.234-0.213-0.39-0.098-0.077-0.195-0.154-0.311-0.154h-0.019c-0.108 0-0.205 0.035-0.306 0.154-0.108 0.105-0.19 0.236-0.237 0.383l-0.002 0.007c-0.059 0.137-0.097 0.296-0.105 0.463l-0 0.003v0.022c0.002 0.104 0.009 0.209 0.023 0.311-0.225-0.078-0.511-0.158-0.708-0.236-0.012-0.077-0.019-0.154-0.021-0.232v-0.023c-0.001-0.019-0.001-0.041-0.001-0.063 0-0.302 0.065-0.589 0.181-0.848l-0.005 0.013c0.099-0.261 0.274-0.474 0.497-0.619l0.005-0.003c0.19-0.145 0.431-0.232 0.693-0.232 0 0 0 0 0 0h-0zM13.749 6.041h0.042c0.166 0 0.315 0.056 0.465 0.157 0.17 0.151 0.308 0.336 0.401 0.542 0.105 0.232 0.164 0.468 0.178 0.778v0.005c0.008 0.156 0.007 0.234-0.002 0.31v0.093c-0.035 0.008-0.065 0.021-0.097 0.028-0.177 0.064-0.32 0.158-0.458 0.233 0.014-0.104 0.015-0.209 0.003-0.311v-0.018c-0.014-0.155-0.046-0.232-0.096-0.388-0.038-0.123-0.105-0.228-0.193-0.311l-0-0c-0.051-0.047-0.12-0.075-0.195-0.075-0.007 0-0.013 0-0.020 0.001l0.001-0h-0.024c-0.083 0.007-0.152 0.048-0.217 0.154-0.072 0.087-0.122 0.194-0.14 0.311l-0 0.004c-0.021 0.080-0.033 0.173-0.033 0.268 0 0.042 0.002 0.083 0.007 0.123l-0-0.005v0.016c0.014 0.157 0.043 0.234 0.095 0.39 0.053 0.156 0.113 0.233 0.193 0.313 0.013 0.011 0.024 0.021 0.040 0.028-0.082 0.066-0.136 0.082-0.205 0.159-0.042 0.037-0.094 0.065-0.15 0.079l-0.002 0.001c-0.115-0.138-0.221-0.291-0.313-0.454l-0.008-0.015c-0.105-0.228-0.171-0.494-0.181-0.775l-0-0.004c-0.004-0.045-0.005-0.097-0.005-0.15 0-0.225 0.036-0.441 0.103-0.644l-0.004 0.014c0.069-0.241 0.182-0.449 0.332-0.627l-0.002 0.002c0.149-0.155 0.303-0.233 0.488-0.233zM15.349 8.031c0.386 0 0.854 0.076 1.417 0.465 0.342 0.233 0.61 0.314 1.228 0.546h0.003c0.297 0.159 0.473 0.31 0.558 0.465v-0.153c0.043 0.086 0.069 0.187 0.069 0.295 0 0.091-0.018 0.179-0.052 0.258l0.002-0.004c-0.143 0.363-0.602 0.751-1.241 0.983v0.002c-0.313 0.158-0.584 0.388-0.904 0.542-0.322 0.158-0.686 0.341-1.181 0.312-0.021 0.001-0.044 0.002-0.069 0.002-0.163 0-0.319-0.029-0.463-0.083l0.009 0.003c-0.148-0.081-0.271-0.157-0.389-0.24l0.014 0.009c-0.227-0.158-0.424-0.387-0.714-0.542v-0.006h-0.006c-0.467-0.287-0.719-0.597-0.8-0.829-0.080-0.313-0.006-0.547 0.225-0.7 0.261-0.158 0.443-0.316 0.563-0.392 0.121-0.086 0.167-0.119 0.205-0.153h0.002v-0.004c0.197-0.236 0.509-0.547 0.979-0.701 0.162-0.042 0.343-0.076 0.544-0.076zM18.614 10.531c0.419 1.653 1.396 4.054 2.025 5.218 0.334 0.623 0.997 1.935 1.286 3.528 0.182-0.006 0.384 0.021 0.598 0.075 0.754-1.949-0.637-4.045-1.27-4.627-0.258-0.235-0.271-0.391-0.143-0.391 0.687 0.623 1.592 1.834 1.92 3.216 0.151 0.624 0.186 1.288 0.024 1.948 0.078 0.033 0.157 0.071 0.239 0.078 1.204 0.623 1.648 1.094 1.435 1.793v-0.050c-0.071-0.003-0.14 0-0.211 0h-0.017c0.176-0.545-0.212-0.962-1.242-1.428-1.067-0.467-1.92-0.392-2.066 0.542-0.008 0.050-0.014 0.077-0.020 0.157-0.079 0.027-0.162 0.062-0.244 0.075-0.502 0.313-0.772 0.78-0.925 1.385-0.152 0.622-0.198 1.349-0.239 2.18v0.003c-0.024 0.39-0.2 0.978-0.372 1.576-1.75 1.251-4.176 1.794-6.24 0.39-0.136-0.236-0.292-0.44-0.47-0.622l0.001 0.001c-0.090-0.149-0.197-0.278-0.319-0.388l-0.002-0.001c0.212 0 0.394-0.034 0.542-0.078 0.168-0.079 0.297-0.216 0.365-0.385l0.002-0.005c0.126-0.311 0-0.813-0.402-1.357-0.402-0.545-1.086-1.161-2.086-1.774-0.735-0.465-1.15-1.015-1.342-1.629-0.193-0.623-0.167-1.266-0.018-1.919 0.286-1.248 1.018-2.461 1.486-3.223 0.125-0.076 0.043 0.158-0.476 1.136-0.462 0.876-1.331 2.913-0.142 4.496 0.049-1.222 0.322-2.369 0.779-3.416l-0.024 0.061c0.658-1.491 2.033-4.088 2.142-6.146 0.056 0.042 0.253 0.158 0.337 0.236 0.254 0.155 0.443 0.389 0.688 0.543 0.246 0.234 0.556 0.391 1.022 0.391 0.046 0.004 0.088 0.007 0.13 0.007 0.479 0 0.85-0.156 1.162-0.313 0.338-0.156 0.608-0.39 0.863-0.467h0.006c0.545-0.158 0.975-0.469 1.219-0.817zM21.164 20.982c0.043 0.701 0.4 1.452 1.029 1.606 0.686 0.156 1.673-0.388 2.089-0.892l0.246-0.011c0.367-0.009 0.673 0.012 0.988 0.311l0.003 0.003c0.243 0.232 0.356 0.619 0.456 1.022 0.099 0.468 0.18 0.91 0.477 1.244 0.567 0.615 0.752 1.057 0.742 1.33l0.003-0.007v0.021l-0.003-0.014c-0.017 0.306-0.216 0.462-0.581 0.694-0.735 0.468-2.037 0.831-2.866 1.832-0.721 0.86-1.599 1.329-2.375 1.389-0.775 0.062-1.443-0.233-1.836-1.048l-0.006-0.003c-0.245-0.468-0.14-1.196 0.065-1.972 0.205-0.779 0.499-1.569 0.54-2.214 0.043-0.833 0.089-1.557 0.227-2.116 0.14-0.542 0.359-0.93 0.748-1.148l0.052-0.026zM8.547 21.039h0.012c0.062 0 0.123 0.006 0.183 0.016 0.439 0.064 0.824 0.388 1.193 0.877l1.062 1.941 0.004 0.003c0.283 0.622 0.88 1.241 1.387 1.911 0.506 0.698 0.898 1.319 0.85 1.832v0.007c-0.066 0.868-0.559 1.339-1.312 1.51-0.752 0.157-1.773 0.002-2.794-0.541-1.129-0.625-2.471-0.547-3.333-0.702-0.43-0.077-0.713-0.235-0.843-0.468-0.13-0.232-0.132-0.701 0.143-1.435v-0.003l0.002-0.003c0.136-0.39 0.035-0.878-0.032-1.305-0.064-0.468-0.097-0.827 0.050-1.097 0.187-0.39 0.462-0.465 0.804-0.622 0.344-0.157 0.748-0.236 1.069-0.547h0.002v-0.003c0.299-0.313 0.519-0.701 0.779-0.978 0.222-0.234 0.443-0.392 0.773-0.392zM16.899 10.453c-0.508 0.235-1.102 0.624-1.736 0.624-0.632 0-1.132-0.311-1.492-0.544-0.181-0.156-0.327-0.313-0.436-0.391-0.191-0.156-0.168-0.39-0.086-0.39 0.127 0.019 0.15 0.158 0.232 0.234 0.112 0.077 0.251 0.232 0.421 0.388 0.339 0.233 0.793 0.545 1.36 0.545 0.566 0 1.228-0.312 1.631-0.544 0.227-0.158 0.519-0.39 0.756-0.545 0.182-0.16 0.174-0.313 0.325-0.313 0.151 0.019 0.040 0.156-0.171 0.389-0.23 0.176-0.492 0.356-0.764 0.522l-0.041 0.023v-0.001zM15.637 8.605v-0.026c-0.007-0.022 0.015-0.049 0.034-0.058 0.086-0.050 0.21-0.031 0.303 0.005 0.073 0 0.187 0.078 0.175 0.158-0.007 0.057-0.099 0.077-0.158 0.077-0.064 0-0.107-0.050-0.165-0.079-0.061-0.021-0.17-0.009-0.19-0.076zM14.994 8.605c-0.023 0.068-0.132 0.057-0.194 0.077-0.055 0.029-0.1 0.079-0.162 0.079-0.059 0-0.153-0.022-0.16-0.079-0.011-0.077 0.103-0.155 0.175-0.155 0.094-0.036 0.215-0.055 0.302-0.006 0.022 0.011 0.042 0.035 0.035 0.058v0.024h0.004z"/>
</svg>
