<svg version="1.1" xmlns="http://www.w3.org/2000/svg" width="32" height="32" viewBox="0 0 32 32">
<path fill="currentColor" d="M30.875 17.125c-0.622 0-1.125-0.503-1.125-1.125 0-1.856-0.363-3.656-1.081-5.353-0.73-1.699-1.724-3.15-2.947-4.372l-0-0c-1.221-1.225-2.672-2.219-4.283-2.913l-0.089-0.034c-1.694-0.716-3.494-1.078-5.35-1.078-0.622 0-1.125-0.503-1.125-1.125s0.503-1.125 1.125-1.125c2.159 0 4.256 0.422 6.228 1.259 1.906 0.803 3.616 1.959 5.084 3.428s2.622 3.181 3.428 5.084c0.834 1.972 1.256 4.069 1.256 6.228 0.003 0.622-0.5 1.125-1.122 1.125z"/>
</svg>
