<svg version="1.1" xmlns="http://www.w3.org/2000/svg" width="32" height="32" viewBox="0 0 32 32">
<path fill="currentColor" d="M16.303 2.563c-4.766-0.013-8.959 2.453-11.356 6.178-0.106 0.166 0.013 0.384 0.209 0.384h2.197c0.15 0 0.291-0.066 0.384-0.181 0.219-0.266 0.453-0.522 0.7-0.766 1.019-1.016 2.203-1.816 3.522-2.372 1.363-0.575 2.813-0.869 4.309-0.869s2.947 0.291 4.309 0.869c1.319 0.556 2.503 1.356 3.522 2.372s1.816 2.2 2.375 3.516c0.578 1.363 0.869 2.809 0.869 4.306s-0.294 2.944-0.869 4.306c-0.556 1.316-1.356 2.5-2.375 3.516s-2.203 1.816-3.522 2.372c-1.266 0.549-2.741 0.869-4.29 0.869-0.007 0-0.014 0-0.021-0h0.001c-1.497 0-2.947-0.294-4.309-0.869-1.369-0.587-2.538-1.387-3.522-2.372l-0-0c-0.247-0.247-0.478-0.503-0.7-0.766-0.094-0.116-0.237-0.181-0.384-0.181h-2.197c-0.197 0-0.319 0.219-0.209 0.384 2.394 3.716 6.569 6.178 11.322 6.178 7.381 0 13.375-5.941 13.45-13.3 0.075-7.478-5.928-13.556-13.416-13.575zM12.344 19.5v-2.375h-9.813c-0.138 0-0.25-0.113-0.25-0.25v-1.75c0-0.137 0.112-0.25 0.25-0.25h9.813v-2.375c0-0.209 0.244-0.328 0.406-0.197l4.434 3.5c0.059 0.046 0.096 0.117 0.096 0.197s-0.037 0.151-0.095 0.196l-0.001 0-4.434 3.5c-0.162 0.128-0.406 0.012-0.406-0.197z"/>
</svg>
