<svg version="1.1" xmlns="http://www.w3.org/2000/svg" width="32" height="32" viewBox="0 0 32 32">
<path fill="currentColor" d="M27.125 22.875h-2.197c-0.15 0-0.291 0.066-0.384 0.181-0.219 0.266-0.453 0.522-0.7 0.766-0.984 0.985-2.153 1.785-3.45 2.344l-0.072 0.028c-1.266 0.549-2.741 0.869-4.29 0.869-0.007 0-0.014 0-0.021-0h0.001c-1.497 0-2.947-0.294-4.309-0.869-1.369-0.587-2.538-1.387-3.522-2.372l-0-0c-0.986-0.982-1.787-2.149-2.347-3.444l-0.028-0.072c-0.578-1.363-0.869-2.809-0.869-4.306s0.294-2.944 0.869-4.306c0.556-1.316 1.356-2.5 2.375-3.516s2.203-1.816 3.522-2.372c1.363-0.575 2.813-0.869 4.309-0.869s2.947 0.291 4.309 0.869c1.319 0.556 2.503 1.356 3.522 2.372 0.247 0.247 0.478 0.503 0.7 0.766 0.094 0.116 0.238 0.181 0.384 0.181h2.197c0.197 0 0.319-0.219 0.209-0.384-2.397-3.725-6.591-6.191-11.356-6.178-7.488 0.019-13.491 6.097-13.416 13.575 0.075 7.359 6.069 13.3 13.45 13.3 4.753 0 8.928-2.462 11.322-6.178 0.106-0.166-0.012-0.384-0.209-0.384zM29.903 15.803l-4.434-3.5c-0.166-0.131-0.406-0.012-0.406 0.197v2.375h-9.813c-0.137 0-0.25 0.113-0.25 0.25v1.75c0 0.137 0.113 0.25 0.25 0.25h9.813v2.375c0 0.209 0.244 0.328 0.406 0.197l4.434-3.5c0.059-0.046 0.096-0.117 0.096-0.197s-0.037-0.151-0.095-0.196l-0.001-0z"/>
</svg>
