<svg version="1.1" xmlns="http://www.w3.org/2000/svg" width="32" height="32" viewBox="0 0 32 32">
<path fill="currentColor" d="M27.5 3.5h-23c-0.553 0-1 0.447-1 1v23c0 0.553 0.447 1 1 1h23c0.553 0 1-0.447 1-1v-23c0-0.553-0.447-1-1-1zM26.25 26.25h-20.5v-20.5h20.5v20.5z"/>
<path fill="currentColor" d="M11.588 17.325c-1.706 0-3.088 1.381-3.088 3.087s1.381 3.087 3.088 3.087 3.088-1.381 3.088-3.087v-1.325h2.647v1.325c0 1.706 1.381 3.087 3.087 3.087s3.087-1.381 3.087-3.087-1.381-3.087-3.087-3.087h-1.325v-2.647h1.325c1.706 0 3.087-1.381 3.087-3.088s-1.381-3.088-3.087-3.088-3.087 1.381-3.087 3.088v1.325h-2.647v-1.325c0-1.706-1.381-3.088-3.088-3.088s-3.088 1.378-3.088 3.084 1.381 3.088 3.088 3.088h1.325v2.647h-1.325zM12.912 20.413c0 0.731-0.594 1.325-1.325 1.325s-1.325-0.594-1.325-1.325 0.594-1.325 1.325-1.325h1.325v1.325zM19.087 11.588c0-0.731 0.594-1.325 1.325-1.325s1.325 0.594 1.325 1.325-0.594 1.325-1.325 1.325h-1.325v-1.325zM19.087 19.087h1.325c0.731 0 1.325 0.594 1.325 1.325s-0.594 1.325-1.325 1.325-1.325-0.594-1.325-1.325v-1.325zM14.675 14.675h2.647v2.647h-2.647v-2.647zM11.588 12.912c-0.731 0-1.325-0.594-1.325-1.325s0.594-1.325 1.325-1.325 1.325 0.594 1.325 1.325v1.325h-1.325z"/>
</svg>
