<svg version="1.1" xmlns="http://www.w3.org/2000/svg" width="32" height="32" viewBox="0 0 32 32">
<path fill="currentColor" d="M29 5h-26c-0.553 0-1 0.447-1 1v20c0 0.553 0.447 1 1 1h26c0.553 0 1-0.447 1-1v-20c0-0.553-0.447-1-1-1zM27.75 8.463v16.288h-23.5v-16.288l-0.862-0.672 1.228-1.578 1.338 1.041h20.097l1.337-1.041 1.228 1.578-0.866 0.672zM26.050 7.25l-10.050 7.813-11.387-8.853-1.228 1.578 0.863 0.672 10.675 8.3c0.293 0.229 0.667 0.368 1.073 0.368s0.78-0.139 1.077-0.371l-0.004 0.003 11.544-8.969-1.228-1.578-1.334 1.037z"/>
</svg>
