<svg version="1.1" xmlns="http://www.w3.org/2000/svg" width="32" height="32" viewBox="0 0 32 32">
<path fill="currentColor" d="M27.313 3.75h-7.875c-0.103 0-0.188 0.084-0.188 0.188v1.75c0 0.103 0.084 0.188 0.188 0.188h5.012l-6.228 6.228c-1.563-1.203-3.469-1.853-5.472-1.853-2.403 0-4.666 0.938-6.362 2.637s-2.638 3.959-2.638 6.363 0.938 4.666 2.638 6.363c1.697 1.7 3.959 2.637 6.362 2.637s4.666-0.938 6.363-2.637c1.7-1.697 2.637-3.959 2.637-6.363 0-2.003-0.65-3.903-1.85-5.466l6.225-6.225v5.003c0 0.103 0.084 0.188 0.188 0.188h1.75c0.103 0 0.188-0.084 0.188-0.188v-7.875c0-0.516-0.422-0.938-0.938-0.938zM12.75 25.875c-3.653 0-6.625-2.972-6.625-6.625s2.972-6.625 6.625-6.625 6.625 2.972 6.625 6.625-2.972 6.625-6.625 6.625z"/>
</svg>
