<svg version="1.1" xmlns="http://www.w3.org/2000/svg" width="32" height="32" viewBox="0 0 32 32">
<path fill="currentColor" d="M26.084 8.744l1.916-1.841v-0.403h-6.634l-4.728 11.825-5.378-11.825h-6.956v0.403l2.237 2.706c0.219 0.2 0.331 0.494 0.303 0.787v10.634c0.069 0.384-0.053 0.775-0.322 1.053l-2.522 3.072v0.397h7.144v-0.403l-2.519-3.063c-0.222-0.225-0.359-0.535-0.359-0.877 0-0.062 0.005-0.123 0.013-0.183l-0.001 0.007v-9.2l6.272 13.725h0.728l5.394-13.725v10.934c0 0.288 0 0.347-0.188 0.538l-1.941 1.884v0.403h9.412v-0.403l-1.872-1.841c-0.163-0.125-0.247-0.334-0.212-0.538v-13.531c-0.005-0.027-0.007-0.058-0.007-0.090 0-0.182 0.085-0.343 0.218-0.447l0.001-0.001z"/>
</svg>
