<svg version="1.1" xmlns="http://www.w3.org/2000/svg" width="32" height="32" viewBox="0 0 32 32">
<path fill="currentColor" d="M16.163 18.455c0 0.111 0 0.136 0.075 0.205l0.42 0.414v0.018h-1.862v-0.796c-0.183 0.508-0.66 0.864-1.221 0.864-0.005 0-0.009-0-0.014-0h0.001c-0.957 0-1.651-0.758-1.651-2.152 0-1.306 0.75-2.178 1.802-2.178 0.020-0.001 0.043-0.002 0.066-0.002 0.455 0 0.846 0.277 1.013 0.672l0.003 0.007v-1.756c0.002-0.011 0.003-0.024 0.003-0.037 0-0.071-0.034-0.135-0.087-0.175l-0.001-0-0.4-0.389v-0.018l1.854-0.22v5.543zM14.796 18.202v-2.62c-0.128-0.161-0.324-0.263-0.543-0.263-0.004 0-0.008 0-0.011 0h0.001c-0.453 0-0.89 0.414-0.89 1.644 0 1.152 0.377 1.559 0.847 1.559 0.247-0.006 0.464-0.13 0.596-0.319l0.002-0.002zM17.397 19.091v-3.537c0.002-0.011 0.003-0.023 0.003-0.036 0-0.070-0.030-0.133-0.078-0.176l-0-0-0.412-0.429v-0.018h1.861v3.588c0 0.111 0 0.136 0.075 0.204l0.41 0.389v0.018l-1.859-0.003zM17.329 13.602c0-0.419 0.336-0.758 0.75-0.758s0.749 0.339 0.749 0.758c0 0.419-0.335 0.758-0.749 0.758s-0.75-0.339-0.75-0.758zM23.793 18.447c0 0.111 0 0.144 0.075 0.212l0.42 0.414v0.018h-1.871v-0.907c-0.168 0.562-0.677 0.966-1.28 0.975h-0.001c-0.83 0-1.274-0.611-1.274-1.768 0-0.558 0-1.17 0.017-1.857 0.002-0.011 0.003-0.025 0.003-0.038 0-0.067-0.030-0.127-0.078-0.166l-0-0-0.412-0.417v-0.018h1.847v2.307c0 0.758 0.11 1.263 0.579 1.263 0.26-0.017 0.482-0.165 0.603-0.378l0.002-0.004v-2.527c0.002-0.011 0.003-0.023 0.003-0.036 0-0.070-0.030-0.133-0.078-0.176l-0-0-0.415-0.432v-0.018h1.861v3.552zM30.129 19.091c0-0.136 0.025-1.874 0.025-2.273 0-0.758-0.117-1.281-0.645-1.281-0.275 0.009-0.515 0.15-0.66 0.361l-0.002 0.003c0.048 0.204 0.075 0.439 0.075 0.681 0 0.014-0 0.028-0 0.042l0-0.002c0 0.525-0.017 1.195-0.025 1.864-0.002 0.012-0.003 0.025-0.003 0.038 0 0.067 0.030 0.127 0.078 0.166l0 0 0.42 0.389v0.017h-1.879c0-0.126 0.025-1.874 0.025-2.274 0-0.77-0.117-1.281-0.637-1.281-0.256 0.009-0.49 0.15-0.62 0.374v2.577c0 0.111 0 0.137 0.075 0.205l0.41 0.389v0.017h-1.859v-3.537c0.002-0.011 0.003-0.023 0.003-0.036 0-0.070-0.030-0.133-0.078-0.176l-0-0-0.412-0.442v-0.018h1.862v0.899c0.173-0.594 0.723-0.992 1.334-0.967 0.619 0 1.039 0.349 1.217 1.011 0.192-0.591 0.738-1.011 1.382-1.011 0.006 0 0.012 0 0.018 0h-0.001c0.83 0 1.299 0.619 1.299 1.788 0 0.558-0.017 1.195-0.025 1.864-0.002 0.011-0.003 0.024-0.003 0.037 0 0.069 0.035 0.131 0.088 0.167l0.001 0 0.41 0.389v0.018h-1.871zM6.746 18.541l0.552 0.533v0.018h-2.801v-0.018l0.562-0.533c0.048-0.040 0.078-0.1 0.078-0.166 0-0.014-0.001-0.027-0.004-0.040l0 0.001v-3.408c0-0.144 0-0.338 0.025-0.505l-1.889 4.737h-0.022l-1.956-4.358c-0.043-0.108-0.055-0.116-0.083-0.189v2.857c-0.005 0.037-0.007 0.079-0.007 0.122 0 0.159 0.037 0.309 0.103 0.442l-0.003-0.006 0.787 1.046v0.018h-2.089v-0.018l0.787-1.048c0.063-0.128 0.1-0.278 0.1-0.436 0-0.042-0.003-0.084-0.008-0.124l0 0.005v-3.158c0.001-0.015 0.002-0.033 0.002-0.051 0-0.144-0.050-0.277-0.132-0.382l0.001 0.001-0.557-0.73v-0.018h1.999l1.674 3.691 1.474-3.691h1.956v0.018l-0.549 0.619c-0.054 0.040-0.088 0.104-0.088 0.175 0 0.013 0.001 0.026 0.003 0.038l-0-0.001v4.355c-0.002 0.011-0.003 0.024-0.003 0.037 0 0.069 0.035 0.131 0.088 0.167l0.001 0zM8.937 16.833v0.017c0 1.081 0.552 1.516 1.199 1.516 0.013 0 0.028 0.001 0.044 0.001 0.541 0 1.008-0.316 1.227-0.773l0.004-0.008h0.018c-0.225 1.069-0.879 1.574-1.859 1.574-1.057 0-2.054-0.644-2.054-2.137 0-1.569 0.999-2.195 2.104-2.195 0.889 0 1.836 0.424 1.836 1.789v0.217h-2.518zM8.937 16.616h1.232v-0.22c0-1.112-0.227-1.407-0.57-1.407-0.415 0-0.667 0.442-0.667 1.627h0.005z"/>
</svg>
