<svg version="1.1" xmlns="http://www.w3.org/2000/svg" width="32" height="32" viewBox="0 0 32 32">
<path fill="currentColor" d="M9 13.156c0 0.828 0.672 1.5 1.5 1.5s1.5-0.672 1.5-1.5v0c0-0.828-0.672-1.5-1.5-1.5s-1.5 0.672-1.5 1.5v0zM20 13.156c0 0.828 0.672 1.5 1.5 1.5s1.5-0.672 1.5-1.5v0c0-0.828-0.672-1.5-1.5-1.5s-1.5 0.672-1.5 1.5v0zM16 2c-7.731 0-14 6.269-14 14s6.269 14 14 14 14-6.269 14-14-6.269-14-14-14zM24.219 24.219c-1.069 1.069-2.313 1.906-3.697 2.494-1.428 0.606-2.95 0.913-4.522 0.913s-3.094-0.306-4.525-0.913c-1.437-0.616-2.665-1.458-3.697-2.493l-0-0c-1.069-1.069-1.906-2.313-2.494-3.697-0.603-1.428-0.909-2.95-0.909-4.522s0.306-3.094 0.912-4.525c0.616-1.437 1.458-2.665 2.493-3.697l0-0c1.069-1.069 2.312-1.906 3.697-2.494 1.428-0.603 2.95-0.909 4.522-0.909s3.094 0.306 4.525 0.912c1.437 0.616 2.665 1.458 3.697 2.493l0 0c1.069 1.069 1.906 2.312 2.494 3.697 0.603 1.428 0.909 2.95 0.909 4.522s-0.306 3.094-0.913 4.525c-0.615 1.437-1.457 2.663-2.493 3.693l-0.001 0.001zM20.75 17.656h-9.5c-0.137 0-0.25 0.113-0.25 0.25v1.5c0 0.137 0.113 0.25 0.25 0.25h9.5c0.137 0 0.25-0.113 0.25-0.25v-1.5c0-0.137-0.113-0.25-0.25-0.25z"/>
</svg>
