<svg version="1.1" xmlns="http://www.w3.org/2000/svg" width="32" height="32" viewBox="0 0 32 32">
<path fill="currentColor" d="M12.75 13.813h15c0.137 0 0.25-0.113 0.25-0.25v-1.75c0-0.137-0.113-0.25-0.25-0.25h-15c-0.137 0-0.25 0.113-0.25 0.25v1.75c0 0.137 0.113 0.25 0.25 0.25zM12.5 20.188c0 0.137 0.113 0.25 0.25 0.25h15c0.137 0 0.25-0.113 0.25-0.25v-1.75c0-0.137-0.113-0.25-0.25-0.25h-15c-0.137 0-0.25 0.113-0.25 0.25v1.75zM28.25 5h-24.5c-0.138 0-0.25 0.112-0.25 0.25v1.75c0 0.138 0.112 0.25 0.25 0.25h24.5c0.137 0 0.25-0.112 0.25-0.25v-1.75c0-0.138-0.113-0.25-0.25-0.25zM28.25 24.75h-24.5c-0.138 0-0.25 0.113-0.25 0.25v1.75c0 0.137 0.112 0.25 0.25 0.25h24.5c0.137 0 0.25-0.113 0.25-0.25v-1.75c0-0.137-0.113-0.25-0.25-0.25zM4.45 20.066l4.884-3.847c0.065-0.051 0.106-0.129 0.106-0.217s-0.041-0.166-0.105-0.217l-0.001-0-4.884-3.85c-0.181-0.144-0.45-0.016-0.45 0.216v7.697c0 0 0 0 0 0 0 0.154 0.125 0.278 0.278 0.278 0.065 0 0.125-0.022 0.172-0.060l-0.001 0z"/>
</svg>
