<svg version="1.1" xmlns="http://www.w3.org/2000/svg" width="32" height="32" viewBox="0 0 32 32">
<path fill="currentColor" d="M7.75 23.5h2.25v-15.25h-2.25z"/>
<path fill="currentColor" d="M23.125 26.969c1.933 0 3.5-1.567 3.5-3.5 0-1.51-0.956-2.797-2.297-3.288l-0.001-3.532c-0-0.685-0.441-1.293-1.092-1.506l-13.591-4.45-0.7 2.138 13.133 4.3 0 2.997c-1.422 0.445-2.453 1.772-2.453 3.341 0 1.933 1.567 3.5 3.5 3.5zM8.875 28.875c1.933 0 3.5-1.567 3.5-3.5s-1.567-3.5-3.5-3.5-3.5 1.567-3.5 3.5 1.567 3.5 3.5 3.5zM23.125 24.969c-0.828 0-1.5-0.672-1.5-1.5s0.672-1.5 1.5-1.5 1.5 0.672 1.5 1.5-0.672 1.5-1.5 1.5zM8.875 26.875c-0.828 0-1.5-0.672-1.5-1.5s0.672-1.5 1.5-1.5 1.5 0.672 1.5 1.5-0.672 1.5-1.5 1.5zM8.875 10.125c1.933 0 3.5-1.567 3.5-3.5s-1.567-3.5-3.5-3.5-3.5 1.567-3.5 3.5 1.567 3.5 3.5 3.5zM8.875 8.125c-0.828 0-1.5-0.672-1.5-1.5s0.672-1.5 1.5-1.5 1.5 0.672 1.5 1.5-0.672 1.5-1.5 1.5z"/>
</svg>
