<svg version="1.1" xmlns="http://www.w3.org/2000/svg" width="32" height="32" viewBox="0 0 32 32">
<path fill="currentColor" d="M14.5 16c0 0.828 0.672 1.5 1.5 1.5s1.5-0.672 1.5-1.5v0c0-0.828-0.672-1.5-1.5-1.5s-1.5 0.672-1.5 1.5v0zM20.75 16c0 0.828 0.672 1.5 1.5 1.5s1.5-0.672 1.5-1.5v0c0-0.828-0.672-1.5-1.5-1.5s-1.5 0.672-1.5 1.5v0zM8.25 16c0 0.828 0.672 1.5 1.5 1.5s1.5-0.672 1.5-1.5v0c0-0.828-0.672-1.5-1.5-1.5s-1.5 0.672-1.5 1.5v0zM28.913 10.575c-0.706-1.678-1.719-3.184-3.009-4.478-1.249-1.254-2.736-2.27-4.387-2.975l-0.091-0.034c-1.719-0.722-3.544-1.087-5.425-1.087h-0.063c-1.894 0.009-3.728 0.384-5.453 1.122-1.726 0.747-3.199 1.764-4.436 3.014l-0.001 0.001c-1.278 1.291-2.281 2.791-2.975 4.463-0.719 1.731-1.081 3.572-1.072 5.466 0.011 2.28 0.565 4.428 1.537 6.326l-0.037-0.079v4.75c0 0.794 0.644 1.438 1.438 1.438v0h4.753c1.819 0.935 3.967 1.488 6.243 1.5h0.069c1.872 0 3.688-0.363 5.397-1.072 1.734-0.731 3.216-1.736 4.463-2.976l-0.001 0.001c1.291-1.278 2.306-2.772 3.016-4.438 0.738-1.725 1.113-3.559 1.122-5.453 0.009-1.903-0.359-3.75-1.087-5.488zM24.191 24.262c-2.191 2.169-5.097 3.363-8.191 3.363h-0.053c-1.884-0.009-3.756-0.478-5.409-1.359l-0.262-0.141h-4.4v-4.4l-0.141-0.262c-0.881-1.653-1.35-3.525-1.359-5.409-0.013-3.116 1.178-6.041 3.362-8.244 2.181-2.203 5.097-3.422 8.213-3.434h0.053c1.563 0 3.078 0.303 4.506 0.903 1.394 0.584 2.644 1.425 3.719 2.5 1.072 1.072 1.916 2.325 2.5 3.719 0.606 1.444 0.909 2.975 0.903 4.556-0.019 3.113-1.241 6.028-3.441 8.209z"/>
</svg>
