<svg version="1.1" xmlns="http://www.w3.org/2000/svg" width="32" height="32" viewBox="0 0 32 32">
<path fill="currentColor" d="M28.484 21.897c-0.036-0.097-0.128-0.165-0.235-0.165-0.031 0-0.061 0.006-0.088 0.016l0.002-0.001-1.913 0.697v-16.819c0-1.175-0.95-2.125-2.125-2.125h-16.25c-1.175 0-2.125 0.95-2.125 2.125v16.819l-1.916-0.697c-0.028-0.009-0.056-0.016-0.084-0.016-0.138 0-0.25 0.113-0.25 0.25v1.863c0 0.103 0.066 0.197 0.166 0.234l11.991 4.363c0.222 0.081 0.462 0.081 0.684 0l11.994-4.359c0.1-0.038 0.166-0.131 0.166-0.234v-1.863c0-0.031-0.006-0.059-0.016-0.087zM16 26.172l-8-2.909v-17.512h16v17.512l-8 2.909zM20.644 9.75h-1.703c-0.094 0-0.181 0.053-0.222 0.137l-2.647 5.275h-0.103l-2.647-5.275c-0.042-0.082-0.125-0.137-0.222-0.137h-1.741c-0.041 0-0.081 0.009-0.119 0.031-0.122 0.066-0.166 0.219-0.1 0.338l3.247 5.987h-1.781c-0.137 0-0.25 0.113-0.25 0.25v0.847c0 0.137 0.113 0.25 0.25 0.25h2.375v1.219h-2.375c-0.137 0-0.25 0.113-0.25 0.25v0.847c0 0.137 0.113 0.25 0.25 0.25h2.375v1.981c0 0.137 0.113 0.25 0.25 0.25h1.559c0.137 0 0.25-0.113 0.25-0.25v-1.984h2.384c0.137 0 0.25-0.113 0.25-0.25v-0.847c0-0.137-0.113-0.25-0.25-0.25h-2.384v-1.219h2.384c0.137 0 0.25-0.113 0.25-0.25v-0.847c0-0.137-0.113-0.25-0.25-0.25h-1.8l3.241-5.988c0.019-0.037 0.031-0.078 0.031-0.119-0.003-0.134-0.116-0.247-0.253-0.247z"/>
</svg>
