<svg version="1.1" xmlns="http://www.w3.org/2000/svg" width="32" height="32" viewBox="0 0 32 32">
<path fill="currentColor" d="M21.65 12.897l0.006-0.006-1.081-1.384c-0.046-0.059-0.117-0.096-0.197-0.096-0.058 0-0.111 0.020-0.154 0.053l0.001-0-1.575 1.228-2.203-2.816c-0.046-0.059-0.117-0.096-0.197-0.096-0.058 0-0.111 0.020-0.154 0.053l0.001-0-1.184 0.928c-0.059 0.046-0.096 0.117-0.096 0.197 0 0.058 0.020 0.111 0.053 0.154l-0-0.001 2.203 2.819-0.006 0.003 1.081 1.384c0.084 0.109 0.241 0.128 0.35 0.044l1.575-1.228 2.003 2.563c0.084 0.109 0.241 0.128 0.35 0.044l1.184-0.925c0.109-0.084 0.128-0.241 0.044-0.35l-2.003-2.566zM19 3.5c-5.247 0-9.5 4.253-9.5 9.5 0 2.197 0.747 4.219 1.997 5.828l-7.925 7.925c-0.045 0.045-0.073 0.108-0.073 0.177s0.028 0.131 0.073 0.177l1.322 1.322c0.097 0.097 0.256 0.097 0.353 0l7.925-7.925c1.609 1.25 3.631 1.997 5.828 1.997 5.247 0 9.5-4.253 9.5-9.5s-4.253-9.5-9.5-9.5zM24.038 18.038c-1.344 1.347-3.134 2.087-5.038 2.087s-3.694-0.741-5.037-2.087c-1.347-1.344-2.088-3.134-2.088-5.037s0.741-3.694 2.088-5.037c1.344-1.347 3.134-2.088 5.037-2.088s3.694 0.741 5.038 2.088c1.347 1.344 2.087 3.134 2.087 5.037s-0.741 3.694-2.087 5.037z"/>
</svg>
