<svg version="1.1" xmlns="http://www.w3.org/2000/svg" width="32" height="32" viewBox="0 0 32 32">
<path fill="currentColor" d="M15.297 3.489c0.958-0.056 1.437 1.139 0.706 1.76-1.695 1.441-2.69 3.545-2.69 5.813 0 4.211 3.414 7.625 7.625 7.625 2.268 0 4.372-0.995 5.813-2.69 0.621-0.731 1.814-0.253 1.76 0.704-0.373 6.606-5.85 11.799-12.495 11.799-6.912 0-12.516-5.603-12.516-12.516 0-6.606 5.134-12.063 11.694-12.489l0.006-0zM12.761 5.981l-0.129 0.043c-4.161 1.412-7.132 5.354-7.132 9.96 0 5.808 4.708 10.516 10.516 10.516 4.634 0 8.592-3.006 9.983-7.2l0.020-0.060-0.003 0.002c-1.474 0.917-3.191 1.43-4.991 1.446l-0.086 0c-5.316 0-9.625-4.309-9.625-9.625 0-1.831 0.515-3.579 1.446-5.077z"/>
</svg>
