<svg version="1.1" xmlns="http://www.w3.org/2000/svg" width="32" height="32" viewBox="0 0 32 32">
<path fill="currentColor" d="M26.359 23.044c-0.387-2.35-2.475-4.034-4.853-3.919s-4.291 2-4.444 4.375c-4.797-0.15-6.5-1.272-6.222-3.553 0.103-0.853 0.619-1.309 1.566-1.531 0.575-0.134 1.213-0.153 1.791-0.1 0.053 0.006 0.109 0.009 0.162 0.016 0.353 0.084 0.713 0.156 1.072 0.212 1.066 0.175 2.15 0.262 3.181 0.206 2.9-0.156 4.875-1.434 4.975-4.147 0.097-2.628-1.709-4.491-4.622-5.737-0.934-0.4-1.925-0.709-2.916-0.944-0.447-0.106-0.822-0.178-1.1-0.225-0.247-2.372-2.234-4.181-4.619-4.2s-4.403 1.753-4.691 4.122 1.25 4.572 3.569 5.122c2.319 0.55 4.684-0.728 5.491-2.972 0.294 0.053 0.584 0.113 0.875 0.181 0.881 0.206 1.763 0.481 2.575 0.831 2.209 0.944 3.416 2.191 3.359 3.747-0.050 1.394-1.050 2.038-3.006 2.144-0.859 0.047-1.8-0.028-2.728-0.181-0.259-0.044-0.497-0.087-0.706-0.134-0.122-0.025-0.206-0.047-0.244-0.056l-0.097-0.019c-0.069-0.009-0.184-0.025-0.334-0.041-0.781-0.072-1.628-0.047-2.453 0.144-1.725 0.403-2.934 1.475-3.159 3.306-0.491 3.944 2.456 5.772 8.625 5.903 0.909 2.2 3.325 3.372 5.613 2.719 2.291-0.653 3.728-2.919 3.341-5.269zM10.284 10.787c-1.438 0-2.603-1.166-2.603-2.603s1.166-2.603 2.603-2.603 2.603 1.166 2.603 2.603-1.166 2.603-2.603 2.603zM21.738 26.406c-1.438 0-2.603-1.166-2.603-2.603s1.166-2.603 2.603-2.603 2.603 1.166 2.603 2.603-1.166 2.603-2.603 2.603z"/>
</svg>
