<svg version="1.1" xmlns="http://www.w3.org/2000/svg" width="32" height="32" viewBox="0 0 32 32">
<path fill="currentColor" d="M29.75 19.125c0.137 0 0.25-0.113 0.25-0.25v-1.75c0-0.137-0.113-0.25-0.25-0.25h-20.438c-0.444-1.1-1.522-1.875-2.781-1.875-1.656 0-3 1.344-3 3s1.344 3 3 3c1.259 0 2.338-0.775 2.781-1.875h4.697v4.75c0 1.725 1.4 3.125 3.125 3.125h12.616c0.137 0 0.25-0.113 0.25-0.25v-1.75c0-0.137-0.113-0.25-0.25-0.25h-12.616c-0.484 0-0.875-0.391-0.875-0.875v-4.75h13.491zM14.116 9.803l5.391 4.256c0.197 0.159 0.494 0.016 0.494-0.241v-3.069h8.25c0.137 0 0.25-0.113 0.25-0.25v-1.875c0-0.137-0.113-0.25-0.25-0.25h-8.25v-3.069c0-0.253-0.294-0.4-0.494-0.241l-5.391 4.256c-0.153 0.122-0.153 0.359 0 0.481z"/>
</svg>
