<svg version="1.1" xmlns="http://www.w3.org/2000/svg" width="32" height="32" viewBox="0 0 32 32">
<path fill="currentColor" d="M27.25 12.313c0.137 0 0.25-0.113 0.25-0.25v-1.875c0-0.137-0.113-0.25-0.25-0.25h-5.125v-5.188c0-0.138-0.113-0.25-0.25-0.25h-2c-0.137 0-0.25 0.112-0.25 0.25v5.188h-7.125v-5.188c0-0.138-0.113-0.25-0.25-0.25h-2c-0.137 0-0.25 0.112-0.25 0.25v5.188h-5.25c-0.138 0-0.25 0.113-0.25 0.25v1.875c0 0.137 0.112 0.25 0.25 0.25h5.25v7.375h-5.25c-0.138 0-0.25 0.113-0.25 0.25v1.875c0 0.137 0.112 0.25 0.25 0.25h5.25v5.188c0 0.137 0.113 0.25 0.25 0.25h2c0.137 0 0.25-0.113 0.25-0.25v-5.188h7.125v5.188c0 0.137 0.113 0.25 0.25 0.25h2c0.137 0 0.25-0.113 0.25-0.25v-5.188h5.125c0.137 0 0.25-0.113 0.25-0.25v-1.875c0-0.137-0.113-0.25-0.25-0.25h-5.125v-7.375h5.125zM19.625 19.688h-7.125v-7.375h7.125v7.375z"/>
</svg>
