<svg version="1.1" xmlns="http://www.w3.org/2000/svg" width="32" height="32" viewBox="0 0 32 32">
<path fill="currentColor" d="M9.875 21h1.875c0.137 0 0.25-0.113 0.25-0.25v-9.5c0-0.137-0.113-0.25-0.25-0.25h-1.875c-0.137 0-0.25 0.113-0.25 0.25v9.5c0 0.137 0.113 0.25 0.25 0.25zM16 19.438c0.691 0 1.25-0.559 1.25-1.219 0-0.722-0.559-1.281-1.25-1.281s-1.25 0.559-1.25 1.281c0 0.659 0.559 1.219 1.25 1.219zM16 15.063c0.691 0 1.25-0.559 1.25-1.219 0-0.722-0.559-1.281-1.25-1.281s-1.25 0.559-1.25 1.281c0 0.659 0.559 1.219 1.25 1.219z"/>
<path fill="currentColor" d="M27.5 3.5h-23c-0.553 0-1 0.447-1 1v23c0 0.553 0.447 1 1 1h23c0.553 0 1-0.447 1-1v-23c0-0.553-0.447-1-1-1zM26.25 26.25h-20.5v-20.5h20.5v20.5z"/>
<path fill="currentColor" d="M20.25 21h1.875c0.137 0 0.25-0.113 0.25-0.25v-9.5c0-0.137-0.113-0.25-0.25-0.25h-1.875c-0.137 0-0.25 0.113-0.25 0.25v9.5c0 0.137 0.113 0.25 0.25 0.25z"/>
</svg>
