<svg version="1.1" xmlns="http://www.w3.org/2000/svg" width="32" height="32" viewBox="0 0 32 32">
<path fill="currentColor" d="M15.090 4c-2.636 0-4.893 1.65-5.803 3.968-1.903 0.254-3.603 1.363-4.581 3.057-1.318 2.281-1.017 5.059 0.536 7.005-0.731 1.773-0.62 3.8 0.357 5.493 1.318 2.282 3.878 3.411 6.342 3.039 1.171 1.52 2.982 2.438 4.938 2.438 2.636 0 4.893-1.65 5.802-3.968 1.903-0.254 3.603-1.363 4.581-3.057 1.318-2.281 1.017-5.059-0.536-7.005 0.731-1.773 0.62-3.8-0.357-5.493-1.318-2.282-3.878-3.411-6.342-3.039-1.171-1.52-2.982-2.438-4.938-2.438zM15.090 5.923c1.112 0 2.155 0.437 2.944 1.179-0.060 0.032-0.123 0.058-0.182 0.092l-4.271 2.466c-0.444 0.256-0.72 0.73-0.722 1.243l-0.026 5.737-2.054-1.198v-5.211c0-2.375 1.934-4.308 4.311-4.308zM21.268 8.295c1.381 0.098 2.692 0.857 3.435 2.143 0.556 0.962 0.699 2.084 0.451 3.138-0.059-0.037-0.113-0.078-0.173-0.113l-4.273-2.466c-0.207-0.121-0.455-0.192-0.72-0.192-0.264 0-0.511 0.071-0.724 0.194l0.007-0.004-4.983 2.847 0.011-2.376 4.515-2.607c0.772-0.445 1.626-0.624 2.454-0.565zM8.865 10.027c-0.002 0.068-0.009 0.136-0.009 0.205v4.93c0 0 0 0 0 0 0 0.529 0.285 0.992 0.709 1.243l0.007 0.004 4.959 2.89-2.063 1.177-4.517-2.605c-2.058-1.188-2.765-3.829-1.577-5.886 0.556-0.962 1.455-1.647 2.492-1.959zM19.502 12.524l4.517 2.605c2.058 1.188 2.765 3.829 1.576 5.886-0.556 0.962-1.455 1.647-2.492 1.959 0.002-0.068 0.009-0.136 0.009-0.205v-4.93c0-0 0-0 0-0 0-0.529-0.285-0.992-0.709-1.243l-0.007-0.004-4.959-2.89zM15.994 14.526l1.704 0.993-0.009 1.976-1.714 0.978-1.704-0.995 0.009-1.974zM19.136 16.359l2.054 1.198v5.211c0 2.375-1.934 4.308-4.311 4.308-1.112 0-2.155-0.437-2.944-1.179 0.060-0.032 0.123-0.058 0.182-0.092l4.271-2.466c0.444-0.256 0.72-0.73 0.722-1.243zM17.681 19.157l-0.011 2.376-4.515 2.607c-2.058 1.188-4.701 0.479-5.889-1.578-0.556-0.962-0.699-2.084-0.451-3.138 0.059 0.037 0.112 0.078 0.173 0.113l4.273 2.466c0.207 0.121 0.455 0.192 0.72 0.192 0.264 0 0.511-0.071 0.724-0.194l-0.007 0.004z"/>
</svg>
