<svg version="1.1" xmlns="http://www.w3.org/2000/svg" width="32" height="32" viewBox="0 0 32 32">
<path fill="currentColor" d="M28.75 23.75h-18.25c-0.137 0-0.25 0.113-0.25 0.25v1.75c0 0.137 0.113 0.25 0.25 0.25h18.25c0.137 0 0.25-0.113 0.25-0.25v-1.75c0-0.137-0.113-0.25-0.25-0.25zM28.75 6h-18.25c-0.137 0-0.25 0.112-0.25 0.25v1.75c0 0.137 0.113 0.25 0.25 0.25h18.25c0.137 0 0.25-0.113 0.25-0.25v-1.75c0-0.138-0.113-0.25-0.25-0.25zM28.75 14.875h-18.25c-0.137 0-0.25 0.113-0.25 0.25v1.75c0 0.137 0.113 0.25 0.25 0.25h18.25c0.137 0 0.25-0.113 0.25-0.25v-1.75c0-0.137-0.113-0.25-0.25-0.25zM6.75 22.25h-3.625c-0.069 0-0.125 0.056-0.125 0.125v1.063c0 0.069 0.056 0.125 0.125 0.125h2.263v0.641h-1.116c-0.069 0-0.125 0.056-0.125 0.125v1.063c0 0.069 0.056 0.125 0.125 0.125h1.116v0.672h-2.263c-0.069 0-0.125 0.056-0.125 0.125v1.063c0 0.069 0.056 0.125 0.125 0.125h3.625c0.069 0 0.125-0.056 0.125-0.125v-5c0-0.069-0.056-0.125-0.125-0.125zM3.125 5.875h1.188v3.75c0 0.069 0.056 0.125 0.125 0.125h1.25c0.069 0 0.125-0.056 0.125-0.125v-4.875c0-0.138-0.112-0.25-0.25-0.25h-2.438c-0.069 0-0.125 0.056-0.125 0.125v1.125c0 0.069 0.056 0.125 0.125 0.125zM6.75 13.375h-3.625c-0.069 0-0.125 0.056-0.125 0.125v1.125c0 0.069 0.056 0.125 0.125 0.125h2.138l-2.197 2.428c-0.040 0.045-0.065 0.104-0.066 0.169v1.153c0 0.069 0.056 0.125 0.125 0.125h3.625c0.069 0 0.125-0.056 0.125-0.125v-1.125c0-0.069-0.056-0.125-0.125-0.125h-2.138l2.197-2.428c0.040-0.045 0.065-0.104 0.066-0.169v-1.153c0-0.069-0.056-0.125-0.125-0.125z"/>
</svg>
