<svg version="1.1" xmlns="http://www.w3.org/2000/svg" width="32" height="32" viewBox="0 0 32 32">
<path fill="currentColor" d="M24.353 6.144c-2.944-2.944-7.738-2.944-10.678 0l-8.156 8.15c-0.053 0.053-0.081 0.125-0.081 0.2s0.028 0.147 0.081 0.2l1.153 1.153c0.051 0.051 0.121 0.082 0.198 0.082s0.148-0.031 0.198-0.082v0l8.156-8.15c1.012-1.013 2.359-1.569 3.791-1.569s2.778 0.556 3.788 1.569c1.012 1.012 1.569 2.359 1.569 3.787 0 1.431-0.556 2.775-1.569 3.787l-9.659 9.656c-1.259 1.259-3.306 1.259-4.566 0-0.609-0.609-0.944-1.419-0.944-2.281s0.334-1.672 0.944-2.281l8.247-8.244c0.209-0.206 0.484-0.322 0.778-0.322h0.003c0.294 0 0.566 0.116 0.772 0.322 0.209 0.209 0.322 0.484 0.322 0.778 0 0.291-0.116 0.566-0.322 0.772l-6.741 6.734c-0.053 0.053-0.081 0.125-0.081 0.2s0.028 0.147 0.081 0.2l1.153 1.153c0.051 0.051 0.121 0.082 0.198 0.082s0.148-0.031 0.198-0.082v0l6.737-6.738c0.622-0.622 0.962-1.447 0.962-2.325s-0.344-1.706-0.962-2.325c-1.284-1.284-3.372-1.281-4.656 0l-0.8 0.803-7.444 7.441c-0.981 0.975-1.588 2.325-1.588 3.817 0 0.006 0 0.012 0 0.019v-0.001c0 1.447 0.566 2.806 1.587 3.828 1.059 1.056 2.447 1.584 3.834 1.584s2.775-0.528 3.831-1.584l9.663-9.656c1.422-1.425 2.209-3.322 2.209-5.338 0.003-2.019-0.784-3.916-2.209-5.341z"/>
</svg>
