<svg version="1.1" xmlns="http://www.w3.org/2000/svg" width="32" height="32" viewBox="0 0 32 32">
<path fill="currentColor" d="M20.019 13.431h8.034c0.247 0 0.447-0.2 0.447-0.447v-8.037c0-0.247-0.2-0.447-0.447-0.447h-8.034c-0.247 0-0.447 0.2-0.447 0.447v2.903h-4.241c-0.122 0-0.222 0.1-0.222 0.222v6.922h-2.678v-3.016c0-0.247-0.2-0.447-0.447-0.447h-8.037c-0.247 0-0.447 0.2-0.447 0.447v8.037c0 0.247 0.2 0.447 0.447 0.447h8.034c0.247 0 0.447-0.2 0.447-0.447v-3.016h2.678v6.922c0 0.122 0.1 0.222 0.222 0.222h4.241v2.903c0 0.247 0.2 0.447 0.447 0.447h8.034c0.247 0 0.447-0.2 0.447-0.447v-8.031c0-0.247-0.2-0.447-0.447-0.447h-8.031c-0.247 0-0.447 0.2-0.447 0.447v3.125h-2.456v-12.281h2.456v3.125c0 0.247 0.2 0.447 0.447 0.447zM21.691 6.622h4.688v4.691h-4.688v-4.691zM10.309 18.344h-4.688v-4.688h4.688v4.688zM21.691 20.691h4.688v4.691h-4.688v-4.691z"/>
</svg>
