<svg version="1.1" xmlns="http://www.w3.org/2000/svg" width="32" height="32" viewBox="0 0 32 32">
<path fill="currentColor" d="M16 2c-7.731 0-14 6.269-14 14s6.269 14 14 14 14-6.269 14-14-6.269-14-14-14zM16 27.625c-6.419 0-11.625-5.206-11.625-11.625s5.206-11.625 11.625-11.625 11.625 5.206 11.625 11.625-5.206 11.625-11.625 11.625zM20.988 9.344h-1.859c-0.094 0-0.181 0.053-0.222 0.137l-2.831 5.625h-0.106l-2.831-5.625c-0.042-0.082-0.125-0.137-0.222-0.137h-1.897c-0.041 0-0.081 0.009-0.119 0.031-0.122 0.066-0.166 0.219-0.1 0.341l3.481 6.4h-1.919c-0.137 0-0.25 0.113-0.25 0.25v0.934c0 0.137 0.113 0.25 0.25 0.25h2.553v1.294h-2.553c-0.137 0-0.25 0.113-0.25 0.25v0.934c0 0.137 0.113 0.25 0.25 0.25h2.553v2.128c0 0.137 0.113 0.25 0.25 0.25h1.697c0.137 0 0.25-0.113 0.25-0.25v-2.128h2.563c0.137 0 0.25-0.113 0.25-0.25v-0.934c0-0.137-0.113-0.25-0.25-0.25h-2.563v-1.297h2.563c0.137 0 0.25-0.113 0.25-0.25v-0.934c0-0.137-0.113-0.25-0.25-0.25h-1.938l3.472-6.4c0.019-0.037 0.031-0.078 0.031-0.119-0.003-0.137-0.116-0.25-0.253-0.25z"/>
</svg>
