<svg version="1.1" xmlns="http://www.w3.org/2000/svg" width="32" height="32" viewBox="0 0 32 32">
<path fill="currentColor" d="M26.741 6.588l-1.325-1.325c-0.045-0.045-0.108-0.073-0.177-0.073s-0.131 0.028-0.177 0.073l-19.803 19.797c-0.045 0.045-0.073 0.108-0.073 0.177s0.028 0.131 0.073 0.177l1.325 1.325c0.097 0.097 0.256 0.097 0.353 0l19.8-19.8c0.1-0.094 0.1-0.253 0.003-0.35zM9.5 14c2.481 0 4.5-2.019 4.5-4.5s-2.019-4.5-4.5-4.5-4.5 2.019-4.5 4.5 2.019 4.5 4.5 4.5zM9.5 7.25c1.241 0 2.25 1.009 2.25 2.25s-1.009 2.25-2.25 2.25-2.25-1.009-2.25-2.25 1.009-2.25 2.25-2.25zM22.5 18c-2.481 0-4.5 2.019-4.5 4.5s2.019 4.5 4.5 4.5 4.5-2.019 4.5-4.5-2.019-4.5-4.5-4.5zM22.5 24.75c-1.241 0-2.25-1.009-2.25-2.25s1.009-2.25 2.25-2.25 2.25 1.009 2.25 2.25-1.009 2.25-2.25 2.25z"/>
</svg>
