<svg version="1.1" xmlns="http://www.w3.org/2000/svg" width="32" height="32" viewBox="0 0 32 32">
<path fill="currentColor" d="M29.75 24.75h-27.5c-0.138 0-0.25 0.113-0.25 0.25v1.75c0 0.137 0.112 0.25 0.25 0.25h27.5c0.137 0 0.25-0.113 0.25-0.25v-1.75c0-0.137-0.113-0.25-0.25-0.25zM29.75 5h-27.5c-0.138 0-0.25 0.112-0.25 0.25v1.75c0 0.138 0.112 0.25 0.25 0.25h27.5c0.137 0 0.25-0.112 0.25-0.25v-1.75c0-0.138-0.113-0.25-0.25-0.25zM29 20.625c0.275 0 0.5-0.225 0.5-0.5v-8.25c0-0.275-0.225-0.5-0.5-0.5h-16c-0.275 0-0.5 0.225-0.5 0.5v8.25c0 0.275 0.225 0.5 0.5 0.5h16zM14.75 13.625h12.5v4.75h-12.5v-4.75zM2.5 20.188c0 0.137 0.112 0.25 0.25 0.25h7c0.137 0 0.25-0.113 0.25-0.25v-1.75c0-0.137-0.113-0.25-0.25-0.25h-7c-0.138 0-0.25 0.113-0.25 0.25v1.75zM2.75 13.813h7c0.137 0 0.25-0.113 0.25-0.25v-1.75c0-0.137-0.113-0.25-0.25-0.25h-7c-0.138 0-0.25 0.113-0.25 0.25v1.75c0 0.137 0.112 0.25 0.25 0.25z"/>
</svg>
