<svg version="1.1" xmlns="http://www.w3.org/2000/svg" width="32" height="32" viewBox="0 0 32 32">
<path fill="currentColor" d="M27 16.188h-11.188v-11.188c0-0.138-0.113-0.25-0.25-0.25h-0.813c-0.006 0-0.013-0-0.020-0-3.445 0-6.563 1.399-8.817 3.659l-0 0c-1.113 1.109-2.016 2.428-2.647 3.891l-0.031 0.081c-0.622 1.43-0.984 3.096-0.984 4.847 0 0.008 0 0.015 0 0.023v-0.001c0 0.006-0 0.013-0 0.020 0 3.445 1.399 6.563 3.659 8.817l0 0c1.147 1.147 2.484 2.050 3.972 2.678 1.43 0.622 3.096 0.984 4.847 0.984 0.008 0 0.015 0 0.023-0h-0.001c0.006 0 0.013 0 0.020 0 3.445 0 6.563-1.399 8.817-3.659l0-0c1.147-1.147 2.050-2.484 2.678-3.972 0.622-1.43 0.984-3.096 0.984-4.847 0-0.008 0-0.015-0-0.023v0.001-0.813c0-0.137-0.113-0.25-0.25-0.25zM22.053 24.619c-1.872 1.858-4.451 3.006-7.298 3.006-0.019 0-0.038-0-0.058-0h0.003c-2.753-0.012-5.341-1.091-7.287-3.038-1.959-1.959-3.037-4.566-3.037-7.337s1.078-5.378 3.037-7.338c1.706-1.706 3.903-2.747 6.275-2.984v11.384h11.384c-0.241 2.384-1.291 4.594-3.019 6.306zM29.75 14.45l-0.081-0.881c-0.266-2.878-1.544-5.594-3.6-7.644-1.991-1.987-4.651-3.306-7.612-3.59l-0.050-0.004-0.884-0.081c-0.147-0.013-0.272 0.1-0.272 0.247v12.003c0 0.137 0.113 0.25 0.25 0.25l12-0.031c0.147 0 0.262-0.125 0.25-0.269zM19.369 12.631v-8.019c2.048 0.438 3.817 1.429 5.2 2.807l-0-0c1.428 1.425 2.406 3.238 2.813 5.191l-8.012 0.022z"/>
</svg>
