<svg version="1.1" xmlns="http://www.w3.org/2000/svg" width="32" height="32" viewBox="0 0 32 32">
<path fill="currentColor" d="M16 2c-7.725 0-14 6.275-14 14s6.275 14 14 14 14-6.275 14-14-6.275-14-14-14zM16 3.217c7.067 0 12.783 5.716 12.783 12.783s-5.716 12.783-12.783 12.783c-1.293 0-2.54-0.193-3.715-0.549 0.524-0.875 1.2-2.127 1.468-3.16 0.16-0.613 0.816-3.111 0.816-3.111 0.426 0.814 1.672 1.503 2.998 1.503 3.947 0 6.792-3.63 6.792-8.14 0-4.324-3.529-7.559-8.069-7.559-5.649 0-8.647 3.791-8.647 7.919 0 1.92 1.021 4.309 2.656 5.070 0.248 0.115 0.381 0.065 0.438-0.175 0.044-0.182 0.265-1.070 0.364-1.484 0.032-0.132 0.016-0.246-0.090-0.376-0.541-0.656-0.975-1.862-0.975-2.986 0-2.887 2.185-5.68 5.909-5.68 3.215 0 5.466 2.192 5.466 5.325 0 3.54-1.788 5.993-4.113 5.993-1.285 0-2.246-1.063-1.938-2.366 0.37-1.555 1.084-3.234 1.084-4.357 0-1.005-0.539-1.843-1.656-1.843-1.313 0-2.368 1.358-2.368 3.178 0 1.158 0.392 1.943 0.392 1.943s-1.297 5.485-1.535 6.505c-0.238 1.020-0.174 2.394-0.076 3.417-4.683-1.896-7.983-6.481-7.983-11.849 0-7.067 5.716-12.783 12.783-12.783z"/>
</svg>
