<svg version="1.1" xmlns="http://www.w3.org/2000/svg" width="32" height="32" viewBox="0 0 32 32">
<path fill="currentColor" d="M16 2c-7.731 0-14 6.269-14 14s6.269 14 14 14 14-6.269 14-14-6.269-14-14-14zM16 27.625c-6.419 0-11.625-5.206-11.625-11.625s5.206-11.625 11.625-11.625 11.625 5.206 11.625 11.625-5.206 11.625-11.625 11.625z"/>
<path fill="currentColor" d="M22.481 15.597l-9.253-6.719c-0.081-0.060-0.183-0.096-0.294-0.096-0.274 0-0.497 0.222-0.497 0.497 0 0.001 0 0.002 0 0.002v-0 13.438c0 0.409 0.463 0.641 0.791 0.403l9.253-6.719c0.126-0.091 0.206-0.238 0.206-0.403s-0.081-0.312-0.205-0.402l-0.001-0.001zM14.431 19.784v-7.569l5.209 3.784-5.209 3.784z"/>
</svg>
