<svg version="1.1" xmlns="http://www.w3.org/2000/svg" width="32" height="32" viewBox="0 0 32 32">
<path fill="currentColor" d="M16 2c-7.731 0-14 6.269-14 14s6.269 14 14 14 14-6.269 14-14-6.269-14-14-14zM16 27.625c-6.419 0-11.625-5.206-11.625-11.625s5.206-11.625 11.625-11.625 11.625 5.206 11.625 11.625-5.206 11.625-11.625 11.625zM20.313 21.069h-5.631v-0.147c0.856-0.538 1.372-1.575 1.372-2.847 0-0.441-0.069-0.872-0.166-1.281h3.081c0.137 0 0.25-0.113 0.25-0.25v-0.938c0-0.137-0.113-0.25-0.25-0.25h-3.5c-0.225-0.706-0.419-1.428-0.419-2.203 0-1.359 1.063-2.194 2.728-2.194 0.672 0 1.328 0.128 1.887 0.328 0.163 0.059 0.331-0.063 0.331-0.238v-1.234c0-0.103-0.066-0.197-0.163-0.234-0.587-0.225-1.369-0.397-2.197-0.397-2.903 0-4.734 1.391-4.734 3.759 0 0.822 0.216 1.625 0.456 2.409h-1.672c-0.137 0-0.25 0.113-0.25 0.25v0.938c0 0.137 0.113 0.25 0.25 0.25h2.097c0.106 0.459 0.184 0.919 0.184 1.381 0 1.413-0.9 2.603-2.275 2.944-0.113 0.028-0.191 0.128-0.191 0.244v1.203c0 0.137 0.113 0.25 0.25 0.25h8.559c0.137 0 0.25-0.113 0.25-0.25v-1.244c0-0.137-0.113-0.25-0.25-0.25z"/>
</svg>
