<svg version="1.1" xmlns="http://www.w3.org/2000/svg" width="32" height="32" viewBox="0 0 32 32">
<path fill="currentColor" d="M22.050 3.903c-0.033-0.017-0.071-0.027-0.113-0.027-0.138 0-0.25 0.112-0.25 0.25 0 0.001 0 0.001 0 0.002v-0 2.006c0 0.172 0.091 0.331 0.234 0.425 0.733 0.465 1.37 0.979 1.943 1.556l0.001 0.001c1.022 1.025 1.825 2.216 2.384 3.541 0.551 1.272 0.872 2.754 0.872 4.311 0 0.008 0 0.016-0 0.025v-0.001c0 1.503-0.294 2.962-0.872 4.334-0.59 1.376-1.394 2.551-2.384 3.541l-0 0c-0.987 0.993-2.162 1.799-3.466 2.36l-0.072 0.027c-1.369 0.581-2.828 0.875-4.328 0.875s-2.959-0.294-4.328-0.875c-1.376-0.589-2.55-1.395-3.537-2.387l-0.001-0.001c-0.99-0.989-1.795-2.164-2.357-3.468l-0.028-0.072c-0.551-1.272-0.872-2.754-0.872-4.311 0-0.008 0-0.016 0-0.025v0.001c0-1.503 0.294-2.963 0.872-4.334 0.559-1.325 1.362-2.516 2.384-3.541 0.594-0.594 1.244-1.112 1.944-1.556 0.147-0.091 0.234-0.253 0.234-0.425v-2.009c0-0.188-0.197-0.306-0.363-0.225-4.372 2.2-7.388 6.703-7.45 11.922-0.087 7.463 6.016 13.662 13.475 13.678 7.469 0.016 13.525-6.041 13.525-13.512 0-5.287-3.031-9.866-7.45-12.084zM15 17.5h2c0.137 0 0.25-0.113 0.25-0.25v-14.5c0-0.138-0.113-0.25-0.25-0.25h-2c-0.137 0-0.25 0.112-0.25 0.25v14.5c0 0.137 0.113 0.25 0.25 0.25z"/>
</svg>
