<svg version="1.1" xmlns="http://www.w3.org/2000/svg" width="32" height="32" viewBox="0 0 32 32">
<path fill="currentColor" d="M25.625 13.625h-1.25c-0.137 0-0.25 0.113-0.25 0.25v1.25c0 0.137 0.113 0.25 0.25 0.25h1.25c0.137 0 0.25-0.113 0.25-0.25v-1.25c0-0.137-0.113-0.25-0.25-0.25zM26.625 10.375h-3.75v-6.625c0-0.138-0.113-0.25-0.25-0.25h-13.25c-0.137 0-0.25 0.112-0.25 0.25v6.625h-3.75c-1.381 0-2.5 1.119-2.5 2.5v10.25c0 0.553 0.447 1 1 1h5.25v4.125c0 0.137 0.113 0.25 0.25 0.25h13.25c0.137 0 0.25-0.113 0.25-0.25v-4.125h5.25c0.553 0 1-0.447 1-1v-10.25c0-1.381-1.119-2.5-2.5-2.5zM11.25 5.625h9.5v4.75h-9.5v-4.75zM20.75 26.375h-9.5v-8.625h9.5v8.625zM27 22h-4.125v-6.375h-13.75v6.375h-4.125v-9.125c0-0.206 0.169-0.375 0.375-0.375h21.25c0.206 0 0.375 0.169 0.375 0.375v9.125z"/>
</svg>
