<svg version="1.1" xmlns="http://www.w3.org/2000/svg" width="32" height="32" viewBox="0 0 32 32">
<path fill="currentColor" d="M14.5 4.5c0.276 0 0.5 0.224 0.5 0.5v9.5c0 0.276-0.224 0.5-0.5 0.5h-9.5c-0.276 0-0.5-0.224-0.5-0.5v-9.5c0-0.276 0.224-0.5 0.5-0.5zM12.875 6.625h-6.25v6.25h6.25zM28.292 9.365c0.195 0.195 0.195 0.512 0 0.707l-5.657 5.657c-0.195 0.195-0.512 0.195-0.707 0l-5.657-5.657c-0.195-0.195-0.195-0.512 0-0.707l5.657-5.657c0.195-0.195 0.512-0.195 0.707 0zM25.64 9.719l-3.359-3.359-3.359 3.359 3.359 3.359zM14.5 17c0.276 0 0.5 0.224 0.5 0.5v9.5c0 0.276-0.224 0.5-0.5 0.5h-9.5c-0.276 0-0.5-0.224-0.5-0.5v-9.5c0-0.276 0.224-0.5 0.5-0.5zM12.875 19.125h-6.25v6.25h6.25zM27 17c0.276 0 0.5 0.224 0.5 0.5v9.5c0 0.276-0.224 0.5-0.5 0.5h-9.5c-0.276 0-0.5-0.224-0.5-0.5v-9.5c0-0.276 0.224-0.5 0.5-0.5zM25.375 19.125h-6.25v6.25h6.25z"/>
</svg>
