<svg version="1.1" xmlns="http://www.w3.org/2000/svg" width="32" height="32" viewBox="0 0 32 32">
<path fill="currentColor" d="M27.091 5.309l-10.619-3.619c-0.128-0.044-0.3-0.066-0.472-0.066s-0.344 0.022-0.472 0.066l-10.619 3.619c-0.259 0.088-0.472 0.388-0.472 0.662v15.075c0 0.275 0.178 0.637 0.394 0.809l10.772 8.394c0.109 0.084 0.25 0.128 0.394 0.128s0.288-0.044 0.394-0.128l10.772-8.394c0.216-0.169 0.394-0.531 0.394-0.809v-15.075c0.006-0.275-0.206-0.572-0.466-0.662zM25.313 20.447l-9.313 7.256-9.313-7.256v-13.363l9.313-3.175 9.313 3.175v13.363zM13.453 9.938h-1.438c-0.053 0-0.103 0.012-0.15 0.037-0.098 0.055-0.162 0.158-0.162 0.276 0 0.055 0.014 0.106 0.038 0.151l-0.001-0.002 2.75 5.034h-1.412c-0.172 0-0.313 0.141-0.313 0.313v0.666c0 0.172 0.141 0.313 0.313 0.313h1.972v0.928h-1.972c-0.172 0-0.313 0.141-0.313 0.313v0.666c0 0.172 0.141 0.313 0.313 0.313h1.972v1.619c0 0.172 0.141 0.313 0.313 0.313h1.291c0.172 0 0.313-0.141 0.313-0.313v-1.619h1.981c0.172 0 0.313-0.141 0.313-0.313v-0.666c0-0.172-0.141-0.313-0.313-0.313h-1.981v-0.928h1.981c0.172 0 0.313-0.141 0.313-0.313v-0.666c0-0.172-0.141-0.313-0.313-0.313h-1.428l2.741-5.034c0.023-0.043 0.037-0.094 0.037-0.148 0-0.173-0.14-0.313-0.312-0.314h-1.406c-0.119 0-0.225 0.066-0.278 0.172l-2.288 4.509-2.278-4.509c-0.053-0.106-0.162-0.172-0.281-0.172z"/>
</svg>
