<svg version="1.1" xmlns="http://www.w3.org/2000/svg" width="32" height="32" viewBox="0 0 32 32">
<path fill="currentColor" d="M24.625 22.059v-16.059c0-0.275-0.225-0.5-0.5-0.5h-5.313v-2.15c0-0.188-0.219-0.294-0.366-0.178l-3.988 3.15c-0.053 0.041-0.087 0.105-0.087 0.177s0.034 0.135 0.086 0.176l0.001 0 3.984 3.15c0.147 0.116 0.366 0.012 0.366-0.178v-2.147h3.563v14.559c-1.381 0.469-2.375 1.778-2.375 3.316 0 1.931 1.569 3.5 3.5 3.5s3.5-1.569 3.5-3.5c0.003-1.538-0.991-2.844-2.372-3.316zM23.5 26.875c-0.815-0.017-1.47-0.682-1.47-1.5s0.654-1.483 1.468-1.5l0.002-0c0.815 0.017 1.47 0.682 1.47 1.5s-0.654 1.483-1.468 1.5l-0.002 0zM12 6.625c0-1.931-1.569-3.5-3.5-3.5s-3.5 1.569-3.5 3.5c0 1.537 0.994 2.844 2.375 3.316v12.122c-1.381 0.469-2.375 1.778-2.375 3.316 0 1.931 1.569 3.5 3.5 3.5s3.5-1.569 3.5-3.5c0-1.538-0.994-2.844-2.375-3.316v-12.122c1.381-0.472 2.375-1.778 2.375-3.316zM7 6.625c0.017-0.815 0.682-1.47 1.5-1.47s1.483 0.654 1.5 1.468l0 0.002c-0.017 0.815-0.682 1.47-1.5 1.47s-1.483-0.654-1.5-1.468l-0-0.002zM10 25.375c-0.017 0.815-0.682 1.47-1.5 1.47s-1.483-0.654-1.5-1.468l-0-0.002c0.017-0.815 0.682-1.47 1.5-1.47s1.483 0.654 1.5 1.468l0 0.002z"/>
</svg>
