<svg version="1.1" xmlns="http://www.w3.org/2000/svg" width="32" height="32" viewBox="0 0 32 32">
<path fill="currentColor" d="M17.344 24.703c0 0.492 0.399 0.891 0.891 0.891s0.891-0.399 0.891-0.891-0.399-0.891-0.891-0.891-0.891 0.399-0.891 0.891zM12.875 7.297c0 0.492 0.399 0.891 0.891 0.891s0.891-0.399 0.891-0.891-0.399-0.891-0.891-0.891-0.891 0.399-0.891 0.891z"/>
<path fill="currentColor" d="M25.673 9.304h-2.976v-2.976c0-1.56-1.268-2.827-2.827-2.827h-7.738c-1.559 0-2.827 1.268-2.827 2.827v2.976h-2.976c-1.56 0-2.827 1.268-2.827 2.827v7.738c0 1.559 1.268 2.827 2.827 2.827h2.976v2.976c0 1.56 1.268 2.827 2.827 2.827h7.738c1.559 0 2.827-1.268 2.827-2.827v-2.976h2.976c1.56 0 2.827-1.268 2.827-2.827v-7.738c0-1.559-1.268-2.827-2.827-2.827zM6.327 20.911c-0.574 0-1.042-0.467-1.042-1.042v-7.738c0-0.574 0.467-1.042 1.042-1.042h8.705c0.494 0 0.893-0.399 0.893-0.893s-0.399-0.893-0.893-0.893h-3.943v-2.976c0-0.574 0.467-1.042 1.042-1.042h7.738c0.574 0 1.042 0.467 1.042 1.042v8.015c0 0.423-0.342 0.765-0.765 0.765h-8.292c-1.408 0-2.551 1.146-2.551 2.551v3.253zM26.714 19.869c0 0.574-0.467 1.042-1.042 1.042h-8.705c-0.494 0-0.893 0.399-0.893 0.893s0.399 0.893 0.893 0.893h3.943v2.976c0 0.574-0.467 1.042-1.042 1.042h-7.738c-0.574 0-1.042-0.467-1.042-1.042v-8.015c0-0.423 0.342-0.765 0.765-0.765h8.292c1.408 0 2.551-1.146 2.551-2.551v-3.253h2.976c0.574 0 1.042 0.467 1.042 1.042z"/>
</svg>
