<svg version="1.1" xmlns="http://www.w3.org/2000/svg" width="32" height="32" viewBox="0 0 32 32">
<path fill="currentColor" d="M25.775 19.163c-0.5-1.606-1.075-2.956-1.959-5.166 0.137-5.803-2.275-10.497-7.831-10.497-5.619 0-7.978 4.787-7.828 10.497-0.888 2.213-1.459 3.553-1.959 5.166-1.063 3.422-0.719 4.837-0.456 4.869 0.563 0.069 2.191-2.575 2.191-2.575 0 1.531 0.787 3.528 2.494 4.969-0.825 0.253-2.678 0.934-2.238 1.681 0.356 0.603 6.131 0.384 7.797 0.197 1.666 0.188 7.441 0.406 7.797-0.197 0.441-0.744-1.416-1.428-2.238-1.681 1.706-1.444 2.494-3.441 2.494-4.969 0 0 1.628 2.644 2.191 2.575 0.266-0.034 0.609-1.45-0.453-4.869z"/>
</svg>
