<svg version="1.1" xmlns="http://www.w3.org/2000/svg" width="32" height="32" viewBox="0 0 32 32">
<path fill="currentColor" d="M14.625 4h-9.625c-0.553 0-1 0.447-1 1v9.625c0 0.137 0.112 0.25 0.25 0.25h10.375c0.137 0 0.25-0.113 0.25-0.25v-10.375c0-0.138-0.113-0.25-0.25-0.25zM12.875 12.875h-6.875v-6.875h6.875v6.875zM8.563 10.563h1.75c0.137 0 0.25-0.113 0.25-0.25v-1.75c0-0.137-0.113-0.25-0.25-0.25h-1.75c-0.137 0-0.25 0.113-0.25 0.25v1.75c0 0.137 0.113 0.25 0.25 0.25zM14.625 17.125h-10.375c-0.138 0-0.25 0.113-0.25 0.25v9.625c0 0.553 0.447 1 1 1h9.625c0.137 0 0.25-0.113 0.25-0.25v-10.375c0-0.137-0.113-0.25-0.25-0.25zM12.875 26h-6.875v-6.875h6.875v6.875zM8.563 23.688h1.75c0.137 0 0.25-0.113 0.25-0.25v-1.75c0-0.137-0.113-0.25-0.25-0.25h-1.75c-0.137 0-0.25 0.113-0.25 0.25v1.75c0 0.137 0.113 0.25 0.25 0.25zM27 4h-9.625c-0.137 0-0.25 0.112-0.25 0.25v10.375c0 0.137 0.113 0.25 0.25 0.25h10.375c0.137 0 0.25-0.113 0.25-0.25v-9.625c0-0.553-0.447-1-1-1zM26 12.875h-6.875v-6.875h6.875v6.875zM21.688 10.563h1.75c0.137 0 0.25-0.113 0.25-0.25v-1.75c0-0.137-0.113-0.25-0.25-0.25h-1.75c-0.137 0-0.25 0.113-0.25 0.25v1.75c0 0.137 0.113 0.25 0.25 0.25zM27.75 17.125h-1.5c-0.137 0-0.25 0.113-0.25 0.25v4.188h-2.438v-4.188c0-0.137-0.113-0.25-0.25-0.25h-5.938c-0.137 0-0.25 0.113-0.25 0.25v10.375c0 0.137 0.113 0.25 0.25 0.25h1.5c0.137 0 0.25-0.113 0.25-0.25v-7.625h2.438v3.188c0 0.137 0.113 0.25 0.25 0.25h5.938c0.137 0 0.25-0.113 0.25-0.25v-5.938c0-0.137-0.113-0.25-0.25-0.25zM23.313 26h-1.5c-0.137 0-0.25 0.113-0.25 0.25v1.5c0 0.137 0.113 0.25 0.25 0.25h1.5c0.137 0 0.25-0.113 0.25-0.25v-1.5c0-0.137-0.113-0.25-0.25-0.25zM27.75 26h-1.5c-0.137 0-0.25 0.113-0.25 0.25v1.5c0 0.137 0.113 0.25 0.25 0.25h1.5c0.137 0 0.25-0.113 0.25-0.25v-1.5c0-0.137-0.113-0.25-0.25-0.25z"/>
</svg>
