<svg version="1.1" xmlns="http://www.w3.org/2000/svg" width="32" height="32" viewBox="0 0 32 32">
<path fill="currentColor" d="M16 2c-7.731 0-14 6.269-14 14s6.269 14 14 14 14-6.269 14-14-6.269-14-14-14zM16 27.625c-6.419 0-11.625-5.206-11.625-11.625s5.206-11.625 11.625-11.625 11.625 5.206 11.625 11.625-5.206 11.625-11.625 11.625z"/>
<path fill="currentColor" d="M19.488 9.897c-0.938-0.822-2.175-1.272-3.488-1.272s-2.55 0.453-3.488 1.272c-0.975 0.853-1.512 2-1.512 3.228v0.238c0 0.137 0.113 0.25 0.25 0.25h1.5c0.137 0 0.25-0.113 0.25-0.25v-0.238c0-1.378 1.347-2.5 3-2.5s3 1.122 3 2.5c0 0.972-0.688 1.863-1.753 2.272-0.663 0.253-1.225 0.697-1.628 1.278-0.409 0.594-0.622 1.306-0.622 2.028v0.672c0 0.137 0.113 0.25 0.25 0.25h1.5c0.137 0 0.25-0.113 0.25-0.25v-0.709c0.003-0.635 0.398-1.177 0.955-1.396l0.010-0.004c1.844-0.709 3.034-2.334 3.034-4.141 0.003-1.228-0.534-2.375-1.509-3.228zM14.75 22.875c0 0.69 0.56 1.25 1.25 1.25s1.25-0.56 1.25-1.25v0c0-0.69-0.56-1.25-1.25-1.25s-1.25 0.56-1.25 1.25v0z"/>
</svg>
