<svg version="1.1" xmlns="http://www.w3.org/2000/svg" width="32" height="32" viewBox="0 0 32 32">
<path fill="currentColor" d="M23.875 8.778c-0.438-0.956-1.059-1.816-1.853-2.55-1.613-1.497-3.753-2.322-6.022-2.322s-4.409 0.825-6.022 2.319c-0.794 0.737-1.416 1.594-1.853 2.553-0.456 1-0.688 2.059-0.688 3.153v0.844c0 0.194 0.156 0.35 0.35 0.35h1.688c0.194 0 0.35-0.156 0.35-0.35v-0.844c0-3.109 2.769-5.638 6.175-5.638s6.175 2.528 6.175 5.638c0 1.275-0.453 2.475-1.313 3.475-0.85 0.991-2.050 1.7-3.378 2-0.759 0.172-1.444 0.6-1.928 1.212-0.464 0.583-0.746 1.331-0.747 2.143v0.982c0 0.194 0.156 0.35 0.35 0.35h1.688c0.194 0 0.35-0.156 0.35-0.35v-0.981c0-0.491 0.341-0.922 0.813-1.028 1.825-0.413 3.481-1.397 4.666-2.772 0.597-0.697 1.063-1.472 1.384-2.313 0.334-0.872 0.503-1.787 0.503-2.719 0-1.094-0.231-2.156-0.688-3.153zM16 24.594c-0.966 0-1.75 0.784-1.75 1.75s0.784 1.75 1.75 1.75 1.75-0.784 1.75-1.75-0.784-1.75-1.75-1.75z"/>
</svg>
