<svg version="1.1" xmlns="http://www.w3.org/2000/svg" width="32" height="32" viewBox="0 0 32 32">
<path fill="currentColor" d="M28.962 12.409l-12.375-9c-0.162-0.12-0.366-0.192-0.588-0.192s-0.425 0.072-0.59 0.194l0.003-0.002-12.375 9c-0.251 0.184-0.412 0.477-0.412 0.809 0 0.111 0.018 0.218 0.051 0.317l-0.002-0.007 4.728 14.563c0.134 0.404 0.509 0.69 0.95 0.691h15.297c0.434 0 0.816-0.278 0.95-0.691l4.728-14.563c0.131-0.412-0.016-0.863-0.366-1.119zM26.206 13.031l-3.078 1-6.25-4.522v-3.263l9.328 6.784zM14.563 17.725l-2.784 3.822-1.725-5.288 4.509 1.466zM10.928 14.7l4.197-3.034v4.4l-4.197-1.366zM16 18.725l2.934 4.028h-5.869l2.934-4.028zM16.878 11.666l4.194 3.034-4.194 1.363v-4.397zM17.438 17.725l4.509-1.466-1.725 5.287-2.784-3.822zM15.125 6.247v3.263l-6.253 4.522-3.078-1 9.331-6.784zM5.291 14.713l2.703 0.878 2.513 7.7-1.681 2.309-3.534-10.887zM10.222 26.656l1.572-2.156h8.416l1.572 2.156h-11.559zM23.175 25.6l-1.681-2.309 2.512-7.7 2.703-0.878-3.534 10.887z"/>
</svg>
