<svg version="1.1" xmlns="http://www.w3.org/2000/svg" width="32" height="32" viewBox="0 0 32 32">
<path fill="currentColor" d="M11.5 4h-1.75c-0.137 0-0.25 0.112-0.25 0.25v1.75c0 0.138 0.113 0.25 0.25 0.25h1.75c0.137 0 0.25-0.112 0.25-0.25v-1.75c0-0.138-0.113-0.25-0.25-0.25zM11.438 25.75h-1.75c-0.137 0-0.25 0.113-0.25 0.25v1.75c0 0.137 0.113 0.25 0.25 0.25h1.75c0.137 0 0.25-0.113 0.25-0.25v-1.75c0-0.137-0.113-0.25-0.25-0.25zM27.75 20.313h-1.75c-0.137 0-0.25 0.113-0.25 0.25v1.75c0 0.137 0.113 0.25 0.25 0.25h1.75c0.137 0 0.25-0.113 0.25-0.25v-1.75c0-0.137-0.113-0.25-0.25-0.25zM27.75 25.75h-1.75c-0.137 0-0.25 0.113-0.25 0.25v1.75c0 0.137 0.113 0.25 0.25 0.25h1.75c0.137 0 0.25-0.113 0.25-0.25v-1.75c0-0.137-0.113-0.25-0.25-0.25zM6 4h-1.75c-0.138 0-0.25 0.112-0.25 0.25v1.75c0 0.138 0.112 0.25 0.25 0.25h1.75c0.138 0 0.25-0.112 0.25-0.25v-1.75c0-0.138-0.112-0.25-0.25-0.25zM6 9.438h-1.75c-0.138 0-0.25 0.113-0.25 0.25v1.75c0 0.137 0.112 0.25 0.25 0.25h1.75c0.138 0 0.25-0.113 0.25-0.25v-1.75c0-0.137-0.112-0.25-0.25-0.25zM6 14.875h-1.75c-0.138 0-0.25 0.113-0.25 0.25v1.75c0 0.137 0.112 0.25 0.25 0.25h1.75c0.138 0 0.25-0.113 0.25-0.25v-1.75c0-0.137-0.112-0.25-0.25-0.25zM6 20.313h-1.75c-0.138 0-0.25 0.113-0.25 0.25v1.75c0 0.137 0.112 0.25 0.25 0.25h1.75c0.138 0 0.25-0.113 0.25-0.25v-1.75c0-0.137-0.112-0.25-0.25-0.25zM6 25.75h-1.75c-0.138 0-0.25 0.113-0.25 0.25v1.75c0 0.137 0.112 0.25 0.25 0.25h1.75c0.138 0 0.25-0.113 0.25-0.25v-1.75c0-0.137-0.112-0.25-0.25-0.25zM16.875 25.75h-1.75c-0.137 0-0.25 0.113-0.25 0.25v1.75c0 0.137 0.113 0.25 0.25 0.25h1.75c0.137 0 0.25-0.113 0.25-0.25v-1.75c0-0.137-0.113-0.25-0.25-0.25zM22.313 25.75h-1.75c-0.137 0-0.25 0.113-0.25 0.25v1.75c0 0.137 0.113 0.25 0.25 0.25h1.75c0.137 0 0.25-0.113 0.25-0.25v-1.75c0-0.137-0.113-0.25-0.25-0.25zM20.813 4h-5.688c-0.137 0-0.25 0.112-0.25 0.25v1.75c0 0.138 0.113 0.25 0.25 0.25h5.688c2.728 0 4.938 2.209 4.938 4.938v5.688c0 0.137 0.113 0.25 0.25 0.25h1.75c0.137 0 0.25-0.113 0.25-0.25v-5.688c0-3.969-3.219-7.188-7.188-7.188z"/>
</svg>
