<svg version="1.1" xmlns="http://www.w3.org/2000/svg" width="32" height="32" viewBox="0 0 32 32">
<path fill="currentColor" d="M11.5 25.75h-1.75c-0.137 0-0.25 0.113-0.25 0.25v1.75c0 0.137 0.113 0.25 0.25 0.25h1.75c0.137 0 0.25-0.113 0.25-0.25v-1.75c0-0.137-0.113-0.25-0.25-0.25zM9.688 6.25h1.75c0.137 0 0.25-0.112 0.25-0.25v-1.75c0-0.138-0.113-0.25-0.25-0.25h-1.75c-0.137 0-0.25 0.112-0.25 0.25v1.75c0 0.138 0.113 0.25 0.25 0.25zM27.75 9.438h-1.75c-0.137 0-0.25 0.113-0.25 0.25v1.75c0 0.137 0.113 0.25 0.25 0.25h1.75c0.137 0 0.25-0.113 0.25-0.25v-1.75c0-0.137-0.113-0.25-0.25-0.25zM27.75 4h-1.75c-0.137 0-0.25 0.112-0.25 0.25v1.75c0 0.138 0.113 0.25 0.25 0.25h1.75c0.137 0 0.25-0.112 0.25-0.25v-1.75c0-0.138-0.113-0.25-0.25-0.25zM6 25.75h-1.75c-0.138 0-0.25 0.113-0.25 0.25v1.75c0 0.137 0.112 0.25 0.25 0.25h1.75c0.138 0 0.25-0.113 0.25-0.25v-1.75c0-0.137-0.112-0.25-0.25-0.25zM6 20.313h-1.75c-0.138 0-0.25 0.113-0.25 0.25v1.75c0 0.137 0.112 0.25 0.25 0.25h1.75c0.138 0 0.25-0.113 0.25-0.25v-1.75c0-0.137-0.112-0.25-0.25-0.25zM6 14.875h-1.75c-0.138 0-0.25 0.113-0.25 0.25v1.75c0 0.137 0.112 0.25 0.25 0.25h1.75c0.138 0 0.25-0.113 0.25-0.25v-1.75c0-0.137-0.112-0.25-0.25-0.25zM6 9.438h-1.75c-0.138 0-0.25 0.113-0.25 0.25v1.75c0 0.137 0.112 0.25 0.25 0.25h1.75c0.138 0 0.25-0.113 0.25-0.25v-1.75c0-0.137-0.112-0.25-0.25-0.25zM6 4h-1.75c-0.138 0-0.25 0.112-0.25 0.25v1.75c0 0.138 0.112 0.25 0.25 0.25h1.75c0.138 0 0.25-0.112 0.25-0.25v-1.75c0-0.138-0.112-0.25-0.25-0.25zM15.125 6.25h1.75c0.137 0 0.25-0.112 0.25-0.25v-1.75c0-0.138-0.113-0.25-0.25-0.25h-1.75c-0.137 0-0.25 0.112-0.25 0.25v1.75c0 0.138 0.113 0.25 0.25 0.25zM20.563 6.25h1.75c0.137 0 0.25-0.112 0.25-0.25v-1.75c0-0.138-0.113-0.25-0.25-0.25h-1.75c-0.137 0-0.25 0.112-0.25 0.25v1.75c0 0.138 0.113 0.25 0.25 0.25zM27.75 14.875h-1.75c-0.137 0-0.25 0.113-0.25 0.25v5.688c0 2.728-2.209 4.938-4.938 4.938h-5.688c-0.137 0-0.25 0.113-0.25 0.25v1.75c0 0.137 0.113 0.25 0.25 0.25h5.688c3.969 0 7.188-3.219 7.188-7.188v-5.688c0-0.137-0.113-0.25-0.25-0.25z"/>
</svg>
