<svg version="1.1" xmlns="http://www.w3.org/2000/svg" width="32" height="32" viewBox="0 0 32 32">
<path fill="currentColor" d="M12.375 4.375h-1.75c-0.137 0-0.25 0.112-0.25 0.25v1.75c0 0.138 0.113 0.25 0.25 0.25h1.75c0.137 0 0.25-0.112 0.25-0.25v-1.75c0-0.138-0.113-0.25-0.25-0.25zM11 25.75h-1.75c-0.137 0-0.25 0.113-0.25 0.25v1.75c0 0.137 0.113 0.25 0.25 0.25h1.75c0.137 0 0.25-0.113 0.25-0.25v-1.75c0-0.137-0.113-0.25-0.25-0.25zM27.375 19.375h-1.75c-0.137 0-0.25 0.113-0.25 0.25v1.75c0 0.137 0.113 0.25 0.25 0.25h1.75c0.137 0 0.25-0.113 0.25-0.25v-1.75c0-0.137-0.113-0.25-0.25-0.25zM6 10.75h-1.75c-0.138 0-0.25 0.113-0.25 0.25v1.75c0 0.137 0.112 0.25 0.25 0.25h1.75c0.138 0 0.25-0.113 0.25-0.25v-1.75c0-0.137-0.112-0.25-0.25-0.25zM6 15.75h-1.75c-0.138 0-0.25 0.113-0.25 0.25v1.75c0 0.137 0.112 0.25 0.25 0.25h1.75c0.138 0 0.25-0.113 0.25-0.25v-1.75c0-0.137-0.112-0.25-0.25-0.25zM6 20.75h-1.75c-0.138 0-0.25 0.113-0.25 0.25v1.75c0 0.137 0.112 0.25 0.25 0.25h1.75c0.138 0 0.25-0.113 0.25-0.25v-1.75c0-0.137-0.112-0.25-0.25-0.25zM6 25.75h-1.75c-0.138 0-0.25 0.113-0.25 0.25v1.75c0 0.137 0.112 0.25 0.25 0.25h1.75c0.138 0 0.25-0.113 0.25-0.25v-1.75c0-0.137-0.112-0.25-0.25-0.25zM16 25.75h-1.75c-0.137 0-0.25 0.113-0.25 0.25v1.75c0 0.137 0.113 0.25 0.25 0.25h1.75c0.137 0 0.25-0.113 0.25-0.25v-1.75c0-0.137-0.113-0.25-0.25-0.25zM21 25.75h-1.75c-0.137 0-0.25 0.113-0.25 0.25v1.75c0 0.137 0.113 0.25 0.25 0.25h1.75c0.137 0 0.25-0.113 0.25-0.25v-1.75c0-0.137-0.113-0.25-0.25-0.25zM25.375 16.875c0 0.137 0.113 0.25 0.25 0.25h1.75c0.137 0 0.25-0.113 0.25-0.25v-5.313c0-3.969-3.219-7.188-7.188-7.188h-5.313c-0.137 0-0.25 0.112-0.25 0.25v1.75c0 0.138 0.113 0.25 0.25 0.25h5.313c2.728 0 4.938 2.209 4.938 4.938v5.313zM7.375 3h-4.5c-0.138 0-0.25 0.112-0.25 0.25v4.5c0 0.138 0.112 0.25 0.25 0.25h4.5c0.138 0 0.25-0.112 0.25-0.25v-4.5c0-0.138-0.112-0.25-0.25-0.25zM5.875 6.175c0 0.041-0.034 0.075-0.075 0.075h-1.35c-0.041 0-0.075-0.034-0.075-0.075v-1.35c0-0.041 0.034-0.075 0.075-0.075h1.35c0.041 0 0.075 0.034 0.075 0.075v1.35zM28.75 24.375h-4.5c-0.137 0-0.25 0.113-0.25 0.25v4.5c0 0.137 0.113 0.25 0.25 0.25h4.5c0.137 0 0.25-0.113 0.25-0.25v-4.5c0-0.137-0.113-0.25-0.25-0.25zM27.25 27.55c0 0.041-0.034 0.075-0.075 0.075h-1.35c-0.041 0-0.075-0.034-0.075-0.075v-1.35c0-0.041 0.034-0.075 0.075-0.075h1.35c0.041 0 0.075 0.034 0.075 0.075v1.35z"/>
</svg>
