<svg version="1.1" xmlns="http://www.w3.org/2000/svg" width="32" height="32" viewBox="0 0 32 32">
<path fill="currentColor" d="M29 5.031h-7.15c-1.534 0-3.034 0.441-4.325 1.272l-1.525 0.978-1.525-0.978c-1.221-0.798-2.715-1.272-4.321-1.272-0.002 0-0.003 0-0.005 0h-7.15c-0.553 0-1 0.447-1 1v17.75c0 0.553 0.447 1 1 1h7.15c1.534 0 3.034 0.441 4.325 1.272l1.387 0.894c0.041 0.025 0.088 0.041 0.134 0.041s0.094-0.012 0.134-0.041l1.387-0.894c1.294-0.831 2.797-1.272 4.331-1.272h7.15c0.553 0 1-0.447 1-1v-17.75c0-0.553-0.447-1-1-1zM10.15 22.531h-5.9v-15.25h5.9c1.106 0 2.181 0.316 3.109 0.912l1.525 0.978 0.216 0.141v14.438c-1.488-0.8-3.15-1.219-4.85-1.219zM27.75 22.531h-5.9c-1.7 0-3.363 0.419-4.85 1.219v-14.438l0.216-0.141 1.525-0.978c0.928-0.597 2.003-0.912 3.109-0.912h5.9v15.25zM12.403 11.281h-5.806c-0.122 0-0.222 0.106-0.222 0.234v1.406c0 0.128 0.1 0.234 0.222 0.234h5.803c0.122 0 0.222-0.106 0.222-0.234v-1.406c0.003-0.128-0.097-0.234-0.219-0.234zM19.375 11.516v1.406c0 0.128 0.1 0.234 0.222 0.234h5.803c0.122 0 0.222-0.106 0.222-0.234v-1.406c0-0.128-0.1-0.234-0.222-0.234h-5.803c-0.122 0-0.222 0.106-0.222 0.234zM12.403 15.656h-5.806c-0.122 0-0.222 0.106-0.222 0.234v1.406c0 0.128 0.1 0.234 0.222 0.234h5.803c0.122 0 0.222-0.106 0.222-0.234v-1.406c0.003-0.128-0.097-0.234-0.219-0.234zM25.403 15.656h-5.806c-0.122 0-0.222 0.106-0.222 0.234v1.406c0 0.128 0.1 0.234 0.222 0.234h5.803c0.122 0 0.222-0.106 0.222-0.234v-1.406c0.003-0.128-0.097-0.234-0.219-0.234z"/>
</svg>
