<svg version="1.1" xmlns="http://www.w3.org/2000/svg" width="32" height="32" viewBox="0 0 32 32">
<path fill="currentColor" d="M13.769 14.456c-0.044-0.086-0.132-0.144-0.234-0.144-0 0-0 0-0.001 0h-1.525c-0.041 0-0.081 0.012-0.122 0.031-0.083 0.045-0.138 0.132-0.138 0.231 0 0.046 0.012 0.089 0.032 0.127l-0.001-0.001 2.731 5.034h-1.419c-0.144 0-0.262 0.119-0.262 0.262v0.784c0 0.144 0.119 0.262 0.262 0.262h1.969v0.894h-1.969c-0.144 0-0.262 0.119-0.262 0.262v0.784c0 0.144 0.119 0.262 0.262 0.262h1.969v1.559c0 0.144 0.119 0.262 0.262 0.262h1.366c0.144 0 0.262-0.119 0.262-0.262v-1.559h1.978c0.147 0 0.262-0.119 0.256-0.266v-0.781c0-0.144-0.119-0.262-0.262-0.262h-1.978v-0.894h1.978c0.144 0 0.262-0.119 0.262-0.262v-0.784c0-0.144-0.119-0.262-0.262-0.262h-1.434l2.725-5.031c0.019-0.036 0.031-0.078 0.031-0.123 0-0.145-0.117-0.263-0.262-0.264h-1.494c-0.097 0-0.188 0.056-0.234 0.144l-2.247 4.434-2.241-4.438zM26 2h-20c-0.553 0-1 0.447-1 1v26c0 0.553 0.447 1 1 1h20c0.553 0 1-0.447 1-1v-26c0-0.553-0.447-1-1-1zM24.75 27.75h-17.5v-21.716l8.134 6.378c0.363 0.284 0.872 0.284 1.234 0l8.131-6.378v21.716zM24.75 4.272h-0.991l-7.759 6.081-7.759-6.081h-0.991v-0.022h17.5v0.022z"/>
</svg>
