<svg version="1.1" xmlns="http://www.w3.org/2000/svg" width="32" height="32" viewBox="0 0 32 32">
<path fill="currentColor" d="M9 17.75c0 0.966 0.784 1.75 1.75 1.75s1.75-0.784 1.75-1.75v0c0-0.966-0.784-1.75-1.75-1.75s-1.75 0.784-1.75 1.75v0zM19.584 21.491c-0.722 0.569-2.153 1.181-3.584 1.181s-2.863-0.613-3.584-1.181c-0.45-0.353-1.103-0.278-1.459 0.172s-0.278 1.103 0.172 1.459c1.256 0.991 3.169 1.628 4.872 1.628s3.616-0.637 4.872-1.628c0.242-0.192 0.395-0.486 0.395-0.816 0-0.574-0.465-1.039-1.039-1.039-0.244 0-0.469 0.084-0.646 0.225l0.002-0.002zM30 14.25c0-1.934-1.566-3.5-3.5-3.5-1.316 0-2.459 0.725-3.059 1.8-1.8-0.984-3.991-1.619-6.378-1.766l2.091-4.691 3.997 1.153c0.359 1.019 1.331 1.753 2.475 1.753 1.45 0 2.625-1.175 2.625-2.625s-1.175-2.625-2.625-2.625c-1 0-1.869 0.559-2.313 1.381l-4.453-1.288c-0.087-0.026-0.186-0.041-0.289-0.041-0.42 0-0.782 0.25-0.945 0.61l-0.003 0.007-2.838 6.372c-2.328 0.162-4.466 0.794-6.225 1.756-0.609-1.080-1.749-1.797-3.057-1.797-0.001 0-0.002 0-0.003 0h0c-1.934 0-3.5 1.566-3.5 3.5 0 1.431 0.859 2.659 2.087 3.203-0.222 0.656-0.337 1.344-0.337 2.047 0 4.831 5.484 8.75 12.25 8.75s12.25-3.919 12.25-8.75c0-0.706-0.119-1.391-0.337-2.047 1.228-0.544 2.087-1.772 2.087-3.203zM25.625 5.391c0.544 0 0.984 0.441 0.984 0.984s-0.441 0.984-0.984 0.984v0c-0.544 0-0.984-0.441-0.984-0.984s0.441-0.984 0.984-0.984v0zM3.75 14.25c0-0.966 0.784-1.75 1.75-1.75 0.695 0.001 1.295 0.406 1.577 0.993l0.005 0.011c-0.916 0.694-1.672 1.494-2.234 2.372-0.648-0.268-1.095-0.894-1.097-1.625v-0zM16 26.172c-5.619 0-10.172-2.988-10.172-6.672s4.553-6.672 10.172-6.672 10.172 2.988 10.172 6.672-4.553 6.672-10.172 6.672zM27.15 15.875c-0.559-0.878-1.319-1.678-2.234-2.372 0.281-0.591 0.884-1.003 1.581-1.003 0.966 0 1.75 0.784 1.75 1.75 0.003 0.734-0.453 1.366-1.097 1.625zM19.5 17.75c0 0.966 0.784 1.75 1.75 1.75s1.75-0.784 1.75-1.75v0c0-0.966-0.784-1.75-1.75-1.75s-1.75 0.784-1.75 1.75v0z"/>
</svg>
