<svg version="1.1" xmlns="http://www.w3.org/2000/svg" width="32" height="32" viewBox="0 0 32 32">
<path fill="currentColor" d="M23.694 26.222c2.925-2.288 4.806-5.85 4.806-9.85 0-6.903-5.578-12.488-12.481-12.497-6.912-0.009-12.519 5.588-12.519 12.497 0 3.913 1.797 7.403 4.613 9.694 0.109 0.087 0.269 0.069 0.356-0.041l1.231-1.578c0.084-0.106 0.066-0.259-0.037-0.347-0.253-0.206-0.497-0.428-0.731-0.663-0.891-0.888-1.614-1.942-2.119-3.113l-0.025-0.065c-0.525-1.228-0.787-2.538-0.787-3.887s0.263-2.659 0.784-3.891c0.503-1.191 1.225-2.259 2.144-3.178s1.988-1.641 3.178-2.144c1.234-0.522 2.544-0.784 3.894-0.784s2.659 0.263 3.891 0.784c1.191 0.503 2.259 1.225 3.178 2.144s1.641 1.988 2.144 3.178c0.522 1.231 0.784 2.541 0.784 3.891s-0.262 2.659-0.784 3.891c-0.53 1.236-1.253 2.291-2.143 3.178l-0 0c-0.291 0.291-0.597 0.563-0.916 0.813l-1.272-1.628c-0.046-0.059-0.118-0.097-0.198-0.097-0.117 0-0.215 0.080-0.243 0.189l-0 0.002-1.238 5.069c-0.038 0.156 0.081 0.309 0.241 0.309l5.219 0.025c0.209 0 0.328-0.241 0.197-0.403l-1.166-1.497z"/>
</svg>
