<svg version="1.1" xmlns="http://www.w3.org/2000/svg" width="32" height="32" viewBox="0 0 32 32">
<path fill="currentColor" d="M28.409 6.541l-1.762 1.378c-2.403-3.072-6.141-5.044-10.337-5.044-7.247 0-13.113 5.859-13.122 13.109-0.009 7.256 5.869 13.141 13.122 13.141 5.666 0 10.494-3.594 12.331-8.628 0.047-0.131-0.022-0.278-0.153-0.322l-1.772-0.609c-0.024-0.009-0.052-0.014-0.081-0.014-0.107 0-0.198 0.067-0.234 0.162l-0.001 0.002c-0.056 0.156-0.119 0.313-0.184 0.466-0.541 1.281-1.316 2.431-2.303 3.419-0.955 0.957-2.088 1.734-3.346 2.279l-0.070 0.027c-1.322 0.559-2.731 0.844-4.181 0.844-1.453 0-2.859-0.284-4.181-0.844-1.328-0.569-2.462-1.348-3.415-2.306l-0-0c-0.957-0.955-1.735-2.089-2.277-3.349l-0.027-0.069c-0.559-1.325-0.844-2.731-0.844-4.184s0.284-2.859 0.844-4.184c0.541-1.281 1.316-2.431 2.303-3.419s2.137-1.763 3.416-2.306c1.322-0.559 2.731-0.844 4.181-0.844 1.453 0 2.859 0.284 4.181 0.844 1.328 0.569 2.462 1.348 3.415 2.306l0 0.001c0.309 0.309 0.6 0.637 0.869 0.981l-1.881 1.469c-0.059 0.046-0.097 0.118-0.097 0.198 0 0.117 0.080 0.215 0.189 0.243l0.002 0 5.488 1.344c0.156 0.037 0.309-0.081 0.309-0.241l0.025-5.653c-0.003-0.206-0.244-0.322-0.406-0.194z"/>
</svg>
