<svg version="1.1" xmlns="http://www.w3.org/2000/svg" width="32" height="32" viewBox="0 0 32 32">
<path fill="currentColor" d="M4.25 17.25h1.987c0.138 0 0.25-0.113 0.25-0.25v-7.978h16.519v2.269c0 0.059 0.019 0.116 0.056 0.162 0.048 0.061 0.122 0.1 0.205 0.1 0.061 0 0.117-0.021 0.162-0.056l-0.001 0 4.478-3.516c0.134-0.156 0.113-0.322 0-0.412l-4.478-3.513c-0.044-0.035-0.099-0.056-0.16-0.056-0.001 0-0.001 0-0.002 0h0c-0.144 0-0.262 0.119-0.262 0.262v2.269h-16.762c-1.234 0-2.241 1.006-2.241 2.244v8.225c0 0.137 0.112 0.25 0.25 0.25zM27.75 14.75h-1.988c-0.137 0-0.25 0.113-0.25 0.25v7.978h-16.519v-2.269c0-0.059-0.019-0.116-0.056-0.163-0.048-0.061-0.122-0.1-0.205-0.1-0.061 0-0.117 0.021-0.162 0.056l0.001-0-4.478 3.516c-0.134 0.156-0.112 0.322 0 0.413l4.478 3.512c0.047 0.038 0.103 0.056 0.162 0.056 0.144 0 0.262-0.119 0.262-0.262v-2.269h16.769c1.234 0 2.241-1.006 2.241-2.244v-8.225c-0.006-0.137-0.119-0.25-0.256-0.25z"/>
</svg>
