<svg version="1.1" xmlns="http://www.w3.org/2000/svg" width="32" height="32" viewBox="0 0 32 32">
<path fill="currentColor" d="M20.834 15.797l-7.688-5.563c-0.041-0.030-0.092-0.048-0.147-0.048-0.138 0-0.25 0.112-0.25 0.25 0 0 0 0.001 0 0.001v-0 1.466c0 0.319 0.153 0.622 0.412 0.809l4.544 3.287-4.544 3.288c-0.259 0.188-0.412 0.488-0.412 0.809v1.466c0 0.203 0.231 0.322 0.397 0.203l7.688-5.563c0.137-0.1 0.137-0.306 0-0.406z"/>
<path fill="currentColor" d="M16 2c-7.731 0-14 6.269-14 14s6.269 14 14 14 14-6.269 14-14-6.269-14-14-14zM16 27.625c-6.419 0-11.625-5.206-11.625-11.625s5.206-11.625 11.625-11.625 11.625 5.206 11.625 11.625-5.206 11.625-11.625 11.625z"/>
</svg>
