<svg version="1.1" xmlns="http://www.w3.org/2000/svg" width="32" height="32" viewBox="0 0 32 32">
<path fill="currentColor" d="M28.656 6.597l-6.225 0.75c-0.206 0.025-0.294 0.278-0.147 0.425l1.853 1.853-7.063 7.063-3.181-3.178c-0.197-0.197-0.512-0.194-0.706 0l-10.053 10.056c-0.045 0.045-0.073 0.108-0.073 0.177s0.028 0.131 0.073 0.177l-0-0 1.406 1.413c0.097 0.097 0.256 0.097 0.353 0l8.647-8.644 3.178 3.178c0.197 0.194 0.512 0.194 0.706 0l8.481-8.475 1.853 1.853c0.045 0.045 0.108 0.073 0.177 0.073 0.127 0 0.233-0.095 0.248-0.219l0-0.001 0.75-6.225c0.022-0.159-0.116-0.297-0.278-0.275z"/>
</svg>
