<svg version="1.1" xmlns="http://www.w3.org/2000/svg" width="32" height="32" viewBox="0 0 32 32">
<path fill="currentColor" d="M9.375 10.25c0 1.036 0.839 1.875 1.875 1.875s1.875-0.839 1.875-1.875v0c0-1.036-0.839-1.875-1.875-1.875s-1.875 0.839-1.875 1.875v0zM26.625 2h-21.25c-0.553 0-1 0.447-1 1v20.625c0 0.553 0.447 1 1 1h21.25c0.553 0 1-0.447 1-1v-20.625c0-0.553-0.447-1-1-1zM25.625 22.625h-19.25v-18.625h19.25v18.625zM18.875 10.25c0 1.036 0.839 1.875 1.875 1.875s1.875-0.839 1.875-1.875v0c0-1.036-0.839-1.875-1.875-1.875s-1.875 0.839-1.875 1.875v0zM26.694 27.625h-21.387c-0.516 0-0.931 0.447-0.931 1v1.125c0 0.137 0.103 0.25 0.231 0.25h22.784c0.128 0 0.231-0.113 0.231-0.25v-1.125c0.003-0.553-0.413-1-0.928-1zM20.75 15.875h-9.5c-0.137 0-0.25 0.113-0.25 0.25v1.875c0 0.137 0.113 0.25 0.25 0.25h9.5c0.137 0 0.25-0.113 0.25-0.25v-1.875c0-0.137-0.113-0.25-0.25-0.25z"/>
</svg>
