<svg version="1.1" xmlns="http://www.w3.org/2000/svg" width="32" height="32" viewBox="0 0 32 32">
<path fill="currentColor" d="M27 23c0-3.488-2.044-6.5-5-7.903v-5.181c0-0.472-0.166-0.928-0.472-1.287l-4.762-5.647c-0.2-0.237-0.484-0.356-0.766-0.356s-0.566 0.119-0.766 0.356l-4.762 5.647c-0.293 0.345-0.471 0.795-0.472 1.287v5.181c-2.956 1.403-5 4.416-5 7.903h4.891c-0.072 0.225-0.109 0.469-0.109 0.744 0 0.691 0.238 1.366 0.669 1.9 0.348 0.43 0.803 0.759 1.326 0.95l0.021 0.007c0.722 1.688 2.362 2.775 4.203 2.775 0.909 0 1.791-0.269 2.544-0.775 0.738-0.494 1.309-1.184 1.656-2 0.543-0.196 0.999-0.524 1.342-0.948l0.004-0.006c0.416-0.516 0.668-1.178 0.669-1.9v-0c0-0.262-0.034-0.512-0.097-0.744h4.881zM23.822 19.419c0.294 0.456 0.531 0.947 0.703 1.456h-2.65v-3.416c0.784 0.517 1.434 1.171 1.931 1.934l0.016 0.026zM12.125 15.097v-5.134l3.875-4.594 3.875 4.594v10.912h-7.75v-5.778zM7.475 20.875c0.172-0.509 0.409-1 0.703-1.456 0.509-0.788 1.172-1.453 1.947-1.959v3.416h-2.65zM19.628 24.506c-0.163 0.094-0.35 0.131-0.534 0.106l-0.609-0.075-0.087 0.606c-0.169 1.184-1.2 2.078-2.397 2.078s-2.228-0.894-2.397-2.078l-0.088-0.609-0.609 0.078c-0.031 0.004-0.066 0.006-0.102 0.006-0.159 0-0.308-0.043-0.436-0.118l0.004 0.002c-0.272-0.156-0.441-0.447-0.441-0.762 0-0.331 0.184-0.606 0.456-0.744h7.228c0.275 0.141 0.456 0.416 0.456 0.744-0.003 0.319-0.172 0.613-0.444 0.766zM14.5 12.5c0 0.828 0.672 1.5 1.5 1.5s1.5-0.672 1.5-1.5v0c0-0.828-0.672-1.5-1.5-1.5s-1.5 0.672-1.5 1.5v0z"/>
</svg>
