<svg version="1.1" xmlns="http://www.w3.org/2000/svg" width="32" height="32" viewBox="0 0 32 32">
<path fill="currentColor" d="M21 13.063h-16.5c-0.553 0-1 0.447-1 1v12.938c0 0.553 0.447 1 1 1h16.5c0.553 0 1-0.447 1-1v-12.938c0-0.553-0.447-1-1-1zM19.625 25.625h-13.75v-10.188h13.75v10.188z"/>
<path fill="currentColor" d="M25.603 10.266c-2.462-3.147-6.125-4.8-9.831-4.819l-0.006-2c0-0.203-0.238-0.316-0.394-0.191l-4 3.156c-0.125 0.097-0.122 0.284 0 0.384l4.003 3.159c0.159 0.125 0.397 0.012 0.394-0.191v-1.997c0.403 0.003 0.809 0.028 1.212 0.078 1.316 0.163 2.566 0.569 3.719 1.209 1.191 0.662 2.225 1.553 3.075 2.634 0.847 1.084 1.459 2.303 1.816 3.619 0.344 1.272 0.438 2.584 0.278 3.9-0.022 0.169-0.044 0.337-0.075 0.503h2.341c0.462-3.238-0.353-6.656-2.531-9.447z"/>
</svg>
