<svg version="1.1" xmlns="http://www.w3.org/2000/svg" width="32" height="32" viewBox="0 0 32 32">
<path fill="currentColor" d="M15.016 7.85c0.406-0.050 0.809-0.075 1.212-0.078v1.997c0 0.203 0.234 0.316 0.394 0.191l4.003-3.159c0.125-0.1 0.125-0.287 0-0.384l-4-3.156c-0.159-0.125-0.394-0.013-0.394 0.191l-0.006 2c-3.706 0.016-7.369 1.669-9.831 4.819-2.175 2.787-2.991 6.206-2.534 9.45h2.341c-0.028-0.166-0.053-0.334-0.075-0.503-0.159-1.316-0.066-2.628 0.278-3.9 0.356-1.319 0.969-2.534 1.816-3.619 0.85-1.084 1.884-1.975 3.075-2.634 1.156-0.644 2.403-1.050 3.722-1.213z"/>
<path fill="currentColor" d="M27.5 13.063h-16.5c-0.553 0-1 0.447-1 1v12.938c0 0.553 0.447 1 1 1h16.5c0.553 0 1-0.447 1-1v-12.938c0-0.553-0.447-1-1-1zM26.125 25.625h-13.75v-10.188h13.75v10.188z"/>
</svg>
