<svg version="1.1" xmlns="http://www.w3.org/2000/svg" width="32" height="32" viewBox="0 0 32 32">
<path fill="currentColor" d="M15.932 3.501c-0.023 0.002-0.046 0.004-0.069 0.007h-0.135l-0.106 0.053c-0.106 0.036-0.197 0.083-0.281 0.14l0.004-0.002-4.561 2.282-4.803 4.803-2.271 4.539c-0.063 0.088-0.115 0.191-0.151 0.3l-0.002 0.008-0.049 0.098v0.124c-0.005 0.039-0.007 0.084-0.007 0.13s0.003 0.091 0.008 0.135l-0.001-0.005v9.32l0.215 0.297c0.187 0.259 0.397 0.517 0.643 0.763 1.183 1.183 2.74 1.787 4.457 1.938 0.105 0.035 0.225 0.055 0.351 0.055 0.004 0 0.008-0 0.011-0h17.992c0.098 0.017 0.198 0.020 0.297 0.011 0.033-0.003 0.060-0.007 0.087-0.012l-0.007 0.001h0.931v-0.936c0.010-0.056 0.015-0.12 0.015-0.186s-0.006-0.13-0.016-0.193l0.001 0.007v-17.992c0-0.003 0-0.007 0-0.011 0-0.125-0.020-0.246-0.058-0.359l0.002 0.008c-0.151-1.717-0.755-3.274-1.938-4.457h-0.002v-0.002c-0.245-0.244-0.502-0.453-0.758-0.639l-0.299-0.217h-9.333c-0.039-0.005-0.083-0.007-0.128-0.007-0.013 0-0.027 0-0.040 0.001l0.002-0zM20.094 5.778h4.561c0.077 0.065 0.164 0.127 0.233 0.195 0.831 0.832 1.28 2.023 1.322 3.475zM15.947 5.938l2.053 1.231-0.796 4.878-5.158 5.158-4.878 0.796-1.231-2.053 1.909-3.821 4.28-4.279zM20.096 8.425l3.849 2.311-4.315 0.539zM25.684 12.807c-0.663 2.133-1.958 4.455-3.825 6.621l-2.058-5.887zM17.792 14.67l1.676 4.798-4.799-1.676 2.129-2.129zM26.214 17.202v7.406l-3.138-3.138c1.253-1.367 2.304-2.807 3.138-4.268zM11.275 19.63l-0.539 4.315-2.311-3.849zM13.541 19.801l5.885 2.058c-2.165 1.866-4.487 3.162-6.619 3.825zM5.778 20.093l3.67 6.116c-1.453-0.041-2.645-0.492-3.477-1.324-0.068-0.068-0.129-0.154-0.193-0.231zM21.471 23.076l3.138 3.138h-7.406c1.462-0.834 2.902-1.885 4.269-3.138z"/>
</svg>
