<svg version="1.1" xmlns="http://www.w3.org/2000/svg" width="32" height="32" viewBox="0 0 32 32">
<path fill="currentColor" d="M16 2l-12 4v12c0 6.628 5.372 12 12 12s12-5.372 12-12v-12l-12-4zM25.75 18c0 5.384-4.366 9.75-9.75 9.75s-9.75-4.366-9.75-9.75v-10.313l9.75-3.438 9.75 3.438v10.313z"/>
<path fill="currentColor" d="M11.825 14.847c-0.203-0.204-0.485-0.331-0.795-0.331s-0.592 0.126-0.795 0.33l-0 0c-0.204 0.203-0.331 0.485-0.331 0.795s0.126 0.592 0.33 0.795l4.109 4.109c0.192 0.193 0.458 0.312 0.752 0.312s0.559-0.119 0.752-0.312l6.984-6.984c0.193-0.192 0.312-0.458 0.312-0.752s-0.119-0.559-0.312-0.752l-0.088-0.088c-0.192-0.193-0.458-0.312-0.752-0.312s-0.559 0.119-0.752 0.312l-6.147 6.144-3.269-3.269z"/>
</svg>
