<svg version="1.1" xmlns="http://www.w3.org/2000/svg" width="32" height="32" viewBox="0 0 32 32">
<path fill="currentColor" d="M27.916 9.166l-5.081-5.081c-0.234-0.234-0.522-0.406-0.834-0.5v-0.084h-17.5c-0.553 0-1 0.447-1 1v23c0 0.553 0.447 1 1 1h23c0.553 0 1-0.447 1-1v-16.922c0-0.531-0.209-1.037-0.584-1.412zM12 5.75h8v3.25h-8v-3.25zM26.25 26.25h-20.5v-20.5h4.25v4.25c0 0.553 0.447 1 1 1h10c0.553 0 1-0.447 1-1v-3.569l4.25 4.25v15.569zM16 13.813c-2.484 0-4.5 2.016-4.5 4.5s2.016 4.5 4.5 4.5 4.5-2.016 4.5-4.5-2.016-4.5-4.5-4.5zM16 20.813c-1.381 0-2.5-1.119-2.5-2.5s1.119-2.5 2.5-2.5 2.5 1.119 2.5 2.5-1.119 2.5-2.5 2.5z"/>
</svg>
