<svg version="1.1" xmlns="http://www.w3.org/2000/svg" width="32" height="32" viewBox="0 0 32 32">
<path fill="currentColor" d="M4.25 12h1.75c0.138 0 0.25-0.113 0.25-0.25v-5.5h5.5c0.137 0 0.25-0.112 0.25-0.25v-1.75c0-0.138-0.113-0.25-0.25-0.25h-5.625c-1.175 0-2.125 0.95-2.125 2.125v5.625c0 0.137 0.112 0.25 0.25 0.25zM20.25 6.25h5.5v5.5c0 0.137 0.113 0.25 0.25 0.25h1.75c0.137 0 0.25-0.113 0.25-0.25v-5.625c0-1.175-0.95-2.125-2.125-2.125h-5.625c-0.137 0-0.25 0.112-0.25 0.25v1.75c0 0.138 0.113 0.25 0.25 0.25zM11.75 25.75h-5.5v-5.5c0-0.137-0.112-0.25-0.25-0.25h-1.75c-0.138 0-0.25 0.113-0.25 0.25v5.625c0 1.175 0.95 2.125 2.125 2.125h5.625c0.137 0 0.25-0.113 0.25-0.25v-1.75c0-0.137-0.113-0.25-0.25-0.25zM27.75 20h-1.75c-0.137 0-0.25 0.113-0.25 0.25v5.5h-5.5c-0.137 0-0.25 0.113-0.25 0.25v1.75c0 0.137 0.113 0.25 0.25 0.25h5.625c1.175 0 2.125-0.95 2.125-2.125v-5.625c0-0.137-0.113-0.25-0.25-0.25zM28.25 14.875h-24.5c-0.138 0-0.25 0.113-0.25 0.25v1.75c0 0.137 0.112 0.25 0.25 0.25h24.5c0.137 0 0.25-0.113 0.25-0.25v-1.75c0-0.137-0.113-0.25-0.25-0.25z"/>
</svg>
