<svg version="1.1" xmlns="http://www.w3.org/2000/svg" width="32" height="32" viewBox="0 0 32 32">
<path fill="currentColor" d="M29 7h-5v-1.75c0-0.138-0.113-0.25-0.25-0.25h-1.75c-0.137 0-0.25 0.112-0.25 0.25v1.75h-4.625v-1.75c0-0.138-0.113-0.25-0.25-0.25h-1.75c-0.137 0-0.25 0.112-0.25 0.25v1.75h-4.625v-1.75c0-0.138-0.113-0.25-0.25-0.25h-1.75c-0.137 0-0.25 0.112-0.25 0.25v1.75h-5c-0.553 0-1 0.447-1 1v18c0 0.553 0.447 1 1 1h26c0.553 0 1-0.447 1-1v-18c0-0.553-0.447-1-1-1zM27.75 24.75h-23.5v-15.5h3.75v1.75c0 0.137 0.113 0.25 0.25 0.25h1.75c0.137 0 0.25-0.113 0.25-0.25v-1.75h4.625v1.75c0 0.137 0.113 0.25 0.25 0.25h1.75c0.137 0 0.25-0.113 0.25-0.25v-1.75h4.625v1.75c0 0.137 0.113 0.25 0.25 0.25h1.75c0.137 0 0.25-0.113 0.25-0.25v-1.75h3.75v15.5zM13 15.5h-5.75c-0.138 0-0.25 0.113-0.25 0.25v1.5c0 0.137 0.112 0.25 0.25 0.25h5.75c0.137 0 0.25-0.113 0.25-0.25v-1.5c0-0.137-0.113-0.25-0.25-0.25zM13 19.75h-5.75c-0.138 0-0.25 0.113-0.25 0.25v1.5c0 0.137 0.112 0.25 0.25 0.25h5.75c0.137 0 0.25-0.113 0.25-0.25v-1.5c0-0.137-0.113-0.25-0.25-0.25zM22.631 14.206l-3.238 4.491-1.65-2.284c-0.094-0.131-0.244-0.206-0.403-0.206h-1.716c-0.203 0-0.322 0.231-0.203 0.397l3.566 4.944c0.091 0.126 0.238 0.206 0.403 0.206s0.312-0.081 0.402-0.205l0.001-0.001 5.156-7.147c0.119-0.166 0-0.397-0.203-0.397h-1.716c-0.156-0.003-0.306 0.075-0.4 0.203z"/>
</svg>
