<svg version="1.1" xmlns="http://www.w3.org/2000/svg" width="32" height="32" viewBox="0 0 32 32">
<path fill="currentColor" d="M17.722 16l9.953-9.978c0.156-0.156 0.047-0.428-0.175-0.428h-2.828c-0.066 0-0.131 0.025-0.175 0.072l-8.541 8.563-2.819-2.828c0.391-0.691 0.616-1.488 0.616-2.338 0-2.622-2.128-4.75-4.75-4.75s-4.75 2.128-4.75 4.75 2.128 4.75 4.75 4.75c0.866 0 1.675-0.231 2.372-0.634l2.813 2.822-2.816 2.822c-0.678-0.399-1.493-0.634-2.364-0.634-0.003 0-0.006 0-0.009 0h0c-2.622 0-4.75 2.128-4.75 4.75s2.128 4.75 4.75 4.75 4.75-2.128 4.75-4.75c0-0.85-0.225-1.647-0.616-2.337l2.819-2.828 8.541 8.563c0.047 0.047 0.109 0.072 0.175 0.072h2.831c0.222 0 0.334-0.269 0.175-0.428l-9.953-9.978zM9 11.563c-1.378 0-2.5-1.122-2.5-2.5s1.122-2.5 2.5-2.5 2.5 1.122 2.5 2.5-1.122 2.5-2.5 2.5zM9 25.438c-1.378 0-2.5-1.122-2.5-2.5s1.122-2.5 2.5-2.5 2.5 1.122 2.5 2.5-1.122 2.5-2.5 2.5z"/>
</svg>
