<svg version="1.1" xmlns="http://www.w3.org/2000/svg" width="32" height="32" viewBox="0 0 32 32">
<path fill="currentColor" d="M28.425 26.703l-8.116-8.116c1.259-1.628 1.941-3.619 1.941-5.713 0-2.506-0.978-4.856-2.747-6.628s-4.125-2.747-6.628-2.747-4.859 0.978-6.628 2.747c-1.772 1.769-2.747 4.122-2.747 6.628 0 2.503 0.978 4.859 2.747 6.628 1.769 1.772 4.122 2.747 6.628 2.747 2.094 0 4.081-0.681 5.709-1.938l8.116 8.113c0.046 0.046 0.11 0.075 0.181 0.075s0.135-0.029 0.181-0.075v0l1.363-1.359c0.046-0.046 0.075-0.11 0.075-0.181s-0.029-0.135-0.075-0.181v0zM17.825 17.825c-1.325 1.322-3.081 2.050-4.95 2.050s-3.625-0.728-4.95-2.050c-1.322-1.325-2.050-3.081-2.050-4.95s0.728-3.628 2.050-4.95c1.325-1.322 3.081-2.050 4.95-2.050s3.628 0.725 4.95 2.050 2.050 3.081 2.050 4.95-0.728 3.628-2.050 4.95z"/>
</svg>
