<svg version="1.1" xmlns="http://www.w3.org/2000/svg" width="32" height="32" viewBox="0 0 32 32">
<path fill="currentColor" d="M27.091 5.309l-10.619-3.619c-0.128-0.044-0.3-0.066-0.472-0.066s-0.344 0.022-0.472 0.066l-10.619 3.619c-0.259 0.088-0.472 0.388-0.472 0.662v15.075c0 0.275 0.178 0.637 0.394 0.809l10.772 8.394c0.109 0.084 0.25 0.128 0.394 0.128s0.288-0.044 0.394-0.128l10.772-8.394c0.216-0.169 0.394-0.531 0.394-0.809v-15.075c0.006-0.275-0.206-0.572-0.466-0.662zM25.313 20.447l-9.313 7.256-9.313-7.256v-13.363l9.313-3.175 9.313 3.175v13.363zM12.591 16.525l-2.422 2.422c-0.045 0.045-0.073 0.108-0.073 0.177s0.028 0.131 0.073 0.177l1.062 1.062c0.097 0.097 0.256 0.097 0.353 0l2.422-2.422c1.741 1.097 4.066 0.887 5.581-0.628 1.759-1.759 1.759-4.609 0-6.369s-4.609-1.759-6.369 0c-1.516 1.516-1.725 3.844-0.628 5.581zM14.634 12.359c0.978-0.978 2.562-0.978 3.537 0 0.978 0.978 0.978 2.563 0 3.537-0.978 0.978-2.563 0.978-3.537 0s-0.978-2.559 0-3.537z"/>
</svg>
