<svg version="1.1" xmlns="http://www.w3.org/2000/svg" width="32" height="32" viewBox="0 0 32 32">
<path fill="currentColor" d="M29.106 15.591l-26.141-13.106c-0.106-0.053-0.228-0.066-0.344-0.038-0.266 0.066-0.431 0.334-0.366 0.603l2.694 11.006c0.041 0.166 0.162 0.3 0.325 0.353l4.616 1.584-4.612 1.584c-0.162 0.056-0.284 0.188-0.322 0.353l-2.7 11.022c-0.028 0.116-0.016 0.238 0.038 0.341 0.122 0.247 0.422 0.347 0.672 0.225l26.141-13.031c0.097-0.047 0.175-0.128 0.225-0.222 0.122-0.25 0.022-0.55-0.225-0.675zM5.338 25.822l1.572-6.425 9.225-3.166c0.072-0.025 0.131-0.081 0.156-0.156 0.044-0.131-0.025-0.272-0.156-0.319l-9.225-3.162-1.566-6.4 19.625 9.841-19.631 9.788z"/>
</svg>
