<svg version="1.1" xmlns="http://www.w3.org/2000/svg" width="32" height="32" viewBox="0 0 32 32">
<path fill="currentColor" d="M28.9 19.553l-2.047-1.75c0.097-0.594 0.147-1.2 0.147-1.806s-0.050-1.213-0.147-1.806l2.047-1.75c0.215-0.185 0.35-0.457 0.35-0.76 0-0.122-0.022-0.239-0.062-0.347l0.002 0.007-0.028-0.081c-0.603-1.658-1.447-3.088-2.507-4.329l0.016 0.019-0.056-0.066c-0.185-0.217-0.459-0.353-0.765-0.353-0.119 0-0.233 0.021-0.339 0.059l0.007-0.002-2.541 0.903c-0.938-0.769-1.984-1.375-3.116-1.8l-0.491-2.656c-0.078-0.409-0.396-0.727-0.8-0.802l-0.006-0.001-0.084-0.016c-1.628-0.294-3.341-0.294-4.969 0l-0.084 0.016c-0.41 0.076-0.728 0.394-0.805 0.797l-0.001 0.006-0.494 2.669c-1.186 0.456-2.21 1.062-3.112 1.809l0.018-0.015-2.559-0.909c-0.099-0.036-0.214-0.057-0.333-0.057-0.305 0-0.579 0.137-0.762 0.353l-0.001 0.001-0.056 0.066c-1.042 1.222-1.886 2.652-2.46 4.213l-0.031 0.097-0.028 0.081c-0.141 0.391-0.025 0.828 0.291 1.1l2.072 1.769c-0.097 0.588-0.144 1.188-0.144 1.784 0 0.6 0.047 1.2 0.144 1.784l-2.072 1.769c-0.215 0.185-0.35 0.457-0.35 0.76 0 0.122 0.022 0.239 0.062 0.347l-0.002-0.007 0.028 0.081c0.566 1.575 1.403 3.028 2.491 4.309l0.056 0.066c0.185 0.217 0.459 0.353 0.765 0.353 0.119 0 0.233-0.021 0.339-0.059l-0.007 0.002 2.559-0.909c0.931 0.766 1.972 1.372 3.094 1.794l0.494 2.669c0.078 0.409 0.396 0.727 0.8 0.802l0.006 0.001 0.084 0.016c0.747 0.141 1.606 0.221 2.484 0.221s1.737-0.081 2.571-0.235l-0.087 0.013 0.084-0.016c0.41-0.076 0.728-0.394 0.805-0.797l0.001-0.006 0.491-2.656c1.195-0.455 2.226-1.063 3.134-1.815l-0.018 0.015 2.541 0.903c0.099 0.036 0.214 0.057 0.333 0.057 0.305 0 0.579-0.137 0.762-0.353l0.001-0.001 0.056-0.066c1.087-1.284 1.925-2.734 2.491-4.309l0.028-0.081c0.141-0.384 0.025-0.822-0.291-1.094zM24.634 14.559c0.078 0.472 0.119 0.956 0.119 1.441s-0.041 0.969-0.119 1.441l-0.206 1.253 2.334 1.997c-0.385 0.878-0.831 1.634-1.353 2.33l0.021-0.030-2.9-1.028-0.981 0.806c-0.747 0.613-1.578 1.094-2.478 1.431l-1.191 0.447-0.559 3.031c-0.399 0.048-0.86 0.075-1.328 0.075s-0.93-0.027-1.383-0.080l0.055 0.005-0.559-3.038-1.181-0.453c-0.891-0.337-1.719-0.819-2.459-1.428l-0.981-0.809-2.919 1.038c-0.531-0.716-0.975-1.488-1.331-2.3l2.359-2.016-0.203-1.25c-0.075-0.466-0.116-0.947-0.116-1.422 0-0.478 0.037-0.956 0.116-1.422l0.203-1.25-2.359-2.016c0.353-0.816 0.8-1.584 1.331-2.3l2.919 1.037 0.981-0.809c0.741-0.609 1.569-1.091 2.459-1.428l1.184-0.447 0.559-3.037c0.878-0.1 1.775-0.1 2.656 0l0.559 3.031 1.191 0.447c0.897 0.338 1.731 0.819 2.478 1.431l0.981 0.806 2.9-1.028c0.531 0.716 0.975 1.488 1.331 2.3l-2.334 1.997 0.203 1.247zM16 10.188c-3.037 0-5.5 2.463-5.5 5.5s2.463 5.5 5.5 5.5 5.5-2.462 5.5-5.5-2.462-5.5-5.5-5.5zM18.475 18.163c-0.631 0.633-1.505 1.025-2.47 1.025-0.002 0-0.004 0-0.006 0h0c-0.934 0-1.813-0.366-2.475-1.025-0.633-0.631-1.025-1.505-1.025-2.47 0-0.002 0-0.004 0-0.006v0c0-0.934 0.366-1.813 1.025-2.475 0.662-0.662 1.541-1.025 2.475-1.025s1.813 0.363 2.475 1.025c0.633 0.631 1.025 1.505 1.025 2.47 0 0.002 0 0.004 0 0.006v-0c0 0.934-0.366 1.812-1.025 2.475z"/>
</svg>
