<svg version="1.1" xmlns="http://www.w3.org/2000/svg" width="32" height="32" viewBox="0 0 32 32">
<path fill="currentColor" d="M10.125 20.813c0 0.828 0.672 1.5 1.5 1.5s1.5-0.672 1.5-1.5v0c0-0.828-0.672-1.5-1.5-1.5s-1.5 0.672-1.5 1.5v0zM29.397 11.137l-8.534-8.537c-0.387-0.384-0.903-0.6-1.453-0.6s-1.066 0.212-1.453 0.6l-15.353 15.353c-0.372 0.372-0.602 0.887-0.602 1.455s0.23 1.082 0.602 1.455l8.537 8.538c0.384 0.384 0.903 0.6 1.453 0.6s1.066-0.212 1.453-0.6l15.353-15.353c0.8-0.803 0.8-2.109-0.003-2.909zM12.594 27.503l-8.097-8.097 14.912-14.912 8.094 8.1-14.909 14.909zM4.775 11.678c0.045 0.045 0.107 0.073 0.175 0.073s0.13-0.028 0.175-0.073v0l6.553-6.553c0.045-0.045 0.073-0.107 0.073-0.175s-0.028-0.13-0.073-0.175v0l-1.2-1.2c-0.045-0.045-0.107-0.073-0.175-0.073s-0.13 0.028-0.175 0.073v0l-6.556 6.547c-0.045 0.045-0.073 0.107-0.073 0.175s0.028 0.13 0.073 0.175v0l1.203 1.206zM27.231 20.322c-0.045-0.045-0.107-0.073-0.175-0.073s-0.13 0.028-0.175 0.073v0l-6.559 6.556c-0.045 0.045-0.073 0.107-0.073 0.175s0.028 0.13 0.073 0.175v0l1.2 1.2c0.045 0.045 0.107 0.073 0.175 0.073s0.13-0.028 0.175-0.073v0l6.556-6.553c0.045-0.045 0.073-0.107 0.073-0.175s-0.028-0.13-0.073-0.175v0l-1.197-1.203z"/>
</svg>
