<svg version="1.1" xmlns="http://www.w3.org/2000/svg" width="32" height="32" viewBox="0 0 32 32">
<path fill="currentColor" d="M23.5 20.75c-0.891 0-1.712 0.313-2.356 0.834l-6.475-4.684c0.052-0.271 0.081-0.582 0.081-0.9s-0.030-0.629-0.086-0.931l0.005 0.031 6.475-4.684c0.644 0.522 1.466 0.834 2.356 0.834 2.069 0 3.75-1.681 3.75-3.75s-1.681-3.75-3.75-3.75-3.75 1.681-3.75 3.75c0 0.362 0.050 0.709 0.147 1.041l-6.15 4.453c-0.912-1.209-2.362-1.994-3.997-1.994-2.763 0-5 2.237-5 5s2.237 5 5 5c1.634 0 3.084-0.784 3.997-1.994l6.15 4.453c-0.097 0.331-0.147 0.681-0.147 1.041 0 2.069 1.681 3.75 3.75 3.75s3.75-1.681 3.75-3.75-1.681-3.75-3.75-3.75zM23.5 5.875c0.897 0 1.625 0.728 1.625 1.625s-0.728 1.625-1.625 1.625-1.625-0.728-1.625-1.625 0.728-1.625 1.625-1.625zM9.75 18.75c-1.516 0-2.75-1.234-2.75-2.75s1.234-2.75 2.75-2.75 2.75 1.234 2.75 2.75-1.234 2.75-2.75 2.75zM23.5 26.125c-0.897 0-1.625-0.728-1.625-1.625s0.728-1.625 1.625-1.625 1.625 0.728 1.625 1.625-0.728 1.625-1.625 1.625z"/>
</svg>
