<svg version="1.1" xmlns="http://www.w3.org/2000/svg" width="32" height="32" viewBox="0 0 32 32">
<path fill="currentColor" d="M26 9.75h-4.25v-0.5c0-3.175-2.575-5.75-5.75-5.75s-5.75 2.575-5.75 5.75v0.5h-4.25c-0.553 0-1 0.447-1 1v16.75c0 0.553 0.447 1 1 1h20c0.553 0 1-0.447 1-1v-16.75c0-0.553-0.447-1-1-1zM12.5 9.25c0-1.934 1.566-3.5 3.5-3.5s3.5 1.566 3.5 3.5v0.5h-7v-0.5zM24.75 26.25h-17.5v-14.25h3v2.75c0 0.137 0.113 0.25 0.25 0.25h1.75c0.137 0 0.25-0.113 0.25-0.25v-2.75h7v2.75c0 0.137 0.113 0.25 0.25 0.25h1.75c0.137 0 0.25-0.113 0.25-0.25v-2.75h3v14.25z"/>
</svg>
