<svg version="1.1" xmlns="http://www.w3.org/2000/svg" width="32" height="32" viewBox="0 0 32 32">
<path fill="currentColor" d="M28.841 21.934h-18.609l0.934-1.903 15.525-0.028c0.525 0 0.975-0.375 1.069-0.894l2.15-12.034c0.056-0.316-0.028-0.641-0.234-0.888-0.201-0.238-0.498-0.389-0.831-0.391h-0l-19.75-0.066-0.169-0.794c-0.106-0.506-0.563-0.875-1.081-0.875h-4.828c-0.609 0-1.103 0.494-1.103 1.103s0.494 1.103 1.103 1.103v0h3.934l0.737 3.506 1.816 8.791-2.338 3.816c-0.134 0.179-0.215 0.405-0.215 0.65 0 0.182 0.045 0.354 0.124 0.506l-0.003-0.006c0.188 0.372 0.566 0.606 0.984 0.606h1.963c-0.402 0.529-0.644 1.199-0.644 1.925 0 0.001 0 0.002 0 0.003v-0c0 1.769 1.438 3.206 3.206 3.206s3.206-1.438 3.206-3.206c0-0.697-0.231-1.375-0.644-1.928h5.034c-0.402 0.529-0.644 1.199-0.644 1.925 0 0.001 0 0.002 0 0.003v-0c0 1.769 1.438 3.206 3.206 3.206s3.206-1.438 3.206-3.206c0-0.697-0.231-1.375-0.644-1.928h3.541c0.606 0 1.103-0.494 1.103-1.103-0.004-0.608-0.498-1.1-1.106-1.1h-0zM9.553 7.906l17.994 0.059-1.762 9.869-14.134 0.025-2.097-9.953zM12.581 27.053c-0.544 0-0.988-0.444-0.988-0.988s0.444-0.988 0.988-0.988 0.988 0.444 0.988 0.988c0 0.545-0.442 0.988-0.988 0.988v0zM22.741 27.053c-0.544 0-0.988-0.444-0.988-0.988s0.444-0.988 0.988-0.988 0.988 0.444 0.988 0.988c0 0.545-0.442 0.988-0.988 0.988v0z"/>
</svg>
