<svg version="1.1" xmlns="http://www.w3.org/2000/svg" width="32" height="32" viewBox="0 0 32 32">
<path fill="currentColor" d="M27.563 8.503v-4.003c0-0.553-0.447-1-1-1h-21.125c-0.553 0-1 0.447-1 1v4.003c-0.522 0.031-0.938 0.466-0.938 0.997v4.116c0 0.004-0 0.009-0 0.015 0 0.79 0.166 1.541 0.464 2.221l-0.014-0.036c0.134 0.319 0.3 0.619 0.487 0.903v10.781c0 0.55 0.447 1 1 1h21.125c0.553 0 1-0.447 1-1v-10.781c0.176-0.259 0.339-0.556 0.474-0.868l0.014-0.035c0.297-0.697 0.45-1.438 0.45-2.2v-4.116c0-0.531-0.416-0.966-0.938-0.997zM6.688 5.75h18.625v2.75h-18.625v-2.75zM18 26.253h-4v-3.253h4v3.253zM25.313 26.253h-5.313v-4.253c0-0.553-0.447-1-1-1h-6c-0.553 0-1 0.447-1 1v4.253h-5.313v-7.569c0.091 0.044 0.184 0.087 0.281 0.125 0.697 0.294 1.438 0.441 2.2 0.441s1.5-0.147 2.2-0.441c0.431-0.181 0.838-0.413 1.209-0.691 0.006-0.003 0.012-0.003 0.019 0 0.35 0.264 0.748 0.496 1.172 0.677l0.037 0.014c0.697 0.294 1.438 0.441 2.2 0.441s1.5-0.147 2.2-0.441c0.431-0.181 0.837-0.413 1.209-0.691 0.006-0.003 0.012-0.003 0.019 0 0.35 0.264 0.748 0.496 1.172 0.677l0.037 0.014c0.697 0.294 1.438 0.441 2.2 0.441s1.5-0.147 2.2-0.441c0.094-0.041 0.188-0.081 0.281-0.125v7.569zM26.25 13.616c0 1.869-1.531 3.384-3.416 3.384-1.275 0-2.387-0.691-2.975-1.716-0.091-0.156-0.253-0.253-0.434-0.253h-0.019c-0.178 0-0.344 0.097-0.434 0.253-0.6 1.032-1.701 1.716-2.961 1.716-0.004 0-0.007 0-0.011-0h0.001c-1.272 0-2.381-0.688-2.969-1.709-0.094-0.159-0.262-0.259-0.447-0.259s-0.356 0.1-0.447 0.259c-0.604 1.029-1.705 1.709-2.965 1.709-0.002 0-0.005 0-0.007 0h0c-1.884 0-3.416-1.516-3.416-3.384v-2.85c0-0.009 0.006-0.016 0.016-0.016h20.469c0.009 0 0.016 0.006 0.016 0.016v2.85z"/>
</svg>
