<svg version="1.1" xmlns="http://www.w3.org/2000/svg" width="32" height="32" viewBox="0 0 32 32">
<path fill="currentColor" d="M4.554 23.5c0.062 0 0.125-0.006 0.187-0.016l5.256-0.922c0.062-0.012 0.121-0.041 0.165-0.087l13.247-13.246c0.056-0.056 0.091-0.134 0.091-0.22s-0.035-0.163-0.091-0.22v0l-5.194-5.199c-0.059-0.059-0.137-0.090-0.221-0.090s-0.162 0.031-0.221 0.090l-13.247 13.246c-0.047 0.047-0.075 0.103-0.087 0.165l-0.922 5.255c-0.059 0.346 0.047 0.685 0.293 0.931 0.206 0.203 0.467 0.312 0.745 0.312zM6.17 20.83l0.489-2.779 11.334-11.333 2.29 2.29-11.334 11.333zM18.713 17.748c0.865-0.463 1.79-0.652 2.673-0.485 1.011 0.191 1.866 0.829 2.468 1.856 0.937 1.6 0.676 3.198-0.578 4.508-0.549 0.574-1.283 1.094-2.187 1.572l-0.009 0.005 0.026 0.008c0.411 0.124 0.846 0.191 1.298 0.194l0.037 0c1.908 0 3.156-0.691 3.915-2.121 0.291-0.549 0.972-0.757 1.521-0.466s0.757 0.972 0.466 1.521c-1.165 2.194-3.19 3.316-5.902 3.316-1.49 0-2.873-0.47-4.006-1.293l-0.033-0.024-0.043 0.015c-1.443 0.5-3.085 0.936-4.855 1.31l-0.070 0.015c-1.518 0.319-3.039 0.574-4.349 0.749-0.616 0.082-1.182-0.351-1.264-0.967s0.351-1.182 0.967-1.264c1.256-0.167 2.723-0.413 4.182-0.72 1.337-0.281 2.594-0.598 3.73-0.948l0.007-0.002-0.014-0.022c-0.515-0.827-0.808-1.732-0.817-2.601l-0-0.041c0-1.56 1.236-3.26 2.835-4.115zM20.969 19.474c-0.336-0.063-0.753 0.022-1.195 0.258-0.923 0.494-1.647 1.489-1.647 2.131 0 0.569 0.278 1.255 0.772 1.867l0.007 0.009 0.038-0.016c1.224-0.518 2.14-1.071 2.685-1.631l0.020-0.021c0.585-0.612 0.668-1.12 0.261-1.816-0.283-0.484-0.595-0.716-0.943-0.782z"/>
</svg>
