<svg version="1.1" xmlns="http://www.w3.org/2000/svg" width="32" height="32" viewBox="0 0 32 32">
<path fill="currentColor" d="M21 13.5c-3.759 0-6.872 2.766-7.416 6.375h-3.584c-0.484 0-0.875-0.391-0.875-0.875v-11.375h9.094c0.444 1.1 1.522 1.875 2.781 1.875 1.656 0 3-1.344 3-3s-1.344-3-3-3c-1.259 0-2.337 0.775-2.781 1.875h-14.719v2.25h3.375v11.375c0 1.725 1.4 3.125 3.125 3.125h3.584c0.544 3.609 3.656 6.375 7.416 6.375 4.141 0 7.5-3.359 7.5-7.5s-3.359-7.5-7.5-7.5zM25 21.813c0 0.137-0.113 0.25-0.25 0.25h-2.688v2.688c0 0.137-0.113 0.25-0.25 0.25h-1.625c-0.137 0-0.25-0.113-0.25-0.25v-2.688h-2.688c-0.137 0-0.25-0.113-0.25-0.25v-1.625c0-0.137 0.113-0.25 0.25-0.25h2.688v-2.688c0-0.137 0.113-0.25 0.25-0.25h1.625c0.137 0 0.25 0.113 0.25 0.25v2.688h2.688c0.137 0 0.25 0.113 0.25 0.25v1.625z"/>
</svg>
