<svg version="1.1" xmlns="http://www.w3.org/2000/svg" width="32" height="32" viewBox="0 0 32 32">
<path fill="currentColor" d="M28.925 12.659l-6.344-7.928c-0.037-0.046-0.093-0.075-0.156-0.075h-12.85c-0.059 0-0.119 0.028-0.156 0.075l-6.344 7.928c-0.027 0.034-0.044 0.078-0.044 0.126 0 0.051 0.019 0.098 0.050 0.134l-0-0 12.769 14.359c0.037 0.044 0.094 0.066 0.15 0.066s0.109-0.025 0.15-0.066l12.769-14.359c0.031-0.036 0.050-0.082 0.050-0.133 0-0.048-0.016-0.092-0.044-0.126l0 0zM20.163 6.45l1.075 4.184-4.141-4.184h3.066zM20.419 12.028h-8.838l4.419-4.466 4.419 4.466zM11.838 6.45h3.066l-4.144 4.184 1.078-4.184zM10.169 6.669l-1.378 5.359h-2.909l4.288-5.359zM6.081 13.591h2.95l3.931 7.741-6.881-7.741zM16 23.856l-5.216-10.266h10.428l-5.213 10.266zM19.034 21.331l3.934-7.741h2.95l-6.884 7.741zM23.209 12.028l-1.378-5.359 4.287 5.359h-2.909z"/>
</svg>
