<svg version="1.1" xmlns="http://www.w3.org/2000/svg" width="32" height="32" viewBox="0 0 32 32">
<path fill="currentColor" d="M27.188 3.938h-6.444c-0.544 0-1.028 0.372-1.156 0.916-0.391 1.65-1.869 2.834-3.588 2.834s-3.197-1.184-3.588-2.834c-0.127-0.529-0.595-0.916-1.154-0.916-0.001 0-0.001 0-0.002 0h-6.444c-0.759 0-1.375 0.616-1.375 1.375v0 7.875c0 0.759 0.616 1.375 1.375 1.375v0h2.344v12.125c0 0.759 0.616 1.375 1.375 1.375v0h14.938c0.759 0 1.375-0.616 1.375-1.375v0-12.125h2.344c0.759 0 1.375-0.616 1.375-1.375v0-7.875c0-0.759-0.616-1.375-1.375-1.375v0zM26.313 12.313h-3.719v13.5h-13.188v-13.5h-3.719v-6.125h4.791c0.881 2.225 3.047 3.75 5.522 3.75s4.641-1.525 5.522-3.75h4.791v6.125z"/>
</svg>
