<svg version="1.1" xmlns="http://www.w3.org/2000/svg" width="32" height="32" viewBox="0 0 32 32">
<path fill="currentColor" d="M27.616 18.081c0.128-0.703 0.197-1.422 0.197-2.141 0-1.594-0.313-3.141-0.928-4.594-0.594-1.406-1.447-2.669-2.531-3.753-1.048-1.051-2.294-1.904-3.677-2.499l-0.076-0.029c-1.456-0.616-3-0.928-4.594-0.928-0.75 0-1.503 0.072-2.234 0.213-0.951-0.514-2.082-0.817-3.284-0.819h-0.001c-1.866 0-3.622 0.728-4.941 2.047-1.264 1.258-2.047 3-2.047 4.924 0 0.006 0 0.012 0 0.018v-0.001c0 1.188 0.306 2.356 0.878 3.387-0.116 0.669-0.178 1.353-0.178 2.034 0 1.594 0.313 3.141 0.928 4.594 0.594 1.406 1.444 2.669 2.528 3.753s2.347 1.934 3.753 2.528c1.456 0.616 3 0.928 4.594 0.928 0.694 0 1.387-0.063 2.069-0.184 1.047 0.591 2.228 0.906 3.438 0.906 1.866 0 3.622-0.725 4.941-2.047 1.322-1.319 2.047-3.075 2.047-4.941 0.003-1.188-0.303-2.359-0.881-3.397zM24.863 24.831c-0.897 0.9-2.081 1.387-3.35 1.387-0.816 0-1.619-0.212-2.331-0.616l-0.703-0.397-0.797 0.141c-0.556 0.1-1.119 0.15-1.675 0.15-1.294 0-2.541-0.253-3.722-0.753-1.134-0.478-2.156-1.166-3.037-2.047-0.85-0.848-1.541-1.855-2.023-2.973l-0.024-0.062c-0.5-1.178-0.75-2.425-0.75-3.719 0-0.544 0.050-1.1 0.144-1.65l0.138-0.784-0.388-0.697c-0.375-0.661-0.596-1.451-0.597-2.294v-0c0-1.269 0.491-2.453 1.388-3.35 0.9-0.897 2.084-1.388 3.353-1.388 0.817 0.002 1.585 0.209 2.257 0.572l-0.025-0.013 0.7 0.369 0.775-0.15c0.591-0.112 1.2-0.172 1.813-0.172 1.294 0 2.541 0.253 3.719 0.75 1.141 0.481 2.159 1.169 3.038 2.047 0.881 0.878 1.569 1.9 2.050 3.037 0.5 1.178 0.75 2.425 0.75 3.719 0 0.575-0.053 1.156-0.159 1.734l-0.147 0.797 0.394 0.706c0.394 0.703 0.6 1.5 0.6 2.303 0 1.272-0.491 2.453-1.387 3.35zM18.231 14.569l-2.762-0.613c-1.050-0.241-2.259-0.556-2.259-1.547s0.847-1.684 2.378-1.684c3.084 0 2.803 2.119 4.334 2.119 0.806 0 1.512-0.475 1.512-1.287 0-1.9-3.044-3.328-5.625-3.328-2.803 0-5.787 1.191-5.787 4.359 0 1.525 0.544 3.15 3.55 3.903l3.731 0.931c1.128 0.278 1.413 0.913 1.413 1.488 0 0.953-0.947 1.884-2.663 1.884-3.35 0-2.884-2.578-4.678-2.578-0.806 0-1.391 0.556-1.391 1.347 0 1.544 1.875 3.606 6.069 3.606 3.991 0 5.969-1.922 5.969-4.5 0-1.659-0.766-3.425-3.791-4.1z"/>
</svg>
