<svg version="1.1" xmlns="http://www.w3.org/2000/svg" width="32" height="32" viewBox="0 0 32 32">
<path fill="currentColor" d="M12.794 4c-1.325 0-2.397 1.075-2.397 2.4 0 0.634 0.253 1.247 0.7 1.697 0.45 0.45 1.059 0.703 1.697 0.703h2.397v-2.4c0-1.322-1.072-2.397-2.397-2.4zM12.794 10.4h-6.397c-1.325 0-2.397 1.075-2.397 2.4s1.075 2.4 2.397 2.4h6.394c1.325 0 2.397-1.075 2.397-2.4 0.003-1.325-1.072-2.4-2.394-2.4zM19.188 15.2c1.325 0 2.4-1.075 2.397-2.4v-6.4c0-1.325-1.072-2.4-2.397-2.4s-2.397 1.075-2.397 2.4v6.4c0 1.328 1.072 2.4 2.397 2.4zM27.981 12.8c0-1.325-1.075-2.4-2.397-2.4s-2.397 1.075-2.397 2.4v2.4h2.397c1.322 0 2.397-1.075 2.397-2.4zM25.581 16.8h-6.394c-1.325 0-2.397 1.075-2.397 2.4 0 0.634 0.253 1.247 0.7 1.697 0.45 0.45 1.059 0.703 1.697 0.703h6.394c1.325 0 2.397-1.075 2.397-2.4 0.003-1.325-1.072-2.397-2.397-2.4zM19.188 23.2h-2.397v2.4c0 1.325 1.075 2.4 2.397 2.4 1.325 0 2.4-1.075 2.397-2.4 0.003-1.325-1.072-2.397-2.397-2.4zM12.794 16.8c-1.325 0-2.397 1.075-2.397 2.4v6.4c0 1.325 1.075 2.4 2.397 2.4 1.325 0 2.4-1.075 2.397-2.4v-6.4c0-0.634-0.253-1.247-0.7-1.697-0.45-0.45-1.063-0.703-1.697-0.703zM4 19.2c0 0.634 0.253 1.247 0.7 1.697 0.45 0.45 1.059 0.703 1.697 0.703 1.325 0 2.4-1.075 2.397-2.4v-2.4h-2.397c-1.322 0-2.397 1.075-2.397 2.4z"/>
</svg>
