<svg version="1.1" xmlns="http://www.w3.org/2000/svg" width="32" height="32" viewBox="0 0 32 32">
<path fill="currentColor" d="M21.5 8.25c0-0.137-0.113-0.25-0.25-0.25h-12c-0.137 0-0.25 0.113-0.25 0.25v1.5c0 0.137 0.113 0.25 0.25 0.25h12c0.137 0 0.25-0.113 0.25-0.25v-1.5zM21.25 12.5h-12c-0.137 0-0.25 0.113-0.25 0.25v1.5c0 0.137 0.113 0.25 0.25 0.25h12c0.137 0 0.25-0.113 0.25-0.25v-1.5c0-0.137-0.113-0.25-0.25-0.25zM15 17h-5.75c-0.137 0-0.25 0.113-0.25 0.25v1.5c0 0.137 0.113 0.25 0.25 0.25h5.75c0.137 0 0.25-0.113 0.25-0.25v-1.5c0-0.137-0.113-0.25-0.25-0.25zM13.5 26.625h-7v-22h17.5v10.75c0 0.137 0.113 0.25 0.25 0.25h1.75c0.137 0 0.25-0.113 0.25-0.25v-12c0-0.553-0.447-1-1-1h-20c-0.553 0-1 0.447-1 1v24.5c0 0.553 0.447 1 1 1h8.25c0.137 0 0.25-0.113 0.25-0.25v-1.75c0-0.137-0.113-0.25-0.25-0.25zM24.65 24.3c0.906-0.822 1.475-2.009 1.475-3.331 0-2.484-2.016-4.5-4.5-4.5s-4.5 2.016-4.5 4.5c0 1.322 0.569 2.509 1.475 3.331-1.781 1.016-3.006 2.897-3.1 5.066-0.006 0.141 0.109 0.259 0.25 0.259h1.503c0.131 0 0.241-0.103 0.25-0.238 0.122-2.163 1.925-3.887 4.122-3.887s4 1.725 4.122 3.887c0.006 0.131 0.116 0.238 0.25 0.238h1.503c0.144 0 0.256-0.119 0.25-0.259-0.091-2.172-1.319-4.050-3.1-5.066zM21.625 18.469c1.381 0 2.5 1.119 2.5 2.5s-1.119 2.5-2.5 2.5-2.5-1.119-2.5-2.5 1.119-2.5 2.5-2.5z"/>
</svg>
