<svg version="1.1" xmlns="http://www.w3.org/2000/svg" width="32" height="32" viewBox="0 0 32 32">
<path fill="currentColor" d="M26.238 13.556l-2.831-8.853c-0.038-0.119-0.147-0.203-0.276-0.203-0.001 0-0.002 0-0.003 0h-2.419c-0.128 0-0.238 0.081-0.278 0.203l-2.853 8.853c-0.009 0.028-0.016 0.059-0.016 0.091 0 0.159 0.131 0.291 0.291 0.291h1.762c0.131 0 0.244-0.088 0.281-0.213l0.547-1.925h2.781l0.541 1.922c0.034 0.125 0.15 0.213 0.281 0.213h1.913c0.031 0 0.059-0.003 0.087-0.012 0.075-0.025 0.134-0.075 0.172-0.144 0.034-0.069 0.041-0.147 0.019-0.222zM20.728 10.172l1.025-3.653h0.197l1.003 3.653h-2.225zM25.212 25.575h-4.050v-0.012l4.144-5.903c0.034-0.050 0.053-0.106 0.053-0.169v-1.137c0-0.159-0.131-0.291-0.291-0.291h-6.375c-0.159 0-0.291 0.131-0.291 0.291v1.344c0 0.159 0.131 0.291 0.291 0.291h3.831v0.012l-4.159 5.903c-0.033 0.047-0.053 0.105-0.053 0.168 0 0 0 0.001 0 0.001v-0 1.137c0 0.159 0.131 0.291 0.291 0.291h6.606c0.159 0 0.291-0.131 0.291-0.291v-1.344c0-0.001 0-0.002 0-0.003 0-0.159-0.129-0.288-0.288-0.288 0 0 0 0-0 0v0zM13 21.938h-2.375v-16.563c0-0.138-0.113-0.25-0.25-0.25h-1.75c-0.137 0-0.25 0.112-0.25 0.25v16.563h-2.375c-0.209 0-0.328 0.244-0.197 0.406l3.5 4.434c0.046 0.059 0.117 0.096 0.197 0.096s0.151-0.037 0.196-0.095l0-0.001 3.5-4.434c0.128-0.163 0.012-0.406-0.197-0.406z"/>
</svg>
