<svg version="1.1" xmlns="http://www.w3.org/2000/svg" width="32" height="32" viewBox="0 0 32 32">
<path fill="currentColor" d="M16 2c-7.734 0-14 6.266-14 14s6.266 14 14 14 14-6.266 14-14-6.266-14-14-14zM16 4.333c0.014-0 0.030-0 0.046-0 3.209 0 6.114 1.301 8.217 3.404v0c2.103 2.103 3.404 5.008 3.404 8.217 0 0.016-0 0.033-0 0.049v-0.003c0 0.014 0 0.030 0 0.046 0 3.209-1.301 6.114-3.404 8.217v0c-2.103 2.103-5.008 3.404-8.217 3.404-0.016 0-0.033-0-0.049-0h0.003c-0.014 0-0.030 0-0.046 0-3.209 0-6.114-1.301-8.217-3.404v0c-2.103-2.103-3.404-5.008-3.404-8.217 0-0.016 0-0.033 0-0.049v0.003c-0-0.014-0-0.030-0-0.046 0-3.209 1.301-6.114 3.404-8.217v0c2.103-2.103 5.008-3.404 8.217-3.404 0.016 0 0.033 0 0.049 0h-0.003zM14.14 9.875c-2.269 0-4.247 0.21-6.125 0.803-0.497 0.099-0.911 0.474-0.911 1.167 0 0.692 0.511 1.303 1.203 1.202 0.296 0 0.497-0.108 0.693-0.108 1.581-0.397 3.364-0.583 5.14-0.583 3.455 0 7 0.77 9.37 2.151 0.296 0.1 0.397 0.218 0.693 0.218 0.693 0 1.176-0.51 1.276-1.203 0-0.593-0.296-0.971-0.693-1.167-2.962-1.678-6.895-2.479-10.646-2.479zM13.813 14.214c-2.073 0-3.55 0.296-5.032 0.693-0.491 0.195-0.765 0.502-0.765 1.093 0 0.492 0.392 0.985 0.985 0.985 0.201 0 0.287-0.009 0.583-0.11 1.085-0.296 2.575-0.474 4.157-0.474 3.257 0 6.092 0.793 8.167 2.078 0.195 0.1 0.397 0.182 0.692 0.182 0.593 0 0.985-0.502 0.985-1.093 0-0.397-0.187-0.789-0.583-0.985-2.567-1.581-5.829-2.369-9.188-2.369zM14.14 18.479c-1.676 0-3.267 0.187-4.849 0.583-0.397 0.1-0.693 0.383-0.693 0.875 0 0.397 0.31 0.803 0.803 0.803 0.1 0 0.387-0.11 0.583-0.11 1.214-0.296 2.609-0.468 4.043-0.475l0.004-0c2.465 0 4.72 0.593 6.599 1.678 0.201 0.1 0.424 0.182 0.619 0.182 0.397 0 0.775-0.296 0.875-0.692 0-0.497-0.215-0.68-0.511-0.875-2.174-1.286-4.712-1.969-7.474-1.969z"/>
</svg>
