<svg version="1.1" xmlns="http://www.w3.org/2000/svg" width="32" height="32" viewBox="0 0 32 32">
<path fill="currentColor" d="M28.25 23.344h-24.5c-0.138 0-0.25 0.113-0.25 0.25v1.75c0 0.137 0.112 0.25 0.25 0.25h24.5c0.137 0 0.25-0.113 0.25-0.25v-1.75c0-0.137-0.113-0.25-0.25-0.25zM5.178 19.431l1.241 1.234c0.097 0.097 0.256 0.097 0.353 0l7.334-7.309 3.050 3.041c0.181 0.18 0.431 0.291 0.706 0.291s0.525-0.111 0.706-0.291l-0 0 8.256-8.225c0.097-0.097 0.097-0.256 0-0.353l-1.241-1.237c-0.045-0.045-0.108-0.073-0.177-0.073s-0.131 0.028-0.177 0.073l0-0-7.366 7.344-3.053-3.041c-0.181-0.18-0.431-0.291-0.706-0.291s-0.525 0.111-0.706 0.291l0-0-8.222 8.194c-0.046 0.045-0.074 0.108-0.074 0.177s0.028 0.132 0.074 0.177l0 0z"/>
</svg>
