<svg version="1.1" xmlns="http://www.w3.org/2000/svg" width="32" height="32" viewBox="0 0 32 32">
<path fill="currentColor" d="M29.75 14.813h-11.941c-0.313-0.063-0.641-0.125-0.988-0.188-0.497-0.091-0.694-0.128-0.963-0.181-1.603-0.313-2.569-0.625-3.338-1.069-1.097-0.641-1.631-1.509-1.631-2.659 0-1.156 0.475-2.116 1.375-2.781 0.887-0.656 2.15-1.003 3.65-1.003 1.712 0 3.034 0.45 3.931 1.337 0.456 0.45 0.791 1.003 0.994 1.644 0.041 0.128 0.087 0.313 0.134 0.556 0.028 0.15 0.163 0.256 0.309 0.256h2.275c0.175 0 0.316-0.144 0.316-0.316v-0.031c-0.022-0.213-0.041-0.378-0.063-0.5-0.228-1.359-0.875-2.553-1.866-3.447-1.387-1.266-3.428-1.931-5.897-1.931-2.259 0-4.294 0.566-5.728 1.591-0.8 0.575-1.419 1.288-1.831 2.116-0.422 0.847-0.634 1.825-0.634 2.903 0 0.922 0.178 1.703 0.541 2.391 0.259 0.491 0.613 0.922 1.066 1.313h-7.213c-0.138 0-0.25 0.113-0.25 0.25v1.875c0 0.137 0.112 0.25 0.25 0.25h13.537c0.066 0.012 0.122 0.025 0.184 0.038 0.966 0.194 1.547 0.325 2.081 0.475 0.719 0.203 1.269 0.416 1.725 0.672 1.119 0.631 1.666 1.538 1.666 2.781 0 1.103-0.484 2.087-1.363 2.775-0.953 0.747-2.363 1.137-4.078 1.137-1.366 0-2.522-0.266-3.444-0.781-0.909-0.509-1.534-1.244-1.866-2.172-0.025-0.069-0.053-0.163-0.084-0.281-0.037-0.137-0.166-0.234-0.303-0.234h-2.491c-0.175 0-0.316 0.144-0.316 0.316v0.031c0.006 0.072 0.013 0.131 0.019 0.178 0.203 1.525 0.947 2.775 2.209 3.712 1.472 1.087 3.544 1.663 5.994 1.663 2.631 0 4.838-0.619 6.381-1.791 0.781-0.591 1.381-1.319 1.784-2.156 0.406-0.847 0.616-1.809 0.616-2.859 0-0.994-0.181-1.825-0.556-2.544-0.181-0.35-0.409-0.672-0.681-0.962h6.484c0.137 0 0.25-0.113 0.25-0.25v-1.875c-0.002-0.137-0.113-0.247-0.25-0.247 0 0 0 0-0 0v0z"/>
</svg>
