<svg version="1.1" xmlns="http://www.w3.org/2000/svg" width="32" height="32" viewBox="0 0 32 32">
<path fill="currentColor" d="M21.5 7.5c-4.313 0-7.875 3.213-8.425 7.375h-5.294c-0.444-1.1-1.522-1.875-2.781-1.875-1.656 0-3 1.344-3 3s1.344 3 3 3c1.259 0 2.337-0.775 2.781-1.875h5.291c0.553 4.163 4.116 7.375 8.428 7.375 4.694 0 8.5-3.806 8.5-8.5s-3.806-8.5-8.5-8.5zM25.5 16.813c0 0.137-0.113 0.25-0.25 0.25h-2.688v2.688c0 0.137-0.113 0.25-0.25 0.25h-1.625c-0.137 0-0.25-0.113-0.25-0.25v-2.688h-2.688c-0.137 0-0.25-0.113-0.25-0.25v-1.625c0-0.137 0.113-0.25 0.25-0.25h2.688v-2.688c0-0.137 0.113-0.25 0.25-0.25h1.625c0.137 0 0.25 0.113 0.25 0.25v2.688h2.688c0.137 0 0.25 0.113 0.25 0.25v1.625z"/>
</svg>
