<svg version="1.1" xmlns="http://www.w3.org/2000/svg" width="32" height="32" viewBox="0 0 32 32">
<path fill="currentColor" d="M17.125 25.563v3.938c0 0.276-0.224 0.5-0.5 0.5h-1.25c-0.276 0-0.5-0.224-0.5-0.5v-3.938c0.495 0.051 0.87 0.077 1.125 0.077s0.63-0.026 1.125-0.077zM23.539 21.948l2.784 2.784c0.195 0.195 0.195 0.512 0 0.707l-0.884 0.884c-0.195 0.195-0.512 0.195-0.707 0l-2.784-2.784c0.386-0.314 0.67-0.561 0.85-0.741s0.427-0.464 0.741-0.85zM8.461 21.948c0.314 0.386 0.561 0.67 0.741 0.85s0.464 0.427 0.85 0.741l-2.784 2.784c-0.195 0.195-0.512 0.195-0.707 0l-0.884-0.884c-0.195-0.195-0.195-0.512 0-0.707zM16 8.688c4.039 0 7.313 3.274 7.313 7.313s-3.274 7.313-7.313 7.313-7.313-3.274-7.313-7.313 3.274-7.313 7.313-7.313zM16 10.938c-2.796 0-5.063 2.267-5.063 5.063s2.267 5.063 5.063 5.063 5.063-2.267 5.063-5.063-2.267-5.063-5.063-5.063zM6.438 14.875c-0.051 0.495-0.077 0.87-0.077 1.125s0.026 0.63 0.077 1.125h-3.938c-0.276 0-0.5-0.224-0.5-0.5v-1.25c0-0.276 0.224-0.5 0.5-0.5zM29.5 14.875c0.276 0 0.5 0.224 0.5 0.5v1.25c0 0.276-0.224 0.5-0.5 0.5h-3.938c0.051-0.495 0.077-0.87 0.077-1.125s-0.026-0.63-0.077-1.125zM25.439 5.645l0.884 0.884c0.195 0.195 0.195 0.512 0 0.707l-2.784 2.784c-0.314-0.386-0.561-0.67-0.741-0.85s-0.464-0.427-0.85-0.741l2.784-2.784c0.195-0.195 0.512-0.195 0.707 0zM7.268 5.645l2.784 2.784c-0.386 0.314-0.67 0.561-0.85 0.741s-0.427 0.464-0.741 0.85l-2.784-2.784c-0.195-0.195-0.195-0.512 0-0.707l0.884-0.884c0.195-0.195 0.512-0.195 0.707 0zM16.625 2c0.276 0 0.5 0.224 0.5 0.5v3.938c-0.495-0.051-0.87-0.077-1.125-0.077s-0.63 0.026-1.125 0.077v-3.938c0-0.276 0.224-0.5 0.5-0.5z"/>
</svg>
