<svg version="1.1" xmlns="http://www.w3.org/2000/svg" width="32" height="32" viewBox="0 0 32 32">
<path fill="currentColor" d="M26.497 18.5h-21.747c-0.138 0-0.25 0.113-0.25 0.25v1.875c0 0.137 0.112 0.25 0.25 0.25h18.913l-4.509 5.719c-0.128 0.163-0.012 0.406 0.197 0.406h2.266c0.153 0 0.297-0.069 0.394-0.191l5.275-6.691c0.516-0.656 0.050-1.619-0.788-1.619zM27.25 11.125h-18.913l4.509-5.719c0.128-0.162 0.012-0.406-0.197-0.406h-2.266c-0.153 0-0.297 0.069-0.394 0.191l-5.275 6.691c-0.516 0.656-0.050 1.619 0.784 1.619h21.75c0.137 0 0.25-0.113 0.25-0.25v-1.875c0-0.137-0.113-0.25-0.25-0.25z"/>
</svg>
