<svg version="1.1" xmlns="http://www.w3.org/2000/svg" width="32" height="32" viewBox="0 0 32 32">
<path fill="currentColor" d="M5.25 15.756c0.031-1.366 0.313-2.691 0.841-3.938 0.541-1.281 1.316-2.428 2.303-3.419s2.137-1.766 3.419-2.306c1.325-0.559 2.731-0.844 4.184-0.844s2.859 0.284 4.181 0.844c1.328 0.569 2.462 1.348 3.415 2.306l0 0.001c0.309 0.309 0.6 0.637 0.869 0.981l-1.881 1.469c-0.059 0.046-0.097 0.118-0.097 0.198 0 0.117 0.080 0.215 0.189 0.243l0.002 0 5.491 1.344c0.156 0.037 0.309-0.081 0.309-0.241l0.025-5.653c0-0.209-0.241-0.328-0.403-0.197l-1.762 1.378c-2.403-3.075-6.141-5.047-10.341-5.047-7.159 0-12.984 5.737-13.119 12.869-0 0.002-0 0.004-0 0.006 0 0.138 0.112 0.25 0.25 0.25 0 0 0 0 0 0h1.875c0.138 0 0.247-0.109 0.25-0.244zM28.875 16h-1.875c-0.137 0-0.247 0.109-0.25 0.244-0.031 1.366-0.313 2.691-0.841 3.938-0.541 1.281-1.316 2.431-2.303 3.419-1.938 1.946-4.62 3.15-7.583 3.15-0.007 0-0.014 0-0.022-0h0.001c-0.006 0-0.013 0-0.020 0-2.962 0-5.643-1.204-7.58-3.15l-0-0c-0.309-0.309-0.6-0.637-0.869-0.981l1.881-1.469c0.059-0.046 0.097-0.118 0.097-0.198 0-0.117-0.080-0.215-0.189-0.243l-0.002-0-5.491-1.344c-0.156-0.038-0.309 0.081-0.309 0.241l-0.022 5.656c0 0.209 0.241 0.328 0.403 0.197l1.762-1.378c2.403 3.072 6.141 5.044 10.341 5.044 7.163 0 12.984-5.741 13.119-12.869 0-0.002 0-0.004 0-0.006 0-0.138-0.112-0.25-0.25-0.25-0 0-0 0-0 0v0z"/>
</svg>
