<svg version="1.1" xmlns="http://www.w3.org/2000/svg" width="32" height="32" viewBox="0 0 32 32">
<path fill="currentColor" d="M29 5h-26c-0.553 0-1 0.447-1 1v20c0 0.553 0.447 1 1 1h26c0.553 0 1-0.447 1-1v-20c0-0.553-0.447-1-1-1zM27.75 11.5h-6.625v-4.25h6.625v4.25zM27.75 18.5h-6.625v-5h6.625v5zM12.875 13.5h6.25v5h-6.25v-5zM19.125 11.5h-6.25v-4.25h6.25v4.25zM4.25 13.5h6.625v5h-6.625v-5zM4.25 7.25h6.625v4.25h-6.625v-4.25zM4.25 20.5h6.625v4.25h-6.625v-4.25zM12.875 20.5h6.25v4.25h-6.25v-4.25zM27.75 24.75h-6.625v-4.25h6.625v4.25z"/>
</svg>
