<svg version="1.1" xmlns="http://www.w3.org/2000/svg" width="32" height="32" viewBox="0 0 32 32">
<path fill="currentColor" d="M15.1 24.697l11.819-11.822c0.053-0.053 0.078-0.125 0.072-0.197l-0.797-9.419c-0.022-0.244-0.212-0.434-0.456-0.456l-9.419-0.794c-0.072-0.006-0.147 0.019-0.197 0.072l-11.819 11.819c-0.045 0.045-0.073 0.108-0.073 0.177s0.028 0.131 0.073 0.177l10.444 10.444c0.097 0.1 0.256 0.1 0.353 0zM17.056 4.331l7.019 0.594 0.594 7.019-9.747 9.744-7.612-7.609 9.747-9.747zM18.936 10.151c0.271 0.271 0.646 0.439 1.061 0.439 0.828 0 1.5-0.672 1.5-1.5 0-0.414-0.168-0.789-0.439-1.061v0c-0.271-0.271-0.646-0.439-1.061-0.439-0.828 0-1.5 0.672-1.5 1.5 0 0.414 0.168 0.789 0.439 1.061v0zM27.803 16.869l-1.238-1.234c-0.045-0.045-0.108-0.073-0.177-0.073s-0.131 0.028-0.177 0.073l0-0-11.313 11.291-7.425-7.406c-0.045-0.045-0.108-0.073-0.177-0.073s-0.131 0.028-0.177 0.073l0-0-1.237 1.234c-0.045 0.045-0.073 0.108-0.073 0.177s0.028 0.131 0.073 0.177l-0-0 8.837 8.822c0.097 0.097 0.256 0.097 0.353 0l12.728-12.706c0.097-0.097 0.097-0.256 0-0.353z"/>
</svg>
