<svg version="1.1" xmlns="http://www.w3.org/2000/svg" width="32" height="32" viewBox="0 0 32 32">
<path fill="currentColor" d="M5.266 8.553c0 1.186 0.961 2.147 2.147 2.147s2.147-0.961 2.147-2.147v0c0-1.186-0.961-2.147-2.147-2.147s-2.147 0.961-2.147 2.147v0zM28.078 11.028s-0.741-5.763-13.341-2.191c0.541-0.938 0.8-1.547 0.8-1.547l-3.15-0.884s-1.269 4.144-3.531 6.075c0 0 2.191 1.269 2.169 1.231 0.628-0.628 1.194-1.269 1.678-1.887 0.503-0.219 0.984-0.425 1.459-0.619-0.581 1.047-1.522 2.619-2.463 3.612l1.325 1.156s0.9-0.866 1.887-1.912h1.125v1.931h-4.384v1.547h4.384v3.703c-0.053 0-0.113 0-0.169-0.006-0.481-0.022-1.234-0.103-1.531-0.569-0.359-0.566-0.094-1.609-0.075-2.247h-3.031l-0.106 0.056s-1.109 4.972 3.197 4.859c4.034 0.113 6.344-1.125 7.456-1.972l0.444 1.644 2.488-1.038-1.684-4.122-2.019 0.628 0.378 1.413c-0.519 0.387-1.113 0.678-1.756 0.887v-3.238h4.284v-1.547h-4.284v-1.931h4.3v-1.547h-7.637c0.55-0.669 0.984-1.284 1.094-1.675l-1.328-0.363c5.712-2.047 8.891-1.694 8.863 1.662v8.837s0.337 3.034-3.137 2.816l-1.881-0.403-0.444 1.784s8.122 2.325 8.784-3.919c0.666-6.25-0.163-10.228-0.163-10.228zM5.972 11.6l-1.419 2.178 2.612 1.628s1.75 0.891 0.919 2.559c-0.778 1.581-4.584 5.044-4.584 5.044l3.406 2.128c2.356-5.116 2.203-4.438 2.797-6.272 0.609-1.878 0.741-3.309-0.294-4.347-1.325-1.331-1.469-1.456-3.438-2.919z"/>
</svg>
