<svg version="1.1" xmlns="http://www.w3.org/2000/svg" width="32" height="32" viewBox="0 0 32 32">
<path fill="currentColor" d="M16 2c-7.731 0-14 6.269-14 14s6.269 14 14 14 14-6.269 14-14-6.269-14-14-14zM9.866 9.109c0.853 0 1.547 0.691 1.547 1.544s-0.691 1.544-1.547 1.544c-0.853 0-1.544-0.691-1.544-1.544s0.691-1.544 1.544-1.544v0zM11.466 18.063c-0.425 1.322-0.319 0.834-2.012 4.516l-2.453-1.531s2.741-2.494 3.3-3.631c0.6-1.2-0.659-1.841-0.659-1.841l-1.881-1.172 1.022-1.569c1.419 1.053 1.522 1.144 2.475 2.1 0.744 0.747 0.647 1.775 0.209 3.128zM24.816 19.781c-0.478 4.494-6.325 2.822-6.325 2.822l0.319-1.284 1.353 0.291c2.5 0.156 2.259-2.028 2.259-2.028v-6.363c0.019-2.416-2.269-2.669-6.381-1.197l0.956 0.259c-0.078 0.281-0.391 0.725-0.788 1.206h5.5v1.113h-3.097v1.391h3.084v1.116h-3.084v2.331c0.466-0.15 0.894-0.359 1.266-0.641l-0.272-1.016 1.453-0.45 1.212 2.966-1.791 0.747-0.319-1.181c-0.8 0.609-2.462 1.5-5.369 1.419-3.1 0.081-2.303-3.5-2.303-3.5l0.078-0.041h2.181c-0.016 0.459-0.206 1.209 0.053 1.619 0.213 0.337 0.756 0.394 1.103 0.409 0.041 0.003 0.081 0.003 0.122 0.003v-2.666h-3.156v-1.116h3.156v-1.391h-0.809c-0.709 0.753-1.359 1.378-1.359 1.378l-0.956-0.834c0.678-0.716 1.353-1.847 1.775-2.6-0.341 0.137-0.688 0.287-1.050 0.444-0.35 0.447-0.756 0.906-1.209 1.359 0.016 0.025-1.563-0.887-1.563-0.887 1.631-1.387 2.544-4.372 2.544-4.372l2.266 0.637s-0.184 0.438-0.575 1.113c9.072-2.572 9.606 1.578 9.606 1.578s0.597 2.869 0.119 7.366z"/>
</svg>
