<svg version="1.1" xmlns="http://www.w3.org/2000/svg" width="32" height="32" viewBox="0 0 32 32">
<path fill="currentColor" d="M16.563 3.521c1.365-0.021 2.719-0.010 4.073-0.021 0.083 1.594 0.656 3.219 1.823 4.344 1.167 1.156 2.812 1.688 4.416 1.865v4.198c-1.5-0.052-3.010-0.365-4.375-1.010-0.594-0.271-1.146-0.615-1.687-0.969-0.010 3.042 0.010 6.083-0.021 9.114-0.083 1.458-0.563 2.906-1.406 4.104-1.365 2-3.729 3.302-6.156 3.344-1.489 0.083-2.979-0.323-4.25-1.073-2.104-1.24-3.583-3.51-3.802-5.948-0.021-0.521-0.031-1.042-0.010-1.552 0.188-1.979 1.167-3.875 2.687-5.167 1.729-1.5 4.146-2.219 6.406-1.792 0.021 1.542-0.042 3.083-0.042 4.625-1.031-0.333-2.239-0.24-3.146 0.385-0.656 0.427-1.156 1.083-1.417 1.823-0.219 0.531-0.156 1.115-0.146 1.677 0.25 1.708 1.896 3.146 3.646 2.99 1.167-0.010 2.281-0.688 2.885-1.677 0.198-0.344 0.417-0.698 0.427-1.104 0.104-1.865 0.063-3.719 0.073-5.583 0.010-4.198-0.010-8.385 0.021-12.573z"/>
</svg>
