<svg version="1.1" xmlns="http://www.w3.org/2000/svg" width="32" height="32" viewBox="0 0 32 32">
<path fill="currentColor" d="M16 2c-7.731 0-14 6.269-14 14s6.269 14 14 14 14-6.269 14-14-6.269-14-14-14zM16 27.625c-6.419 0-11.625-5.206-11.625-11.625s5.206-11.625 11.625-11.625 11.625 5.206 11.625 11.625-5.206 11.625-11.625 11.625zM18.734 17.166c1.087-0.4 2.45-1.531 2.45-3.725 0-2.225-1.422-4.097-4.506-4.097h-4.866c-0.137 0-0.25 0.113-0.25 0.25v12.813c0 0.137 0.113 0.25 0.25 0.25h1.703c0.137 0 0.25-0.113 0.25-0.25v-4.869h2.772l2.331 4.975c0.041 0.087 0.128 0.144 0.225 0.144h1.938c0.001 0 0.001 0 0.002 0 0.136 0 0.247-0.111 0.247-0.247 0-0.041-0.010-0.080-0.028-0.114l0.001 0.001-2.519-5.131zM16.313 15.781h-2.547v-4.625h2.606c1.5 0 2.528 0.791 2.528 2.359 0 1.466-0.931 2.266-2.587 2.266z"/>
</svg>
