<svg version="1.1" xmlns="http://www.w3.org/2000/svg" width="32" height="32" viewBox="0 0 32 32">
<path fill="currentColor" d="M20.894 10c0-0.137-0.113-0.25-0.25-0.25h-1.703c-0.094 0-0.181 0.053-0.222 0.137l-2.647 5.275h-0.103l-2.647-5.275c-0.042-0.082-0.125-0.137-0.222-0.137h-1.741c-0.041 0-0.081 0.009-0.119 0.031-0.122 0.066-0.166 0.219-0.1 0.338l3.247 5.987h-1.781c-0.137 0-0.25 0.113-0.25 0.25v0.847c0 0.137 0.113 0.25 0.25 0.25h2.375v1.219h-2.375c-0.137 0-0.25 0.113-0.25 0.25v0.847c0 0.137 0.113 0.25 0.25 0.25h2.375v1.981c0 0.137 0.113 0.25 0.25 0.25h1.559c0.137 0 0.25-0.113 0.25-0.25v-1.984h2.384c0.137 0 0.25-0.113 0.25-0.25v-0.847c0-0.137-0.113-0.25-0.25-0.25h-2.384v-1.219h2.384c0.137 0 0.25-0.113 0.25-0.25v-0.847c0-0.137-0.113-0.25-0.25-0.25h-1.8l3.241-5.988c0.016-0.034 0.028-0.075 0.028-0.116zM4.934 15.756c0.063-2.965 1.287-5.632 3.234-7.575l0-0c1.016-1.016 2.197-1.816 3.512-2.372 1.363-0.575 2.809-0.869 4.3-0.869 1.494 0 2.941 0.291 4.3 0.869 1.316 0.556 2.497 1.356 3.512 2.372 0.313 0.313 0.603 0.641 0.872 0.981l-1.563 1.222c-0.059 0.046-0.097 0.118-0.097 0.198 0 0.117 0.080 0.215 0.189 0.243l0.002 0 4.9 1.197c0.156 0.037 0.309-0.081 0.309-0.241l0.025-5.047c0-0.209-0.241-0.328-0.403-0.197l-1.494 1.169c-2.45-3.134-6.266-5.144-10.55-5.144-7.328 0-13.287 5.878-13.422 13.181-0 0.002-0 0.004-0 0.006 0 0.138 0.112 0.25 0.25 0.25 0 0 0 0 0 0h1.875c0.134 0 0.244-0.109 0.247-0.244zM29.188 16h-1.875c-0.134 0-0.247 0.109-0.25 0.244-0.063 2.965-1.287 5.632-3.234 7.575l-0 0c-0.981 0.985-2.147 1.785-3.441 2.344l-0.071 0.027c-1.363 0.575-2.809 0.869-4.3 0.869s-2.941-0.291-4.3-0.869c-1.366-0.587-2.531-1.387-3.512-2.372l-0-0c-0.313-0.313-0.603-0.641-0.872-0.981l1.559-1.222c0.059-0.046 0.097-0.118 0.097-0.198 0-0.117-0.080-0.215-0.189-0.243l-0.002-0-4.9-1.197c-0.156-0.038-0.309 0.081-0.309 0.241l-0.025 5.053c0 0.209 0.241 0.328 0.403 0.197l1.494-1.169c2.456 3.128 6.272 5.137 10.556 5.137 7.328 0 13.288-5.878 13.422-13.181 0-0.002 0-0.004 0-0.006 0-0.138-0.112-0.25-0.25-0.25-0 0-0 0-0 0v0z"/>
</svg>
