<svg version="1.1" xmlns="http://www.w3.org/2000/svg" width="32" height="32" viewBox="0 0 32 32">
<path fill="currentColor" d="M4.375 5.875h18.25v5.125h2.375v-6.5c0-0.553-0.447-1-1-1h-21c-0.553 0-1 0.447-1 1v23c0 0.553 0.447 1 1 1h17v-2.375h-15.625v-20.25z"/>
<path fill="currentColor" d="M12.947 8h-1.894c-0.106 0-0.2 0.069-0.238 0.169l-3.972 11.5c-0.009 0.025-0.013 0.053-0.013 0.081 0 0.137 0.112 0.25 0.25 0.25h1.722c0.106 0 0.2-0.069 0.238-0.169l1.022-2.956h6.131l-3.006-8.706c-0.041-0.1-0.134-0.169-0.241-0.169zM13.334 15.125h-2.672l1.338-3.869 1.334 3.869zM29.25 16.5h-4.25v-2.906c0-0.137-0.113-0.25-0.25-0.25h-1.75c-0.137 0-0.25 0.113-0.25 0.25v2.906h-4.25c-0.416 0-0.75 0.334-0.75 0.75v5.5c0 0.416 0.334 0.75 0.75 0.75h4.25v4.75c0 0.137 0.113 0.25 0.25 0.25h1.75c0.137 0 0.25-0.113 0.25-0.25v-4.75h4.25c0.416 0 0.75-0.334 0.75-0.75v-5.5c0-0.416-0.334-0.75-0.75-0.75zM22.75 21.25h-2.75v-2.5h2.75v2.5zM27.75 21.25h-2.75v-2.5h2.75v2.5z"/>
</svg>
