<svg version="1.1" xmlns="http://www.w3.org/2000/svg" width="32" height="32" viewBox="0 0 32 32">
<path fill="currentColor" d="M29 7.947c-0.956 0.412-1.997 0.709-3.069 0.825 1.102-0.663 1.931-1.684 2.333-2.9l0.011-0.038c-0.973 0.589-2.106 1.036-3.314 1.276l-0.067 0.011c-0.973-1.038-2.352-1.684-3.882-1.684-0.004 0-0.008 0-0.012 0h0.001c-2.953 0-5.328 2.394-5.328 5.331 0 0.412 0.050 0.825 0.131 1.222-4.422-0.231-8.366-2.344-10.988-5.578-0.456 0.766-0.725 1.688-0.725 2.673 0 0.006 0 0.012 0 0.018v-0.001c0 1.85 0.941 3.481 2.375 4.441-0.89-0.036-1.715-0.283-2.436-0.692l0.027 0.014v0.066c0 2.591 1.831 4.737 4.272 5.231-0.421 0.114-0.904 0.18-1.402 0.181h-0.001c-0.347 0-0.675-0.034-1.006-0.081 0.675 2.113 2.641 3.647 4.981 3.697-1.831 1.434-4.125 2.278-6.616 2.278-0.447 0-0.859-0.016-1.288-0.066 2.362 1.516 5.166 2.391 8.184 2.391 9.8 0 15.163-8.119 15.163-15.166 0-0.231 0-0.463-0.016-0.694 1.038-0.759 1.947-1.7 2.672-2.756z"/>
</svg>
