<svg version="1.1" xmlns="http://www.w3.org/2000/svg" width="32" height="32" viewBox="0 0 32 32">
<path fill="currentColor" d="M25.75 25.125h-19.5c-0.138 0-0.25 0.106-0.25 0.238v1.9c0 0.131 0.112 0.238 0.25 0.238h19.5c0.137 0 0.25-0.106 0.25-0.238v-1.9c0-0.131-0.113-0.238-0.25-0.238zM16 22.75c2.169 0 4.206-0.847 5.744-2.381s2.381-3.575 2.381-5.744v-9.75c0-0.206-0.169-0.375-0.375-0.375h-1.875c-0.206 0-0.375 0.169-0.375 0.375v9.75c0 3.031-2.469 5.5-5.5 5.5s-5.5-2.469-5.5-5.5v-9.75c0-0.206-0.169-0.375-0.375-0.375h-1.875c-0.206 0-0.375 0.169-0.375 0.375v9.75c0 2.169 0.847 4.206 2.381 5.744s3.575 2.381 5.744 2.381z"/>
</svg>
