<svg version="1.1" xmlns="http://www.w3.org/2000/svg" width="32" height="32" viewBox="0 0 32 32">
<path fill="currentColor" d="M15.981 3.875c-6.903 0.009-12.481 5.594-12.481 12.497 0 4 1.881 7.563 4.806 9.85l-1.172 1.5c-0.128 0.166-0.009 0.406 0.197 0.403l5.219-0.025c0.162 0 0.281-0.153 0.241-0.309l-1.234-5.072c-0.028-0.11-0.126-0.191-0.243-0.191-0.080 0-0.152 0.038-0.197 0.096l-0 0.001-1.272 1.628c-0.319-0.25-0.625-0.522-0.916-0.813-0.891-0.888-1.614-1.942-2.119-3.113l-0.025-0.065c-0.522-1.231-0.784-2.541-0.784-3.891s0.263-2.659 0.784-3.891c0.503-1.191 1.225-2.259 2.144-3.178s1.988-1.641 3.178-2.144c1.234-0.522 2.544-0.784 3.894-0.784s2.659 0.263 3.891 0.784c1.191 0.503 2.259 1.225 3.178 2.144s1.641 1.988 2.144 3.178c0.522 1.231 0.784 2.541 0.784 3.891s-0.262 2.659-0.784 3.891c-0.53 1.236-1.253 2.291-2.143 3.178l-0 0c-0.234 0.234-0.478 0.453-0.731 0.663-0.056 0.046-0.092 0.115-0.092 0.192 0 0.059 0.020 0.113 0.054 0.155l-0-0 1.231 1.578c0.087 0.109 0.247 0.128 0.356 0.041 2.816-2.294 4.613-5.784 4.613-9.697 0-6.909-5.606-12.506-12.519-12.497z"/>
</svg>
