<svg version="1.1" xmlns="http://www.w3.org/2000/svg" width="32" height="32" viewBox="0 0 32 32">
<path fill="currentColor" d="M28.5 6h-18.25c-0.137 0-0.25 0.112-0.25 0.25v1.75c0 0.137 0.113 0.25 0.25 0.25h18.25c0.137 0 0.25-0.113 0.25-0.25v-1.75c0-0.138-0.113-0.25-0.25-0.25zM28.5 14.875h-18.25c-0.137 0-0.25 0.113-0.25 0.25v1.75c0 0.137 0.113 0.25 0.25 0.25h18.25c0.137 0 0.25-0.113 0.25-0.25v-1.75c0-0.137-0.113-0.25-0.25-0.25zM28.5 23.75h-18.25c-0.137 0-0.25 0.113-0.25 0.25v1.75c0 0.137 0.113 0.25 0.25 0.25h18.25c0.137 0 0.25-0.113 0.25-0.25v-1.75c0-0.137-0.113-0.25-0.25-0.25zM3.25 7.125c0 0.966 0.784 1.75 1.75 1.75s1.75-0.784 1.75-1.75v0c0-0.966-0.784-1.75-1.75-1.75s-1.75 0.784-1.75 1.75v0zM3.25 16c0 0.966 0.784 1.75 1.75 1.75s1.75-0.784 1.75-1.75v0c0-0.966-0.784-1.75-1.75-1.75s-1.75 0.784-1.75 1.75v0zM3.25 24.875c0 0.966 0.784 1.75 1.75 1.75s1.75-0.784 1.75-1.75v0c0-0.966-0.784-1.75-1.75-1.75s-1.75 0.784-1.75 1.75v0z"/>
</svg>
