<svg version="1.1" xmlns="http://www.w3.org/2000/svg" width="32" height="32" viewBox="0 0 32 32">
<path fill="currentColor" d="M12.5 9.928h2.309v10.572c0 0.137 0.113 0.25 0.25 0.25h1.875c0.137 0 0.25-0.113 0.25-0.25v-10.572h2.316c0.209 0 0.325-0.241 0.197-0.403l-3.5-4.431c-0.046-0.059-0.117-0.096-0.197-0.096s-0.151 0.037-0.196 0.095l-0 0.001-3.5 4.428c-0.128 0.166-0.012 0.406 0.197 0.406zM27.438 19.563h-1.875c-0.137 0-0.25 0.113-0.25 0.25v4.813h-18.625v-4.813c0-0.137-0.112-0.25-0.25-0.25h-1.875c-0.138 0-0.25 0.113-0.25 0.25v6.188c0 0.553 0.447 1 1 1h21.375c0.553 0 1-0.447 1-1v-6.188c0-0.137-0.113-0.25-0.25-0.25z"/>
</svg>
