<svg version="1.1" xmlns="http://www.w3.org/2000/svg" width="32" height="32" viewBox="0 0 32 32">
<path fill="currentColor" d="M21.197 20.075c0.756-0.406 1.622-0.637 2.544-0.637h0.003c0.094 0 0.137-0.113 0.069-0.175-0.924-0.831-1.995-1.523-3.165-2.027l-0.075-0.029c-0.012-0.006-0.025-0.009-0.038-0.016 1.941-1.409 3.203-3.7 3.203-6.284 0-4.281-3.462-7.75-7.734-7.75s-7.731 3.469-7.731 7.75c0 2.584 1.262 4.875 3.206 6.284-0.012 0.006-0.025 0.009-0.037 0.016-1.397 0.591-2.65 1.438-3.728 2.519-1.045 1.043-1.893 2.282-2.483 3.658l-0.029 0.076c-0.552 1.272-0.887 2.75-0.919 4.304l-0 0.012c-0 0.002-0 0.004-0 0.006 0 0.138 0.112 0.25 0.25 0.25 0 0 0 0 0 0h1.872c0.134 0 0.247-0.109 0.25-0.244 0.063-2.413 1.028-4.672 2.738-6.384 1.766-1.772 4.116-2.747 6.616-2.747 1.772 0 3.472 0.491 4.938 1.409 0.038 0.024 0.085 0.039 0.135 0.039 0.043 0 0.084-0.011 0.12-0.030l-0.001 0.001zM16.006 16.281c-1.431 0-2.778-0.559-3.794-1.575-0.971-0.969-1.572-2.308-1.572-3.788 0-0.004 0-0.008 0-0.013v0.001c0-1.434 0.559-2.784 1.572-3.8s2.359-1.575 3.794-1.575 2.778 0.559 3.794 1.575c0.971 0.969 1.572 2.308 1.572 3.788 0 0.004 0 0.008 0 0.013v-0.001c0 1.434-0.559 2.784-1.572 3.8-1.016 1.016-2.363 1.575-3.794 1.575zM27.5 23.719h-2.625v-2.625c0-0.137-0.113-0.25-0.25-0.25h-1.75c-0.137 0-0.25 0.113-0.25 0.25v2.625h-2.625c-0.137 0-0.25 0.113-0.25 0.25v1.75c0 0.137 0.113 0.25 0.25 0.25h2.625v2.625c0 0.137 0.113 0.25 0.25 0.25h1.75c0.137 0 0.25-0.113 0.25-0.25v-2.625h2.625c0.137 0 0.25-0.113 0.25-0.25v-1.75c0-0.137-0.113-0.25-0.25-0.25z"/>
</svg>
