<svg version="1.1" xmlns="http://www.w3.org/2000/svg" width="32" height="32" viewBox="0 0 32 32">
<path fill="currentColor" d="M27.875 24.125h-2.5v-2.5c0-0.137-0.113-0.25-0.25-0.25h-1.5c-0.137 0-0.25 0.113-0.25 0.25v2.5h-2.5c-0.137 0-0.25 0.113-0.25 0.25v1.5c0 0.137 0.113 0.25 0.25 0.25h2.5v2.5c0 0.137 0.113 0.25 0.25 0.25h1.5c0.137 0 0.25-0.113 0.25-0.25v-2.5h2.5c0.137 0 0.25-0.113 0.25-0.25v-1.5c0-0.137-0.113-0.25-0.25-0.25zM11.672 15.575c-0.028-0.272-0.044-0.547-0.044-0.825 0-0.497 0.047-0.981 0.134-1.453 0.022-0.113-0.037-0.228-0.141-0.275-0.425-0.191-0.816-0.453-1.153-0.784-0.747-0.725-1.211-1.739-1.211-2.861 0-0.042 0.001-0.084 0.002-0.126l-0 0.006c0.028-1.003 0.431-1.956 1.134-2.675 0.772-0.791 1.809-1.222 2.912-1.209 0.997 0.009 1.959 0.394 2.688 1.075 0.247 0.231 0.459 0.487 0.637 0.763 0.063 0.097 0.184 0.138 0.291 0.1 0.55-0.191 1.131-0.325 1.728-0.388 0.175-0.019 0.275-0.206 0.197-0.362-1.016-2.009-3.091-3.397-5.491-3.434-3.463-0.053-6.35 2.788-6.35 6.25 0 1.963 0.903 3.713 2.319 4.859-0.994 0.459-1.909 1.094-2.703 1.887-1.713 1.709-2.681 3.966-2.744 6.375-0 0.002-0 0.004-0 0.006 0 0.138 0.112 0.25 0.25 0.25 0 0 0 0 0 0h1.753c0.134 0 0.247-0.106 0.25-0.241 0.059-1.813 0.794-3.509 2.084-4.797 0.919-0.919 2.044-1.556 3.272-1.866 0.119-0.034 0.2-0.15 0.184-0.275zM25.75 14.75c0-3.419-2.747-6.197-6.153-6.25-3.462-0.053-6.347 2.787-6.347 6.25 0 1.962 0.906 3.712 2.319 4.859-1.044 0.491-1.937 1.124-2.7 1.887l-0 0c-1.713 1.709-2.681 3.966-2.744 6.372-0 0.002-0 0.004-0 0.006 0 0.138 0.112 0.25 0.25 0.25 0 0 0 0 0 0h1.75c0.134 0 0.247-0.106 0.25-0.241 0.059-1.813 0.794-3.509 2.084-4.797 1.347-1.347 3.134-2.087 5.041-2.087 3.45 0 6.25-2.797 6.25-6.25zM22.328 17.578c-0.756 0.756-1.759 1.172-2.828 1.172s-2.072-0.416-2.828-1.172c-0.724-0.72-1.172-1.718-1.172-2.819 0-0.017 0-0.035 0-0.052l-0 0.003c0.009-1.025 0.419-2.016 1.134-2.75 0.75-0.769 1.753-1.197 2.825-1.209 1.059-0.009 2.087 0.403 2.844 1.144 0.775 0.759 1.2 1.775 1.2 2.856-0.003 1.069-0.419 2.072-1.175 2.828z"/>
</svg>
