<svg version="1.1" xmlns="http://www.w3.org/2000/svg" width="32" height="32" viewBox="0 0 32 32">
<path fill="currentColor" d="M23.719 10.469c0-4.281-3.469-7.75-7.75-7.75s-7.75 3.469-7.75 7.75c0 2.588 1.269 4.881 3.219 6.288-0.012 0.006-0.022 0.009-0.028 0.012-1.397 0.591-2.65 1.438-3.728 2.519-1.078 1.078-1.922 2.334-2.513 3.734-0.578 1.369-0.888 2.822-0.919 4.316-0.003 0.141 0.109 0.256 0.25 0.256h1.872c0.134 0 0.247-0.109 0.25-0.244 0.063-2.413 1.028-4.672 2.737-6.384 1.766-1.772 4.109-2.747 6.609-2.747 4.281 0 7.75-3.469 7.75-7.75zM15.969 15.844c-2.969 0-5.375-2.406-5.375-5.375s2.406-5.375 5.375-5.375 5.375 2.406 5.375 5.375-2.406 5.375-5.375 5.375zM19.25 22.75h8.25c0.137 0 0.25-0.113 0.25-0.25v-1.75c0-0.137-0.113-0.25-0.25-0.25h-5.516l1.475-1.878c0.034-0.044 0.053-0.1 0.053-0.153 0-0.137-0.113-0.25-0.25-0.25h-2.269c-0.153 0-0.297 0.072-0.394 0.191l-2.141 2.722c-0.137 0.175-0.212 0.394-0.212 0.619 0.003 0.553 0.45 1 1.003 1zM26.75 24.75h-8.25c-0.137 0-0.25 0.113-0.25 0.25v1.75c0 0.137 0.113 0.25 0.25 0.25h5.516l-1.475 1.878c-0.034 0.044-0.053 0.1-0.053 0.153 0 0.137 0.113 0.25 0.25 0.25h2.269c0.153 0 0.297-0.072 0.394-0.191l2.141-2.722c0.137-0.175 0.212-0.394 0.212-0.619-0.003-0.553-0.45-1-1.003-1z"/>
</svg>
