<svg version="1.1" xmlns="http://www.w3.org/2000/svg" width="32" height="32" viewBox="0 0 32 32">
<path fill="currentColor" d="M26.828 23.863c-0.622-1.452-1.472-2.692-2.518-3.734l-0-0c-1.043-1.046-2.283-1.895-3.658-2.489l-0.076-0.029c-0.012-0.006-0.025-0.009-0.038-0.016 1.947-1.406 3.212-3.697 3.212-6.281 0-4.281-3.469-7.75-7.75-7.75s-7.75 3.469-7.75 7.75c0 2.584 1.266 4.875 3.213 6.284-0.012 0.006-0.025 0.009-0.037 0.016-1.4 0.591-2.656 1.438-3.734 2.519-1.046 1.043-1.895 2.283-2.489 3.658l-0.029 0.076c-0.555 1.271-0.891 2.75-0.922 4.304l-0 0.012c-0 0.002-0 0.004-0 0.006 0 0.138 0.112 0.25 0.25 0.25 0 0 0 0 0 0h1.875c0.138 0 0.247-0.109 0.25-0.244 0.063-2.413 1.031-4.672 2.744-6.384 1.772-1.772 4.125-2.747 6.631-2.747s4.859 0.975 6.631 2.747c1.712 1.712 2.681 3.972 2.744 6.384 0.003 0.137 0.113 0.244 0.25 0.244h1.875c0 0 0 0 0 0 0.138 0 0.25-0.112 0.25-0.25 0-0.002-0-0.004-0-0.007v0c-0.031-1.494-0.341-2.947-0.922-4.319zM16 16.688c-1.434 0-2.784-0.559-3.8-1.575s-1.575-2.366-1.575-3.8c0-1.434 0.559-2.784 1.575-3.8s2.366-1.575 3.8-1.575 2.784 0.559 3.8 1.575 1.575 2.366 1.575 3.8c0 1.434-0.559 2.784-1.575 3.8s-2.366 1.575-3.8 1.575z"/>
</svg>
