<svg version="1.1" xmlns="http://www.w3.org/2000/svg" width="32" height="32" viewBox="0 0 32 32">
<path fill="currentColor" d="M13.994 18.4l-0.228-1.016c-0.006-0.031-0.019-0.059-0.034-0.084-0.078-0.116-0.231-0.147-0.347-0.069l-0.728 0.488v-4.875c0-0.137-0.113-0.25-0.25-0.25h-2.531c-0.137 0-0.25 0.113-0.25 0.25v1.125c0 0.137 0.113 0.25 0.25 0.25h1.156v6.012c0 0.053 0.016 0.103 0.047 0.147 0.081 0.113 0.238 0.137 0.35 0.056l2.469-1.775c0.081-0.059 0.119-0.159 0.097-0.259zM12.222 11.631l0.006 0.006c0.1 0.094 0.259 0.088 0.353-0.016l0.753-0.819c0.091-0.1 0.088-0.253-0.009-0.35l-1.678-1.628c-0.097-0.094-0.253-0.094-0.35 0.003l-0.772 0.772c-0.097 0.097-0.097 0.256 0.003 0.353l1.694 1.678z"/>
<path fill="currentColor" d="M27.091 5.309l-10.619-3.619c-0.128-0.044-0.3-0.066-0.472-0.066s-0.344 0.022-0.472 0.066l-10.619 3.619c-0.259 0.088-0.472 0.388-0.472 0.662v15.075c0 0.275 0.178 0.637 0.394 0.809l10.772 8.394c0.109 0.084 0.25 0.128 0.394 0.128s0.288-0.044 0.394-0.128l10.772-8.394c0.216-0.169 0.394-0.531 0.394-0.809v-15.075c0.006-0.275-0.206-0.572-0.466-0.662zM25.313 20.447l-9.313 7.256-9.313-7.256v-13.363l9.313-3.175 9.313 3.175v13.363z"/>
<path fill="currentColor" d="M14.125 9.281v1.125c0 0.137 0.113 0.25 0.25 0.25h3.375v8.563h-1.188v-6.563c0-0.137-0.113-0.25-0.25-0.25h-1.094c-0.137 0-0.25 0.113-0.25 0.25v6.563h-0.969c-0.137 0-0.25 0.113-0.25 0.25v1.156c0 0.137 0.113 0.25 0.25 0.25h7.625c0.137 0 0.25-0.113 0.25-0.25v-1.156c0-0.137-0.113-0.25-0.25-0.25h-2.25v-3.813h1.813c0.137 0 0.25-0.113 0.25-0.25v-1.094c0-0.137-0.113-0.25-0.25-0.25h-1.813v-3.156h1.969c0.137 0 0.25-0.113 0.25-0.25v-1.125c0-0.137-0.113-0.25-0.25-0.25h-6.969c-0.137 0-0.25 0.113-0.25 0.25z"/>
</svg>
