<svg version="1.1" xmlns="http://www.w3.org/2000/svg" width="32" height="32" viewBox="0 0 32 32">
<path fill="currentColor" d="M23.813 5.125h-2c-0.137 0-0.25 0.112-0.25 0.25v21.5c0 0.137 0.113 0.25 0.25 0.25h2c0.137 0 0.25-0.113 0.25-0.25v-21.5c0-0.138-0.113-0.25-0.25-0.25zM7.938 5.125v2.263c0 0.297 0.131 0.575 0.356 0.766l9.35 7.847-9.35 7.847c-0.225 0.191-0.356 0.469-0.356 0.766v2.262c0 0.212 0.247 0.328 0.409 0.191l13.184-11.066-13.184-11.066c-0.043-0.037-0.099-0.059-0.161-0.059-0.137 0-0.248 0.111-0.248 0.248 0 0 0 0.001 0 0.001v-0z"/>
</svg>
