<svg version="1.1" xmlns="http://www.w3.org/2000/svg" width="32" height="32" viewBox="0 0 32 32">
<path fill="currentColor" d="M26.872 14.813h-21.744c-0.141 0-0.253 0.113-0.253 0.25v1.875c0 0.137 0.112 0.25 0.253 0.25h21.744c0.141 0 0.253-0.113 0.253-0.25v-1.875c0-0.137-0.113-0.25-0.253-0.25zM15.822 12.478c0.091 0.116 0.266 0.116 0.353 0l3.15-3.984c0.116-0.147 0.012-0.366-0.178-0.366h-1.959v-4.878c0-0.138-0.113-0.25-0.25-0.25h-1.875c-0.137 0-0.25 0.112-0.25 0.25v4.875h-1.963c-0.188 0-0.294 0.219-0.178 0.366l3.15 3.987zM16.178 19.522c-0.041-0.053-0.105-0.087-0.177-0.087s-0.135 0.034-0.176 0.086l-0 0-3.15 3.988c-0.030 0.038-0.048 0.087-0.048 0.14 0 0.125 0.101 0.226 0.226 0.226 0 0 0 0 0.001 0h1.959v4.875c0 0.137 0.113 0.25 0.25 0.25h1.875c0.137 0 0.25-0.113 0.25-0.25v-4.875h1.962c0.188 0 0.294-0.219 0.178-0.366l-3.15-3.988z"/>
</svg>
