<svg version="1.1" xmlns="http://www.w3.org/2000/svg" width="32" height="32" viewBox="0 0 32 32">
<path fill="currentColor" d="M10.188 5.125h-2c-0.137 0-0.25 0.112-0.25 0.25v21.5c0 0.137 0.113 0.25 0.25 0.25h2c0.137 0 0.25-0.113 0.25-0.25v-21.5c0-0.138-0.113-0.25-0.25-0.25zM24.063 7.388v-2.263c0-0.213-0.247-0.328-0.409-0.191l-13.184 11.066 13.184 11.066c0.163 0.137 0.409 0.022 0.409-0.191v-2.262c0-0.294-0.131-0.575-0.356-0.766l-9.35-7.847 9.35-7.847c0.225-0.191 0.356-0.472 0.356-0.766z"/>
</svg>
