<svg version="1.1" xmlns="http://www.w3.org/2000/svg" width="32" height="32" viewBox="0 0 32 32">
<path fill="currentColor" d="M14.5 22.5c0 0.828 0.672 1.5 1.5 1.5s1.5-0.672 1.5-1.5v0c0-0.828-0.672-1.5-1.5-1.5s-1.5 0.672-1.5 1.5v0zM15 13v5.75c0 0.137 0.113 0.25 0.25 0.25h1.5c0.137 0 0.25-0.113 0.25-0.25v-5.75c0-0.137-0.113-0.25-0.25-0.25h-1.5c-0.137 0-0.25 0.113-0.25 0.25zM29.866 26.75l-13-22.5c-0.194-0.334-0.528-0.5-0.866-0.5s-0.675 0.166-0.866 0.5l-13 22.5c-0.384 0.669 0.097 1.5 0.866 1.5h26c0.769 0 1.25-0.831 0.866-1.5zM5.381 25.878l10.619-18.381 10.619 18.381h-21.238z"/>
</svg>
