<svg version="1.1" xmlns="http://www.w3.org/2000/svg" width="32" height="32" viewBox="0 0 32 32">
<path fill="currentColor" d="M28.431 22.8c-0.556 0.113-1.049 0.32-1.486 0.605l0.016-0.010c-0.429 0.449-0.971 0.786-1.581 0.965l-0.025 0.006c0.082-0.549 0.354-1.049 0.764-1.419 0.327-0.493 0.58-1.067 0.724-1.683l0.007-0.036c-0.002-0.87 0.701-1.577 1.571-1.579s1.577 0.701 1.579 1.571c0.003 0.87-0.7 1.578-1.569 1.581zM25.549 19.026c-0.49-0.33-1.063-0.585-1.677-0.733l-0.036-0.007c-0.87 0-1.575-0.705-1.575-1.576s0.705-1.576 1.575-1.576c0.87 0 1.575 0.705 1.575 1.576 0.111 0.558 0.316 1.052 0.598 1.492l-0.010-0.017c0.446 0.432 0.78 0.977 0.955 1.589l0.006 0.025c-0.564-0.092-1.051-0.372-1.405-0.771l-0.002-0.002h-0.006zM22.954 13.472c-0.475-3.979-4.593-7.097-9.576-7.097-5.309 0-9.628 3.534-9.628 7.881 0.085 2.441 1.373 4.681 3.439 5.981 0.301 0.225 0.644 0.448 1.001 0.649l0.049 0.025-0.427 1.705c0.154 0.072 0.303 0.149 0.461 0.216l2.156-1.078c0.315 0.082 0.646 0.134 0.975 0.19 0.21 0.037 0.42 0.076 0.636 0.102 0.417 0.055 0.898 0.087 1.387 0.087 0.936 0 1.846-0.116 2.714-0.335l-0.077 0.016c0.045 0.63 0.158 1.217 0.332 1.776l-0.015-0.055c-0.902 0.221-1.938 0.349-3.004 0.351h-0.002c-0.959-0.006-1.89-0.114-2.787-0.314l0.087 0.016-3.912 1.954c-0.114 0.060-0.25 0.095-0.393 0.095-0.207 0-0.397-0.073-0.545-0.194l0.002 0.001c-0.201-0.162-0.328-0.408-0.328-0.683 0-0.075 0.009-0.148 0.027-0.217l-0.001 0.006 0.7-2.82c-2.565-1.632-4.15-4.434-4.227-7.475 0-5.32 5.094-9.632 11.378-9.632 5.967 0 10.853 3.891 11.329 8.838-0.236-0.039-0.521-0.068-0.811-0.081l-0.017-0.001c-0.309 0.012-0.618 0.041-0.925 0.090zM19.32 19.685c0.524-0.105 1.022-0.306 1.47-0.595 0.429-0.449 0.972-0.785 1.582-0.962l0.025-0.006c-0.089 0.567-0.365 1.057-0.763 1.415l-0.002 0.002c-0.344 0.525-0.592 1.109-0.732 1.72 0.001 0.87-0.702 1.576-1.572 1.578s-1.576-0.701-1.579-1.571c-0.003-0.87 0.7-1.577 1.569-1.58zM22.157 23.477c0.52 0.349 1.099 0.601 1.708 0.747 0.637 0 1.211 0.384 1.455 0.973s0.109 1.267-0.341 1.717c-0.45 0.451-1.128 0.585-1.716 0.342s-0.972-0.818-0.972-1.456c-0.109-0.558-0.312-1.054-0.594-1.495l0.010 0.017c-0.444-0.433-0.776-0.98-0.948-1.594l-0.006-0.025c0.564 0.095 1.050 0.378 1.402 0.78l0.002 0.003z"/>
</svg>
