<svg version="1.1" xmlns="http://www.w3.org/2000/svg" width="32" height="32" viewBox="0 0 32 32">
<path fill="currentColor" d="M14.291 16.969c-2.128-0.553-4.531 0.506-5.456 2.381-0.941 1.913-0.031 4.034 2.119 4.728 2.225 0.719 4.85-0.381 5.763-2.447 0.897-2.019-0.225-4.094-2.425-4.663zM12.666 21.85c-0.431 0.691-1.359 0.991-2.056 0.675-0.688-0.313-0.891-1.116-0.456-1.788 0.428-0.669 1.322-0.969 2.012-0.678 0.7 0.297 0.925 1.094 0.5 1.791zM14.088 20.022c-0.156 0.269-0.503 0.397-0.772 0.284-0.266-0.109-0.35-0.409-0.2-0.672 0.156-0.262 0.488-0.387 0.753-0.284 0.272 0.1 0.369 0.403 0.219 0.672zM24.541 13.859c0.469 0.15 0.969-0.106 1.122-0.572 0.369-1.144 0.137-2.45-0.725-3.406-0.64-0.707-1.56-1.149-2.584-1.149-0.258 0-0.509 0.028-0.751 0.081l0.023-0.004c-0.405 0.088-0.704 0.444-0.704 0.87 0 0.066 0.007 0.131 0.021 0.193l-0.001-0.006c0.089 0.404 0.443 0.702 0.868 0.702 0.067 0 0.132-0.007 0.195-0.021l-0.006 0.001c0.575-0.122 1.197 0.056 1.622 0.522 0.272 0.299 0.438 0.698 0.438 1.136 0 0.189-0.031 0.371-0.088 0.541l0.003-0.012c-0.029 0.083-0.045 0.18-0.045 0.28 0 0.393 0.255 0.726 0.608 0.844l0.006 0.002zM27.659 7.422c-1.772-1.966-4.387-2.716-6.803-2.203-0.47 0.102-0.817 0.515-0.817 1.008 0 0.078 0.009 0.154 0.025 0.227l-0.001-0.007c0.103 0.472 0.517 0.82 1.012 0.82 0.076 0 0.151-0.008 0.223-0.024l-0.007 0.001c1.719-0.366 3.575 0.169 4.837 1.566 1.259 1.397 1.6 3.303 1.063 4.972-0.175 0.544 0.122 1.125 0.666 1.303 0.544 0.175 1.125-0.122 1.3-0.662v-0.003c0.753-2.356 0.278-5.034-1.497-6.997zM22.781 15.594c-0.381-0.113-0.641-0.191-0.441-0.691 0.431-1.084 0.475-2.022 0.009-2.688-0.875-1.253-3.275-1.184-6.025-0.034 0 0-0.863 0.378-0.644-0.306 0.422-1.359 0.359-2.497-0.3-3.156-1.491-1.494-5.456 0.056-8.859 3.456-2.544 2.547-4.022 5.247-4.022 7.581 0 4.466 5.725 7.181 11.328 7.181 7.344 0 12.228-4.266 12.228-7.656 0-2.047-1.725-3.206-3.275-3.688zM13.844 25.337c-4.469 0.441-8.328-1.578-8.619-4.516-0.291-2.934 3.1-5.672 7.569-6.113 4.469-0.444 8.328 1.578 8.619 4.512 0.288 2.934-3.1 5.672-7.569 6.116z"/>
</svg>
