<svg version="1.1" xmlns="http://www.w3.org/2000/svg" width="32" height="32" viewBox="0 0 32 32">
<path fill="currentColor" d="M22.297 18.747c-0.341-0.175-2.038-1.006-2.353-1.119-0.316-0.119-0.547-0.175-0.775 0.175-0.231 0.347-0.887 1.119-1.094 1.353-0.2 0.231-0.403 0.259-0.744 0.087-2.025-1.012-3.353-1.806-4.688-4.097-0.353-0.609 0.353-0.566 1.012-1.881 0.113-0.231 0.056-0.428-0.031-0.603s-0.775-1.869-1.063-2.559c-0.278-0.672-0.566-0.578-0.775-0.591-0.2-0.012-0.428-0.012-0.659-0.012s-0.603 0.088-0.919 0.428c-0.316 0.347-1.206 1.181-1.206 2.875s1.234 3.334 1.403 3.566c0.175 0.231 2.428 3.706 5.888 5.203 2.188 0.944 3.044 1.025 4.137 0.863 0.666-0.1 2.038-0.831 2.322-1.641 0.284-0.806 0.284-1.497 0.2-1.641-0.084-0.153-0.316-0.241-0.656-0.406z"/>
<path fill="currentColor" d="M28.913 10.575c-0.706-1.678-1.719-3.184-3.009-4.478-1.291-1.291-2.797-2.306-4.478-3.009-1.719-0.722-3.544-1.087-5.425-1.087h-0.063c-1.894 0.009-3.728 0.384-5.453 1.122-1.666 0.712-3.159 1.725-4.438 3.016s-2.281 2.791-2.975 4.463c-0.719 1.731-1.081 3.572-1.072 5.466 0.009 2.169 0.528 4.322 1.5 6.247v4.75c0 0.794 0.644 1.438 1.438 1.438h4.753c1.925 0.972 4.078 1.491 6.247 1.5h0.066c1.872 0 3.688-0.363 5.397-1.072 1.672-0.697 3.175-1.697 4.462-2.975 1.291-1.278 2.306-2.772 3.016-4.438 0.738-1.725 1.113-3.559 1.122-5.453 0.009-1.903-0.359-3.75-1.087-5.488zM24.191 24.262c-2.191 2.169-5.097 3.363-8.191 3.363h-0.053c-1.884-0.009-3.756-0.478-5.409-1.359l-0.262-0.141h-4.4v-4.4l-0.141-0.262c-0.881-1.653-1.35-3.525-1.359-5.409-0.013-3.116 1.178-6.041 3.362-8.244 2.181-2.203 5.097-3.422 8.213-3.434h0.053c1.563 0 3.078 0.303 4.506 0.903 1.394 0.584 2.644 1.425 3.719 2.5 1.072 1.072 1.916 2.325 2.5 3.719 0.606 1.444 0.909 2.975 0.903 4.556-0.019 3.113-1.241 6.028-3.441 8.209z"/>
</svg>
