<svg version="1.1" xmlns="http://www.w3.org/2000/svg" width="32" height="32" viewBox="0 0 32 32">
<path fill="currentColor" d="M22.594 19.391c-1.756-1.528-4.050-2.453-6.563-2.453s-4.806 0.925-6.566 2.456c-0.051 0.047-0.084 0.113-0.084 0.188 0 0.062 0.022 0.118 0.059 0.162l-0-0 1.125 1.341c0.091 0.106 0.25 0.119 0.356 0.028 1.363-1.2 3.15-1.925 5.109-1.925s3.747 0.725 5.109 1.922c0.106 0.091 0.266 0.078 0.356-0.028l1.125-1.341c0.087-0.103 0.075-0.259-0.028-0.35zM26.262 15.012c-2.772-2.309-6.338-3.7-10.231-3.7s-7.459 1.391-10.234 3.7c-0.055 0.046-0.089 0.115-0.089 0.192 0 0.061 0.022 0.118 0.058 0.161l-0-0 1.125 1.341c0.088 0.106 0.247 0.119 0.35 0.031 2.384-1.981 5.45-3.175 8.791-3.175s6.406 1.194 8.788 3.175c0.106 0.087 0.262 0.075 0.35-0.031l1.125-1.341c0.087-0.106 0.075-0.266-0.031-0.353zM29.909 10.669c-3.794-3.112-8.65-4.981-13.941-4.981-5.256 0-10.081 1.844-13.866 4.919-0.057 0.046-0.093 0.116-0.093 0.195 0 0.062 0.022 0.118 0.059 0.162l-0-0 1.125 1.341c0.087 0.103 0.244 0.119 0.347 0.034 3.397-2.753 7.719-4.4 12.428-4.4 4.744 0 9.094 1.672 12.5 4.459 0.106 0.088 0.262 0.072 0.35-0.034l1.125-1.341c0.091-0.106 0.075-0.266-0.034-0.353zM14 24.313c0 1.105 0.895 2 2 2s2-0.895 2-2v0c0-1.105-0.895-2-2-2s-2 0.895-2 2v0z"/>
</svg>
