<svg version="1.1" xmlns="http://www.w3.org/2000/svg" width="32" height="32" viewBox="0 0 32 32">
<path fill="currentColor" d="M22.275 17.15c1.675-1.675 2.6-3.906 2.6-6.275 0-2.372-0.922-4.6-2.6-6.275-1.675-1.675-3.906-2.6-6.275-2.6s-4.6 0.922-6.275 2.6c-1.675 1.678-2.6 3.903-2.6 6.275 0 1.994 0.653 3.888 1.856 5.434 0.228 0.294 0.475 0.572 0.741 0.841 0.266 0.266 0.547 0.512 0.838 0.741 1.238 0.962 2.697 1.575 4.253 1.781v3.328h-3.563c-0.137 0-0.25 0.113-0.25 0.25v1.875c0 0.137 0.113 0.25 0.25 0.25h3.563v4.375c0 0.137 0.113 0.25 0.25 0.25h1.875c0.137 0 0.25-0.113 0.25-0.25v-4.375h3.563c0.137 0 0.25-0.113 0.25-0.25v-1.875c0-0.137-0.113-0.25-0.25-0.25h-3.563v-3.328c1.922-0.256 3.694-1.128 5.088-2.522zM16 17.375c-1.738 0-3.366-0.675-4.597-1.903-1.228-1.228-1.903-2.859-1.903-4.597s0.675-3.366 1.903-4.597c1.228-1.231 2.859-1.903 4.597-1.903s3.366 0.675 4.597 1.903c1.228 1.228 1.903 2.859 1.903 4.597s-0.675 3.366-1.903 4.597c-1.231 1.228-2.859 1.903-4.597 1.903z"/>
</svg>
