<svg version="1.1" xmlns="http://www.w3.org/2000/svg" width="32" height="32" viewBox="0 0 32 32">
<path fill="currentColor" d="M26.872 21.294h-0.441c-0.847 0-1.538 0.694-1.538 1.541v0.441c0 0.847 0.694 1.541 1.538 1.541h0.441c0.847 0 1.538-0.694 1.538-1.541v-0.441c0-0.847-0.694-1.541-1.538-1.541zM12.581 7.219c-5.825 0-10.55 3.938-10.55 8.797s4.725 8.797 10.55 8.797 10.55-3.938 10.55-8.797-4.722-8.797-10.55-8.797zM12.581 23.063c-4.922 0-8.8-3.231-8.8-7.047 0-1.947 1.009-3.741 2.653-5.031v1.512h1.156l4.994 4.997v2.041h-2.637v1.759h7.034v-1.759h-2.637v-2.041l3.234-3.238h2.041v-1.759h-5.275v2.041l-0.878 0.878-2.919-2.922h1.156v-1.759h-4.941c1.544-1.094 3.572-1.769 5.819-1.769 4.925 0 8.8 3.231 8.8 7.047s-3.875 7.050-8.8 7.050zM29.291 7.219h-3.519c-0.484 0-0.866 0.394-0.847 0.878l0.409 11.438h2.637l2.044-11.45c0.084-0.475-0.244-0.866-0.725-0.866z"/>
</svg>
