<svg version="1.1" xmlns="http://www.w3.org/2000/svg" width="32" height="32" viewBox="0 0 32 32">
<path fill="currentColor" d="M30 15.912c0-0.069 0-0.147-0.003-0.238-0.003-0.253-0.009-0.537-0.016-0.841-0.025-0.872-0.069-1.741-0.137-2.559-0.094-1.128-0.231-2.069-0.419-2.775-0.413-1.502-1.571-2.662-3.041-3.071l-0.031-0.007c-0.884-0.237-2.616-0.384-5.053-0.475-1.159-0.044-2.4-0.072-3.641-0.088-0.434-0.006-0.837-0.009-1.2-0.013h-0.919c-0.363 0.003-0.766 0.006-1.2 0.013-1.241 0.016-2.481 0.044-3.641 0.088-2.438 0.094-4.172 0.241-5.053 0.475-1.502 0.415-2.66 1.575-3.065 3.048l-0.007 0.031c-0.191 0.706-0.325 1.647-0.419 2.775-0.069 0.819-0.112 1.688-0.138 2.559-0.009 0.303-0.013 0.588-0.016 0.841 0 0.091-0.003 0.169-0.003 0.238v0.175c0 0.069 0 0.147 0.003 0.238 0.003 0.253 0.009 0.538 0.016 0.841 0.025 0.872 0.069 1.741 0.138 2.559 0.094 1.128 0.231 2.069 0.419 2.775 0.4 1.497 1.575 2.678 3.072 3.078 0.881 0.238 2.616 0.384 5.053 0.475 1.159 0.044 2.4 0.072 3.641 0.087 0.434 0.006 0.838 0.009 1.2 0.012h0.919c0.363-0.003 0.766-0.006 1.2-0.012 1.241-0.016 2.481-0.044 3.641-0.087 2.438-0.094 4.172-0.241 5.053-0.475 1.497-0.4 2.672-1.578 3.072-3.078 0.191-0.706 0.325-1.647 0.419-2.775 0.069-0.819 0.113-1.688 0.137-2.559 0.009-0.303 0.012-0.587 0.016-0.841 0-0.091 0.003-0.169 0.003-0.238v-0.175zM27.75 16.075c0 0.066 0 0.137-0.003 0.222-0.003 0.244-0.009 0.512-0.016 0.803-0.022 0.831-0.066 1.663-0.131 2.434-0.084 1.006-0.203 1.831-0.35 2.384-0.194 0.722-0.762 1.294-1.481 1.484-0.656 0.175-2.309 0.316-4.556 0.4-1.137 0.044-2.363 0.072-3.584 0.087-0.428 0.006-0.825 0.009-1.181 0.009h-0.894l-1.181-0.009c-1.222-0.016-2.444-0.044-3.584-0.087-2.247-0.087-3.903-0.225-4.556-0.4-0.719-0.194-1.287-0.762-1.481-1.484-0.147-0.553-0.266-1.378-0.35-2.384-0.066-0.772-0.106-1.603-0.131-2.434-0.009-0.291-0.013-0.563-0.016-0.803 0-0.084-0.003-0.159-0.003-0.222v-0.15c0-0.066 0-0.137 0.003-0.222 0.003-0.244 0.009-0.512 0.016-0.803 0.022-0.831 0.066-1.662 0.131-2.434 0.084-1.006 0.203-1.831 0.35-2.384 0.194-0.722 0.763-1.294 1.481-1.484 0.656-0.175 2.309-0.316 4.556-0.4 1.137-0.044 2.363-0.072 3.584-0.088 0.428-0.006 0.825-0.009 1.181-0.009h0.894l1.181 0.009c1.222 0.016 2.444 0.044 3.584 0.088 2.247 0.088 3.903 0.225 4.556 0.4 0.719 0.194 1.288 0.762 1.481 1.484 0.147 0.553 0.266 1.378 0.35 2.384 0.066 0.772 0.106 1.603 0.131 2.434 0.009 0.291 0.012 0.563 0.016 0.803 0 0.084 0.003 0.159 0.003 0.222v0.15zM13.219 20.188l7.25-4.219-7.25-4.156z"/>
</svg>
