<svg version="1.1" xmlns="http://www.w3.org/2000/svg" width="32" height="32" viewBox="0 0 32 32">
<path fill="currentColor" d="M26.706 11.581c-0.309-1.231 0.309-3.194 2.294-3.888l-2.122-0.112s-0.803-2.813-4.488-3.063c-3.681-0.253-6.091-0.094-6.094-0.094 0.003 0 2.731 1.737 1.637 4.834-0.8 1.641-2.056 2.987-3.4 4.522-0.041 0.041-0.078 0.081-0.109 0.116-4.444 5.009-11.425 12.978-11.425 12.978 7.684 2.012 12.834-0.197 15.881-2.847 0.641-0.006 1.122-0.009 1.447-0.009 4.244 0 7.831-3.675 7.684-7.762-0.1-2.809-0.997-3.444-1.306-4.675zM20.328 22.019c-0.331 0-0.819 0.003-1.462 0.009l-0.738 0.006-0.556 0.484c-1.472 1.281-3.262 2.234-5.356 2.738-1.641 0.394-3.438 0.506-5.397 0.3 0.563-0.641 1.141-1.3 1.731-1.972 2.875-3.269 5.431-6.172 7.403-8.391l0.044-0.044 0.041-0.047c0.128-0.144 0.644-0.728 0.772-0.878 0.303-0.347 0.541-0.622 0.766-0.894 0.959-1.147 1.631-2.119 2.156-3.194l0.050-0.103 0.038-0.106c0.428-1.213 0.481-2.403 0.194-3.525 0.703 0.022 1.453 0.059 2.241 0.112 1.041 0.072 1.734 0.403 2.222 0.912 0.181 0.188 0.319 0.391 0.419 0.584 0.031 0.063 0.053 0.113 0.072 0.156l0.156 0.553c-0.491 1.078-0.622 2.291-0.356 3.35 0.094 0.369 0.216 0.7 0.384 1.075 0.066 0.147 0.297 0.628 0.344 0.728 0.322 0.709 0.481 1.344 0.522 2.459 0.103 2.956-2.584 5.684-5.688 5.684z"/>
</svg>
