<svg version="1.1" xmlns="http://www.w3.org/2000/svg" width="32" height="32" viewBox="0 0 32 32">
<path fill="currentColor" d="M17.647 7.191v17.903h1.875l0.788 2.231 3.325-2.231h4.109v-17.903h-10.097zM25.387 22.722h-1.872l-2.347 1.575-0.556-1.575h-0.563v-13.088h5.334v13.088zM16.441 15.216h-4.15c0.066-1.403 0.134-3.259 0.206-5.403h4.091l-0.003-0.253c0-0.019-0.006-0.459-0.072-0.909-0.066-0.469-0.206-1.091-0.656-1.091h-6.863c0.137-0.644 0.491-2.178 0.919-2.931l0.2-0.35-0.403-0.022c-0.025 0-0.613-0.028-1.294 0.331-1.116 0.594-1.616 1.763-1.834 2.638-0.575 2.284-1.394 3.872-1.741 4.55-0.103 0.2-0.166 0.319-0.194 0.4-0.056 0.153-0.025 0.306 0.088 0.406 0.328 0.297 1.194-0.091 1.203-0.094 0.019-0.009 0.041-0.019 0.069-0.031 0.434-0.197 1.722-0.781 2.181-2.641h1.772c0.022 1.006 0.097 4.325 0.091 5.403h-4.406l-0.066 0.047c-0.722 0.528-0.953 1.975-0.963 2.038l-0.044 0.288h5.219c-0.384 2.447-0.828 3.544-1.063 3.981-0.116 0.219-0.228 0.438-0.334 0.65-0.666 1.319-1.356 2.681-3.947 4.8-0.112 0.087-0.219 0.25-0.15 0.428 0.075 0.197 0.291 0.284 0.769 0.284 0.169 0 0.369-0.009 0.606-0.031 1.559-0.137 3.15-0.563 4.222-2.738 0.531-1.097 0.991-2.241 1.372-3.403l4.266 5 0.156-0.375c0.025-0.059 0.594-1.447 0.159-2.997l-0.016-0.056-3.378-3.844-0.688 0.519c0.2-0.816 0.331-1.559 0.391-2.222h4.959v-0.25c0-1.253-0.578-1.997-0.6-2.028l-0.075-0.094z"/>
</svg>
