<svg version="1.1" xmlns="http://www.w3.org/2000/svg" width="32" height="32" viewBox="0 0 32 32">
<path fill="currentColor" d="M19.906 13.844h-3.688v-4.188c0-0.137-0.113-0.25-0.25-0.25h-1.875c-0.137 0-0.25 0.113-0.25 0.25v4.188h-3.688c-0.137 0-0.25 0.113-0.25 0.25v1.875c0 0.137 0.113 0.25 0.25 0.25h3.688v4.188c0 0.137 0.113 0.25 0.25 0.25h1.875c0.137 0 0.25-0.113 0.25-0.25v-4.188h3.688c0.137 0 0.25-0.113 0.25-0.25v-1.875c0-0.137-0.113-0.25-0.25-0.25zM28.781 27.094l-4.563-4.563c3.816-4.653 3.55-11.547-0.813-15.906-4.625-4.628-12.137-4.628-16.781 0-4.628 4.644-4.628 12.156 0 16.781 4.359 4.363 11.253 4.628 15.906 0.813l4.563 4.563c0.1 0.087 0.259 0.087 0.344 0l1.344-1.344c0.087-0.084 0.087-0.244 0-0.344zM21.75 21.75c-3.712 3.709-9.725 3.709-13.438 0-3.709-3.712-3.709-9.725 0-13.438 3.713-3.709 9.725-3.709 13.438 0 3.709 3.713 3.709 9.725 0 13.438z"/>
</svg>
